%TF.GenerationSoftware,KiCad,Pcbnew,4.0.7*%
%TF.CreationDate,2018-08-19T23:23:26+02:00*%
%TF.ProjectId,HB-UNI-644-S4-A4,48422D554E492D3634342D53342D4134,2.0*%
%TF.FileFunction,Copper,L1,Top,Signal*%
%FSLAX46Y46*%
G04 Gerber Fmt 4.6, Leading zero omitted, Abs format (unit mm)*
G04 Created by KiCad (PCBNEW 4.0.7) date 08/19/18 23:23:26*
%MOMM*%
%LPD*%
G01*
G04 APERTURE LIST*
%ADD10C,0.100000*%
%ADD11R,1.700000X1.700000*%
%ADD12O,1.700000X1.700000*%
%ADD13R,1.250000X1.500000*%
%ADD14R,1.300000X1.700000*%
%ADD15R,2.000000X2.600000*%
%ADD16O,2.000000X2.600000*%
%ADD17R,2.600000X2.000000*%
%ADD18O,2.600000X2.000000*%
%ADD19R,0.800000X0.900000*%
%ADD20R,1.300000X1.500000*%
%ADD21R,1.500000X1.300000*%
%ADD22R,1.500000X0.600000*%
%ADD23C,0.600000*%
%ADD24C,0.400000*%
%ADD25C,0.250000*%
%ADD26C,0.254000*%
G04 APERTURE END LIST*
D10*
D11*
X118110000Y-104140000D03*
D12*
X115570000Y-104140000D03*
X118110000Y-101600000D03*
X115570000Y-101600000D03*
X118110000Y-99060000D03*
X115570000Y-99060000D03*
X118110000Y-96520000D03*
X115570000Y-96520000D03*
X118110000Y-93980000D03*
X115570000Y-93980000D03*
X118110000Y-91440000D03*
X115570000Y-91440000D03*
X118110000Y-88900000D03*
X115570000Y-88900000D03*
X118110000Y-86360000D03*
X115570000Y-86360000D03*
X118110000Y-83820000D03*
X115570000Y-83820000D03*
D13*
X102870000Y-104120000D03*
X102870000Y-101620000D03*
X111760000Y-104120000D03*
X111760000Y-101620000D03*
D14*
X100810000Y-104140000D03*
X97310000Y-104140000D03*
X109700000Y-104140000D03*
X106200000Y-104140000D03*
D15*
X93345000Y-86360000D03*
D16*
X95885000Y-86360000D03*
X98425000Y-86360000D03*
X100965000Y-86360000D03*
D17*
X92710000Y-102870000D03*
D18*
X92710000Y-100330000D03*
X92710000Y-97790000D03*
X92710000Y-95250000D03*
X92710000Y-92710000D03*
D19*
X100010000Y-98695000D03*
X98110000Y-98695000D03*
X99060000Y-100695000D03*
X108900000Y-98695000D03*
X107000000Y-98695000D03*
X107950000Y-100695000D03*
D20*
X102870000Y-96440000D03*
X102870000Y-99140000D03*
X111760000Y-96440000D03*
X111760000Y-99140000D03*
D21*
X97710000Y-96520000D03*
X100410000Y-96520000D03*
X106600000Y-96520000D03*
X109300000Y-96520000D03*
D22*
X111285000Y-93980000D03*
X111285000Y-92710000D03*
X111285000Y-91440000D03*
X111285000Y-90170000D03*
X111285000Y-88900000D03*
X111285000Y-87630000D03*
X111285000Y-86360000D03*
X111285000Y-85090000D03*
X105885000Y-85090000D03*
X105885000Y-86360000D03*
X105885000Y-87630000D03*
X105885000Y-88900000D03*
X105885000Y-90170000D03*
X105885000Y-91440000D03*
X105885000Y-92710000D03*
X105885000Y-93980000D03*
D23*
X113665000Y-84455000D03*
X96520000Y-98425000D03*
X95250000Y-104140000D03*
X95250000Y-100330000D03*
X99060000Y-104140000D03*
X113665000Y-100965000D03*
X113665000Y-97790000D03*
X105410000Y-101600000D03*
X105410000Y-99695000D03*
X99060000Y-92075000D03*
X99060000Y-94615000D03*
X101600000Y-99060000D03*
X113665000Y-95250000D03*
X109220000Y-92710000D03*
X102870000Y-92710000D03*
X109220000Y-90170000D03*
X109220000Y-87630000D03*
X109220000Y-85090000D03*
X97155000Y-91440000D03*
X98425000Y-90805000D03*
D24*
X98110000Y-98695000D02*
X96790000Y-98695000D01*
X96790000Y-98695000D02*
X96520000Y-98425000D01*
X95250000Y-100330000D02*
X95250000Y-104140000D01*
X113665000Y-97790000D02*
X113665000Y-100965000D01*
X118110000Y-96520000D02*
X118110000Y-97790000D01*
X118110000Y-97790000D02*
X113665000Y-97790000D01*
X105410000Y-99695000D02*
X105410000Y-101600000D01*
X102870000Y-99140000D02*
X101680000Y-99140000D01*
X101680000Y-99140000D02*
X101600000Y-99060000D01*
X107950000Y-94724998D02*
X107950000Y-97790000D01*
X107950000Y-97790000D02*
X107045000Y-98695000D01*
X107045000Y-98695000D02*
X107000000Y-98695000D01*
X109220000Y-94615000D02*
X109110002Y-94724998D01*
X109110002Y-94724998D02*
X107950000Y-94724998D01*
X107950000Y-94724998D02*
X104775000Y-94724998D01*
X109220000Y-92710000D02*
X109220000Y-94615000D01*
X104775000Y-94615000D02*
X102870000Y-92710000D01*
X104775000Y-94724998D02*
X104775000Y-94615000D01*
D25*
X102870000Y-96440000D02*
X100490000Y-96440000D01*
X100490000Y-96440000D02*
X100410000Y-96520000D01*
X100410000Y-96520000D02*
X100410000Y-98295000D01*
X100410000Y-98295000D02*
X100010000Y-98695000D01*
X109300000Y-96520000D02*
X111680000Y-96520000D01*
X111680000Y-96520000D02*
X111760000Y-96440000D01*
X109300000Y-96520000D02*
X109300000Y-98295000D01*
X109300000Y-98295000D02*
X108900000Y-98695000D01*
X102870000Y-104120000D02*
X103485000Y-104120000D01*
X103485000Y-104120000D02*
X104775000Y-105410000D01*
X114300000Y-102870000D02*
X115570000Y-101600000D01*
X114300000Y-104140000D02*
X114300000Y-102870000D01*
X113030000Y-105410000D02*
X114300000Y-104140000D01*
X104775000Y-105410000D02*
X113030000Y-105410000D01*
X102870000Y-104120000D02*
X100830000Y-104120000D01*
X100830000Y-104120000D02*
X100810000Y-104140000D01*
X100810000Y-104140000D02*
X100810000Y-103985000D01*
X100810000Y-103985000D02*
X99060000Y-102235000D01*
X99060000Y-102235000D02*
X99060000Y-100695000D01*
X113665000Y-102235000D02*
X114300000Y-101600000D01*
X114300000Y-100330000D02*
X115570000Y-99060000D01*
X114300000Y-101600000D02*
X114300000Y-100330000D01*
X111760000Y-104120000D02*
X113050000Y-104120000D01*
X113665000Y-103505000D02*
X113665000Y-102235000D01*
X113050000Y-104120000D02*
X113665000Y-103505000D01*
X111760000Y-104120000D02*
X111780000Y-104120000D01*
X111760000Y-104120000D02*
X109720000Y-104120000D01*
X109720000Y-104120000D02*
X109700000Y-104140000D01*
X109700000Y-104140000D02*
X109700000Y-103985000D01*
X109700000Y-103985000D02*
X107950000Y-102235000D01*
X107950000Y-102235000D02*
X107950000Y-100695000D01*
X111285000Y-93980000D02*
X113030000Y-93980000D01*
X113030000Y-93980000D02*
X115570000Y-91440000D01*
X111285000Y-92710000D02*
X112395000Y-92710000D01*
X114300000Y-90170000D02*
X115570000Y-88900000D01*
X114300000Y-90805000D02*
X114300000Y-90170000D01*
X112395000Y-92710000D02*
X114300000Y-90805000D01*
X111285000Y-91440000D02*
X112395000Y-91440000D01*
X113665000Y-88265000D02*
X115570000Y-86360000D01*
X113665000Y-90170000D02*
X113665000Y-88265000D01*
X112395000Y-91440000D02*
X113665000Y-90170000D01*
X115570000Y-83820000D02*
X113665000Y-85725000D01*
X112395000Y-90170000D02*
X113030000Y-89535000D01*
X113030000Y-89535000D02*
X113030000Y-86995000D01*
X112395000Y-90170000D02*
X111285000Y-90170000D01*
X113030000Y-86360000D02*
X113030000Y-86995000D01*
X113665000Y-85725000D02*
X113030000Y-86360000D01*
D24*
X97710000Y-91995000D02*
X97710000Y-96520000D01*
X97155000Y-91440000D02*
X97710000Y-91995000D01*
X98425000Y-90805000D02*
X99695000Y-90805000D01*
X99695000Y-90805000D02*
X102235000Y-93345000D01*
X106600000Y-96520000D02*
X105410000Y-96520000D01*
X105410000Y-96520000D02*
X102235000Y-93345000D01*
D25*
X106600000Y-96520000D02*
X106600000Y-96440000D01*
D24*
X92710000Y-102870000D02*
X92075000Y-102870000D01*
X92075000Y-102870000D02*
X90805000Y-101600000D01*
X90805000Y-101600000D02*
X90805000Y-84455000D01*
X90805000Y-84455000D02*
X91440000Y-83820000D01*
X91440000Y-83820000D02*
X106680000Y-83820000D01*
X106680000Y-83820000D02*
X107950000Y-85090000D01*
X107950000Y-85090000D02*
X107950000Y-93345000D01*
X107950000Y-93345000D02*
X107315000Y-93980000D01*
X107315000Y-93980000D02*
X105885000Y-93980000D01*
D25*
X106680000Y-83820000D02*
X107315000Y-84455000D01*
X107315000Y-84455000D02*
X107950000Y-85090000D01*
X90805000Y-84455000D02*
X90805000Y-101600000D01*
X105885000Y-93980000D02*
X107315000Y-93980000D01*
X107315000Y-93980000D02*
X107950000Y-93345000D01*
X107950000Y-93345000D02*
X107950000Y-85090000D01*
X92075000Y-102870000D02*
X90805000Y-101600000D01*
X90805000Y-84455000D02*
X91440000Y-83820000D01*
X91440000Y-83820000D02*
X106680000Y-83820000D01*
D24*
X96520000Y-89535000D02*
X97790000Y-89535000D01*
X92710000Y-100330000D02*
X95885000Y-97155000D01*
X95885000Y-97155000D02*
X95885000Y-90170000D01*
X95885000Y-90170000D02*
X96520000Y-89535000D01*
X100965000Y-89535000D02*
X97790000Y-89535000D01*
X105885000Y-92710000D02*
X104140000Y-92710000D01*
X104140000Y-92710000D02*
X100965000Y-89535000D01*
D25*
X95885000Y-90170000D02*
X96520000Y-89535000D01*
X95885000Y-97155000D02*
X95885000Y-90170000D01*
X100965000Y-89535000D02*
X104140000Y-92710000D01*
X97790000Y-89535000D02*
X100965000Y-89535000D01*
D24*
X105885000Y-91440000D02*
X104140000Y-91440000D01*
X104140000Y-91440000D02*
X101600000Y-88900000D01*
X101600000Y-88900000D02*
X95885000Y-88900000D01*
X95885000Y-88900000D02*
X95250000Y-89535000D01*
X95250000Y-89535000D02*
X95250000Y-95250000D01*
X95250000Y-95250000D02*
X92710000Y-97790000D01*
D25*
X101600000Y-88900000D02*
X95885000Y-88900000D01*
X104140000Y-91440000D02*
X101600000Y-88900000D01*
X95250000Y-95250000D02*
X92710000Y-97790000D01*
X95250000Y-89535000D02*
X95250000Y-95250000D01*
X95885000Y-88900000D02*
X95250000Y-89535000D01*
D24*
X94615000Y-93345000D02*
X94615000Y-88900000D01*
X94615000Y-88900000D02*
X95250000Y-88265000D01*
X95250000Y-88265000D02*
X102235000Y-88265000D01*
X102235000Y-88265000D02*
X104140000Y-90170000D01*
X104140000Y-90170000D02*
X105885000Y-90170000D01*
X92710000Y-95250000D02*
X93980000Y-93980000D01*
X93980000Y-93980000D02*
X94615000Y-93345000D01*
D25*
X104140000Y-90170000D02*
X105885000Y-90170000D01*
X102235000Y-88265000D02*
X104140000Y-90170000D01*
X95250000Y-88265000D02*
X102235000Y-88265000D01*
X94615000Y-88900000D02*
X95250000Y-88265000D01*
D24*
X92710000Y-92710000D02*
X92710000Y-90170000D01*
X92710000Y-90170000D02*
X91440000Y-88900000D01*
X91440000Y-88900000D02*
X91440000Y-85090000D01*
X91440000Y-85090000D02*
X92075000Y-84455000D01*
X92075000Y-84455000D02*
X102870000Y-84455000D01*
X102870000Y-84455000D02*
X103505000Y-85090000D01*
X103505000Y-85090000D02*
X105885000Y-85090000D01*
D25*
X103505000Y-85090000D02*
X105885000Y-85090000D01*
X102870000Y-84455000D02*
X103505000Y-85090000D01*
X92075000Y-84455000D02*
X102870000Y-84455000D01*
X91440000Y-85090000D02*
X92075000Y-84455000D01*
X91440000Y-88900000D02*
X91440000Y-85090000D01*
X92710000Y-90170000D02*
X91440000Y-88900000D01*
D26*
G36*
X109370632Y-84304368D02*
X109592862Y-84452857D01*
X109855000Y-84505000D01*
X109965732Y-84505000D01*
X109900000Y-84663690D01*
X109900000Y-84804250D01*
X110058750Y-84963000D01*
X111158000Y-84963000D01*
X111158000Y-84943000D01*
X111412000Y-84943000D01*
X111412000Y-84963000D01*
X112511250Y-84963000D01*
X112670000Y-84804250D01*
X112670000Y-84663690D01*
X112588339Y-84466542D01*
X112657138Y-84452857D01*
X112879368Y-84304368D01*
X114583736Y-82600000D01*
X114745196Y-82600000D01*
X114490853Y-82769946D01*
X114168946Y-83251715D01*
X114055907Y-83820000D01*
X114128790Y-84186408D01*
X112580353Y-85734845D01*
X112579822Y-85734020D01*
X112670000Y-85516310D01*
X112670000Y-85375750D01*
X112511250Y-85217000D01*
X111412000Y-85217000D01*
X111412000Y-85237000D01*
X111158000Y-85237000D01*
X111158000Y-85217000D01*
X110058750Y-85217000D01*
X109900000Y-85375750D01*
X109900000Y-85516310D01*
X109989806Y-85733122D01*
X109938569Y-85808110D01*
X109887560Y-86060000D01*
X109887560Y-86660000D01*
X109931838Y-86895317D01*
X109995678Y-86994528D01*
X109938569Y-87078110D01*
X109887560Y-87330000D01*
X109887560Y-87930000D01*
X109931838Y-88165317D01*
X109995678Y-88264528D01*
X109938569Y-88348110D01*
X109887560Y-88600000D01*
X109887560Y-89200000D01*
X109931838Y-89435317D01*
X109995678Y-89534528D01*
X109938569Y-89618110D01*
X109887560Y-89870000D01*
X109887560Y-90470000D01*
X109931838Y-90705317D01*
X109995678Y-90804528D01*
X109938569Y-90888110D01*
X109887560Y-91140000D01*
X109887560Y-91740000D01*
X109931838Y-91975317D01*
X109995678Y-92074528D01*
X109938569Y-92158110D01*
X109887560Y-92410000D01*
X109887560Y-93010000D01*
X109931838Y-93245317D01*
X109995678Y-93344528D01*
X109938569Y-93428110D01*
X109887560Y-93680000D01*
X109887560Y-94280000D01*
X109931838Y-94515317D01*
X110070910Y-94731441D01*
X110283110Y-94876431D01*
X110535000Y-94927440D01*
X112035000Y-94927440D01*
X112270317Y-94883162D01*
X112486441Y-94744090D01*
X112489236Y-94740000D01*
X113030000Y-94740000D01*
X113320839Y-94682148D01*
X113567401Y-94517401D01*
X114064019Y-94020783D01*
X114168946Y-94548285D01*
X114490853Y-95030054D01*
X114820026Y-95250000D01*
X114490853Y-95469946D01*
X114168946Y-95951715D01*
X114055907Y-96520000D01*
X114168946Y-97088285D01*
X114490853Y-97570054D01*
X114820026Y-97790000D01*
X114490853Y-98009946D01*
X114168946Y-98491715D01*
X114055907Y-99060000D01*
X114128790Y-99426408D01*
X113762599Y-99792599D01*
X113597852Y-100039161D01*
X113540000Y-100330000D01*
X113540000Y-101285198D01*
X113127599Y-101697599D01*
X113001128Y-101886878D01*
X112861250Y-101747000D01*
X111887000Y-101747000D01*
X111887000Y-101767000D01*
X111633000Y-101767000D01*
X111633000Y-101747000D01*
X110658750Y-101747000D01*
X110500000Y-101905750D01*
X110500000Y-102496309D01*
X110579860Y-102689108D01*
X110350000Y-102642560D01*
X109432362Y-102642560D01*
X108710000Y-101920198D01*
X108710000Y-101667931D01*
X108801441Y-101609090D01*
X108946431Y-101396890D01*
X108997440Y-101145000D01*
X108997440Y-100245000D01*
X108953162Y-100009683D01*
X108814090Y-99793559D01*
X108812452Y-99792440D01*
X109300000Y-99792440D01*
X109535317Y-99748162D01*
X109751441Y-99609090D01*
X109876711Y-99425750D01*
X110475000Y-99425750D01*
X110475000Y-100016309D01*
X110571673Y-100249698D01*
X110714474Y-100392500D01*
X110596673Y-100510302D01*
X110500000Y-100743691D01*
X110500000Y-101334250D01*
X110658750Y-101493000D01*
X111633000Y-101493000D01*
X111633000Y-100393750D01*
X111619250Y-100380000D01*
X111633000Y-100366250D01*
X111633000Y-99267000D01*
X111887000Y-99267000D01*
X111887000Y-100366250D01*
X111900750Y-100380000D01*
X111887000Y-100393750D01*
X111887000Y-101493000D01*
X112861250Y-101493000D01*
X113020000Y-101334250D01*
X113020000Y-100743691D01*
X112923327Y-100510302D01*
X112805526Y-100392500D01*
X112948327Y-100249698D01*
X113045000Y-100016309D01*
X113045000Y-99425750D01*
X112886250Y-99267000D01*
X111887000Y-99267000D01*
X111633000Y-99267000D01*
X110633750Y-99267000D01*
X110475000Y-99425750D01*
X109876711Y-99425750D01*
X109896431Y-99396890D01*
X109947440Y-99145000D01*
X109947440Y-98667716D01*
X110002148Y-98585840D01*
X110020784Y-98492148D01*
X110060000Y-98295000D01*
X110060000Y-97815558D01*
X110285317Y-97773162D01*
X110501441Y-97634090D01*
X110573406Y-97528766D01*
X110645910Y-97641441D01*
X110858110Y-97786431D01*
X110891490Y-97793191D01*
X110750301Y-97851673D01*
X110571673Y-98030302D01*
X110475000Y-98263691D01*
X110475000Y-98854250D01*
X110633750Y-99013000D01*
X111633000Y-99013000D01*
X111633000Y-98993000D01*
X111887000Y-98993000D01*
X111887000Y-99013000D01*
X112886250Y-99013000D01*
X113045000Y-98854250D01*
X113045000Y-98263691D01*
X112948327Y-98030302D01*
X112769699Y-97851673D01*
X112633713Y-97795346D01*
X112645317Y-97793162D01*
X112861441Y-97654090D01*
X113006431Y-97441890D01*
X113057440Y-97190000D01*
X113057440Y-95690000D01*
X113013162Y-95454683D01*
X112874090Y-95238559D01*
X112661890Y-95093569D01*
X112410000Y-95042560D01*
X111110000Y-95042560D01*
X110874683Y-95086838D01*
X110658559Y-95225910D01*
X110520316Y-95428235D01*
X110514090Y-95418559D01*
X110301890Y-95273569D01*
X110050000Y-95222560D01*
X108550000Y-95222560D01*
X108314683Y-95266838D01*
X108098559Y-95405910D01*
X107953569Y-95618110D01*
X107950919Y-95631197D01*
X107814090Y-95418559D01*
X107601890Y-95273569D01*
X107350000Y-95222560D01*
X105850000Y-95222560D01*
X105614683Y-95266838D01*
X105446152Y-95375284D01*
X104963598Y-94892730D01*
X105135000Y-94927440D01*
X106635000Y-94927440D01*
X106870317Y-94883162D01*
X106976244Y-94815000D01*
X107315000Y-94815000D01*
X107634541Y-94751439D01*
X107905434Y-94570434D01*
X108540434Y-93935434D01*
X108721440Y-93664540D01*
X108785000Y-93345000D01*
X108785000Y-85090000D01*
X108721439Y-84770459D01*
X108540434Y-84499566D01*
X107270434Y-83229566D01*
X106999541Y-83048561D01*
X106680000Y-82985000D01*
X91440000Y-82985000D01*
X91120460Y-83048560D01*
X90849566Y-83229566D01*
X90214566Y-83864566D01*
X90033561Y-84135459D01*
X89970000Y-84455000D01*
X89970000Y-101600000D01*
X90033561Y-101919541D01*
X90199477Y-102167852D01*
X90214566Y-102190434D01*
X90762560Y-102738428D01*
X90762560Y-103870000D01*
X90806838Y-104105317D01*
X90945910Y-104321441D01*
X91158110Y-104466431D01*
X91410000Y-104517440D01*
X94010000Y-104517440D01*
X94245317Y-104473162D01*
X94461441Y-104334090D01*
X94606431Y-104121890D01*
X94657440Y-103870000D01*
X94657440Y-103163690D01*
X96025000Y-103163690D01*
X96025000Y-103854250D01*
X96183750Y-104013000D01*
X97183000Y-104013000D01*
X97183000Y-102813750D01*
X97437000Y-102813750D01*
X97437000Y-104013000D01*
X98436250Y-104013000D01*
X98595000Y-103854250D01*
X98595000Y-103163690D01*
X98498327Y-102930301D01*
X98319698Y-102751673D01*
X98086309Y-102655000D01*
X97595750Y-102655000D01*
X97437000Y-102813750D01*
X97183000Y-102813750D01*
X97024250Y-102655000D01*
X96533691Y-102655000D01*
X96300302Y-102751673D01*
X96121673Y-102930301D01*
X96025000Y-103163690D01*
X94657440Y-103163690D01*
X94657440Y-101870000D01*
X94613162Y-101634683D01*
X94474090Y-101418559D01*
X94319671Y-101313049D01*
X94558452Y-100955687D01*
X94682909Y-100330000D01*
X94558452Y-99704313D01*
X94541670Y-99679198D01*
X95240118Y-98980750D01*
X97075000Y-98980750D01*
X97075000Y-99271309D01*
X97171673Y-99504698D01*
X97350301Y-99683327D01*
X97583690Y-99780000D01*
X97824250Y-99780000D01*
X97983000Y-99621250D01*
X97983000Y-98822000D01*
X97233750Y-98822000D01*
X97075000Y-98980750D01*
X95240118Y-98980750D01*
X96475434Y-97745434D01*
X96501333Y-97706673D01*
X96538733Y-97650701D01*
X96708110Y-97766431D01*
X96960000Y-97817440D01*
X97239535Y-97817440D01*
X97171673Y-97885302D01*
X97075000Y-98118691D01*
X97075000Y-98409250D01*
X97233750Y-98568000D01*
X97983000Y-98568000D01*
X97983000Y-98548000D01*
X98237000Y-98548000D01*
X98237000Y-98568000D01*
X98257000Y-98568000D01*
X98257000Y-98822000D01*
X98237000Y-98822000D01*
X98237000Y-99621250D01*
X98323012Y-99707262D01*
X98208559Y-99780910D01*
X98063569Y-99993110D01*
X98012560Y-100245000D01*
X98012560Y-101145000D01*
X98056838Y-101380317D01*
X98195910Y-101596441D01*
X98300000Y-101667563D01*
X98300000Y-102235000D01*
X98357852Y-102525839D01*
X98522599Y-102772401D01*
X99512560Y-103762362D01*
X99512560Y-104990000D01*
X99556838Y-105225317D01*
X99643504Y-105360000D01*
X98488026Y-105360000D01*
X98498327Y-105349699D01*
X98595000Y-105116310D01*
X98595000Y-104425750D01*
X98436250Y-104267000D01*
X97437000Y-104267000D01*
X97437000Y-104287000D01*
X97183000Y-104287000D01*
X97183000Y-104267000D01*
X96183750Y-104267000D01*
X96025000Y-104425750D01*
X96025000Y-105116310D01*
X96121673Y-105349699D01*
X96131974Y-105360000D01*
X89585000Y-105360000D01*
X89585000Y-82600000D01*
X107666264Y-82600000D01*
X109370632Y-84304368D01*
X109370632Y-84304368D01*
G37*
X109370632Y-84304368D02*
X109592862Y-84452857D01*
X109855000Y-84505000D01*
X109965732Y-84505000D01*
X109900000Y-84663690D01*
X109900000Y-84804250D01*
X110058750Y-84963000D01*
X111158000Y-84963000D01*
X111158000Y-84943000D01*
X111412000Y-84943000D01*
X111412000Y-84963000D01*
X112511250Y-84963000D01*
X112670000Y-84804250D01*
X112670000Y-84663690D01*
X112588339Y-84466542D01*
X112657138Y-84452857D01*
X112879368Y-84304368D01*
X114583736Y-82600000D01*
X114745196Y-82600000D01*
X114490853Y-82769946D01*
X114168946Y-83251715D01*
X114055907Y-83820000D01*
X114128790Y-84186408D01*
X112580353Y-85734845D01*
X112579822Y-85734020D01*
X112670000Y-85516310D01*
X112670000Y-85375750D01*
X112511250Y-85217000D01*
X111412000Y-85217000D01*
X111412000Y-85237000D01*
X111158000Y-85237000D01*
X111158000Y-85217000D01*
X110058750Y-85217000D01*
X109900000Y-85375750D01*
X109900000Y-85516310D01*
X109989806Y-85733122D01*
X109938569Y-85808110D01*
X109887560Y-86060000D01*
X109887560Y-86660000D01*
X109931838Y-86895317D01*
X109995678Y-86994528D01*
X109938569Y-87078110D01*
X109887560Y-87330000D01*
X109887560Y-87930000D01*
X109931838Y-88165317D01*
X109995678Y-88264528D01*
X109938569Y-88348110D01*
X109887560Y-88600000D01*
X109887560Y-89200000D01*
X109931838Y-89435317D01*
X109995678Y-89534528D01*
X109938569Y-89618110D01*
X109887560Y-89870000D01*
X109887560Y-90470000D01*
X109931838Y-90705317D01*
X109995678Y-90804528D01*
X109938569Y-90888110D01*
X109887560Y-91140000D01*
X109887560Y-91740000D01*
X109931838Y-91975317D01*
X109995678Y-92074528D01*
X109938569Y-92158110D01*
X109887560Y-92410000D01*
X109887560Y-93010000D01*
X109931838Y-93245317D01*
X109995678Y-93344528D01*
X109938569Y-93428110D01*
X109887560Y-93680000D01*
X109887560Y-94280000D01*
X109931838Y-94515317D01*
X110070910Y-94731441D01*
X110283110Y-94876431D01*
X110535000Y-94927440D01*
X112035000Y-94927440D01*
X112270317Y-94883162D01*
X112486441Y-94744090D01*
X112489236Y-94740000D01*
X113030000Y-94740000D01*
X113320839Y-94682148D01*
X113567401Y-94517401D01*
X114064019Y-94020783D01*
X114168946Y-94548285D01*
X114490853Y-95030054D01*
X114820026Y-95250000D01*
X114490853Y-95469946D01*
X114168946Y-95951715D01*
X114055907Y-96520000D01*
X114168946Y-97088285D01*
X114490853Y-97570054D01*
X114820026Y-97790000D01*
X114490853Y-98009946D01*
X114168946Y-98491715D01*
X114055907Y-99060000D01*
X114128790Y-99426408D01*
X113762599Y-99792599D01*
X113597852Y-100039161D01*
X113540000Y-100330000D01*
X113540000Y-101285198D01*
X113127599Y-101697599D01*
X113001128Y-101886878D01*
X112861250Y-101747000D01*
X111887000Y-101747000D01*
X111887000Y-101767000D01*
X111633000Y-101767000D01*
X111633000Y-101747000D01*
X110658750Y-101747000D01*
X110500000Y-101905750D01*
X110500000Y-102496309D01*
X110579860Y-102689108D01*
X110350000Y-102642560D01*
X109432362Y-102642560D01*
X108710000Y-101920198D01*
X108710000Y-101667931D01*
X108801441Y-101609090D01*
X108946431Y-101396890D01*
X108997440Y-101145000D01*
X108997440Y-100245000D01*
X108953162Y-100009683D01*
X108814090Y-99793559D01*
X108812452Y-99792440D01*
X109300000Y-99792440D01*
X109535317Y-99748162D01*
X109751441Y-99609090D01*
X109876711Y-99425750D01*
X110475000Y-99425750D01*
X110475000Y-100016309D01*
X110571673Y-100249698D01*
X110714474Y-100392500D01*
X110596673Y-100510302D01*
X110500000Y-100743691D01*
X110500000Y-101334250D01*
X110658750Y-101493000D01*
X111633000Y-101493000D01*
X111633000Y-100393750D01*
X111619250Y-100380000D01*
X111633000Y-100366250D01*
X111633000Y-99267000D01*
X111887000Y-99267000D01*
X111887000Y-100366250D01*
X111900750Y-100380000D01*
X111887000Y-100393750D01*
X111887000Y-101493000D01*
X112861250Y-101493000D01*
X113020000Y-101334250D01*
X113020000Y-100743691D01*
X112923327Y-100510302D01*
X112805526Y-100392500D01*
X112948327Y-100249698D01*
X113045000Y-100016309D01*
X113045000Y-99425750D01*
X112886250Y-99267000D01*
X111887000Y-99267000D01*
X111633000Y-99267000D01*
X110633750Y-99267000D01*
X110475000Y-99425750D01*
X109876711Y-99425750D01*
X109896431Y-99396890D01*
X109947440Y-99145000D01*
X109947440Y-98667716D01*
X110002148Y-98585840D01*
X110020784Y-98492148D01*
X110060000Y-98295000D01*
X110060000Y-97815558D01*
X110285317Y-97773162D01*
X110501441Y-97634090D01*
X110573406Y-97528766D01*
X110645910Y-97641441D01*
X110858110Y-97786431D01*
X110891490Y-97793191D01*
X110750301Y-97851673D01*
X110571673Y-98030302D01*
X110475000Y-98263691D01*
X110475000Y-98854250D01*
X110633750Y-99013000D01*
X111633000Y-99013000D01*
X111633000Y-98993000D01*
X111887000Y-98993000D01*
X111887000Y-99013000D01*
X112886250Y-99013000D01*
X113045000Y-98854250D01*
X113045000Y-98263691D01*
X112948327Y-98030302D01*
X112769699Y-97851673D01*
X112633713Y-97795346D01*
X112645317Y-97793162D01*
X112861441Y-97654090D01*
X113006431Y-97441890D01*
X113057440Y-97190000D01*
X113057440Y-95690000D01*
X113013162Y-95454683D01*
X112874090Y-95238559D01*
X112661890Y-95093569D01*
X112410000Y-95042560D01*
X111110000Y-95042560D01*
X110874683Y-95086838D01*
X110658559Y-95225910D01*
X110520316Y-95428235D01*
X110514090Y-95418559D01*
X110301890Y-95273569D01*
X110050000Y-95222560D01*
X108550000Y-95222560D01*
X108314683Y-95266838D01*
X108098559Y-95405910D01*
X107953569Y-95618110D01*
X107950919Y-95631197D01*
X107814090Y-95418559D01*
X107601890Y-95273569D01*
X107350000Y-95222560D01*
X105850000Y-95222560D01*
X105614683Y-95266838D01*
X105446152Y-95375284D01*
X104963598Y-94892730D01*
X105135000Y-94927440D01*
X106635000Y-94927440D01*
X106870317Y-94883162D01*
X106976244Y-94815000D01*
X107315000Y-94815000D01*
X107634541Y-94751439D01*
X107905434Y-94570434D01*
X108540434Y-93935434D01*
X108721440Y-93664540D01*
X108785000Y-93345000D01*
X108785000Y-85090000D01*
X108721439Y-84770459D01*
X108540434Y-84499566D01*
X107270434Y-83229566D01*
X106999541Y-83048561D01*
X106680000Y-82985000D01*
X91440000Y-82985000D01*
X91120460Y-83048560D01*
X90849566Y-83229566D01*
X90214566Y-83864566D01*
X90033561Y-84135459D01*
X89970000Y-84455000D01*
X89970000Y-101600000D01*
X90033561Y-101919541D01*
X90199477Y-102167852D01*
X90214566Y-102190434D01*
X90762560Y-102738428D01*
X90762560Y-103870000D01*
X90806838Y-104105317D01*
X90945910Y-104321441D01*
X91158110Y-104466431D01*
X91410000Y-104517440D01*
X94010000Y-104517440D01*
X94245317Y-104473162D01*
X94461441Y-104334090D01*
X94606431Y-104121890D01*
X94657440Y-103870000D01*
X94657440Y-103163690D01*
X96025000Y-103163690D01*
X96025000Y-103854250D01*
X96183750Y-104013000D01*
X97183000Y-104013000D01*
X97183000Y-102813750D01*
X97437000Y-102813750D01*
X97437000Y-104013000D01*
X98436250Y-104013000D01*
X98595000Y-103854250D01*
X98595000Y-103163690D01*
X98498327Y-102930301D01*
X98319698Y-102751673D01*
X98086309Y-102655000D01*
X97595750Y-102655000D01*
X97437000Y-102813750D01*
X97183000Y-102813750D01*
X97024250Y-102655000D01*
X96533691Y-102655000D01*
X96300302Y-102751673D01*
X96121673Y-102930301D01*
X96025000Y-103163690D01*
X94657440Y-103163690D01*
X94657440Y-101870000D01*
X94613162Y-101634683D01*
X94474090Y-101418559D01*
X94319671Y-101313049D01*
X94558452Y-100955687D01*
X94682909Y-100330000D01*
X94558452Y-99704313D01*
X94541670Y-99679198D01*
X95240118Y-98980750D01*
X97075000Y-98980750D01*
X97075000Y-99271309D01*
X97171673Y-99504698D01*
X97350301Y-99683327D01*
X97583690Y-99780000D01*
X97824250Y-99780000D01*
X97983000Y-99621250D01*
X97983000Y-98822000D01*
X97233750Y-98822000D01*
X97075000Y-98980750D01*
X95240118Y-98980750D01*
X96475434Y-97745434D01*
X96501333Y-97706673D01*
X96538733Y-97650701D01*
X96708110Y-97766431D01*
X96960000Y-97817440D01*
X97239535Y-97817440D01*
X97171673Y-97885302D01*
X97075000Y-98118691D01*
X97075000Y-98409250D01*
X97233750Y-98568000D01*
X97983000Y-98568000D01*
X97983000Y-98548000D01*
X98237000Y-98548000D01*
X98237000Y-98568000D01*
X98257000Y-98568000D01*
X98257000Y-98822000D01*
X98237000Y-98822000D01*
X98237000Y-99621250D01*
X98323012Y-99707262D01*
X98208559Y-99780910D01*
X98063569Y-99993110D01*
X98012560Y-100245000D01*
X98012560Y-101145000D01*
X98056838Y-101380317D01*
X98195910Y-101596441D01*
X98300000Y-101667563D01*
X98300000Y-102235000D01*
X98357852Y-102525839D01*
X98522599Y-102772401D01*
X99512560Y-103762362D01*
X99512560Y-104990000D01*
X99556838Y-105225317D01*
X99643504Y-105360000D01*
X98488026Y-105360000D01*
X98498327Y-105349699D01*
X98595000Y-105116310D01*
X98595000Y-104425750D01*
X98436250Y-104267000D01*
X97437000Y-104267000D01*
X97437000Y-104287000D01*
X97183000Y-104287000D01*
X97183000Y-104267000D01*
X96183750Y-104267000D01*
X96025000Y-104425750D01*
X96025000Y-105116310D01*
X96121673Y-105349699D01*
X96131974Y-105360000D01*
X89585000Y-105360000D01*
X89585000Y-82600000D01*
X107666264Y-82600000D01*
X109370632Y-84304368D01*
G36*
X104819566Y-97110434D02*
X105090459Y-97291439D01*
X105230658Y-97319326D01*
X105246838Y-97405317D01*
X105385910Y-97621441D01*
X105598110Y-97766431D01*
X105850000Y-97817440D01*
X106129535Y-97817440D01*
X106061673Y-97885302D01*
X105965000Y-98118691D01*
X105965000Y-98409250D01*
X106123750Y-98568000D01*
X106873000Y-98568000D01*
X106873000Y-98548000D01*
X107127000Y-98548000D01*
X107127000Y-98568000D01*
X107147000Y-98568000D01*
X107147000Y-98822000D01*
X107127000Y-98822000D01*
X107127000Y-99621250D01*
X107213012Y-99707262D01*
X107098559Y-99780910D01*
X106953569Y-99993110D01*
X106902560Y-100245000D01*
X106902560Y-101145000D01*
X106946838Y-101380317D01*
X107085910Y-101596441D01*
X107190000Y-101667563D01*
X107190000Y-102235000D01*
X107247852Y-102525839D01*
X107412599Y-102772401D01*
X108402560Y-103762362D01*
X108402560Y-104650000D01*
X107485000Y-104650000D01*
X107485000Y-104425750D01*
X107326250Y-104267000D01*
X106327000Y-104267000D01*
X106327000Y-104287000D01*
X106073000Y-104287000D01*
X106073000Y-104267000D01*
X105073750Y-104267000D01*
X104915000Y-104425750D01*
X104915000Y-104475197D01*
X104142440Y-103702638D01*
X104142440Y-103370000D01*
X104103621Y-103163690D01*
X104915000Y-103163690D01*
X104915000Y-103854250D01*
X105073750Y-104013000D01*
X106073000Y-104013000D01*
X106073000Y-102813750D01*
X106327000Y-102813750D01*
X106327000Y-104013000D01*
X107326250Y-104013000D01*
X107485000Y-103854250D01*
X107485000Y-103163690D01*
X107388327Y-102930301D01*
X107209698Y-102751673D01*
X106976309Y-102655000D01*
X106485750Y-102655000D01*
X106327000Y-102813750D01*
X106073000Y-102813750D01*
X105914250Y-102655000D01*
X105423691Y-102655000D01*
X105190302Y-102751673D01*
X105011673Y-102930301D01*
X104915000Y-103163690D01*
X104103621Y-103163690D01*
X104098162Y-103134683D01*
X103959090Y-102918559D01*
X103890994Y-102872031D01*
X104033327Y-102729698D01*
X104130000Y-102496309D01*
X104130000Y-101905750D01*
X103971250Y-101747000D01*
X102997000Y-101747000D01*
X102997000Y-101767000D01*
X102743000Y-101767000D01*
X102743000Y-101747000D01*
X101768750Y-101747000D01*
X101610000Y-101905750D01*
X101610000Y-102496309D01*
X101689860Y-102689108D01*
X101460000Y-102642560D01*
X100542362Y-102642560D01*
X99820000Y-101920198D01*
X99820000Y-101667931D01*
X99911441Y-101609090D01*
X100056431Y-101396890D01*
X100107440Y-101145000D01*
X100107440Y-100245000D01*
X100063162Y-100009683D01*
X99924090Y-99793559D01*
X99922452Y-99792440D01*
X100410000Y-99792440D01*
X100645317Y-99748162D01*
X100861441Y-99609090D01*
X100986711Y-99425750D01*
X101585000Y-99425750D01*
X101585000Y-100016309D01*
X101681673Y-100249698D01*
X101824474Y-100392500D01*
X101706673Y-100510302D01*
X101610000Y-100743691D01*
X101610000Y-101334250D01*
X101768750Y-101493000D01*
X102743000Y-101493000D01*
X102743000Y-100393750D01*
X102729250Y-100380000D01*
X102743000Y-100366250D01*
X102743000Y-99267000D01*
X102997000Y-99267000D01*
X102997000Y-100366250D01*
X103010750Y-100380000D01*
X102997000Y-100393750D01*
X102997000Y-101493000D01*
X103971250Y-101493000D01*
X104130000Y-101334250D01*
X104130000Y-100743691D01*
X104033327Y-100510302D01*
X103915526Y-100392500D01*
X104058327Y-100249698D01*
X104155000Y-100016309D01*
X104155000Y-99425750D01*
X103996250Y-99267000D01*
X102997000Y-99267000D01*
X102743000Y-99267000D01*
X101743750Y-99267000D01*
X101585000Y-99425750D01*
X100986711Y-99425750D01*
X101006431Y-99396890D01*
X101057440Y-99145000D01*
X101057440Y-98667716D01*
X101112148Y-98585840D01*
X101130784Y-98492148D01*
X101170000Y-98295000D01*
X101170000Y-97815558D01*
X101395317Y-97773162D01*
X101611441Y-97634090D01*
X101683406Y-97528766D01*
X101755910Y-97641441D01*
X101968110Y-97786431D01*
X102001490Y-97793191D01*
X101860301Y-97851673D01*
X101681673Y-98030302D01*
X101585000Y-98263691D01*
X101585000Y-98854250D01*
X101743750Y-99013000D01*
X102743000Y-99013000D01*
X102743000Y-98993000D01*
X102997000Y-98993000D01*
X102997000Y-99013000D01*
X103996250Y-99013000D01*
X104028500Y-98980750D01*
X105965000Y-98980750D01*
X105965000Y-99271309D01*
X106061673Y-99504698D01*
X106240301Y-99683327D01*
X106473690Y-99780000D01*
X106714250Y-99780000D01*
X106873000Y-99621250D01*
X106873000Y-98822000D01*
X106123750Y-98822000D01*
X105965000Y-98980750D01*
X104028500Y-98980750D01*
X104155000Y-98854250D01*
X104155000Y-98263691D01*
X104058327Y-98030302D01*
X103879699Y-97851673D01*
X103743713Y-97795346D01*
X103755317Y-97793162D01*
X103971441Y-97654090D01*
X104116431Y-97441890D01*
X104167440Y-97190000D01*
X104167440Y-96458308D01*
X104819566Y-97110434D01*
X104819566Y-97110434D01*
G37*
X104819566Y-97110434D02*
X105090459Y-97291439D01*
X105230658Y-97319326D01*
X105246838Y-97405317D01*
X105385910Y-97621441D01*
X105598110Y-97766431D01*
X105850000Y-97817440D01*
X106129535Y-97817440D01*
X106061673Y-97885302D01*
X105965000Y-98118691D01*
X105965000Y-98409250D01*
X106123750Y-98568000D01*
X106873000Y-98568000D01*
X106873000Y-98548000D01*
X107127000Y-98548000D01*
X107127000Y-98568000D01*
X107147000Y-98568000D01*
X107147000Y-98822000D01*
X107127000Y-98822000D01*
X107127000Y-99621250D01*
X107213012Y-99707262D01*
X107098559Y-99780910D01*
X106953569Y-99993110D01*
X106902560Y-100245000D01*
X106902560Y-101145000D01*
X106946838Y-101380317D01*
X107085910Y-101596441D01*
X107190000Y-101667563D01*
X107190000Y-102235000D01*
X107247852Y-102525839D01*
X107412599Y-102772401D01*
X108402560Y-103762362D01*
X108402560Y-104650000D01*
X107485000Y-104650000D01*
X107485000Y-104425750D01*
X107326250Y-104267000D01*
X106327000Y-104267000D01*
X106327000Y-104287000D01*
X106073000Y-104287000D01*
X106073000Y-104267000D01*
X105073750Y-104267000D01*
X104915000Y-104425750D01*
X104915000Y-104475197D01*
X104142440Y-103702638D01*
X104142440Y-103370000D01*
X104103621Y-103163690D01*
X104915000Y-103163690D01*
X104915000Y-103854250D01*
X105073750Y-104013000D01*
X106073000Y-104013000D01*
X106073000Y-102813750D01*
X106327000Y-102813750D01*
X106327000Y-104013000D01*
X107326250Y-104013000D01*
X107485000Y-103854250D01*
X107485000Y-103163690D01*
X107388327Y-102930301D01*
X107209698Y-102751673D01*
X106976309Y-102655000D01*
X106485750Y-102655000D01*
X106327000Y-102813750D01*
X106073000Y-102813750D01*
X105914250Y-102655000D01*
X105423691Y-102655000D01*
X105190302Y-102751673D01*
X105011673Y-102930301D01*
X104915000Y-103163690D01*
X104103621Y-103163690D01*
X104098162Y-103134683D01*
X103959090Y-102918559D01*
X103890994Y-102872031D01*
X104033327Y-102729698D01*
X104130000Y-102496309D01*
X104130000Y-101905750D01*
X103971250Y-101747000D01*
X102997000Y-101747000D01*
X102997000Y-101767000D01*
X102743000Y-101767000D01*
X102743000Y-101747000D01*
X101768750Y-101747000D01*
X101610000Y-101905750D01*
X101610000Y-102496309D01*
X101689860Y-102689108D01*
X101460000Y-102642560D01*
X100542362Y-102642560D01*
X99820000Y-101920198D01*
X99820000Y-101667931D01*
X99911441Y-101609090D01*
X100056431Y-101396890D01*
X100107440Y-101145000D01*
X100107440Y-100245000D01*
X100063162Y-100009683D01*
X99924090Y-99793559D01*
X99922452Y-99792440D01*
X100410000Y-99792440D01*
X100645317Y-99748162D01*
X100861441Y-99609090D01*
X100986711Y-99425750D01*
X101585000Y-99425750D01*
X101585000Y-100016309D01*
X101681673Y-100249698D01*
X101824474Y-100392500D01*
X101706673Y-100510302D01*
X101610000Y-100743691D01*
X101610000Y-101334250D01*
X101768750Y-101493000D01*
X102743000Y-101493000D01*
X102743000Y-100393750D01*
X102729250Y-100380000D01*
X102743000Y-100366250D01*
X102743000Y-99267000D01*
X102997000Y-99267000D01*
X102997000Y-100366250D01*
X103010750Y-100380000D01*
X102997000Y-100393750D01*
X102997000Y-101493000D01*
X103971250Y-101493000D01*
X104130000Y-101334250D01*
X104130000Y-100743691D01*
X104033327Y-100510302D01*
X103915526Y-100392500D01*
X104058327Y-100249698D01*
X104155000Y-100016309D01*
X104155000Y-99425750D01*
X103996250Y-99267000D01*
X102997000Y-99267000D01*
X102743000Y-99267000D01*
X101743750Y-99267000D01*
X101585000Y-99425750D01*
X100986711Y-99425750D01*
X101006431Y-99396890D01*
X101057440Y-99145000D01*
X101057440Y-98667716D01*
X101112148Y-98585840D01*
X101130784Y-98492148D01*
X101170000Y-98295000D01*
X101170000Y-97815558D01*
X101395317Y-97773162D01*
X101611441Y-97634090D01*
X101683406Y-97528766D01*
X101755910Y-97641441D01*
X101968110Y-97786431D01*
X102001490Y-97793191D01*
X101860301Y-97851673D01*
X101681673Y-98030302D01*
X101585000Y-98263691D01*
X101585000Y-98854250D01*
X101743750Y-99013000D01*
X102743000Y-99013000D01*
X102743000Y-98993000D01*
X102997000Y-98993000D01*
X102997000Y-99013000D01*
X103996250Y-99013000D01*
X104028500Y-98980750D01*
X105965000Y-98980750D01*
X105965000Y-99271309D01*
X106061673Y-99504698D01*
X106240301Y-99683327D01*
X106473690Y-99780000D01*
X106714250Y-99780000D01*
X106873000Y-99621250D01*
X106873000Y-98822000D01*
X106123750Y-98822000D01*
X105965000Y-98980750D01*
X104028500Y-98980750D01*
X104155000Y-98854250D01*
X104155000Y-98263691D01*
X104058327Y-98030302D01*
X103879699Y-97851673D01*
X103743713Y-97795346D01*
X103755317Y-97793162D01*
X103971441Y-97654090D01*
X104116431Y-97441890D01*
X104167440Y-97190000D01*
X104167440Y-96458308D01*
X104819566Y-97110434D01*
G36*
X118237000Y-83693000D02*
X118257000Y-83693000D01*
X118257000Y-83947000D01*
X118237000Y-83947000D01*
X118237000Y-86233000D01*
X118257000Y-86233000D01*
X118257000Y-86487000D01*
X118237000Y-86487000D01*
X118237000Y-88773000D01*
X118257000Y-88773000D01*
X118257000Y-89027000D01*
X118237000Y-89027000D01*
X118237000Y-91313000D01*
X118257000Y-91313000D01*
X118257000Y-91567000D01*
X118237000Y-91567000D01*
X118237000Y-93853000D01*
X118257000Y-93853000D01*
X118257000Y-94107000D01*
X118237000Y-94107000D01*
X118237000Y-96393000D01*
X118257000Y-96393000D01*
X118257000Y-96647000D01*
X118237000Y-96647000D01*
X118237000Y-98933000D01*
X118257000Y-98933000D01*
X118257000Y-99187000D01*
X118237000Y-99187000D01*
X118237000Y-101473000D01*
X118257000Y-101473000D01*
X118257000Y-101727000D01*
X118237000Y-101727000D01*
X118237000Y-104013000D01*
X118257000Y-104013000D01*
X118257000Y-104267000D01*
X118237000Y-104267000D01*
X118237000Y-104287000D01*
X117983000Y-104287000D01*
X117983000Y-104267000D01*
X117963000Y-104267000D01*
X117963000Y-104013000D01*
X117983000Y-104013000D01*
X117983000Y-101727000D01*
X117963000Y-101727000D01*
X117963000Y-101473000D01*
X117983000Y-101473000D01*
X117983000Y-99187000D01*
X117963000Y-99187000D01*
X117963000Y-98933000D01*
X117983000Y-98933000D01*
X117983000Y-96647000D01*
X117963000Y-96647000D01*
X117963000Y-96393000D01*
X117983000Y-96393000D01*
X117983000Y-94107000D01*
X117963000Y-94107000D01*
X117963000Y-93853000D01*
X117983000Y-93853000D01*
X117983000Y-91567000D01*
X117963000Y-91567000D01*
X117963000Y-91313000D01*
X117983000Y-91313000D01*
X117983000Y-89027000D01*
X117963000Y-89027000D01*
X117963000Y-88773000D01*
X117983000Y-88773000D01*
X117983000Y-86487000D01*
X117963000Y-86487000D01*
X117963000Y-86233000D01*
X117983000Y-86233000D01*
X117983000Y-83947000D01*
X117963000Y-83947000D01*
X117963000Y-83693000D01*
X117983000Y-83693000D01*
X117983000Y-83673000D01*
X118237000Y-83673000D01*
X118237000Y-83693000D01*
X118237000Y-83693000D01*
G37*
X118237000Y-83693000D02*
X118257000Y-83693000D01*
X118257000Y-83947000D01*
X118237000Y-83947000D01*
X118237000Y-86233000D01*
X118257000Y-86233000D01*
X118257000Y-86487000D01*
X118237000Y-86487000D01*
X118237000Y-88773000D01*
X118257000Y-88773000D01*
X118257000Y-89027000D01*
X118237000Y-89027000D01*
X118237000Y-91313000D01*
X118257000Y-91313000D01*
X118257000Y-91567000D01*
X118237000Y-91567000D01*
X118237000Y-93853000D01*
X118257000Y-93853000D01*
X118257000Y-94107000D01*
X118237000Y-94107000D01*
X118237000Y-96393000D01*
X118257000Y-96393000D01*
X118257000Y-96647000D01*
X118237000Y-96647000D01*
X118237000Y-98933000D01*
X118257000Y-98933000D01*
X118257000Y-99187000D01*
X118237000Y-99187000D01*
X118237000Y-101473000D01*
X118257000Y-101473000D01*
X118257000Y-101727000D01*
X118237000Y-101727000D01*
X118237000Y-104013000D01*
X118257000Y-104013000D01*
X118257000Y-104267000D01*
X118237000Y-104267000D01*
X118237000Y-104287000D01*
X117983000Y-104287000D01*
X117983000Y-104267000D01*
X117963000Y-104267000D01*
X117963000Y-104013000D01*
X117983000Y-104013000D01*
X117983000Y-101727000D01*
X117963000Y-101727000D01*
X117963000Y-101473000D01*
X117983000Y-101473000D01*
X117983000Y-99187000D01*
X117963000Y-99187000D01*
X117963000Y-98933000D01*
X117983000Y-98933000D01*
X117983000Y-96647000D01*
X117963000Y-96647000D01*
X117963000Y-96393000D01*
X117983000Y-96393000D01*
X117983000Y-94107000D01*
X117963000Y-94107000D01*
X117963000Y-93853000D01*
X117983000Y-93853000D01*
X117983000Y-91567000D01*
X117963000Y-91567000D01*
X117963000Y-91313000D01*
X117983000Y-91313000D01*
X117983000Y-89027000D01*
X117963000Y-89027000D01*
X117963000Y-88773000D01*
X117983000Y-88773000D01*
X117983000Y-86487000D01*
X117963000Y-86487000D01*
X117963000Y-86233000D01*
X117983000Y-86233000D01*
X117983000Y-83947000D01*
X117963000Y-83947000D01*
X117963000Y-83693000D01*
X117983000Y-83693000D01*
X117983000Y-83673000D01*
X118237000Y-83673000D01*
X118237000Y-83693000D01*
G36*
X108085910Y-97621441D02*
X108187990Y-97691189D01*
X108048559Y-97780910D01*
X107953010Y-97920750D01*
X107938327Y-97885302D01*
X107759699Y-97706673D01*
X107716470Y-97688767D01*
X107801441Y-97634090D01*
X107946431Y-97421890D01*
X107949081Y-97408803D01*
X108085910Y-97621441D01*
X108085910Y-97621441D01*
G37*
X108085910Y-97621441D02*
X108187990Y-97691189D01*
X108048559Y-97780910D01*
X107953010Y-97920750D01*
X107938327Y-97885302D01*
X107759699Y-97706673D01*
X107716470Y-97688767D01*
X107801441Y-97634090D01*
X107946431Y-97421890D01*
X107949081Y-97408803D01*
X108085910Y-97621441D01*
G36*
X102751692Y-95042560D02*
X102220000Y-95042560D01*
X101984683Y-95086838D01*
X101768559Y-95225910D01*
X101630316Y-95428235D01*
X101624090Y-95418559D01*
X101411890Y-95273569D01*
X101160000Y-95222560D01*
X99660000Y-95222560D01*
X99424683Y-95266838D01*
X99208559Y-95405910D01*
X99063569Y-95618110D01*
X99060919Y-95631197D01*
X98924090Y-95418559D01*
X98711890Y-95273569D01*
X98545000Y-95239773D01*
X98545000Y-91995000D01*
X98533774Y-91938561D01*
X98494290Y-91740061D01*
X98610167Y-91740162D01*
X98852578Y-91640000D01*
X99349132Y-91640000D01*
X102751692Y-95042560D01*
X102751692Y-95042560D01*
G37*
X102751692Y-95042560D02*
X102220000Y-95042560D01*
X101984683Y-95086838D01*
X101768559Y-95225910D01*
X101630316Y-95428235D01*
X101624090Y-95418559D01*
X101411890Y-95273569D01*
X101160000Y-95222560D01*
X99660000Y-95222560D01*
X99424683Y-95266838D01*
X99208559Y-95405910D01*
X99063569Y-95618110D01*
X99060919Y-95631197D01*
X98924090Y-95418559D01*
X98711890Y-95273569D01*
X98545000Y-95239773D01*
X98545000Y-91995000D01*
X98533774Y-91938561D01*
X98494290Y-91740061D01*
X98610167Y-91740162D01*
X98852578Y-91640000D01*
X99349132Y-91640000D01*
X102751692Y-95042560D01*
G36*
X103549566Y-93300434D02*
X103820459Y-93481439D01*
X104140000Y-93545000D01*
X104514898Y-93545000D01*
X104487560Y-93680000D01*
X104487560Y-94280000D01*
X104519242Y-94448374D01*
X100440868Y-90370000D01*
X100619132Y-90370000D01*
X103549566Y-93300434D01*
X103549566Y-93300434D01*
G37*
X103549566Y-93300434D02*
X103820459Y-93481439D01*
X104140000Y-93545000D01*
X104514898Y-93545000D01*
X104487560Y-93680000D01*
X104487560Y-94280000D01*
X104519242Y-94448374D01*
X100440868Y-90370000D01*
X100619132Y-90370000D01*
X103549566Y-93300434D01*
M02*
