%TF.GenerationSoftware,KiCad,Pcbnew,4.0.7*%
%TF.CreationDate,2018-08-19T23:23:26+02:00*%
%TF.ProjectId,HB-UNI-644-S4-A4,48422D554E492D3634342D53342D4134,2.0*%
%TF.FileFunction,Soldermask,Bot*%
%FSLAX46Y46*%
G04 Gerber Fmt 4.6, Leading zero omitted, Abs format (unit mm)*
G04 Created by KiCad (PCBNEW 4.0.7) date 08/19/18 23:23:26*
%MOMM*%
%LPD*%
G01*
G04 APERTURE LIST*
%ADD10C,0.100000*%
%ADD11R,1.700000X1.700000*%
%ADD12O,1.700000X1.700000*%
%ADD13R,1.250000X1.500000*%
%ADD14R,1.300000X1.700000*%
%ADD15R,2.000000X2.600000*%
%ADD16O,2.000000X2.600000*%
%ADD17R,2.600000X2.000000*%
%ADD18O,2.600000X2.000000*%
%ADD19R,0.800000X0.900000*%
%ADD20R,1.500000X1.300000*%
%ADD21R,1.300000X1.500000*%
G04 APERTURE END LIST*
D10*
D11*
X118110000Y-104140000D03*
D12*
X115570000Y-104140000D03*
X118110000Y-101600000D03*
X115570000Y-101600000D03*
X118110000Y-99060000D03*
X115570000Y-99060000D03*
X118110000Y-96520000D03*
X115570000Y-96520000D03*
X118110000Y-93980000D03*
X115570000Y-93980000D03*
X118110000Y-91440000D03*
X115570000Y-91440000D03*
X118110000Y-88900000D03*
X115570000Y-88900000D03*
X118110000Y-86360000D03*
X115570000Y-86360000D03*
X118110000Y-83820000D03*
X115570000Y-83820000D03*
D13*
X102870000Y-96540000D03*
X102870000Y-99040000D03*
X111760000Y-96540000D03*
X111760000Y-99040000D03*
D14*
X100810000Y-96520000D03*
X97310000Y-96520000D03*
X109700000Y-96520000D03*
X106200000Y-96520000D03*
D15*
X93345000Y-86360000D03*
D16*
X95885000Y-86360000D03*
X98425000Y-86360000D03*
X100965000Y-86360000D03*
D17*
X92710000Y-102870000D03*
D18*
X92710000Y-100330000D03*
X92710000Y-97790000D03*
X92710000Y-95250000D03*
X92710000Y-92710000D03*
D19*
X100010000Y-101965000D03*
X98110000Y-101965000D03*
X99060000Y-99965000D03*
X108900000Y-101965000D03*
X107000000Y-101965000D03*
X107950000Y-99965000D03*
D20*
X100410000Y-104140000D03*
X97710000Y-104140000D03*
X109300000Y-104140000D03*
X106600000Y-104140000D03*
D21*
X102870000Y-101520000D03*
X102870000Y-104220000D03*
X111760000Y-101520000D03*
X111760000Y-104220000D03*
M02*
