%FSLAX45Y45*%
G04 Gerber Fmt 4.5, Leading zero omitted, Abs format (unit mm)*
G04 Created by KiCad (PCBNEW 4.0.7) date 08/19/18 23:23:31*
%MOMM*%
%LPD*%
G01*
G04 APERTURE LIST*
%ADD10C,0.127000*%
%ADD11C,0.100000*%
%ADD12C,0.200000*%
%ADD13C,0.300000*%
G04 APERTURE END LIST*
D10*
D11*
X10795000Y-8191500D02*
X8890000Y-8191500D01*
X11430000Y-8191500D02*
X12001500Y-8191500D01*
X10985500Y-8382000D02*
X10795000Y-8191500D01*
X11239500Y-8382000D02*
X10985500Y-8382000D01*
X11430000Y-8191500D02*
X11239500Y-8382000D01*
X8890000Y-10604500D02*
X8890000Y-8191500D01*
X12001500Y-10604500D02*
X8890000Y-10604500D01*
X12001500Y-8191500D02*
X12001500Y-10604500D01*
D12*
X9505000Y-10013000D02*
X9545000Y-10053000D01*
X9545000Y-10013000D02*
X9505000Y-10053000D01*
X9505000Y-10394000D02*
X9545000Y-10434000D01*
X9545000Y-10394000D02*
X9505000Y-10434000D01*
X9632000Y-9822500D02*
X9672000Y-9862500D01*
X9672000Y-9822500D02*
X9632000Y-9862500D01*
X9695500Y-9124000D02*
X9735500Y-9164000D01*
X9735500Y-9124000D02*
X9695500Y-9164000D01*
X9822500Y-9060500D02*
X9862500Y-9100500D01*
X9862500Y-9060500D02*
X9822500Y-9100500D01*
X9886000Y-9187500D02*
X9926000Y-9227500D01*
X9926000Y-9187500D02*
X9886000Y-9227500D01*
X9886000Y-9441500D02*
X9926000Y-9481500D01*
X9926000Y-9441500D02*
X9886000Y-9481500D01*
X9886000Y-10394000D02*
X9926000Y-10434000D01*
X9926000Y-10394000D02*
X9886000Y-10434000D01*
X10140000Y-9886000D02*
X10180000Y-9926000D01*
X10180000Y-9886000D02*
X10140000Y-9926000D01*
X10267000Y-9251000D02*
X10307000Y-9291000D01*
X10307000Y-9251000D02*
X10267000Y-9291000D01*
X10521000Y-9949500D02*
X10561000Y-9989500D01*
X10561000Y-9949500D02*
X10521000Y-9989500D01*
X10521000Y-10140000D02*
X10561000Y-10180000D01*
X10561000Y-10140000D02*
X10521000Y-10180000D01*
X10902000Y-8489000D02*
X10942000Y-8529000D01*
X10942000Y-8489000D02*
X10902000Y-8529000D01*
X10902000Y-8743000D02*
X10942000Y-8783000D01*
X10942000Y-8743000D02*
X10902000Y-8783000D01*
X10902000Y-8997000D02*
X10942000Y-9037000D01*
X10942000Y-8997000D02*
X10902000Y-9037000D01*
X10902000Y-9251000D02*
X10942000Y-9291000D01*
X10942000Y-9251000D02*
X10902000Y-9291000D01*
X11346500Y-8425500D02*
X11386500Y-8465500D01*
X11386500Y-8425500D02*
X11346500Y-8465500D01*
X11346500Y-9505000D02*
X11386500Y-9545000D01*
X11386500Y-9505000D02*
X11346500Y-9545000D01*
X11346500Y-9759000D02*
X11386500Y-9799000D01*
X11386500Y-9759000D02*
X11346500Y-9799000D01*
X11346500Y-10076500D02*
X11386500Y-10116500D01*
X11386500Y-10076500D02*
X11346500Y-10116500D01*
X11607000Y-8382000D02*
G75*
G03X11607000Y-8382000I-50000J0D01*
G01*
X11607000Y-8636000D02*
G75*
G03X11607000Y-8636000I-50000J0D01*
G01*
X11607000Y-8890000D02*
G75*
G03X11607000Y-8890000I-50000J0D01*
G01*
X11607000Y-9144000D02*
G75*
G03X11607000Y-9144000I-50000J0D01*
G01*
X11607000Y-9398000D02*
G75*
G03X11607000Y-9398000I-50000J0D01*
G01*
X11607000Y-9652000D02*
G75*
G03X11607000Y-9652000I-50000J0D01*
G01*
X11607000Y-9906000D02*
G75*
G03X11607000Y-9906000I-50000J0D01*
G01*
X11607000Y-10160000D02*
G75*
G03X11607000Y-10160000I-50000J0D01*
G01*
X11607000Y-10414000D02*
G75*
G03X11607000Y-10414000I-50000J0D01*
G01*
X11861000Y-8382000D02*
G75*
G03X11861000Y-8382000I-50000J0D01*
G01*
X11861000Y-8636000D02*
G75*
G03X11861000Y-8636000I-50000J0D01*
G01*
X11861000Y-8890000D02*
G75*
G03X11861000Y-8890000I-50000J0D01*
G01*
X11861000Y-9144000D02*
G75*
G03X11861000Y-9144000I-50000J0D01*
G01*
X11861000Y-9398000D02*
G75*
G03X11861000Y-9398000I-50000J0D01*
G01*
X11861000Y-9652000D02*
G75*
G03X11861000Y-9652000I-50000J0D01*
G01*
X11861000Y-9906000D02*
G75*
G03X11861000Y-9906000I-50000J0D01*
G01*
X11861000Y-10160000D02*
G75*
G03X11861000Y-10160000I-50000J0D01*
G01*
X11861000Y-10414000D02*
G75*
G03X11861000Y-10414000I-50000J0D01*
G01*
X9271000Y-9211000D02*
X9271000Y-9331000D01*
X9211000Y-9271000D02*
X9331000Y-9271000D01*
X9271000Y-9465000D02*
X9271000Y-9585000D01*
X9211000Y-9525000D02*
X9331000Y-9525000D01*
X9271000Y-9719000D02*
X9271000Y-9839000D01*
X9211000Y-9779000D02*
X9331000Y-9779000D01*
X9271000Y-9973000D02*
X9271000Y-10093000D01*
X9211000Y-10033000D02*
X9331000Y-10033000D01*
X9271000Y-10227000D02*
X9271000Y-10347000D01*
X9211000Y-10287000D02*
X9331000Y-10287000D01*
X9334500Y-8576000D02*
X9334500Y-8696000D01*
X9274500Y-8636000D02*
X9394500Y-8636000D01*
X9588500Y-8576000D02*
X9588500Y-8696000D01*
X9528500Y-8636000D02*
X9648500Y-8636000D01*
X9842500Y-8576000D02*
X9842500Y-8696000D01*
X9782500Y-8636000D02*
X9902500Y-8636000D01*
X10096500Y-8576000D02*
X10096500Y-8696000D01*
X10036500Y-8636000D02*
X10156500Y-8636000D01*
D13*
X9156429Y-11075214D02*
X9156429Y-10775214D01*
X9227857Y-10775214D01*
X9270714Y-10789500D01*
X9299286Y-10818072D01*
X9313571Y-10846643D01*
X9327857Y-10903786D01*
X9327857Y-10946643D01*
X9313571Y-11003786D01*
X9299286Y-11032357D01*
X9270714Y-11060929D01*
X9227857Y-11075214D01*
X9156429Y-11075214D01*
X9456429Y-11075214D02*
X9456429Y-10875214D01*
X9456429Y-10932357D02*
X9470714Y-10903786D01*
X9485000Y-10889500D01*
X9513571Y-10875214D01*
X9542143Y-10875214D01*
X9642143Y-11075214D02*
X9642143Y-10875214D01*
X9642143Y-10775214D02*
X9627857Y-10789500D01*
X9642143Y-10803786D01*
X9656429Y-10789500D01*
X9642143Y-10775214D01*
X9642143Y-10803786D01*
X9827857Y-11075214D02*
X9799286Y-11060929D01*
X9785000Y-11032357D01*
X9785000Y-10775214D01*
X9985000Y-11075214D02*
X9956429Y-11060929D01*
X9942143Y-11032357D01*
X9942143Y-10775214D01*
X10327857Y-11075214D02*
X10327857Y-10775214D01*
X10427857Y-10989500D01*
X10527857Y-10775214D01*
X10527857Y-11075214D01*
X10799286Y-11075214D02*
X10799286Y-10918072D01*
X10785000Y-10889500D01*
X10756429Y-10875214D01*
X10699286Y-10875214D01*
X10670714Y-10889500D01*
X10799286Y-11060929D02*
X10770714Y-11075214D01*
X10699286Y-11075214D01*
X10670714Y-11060929D01*
X10656429Y-11032357D01*
X10656429Y-11003786D01*
X10670714Y-10975214D01*
X10699286Y-10960929D01*
X10770714Y-10960929D01*
X10799286Y-10946643D01*
X10942143Y-10875214D02*
X10942143Y-11175214D01*
X10942143Y-10889500D02*
X10970714Y-10875214D01*
X11027857Y-10875214D01*
X11056429Y-10889500D01*
X11070714Y-10903786D01*
X11085000Y-10932357D01*
X11085000Y-11018072D01*
X11070714Y-11046643D01*
X11056429Y-11060929D01*
X11027857Y-11075214D01*
X10970714Y-11075214D01*
X10942143Y-11060929D01*
X11213571Y-11046643D02*
X11227857Y-11060929D01*
X11213571Y-11075214D01*
X11199286Y-11060929D01*
X11213571Y-11046643D01*
X11213571Y-11075214D01*
X11213571Y-10889500D02*
X11227857Y-10903786D01*
X11213571Y-10918072D01*
X11199286Y-10903786D01*
X11213571Y-10889500D01*
X11213571Y-10918072D01*
X8845000Y-11549500D02*
X8885000Y-11589500D01*
X8885000Y-11549500D02*
X8845000Y-11589500D01*
X9213571Y-11405214D02*
X9242143Y-11405214D01*
X9270714Y-11419500D01*
X9285000Y-11433786D01*
X9299286Y-11462357D01*
X9313571Y-11519500D01*
X9313571Y-11590929D01*
X9299286Y-11648071D01*
X9285000Y-11676643D01*
X9270714Y-11690929D01*
X9242143Y-11705214D01*
X9213571Y-11705214D01*
X9185000Y-11690929D01*
X9170714Y-11676643D01*
X9156429Y-11648071D01*
X9142143Y-11590929D01*
X9142143Y-11519500D01*
X9156429Y-11462357D01*
X9170714Y-11433786D01*
X9185000Y-11419500D01*
X9213571Y-11405214D01*
X9442143Y-11676643D02*
X9456429Y-11690929D01*
X9442143Y-11705214D01*
X9427857Y-11690929D01*
X9442143Y-11676643D01*
X9442143Y-11705214D01*
X9713571Y-11505214D02*
X9713571Y-11705214D01*
X9642143Y-11390929D02*
X9570714Y-11605214D01*
X9756428Y-11605214D01*
X9927857Y-11405214D02*
X9956429Y-11405214D01*
X9985000Y-11419500D01*
X9999286Y-11433786D01*
X10013571Y-11462357D01*
X10027857Y-11519500D01*
X10027857Y-11590929D01*
X10013571Y-11648071D01*
X9999286Y-11676643D01*
X9985000Y-11690929D01*
X9956429Y-11705214D01*
X9927857Y-11705214D01*
X9899286Y-11690929D01*
X9885000Y-11676643D01*
X9870714Y-11648071D01*
X9856429Y-11590929D01*
X9856429Y-11519500D01*
X9870714Y-11462357D01*
X9885000Y-11433786D01*
X9899286Y-11419500D01*
X9927857Y-11405214D01*
X10156429Y-11705214D02*
X10156429Y-11505214D01*
X10156429Y-11533786D02*
X10170714Y-11519500D01*
X10199286Y-11505214D01*
X10242143Y-11505214D01*
X10270714Y-11519500D01*
X10285000Y-11548071D01*
X10285000Y-11705214D01*
X10285000Y-11548071D02*
X10299286Y-11519500D01*
X10327857Y-11505214D01*
X10370714Y-11505214D01*
X10399286Y-11519500D01*
X10413571Y-11548071D01*
X10413571Y-11705214D01*
X10556429Y-11705214D02*
X10556429Y-11505214D01*
X10556429Y-11533786D02*
X10570714Y-11519500D01*
X10599286Y-11505214D01*
X10642143Y-11505214D01*
X10670714Y-11519500D01*
X10685000Y-11548071D01*
X10685000Y-11705214D01*
X10685000Y-11548071D02*
X10699286Y-11519500D01*
X10727857Y-11505214D01*
X10770714Y-11505214D01*
X10799286Y-11519500D01*
X10813571Y-11548071D01*
X10813571Y-11705214D01*
X11399286Y-11390929D02*
X11142143Y-11776643D01*
X11785000Y-11405214D02*
X11813571Y-11405214D01*
X11842143Y-11419500D01*
X11856428Y-11433786D01*
X11870714Y-11462357D01*
X11885000Y-11519500D01*
X11885000Y-11590929D01*
X11870714Y-11648071D01*
X11856428Y-11676643D01*
X11842143Y-11690929D01*
X11813571Y-11705214D01*
X11785000Y-11705214D01*
X11756428Y-11690929D01*
X11742143Y-11676643D01*
X11727857Y-11648071D01*
X11713571Y-11590929D01*
X11713571Y-11519500D01*
X11727857Y-11462357D01*
X11742143Y-11433786D01*
X11756428Y-11419500D01*
X11785000Y-11405214D01*
X12013571Y-11676643D02*
X12027857Y-11690929D01*
X12013571Y-11705214D01*
X11999286Y-11690929D01*
X12013571Y-11676643D01*
X12013571Y-11705214D01*
X12213571Y-11405214D02*
X12242143Y-11405214D01*
X12270714Y-11419500D01*
X12285000Y-11433786D01*
X12299285Y-11462357D01*
X12313571Y-11519500D01*
X12313571Y-11590929D01*
X12299285Y-11648071D01*
X12285000Y-11676643D01*
X12270714Y-11690929D01*
X12242143Y-11705214D01*
X12213571Y-11705214D01*
X12185000Y-11690929D01*
X12170714Y-11676643D01*
X12156428Y-11648071D01*
X12142143Y-11590929D01*
X12142143Y-11519500D01*
X12156428Y-11462357D01*
X12170714Y-11433786D01*
X12185000Y-11419500D01*
X12213571Y-11405214D01*
X12599285Y-11705214D02*
X12427857Y-11705214D01*
X12513571Y-11705214D02*
X12513571Y-11405214D01*
X12485000Y-11448071D01*
X12456428Y-11476643D01*
X12427857Y-11490929D01*
X12856428Y-11405214D02*
X12799285Y-11405214D01*
X12770714Y-11419500D01*
X12756428Y-11433786D01*
X12727857Y-11476643D01*
X12713571Y-11533786D01*
X12713571Y-11648071D01*
X12727857Y-11676643D01*
X12742143Y-11690929D01*
X12770714Y-11705214D01*
X12827857Y-11705214D01*
X12856428Y-11690929D01*
X12870714Y-11676643D01*
X12885000Y-11648071D01*
X12885000Y-11576643D01*
X12870714Y-11548071D01*
X12856428Y-11533786D01*
X12827857Y-11519500D01*
X12770714Y-11519500D01*
X12742143Y-11533786D01*
X12727857Y-11548071D01*
X12713571Y-11576643D01*
X12999286Y-11405214D02*
X12999286Y-11462357D01*
X13113571Y-11405214D02*
X13113571Y-11462357D01*
X13556428Y-11819500D02*
X13542143Y-11805214D01*
X13513571Y-11762357D01*
X13499285Y-11733786D01*
X13485000Y-11690929D01*
X13470714Y-11619500D01*
X13470714Y-11562357D01*
X13485000Y-11490929D01*
X13499285Y-11448071D01*
X13513571Y-11419500D01*
X13542143Y-11376643D01*
X13556428Y-11362357D01*
X13656428Y-11433786D02*
X13670714Y-11419500D01*
X13699285Y-11405214D01*
X13770714Y-11405214D01*
X13799285Y-11419500D01*
X13813571Y-11433786D01*
X13827857Y-11462357D01*
X13827857Y-11490929D01*
X13813571Y-11533786D01*
X13642143Y-11705214D01*
X13827857Y-11705214D01*
X14013571Y-11405214D02*
X14042143Y-11405214D01*
X14070714Y-11419500D01*
X14085000Y-11433786D01*
X14099285Y-11462357D01*
X14113571Y-11519500D01*
X14113571Y-11590929D01*
X14099285Y-11648071D01*
X14085000Y-11676643D01*
X14070714Y-11690929D01*
X14042143Y-11705214D01*
X14013571Y-11705214D01*
X13985000Y-11690929D01*
X13970714Y-11676643D01*
X13956428Y-11648071D01*
X13942143Y-11590929D01*
X13942143Y-11519500D01*
X13956428Y-11462357D01*
X13970714Y-11433786D01*
X13985000Y-11419500D01*
X14013571Y-11405214D01*
X14470714Y-11705214D02*
X14470714Y-11405214D01*
X14599285Y-11705214D02*
X14599285Y-11548071D01*
X14585000Y-11519500D01*
X14556428Y-11505214D01*
X14513571Y-11505214D01*
X14485000Y-11519500D01*
X14470714Y-11533786D01*
X14785000Y-11705214D02*
X14756428Y-11690929D01*
X14742143Y-11676643D01*
X14727857Y-11648071D01*
X14727857Y-11562357D01*
X14742143Y-11533786D01*
X14756428Y-11519500D01*
X14785000Y-11505214D01*
X14827857Y-11505214D01*
X14856428Y-11519500D01*
X14870714Y-11533786D01*
X14885000Y-11562357D01*
X14885000Y-11648071D01*
X14870714Y-11676643D01*
X14856428Y-11690929D01*
X14827857Y-11705214D01*
X14785000Y-11705214D01*
X15056428Y-11705214D02*
X15027857Y-11690929D01*
X15013571Y-11662357D01*
X15013571Y-11405214D01*
X15285000Y-11690929D02*
X15256428Y-11705214D01*
X15199286Y-11705214D01*
X15170714Y-11690929D01*
X15156428Y-11662357D01*
X15156428Y-11548071D01*
X15170714Y-11519500D01*
X15199286Y-11505214D01*
X15256428Y-11505214D01*
X15285000Y-11519500D01*
X15299286Y-11548071D01*
X15299286Y-11576643D01*
X15156428Y-11605214D01*
X15413571Y-11690929D02*
X15442143Y-11705214D01*
X15499286Y-11705214D01*
X15527857Y-11690929D01*
X15542143Y-11662357D01*
X15542143Y-11648071D01*
X15527857Y-11619500D01*
X15499286Y-11605214D01*
X15456428Y-11605214D01*
X15427857Y-11590929D01*
X15413571Y-11562357D01*
X15413571Y-11548071D01*
X15427857Y-11519500D01*
X15456428Y-11505214D01*
X15499286Y-11505214D01*
X15527857Y-11519500D01*
X15642143Y-11819500D02*
X15656428Y-11805214D01*
X15685000Y-11762357D01*
X15699286Y-11733786D01*
X15713571Y-11690929D01*
X15727857Y-11619500D01*
X15727857Y-11562357D01*
X15713571Y-11490929D01*
X15699286Y-11448071D01*
X15685000Y-11419500D01*
X15656428Y-11376643D01*
X15642143Y-11362357D01*
X8885000Y-11965500D02*
G75*
G03X8885000Y-11965500I-50000J0D01*
G01*
X9313571Y-12101214D02*
X9142143Y-12101214D01*
X9227857Y-12101214D02*
X9227857Y-11801214D01*
X9199286Y-11844071D01*
X9170714Y-11872643D01*
X9142143Y-11886929D01*
X9442143Y-12072643D02*
X9456429Y-12086929D01*
X9442143Y-12101214D01*
X9427857Y-12086929D01*
X9442143Y-12072643D01*
X9442143Y-12101214D01*
X9642143Y-11801214D02*
X9670714Y-11801214D01*
X9699286Y-11815500D01*
X9713571Y-11829786D01*
X9727857Y-11858357D01*
X9742143Y-11915500D01*
X9742143Y-11986929D01*
X9727857Y-12044071D01*
X9713571Y-12072643D01*
X9699286Y-12086929D01*
X9670714Y-12101214D01*
X9642143Y-12101214D01*
X9613571Y-12086929D01*
X9599286Y-12072643D01*
X9585000Y-12044071D01*
X9570714Y-11986929D01*
X9570714Y-11915500D01*
X9585000Y-11858357D01*
X9599286Y-11829786D01*
X9613571Y-11815500D01*
X9642143Y-11801214D01*
X9927857Y-11801214D02*
X9956429Y-11801214D01*
X9985000Y-11815500D01*
X9999286Y-11829786D01*
X10013571Y-11858357D01*
X10027857Y-11915500D01*
X10027857Y-11986929D01*
X10013571Y-12044071D01*
X9999286Y-12072643D01*
X9985000Y-12086929D01*
X9956429Y-12101214D01*
X9927857Y-12101214D01*
X9899286Y-12086929D01*
X9885000Y-12072643D01*
X9870714Y-12044071D01*
X9856429Y-11986929D01*
X9856429Y-11915500D01*
X9870714Y-11858357D01*
X9885000Y-11829786D01*
X9899286Y-11815500D01*
X9927857Y-11801214D01*
X10156429Y-12101214D02*
X10156429Y-11901214D01*
X10156429Y-11929786D02*
X10170714Y-11915500D01*
X10199286Y-11901214D01*
X10242143Y-11901214D01*
X10270714Y-11915500D01*
X10285000Y-11944071D01*
X10285000Y-12101214D01*
X10285000Y-11944071D02*
X10299286Y-11915500D01*
X10327857Y-11901214D01*
X10370714Y-11901214D01*
X10399286Y-11915500D01*
X10413571Y-11944071D01*
X10413571Y-12101214D01*
X10556429Y-12101214D02*
X10556429Y-11901214D01*
X10556429Y-11929786D02*
X10570714Y-11915500D01*
X10599286Y-11901214D01*
X10642143Y-11901214D01*
X10670714Y-11915500D01*
X10685000Y-11944071D01*
X10685000Y-12101214D01*
X10685000Y-11944071D02*
X10699286Y-11915500D01*
X10727857Y-11901214D01*
X10770714Y-11901214D01*
X10799286Y-11915500D01*
X10813571Y-11944071D01*
X10813571Y-12101214D01*
X11399286Y-11786929D02*
X11142143Y-12172643D01*
X11785000Y-11801214D02*
X11813571Y-11801214D01*
X11842143Y-11815500D01*
X11856428Y-11829786D01*
X11870714Y-11858357D01*
X11885000Y-11915500D01*
X11885000Y-11986929D01*
X11870714Y-12044071D01*
X11856428Y-12072643D01*
X11842143Y-12086929D01*
X11813571Y-12101214D01*
X11785000Y-12101214D01*
X11756428Y-12086929D01*
X11742143Y-12072643D01*
X11727857Y-12044071D01*
X11713571Y-11986929D01*
X11713571Y-11915500D01*
X11727857Y-11858357D01*
X11742143Y-11829786D01*
X11756428Y-11815500D01*
X11785000Y-11801214D01*
X12013571Y-12072643D02*
X12027857Y-12086929D01*
X12013571Y-12101214D01*
X11999286Y-12086929D01*
X12013571Y-12072643D01*
X12013571Y-12101214D01*
X12213571Y-11801214D02*
X12242143Y-11801214D01*
X12270714Y-11815500D01*
X12285000Y-11829786D01*
X12299285Y-11858357D01*
X12313571Y-11915500D01*
X12313571Y-11986929D01*
X12299285Y-12044071D01*
X12285000Y-12072643D01*
X12270714Y-12086929D01*
X12242143Y-12101214D01*
X12213571Y-12101214D01*
X12185000Y-12086929D01*
X12170714Y-12072643D01*
X12156428Y-12044071D01*
X12142143Y-11986929D01*
X12142143Y-11915500D01*
X12156428Y-11858357D01*
X12170714Y-11829786D01*
X12185000Y-11815500D01*
X12213571Y-11801214D01*
X12413571Y-11801214D02*
X12599285Y-11801214D01*
X12499285Y-11915500D01*
X12542143Y-11915500D01*
X12570714Y-11929786D01*
X12585000Y-11944071D01*
X12599285Y-11972643D01*
X12599285Y-12044071D01*
X12585000Y-12072643D01*
X12570714Y-12086929D01*
X12542143Y-12101214D01*
X12456428Y-12101214D01*
X12427857Y-12086929D01*
X12413571Y-12072643D01*
X12742143Y-12101214D02*
X12799285Y-12101214D01*
X12827857Y-12086929D01*
X12842143Y-12072643D01*
X12870714Y-12029786D01*
X12885000Y-11972643D01*
X12885000Y-11858357D01*
X12870714Y-11829786D01*
X12856428Y-11815500D01*
X12827857Y-11801214D01*
X12770714Y-11801214D01*
X12742143Y-11815500D01*
X12727857Y-11829786D01*
X12713571Y-11858357D01*
X12713571Y-11929786D01*
X12727857Y-11958357D01*
X12742143Y-11972643D01*
X12770714Y-11986929D01*
X12827857Y-11986929D01*
X12856428Y-11972643D01*
X12870714Y-11958357D01*
X12885000Y-11929786D01*
X12999286Y-11801214D02*
X12999286Y-11858357D01*
X13113571Y-11801214D02*
X13113571Y-11858357D01*
X13556428Y-12215500D02*
X13542143Y-12201214D01*
X13513571Y-12158357D01*
X13499285Y-12129786D01*
X13485000Y-12086929D01*
X13470714Y-12015500D01*
X13470714Y-11958357D01*
X13485000Y-11886929D01*
X13499285Y-11844071D01*
X13513571Y-11815500D01*
X13542143Y-11772643D01*
X13556428Y-11758357D01*
X13827857Y-12101214D02*
X13656428Y-12101214D01*
X13742143Y-12101214D02*
X13742143Y-11801214D01*
X13713571Y-11844071D01*
X13685000Y-11872643D01*
X13656428Y-11886929D01*
X13999285Y-11929786D02*
X13970714Y-11915500D01*
X13956428Y-11901214D01*
X13942143Y-11872643D01*
X13942143Y-11858357D01*
X13956428Y-11829786D01*
X13970714Y-11815500D01*
X13999285Y-11801214D01*
X14056428Y-11801214D01*
X14085000Y-11815500D01*
X14099285Y-11829786D01*
X14113571Y-11858357D01*
X14113571Y-11872643D01*
X14099285Y-11901214D01*
X14085000Y-11915500D01*
X14056428Y-11929786D01*
X13999285Y-11929786D01*
X13970714Y-11944071D01*
X13956428Y-11958357D01*
X13942143Y-11986929D01*
X13942143Y-12044071D01*
X13956428Y-12072643D01*
X13970714Y-12086929D01*
X13999285Y-12101214D01*
X14056428Y-12101214D01*
X14085000Y-12086929D01*
X14099285Y-12072643D01*
X14113571Y-12044071D01*
X14113571Y-11986929D01*
X14099285Y-11958357D01*
X14085000Y-11944071D01*
X14056428Y-11929786D01*
X14470714Y-12101214D02*
X14470714Y-11801214D01*
X14599285Y-12101214D02*
X14599285Y-11944071D01*
X14585000Y-11915500D01*
X14556428Y-11901214D01*
X14513571Y-11901214D01*
X14485000Y-11915500D01*
X14470714Y-11929786D01*
X14785000Y-12101214D02*
X14756428Y-12086929D01*
X14742143Y-12072643D01*
X14727857Y-12044071D01*
X14727857Y-11958357D01*
X14742143Y-11929786D01*
X14756428Y-11915500D01*
X14785000Y-11901214D01*
X14827857Y-11901214D01*
X14856428Y-11915500D01*
X14870714Y-11929786D01*
X14885000Y-11958357D01*
X14885000Y-12044071D01*
X14870714Y-12072643D01*
X14856428Y-12086929D01*
X14827857Y-12101214D01*
X14785000Y-12101214D01*
X15056428Y-12101214D02*
X15027857Y-12086929D01*
X15013571Y-12058357D01*
X15013571Y-11801214D01*
X15285000Y-12086929D02*
X15256428Y-12101214D01*
X15199286Y-12101214D01*
X15170714Y-12086929D01*
X15156428Y-12058357D01*
X15156428Y-11944071D01*
X15170714Y-11915500D01*
X15199286Y-11901214D01*
X15256428Y-11901214D01*
X15285000Y-11915500D01*
X15299286Y-11944071D01*
X15299286Y-11972643D01*
X15156428Y-12001214D01*
X15413571Y-12086929D02*
X15442143Y-12101214D01*
X15499286Y-12101214D01*
X15527857Y-12086929D01*
X15542143Y-12058357D01*
X15542143Y-12044071D01*
X15527857Y-12015500D01*
X15499286Y-12001214D01*
X15456428Y-12001214D01*
X15427857Y-11986929D01*
X15413571Y-11958357D01*
X15413571Y-11944071D01*
X15427857Y-11915500D01*
X15456428Y-11901214D01*
X15499286Y-11901214D01*
X15527857Y-11915500D01*
X15642143Y-12215500D02*
X15656428Y-12201214D01*
X15685000Y-12158357D01*
X15699286Y-12129786D01*
X15713571Y-12086929D01*
X15727857Y-12015500D01*
X15727857Y-11958357D01*
X15713571Y-11886929D01*
X15699286Y-11844071D01*
X15685000Y-11815500D01*
X15656428Y-11772643D01*
X15642143Y-11758357D01*
X8825000Y-12301500D02*
X8825000Y-12421500D01*
X8765000Y-12361500D02*
X8885000Y-12361500D01*
X9313571Y-12497214D02*
X9142143Y-12497214D01*
X9227857Y-12497214D02*
X9227857Y-12197214D01*
X9199286Y-12240071D01*
X9170714Y-12268643D01*
X9142143Y-12282929D01*
X9442143Y-12468643D02*
X9456429Y-12482929D01*
X9442143Y-12497214D01*
X9427857Y-12482929D01*
X9442143Y-12468643D01*
X9442143Y-12497214D01*
X9570714Y-12225786D02*
X9585000Y-12211500D01*
X9613571Y-12197214D01*
X9685000Y-12197214D01*
X9713571Y-12211500D01*
X9727857Y-12225786D01*
X9742143Y-12254357D01*
X9742143Y-12282929D01*
X9727857Y-12325786D01*
X9556428Y-12497214D01*
X9742143Y-12497214D01*
X9927857Y-12197214D02*
X9956429Y-12197214D01*
X9985000Y-12211500D01*
X9999286Y-12225786D01*
X10013571Y-12254357D01*
X10027857Y-12311500D01*
X10027857Y-12382929D01*
X10013571Y-12440071D01*
X9999286Y-12468643D01*
X9985000Y-12482929D01*
X9956429Y-12497214D01*
X9927857Y-12497214D01*
X9899286Y-12482929D01*
X9885000Y-12468643D01*
X9870714Y-12440071D01*
X9856429Y-12382929D01*
X9856429Y-12311500D01*
X9870714Y-12254357D01*
X9885000Y-12225786D01*
X9899286Y-12211500D01*
X9927857Y-12197214D01*
X10156429Y-12497214D02*
X10156429Y-12297214D01*
X10156429Y-12325786D02*
X10170714Y-12311500D01*
X10199286Y-12297214D01*
X10242143Y-12297214D01*
X10270714Y-12311500D01*
X10285000Y-12340071D01*
X10285000Y-12497214D01*
X10285000Y-12340071D02*
X10299286Y-12311500D01*
X10327857Y-12297214D01*
X10370714Y-12297214D01*
X10399286Y-12311500D01*
X10413571Y-12340071D01*
X10413571Y-12497214D01*
X10556429Y-12497214D02*
X10556429Y-12297214D01*
X10556429Y-12325786D02*
X10570714Y-12311500D01*
X10599286Y-12297214D01*
X10642143Y-12297214D01*
X10670714Y-12311500D01*
X10685000Y-12340071D01*
X10685000Y-12497214D01*
X10685000Y-12340071D02*
X10699286Y-12311500D01*
X10727857Y-12297214D01*
X10770714Y-12297214D01*
X10799286Y-12311500D01*
X10813571Y-12340071D01*
X10813571Y-12497214D01*
X11399286Y-12182929D02*
X11142143Y-12568643D01*
X11785000Y-12197214D02*
X11813571Y-12197214D01*
X11842143Y-12211500D01*
X11856428Y-12225786D01*
X11870714Y-12254357D01*
X11885000Y-12311500D01*
X11885000Y-12382929D01*
X11870714Y-12440071D01*
X11856428Y-12468643D01*
X11842143Y-12482929D01*
X11813571Y-12497214D01*
X11785000Y-12497214D01*
X11756428Y-12482929D01*
X11742143Y-12468643D01*
X11727857Y-12440071D01*
X11713571Y-12382929D01*
X11713571Y-12311500D01*
X11727857Y-12254357D01*
X11742143Y-12225786D01*
X11756428Y-12211500D01*
X11785000Y-12197214D01*
X12013571Y-12468643D02*
X12027857Y-12482929D01*
X12013571Y-12497214D01*
X11999286Y-12482929D01*
X12013571Y-12468643D01*
X12013571Y-12497214D01*
X12213571Y-12197214D02*
X12242143Y-12197214D01*
X12270714Y-12211500D01*
X12285000Y-12225786D01*
X12299285Y-12254357D01*
X12313571Y-12311500D01*
X12313571Y-12382929D01*
X12299285Y-12440071D01*
X12285000Y-12468643D01*
X12270714Y-12482929D01*
X12242143Y-12497214D01*
X12213571Y-12497214D01*
X12185000Y-12482929D01*
X12170714Y-12468643D01*
X12156428Y-12440071D01*
X12142143Y-12382929D01*
X12142143Y-12311500D01*
X12156428Y-12254357D01*
X12170714Y-12225786D01*
X12185000Y-12211500D01*
X12213571Y-12197214D01*
X12570714Y-12297214D02*
X12570714Y-12497214D01*
X12499285Y-12182929D02*
X12427857Y-12397214D01*
X12613571Y-12397214D01*
X12699285Y-12197214D02*
X12899285Y-12197214D01*
X12770714Y-12497214D01*
X12999286Y-12197214D02*
X12999286Y-12254357D01*
X13113571Y-12197214D02*
X13113571Y-12254357D01*
X13556428Y-12611500D02*
X13542143Y-12597214D01*
X13513571Y-12554357D01*
X13499285Y-12525786D01*
X13485000Y-12482929D01*
X13470714Y-12411500D01*
X13470714Y-12354357D01*
X13485000Y-12282929D01*
X13499285Y-12240071D01*
X13513571Y-12211500D01*
X13542143Y-12168643D01*
X13556428Y-12154357D01*
X13685000Y-12497214D02*
X13742143Y-12497214D01*
X13770714Y-12482929D01*
X13785000Y-12468643D01*
X13813571Y-12425786D01*
X13827857Y-12368643D01*
X13827857Y-12254357D01*
X13813571Y-12225786D01*
X13799285Y-12211500D01*
X13770714Y-12197214D01*
X13713571Y-12197214D01*
X13685000Y-12211500D01*
X13670714Y-12225786D01*
X13656428Y-12254357D01*
X13656428Y-12325786D01*
X13670714Y-12354357D01*
X13685000Y-12368643D01*
X13713571Y-12382929D01*
X13770714Y-12382929D01*
X13799285Y-12368643D01*
X13813571Y-12354357D01*
X13827857Y-12325786D01*
X14185000Y-12497214D02*
X14185000Y-12197214D01*
X14313571Y-12497214D02*
X14313571Y-12340071D01*
X14299285Y-12311500D01*
X14270714Y-12297214D01*
X14227857Y-12297214D01*
X14199285Y-12311500D01*
X14185000Y-12325786D01*
X14499285Y-12497214D02*
X14470714Y-12482929D01*
X14456428Y-12468643D01*
X14442143Y-12440071D01*
X14442143Y-12354357D01*
X14456428Y-12325786D01*
X14470714Y-12311500D01*
X14499285Y-12297214D01*
X14542143Y-12297214D01*
X14570714Y-12311500D01*
X14585000Y-12325786D01*
X14599285Y-12354357D01*
X14599285Y-12440071D01*
X14585000Y-12468643D01*
X14570714Y-12482929D01*
X14542143Y-12497214D01*
X14499285Y-12497214D01*
X14770714Y-12497214D02*
X14742143Y-12482929D01*
X14727857Y-12454357D01*
X14727857Y-12197214D01*
X14999286Y-12482929D02*
X14970714Y-12497214D01*
X14913571Y-12497214D01*
X14885000Y-12482929D01*
X14870714Y-12454357D01*
X14870714Y-12340071D01*
X14885000Y-12311500D01*
X14913571Y-12297214D01*
X14970714Y-12297214D01*
X14999286Y-12311500D01*
X15013571Y-12340071D01*
X15013571Y-12368643D01*
X14870714Y-12397214D01*
X15127857Y-12482929D02*
X15156428Y-12497214D01*
X15213571Y-12497214D01*
X15242143Y-12482929D01*
X15256428Y-12454357D01*
X15256428Y-12440071D01*
X15242143Y-12411500D01*
X15213571Y-12397214D01*
X15170714Y-12397214D01*
X15142143Y-12382929D01*
X15127857Y-12354357D01*
X15127857Y-12340071D01*
X15142143Y-12311500D01*
X15170714Y-12297214D01*
X15213571Y-12297214D01*
X15242143Y-12311500D01*
X15356428Y-12611500D02*
X15370714Y-12597214D01*
X15399286Y-12554357D01*
X15413571Y-12525786D01*
X15427857Y-12482929D01*
X15442143Y-12411500D01*
X15442143Y-12354357D01*
X15427857Y-12282929D01*
X15413571Y-12240071D01*
X15399286Y-12211500D01*
X15370714Y-12168643D01*
X15356428Y-12154357D01*
M02*
