M48
;DRILL file {KiCad 4.0.7} date 08/19/18 23:23:30
;FORMAT={-:-/ absolute / inch / decimal}
FMAT,2
INCH,TZ
T1C0.016
T2C0.039
T3C0.047
%
G90
G05
M72
T1
X3.75Y-3.95
X3.75Y-4.1
X3.8Y-3.875
X3.825Y-3.6
X3.875Y-3.575
X3.9Y-3.625
X3.9Y-3.725
X3.9Y-4.1
X4.Y-3.9
X4.05Y-3.65
X4.15Y-3.925
X4.15Y-4.
X4.3Y-3.35
X4.3Y-3.45
X4.3Y-3.55
X4.3Y-3.65
X4.475Y-3.325
X4.475Y-3.75
X4.475Y-3.85
X4.475Y-3.975
T2
X4.55Y-3.3
X4.55Y-3.4
X4.55Y-3.5
X4.55Y-3.6
X4.55Y-3.7
X4.55Y-3.8
X4.55Y-3.9
X4.55Y-4.
X4.55Y-4.1
X4.65Y-3.3
X4.65Y-3.4
X4.65Y-3.5
X4.65Y-3.6
X4.65Y-3.7
X4.65Y-3.8
X4.65Y-3.9
X4.65Y-4.
X4.65Y-4.1
T3
X3.65Y-3.65
X3.65Y-3.75
X3.65Y-3.85
X3.65Y-3.95
X3.65Y-4.05
X3.675Y-3.4
X3.775Y-3.4
X3.875Y-3.4
X3.975Y-3.4
T0
M30
