%TF.GenerationSoftware,KiCad,Pcbnew,4.0.7*%
%TF.CreationDate,2018-08-19T23:23:26+02:00*%
%TF.ProjectId,HB-UNI-644-S4-A4,48422D554E492D3634342D53342D4134,2.0*%
%TF.FileFunction,Copper,L2,Bot,Signal*%
%FSLAX46Y46*%
G04 Gerber Fmt 4.6, Leading zero omitted, Abs format (unit mm)*
G04 Created by KiCad (PCBNEW 4.0.7) date 08/19/18 23:23:26*
%MOMM*%
%LPD*%
G01*
G04 APERTURE LIST*
%ADD10C,0.100000*%
%ADD11R,1.700000X1.700000*%
%ADD12O,1.700000X1.700000*%
%ADD13R,1.250000X1.500000*%
%ADD14R,1.300000X1.700000*%
%ADD15R,2.000000X2.600000*%
%ADD16O,2.000000X2.600000*%
%ADD17R,2.600000X2.000000*%
%ADD18O,2.600000X2.000000*%
%ADD19R,0.800000X0.900000*%
%ADD20R,1.500000X1.300000*%
%ADD21R,1.300000X1.500000*%
%ADD22C,0.600000*%
%ADD23C,0.400000*%
%ADD24C,0.250000*%
%ADD25C,0.254000*%
G04 APERTURE END LIST*
D10*
D11*
X118110000Y-104140000D03*
D12*
X115570000Y-104140000D03*
X118110000Y-101600000D03*
X115570000Y-101600000D03*
X118110000Y-99060000D03*
X115570000Y-99060000D03*
X118110000Y-96520000D03*
X115570000Y-96520000D03*
X118110000Y-93980000D03*
X115570000Y-93980000D03*
X118110000Y-91440000D03*
X115570000Y-91440000D03*
X118110000Y-88900000D03*
X115570000Y-88900000D03*
X118110000Y-86360000D03*
X115570000Y-86360000D03*
X118110000Y-83820000D03*
X115570000Y-83820000D03*
D13*
X102870000Y-96540000D03*
X102870000Y-99040000D03*
X111760000Y-96540000D03*
X111760000Y-99040000D03*
D14*
X100810000Y-96520000D03*
X97310000Y-96520000D03*
X109700000Y-96520000D03*
X106200000Y-96520000D03*
D15*
X93345000Y-86360000D03*
D16*
X95885000Y-86360000D03*
X98425000Y-86360000D03*
X100965000Y-86360000D03*
D17*
X92710000Y-102870000D03*
D18*
X92710000Y-100330000D03*
X92710000Y-97790000D03*
X92710000Y-95250000D03*
X92710000Y-92710000D03*
D19*
X100010000Y-101965000D03*
X98110000Y-101965000D03*
X99060000Y-99965000D03*
X108900000Y-101965000D03*
X107000000Y-101965000D03*
X107950000Y-99965000D03*
D20*
X100410000Y-104140000D03*
X97710000Y-104140000D03*
X109300000Y-104140000D03*
X106600000Y-104140000D03*
D21*
X102870000Y-101520000D03*
X102870000Y-104220000D03*
X111760000Y-101520000D03*
X111760000Y-104220000D03*
D22*
X113665000Y-84455000D03*
X96520000Y-98425000D03*
X95250000Y-104140000D03*
X95250000Y-100330000D03*
X99060000Y-104140000D03*
X113665000Y-100965000D03*
X113665000Y-97790000D03*
X105410000Y-101600000D03*
X105410000Y-99695000D03*
X99060000Y-92075000D03*
X99060000Y-94615000D03*
X101600000Y-99060000D03*
X113665000Y-95250000D03*
X109220000Y-92710000D03*
X102870000Y-92710000D03*
X109220000Y-90170000D03*
X109220000Y-87630000D03*
X109220000Y-85090000D03*
X97155000Y-91440000D03*
X98425000Y-90805000D03*
D23*
X113665000Y-85090000D02*
X113665000Y-84455000D01*
X95250000Y-104140000D02*
X97710000Y-104140000D01*
X97710000Y-104140000D02*
X99060000Y-104140000D01*
X113665000Y-100965000D02*
X113665000Y-97790000D01*
X105775000Y-101965000D02*
X105410000Y-101600000D01*
X105775000Y-101965000D02*
X107000000Y-101965000D01*
X99060000Y-92075000D02*
X99060000Y-94615000D01*
X118110000Y-93980000D02*
X118110000Y-95250000D01*
X118110000Y-95250000D02*
X113665000Y-95250000D01*
X118110000Y-91440000D02*
X118110000Y-92710000D01*
X118110000Y-92710000D02*
X109220000Y-92710000D01*
X102235000Y-92075000D02*
X99060000Y-92075000D01*
X102870000Y-92710000D02*
X102235000Y-92075000D01*
X99060000Y-92075000D02*
X99060000Y-93345000D01*
X118110000Y-88900000D02*
X118110000Y-90170000D01*
X118110000Y-90170000D02*
X109220000Y-90170000D01*
X118110000Y-86360000D02*
X118110000Y-87630000D01*
X118110000Y-87630000D02*
X109220000Y-87630000D01*
X118110000Y-83820000D02*
X118110000Y-85090000D01*
X118110000Y-85090000D02*
X113665000Y-85090000D01*
X113665000Y-85090000D02*
X109220000Y-85090000D01*
D24*
X113030000Y-105410000D02*
X116205000Y-105410000D01*
X116840000Y-97790000D02*
X115570000Y-96520000D01*
X116840000Y-104775000D02*
X116840000Y-97790000D01*
X116205000Y-105410000D02*
X116840000Y-104775000D01*
X102870000Y-96540000D02*
X102890000Y-96540000D01*
X102890000Y-96540000D02*
X104140000Y-97790000D01*
X105410000Y-105410000D02*
X113030000Y-105410000D01*
X104140000Y-104140000D02*
X105410000Y-105410000D01*
X104140000Y-97790000D02*
X104140000Y-104140000D01*
X100810000Y-96520000D02*
X102850000Y-96520000D01*
X102850000Y-96520000D02*
X102870000Y-96540000D01*
X99060000Y-99965000D02*
X99060000Y-98270000D01*
X99060000Y-98270000D02*
X100810000Y-96520000D01*
X115570000Y-93980000D02*
X113665000Y-93980000D01*
X113665000Y-93980000D02*
X111760000Y-95885000D01*
X111760000Y-95885000D02*
X111760000Y-96540000D01*
X109700000Y-96520000D02*
X111740000Y-96520000D01*
X111740000Y-96520000D02*
X111760000Y-96540000D01*
X107950000Y-99965000D02*
X107950000Y-98270000D01*
X107950000Y-98270000D02*
X109700000Y-96520000D01*
D23*
X93345000Y-86360000D02*
X93345000Y-87630000D01*
X93345000Y-87630000D02*
X97155000Y-91440000D01*
X95885000Y-86360000D02*
X95885000Y-88265000D01*
X95885000Y-88265000D02*
X98425000Y-90805000D01*
X95250000Y-94615000D02*
X95250000Y-92075000D01*
X96520000Y-84455000D02*
X98425000Y-86360000D01*
X92075000Y-84455000D02*
X96520000Y-84455000D01*
X91440000Y-85090000D02*
X92075000Y-84455000D01*
X91440000Y-88265000D02*
X91440000Y-85090000D01*
X95250000Y-92075000D02*
X91440000Y-88265000D01*
X95885000Y-99695000D02*
X95250000Y-99060000D01*
X95250000Y-99060000D02*
X95250000Y-94615000D01*
X102870000Y-101520000D02*
X102790000Y-101520000D01*
X102790000Y-101520000D02*
X102235000Y-100965000D01*
X102235000Y-100965000D02*
X97155000Y-100965000D01*
X97155000Y-100965000D02*
X95885000Y-99695000D01*
D24*
X97155000Y-100965000D02*
X95885000Y-99695000D01*
X102870000Y-101520000D02*
X102950000Y-101520000D01*
D23*
X111760000Y-101520000D02*
X110410000Y-101520000D01*
X110410000Y-101520000D02*
X109855000Y-100965000D01*
X109855000Y-100965000D02*
X107315000Y-100965000D01*
X107315000Y-100965000D02*
X106680000Y-100330000D01*
X106680000Y-100330000D02*
X106680000Y-99060000D01*
X106680000Y-99060000D02*
X106045000Y-98425000D01*
X100965000Y-86360000D02*
X104775000Y-90170000D01*
X104775000Y-90170000D02*
X104775000Y-97790000D01*
X104775000Y-97790000D02*
X105410000Y-98425000D01*
X105410000Y-98425000D02*
X106045000Y-98425000D01*
D24*
X104775000Y-97790000D02*
X105410000Y-98425000D01*
X104775000Y-97790000D02*
X104775000Y-90170000D01*
X109855000Y-100965000D02*
X107315000Y-100965000D01*
X110410000Y-101520000D02*
X109855000Y-100965000D01*
X100010000Y-101965000D02*
X100010000Y-103740000D01*
X100010000Y-103740000D02*
X100410000Y-104140000D01*
X102870000Y-104220000D02*
X100490000Y-104220000D01*
X100490000Y-104220000D02*
X100410000Y-104140000D01*
X109300000Y-104140000D02*
X111680000Y-104140000D01*
X111680000Y-104140000D02*
X111760000Y-104220000D01*
X108900000Y-101965000D02*
X108900000Y-103740000D01*
X108900000Y-103740000D02*
X109300000Y-104140000D01*
D25*
G36*
X109370632Y-84304368D02*
X109592862Y-84452857D01*
X109855000Y-84505000D01*
X112395000Y-84505000D01*
X112657138Y-84452857D01*
X112879368Y-84304368D01*
X114583736Y-82600000D01*
X114745196Y-82600000D01*
X114490853Y-82769946D01*
X114168946Y-83251715D01*
X114055907Y-83820000D01*
X114168946Y-84388285D01*
X114490853Y-84870054D01*
X114820026Y-85090000D01*
X114490853Y-85309946D01*
X114168946Y-85791715D01*
X114055907Y-86360000D01*
X114168946Y-86928285D01*
X114490853Y-87410054D01*
X114820026Y-87630000D01*
X114490853Y-87849946D01*
X114168946Y-88331715D01*
X114055907Y-88900000D01*
X114168946Y-89468285D01*
X114490853Y-89950054D01*
X114820026Y-90170000D01*
X114490853Y-90389946D01*
X114168946Y-90871715D01*
X114055907Y-91440000D01*
X114168946Y-92008285D01*
X114490853Y-92490054D01*
X114820026Y-92710000D01*
X114490853Y-92929946D01*
X114297046Y-93220000D01*
X113665000Y-93220000D01*
X113374161Y-93277852D01*
X113127599Y-93442599D01*
X111427638Y-95142560D01*
X111135000Y-95142560D01*
X110899683Y-95186838D01*
X110824719Y-95235076D01*
X110814090Y-95218559D01*
X110601890Y-95073569D01*
X110350000Y-95022560D01*
X109050000Y-95022560D01*
X108814683Y-95066838D01*
X108598559Y-95205910D01*
X108453569Y-95418110D01*
X108402560Y-95670000D01*
X108402560Y-96742638D01*
X107412599Y-97732599D01*
X107247852Y-97979161D01*
X107190000Y-98270000D01*
X107190000Y-98389132D01*
X106805868Y-98005000D01*
X106976309Y-98005000D01*
X107209698Y-97908327D01*
X107388327Y-97729699D01*
X107485000Y-97496310D01*
X107485000Y-96805750D01*
X107326250Y-96647000D01*
X106327000Y-96647000D01*
X106327000Y-96667000D01*
X106073000Y-96667000D01*
X106073000Y-96647000D01*
X106053000Y-96647000D01*
X106053000Y-96393000D01*
X106073000Y-96393000D01*
X106073000Y-95193750D01*
X106327000Y-95193750D01*
X106327000Y-96393000D01*
X107326250Y-96393000D01*
X107485000Y-96234250D01*
X107485000Y-95543690D01*
X107388327Y-95310301D01*
X107209698Y-95131673D01*
X106976309Y-95035000D01*
X106485750Y-95035000D01*
X106327000Y-95193750D01*
X106073000Y-95193750D01*
X105914250Y-95035000D01*
X105610000Y-95035000D01*
X105610000Y-90170000D01*
X105546440Y-89850460D01*
X105365434Y-89579566D01*
X102580717Y-86794849D01*
X102600000Y-86697909D01*
X102600000Y-86022091D01*
X102475543Y-85396404D01*
X102121120Y-84865971D01*
X101590687Y-84511548D01*
X100965000Y-84387091D01*
X100339313Y-84511548D01*
X99808880Y-84865971D01*
X99695000Y-85036405D01*
X99581120Y-84865971D01*
X99050687Y-84511548D01*
X98425000Y-84387091D01*
X97799313Y-84511548D01*
X97774198Y-84528330D01*
X97110434Y-83864566D01*
X96853667Y-83693000D01*
X96839541Y-83683561D01*
X96520000Y-83620000D01*
X92075000Y-83620000D01*
X91755460Y-83683560D01*
X91484566Y-83864566D01*
X90849566Y-84499566D01*
X90668561Y-84770459D01*
X90605000Y-85090000D01*
X90605000Y-88265000D01*
X90668561Y-88584541D01*
X90849566Y-88855434D01*
X93074402Y-91080270D01*
X93047909Y-91075000D01*
X92372091Y-91075000D01*
X91746404Y-91199457D01*
X91215971Y-91553880D01*
X90861548Y-92084313D01*
X90737091Y-92710000D01*
X90861548Y-93335687D01*
X91215971Y-93866120D01*
X91386405Y-93980000D01*
X91215971Y-94093880D01*
X90861548Y-94624313D01*
X90737091Y-95250000D01*
X90861548Y-95875687D01*
X91215971Y-96406120D01*
X91386405Y-96520000D01*
X91215971Y-96633880D01*
X90861548Y-97164313D01*
X90737091Y-97790000D01*
X90861548Y-98415687D01*
X91215971Y-98946120D01*
X91386405Y-99060000D01*
X91215971Y-99173880D01*
X90861548Y-99704313D01*
X90737091Y-100330000D01*
X90861548Y-100955687D01*
X91101093Y-101314192D01*
X90958559Y-101405910D01*
X90813569Y-101618110D01*
X90762560Y-101870000D01*
X90762560Y-103870000D01*
X90806838Y-104105317D01*
X90945910Y-104321441D01*
X91158110Y-104466431D01*
X91410000Y-104517440D01*
X94010000Y-104517440D01*
X94245317Y-104473162D01*
X94461441Y-104334090D01*
X94606431Y-104121890D01*
X94657440Y-103870000D01*
X94657440Y-101870000D01*
X94613162Y-101634683D01*
X94474090Y-101418559D01*
X94319671Y-101313049D01*
X94558452Y-100955687D01*
X94682909Y-100330000D01*
X94558452Y-99704313D01*
X94204029Y-99173880D01*
X94033595Y-99060000D01*
X94204029Y-98946120D01*
X94415000Y-98630379D01*
X94415000Y-99060000D01*
X94478561Y-99379541D01*
X94644767Y-99628285D01*
X94659566Y-99650434D01*
X96564566Y-101555434D01*
X96835459Y-101736439D01*
X97155000Y-101800000D01*
X97195750Y-101800000D01*
X97233750Y-101838000D01*
X97983000Y-101838000D01*
X97983000Y-101818000D01*
X98237000Y-101818000D01*
X98237000Y-101838000D01*
X98257000Y-101838000D01*
X98257000Y-102092000D01*
X98237000Y-102092000D01*
X98237000Y-102112000D01*
X97983000Y-102112000D01*
X97983000Y-102092000D01*
X97233750Y-102092000D01*
X97075000Y-102250750D01*
X97075000Y-102541309D01*
X97171673Y-102774698D01*
X97251975Y-102855000D01*
X96833691Y-102855000D01*
X96600302Y-102951673D01*
X96421673Y-103130301D01*
X96325000Y-103363690D01*
X96325000Y-103854250D01*
X96483750Y-104013000D01*
X97583000Y-104013000D01*
X97583000Y-103993000D01*
X97837000Y-103993000D01*
X97837000Y-104013000D01*
X97857000Y-104013000D01*
X97857000Y-104267000D01*
X97837000Y-104267000D01*
X97837000Y-104287000D01*
X97583000Y-104287000D01*
X97583000Y-104267000D01*
X96483750Y-104267000D01*
X96325000Y-104425750D01*
X96325000Y-104916310D01*
X96421673Y-105149699D01*
X96600302Y-105328327D01*
X96676767Y-105360000D01*
X89585000Y-105360000D01*
X89585000Y-82600000D01*
X107666264Y-82600000D01*
X109370632Y-84304368D01*
X109370632Y-84304368D01*
G37*
X109370632Y-84304368D02*
X109592862Y-84452857D01*
X109855000Y-84505000D01*
X112395000Y-84505000D01*
X112657138Y-84452857D01*
X112879368Y-84304368D01*
X114583736Y-82600000D01*
X114745196Y-82600000D01*
X114490853Y-82769946D01*
X114168946Y-83251715D01*
X114055907Y-83820000D01*
X114168946Y-84388285D01*
X114490853Y-84870054D01*
X114820026Y-85090000D01*
X114490853Y-85309946D01*
X114168946Y-85791715D01*
X114055907Y-86360000D01*
X114168946Y-86928285D01*
X114490853Y-87410054D01*
X114820026Y-87630000D01*
X114490853Y-87849946D01*
X114168946Y-88331715D01*
X114055907Y-88900000D01*
X114168946Y-89468285D01*
X114490853Y-89950054D01*
X114820026Y-90170000D01*
X114490853Y-90389946D01*
X114168946Y-90871715D01*
X114055907Y-91440000D01*
X114168946Y-92008285D01*
X114490853Y-92490054D01*
X114820026Y-92710000D01*
X114490853Y-92929946D01*
X114297046Y-93220000D01*
X113665000Y-93220000D01*
X113374161Y-93277852D01*
X113127599Y-93442599D01*
X111427638Y-95142560D01*
X111135000Y-95142560D01*
X110899683Y-95186838D01*
X110824719Y-95235076D01*
X110814090Y-95218559D01*
X110601890Y-95073569D01*
X110350000Y-95022560D01*
X109050000Y-95022560D01*
X108814683Y-95066838D01*
X108598559Y-95205910D01*
X108453569Y-95418110D01*
X108402560Y-95670000D01*
X108402560Y-96742638D01*
X107412599Y-97732599D01*
X107247852Y-97979161D01*
X107190000Y-98270000D01*
X107190000Y-98389132D01*
X106805868Y-98005000D01*
X106976309Y-98005000D01*
X107209698Y-97908327D01*
X107388327Y-97729699D01*
X107485000Y-97496310D01*
X107485000Y-96805750D01*
X107326250Y-96647000D01*
X106327000Y-96647000D01*
X106327000Y-96667000D01*
X106073000Y-96667000D01*
X106073000Y-96647000D01*
X106053000Y-96647000D01*
X106053000Y-96393000D01*
X106073000Y-96393000D01*
X106073000Y-95193750D01*
X106327000Y-95193750D01*
X106327000Y-96393000D01*
X107326250Y-96393000D01*
X107485000Y-96234250D01*
X107485000Y-95543690D01*
X107388327Y-95310301D01*
X107209698Y-95131673D01*
X106976309Y-95035000D01*
X106485750Y-95035000D01*
X106327000Y-95193750D01*
X106073000Y-95193750D01*
X105914250Y-95035000D01*
X105610000Y-95035000D01*
X105610000Y-90170000D01*
X105546440Y-89850460D01*
X105365434Y-89579566D01*
X102580717Y-86794849D01*
X102600000Y-86697909D01*
X102600000Y-86022091D01*
X102475543Y-85396404D01*
X102121120Y-84865971D01*
X101590687Y-84511548D01*
X100965000Y-84387091D01*
X100339313Y-84511548D01*
X99808880Y-84865971D01*
X99695000Y-85036405D01*
X99581120Y-84865971D01*
X99050687Y-84511548D01*
X98425000Y-84387091D01*
X97799313Y-84511548D01*
X97774198Y-84528330D01*
X97110434Y-83864566D01*
X96853667Y-83693000D01*
X96839541Y-83683561D01*
X96520000Y-83620000D01*
X92075000Y-83620000D01*
X91755460Y-83683560D01*
X91484566Y-83864566D01*
X90849566Y-84499566D01*
X90668561Y-84770459D01*
X90605000Y-85090000D01*
X90605000Y-88265000D01*
X90668561Y-88584541D01*
X90849566Y-88855434D01*
X93074402Y-91080270D01*
X93047909Y-91075000D01*
X92372091Y-91075000D01*
X91746404Y-91199457D01*
X91215971Y-91553880D01*
X90861548Y-92084313D01*
X90737091Y-92710000D01*
X90861548Y-93335687D01*
X91215971Y-93866120D01*
X91386405Y-93980000D01*
X91215971Y-94093880D01*
X90861548Y-94624313D01*
X90737091Y-95250000D01*
X90861548Y-95875687D01*
X91215971Y-96406120D01*
X91386405Y-96520000D01*
X91215971Y-96633880D01*
X90861548Y-97164313D01*
X90737091Y-97790000D01*
X90861548Y-98415687D01*
X91215971Y-98946120D01*
X91386405Y-99060000D01*
X91215971Y-99173880D01*
X90861548Y-99704313D01*
X90737091Y-100330000D01*
X90861548Y-100955687D01*
X91101093Y-101314192D01*
X90958559Y-101405910D01*
X90813569Y-101618110D01*
X90762560Y-101870000D01*
X90762560Y-103870000D01*
X90806838Y-104105317D01*
X90945910Y-104321441D01*
X91158110Y-104466431D01*
X91410000Y-104517440D01*
X94010000Y-104517440D01*
X94245317Y-104473162D01*
X94461441Y-104334090D01*
X94606431Y-104121890D01*
X94657440Y-103870000D01*
X94657440Y-101870000D01*
X94613162Y-101634683D01*
X94474090Y-101418559D01*
X94319671Y-101313049D01*
X94558452Y-100955687D01*
X94682909Y-100330000D01*
X94558452Y-99704313D01*
X94204029Y-99173880D01*
X94033595Y-99060000D01*
X94204029Y-98946120D01*
X94415000Y-98630379D01*
X94415000Y-99060000D01*
X94478561Y-99379541D01*
X94644767Y-99628285D01*
X94659566Y-99650434D01*
X96564566Y-101555434D01*
X96835459Y-101736439D01*
X97155000Y-101800000D01*
X97195750Y-101800000D01*
X97233750Y-101838000D01*
X97983000Y-101838000D01*
X97983000Y-101818000D01*
X98237000Y-101818000D01*
X98237000Y-101838000D01*
X98257000Y-101838000D01*
X98257000Y-102092000D01*
X98237000Y-102092000D01*
X98237000Y-102112000D01*
X97983000Y-102112000D01*
X97983000Y-102092000D01*
X97233750Y-102092000D01*
X97075000Y-102250750D01*
X97075000Y-102541309D01*
X97171673Y-102774698D01*
X97251975Y-102855000D01*
X96833691Y-102855000D01*
X96600302Y-102951673D01*
X96421673Y-103130301D01*
X96325000Y-103363690D01*
X96325000Y-103854250D01*
X96483750Y-104013000D01*
X97583000Y-104013000D01*
X97583000Y-103993000D01*
X97837000Y-103993000D01*
X97837000Y-104013000D01*
X97857000Y-104013000D01*
X97857000Y-104267000D01*
X97837000Y-104267000D01*
X97837000Y-104287000D01*
X97583000Y-104287000D01*
X97583000Y-104267000D01*
X96483750Y-104267000D01*
X96325000Y-104425750D01*
X96325000Y-104916310D01*
X96421673Y-105149699D01*
X96600302Y-105328327D01*
X96676767Y-105360000D01*
X89585000Y-105360000D01*
X89585000Y-82600000D01*
X107666264Y-82600000D01*
X109370632Y-84304368D01*
G36*
X114490853Y-95030054D02*
X114820026Y-95250000D01*
X114490853Y-95469946D01*
X114168946Y-95951715D01*
X114055907Y-96520000D01*
X114168946Y-97088285D01*
X114490853Y-97570054D01*
X114820026Y-97790000D01*
X114490853Y-98009946D01*
X114168946Y-98491715D01*
X114055907Y-99060000D01*
X114168946Y-99628285D01*
X114490853Y-100110054D01*
X114820026Y-100330000D01*
X114490853Y-100549946D01*
X114168946Y-101031715D01*
X114055907Y-101600000D01*
X114168946Y-102168285D01*
X114490853Y-102650054D01*
X114820026Y-102870000D01*
X114490853Y-103089946D01*
X114168946Y-103571715D01*
X114055907Y-104140000D01*
X114157352Y-104650000D01*
X113057440Y-104650000D01*
X113057440Y-103470000D01*
X113013162Y-103234683D01*
X112874090Y-103018559D01*
X112661890Y-102873569D01*
X112648803Y-102870919D01*
X112861441Y-102734090D01*
X113006431Y-102521890D01*
X113057440Y-102270000D01*
X113057440Y-100770000D01*
X113013162Y-100534683D01*
X112874090Y-100318559D01*
X112803024Y-100270002D01*
X112923327Y-100149698D01*
X113020000Y-99916309D01*
X113020000Y-99325750D01*
X112861250Y-99167000D01*
X111887000Y-99167000D01*
X111887000Y-99187000D01*
X111633000Y-99187000D01*
X111633000Y-99167000D01*
X110658750Y-99167000D01*
X110500000Y-99325750D01*
X110500000Y-99916309D01*
X110596673Y-100149698D01*
X110715953Y-100268978D01*
X110658559Y-100305910D01*
X110544179Y-100473311D01*
X110445434Y-100374566D01*
X110376232Y-100328327D01*
X110174541Y-100193561D01*
X109855000Y-100130000D01*
X108997440Y-100130000D01*
X108997440Y-99515000D01*
X108953162Y-99279683D01*
X108814090Y-99063559D01*
X108710000Y-98992437D01*
X108710000Y-98584802D01*
X109277362Y-98017440D01*
X110350000Y-98017440D01*
X110578379Y-97974467D01*
X110500000Y-98163691D01*
X110500000Y-98754250D01*
X110658750Y-98913000D01*
X111633000Y-98913000D01*
X111633000Y-98893000D01*
X111887000Y-98893000D01*
X111887000Y-98913000D01*
X112861250Y-98913000D01*
X113020000Y-98754250D01*
X113020000Y-98163691D01*
X112923327Y-97930302D01*
X112782090Y-97789064D01*
X112836441Y-97754090D01*
X112981431Y-97541890D01*
X113032440Y-97290000D01*
X113032440Y-95790000D01*
X113016186Y-95703616D01*
X113979802Y-94740000D01*
X114297046Y-94740000D01*
X114490853Y-95030054D01*
X114490853Y-95030054D01*
G37*
X114490853Y-95030054D02*
X114820026Y-95250000D01*
X114490853Y-95469946D01*
X114168946Y-95951715D01*
X114055907Y-96520000D01*
X114168946Y-97088285D01*
X114490853Y-97570054D01*
X114820026Y-97790000D01*
X114490853Y-98009946D01*
X114168946Y-98491715D01*
X114055907Y-99060000D01*
X114168946Y-99628285D01*
X114490853Y-100110054D01*
X114820026Y-100330000D01*
X114490853Y-100549946D01*
X114168946Y-101031715D01*
X114055907Y-101600000D01*
X114168946Y-102168285D01*
X114490853Y-102650054D01*
X114820026Y-102870000D01*
X114490853Y-103089946D01*
X114168946Y-103571715D01*
X114055907Y-104140000D01*
X114157352Y-104650000D01*
X113057440Y-104650000D01*
X113057440Y-103470000D01*
X113013162Y-103234683D01*
X112874090Y-103018559D01*
X112661890Y-102873569D01*
X112648803Y-102870919D01*
X112861441Y-102734090D01*
X113006431Y-102521890D01*
X113057440Y-102270000D01*
X113057440Y-100770000D01*
X113013162Y-100534683D01*
X112874090Y-100318559D01*
X112803024Y-100270002D01*
X112923327Y-100149698D01*
X113020000Y-99916309D01*
X113020000Y-99325750D01*
X112861250Y-99167000D01*
X111887000Y-99167000D01*
X111887000Y-99187000D01*
X111633000Y-99187000D01*
X111633000Y-99167000D01*
X110658750Y-99167000D01*
X110500000Y-99325750D01*
X110500000Y-99916309D01*
X110596673Y-100149698D01*
X110715953Y-100268978D01*
X110658559Y-100305910D01*
X110544179Y-100473311D01*
X110445434Y-100374566D01*
X110376232Y-100328327D01*
X110174541Y-100193561D01*
X109855000Y-100130000D01*
X108997440Y-100130000D01*
X108997440Y-99515000D01*
X108953162Y-99279683D01*
X108814090Y-99063559D01*
X108710000Y-98992437D01*
X108710000Y-98584802D01*
X109277362Y-98017440D01*
X110350000Y-98017440D01*
X110578379Y-97974467D01*
X110500000Y-98163691D01*
X110500000Y-98754250D01*
X110658750Y-98913000D01*
X111633000Y-98913000D01*
X111633000Y-98893000D01*
X111887000Y-98893000D01*
X111887000Y-98913000D01*
X112861250Y-98913000D01*
X113020000Y-98754250D01*
X113020000Y-98163691D01*
X112923327Y-97930302D01*
X112782090Y-97789064D01*
X112836441Y-97754090D01*
X112981431Y-97541890D01*
X113032440Y-97290000D01*
X113032440Y-95790000D01*
X113016186Y-95703616D01*
X113979802Y-94740000D01*
X114297046Y-94740000D01*
X114490853Y-95030054D01*
G36*
X105090460Y-99196440D02*
X105410000Y-99260000D01*
X105699132Y-99260000D01*
X105845000Y-99405868D01*
X105845000Y-100330000D01*
X105908561Y-100649541D01*
X106021023Y-100817852D01*
X106089566Y-100920434D01*
X106193053Y-101023921D01*
X106061673Y-101155302D01*
X105965000Y-101388691D01*
X105965000Y-101679250D01*
X106123750Y-101838000D01*
X106873000Y-101838000D01*
X106873000Y-101818000D01*
X107127000Y-101818000D01*
X107127000Y-101838000D01*
X107147000Y-101838000D01*
X107147000Y-102092000D01*
X107127000Y-102092000D01*
X107127000Y-102112000D01*
X106873000Y-102112000D01*
X106873000Y-102092000D01*
X106123750Y-102092000D01*
X105965000Y-102250750D01*
X105965000Y-102541309D01*
X106061673Y-102774698D01*
X106141975Y-102855000D01*
X105723691Y-102855000D01*
X105490302Y-102951673D01*
X105311673Y-103130301D01*
X105215000Y-103363690D01*
X105215000Y-103854250D01*
X105373750Y-104013000D01*
X106473000Y-104013000D01*
X106473000Y-103993000D01*
X106727000Y-103993000D01*
X106727000Y-104013000D01*
X106747000Y-104013000D01*
X106747000Y-104267000D01*
X106727000Y-104267000D01*
X106727000Y-104287000D01*
X106473000Y-104287000D01*
X106473000Y-104267000D01*
X105373750Y-104267000D01*
X105357776Y-104282974D01*
X104900000Y-103825198D01*
X104900000Y-99069178D01*
X105090460Y-99196440D01*
X105090460Y-99196440D01*
G37*
X105090460Y-99196440D02*
X105410000Y-99260000D01*
X105699132Y-99260000D01*
X105845000Y-99405868D01*
X105845000Y-100330000D01*
X105908561Y-100649541D01*
X106021023Y-100817852D01*
X106089566Y-100920434D01*
X106193053Y-101023921D01*
X106061673Y-101155302D01*
X105965000Y-101388691D01*
X105965000Y-101679250D01*
X106123750Y-101838000D01*
X106873000Y-101838000D01*
X106873000Y-101818000D01*
X107127000Y-101818000D01*
X107127000Y-101838000D01*
X107147000Y-101838000D01*
X107147000Y-102092000D01*
X107127000Y-102092000D01*
X107127000Y-102112000D01*
X106873000Y-102112000D01*
X106873000Y-102092000D01*
X106123750Y-102092000D01*
X105965000Y-102250750D01*
X105965000Y-102541309D01*
X106061673Y-102774698D01*
X106141975Y-102855000D01*
X105723691Y-102855000D01*
X105490302Y-102951673D01*
X105311673Y-103130301D01*
X105215000Y-103363690D01*
X105215000Y-103854250D01*
X105373750Y-104013000D01*
X106473000Y-104013000D01*
X106473000Y-103993000D01*
X106727000Y-103993000D01*
X106727000Y-104013000D01*
X106747000Y-104013000D01*
X106747000Y-104267000D01*
X106727000Y-104267000D01*
X106727000Y-104287000D01*
X106473000Y-104287000D01*
X106473000Y-104267000D01*
X105373750Y-104267000D01*
X105357776Y-104282974D01*
X104900000Y-103825198D01*
X104900000Y-99069178D01*
X105090460Y-99196440D01*
G36*
X118237000Y-83693000D02*
X118257000Y-83693000D01*
X118257000Y-83947000D01*
X118237000Y-83947000D01*
X118237000Y-86233000D01*
X118257000Y-86233000D01*
X118257000Y-86487000D01*
X118237000Y-86487000D01*
X118237000Y-88773000D01*
X118257000Y-88773000D01*
X118257000Y-89027000D01*
X118237000Y-89027000D01*
X118237000Y-91313000D01*
X118257000Y-91313000D01*
X118257000Y-91567000D01*
X118237000Y-91567000D01*
X118237000Y-93853000D01*
X118257000Y-93853000D01*
X118257000Y-94107000D01*
X118237000Y-94107000D01*
X118237000Y-96393000D01*
X118257000Y-96393000D01*
X118257000Y-96647000D01*
X118237000Y-96647000D01*
X118237000Y-98933000D01*
X118257000Y-98933000D01*
X118257000Y-99187000D01*
X118237000Y-99187000D01*
X118237000Y-101473000D01*
X118257000Y-101473000D01*
X118257000Y-101727000D01*
X118237000Y-101727000D01*
X118237000Y-104013000D01*
X118257000Y-104013000D01*
X118257000Y-104267000D01*
X118237000Y-104267000D01*
X118237000Y-104287000D01*
X117983000Y-104287000D01*
X117983000Y-104267000D01*
X117963000Y-104267000D01*
X117963000Y-104013000D01*
X117983000Y-104013000D01*
X117983000Y-101727000D01*
X117963000Y-101727000D01*
X117963000Y-101473000D01*
X117983000Y-101473000D01*
X117983000Y-99187000D01*
X117963000Y-99187000D01*
X117963000Y-98933000D01*
X117983000Y-98933000D01*
X117983000Y-96647000D01*
X117963000Y-96647000D01*
X117963000Y-96393000D01*
X117983000Y-96393000D01*
X117983000Y-94107000D01*
X117963000Y-94107000D01*
X117963000Y-93853000D01*
X117983000Y-93853000D01*
X117983000Y-91567000D01*
X117963000Y-91567000D01*
X117963000Y-91313000D01*
X117983000Y-91313000D01*
X117983000Y-89027000D01*
X117963000Y-89027000D01*
X117963000Y-88773000D01*
X117983000Y-88773000D01*
X117983000Y-86487000D01*
X117963000Y-86487000D01*
X117963000Y-86233000D01*
X117983000Y-86233000D01*
X117983000Y-83947000D01*
X117963000Y-83947000D01*
X117963000Y-83693000D01*
X117983000Y-83693000D01*
X117983000Y-83673000D01*
X118237000Y-83673000D01*
X118237000Y-83693000D01*
X118237000Y-83693000D01*
G37*
X118237000Y-83693000D02*
X118257000Y-83693000D01*
X118257000Y-83947000D01*
X118237000Y-83947000D01*
X118237000Y-86233000D01*
X118257000Y-86233000D01*
X118257000Y-86487000D01*
X118237000Y-86487000D01*
X118237000Y-88773000D01*
X118257000Y-88773000D01*
X118257000Y-89027000D01*
X118237000Y-89027000D01*
X118237000Y-91313000D01*
X118257000Y-91313000D01*
X118257000Y-91567000D01*
X118237000Y-91567000D01*
X118237000Y-93853000D01*
X118257000Y-93853000D01*
X118257000Y-94107000D01*
X118237000Y-94107000D01*
X118237000Y-96393000D01*
X118257000Y-96393000D01*
X118257000Y-96647000D01*
X118237000Y-96647000D01*
X118237000Y-98933000D01*
X118257000Y-98933000D01*
X118257000Y-99187000D01*
X118237000Y-99187000D01*
X118237000Y-101473000D01*
X118257000Y-101473000D01*
X118257000Y-101727000D01*
X118237000Y-101727000D01*
X118237000Y-104013000D01*
X118257000Y-104013000D01*
X118257000Y-104267000D01*
X118237000Y-104267000D01*
X118237000Y-104287000D01*
X117983000Y-104287000D01*
X117983000Y-104267000D01*
X117963000Y-104267000D01*
X117963000Y-104013000D01*
X117983000Y-104013000D01*
X117983000Y-101727000D01*
X117963000Y-101727000D01*
X117963000Y-101473000D01*
X117983000Y-101473000D01*
X117983000Y-99187000D01*
X117963000Y-99187000D01*
X117963000Y-98933000D01*
X117983000Y-98933000D01*
X117983000Y-96647000D01*
X117963000Y-96647000D01*
X117963000Y-96393000D01*
X117983000Y-96393000D01*
X117983000Y-94107000D01*
X117963000Y-94107000D01*
X117963000Y-93853000D01*
X117983000Y-93853000D01*
X117983000Y-91567000D01*
X117963000Y-91567000D01*
X117963000Y-91313000D01*
X117983000Y-91313000D01*
X117983000Y-89027000D01*
X117963000Y-89027000D01*
X117963000Y-88773000D01*
X117983000Y-88773000D01*
X117983000Y-86487000D01*
X117963000Y-86487000D01*
X117963000Y-86233000D01*
X117983000Y-86233000D01*
X117983000Y-83947000D01*
X117963000Y-83947000D01*
X117963000Y-83693000D01*
X117983000Y-83693000D01*
X117983000Y-83673000D01*
X118237000Y-83673000D01*
X118237000Y-83693000D01*
G36*
X101610000Y-98163691D02*
X101610000Y-98754250D01*
X101768750Y-98913000D01*
X102743000Y-98913000D01*
X102743000Y-98893000D01*
X102997000Y-98893000D01*
X102997000Y-98913000D01*
X103017000Y-98913000D01*
X103017000Y-99167000D01*
X102997000Y-99167000D01*
X102997000Y-99187000D01*
X102743000Y-99187000D01*
X102743000Y-99167000D01*
X101768750Y-99167000D01*
X101610000Y-99325750D01*
X101610000Y-99916309D01*
X101698514Y-100130000D01*
X100107440Y-100130000D01*
X100107440Y-99515000D01*
X100063162Y-99279683D01*
X99924090Y-99063559D01*
X99820000Y-98992437D01*
X99820000Y-98584802D01*
X100387362Y-98017440D01*
X101460000Y-98017440D01*
X101688379Y-97974467D01*
X101610000Y-98163691D01*
X101610000Y-98163691D01*
G37*
X101610000Y-98163691D02*
X101610000Y-98754250D01*
X101768750Y-98913000D01*
X102743000Y-98913000D01*
X102743000Y-98893000D01*
X102997000Y-98893000D01*
X102997000Y-98913000D01*
X103017000Y-98913000D01*
X103017000Y-99167000D01*
X102997000Y-99167000D01*
X102997000Y-99187000D01*
X102743000Y-99187000D01*
X102743000Y-99167000D01*
X101768750Y-99167000D01*
X101610000Y-99325750D01*
X101610000Y-99916309D01*
X101698514Y-100130000D01*
X100107440Y-100130000D01*
X100107440Y-99515000D01*
X100063162Y-99279683D01*
X99924090Y-99063559D01*
X99820000Y-98992437D01*
X99820000Y-98584802D01*
X100387362Y-98017440D01*
X101460000Y-98017440D01*
X101688379Y-97974467D01*
X101610000Y-98163691D01*
G36*
X99808880Y-87854029D02*
X100339313Y-88208452D01*
X100965000Y-88332909D01*
X101590687Y-88208452D01*
X101615802Y-88191670D01*
X103940000Y-90515868D01*
X103940000Y-95325515D01*
X103746890Y-95193569D01*
X103495000Y-95142560D01*
X102245000Y-95142560D01*
X102009683Y-95186838D01*
X101934719Y-95235076D01*
X101924090Y-95218559D01*
X101711890Y-95073569D01*
X101460000Y-95022560D01*
X100160000Y-95022560D01*
X99924683Y-95066838D01*
X99708559Y-95205910D01*
X99563569Y-95418110D01*
X99512560Y-95670000D01*
X99512560Y-96742638D01*
X98522599Y-97732599D01*
X98357852Y-97979161D01*
X98300000Y-98270000D01*
X98300000Y-98992069D01*
X98208559Y-99050910D01*
X98063569Y-99263110D01*
X98012560Y-99515000D01*
X98012560Y-100130000D01*
X97500868Y-100130000D01*
X96085000Y-98714132D01*
X96085000Y-97641163D01*
X96121673Y-97729699D01*
X96300302Y-97908327D01*
X96533691Y-98005000D01*
X97024250Y-98005000D01*
X97183000Y-97846250D01*
X97183000Y-96647000D01*
X97437000Y-96647000D01*
X97437000Y-97846250D01*
X97595750Y-98005000D01*
X98086309Y-98005000D01*
X98319698Y-97908327D01*
X98498327Y-97729699D01*
X98595000Y-97496310D01*
X98595000Y-96805750D01*
X98436250Y-96647000D01*
X97437000Y-96647000D01*
X97183000Y-96647000D01*
X97163000Y-96647000D01*
X97163000Y-96393000D01*
X97183000Y-96393000D01*
X97183000Y-95193750D01*
X97437000Y-95193750D01*
X97437000Y-96393000D01*
X98436250Y-96393000D01*
X98595000Y-96234250D01*
X98595000Y-95543690D01*
X98498327Y-95310301D01*
X98319698Y-95131673D01*
X98086309Y-95035000D01*
X97595750Y-95035000D01*
X97437000Y-95193750D01*
X97183000Y-95193750D01*
X97024250Y-95035000D01*
X96533691Y-95035000D01*
X96300302Y-95131673D01*
X96121673Y-95310301D01*
X96085000Y-95398837D01*
X96085000Y-92075000D01*
X96076135Y-92030434D01*
X96021440Y-91755460D01*
X95840434Y-91484566D01*
X92663308Y-88307440D01*
X92841572Y-88307440D01*
X96262465Y-91728333D01*
X96361883Y-91968943D01*
X96624673Y-92232192D01*
X96968201Y-92374838D01*
X97340167Y-92375162D01*
X97683943Y-92233117D01*
X97947192Y-91970327D01*
X98071622Y-91670668D01*
X98238201Y-91739838D01*
X98610167Y-91740162D01*
X98953943Y-91598117D01*
X99217192Y-91335327D01*
X99359838Y-90991799D01*
X99360162Y-90619833D01*
X99218117Y-90276057D01*
X98955327Y-90012808D01*
X98713090Y-89912222D01*
X96809596Y-88008728D01*
X97041120Y-87854029D01*
X97155000Y-87683595D01*
X97268880Y-87854029D01*
X97799313Y-88208452D01*
X98425000Y-88332909D01*
X99050687Y-88208452D01*
X99581120Y-87854029D01*
X99695000Y-87683595D01*
X99808880Y-87854029D01*
X99808880Y-87854029D01*
G37*
X99808880Y-87854029D02*
X100339313Y-88208452D01*
X100965000Y-88332909D01*
X101590687Y-88208452D01*
X101615802Y-88191670D01*
X103940000Y-90515868D01*
X103940000Y-95325515D01*
X103746890Y-95193569D01*
X103495000Y-95142560D01*
X102245000Y-95142560D01*
X102009683Y-95186838D01*
X101934719Y-95235076D01*
X101924090Y-95218559D01*
X101711890Y-95073569D01*
X101460000Y-95022560D01*
X100160000Y-95022560D01*
X99924683Y-95066838D01*
X99708559Y-95205910D01*
X99563569Y-95418110D01*
X99512560Y-95670000D01*
X99512560Y-96742638D01*
X98522599Y-97732599D01*
X98357852Y-97979161D01*
X98300000Y-98270000D01*
X98300000Y-98992069D01*
X98208559Y-99050910D01*
X98063569Y-99263110D01*
X98012560Y-99515000D01*
X98012560Y-100130000D01*
X97500868Y-100130000D01*
X96085000Y-98714132D01*
X96085000Y-97641163D01*
X96121673Y-97729699D01*
X96300302Y-97908327D01*
X96533691Y-98005000D01*
X97024250Y-98005000D01*
X97183000Y-97846250D01*
X97183000Y-96647000D01*
X97437000Y-96647000D01*
X97437000Y-97846250D01*
X97595750Y-98005000D01*
X98086309Y-98005000D01*
X98319698Y-97908327D01*
X98498327Y-97729699D01*
X98595000Y-97496310D01*
X98595000Y-96805750D01*
X98436250Y-96647000D01*
X97437000Y-96647000D01*
X97183000Y-96647000D01*
X97163000Y-96647000D01*
X97163000Y-96393000D01*
X97183000Y-96393000D01*
X97183000Y-95193750D01*
X97437000Y-95193750D01*
X97437000Y-96393000D01*
X98436250Y-96393000D01*
X98595000Y-96234250D01*
X98595000Y-95543690D01*
X98498327Y-95310301D01*
X98319698Y-95131673D01*
X98086309Y-95035000D01*
X97595750Y-95035000D01*
X97437000Y-95193750D01*
X97183000Y-95193750D01*
X97024250Y-95035000D01*
X96533691Y-95035000D01*
X96300302Y-95131673D01*
X96121673Y-95310301D01*
X96085000Y-95398837D01*
X96085000Y-92075000D01*
X96076135Y-92030434D01*
X96021440Y-91755460D01*
X95840434Y-91484566D01*
X92663308Y-88307440D01*
X92841572Y-88307440D01*
X96262465Y-91728333D01*
X96361883Y-91968943D01*
X96624673Y-92232192D01*
X96968201Y-92374838D01*
X97340167Y-92375162D01*
X97683943Y-92233117D01*
X97947192Y-91970327D01*
X98071622Y-91670668D01*
X98238201Y-91739838D01*
X98610167Y-91740162D01*
X98953943Y-91598117D01*
X99217192Y-91335327D01*
X99359838Y-90991799D01*
X99360162Y-90619833D01*
X99218117Y-90276057D01*
X98955327Y-90012808D01*
X98713090Y-89912222D01*
X96809596Y-88008728D01*
X97041120Y-87854029D01*
X97155000Y-87683595D01*
X97268880Y-87854029D01*
X97799313Y-88208452D01*
X98425000Y-88332909D01*
X99050687Y-88208452D01*
X99581120Y-87854029D01*
X99695000Y-87683595D01*
X99808880Y-87854029D01*
M02*
