G04 #@! TF.FileFunction,Copper,L1,Top,Signal*
%FSLAX46Y46*%
G04 Gerber Fmt 4.6, Leading zero omitted, Abs format (unit mm)*
G04 Created by KiCad (PCBNEW 4.0.7) date 04/23/18 21:59:08*
%MOMM*%
%LPD*%
G01*
G04 APERTURE LIST*
%ADD10C,0.100000*%
%ADD11C,4.400000*%
%ADD12C,0.700000*%
%ADD13R,1.800000X1.800000*%
%ADD14C,1.800000*%
%ADD15C,1.600000*%
%ADD16O,1.600000X1.600000*%
%ADD17C,1.350000*%
%ADD18R,1.800000X1.350000*%
%ADD19C,2.000000*%
%ADD20R,1.700000X1.700000*%
%ADD21O,1.700000X1.700000*%
%ADD22R,1.200000X1.200000*%
%ADD23C,1.200000*%
%ADD24C,0.600000*%
%ADD25C,0.350000*%
%ADD26C,0.250000*%
G04 APERTURE END LIST*
D10*
D11*
X116000000Y-81250000D03*
D12*
X117650000Y-81250000D03*
X117166726Y-82416726D03*
X116000000Y-82900000D03*
X114833274Y-82416726D03*
X114350000Y-81250000D03*
X114833274Y-80083274D03*
X116000000Y-79600000D03*
X117166726Y-80083274D03*
D11*
X161000000Y-81250000D03*
D12*
X162650000Y-81250000D03*
X162166726Y-82416726D03*
X161000000Y-82900000D03*
X159833274Y-82416726D03*
X159350000Y-81250000D03*
X159833274Y-80083274D03*
X161000000Y-79600000D03*
X162166726Y-80083274D03*
D11*
X161000000Y-149750000D03*
D12*
X162650000Y-149750000D03*
X162166726Y-150916726D03*
X161000000Y-151400000D03*
X159833274Y-150916726D03*
X159350000Y-149750000D03*
X159833274Y-148583274D03*
X161000000Y-148100000D03*
X162166726Y-148583274D03*
D13*
X146050000Y-81280000D03*
D14*
X146050000Y-83820000D03*
D15*
X147955000Y-126365000D03*
D16*
X147955000Y-116205000D03*
D17*
X142280000Y-115945000D03*
D18*
X143280000Y-115945000D03*
D17*
X142280000Y-129945000D03*
X142280000Y-127945000D03*
X142280000Y-125945000D03*
X142280000Y-123945000D03*
X142280000Y-121945000D03*
X142280000Y-119945000D03*
X142280000Y-117945000D03*
D18*
X143280000Y-129945000D03*
X143280000Y-127945000D03*
X143280000Y-125945000D03*
X143280000Y-123945000D03*
X143280000Y-121945000D03*
X143280000Y-119945000D03*
X143280000Y-117945000D03*
D19*
X146050000Y-92130000D03*
X146050000Y-87630000D03*
X152550000Y-92130000D03*
X152550000Y-87630000D03*
D13*
X151130000Y-81280000D03*
D14*
X151130000Y-83820000D03*
D20*
X157480000Y-144780000D03*
D21*
X160020000Y-144780000D03*
D20*
X151130000Y-148590000D03*
D21*
X151130000Y-146050000D03*
X151130000Y-143510000D03*
X151130000Y-140970000D03*
D20*
X125730000Y-148590000D03*
D21*
X125730000Y-146050000D03*
X125730000Y-143510000D03*
X125730000Y-140970000D03*
D20*
X162560000Y-144780000D03*
D21*
X165100000Y-144780000D03*
X167640000Y-144780000D03*
X170180000Y-144780000D03*
D15*
X151765000Y-126365000D03*
D16*
X151765000Y-116205000D03*
D15*
X164220000Y-139440000D03*
X164220000Y-87140000D03*
X112640000Y-87890000D03*
X112640000Y-140190000D03*
D20*
X146050000Y-109220000D03*
D21*
X146050000Y-111760000D03*
D20*
X151130000Y-109220000D03*
D21*
X151130000Y-111760000D03*
D20*
X146050000Y-99060000D03*
D21*
X146050000Y-101600000D03*
D20*
X151130000Y-99060000D03*
D21*
X151130000Y-101600000D03*
D20*
X140970000Y-148590000D03*
D21*
X140970000Y-146050000D03*
X140970000Y-143510000D03*
X140970000Y-140970000D03*
D20*
X135890000Y-148590000D03*
D21*
X135890000Y-146050000D03*
X135890000Y-143510000D03*
X135890000Y-140970000D03*
D14*
X140970000Y-110490000D03*
X140970000Y-107950000D03*
X140970000Y-105410000D03*
X140970000Y-102870000D03*
X140970000Y-100330000D03*
X140970000Y-97790000D03*
X140970000Y-95250000D03*
X140970000Y-92710000D03*
X140970000Y-90170000D03*
X140970000Y-87630000D03*
X140970000Y-85090000D03*
X140970000Y-82550000D03*
X125730000Y-82550000D03*
X125730000Y-85090000D03*
X125730000Y-87630000D03*
X125730000Y-90170000D03*
X125730000Y-92710000D03*
X125730000Y-95250000D03*
X125730000Y-97790000D03*
X125730000Y-100330000D03*
X125730000Y-102870000D03*
X125730000Y-105410000D03*
X125730000Y-107950000D03*
X125730000Y-110490000D03*
X138430000Y-93980000D03*
X138430000Y-91440000D03*
D22*
X148590000Y-131445000D03*
D23*
X148590000Y-129945000D03*
D11*
X116000000Y-149750000D03*
D12*
X117650000Y-149750000D03*
X117166726Y-150916726D03*
X116000000Y-151400000D03*
X114833274Y-150916726D03*
X114350000Y-149750000D03*
X114833274Y-148583274D03*
X116000000Y-148100000D03*
X117166726Y-148583274D03*
D24*
X148590000Y-92075000D03*
X147955000Y-92710000D03*
D25*
X142280000Y-129945000D02*
X143280000Y-129945000D01*
X142280000Y-129945000D02*
X147090000Y-129945000D01*
X147090000Y-129945000D02*
X148590000Y-131445000D01*
X154940000Y-92075000D02*
X153035000Y-90170000D01*
X154940000Y-121285000D02*
X154940000Y-92075000D01*
X154940000Y-92075000D02*
X156210000Y-90805000D01*
X154940000Y-130810000D02*
X154940000Y-121285000D01*
X154940000Y-121285000D02*
X154940000Y-120650000D01*
X158750000Y-88265000D02*
X160020000Y-86995000D01*
X156210000Y-90805000D02*
X158750000Y-88265000D01*
X160020000Y-86995000D02*
X164075000Y-86995000D01*
X164075000Y-86995000D02*
X164220000Y-87140000D01*
X148590000Y-131445000D02*
X153035000Y-131445000D01*
X153035000Y-131445000D02*
X153670000Y-132080000D01*
X148360000Y-131215000D02*
X148590000Y-131445000D01*
X153670000Y-132080000D02*
X153670000Y-140970000D01*
X153670000Y-140970000D02*
X157480000Y-144780000D01*
X154535000Y-131215000D02*
X153670000Y-132080000D01*
X154535000Y-131215000D02*
X154940000Y-130810000D01*
X164075000Y-86995000D02*
X164220000Y-87140000D01*
X140970000Y-90170000D02*
X153035000Y-90170000D01*
X151130000Y-148590000D02*
X153670000Y-148590000D01*
X153670000Y-148590000D02*
X157480000Y-144780000D01*
X125730000Y-148590000D02*
X135890000Y-148590000D01*
X135890000Y-148590000D02*
X140970000Y-148590000D01*
X140970000Y-148590000D02*
X151130000Y-148590000D01*
D26*
X142280000Y-127945000D02*
X143280000Y-127945000D01*
X148590000Y-92075000D02*
X154305000Y-97790000D01*
X154305000Y-97790000D02*
X154305000Y-123825000D01*
X154305000Y-123825000D02*
X151765000Y-126365000D01*
X142280000Y-119945000D02*
X143280000Y-119945000D01*
X125730000Y-88900000D02*
X125095000Y-88900000D01*
X144780000Y-88900000D02*
X125730000Y-88900000D01*
X146050000Y-87630000D02*
X144780000Y-88900000D01*
X124460000Y-106680000D02*
X125730000Y-107950000D01*
X124460000Y-89535000D02*
X124460000Y-106680000D01*
X125095000Y-88900000D02*
X124460000Y-89535000D01*
X142280000Y-115945000D02*
X143280000Y-115945000D01*
X140970000Y-114300000D02*
X140970000Y-114635000D01*
X140970000Y-114635000D02*
X142280000Y-115945000D01*
X140970000Y-113665000D02*
X140970000Y-114300000D01*
X140970000Y-112395000D02*
X140970000Y-113665000D01*
X140970000Y-112395000D02*
X140970000Y-110490000D01*
X140970000Y-111760000D02*
X140970000Y-112395000D01*
X148272500Y-117792500D02*
X147955000Y-118110000D01*
X147955000Y-118110000D02*
X142445000Y-118110000D01*
X142445000Y-118110000D02*
X142280000Y-117945000D01*
X153035000Y-113030000D02*
X153035000Y-111760000D01*
X148272500Y-117792500D02*
X153035000Y-113030000D01*
X128270000Y-90170000D02*
X125730000Y-92710000D01*
X151130000Y-107950000D02*
X152400000Y-107950000D01*
X150495000Y-107950000D02*
X151130000Y-107950000D01*
X140335000Y-96520000D02*
X139700000Y-95885000D01*
X150495000Y-107950000D02*
X144145000Y-101600000D01*
X144145000Y-101600000D02*
X144145000Y-99060000D01*
X144145000Y-99060000D02*
X141605000Y-96520000D01*
X141605000Y-96520000D02*
X140335000Y-96520000D01*
X153035000Y-108585000D02*
X152400000Y-107950000D01*
X139700000Y-95885000D02*
X139700000Y-90805000D01*
X139700000Y-90805000D02*
X139065000Y-90170000D01*
X139065000Y-90170000D02*
X128270000Y-90170000D01*
X153035000Y-108585000D02*
X153035000Y-111760000D01*
X137160000Y-120650000D02*
X137160000Y-121285000D01*
X137160000Y-121285000D02*
X124460000Y-133985000D01*
X137160000Y-118745000D02*
X137160000Y-120650000D01*
X137160000Y-118745000D02*
X137160000Y-93980000D01*
X137160000Y-93980000D02*
X137160000Y-93345000D01*
X137160000Y-92710000D02*
X138430000Y-91440000D01*
X137160000Y-93345000D02*
X137160000Y-92710000D01*
X124460000Y-133985000D02*
X124460000Y-140335000D01*
X124460000Y-140335000D02*
X124460000Y-142240000D01*
X124460000Y-142240000D02*
X125730000Y-143510000D01*
X125730000Y-143510000D02*
X135890000Y-143510000D01*
X135890000Y-143510000D02*
X140970000Y-143510000D01*
X140970000Y-143510000D02*
X151130000Y-143510000D01*
X137795000Y-119380000D02*
X137795000Y-121920000D01*
X137795000Y-121920000D02*
X125730000Y-133985000D01*
X137795000Y-119380000D02*
X137795000Y-95885000D01*
X137795000Y-95885000D02*
X137795000Y-94615000D01*
X125730000Y-133985000D02*
X125730000Y-140970000D01*
X125730000Y-140970000D02*
X125730000Y-140335000D01*
X137795000Y-94615000D02*
X138430000Y-93980000D01*
X125730000Y-140970000D02*
X135890000Y-140970000D01*
X135890000Y-140970000D02*
X140970000Y-140970000D01*
X140970000Y-140970000D02*
X151130000Y-140970000D01*
X142875000Y-101600000D02*
X141605000Y-100330000D01*
X141605000Y-100330000D02*
X140970000Y-100330000D01*
X142875000Y-101600000D02*
X142875000Y-102870000D01*
X142875000Y-102870000D02*
X144145000Y-104140000D01*
X144145000Y-104140000D02*
X146050000Y-106045000D01*
X146050000Y-106045000D02*
X146050000Y-109220000D01*
X140970000Y-97790000D02*
X143510000Y-100330000D01*
X143510000Y-102235000D02*
X150495000Y-109220000D01*
X143510000Y-100330000D02*
X143510000Y-102235000D01*
X150495000Y-109220000D02*
X151130000Y-109220000D01*
X150495000Y-109220000D02*
X151130000Y-109220000D01*
X142875000Y-96520000D02*
X141605000Y-95250000D01*
X141605000Y-95250000D02*
X140970000Y-95250000D01*
X142875000Y-96520000D02*
X145415000Y-99060000D01*
X145415000Y-99060000D02*
X146050000Y-99060000D01*
X143510000Y-93980000D02*
X142240000Y-92710000D01*
X142240000Y-92710000D02*
X140970000Y-92710000D01*
X151130000Y-99060000D02*
X148590000Y-99060000D01*
X148590000Y-99060000D02*
X143510000Y-93980000D01*
X142280000Y-125945000D02*
X143280000Y-125945000D01*
X138430000Y-121920000D02*
X138430000Y-122095000D01*
X138430000Y-122095000D02*
X142280000Y-125945000D01*
X138430000Y-114935000D02*
X138430000Y-121920000D01*
X138430000Y-113665000D02*
X138430000Y-114935000D01*
X140970000Y-107950000D02*
X142240000Y-106680000D01*
X138430000Y-103505000D02*
X138430000Y-113665000D01*
X140335000Y-101600000D02*
X138430000Y-103505000D01*
X141605000Y-101600000D02*
X140335000Y-101600000D01*
X142240000Y-102235000D02*
X141605000Y-101600000D01*
X142240000Y-106680000D02*
X142240000Y-102235000D01*
X142280000Y-123945000D02*
X143280000Y-123945000D01*
X139065000Y-119380000D02*
X139065000Y-120730000D01*
X139065000Y-120730000D02*
X142280000Y-123945000D01*
X139065000Y-113030000D02*
X139065000Y-114935000D01*
X139065000Y-106045000D02*
X139065000Y-104775000D01*
X140970000Y-102870000D02*
X139065000Y-104775000D01*
X139065000Y-113030000D02*
X139065000Y-106045000D01*
X139065000Y-114935000D02*
X139065000Y-119380000D01*
X142280000Y-121945000D02*
X143280000Y-121945000D01*
X139700000Y-118110000D02*
X139700000Y-119365000D01*
X139700000Y-119365000D02*
X142280000Y-121945000D01*
X139700000Y-114935000D02*
X139700000Y-118110000D01*
X139700000Y-108585000D02*
X139700000Y-112395000D01*
X140970000Y-105410000D02*
X139700000Y-106680000D01*
X139700000Y-108585000D02*
X139700000Y-106680000D01*
X139700000Y-112395000D02*
X139700000Y-114935000D01*
X140970000Y-87630000D02*
X142875000Y-85725000D01*
X142875000Y-85725000D02*
X163830000Y-85725000D01*
X170180000Y-144780000D02*
X170180000Y-90805000D01*
X170180000Y-90805000D02*
X166370000Y-86995000D01*
X165735000Y-86360000D02*
X166370000Y-86995000D01*
X163830000Y-85725000D02*
X165100000Y-85725000D01*
X165100000Y-85725000D02*
X165735000Y-86360000D01*
X147955000Y-126365000D02*
X153035000Y-121285000D01*
X153670000Y-98425000D02*
X147955000Y-92710000D01*
X153670000Y-120650000D02*
X153670000Y-98425000D01*
X153035000Y-121285000D02*
X153670000Y-120650000D01*
M02*
