G04 #@! TF.FileFunction,Soldermask,Top*
%FSLAX46Y46*%
G04 Gerber Fmt 4.6, Leading zero omitted, Abs format (unit mm)*
G04 Created by KiCad (PCBNEW 4.0.7) date 08/02/18 21:49:44*
%MOMM*%
%LPD*%
G01*
G04 APERTURE LIST*
%ADD10C,0.100000*%
%ADD11C,2.000000*%
%ADD12C,3.300000*%
%ADD13R,1.600000X1.600000*%
%ADD14C,1.600000*%
%ADD15C,4.800000*%
%ADD16C,1.100000*%
%ADD17R,2.200000X2.200000*%
%ADD18C,2.200000*%
%ADD19C,2.600000*%
%ADD20C,1.750000*%
%ADD21R,2.200000X1.750000*%
%ADD22C,2.400000*%
%ADD23R,2.100000X2.100000*%
%ADD24O,2.100000X2.100000*%
%ADD25O,2.000000X2.000000*%
%ADD26R,1.800000X1.800000*%
%ADD27O,1.800000X1.800000*%
G04 APERTURE END LIST*
D10*
D11*
X164500000Y-139600000D03*
X164500000Y-86400000D03*
D12*
X164500000Y-113000000D03*
D13*
X147955000Y-128905000D03*
D14*
X147955000Y-130405000D03*
D15*
X116000000Y-81250000D03*
D16*
X117650000Y-81250000D03*
X117166726Y-82416726D03*
X116000000Y-82900000D03*
X114833274Y-82416726D03*
X114350000Y-81250000D03*
X114833274Y-80083274D03*
X116000000Y-79600000D03*
X117166726Y-80083274D03*
D15*
X161000000Y-81250000D03*
D16*
X162650000Y-81250000D03*
X162166726Y-82416726D03*
X161000000Y-82900000D03*
X159833274Y-82416726D03*
X159350000Y-81250000D03*
X159833274Y-80083274D03*
X161000000Y-79600000D03*
X162166726Y-80083274D03*
D15*
X161000000Y-149750000D03*
D16*
X162650000Y-149750000D03*
X162166726Y-150916726D03*
X161000000Y-151400000D03*
X159833274Y-150916726D03*
X159350000Y-149750000D03*
X159833274Y-148583274D03*
X161000000Y-148100000D03*
X162166726Y-148583274D03*
D17*
X146050000Y-81280000D03*
D18*
X146050000Y-83820000D03*
D19*
X124333000Y-121920000D03*
D20*
X142280000Y-115945000D03*
D21*
X143280000Y-115945000D03*
D20*
X142280000Y-129945000D03*
X142280000Y-127945000D03*
X142280000Y-125945000D03*
X142280000Y-123945000D03*
X142280000Y-121945000D03*
X142280000Y-119945000D03*
X142280000Y-117945000D03*
D21*
X143280000Y-129945000D03*
X143280000Y-127945000D03*
X143280000Y-125945000D03*
X143280000Y-123945000D03*
X143280000Y-121945000D03*
X143280000Y-119945000D03*
X143280000Y-117945000D03*
D22*
X146685000Y-97845000D03*
X146685000Y-93345000D03*
X153185000Y-97845000D03*
X153185000Y-93345000D03*
D17*
X151130000Y-81280000D03*
D18*
X151130000Y-83820000D03*
D23*
X157480000Y-144780000D03*
D24*
X160020000Y-144780000D03*
D23*
X151130000Y-148590000D03*
D24*
X151130000Y-146050000D03*
X151130000Y-143510000D03*
X151130000Y-140970000D03*
D23*
X125730000Y-148590000D03*
D24*
X125730000Y-146050000D03*
X125730000Y-143510000D03*
X125730000Y-140970000D03*
D23*
X162560000Y-144780000D03*
D24*
X165100000Y-144780000D03*
X167640000Y-144780000D03*
X170180000Y-144780000D03*
D11*
X112500000Y-87300000D03*
X112500000Y-139600000D03*
D12*
X112500000Y-113000000D03*
D23*
X147320000Y-113665000D03*
D24*
X147320000Y-116205000D03*
D23*
X152400000Y-113665000D03*
D24*
X152400000Y-116205000D03*
D23*
X147320000Y-104140000D03*
D24*
X147320000Y-106680000D03*
D23*
X152400000Y-104140000D03*
D24*
X152400000Y-106680000D03*
D23*
X140970000Y-148590000D03*
D24*
X140970000Y-146050000D03*
X140970000Y-143510000D03*
X140970000Y-140970000D03*
D23*
X135890000Y-148590000D03*
D24*
X135890000Y-146050000D03*
X135890000Y-143510000D03*
X135890000Y-140970000D03*
D15*
X116000000Y-149750000D03*
D16*
X117650000Y-149750000D03*
X117166726Y-150916726D03*
X116000000Y-151400000D03*
X114833274Y-150916726D03*
X114350000Y-149750000D03*
X114833274Y-148583274D03*
X116000000Y-148100000D03*
X117166726Y-148583274D03*
D11*
X151130000Y-122555000D03*
D25*
X151130000Y-125095000D03*
D11*
X147320000Y-122555000D03*
D25*
X147320000Y-125095000D03*
D11*
X151130000Y-86995000D03*
D25*
X151130000Y-89535000D03*
D11*
X146050000Y-86995000D03*
D25*
X146050000Y-89535000D03*
D11*
X119380000Y-144780000D03*
D25*
X116840000Y-144780000D03*
D26*
X107950000Y-144780000D03*
D27*
X110250000Y-144780000D03*
X112550000Y-144780000D03*
D18*
X140970000Y-110490000D03*
X140970000Y-107950000D03*
X140970000Y-105410000D03*
X140970000Y-102870000D03*
X140970000Y-100330000D03*
X140970000Y-97790000D03*
X140970000Y-95250000D03*
X140970000Y-92710000D03*
X140970000Y-90170000D03*
X140970000Y-87630000D03*
X140970000Y-85090000D03*
X140970000Y-82550000D03*
X125730000Y-82550000D03*
X125730000Y-85090000D03*
X125730000Y-87630000D03*
X125730000Y-90170000D03*
X125730000Y-92710000D03*
X125730000Y-95250000D03*
X125730000Y-97790000D03*
X125730000Y-100330000D03*
X125730000Y-102870000D03*
X125730000Y-105410000D03*
X125730000Y-107950000D03*
X125730000Y-110490000D03*
X138430000Y-93980000D03*
X138430000Y-91440000D03*
M02*
