G04 #@! TF.FileFunction,Legend,Bot*
%FSLAX46Y46*%
G04 Gerber Fmt 4.6, Leading zero omitted, Abs format (unit mm)*
G04 Created by KiCad (PCBNEW 4.0.7) date 08/02/18 21:49:44*
%MOMM*%
%LPD*%
G01*
G04 APERTURE LIST*
%ADD10C,0.100000*%
%ADD11C,0.200000*%
%ADD12C,0.300000*%
%ADD13C,0.120000*%
%ADD14C,0.150000*%
%ADD15C,0.010000*%
%ADD16C,2.000000*%
%ADD17C,3.300000*%
%ADD18R,1.600000X1.600000*%
%ADD19C,1.600000*%
%ADD20C,4.800000*%
%ADD21C,1.100000*%
%ADD22R,2.200000X2.200000*%
%ADD23C,2.200000*%
%ADD24C,2.600000*%
%ADD25C,1.750000*%
%ADD26C,2.400000*%
%ADD27R,2.100000X2.100000*%
%ADD28O,2.100000X2.100000*%
%ADD29O,2.000000X2.000000*%
%ADD30R,1.370000X1.670000*%
%ADD31R,1.800000X1.800000*%
%ADD32O,1.800000X1.800000*%
G04 APERTURE END LIST*
D10*
D11*
X113395000Y-90798571D02*
X113337857Y-90741429D01*
X113166429Y-90627143D01*
X113052143Y-90570000D01*
X112880714Y-90512857D01*
X112595000Y-90455714D01*
X112366429Y-90455714D01*
X112080714Y-90512857D01*
X111909286Y-90570000D01*
X111795000Y-90627143D01*
X111623571Y-90741429D01*
X111566429Y-90798571D01*
X112880714Y-91770000D02*
X112937857Y-91655714D01*
X112937857Y-91427143D01*
X112880714Y-91312857D01*
X112823571Y-91255714D01*
X112709286Y-91198571D01*
X112366429Y-91198571D01*
X112252143Y-91255714D01*
X112195000Y-91312857D01*
X112137857Y-91427143D01*
X112137857Y-91655714D01*
X112195000Y-91770000D01*
X113395000Y-92170000D02*
X113337857Y-92227142D01*
X113166429Y-92341428D01*
X113052143Y-92398571D01*
X112880714Y-92455714D01*
X112595000Y-92512857D01*
X112366429Y-92512857D01*
X112080714Y-92455714D01*
X111909286Y-92398571D01*
X111795000Y-92341428D01*
X111623571Y-92227142D01*
X111566429Y-92170000D01*
X112595000Y-93941428D02*
X112595000Y-94512857D01*
X112937857Y-93827143D02*
X111737857Y-94227143D01*
X112937857Y-94627143D01*
X112937857Y-95198571D02*
X112880714Y-95084285D01*
X112766429Y-95027142D01*
X111737857Y-95027142D01*
X112880714Y-96112856D02*
X112937857Y-95998570D01*
X112937857Y-95769999D01*
X112880714Y-95655713D01*
X112766429Y-95598570D01*
X112309286Y-95598570D01*
X112195000Y-95655713D01*
X112137857Y-95769999D01*
X112137857Y-95998570D01*
X112195000Y-96112856D01*
X112309286Y-96169999D01*
X112423571Y-96169999D01*
X112537857Y-95598570D01*
X112937857Y-96569999D02*
X112137857Y-97198570D01*
X112137857Y-96569999D02*
X112937857Y-97198570D01*
X112937857Y-98169999D02*
X112309286Y-98169999D01*
X112195000Y-98112856D01*
X112137857Y-97998570D01*
X112137857Y-97769999D01*
X112195000Y-97655713D01*
X112880714Y-98169999D02*
X112937857Y-98055713D01*
X112937857Y-97769999D01*
X112880714Y-97655713D01*
X112766429Y-97598570D01*
X112652143Y-97598570D01*
X112537857Y-97655713D01*
X112480714Y-97769999D01*
X112480714Y-98055713D01*
X112423571Y-98169999D01*
X112137857Y-98741427D02*
X112937857Y-98741427D01*
X112252143Y-98741427D02*
X112195000Y-98798570D01*
X112137857Y-98912856D01*
X112137857Y-99084284D01*
X112195000Y-99198570D01*
X112309286Y-99255713D01*
X112937857Y-99255713D01*
X112937857Y-100341427D02*
X111737857Y-100341427D01*
X112880714Y-100341427D02*
X112937857Y-100227141D01*
X112937857Y-99998570D01*
X112880714Y-99884284D01*
X112823571Y-99827141D01*
X112709286Y-99769998D01*
X112366429Y-99769998D01*
X112252143Y-99827141D01*
X112195000Y-99884284D01*
X112137857Y-99998570D01*
X112137857Y-100227141D01*
X112195000Y-100341427D01*
X112880714Y-101369998D02*
X112937857Y-101255712D01*
X112937857Y-101027141D01*
X112880714Y-100912855D01*
X112766429Y-100855712D01*
X112309286Y-100855712D01*
X112195000Y-100912855D01*
X112137857Y-101027141D01*
X112137857Y-101255712D01*
X112195000Y-101369998D01*
X112309286Y-101427141D01*
X112423571Y-101427141D01*
X112537857Y-100855712D01*
X112937857Y-101941426D02*
X112137857Y-101941426D01*
X112366429Y-101941426D02*
X112252143Y-101998569D01*
X112195000Y-102055712D01*
X112137857Y-102169998D01*
X112137857Y-102284283D01*
X112937857Y-104284284D02*
X112366429Y-103884284D01*
X112937857Y-103598569D02*
X111737857Y-103598569D01*
X111737857Y-104055712D01*
X111795000Y-104169998D01*
X111852143Y-104227141D01*
X111966429Y-104284284D01*
X112137857Y-104284284D01*
X112252143Y-104227141D01*
X112309286Y-104169998D01*
X112366429Y-104055712D01*
X112366429Y-103598569D01*
X112880714Y-105255712D02*
X112937857Y-105141426D01*
X112937857Y-104912855D01*
X112880714Y-104798569D01*
X112766429Y-104741426D01*
X112309286Y-104741426D01*
X112195000Y-104798569D01*
X112137857Y-104912855D01*
X112137857Y-105141426D01*
X112195000Y-105255712D01*
X112309286Y-105312855D01*
X112423571Y-105312855D01*
X112537857Y-104741426D01*
X112937857Y-105827140D02*
X112137857Y-105827140D01*
X111737857Y-105827140D02*
X111795000Y-105769997D01*
X111852143Y-105827140D01*
X111795000Y-105884283D01*
X111737857Y-105827140D01*
X111852143Y-105827140D01*
X112137857Y-106398569D02*
X112937857Y-106398569D01*
X112252143Y-106398569D02*
X112195000Y-106455712D01*
X112137857Y-106569998D01*
X112137857Y-106741426D01*
X112195000Y-106855712D01*
X112309286Y-106912855D01*
X112937857Y-106912855D01*
X112880714Y-107941426D02*
X112937857Y-107827140D01*
X112937857Y-107598569D01*
X112880714Y-107484283D01*
X112766429Y-107427140D01*
X112309286Y-107427140D01*
X112195000Y-107484283D01*
X112137857Y-107598569D01*
X112137857Y-107827140D01*
X112195000Y-107941426D01*
X112309286Y-107998569D01*
X112423571Y-107998569D01*
X112537857Y-107427140D01*
X112937857Y-108512854D02*
X112137857Y-108512854D01*
X112366429Y-108512854D02*
X112252143Y-108569997D01*
X112195000Y-108627140D01*
X112137857Y-108741426D01*
X112137857Y-108855711D01*
X112137857Y-109084283D02*
X112137857Y-109541426D01*
X111737857Y-109255711D02*
X112766429Y-109255711D01*
X112880714Y-109312854D01*
X112937857Y-109427140D01*
X112937857Y-109541426D01*
X108562857Y-90284286D02*
X109762857Y-90684286D01*
X108562857Y-91084286D01*
X109705714Y-91941428D02*
X109762857Y-91827142D01*
X109762857Y-91598571D01*
X109705714Y-91484285D01*
X109591429Y-91427142D01*
X109134286Y-91427142D01*
X109020000Y-91484285D01*
X108962857Y-91598571D01*
X108962857Y-91827142D01*
X109020000Y-91941428D01*
X109134286Y-91998571D01*
X109248571Y-91998571D01*
X109362857Y-91427142D01*
X109762857Y-92512856D02*
X108962857Y-92512856D01*
X109191429Y-92512856D02*
X109077143Y-92569999D01*
X109020000Y-92627142D01*
X108962857Y-92741428D01*
X108962857Y-92855713D01*
X109705714Y-93198570D02*
X109762857Y-93312856D01*
X109762857Y-93541428D01*
X109705714Y-93655713D01*
X109591429Y-93712856D01*
X109534286Y-93712856D01*
X109420000Y-93655713D01*
X109362857Y-93541428D01*
X109362857Y-93369999D01*
X109305714Y-93255713D01*
X109191429Y-93198570D01*
X109134286Y-93198570D01*
X109020000Y-93255713D01*
X108962857Y-93369999D01*
X108962857Y-93541428D01*
X109020000Y-93655713D01*
X109762857Y-94227142D02*
X108962857Y-94227142D01*
X108562857Y-94227142D02*
X108620000Y-94169999D01*
X108677143Y-94227142D01*
X108620000Y-94284285D01*
X108562857Y-94227142D01*
X108677143Y-94227142D01*
X109762857Y-94970000D02*
X109705714Y-94855714D01*
X109648571Y-94798571D01*
X109534286Y-94741428D01*
X109191429Y-94741428D01*
X109077143Y-94798571D01*
X109020000Y-94855714D01*
X108962857Y-94970000D01*
X108962857Y-95141428D01*
X109020000Y-95255714D01*
X109077143Y-95312857D01*
X109191429Y-95370000D01*
X109534286Y-95370000D01*
X109648571Y-95312857D01*
X109705714Y-95255714D01*
X109762857Y-95141428D01*
X109762857Y-94970000D01*
X108962857Y-95884285D02*
X109762857Y-95884285D01*
X109077143Y-95884285D02*
X109020000Y-95941428D01*
X108962857Y-96055714D01*
X108962857Y-96227142D01*
X109020000Y-96341428D01*
X109134286Y-96398571D01*
X109762857Y-96398571D01*
X109762857Y-98512857D02*
X109762857Y-97827142D01*
X109762857Y-98170000D02*
X108562857Y-98170000D01*
X108734286Y-98055714D01*
X108848571Y-97941428D01*
X108905714Y-97827142D01*
X109648571Y-99027142D02*
X109705714Y-99084285D01*
X109762857Y-99027142D01*
X109705714Y-98969999D01*
X109648571Y-99027142D01*
X109762857Y-99027142D01*
X109077143Y-99770000D02*
X109020000Y-99655714D01*
X108962857Y-99598571D01*
X108848571Y-99541428D01*
X108791429Y-99541428D01*
X108677143Y-99598571D01*
X108620000Y-99655714D01*
X108562857Y-99770000D01*
X108562857Y-99998571D01*
X108620000Y-100112857D01*
X108677143Y-100170000D01*
X108791429Y-100227143D01*
X108848571Y-100227143D01*
X108962857Y-100170000D01*
X109020000Y-100112857D01*
X109077143Y-99998571D01*
X109077143Y-99770000D01*
X109134286Y-99655714D01*
X109191429Y-99598571D01*
X109305714Y-99541428D01*
X109534286Y-99541428D01*
X109648571Y-99598571D01*
X109705714Y-99655714D01*
X109762857Y-99770000D01*
X109762857Y-99998571D01*
X109705714Y-100112857D01*
X109648571Y-100170000D01*
X109534286Y-100227143D01*
X109305714Y-100227143D01*
X109191429Y-100170000D01*
X109134286Y-100112857D01*
X109077143Y-99998571D01*
X109305714Y-101655714D02*
X109305714Y-102570000D01*
X108562857Y-104284286D02*
X108562857Y-104398571D01*
X108620000Y-104512857D01*
X108677143Y-104570000D01*
X108791429Y-104627143D01*
X109020000Y-104684286D01*
X109305714Y-104684286D01*
X109534286Y-104627143D01*
X109648571Y-104570000D01*
X109705714Y-104512857D01*
X109762857Y-104398571D01*
X109762857Y-104284286D01*
X109705714Y-104170000D01*
X109648571Y-104112857D01*
X109534286Y-104055714D01*
X109305714Y-103998571D01*
X109020000Y-103998571D01*
X108791429Y-104055714D01*
X108677143Y-104112857D01*
X108620000Y-104170000D01*
X108562857Y-104284286D01*
X109077143Y-105370000D02*
X109020000Y-105255714D01*
X108962857Y-105198571D01*
X108848571Y-105141428D01*
X108791429Y-105141428D01*
X108677143Y-105198571D01*
X108620000Y-105255714D01*
X108562857Y-105370000D01*
X108562857Y-105598571D01*
X108620000Y-105712857D01*
X108677143Y-105770000D01*
X108791429Y-105827143D01*
X108848571Y-105827143D01*
X108962857Y-105770000D01*
X109020000Y-105712857D01*
X109077143Y-105598571D01*
X109077143Y-105370000D01*
X109134286Y-105255714D01*
X109191429Y-105198571D01*
X109305714Y-105141428D01*
X109534286Y-105141428D01*
X109648571Y-105198571D01*
X109705714Y-105255714D01*
X109762857Y-105370000D01*
X109762857Y-105598571D01*
X109705714Y-105712857D01*
X109648571Y-105770000D01*
X109534286Y-105827143D01*
X109305714Y-105827143D01*
X109191429Y-105770000D01*
X109134286Y-105712857D01*
X109077143Y-105598571D01*
X108505714Y-107198571D02*
X110048571Y-106170000D01*
X108677143Y-107541428D02*
X108620000Y-107598571D01*
X108562857Y-107712857D01*
X108562857Y-107998571D01*
X108620000Y-108112857D01*
X108677143Y-108170000D01*
X108791429Y-108227143D01*
X108905714Y-108227143D01*
X109077143Y-108170000D01*
X109762857Y-107484286D01*
X109762857Y-108227143D01*
X108562857Y-108970000D02*
X108562857Y-109084285D01*
X108620000Y-109198571D01*
X108677143Y-109255714D01*
X108791429Y-109312857D01*
X109020000Y-109370000D01*
X109305714Y-109370000D01*
X109534286Y-109312857D01*
X109648571Y-109255714D01*
X109705714Y-109198571D01*
X109762857Y-109084285D01*
X109762857Y-108970000D01*
X109705714Y-108855714D01*
X109648571Y-108798571D01*
X109534286Y-108741428D01*
X109305714Y-108684285D01*
X109020000Y-108684285D01*
X108791429Y-108741428D01*
X108677143Y-108798571D01*
X108620000Y-108855714D01*
X108562857Y-108970000D01*
X109762857Y-110512857D02*
X109762857Y-109827142D01*
X109762857Y-110170000D02*
X108562857Y-110170000D01*
X108734286Y-110055714D01*
X108848571Y-109941428D01*
X108905714Y-109827142D01*
X109077143Y-111198571D02*
X109020000Y-111084285D01*
X108962857Y-111027142D01*
X108848571Y-110969999D01*
X108791429Y-110969999D01*
X108677143Y-111027142D01*
X108620000Y-111084285D01*
X108562857Y-111198571D01*
X108562857Y-111427142D01*
X108620000Y-111541428D01*
X108677143Y-111598571D01*
X108791429Y-111655714D01*
X108848571Y-111655714D01*
X108962857Y-111598571D01*
X109020000Y-111541428D01*
X109077143Y-111427142D01*
X109077143Y-111198571D01*
X109134286Y-111084285D01*
X109191429Y-111027142D01*
X109305714Y-110969999D01*
X109534286Y-110969999D01*
X109648571Y-111027142D01*
X109705714Y-111084285D01*
X109762857Y-111198571D01*
X109762857Y-111427142D01*
X109705714Y-111541428D01*
X109648571Y-111598571D01*
X109534286Y-111655714D01*
X109305714Y-111655714D01*
X109191429Y-111598571D01*
X109134286Y-111541428D01*
X109077143Y-111427142D01*
D12*
X107358571Y-90527143D02*
X105858571Y-90527143D01*
X106572857Y-90527143D02*
X106572857Y-91384286D01*
X107358571Y-91384286D02*
X105858571Y-91384286D01*
X106572857Y-92598572D02*
X106644286Y-92812858D01*
X106715714Y-92884286D01*
X106858571Y-92955715D01*
X107072857Y-92955715D01*
X107215714Y-92884286D01*
X107287143Y-92812858D01*
X107358571Y-92670000D01*
X107358571Y-92098572D01*
X105858571Y-92098572D01*
X105858571Y-92598572D01*
X105930000Y-92741429D01*
X106001429Y-92812858D01*
X106144286Y-92884286D01*
X106287143Y-92884286D01*
X106430000Y-92812858D01*
X106501429Y-92741429D01*
X106572857Y-92598572D01*
X106572857Y-92098572D01*
X106787143Y-93598572D02*
X106787143Y-94741429D01*
X105858571Y-95455715D02*
X107072857Y-95455715D01*
X107215714Y-95527143D01*
X107287143Y-95598572D01*
X107358571Y-95741429D01*
X107358571Y-96027143D01*
X107287143Y-96170001D01*
X107215714Y-96241429D01*
X107072857Y-96312858D01*
X105858571Y-96312858D01*
X107358571Y-97027144D02*
X105858571Y-97027144D01*
X107358571Y-97884287D01*
X105858571Y-97884287D01*
X107358571Y-98598573D02*
X105858571Y-98598573D01*
X106787143Y-99312859D02*
X106787143Y-100455716D01*
X107287143Y-101098573D02*
X107358571Y-101312859D01*
X107358571Y-101670002D01*
X107287143Y-101812859D01*
X107215714Y-101884288D01*
X107072857Y-101955716D01*
X106930000Y-101955716D01*
X106787143Y-101884288D01*
X106715714Y-101812859D01*
X106644286Y-101670002D01*
X106572857Y-101384288D01*
X106501429Y-101241430D01*
X106430000Y-101170002D01*
X106287143Y-101098573D01*
X106144286Y-101098573D01*
X106001429Y-101170002D01*
X105930000Y-101241430D01*
X105858571Y-101384288D01*
X105858571Y-101741430D01*
X105930000Y-101955716D01*
X106572857Y-102598573D02*
X106572857Y-103098573D01*
X107358571Y-103312859D02*
X107358571Y-102598573D01*
X105858571Y-102598573D01*
X105858571Y-103312859D01*
X107358571Y-103955716D02*
X105858571Y-103955716D01*
X107358571Y-104812859D01*
X105858571Y-104812859D01*
X107287143Y-105455716D02*
X107358571Y-105670002D01*
X107358571Y-106027145D01*
X107287143Y-106170002D01*
X107215714Y-106241431D01*
X107072857Y-106312859D01*
X106930000Y-106312859D01*
X106787143Y-106241431D01*
X106715714Y-106170002D01*
X106644286Y-106027145D01*
X106572857Y-105741431D01*
X106501429Y-105598573D01*
X106430000Y-105527145D01*
X106287143Y-105455716D01*
X106144286Y-105455716D01*
X106001429Y-105527145D01*
X105930000Y-105598573D01*
X105858571Y-105741431D01*
X105858571Y-106098573D01*
X105930000Y-106312859D01*
X106787143Y-106955716D02*
X106787143Y-108098573D01*
X106572857Y-109312859D02*
X106644286Y-109527145D01*
X106715714Y-109598573D01*
X106858571Y-109670002D01*
X107072857Y-109670002D01*
X107215714Y-109598573D01*
X107287143Y-109527145D01*
X107358571Y-109384287D01*
X107358571Y-108812859D01*
X105858571Y-108812859D01*
X105858571Y-109312859D01*
X105930000Y-109455716D01*
X106001429Y-109527145D01*
X106144286Y-109598573D01*
X106287143Y-109598573D01*
X106430000Y-109527145D01*
X106501429Y-109455716D01*
X106572857Y-109312859D01*
X106572857Y-108812859D01*
X106930000Y-110241430D02*
X106930000Y-110955716D01*
X107358571Y-110098573D02*
X105858571Y-110598573D01*
X107358571Y-111098573D01*
X105858571Y-111384287D02*
X105858571Y-112241430D01*
X107358571Y-111812859D02*
X105858571Y-111812859D01*
X105858571Y-112527144D02*
X105858571Y-113384287D01*
X107358571Y-112955716D02*
X105858571Y-112955716D01*
D13*
X108585000Y-148335000D02*
X111125000Y-148335000D01*
X111125000Y-150115000D02*
X108585000Y-150115000D01*
X111125000Y-150115000D02*
X111125000Y-148335000D01*
X108585000Y-148335000D02*
X108585000Y-150115000D01*
D14*
X140335000Y-80010000D02*
G75*
G03X140335000Y-80010000I-635000J0D01*
G01*
X137795000Y-80010000D02*
G75*
G03X137795000Y-80010000I-635000J0D01*
G01*
X135255000Y-80010000D02*
G75*
G03X135255000Y-80010000I-635000J0D01*
G01*
X132715000Y-80010000D02*
G75*
G03X132715000Y-80010000I-635000J0D01*
G01*
X130175000Y-80010000D02*
G75*
G03X130175000Y-80010000I-635000J0D01*
G01*
X127635000Y-80010000D02*
G75*
G03X127635000Y-80010000I-635000J0D01*
G01*
D15*
G36*
X169784312Y-128775452D02*
X169825462Y-128973725D01*
X169837223Y-129012947D01*
X169926488Y-129236600D01*
X170045744Y-129445349D01*
X170191676Y-129635466D01*
X170360969Y-129803224D01*
X170550308Y-129944896D01*
X170756376Y-130056755D01*
X170771794Y-130063569D01*
X170991758Y-130140890D01*
X171221675Y-130187461D01*
X171456356Y-130203699D01*
X171690611Y-130190018D01*
X171919251Y-130146832D01*
X172137086Y-130074558D01*
X172338927Y-129973610D01*
X172402500Y-129933158D01*
X172590499Y-129785482D01*
X172755048Y-129613962D01*
X172894516Y-129422515D01*
X173007273Y-129215059D01*
X173091687Y-128995508D01*
X173146128Y-128767781D01*
X173168963Y-128535793D01*
X173158563Y-128303461D01*
X173136684Y-128170214D01*
X173067314Y-127923817D01*
X172966971Y-127696250D01*
X172836071Y-127488147D01*
X172675030Y-127300147D01*
X172484264Y-127132887D01*
X172435947Y-127097217D01*
X172234507Y-126975062D01*
X172017448Y-126883556D01*
X171789383Y-126823224D01*
X171554923Y-126794591D01*
X171438593Y-126796359D01*
X171438593Y-127102428D01*
X171646538Y-127114262D01*
X171851799Y-127158908D01*
X172051129Y-127236584D01*
X172241280Y-127347504D01*
X172318910Y-127405075D01*
X172475609Y-127551697D01*
X172610442Y-127723365D01*
X172719028Y-127913330D01*
X172796981Y-128114840D01*
X172809867Y-128161143D01*
X172835972Y-128305770D01*
X172846701Y-128468004D01*
X172842064Y-128633053D01*
X172822073Y-128786124D01*
X172809329Y-128842419D01*
X172757458Y-128995551D01*
X172682836Y-129154941D01*
X172592765Y-129306515D01*
X172511597Y-129416193D01*
X172361264Y-129569816D01*
X172190698Y-129695176D01*
X172003611Y-129791275D01*
X171803716Y-129857110D01*
X171594726Y-129891683D01*
X171380353Y-129893992D01*
X171164311Y-129863039D01*
X171011748Y-129820254D01*
X170837824Y-129747027D01*
X170677429Y-129648761D01*
X170523287Y-129520733D01*
X170470286Y-129468849D01*
X170326997Y-129300604D01*
X170216805Y-129119645D01*
X170138596Y-128923463D01*
X170091257Y-128709551D01*
X170078054Y-128584553D01*
X170080118Y-128361060D01*
X170116944Y-128145847D01*
X170187550Y-127941546D01*
X170290951Y-127750792D01*
X170426166Y-127576218D01*
X170472288Y-127527894D01*
X170644934Y-127378903D01*
X170831135Y-127261645D01*
X171027644Y-127176336D01*
X171231212Y-127123191D01*
X171438593Y-127102428D01*
X171438593Y-126796359D01*
X171318677Y-126798183D01*
X171085259Y-126834524D01*
X170859279Y-126904141D01*
X170833143Y-126914648D01*
X170612588Y-127024284D01*
X170410959Y-127162148D01*
X170231273Y-127325087D01*
X170076549Y-127509946D01*
X169949804Y-127713573D01*
X169854055Y-127932813D01*
X169851314Y-127940695D01*
X169800102Y-128134384D01*
X169771771Y-128345157D01*
X169766461Y-128562387D01*
X169784312Y-128775452D01*
X169784312Y-128775452D01*
G37*
X169784312Y-128775452D02*
X169825462Y-128973725D01*
X169837223Y-129012947D01*
X169926488Y-129236600D01*
X170045744Y-129445349D01*
X170191676Y-129635466D01*
X170360969Y-129803224D01*
X170550308Y-129944896D01*
X170756376Y-130056755D01*
X170771794Y-130063569D01*
X170991758Y-130140890D01*
X171221675Y-130187461D01*
X171456356Y-130203699D01*
X171690611Y-130190018D01*
X171919251Y-130146832D01*
X172137086Y-130074558D01*
X172338927Y-129973610D01*
X172402500Y-129933158D01*
X172590499Y-129785482D01*
X172755048Y-129613962D01*
X172894516Y-129422515D01*
X173007273Y-129215059D01*
X173091687Y-128995508D01*
X173146128Y-128767781D01*
X173168963Y-128535793D01*
X173158563Y-128303461D01*
X173136684Y-128170214D01*
X173067314Y-127923817D01*
X172966971Y-127696250D01*
X172836071Y-127488147D01*
X172675030Y-127300147D01*
X172484264Y-127132887D01*
X172435947Y-127097217D01*
X172234507Y-126975062D01*
X172017448Y-126883556D01*
X171789383Y-126823224D01*
X171554923Y-126794591D01*
X171438593Y-126796359D01*
X171438593Y-127102428D01*
X171646538Y-127114262D01*
X171851799Y-127158908D01*
X172051129Y-127236584D01*
X172241280Y-127347504D01*
X172318910Y-127405075D01*
X172475609Y-127551697D01*
X172610442Y-127723365D01*
X172719028Y-127913330D01*
X172796981Y-128114840D01*
X172809867Y-128161143D01*
X172835972Y-128305770D01*
X172846701Y-128468004D01*
X172842064Y-128633053D01*
X172822073Y-128786124D01*
X172809329Y-128842419D01*
X172757458Y-128995551D01*
X172682836Y-129154941D01*
X172592765Y-129306515D01*
X172511597Y-129416193D01*
X172361264Y-129569816D01*
X172190698Y-129695176D01*
X172003611Y-129791275D01*
X171803716Y-129857110D01*
X171594726Y-129891683D01*
X171380353Y-129893992D01*
X171164311Y-129863039D01*
X171011748Y-129820254D01*
X170837824Y-129747027D01*
X170677429Y-129648761D01*
X170523287Y-129520733D01*
X170470286Y-129468849D01*
X170326997Y-129300604D01*
X170216805Y-129119645D01*
X170138596Y-128923463D01*
X170091257Y-128709551D01*
X170078054Y-128584553D01*
X170080118Y-128361060D01*
X170116944Y-128145847D01*
X170187550Y-127941546D01*
X170290951Y-127750792D01*
X170426166Y-127576218D01*
X170472288Y-127527894D01*
X170644934Y-127378903D01*
X170831135Y-127261645D01*
X171027644Y-127176336D01*
X171231212Y-127123191D01*
X171438593Y-127102428D01*
X171438593Y-126796359D01*
X171318677Y-126798183D01*
X171085259Y-126834524D01*
X170859279Y-126904141D01*
X170833143Y-126914648D01*
X170612588Y-127024284D01*
X170410959Y-127162148D01*
X170231273Y-127325087D01*
X170076549Y-127509946D01*
X169949804Y-127713573D01*
X169854055Y-127932813D01*
X169851314Y-127940695D01*
X169800102Y-128134384D01*
X169771771Y-128345157D01*
X169766461Y-128562387D01*
X169784312Y-128775452D01*
G36*
X169773740Y-132348857D02*
X169812254Y-132581921D01*
X169881186Y-132805231D01*
X169971776Y-132998167D01*
X170107559Y-133205262D01*
X170268907Y-133388630D01*
X170452913Y-133546030D01*
X170656671Y-133675226D01*
X170877273Y-133773976D01*
X171045390Y-133825088D01*
X171185681Y-133850319D01*
X171347520Y-133864147D01*
X171518210Y-133866565D01*
X171685057Y-133857568D01*
X171835362Y-133837151D01*
X171889225Y-133825485D01*
X172112520Y-133754129D01*
X172316300Y-133654260D01*
X172504705Y-133523477D01*
X172667600Y-133374220D01*
X172834306Y-133178796D01*
X172967926Y-132969216D01*
X173069542Y-132743543D01*
X173129217Y-132547278D01*
X173147202Y-132446423D01*
X173159235Y-132322220D01*
X173164997Y-132187166D01*
X173164170Y-132053759D01*
X173156436Y-131934495D01*
X173146588Y-131865315D01*
X173087328Y-131633869D01*
X173001066Y-131422246D01*
X172885249Y-131225791D01*
X172737321Y-131039853D01*
X172635764Y-130934956D01*
X172451506Y-130776714D01*
X172258922Y-130652130D01*
X172053741Y-130558803D01*
X171866289Y-130502269D01*
X171756727Y-130483083D01*
X171623881Y-130470683D01*
X171479675Y-130465246D01*
X171472607Y-130465329D01*
X171472607Y-130773833D01*
X171628655Y-130780785D01*
X171769429Y-130801872D01*
X171794413Y-130807759D01*
X171998893Y-130877796D01*
X172191730Y-130980177D01*
X172367767Y-131111546D01*
X172521846Y-131268544D01*
X172544066Y-131295754D01*
X172627798Y-131407294D01*
X172691164Y-131508413D01*
X172741442Y-131612187D01*
X172784699Y-131728068D01*
X172834973Y-131932010D01*
X172854120Y-132146315D01*
X172841855Y-132362231D01*
X172810751Y-132524357D01*
X172744796Y-132713539D01*
X172647656Y-132895961D01*
X172524171Y-133065741D01*
X172379184Y-133216997D01*
X172217536Y-133343847D01*
X172064403Y-133431063D01*
X171939954Y-133484638D01*
X171824559Y-133521418D01*
X171706070Y-133543965D01*
X171572342Y-133554841D01*
X171468143Y-133556875D01*
X171323101Y-133553507D01*
X171201094Y-133540754D01*
X171089453Y-133515699D01*
X170975509Y-133475428D01*
X170846592Y-133417025D01*
X170834353Y-133411040D01*
X170756167Y-133370667D01*
X170691933Y-133331559D01*
X170632107Y-133286552D01*
X170567143Y-133228483D01*
X170489639Y-133152346D01*
X170399968Y-133058358D01*
X170331951Y-132977310D01*
X170278449Y-132900057D01*
X170240206Y-132832750D01*
X170151140Y-132624782D01*
X170095986Y-132408369D01*
X170075044Y-132187566D01*
X170088611Y-131966423D01*
X170136987Y-131748993D01*
X170155982Y-131691655D01*
X170239450Y-131508441D01*
X170353950Y-131335247D01*
X170494614Y-131176817D01*
X170656574Y-131037898D01*
X170834961Y-130923236D01*
X171024907Y-130837576D01*
X171036211Y-130833585D01*
X171164047Y-130800653D01*
X171313625Y-130780596D01*
X171472607Y-130773833D01*
X171472607Y-130465329D01*
X171336033Y-130466948D01*
X171204880Y-130475964D01*
X171104842Y-130491011D01*
X170878721Y-130557124D01*
X170663389Y-130655819D01*
X170462646Y-130784072D01*
X170280295Y-130938858D01*
X170120137Y-131117153D01*
X169985976Y-131315931D01*
X169926965Y-131428022D01*
X169842255Y-131645621D01*
X169788585Y-131875258D01*
X169765798Y-132111486D01*
X169773740Y-132348857D01*
X169773740Y-132348857D01*
G37*
X169773740Y-132348857D02*
X169812254Y-132581921D01*
X169881186Y-132805231D01*
X169971776Y-132998167D01*
X170107559Y-133205262D01*
X170268907Y-133388630D01*
X170452913Y-133546030D01*
X170656671Y-133675226D01*
X170877273Y-133773976D01*
X171045390Y-133825088D01*
X171185681Y-133850319D01*
X171347520Y-133864147D01*
X171518210Y-133866565D01*
X171685057Y-133857568D01*
X171835362Y-133837151D01*
X171889225Y-133825485D01*
X172112520Y-133754129D01*
X172316300Y-133654260D01*
X172504705Y-133523477D01*
X172667600Y-133374220D01*
X172834306Y-133178796D01*
X172967926Y-132969216D01*
X173069542Y-132743543D01*
X173129217Y-132547278D01*
X173147202Y-132446423D01*
X173159235Y-132322220D01*
X173164997Y-132187166D01*
X173164170Y-132053759D01*
X173156436Y-131934495D01*
X173146588Y-131865315D01*
X173087328Y-131633869D01*
X173001066Y-131422246D01*
X172885249Y-131225791D01*
X172737321Y-131039853D01*
X172635764Y-130934956D01*
X172451506Y-130776714D01*
X172258922Y-130652130D01*
X172053741Y-130558803D01*
X171866289Y-130502269D01*
X171756727Y-130483083D01*
X171623881Y-130470683D01*
X171479675Y-130465246D01*
X171472607Y-130465329D01*
X171472607Y-130773833D01*
X171628655Y-130780785D01*
X171769429Y-130801872D01*
X171794413Y-130807759D01*
X171998893Y-130877796D01*
X172191730Y-130980177D01*
X172367767Y-131111546D01*
X172521846Y-131268544D01*
X172544066Y-131295754D01*
X172627798Y-131407294D01*
X172691164Y-131508413D01*
X172741442Y-131612187D01*
X172784699Y-131728068D01*
X172834973Y-131932010D01*
X172854120Y-132146315D01*
X172841855Y-132362231D01*
X172810751Y-132524357D01*
X172744796Y-132713539D01*
X172647656Y-132895961D01*
X172524171Y-133065741D01*
X172379184Y-133216997D01*
X172217536Y-133343847D01*
X172064403Y-133431063D01*
X171939954Y-133484638D01*
X171824559Y-133521418D01*
X171706070Y-133543965D01*
X171572342Y-133554841D01*
X171468143Y-133556875D01*
X171323101Y-133553507D01*
X171201094Y-133540754D01*
X171089453Y-133515699D01*
X170975509Y-133475428D01*
X170846592Y-133417025D01*
X170834353Y-133411040D01*
X170756167Y-133370667D01*
X170691933Y-133331559D01*
X170632107Y-133286552D01*
X170567143Y-133228483D01*
X170489639Y-133152346D01*
X170399968Y-133058358D01*
X170331951Y-132977310D01*
X170278449Y-132900057D01*
X170240206Y-132832750D01*
X170151140Y-132624782D01*
X170095986Y-132408369D01*
X170075044Y-132187566D01*
X170088611Y-131966423D01*
X170136987Y-131748993D01*
X170155982Y-131691655D01*
X170239450Y-131508441D01*
X170353950Y-131335247D01*
X170494614Y-131176817D01*
X170656574Y-131037898D01*
X170834961Y-130923236D01*
X171024907Y-130837576D01*
X171036211Y-130833585D01*
X171164047Y-130800653D01*
X171313625Y-130780596D01*
X171472607Y-130773833D01*
X171472607Y-130465329D01*
X171336033Y-130466948D01*
X171204880Y-130475964D01*
X171104842Y-130491011D01*
X170878721Y-130557124D01*
X170663389Y-130655819D01*
X170462646Y-130784072D01*
X170280295Y-130938858D01*
X170120137Y-131117153D01*
X169985976Y-131315931D01*
X169926965Y-131428022D01*
X169842255Y-131645621D01*
X169788585Y-131875258D01*
X169765798Y-132111486D01*
X169773740Y-132348857D01*
G36*
X169772048Y-135989497D02*
X169809157Y-136224964D01*
X169876043Y-136451241D01*
X169972012Y-136662838D01*
X170033755Y-136766126D01*
X170184803Y-136965099D01*
X170359231Y-137137477D01*
X170554674Y-137281565D01*
X170768767Y-137395670D01*
X170999145Y-137478097D01*
X171044017Y-137489902D01*
X171187181Y-137515828D01*
X171351654Y-137529851D01*
X171524642Y-137531966D01*
X171693350Y-137522170D01*
X171844984Y-137500455D01*
X171890896Y-137490228D01*
X172111014Y-137420023D01*
X172311150Y-137322718D01*
X172496302Y-137195384D01*
X172671468Y-137035096D01*
X172675952Y-137030444D01*
X172821149Y-136864178D01*
X172936251Y-136696865D01*
X173026649Y-136519883D01*
X173076876Y-136389276D01*
X173137526Y-136160011D01*
X173167256Y-135922941D01*
X173165379Y-135686738D01*
X173145000Y-135527143D01*
X173086381Y-135301831D01*
X172995550Y-135085807D01*
X172875774Y-134882824D01*
X172730321Y-134696631D01*
X172562458Y-134530980D01*
X172375453Y-134389622D01*
X172172574Y-134276308D01*
X171994286Y-134206183D01*
X171879110Y-134172458D01*
X171773330Y-134149760D01*
X171665805Y-134136773D01*
X171545390Y-134132183D01*
X171462653Y-134133609D01*
X171462653Y-134438886D01*
X171639028Y-134447432D01*
X171795411Y-134474328D01*
X171944643Y-134522478D01*
X172057786Y-134573379D01*
X172256105Y-134690747D01*
X172427745Y-134832631D01*
X172573399Y-134999726D01*
X172693761Y-135192726D01*
X172712654Y-135229985D01*
X172763919Y-135341604D01*
X172800444Y-135441625D01*
X172824190Y-135540093D01*
X172837115Y-135647052D01*
X172841182Y-135772548D01*
X172839701Y-135880928D01*
X172835462Y-135996783D01*
X172828873Y-136085421D01*
X172818794Y-136155889D01*
X172804087Y-136217236D01*
X172792897Y-136252465D01*
X172728043Y-136417452D01*
X172651601Y-136560614D01*
X172556262Y-136693674D01*
X172434717Y-136828352D01*
X172432105Y-136831005D01*
X172350668Y-136909337D01*
X172276668Y-136972461D01*
X172214215Y-137017432D01*
X172167421Y-137041307D01*
X172140396Y-137041142D01*
X172139619Y-137040431D01*
X172127732Y-137019710D01*
X172104544Y-136972457D01*
X172073012Y-136905282D01*
X172036097Y-136824792D01*
X171996758Y-136737595D01*
X171957955Y-136650300D01*
X171922646Y-136569516D01*
X171893792Y-136501849D01*
X171874352Y-136453909D01*
X171867286Y-136432347D01*
X171882531Y-136418463D01*
X171919726Y-136401458D01*
X171924635Y-136399700D01*
X172023238Y-136346869D01*
X172108617Y-136264408D01*
X172176175Y-136157931D01*
X172219775Y-136039208D01*
X172241694Y-135953500D01*
X172367454Y-135951376D01*
X172493214Y-135949253D01*
X172493214Y-135753928D01*
X172234660Y-135743358D01*
X172222589Y-135636666D01*
X172201440Y-135541675D01*
X172161814Y-135436910D01*
X172110683Y-135338461D01*
X172065597Y-135274366D01*
X172028461Y-135230231D01*
X171907841Y-135350851D01*
X171787222Y-135471471D01*
X171826367Y-135513140D01*
X171876820Y-135584844D01*
X171914262Y-135673433D01*
X171937079Y-135769297D01*
X171943657Y-135862826D01*
X171932382Y-135944408D01*
X171907629Y-135997083D01*
X171879061Y-136026772D01*
X171842767Y-136040706D01*
X171784737Y-136044214D01*
X171783720Y-136044214D01*
X171729130Y-136042109D01*
X171697513Y-136031140D01*
X171675605Y-136004323D01*
X171663102Y-135980714D01*
X171638646Y-135929855D01*
X171603905Y-135854545D01*
X171560654Y-135758873D01*
X171510670Y-135646926D01*
X171455728Y-135522793D01*
X171397603Y-135390560D01*
X171338071Y-135254315D01*
X171278907Y-135118145D01*
X171221887Y-134986140D01*
X171168787Y-134862385D01*
X171121382Y-134750969D01*
X171081448Y-134655980D01*
X171050760Y-134581505D01*
X171031094Y-134531631D01*
X171024225Y-134510446D01*
X171024300Y-134510079D01*
X171050329Y-134494594D01*
X171104686Y-134478846D01*
X171179442Y-134464123D01*
X171266675Y-134451712D01*
X171358456Y-134442899D01*
X171446861Y-134438974D01*
X171462653Y-134438886D01*
X171462653Y-134133609D01*
X171400944Y-134134673D01*
X171391368Y-134135016D01*
X171161914Y-134155045D01*
X170955014Y-134198987D01*
X170763979Y-134269269D01*
X170695202Y-134306729D01*
X170695202Y-134674630D01*
X170711931Y-134690166D01*
X170736615Y-134730722D01*
X170763932Y-134787544D01*
X170764139Y-134788022D01*
X170791798Y-134851491D01*
X170828991Y-134936129D01*
X170870452Y-135029976D01*
X170903920Y-135105374D01*
X170994776Y-135309534D01*
X170922787Y-135346260D01*
X170834738Y-135411479D01*
X170764984Y-135507788D01*
X170713778Y-135634796D01*
X170698355Y-135694964D01*
X170690755Y-135721079D01*
X170676700Y-135735997D01*
X170647547Y-135742850D01*
X170594657Y-135744769D01*
X170560654Y-135744857D01*
X170434000Y-135744857D01*
X170434000Y-135944428D01*
X170686356Y-135944428D01*
X170697508Y-136012464D01*
X170716662Y-136095114D01*
X170746024Y-136183444D01*
X170780534Y-136264314D01*
X170815133Y-136324584D01*
X170820297Y-136331385D01*
X170860357Y-136381383D01*
X171076463Y-136162621D01*
X171034717Y-136076696D01*
X171000182Y-135984013D01*
X170984011Y-135891475D01*
X170985488Y-135805922D01*
X171003896Y-135734195D01*
X171038519Y-135683134D01*
X171078204Y-135661560D01*
X171119064Y-135657920D01*
X171141973Y-135665450D01*
X171152779Y-135685220D01*
X171176267Y-135734075D01*
X171210610Y-135807903D01*
X171253976Y-135902596D01*
X171304538Y-136014046D01*
X171360464Y-136138142D01*
X171419927Y-136270775D01*
X171481096Y-136407837D01*
X171542142Y-136545218D01*
X171601236Y-136678809D01*
X171656547Y-136804501D01*
X171706248Y-136918184D01*
X171748508Y-137015750D01*
X171781498Y-137093089D01*
X171803388Y-137146091D01*
X171812349Y-137170649D01*
X171812469Y-137171492D01*
X171797183Y-137189742D01*
X171762964Y-137202829D01*
X171600735Y-137225011D01*
X171422093Y-137227527D01*
X171240588Y-137211174D01*
X171069770Y-137176753D01*
X171008069Y-137158303D01*
X170835202Y-137083341D01*
X170667790Y-136977572D01*
X170511628Y-136846473D01*
X170372512Y-136695522D01*
X170256238Y-136530195D01*
X170174693Y-136370748D01*
X170108972Y-136168792D01*
X170075900Y-135957543D01*
X170075022Y-135742563D01*
X170105881Y-135529415D01*
X170168022Y-135323661D01*
X170260989Y-135130866D01*
X170278688Y-135101601D01*
X170317976Y-135045957D01*
X170371620Y-134979994D01*
X170434270Y-134909194D01*
X170500576Y-134839044D01*
X170565187Y-134775028D01*
X170622754Y-134722631D01*
X170667925Y-134687338D01*
X170695202Y-134674630D01*
X170695202Y-134306729D01*
X170582123Y-134368319D01*
X170413302Y-134490043D01*
X170252592Y-134636739D01*
X170108384Y-134803283D01*
X169985939Y-134982318D01*
X169890517Y-135166489D01*
X169846319Y-135282846D01*
X169789936Y-135512949D01*
X169765410Y-135750329D01*
X169772048Y-135989497D01*
X169772048Y-135989497D01*
G37*
X169772048Y-135989497D02*
X169809157Y-136224964D01*
X169876043Y-136451241D01*
X169972012Y-136662838D01*
X170033755Y-136766126D01*
X170184803Y-136965099D01*
X170359231Y-137137477D01*
X170554674Y-137281565D01*
X170768767Y-137395670D01*
X170999145Y-137478097D01*
X171044017Y-137489902D01*
X171187181Y-137515828D01*
X171351654Y-137529851D01*
X171524642Y-137531966D01*
X171693350Y-137522170D01*
X171844984Y-137500455D01*
X171890896Y-137490228D01*
X172111014Y-137420023D01*
X172311150Y-137322718D01*
X172496302Y-137195384D01*
X172671468Y-137035096D01*
X172675952Y-137030444D01*
X172821149Y-136864178D01*
X172936251Y-136696865D01*
X173026649Y-136519883D01*
X173076876Y-136389276D01*
X173137526Y-136160011D01*
X173167256Y-135922941D01*
X173165379Y-135686738D01*
X173145000Y-135527143D01*
X173086381Y-135301831D01*
X172995550Y-135085807D01*
X172875774Y-134882824D01*
X172730321Y-134696631D01*
X172562458Y-134530980D01*
X172375453Y-134389622D01*
X172172574Y-134276308D01*
X171994286Y-134206183D01*
X171879110Y-134172458D01*
X171773330Y-134149760D01*
X171665805Y-134136773D01*
X171545390Y-134132183D01*
X171462653Y-134133609D01*
X171462653Y-134438886D01*
X171639028Y-134447432D01*
X171795411Y-134474328D01*
X171944643Y-134522478D01*
X172057786Y-134573379D01*
X172256105Y-134690747D01*
X172427745Y-134832631D01*
X172573399Y-134999726D01*
X172693761Y-135192726D01*
X172712654Y-135229985D01*
X172763919Y-135341604D01*
X172800444Y-135441625D01*
X172824190Y-135540093D01*
X172837115Y-135647052D01*
X172841182Y-135772548D01*
X172839701Y-135880928D01*
X172835462Y-135996783D01*
X172828873Y-136085421D01*
X172818794Y-136155889D01*
X172804087Y-136217236D01*
X172792897Y-136252465D01*
X172728043Y-136417452D01*
X172651601Y-136560614D01*
X172556262Y-136693674D01*
X172434717Y-136828352D01*
X172432105Y-136831005D01*
X172350668Y-136909337D01*
X172276668Y-136972461D01*
X172214215Y-137017432D01*
X172167421Y-137041307D01*
X172140396Y-137041142D01*
X172139619Y-137040431D01*
X172127732Y-137019710D01*
X172104544Y-136972457D01*
X172073012Y-136905282D01*
X172036097Y-136824792D01*
X171996758Y-136737595D01*
X171957955Y-136650300D01*
X171922646Y-136569516D01*
X171893792Y-136501849D01*
X171874352Y-136453909D01*
X171867286Y-136432347D01*
X171882531Y-136418463D01*
X171919726Y-136401458D01*
X171924635Y-136399700D01*
X172023238Y-136346869D01*
X172108617Y-136264408D01*
X172176175Y-136157931D01*
X172219775Y-136039208D01*
X172241694Y-135953500D01*
X172367454Y-135951376D01*
X172493214Y-135949253D01*
X172493214Y-135753928D01*
X172234660Y-135743358D01*
X172222589Y-135636666D01*
X172201440Y-135541675D01*
X172161814Y-135436910D01*
X172110683Y-135338461D01*
X172065597Y-135274366D01*
X172028461Y-135230231D01*
X171907841Y-135350851D01*
X171787222Y-135471471D01*
X171826367Y-135513140D01*
X171876820Y-135584844D01*
X171914262Y-135673433D01*
X171937079Y-135769297D01*
X171943657Y-135862826D01*
X171932382Y-135944408D01*
X171907629Y-135997083D01*
X171879061Y-136026772D01*
X171842767Y-136040706D01*
X171784737Y-136044214D01*
X171783720Y-136044214D01*
X171729130Y-136042109D01*
X171697513Y-136031140D01*
X171675605Y-136004323D01*
X171663102Y-135980714D01*
X171638646Y-135929855D01*
X171603905Y-135854545D01*
X171560654Y-135758873D01*
X171510670Y-135646926D01*
X171455728Y-135522793D01*
X171397603Y-135390560D01*
X171338071Y-135254315D01*
X171278907Y-135118145D01*
X171221887Y-134986140D01*
X171168787Y-134862385D01*
X171121382Y-134750969D01*
X171081448Y-134655980D01*
X171050760Y-134581505D01*
X171031094Y-134531631D01*
X171024225Y-134510446D01*
X171024300Y-134510079D01*
X171050329Y-134494594D01*
X171104686Y-134478846D01*
X171179442Y-134464123D01*
X171266675Y-134451712D01*
X171358456Y-134442899D01*
X171446861Y-134438974D01*
X171462653Y-134438886D01*
X171462653Y-134133609D01*
X171400944Y-134134673D01*
X171391368Y-134135016D01*
X171161914Y-134155045D01*
X170955014Y-134198987D01*
X170763979Y-134269269D01*
X170695202Y-134306729D01*
X170695202Y-134674630D01*
X170711931Y-134690166D01*
X170736615Y-134730722D01*
X170763932Y-134787544D01*
X170764139Y-134788022D01*
X170791798Y-134851491D01*
X170828991Y-134936129D01*
X170870452Y-135029976D01*
X170903920Y-135105374D01*
X170994776Y-135309534D01*
X170922787Y-135346260D01*
X170834738Y-135411479D01*
X170764984Y-135507788D01*
X170713778Y-135634796D01*
X170698355Y-135694964D01*
X170690755Y-135721079D01*
X170676700Y-135735997D01*
X170647547Y-135742850D01*
X170594657Y-135744769D01*
X170560654Y-135744857D01*
X170434000Y-135744857D01*
X170434000Y-135944428D01*
X170686356Y-135944428D01*
X170697508Y-136012464D01*
X170716662Y-136095114D01*
X170746024Y-136183444D01*
X170780534Y-136264314D01*
X170815133Y-136324584D01*
X170820297Y-136331385D01*
X170860357Y-136381383D01*
X171076463Y-136162621D01*
X171034717Y-136076696D01*
X171000182Y-135984013D01*
X170984011Y-135891475D01*
X170985488Y-135805922D01*
X171003896Y-135734195D01*
X171038519Y-135683134D01*
X171078204Y-135661560D01*
X171119064Y-135657920D01*
X171141973Y-135665450D01*
X171152779Y-135685220D01*
X171176267Y-135734075D01*
X171210610Y-135807903D01*
X171253976Y-135902596D01*
X171304538Y-136014046D01*
X171360464Y-136138142D01*
X171419927Y-136270775D01*
X171481096Y-136407837D01*
X171542142Y-136545218D01*
X171601236Y-136678809D01*
X171656547Y-136804501D01*
X171706248Y-136918184D01*
X171748508Y-137015750D01*
X171781498Y-137093089D01*
X171803388Y-137146091D01*
X171812349Y-137170649D01*
X171812469Y-137171492D01*
X171797183Y-137189742D01*
X171762964Y-137202829D01*
X171600735Y-137225011D01*
X171422093Y-137227527D01*
X171240588Y-137211174D01*
X171069770Y-137176753D01*
X171008069Y-137158303D01*
X170835202Y-137083341D01*
X170667790Y-136977572D01*
X170511628Y-136846473D01*
X170372512Y-136695522D01*
X170256238Y-136530195D01*
X170174693Y-136370748D01*
X170108972Y-136168792D01*
X170075900Y-135957543D01*
X170075022Y-135742563D01*
X170105881Y-135529415D01*
X170168022Y-135323661D01*
X170260989Y-135130866D01*
X170278688Y-135101601D01*
X170317976Y-135045957D01*
X170371620Y-134979994D01*
X170434270Y-134909194D01*
X170500576Y-134839044D01*
X170565187Y-134775028D01*
X170622754Y-134722631D01*
X170667925Y-134687338D01*
X170695202Y-134674630D01*
X170695202Y-134306729D01*
X170582123Y-134368319D01*
X170413302Y-134490043D01*
X170252592Y-134636739D01*
X170108384Y-134803283D01*
X169985939Y-134982318D01*
X169890517Y-135166489D01*
X169846319Y-135282846D01*
X169789936Y-135512949D01*
X169765410Y-135750329D01*
X169772048Y-135989497D01*
G36*
X169772065Y-139655842D02*
X169811510Y-139900989D01*
X169848091Y-140035643D01*
X169935062Y-140254262D01*
X170054316Y-140459607D01*
X170203223Y-140648296D01*
X170379156Y-140816945D01*
X170557007Y-140947883D01*
X170758405Y-141056921D01*
X170975126Y-141135769D01*
X171202417Y-141184461D01*
X171435521Y-141203029D01*
X171669682Y-141191508D01*
X171900144Y-141149931D01*
X172122153Y-141078330D01*
X172330951Y-140976740D01*
X172398698Y-140934976D01*
X172579568Y-140796165D01*
X172743309Y-140629386D01*
X172885725Y-140440571D01*
X173002615Y-140235655D01*
X173089782Y-140020573D01*
X173119753Y-139915782D01*
X173150578Y-139748154D01*
X173165724Y-139566777D01*
X173164879Y-139385261D01*
X173147733Y-139217217D01*
X173137012Y-139160340D01*
X173071211Y-138926487D01*
X172979022Y-138714088D01*
X172857644Y-138518181D01*
X172704278Y-138333806D01*
X172626054Y-138255165D01*
X172435678Y-138096735D01*
X172230431Y-137971368D01*
X172010879Y-137879291D01*
X171777589Y-137820730D01*
X171531130Y-137795911D01*
X171472240Y-137795000D01*
X171457953Y-137795835D01*
X171457953Y-138106254D01*
X171596854Y-138109758D01*
X171720671Y-138123720D01*
X171751355Y-138129659D01*
X171954650Y-138191645D01*
X172145355Y-138284913D01*
X172320200Y-138405897D01*
X172475918Y-138551033D01*
X172609241Y-138716755D01*
X172716900Y-138899498D01*
X172795626Y-139095698D01*
X172842153Y-139301789D01*
X172844872Y-139322499D01*
X172853679Y-139480350D01*
X172845219Y-139649778D01*
X172820751Y-139811203D01*
X172810751Y-139854071D01*
X172745399Y-140041878D01*
X172648982Y-140224622D01*
X172526679Y-140395435D01*
X172383665Y-140547449D01*
X172225117Y-140673794D01*
X172163739Y-140712552D01*
X171983659Y-140798562D01*
X171785649Y-140857816D01*
X171577345Y-140889311D01*
X171366381Y-140892043D01*
X171160390Y-140865007D01*
X171104256Y-140851866D01*
X170914423Y-140784893D01*
X170732592Y-140686334D01*
X170564402Y-140560816D01*
X170415493Y-140412960D01*
X170291504Y-140247392D01*
X170226973Y-140132519D01*
X170167244Y-140002285D01*
X170125740Y-139887460D01*
X170099564Y-139775443D01*
X170085817Y-139653632D01*
X170081600Y-139509424D01*
X170081587Y-139500428D01*
X170088808Y-139323795D01*
X170112423Y-139169248D01*
X170155180Y-139025251D01*
X170219827Y-138880269D01*
X170237158Y-138847285D01*
X170353579Y-138667817D01*
X170498706Y-138505049D01*
X170667062Y-138363505D01*
X170853172Y-138247708D01*
X171051559Y-138162180D01*
X171076562Y-138153965D01*
X171185226Y-138128811D01*
X171316551Y-138112756D01*
X171457953Y-138106254D01*
X171457953Y-137795835D01*
X171227568Y-137809302D01*
X171001369Y-137853255D01*
X170789134Y-137928430D01*
X170586355Y-138036396D01*
X170402196Y-138167697D01*
X170221335Y-138334783D01*
X170069266Y-138522058D01*
X169946881Y-138726512D01*
X169855075Y-138945129D01*
X169794741Y-139174899D01*
X169766773Y-139412807D01*
X169772065Y-139655842D01*
X169772065Y-139655842D01*
G37*
X169772065Y-139655842D02*
X169811510Y-139900989D01*
X169848091Y-140035643D01*
X169935062Y-140254262D01*
X170054316Y-140459607D01*
X170203223Y-140648296D01*
X170379156Y-140816945D01*
X170557007Y-140947883D01*
X170758405Y-141056921D01*
X170975126Y-141135769D01*
X171202417Y-141184461D01*
X171435521Y-141203029D01*
X171669682Y-141191508D01*
X171900144Y-141149931D01*
X172122153Y-141078330D01*
X172330951Y-140976740D01*
X172398698Y-140934976D01*
X172579568Y-140796165D01*
X172743309Y-140629386D01*
X172885725Y-140440571D01*
X173002615Y-140235655D01*
X173089782Y-140020573D01*
X173119753Y-139915782D01*
X173150578Y-139748154D01*
X173165724Y-139566777D01*
X173164879Y-139385261D01*
X173147733Y-139217217D01*
X173137012Y-139160340D01*
X173071211Y-138926487D01*
X172979022Y-138714088D01*
X172857644Y-138518181D01*
X172704278Y-138333806D01*
X172626054Y-138255165D01*
X172435678Y-138096735D01*
X172230431Y-137971368D01*
X172010879Y-137879291D01*
X171777589Y-137820730D01*
X171531130Y-137795911D01*
X171472240Y-137795000D01*
X171457953Y-137795835D01*
X171457953Y-138106254D01*
X171596854Y-138109758D01*
X171720671Y-138123720D01*
X171751355Y-138129659D01*
X171954650Y-138191645D01*
X172145355Y-138284913D01*
X172320200Y-138405897D01*
X172475918Y-138551033D01*
X172609241Y-138716755D01*
X172716900Y-138899498D01*
X172795626Y-139095698D01*
X172842153Y-139301789D01*
X172844872Y-139322499D01*
X172853679Y-139480350D01*
X172845219Y-139649778D01*
X172820751Y-139811203D01*
X172810751Y-139854071D01*
X172745399Y-140041878D01*
X172648982Y-140224622D01*
X172526679Y-140395435D01*
X172383665Y-140547449D01*
X172225117Y-140673794D01*
X172163739Y-140712552D01*
X171983659Y-140798562D01*
X171785649Y-140857816D01*
X171577345Y-140889311D01*
X171366381Y-140892043D01*
X171160390Y-140865007D01*
X171104256Y-140851866D01*
X170914423Y-140784893D01*
X170732592Y-140686334D01*
X170564402Y-140560816D01*
X170415493Y-140412960D01*
X170291504Y-140247392D01*
X170226973Y-140132519D01*
X170167244Y-140002285D01*
X170125740Y-139887460D01*
X170099564Y-139775443D01*
X170085817Y-139653632D01*
X170081600Y-139509424D01*
X170081587Y-139500428D01*
X170088808Y-139323795D01*
X170112423Y-139169248D01*
X170155180Y-139025251D01*
X170219827Y-138880269D01*
X170237158Y-138847285D01*
X170353579Y-138667817D01*
X170498706Y-138505049D01*
X170667062Y-138363505D01*
X170853172Y-138247708D01*
X171051559Y-138162180D01*
X171076562Y-138153965D01*
X171185226Y-138128811D01*
X171316551Y-138112756D01*
X171457953Y-138106254D01*
X171457953Y-137795835D01*
X171227568Y-137809302D01*
X171001369Y-137853255D01*
X170789134Y-137928430D01*
X170586355Y-138036396D01*
X170402196Y-138167697D01*
X170221335Y-138334783D01*
X170069266Y-138522058D01*
X169946881Y-138726512D01*
X169855075Y-138945129D01*
X169794741Y-139174899D01*
X169766773Y-139412807D01*
X169772065Y-139655842D01*
G36*
X170949561Y-128141047D02*
X170967161Y-128227554D01*
X170969965Y-128235969D01*
X170994033Y-128284465D01*
X171031797Y-128340169D01*
X171076057Y-128394592D01*
X171119610Y-128439249D01*
X171155254Y-128465652D01*
X171168027Y-128469356D01*
X171185674Y-128454480D01*
X171213724Y-128415699D01*
X171245912Y-128361748D01*
X171304896Y-128254355D01*
X171250903Y-128215909D01*
X171195917Y-128156165D01*
X171169761Y-128081000D01*
X171175180Y-128000219D01*
X171183639Y-127975717D01*
X171221686Y-127912912D01*
X171277723Y-127871199D01*
X171358057Y-127846940D01*
X171420165Y-127839280D01*
X171536167Y-127839892D01*
X171627082Y-127863393D01*
X171696926Y-127910999D01*
X171712478Y-127927889D01*
X171748108Y-127993378D01*
X171759361Y-128068087D01*
X171747538Y-128141416D01*
X171713942Y-128202766D01*
X171674782Y-128234787D01*
X171644672Y-128256276D01*
X171634365Y-128283113D01*
X171644242Y-128322882D01*
X171674686Y-128383167D01*
X171683015Y-128397896D01*
X171734602Y-128488220D01*
X171819845Y-128413186D01*
X171902843Y-128326029D01*
X171955228Y-128233586D01*
X171981957Y-128125438D01*
X171987288Y-128061357D01*
X171988034Y-127988195D01*
X171984665Y-127921956D01*
X171978499Y-127879928D01*
X171931018Y-127766771D01*
X171854686Y-127668817D01*
X171756046Y-127593283D01*
X171690452Y-127562312D01*
X171567926Y-127532620D01*
X171433503Y-127526947D01*
X171302453Y-127545252D01*
X171242805Y-127563445D01*
X171153958Y-127611103D01*
X171071320Y-127681069D01*
X171004638Y-127763395D01*
X170963659Y-127848133D01*
X170963568Y-127848436D01*
X170947494Y-127935149D01*
X170942915Y-128038132D01*
X170949561Y-128141047D01*
X170949561Y-128141047D01*
G37*
X170949561Y-128141047D02*
X170967161Y-128227554D01*
X170969965Y-128235969D01*
X170994033Y-128284465D01*
X171031797Y-128340169D01*
X171076057Y-128394592D01*
X171119610Y-128439249D01*
X171155254Y-128465652D01*
X171168027Y-128469356D01*
X171185674Y-128454480D01*
X171213724Y-128415699D01*
X171245912Y-128361748D01*
X171304896Y-128254355D01*
X171250903Y-128215909D01*
X171195917Y-128156165D01*
X171169761Y-128081000D01*
X171175180Y-128000219D01*
X171183639Y-127975717D01*
X171221686Y-127912912D01*
X171277723Y-127871199D01*
X171358057Y-127846940D01*
X171420165Y-127839280D01*
X171536167Y-127839892D01*
X171627082Y-127863393D01*
X171696926Y-127910999D01*
X171712478Y-127927889D01*
X171748108Y-127993378D01*
X171759361Y-128068087D01*
X171747538Y-128141416D01*
X171713942Y-128202766D01*
X171674782Y-128234787D01*
X171644672Y-128256276D01*
X171634365Y-128283113D01*
X171644242Y-128322882D01*
X171674686Y-128383167D01*
X171683015Y-128397896D01*
X171734602Y-128488220D01*
X171819845Y-128413186D01*
X171902843Y-128326029D01*
X171955228Y-128233586D01*
X171981957Y-128125438D01*
X171987288Y-128061357D01*
X171988034Y-127988195D01*
X171984665Y-127921956D01*
X171978499Y-127879928D01*
X171931018Y-127766771D01*
X171854686Y-127668817D01*
X171756046Y-127593283D01*
X171690452Y-127562312D01*
X171567926Y-127532620D01*
X171433503Y-127526947D01*
X171302453Y-127545252D01*
X171242805Y-127563445D01*
X171153958Y-127611103D01*
X171071320Y-127681069D01*
X171004638Y-127763395D01*
X170963659Y-127848133D01*
X170963568Y-127848436D01*
X170947494Y-127935149D01*
X170942915Y-128038132D01*
X170949561Y-128141047D01*
G36*
X170944204Y-129059862D02*
X170958754Y-129166450D01*
X170986007Y-129258076D01*
X171002349Y-129291331D01*
X171040177Y-129345885D01*
X171084834Y-129396012D01*
X171128907Y-129434919D01*
X171164981Y-129455816D01*
X171181937Y-129455835D01*
X171197341Y-129435869D01*
X171222670Y-129392999D01*
X171248770Y-129343642D01*
X171300729Y-129240643D01*
X171256347Y-129207224D01*
X171217634Y-129167186D01*
X171184273Y-129115664D01*
X171182779Y-129112603D01*
X171165370Y-129037501D01*
X171178713Y-128961906D01*
X171219468Y-128897134D01*
X171254756Y-128868735D01*
X171342561Y-128832796D01*
X171442552Y-128819409D01*
X171543932Y-128827706D01*
X171635902Y-128856818D01*
X171706867Y-128905075D01*
X171738969Y-128943600D01*
X171754281Y-128985032D01*
X171758413Y-129045267D01*
X171758429Y-129051140D01*
X171755564Y-129110973D01*
X171742248Y-129151487D01*
X171711400Y-129189494D01*
X171692382Y-129207934D01*
X171626335Y-129270224D01*
X171668826Y-129360946D01*
X171694896Y-129412810D01*
X171716765Y-129449732D01*
X171726124Y-129460817D01*
X171751789Y-129457219D01*
X171791255Y-129430568D01*
X171837528Y-129387547D01*
X171883616Y-129334839D01*
X171922524Y-129279128D01*
X171930114Y-129265874D01*
X171970178Y-129160954D01*
X171989238Y-129040212D01*
X171986033Y-128918270D01*
X171967493Y-128832428D01*
X171913284Y-128722460D01*
X171828930Y-128631355D01*
X171727249Y-128566622D01*
X171668917Y-128540730D01*
X171615976Y-128525455D01*
X171554803Y-128518166D01*
X171471776Y-128516228D01*
X171466534Y-128516224D01*
X171383801Y-128517745D01*
X171323821Y-128524148D01*
X171273127Y-128538194D01*
X171218247Y-128562646D01*
X171203301Y-128570193D01*
X171099219Y-128640604D01*
X171017783Y-128731132D01*
X170965076Y-128834677D01*
X170958640Y-128855870D01*
X170943714Y-128951830D01*
X170944204Y-129059862D01*
X170944204Y-129059862D01*
G37*
X170944204Y-129059862D02*
X170958754Y-129166450D01*
X170986007Y-129258076D01*
X171002349Y-129291331D01*
X171040177Y-129345885D01*
X171084834Y-129396012D01*
X171128907Y-129434919D01*
X171164981Y-129455816D01*
X171181937Y-129455835D01*
X171197341Y-129435869D01*
X171222670Y-129392999D01*
X171248770Y-129343642D01*
X171300729Y-129240643D01*
X171256347Y-129207224D01*
X171217634Y-129167186D01*
X171184273Y-129115664D01*
X171182779Y-129112603D01*
X171165370Y-129037501D01*
X171178713Y-128961906D01*
X171219468Y-128897134D01*
X171254756Y-128868735D01*
X171342561Y-128832796D01*
X171442552Y-128819409D01*
X171543932Y-128827706D01*
X171635902Y-128856818D01*
X171706867Y-128905075D01*
X171738969Y-128943600D01*
X171754281Y-128985032D01*
X171758413Y-129045267D01*
X171758429Y-129051140D01*
X171755564Y-129110973D01*
X171742248Y-129151487D01*
X171711400Y-129189494D01*
X171692382Y-129207934D01*
X171626335Y-129270224D01*
X171668826Y-129360946D01*
X171694896Y-129412810D01*
X171716765Y-129449732D01*
X171726124Y-129460817D01*
X171751789Y-129457219D01*
X171791255Y-129430568D01*
X171837528Y-129387547D01*
X171883616Y-129334839D01*
X171922524Y-129279128D01*
X171930114Y-129265874D01*
X171970178Y-129160954D01*
X171989238Y-129040212D01*
X171986033Y-128918270D01*
X171967493Y-128832428D01*
X171913284Y-128722460D01*
X171828930Y-128631355D01*
X171727249Y-128566622D01*
X171668917Y-128540730D01*
X171615976Y-128525455D01*
X171554803Y-128518166D01*
X171471776Y-128516228D01*
X171466534Y-128516224D01*
X171383801Y-128517745D01*
X171323821Y-128524148D01*
X171273127Y-128538194D01*
X171218247Y-128562646D01*
X171203301Y-128570193D01*
X171099219Y-128640604D01*
X171017783Y-128731132D01*
X170965076Y-128834677D01*
X170958640Y-128855870D01*
X170943714Y-128951830D01*
X170944204Y-129059862D01*
G36*
X170942335Y-132300225D02*
X170943542Y-132402439D01*
X170945925Y-132477533D01*
X170949789Y-132530089D01*
X170955437Y-132564685D01*
X170963174Y-132585904D01*
X170970510Y-132595775D01*
X170985294Y-132605627D01*
X171010400Y-132612980D01*
X171050604Y-132618174D01*
X171110681Y-132621551D01*
X171195407Y-132623453D01*
X171309559Y-132624220D01*
X171369653Y-132624285D01*
X171740286Y-132624285D01*
X171740286Y-132424714D01*
X172574857Y-132424714D01*
X172574857Y-131898571D01*
X171740286Y-131898571D01*
X171740286Y-131699000D01*
X171371169Y-131699000D01*
X171245306Y-131699259D01*
X171150727Y-131700312D01*
X171082434Y-131702577D01*
X171035429Y-131706467D01*
X171004711Y-131712398D01*
X170985283Y-131720787D01*
X170972144Y-131732048D01*
X170972026Y-131732178D01*
X170962071Y-131747241D01*
X170954549Y-131770646D01*
X170949132Y-131807110D01*
X170945495Y-131861348D01*
X170943312Y-131938079D01*
X170942256Y-132042017D01*
X170942000Y-132166311D01*
X170942335Y-132300225D01*
X170942335Y-132300225D01*
G37*
X170942335Y-132300225D02*
X170943542Y-132402439D01*
X170945925Y-132477533D01*
X170949789Y-132530089D01*
X170955437Y-132564685D01*
X170963174Y-132585904D01*
X170970510Y-132595775D01*
X170985294Y-132605627D01*
X171010400Y-132612980D01*
X171050604Y-132618174D01*
X171110681Y-132621551D01*
X171195407Y-132623453D01*
X171309559Y-132624220D01*
X171369653Y-132624285D01*
X171740286Y-132624285D01*
X171740286Y-132424714D01*
X172574857Y-132424714D01*
X172574857Y-131898571D01*
X171740286Y-131898571D01*
X171740286Y-131699000D01*
X171371169Y-131699000D01*
X171245306Y-131699259D01*
X171150727Y-131700312D01*
X171082434Y-131702577D01*
X171035429Y-131706467D01*
X171004711Y-131712398D01*
X170985283Y-131720787D01*
X170972144Y-131732048D01*
X170972026Y-131732178D01*
X170962071Y-131747241D01*
X170954549Y-131770646D01*
X170949132Y-131807110D01*
X170945495Y-131861348D01*
X170943312Y-131938079D01*
X170942256Y-132042017D01*
X170942000Y-132166311D01*
X170942335Y-132300225D01*
G36*
X170368794Y-132226171D02*
X170398599Y-132303934D01*
X170426972Y-132340167D01*
X170492539Y-132382515D01*
X170573013Y-132401080D01*
X170657491Y-132396575D01*
X170735067Y-132369713D01*
X170794836Y-132321206D01*
X170798939Y-132315845D01*
X170829028Y-132250544D01*
X170842477Y-132168737D01*
X170837044Y-132087226D01*
X170832075Y-132067534D01*
X170799222Y-132001664D01*
X170745437Y-131959404D01*
X170666536Y-131938336D01*
X170602515Y-131934857D01*
X170535692Y-131936675D01*
X170492382Y-131944724D01*
X170459889Y-131962899D01*
X170433939Y-131986556D01*
X170386675Y-132056721D01*
X170364890Y-132140179D01*
X170368794Y-132226171D01*
X170368794Y-132226171D01*
G37*
X170368794Y-132226171D02*
X170398599Y-132303934D01*
X170426972Y-132340167D01*
X170492539Y-132382515D01*
X170573013Y-132401080D01*
X170657491Y-132396575D01*
X170735067Y-132369713D01*
X170794836Y-132321206D01*
X170798939Y-132315845D01*
X170829028Y-132250544D01*
X170842477Y-132168737D01*
X170837044Y-132087226D01*
X170832075Y-132067534D01*
X170799222Y-132001664D01*
X170745437Y-131959404D01*
X170666536Y-131938336D01*
X170602515Y-131934857D01*
X170535692Y-131936675D01*
X170492382Y-131944724D01*
X170459889Y-131962899D01*
X170433939Y-131986556D01*
X170386675Y-132056721D01*
X170364890Y-132140179D01*
X170368794Y-132226171D01*
G36*
X170580908Y-139616663D02*
X170600343Y-139741036D01*
X170614392Y-139793844D01*
X170679606Y-139943363D01*
X170774163Y-140074457D01*
X170894748Y-140184517D01*
X171038048Y-140270937D01*
X171200749Y-140331109D01*
X171330132Y-140356997D01*
X171524657Y-140367633D01*
X171707556Y-140346671D01*
X171875875Y-140294830D01*
X172026658Y-140212827D01*
X172076424Y-140175782D01*
X172202147Y-140052105D01*
X172298440Y-139908981D01*
X172363961Y-139749940D01*
X172397365Y-139578512D01*
X172397307Y-139398228D01*
X172391412Y-139348715D01*
X172351754Y-139195463D01*
X172281164Y-139057160D01*
X172183294Y-138937761D01*
X172061792Y-138841223D01*
X171920308Y-138771504D01*
X171835536Y-138746080D01*
X171740286Y-138723558D01*
X171740286Y-139151406D01*
X171819810Y-139171431D01*
X171896170Y-139206372D01*
X171964618Y-139265267D01*
X172013550Y-139336973D01*
X172025773Y-139369225D01*
X172033324Y-139414607D01*
X172038232Y-139479601D01*
X172039337Y-139529430D01*
X172024945Y-139638061D01*
X171980985Y-139728656D01*
X171905288Y-139804732D01*
X171845772Y-139843714D01*
X171735879Y-139891243D01*
X171611405Y-139919892D01*
X171479910Y-139930233D01*
X171348952Y-139922837D01*
X171226091Y-139898276D01*
X171118885Y-139857121D01*
X171034895Y-139799946D01*
X171016429Y-139780987D01*
X170960796Y-139691483D01*
X170931851Y-139585325D01*
X170930474Y-139471370D01*
X170957548Y-139358472D01*
X170971194Y-139326462D01*
X171014748Y-139265718D01*
X171078185Y-139212647D01*
X171147629Y-139177726D01*
X171177479Y-139170680D01*
X171211802Y-139173127D01*
X171228275Y-139199096D01*
X171231908Y-139215231D01*
X171236749Y-139234984D01*
X171245016Y-139243418D01*
X171261068Y-139237666D01*
X171289262Y-139214859D01*
X171333959Y-139172131D01*
X171399516Y-139106614D01*
X171404265Y-139101838D01*
X171567172Y-138938000D01*
X171404265Y-138774120D01*
X171241357Y-138610239D01*
X171232286Y-138669798D01*
X171222169Y-138708150D01*
X171199703Y-138731464D01*
X171154267Y-138749522D01*
X171141571Y-138753339D01*
X170974692Y-138816988D01*
X170837130Y-138901613D01*
X170728090Y-139007946D01*
X170646777Y-139136719D01*
X170603555Y-139248314D01*
X170582237Y-139356321D01*
X170574781Y-139483764D01*
X170580908Y-139616663D01*
X170580908Y-139616663D01*
G37*
X170580908Y-139616663D02*
X170600343Y-139741036D01*
X170614392Y-139793844D01*
X170679606Y-139943363D01*
X170774163Y-140074457D01*
X170894748Y-140184517D01*
X171038048Y-140270937D01*
X171200749Y-140331109D01*
X171330132Y-140356997D01*
X171524657Y-140367633D01*
X171707556Y-140346671D01*
X171875875Y-140294830D01*
X172026658Y-140212827D01*
X172076424Y-140175782D01*
X172202147Y-140052105D01*
X172298440Y-139908981D01*
X172363961Y-139749940D01*
X172397365Y-139578512D01*
X172397307Y-139398228D01*
X172391412Y-139348715D01*
X172351754Y-139195463D01*
X172281164Y-139057160D01*
X172183294Y-138937761D01*
X172061792Y-138841223D01*
X171920308Y-138771504D01*
X171835536Y-138746080D01*
X171740286Y-138723558D01*
X171740286Y-139151406D01*
X171819810Y-139171431D01*
X171896170Y-139206372D01*
X171964618Y-139265267D01*
X172013550Y-139336973D01*
X172025773Y-139369225D01*
X172033324Y-139414607D01*
X172038232Y-139479601D01*
X172039337Y-139529430D01*
X172024945Y-139638061D01*
X171980985Y-139728656D01*
X171905288Y-139804732D01*
X171845772Y-139843714D01*
X171735879Y-139891243D01*
X171611405Y-139919892D01*
X171479910Y-139930233D01*
X171348952Y-139922837D01*
X171226091Y-139898276D01*
X171118885Y-139857121D01*
X171034895Y-139799946D01*
X171016429Y-139780987D01*
X170960796Y-139691483D01*
X170931851Y-139585325D01*
X170930474Y-139471370D01*
X170957548Y-139358472D01*
X170971194Y-139326462D01*
X171014748Y-139265718D01*
X171078185Y-139212647D01*
X171147629Y-139177726D01*
X171177479Y-139170680D01*
X171211802Y-139173127D01*
X171228275Y-139199096D01*
X171231908Y-139215231D01*
X171236749Y-139234984D01*
X171245016Y-139243418D01*
X171261068Y-139237666D01*
X171289262Y-139214859D01*
X171333959Y-139172131D01*
X171399516Y-139106614D01*
X171404265Y-139101838D01*
X171567172Y-138938000D01*
X171404265Y-138774120D01*
X171241357Y-138610239D01*
X171232286Y-138669798D01*
X171222169Y-138708150D01*
X171199703Y-138731464D01*
X171154267Y-138749522D01*
X171141571Y-138753339D01*
X170974692Y-138816988D01*
X170837130Y-138901613D01*
X170728090Y-139007946D01*
X170646777Y-139136719D01*
X170603555Y-139248314D01*
X170582237Y-139356321D01*
X170574781Y-139483764D01*
X170580908Y-139616663D01*
D14*
X110188333Y-150457381D02*
X110188333Y-151171667D01*
X110235953Y-151314524D01*
X110331191Y-151409762D01*
X110474048Y-151457381D01*
X110569286Y-151457381D01*
X109569286Y-150885952D02*
X109664524Y-150838333D01*
X109712143Y-150790714D01*
X109759762Y-150695476D01*
X109759762Y-150647857D01*
X109712143Y-150552619D01*
X109664524Y-150505000D01*
X109569286Y-150457381D01*
X109378809Y-150457381D01*
X109283571Y-150505000D01*
X109235952Y-150552619D01*
X109188333Y-150647857D01*
X109188333Y-150695476D01*
X109235952Y-150790714D01*
X109283571Y-150838333D01*
X109378809Y-150885952D01*
X109569286Y-150885952D01*
X109664524Y-150933571D01*
X109712143Y-150981190D01*
X109759762Y-151076429D01*
X109759762Y-151266905D01*
X109712143Y-151362143D01*
X109664524Y-151409762D01*
X109569286Y-151457381D01*
X109378809Y-151457381D01*
X109283571Y-151409762D01*
X109235952Y-151362143D01*
X109188333Y-151266905D01*
X109188333Y-151076429D01*
X109235952Y-150981190D01*
X109283571Y-150933571D01*
X109378809Y-150885952D01*
X138765000Y-82092858D02*
X138736429Y-82035715D01*
X138736429Y-81950001D01*
X138765000Y-81864286D01*
X138822143Y-81807144D01*
X138879286Y-81778572D01*
X138993571Y-81750001D01*
X139079286Y-81750001D01*
X139193571Y-81778572D01*
X139250714Y-81807144D01*
X139307857Y-81864286D01*
X139336429Y-81950001D01*
X139336429Y-82007144D01*
X139307857Y-82092858D01*
X139279286Y-82121429D01*
X139079286Y-82121429D01*
X139079286Y-82007144D01*
X139336429Y-82378572D02*
X138736429Y-82378572D01*
X139336429Y-82721429D01*
X138736429Y-82721429D01*
X139336429Y-83007143D02*
X138736429Y-83007143D01*
X138736429Y-83150000D01*
X138765000Y-83235715D01*
X138822143Y-83292857D01*
X138879286Y-83321429D01*
X138993571Y-83350000D01*
X139079286Y-83350000D01*
X139193571Y-83321429D01*
X139250714Y-83292857D01*
X139307857Y-83235715D01*
X139336429Y-83150000D01*
X139336429Y-83007143D01*
X136860000Y-82092858D02*
X136831429Y-82035715D01*
X136831429Y-81950001D01*
X136860000Y-81864286D01*
X136917143Y-81807144D01*
X136974286Y-81778572D01*
X137088571Y-81750001D01*
X137174286Y-81750001D01*
X137288571Y-81778572D01*
X137345714Y-81807144D01*
X137402857Y-81864286D01*
X137431429Y-81950001D01*
X137431429Y-82007144D01*
X137402857Y-82092858D01*
X137374286Y-82121429D01*
X137174286Y-82121429D01*
X137174286Y-82007144D01*
X137431429Y-82378572D02*
X136831429Y-82378572D01*
X137431429Y-82721429D01*
X136831429Y-82721429D01*
X137431429Y-83007143D02*
X136831429Y-83007143D01*
X136831429Y-83150000D01*
X136860000Y-83235715D01*
X136917143Y-83292857D01*
X136974286Y-83321429D01*
X137088571Y-83350000D01*
X137174286Y-83350000D01*
X137288571Y-83321429D01*
X137345714Y-83292857D01*
X137402857Y-83235715D01*
X137431429Y-83150000D01*
X137431429Y-83007143D01*
X134291429Y-81750000D02*
X134891429Y-81950000D01*
X134291429Y-82150000D01*
X134834286Y-82692857D02*
X134862857Y-82664286D01*
X134891429Y-82578572D01*
X134891429Y-82521429D01*
X134862857Y-82435714D01*
X134805714Y-82378572D01*
X134748571Y-82350000D01*
X134634286Y-82321429D01*
X134548571Y-82321429D01*
X134434286Y-82350000D01*
X134377143Y-82378572D01*
X134320000Y-82435714D01*
X134291429Y-82521429D01*
X134291429Y-82578572D01*
X134320000Y-82664286D01*
X134348571Y-82692857D01*
X134834286Y-83292857D02*
X134862857Y-83264286D01*
X134891429Y-83178572D01*
X134891429Y-83121429D01*
X134862857Y-83035714D01*
X134805714Y-82978572D01*
X134748571Y-82950000D01*
X134634286Y-82921429D01*
X134548571Y-82921429D01*
X134434286Y-82950000D01*
X134377143Y-82978572D01*
X134320000Y-83035714D01*
X134291429Y-83121429D01*
X134291429Y-83178572D01*
X134320000Y-83264286D01*
X134348571Y-83292857D01*
X132351429Y-82307143D02*
X132065714Y-82107143D01*
X132351429Y-81964286D02*
X131751429Y-81964286D01*
X131751429Y-82192858D01*
X131780000Y-82250000D01*
X131808571Y-82278572D01*
X131865714Y-82307143D01*
X131951429Y-82307143D01*
X132008571Y-82278572D01*
X132037143Y-82250000D01*
X132065714Y-82192858D01*
X132065714Y-81964286D01*
X131751429Y-82507143D02*
X132351429Y-82907143D01*
X131751429Y-82907143D02*
X132351429Y-82507143D01*
X132351429Y-83135715D02*
X131751429Y-83135715D01*
X129211429Y-81792857D02*
X129211429Y-82135714D01*
X129811429Y-81964285D02*
X129211429Y-81964285D01*
X129211429Y-82278571D02*
X129811429Y-82678571D01*
X129211429Y-82678571D02*
X129811429Y-82278571D01*
X129811429Y-82907143D02*
X129211429Y-82907143D01*
X129211429Y-83050000D01*
X129240000Y-83135715D01*
X129297143Y-83192857D01*
X129354286Y-83221429D01*
X129468571Y-83250000D01*
X129554286Y-83250000D01*
X129668571Y-83221429D01*
X129725714Y-83192857D01*
X129782857Y-83135715D01*
X129811429Y-83050000D01*
X129811429Y-82907143D01*
X127906429Y-81864286D02*
X127306429Y-81864286D01*
X127306429Y-82007143D01*
X127335000Y-82092858D01*
X127392143Y-82150000D01*
X127449286Y-82178572D01*
X127563571Y-82207143D01*
X127649286Y-82207143D01*
X127763571Y-82178572D01*
X127820714Y-82150000D01*
X127877857Y-82092858D01*
X127906429Y-82007143D01*
X127906429Y-81864286D01*
X127306429Y-82378572D02*
X127306429Y-82721429D01*
X127906429Y-82550000D02*
X127306429Y-82550000D01*
X127906429Y-83264286D02*
X127620714Y-83064286D01*
X127906429Y-82921429D02*
X127306429Y-82921429D01*
X127306429Y-83150001D01*
X127335000Y-83207143D01*
X127363571Y-83235715D01*
X127420714Y-83264286D01*
X127506429Y-83264286D01*
X127563571Y-83235715D01*
X127592143Y-83207143D01*
X127620714Y-83150001D01*
X127620714Y-82921429D01*
%LPC*%
D16*
X164500000Y-139600000D03*
X164500000Y-86400000D03*
D17*
X164500000Y-113000000D03*
D18*
X147955000Y-128905000D03*
D19*
X147955000Y-130405000D03*
D20*
X116000000Y-81250000D03*
D21*
X117650000Y-81250000D03*
X117166726Y-82416726D03*
X116000000Y-82900000D03*
X114833274Y-82416726D03*
X114350000Y-81250000D03*
X114833274Y-80083274D03*
X116000000Y-79600000D03*
X117166726Y-80083274D03*
D20*
X161000000Y-81250000D03*
D21*
X162650000Y-81250000D03*
X162166726Y-82416726D03*
X161000000Y-82900000D03*
X159833274Y-82416726D03*
X159350000Y-81250000D03*
X159833274Y-80083274D03*
X161000000Y-79600000D03*
X162166726Y-80083274D03*
D20*
X161000000Y-149750000D03*
D21*
X162650000Y-149750000D03*
X162166726Y-150916726D03*
X161000000Y-151400000D03*
X159833274Y-150916726D03*
X159350000Y-149750000D03*
X159833274Y-148583274D03*
X161000000Y-148100000D03*
X162166726Y-148583274D03*
D22*
X146050000Y-81280000D03*
D23*
X146050000Y-83820000D03*
D24*
X124333000Y-121920000D03*
D25*
X142280000Y-115945000D03*
X142280000Y-129945000D03*
X142280000Y-127945000D03*
X142280000Y-125945000D03*
X142280000Y-123945000D03*
X142280000Y-121945000D03*
X142280000Y-119945000D03*
X142280000Y-117945000D03*
D26*
X146685000Y-97845000D03*
X146685000Y-93345000D03*
X153185000Y-97845000D03*
X153185000Y-93345000D03*
D22*
X151130000Y-81280000D03*
D23*
X151130000Y-83820000D03*
D27*
X157480000Y-144780000D03*
D28*
X160020000Y-144780000D03*
D27*
X151130000Y-148590000D03*
D28*
X151130000Y-146050000D03*
X151130000Y-143510000D03*
X151130000Y-140970000D03*
D27*
X125730000Y-148590000D03*
D28*
X125730000Y-146050000D03*
X125730000Y-143510000D03*
X125730000Y-140970000D03*
D27*
X162560000Y-144780000D03*
D28*
X165100000Y-144780000D03*
X167640000Y-144780000D03*
X170180000Y-144780000D03*
D16*
X112500000Y-87300000D03*
X112500000Y-139600000D03*
D17*
X112500000Y-113000000D03*
D27*
X147320000Y-113665000D03*
D28*
X147320000Y-116205000D03*
D27*
X152400000Y-113665000D03*
D28*
X152400000Y-116205000D03*
D27*
X147320000Y-104140000D03*
D28*
X147320000Y-106680000D03*
D27*
X152400000Y-104140000D03*
D28*
X152400000Y-106680000D03*
D27*
X140970000Y-148590000D03*
D28*
X140970000Y-146050000D03*
X140970000Y-143510000D03*
X140970000Y-140970000D03*
D27*
X135890000Y-148590000D03*
D28*
X135890000Y-146050000D03*
X135890000Y-143510000D03*
X135890000Y-140970000D03*
D20*
X116000000Y-149750000D03*
D21*
X117650000Y-149750000D03*
X117166726Y-150916726D03*
X116000000Y-151400000D03*
X114833274Y-150916726D03*
X114350000Y-149750000D03*
X114833274Y-148583274D03*
X116000000Y-148100000D03*
X117166726Y-148583274D03*
D16*
X151130000Y-122555000D03*
D29*
X151130000Y-125095000D03*
D16*
X147320000Y-122555000D03*
D29*
X147320000Y-125095000D03*
D16*
X151130000Y-86995000D03*
D29*
X151130000Y-89535000D03*
D16*
X146050000Y-86995000D03*
D29*
X146050000Y-89535000D03*
D16*
X119380000Y-144780000D03*
D29*
X116840000Y-144780000D03*
D30*
X109215000Y-149225000D03*
X110495000Y-149225000D03*
D31*
X107950000Y-144780000D03*
D32*
X110250000Y-144780000D03*
X112550000Y-144780000D03*
D23*
X140970000Y-110490000D03*
X140970000Y-107950000D03*
X140970000Y-105410000D03*
X140970000Y-102870000D03*
X140970000Y-100330000D03*
X140970000Y-97790000D03*
X140970000Y-95250000D03*
X140970000Y-92710000D03*
X140970000Y-90170000D03*
X140970000Y-87630000D03*
X140970000Y-85090000D03*
X140970000Y-82550000D03*
X125730000Y-82550000D03*
X125730000Y-85090000D03*
X125730000Y-87630000D03*
X125730000Y-90170000D03*
X125730000Y-92710000D03*
X125730000Y-95250000D03*
X125730000Y-97790000D03*
X125730000Y-100330000D03*
X125730000Y-102870000D03*
X125730000Y-105410000D03*
X125730000Y-107950000D03*
X125730000Y-110490000D03*
X138430000Y-93980000D03*
X138430000Y-91440000D03*
M02*
