%FSLAX45Y45*%
G04 Gerber Fmt 4.5, Leading zero omitted, Abs format (unit mm)*
G04 Created by KiCad (PCBNEW 4.0.7) date 08/02/18 21:49:48*
%MOMM*%
%LPD*%
G01*
G04 APERTURE LIST*
%ADD10C,0.127000*%
%ADD11C,0.150000*%
%ADD12C,0.200000*%
%ADD13C,0.300000*%
G04 APERTURE END LIST*
D10*
D11*
X12400000Y-7800000D02*
X12425000Y-7800000D01*
X14100000Y-7950000D02*
X14100000Y-7975000D01*
X12575000Y-7950000D02*
X12575000Y-7975000D01*
X12725000Y-8125000D02*
X13950000Y-8125000D01*
X13950000Y-8125000D02*
G75*
G03X14100000Y-7975000I0J150000D01*
G01*
X14250000Y-7800000D02*
G75*
G03X14100000Y-7950000I0J-150000D01*
G01*
X12575000Y-7975000D02*
G75*
G03X12725000Y-8125000I150000J0D01*
G01*
X12575000Y-7950000D02*
G75*
G03X12425000Y-7800000I-150000J0D01*
G01*
X10800000Y-7800000D02*
X12400000Y-7800000D01*
X14250000Y-7800000D02*
X16900000Y-7800000D01*
X10800000Y-15300000D02*
X16900000Y-15300000D01*
X10100000Y-8500000D02*
X10100000Y-14600000D01*
X17600000Y-14600000D02*
X17600000Y-8500000D01*
X17600000Y-8500000D02*
G75*
G03X16900000Y-7800000I-700000J0D01*
G01*
X10100000Y-14600000D02*
G75*
G03X10800000Y-15300000I700000J0D01*
G01*
X16900000Y-15300000D02*
G75*
G03X17600000Y-14600000I0J700000D01*
G01*
X10800000Y-7800000D02*
G75*
G03X10100000Y-8500000I0J-700000D01*
G01*
D12*
X11415000Y-8105000D02*
X11455000Y-8145000D01*
X11455000Y-8105000D02*
X11415000Y-8145000D01*
X11415000Y-14955000D02*
X11455000Y-14995000D01*
X11455000Y-14955000D02*
X11415000Y-14995000D01*
X11463327Y-7988327D02*
X11503327Y-8028327D01*
X11503327Y-7988327D02*
X11463327Y-8028327D01*
X11463327Y-8221673D02*
X11503327Y-8261673D01*
X11503327Y-8221673D02*
X11463327Y-8261673D01*
X11463327Y-14838327D02*
X11503327Y-14878327D01*
X11503327Y-14838327D02*
X11463327Y-14878327D01*
X11463327Y-15071673D02*
X11503327Y-15111673D01*
X11503327Y-15071673D02*
X11463327Y-15111673D01*
X11580000Y-7940000D02*
X11620000Y-7980000D01*
X11620000Y-7940000D02*
X11580000Y-7980000D01*
X11580000Y-8270000D02*
X11620000Y-8310000D01*
X11620000Y-8270000D02*
X11580000Y-8310000D01*
X11580000Y-14790000D02*
X11620000Y-14830000D01*
X11620000Y-14790000D02*
X11580000Y-14830000D01*
X11580000Y-15120000D02*
X11620000Y-15160000D01*
X11620000Y-15120000D02*
X11580000Y-15160000D01*
X11696673Y-7988327D02*
X11736673Y-8028327D01*
X11736673Y-7988327D02*
X11696673Y-8028327D01*
X11696673Y-8221673D02*
X11736673Y-8261673D01*
X11736673Y-8221673D02*
X11696673Y-8261673D01*
X11696673Y-14838327D02*
X11736673Y-14878327D01*
X11736673Y-14838327D02*
X11696673Y-14878327D01*
X11696673Y-15071673D02*
X11736673Y-15111673D01*
X11736673Y-15071673D02*
X11696673Y-15111673D01*
X11745000Y-8105000D02*
X11785000Y-8145000D01*
X11785000Y-8105000D02*
X11745000Y-8145000D01*
X11745000Y-14955000D02*
X11785000Y-14995000D01*
X11785000Y-14955000D02*
X11745000Y-14995000D01*
X15915000Y-8105000D02*
X15955000Y-8145000D01*
X15955000Y-8105000D02*
X15915000Y-8145000D01*
X15915000Y-14955000D02*
X15955000Y-14995000D01*
X15955000Y-14955000D02*
X15915000Y-14995000D01*
X15963327Y-7988327D02*
X16003327Y-8028327D01*
X16003327Y-7988327D02*
X15963327Y-8028327D01*
X15963327Y-8221673D02*
X16003327Y-8261673D01*
X16003327Y-8221673D02*
X15963327Y-8261673D01*
X15963327Y-14838327D02*
X16003327Y-14878327D01*
X16003327Y-14838327D02*
X15963327Y-14878327D01*
X15963327Y-15071673D02*
X16003327Y-15111673D01*
X16003327Y-15071673D02*
X15963327Y-15111673D01*
X16080000Y-7940000D02*
X16120000Y-7980000D01*
X16120000Y-7940000D02*
X16080000Y-7980000D01*
X16080000Y-8270000D02*
X16120000Y-8310000D01*
X16120000Y-8270000D02*
X16080000Y-8310000D01*
X16080000Y-14790000D02*
X16120000Y-14830000D01*
X16120000Y-14790000D02*
X16080000Y-14830000D01*
X16080000Y-15120000D02*
X16120000Y-15160000D01*
X16120000Y-15120000D02*
X16080000Y-15160000D01*
X16196673Y-7988327D02*
X16236673Y-8028327D01*
X16236673Y-7988327D02*
X16196673Y-8028327D01*
X16196673Y-8221673D02*
X16236673Y-8261673D01*
X16236673Y-8221673D02*
X16196673Y-8261673D01*
X16196673Y-14838327D02*
X16236673Y-14878327D01*
X16236673Y-14838327D02*
X16196673Y-14878327D01*
X16196673Y-15071673D02*
X16236673Y-15111673D01*
X16236673Y-15071673D02*
X16196673Y-15111673D01*
X16245000Y-8105000D02*
X16285000Y-8145000D01*
X16285000Y-8105000D02*
X16245000Y-8145000D01*
X16245000Y-14955000D02*
X16285000Y-14995000D01*
X16285000Y-14955000D02*
X16245000Y-14995000D01*
X14825500Y-12890500D02*
G75*
G03X14825500Y-12890500I-30000J0D01*
G01*
X14825500Y-13040500D02*
G75*
G03X14825500Y-13040500I-30000J0D01*
G01*
X11250000Y-8690000D02*
X11250000Y-8770000D01*
X11210000Y-8730000D02*
X11290000Y-8730000D01*
X11250000Y-13920000D02*
X11250000Y-14000000D01*
X11210000Y-13960000D02*
X11290000Y-13960000D01*
X11684000Y-14438000D02*
X11684000Y-14518000D01*
X11644000Y-14478000D02*
X11724000Y-14478000D01*
X11938000Y-14438000D02*
X11938000Y-14518000D01*
X11898000Y-14478000D02*
X11978000Y-14478000D01*
X14228000Y-11554500D02*
X14228000Y-11634500D01*
X14188000Y-11594500D02*
X14268000Y-11594500D01*
X14228000Y-11754500D02*
X14228000Y-11834500D01*
X14188000Y-11794500D02*
X14268000Y-11794500D01*
X14228000Y-11954500D02*
X14228000Y-12034500D01*
X14188000Y-11994500D02*
X14268000Y-11994500D01*
X14228000Y-12154500D02*
X14228000Y-12234500D01*
X14188000Y-12194500D02*
X14268000Y-12194500D01*
X14228000Y-12354500D02*
X14228000Y-12434500D01*
X14188000Y-12394500D02*
X14268000Y-12394500D01*
X14228000Y-12554500D02*
X14228000Y-12634500D01*
X14188000Y-12594500D02*
X14268000Y-12594500D01*
X14228000Y-12754500D02*
X14228000Y-12834500D01*
X14188000Y-12794500D02*
X14268000Y-12794500D01*
X14228000Y-12954500D02*
X14228000Y-13034500D01*
X14188000Y-12994500D02*
X14268000Y-12994500D01*
X14605000Y-8659500D02*
X14605000Y-8739500D01*
X14565000Y-8699500D02*
X14645000Y-8699500D01*
X14605000Y-8913500D02*
X14605000Y-8993500D01*
X14565000Y-8953500D02*
X14645000Y-8953500D01*
X14732000Y-12215500D02*
X14732000Y-12295500D01*
X14692000Y-12255500D02*
X14772000Y-12255500D01*
X14732000Y-12469500D02*
X14732000Y-12549500D01*
X14692000Y-12509500D02*
X14772000Y-12509500D01*
X15113000Y-8659500D02*
X15113000Y-8739500D01*
X15073000Y-8699500D02*
X15153000Y-8699500D01*
X15113000Y-8913500D02*
X15113000Y-8993500D01*
X15073000Y-8953500D02*
X15153000Y-8953500D01*
X15113000Y-12215500D02*
X15113000Y-12295500D01*
X15073000Y-12255500D02*
X15153000Y-12255500D01*
X15113000Y-12469500D02*
X15113000Y-12549500D01*
X15073000Y-12509500D02*
X15153000Y-12509500D01*
X16450000Y-8600000D02*
X16450000Y-8680000D01*
X16410000Y-8640000D02*
X16490000Y-8640000D01*
X16450000Y-13920000D02*
X16450000Y-14000000D01*
X16410000Y-13960000D02*
X16490000Y-13960000D01*
X14636820Y-8159820D02*
X14636820Y-8096180D01*
X14573180Y-8096180D01*
X14573180Y-8159820D01*
X14636820Y-8159820D01*
X14636820Y-8413820D02*
X14636820Y-8350180D01*
X14573180Y-8350180D01*
X14573180Y-8413820D01*
X14636820Y-8413820D01*
X15144820Y-8159820D02*
X15144820Y-8096180D01*
X15081180Y-8096180D01*
X15081180Y-8159820D01*
X15144820Y-8159820D01*
X15144820Y-8413820D02*
X15144820Y-8350180D01*
X15081180Y-8350180D01*
X15081180Y-8413820D01*
X15144820Y-8413820D01*
X15779820Y-14509820D02*
X15779820Y-14446180D01*
X15716180Y-14446180D01*
X15716180Y-14509820D01*
X15779820Y-14509820D01*
X16033820Y-14509820D02*
X16033820Y-14446180D01*
X15970180Y-14446180D01*
X15970180Y-14509820D01*
X16033820Y-14509820D01*
X16287820Y-14509820D02*
X16287820Y-14446180D01*
X16224180Y-14446180D01*
X16224180Y-14509820D01*
X16287820Y-14509820D01*
X16541820Y-14509820D02*
X16541820Y-14446180D01*
X16478180Y-14446180D01*
X16478180Y-14509820D01*
X16541820Y-14509820D01*
X16795820Y-14509820D02*
X16795820Y-14446180D01*
X16732180Y-14446180D01*
X16732180Y-14509820D01*
X16795820Y-14509820D01*
X17049820Y-14509820D02*
X17049820Y-14446180D01*
X16986180Y-14446180D01*
X16986180Y-14509820D01*
X17049820Y-14509820D01*
X10795000Y-14528000D02*
X10845000Y-14478000D01*
X10795000Y-14428000D01*
X10745000Y-14478000D01*
X10795000Y-14528000D01*
X11025000Y-14528000D02*
X11075000Y-14478000D01*
X11025000Y-14428000D01*
X10975000Y-14478000D01*
X11025000Y-14528000D01*
X11255000Y-14528000D02*
X11305000Y-14478000D01*
X11255000Y-14428000D01*
X11205000Y-14478000D01*
X11255000Y-14528000D01*
X12573000Y-8305000D02*
X12623000Y-8255000D01*
X12573000Y-8205000D01*
X12523000Y-8255000D01*
X12573000Y-8305000D01*
X12573000Y-8559000D02*
X12623000Y-8509000D01*
X12573000Y-8459000D01*
X12523000Y-8509000D01*
X12573000Y-8559000D01*
X12573000Y-8813000D02*
X12623000Y-8763000D01*
X12573000Y-8713000D01*
X12523000Y-8763000D01*
X12573000Y-8813000D01*
X12573000Y-9067000D02*
X12623000Y-9017000D01*
X12573000Y-8967000D01*
X12523000Y-9017000D01*
X12573000Y-9067000D01*
X12573000Y-9321000D02*
X12623000Y-9271000D01*
X12573000Y-9221000D01*
X12523000Y-9271000D01*
X12573000Y-9321000D01*
X12573000Y-9575000D02*
X12623000Y-9525000D01*
X12573000Y-9475000D01*
X12523000Y-9525000D01*
X12573000Y-9575000D01*
X12573000Y-9829000D02*
X12623000Y-9779000D01*
X12573000Y-9729000D01*
X12523000Y-9779000D01*
X12573000Y-9829000D01*
X12573000Y-10083000D02*
X12623000Y-10033000D01*
X12573000Y-9983000D01*
X12523000Y-10033000D01*
X12573000Y-10083000D01*
X12573000Y-10337000D02*
X12623000Y-10287000D01*
X12573000Y-10237000D01*
X12523000Y-10287000D01*
X12573000Y-10337000D01*
X12573000Y-10591000D02*
X12623000Y-10541000D01*
X12573000Y-10491000D01*
X12523000Y-10541000D01*
X12573000Y-10591000D01*
X12573000Y-10845000D02*
X12623000Y-10795000D01*
X12573000Y-10745000D01*
X12523000Y-10795000D01*
X12573000Y-10845000D01*
X12573000Y-11099000D02*
X12623000Y-11049000D01*
X12573000Y-10999000D01*
X12523000Y-11049000D01*
X12573000Y-11099000D01*
X12573000Y-14147000D02*
X12623000Y-14097000D01*
X12573000Y-14047000D01*
X12523000Y-14097000D01*
X12573000Y-14147000D01*
X12573000Y-14401000D02*
X12623000Y-14351000D01*
X12573000Y-14301000D01*
X12523000Y-14351000D01*
X12573000Y-14401000D01*
X12573000Y-14655000D02*
X12623000Y-14605000D01*
X12573000Y-14555000D01*
X12523000Y-14605000D01*
X12573000Y-14655000D01*
X12573000Y-14909000D02*
X12623000Y-14859000D01*
X12573000Y-14809000D01*
X12523000Y-14859000D01*
X12573000Y-14909000D01*
X13589000Y-14147000D02*
X13639000Y-14097000D01*
X13589000Y-14047000D01*
X13539000Y-14097000D01*
X13589000Y-14147000D01*
X13589000Y-14401000D02*
X13639000Y-14351000D01*
X13589000Y-14301000D01*
X13539000Y-14351000D01*
X13589000Y-14401000D01*
X13589000Y-14655000D02*
X13639000Y-14605000D01*
X13589000Y-14555000D01*
X13539000Y-14605000D01*
X13589000Y-14655000D01*
X13589000Y-14909000D02*
X13639000Y-14859000D01*
X13589000Y-14809000D01*
X13539000Y-14859000D01*
X13589000Y-14909000D01*
X13843000Y-9194000D02*
X13893000Y-9144000D01*
X13843000Y-9094000D01*
X13793000Y-9144000D01*
X13843000Y-9194000D01*
X13843000Y-9448000D02*
X13893000Y-9398000D01*
X13843000Y-9348000D01*
X13793000Y-9398000D01*
X13843000Y-9448000D01*
X14097000Y-8305000D02*
X14147000Y-8255000D01*
X14097000Y-8205000D01*
X14047000Y-8255000D01*
X14097000Y-8305000D01*
X14097000Y-8559000D02*
X14147000Y-8509000D01*
X14097000Y-8459000D01*
X14047000Y-8509000D01*
X14097000Y-8559000D01*
X14097000Y-8813000D02*
X14147000Y-8763000D01*
X14097000Y-8713000D01*
X14047000Y-8763000D01*
X14097000Y-8813000D01*
X14097000Y-9067000D02*
X14147000Y-9017000D01*
X14097000Y-8967000D01*
X14047000Y-9017000D01*
X14097000Y-9067000D01*
X14097000Y-9321000D02*
X14147000Y-9271000D01*
X14097000Y-9221000D01*
X14047000Y-9271000D01*
X14097000Y-9321000D01*
X14097000Y-9575000D02*
X14147000Y-9525000D01*
X14097000Y-9475000D01*
X14047000Y-9525000D01*
X14097000Y-9575000D01*
X14097000Y-9829000D02*
X14147000Y-9779000D01*
X14097000Y-9729000D01*
X14047000Y-9779000D01*
X14097000Y-9829000D01*
X14097000Y-10083000D02*
X14147000Y-10033000D01*
X14097000Y-9983000D01*
X14047000Y-10033000D01*
X14097000Y-10083000D01*
X14097000Y-10337000D02*
X14147000Y-10287000D01*
X14097000Y-10237000D01*
X14047000Y-10287000D01*
X14097000Y-10337000D01*
X14097000Y-10591000D02*
X14147000Y-10541000D01*
X14097000Y-10491000D01*
X14047000Y-10541000D01*
X14097000Y-10591000D01*
X14097000Y-10845000D02*
X14147000Y-10795000D01*
X14097000Y-10745000D01*
X14047000Y-10795000D01*
X14097000Y-10845000D01*
X14097000Y-11099000D02*
X14147000Y-11049000D01*
X14097000Y-10999000D01*
X14047000Y-11049000D01*
X14097000Y-11099000D01*
X14097000Y-14147000D02*
X14147000Y-14097000D01*
X14097000Y-14047000D01*
X14047000Y-14097000D01*
X14097000Y-14147000D01*
X14097000Y-14401000D02*
X14147000Y-14351000D01*
X14097000Y-14301000D01*
X14047000Y-14351000D01*
X14097000Y-14401000D01*
X14097000Y-14655000D02*
X14147000Y-14605000D01*
X14097000Y-14555000D01*
X14047000Y-14605000D01*
X14097000Y-14655000D01*
X14097000Y-14909000D02*
X14147000Y-14859000D01*
X14097000Y-14809000D01*
X14047000Y-14859000D01*
X14097000Y-14909000D01*
X14732000Y-10464000D02*
X14782000Y-10414000D01*
X14732000Y-10364000D01*
X14682000Y-10414000D01*
X14732000Y-10464000D01*
X14732000Y-10718000D02*
X14782000Y-10668000D01*
X14732000Y-10618000D01*
X14682000Y-10668000D01*
X14732000Y-10718000D01*
X14732000Y-11416500D02*
X14782000Y-11366500D01*
X14732000Y-11316500D01*
X14682000Y-11366500D01*
X14732000Y-11416500D01*
X14732000Y-11670500D02*
X14782000Y-11620500D01*
X14732000Y-11570500D01*
X14682000Y-11620500D01*
X14732000Y-11670500D01*
X15113000Y-14147000D02*
X15163000Y-14097000D01*
X15113000Y-14047000D01*
X15063000Y-14097000D01*
X15113000Y-14147000D01*
X15113000Y-14401000D02*
X15163000Y-14351000D01*
X15113000Y-14301000D01*
X15063000Y-14351000D01*
X15113000Y-14401000D01*
X15113000Y-14655000D02*
X15163000Y-14605000D01*
X15113000Y-14555000D01*
X15063000Y-14605000D01*
X15113000Y-14655000D01*
X15113000Y-14909000D02*
X15163000Y-14859000D01*
X15113000Y-14809000D01*
X15063000Y-14859000D01*
X15113000Y-14909000D01*
X15240000Y-10464000D02*
X15290000Y-10414000D01*
X15240000Y-10364000D01*
X15190000Y-10414000D01*
X15240000Y-10464000D01*
X15240000Y-10718000D02*
X15290000Y-10668000D01*
X15240000Y-10618000D01*
X15190000Y-10668000D01*
X15240000Y-10718000D01*
X15240000Y-11416500D02*
X15290000Y-11366500D01*
X15240000Y-11316500D01*
X15190000Y-11366500D01*
X15240000Y-11416500D01*
X15240000Y-11670500D02*
X15290000Y-11620500D01*
X15240000Y-11570500D01*
X15190000Y-11620500D01*
X15240000Y-11670500D01*
X14613500Y-9279500D02*
X14723500Y-9389500D01*
X14723500Y-9279500D02*
X14613500Y-9389500D01*
X14723500Y-9334500D02*
G75*
G03X14723500Y-9334500I-55000J0D01*
G01*
X14613500Y-9729500D02*
X14723500Y-9839500D01*
X14723500Y-9729500D02*
X14613500Y-9839500D01*
X14723500Y-9784500D02*
G75*
G03X14723500Y-9784500I-55000J0D01*
G01*
X15263500Y-9279500D02*
X15373500Y-9389500D01*
X15373500Y-9279500D02*
X15263500Y-9389500D01*
X15373500Y-9334500D02*
G75*
G03X15373500Y-9334500I-55000J0D01*
G01*
X15263500Y-9729500D02*
X15373500Y-9839500D01*
X15373500Y-9729500D02*
X15263500Y-9839500D01*
X15373500Y-9784500D02*
G75*
G03X15373500Y-9784500I-55000J0D01*
G01*
X11490000Y-8015000D02*
X11710000Y-8235000D01*
X11710000Y-8015000D02*
X11490000Y-8235000D01*
X11600000Y-8015000D02*
X11600000Y-8235000D01*
X11490000Y-8125000D02*
X11710000Y-8125000D01*
X11490000Y-14865000D02*
X11710000Y-15085000D01*
X11710000Y-14865000D02*
X11490000Y-15085000D01*
X11600000Y-14865000D02*
X11600000Y-15085000D01*
X11490000Y-14975000D02*
X11710000Y-14975000D01*
X15990000Y-8015000D02*
X16210000Y-8235000D01*
X16210000Y-8015000D02*
X15990000Y-8235000D01*
X16100000Y-8015000D02*
X16100000Y-8235000D01*
X15990000Y-8125000D02*
X16210000Y-8125000D01*
X15990000Y-14865000D02*
X16210000Y-15085000D01*
X16210000Y-14865000D02*
X15990000Y-15085000D01*
X16100000Y-14865000D02*
X16100000Y-15085000D01*
X15990000Y-14975000D02*
X16210000Y-14975000D01*
D13*
X10363929Y-15773214D02*
X10363929Y-15473214D01*
X10435357Y-15473214D01*
X10478214Y-15487500D01*
X10506786Y-15516071D01*
X10521071Y-15544643D01*
X10535357Y-15601786D01*
X10535357Y-15644643D01*
X10521071Y-15701786D01*
X10506786Y-15730357D01*
X10478214Y-15758929D01*
X10435357Y-15773214D01*
X10363929Y-15773214D01*
X10663929Y-15773214D02*
X10663929Y-15573214D01*
X10663929Y-15630357D02*
X10678214Y-15601786D01*
X10692500Y-15587500D01*
X10721071Y-15573214D01*
X10749643Y-15573214D01*
X10849643Y-15773214D02*
X10849643Y-15573214D01*
X10849643Y-15473214D02*
X10835357Y-15487500D01*
X10849643Y-15501786D01*
X10863929Y-15487500D01*
X10849643Y-15473214D01*
X10849643Y-15501786D01*
X11035357Y-15773214D02*
X11006786Y-15758929D01*
X10992500Y-15730357D01*
X10992500Y-15473214D01*
X11192500Y-15773214D02*
X11163929Y-15758929D01*
X11149643Y-15730357D01*
X11149643Y-15473214D01*
X11535357Y-15773214D02*
X11535357Y-15473214D01*
X11635357Y-15687500D01*
X11735357Y-15473214D01*
X11735357Y-15773214D01*
X12006786Y-15773214D02*
X12006786Y-15616071D01*
X11992500Y-15587500D01*
X11963928Y-15573214D01*
X11906786Y-15573214D01*
X11878214Y-15587500D01*
X12006786Y-15758929D02*
X11978214Y-15773214D01*
X11906786Y-15773214D01*
X11878214Y-15758929D01*
X11863928Y-15730357D01*
X11863928Y-15701786D01*
X11878214Y-15673214D01*
X11906786Y-15658929D01*
X11978214Y-15658929D01*
X12006786Y-15644643D01*
X12149643Y-15573214D02*
X12149643Y-15873214D01*
X12149643Y-15587500D02*
X12178214Y-15573214D01*
X12235357Y-15573214D01*
X12263928Y-15587500D01*
X12278214Y-15601786D01*
X12292500Y-15630357D01*
X12292500Y-15716071D01*
X12278214Y-15744643D01*
X12263928Y-15758929D01*
X12235357Y-15773214D01*
X12178214Y-15773214D01*
X12149643Y-15758929D01*
X12421071Y-15744643D02*
X12435357Y-15758929D01*
X12421071Y-15773214D01*
X12406786Y-15758929D01*
X12421071Y-15744643D01*
X12421071Y-15773214D01*
X12421071Y-15587500D02*
X12435357Y-15601786D01*
X12421071Y-15616071D01*
X12406786Y-15601786D01*
X12421071Y-15587500D01*
X12421071Y-15616071D01*
X10052500Y-16247500D02*
X10092500Y-16287500D01*
X10092500Y-16247500D02*
X10052500Y-16287500D01*
X10421071Y-16103214D02*
X10449643Y-16103214D01*
X10478214Y-16117500D01*
X10492500Y-16131786D01*
X10506786Y-16160357D01*
X10521071Y-16217500D01*
X10521071Y-16288929D01*
X10506786Y-16346071D01*
X10492500Y-16374643D01*
X10478214Y-16388929D01*
X10449643Y-16403214D01*
X10421071Y-16403214D01*
X10392500Y-16388929D01*
X10378214Y-16374643D01*
X10363929Y-16346071D01*
X10349643Y-16288929D01*
X10349643Y-16217500D01*
X10363929Y-16160357D01*
X10378214Y-16131786D01*
X10392500Y-16117500D01*
X10421071Y-16103214D01*
X10649643Y-16374643D02*
X10663929Y-16388929D01*
X10649643Y-16403214D01*
X10635357Y-16388929D01*
X10649643Y-16374643D01*
X10649643Y-16403214D01*
X10921071Y-16203214D02*
X10921071Y-16403214D01*
X10849643Y-16088929D02*
X10778214Y-16303214D01*
X10963928Y-16303214D01*
X11135357Y-16103214D02*
X11163929Y-16103214D01*
X11192500Y-16117500D01*
X11206786Y-16131786D01*
X11221071Y-16160357D01*
X11235357Y-16217500D01*
X11235357Y-16288929D01*
X11221071Y-16346071D01*
X11206786Y-16374643D01*
X11192500Y-16388929D01*
X11163929Y-16403214D01*
X11135357Y-16403214D01*
X11106786Y-16388929D01*
X11092500Y-16374643D01*
X11078214Y-16346071D01*
X11063929Y-16288929D01*
X11063929Y-16217500D01*
X11078214Y-16160357D01*
X11092500Y-16131786D01*
X11106786Y-16117500D01*
X11135357Y-16103214D01*
X11363928Y-16403214D02*
X11363928Y-16203214D01*
X11363928Y-16231786D02*
X11378214Y-16217500D01*
X11406786Y-16203214D01*
X11449643Y-16203214D01*
X11478214Y-16217500D01*
X11492500Y-16246071D01*
X11492500Y-16403214D01*
X11492500Y-16246071D02*
X11506786Y-16217500D01*
X11535357Y-16203214D01*
X11578214Y-16203214D01*
X11606786Y-16217500D01*
X11621071Y-16246071D01*
X11621071Y-16403214D01*
X11763928Y-16403214D02*
X11763928Y-16203214D01*
X11763928Y-16231786D02*
X11778214Y-16217500D01*
X11806786Y-16203214D01*
X11849643Y-16203214D01*
X11878214Y-16217500D01*
X11892500Y-16246071D01*
X11892500Y-16403214D01*
X11892500Y-16246071D02*
X11906786Y-16217500D01*
X11935357Y-16203214D01*
X11978214Y-16203214D01*
X12006786Y-16217500D01*
X12021071Y-16246071D01*
X12021071Y-16403214D01*
X12606786Y-16088929D02*
X12349643Y-16474643D01*
X12992500Y-16103214D02*
X13021071Y-16103214D01*
X13049643Y-16117500D01*
X13063928Y-16131786D01*
X13078214Y-16160357D01*
X13092500Y-16217500D01*
X13092500Y-16288929D01*
X13078214Y-16346071D01*
X13063928Y-16374643D01*
X13049643Y-16388929D01*
X13021071Y-16403214D01*
X12992500Y-16403214D01*
X12963928Y-16388929D01*
X12949643Y-16374643D01*
X12935357Y-16346071D01*
X12921071Y-16288929D01*
X12921071Y-16217500D01*
X12935357Y-16160357D01*
X12949643Y-16131786D01*
X12963928Y-16117500D01*
X12992500Y-16103214D01*
X13221071Y-16374643D02*
X13235357Y-16388929D01*
X13221071Y-16403214D01*
X13206786Y-16388929D01*
X13221071Y-16374643D01*
X13221071Y-16403214D01*
X13421071Y-16103214D02*
X13449643Y-16103214D01*
X13478214Y-16117500D01*
X13492500Y-16131786D01*
X13506785Y-16160357D01*
X13521071Y-16217500D01*
X13521071Y-16288929D01*
X13506785Y-16346071D01*
X13492500Y-16374643D01*
X13478214Y-16388929D01*
X13449643Y-16403214D01*
X13421071Y-16403214D01*
X13392500Y-16388929D01*
X13378214Y-16374643D01*
X13363928Y-16346071D01*
X13349643Y-16288929D01*
X13349643Y-16217500D01*
X13363928Y-16160357D01*
X13378214Y-16131786D01*
X13392500Y-16117500D01*
X13421071Y-16103214D01*
X13806785Y-16403214D02*
X13635357Y-16403214D01*
X13721071Y-16403214D02*
X13721071Y-16103214D01*
X13692500Y-16146071D01*
X13663928Y-16174643D01*
X13635357Y-16188929D01*
X14063928Y-16103214D02*
X14006785Y-16103214D01*
X13978214Y-16117500D01*
X13963928Y-16131786D01*
X13935357Y-16174643D01*
X13921071Y-16231786D01*
X13921071Y-16346071D01*
X13935357Y-16374643D01*
X13949643Y-16388929D01*
X13978214Y-16403214D01*
X14035357Y-16403214D01*
X14063928Y-16388929D01*
X14078214Y-16374643D01*
X14092500Y-16346071D01*
X14092500Y-16274643D01*
X14078214Y-16246071D01*
X14063928Y-16231786D01*
X14035357Y-16217500D01*
X13978214Y-16217500D01*
X13949643Y-16231786D01*
X13935357Y-16246071D01*
X13921071Y-16274643D01*
X14206786Y-16103214D02*
X14206786Y-16160357D01*
X14321071Y-16103214D02*
X14321071Y-16160357D01*
X14763928Y-16517500D02*
X14749643Y-16503214D01*
X14721071Y-16460357D01*
X14706785Y-16431786D01*
X14692500Y-16388929D01*
X14678214Y-16317500D01*
X14678214Y-16260357D01*
X14692500Y-16188929D01*
X14706785Y-16146071D01*
X14721071Y-16117500D01*
X14749643Y-16074643D01*
X14763928Y-16060357D01*
X14849643Y-16103214D02*
X15035357Y-16103214D01*
X14935357Y-16217500D01*
X14978214Y-16217500D01*
X15006785Y-16231786D01*
X15021071Y-16246071D01*
X15035357Y-16274643D01*
X15035357Y-16346071D01*
X15021071Y-16374643D01*
X15006785Y-16388929D01*
X14978214Y-16403214D01*
X14892500Y-16403214D01*
X14863928Y-16388929D01*
X14849643Y-16374643D01*
X15149643Y-16131786D02*
X15163928Y-16117500D01*
X15192500Y-16103214D01*
X15263928Y-16103214D01*
X15292500Y-16117500D01*
X15306785Y-16131786D01*
X15321071Y-16160357D01*
X15321071Y-16188929D01*
X15306785Y-16231786D01*
X15135357Y-16403214D01*
X15321071Y-16403214D01*
X15678214Y-16403214D02*
X15678214Y-16103214D01*
X15806785Y-16403214D02*
X15806785Y-16246071D01*
X15792500Y-16217500D01*
X15763928Y-16203214D01*
X15721071Y-16203214D01*
X15692500Y-16217500D01*
X15678214Y-16231786D01*
X15992500Y-16403214D02*
X15963928Y-16388929D01*
X15949643Y-16374643D01*
X15935357Y-16346071D01*
X15935357Y-16260357D01*
X15949643Y-16231786D01*
X15963928Y-16217500D01*
X15992500Y-16203214D01*
X16035357Y-16203214D01*
X16063928Y-16217500D01*
X16078214Y-16231786D01*
X16092500Y-16260357D01*
X16092500Y-16346071D01*
X16078214Y-16374643D01*
X16063928Y-16388929D01*
X16035357Y-16403214D01*
X15992500Y-16403214D01*
X16263928Y-16403214D02*
X16235357Y-16388929D01*
X16221071Y-16360357D01*
X16221071Y-16103214D01*
X16492500Y-16388929D02*
X16463928Y-16403214D01*
X16406786Y-16403214D01*
X16378214Y-16388929D01*
X16363928Y-16360357D01*
X16363928Y-16246071D01*
X16378214Y-16217500D01*
X16406786Y-16203214D01*
X16463928Y-16203214D01*
X16492500Y-16217500D01*
X16506786Y-16246071D01*
X16506786Y-16274643D01*
X16363928Y-16303214D01*
X16621071Y-16388929D02*
X16649643Y-16403214D01*
X16706786Y-16403214D01*
X16735357Y-16388929D01*
X16749643Y-16360357D01*
X16749643Y-16346071D01*
X16735357Y-16317500D01*
X16706786Y-16303214D01*
X16663928Y-16303214D01*
X16635357Y-16288929D01*
X16621071Y-16260357D01*
X16621071Y-16246071D01*
X16635357Y-16217500D01*
X16663928Y-16203214D01*
X16706786Y-16203214D01*
X16735357Y-16217500D01*
X16849643Y-16517500D02*
X16863929Y-16503214D01*
X16892500Y-16460357D01*
X16906786Y-16431786D01*
X16921071Y-16388929D01*
X16935357Y-16317500D01*
X16935357Y-16260357D01*
X16921071Y-16188929D01*
X16906786Y-16146071D01*
X16892500Y-16117500D01*
X16863929Y-16074643D01*
X16849643Y-16060357D01*
X10092500Y-16663500D02*
G75*
G03X10092500Y-16663500I-30000J0D01*
G01*
X10421071Y-16499214D02*
X10449643Y-16499214D01*
X10478214Y-16513500D01*
X10492500Y-16527786D01*
X10506786Y-16556357D01*
X10521071Y-16613500D01*
X10521071Y-16684929D01*
X10506786Y-16742071D01*
X10492500Y-16770643D01*
X10478214Y-16784929D01*
X10449643Y-16799214D01*
X10421071Y-16799214D01*
X10392500Y-16784929D01*
X10378214Y-16770643D01*
X10363929Y-16742071D01*
X10349643Y-16684929D01*
X10349643Y-16613500D01*
X10363929Y-16556357D01*
X10378214Y-16527786D01*
X10392500Y-16513500D01*
X10421071Y-16499214D01*
X10649643Y-16770643D02*
X10663929Y-16784929D01*
X10649643Y-16799214D01*
X10635357Y-16784929D01*
X10649643Y-16770643D01*
X10649643Y-16799214D01*
X10921071Y-16499214D02*
X10863928Y-16499214D01*
X10835357Y-16513500D01*
X10821071Y-16527786D01*
X10792500Y-16570643D01*
X10778214Y-16627786D01*
X10778214Y-16742071D01*
X10792500Y-16770643D01*
X10806786Y-16784929D01*
X10835357Y-16799214D01*
X10892500Y-16799214D01*
X10921071Y-16784929D01*
X10935357Y-16770643D01*
X10949643Y-16742071D01*
X10949643Y-16670643D01*
X10935357Y-16642071D01*
X10921071Y-16627786D01*
X10892500Y-16613500D01*
X10835357Y-16613500D01*
X10806786Y-16627786D01*
X10792500Y-16642071D01*
X10778214Y-16670643D01*
X11135357Y-16499214D02*
X11163929Y-16499214D01*
X11192500Y-16513500D01*
X11206786Y-16527786D01*
X11221071Y-16556357D01*
X11235357Y-16613500D01*
X11235357Y-16684929D01*
X11221071Y-16742071D01*
X11206786Y-16770643D01*
X11192500Y-16784929D01*
X11163929Y-16799214D01*
X11135357Y-16799214D01*
X11106786Y-16784929D01*
X11092500Y-16770643D01*
X11078214Y-16742071D01*
X11063929Y-16684929D01*
X11063929Y-16613500D01*
X11078214Y-16556357D01*
X11092500Y-16527786D01*
X11106786Y-16513500D01*
X11135357Y-16499214D01*
X11363928Y-16799214D02*
X11363928Y-16599214D01*
X11363928Y-16627786D02*
X11378214Y-16613500D01*
X11406786Y-16599214D01*
X11449643Y-16599214D01*
X11478214Y-16613500D01*
X11492500Y-16642071D01*
X11492500Y-16799214D01*
X11492500Y-16642071D02*
X11506786Y-16613500D01*
X11535357Y-16599214D01*
X11578214Y-16599214D01*
X11606786Y-16613500D01*
X11621071Y-16642071D01*
X11621071Y-16799214D01*
X11763928Y-16799214D02*
X11763928Y-16599214D01*
X11763928Y-16627786D02*
X11778214Y-16613500D01*
X11806786Y-16599214D01*
X11849643Y-16599214D01*
X11878214Y-16613500D01*
X11892500Y-16642071D01*
X11892500Y-16799214D01*
X11892500Y-16642071D02*
X11906786Y-16613500D01*
X11935357Y-16599214D01*
X11978214Y-16599214D01*
X12006786Y-16613500D01*
X12021071Y-16642071D01*
X12021071Y-16799214D01*
X12606786Y-16484929D02*
X12349643Y-16870643D01*
X12992500Y-16499214D02*
X13021071Y-16499214D01*
X13049643Y-16513500D01*
X13063928Y-16527786D01*
X13078214Y-16556357D01*
X13092500Y-16613500D01*
X13092500Y-16684929D01*
X13078214Y-16742071D01*
X13063928Y-16770643D01*
X13049643Y-16784929D01*
X13021071Y-16799214D01*
X12992500Y-16799214D01*
X12963928Y-16784929D01*
X12949643Y-16770643D01*
X12935357Y-16742071D01*
X12921071Y-16684929D01*
X12921071Y-16613500D01*
X12935357Y-16556357D01*
X12949643Y-16527786D01*
X12963928Y-16513500D01*
X12992500Y-16499214D01*
X13221071Y-16770643D02*
X13235357Y-16784929D01*
X13221071Y-16799214D01*
X13206786Y-16784929D01*
X13221071Y-16770643D01*
X13221071Y-16799214D01*
X13421071Y-16499214D02*
X13449643Y-16499214D01*
X13478214Y-16513500D01*
X13492500Y-16527786D01*
X13506785Y-16556357D01*
X13521071Y-16613500D01*
X13521071Y-16684929D01*
X13506785Y-16742071D01*
X13492500Y-16770643D01*
X13478214Y-16784929D01*
X13449643Y-16799214D01*
X13421071Y-16799214D01*
X13392500Y-16784929D01*
X13378214Y-16770643D01*
X13363928Y-16742071D01*
X13349643Y-16684929D01*
X13349643Y-16613500D01*
X13363928Y-16556357D01*
X13378214Y-16527786D01*
X13392500Y-16513500D01*
X13421071Y-16499214D01*
X13635357Y-16527786D02*
X13649643Y-16513500D01*
X13678214Y-16499214D01*
X13749643Y-16499214D01*
X13778214Y-16513500D01*
X13792500Y-16527786D01*
X13806785Y-16556357D01*
X13806785Y-16584929D01*
X13792500Y-16627786D01*
X13621071Y-16799214D01*
X13806785Y-16799214D01*
X14063928Y-16599214D02*
X14063928Y-16799214D01*
X13992500Y-16484929D02*
X13921071Y-16699214D01*
X14106785Y-16699214D01*
X14206786Y-16499214D02*
X14206786Y-16556357D01*
X14321071Y-16499214D02*
X14321071Y-16556357D01*
X14763928Y-16913500D02*
X14749643Y-16899214D01*
X14721071Y-16856357D01*
X14706785Y-16827786D01*
X14692500Y-16784929D01*
X14678214Y-16713500D01*
X14678214Y-16656357D01*
X14692500Y-16584929D01*
X14706785Y-16542071D01*
X14721071Y-16513500D01*
X14749643Y-16470643D01*
X14763928Y-16456357D01*
X14863928Y-16527786D02*
X14878214Y-16513500D01*
X14906785Y-16499214D01*
X14978214Y-16499214D01*
X15006785Y-16513500D01*
X15021071Y-16527786D01*
X15035357Y-16556357D01*
X15035357Y-16584929D01*
X15021071Y-16627786D01*
X14849643Y-16799214D01*
X15035357Y-16799214D01*
X15392500Y-16799214D02*
X15392500Y-16499214D01*
X15521071Y-16799214D02*
X15521071Y-16642071D01*
X15506785Y-16613500D01*
X15478214Y-16599214D01*
X15435357Y-16599214D01*
X15406785Y-16613500D01*
X15392500Y-16627786D01*
X15706785Y-16799214D02*
X15678214Y-16784929D01*
X15663928Y-16770643D01*
X15649643Y-16742071D01*
X15649643Y-16656357D01*
X15663928Y-16627786D01*
X15678214Y-16613500D01*
X15706785Y-16599214D01*
X15749643Y-16599214D01*
X15778214Y-16613500D01*
X15792500Y-16627786D01*
X15806785Y-16656357D01*
X15806785Y-16742071D01*
X15792500Y-16770643D01*
X15778214Y-16784929D01*
X15749643Y-16799214D01*
X15706785Y-16799214D01*
X15978214Y-16799214D02*
X15949643Y-16784929D01*
X15935357Y-16756357D01*
X15935357Y-16499214D01*
X16206786Y-16784929D02*
X16178214Y-16799214D01*
X16121071Y-16799214D01*
X16092500Y-16784929D01*
X16078214Y-16756357D01*
X16078214Y-16642071D01*
X16092500Y-16613500D01*
X16121071Y-16599214D01*
X16178214Y-16599214D01*
X16206786Y-16613500D01*
X16221071Y-16642071D01*
X16221071Y-16670643D01*
X16078214Y-16699214D01*
X16335357Y-16784929D02*
X16363928Y-16799214D01*
X16421071Y-16799214D01*
X16449643Y-16784929D01*
X16463928Y-16756357D01*
X16463928Y-16742071D01*
X16449643Y-16713500D01*
X16421071Y-16699214D01*
X16378214Y-16699214D01*
X16349643Y-16684929D01*
X16335357Y-16656357D01*
X16335357Y-16642071D01*
X16349643Y-16613500D01*
X16378214Y-16599214D01*
X16421071Y-16599214D01*
X16449643Y-16613500D01*
X16563928Y-16913500D02*
X16578214Y-16899214D01*
X16606786Y-16856357D01*
X16621071Y-16827786D01*
X16635357Y-16784929D01*
X16649643Y-16713500D01*
X16649643Y-16656357D01*
X16635357Y-16584929D01*
X16621071Y-16542071D01*
X16606786Y-16513500D01*
X16578214Y-16470643D01*
X16563928Y-16456357D01*
X10052500Y-17019500D02*
X10052500Y-17099500D01*
X10012500Y-17059500D02*
X10092500Y-17059500D01*
X10421071Y-16895214D02*
X10449643Y-16895214D01*
X10478214Y-16909500D01*
X10492500Y-16923786D01*
X10506786Y-16952357D01*
X10521071Y-17009500D01*
X10521071Y-17080929D01*
X10506786Y-17138072D01*
X10492500Y-17166643D01*
X10478214Y-17180929D01*
X10449643Y-17195214D01*
X10421071Y-17195214D01*
X10392500Y-17180929D01*
X10378214Y-17166643D01*
X10363929Y-17138072D01*
X10349643Y-17080929D01*
X10349643Y-17009500D01*
X10363929Y-16952357D01*
X10378214Y-16923786D01*
X10392500Y-16909500D01*
X10421071Y-16895214D01*
X10649643Y-17166643D02*
X10663929Y-17180929D01*
X10649643Y-17195214D01*
X10635357Y-17180929D01*
X10649643Y-17166643D01*
X10649643Y-17195214D01*
X10835357Y-17023786D02*
X10806786Y-17009500D01*
X10792500Y-16995214D01*
X10778214Y-16966643D01*
X10778214Y-16952357D01*
X10792500Y-16923786D01*
X10806786Y-16909500D01*
X10835357Y-16895214D01*
X10892500Y-16895214D01*
X10921071Y-16909500D01*
X10935357Y-16923786D01*
X10949643Y-16952357D01*
X10949643Y-16966643D01*
X10935357Y-16995214D01*
X10921071Y-17009500D01*
X10892500Y-17023786D01*
X10835357Y-17023786D01*
X10806786Y-17038072D01*
X10792500Y-17052357D01*
X10778214Y-17080929D01*
X10778214Y-17138072D01*
X10792500Y-17166643D01*
X10806786Y-17180929D01*
X10835357Y-17195214D01*
X10892500Y-17195214D01*
X10921071Y-17180929D01*
X10935357Y-17166643D01*
X10949643Y-17138072D01*
X10949643Y-17080929D01*
X10935357Y-17052357D01*
X10921071Y-17038072D01*
X10892500Y-17023786D01*
X11135357Y-16895214D02*
X11163929Y-16895214D01*
X11192500Y-16909500D01*
X11206786Y-16923786D01*
X11221071Y-16952357D01*
X11235357Y-17009500D01*
X11235357Y-17080929D01*
X11221071Y-17138072D01*
X11206786Y-17166643D01*
X11192500Y-17180929D01*
X11163929Y-17195214D01*
X11135357Y-17195214D01*
X11106786Y-17180929D01*
X11092500Y-17166643D01*
X11078214Y-17138072D01*
X11063929Y-17080929D01*
X11063929Y-17009500D01*
X11078214Y-16952357D01*
X11092500Y-16923786D01*
X11106786Y-16909500D01*
X11135357Y-16895214D01*
X11363928Y-17195214D02*
X11363928Y-16995214D01*
X11363928Y-17023786D02*
X11378214Y-17009500D01*
X11406786Y-16995214D01*
X11449643Y-16995214D01*
X11478214Y-17009500D01*
X11492500Y-17038072D01*
X11492500Y-17195214D01*
X11492500Y-17038072D02*
X11506786Y-17009500D01*
X11535357Y-16995214D01*
X11578214Y-16995214D01*
X11606786Y-17009500D01*
X11621071Y-17038072D01*
X11621071Y-17195214D01*
X11763928Y-17195214D02*
X11763928Y-16995214D01*
X11763928Y-17023786D02*
X11778214Y-17009500D01*
X11806786Y-16995214D01*
X11849643Y-16995214D01*
X11878214Y-17009500D01*
X11892500Y-17038072D01*
X11892500Y-17195214D01*
X11892500Y-17038072D02*
X11906786Y-17009500D01*
X11935357Y-16995214D01*
X11978214Y-16995214D01*
X12006786Y-17009500D01*
X12021071Y-17038072D01*
X12021071Y-17195214D01*
X12606786Y-16880929D02*
X12349643Y-17266643D01*
X12992500Y-16895214D02*
X13021071Y-16895214D01*
X13049643Y-16909500D01*
X13063928Y-16923786D01*
X13078214Y-16952357D01*
X13092500Y-17009500D01*
X13092500Y-17080929D01*
X13078214Y-17138072D01*
X13063928Y-17166643D01*
X13049643Y-17180929D01*
X13021071Y-17195214D01*
X12992500Y-17195214D01*
X12963928Y-17180929D01*
X12949643Y-17166643D01*
X12935357Y-17138072D01*
X12921071Y-17080929D01*
X12921071Y-17009500D01*
X12935357Y-16952357D01*
X12949643Y-16923786D01*
X12963928Y-16909500D01*
X12992500Y-16895214D01*
X13221071Y-17166643D02*
X13235357Y-17180929D01*
X13221071Y-17195214D01*
X13206786Y-17180929D01*
X13221071Y-17166643D01*
X13221071Y-17195214D01*
X13421071Y-16895214D02*
X13449643Y-16895214D01*
X13478214Y-16909500D01*
X13492500Y-16923786D01*
X13506785Y-16952357D01*
X13521071Y-17009500D01*
X13521071Y-17080929D01*
X13506785Y-17138072D01*
X13492500Y-17166643D01*
X13478214Y-17180929D01*
X13449643Y-17195214D01*
X13421071Y-17195214D01*
X13392500Y-17180929D01*
X13378214Y-17166643D01*
X13363928Y-17138072D01*
X13349643Y-17080929D01*
X13349643Y-17009500D01*
X13363928Y-16952357D01*
X13378214Y-16923786D01*
X13392500Y-16909500D01*
X13421071Y-16895214D01*
X13621071Y-16895214D02*
X13806785Y-16895214D01*
X13706785Y-17009500D01*
X13749643Y-17009500D01*
X13778214Y-17023786D01*
X13792500Y-17038072D01*
X13806785Y-17066643D01*
X13806785Y-17138072D01*
X13792500Y-17166643D01*
X13778214Y-17180929D01*
X13749643Y-17195214D01*
X13663928Y-17195214D01*
X13635357Y-17180929D01*
X13621071Y-17166643D01*
X14092500Y-17195214D02*
X13921071Y-17195214D01*
X14006785Y-17195214D02*
X14006785Y-16895214D01*
X13978214Y-16938072D01*
X13949643Y-16966643D01*
X13921071Y-16980929D01*
X14206786Y-16895214D02*
X14206786Y-16952357D01*
X14321071Y-16895214D02*
X14321071Y-16952357D01*
X14763928Y-17309500D02*
X14749643Y-17295214D01*
X14721071Y-17252357D01*
X14706785Y-17223786D01*
X14692500Y-17180929D01*
X14678214Y-17109500D01*
X14678214Y-17052357D01*
X14692500Y-16980929D01*
X14706785Y-16938072D01*
X14721071Y-16909500D01*
X14749643Y-16866643D01*
X14763928Y-16852357D01*
X14863928Y-16923786D02*
X14878214Y-16909500D01*
X14906785Y-16895214D01*
X14978214Y-16895214D01*
X15006785Y-16909500D01*
X15021071Y-16923786D01*
X15035357Y-16952357D01*
X15035357Y-16980929D01*
X15021071Y-17023786D01*
X14849643Y-17195214D01*
X15035357Y-17195214D01*
X15149643Y-16923786D02*
X15163928Y-16909500D01*
X15192500Y-16895214D01*
X15263928Y-16895214D01*
X15292500Y-16909500D01*
X15306785Y-16923786D01*
X15321071Y-16952357D01*
X15321071Y-16980929D01*
X15306785Y-17023786D01*
X15135357Y-17195214D01*
X15321071Y-17195214D01*
X15678214Y-17195214D02*
X15678214Y-16895214D01*
X15806785Y-17195214D02*
X15806785Y-17038072D01*
X15792500Y-17009500D01*
X15763928Y-16995214D01*
X15721071Y-16995214D01*
X15692500Y-17009500D01*
X15678214Y-17023786D01*
X15992500Y-17195214D02*
X15963928Y-17180929D01*
X15949643Y-17166643D01*
X15935357Y-17138072D01*
X15935357Y-17052357D01*
X15949643Y-17023786D01*
X15963928Y-17009500D01*
X15992500Y-16995214D01*
X16035357Y-16995214D01*
X16063928Y-17009500D01*
X16078214Y-17023786D01*
X16092500Y-17052357D01*
X16092500Y-17138072D01*
X16078214Y-17166643D01*
X16063928Y-17180929D01*
X16035357Y-17195214D01*
X15992500Y-17195214D01*
X16263928Y-17195214D02*
X16235357Y-17180929D01*
X16221071Y-17152357D01*
X16221071Y-16895214D01*
X16492500Y-17180929D02*
X16463928Y-17195214D01*
X16406786Y-17195214D01*
X16378214Y-17180929D01*
X16363928Y-17152357D01*
X16363928Y-17038072D01*
X16378214Y-17009500D01*
X16406786Y-16995214D01*
X16463928Y-16995214D01*
X16492500Y-17009500D01*
X16506786Y-17038072D01*
X16506786Y-17066643D01*
X16363928Y-17095214D01*
X16621071Y-17180929D02*
X16649643Y-17195214D01*
X16706786Y-17195214D01*
X16735357Y-17180929D01*
X16749643Y-17152357D01*
X16749643Y-17138072D01*
X16735357Y-17109500D01*
X16706786Y-17095214D01*
X16663928Y-17095214D01*
X16635357Y-17080929D01*
X16621071Y-17052357D01*
X16621071Y-17038072D01*
X16635357Y-17009500D01*
X16663928Y-16995214D01*
X16706786Y-16995214D01*
X16735357Y-17009500D01*
X16849643Y-17309500D02*
X16863929Y-17295214D01*
X16892500Y-17252357D01*
X16906786Y-17223786D01*
X16921071Y-17180929D01*
X16935357Y-17109500D01*
X16935357Y-17052357D01*
X16921071Y-16980929D01*
X16906786Y-16938072D01*
X16892500Y-16909500D01*
X16863929Y-16866643D01*
X16849643Y-16852357D01*
X10079320Y-17487320D02*
X10079320Y-17423680D01*
X10015680Y-17423680D01*
X10015680Y-17487320D01*
X10079320Y-17487320D01*
X10421071Y-17291214D02*
X10449643Y-17291214D01*
X10478214Y-17305500D01*
X10492500Y-17319786D01*
X10506786Y-17348357D01*
X10521071Y-17405500D01*
X10521071Y-17476929D01*
X10506786Y-17534072D01*
X10492500Y-17562643D01*
X10478214Y-17576929D01*
X10449643Y-17591214D01*
X10421071Y-17591214D01*
X10392500Y-17576929D01*
X10378214Y-17562643D01*
X10363929Y-17534072D01*
X10349643Y-17476929D01*
X10349643Y-17405500D01*
X10363929Y-17348357D01*
X10378214Y-17319786D01*
X10392500Y-17305500D01*
X10421071Y-17291214D01*
X10649643Y-17562643D02*
X10663929Y-17576929D01*
X10649643Y-17591214D01*
X10635357Y-17576929D01*
X10649643Y-17562643D01*
X10649643Y-17591214D01*
X10806786Y-17591214D02*
X10863928Y-17591214D01*
X10892500Y-17576929D01*
X10906786Y-17562643D01*
X10935357Y-17519786D01*
X10949643Y-17462643D01*
X10949643Y-17348357D01*
X10935357Y-17319786D01*
X10921071Y-17305500D01*
X10892500Y-17291214D01*
X10835357Y-17291214D01*
X10806786Y-17305500D01*
X10792500Y-17319786D01*
X10778214Y-17348357D01*
X10778214Y-17419786D01*
X10792500Y-17448357D01*
X10806786Y-17462643D01*
X10835357Y-17476929D01*
X10892500Y-17476929D01*
X10921071Y-17462643D01*
X10935357Y-17448357D01*
X10949643Y-17419786D01*
X11135357Y-17291214D02*
X11163929Y-17291214D01*
X11192500Y-17305500D01*
X11206786Y-17319786D01*
X11221071Y-17348357D01*
X11235357Y-17405500D01*
X11235357Y-17476929D01*
X11221071Y-17534072D01*
X11206786Y-17562643D01*
X11192500Y-17576929D01*
X11163929Y-17591214D01*
X11135357Y-17591214D01*
X11106786Y-17576929D01*
X11092500Y-17562643D01*
X11078214Y-17534072D01*
X11063929Y-17476929D01*
X11063929Y-17405500D01*
X11078214Y-17348357D01*
X11092500Y-17319786D01*
X11106786Y-17305500D01*
X11135357Y-17291214D01*
X11363928Y-17591214D02*
X11363928Y-17391214D01*
X11363928Y-17419786D02*
X11378214Y-17405500D01*
X11406786Y-17391214D01*
X11449643Y-17391214D01*
X11478214Y-17405500D01*
X11492500Y-17434072D01*
X11492500Y-17591214D01*
X11492500Y-17434072D02*
X11506786Y-17405500D01*
X11535357Y-17391214D01*
X11578214Y-17391214D01*
X11606786Y-17405500D01*
X11621071Y-17434072D01*
X11621071Y-17591214D01*
X11763928Y-17591214D02*
X11763928Y-17391214D01*
X11763928Y-17419786D02*
X11778214Y-17405500D01*
X11806786Y-17391214D01*
X11849643Y-17391214D01*
X11878214Y-17405500D01*
X11892500Y-17434072D01*
X11892500Y-17591214D01*
X11892500Y-17434072D02*
X11906786Y-17405500D01*
X11935357Y-17391214D01*
X11978214Y-17391214D01*
X12006786Y-17405500D01*
X12021071Y-17434072D01*
X12021071Y-17591214D01*
X12606786Y-17276929D02*
X12349643Y-17662643D01*
X12992500Y-17291214D02*
X13021071Y-17291214D01*
X13049643Y-17305500D01*
X13063928Y-17319786D01*
X13078214Y-17348357D01*
X13092500Y-17405500D01*
X13092500Y-17476929D01*
X13078214Y-17534072D01*
X13063928Y-17562643D01*
X13049643Y-17576929D01*
X13021071Y-17591214D01*
X12992500Y-17591214D01*
X12963928Y-17576929D01*
X12949643Y-17562643D01*
X12935357Y-17534072D01*
X12921071Y-17476929D01*
X12921071Y-17405500D01*
X12935357Y-17348357D01*
X12949643Y-17319786D01*
X12963928Y-17305500D01*
X12992500Y-17291214D01*
X13221071Y-17562643D02*
X13235357Y-17576929D01*
X13221071Y-17591214D01*
X13206786Y-17576929D01*
X13221071Y-17562643D01*
X13221071Y-17591214D01*
X13421071Y-17291214D02*
X13449643Y-17291214D01*
X13478214Y-17305500D01*
X13492500Y-17319786D01*
X13506785Y-17348357D01*
X13521071Y-17405500D01*
X13521071Y-17476929D01*
X13506785Y-17534072D01*
X13492500Y-17562643D01*
X13478214Y-17576929D01*
X13449643Y-17591214D01*
X13421071Y-17591214D01*
X13392500Y-17576929D01*
X13378214Y-17562643D01*
X13363928Y-17534072D01*
X13349643Y-17476929D01*
X13349643Y-17405500D01*
X13363928Y-17348357D01*
X13378214Y-17319786D01*
X13392500Y-17305500D01*
X13421071Y-17291214D01*
X13621071Y-17291214D02*
X13806785Y-17291214D01*
X13706785Y-17405500D01*
X13749643Y-17405500D01*
X13778214Y-17419786D01*
X13792500Y-17434072D01*
X13806785Y-17462643D01*
X13806785Y-17534072D01*
X13792500Y-17562643D01*
X13778214Y-17576929D01*
X13749643Y-17591214D01*
X13663928Y-17591214D01*
X13635357Y-17576929D01*
X13621071Y-17562643D01*
X14078214Y-17291214D02*
X13935357Y-17291214D01*
X13921071Y-17434072D01*
X13935357Y-17419786D01*
X13963928Y-17405500D01*
X14035357Y-17405500D01*
X14063928Y-17419786D01*
X14078214Y-17434072D01*
X14092500Y-17462643D01*
X14092500Y-17534072D01*
X14078214Y-17562643D01*
X14063928Y-17576929D01*
X14035357Y-17591214D01*
X13963928Y-17591214D01*
X13935357Y-17576929D01*
X13921071Y-17562643D01*
X14206786Y-17291214D02*
X14206786Y-17348357D01*
X14321071Y-17291214D02*
X14321071Y-17348357D01*
X14763928Y-17705500D02*
X14749643Y-17691214D01*
X14721071Y-17648357D01*
X14706785Y-17619786D01*
X14692500Y-17576929D01*
X14678214Y-17505500D01*
X14678214Y-17448357D01*
X14692500Y-17376929D01*
X14706785Y-17334072D01*
X14721071Y-17305500D01*
X14749643Y-17262643D01*
X14763928Y-17248357D01*
X15035357Y-17591214D02*
X14863928Y-17591214D01*
X14949643Y-17591214D02*
X14949643Y-17291214D01*
X14921071Y-17334072D01*
X14892500Y-17362643D01*
X14863928Y-17376929D01*
X15221071Y-17291214D02*
X15249643Y-17291214D01*
X15278214Y-17305500D01*
X15292500Y-17319786D01*
X15306785Y-17348357D01*
X15321071Y-17405500D01*
X15321071Y-17476929D01*
X15306785Y-17534072D01*
X15292500Y-17562643D01*
X15278214Y-17576929D01*
X15249643Y-17591214D01*
X15221071Y-17591214D01*
X15192500Y-17576929D01*
X15178214Y-17562643D01*
X15163928Y-17534072D01*
X15149643Y-17476929D01*
X15149643Y-17405500D01*
X15163928Y-17348357D01*
X15178214Y-17319786D01*
X15192500Y-17305500D01*
X15221071Y-17291214D01*
X15678214Y-17591214D02*
X15678214Y-17291214D01*
X15806785Y-17591214D02*
X15806785Y-17434072D01*
X15792500Y-17405500D01*
X15763928Y-17391214D01*
X15721071Y-17391214D01*
X15692500Y-17405500D01*
X15678214Y-17419786D01*
X15992500Y-17591214D02*
X15963928Y-17576929D01*
X15949643Y-17562643D01*
X15935357Y-17534072D01*
X15935357Y-17448357D01*
X15949643Y-17419786D01*
X15963928Y-17405500D01*
X15992500Y-17391214D01*
X16035357Y-17391214D01*
X16063928Y-17405500D01*
X16078214Y-17419786D01*
X16092500Y-17448357D01*
X16092500Y-17534072D01*
X16078214Y-17562643D01*
X16063928Y-17576929D01*
X16035357Y-17591214D01*
X15992500Y-17591214D01*
X16263928Y-17591214D02*
X16235357Y-17576929D01*
X16221071Y-17548357D01*
X16221071Y-17291214D01*
X16492500Y-17576929D02*
X16463928Y-17591214D01*
X16406786Y-17591214D01*
X16378214Y-17576929D01*
X16363928Y-17548357D01*
X16363928Y-17434072D01*
X16378214Y-17405500D01*
X16406786Y-17391214D01*
X16463928Y-17391214D01*
X16492500Y-17405500D01*
X16506786Y-17434072D01*
X16506786Y-17462643D01*
X16363928Y-17491214D01*
X16621071Y-17576929D02*
X16649643Y-17591214D01*
X16706786Y-17591214D01*
X16735357Y-17576929D01*
X16749643Y-17548357D01*
X16749643Y-17534072D01*
X16735357Y-17505500D01*
X16706786Y-17491214D01*
X16663928Y-17491214D01*
X16635357Y-17476929D01*
X16621071Y-17448357D01*
X16621071Y-17434072D01*
X16635357Y-17405500D01*
X16663928Y-17391214D01*
X16706786Y-17391214D01*
X16735357Y-17405500D01*
X16849643Y-17705500D02*
X16863929Y-17691214D01*
X16892500Y-17648357D01*
X16906786Y-17619786D01*
X16921071Y-17576929D01*
X16935357Y-17505500D01*
X16935357Y-17448357D01*
X16921071Y-17376929D01*
X16906786Y-17334072D01*
X16892500Y-17305500D01*
X16863929Y-17262643D01*
X16849643Y-17248357D01*
X10042500Y-17901500D02*
X10092500Y-17851500D01*
X10042500Y-17801500D01*
X9992500Y-17851500D01*
X10042500Y-17901500D01*
X10521071Y-17987214D02*
X10349643Y-17987214D01*
X10435357Y-17987214D02*
X10435357Y-17687214D01*
X10406786Y-17730072D01*
X10378214Y-17758643D01*
X10349643Y-17772929D01*
X10649643Y-17958643D02*
X10663929Y-17972929D01*
X10649643Y-17987214D01*
X10635357Y-17972929D01*
X10649643Y-17958643D01*
X10649643Y-17987214D01*
X10849643Y-17687214D02*
X10878214Y-17687214D01*
X10906786Y-17701500D01*
X10921071Y-17715786D01*
X10935357Y-17744357D01*
X10949643Y-17801500D01*
X10949643Y-17872929D01*
X10935357Y-17930072D01*
X10921071Y-17958643D01*
X10906786Y-17972929D01*
X10878214Y-17987214D01*
X10849643Y-17987214D01*
X10821071Y-17972929D01*
X10806786Y-17958643D01*
X10792500Y-17930072D01*
X10778214Y-17872929D01*
X10778214Y-17801500D01*
X10792500Y-17744357D01*
X10806786Y-17715786D01*
X10821071Y-17701500D01*
X10849643Y-17687214D01*
X11135357Y-17687214D02*
X11163929Y-17687214D01*
X11192500Y-17701500D01*
X11206786Y-17715786D01*
X11221071Y-17744357D01*
X11235357Y-17801500D01*
X11235357Y-17872929D01*
X11221071Y-17930072D01*
X11206786Y-17958643D01*
X11192500Y-17972929D01*
X11163929Y-17987214D01*
X11135357Y-17987214D01*
X11106786Y-17972929D01*
X11092500Y-17958643D01*
X11078214Y-17930072D01*
X11063929Y-17872929D01*
X11063929Y-17801500D01*
X11078214Y-17744357D01*
X11092500Y-17715786D01*
X11106786Y-17701500D01*
X11135357Y-17687214D01*
X11363928Y-17987214D02*
X11363928Y-17787214D01*
X11363928Y-17815786D02*
X11378214Y-17801500D01*
X11406786Y-17787214D01*
X11449643Y-17787214D01*
X11478214Y-17801500D01*
X11492500Y-17830072D01*
X11492500Y-17987214D01*
X11492500Y-17830072D02*
X11506786Y-17801500D01*
X11535357Y-17787214D01*
X11578214Y-17787214D01*
X11606786Y-17801500D01*
X11621071Y-17830072D01*
X11621071Y-17987214D01*
X11763928Y-17987214D02*
X11763928Y-17787214D01*
X11763928Y-17815786D02*
X11778214Y-17801500D01*
X11806786Y-17787214D01*
X11849643Y-17787214D01*
X11878214Y-17801500D01*
X11892500Y-17830072D01*
X11892500Y-17987214D01*
X11892500Y-17830072D02*
X11906786Y-17801500D01*
X11935357Y-17787214D01*
X11978214Y-17787214D01*
X12006786Y-17801500D01*
X12021071Y-17830072D01*
X12021071Y-17987214D01*
X12606786Y-17672929D02*
X12349643Y-18058643D01*
X12992500Y-17687214D02*
X13021071Y-17687214D01*
X13049643Y-17701500D01*
X13063928Y-17715786D01*
X13078214Y-17744357D01*
X13092500Y-17801500D01*
X13092500Y-17872929D01*
X13078214Y-17930072D01*
X13063928Y-17958643D01*
X13049643Y-17972929D01*
X13021071Y-17987214D01*
X12992500Y-17987214D01*
X12963928Y-17972929D01*
X12949643Y-17958643D01*
X12935357Y-17930072D01*
X12921071Y-17872929D01*
X12921071Y-17801500D01*
X12935357Y-17744357D01*
X12949643Y-17715786D01*
X12963928Y-17701500D01*
X12992500Y-17687214D01*
X13221071Y-17958643D02*
X13235357Y-17972929D01*
X13221071Y-17987214D01*
X13206786Y-17972929D01*
X13221071Y-17958643D01*
X13221071Y-17987214D01*
X13421071Y-17687214D02*
X13449643Y-17687214D01*
X13478214Y-17701500D01*
X13492500Y-17715786D01*
X13506785Y-17744357D01*
X13521071Y-17801500D01*
X13521071Y-17872929D01*
X13506785Y-17930072D01*
X13492500Y-17958643D01*
X13478214Y-17972929D01*
X13449643Y-17987214D01*
X13421071Y-17987214D01*
X13392500Y-17972929D01*
X13378214Y-17958643D01*
X13363928Y-17930072D01*
X13349643Y-17872929D01*
X13349643Y-17801500D01*
X13363928Y-17744357D01*
X13378214Y-17715786D01*
X13392500Y-17701500D01*
X13421071Y-17687214D01*
X13621071Y-17687214D02*
X13806785Y-17687214D01*
X13706785Y-17801500D01*
X13749643Y-17801500D01*
X13778214Y-17815786D01*
X13792500Y-17830072D01*
X13806785Y-17858643D01*
X13806785Y-17930072D01*
X13792500Y-17958643D01*
X13778214Y-17972929D01*
X13749643Y-17987214D01*
X13663928Y-17987214D01*
X13635357Y-17972929D01*
X13621071Y-17958643D01*
X13949643Y-17987214D02*
X14006785Y-17987214D01*
X14035357Y-17972929D01*
X14049643Y-17958643D01*
X14078214Y-17915786D01*
X14092500Y-17858643D01*
X14092500Y-17744357D01*
X14078214Y-17715786D01*
X14063928Y-17701500D01*
X14035357Y-17687214D01*
X13978214Y-17687214D01*
X13949643Y-17701500D01*
X13935357Y-17715786D01*
X13921071Y-17744357D01*
X13921071Y-17815786D01*
X13935357Y-17844357D01*
X13949643Y-17858643D01*
X13978214Y-17872929D01*
X14035357Y-17872929D01*
X14063928Y-17858643D01*
X14078214Y-17844357D01*
X14092500Y-17815786D01*
X14206786Y-17687214D02*
X14206786Y-17744357D01*
X14321071Y-17687214D02*
X14321071Y-17744357D01*
X14763928Y-18101500D02*
X14749643Y-18087214D01*
X14721071Y-18044357D01*
X14706785Y-18015786D01*
X14692500Y-17972929D01*
X14678214Y-17901500D01*
X14678214Y-17844357D01*
X14692500Y-17772929D01*
X14706785Y-17730072D01*
X14721071Y-17701500D01*
X14749643Y-17658643D01*
X14763928Y-17644357D01*
X15021071Y-17687214D02*
X14878214Y-17687214D01*
X14863928Y-17830072D01*
X14878214Y-17815786D01*
X14906785Y-17801500D01*
X14978214Y-17801500D01*
X15006785Y-17815786D01*
X15021071Y-17830072D01*
X15035357Y-17858643D01*
X15035357Y-17930072D01*
X15021071Y-17958643D01*
X15006785Y-17972929D01*
X14978214Y-17987214D01*
X14906785Y-17987214D01*
X14878214Y-17972929D01*
X14863928Y-17958643D01*
X15135357Y-17687214D02*
X15321071Y-17687214D01*
X15221071Y-17801500D01*
X15263928Y-17801500D01*
X15292500Y-17815786D01*
X15306785Y-17830072D01*
X15321071Y-17858643D01*
X15321071Y-17930072D01*
X15306785Y-17958643D01*
X15292500Y-17972929D01*
X15263928Y-17987214D01*
X15178214Y-17987214D01*
X15149643Y-17972929D01*
X15135357Y-17958643D01*
X15678214Y-17987214D02*
X15678214Y-17687214D01*
X15806785Y-17987214D02*
X15806785Y-17830072D01*
X15792500Y-17801500D01*
X15763928Y-17787214D01*
X15721071Y-17787214D01*
X15692500Y-17801500D01*
X15678214Y-17815786D01*
X15992500Y-17987214D02*
X15963928Y-17972929D01*
X15949643Y-17958643D01*
X15935357Y-17930072D01*
X15935357Y-17844357D01*
X15949643Y-17815786D01*
X15963928Y-17801500D01*
X15992500Y-17787214D01*
X16035357Y-17787214D01*
X16063928Y-17801500D01*
X16078214Y-17815786D01*
X16092500Y-17844357D01*
X16092500Y-17930072D01*
X16078214Y-17958643D01*
X16063928Y-17972929D01*
X16035357Y-17987214D01*
X15992500Y-17987214D01*
X16263928Y-17987214D02*
X16235357Y-17972929D01*
X16221071Y-17944357D01*
X16221071Y-17687214D01*
X16492500Y-17972929D02*
X16463928Y-17987214D01*
X16406786Y-17987214D01*
X16378214Y-17972929D01*
X16363928Y-17944357D01*
X16363928Y-17830072D01*
X16378214Y-17801500D01*
X16406786Y-17787214D01*
X16463928Y-17787214D01*
X16492500Y-17801500D01*
X16506786Y-17830072D01*
X16506786Y-17858643D01*
X16363928Y-17887214D01*
X16621071Y-17972929D02*
X16649643Y-17987214D01*
X16706786Y-17987214D01*
X16735357Y-17972929D01*
X16749643Y-17944357D01*
X16749643Y-17930072D01*
X16735357Y-17901500D01*
X16706786Y-17887214D01*
X16663928Y-17887214D01*
X16635357Y-17872929D01*
X16621071Y-17844357D01*
X16621071Y-17830072D01*
X16635357Y-17801500D01*
X16663928Y-17787214D01*
X16706786Y-17787214D01*
X16735357Y-17801500D01*
X16849643Y-18101500D02*
X16863929Y-18087214D01*
X16892500Y-18044357D01*
X16906786Y-18015786D01*
X16921071Y-17972929D01*
X16935357Y-17901500D01*
X16935357Y-17844357D01*
X16921071Y-17772929D01*
X16906786Y-17730072D01*
X16892500Y-17701500D01*
X16863929Y-17658643D01*
X16849643Y-17644357D01*
X9982500Y-18192500D02*
X10092500Y-18302500D01*
X10092500Y-18192500D02*
X9982500Y-18302500D01*
X10092500Y-18247500D02*
G75*
G03X10092500Y-18247500I-55000J0D01*
G01*
X10521071Y-18383214D02*
X10349643Y-18383214D01*
X10435357Y-18383214D02*
X10435357Y-18083214D01*
X10406786Y-18126072D01*
X10378214Y-18154643D01*
X10349643Y-18168929D01*
X10649643Y-18354643D02*
X10663929Y-18368929D01*
X10649643Y-18383214D01*
X10635357Y-18368929D01*
X10649643Y-18354643D01*
X10649643Y-18383214D01*
X10949643Y-18383214D02*
X10778214Y-18383214D01*
X10863928Y-18383214D02*
X10863928Y-18083214D01*
X10835357Y-18126072D01*
X10806786Y-18154643D01*
X10778214Y-18168929D01*
X11135357Y-18083214D02*
X11163929Y-18083214D01*
X11192500Y-18097500D01*
X11206786Y-18111786D01*
X11221071Y-18140357D01*
X11235357Y-18197500D01*
X11235357Y-18268929D01*
X11221071Y-18326072D01*
X11206786Y-18354643D01*
X11192500Y-18368929D01*
X11163929Y-18383214D01*
X11135357Y-18383214D01*
X11106786Y-18368929D01*
X11092500Y-18354643D01*
X11078214Y-18326072D01*
X11063929Y-18268929D01*
X11063929Y-18197500D01*
X11078214Y-18140357D01*
X11092500Y-18111786D01*
X11106786Y-18097500D01*
X11135357Y-18083214D01*
X11363928Y-18383214D02*
X11363928Y-18183214D01*
X11363928Y-18211786D02*
X11378214Y-18197500D01*
X11406786Y-18183214D01*
X11449643Y-18183214D01*
X11478214Y-18197500D01*
X11492500Y-18226072D01*
X11492500Y-18383214D01*
X11492500Y-18226072D02*
X11506786Y-18197500D01*
X11535357Y-18183214D01*
X11578214Y-18183214D01*
X11606786Y-18197500D01*
X11621071Y-18226072D01*
X11621071Y-18383214D01*
X11763928Y-18383214D02*
X11763928Y-18183214D01*
X11763928Y-18211786D02*
X11778214Y-18197500D01*
X11806786Y-18183214D01*
X11849643Y-18183214D01*
X11878214Y-18197500D01*
X11892500Y-18226072D01*
X11892500Y-18383214D01*
X11892500Y-18226072D02*
X11906786Y-18197500D01*
X11935357Y-18183214D01*
X11978214Y-18183214D01*
X12006786Y-18197500D01*
X12021071Y-18226072D01*
X12021071Y-18383214D01*
X12606786Y-18068929D02*
X12349643Y-18454643D01*
X12992500Y-18083214D02*
X13021071Y-18083214D01*
X13049643Y-18097500D01*
X13063928Y-18111786D01*
X13078214Y-18140357D01*
X13092500Y-18197500D01*
X13092500Y-18268929D01*
X13078214Y-18326072D01*
X13063928Y-18354643D01*
X13049643Y-18368929D01*
X13021071Y-18383214D01*
X12992500Y-18383214D01*
X12963928Y-18368929D01*
X12949643Y-18354643D01*
X12935357Y-18326072D01*
X12921071Y-18268929D01*
X12921071Y-18197500D01*
X12935357Y-18140357D01*
X12949643Y-18111786D01*
X12963928Y-18097500D01*
X12992500Y-18083214D01*
X13221071Y-18354643D02*
X13235357Y-18368929D01*
X13221071Y-18383214D01*
X13206786Y-18368929D01*
X13221071Y-18354643D01*
X13221071Y-18383214D01*
X13421071Y-18083214D02*
X13449643Y-18083214D01*
X13478214Y-18097500D01*
X13492500Y-18111786D01*
X13506785Y-18140357D01*
X13521071Y-18197500D01*
X13521071Y-18268929D01*
X13506785Y-18326072D01*
X13492500Y-18354643D01*
X13478214Y-18368929D01*
X13449643Y-18383214D01*
X13421071Y-18383214D01*
X13392500Y-18368929D01*
X13378214Y-18354643D01*
X13363928Y-18326072D01*
X13349643Y-18268929D01*
X13349643Y-18197500D01*
X13363928Y-18140357D01*
X13378214Y-18111786D01*
X13392500Y-18097500D01*
X13421071Y-18083214D01*
X13778214Y-18183214D02*
X13778214Y-18383214D01*
X13706785Y-18068929D02*
X13635357Y-18283214D01*
X13821071Y-18283214D01*
X13906785Y-18083214D02*
X14092500Y-18083214D01*
X13992500Y-18197500D01*
X14035357Y-18197500D01*
X14063928Y-18211786D01*
X14078214Y-18226072D01*
X14092500Y-18254643D01*
X14092500Y-18326072D01*
X14078214Y-18354643D01*
X14063928Y-18368929D01*
X14035357Y-18383214D01*
X13949643Y-18383214D01*
X13921071Y-18368929D01*
X13906785Y-18354643D01*
X14206786Y-18083214D02*
X14206786Y-18140357D01*
X14321071Y-18083214D02*
X14321071Y-18140357D01*
X14763928Y-18497500D02*
X14749643Y-18483214D01*
X14721071Y-18440357D01*
X14706785Y-18411786D01*
X14692500Y-18368929D01*
X14678214Y-18297500D01*
X14678214Y-18240357D01*
X14692500Y-18168929D01*
X14706785Y-18126072D01*
X14721071Y-18097500D01*
X14749643Y-18054643D01*
X14763928Y-18040357D01*
X15006785Y-18183214D02*
X15006785Y-18383214D01*
X14935357Y-18068929D02*
X14863928Y-18283214D01*
X15049643Y-18283214D01*
X15392500Y-18383214D02*
X15392500Y-18083214D01*
X15521071Y-18383214D02*
X15521071Y-18226072D01*
X15506785Y-18197500D01*
X15478214Y-18183214D01*
X15435357Y-18183214D01*
X15406785Y-18197500D01*
X15392500Y-18211786D01*
X15706785Y-18383214D02*
X15678214Y-18368929D01*
X15663928Y-18354643D01*
X15649643Y-18326072D01*
X15649643Y-18240357D01*
X15663928Y-18211786D01*
X15678214Y-18197500D01*
X15706785Y-18183214D01*
X15749643Y-18183214D01*
X15778214Y-18197500D01*
X15792500Y-18211786D01*
X15806785Y-18240357D01*
X15806785Y-18326072D01*
X15792500Y-18354643D01*
X15778214Y-18368929D01*
X15749643Y-18383214D01*
X15706785Y-18383214D01*
X15978214Y-18383214D02*
X15949643Y-18368929D01*
X15935357Y-18340357D01*
X15935357Y-18083214D01*
X16206786Y-18368929D02*
X16178214Y-18383214D01*
X16121071Y-18383214D01*
X16092500Y-18368929D01*
X16078214Y-18340357D01*
X16078214Y-18226072D01*
X16092500Y-18197500D01*
X16121071Y-18183214D01*
X16178214Y-18183214D01*
X16206786Y-18197500D01*
X16221071Y-18226072D01*
X16221071Y-18254643D01*
X16078214Y-18283214D01*
X16335357Y-18368929D02*
X16363928Y-18383214D01*
X16421071Y-18383214D01*
X16449643Y-18368929D01*
X16463928Y-18340357D01*
X16463928Y-18326072D01*
X16449643Y-18297500D01*
X16421071Y-18283214D01*
X16378214Y-18283214D01*
X16349643Y-18268929D01*
X16335357Y-18240357D01*
X16335357Y-18226072D01*
X16349643Y-18197500D01*
X16378214Y-18183214D01*
X16421071Y-18183214D01*
X16449643Y-18197500D01*
X16563928Y-18497500D02*
X16578214Y-18483214D01*
X16606786Y-18440357D01*
X16621071Y-18411786D01*
X16635357Y-18368929D01*
X16649643Y-18297500D01*
X16649643Y-18240357D01*
X16635357Y-18168929D01*
X16621071Y-18126072D01*
X16606786Y-18097500D01*
X16578214Y-18054643D01*
X16563928Y-18040357D01*
X9872500Y-18533500D02*
X10092500Y-18753500D01*
X10092500Y-18533500D02*
X9872500Y-18753500D01*
X9982500Y-18533500D02*
X9982500Y-18753500D01*
X9872500Y-18643500D02*
X10092500Y-18643500D01*
X10349643Y-18507786D02*
X10363929Y-18493500D01*
X10392500Y-18479214D01*
X10463929Y-18479214D01*
X10492500Y-18493500D01*
X10506786Y-18507786D01*
X10521071Y-18536357D01*
X10521071Y-18564929D01*
X10506786Y-18607786D01*
X10335357Y-18779214D01*
X10521071Y-18779214D01*
X10649643Y-18750643D02*
X10663929Y-18764929D01*
X10649643Y-18779214D01*
X10635357Y-18764929D01*
X10649643Y-18750643D01*
X10649643Y-18779214D01*
X10778214Y-18507786D02*
X10792500Y-18493500D01*
X10821071Y-18479214D01*
X10892500Y-18479214D01*
X10921071Y-18493500D01*
X10935357Y-18507786D01*
X10949643Y-18536357D01*
X10949643Y-18564929D01*
X10935357Y-18607786D01*
X10763928Y-18779214D01*
X10949643Y-18779214D01*
X11135357Y-18479214D02*
X11163929Y-18479214D01*
X11192500Y-18493500D01*
X11206786Y-18507786D01*
X11221071Y-18536357D01*
X11235357Y-18593500D01*
X11235357Y-18664929D01*
X11221071Y-18722072D01*
X11206786Y-18750643D01*
X11192500Y-18764929D01*
X11163929Y-18779214D01*
X11135357Y-18779214D01*
X11106786Y-18764929D01*
X11092500Y-18750643D01*
X11078214Y-18722072D01*
X11063929Y-18664929D01*
X11063929Y-18593500D01*
X11078214Y-18536357D01*
X11092500Y-18507786D01*
X11106786Y-18493500D01*
X11135357Y-18479214D01*
X11363928Y-18779214D02*
X11363928Y-18579214D01*
X11363928Y-18607786D02*
X11378214Y-18593500D01*
X11406786Y-18579214D01*
X11449643Y-18579214D01*
X11478214Y-18593500D01*
X11492500Y-18622072D01*
X11492500Y-18779214D01*
X11492500Y-18622072D02*
X11506786Y-18593500D01*
X11535357Y-18579214D01*
X11578214Y-18579214D01*
X11606786Y-18593500D01*
X11621071Y-18622072D01*
X11621071Y-18779214D01*
X11763928Y-18779214D02*
X11763928Y-18579214D01*
X11763928Y-18607786D02*
X11778214Y-18593500D01*
X11806786Y-18579214D01*
X11849643Y-18579214D01*
X11878214Y-18593500D01*
X11892500Y-18622072D01*
X11892500Y-18779214D01*
X11892500Y-18622072D02*
X11906786Y-18593500D01*
X11935357Y-18579214D01*
X11978214Y-18579214D01*
X12006786Y-18593500D01*
X12021071Y-18622072D01*
X12021071Y-18779214D01*
X12606786Y-18464929D02*
X12349643Y-18850643D01*
X12992500Y-18479214D02*
X13021071Y-18479214D01*
X13049643Y-18493500D01*
X13063928Y-18507786D01*
X13078214Y-18536357D01*
X13092500Y-18593500D01*
X13092500Y-18664929D01*
X13078214Y-18722072D01*
X13063928Y-18750643D01*
X13049643Y-18764929D01*
X13021071Y-18779214D01*
X12992500Y-18779214D01*
X12963928Y-18764929D01*
X12949643Y-18750643D01*
X12935357Y-18722072D01*
X12921071Y-18664929D01*
X12921071Y-18593500D01*
X12935357Y-18536357D01*
X12949643Y-18507786D01*
X12963928Y-18493500D01*
X12992500Y-18479214D01*
X13221071Y-18750643D02*
X13235357Y-18764929D01*
X13221071Y-18779214D01*
X13206786Y-18764929D01*
X13221071Y-18750643D01*
X13221071Y-18779214D01*
X13421071Y-18479214D02*
X13449643Y-18479214D01*
X13478214Y-18493500D01*
X13492500Y-18507786D01*
X13506785Y-18536357D01*
X13521071Y-18593500D01*
X13521071Y-18664929D01*
X13506785Y-18722072D01*
X13492500Y-18750643D01*
X13478214Y-18764929D01*
X13449643Y-18779214D01*
X13421071Y-18779214D01*
X13392500Y-18764929D01*
X13378214Y-18750643D01*
X13363928Y-18722072D01*
X13349643Y-18664929D01*
X13349643Y-18593500D01*
X13363928Y-18536357D01*
X13378214Y-18507786D01*
X13392500Y-18493500D01*
X13421071Y-18479214D01*
X13692500Y-18607786D02*
X13663928Y-18593500D01*
X13649643Y-18579214D01*
X13635357Y-18550643D01*
X13635357Y-18536357D01*
X13649643Y-18507786D01*
X13663928Y-18493500D01*
X13692500Y-18479214D01*
X13749643Y-18479214D01*
X13778214Y-18493500D01*
X13792500Y-18507786D01*
X13806785Y-18536357D01*
X13806785Y-18550643D01*
X13792500Y-18579214D01*
X13778214Y-18593500D01*
X13749643Y-18607786D01*
X13692500Y-18607786D01*
X13663928Y-18622072D01*
X13649643Y-18636357D01*
X13635357Y-18664929D01*
X13635357Y-18722072D01*
X13649643Y-18750643D01*
X13663928Y-18764929D01*
X13692500Y-18779214D01*
X13749643Y-18779214D01*
X13778214Y-18764929D01*
X13792500Y-18750643D01*
X13806785Y-18722072D01*
X13806785Y-18664929D01*
X13792500Y-18636357D01*
X13778214Y-18622072D01*
X13749643Y-18607786D01*
X13906785Y-18479214D02*
X14106785Y-18479214D01*
X13978214Y-18779214D01*
X14206786Y-18479214D02*
X14206786Y-18536357D01*
X14321071Y-18479214D02*
X14321071Y-18536357D01*
X14763928Y-18893500D02*
X14749643Y-18879214D01*
X14721071Y-18836357D01*
X14706785Y-18807786D01*
X14692500Y-18764929D01*
X14678214Y-18693500D01*
X14678214Y-18636357D01*
X14692500Y-18564929D01*
X14706785Y-18522072D01*
X14721071Y-18493500D01*
X14749643Y-18450643D01*
X14763928Y-18436357D01*
X15006785Y-18579214D02*
X15006785Y-18779214D01*
X14935357Y-18464929D02*
X14863928Y-18679214D01*
X15049643Y-18679214D01*
X15392500Y-18779214D02*
X15392500Y-18479214D01*
X15521071Y-18779214D02*
X15521071Y-18622072D01*
X15506785Y-18593500D01*
X15478214Y-18579214D01*
X15435357Y-18579214D01*
X15406785Y-18593500D01*
X15392500Y-18607786D01*
X15706785Y-18779214D02*
X15678214Y-18764929D01*
X15663928Y-18750643D01*
X15649643Y-18722072D01*
X15649643Y-18636357D01*
X15663928Y-18607786D01*
X15678214Y-18593500D01*
X15706785Y-18579214D01*
X15749643Y-18579214D01*
X15778214Y-18593500D01*
X15792500Y-18607786D01*
X15806785Y-18636357D01*
X15806785Y-18722072D01*
X15792500Y-18750643D01*
X15778214Y-18764929D01*
X15749643Y-18779214D01*
X15706785Y-18779214D01*
X15978214Y-18779214D02*
X15949643Y-18764929D01*
X15935357Y-18736357D01*
X15935357Y-18479214D01*
X16206786Y-18764929D02*
X16178214Y-18779214D01*
X16121071Y-18779214D01*
X16092500Y-18764929D01*
X16078214Y-18736357D01*
X16078214Y-18622072D01*
X16092500Y-18593500D01*
X16121071Y-18579214D01*
X16178214Y-18579214D01*
X16206786Y-18593500D01*
X16221071Y-18622072D01*
X16221071Y-18650643D01*
X16078214Y-18679214D01*
X16335357Y-18764929D02*
X16363928Y-18779214D01*
X16421071Y-18779214D01*
X16449643Y-18764929D01*
X16463928Y-18736357D01*
X16463928Y-18722072D01*
X16449643Y-18693500D01*
X16421071Y-18679214D01*
X16378214Y-18679214D01*
X16349643Y-18664929D01*
X16335357Y-18636357D01*
X16335357Y-18622072D01*
X16349643Y-18593500D01*
X16378214Y-18579214D01*
X16421071Y-18579214D01*
X16449643Y-18593500D01*
X16563928Y-18893500D02*
X16578214Y-18879214D01*
X16606786Y-18836357D01*
X16621071Y-18807786D01*
X16635357Y-18764929D01*
X16649643Y-18693500D01*
X16649643Y-18636357D01*
X16635357Y-18564929D01*
X16621071Y-18522072D01*
X16606786Y-18493500D01*
X16578214Y-18450643D01*
X16563928Y-18436357D01*
M02*
