G04 #@! TF.FileFunction,Copper,L2,Bot,Signal*
%FSLAX46Y46*%
G04 Gerber Fmt 4.6, Leading zero omitted, Abs format (unit mm)*
G04 Created by KiCad (PCBNEW 4.0.7) date 04/23/18 21:59:08*
%MOMM*%
%LPD*%
G01*
G04 APERTURE LIST*
%ADD10C,0.100000*%
%ADD11C,4.400000*%
%ADD12C,0.700000*%
%ADD13R,1.800000X1.800000*%
%ADD14C,1.800000*%
%ADD15C,1.600000*%
%ADD16O,1.600000X1.600000*%
%ADD17C,1.350000*%
%ADD18C,2.000000*%
%ADD19R,1.700000X1.700000*%
%ADD20O,1.700000X1.700000*%
%ADD21R,1.200000X1.200000*%
%ADD22C,1.200000*%
%ADD23C,0.600000*%
%ADD24C,0.250000*%
%ADD25C,0.350000*%
%ADD26C,0.254000*%
G04 APERTURE END LIST*
D10*
D11*
X116000000Y-81250000D03*
D12*
X117650000Y-81250000D03*
X117166726Y-82416726D03*
X116000000Y-82900000D03*
X114833274Y-82416726D03*
X114350000Y-81250000D03*
X114833274Y-80083274D03*
X116000000Y-79600000D03*
X117166726Y-80083274D03*
D11*
X161000000Y-81250000D03*
D12*
X162650000Y-81250000D03*
X162166726Y-82416726D03*
X161000000Y-82900000D03*
X159833274Y-82416726D03*
X159350000Y-81250000D03*
X159833274Y-80083274D03*
X161000000Y-79600000D03*
X162166726Y-80083274D03*
D11*
X161000000Y-149750000D03*
D12*
X162650000Y-149750000D03*
X162166726Y-150916726D03*
X161000000Y-151400000D03*
X159833274Y-150916726D03*
X159350000Y-149750000D03*
X159833274Y-148583274D03*
X161000000Y-148100000D03*
X162166726Y-148583274D03*
D13*
X146050000Y-81280000D03*
D14*
X146050000Y-83820000D03*
D15*
X147955000Y-126365000D03*
D16*
X147955000Y-116205000D03*
D17*
X142280000Y-115945000D03*
X142280000Y-129945000D03*
X142280000Y-127945000D03*
X142280000Y-125945000D03*
X142280000Y-123945000D03*
X142280000Y-121945000D03*
X142280000Y-119945000D03*
X142280000Y-117945000D03*
D18*
X146050000Y-92130000D03*
X146050000Y-87630000D03*
X152550000Y-92130000D03*
X152550000Y-87630000D03*
D13*
X151130000Y-81280000D03*
D14*
X151130000Y-83820000D03*
D19*
X157480000Y-144780000D03*
D20*
X160020000Y-144780000D03*
D19*
X151130000Y-148590000D03*
D20*
X151130000Y-146050000D03*
X151130000Y-143510000D03*
X151130000Y-140970000D03*
D19*
X125730000Y-148590000D03*
D20*
X125730000Y-146050000D03*
X125730000Y-143510000D03*
X125730000Y-140970000D03*
D19*
X162560000Y-144780000D03*
D20*
X165100000Y-144780000D03*
X167640000Y-144780000D03*
X170180000Y-144780000D03*
D15*
X151765000Y-126365000D03*
D16*
X151765000Y-116205000D03*
D15*
X164220000Y-139440000D03*
X164220000Y-87140000D03*
X112640000Y-87890000D03*
X112640000Y-140190000D03*
D19*
X146050000Y-109220000D03*
D20*
X146050000Y-111760000D03*
D19*
X151130000Y-109220000D03*
D20*
X151130000Y-111760000D03*
D19*
X146050000Y-99060000D03*
D20*
X146050000Y-101600000D03*
D19*
X151130000Y-99060000D03*
D20*
X151130000Y-101600000D03*
D19*
X140970000Y-148590000D03*
D20*
X140970000Y-146050000D03*
X140970000Y-143510000D03*
X140970000Y-140970000D03*
D19*
X135890000Y-148590000D03*
D20*
X135890000Y-146050000D03*
X135890000Y-143510000D03*
X135890000Y-140970000D03*
D14*
X140970000Y-110490000D03*
X140970000Y-107950000D03*
X140970000Y-105410000D03*
X140970000Y-102870000D03*
X140970000Y-100330000D03*
X140970000Y-97790000D03*
X140970000Y-95250000D03*
X140970000Y-92710000D03*
X140970000Y-90170000D03*
X140970000Y-87630000D03*
X140970000Y-85090000D03*
X140970000Y-82550000D03*
X125730000Y-82550000D03*
X125730000Y-85090000D03*
X125730000Y-87630000D03*
X125730000Y-90170000D03*
X125730000Y-92710000D03*
X125730000Y-95250000D03*
X125730000Y-97790000D03*
X125730000Y-100330000D03*
X125730000Y-102870000D03*
X125730000Y-105410000D03*
X125730000Y-107950000D03*
X125730000Y-110490000D03*
X138430000Y-93980000D03*
X138430000Y-91440000D03*
D21*
X148590000Y-131445000D03*
D22*
X148590000Y-129945000D03*
D11*
X116000000Y-149750000D03*
D12*
X117650000Y-149750000D03*
X117166726Y-150916726D03*
X116000000Y-151400000D03*
X114833274Y-150916726D03*
X114350000Y-149750000D03*
X114833274Y-148583274D03*
X116000000Y-148100000D03*
X117166726Y-148583274D03*
D23*
X148590000Y-92075000D03*
X147955000Y-92710000D03*
D24*
X151130000Y-83820000D02*
X150495000Y-83820000D01*
X150495000Y-83820000D02*
X148590000Y-85725000D01*
X148590000Y-85725000D02*
X148590000Y-92075000D01*
X150495000Y-114935000D02*
X149225000Y-113665000D01*
X149225000Y-113665000D02*
X140970000Y-113665000D01*
X150495000Y-114935000D02*
X151765000Y-116205000D01*
X140970000Y-113665000D02*
X125730000Y-98425000D01*
X125730000Y-97790000D02*
X125730000Y-98425000D01*
X142280000Y-125945000D02*
X142280000Y-125690000D01*
X142280000Y-125690000D02*
X142875000Y-125095000D01*
X142875000Y-125095000D02*
X144780000Y-125095000D01*
X151765000Y-125095000D02*
X144780000Y-125095000D01*
X163195000Y-144780000D02*
X165735000Y-142240000D01*
X165735000Y-142240000D02*
X165735000Y-141605000D01*
X165735000Y-141605000D02*
X165735000Y-139065000D01*
X165735000Y-139065000D02*
X165735000Y-138430000D01*
X152400000Y-125095000D02*
X151765000Y-125095000D01*
X165735000Y-138430000D02*
X152400000Y-125095000D01*
X162560000Y-144780000D02*
X163195000Y-144780000D01*
X142280000Y-123945000D02*
X142795000Y-124460000D01*
X144780000Y-124460000D02*
X142795000Y-124460000D01*
X166370000Y-139065000D02*
X166370000Y-138430000D01*
X166370000Y-142875000D02*
X165100000Y-144145000D01*
X166370000Y-142240000D02*
X166370000Y-142875000D01*
X166370000Y-139065000D02*
X166370000Y-142240000D01*
X166370000Y-138430000D02*
X166370000Y-137795000D01*
X166370000Y-137795000D02*
X153035000Y-124460000D01*
X153035000Y-124460000D02*
X144780000Y-124460000D01*
X165100000Y-144145000D02*
X165100000Y-144780000D01*
X165100000Y-144145000D02*
X165100000Y-144780000D01*
X142280000Y-121945000D02*
X142280000Y-121960000D01*
X142280000Y-121960000D02*
X144145000Y-123825000D01*
X142280000Y-121960000D02*
X144145000Y-123825000D01*
X144145000Y-123825000D02*
X145415000Y-123825000D01*
X153670000Y-123825000D02*
X145415000Y-123825000D01*
X167005000Y-137795000D02*
X167005000Y-137160000D01*
X167005000Y-137160000D02*
X153670000Y-123825000D01*
X167005000Y-142875000D02*
X167005000Y-138430000D01*
X167005000Y-144145000D02*
X167640000Y-144780000D01*
X167005000Y-142875000D02*
X167005000Y-144145000D01*
X167005000Y-138430000D02*
X167005000Y-137795000D01*
D25*
X112640000Y-140190000D02*
X112640000Y-140090000D01*
X112640000Y-140090000D02*
X114300000Y-138430000D01*
X163210000Y-138430000D02*
X164220000Y-139440000D01*
X114300000Y-138430000D02*
X163210000Y-138430000D01*
X164220000Y-139440000D02*
X164205000Y-139440000D01*
D24*
X147955000Y-85725000D02*
X146050000Y-83820000D01*
X147955000Y-86360000D02*
X147955000Y-85725000D01*
X147955000Y-87630000D02*
X147955000Y-86360000D01*
X147955000Y-92710000D02*
X147955000Y-87630000D01*
X140335000Y-114300000D02*
X146685000Y-114300000D01*
X146685000Y-114300000D02*
X147955000Y-115570000D01*
X147955000Y-115570000D02*
X147955000Y-116205000D01*
X125730000Y-100330000D02*
X126365000Y-100330000D01*
X126365000Y-100330000D02*
X140335000Y-114300000D01*
D26*
G36*
X113598005Y-79642005D02*
X113165493Y-80683610D01*
X113164509Y-81811442D01*
X113595202Y-82853801D01*
X114392005Y-83651995D01*
X115433610Y-84084507D01*
X116561442Y-84085491D01*
X117603801Y-83654798D01*
X118401995Y-82857995D01*
X118834507Y-81816390D01*
X118835491Y-80688558D01*
X118404798Y-79646199D01*
X117626957Y-78867000D01*
X124672732Y-78867000D01*
X124798780Y-78951223D01*
X124967014Y-79203003D01*
X125040000Y-79569927D01*
X125040000Y-79750000D01*
X125053643Y-79818587D01*
X125053643Y-79888515D01*
X125167824Y-80462540D01*
X125218619Y-80585170D01*
X125273838Y-80718480D01*
X125471816Y-81014775D01*
X125426009Y-81014735D01*
X124861629Y-81247932D01*
X124429449Y-81679357D01*
X124195267Y-82243330D01*
X124194735Y-82853991D01*
X124427932Y-83418371D01*
X124829182Y-83820323D01*
X124429449Y-84219357D01*
X124195267Y-84783330D01*
X124194735Y-85393991D01*
X124427932Y-85958371D01*
X124829182Y-86360323D01*
X124429449Y-86759357D01*
X124195267Y-87323330D01*
X124194735Y-87933991D01*
X124427932Y-88498371D01*
X124859357Y-88930551D01*
X124880194Y-88939203D01*
X124829446Y-89089841D01*
X125730000Y-89990395D01*
X126630554Y-89089841D01*
X126579965Y-88939673D01*
X126598371Y-88932068D01*
X127030551Y-88500643D01*
X127264733Y-87936670D01*
X127265265Y-87326009D01*
X127032068Y-86761629D01*
X126630818Y-86359677D01*
X127030551Y-85960643D01*
X127264733Y-85396670D01*
X127265209Y-84849336D01*
X139423542Y-84849336D01*
X139449161Y-85459460D01*
X139633357Y-85904148D01*
X139889841Y-85990554D01*
X140790395Y-85090000D01*
X141149605Y-85090000D01*
X142050159Y-85990554D01*
X142306643Y-85904148D01*
X142516458Y-85330664D01*
X142490839Y-84720540D01*
X142306643Y-84275852D01*
X142050159Y-84189446D01*
X141149605Y-85090000D01*
X140790395Y-85090000D01*
X139889841Y-84189446D01*
X139633357Y-84275852D01*
X139423542Y-84849336D01*
X127265209Y-84849336D01*
X127265265Y-84786009D01*
X127032068Y-84221629D01*
X126630818Y-83819677D01*
X127030551Y-83420643D01*
X127264733Y-82856670D01*
X127265265Y-82246009D01*
X127141451Y-81946357D01*
X127181413Y-81946357D01*
X127250000Y-81960000D01*
X139500000Y-81960000D01*
X139557680Y-81948527D01*
X139435267Y-82243330D01*
X139434735Y-82853991D01*
X139667932Y-83418371D01*
X140099357Y-83850551D01*
X140120194Y-83859203D01*
X140069446Y-84009841D01*
X140970000Y-84910395D01*
X141870554Y-84009841D01*
X141819965Y-83859673D01*
X141838371Y-83852068D01*
X142270551Y-83420643D01*
X142504733Y-82856670D01*
X142505265Y-82246009D01*
X142272068Y-81681629D01*
X141840643Y-81249449D01*
X141277598Y-81015652D01*
X141476163Y-80718480D01*
X141582176Y-80462539D01*
X141623718Y-80253691D01*
X144515000Y-80253691D01*
X144515000Y-80994250D01*
X144673750Y-81153000D01*
X145923000Y-81153000D01*
X145923000Y-79903750D01*
X146177000Y-79903750D01*
X146177000Y-81153000D01*
X147426250Y-81153000D01*
X147585000Y-80994250D01*
X147585000Y-80253691D01*
X149595000Y-80253691D01*
X149595000Y-80994250D01*
X149753750Y-81153000D01*
X151003000Y-81153000D01*
X151003000Y-79903750D01*
X151257000Y-79903750D01*
X151257000Y-81153000D01*
X152506250Y-81153000D01*
X152665000Y-80994250D01*
X152665000Y-80253691D01*
X152568327Y-80020302D01*
X152389699Y-79841673D01*
X152156310Y-79745000D01*
X151415750Y-79745000D01*
X151257000Y-79903750D01*
X151003000Y-79903750D01*
X150844250Y-79745000D01*
X150103690Y-79745000D01*
X149870301Y-79841673D01*
X149691673Y-80020302D01*
X149595000Y-80253691D01*
X147585000Y-80253691D01*
X147488327Y-80020302D01*
X147309699Y-79841673D01*
X147076310Y-79745000D01*
X146335750Y-79745000D01*
X146177000Y-79903750D01*
X145923000Y-79903750D01*
X145764250Y-79745000D01*
X145023690Y-79745000D01*
X144790301Y-79841673D01*
X144611673Y-80020302D01*
X144515000Y-80253691D01*
X141623718Y-80253691D01*
X141696357Y-79888514D01*
X141696357Y-79818587D01*
X141710000Y-79750000D01*
X141710000Y-79569927D01*
X141782986Y-79203004D01*
X141951223Y-78951220D01*
X142077267Y-78867000D01*
X159374363Y-78867000D01*
X158598005Y-79642005D01*
X158165493Y-80683610D01*
X158164509Y-81811442D01*
X158595202Y-82853801D01*
X159392005Y-83651995D01*
X160433610Y-84084507D01*
X161561442Y-84085491D01*
X162603801Y-83654798D01*
X163401995Y-82857995D01*
X163834507Y-81816390D01*
X163835491Y-80688558D01*
X163404798Y-79646199D01*
X162626957Y-78867000D01*
X169719363Y-78867000D01*
X171401755Y-79201648D01*
X173437867Y-80562136D01*
X174798351Y-82598243D01*
X175133000Y-84280638D01*
X175133000Y-146719362D01*
X174798351Y-148401757D01*
X173437867Y-150437864D01*
X171401755Y-151798352D01*
X169015534Y-152273000D01*
X162317729Y-152273000D01*
X162603801Y-152154798D01*
X163401995Y-151357995D01*
X163834507Y-150316390D01*
X163835491Y-149188558D01*
X163404798Y-148146199D01*
X162607995Y-147348005D01*
X161566390Y-146915493D01*
X160438558Y-146914509D01*
X159396199Y-147345202D01*
X158598005Y-148142005D01*
X158165493Y-149183610D01*
X158164509Y-150311442D01*
X158595202Y-151353801D01*
X159392005Y-152151995D01*
X159683417Y-152273000D01*
X117317729Y-152273000D01*
X117603801Y-152154798D01*
X118401995Y-151357995D01*
X118834507Y-150316390D01*
X118835491Y-149188558D01*
X118404798Y-148146199D01*
X117999307Y-147740000D01*
X124232560Y-147740000D01*
X124232560Y-149440000D01*
X124276838Y-149675317D01*
X124415910Y-149891441D01*
X124628110Y-150036431D01*
X124880000Y-150087440D01*
X126580000Y-150087440D01*
X126815317Y-150043162D01*
X127031441Y-149904090D01*
X127176431Y-149691890D01*
X127227440Y-149440000D01*
X127227440Y-147740000D01*
X134392560Y-147740000D01*
X134392560Y-149440000D01*
X134436838Y-149675317D01*
X134575910Y-149891441D01*
X134788110Y-150036431D01*
X135040000Y-150087440D01*
X136740000Y-150087440D01*
X136975317Y-150043162D01*
X137191441Y-149904090D01*
X137336431Y-149691890D01*
X137387440Y-149440000D01*
X137387440Y-147740000D01*
X139472560Y-147740000D01*
X139472560Y-149440000D01*
X139516838Y-149675317D01*
X139655910Y-149891441D01*
X139868110Y-150036431D01*
X140120000Y-150087440D01*
X141820000Y-150087440D01*
X142055317Y-150043162D01*
X142271441Y-149904090D01*
X142416431Y-149691890D01*
X142467440Y-149440000D01*
X142467440Y-147740000D01*
X149632560Y-147740000D01*
X149632560Y-149440000D01*
X149676838Y-149675317D01*
X149815910Y-149891441D01*
X150028110Y-150036431D01*
X150280000Y-150087440D01*
X151980000Y-150087440D01*
X152215317Y-150043162D01*
X152431441Y-149904090D01*
X152576431Y-149691890D01*
X152627440Y-149440000D01*
X152627440Y-147740000D01*
X152583162Y-147504683D01*
X152444090Y-147288559D01*
X152231890Y-147143569D01*
X152123893Y-147121699D01*
X152401645Y-146816924D01*
X152571476Y-146406890D01*
X152450155Y-146177000D01*
X151257000Y-146177000D01*
X151257000Y-146197000D01*
X151003000Y-146197000D01*
X151003000Y-146177000D01*
X149809845Y-146177000D01*
X149688524Y-146406890D01*
X149858355Y-146816924D01*
X150134501Y-147119937D01*
X150044683Y-147136838D01*
X149828559Y-147275910D01*
X149683569Y-147488110D01*
X149632560Y-147740000D01*
X142467440Y-147740000D01*
X142423162Y-147504683D01*
X142284090Y-147288559D01*
X142071890Y-147143569D01*
X141963893Y-147121699D01*
X142241645Y-146816924D01*
X142411476Y-146406890D01*
X142290155Y-146177000D01*
X141097000Y-146177000D01*
X141097000Y-146197000D01*
X140843000Y-146197000D01*
X140843000Y-146177000D01*
X139649845Y-146177000D01*
X139528524Y-146406890D01*
X139698355Y-146816924D01*
X139974501Y-147119937D01*
X139884683Y-147136838D01*
X139668559Y-147275910D01*
X139523569Y-147488110D01*
X139472560Y-147740000D01*
X137387440Y-147740000D01*
X137343162Y-147504683D01*
X137204090Y-147288559D01*
X136991890Y-147143569D01*
X136883893Y-147121699D01*
X137161645Y-146816924D01*
X137331476Y-146406890D01*
X137210155Y-146177000D01*
X136017000Y-146177000D01*
X136017000Y-146197000D01*
X135763000Y-146197000D01*
X135763000Y-146177000D01*
X134569845Y-146177000D01*
X134448524Y-146406890D01*
X134618355Y-146816924D01*
X134894501Y-147119937D01*
X134804683Y-147136838D01*
X134588559Y-147275910D01*
X134443569Y-147488110D01*
X134392560Y-147740000D01*
X127227440Y-147740000D01*
X127183162Y-147504683D01*
X127044090Y-147288559D01*
X126831890Y-147143569D01*
X126723893Y-147121699D01*
X127001645Y-146816924D01*
X127171476Y-146406890D01*
X127050155Y-146177000D01*
X125857000Y-146177000D01*
X125857000Y-146197000D01*
X125603000Y-146197000D01*
X125603000Y-146177000D01*
X124409845Y-146177000D01*
X124288524Y-146406890D01*
X124458355Y-146816924D01*
X124734501Y-147119937D01*
X124644683Y-147136838D01*
X124428559Y-147275910D01*
X124283569Y-147488110D01*
X124232560Y-147740000D01*
X117999307Y-147740000D01*
X117607995Y-147348005D01*
X116566390Y-146915493D01*
X115438558Y-146914509D01*
X114396199Y-147345202D01*
X113598005Y-148142005D01*
X113165493Y-149183610D01*
X113164509Y-150311442D01*
X113595202Y-151353801D01*
X114392005Y-152151995D01*
X114683417Y-152273000D01*
X107984466Y-152273000D01*
X105598243Y-151798351D01*
X103562136Y-150437867D01*
X102201648Y-148401755D01*
X101727000Y-146015534D01*
X101727000Y-140474187D01*
X111204752Y-140474187D01*
X111422757Y-141001800D01*
X111826077Y-141405824D01*
X112353309Y-141624750D01*
X112924187Y-141625248D01*
X113451800Y-141407243D01*
X113855824Y-141003923D01*
X113869910Y-140970000D01*
X124215907Y-140970000D01*
X124328946Y-141538285D01*
X124650853Y-142020054D01*
X124980026Y-142240000D01*
X124650853Y-142459946D01*
X124328946Y-142941715D01*
X124215907Y-143510000D01*
X124328946Y-144078285D01*
X124650853Y-144560054D01*
X124991553Y-144787702D01*
X124848642Y-144854817D01*
X124458355Y-145283076D01*
X124288524Y-145693110D01*
X124409845Y-145923000D01*
X125603000Y-145923000D01*
X125603000Y-145903000D01*
X125857000Y-145903000D01*
X125857000Y-145923000D01*
X127050155Y-145923000D01*
X127171476Y-145693110D01*
X127001645Y-145283076D01*
X126611358Y-144854817D01*
X126468447Y-144787702D01*
X126809147Y-144560054D01*
X127131054Y-144078285D01*
X127244093Y-143510000D01*
X127131054Y-142941715D01*
X126809147Y-142459946D01*
X126479974Y-142240000D01*
X126809147Y-142020054D01*
X127131054Y-141538285D01*
X127244093Y-140970000D01*
X134375907Y-140970000D01*
X134488946Y-141538285D01*
X134810853Y-142020054D01*
X135140026Y-142240000D01*
X134810853Y-142459946D01*
X134488946Y-142941715D01*
X134375907Y-143510000D01*
X134488946Y-144078285D01*
X134810853Y-144560054D01*
X135151553Y-144787702D01*
X135008642Y-144854817D01*
X134618355Y-145283076D01*
X134448524Y-145693110D01*
X134569845Y-145923000D01*
X135763000Y-145923000D01*
X135763000Y-145903000D01*
X136017000Y-145903000D01*
X136017000Y-145923000D01*
X137210155Y-145923000D01*
X137331476Y-145693110D01*
X137161645Y-145283076D01*
X136771358Y-144854817D01*
X136628447Y-144787702D01*
X136969147Y-144560054D01*
X137291054Y-144078285D01*
X137404093Y-143510000D01*
X137291054Y-142941715D01*
X136969147Y-142459946D01*
X136639974Y-142240000D01*
X136969147Y-142020054D01*
X137291054Y-141538285D01*
X137404093Y-140970000D01*
X139455907Y-140970000D01*
X139568946Y-141538285D01*
X139890853Y-142020054D01*
X140220026Y-142240000D01*
X139890853Y-142459946D01*
X139568946Y-142941715D01*
X139455907Y-143510000D01*
X139568946Y-144078285D01*
X139890853Y-144560054D01*
X140231553Y-144787702D01*
X140088642Y-144854817D01*
X139698355Y-145283076D01*
X139528524Y-145693110D01*
X139649845Y-145923000D01*
X140843000Y-145923000D01*
X140843000Y-145903000D01*
X141097000Y-145903000D01*
X141097000Y-145923000D01*
X142290155Y-145923000D01*
X142411476Y-145693110D01*
X142241645Y-145283076D01*
X141851358Y-144854817D01*
X141708447Y-144787702D01*
X142049147Y-144560054D01*
X142371054Y-144078285D01*
X142484093Y-143510000D01*
X142371054Y-142941715D01*
X142049147Y-142459946D01*
X141719974Y-142240000D01*
X142049147Y-142020054D01*
X142371054Y-141538285D01*
X142484093Y-140970000D01*
X149615907Y-140970000D01*
X149728946Y-141538285D01*
X150050853Y-142020054D01*
X150380026Y-142240000D01*
X150050853Y-142459946D01*
X149728946Y-142941715D01*
X149615907Y-143510000D01*
X149728946Y-144078285D01*
X150050853Y-144560054D01*
X150391553Y-144787702D01*
X150248642Y-144854817D01*
X149858355Y-145283076D01*
X149688524Y-145693110D01*
X149809845Y-145923000D01*
X151003000Y-145923000D01*
X151003000Y-145903000D01*
X151257000Y-145903000D01*
X151257000Y-145923000D01*
X152450155Y-145923000D01*
X152571476Y-145693110D01*
X152401645Y-145283076D01*
X152011358Y-144854817D01*
X151868447Y-144787702D01*
X152209147Y-144560054D01*
X152531054Y-144078285D01*
X152560549Y-143930000D01*
X155982560Y-143930000D01*
X155982560Y-145630000D01*
X156026838Y-145865317D01*
X156165910Y-146081441D01*
X156378110Y-146226431D01*
X156630000Y-146277440D01*
X158330000Y-146277440D01*
X158565317Y-146233162D01*
X158781441Y-146094090D01*
X158926431Y-145881890D01*
X158948301Y-145773893D01*
X159253076Y-146051645D01*
X159663110Y-146221476D01*
X159893000Y-146100155D01*
X159893000Y-144907000D01*
X159873000Y-144907000D01*
X159873000Y-144653000D01*
X159893000Y-144653000D01*
X159893000Y-143459845D01*
X159663110Y-143338524D01*
X159253076Y-143508355D01*
X158950063Y-143784501D01*
X158933162Y-143694683D01*
X158794090Y-143478559D01*
X158581890Y-143333569D01*
X158330000Y-143282560D01*
X156630000Y-143282560D01*
X156394683Y-143326838D01*
X156178559Y-143465910D01*
X156033569Y-143678110D01*
X155982560Y-143930000D01*
X152560549Y-143930000D01*
X152644093Y-143510000D01*
X152531054Y-142941715D01*
X152209147Y-142459946D01*
X151879974Y-142240000D01*
X152209147Y-142020054D01*
X152531054Y-141538285D01*
X152644093Y-140970000D01*
X152531054Y-140401715D01*
X152209147Y-139919946D01*
X151727378Y-139598039D01*
X151159093Y-139485000D01*
X151100907Y-139485000D01*
X150532622Y-139598039D01*
X150050853Y-139919946D01*
X149728946Y-140401715D01*
X149615907Y-140970000D01*
X142484093Y-140970000D01*
X142371054Y-140401715D01*
X142049147Y-139919946D01*
X141567378Y-139598039D01*
X140999093Y-139485000D01*
X140940907Y-139485000D01*
X140372622Y-139598039D01*
X139890853Y-139919946D01*
X139568946Y-140401715D01*
X139455907Y-140970000D01*
X137404093Y-140970000D01*
X137291054Y-140401715D01*
X136969147Y-139919946D01*
X136487378Y-139598039D01*
X135919093Y-139485000D01*
X135860907Y-139485000D01*
X135292622Y-139598039D01*
X134810853Y-139919946D01*
X134488946Y-140401715D01*
X134375907Y-140970000D01*
X127244093Y-140970000D01*
X127131054Y-140401715D01*
X126809147Y-139919946D01*
X126327378Y-139598039D01*
X125759093Y-139485000D01*
X125700907Y-139485000D01*
X125132622Y-139598039D01*
X124650853Y-139919946D01*
X124328946Y-140401715D01*
X124215907Y-140970000D01*
X113869910Y-140970000D01*
X114074750Y-140476691D01*
X114075248Y-139905813D01*
X114044388Y-139831125D01*
X114635513Y-139240000D01*
X162785174Y-139240000D01*
X162784752Y-139724187D01*
X163002757Y-140251800D01*
X163406077Y-140655824D01*
X163933309Y-140874750D01*
X164504187Y-140875248D01*
X164975000Y-140680712D01*
X164975000Y-141925198D01*
X163582671Y-143317527D01*
X163410000Y-143282560D01*
X161710000Y-143282560D01*
X161474683Y-143326838D01*
X161258559Y-143465910D01*
X161113569Y-143678110D01*
X161091699Y-143786107D01*
X160786924Y-143508355D01*
X160376890Y-143338524D01*
X160147000Y-143459845D01*
X160147000Y-144653000D01*
X160167000Y-144653000D01*
X160167000Y-144907000D01*
X160147000Y-144907000D01*
X160147000Y-146100155D01*
X160376890Y-146221476D01*
X160786924Y-146051645D01*
X161089937Y-145775499D01*
X161106838Y-145865317D01*
X161245910Y-146081441D01*
X161458110Y-146226431D01*
X161710000Y-146277440D01*
X163410000Y-146277440D01*
X163645317Y-146233162D01*
X163861441Y-146094090D01*
X164006431Y-145881890D01*
X164020086Y-145814459D01*
X164049946Y-145859147D01*
X164531715Y-146181054D01*
X165100000Y-146294093D01*
X165668285Y-146181054D01*
X166150054Y-145859147D01*
X166370000Y-145529974D01*
X166589946Y-145859147D01*
X167071715Y-146181054D01*
X167640000Y-146294093D01*
X168208285Y-146181054D01*
X168690054Y-145859147D01*
X168910000Y-145529974D01*
X169129946Y-145859147D01*
X169611715Y-146181054D01*
X170180000Y-146294093D01*
X170748285Y-146181054D01*
X171230054Y-145859147D01*
X171551961Y-145377378D01*
X171665000Y-144809093D01*
X171665000Y-144750907D01*
X171551961Y-144182622D01*
X171230054Y-143700853D01*
X170748285Y-143378946D01*
X170180000Y-143265907D01*
X169611715Y-143378946D01*
X169129946Y-143700853D01*
X168910000Y-144030026D01*
X168690054Y-143700853D01*
X168208285Y-143378946D01*
X167765000Y-143290771D01*
X167765000Y-137160000D01*
X167707148Y-136869161D01*
X167542401Y-136622599D01*
X154207401Y-123287599D01*
X153960839Y-123122852D01*
X153670000Y-123065000D01*
X144459802Y-123065000D01*
X143589782Y-122194980D01*
X143590226Y-121685568D01*
X143391211Y-121203914D01*
X143132620Y-120944871D01*
X143389916Y-120688024D01*
X143589772Y-120206718D01*
X143590226Y-119685568D01*
X143391211Y-119203914D01*
X143132620Y-118944871D01*
X143389916Y-118688024D01*
X143589772Y-118206718D01*
X143590226Y-117685568D01*
X143391211Y-117203914D01*
X143132620Y-116944871D01*
X143389916Y-116688024D01*
X143589772Y-116206718D01*
X143590226Y-115685568D01*
X143391211Y-115203914D01*
X143247548Y-115060000D01*
X146370198Y-115060000D01*
X146752881Y-115442683D01*
X146629233Y-115627736D01*
X146520000Y-116176887D01*
X146520000Y-116233113D01*
X146629233Y-116782264D01*
X146940302Y-117247811D01*
X147405849Y-117558880D01*
X147955000Y-117668113D01*
X148504151Y-117558880D01*
X148969698Y-117247811D01*
X149280767Y-116782264D01*
X149390000Y-116233113D01*
X149390000Y-116176887D01*
X149280767Y-115627736D01*
X148969698Y-115162189D01*
X148504151Y-114851120D01*
X148262943Y-114803141D01*
X147884802Y-114425000D01*
X148910198Y-114425000D01*
X150385096Y-115899898D01*
X150330000Y-116176887D01*
X150330000Y-116233113D01*
X150439233Y-116782264D01*
X150750302Y-117247811D01*
X151215849Y-117558880D01*
X151765000Y-117668113D01*
X152314151Y-117558880D01*
X152779698Y-117247811D01*
X153090767Y-116782264D01*
X153200000Y-116233113D01*
X153200000Y-116176887D01*
X153090767Y-115627736D01*
X152779698Y-115162189D01*
X152314151Y-114851120D01*
X151765000Y-114741887D01*
X151441114Y-114806312D01*
X150787715Y-114152913D01*
X162134638Y-114152913D01*
X162451392Y-114919515D01*
X163037400Y-115506547D01*
X163803448Y-115824638D01*
X164632913Y-115825362D01*
X165399515Y-115508608D01*
X165986547Y-114922600D01*
X166304638Y-114156552D01*
X166305362Y-113327087D01*
X165988608Y-112560485D01*
X165402600Y-111973453D01*
X164636552Y-111655362D01*
X163807087Y-111654638D01*
X163040485Y-111971392D01*
X162453453Y-112557400D01*
X162135362Y-113323448D01*
X162134638Y-114152913D01*
X150787715Y-114152913D01*
X149762401Y-113127599D01*
X149515839Y-112962852D01*
X149225000Y-112905000D01*
X146977091Y-112905000D01*
X147321645Y-112526924D01*
X147491476Y-112116890D01*
X149688524Y-112116890D01*
X149858355Y-112526924D01*
X150248642Y-112955183D01*
X150773108Y-113201486D01*
X151003000Y-113080819D01*
X151003000Y-111887000D01*
X151257000Y-111887000D01*
X151257000Y-113080819D01*
X151486892Y-113201486D01*
X152011358Y-112955183D01*
X152401645Y-112526924D01*
X152571476Y-112116890D01*
X152450155Y-111887000D01*
X151257000Y-111887000D01*
X151003000Y-111887000D01*
X149809845Y-111887000D01*
X149688524Y-112116890D01*
X147491476Y-112116890D01*
X147370155Y-111887000D01*
X146177000Y-111887000D01*
X146177000Y-111907000D01*
X145923000Y-111907000D01*
X145923000Y-111887000D01*
X144729845Y-111887000D01*
X144608524Y-112116890D01*
X144778355Y-112526924D01*
X145122909Y-112905000D01*
X141284802Y-112905000D01*
X140220767Y-111840965D01*
X140663330Y-112024733D01*
X141273991Y-112025265D01*
X141838371Y-111792068D01*
X142270551Y-111360643D01*
X142504733Y-110796670D01*
X142505265Y-110186009D01*
X142272068Y-109621629D01*
X141870818Y-109219677D01*
X142270551Y-108820643D01*
X142457674Y-108370000D01*
X144552560Y-108370000D01*
X144552560Y-110070000D01*
X144596838Y-110305317D01*
X144735910Y-110521441D01*
X144948110Y-110666431D01*
X145056107Y-110688301D01*
X144778355Y-110993076D01*
X144608524Y-111403110D01*
X144729845Y-111633000D01*
X145923000Y-111633000D01*
X145923000Y-111613000D01*
X146177000Y-111613000D01*
X146177000Y-111633000D01*
X147370155Y-111633000D01*
X147491476Y-111403110D01*
X147321645Y-110993076D01*
X147045499Y-110690063D01*
X147135317Y-110673162D01*
X147351441Y-110534090D01*
X147496431Y-110321890D01*
X147547440Y-110070000D01*
X147547440Y-108370000D01*
X149632560Y-108370000D01*
X149632560Y-110070000D01*
X149676838Y-110305317D01*
X149815910Y-110521441D01*
X150028110Y-110666431D01*
X150136107Y-110688301D01*
X149858355Y-110993076D01*
X149688524Y-111403110D01*
X149809845Y-111633000D01*
X151003000Y-111633000D01*
X151003000Y-111613000D01*
X151257000Y-111613000D01*
X151257000Y-111633000D01*
X152450155Y-111633000D01*
X152571476Y-111403110D01*
X152401645Y-110993076D01*
X152125499Y-110690063D01*
X152215317Y-110673162D01*
X152431441Y-110534090D01*
X152576431Y-110321890D01*
X152627440Y-110070000D01*
X152627440Y-108370000D01*
X152583162Y-108134683D01*
X152444090Y-107918559D01*
X152231890Y-107773569D01*
X151980000Y-107722560D01*
X150280000Y-107722560D01*
X150044683Y-107766838D01*
X149828559Y-107905910D01*
X149683569Y-108118110D01*
X149632560Y-108370000D01*
X147547440Y-108370000D01*
X147503162Y-108134683D01*
X147364090Y-107918559D01*
X147151890Y-107773569D01*
X146900000Y-107722560D01*
X145200000Y-107722560D01*
X144964683Y-107766838D01*
X144748559Y-107905910D01*
X144603569Y-108118110D01*
X144552560Y-108370000D01*
X142457674Y-108370000D01*
X142504733Y-108256670D01*
X142505265Y-107646009D01*
X142272068Y-107081629D01*
X141870818Y-106679677D01*
X142270551Y-106280643D01*
X142504733Y-105716670D01*
X142505265Y-105106009D01*
X142272068Y-104541629D01*
X141870818Y-104139677D01*
X142270551Y-103740643D01*
X142504733Y-103176670D01*
X142505265Y-102566009D01*
X142272068Y-102001629D01*
X142227408Y-101956890D01*
X144608524Y-101956890D01*
X144778355Y-102366924D01*
X145168642Y-102795183D01*
X145693108Y-103041486D01*
X145923000Y-102920819D01*
X145923000Y-101727000D01*
X146177000Y-101727000D01*
X146177000Y-102920819D01*
X146406892Y-103041486D01*
X146931358Y-102795183D01*
X147321645Y-102366924D01*
X147491476Y-101956890D01*
X149688524Y-101956890D01*
X149858355Y-102366924D01*
X150248642Y-102795183D01*
X150773108Y-103041486D01*
X151003000Y-102920819D01*
X151003000Y-101727000D01*
X151257000Y-101727000D01*
X151257000Y-102920819D01*
X151486892Y-103041486D01*
X152011358Y-102795183D01*
X152401645Y-102366924D01*
X152571476Y-101956890D01*
X152450155Y-101727000D01*
X151257000Y-101727000D01*
X151003000Y-101727000D01*
X149809845Y-101727000D01*
X149688524Y-101956890D01*
X147491476Y-101956890D01*
X147370155Y-101727000D01*
X146177000Y-101727000D01*
X145923000Y-101727000D01*
X144729845Y-101727000D01*
X144608524Y-101956890D01*
X142227408Y-101956890D01*
X141870818Y-101599677D01*
X142270551Y-101200643D01*
X142504733Y-100636670D01*
X142505265Y-100026009D01*
X142272068Y-99461629D01*
X141870818Y-99059677D01*
X142270551Y-98660643D01*
X142457674Y-98210000D01*
X144552560Y-98210000D01*
X144552560Y-99910000D01*
X144596838Y-100145317D01*
X144735910Y-100361441D01*
X144948110Y-100506431D01*
X145056107Y-100528301D01*
X144778355Y-100833076D01*
X144608524Y-101243110D01*
X144729845Y-101473000D01*
X145923000Y-101473000D01*
X145923000Y-101453000D01*
X146177000Y-101453000D01*
X146177000Y-101473000D01*
X147370155Y-101473000D01*
X147491476Y-101243110D01*
X147321645Y-100833076D01*
X147045499Y-100530063D01*
X147135317Y-100513162D01*
X147351441Y-100374090D01*
X147496431Y-100161890D01*
X147547440Y-99910000D01*
X147547440Y-98210000D01*
X149632560Y-98210000D01*
X149632560Y-99910000D01*
X149676838Y-100145317D01*
X149815910Y-100361441D01*
X150028110Y-100506431D01*
X150136107Y-100528301D01*
X149858355Y-100833076D01*
X149688524Y-101243110D01*
X149809845Y-101473000D01*
X151003000Y-101473000D01*
X151003000Y-101453000D01*
X151257000Y-101453000D01*
X151257000Y-101473000D01*
X152450155Y-101473000D01*
X152571476Y-101243110D01*
X152401645Y-100833076D01*
X152125499Y-100530063D01*
X152215317Y-100513162D01*
X152431441Y-100374090D01*
X152576431Y-100161890D01*
X152627440Y-99910000D01*
X152627440Y-98210000D01*
X152583162Y-97974683D01*
X152444090Y-97758559D01*
X152231890Y-97613569D01*
X151980000Y-97562560D01*
X150280000Y-97562560D01*
X150044683Y-97606838D01*
X149828559Y-97745910D01*
X149683569Y-97958110D01*
X149632560Y-98210000D01*
X147547440Y-98210000D01*
X147503162Y-97974683D01*
X147364090Y-97758559D01*
X147151890Y-97613569D01*
X146900000Y-97562560D01*
X145200000Y-97562560D01*
X144964683Y-97606838D01*
X144748559Y-97745910D01*
X144603569Y-97958110D01*
X144552560Y-98210000D01*
X142457674Y-98210000D01*
X142504733Y-98096670D01*
X142505265Y-97486009D01*
X142272068Y-96921629D01*
X141870818Y-96519677D01*
X142270551Y-96120643D01*
X142504733Y-95556670D01*
X142505265Y-94946009D01*
X142272068Y-94381629D01*
X141870818Y-93979677D01*
X142270551Y-93580643D01*
X142394337Y-93282532D01*
X145077073Y-93282532D01*
X145175736Y-93549387D01*
X145785461Y-93775908D01*
X146435460Y-93751856D01*
X146924264Y-93549387D01*
X147022927Y-93282532D01*
X146050000Y-92309605D01*
X145077073Y-93282532D01*
X142394337Y-93282532D01*
X142504733Y-93016670D01*
X142505265Y-92406009D01*
X142281916Y-91865461D01*
X144404092Y-91865461D01*
X144428144Y-92515460D01*
X144630613Y-93004264D01*
X144897468Y-93102927D01*
X145870395Y-92130000D01*
X144897468Y-91157073D01*
X144630613Y-91255736D01*
X144404092Y-91865461D01*
X142281916Y-91865461D01*
X142272068Y-91841629D01*
X141870818Y-91439677D01*
X142270551Y-91040643D01*
X142504733Y-90476670D01*
X142505265Y-89866009D01*
X142272068Y-89301629D01*
X141870818Y-88899677D01*
X142270551Y-88500643D01*
X142497622Y-87953795D01*
X144414716Y-87953795D01*
X144663106Y-88554943D01*
X145122637Y-89015278D01*
X145723352Y-89264716D01*
X146373795Y-89265284D01*
X146974943Y-89016894D01*
X147195000Y-88797221D01*
X147195000Y-90920980D01*
X147137206Y-90863186D01*
X147022926Y-90977466D01*
X146924264Y-90710613D01*
X146314539Y-90484092D01*
X145664540Y-90508144D01*
X145175736Y-90710613D01*
X145077073Y-90977468D01*
X146050000Y-91950395D01*
X146064143Y-91936253D01*
X146243748Y-92115858D01*
X146229605Y-92130000D01*
X147037488Y-92937883D01*
X147161883Y-93238943D01*
X147424673Y-93502192D01*
X147768201Y-93644838D01*
X148140167Y-93645162D01*
X148483943Y-93503117D01*
X148704913Y-93282532D01*
X151577073Y-93282532D01*
X151675736Y-93549387D01*
X152285461Y-93775908D01*
X152935460Y-93751856D01*
X153424264Y-93549387D01*
X153522927Y-93282532D01*
X152550000Y-92309605D01*
X151577073Y-93282532D01*
X148704913Y-93282532D01*
X148747192Y-93240327D01*
X148856765Y-92976446D01*
X149118943Y-92868117D01*
X149382192Y-92605327D01*
X149524838Y-92261799D01*
X149525162Y-91889833D01*
X149515092Y-91865461D01*
X150904092Y-91865461D01*
X150928144Y-92515460D01*
X151130613Y-93004264D01*
X151397468Y-93102927D01*
X152370395Y-92130000D01*
X152729605Y-92130000D01*
X153702532Y-93102927D01*
X153969387Y-93004264D01*
X154195908Y-92394539D01*
X154171856Y-91744540D01*
X153969387Y-91255736D01*
X153702532Y-91157073D01*
X152729605Y-92130000D01*
X152370395Y-92130000D01*
X151397468Y-91157073D01*
X151130613Y-91255736D01*
X150904092Y-91865461D01*
X149515092Y-91865461D01*
X149383117Y-91546057D01*
X149350000Y-91512882D01*
X149350000Y-90977468D01*
X151577073Y-90977468D01*
X152550000Y-91950395D01*
X153522927Y-90977468D01*
X153424264Y-90710613D01*
X152814539Y-90484092D01*
X152164540Y-90508144D01*
X151675736Y-90710613D01*
X151577073Y-90977468D01*
X149350000Y-90977468D01*
X149350000Y-87953795D01*
X150914716Y-87953795D01*
X151163106Y-88554943D01*
X151622637Y-89015278D01*
X152223352Y-89264716D01*
X152873795Y-89265284D01*
X153474943Y-89016894D01*
X153935278Y-88557363D01*
X154184716Y-87956648D01*
X154185180Y-87424187D01*
X162784752Y-87424187D01*
X163002757Y-87951800D01*
X163406077Y-88355824D01*
X163933309Y-88574750D01*
X164504187Y-88575248D01*
X165031800Y-88357243D01*
X165435824Y-87953923D01*
X165654750Y-87426691D01*
X165655248Y-86855813D01*
X165437243Y-86328200D01*
X165033923Y-85924176D01*
X164506691Y-85705250D01*
X163935813Y-85704752D01*
X163408200Y-85922757D01*
X163004176Y-86326077D01*
X162785250Y-86853309D01*
X162784752Y-87424187D01*
X154185180Y-87424187D01*
X154185284Y-87306205D01*
X153936894Y-86705057D01*
X153477363Y-86244722D01*
X152876648Y-85995284D01*
X152226205Y-85994716D01*
X151625057Y-86243106D01*
X151164722Y-86702637D01*
X150915284Y-87303352D01*
X150914716Y-87953795D01*
X149350000Y-87953795D01*
X149350000Y-86039802D01*
X150266348Y-85123454D01*
X150823330Y-85354733D01*
X151433991Y-85355265D01*
X151998371Y-85122068D01*
X152430551Y-84690643D01*
X152664733Y-84126670D01*
X152665265Y-83516009D01*
X152432068Y-82951629D01*
X152254908Y-82774159D01*
X152389699Y-82718327D01*
X152568327Y-82539698D01*
X152665000Y-82306309D01*
X152665000Y-81565750D01*
X152506250Y-81407000D01*
X151257000Y-81407000D01*
X151257000Y-81427000D01*
X151003000Y-81427000D01*
X151003000Y-81407000D01*
X149753750Y-81407000D01*
X149595000Y-81565750D01*
X149595000Y-82306309D01*
X149691673Y-82539698D01*
X149870301Y-82718327D01*
X150004994Y-82774119D01*
X149829449Y-82949357D01*
X149595267Y-83513330D01*
X149595152Y-83645046D01*
X148272500Y-84967698D01*
X147539766Y-84234964D01*
X147584733Y-84126670D01*
X147585265Y-83516009D01*
X147352068Y-82951629D01*
X147174908Y-82774159D01*
X147309699Y-82718327D01*
X147488327Y-82539698D01*
X147585000Y-82306309D01*
X147585000Y-81565750D01*
X147426250Y-81407000D01*
X146177000Y-81407000D01*
X146177000Y-81427000D01*
X145923000Y-81427000D01*
X145923000Y-81407000D01*
X144673750Y-81407000D01*
X144515000Y-81565750D01*
X144515000Y-82306309D01*
X144611673Y-82539698D01*
X144790301Y-82718327D01*
X144924994Y-82774119D01*
X144749449Y-82949357D01*
X144515267Y-83513330D01*
X144514735Y-84123991D01*
X144747932Y-84688371D01*
X145179357Y-85120551D01*
X145743330Y-85354733D01*
X146353991Y-85355265D01*
X146464713Y-85309515D01*
X147195000Y-86039802D01*
X147195000Y-86462740D01*
X146977363Y-86244722D01*
X146376648Y-85995284D01*
X145726205Y-85994716D01*
X145125057Y-86243106D01*
X144664722Y-86702637D01*
X144415284Y-87303352D01*
X144414716Y-87953795D01*
X142497622Y-87953795D01*
X142504733Y-87936670D01*
X142505265Y-87326009D01*
X142272068Y-86761629D01*
X141840643Y-86329449D01*
X141819806Y-86320797D01*
X141870554Y-86170159D01*
X140970000Y-85269605D01*
X140069446Y-86170159D01*
X140120035Y-86320327D01*
X140101629Y-86327932D01*
X139669449Y-86759357D01*
X139435267Y-87323330D01*
X139434735Y-87933991D01*
X139667932Y-88498371D01*
X140069182Y-88900323D01*
X139669449Y-89299357D01*
X139435267Y-89863330D01*
X139434909Y-90273950D01*
X139300643Y-90139449D01*
X138736670Y-89905267D01*
X138126009Y-89904735D01*
X137561629Y-90137932D01*
X137129449Y-90569357D01*
X136895267Y-91133330D01*
X136894735Y-91743991D01*
X137127932Y-92308371D01*
X137529182Y-92710323D01*
X137129449Y-93109357D01*
X136895267Y-93673330D01*
X136894735Y-94283991D01*
X137127932Y-94848371D01*
X137559357Y-95280551D01*
X138123330Y-95514733D01*
X138733991Y-95515265D01*
X139298371Y-95282068D01*
X139435091Y-95145587D01*
X139434735Y-95553991D01*
X139667932Y-96118371D01*
X140069182Y-96520323D01*
X139669449Y-96919357D01*
X139435267Y-97483330D01*
X139434735Y-98093991D01*
X139667932Y-98658371D01*
X140069182Y-99060323D01*
X139669449Y-99459357D01*
X139435267Y-100023330D01*
X139434735Y-100633991D01*
X139667932Y-101198371D01*
X140069182Y-101600323D01*
X139669449Y-101999357D01*
X139435267Y-102563330D01*
X139434735Y-103173991D01*
X139667932Y-103738371D01*
X140069182Y-104140323D01*
X139669449Y-104539357D01*
X139435267Y-105103330D01*
X139434735Y-105713991D01*
X139667932Y-106278371D01*
X140069182Y-106680323D01*
X139669449Y-107079357D01*
X139435267Y-107643330D01*
X139434735Y-108253991D01*
X139667932Y-108818371D01*
X140069182Y-109220323D01*
X139669449Y-109619357D01*
X139435267Y-110183330D01*
X139434735Y-110793991D01*
X139618473Y-111238671D01*
X127033454Y-98653652D01*
X127264733Y-98096670D01*
X127265265Y-97486009D01*
X127032068Y-96921629D01*
X126630818Y-96519677D01*
X127030551Y-96120643D01*
X127264733Y-95556670D01*
X127265265Y-94946009D01*
X127032068Y-94381629D01*
X126630818Y-93979677D01*
X127030551Y-93580643D01*
X127264733Y-93016670D01*
X127265265Y-92406009D01*
X127032068Y-91841629D01*
X126600643Y-91409449D01*
X126579806Y-91400797D01*
X126630554Y-91250159D01*
X125730000Y-90349605D01*
X124829446Y-91250159D01*
X124880035Y-91400327D01*
X124861629Y-91407932D01*
X124429449Y-91839357D01*
X124195267Y-92403330D01*
X124194735Y-93013991D01*
X124427932Y-93578371D01*
X124829182Y-93980323D01*
X124429449Y-94379357D01*
X124195267Y-94943330D01*
X124194735Y-95553991D01*
X124427932Y-96118371D01*
X124829182Y-96520323D01*
X124429449Y-96919357D01*
X124195267Y-97483330D01*
X124194735Y-98093991D01*
X124427932Y-98658371D01*
X124829182Y-99060323D01*
X124429449Y-99459357D01*
X124195267Y-100023330D01*
X124194735Y-100633991D01*
X124427932Y-101198371D01*
X124829182Y-101600323D01*
X124429449Y-101999357D01*
X124195267Y-102563330D01*
X124194735Y-103173991D01*
X124427932Y-103738371D01*
X124829182Y-104140323D01*
X124429449Y-104539357D01*
X124195267Y-105103330D01*
X124194735Y-105713991D01*
X124427932Y-106278371D01*
X124829182Y-106680323D01*
X124429449Y-107079357D01*
X124195267Y-107643330D01*
X124194735Y-108253991D01*
X124427932Y-108818371D01*
X124829182Y-109220323D01*
X124429449Y-109619357D01*
X124195267Y-110183330D01*
X124194735Y-110793991D01*
X124427932Y-111358371D01*
X124859357Y-111790551D01*
X125423330Y-112024733D01*
X126033991Y-112025265D01*
X126598371Y-111792068D01*
X127030551Y-111360643D01*
X127264733Y-110796670D01*
X127265265Y-110186009D01*
X127032068Y-109621629D01*
X126630818Y-109219677D01*
X127030551Y-108820643D01*
X127264733Y-108256670D01*
X127265265Y-107646009D01*
X127032068Y-107081629D01*
X126630818Y-106679677D01*
X127030551Y-106280643D01*
X127264733Y-105716670D01*
X127265265Y-105106009D01*
X127032068Y-104541629D01*
X126630818Y-104139677D01*
X127030551Y-103740643D01*
X127264733Y-103176670D01*
X127265265Y-102566009D01*
X127081527Y-102121329D01*
X139797599Y-114837401D01*
X140044160Y-115002148D01*
X140092414Y-115011746D01*
X140335000Y-115060000D01*
X141312308Y-115060000D01*
X141170084Y-115201976D01*
X140970228Y-115683282D01*
X140969774Y-116204432D01*
X141168789Y-116686086D01*
X141427380Y-116945129D01*
X141170084Y-117201976D01*
X140970228Y-117683282D01*
X140969774Y-118204432D01*
X141168789Y-118686086D01*
X141427380Y-118945129D01*
X141170084Y-119201976D01*
X140970228Y-119683282D01*
X140969774Y-120204432D01*
X141168789Y-120686086D01*
X141427380Y-120945129D01*
X141170084Y-121201976D01*
X140970228Y-121683282D01*
X140969774Y-122204432D01*
X141168789Y-122686086D01*
X141427380Y-122945129D01*
X141170084Y-123201976D01*
X140970228Y-123683282D01*
X140969774Y-124204432D01*
X141168789Y-124686086D01*
X141427380Y-124945129D01*
X141170084Y-125201976D01*
X140970228Y-125683282D01*
X140969774Y-126204432D01*
X141168789Y-126686086D01*
X141536976Y-127054916D01*
X141592631Y-127078026D01*
X142280000Y-127765395D01*
X142966721Y-127078674D01*
X143021086Y-127056211D01*
X143389916Y-126688024D01*
X143589772Y-126206718D01*
X143590078Y-125855000D01*
X146612976Y-125855000D01*
X146520250Y-126078309D01*
X146519752Y-126649187D01*
X146737757Y-127176800D01*
X147141077Y-127580824D01*
X147668309Y-127799750D01*
X148239187Y-127800248D01*
X148766800Y-127582243D01*
X149170824Y-127178923D01*
X149389750Y-126651691D01*
X149390248Y-126080813D01*
X149296944Y-125855000D01*
X150422976Y-125855000D01*
X150330250Y-126078309D01*
X150329752Y-126649187D01*
X150547757Y-127176800D01*
X150951077Y-127580824D01*
X151478309Y-127799750D01*
X152049187Y-127800248D01*
X152576800Y-127582243D01*
X152980824Y-127178923D01*
X153106488Y-126876290D01*
X164235211Y-138005013D01*
X163935813Y-138004752D01*
X163931887Y-138006374D01*
X163782756Y-137857244D01*
X163782755Y-137857243D01*
X163519974Y-137681658D01*
X163210000Y-137620000D01*
X114300000Y-137620000D01*
X113990027Y-137681657D01*
X113727244Y-137857243D01*
X112829322Y-138755165D01*
X112355813Y-138754752D01*
X111828200Y-138972757D01*
X111424176Y-139376077D01*
X111205250Y-139903309D01*
X111204752Y-140474187D01*
X101727000Y-140474187D01*
X101727000Y-130204432D01*
X140969774Y-130204432D01*
X141168789Y-130686086D01*
X141536976Y-131054916D01*
X142018282Y-131254772D01*
X142539432Y-131255226D01*
X143021086Y-131056211D01*
X143389916Y-130688024D01*
X143589772Y-130206718D01*
X143590147Y-129776036D01*
X147342193Y-129776036D01*
X147372518Y-130266413D01*
X147464711Y-130488990D01*
X147393569Y-130593110D01*
X147342560Y-130845000D01*
X147342560Y-132045000D01*
X147386838Y-132280317D01*
X147525910Y-132496441D01*
X147738110Y-132641431D01*
X147990000Y-132692440D01*
X149190000Y-132692440D01*
X149425317Y-132648162D01*
X149641441Y-132509090D01*
X149786431Y-132296890D01*
X149837440Y-132045000D01*
X149837440Y-130845000D01*
X149793162Y-130609683D01*
X149711234Y-130482364D01*
X149837807Y-130113964D01*
X149807482Y-129623587D01*
X149678164Y-129311383D01*
X149452735Y-129261870D01*
X148769605Y-129945000D01*
X148783748Y-129959143D01*
X148604143Y-130138748D01*
X148590000Y-130124605D01*
X148575858Y-130138748D01*
X148396253Y-129959143D01*
X148410395Y-129945000D01*
X147727265Y-129261870D01*
X147501836Y-129311383D01*
X147342193Y-129776036D01*
X143590147Y-129776036D01*
X143590226Y-129685568D01*
X143391211Y-129203914D01*
X143269775Y-129082265D01*
X147906870Y-129082265D01*
X148590000Y-129765395D01*
X149273130Y-129082265D01*
X149223617Y-128856836D01*
X148758964Y-128697193D01*
X148268587Y-128727518D01*
X147956383Y-128856836D01*
X147906870Y-129082265D01*
X143269775Y-129082265D01*
X143023024Y-128835084D01*
X142967369Y-128811974D01*
X142280000Y-128124605D01*
X141593279Y-128811326D01*
X141538914Y-128833789D01*
X141170084Y-129201976D01*
X140970228Y-129683282D01*
X140969774Y-130204432D01*
X101727000Y-130204432D01*
X101727000Y-127758100D01*
X140957478Y-127758100D01*
X140986625Y-128278434D01*
X141129672Y-128623781D01*
X141362853Y-128682542D01*
X142100395Y-127945000D01*
X142459605Y-127945000D01*
X143197147Y-128682542D01*
X143430328Y-128623781D01*
X143602522Y-128131900D01*
X143573375Y-127611566D01*
X143430328Y-127266219D01*
X143197147Y-127207458D01*
X142459605Y-127945000D01*
X142100395Y-127945000D01*
X141362853Y-127207458D01*
X141129672Y-127266219D01*
X140957478Y-127758100D01*
X101727000Y-127758100D01*
X101727000Y-122263599D01*
X122597699Y-122263599D01*
X122861281Y-122901515D01*
X123348918Y-123390004D01*
X123986373Y-123654699D01*
X124676599Y-123655301D01*
X125314515Y-123391719D01*
X125803004Y-122904082D01*
X126067699Y-122266627D01*
X126068301Y-121576401D01*
X125804719Y-120938485D01*
X125317082Y-120449996D01*
X124679627Y-120185301D01*
X123989401Y-120184699D01*
X123351485Y-120448281D01*
X122862996Y-120935918D01*
X122598301Y-121573373D01*
X122597699Y-122263599D01*
X101727000Y-122263599D01*
X101727000Y-114002913D01*
X110554638Y-114002913D01*
X110871392Y-114769515D01*
X111457400Y-115356547D01*
X112223448Y-115674638D01*
X113052913Y-115675362D01*
X113819515Y-115358608D01*
X114406547Y-114772600D01*
X114724638Y-114006552D01*
X114725362Y-113177087D01*
X114408608Y-112410485D01*
X113822600Y-111823453D01*
X113056552Y-111505362D01*
X112227087Y-111504638D01*
X111460485Y-111821392D01*
X110873453Y-112407400D01*
X110555362Y-113173448D01*
X110554638Y-114002913D01*
X101727000Y-114002913D01*
X101727000Y-89929336D01*
X124183542Y-89929336D01*
X124209161Y-90539460D01*
X124393357Y-90984148D01*
X124649841Y-91070554D01*
X125550395Y-90170000D01*
X125909605Y-90170000D01*
X126810159Y-91070554D01*
X127066643Y-90984148D01*
X127276458Y-90410664D01*
X127250839Y-89800540D01*
X127066643Y-89355852D01*
X126810159Y-89269446D01*
X125909605Y-90170000D01*
X125550395Y-90170000D01*
X124649841Y-89269446D01*
X124393357Y-89355852D01*
X124183542Y-89929336D01*
X101727000Y-89929336D01*
X101727000Y-88897745D01*
X111811861Y-88897745D01*
X111885995Y-89143864D01*
X112423223Y-89336965D01*
X112993454Y-89309778D01*
X113394005Y-89143864D01*
X113468139Y-88897745D01*
X112640000Y-88069605D01*
X111811861Y-88897745D01*
X101727000Y-88897745D01*
X101727000Y-87673223D01*
X111193035Y-87673223D01*
X111220222Y-88243454D01*
X111386136Y-88644005D01*
X111632255Y-88718139D01*
X112460395Y-87890000D01*
X112819605Y-87890000D01*
X113647745Y-88718139D01*
X113893864Y-88644005D01*
X114086965Y-88106777D01*
X114059778Y-87536546D01*
X113893864Y-87135995D01*
X113647745Y-87061861D01*
X112819605Y-87890000D01*
X112460395Y-87890000D01*
X111632255Y-87061861D01*
X111386136Y-87135995D01*
X111193035Y-87673223D01*
X101727000Y-87673223D01*
X101727000Y-86882255D01*
X111811861Y-86882255D01*
X112640000Y-87710395D01*
X113468139Y-86882255D01*
X113394005Y-86636136D01*
X112856777Y-86443035D01*
X112286546Y-86470222D01*
X111885995Y-86636136D01*
X111811861Y-86882255D01*
X101727000Y-86882255D01*
X101727000Y-84984466D01*
X102201648Y-82598245D01*
X103562136Y-80562133D01*
X105598243Y-79201649D01*
X107280638Y-78867000D01*
X114374363Y-78867000D01*
X113598005Y-79642005D01*
X113598005Y-79642005D01*
G37*
X113598005Y-79642005D02*
X113165493Y-80683610D01*
X113164509Y-81811442D01*
X113595202Y-82853801D01*
X114392005Y-83651995D01*
X115433610Y-84084507D01*
X116561442Y-84085491D01*
X117603801Y-83654798D01*
X118401995Y-82857995D01*
X118834507Y-81816390D01*
X118835491Y-80688558D01*
X118404798Y-79646199D01*
X117626957Y-78867000D01*
X124672732Y-78867000D01*
X124798780Y-78951223D01*
X124967014Y-79203003D01*
X125040000Y-79569927D01*
X125040000Y-79750000D01*
X125053643Y-79818587D01*
X125053643Y-79888515D01*
X125167824Y-80462540D01*
X125218619Y-80585170D01*
X125273838Y-80718480D01*
X125471816Y-81014775D01*
X125426009Y-81014735D01*
X124861629Y-81247932D01*
X124429449Y-81679357D01*
X124195267Y-82243330D01*
X124194735Y-82853991D01*
X124427932Y-83418371D01*
X124829182Y-83820323D01*
X124429449Y-84219357D01*
X124195267Y-84783330D01*
X124194735Y-85393991D01*
X124427932Y-85958371D01*
X124829182Y-86360323D01*
X124429449Y-86759357D01*
X124195267Y-87323330D01*
X124194735Y-87933991D01*
X124427932Y-88498371D01*
X124859357Y-88930551D01*
X124880194Y-88939203D01*
X124829446Y-89089841D01*
X125730000Y-89990395D01*
X126630554Y-89089841D01*
X126579965Y-88939673D01*
X126598371Y-88932068D01*
X127030551Y-88500643D01*
X127264733Y-87936670D01*
X127265265Y-87326009D01*
X127032068Y-86761629D01*
X126630818Y-86359677D01*
X127030551Y-85960643D01*
X127264733Y-85396670D01*
X127265209Y-84849336D01*
X139423542Y-84849336D01*
X139449161Y-85459460D01*
X139633357Y-85904148D01*
X139889841Y-85990554D01*
X140790395Y-85090000D01*
X141149605Y-85090000D01*
X142050159Y-85990554D01*
X142306643Y-85904148D01*
X142516458Y-85330664D01*
X142490839Y-84720540D01*
X142306643Y-84275852D01*
X142050159Y-84189446D01*
X141149605Y-85090000D01*
X140790395Y-85090000D01*
X139889841Y-84189446D01*
X139633357Y-84275852D01*
X139423542Y-84849336D01*
X127265209Y-84849336D01*
X127265265Y-84786009D01*
X127032068Y-84221629D01*
X126630818Y-83819677D01*
X127030551Y-83420643D01*
X127264733Y-82856670D01*
X127265265Y-82246009D01*
X127141451Y-81946357D01*
X127181413Y-81946357D01*
X127250000Y-81960000D01*
X139500000Y-81960000D01*
X139557680Y-81948527D01*
X139435267Y-82243330D01*
X139434735Y-82853991D01*
X139667932Y-83418371D01*
X140099357Y-83850551D01*
X140120194Y-83859203D01*
X140069446Y-84009841D01*
X140970000Y-84910395D01*
X141870554Y-84009841D01*
X141819965Y-83859673D01*
X141838371Y-83852068D01*
X142270551Y-83420643D01*
X142504733Y-82856670D01*
X142505265Y-82246009D01*
X142272068Y-81681629D01*
X141840643Y-81249449D01*
X141277598Y-81015652D01*
X141476163Y-80718480D01*
X141582176Y-80462539D01*
X141623718Y-80253691D01*
X144515000Y-80253691D01*
X144515000Y-80994250D01*
X144673750Y-81153000D01*
X145923000Y-81153000D01*
X145923000Y-79903750D01*
X146177000Y-79903750D01*
X146177000Y-81153000D01*
X147426250Y-81153000D01*
X147585000Y-80994250D01*
X147585000Y-80253691D01*
X149595000Y-80253691D01*
X149595000Y-80994250D01*
X149753750Y-81153000D01*
X151003000Y-81153000D01*
X151003000Y-79903750D01*
X151257000Y-79903750D01*
X151257000Y-81153000D01*
X152506250Y-81153000D01*
X152665000Y-80994250D01*
X152665000Y-80253691D01*
X152568327Y-80020302D01*
X152389699Y-79841673D01*
X152156310Y-79745000D01*
X151415750Y-79745000D01*
X151257000Y-79903750D01*
X151003000Y-79903750D01*
X150844250Y-79745000D01*
X150103690Y-79745000D01*
X149870301Y-79841673D01*
X149691673Y-80020302D01*
X149595000Y-80253691D01*
X147585000Y-80253691D01*
X147488327Y-80020302D01*
X147309699Y-79841673D01*
X147076310Y-79745000D01*
X146335750Y-79745000D01*
X146177000Y-79903750D01*
X145923000Y-79903750D01*
X145764250Y-79745000D01*
X145023690Y-79745000D01*
X144790301Y-79841673D01*
X144611673Y-80020302D01*
X144515000Y-80253691D01*
X141623718Y-80253691D01*
X141696357Y-79888514D01*
X141696357Y-79818587D01*
X141710000Y-79750000D01*
X141710000Y-79569927D01*
X141782986Y-79203004D01*
X141951223Y-78951220D01*
X142077267Y-78867000D01*
X159374363Y-78867000D01*
X158598005Y-79642005D01*
X158165493Y-80683610D01*
X158164509Y-81811442D01*
X158595202Y-82853801D01*
X159392005Y-83651995D01*
X160433610Y-84084507D01*
X161561442Y-84085491D01*
X162603801Y-83654798D01*
X163401995Y-82857995D01*
X163834507Y-81816390D01*
X163835491Y-80688558D01*
X163404798Y-79646199D01*
X162626957Y-78867000D01*
X169719363Y-78867000D01*
X171401755Y-79201648D01*
X173437867Y-80562136D01*
X174798351Y-82598243D01*
X175133000Y-84280638D01*
X175133000Y-146719362D01*
X174798351Y-148401757D01*
X173437867Y-150437864D01*
X171401755Y-151798352D01*
X169015534Y-152273000D01*
X162317729Y-152273000D01*
X162603801Y-152154798D01*
X163401995Y-151357995D01*
X163834507Y-150316390D01*
X163835491Y-149188558D01*
X163404798Y-148146199D01*
X162607995Y-147348005D01*
X161566390Y-146915493D01*
X160438558Y-146914509D01*
X159396199Y-147345202D01*
X158598005Y-148142005D01*
X158165493Y-149183610D01*
X158164509Y-150311442D01*
X158595202Y-151353801D01*
X159392005Y-152151995D01*
X159683417Y-152273000D01*
X117317729Y-152273000D01*
X117603801Y-152154798D01*
X118401995Y-151357995D01*
X118834507Y-150316390D01*
X118835491Y-149188558D01*
X118404798Y-148146199D01*
X117999307Y-147740000D01*
X124232560Y-147740000D01*
X124232560Y-149440000D01*
X124276838Y-149675317D01*
X124415910Y-149891441D01*
X124628110Y-150036431D01*
X124880000Y-150087440D01*
X126580000Y-150087440D01*
X126815317Y-150043162D01*
X127031441Y-149904090D01*
X127176431Y-149691890D01*
X127227440Y-149440000D01*
X127227440Y-147740000D01*
X134392560Y-147740000D01*
X134392560Y-149440000D01*
X134436838Y-149675317D01*
X134575910Y-149891441D01*
X134788110Y-150036431D01*
X135040000Y-150087440D01*
X136740000Y-150087440D01*
X136975317Y-150043162D01*
X137191441Y-149904090D01*
X137336431Y-149691890D01*
X137387440Y-149440000D01*
X137387440Y-147740000D01*
X139472560Y-147740000D01*
X139472560Y-149440000D01*
X139516838Y-149675317D01*
X139655910Y-149891441D01*
X139868110Y-150036431D01*
X140120000Y-150087440D01*
X141820000Y-150087440D01*
X142055317Y-150043162D01*
X142271441Y-149904090D01*
X142416431Y-149691890D01*
X142467440Y-149440000D01*
X142467440Y-147740000D01*
X149632560Y-147740000D01*
X149632560Y-149440000D01*
X149676838Y-149675317D01*
X149815910Y-149891441D01*
X150028110Y-150036431D01*
X150280000Y-150087440D01*
X151980000Y-150087440D01*
X152215317Y-150043162D01*
X152431441Y-149904090D01*
X152576431Y-149691890D01*
X152627440Y-149440000D01*
X152627440Y-147740000D01*
X152583162Y-147504683D01*
X152444090Y-147288559D01*
X152231890Y-147143569D01*
X152123893Y-147121699D01*
X152401645Y-146816924D01*
X152571476Y-146406890D01*
X152450155Y-146177000D01*
X151257000Y-146177000D01*
X151257000Y-146197000D01*
X151003000Y-146197000D01*
X151003000Y-146177000D01*
X149809845Y-146177000D01*
X149688524Y-146406890D01*
X149858355Y-146816924D01*
X150134501Y-147119937D01*
X150044683Y-147136838D01*
X149828559Y-147275910D01*
X149683569Y-147488110D01*
X149632560Y-147740000D01*
X142467440Y-147740000D01*
X142423162Y-147504683D01*
X142284090Y-147288559D01*
X142071890Y-147143569D01*
X141963893Y-147121699D01*
X142241645Y-146816924D01*
X142411476Y-146406890D01*
X142290155Y-146177000D01*
X141097000Y-146177000D01*
X141097000Y-146197000D01*
X140843000Y-146197000D01*
X140843000Y-146177000D01*
X139649845Y-146177000D01*
X139528524Y-146406890D01*
X139698355Y-146816924D01*
X139974501Y-147119937D01*
X139884683Y-147136838D01*
X139668559Y-147275910D01*
X139523569Y-147488110D01*
X139472560Y-147740000D01*
X137387440Y-147740000D01*
X137343162Y-147504683D01*
X137204090Y-147288559D01*
X136991890Y-147143569D01*
X136883893Y-147121699D01*
X137161645Y-146816924D01*
X137331476Y-146406890D01*
X137210155Y-146177000D01*
X136017000Y-146177000D01*
X136017000Y-146197000D01*
X135763000Y-146197000D01*
X135763000Y-146177000D01*
X134569845Y-146177000D01*
X134448524Y-146406890D01*
X134618355Y-146816924D01*
X134894501Y-147119937D01*
X134804683Y-147136838D01*
X134588559Y-147275910D01*
X134443569Y-147488110D01*
X134392560Y-147740000D01*
X127227440Y-147740000D01*
X127183162Y-147504683D01*
X127044090Y-147288559D01*
X126831890Y-147143569D01*
X126723893Y-147121699D01*
X127001645Y-146816924D01*
X127171476Y-146406890D01*
X127050155Y-146177000D01*
X125857000Y-146177000D01*
X125857000Y-146197000D01*
X125603000Y-146197000D01*
X125603000Y-146177000D01*
X124409845Y-146177000D01*
X124288524Y-146406890D01*
X124458355Y-146816924D01*
X124734501Y-147119937D01*
X124644683Y-147136838D01*
X124428559Y-147275910D01*
X124283569Y-147488110D01*
X124232560Y-147740000D01*
X117999307Y-147740000D01*
X117607995Y-147348005D01*
X116566390Y-146915493D01*
X115438558Y-146914509D01*
X114396199Y-147345202D01*
X113598005Y-148142005D01*
X113165493Y-149183610D01*
X113164509Y-150311442D01*
X113595202Y-151353801D01*
X114392005Y-152151995D01*
X114683417Y-152273000D01*
X107984466Y-152273000D01*
X105598243Y-151798351D01*
X103562136Y-150437867D01*
X102201648Y-148401755D01*
X101727000Y-146015534D01*
X101727000Y-140474187D01*
X111204752Y-140474187D01*
X111422757Y-141001800D01*
X111826077Y-141405824D01*
X112353309Y-141624750D01*
X112924187Y-141625248D01*
X113451800Y-141407243D01*
X113855824Y-141003923D01*
X113869910Y-140970000D01*
X124215907Y-140970000D01*
X124328946Y-141538285D01*
X124650853Y-142020054D01*
X124980026Y-142240000D01*
X124650853Y-142459946D01*
X124328946Y-142941715D01*
X124215907Y-143510000D01*
X124328946Y-144078285D01*
X124650853Y-144560054D01*
X124991553Y-144787702D01*
X124848642Y-144854817D01*
X124458355Y-145283076D01*
X124288524Y-145693110D01*
X124409845Y-145923000D01*
X125603000Y-145923000D01*
X125603000Y-145903000D01*
X125857000Y-145903000D01*
X125857000Y-145923000D01*
X127050155Y-145923000D01*
X127171476Y-145693110D01*
X127001645Y-145283076D01*
X126611358Y-144854817D01*
X126468447Y-144787702D01*
X126809147Y-144560054D01*
X127131054Y-144078285D01*
X127244093Y-143510000D01*
X127131054Y-142941715D01*
X126809147Y-142459946D01*
X126479974Y-142240000D01*
X126809147Y-142020054D01*
X127131054Y-141538285D01*
X127244093Y-140970000D01*
X134375907Y-140970000D01*
X134488946Y-141538285D01*
X134810853Y-142020054D01*
X135140026Y-142240000D01*
X134810853Y-142459946D01*
X134488946Y-142941715D01*
X134375907Y-143510000D01*
X134488946Y-144078285D01*
X134810853Y-144560054D01*
X135151553Y-144787702D01*
X135008642Y-144854817D01*
X134618355Y-145283076D01*
X134448524Y-145693110D01*
X134569845Y-145923000D01*
X135763000Y-145923000D01*
X135763000Y-145903000D01*
X136017000Y-145903000D01*
X136017000Y-145923000D01*
X137210155Y-145923000D01*
X137331476Y-145693110D01*
X137161645Y-145283076D01*
X136771358Y-144854817D01*
X136628447Y-144787702D01*
X136969147Y-144560054D01*
X137291054Y-144078285D01*
X137404093Y-143510000D01*
X137291054Y-142941715D01*
X136969147Y-142459946D01*
X136639974Y-142240000D01*
X136969147Y-142020054D01*
X137291054Y-141538285D01*
X137404093Y-140970000D01*
X139455907Y-140970000D01*
X139568946Y-141538285D01*
X139890853Y-142020054D01*
X140220026Y-142240000D01*
X139890853Y-142459946D01*
X139568946Y-142941715D01*
X139455907Y-143510000D01*
X139568946Y-144078285D01*
X139890853Y-144560054D01*
X140231553Y-144787702D01*
X140088642Y-144854817D01*
X139698355Y-145283076D01*
X139528524Y-145693110D01*
X139649845Y-145923000D01*
X140843000Y-145923000D01*
X140843000Y-145903000D01*
X141097000Y-145903000D01*
X141097000Y-145923000D01*
X142290155Y-145923000D01*
X142411476Y-145693110D01*
X142241645Y-145283076D01*
X141851358Y-144854817D01*
X141708447Y-144787702D01*
X142049147Y-144560054D01*
X142371054Y-144078285D01*
X142484093Y-143510000D01*
X142371054Y-142941715D01*
X142049147Y-142459946D01*
X141719974Y-142240000D01*
X142049147Y-142020054D01*
X142371054Y-141538285D01*
X142484093Y-140970000D01*
X149615907Y-140970000D01*
X149728946Y-141538285D01*
X150050853Y-142020054D01*
X150380026Y-142240000D01*
X150050853Y-142459946D01*
X149728946Y-142941715D01*
X149615907Y-143510000D01*
X149728946Y-144078285D01*
X150050853Y-144560054D01*
X150391553Y-144787702D01*
X150248642Y-144854817D01*
X149858355Y-145283076D01*
X149688524Y-145693110D01*
X149809845Y-145923000D01*
X151003000Y-145923000D01*
X151003000Y-145903000D01*
X151257000Y-145903000D01*
X151257000Y-145923000D01*
X152450155Y-145923000D01*
X152571476Y-145693110D01*
X152401645Y-145283076D01*
X152011358Y-144854817D01*
X151868447Y-144787702D01*
X152209147Y-144560054D01*
X152531054Y-144078285D01*
X152560549Y-143930000D01*
X155982560Y-143930000D01*
X155982560Y-145630000D01*
X156026838Y-145865317D01*
X156165910Y-146081441D01*
X156378110Y-146226431D01*
X156630000Y-146277440D01*
X158330000Y-146277440D01*
X158565317Y-146233162D01*
X158781441Y-146094090D01*
X158926431Y-145881890D01*
X158948301Y-145773893D01*
X159253076Y-146051645D01*
X159663110Y-146221476D01*
X159893000Y-146100155D01*
X159893000Y-144907000D01*
X159873000Y-144907000D01*
X159873000Y-144653000D01*
X159893000Y-144653000D01*
X159893000Y-143459845D01*
X159663110Y-143338524D01*
X159253076Y-143508355D01*
X158950063Y-143784501D01*
X158933162Y-143694683D01*
X158794090Y-143478559D01*
X158581890Y-143333569D01*
X158330000Y-143282560D01*
X156630000Y-143282560D01*
X156394683Y-143326838D01*
X156178559Y-143465910D01*
X156033569Y-143678110D01*
X155982560Y-143930000D01*
X152560549Y-143930000D01*
X152644093Y-143510000D01*
X152531054Y-142941715D01*
X152209147Y-142459946D01*
X151879974Y-142240000D01*
X152209147Y-142020054D01*
X152531054Y-141538285D01*
X152644093Y-140970000D01*
X152531054Y-140401715D01*
X152209147Y-139919946D01*
X151727378Y-139598039D01*
X151159093Y-139485000D01*
X151100907Y-139485000D01*
X150532622Y-139598039D01*
X150050853Y-139919946D01*
X149728946Y-140401715D01*
X149615907Y-140970000D01*
X142484093Y-140970000D01*
X142371054Y-140401715D01*
X142049147Y-139919946D01*
X141567378Y-139598039D01*
X140999093Y-139485000D01*
X140940907Y-139485000D01*
X140372622Y-139598039D01*
X139890853Y-139919946D01*
X139568946Y-140401715D01*
X139455907Y-140970000D01*
X137404093Y-140970000D01*
X137291054Y-140401715D01*
X136969147Y-139919946D01*
X136487378Y-139598039D01*
X135919093Y-139485000D01*
X135860907Y-139485000D01*
X135292622Y-139598039D01*
X134810853Y-139919946D01*
X134488946Y-140401715D01*
X134375907Y-140970000D01*
X127244093Y-140970000D01*
X127131054Y-140401715D01*
X126809147Y-139919946D01*
X126327378Y-139598039D01*
X125759093Y-139485000D01*
X125700907Y-139485000D01*
X125132622Y-139598039D01*
X124650853Y-139919946D01*
X124328946Y-140401715D01*
X124215907Y-140970000D01*
X113869910Y-140970000D01*
X114074750Y-140476691D01*
X114075248Y-139905813D01*
X114044388Y-139831125D01*
X114635513Y-139240000D01*
X162785174Y-139240000D01*
X162784752Y-139724187D01*
X163002757Y-140251800D01*
X163406077Y-140655824D01*
X163933309Y-140874750D01*
X164504187Y-140875248D01*
X164975000Y-140680712D01*
X164975000Y-141925198D01*
X163582671Y-143317527D01*
X163410000Y-143282560D01*
X161710000Y-143282560D01*
X161474683Y-143326838D01*
X161258559Y-143465910D01*
X161113569Y-143678110D01*
X161091699Y-143786107D01*
X160786924Y-143508355D01*
X160376890Y-143338524D01*
X160147000Y-143459845D01*
X160147000Y-144653000D01*
X160167000Y-144653000D01*
X160167000Y-144907000D01*
X160147000Y-144907000D01*
X160147000Y-146100155D01*
X160376890Y-146221476D01*
X160786924Y-146051645D01*
X161089937Y-145775499D01*
X161106838Y-145865317D01*
X161245910Y-146081441D01*
X161458110Y-146226431D01*
X161710000Y-146277440D01*
X163410000Y-146277440D01*
X163645317Y-146233162D01*
X163861441Y-146094090D01*
X164006431Y-145881890D01*
X164020086Y-145814459D01*
X164049946Y-145859147D01*
X164531715Y-146181054D01*
X165100000Y-146294093D01*
X165668285Y-146181054D01*
X166150054Y-145859147D01*
X166370000Y-145529974D01*
X166589946Y-145859147D01*
X167071715Y-146181054D01*
X167640000Y-146294093D01*
X168208285Y-146181054D01*
X168690054Y-145859147D01*
X168910000Y-145529974D01*
X169129946Y-145859147D01*
X169611715Y-146181054D01*
X170180000Y-146294093D01*
X170748285Y-146181054D01*
X171230054Y-145859147D01*
X171551961Y-145377378D01*
X171665000Y-144809093D01*
X171665000Y-144750907D01*
X171551961Y-144182622D01*
X171230054Y-143700853D01*
X170748285Y-143378946D01*
X170180000Y-143265907D01*
X169611715Y-143378946D01*
X169129946Y-143700853D01*
X168910000Y-144030026D01*
X168690054Y-143700853D01*
X168208285Y-143378946D01*
X167765000Y-143290771D01*
X167765000Y-137160000D01*
X167707148Y-136869161D01*
X167542401Y-136622599D01*
X154207401Y-123287599D01*
X153960839Y-123122852D01*
X153670000Y-123065000D01*
X144459802Y-123065000D01*
X143589782Y-122194980D01*
X143590226Y-121685568D01*
X143391211Y-121203914D01*
X143132620Y-120944871D01*
X143389916Y-120688024D01*
X143589772Y-120206718D01*
X143590226Y-119685568D01*
X143391211Y-119203914D01*
X143132620Y-118944871D01*
X143389916Y-118688024D01*
X143589772Y-118206718D01*
X143590226Y-117685568D01*
X143391211Y-117203914D01*
X143132620Y-116944871D01*
X143389916Y-116688024D01*
X143589772Y-116206718D01*
X143590226Y-115685568D01*
X143391211Y-115203914D01*
X143247548Y-115060000D01*
X146370198Y-115060000D01*
X146752881Y-115442683D01*
X146629233Y-115627736D01*
X146520000Y-116176887D01*
X146520000Y-116233113D01*
X146629233Y-116782264D01*
X146940302Y-117247811D01*
X147405849Y-117558880D01*
X147955000Y-117668113D01*
X148504151Y-117558880D01*
X148969698Y-117247811D01*
X149280767Y-116782264D01*
X149390000Y-116233113D01*
X149390000Y-116176887D01*
X149280767Y-115627736D01*
X148969698Y-115162189D01*
X148504151Y-114851120D01*
X148262943Y-114803141D01*
X147884802Y-114425000D01*
X148910198Y-114425000D01*
X150385096Y-115899898D01*
X150330000Y-116176887D01*
X150330000Y-116233113D01*
X150439233Y-116782264D01*
X150750302Y-117247811D01*
X151215849Y-117558880D01*
X151765000Y-117668113D01*
X152314151Y-117558880D01*
X152779698Y-117247811D01*
X153090767Y-116782264D01*
X153200000Y-116233113D01*
X153200000Y-116176887D01*
X153090767Y-115627736D01*
X152779698Y-115162189D01*
X152314151Y-114851120D01*
X151765000Y-114741887D01*
X151441114Y-114806312D01*
X150787715Y-114152913D01*
X162134638Y-114152913D01*
X162451392Y-114919515D01*
X163037400Y-115506547D01*
X163803448Y-115824638D01*
X164632913Y-115825362D01*
X165399515Y-115508608D01*
X165986547Y-114922600D01*
X166304638Y-114156552D01*
X166305362Y-113327087D01*
X165988608Y-112560485D01*
X165402600Y-111973453D01*
X164636552Y-111655362D01*
X163807087Y-111654638D01*
X163040485Y-111971392D01*
X162453453Y-112557400D01*
X162135362Y-113323448D01*
X162134638Y-114152913D01*
X150787715Y-114152913D01*
X149762401Y-113127599D01*
X149515839Y-112962852D01*
X149225000Y-112905000D01*
X146977091Y-112905000D01*
X147321645Y-112526924D01*
X147491476Y-112116890D01*
X149688524Y-112116890D01*
X149858355Y-112526924D01*
X150248642Y-112955183D01*
X150773108Y-113201486D01*
X151003000Y-113080819D01*
X151003000Y-111887000D01*
X151257000Y-111887000D01*
X151257000Y-113080819D01*
X151486892Y-113201486D01*
X152011358Y-112955183D01*
X152401645Y-112526924D01*
X152571476Y-112116890D01*
X152450155Y-111887000D01*
X151257000Y-111887000D01*
X151003000Y-111887000D01*
X149809845Y-111887000D01*
X149688524Y-112116890D01*
X147491476Y-112116890D01*
X147370155Y-111887000D01*
X146177000Y-111887000D01*
X146177000Y-111907000D01*
X145923000Y-111907000D01*
X145923000Y-111887000D01*
X144729845Y-111887000D01*
X144608524Y-112116890D01*
X144778355Y-112526924D01*
X145122909Y-112905000D01*
X141284802Y-112905000D01*
X140220767Y-111840965D01*
X140663330Y-112024733D01*
X141273991Y-112025265D01*
X141838371Y-111792068D01*
X142270551Y-111360643D01*
X142504733Y-110796670D01*
X142505265Y-110186009D01*
X142272068Y-109621629D01*
X141870818Y-109219677D01*
X142270551Y-108820643D01*
X142457674Y-108370000D01*
X144552560Y-108370000D01*
X144552560Y-110070000D01*
X144596838Y-110305317D01*
X144735910Y-110521441D01*
X144948110Y-110666431D01*
X145056107Y-110688301D01*
X144778355Y-110993076D01*
X144608524Y-111403110D01*
X144729845Y-111633000D01*
X145923000Y-111633000D01*
X145923000Y-111613000D01*
X146177000Y-111613000D01*
X146177000Y-111633000D01*
X147370155Y-111633000D01*
X147491476Y-111403110D01*
X147321645Y-110993076D01*
X147045499Y-110690063D01*
X147135317Y-110673162D01*
X147351441Y-110534090D01*
X147496431Y-110321890D01*
X147547440Y-110070000D01*
X147547440Y-108370000D01*
X149632560Y-108370000D01*
X149632560Y-110070000D01*
X149676838Y-110305317D01*
X149815910Y-110521441D01*
X150028110Y-110666431D01*
X150136107Y-110688301D01*
X149858355Y-110993076D01*
X149688524Y-111403110D01*
X149809845Y-111633000D01*
X151003000Y-111633000D01*
X151003000Y-111613000D01*
X151257000Y-111613000D01*
X151257000Y-111633000D01*
X152450155Y-111633000D01*
X152571476Y-111403110D01*
X152401645Y-110993076D01*
X152125499Y-110690063D01*
X152215317Y-110673162D01*
X152431441Y-110534090D01*
X152576431Y-110321890D01*
X152627440Y-110070000D01*
X152627440Y-108370000D01*
X152583162Y-108134683D01*
X152444090Y-107918559D01*
X152231890Y-107773569D01*
X151980000Y-107722560D01*
X150280000Y-107722560D01*
X150044683Y-107766838D01*
X149828559Y-107905910D01*
X149683569Y-108118110D01*
X149632560Y-108370000D01*
X147547440Y-108370000D01*
X147503162Y-108134683D01*
X147364090Y-107918559D01*
X147151890Y-107773569D01*
X146900000Y-107722560D01*
X145200000Y-107722560D01*
X144964683Y-107766838D01*
X144748559Y-107905910D01*
X144603569Y-108118110D01*
X144552560Y-108370000D01*
X142457674Y-108370000D01*
X142504733Y-108256670D01*
X142505265Y-107646009D01*
X142272068Y-107081629D01*
X141870818Y-106679677D01*
X142270551Y-106280643D01*
X142504733Y-105716670D01*
X142505265Y-105106009D01*
X142272068Y-104541629D01*
X141870818Y-104139677D01*
X142270551Y-103740643D01*
X142504733Y-103176670D01*
X142505265Y-102566009D01*
X142272068Y-102001629D01*
X142227408Y-101956890D01*
X144608524Y-101956890D01*
X144778355Y-102366924D01*
X145168642Y-102795183D01*
X145693108Y-103041486D01*
X145923000Y-102920819D01*
X145923000Y-101727000D01*
X146177000Y-101727000D01*
X146177000Y-102920819D01*
X146406892Y-103041486D01*
X146931358Y-102795183D01*
X147321645Y-102366924D01*
X147491476Y-101956890D01*
X149688524Y-101956890D01*
X149858355Y-102366924D01*
X150248642Y-102795183D01*
X150773108Y-103041486D01*
X151003000Y-102920819D01*
X151003000Y-101727000D01*
X151257000Y-101727000D01*
X151257000Y-102920819D01*
X151486892Y-103041486D01*
X152011358Y-102795183D01*
X152401645Y-102366924D01*
X152571476Y-101956890D01*
X152450155Y-101727000D01*
X151257000Y-101727000D01*
X151003000Y-101727000D01*
X149809845Y-101727000D01*
X149688524Y-101956890D01*
X147491476Y-101956890D01*
X147370155Y-101727000D01*
X146177000Y-101727000D01*
X145923000Y-101727000D01*
X144729845Y-101727000D01*
X144608524Y-101956890D01*
X142227408Y-101956890D01*
X141870818Y-101599677D01*
X142270551Y-101200643D01*
X142504733Y-100636670D01*
X142505265Y-100026009D01*
X142272068Y-99461629D01*
X141870818Y-99059677D01*
X142270551Y-98660643D01*
X142457674Y-98210000D01*
X144552560Y-98210000D01*
X144552560Y-99910000D01*
X144596838Y-100145317D01*
X144735910Y-100361441D01*
X144948110Y-100506431D01*
X145056107Y-100528301D01*
X144778355Y-100833076D01*
X144608524Y-101243110D01*
X144729845Y-101473000D01*
X145923000Y-101473000D01*
X145923000Y-101453000D01*
X146177000Y-101453000D01*
X146177000Y-101473000D01*
X147370155Y-101473000D01*
X147491476Y-101243110D01*
X147321645Y-100833076D01*
X147045499Y-100530063D01*
X147135317Y-100513162D01*
X147351441Y-100374090D01*
X147496431Y-100161890D01*
X147547440Y-99910000D01*
X147547440Y-98210000D01*
X149632560Y-98210000D01*
X149632560Y-99910000D01*
X149676838Y-100145317D01*
X149815910Y-100361441D01*
X150028110Y-100506431D01*
X150136107Y-100528301D01*
X149858355Y-100833076D01*
X149688524Y-101243110D01*
X149809845Y-101473000D01*
X151003000Y-101473000D01*
X151003000Y-101453000D01*
X151257000Y-101453000D01*
X151257000Y-101473000D01*
X152450155Y-101473000D01*
X152571476Y-101243110D01*
X152401645Y-100833076D01*
X152125499Y-100530063D01*
X152215317Y-100513162D01*
X152431441Y-100374090D01*
X152576431Y-100161890D01*
X152627440Y-99910000D01*
X152627440Y-98210000D01*
X152583162Y-97974683D01*
X152444090Y-97758559D01*
X152231890Y-97613569D01*
X151980000Y-97562560D01*
X150280000Y-97562560D01*
X150044683Y-97606838D01*
X149828559Y-97745910D01*
X149683569Y-97958110D01*
X149632560Y-98210000D01*
X147547440Y-98210000D01*
X147503162Y-97974683D01*
X147364090Y-97758559D01*
X147151890Y-97613569D01*
X146900000Y-97562560D01*
X145200000Y-97562560D01*
X144964683Y-97606838D01*
X144748559Y-97745910D01*
X144603569Y-97958110D01*
X144552560Y-98210000D01*
X142457674Y-98210000D01*
X142504733Y-98096670D01*
X142505265Y-97486009D01*
X142272068Y-96921629D01*
X141870818Y-96519677D01*
X142270551Y-96120643D01*
X142504733Y-95556670D01*
X142505265Y-94946009D01*
X142272068Y-94381629D01*
X141870818Y-93979677D01*
X142270551Y-93580643D01*
X142394337Y-93282532D01*
X145077073Y-93282532D01*
X145175736Y-93549387D01*
X145785461Y-93775908D01*
X146435460Y-93751856D01*
X146924264Y-93549387D01*
X147022927Y-93282532D01*
X146050000Y-92309605D01*
X145077073Y-93282532D01*
X142394337Y-93282532D01*
X142504733Y-93016670D01*
X142505265Y-92406009D01*
X142281916Y-91865461D01*
X144404092Y-91865461D01*
X144428144Y-92515460D01*
X144630613Y-93004264D01*
X144897468Y-93102927D01*
X145870395Y-92130000D01*
X144897468Y-91157073D01*
X144630613Y-91255736D01*
X144404092Y-91865461D01*
X142281916Y-91865461D01*
X142272068Y-91841629D01*
X141870818Y-91439677D01*
X142270551Y-91040643D01*
X142504733Y-90476670D01*
X142505265Y-89866009D01*
X142272068Y-89301629D01*
X141870818Y-88899677D01*
X142270551Y-88500643D01*
X142497622Y-87953795D01*
X144414716Y-87953795D01*
X144663106Y-88554943D01*
X145122637Y-89015278D01*
X145723352Y-89264716D01*
X146373795Y-89265284D01*
X146974943Y-89016894D01*
X147195000Y-88797221D01*
X147195000Y-90920980D01*
X147137206Y-90863186D01*
X147022926Y-90977466D01*
X146924264Y-90710613D01*
X146314539Y-90484092D01*
X145664540Y-90508144D01*
X145175736Y-90710613D01*
X145077073Y-90977468D01*
X146050000Y-91950395D01*
X146064143Y-91936253D01*
X146243748Y-92115858D01*
X146229605Y-92130000D01*
X147037488Y-92937883D01*
X147161883Y-93238943D01*
X147424673Y-93502192D01*
X147768201Y-93644838D01*
X148140167Y-93645162D01*
X148483943Y-93503117D01*
X148704913Y-93282532D01*
X151577073Y-93282532D01*
X151675736Y-93549387D01*
X152285461Y-93775908D01*
X152935460Y-93751856D01*
X153424264Y-93549387D01*
X153522927Y-93282532D01*
X152550000Y-92309605D01*
X151577073Y-93282532D01*
X148704913Y-93282532D01*
X148747192Y-93240327D01*
X148856765Y-92976446D01*
X149118943Y-92868117D01*
X149382192Y-92605327D01*
X149524838Y-92261799D01*
X149525162Y-91889833D01*
X149515092Y-91865461D01*
X150904092Y-91865461D01*
X150928144Y-92515460D01*
X151130613Y-93004264D01*
X151397468Y-93102927D01*
X152370395Y-92130000D01*
X152729605Y-92130000D01*
X153702532Y-93102927D01*
X153969387Y-93004264D01*
X154195908Y-92394539D01*
X154171856Y-91744540D01*
X153969387Y-91255736D01*
X153702532Y-91157073D01*
X152729605Y-92130000D01*
X152370395Y-92130000D01*
X151397468Y-91157073D01*
X151130613Y-91255736D01*
X150904092Y-91865461D01*
X149515092Y-91865461D01*
X149383117Y-91546057D01*
X149350000Y-91512882D01*
X149350000Y-90977468D01*
X151577073Y-90977468D01*
X152550000Y-91950395D01*
X153522927Y-90977468D01*
X153424264Y-90710613D01*
X152814539Y-90484092D01*
X152164540Y-90508144D01*
X151675736Y-90710613D01*
X151577073Y-90977468D01*
X149350000Y-90977468D01*
X149350000Y-87953795D01*
X150914716Y-87953795D01*
X151163106Y-88554943D01*
X151622637Y-89015278D01*
X152223352Y-89264716D01*
X152873795Y-89265284D01*
X153474943Y-89016894D01*
X153935278Y-88557363D01*
X154184716Y-87956648D01*
X154185180Y-87424187D01*
X162784752Y-87424187D01*
X163002757Y-87951800D01*
X163406077Y-88355824D01*
X163933309Y-88574750D01*
X164504187Y-88575248D01*
X165031800Y-88357243D01*
X165435824Y-87953923D01*
X165654750Y-87426691D01*
X165655248Y-86855813D01*
X165437243Y-86328200D01*
X165033923Y-85924176D01*
X164506691Y-85705250D01*
X163935813Y-85704752D01*
X163408200Y-85922757D01*
X163004176Y-86326077D01*
X162785250Y-86853309D01*
X162784752Y-87424187D01*
X154185180Y-87424187D01*
X154185284Y-87306205D01*
X153936894Y-86705057D01*
X153477363Y-86244722D01*
X152876648Y-85995284D01*
X152226205Y-85994716D01*
X151625057Y-86243106D01*
X151164722Y-86702637D01*
X150915284Y-87303352D01*
X150914716Y-87953795D01*
X149350000Y-87953795D01*
X149350000Y-86039802D01*
X150266348Y-85123454D01*
X150823330Y-85354733D01*
X151433991Y-85355265D01*
X151998371Y-85122068D01*
X152430551Y-84690643D01*
X152664733Y-84126670D01*
X152665265Y-83516009D01*
X152432068Y-82951629D01*
X152254908Y-82774159D01*
X152389699Y-82718327D01*
X152568327Y-82539698D01*
X152665000Y-82306309D01*
X152665000Y-81565750D01*
X152506250Y-81407000D01*
X151257000Y-81407000D01*
X151257000Y-81427000D01*
X151003000Y-81427000D01*
X151003000Y-81407000D01*
X149753750Y-81407000D01*
X149595000Y-81565750D01*
X149595000Y-82306309D01*
X149691673Y-82539698D01*
X149870301Y-82718327D01*
X150004994Y-82774119D01*
X149829449Y-82949357D01*
X149595267Y-83513330D01*
X149595152Y-83645046D01*
X148272500Y-84967698D01*
X147539766Y-84234964D01*
X147584733Y-84126670D01*
X147585265Y-83516009D01*
X147352068Y-82951629D01*
X147174908Y-82774159D01*
X147309699Y-82718327D01*
X147488327Y-82539698D01*
X147585000Y-82306309D01*
X147585000Y-81565750D01*
X147426250Y-81407000D01*
X146177000Y-81407000D01*
X146177000Y-81427000D01*
X145923000Y-81427000D01*
X145923000Y-81407000D01*
X144673750Y-81407000D01*
X144515000Y-81565750D01*
X144515000Y-82306309D01*
X144611673Y-82539698D01*
X144790301Y-82718327D01*
X144924994Y-82774119D01*
X144749449Y-82949357D01*
X144515267Y-83513330D01*
X144514735Y-84123991D01*
X144747932Y-84688371D01*
X145179357Y-85120551D01*
X145743330Y-85354733D01*
X146353991Y-85355265D01*
X146464713Y-85309515D01*
X147195000Y-86039802D01*
X147195000Y-86462740D01*
X146977363Y-86244722D01*
X146376648Y-85995284D01*
X145726205Y-85994716D01*
X145125057Y-86243106D01*
X144664722Y-86702637D01*
X144415284Y-87303352D01*
X144414716Y-87953795D01*
X142497622Y-87953795D01*
X142504733Y-87936670D01*
X142505265Y-87326009D01*
X142272068Y-86761629D01*
X141840643Y-86329449D01*
X141819806Y-86320797D01*
X141870554Y-86170159D01*
X140970000Y-85269605D01*
X140069446Y-86170159D01*
X140120035Y-86320327D01*
X140101629Y-86327932D01*
X139669449Y-86759357D01*
X139435267Y-87323330D01*
X139434735Y-87933991D01*
X139667932Y-88498371D01*
X140069182Y-88900323D01*
X139669449Y-89299357D01*
X139435267Y-89863330D01*
X139434909Y-90273950D01*
X139300643Y-90139449D01*
X138736670Y-89905267D01*
X138126009Y-89904735D01*
X137561629Y-90137932D01*
X137129449Y-90569357D01*
X136895267Y-91133330D01*
X136894735Y-91743991D01*
X137127932Y-92308371D01*
X137529182Y-92710323D01*
X137129449Y-93109357D01*
X136895267Y-93673330D01*
X136894735Y-94283991D01*
X137127932Y-94848371D01*
X137559357Y-95280551D01*
X138123330Y-95514733D01*
X138733991Y-95515265D01*
X139298371Y-95282068D01*
X139435091Y-95145587D01*
X139434735Y-95553991D01*
X139667932Y-96118371D01*
X140069182Y-96520323D01*
X139669449Y-96919357D01*
X139435267Y-97483330D01*
X139434735Y-98093991D01*
X139667932Y-98658371D01*
X140069182Y-99060323D01*
X139669449Y-99459357D01*
X139435267Y-100023330D01*
X139434735Y-100633991D01*
X139667932Y-101198371D01*
X140069182Y-101600323D01*
X139669449Y-101999357D01*
X139435267Y-102563330D01*
X139434735Y-103173991D01*
X139667932Y-103738371D01*
X140069182Y-104140323D01*
X139669449Y-104539357D01*
X139435267Y-105103330D01*
X139434735Y-105713991D01*
X139667932Y-106278371D01*
X140069182Y-106680323D01*
X139669449Y-107079357D01*
X139435267Y-107643330D01*
X139434735Y-108253991D01*
X139667932Y-108818371D01*
X140069182Y-109220323D01*
X139669449Y-109619357D01*
X139435267Y-110183330D01*
X139434735Y-110793991D01*
X139618473Y-111238671D01*
X127033454Y-98653652D01*
X127264733Y-98096670D01*
X127265265Y-97486009D01*
X127032068Y-96921629D01*
X126630818Y-96519677D01*
X127030551Y-96120643D01*
X127264733Y-95556670D01*
X127265265Y-94946009D01*
X127032068Y-94381629D01*
X126630818Y-93979677D01*
X127030551Y-93580643D01*
X127264733Y-93016670D01*
X127265265Y-92406009D01*
X127032068Y-91841629D01*
X126600643Y-91409449D01*
X126579806Y-91400797D01*
X126630554Y-91250159D01*
X125730000Y-90349605D01*
X124829446Y-91250159D01*
X124880035Y-91400327D01*
X124861629Y-91407932D01*
X124429449Y-91839357D01*
X124195267Y-92403330D01*
X124194735Y-93013991D01*
X124427932Y-93578371D01*
X124829182Y-93980323D01*
X124429449Y-94379357D01*
X124195267Y-94943330D01*
X124194735Y-95553991D01*
X124427932Y-96118371D01*
X124829182Y-96520323D01*
X124429449Y-96919357D01*
X124195267Y-97483330D01*
X124194735Y-98093991D01*
X124427932Y-98658371D01*
X124829182Y-99060323D01*
X124429449Y-99459357D01*
X124195267Y-100023330D01*
X124194735Y-100633991D01*
X124427932Y-101198371D01*
X124829182Y-101600323D01*
X124429449Y-101999357D01*
X124195267Y-102563330D01*
X124194735Y-103173991D01*
X124427932Y-103738371D01*
X124829182Y-104140323D01*
X124429449Y-104539357D01*
X124195267Y-105103330D01*
X124194735Y-105713991D01*
X124427932Y-106278371D01*
X124829182Y-106680323D01*
X124429449Y-107079357D01*
X124195267Y-107643330D01*
X124194735Y-108253991D01*
X124427932Y-108818371D01*
X124829182Y-109220323D01*
X124429449Y-109619357D01*
X124195267Y-110183330D01*
X124194735Y-110793991D01*
X124427932Y-111358371D01*
X124859357Y-111790551D01*
X125423330Y-112024733D01*
X126033991Y-112025265D01*
X126598371Y-111792068D01*
X127030551Y-111360643D01*
X127264733Y-110796670D01*
X127265265Y-110186009D01*
X127032068Y-109621629D01*
X126630818Y-109219677D01*
X127030551Y-108820643D01*
X127264733Y-108256670D01*
X127265265Y-107646009D01*
X127032068Y-107081629D01*
X126630818Y-106679677D01*
X127030551Y-106280643D01*
X127264733Y-105716670D01*
X127265265Y-105106009D01*
X127032068Y-104541629D01*
X126630818Y-104139677D01*
X127030551Y-103740643D01*
X127264733Y-103176670D01*
X127265265Y-102566009D01*
X127081527Y-102121329D01*
X139797599Y-114837401D01*
X140044160Y-115002148D01*
X140092414Y-115011746D01*
X140335000Y-115060000D01*
X141312308Y-115060000D01*
X141170084Y-115201976D01*
X140970228Y-115683282D01*
X140969774Y-116204432D01*
X141168789Y-116686086D01*
X141427380Y-116945129D01*
X141170084Y-117201976D01*
X140970228Y-117683282D01*
X140969774Y-118204432D01*
X141168789Y-118686086D01*
X141427380Y-118945129D01*
X141170084Y-119201976D01*
X140970228Y-119683282D01*
X140969774Y-120204432D01*
X141168789Y-120686086D01*
X141427380Y-120945129D01*
X141170084Y-121201976D01*
X140970228Y-121683282D01*
X140969774Y-122204432D01*
X141168789Y-122686086D01*
X141427380Y-122945129D01*
X141170084Y-123201976D01*
X140970228Y-123683282D01*
X140969774Y-124204432D01*
X141168789Y-124686086D01*
X141427380Y-124945129D01*
X141170084Y-125201976D01*
X140970228Y-125683282D01*
X140969774Y-126204432D01*
X141168789Y-126686086D01*
X141536976Y-127054916D01*
X141592631Y-127078026D01*
X142280000Y-127765395D01*
X142966721Y-127078674D01*
X143021086Y-127056211D01*
X143389916Y-126688024D01*
X143589772Y-126206718D01*
X143590078Y-125855000D01*
X146612976Y-125855000D01*
X146520250Y-126078309D01*
X146519752Y-126649187D01*
X146737757Y-127176800D01*
X147141077Y-127580824D01*
X147668309Y-127799750D01*
X148239187Y-127800248D01*
X148766800Y-127582243D01*
X149170824Y-127178923D01*
X149389750Y-126651691D01*
X149390248Y-126080813D01*
X149296944Y-125855000D01*
X150422976Y-125855000D01*
X150330250Y-126078309D01*
X150329752Y-126649187D01*
X150547757Y-127176800D01*
X150951077Y-127580824D01*
X151478309Y-127799750D01*
X152049187Y-127800248D01*
X152576800Y-127582243D01*
X152980824Y-127178923D01*
X153106488Y-126876290D01*
X164235211Y-138005013D01*
X163935813Y-138004752D01*
X163931887Y-138006374D01*
X163782756Y-137857244D01*
X163782755Y-137857243D01*
X163519974Y-137681658D01*
X163210000Y-137620000D01*
X114300000Y-137620000D01*
X113990027Y-137681657D01*
X113727244Y-137857243D01*
X112829322Y-138755165D01*
X112355813Y-138754752D01*
X111828200Y-138972757D01*
X111424176Y-139376077D01*
X111205250Y-139903309D01*
X111204752Y-140474187D01*
X101727000Y-140474187D01*
X101727000Y-130204432D01*
X140969774Y-130204432D01*
X141168789Y-130686086D01*
X141536976Y-131054916D01*
X142018282Y-131254772D01*
X142539432Y-131255226D01*
X143021086Y-131056211D01*
X143389916Y-130688024D01*
X143589772Y-130206718D01*
X143590147Y-129776036D01*
X147342193Y-129776036D01*
X147372518Y-130266413D01*
X147464711Y-130488990D01*
X147393569Y-130593110D01*
X147342560Y-130845000D01*
X147342560Y-132045000D01*
X147386838Y-132280317D01*
X147525910Y-132496441D01*
X147738110Y-132641431D01*
X147990000Y-132692440D01*
X149190000Y-132692440D01*
X149425317Y-132648162D01*
X149641441Y-132509090D01*
X149786431Y-132296890D01*
X149837440Y-132045000D01*
X149837440Y-130845000D01*
X149793162Y-130609683D01*
X149711234Y-130482364D01*
X149837807Y-130113964D01*
X149807482Y-129623587D01*
X149678164Y-129311383D01*
X149452735Y-129261870D01*
X148769605Y-129945000D01*
X148783748Y-129959143D01*
X148604143Y-130138748D01*
X148590000Y-130124605D01*
X148575858Y-130138748D01*
X148396253Y-129959143D01*
X148410395Y-129945000D01*
X147727265Y-129261870D01*
X147501836Y-129311383D01*
X147342193Y-129776036D01*
X143590147Y-129776036D01*
X143590226Y-129685568D01*
X143391211Y-129203914D01*
X143269775Y-129082265D01*
X147906870Y-129082265D01*
X148590000Y-129765395D01*
X149273130Y-129082265D01*
X149223617Y-128856836D01*
X148758964Y-128697193D01*
X148268587Y-128727518D01*
X147956383Y-128856836D01*
X147906870Y-129082265D01*
X143269775Y-129082265D01*
X143023024Y-128835084D01*
X142967369Y-128811974D01*
X142280000Y-128124605D01*
X141593279Y-128811326D01*
X141538914Y-128833789D01*
X141170084Y-129201976D01*
X140970228Y-129683282D01*
X140969774Y-130204432D01*
X101727000Y-130204432D01*
X101727000Y-127758100D01*
X140957478Y-127758100D01*
X140986625Y-128278434D01*
X141129672Y-128623781D01*
X141362853Y-128682542D01*
X142100395Y-127945000D01*
X142459605Y-127945000D01*
X143197147Y-128682542D01*
X143430328Y-128623781D01*
X143602522Y-128131900D01*
X143573375Y-127611566D01*
X143430328Y-127266219D01*
X143197147Y-127207458D01*
X142459605Y-127945000D01*
X142100395Y-127945000D01*
X141362853Y-127207458D01*
X141129672Y-127266219D01*
X140957478Y-127758100D01*
X101727000Y-127758100D01*
X101727000Y-122263599D01*
X122597699Y-122263599D01*
X122861281Y-122901515D01*
X123348918Y-123390004D01*
X123986373Y-123654699D01*
X124676599Y-123655301D01*
X125314515Y-123391719D01*
X125803004Y-122904082D01*
X126067699Y-122266627D01*
X126068301Y-121576401D01*
X125804719Y-120938485D01*
X125317082Y-120449996D01*
X124679627Y-120185301D01*
X123989401Y-120184699D01*
X123351485Y-120448281D01*
X122862996Y-120935918D01*
X122598301Y-121573373D01*
X122597699Y-122263599D01*
X101727000Y-122263599D01*
X101727000Y-114002913D01*
X110554638Y-114002913D01*
X110871392Y-114769515D01*
X111457400Y-115356547D01*
X112223448Y-115674638D01*
X113052913Y-115675362D01*
X113819515Y-115358608D01*
X114406547Y-114772600D01*
X114724638Y-114006552D01*
X114725362Y-113177087D01*
X114408608Y-112410485D01*
X113822600Y-111823453D01*
X113056552Y-111505362D01*
X112227087Y-111504638D01*
X111460485Y-111821392D01*
X110873453Y-112407400D01*
X110555362Y-113173448D01*
X110554638Y-114002913D01*
X101727000Y-114002913D01*
X101727000Y-89929336D01*
X124183542Y-89929336D01*
X124209161Y-90539460D01*
X124393357Y-90984148D01*
X124649841Y-91070554D01*
X125550395Y-90170000D01*
X125909605Y-90170000D01*
X126810159Y-91070554D01*
X127066643Y-90984148D01*
X127276458Y-90410664D01*
X127250839Y-89800540D01*
X127066643Y-89355852D01*
X126810159Y-89269446D01*
X125909605Y-90170000D01*
X125550395Y-90170000D01*
X124649841Y-89269446D01*
X124393357Y-89355852D01*
X124183542Y-89929336D01*
X101727000Y-89929336D01*
X101727000Y-88897745D01*
X111811861Y-88897745D01*
X111885995Y-89143864D01*
X112423223Y-89336965D01*
X112993454Y-89309778D01*
X113394005Y-89143864D01*
X113468139Y-88897745D01*
X112640000Y-88069605D01*
X111811861Y-88897745D01*
X101727000Y-88897745D01*
X101727000Y-87673223D01*
X111193035Y-87673223D01*
X111220222Y-88243454D01*
X111386136Y-88644005D01*
X111632255Y-88718139D01*
X112460395Y-87890000D01*
X112819605Y-87890000D01*
X113647745Y-88718139D01*
X113893864Y-88644005D01*
X114086965Y-88106777D01*
X114059778Y-87536546D01*
X113893864Y-87135995D01*
X113647745Y-87061861D01*
X112819605Y-87890000D01*
X112460395Y-87890000D01*
X111632255Y-87061861D01*
X111386136Y-87135995D01*
X111193035Y-87673223D01*
X101727000Y-87673223D01*
X101727000Y-86882255D01*
X111811861Y-86882255D01*
X112640000Y-87710395D01*
X113468139Y-86882255D01*
X113394005Y-86636136D01*
X112856777Y-86443035D01*
X112286546Y-86470222D01*
X111885995Y-86636136D01*
X111811861Y-86882255D01*
X101727000Y-86882255D01*
X101727000Y-84984466D01*
X102201648Y-82598245D01*
X103562136Y-80562133D01*
X105598243Y-79201649D01*
X107280638Y-78867000D01*
X114374363Y-78867000D01*
X113598005Y-79642005D01*
M02*
