G04 #@! TF.FileFunction,Legend,Top*
%FSLAX46Y46*%
G04 Gerber Fmt 4.6, Leading zero omitted, Abs format (unit mm)*
G04 Created by KiCad (PCBNEW 4.0.7) date 04/23/18 21:59:08*
%MOMM*%
%LPD*%
G01*
G04 APERTURE LIST*
%ADD10C,0.100000*%
%ADD11C,0.150000*%
%ADD12C,0.300000*%
%ADD13C,0.200000*%
%ADD14C,0.120000*%
%ADD15C,0.500000*%
G04 APERTURE END LIST*
D10*
D11*
X148407381Y-122975476D02*
X147931190Y-123308810D01*
X148407381Y-123546905D02*
X147407381Y-123546905D01*
X147407381Y-123165952D01*
X147455000Y-123070714D01*
X147502619Y-123023095D01*
X147597857Y-122975476D01*
X147740714Y-122975476D01*
X147835952Y-123023095D01*
X147883571Y-123070714D01*
X147931190Y-123165952D01*
X147931190Y-123546905D01*
X147502619Y-122594524D02*
X147455000Y-122546905D01*
X147407381Y-122451667D01*
X147407381Y-122213571D01*
X147455000Y-122118333D01*
X147502619Y-122070714D01*
X147597857Y-122023095D01*
X147693095Y-122023095D01*
X147835952Y-122070714D01*
X148407381Y-122642143D01*
X148407381Y-122023095D01*
X148788333Y-120546904D02*
X148740714Y-120594524D01*
X148597857Y-120689762D01*
X148502619Y-120737381D01*
X148359762Y-120785000D01*
X148121667Y-120832619D01*
X147931190Y-120832619D01*
X147693095Y-120785000D01*
X147550238Y-120737381D01*
X147455000Y-120689762D01*
X147312143Y-120594524D01*
X147264524Y-120546904D01*
X147407381Y-119689761D02*
X147407381Y-120165952D01*
X147883571Y-120213571D01*
X147835952Y-120165952D01*
X147788333Y-120070714D01*
X147788333Y-119832618D01*
X147835952Y-119737380D01*
X147883571Y-119689761D01*
X147978810Y-119642142D01*
X148216905Y-119642142D01*
X148312143Y-119689761D01*
X148359762Y-119737380D01*
X148407381Y-119832618D01*
X148407381Y-120070714D01*
X148359762Y-120165952D01*
X148312143Y-120213571D01*
X148788333Y-119308809D02*
X148740714Y-119261190D01*
X148597857Y-119165952D01*
X148502619Y-119118333D01*
X148359762Y-119070714D01*
X148121667Y-119023095D01*
X147931190Y-119023095D01*
X147693095Y-119070714D01*
X147550238Y-119118333D01*
X147455000Y-119165952D01*
X147312143Y-119261190D01*
X147264524Y-119308809D01*
X152217381Y-122975476D02*
X151741190Y-123308810D01*
X152217381Y-123546905D02*
X151217381Y-123546905D01*
X151217381Y-123165952D01*
X151265000Y-123070714D01*
X151312619Y-123023095D01*
X151407857Y-122975476D01*
X151550714Y-122975476D01*
X151645952Y-123023095D01*
X151693571Y-123070714D01*
X151741190Y-123165952D01*
X151741190Y-123546905D01*
X152217381Y-122023095D02*
X152217381Y-122594524D01*
X152217381Y-122308810D02*
X151217381Y-122308810D01*
X151360238Y-122404048D01*
X151455476Y-122499286D01*
X151503095Y-122594524D01*
X152598333Y-120546904D02*
X152550714Y-120594524D01*
X152407857Y-120689762D01*
X152312619Y-120737381D01*
X152169762Y-120785000D01*
X151931667Y-120832619D01*
X151741190Y-120832619D01*
X151503095Y-120785000D01*
X151360238Y-120737381D01*
X151265000Y-120689762D01*
X151122143Y-120594524D01*
X151074524Y-120546904D01*
X151550714Y-119737380D02*
X152217381Y-119737380D01*
X151169762Y-119975476D02*
X151884048Y-120213571D01*
X151884048Y-119594523D01*
X152598333Y-119308809D02*
X152550714Y-119261190D01*
X152407857Y-119165952D01*
X152312619Y-119118333D01*
X152169762Y-119070714D01*
X151931667Y-119023095D01*
X151741190Y-119023095D01*
X151503095Y-119070714D01*
X151360238Y-119118333D01*
X151265000Y-119165952D01*
X151122143Y-119261190D01*
X151074524Y-119308809D01*
D12*
X130842144Y-124995714D02*
X130770715Y-125067143D01*
X130556429Y-125138571D01*
X130413572Y-125138571D01*
X130199287Y-125067143D01*
X130056429Y-124924286D01*
X129985001Y-124781429D01*
X129913572Y-124495714D01*
X129913572Y-124281429D01*
X129985001Y-123995714D01*
X130056429Y-123852857D01*
X130199287Y-123710000D01*
X130413572Y-123638571D01*
X130556429Y-123638571D01*
X130770715Y-123710000D01*
X130842144Y-123781429D01*
X132342144Y-124995714D02*
X132270715Y-125067143D01*
X132056429Y-125138571D01*
X131913572Y-125138571D01*
X131699287Y-125067143D01*
X131556429Y-124924286D01*
X131485001Y-124781429D01*
X131413572Y-124495714D01*
X131413572Y-124281429D01*
X131485001Y-123995714D01*
X131556429Y-123852857D01*
X131699287Y-123710000D01*
X131913572Y-123638571D01*
X132056429Y-123638571D01*
X132270715Y-123710000D01*
X132342144Y-123781429D01*
X133770715Y-125138571D02*
X132913572Y-125138571D01*
X133342144Y-125138571D02*
X133342144Y-123638571D01*
X133199287Y-123852857D01*
X133056429Y-123995714D01*
X132913572Y-124067143D01*
X135199286Y-125138571D02*
X134342143Y-125138571D01*
X134770715Y-125138571D02*
X134770715Y-123638571D01*
X134627858Y-123852857D01*
X134485000Y-123995714D01*
X134342143Y-124067143D01*
X136127857Y-123638571D02*
X136270714Y-123638571D01*
X136413571Y-123710000D01*
X136485000Y-123781429D01*
X136556429Y-123924286D01*
X136627857Y-124210000D01*
X136627857Y-124567143D01*
X136556429Y-124852857D01*
X136485000Y-124995714D01*
X136413571Y-125067143D01*
X136270714Y-125138571D01*
X136127857Y-125138571D01*
X135985000Y-125067143D01*
X135913571Y-124995714D01*
X135842143Y-124852857D01*
X135770714Y-124567143D01*
X135770714Y-124210000D01*
X135842143Y-123924286D01*
X135913571Y-123781429D01*
X135985000Y-123710000D01*
X136127857Y-123638571D01*
X138056428Y-125138571D02*
X137199285Y-125138571D01*
X137627857Y-125138571D02*
X137627857Y-123638571D01*
X137485000Y-123852857D01*
X137342142Y-123995714D01*
X137199285Y-124067143D01*
X144585715Y-136568571D02*
X144585715Y-135068571D01*
X145228572Y-135211429D02*
X145300001Y-135140000D01*
X145442858Y-135068571D01*
X145800001Y-135068571D01*
X145942858Y-135140000D01*
X146014287Y-135211429D01*
X146085715Y-135354286D01*
X146085715Y-135497143D01*
X146014287Y-135711429D01*
X145157144Y-136568571D01*
X146085715Y-136568571D01*
X147585715Y-136425714D02*
X147514286Y-136497143D01*
X147300000Y-136568571D01*
X147157143Y-136568571D01*
X146942858Y-136497143D01*
X146800000Y-136354286D01*
X146728572Y-136211429D01*
X146657143Y-135925714D01*
X146657143Y-135711429D01*
X146728572Y-135425714D01*
X146800000Y-135282857D01*
X146942858Y-135140000D01*
X147157143Y-135068571D01*
X147300000Y-135068571D01*
X147514286Y-135140000D01*
X147585715Y-135211429D01*
X129345715Y-136568571D02*
X129345715Y-135068571D01*
X129988572Y-135211429D02*
X130060001Y-135140000D01*
X130202858Y-135068571D01*
X130560001Y-135068571D01*
X130702858Y-135140000D01*
X130774287Y-135211429D01*
X130845715Y-135354286D01*
X130845715Y-135497143D01*
X130774287Y-135711429D01*
X129917144Y-136568571D01*
X130845715Y-136568571D01*
X132345715Y-136425714D02*
X132274286Y-136497143D01*
X132060000Y-136568571D01*
X131917143Y-136568571D01*
X131702858Y-136497143D01*
X131560000Y-136354286D01*
X131488572Y-136211429D01*
X131417143Y-135925714D01*
X131417143Y-135711429D01*
X131488572Y-135425714D01*
X131560000Y-135282857D01*
X131702858Y-135140000D01*
X131917143Y-135068571D01*
X132060000Y-135068571D01*
X132274286Y-135140000D01*
X132345715Y-135211429D01*
D11*
X169961421Y-147613232D02*
X170075905Y-147188967D01*
X169638172Y-147289983D02*
X170274568Y-146795008D01*
X170490067Y-147010508D01*
X170513638Y-147087953D01*
X170510271Y-147138460D01*
X170476598Y-147212538D01*
X170385686Y-147283249D01*
X170298139Y-147303452D01*
X170240897Y-147300085D01*
X170156718Y-147269780D01*
X169941218Y-147054280D01*
X170207225Y-147805161D02*
X170257733Y-147909544D01*
X170392420Y-148044231D01*
X170476598Y-148074535D01*
X170533842Y-148077902D01*
X170621388Y-148057699D01*
X170681997Y-148010558D01*
X170715668Y-147936481D01*
X170719035Y-147885973D01*
X170695466Y-147808528D01*
X170618021Y-147677208D01*
X170594450Y-147599763D01*
X170597817Y-147549256D01*
X170631490Y-147475178D01*
X170692098Y-147428037D01*
X170779645Y-147407834D01*
X170836886Y-147411201D01*
X170921066Y-147441506D01*
X171055753Y-147576193D01*
X171106261Y-147680575D01*
X171075956Y-148135144D02*
X171264518Y-148323706D01*
X171011980Y-148663791D02*
X170742606Y-148394417D01*
X171379002Y-147899442D01*
X171648376Y-148168816D01*
X171810000Y-148330440D02*
X172133249Y-148653689D01*
X171335229Y-148987040D02*
X171971625Y-148492065D01*
X167098172Y-147289983D02*
X167734568Y-146795008D01*
X167468562Y-147337123D01*
X168111692Y-147172132D01*
X167475296Y-147667107D01*
X167744670Y-147936481D02*
X168381066Y-147441506D01*
X168017411Y-148155347D02*
X168067919Y-148259730D01*
X168202606Y-148394417D01*
X168286785Y-148424721D01*
X168344028Y-148428088D01*
X168431574Y-148407886D01*
X168492183Y-148360744D01*
X168525855Y-148286667D01*
X168529221Y-148236159D01*
X168505652Y-148158714D01*
X168428207Y-148027394D01*
X168404636Y-147949949D01*
X168408003Y-147899442D01*
X168441676Y-147825364D01*
X168502284Y-147778223D01*
X168589831Y-147758020D01*
X168647073Y-147761387D01*
X168731252Y-147791692D01*
X168865939Y-147926379D01*
X168916447Y-148030762D01*
X169296938Y-148357378D02*
X169404687Y-148465127D01*
X169428258Y-148542573D01*
X169421523Y-148643587D01*
X169327243Y-148764806D01*
X169115110Y-148929797D01*
X168966955Y-148997141D01*
X168852471Y-148990407D01*
X168768291Y-148960102D01*
X168660541Y-148852352D01*
X168636971Y-148774908D01*
X168643706Y-148673892D01*
X168737987Y-148552674D01*
X168950119Y-148387682D01*
X169098275Y-148320338D01*
X169212759Y-148327073D01*
X169296938Y-148357378D01*
X164750101Y-147428038D02*
X164800609Y-147532420D01*
X164935296Y-147667107D01*
X165019475Y-147697412D01*
X165076718Y-147700779D01*
X165164264Y-147680576D01*
X165224873Y-147633435D01*
X165258545Y-147559357D01*
X165261912Y-147508850D01*
X165238342Y-147431404D01*
X165160897Y-147300085D01*
X165137326Y-147222640D01*
X165140694Y-147172132D01*
X165174366Y-147098054D01*
X165234974Y-147050914D01*
X165322521Y-147030710D01*
X165379763Y-147034078D01*
X165463943Y-147064383D01*
X165598630Y-147199070D01*
X165649137Y-147303452D01*
X165669341Y-148293402D02*
X165612098Y-148290035D01*
X165500982Y-148232793D01*
X165447107Y-148178918D01*
X165396599Y-148074536D01*
X165403334Y-147973520D01*
X165437005Y-147899442D01*
X165531286Y-147778224D01*
X165622200Y-147707513D01*
X165770355Y-147640169D01*
X165857902Y-147619966D01*
X165972386Y-147626701D01*
X166083503Y-147683943D01*
X166137378Y-147737818D01*
X166187886Y-147842200D01*
X166184518Y-147892707D01*
X165851168Y-148582979D02*
X166487564Y-148088004D01*
X166174417Y-148906228D02*
X166295635Y-148380948D01*
X166810813Y-148411253D02*
X166123909Y-148370847D01*
X162018172Y-147289983D02*
X162654568Y-146795008D01*
X162388562Y-147337123D01*
X163031692Y-147172132D01*
X162395296Y-147667107D01*
X163408816Y-147549256D02*
X163516565Y-147657005D01*
X163540136Y-147734451D01*
X163533402Y-147835465D01*
X163439121Y-147956684D01*
X163226988Y-148121675D01*
X163078833Y-148189019D01*
X162964349Y-148182285D01*
X162880169Y-148151980D01*
X162772420Y-148044231D01*
X162748850Y-147966786D01*
X162755584Y-147865770D01*
X162849865Y-147744552D01*
X163061997Y-147579560D01*
X163210153Y-147512216D01*
X163324637Y-147518951D01*
X163408816Y-147549256D01*
X163260660Y-148478596D02*
X163311168Y-148582979D01*
X163445855Y-148717666D01*
X163530034Y-148747970D01*
X163587277Y-148751337D01*
X163674823Y-148731135D01*
X163735432Y-148683993D01*
X163769104Y-148609916D01*
X163772470Y-148559408D01*
X163748901Y-148481963D01*
X163671456Y-148350643D01*
X163647885Y-148273198D01*
X163651252Y-148222691D01*
X163684925Y-148148613D01*
X163745533Y-148101472D01*
X163833080Y-148081269D01*
X163890321Y-148084636D01*
X163974501Y-148114941D01*
X164109188Y-148249628D01*
X164159696Y-148354010D01*
X163796041Y-149067852D02*
X164432437Y-148572877D01*
X158071515Y-148067800D02*
X157994070Y-148091370D01*
X157913258Y-148172182D01*
X157856016Y-148283299D01*
X157849280Y-148397783D01*
X157869484Y-148485330D01*
X157936828Y-148633485D01*
X158007539Y-148724399D01*
X158128756Y-148818681D01*
X158202834Y-148852352D01*
X158303850Y-148859086D01*
X158408233Y-148808578D01*
X158462107Y-148754704D01*
X158519350Y-148643587D01*
X158522716Y-148586345D01*
X158357725Y-148374213D01*
X158249975Y-148481963D01*
X158812293Y-148404518D02*
X158317319Y-147768122D01*
X159135542Y-148081269D01*
X158640567Y-147444873D01*
X159404916Y-147811895D02*
X158909941Y-147175499D01*
X159044628Y-147040812D01*
X159149010Y-146990304D01*
X159250026Y-146997038D01*
X159324104Y-147030710D01*
X159445322Y-147124991D01*
X159516033Y-147215905D01*
X159583376Y-147364061D01*
X159603580Y-147451606D01*
X159596845Y-147566091D01*
X159539603Y-147677208D01*
X159404916Y-147811895D01*
X155819695Y-148360745D02*
X156503232Y-148808579D01*
X156196819Y-147983621D01*
X157156464Y-148047597D02*
X157153097Y-148104839D01*
X157095855Y-148215956D01*
X157041980Y-148269831D01*
X156937598Y-148320339D01*
X156836582Y-148313604D01*
X156762504Y-148279933D01*
X156641286Y-148185652D01*
X156570575Y-148094738D01*
X156503231Y-147946583D01*
X156483028Y-147859036D01*
X156489763Y-147744552D01*
X156547005Y-147633435D01*
X156600880Y-147579560D01*
X156705262Y-147529052D01*
X156755769Y-147532420D01*
X157722149Y-147481912D02*
X157718782Y-147539154D01*
X157661540Y-147650271D01*
X157607666Y-147704145D01*
X157503283Y-147754653D01*
X157402267Y-147747919D01*
X157328189Y-147714248D01*
X157206971Y-147619966D01*
X157136261Y-147529052D01*
X157068917Y-147380897D01*
X157048713Y-147293350D01*
X157055448Y-147178866D01*
X157112691Y-147067749D01*
X157166565Y-147013875D01*
X157270948Y-146963367D01*
X157321455Y-146966734D01*
X146295239Y-85286905D02*
X145914286Y-85286905D01*
X145828572Y-85667857D01*
X145871429Y-85629762D01*
X145952382Y-85591667D01*
X146142858Y-85591667D01*
X146214286Y-85629762D01*
X146247620Y-85667857D01*
X146276191Y-85744048D01*
X146252382Y-85934524D01*
X146204763Y-86010714D01*
X146161905Y-86048810D01*
X146080953Y-86086905D01*
X145890477Y-86086905D01*
X145819048Y-86048810D01*
X145785715Y-86010714D01*
X151303810Y-85553571D02*
X151237143Y-86086905D01*
X151151429Y-85248810D02*
X150889524Y-85820238D01*
X151384762Y-85820238D01*
X150541905Y-96653333D02*
X150922857Y-96653333D01*
X150437143Y-96881905D02*
X150803810Y-96081905D01*
X150970477Y-96881905D01*
X151656191Y-96881905D02*
X151199048Y-96881905D01*
X151427619Y-96881905D02*
X151527619Y-96081905D01*
X151437143Y-96196190D01*
X151351428Y-96272381D01*
X151270477Y-96310476D01*
X145461905Y-96653333D02*
X145842857Y-96653333D01*
X145357143Y-96881905D02*
X145723810Y-96081905D01*
X145890477Y-96881905D01*
X146209524Y-96158095D02*
X146252381Y-96120000D01*
X146333334Y-96081905D01*
X146523810Y-96081905D01*
X146595238Y-96120000D01*
X146628572Y-96158095D01*
X146657143Y-96234286D01*
X146647620Y-96310476D01*
X146595239Y-96424762D01*
X146080953Y-96881905D01*
X146576191Y-96881905D01*
X150541905Y-106813333D02*
X150922857Y-106813333D01*
X150437143Y-107041905D02*
X150803810Y-106241905D01*
X150970477Y-107041905D01*
X151656191Y-107041905D02*
X151199048Y-107041905D01*
X151427619Y-107041905D02*
X151527619Y-106241905D01*
X151437143Y-106356190D01*
X151351428Y-106432381D01*
X151270477Y-106470476D01*
X145461905Y-106813333D02*
X145842857Y-106813333D01*
X145357143Y-107041905D02*
X145723810Y-106241905D01*
X145890477Y-107041905D01*
X146409524Y-106241905D02*
X146485715Y-106241905D01*
X146557143Y-106280000D01*
X146590476Y-106318095D01*
X146619048Y-106394286D01*
X146638096Y-106546667D01*
X146614286Y-106737143D01*
X146557144Y-106889524D01*
X146509524Y-106965714D01*
X146466667Y-107003810D01*
X146385715Y-107041905D01*
X146309524Y-107041905D01*
X146238096Y-107003810D01*
X146204762Y-106965714D01*
X146176191Y-106889524D01*
X146157143Y-106737143D01*
X146180953Y-106546667D01*
X146238095Y-106394286D01*
X146285714Y-106318095D01*
X146328572Y-106280000D01*
X146409524Y-106241905D01*
X145490477Y-103740000D02*
X145419048Y-103701905D01*
X145304763Y-103701905D01*
X145185715Y-103740000D01*
X145100000Y-103816190D01*
X145052381Y-103892381D01*
X144995239Y-104044762D01*
X144980953Y-104159048D01*
X145000000Y-104311429D01*
X145028572Y-104387619D01*
X145095239Y-104463810D01*
X145204763Y-104501905D01*
X145280953Y-104501905D01*
X145400001Y-104463810D01*
X145442858Y-104425714D01*
X145476191Y-104159048D01*
X145323810Y-104159048D01*
X145776191Y-104501905D02*
X145876191Y-103701905D01*
X146233334Y-104501905D01*
X146333334Y-103701905D01*
X146614286Y-104501905D02*
X146714286Y-103701905D01*
X146904762Y-103701905D01*
X147014286Y-103740000D01*
X147080953Y-103816190D01*
X147109524Y-103892381D01*
X147128572Y-104044762D01*
X147114286Y-104159048D01*
X147057143Y-104311429D01*
X147009525Y-104387619D01*
X146923810Y-104463810D01*
X146804762Y-104501905D01*
X146614286Y-104501905D01*
X150570477Y-103740000D02*
X150499048Y-103701905D01*
X150384763Y-103701905D01*
X150265715Y-103740000D01*
X150180000Y-103816190D01*
X150132381Y-103892381D01*
X150075239Y-104044762D01*
X150060953Y-104159048D01*
X150080000Y-104311429D01*
X150108572Y-104387619D01*
X150175239Y-104463810D01*
X150284763Y-104501905D01*
X150360953Y-104501905D01*
X150480001Y-104463810D01*
X150522858Y-104425714D01*
X150556191Y-104159048D01*
X150403810Y-104159048D01*
X150856191Y-104501905D02*
X150956191Y-103701905D01*
X151313334Y-104501905D01*
X151413334Y-103701905D01*
X151694286Y-104501905D02*
X151794286Y-103701905D01*
X151984762Y-103701905D01*
X152094286Y-103740000D01*
X152160953Y-103816190D01*
X152189524Y-103892381D01*
X152208572Y-104044762D01*
X152194286Y-104159048D01*
X152137143Y-104311429D01*
X152089525Y-104387619D01*
X152003810Y-104463810D01*
X151884762Y-104501905D01*
X151694286Y-104501905D01*
X150570477Y-113900000D02*
X150499048Y-113861905D01*
X150384763Y-113861905D01*
X150265715Y-113900000D01*
X150180000Y-113976190D01*
X150132381Y-114052381D01*
X150075239Y-114204762D01*
X150060953Y-114319048D01*
X150080000Y-114471429D01*
X150108572Y-114547619D01*
X150175239Y-114623810D01*
X150284763Y-114661905D01*
X150360953Y-114661905D01*
X150480001Y-114623810D01*
X150522858Y-114585714D01*
X150556191Y-114319048D01*
X150403810Y-114319048D01*
X150856191Y-114661905D02*
X150956191Y-113861905D01*
X151313334Y-114661905D01*
X151413334Y-113861905D01*
X151694286Y-114661905D02*
X151794286Y-113861905D01*
X151984762Y-113861905D01*
X152094286Y-113900000D01*
X152160953Y-113976190D01*
X152189524Y-114052381D01*
X152208572Y-114204762D01*
X152194286Y-114319048D01*
X152137143Y-114471429D01*
X152089525Y-114547619D01*
X152003810Y-114623810D01*
X151884762Y-114661905D01*
X151694286Y-114661905D01*
X145490477Y-113900000D02*
X145419048Y-113861905D01*
X145304763Y-113861905D01*
X145185715Y-113900000D01*
X145100000Y-113976190D01*
X145052381Y-114052381D01*
X144995239Y-114204762D01*
X144980953Y-114319048D01*
X145000000Y-114471429D01*
X145028572Y-114547619D01*
X145095239Y-114623810D01*
X145204763Y-114661905D01*
X145280953Y-114661905D01*
X145400001Y-114623810D01*
X145442858Y-114585714D01*
X145476191Y-114319048D01*
X145323810Y-114319048D01*
X145776191Y-114661905D02*
X145876191Y-113861905D01*
X146233334Y-114661905D01*
X146333334Y-113861905D01*
X146614286Y-114661905D02*
X146714286Y-113861905D01*
X146904762Y-113861905D01*
X147014286Y-113900000D01*
X147080953Y-113976190D01*
X147109524Y-114052381D01*
X147128572Y-114204762D01*
X147114286Y-114319048D01*
X147057143Y-114471429D01*
X147009525Y-114547619D01*
X146923810Y-114623810D01*
X146804762Y-114661905D01*
X146614286Y-114661905D01*
X146943095Y-148151905D02*
X147109762Y-148951905D01*
X147476429Y-148151905D01*
X148109762Y-148875714D02*
X148066905Y-148913810D01*
X147947857Y-148951905D01*
X147871667Y-148951905D01*
X147762143Y-148913810D01*
X147695476Y-148837619D01*
X147666904Y-148761429D01*
X147647857Y-148609048D01*
X147662143Y-148494762D01*
X147719285Y-148342381D01*
X147766904Y-148266190D01*
X147852619Y-148190000D01*
X147971667Y-148151905D01*
X148047857Y-148151905D01*
X148157381Y-148190000D01*
X148190714Y-148228095D01*
X148909762Y-148875714D02*
X148866905Y-148913810D01*
X148747857Y-148951905D01*
X148671667Y-148951905D01*
X148562143Y-148913810D01*
X148495476Y-148837619D01*
X148466904Y-148761429D01*
X148447857Y-148609048D01*
X148462143Y-148494762D01*
X148519285Y-148342381D01*
X148566904Y-148266190D01*
X148652619Y-148190000D01*
X148771667Y-148151905D01*
X148847857Y-148151905D01*
X148957381Y-148190000D01*
X148990714Y-148228095D01*
X147395477Y-145650000D02*
X147324048Y-145611905D01*
X147209763Y-145611905D01*
X147090715Y-145650000D01*
X147005000Y-145726190D01*
X146957381Y-145802381D01*
X146900239Y-145954762D01*
X146885953Y-146069048D01*
X146905000Y-146221429D01*
X146933572Y-146297619D01*
X147000239Y-146373810D01*
X147109763Y-146411905D01*
X147185953Y-146411905D01*
X147305001Y-146373810D01*
X147347858Y-146335714D01*
X147381191Y-146069048D01*
X147228810Y-146069048D01*
X147681191Y-146411905D02*
X147781191Y-145611905D01*
X148138334Y-146411905D01*
X148238334Y-145611905D01*
X148519286Y-146411905D02*
X148619286Y-145611905D01*
X148809762Y-145611905D01*
X148919286Y-145650000D01*
X148985953Y-145726190D01*
X149014524Y-145802381D01*
X149033572Y-145954762D01*
X149019286Y-146069048D01*
X148962143Y-146221429D01*
X148914525Y-146297619D01*
X148828810Y-146373810D01*
X148709762Y-146411905D01*
X148519286Y-146411905D01*
X146962143Y-143833810D02*
X147071667Y-143871905D01*
X147262143Y-143871905D01*
X147343095Y-143833810D01*
X147385953Y-143795714D01*
X147433572Y-143719524D01*
X147443095Y-143643333D01*
X147414524Y-143567143D01*
X147381190Y-143529048D01*
X147309762Y-143490952D01*
X147162143Y-143452857D01*
X147090714Y-143414762D01*
X147057381Y-143376667D01*
X147028810Y-143300476D01*
X147038333Y-143224286D01*
X147085952Y-143148095D01*
X147128809Y-143110000D01*
X147209762Y-143071905D01*
X147400238Y-143071905D01*
X147509762Y-143110000D01*
X148224048Y-143795714D02*
X148181191Y-143833810D01*
X148062143Y-143871905D01*
X147985953Y-143871905D01*
X147876429Y-143833810D01*
X147809762Y-143757619D01*
X147781190Y-143681429D01*
X147762143Y-143529048D01*
X147776429Y-143414762D01*
X147833571Y-143262381D01*
X147881190Y-143186190D01*
X147966905Y-143110000D01*
X148085953Y-143071905D01*
X148162143Y-143071905D01*
X148271667Y-143110000D01*
X148305000Y-143148095D01*
X148938334Y-143871905D02*
X148557381Y-143871905D01*
X148657381Y-143071905D01*
X146943096Y-141293810D02*
X147052620Y-141331905D01*
X147243096Y-141331905D01*
X147324048Y-141293810D01*
X147366906Y-141255714D01*
X147414525Y-141179524D01*
X147424048Y-141103333D01*
X147395477Y-141027143D01*
X147362143Y-140989048D01*
X147290715Y-140950952D01*
X147143096Y-140912857D01*
X147071667Y-140874762D01*
X147038334Y-140836667D01*
X147009763Y-140760476D01*
X147019286Y-140684286D01*
X147066905Y-140608095D01*
X147109762Y-140570000D01*
X147190715Y-140531905D01*
X147381191Y-140531905D01*
X147490715Y-140570000D01*
X147738334Y-141331905D02*
X147838334Y-140531905D01*
X148028810Y-140531905D01*
X148138334Y-140570000D01*
X148205001Y-140646190D01*
X148233572Y-140722381D01*
X148252620Y-140874762D01*
X148238334Y-140989048D01*
X148181191Y-141141429D01*
X148133573Y-141217619D01*
X148047858Y-141293810D01*
X147928810Y-141331905D01*
X147738334Y-141331905D01*
X148528810Y-141103333D02*
X148909762Y-141103333D01*
X148424048Y-141331905D02*
X148790715Y-140531905D01*
X148957382Y-141331905D01*
X143133095Y-148151905D02*
X143299762Y-148951905D01*
X143666429Y-148151905D01*
X144299762Y-148875714D02*
X144256905Y-148913810D01*
X144137857Y-148951905D01*
X144061667Y-148951905D01*
X143952143Y-148913810D01*
X143885476Y-148837619D01*
X143856904Y-148761429D01*
X143837857Y-148609048D01*
X143852143Y-148494762D01*
X143909285Y-148342381D01*
X143956904Y-148266190D01*
X144042619Y-148190000D01*
X144161667Y-148151905D01*
X144237857Y-148151905D01*
X144347381Y-148190000D01*
X144380714Y-148228095D01*
X145099762Y-148875714D02*
X145056905Y-148913810D01*
X144937857Y-148951905D01*
X144861667Y-148951905D01*
X144752143Y-148913810D01*
X144685476Y-148837619D01*
X144656904Y-148761429D01*
X144637857Y-148609048D01*
X144652143Y-148494762D01*
X144709285Y-148342381D01*
X144756904Y-148266190D01*
X144842619Y-148190000D01*
X144961667Y-148151905D01*
X145037857Y-148151905D01*
X145147381Y-148190000D01*
X145180714Y-148228095D01*
X143585477Y-145650000D02*
X143514048Y-145611905D01*
X143399763Y-145611905D01*
X143280715Y-145650000D01*
X143195000Y-145726190D01*
X143147381Y-145802381D01*
X143090239Y-145954762D01*
X143075953Y-146069048D01*
X143095000Y-146221429D01*
X143123572Y-146297619D01*
X143190239Y-146373810D01*
X143299763Y-146411905D01*
X143375953Y-146411905D01*
X143495001Y-146373810D01*
X143537858Y-146335714D01*
X143571191Y-146069048D01*
X143418810Y-146069048D01*
X143871191Y-146411905D02*
X143971191Y-145611905D01*
X144328334Y-146411905D01*
X144428334Y-145611905D01*
X144709286Y-146411905D02*
X144809286Y-145611905D01*
X144999762Y-145611905D01*
X145109286Y-145650000D01*
X145175953Y-145726190D01*
X145204524Y-145802381D01*
X145223572Y-145954762D01*
X145209286Y-146069048D01*
X145152143Y-146221429D01*
X145104525Y-146297619D01*
X145018810Y-146373810D01*
X144899762Y-146411905D01*
X144709286Y-146411905D01*
X143152143Y-143833810D02*
X143261667Y-143871905D01*
X143452143Y-143871905D01*
X143533095Y-143833810D01*
X143575953Y-143795714D01*
X143623572Y-143719524D01*
X143633095Y-143643333D01*
X143604524Y-143567143D01*
X143571190Y-143529048D01*
X143499762Y-143490952D01*
X143352143Y-143452857D01*
X143280714Y-143414762D01*
X143247381Y-143376667D01*
X143218810Y-143300476D01*
X143228333Y-143224286D01*
X143275952Y-143148095D01*
X143318809Y-143110000D01*
X143399762Y-143071905D01*
X143590238Y-143071905D01*
X143699762Y-143110000D01*
X144414048Y-143795714D02*
X144371191Y-143833810D01*
X144252143Y-143871905D01*
X144175953Y-143871905D01*
X144066429Y-143833810D01*
X143999762Y-143757619D01*
X143971190Y-143681429D01*
X143952143Y-143529048D01*
X143966429Y-143414762D01*
X144023571Y-143262381D01*
X144071190Y-143186190D01*
X144156905Y-143110000D01*
X144275953Y-143071905D01*
X144352143Y-143071905D01*
X144461667Y-143110000D01*
X144495000Y-143148095D01*
X145128334Y-143871905D02*
X144747381Y-143871905D01*
X144847381Y-143071905D01*
X143133096Y-141293810D02*
X143242620Y-141331905D01*
X143433096Y-141331905D01*
X143514048Y-141293810D01*
X143556906Y-141255714D01*
X143604525Y-141179524D01*
X143614048Y-141103333D01*
X143585477Y-141027143D01*
X143552143Y-140989048D01*
X143480715Y-140950952D01*
X143333096Y-140912857D01*
X143261667Y-140874762D01*
X143228334Y-140836667D01*
X143199763Y-140760476D01*
X143209286Y-140684286D01*
X143256905Y-140608095D01*
X143299762Y-140570000D01*
X143380715Y-140531905D01*
X143571191Y-140531905D01*
X143680715Y-140570000D01*
X143928334Y-141331905D02*
X144028334Y-140531905D01*
X144218810Y-140531905D01*
X144328334Y-140570000D01*
X144395001Y-140646190D01*
X144423572Y-140722381D01*
X144442620Y-140874762D01*
X144428334Y-140989048D01*
X144371191Y-141141429D01*
X144323573Y-141217619D01*
X144237858Y-141293810D01*
X144118810Y-141331905D01*
X143928334Y-141331905D01*
X144718810Y-141103333D02*
X145099762Y-141103333D01*
X144614048Y-141331905D02*
X144980715Y-140531905D01*
X145147382Y-141331905D01*
X131703096Y-141293810D02*
X131812620Y-141331905D01*
X132003096Y-141331905D01*
X132084048Y-141293810D01*
X132126906Y-141255714D01*
X132174525Y-141179524D01*
X132184048Y-141103333D01*
X132155477Y-141027143D01*
X132122143Y-140989048D01*
X132050715Y-140950952D01*
X131903096Y-140912857D01*
X131831667Y-140874762D01*
X131798334Y-140836667D01*
X131769763Y-140760476D01*
X131779286Y-140684286D01*
X131826905Y-140608095D01*
X131869762Y-140570000D01*
X131950715Y-140531905D01*
X132141191Y-140531905D01*
X132250715Y-140570000D01*
X132498334Y-141331905D02*
X132598334Y-140531905D01*
X132788810Y-140531905D01*
X132898334Y-140570000D01*
X132965001Y-140646190D01*
X132993572Y-140722381D01*
X133012620Y-140874762D01*
X132998334Y-140989048D01*
X132941191Y-141141429D01*
X132893573Y-141217619D01*
X132807858Y-141293810D01*
X132688810Y-141331905D01*
X132498334Y-141331905D01*
X133288810Y-141103333D02*
X133669762Y-141103333D01*
X133184048Y-141331905D02*
X133550715Y-140531905D01*
X133717382Y-141331905D01*
X131722143Y-143833810D02*
X131831667Y-143871905D01*
X132022143Y-143871905D01*
X132103095Y-143833810D01*
X132145953Y-143795714D01*
X132193572Y-143719524D01*
X132203095Y-143643333D01*
X132174524Y-143567143D01*
X132141190Y-143529048D01*
X132069762Y-143490952D01*
X131922143Y-143452857D01*
X131850714Y-143414762D01*
X131817381Y-143376667D01*
X131788810Y-143300476D01*
X131798333Y-143224286D01*
X131845952Y-143148095D01*
X131888809Y-143110000D01*
X131969762Y-143071905D01*
X132160238Y-143071905D01*
X132269762Y-143110000D01*
X132984048Y-143795714D02*
X132941191Y-143833810D01*
X132822143Y-143871905D01*
X132745953Y-143871905D01*
X132636429Y-143833810D01*
X132569762Y-143757619D01*
X132541190Y-143681429D01*
X132522143Y-143529048D01*
X132536429Y-143414762D01*
X132593571Y-143262381D01*
X132641190Y-143186190D01*
X132726905Y-143110000D01*
X132845953Y-143071905D01*
X132922143Y-143071905D01*
X133031667Y-143110000D01*
X133065000Y-143148095D01*
X133698334Y-143871905D02*
X133317381Y-143871905D01*
X133417381Y-143071905D01*
X132155477Y-145650000D02*
X132084048Y-145611905D01*
X131969763Y-145611905D01*
X131850715Y-145650000D01*
X131765000Y-145726190D01*
X131717381Y-145802381D01*
X131660239Y-145954762D01*
X131645953Y-146069048D01*
X131665000Y-146221429D01*
X131693572Y-146297619D01*
X131760239Y-146373810D01*
X131869763Y-146411905D01*
X131945953Y-146411905D01*
X132065001Y-146373810D01*
X132107858Y-146335714D01*
X132141191Y-146069048D01*
X131988810Y-146069048D01*
X132441191Y-146411905D02*
X132541191Y-145611905D01*
X132898334Y-146411905D01*
X132998334Y-145611905D01*
X133279286Y-146411905D02*
X133379286Y-145611905D01*
X133569762Y-145611905D01*
X133679286Y-145650000D01*
X133745953Y-145726190D01*
X133774524Y-145802381D01*
X133793572Y-145954762D01*
X133779286Y-146069048D01*
X133722143Y-146221429D01*
X133674525Y-146297619D01*
X133588810Y-146373810D01*
X133469762Y-146411905D01*
X133279286Y-146411905D01*
X131703095Y-148151905D02*
X131869762Y-148951905D01*
X132236429Y-148151905D01*
X132869762Y-148875714D02*
X132826905Y-148913810D01*
X132707857Y-148951905D01*
X132631667Y-148951905D01*
X132522143Y-148913810D01*
X132455476Y-148837619D01*
X132426904Y-148761429D01*
X132407857Y-148609048D01*
X132422143Y-148494762D01*
X132479285Y-148342381D01*
X132526904Y-148266190D01*
X132612619Y-148190000D01*
X132731667Y-148151905D01*
X132807857Y-148151905D01*
X132917381Y-148190000D01*
X132950714Y-148228095D01*
X133669762Y-148875714D02*
X133626905Y-148913810D01*
X133507857Y-148951905D01*
X133431667Y-148951905D01*
X133322143Y-148913810D01*
X133255476Y-148837619D01*
X133226904Y-148761429D01*
X133207857Y-148609048D01*
X133222143Y-148494762D01*
X133279285Y-148342381D01*
X133326904Y-148266190D01*
X133412619Y-148190000D01*
X133531667Y-148151905D01*
X133607857Y-148151905D01*
X133717381Y-148190000D01*
X133750714Y-148228095D01*
X127893095Y-148151905D02*
X128059762Y-148951905D01*
X128426429Y-148151905D01*
X129059762Y-148875714D02*
X129016905Y-148913810D01*
X128897857Y-148951905D01*
X128821667Y-148951905D01*
X128712143Y-148913810D01*
X128645476Y-148837619D01*
X128616904Y-148761429D01*
X128597857Y-148609048D01*
X128612143Y-148494762D01*
X128669285Y-148342381D01*
X128716904Y-148266190D01*
X128802619Y-148190000D01*
X128921667Y-148151905D01*
X128997857Y-148151905D01*
X129107381Y-148190000D01*
X129140714Y-148228095D01*
X129859762Y-148875714D02*
X129816905Y-148913810D01*
X129697857Y-148951905D01*
X129621667Y-148951905D01*
X129512143Y-148913810D01*
X129445476Y-148837619D01*
X129416904Y-148761429D01*
X129397857Y-148609048D01*
X129412143Y-148494762D01*
X129469285Y-148342381D01*
X129516904Y-148266190D01*
X129602619Y-148190000D01*
X129721667Y-148151905D01*
X129797857Y-148151905D01*
X129907381Y-148190000D01*
X129940714Y-148228095D01*
X128345477Y-145650000D02*
X128274048Y-145611905D01*
X128159763Y-145611905D01*
X128040715Y-145650000D01*
X127955000Y-145726190D01*
X127907381Y-145802381D01*
X127850239Y-145954762D01*
X127835953Y-146069048D01*
X127855000Y-146221429D01*
X127883572Y-146297619D01*
X127950239Y-146373810D01*
X128059763Y-146411905D01*
X128135953Y-146411905D01*
X128255001Y-146373810D01*
X128297858Y-146335714D01*
X128331191Y-146069048D01*
X128178810Y-146069048D01*
X128631191Y-146411905D02*
X128731191Y-145611905D01*
X129088334Y-146411905D01*
X129188334Y-145611905D01*
X129469286Y-146411905D02*
X129569286Y-145611905D01*
X129759762Y-145611905D01*
X129869286Y-145650000D01*
X129935953Y-145726190D01*
X129964524Y-145802381D01*
X129983572Y-145954762D01*
X129969286Y-146069048D01*
X129912143Y-146221429D01*
X129864525Y-146297619D01*
X129778810Y-146373810D01*
X129659762Y-146411905D01*
X129469286Y-146411905D01*
X127912143Y-143833810D02*
X128021667Y-143871905D01*
X128212143Y-143871905D01*
X128293095Y-143833810D01*
X128335953Y-143795714D01*
X128383572Y-143719524D01*
X128393095Y-143643333D01*
X128364524Y-143567143D01*
X128331190Y-143529048D01*
X128259762Y-143490952D01*
X128112143Y-143452857D01*
X128040714Y-143414762D01*
X128007381Y-143376667D01*
X127978810Y-143300476D01*
X127988333Y-143224286D01*
X128035952Y-143148095D01*
X128078809Y-143110000D01*
X128159762Y-143071905D01*
X128350238Y-143071905D01*
X128459762Y-143110000D01*
X129174048Y-143795714D02*
X129131191Y-143833810D01*
X129012143Y-143871905D01*
X128935953Y-143871905D01*
X128826429Y-143833810D01*
X128759762Y-143757619D01*
X128731190Y-143681429D01*
X128712143Y-143529048D01*
X128726429Y-143414762D01*
X128783571Y-143262381D01*
X128831190Y-143186190D01*
X128916905Y-143110000D01*
X129035953Y-143071905D01*
X129112143Y-143071905D01*
X129221667Y-143110000D01*
X129255000Y-143148095D01*
X129888334Y-143871905D02*
X129507381Y-143871905D01*
X129607381Y-143071905D01*
X127893096Y-141293810D02*
X128002620Y-141331905D01*
X128193096Y-141331905D01*
X128274048Y-141293810D01*
X128316906Y-141255714D01*
X128364525Y-141179524D01*
X128374048Y-141103333D01*
X128345477Y-141027143D01*
X128312143Y-140989048D01*
X128240715Y-140950952D01*
X128093096Y-140912857D01*
X128021667Y-140874762D01*
X127988334Y-140836667D01*
X127959763Y-140760476D01*
X127969286Y-140684286D01*
X128016905Y-140608095D01*
X128059762Y-140570000D01*
X128140715Y-140531905D01*
X128331191Y-140531905D01*
X128440715Y-140570000D01*
X128688334Y-141331905D02*
X128788334Y-140531905D01*
X128978810Y-140531905D01*
X129088334Y-140570000D01*
X129155001Y-140646190D01*
X129183572Y-140722381D01*
X129202620Y-140874762D01*
X129188334Y-140989048D01*
X129131191Y-141141429D01*
X129083573Y-141217619D01*
X128997858Y-141293810D01*
X128878810Y-141331905D01*
X128688334Y-141331905D01*
X129478810Y-141103333D02*
X129859762Y-141103333D01*
X129374048Y-141331905D02*
X129740715Y-140531905D01*
X129907382Y-141331905D01*
D13*
X138430000Y-133350000D02*
X123190000Y-133350000D01*
X123190000Y-133350000D02*
X123190000Y-151130000D01*
X123190000Y-151130000D02*
X138430000Y-151130000D01*
X138430000Y-151130000D02*
X138430000Y-133350000D01*
X153670000Y-151130000D02*
X153670000Y-133350000D01*
X138430000Y-151130000D02*
X153670000Y-151130000D01*
X138430000Y-133350000D02*
X138430000Y-151130000D01*
X153670000Y-133350000D02*
X138430000Y-133350000D01*
D14*
X147128608Y-84222335D02*
G75*
G03X147285516Y-80990000I-1078608J1672335D01*
G01*
X144971392Y-84222335D02*
G75*
G02X144814484Y-80990000I1078608J1672335D01*
G01*
X147129837Y-83591130D02*
G75*
G03X147130000Y-81509039I-1079837J1041130D01*
G01*
X144970163Y-83591130D02*
G75*
G02X144970000Y-81509039I1079837J1041130D01*
G01*
X147286000Y-80990000D02*
X147130000Y-80990000D01*
X144970000Y-80990000D02*
X144814000Y-80990000D01*
X146645000Y-124495000D02*
X149265000Y-124495000D01*
X149265000Y-124495000D02*
X149265000Y-118075000D01*
X149265000Y-118075000D02*
X146645000Y-118075000D01*
X146645000Y-118075000D02*
X146645000Y-124495000D01*
X147955000Y-125385000D02*
X147955000Y-124495000D01*
X147955000Y-117185000D02*
X147955000Y-118075000D01*
D11*
X143280000Y-114445000D02*
X143280000Y-114945000D01*
X143280000Y-131445000D02*
X143280000Y-130945000D01*
X124780000Y-119445000D02*
G75*
G03X124780000Y-119445000I-500000J0D01*
G01*
X124780000Y-124445000D02*
G75*
G03X124780000Y-124445000I-500000J0D01*
G01*
X124780000Y-121945000D02*
G75*
G03X124780000Y-121945000I-500000J0D01*
G01*
X143280000Y-131445000D02*
X123280000Y-131445000D01*
X123280000Y-131445000D02*
X123280000Y-114445000D01*
X123280000Y-114445000D02*
X143280000Y-114445000D01*
D14*
X147050000Y-93130000D02*
X151550000Y-93130000D01*
X145800000Y-89130000D02*
X145800000Y-90630000D01*
X151550000Y-86630000D02*
X147050000Y-86630000D01*
X152800000Y-90630000D02*
X152800000Y-89130000D01*
X152208608Y-84222335D02*
G75*
G03X152365516Y-80990000I-1078608J1672335D01*
G01*
X150051392Y-84222335D02*
G75*
G02X149894484Y-80990000I1078608J1672335D01*
G01*
X152209837Y-83591130D02*
G75*
G03X152210000Y-81509039I-1079837J1041130D01*
G01*
X150050163Y-83591130D02*
G75*
G02X150050000Y-81509039I1079837J1041130D01*
G01*
X152366000Y-80990000D02*
X152210000Y-80990000D01*
X150050000Y-80990000D02*
X149894000Y-80990000D01*
X161350000Y-146110000D02*
X161350000Y-143450000D01*
X158750000Y-146110000D02*
X161350000Y-146110000D01*
X158750000Y-143450000D02*
X161350000Y-143450000D01*
X158750000Y-146110000D02*
X158750000Y-143450000D01*
X157480000Y-146110000D02*
X156150000Y-146110000D01*
X156150000Y-146110000D02*
X156150000Y-144780000D01*
X152460000Y-139640000D02*
X149800000Y-139640000D01*
X152460000Y-147320000D02*
X152460000Y-139640000D01*
X149800000Y-147320000D02*
X149800000Y-139640000D01*
X152460000Y-147320000D02*
X149800000Y-147320000D01*
X152460000Y-148590000D02*
X152460000Y-149920000D01*
X152460000Y-149920000D02*
X151130000Y-149920000D01*
X127060000Y-139640000D02*
X124400000Y-139640000D01*
X127060000Y-147320000D02*
X127060000Y-139640000D01*
X124400000Y-147320000D02*
X124400000Y-139640000D01*
X127060000Y-147320000D02*
X124400000Y-147320000D01*
X127060000Y-148590000D02*
X127060000Y-149920000D01*
X127060000Y-149920000D02*
X125730000Y-149920000D01*
X171510000Y-146110000D02*
X171510000Y-143450000D01*
X163830000Y-146110000D02*
X171510000Y-146110000D01*
X163830000Y-143450000D02*
X171510000Y-143450000D01*
X163830000Y-146110000D02*
X163830000Y-143450000D01*
X162560000Y-146110000D02*
X161230000Y-146110000D01*
X161230000Y-146110000D02*
X161230000Y-144780000D01*
X150455000Y-124495000D02*
X153075000Y-124495000D01*
X153075000Y-124495000D02*
X153075000Y-118075000D01*
X153075000Y-118075000D02*
X150455000Y-118075000D01*
X150455000Y-118075000D02*
X150455000Y-124495000D01*
X151765000Y-125385000D02*
X151765000Y-124495000D01*
X151765000Y-117185000D02*
X151765000Y-118075000D01*
D11*
X166341320Y-91140000D02*
G75*
G03X166341320Y-91140000I-2121320J0D01*
G01*
X166341320Y-135440000D02*
G75*
G03X166341320Y-135440000I-2121320J0D01*
G01*
X172720000Y-142240000D02*
X155720000Y-142240000D01*
X155720000Y-142240000D02*
X155720000Y-85240000D01*
X155720000Y-85240000D02*
X172720000Y-85240000D01*
X172720000Y-85240000D02*
X172720000Y-142240000D01*
X114761320Y-136190000D02*
G75*
G03X114761320Y-136190000I-2121320J0D01*
G01*
X114761320Y-91890000D02*
G75*
G03X114761320Y-91890000I-2121320J0D01*
G01*
X104140000Y-85090000D02*
X121140000Y-85090000D01*
X121140000Y-85090000D02*
X121140000Y-142090000D01*
X121140000Y-142090000D02*
X104140000Y-142090000D01*
X104140000Y-142090000D02*
X104140000Y-85090000D01*
D14*
X144720000Y-113090000D02*
X147380000Y-113090000D01*
X144720000Y-110490000D02*
X144720000Y-113090000D01*
X147380000Y-110490000D02*
X147380000Y-113090000D01*
X144720000Y-110490000D02*
X147380000Y-110490000D01*
X144720000Y-109220000D02*
X144720000Y-107890000D01*
X144720000Y-107890000D02*
X146050000Y-107890000D01*
X149800000Y-113090000D02*
X152460000Y-113090000D01*
X149800000Y-110490000D02*
X149800000Y-113090000D01*
X152460000Y-110490000D02*
X152460000Y-113090000D01*
X149800000Y-110490000D02*
X152460000Y-110490000D01*
X149800000Y-109220000D02*
X149800000Y-107890000D01*
X149800000Y-107890000D02*
X151130000Y-107890000D01*
X144720000Y-102930000D02*
X147380000Y-102930000D01*
X144720000Y-100330000D02*
X144720000Y-102930000D01*
X147380000Y-100330000D02*
X147380000Y-102930000D01*
X144720000Y-100330000D02*
X147380000Y-100330000D01*
X144720000Y-99060000D02*
X144720000Y-97730000D01*
X144720000Y-97730000D02*
X146050000Y-97730000D01*
X149800000Y-102930000D02*
X152460000Y-102930000D01*
X149800000Y-100330000D02*
X149800000Y-102930000D01*
X152460000Y-100330000D02*
X152460000Y-102930000D01*
X149800000Y-100330000D02*
X152460000Y-100330000D01*
X149800000Y-99060000D02*
X149800000Y-97730000D01*
X149800000Y-97730000D02*
X151130000Y-97730000D01*
X142300000Y-139640000D02*
X139640000Y-139640000D01*
X142300000Y-147320000D02*
X142300000Y-139640000D01*
X139640000Y-147320000D02*
X139640000Y-139640000D01*
X142300000Y-147320000D02*
X139640000Y-147320000D01*
X142300000Y-148590000D02*
X142300000Y-149920000D01*
X142300000Y-149920000D02*
X140970000Y-149920000D01*
X137220000Y-139640000D02*
X134560000Y-139640000D01*
X137220000Y-147320000D02*
X137220000Y-139640000D01*
X134560000Y-147320000D02*
X134560000Y-139640000D01*
X137220000Y-147320000D02*
X134560000Y-147320000D01*
X137220000Y-148590000D02*
X137220000Y-149920000D01*
X137220000Y-149920000D02*
X135890000Y-149920000D01*
D11*
X140335000Y-80010000D02*
G75*
G03X140335000Y-80010000I-635000J0D01*
G01*
X137795000Y-80010000D02*
G75*
G03X137795000Y-80010000I-635000J0D01*
G01*
X135255000Y-80010000D02*
G75*
G03X135255000Y-80010000I-635000J0D01*
G01*
X132715000Y-80010000D02*
G75*
G03X132715000Y-80010000I-635000J0D01*
G01*
X130175000Y-80010000D02*
G75*
G03X130175000Y-80010000I-635000J0D01*
G01*
X127635000Y-80010000D02*
G75*
G03X127635000Y-80010000I-635000J0D01*
G01*
X130810000Y-109220000D02*
X135890000Y-109220000D01*
X135890000Y-109220000D02*
X135890000Y-106680000D01*
X135890000Y-106680000D02*
X130810000Y-106680000D01*
X130810000Y-106680000D02*
X130810000Y-109220000D01*
X138430000Y-96520000D02*
X133350000Y-91440000D01*
X133350000Y-91440000D02*
X128270000Y-96520000D01*
X128270000Y-96520000D02*
X133350000Y-101600000D01*
X133350000Y-101600000D02*
X138430000Y-96520000D01*
X142240000Y-111760000D02*
X142240000Y-78740000D01*
X142240000Y-78740000D02*
X124460000Y-78740000D01*
X124460000Y-78740000D02*
X124460000Y-111760000D01*
X124460000Y-111760000D02*
X142240000Y-111760000D01*
D14*
X147610830Y-128848564D02*
G75*
G03X147610000Y-132540996I979170J-1846436D01*
G01*
X149569170Y-128848564D02*
G75*
G02X149570000Y-132540996I-979170J-1846436D01*
G01*
X149569170Y-128848564D02*
G75*
G03X147610000Y-128849004I-979170J-1846436D01*
G01*
X149370000Y-130695000D02*
X150640000Y-130695000D01*
X146540000Y-130695000D02*
X147810000Y-130695000D01*
X146540000Y-130655000D02*
X147810000Y-130655000D01*
X149370000Y-130655000D02*
X150640000Y-130655000D01*
X146541000Y-130615000D02*
X147810000Y-130615000D01*
X149370000Y-130615000D02*
X150639000Y-130615000D01*
X146543000Y-130575000D02*
X147810000Y-130575000D01*
X149370000Y-130575000D02*
X150637000Y-130575000D01*
X146546000Y-130535000D02*
X147810000Y-130535000D01*
X149370000Y-130535000D02*
X150634000Y-130535000D01*
X146549000Y-130495000D02*
X147810000Y-130495000D01*
X149370000Y-130495000D02*
X150631000Y-130495000D01*
X146553000Y-130455000D02*
X147810000Y-130455000D01*
X149370000Y-130455000D02*
X150627000Y-130455000D01*
X146558000Y-130415000D02*
X147810000Y-130415000D01*
X149370000Y-130415000D02*
X150622000Y-130415000D01*
X146564000Y-130375000D02*
X147810000Y-130375000D01*
X149370000Y-130375000D02*
X150616000Y-130375000D01*
X146571000Y-130335000D02*
X147810000Y-130335000D01*
X149370000Y-130335000D02*
X150609000Y-130335000D01*
X146578000Y-130295000D02*
X147810000Y-130295000D01*
X149370000Y-130295000D02*
X150602000Y-130295000D01*
X146586000Y-130255000D02*
X147810000Y-130255000D01*
X149370000Y-130255000D02*
X150594000Y-130255000D01*
X146595000Y-130215000D02*
X147810000Y-130215000D01*
X149370000Y-130215000D02*
X150585000Y-130215000D01*
X146605000Y-130175000D02*
X147810000Y-130175000D01*
X149370000Y-130175000D02*
X150575000Y-130175000D01*
X146616000Y-130135000D02*
X147810000Y-130135000D01*
X149370000Y-130135000D02*
X150564000Y-130135000D01*
X146627000Y-130095000D02*
X147810000Y-130095000D01*
X149370000Y-130095000D02*
X150553000Y-130095000D01*
X146640000Y-130055000D02*
X147810000Y-130055000D01*
X149370000Y-130055000D02*
X150540000Y-130055000D01*
X146653000Y-130015000D02*
X147810000Y-130015000D01*
X149370000Y-130015000D02*
X150527000Y-130015000D01*
X146667000Y-129974000D02*
X147810000Y-129974000D01*
X149370000Y-129974000D02*
X150513000Y-129974000D01*
X146683000Y-129934000D02*
X147810000Y-129934000D01*
X149370000Y-129934000D02*
X150497000Y-129934000D01*
X146699000Y-129894000D02*
X147810000Y-129894000D01*
X149370000Y-129894000D02*
X150481000Y-129894000D01*
X146716000Y-129854000D02*
X147810000Y-129854000D01*
X149370000Y-129854000D02*
X150464000Y-129854000D01*
X146734000Y-129814000D02*
X147810000Y-129814000D01*
X149370000Y-129814000D02*
X150446000Y-129814000D01*
X146753000Y-129774000D02*
X147810000Y-129774000D01*
X149370000Y-129774000D02*
X150427000Y-129774000D01*
X146773000Y-129734000D02*
X147810000Y-129734000D01*
X149370000Y-129734000D02*
X150407000Y-129734000D01*
X146794000Y-129694000D02*
X147810000Y-129694000D01*
X149370000Y-129694000D02*
X150386000Y-129694000D01*
X146817000Y-129654000D02*
X147810000Y-129654000D01*
X149370000Y-129654000D02*
X150363000Y-129654000D01*
X146840000Y-129614000D02*
X147810000Y-129614000D01*
X149370000Y-129614000D02*
X150340000Y-129614000D01*
X146865000Y-129574000D02*
X147810000Y-129574000D01*
X149370000Y-129574000D02*
X150315000Y-129574000D01*
X146891000Y-129534000D02*
X147810000Y-129534000D01*
X149370000Y-129534000D02*
X150289000Y-129534000D01*
X146918000Y-129494000D02*
X147810000Y-129494000D01*
X149370000Y-129494000D02*
X150262000Y-129494000D01*
X146947000Y-129454000D02*
X147810000Y-129454000D01*
X149370000Y-129454000D02*
X150233000Y-129454000D01*
X146977000Y-129414000D02*
X147810000Y-129414000D01*
X149370000Y-129414000D02*
X150203000Y-129414000D01*
X147009000Y-129374000D02*
X147810000Y-129374000D01*
X149370000Y-129374000D02*
X150171000Y-129374000D01*
X147043000Y-129334000D02*
X147810000Y-129334000D01*
X149370000Y-129334000D02*
X150137000Y-129334000D01*
X147078000Y-129294000D02*
X147810000Y-129294000D01*
X149370000Y-129294000D02*
X150102000Y-129294000D01*
X147115000Y-129254000D02*
X147810000Y-129254000D01*
X149370000Y-129254000D02*
X150065000Y-129254000D01*
X147154000Y-129214000D02*
X147810000Y-129214000D01*
X149370000Y-129214000D02*
X150026000Y-129214000D01*
X147195000Y-129174000D02*
X147810000Y-129174000D01*
X149370000Y-129174000D02*
X149985000Y-129174000D01*
X147239000Y-129134000D02*
X149941000Y-129134000D01*
X147285000Y-129094000D02*
X149895000Y-129094000D01*
X147334000Y-129054000D02*
X149846000Y-129054000D01*
X147386000Y-129014000D02*
X149794000Y-129014000D01*
X147442000Y-128974000D02*
X149738000Y-128974000D01*
X147502000Y-128934000D02*
X149678000Y-128934000D01*
X147567000Y-128894000D02*
X149613000Y-128894000D01*
X147638000Y-128854000D02*
X149542000Y-128854000D01*
X147716000Y-128814000D02*
X149464000Y-128814000D01*
X147804000Y-128774000D02*
X149376000Y-128774000D01*
X147904000Y-128734000D02*
X149276000Y-128734000D01*
X148023000Y-128694000D02*
X149157000Y-128694000D01*
X148175000Y-128654000D02*
X149005000Y-128654000D01*
X148425000Y-128614000D02*
X148755000Y-128614000D01*
X148590000Y-133145000D02*
X148590000Y-132245000D01*
X148140000Y-132695000D02*
X149040000Y-132695000D01*
D15*
X164234286Y-92282857D02*
X164234286Y-89997143D01*
X165377143Y-91140000D02*
X163091429Y-91140000D01*
X164234286Y-136582857D02*
X164234286Y-134297143D01*
X113054286Y-137332857D02*
X113054286Y-135047143D01*
X114197143Y-136190000D02*
X111911429Y-136190000D01*
X113054286Y-93032857D02*
X113054286Y-90747143D01*
D11*
X134291429Y-83350000D02*
X134891429Y-83150000D01*
X134291429Y-82950000D01*
X134834286Y-82407143D02*
X134862857Y-82435714D01*
X134891429Y-82521428D01*
X134891429Y-82578571D01*
X134862857Y-82664286D01*
X134805714Y-82721428D01*
X134748571Y-82750000D01*
X134634286Y-82778571D01*
X134548571Y-82778571D01*
X134434286Y-82750000D01*
X134377143Y-82721428D01*
X134320000Y-82664286D01*
X134291429Y-82578571D01*
X134291429Y-82521428D01*
X134320000Y-82435714D01*
X134348571Y-82407143D01*
X134834286Y-81807143D02*
X134862857Y-81835714D01*
X134891429Y-81921428D01*
X134891429Y-81978571D01*
X134862857Y-82064286D01*
X134805714Y-82121428D01*
X134748571Y-82150000D01*
X134634286Y-82178571D01*
X134548571Y-82178571D01*
X134434286Y-82150000D01*
X134377143Y-82121428D01*
X134320000Y-82064286D01*
X134291429Y-81978571D01*
X134291429Y-81921428D01*
X134320000Y-81835714D01*
X134348571Y-81807143D01*
X132351429Y-82792857D02*
X132065714Y-82992857D01*
X132351429Y-83135714D02*
X131751429Y-83135714D01*
X131751429Y-82907142D01*
X131780000Y-82850000D01*
X131808571Y-82821428D01*
X131865714Y-82792857D01*
X131951429Y-82792857D01*
X132008571Y-82821428D01*
X132037143Y-82850000D01*
X132065714Y-82907142D01*
X132065714Y-83135714D01*
X131751429Y-82592857D02*
X132351429Y-82192857D01*
X131751429Y-82192857D02*
X132351429Y-82592857D01*
X132351429Y-81964285D02*
X131751429Y-81964285D01*
X129211429Y-83307143D02*
X129211429Y-82964286D01*
X129811429Y-83135715D02*
X129211429Y-83135715D01*
X129211429Y-82821429D02*
X129811429Y-82421429D01*
X129211429Y-82421429D02*
X129811429Y-82821429D01*
X129811429Y-82192857D02*
X129211429Y-82192857D01*
X129211429Y-82050000D01*
X129240000Y-81964285D01*
X129297143Y-81907143D01*
X129354286Y-81878571D01*
X129468571Y-81850000D01*
X129554286Y-81850000D01*
X129668571Y-81878571D01*
X129725714Y-81907143D01*
X129782857Y-81964285D01*
X129811429Y-82050000D01*
X129811429Y-82192857D01*
X127906429Y-83235714D02*
X127306429Y-83235714D01*
X127306429Y-83092857D01*
X127335000Y-83007142D01*
X127392143Y-82950000D01*
X127449286Y-82921428D01*
X127563571Y-82892857D01*
X127649286Y-82892857D01*
X127763571Y-82921428D01*
X127820714Y-82950000D01*
X127877857Y-83007142D01*
X127906429Y-83092857D01*
X127906429Y-83235714D01*
X127306429Y-82721428D02*
X127306429Y-82378571D01*
X127906429Y-82550000D02*
X127306429Y-82550000D01*
X127906429Y-81835714D02*
X127620714Y-82035714D01*
X127906429Y-82178571D02*
X127306429Y-82178571D01*
X127306429Y-81949999D01*
X127335000Y-81892857D01*
X127363571Y-81864285D01*
X127420714Y-81835714D01*
X127506429Y-81835714D01*
X127563571Y-81864285D01*
X127592143Y-81892857D01*
X127620714Y-81949999D01*
X127620714Y-82178571D01*
X138765000Y-83007142D02*
X138736429Y-83064285D01*
X138736429Y-83149999D01*
X138765000Y-83235714D01*
X138822143Y-83292856D01*
X138879286Y-83321428D01*
X138993571Y-83349999D01*
X139079286Y-83349999D01*
X139193571Y-83321428D01*
X139250714Y-83292856D01*
X139307857Y-83235714D01*
X139336429Y-83149999D01*
X139336429Y-83092856D01*
X139307857Y-83007142D01*
X139279286Y-82978571D01*
X139079286Y-82978571D01*
X139079286Y-83092856D01*
X139336429Y-82721428D02*
X138736429Y-82721428D01*
X139336429Y-82378571D01*
X138736429Y-82378571D01*
X139336429Y-82092857D02*
X138736429Y-82092857D01*
X138736429Y-81950000D01*
X138765000Y-81864285D01*
X138822143Y-81807143D01*
X138879286Y-81778571D01*
X138993571Y-81750000D01*
X139079286Y-81750000D01*
X139193571Y-81778571D01*
X139250714Y-81807143D01*
X139307857Y-81864285D01*
X139336429Y-81950000D01*
X139336429Y-82092857D01*
X136860000Y-83007142D02*
X136831429Y-83064285D01*
X136831429Y-83149999D01*
X136860000Y-83235714D01*
X136917143Y-83292856D01*
X136974286Y-83321428D01*
X137088571Y-83349999D01*
X137174286Y-83349999D01*
X137288571Y-83321428D01*
X137345714Y-83292856D01*
X137402857Y-83235714D01*
X137431429Y-83149999D01*
X137431429Y-83092856D01*
X137402857Y-83007142D01*
X137374286Y-82978571D01*
X137174286Y-82978571D01*
X137174286Y-83092856D01*
X137431429Y-82721428D02*
X136831429Y-82721428D01*
X137431429Y-82378571D01*
X136831429Y-82378571D01*
X137431429Y-82092857D02*
X136831429Y-82092857D01*
X136831429Y-81950000D01*
X136860000Y-81864285D01*
X136917143Y-81807143D01*
X136974286Y-81778571D01*
X137088571Y-81750000D01*
X137174286Y-81750000D01*
X137288571Y-81778571D01*
X137345714Y-81807143D01*
X137402857Y-81864285D01*
X137431429Y-81950000D01*
X137431429Y-82092857D01*
X152122143Y-132881666D02*
X152169762Y-132929285D01*
X152217381Y-133072142D01*
X152217381Y-133167380D01*
X152169762Y-133310238D01*
X152074524Y-133405476D01*
X151979286Y-133453095D01*
X151788810Y-133500714D01*
X151645952Y-133500714D01*
X151455476Y-133453095D01*
X151360238Y-133405476D01*
X151265000Y-133310238D01*
X151217381Y-133167380D01*
X151217381Y-133072142D01*
X151265000Y-132929285D01*
X151312619Y-132881666D01*
X152217381Y-131929285D02*
X152217381Y-132500714D01*
X152217381Y-132215000D02*
X151217381Y-132215000D01*
X151360238Y-132310238D01*
X151455476Y-132405476D01*
X151503095Y-132500714D01*
M02*
