M48
;DRILL file {KiCad 4.0.7} date 08/02/18 21:49:46
;FORMAT={-:-/ absolute / inch / decimal}
FMAT,2
INCH,TZ
T1C0.016
T2C0.024
T3C0.031
T4C0.035
T5C0.039
T6C0.043
T7C0.087
%
G90
G05
M72
T1
X4.502Y-3.1988
X4.502Y-5.8957
X4.521Y-3.1529
X4.521Y-3.2448
X4.521Y-5.8497
X4.521Y-5.9416
X4.5669Y-3.1339
X4.5669Y-3.2638
X4.5669Y-5.8307
X4.5669Y-5.9606
X4.6129Y-3.1529
X4.6129Y-3.2448
X4.6129Y-5.8497
X4.6129Y-5.9416
X4.6319Y-3.1988
X4.6319Y-5.8957
X6.2736Y-3.1988
X6.2736Y-5.8957
X6.2926Y-3.1529
X6.2926Y-3.2448
X6.2926Y-5.8497
X6.2926Y-5.9416
X6.3386Y-3.1339
X6.3386Y-3.2638
X6.3386Y-5.8307
X6.3386Y-5.9606
X6.3845Y-3.1529
X6.3845Y-3.2448
X6.3845Y-5.8497
X6.3845Y-5.9416
X6.4035Y-3.1988
X6.4035Y-5.8957
T2
X5.825Y-5.075
X5.825Y-5.1341
T3
X4.4291Y-3.437
X4.4291Y-5.4961
X4.6Y-5.7
X4.7Y-5.7
X5.6016Y-4.5648
X5.6016Y-4.6435
X5.6016Y-4.7222
X5.6016Y-4.801
X5.6016Y-4.8797
X5.6016Y-4.9585
X5.6016Y-5.0372
X5.6016Y-5.1159
X5.75Y-3.425
X5.75Y-3.525
X5.8Y-4.825
X5.8Y-4.925
X5.95Y-3.425
X5.95Y-3.525
X5.95Y-4.825
X5.95Y-4.925
X6.4764Y-3.4016
X6.4764Y-5.4961
T4
X5.75Y-3.2
X5.75Y-3.3
X5.95Y-3.2
X5.95Y-3.3
X6.2Y-5.7
X6.3Y-5.7
X6.4Y-5.7
X6.5Y-5.7
X6.6Y-5.7
X6.7Y-5.7
T5
X4.25Y-5.7
X4.3406Y-5.7
X4.4311Y-5.7
X4.95Y-3.25
X4.95Y-3.35
X4.95Y-3.45
X4.95Y-3.55
X4.95Y-3.65
X4.95Y-3.75
X4.95Y-3.85
X4.95Y-3.95
X4.95Y-4.05
X4.95Y-4.15
X4.95Y-4.25
X4.95Y-4.35
X4.95Y-5.55
X4.95Y-5.65
X4.95Y-5.75
X4.95Y-5.85
X5.35Y-5.55
X5.35Y-5.65
X5.35Y-5.75
X5.35Y-5.85
X5.45Y-3.6
X5.45Y-3.7
X5.55Y-3.25
X5.55Y-3.35
X5.55Y-3.45
X5.55Y-3.55
X5.55Y-3.65
X5.55Y-3.75
X5.55Y-3.85
X5.55Y-3.95
X5.55Y-4.05
X5.55Y-4.15
X5.55Y-4.25
X5.55Y-4.35
X5.55Y-5.55
X5.55Y-5.65
X5.55Y-5.75
X5.55Y-5.85
X5.8Y-4.1
X5.8Y-4.2
X5.8Y-4.475
X5.8Y-4.575
X5.95Y-5.55
X5.95Y-5.65
X5.95Y-5.75
X5.95Y-5.85
X6.Y-4.1
X6.Y-4.2
X6.Y-4.475
X6.Y-4.575
T6
X5.775Y-3.675
X5.775Y-3.8522
X6.0309Y-3.675
X6.0309Y-3.8522
T7
X4.5669Y-3.1988
X4.5669Y-5.8957
X6.3386Y-3.1988
X6.3386Y-5.8957
T0
M30
