G04 #@! TF.FileFunction,Legend,Bot*
%FSLAX46Y46*%
G04 Gerber Fmt 4.6, Leading zero omitted, Abs format (unit mm)*
G04 Created by KiCad (PCBNEW 4.0.7) date 05/08/18 22:21:14*
%MOMM*%
%LPD*%
G01*
G04 APERTURE LIST*
%ADD10C,0.100000*%
%ADD11C,0.200000*%
%ADD12C,0.300000*%
%ADD13C,0.150000*%
%ADD14C,0.120000*%
G04 APERTURE END LIST*
D10*
D11*
X113395000Y-90798571D02*
X113337857Y-90741429D01*
X113166429Y-90627143D01*
X113052143Y-90570000D01*
X112880714Y-90512857D01*
X112595000Y-90455714D01*
X112366429Y-90455714D01*
X112080714Y-90512857D01*
X111909286Y-90570000D01*
X111795000Y-90627143D01*
X111623571Y-90741429D01*
X111566429Y-90798571D01*
X112880714Y-91770000D02*
X112937857Y-91655714D01*
X112937857Y-91427143D01*
X112880714Y-91312857D01*
X112823571Y-91255714D01*
X112709286Y-91198571D01*
X112366429Y-91198571D01*
X112252143Y-91255714D01*
X112195000Y-91312857D01*
X112137857Y-91427143D01*
X112137857Y-91655714D01*
X112195000Y-91770000D01*
X113395000Y-92170000D02*
X113337857Y-92227142D01*
X113166429Y-92341428D01*
X113052143Y-92398571D01*
X112880714Y-92455714D01*
X112595000Y-92512857D01*
X112366429Y-92512857D01*
X112080714Y-92455714D01*
X111909286Y-92398571D01*
X111795000Y-92341428D01*
X111623571Y-92227142D01*
X111566429Y-92170000D01*
X112595000Y-93941428D02*
X112595000Y-94512857D01*
X112937857Y-93827143D02*
X111737857Y-94227143D01*
X112937857Y-94627143D01*
X112937857Y-95198571D02*
X112880714Y-95084285D01*
X112766429Y-95027142D01*
X111737857Y-95027142D01*
X112880714Y-96112856D02*
X112937857Y-95998570D01*
X112937857Y-95769999D01*
X112880714Y-95655713D01*
X112766429Y-95598570D01*
X112309286Y-95598570D01*
X112195000Y-95655713D01*
X112137857Y-95769999D01*
X112137857Y-95998570D01*
X112195000Y-96112856D01*
X112309286Y-96169999D01*
X112423571Y-96169999D01*
X112537857Y-95598570D01*
X112937857Y-96569999D02*
X112137857Y-97198570D01*
X112137857Y-96569999D02*
X112937857Y-97198570D01*
X112937857Y-98169999D02*
X112309286Y-98169999D01*
X112195000Y-98112856D01*
X112137857Y-97998570D01*
X112137857Y-97769999D01*
X112195000Y-97655713D01*
X112880714Y-98169999D02*
X112937857Y-98055713D01*
X112937857Y-97769999D01*
X112880714Y-97655713D01*
X112766429Y-97598570D01*
X112652143Y-97598570D01*
X112537857Y-97655713D01*
X112480714Y-97769999D01*
X112480714Y-98055713D01*
X112423571Y-98169999D01*
X112137857Y-98741427D02*
X112937857Y-98741427D01*
X112252143Y-98741427D02*
X112195000Y-98798570D01*
X112137857Y-98912856D01*
X112137857Y-99084284D01*
X112195000Y-99198570D01*
X112309286Y-99255713D01*
X112937857Y-99255713D01*
X112937857Y-100341427D02*
X111737857Y-100341427D01*
X112880714Y-100341427D02*
X112937857Y-100227141D01*
X112937857Y-99998570D01*
X112880714Y-99884284D01*
X112823571Y-99827141D01*
X112709286Y-99769998D01*
X112366429Y-99769998D01*
X112252143Y-99827141D01*
X112195000Y-99884284D01*
X112137857Y-99998570D01*
X112137857Y-100227141D01*
X112195000Y-100341427D01*
X112880714Y-101369998D02*
X112937857Y-101255712D01*
X112937857Y-101027141D01*
X112880714Y-100912855D01*
X112766429Y-100855712D01*
X112309286Y-100855712D01*
X112195000Y-100912855D01*
X112137857Y-101027141D01*
X112137857Y-101255712D01*
X112195000Y-101369998D01*
X112309286Y-101427141D01*
X112423571Y-101427141D01*
X112537857Y-100855712D01*
X112937857Y-101941426D02*
X112137857Y-101941426D01*
X112366429Y-101941426D02*
X112252143Y-101998569D01*
X112195000Y-102055712D01*
X112137857Y-102169998D01*
X112137857Y-102284283D01*
X112937857Y-104284284D02*
X112366429Y-103884284D01*
X112937857Y-103598569D02*
X111737857Y-103598569D01*
X111737857Y-104055712D01*
X111795000Y-104169998D01*
X111852143Y-104227141D01*
X111966429Y-104284284D01*
X112137857Y-104284284D01*
X112252143Y-104227141D01*
X112309286Y-104169998D01*
X112366429Y-104055712D01*
X112366429Y-103598569D01*
X112880714Y-105255712D02*
X112937857Y-105141426D01*
X112937857Y-104912855D01*
X112880714Y-104798569D01*
X112766429Y-104741426D01*
X112309286Y-104741426D01*
X112195000Y-104798569D01*
X112137857Y-104912855D01*
X112137857Y-105141426D01*
X112195000Y-105255712D01*
X112309286Y-105312855D01*
X112423571Y-105312855D01*
X112537857Y-104741426D01*
X112937857Y-105827140D02*
X112137857Y-105827140D01*
X111737857Y-105827140D02*
X111795000Y-105769997D01*
X111852143Y-105827140D01*
X111795000Y-105884283D01*
X111737857Y-105827140D01*
X111852143Y-105827140D01*
X112137857Y-106398569D02*
X112937857Y-106398569D01*
X112252143Y-106398569D02*
X112195000Y-106455712D01*
X112137857Y-106569998D01*
X112137857Y-106741426D01*
X112195000Y-106855712D01*
X112309286Y-106912855D01*
X112937857Y-106912855D01*
X112880714Y-107941426D02*
X112937857Y-107827140D01*
X112937857Y-107598569D01*
X112880714Y-107484283D01*
X112766429Y-107427140D01*
X112309286Y-107427140D01*
X112195000Y-107484283D01*
X112137857Y-107598569D01*
X112137857Y-107827140D01*
X112195000Y-107941426D01*
X112309286Y-107998569D01*
X112423571Y-107998569D01*
X112537857Y-107427140D01*
X112937857Y-108512854D02*
X112137857Y-108512854D01*
X112366429Y-108512854D02*
X112252143Y-108569997D01*
X112195000Y-108627140D01*
X112137857Y-108741426D01*
X112137857Y-108855711D01*
X112137857Y-109084283D02*
X112137857Y-109541426D01*
X111737857Y-109255711D02*
X112766429Y-109255711D01*
X112880714Y-109312854D01*
X112937857Y-109427140D01*
X112937857Y-109541426D01*
X108562857Y-90284286D02*
X109762857Y-90684286D01*
X108562857Y-91084286D01*
X109705714Y-91941428D02*
X109762857Y-91827142D01*
X109762857Y-91598571D01*
X109705714Y-91484285D01*
X109591429Y-91427142D01*
X109134286Y-91427142D01*
X109020000Y-91484285D01*
X108962857Y-91598571D01*
X108962857Y-91827142D01*
X109020000Y-91941428D01*
X109134286Y-91998571D01*
X109248571Y-91998571D01*
X109362857Y-91427142D01*
X109762857Y-92512856D02*
X108962857Y-92512856D01*
X109191429Y-92512856D02*
X109077143Y-92569999D01*
X109020000Y-92627142D01*
X108962857Y-92741428D01*
X108962857Y-92855713D01*
X109705714Y-93198570D02*
X109762857Y-93312856D01*
X109762857Y-93541428D01*
X109705714Y-93655713D01*
X109591429Y-93712856D01*
X109534286Y-93712856D01*
X109420000Y-93655713D01*
X109362857Y-93541428D01*
X109362857Y-93369999D01*
X109305714Y-93255713D01*
X109191429Y-93198570D01*
X109134286Y-93198570D01*
X109020000Y-93255713D01*
X108962857Y-93369999D01*
X108962857Y-93541428D01*
X109020000Y-93655713D01*
X109762857Y-94227142D02*
X108962857Y-94227142D01*
X108562857Y-94227142D02*
X108620000Y-94169999D01*
X108677143Y-94227142D01*
X108620000Y-94284285D01*
X108562857Y-94227142D01*
X108677143Y-94227142D01*
X109762857Y-94970000D02*
X109705714Y-94855714D01*
X109648571Y-94798571D01*
X109534286Y-94741428D01*
X109191429Y-94741428D01*
X109077143Y-94798571D01*
X109020000Y-94855714D01*
X108962857Y-94970000D01*
X108962857Y-95141428D01*
X109020000Y-95255714D01*
X109077143Y-95312857D01*
X109191429Y-95370000D01*
X109534286Y-95370000D01*
X109648571Y-95312857D01*
X109705714Y-95255714D01*
X109762857Y-95141428D01*
X109762857Y-94970000D01*
X108962857Y-95884285D02*
X109762857Y-95884285D01*
X109077143Y-95884285D02*
X109020000Y-95941428D01*
X108962857Y-96055714D01*
X108962857Y-96227142D01*
X109020000Y-96341428D01*
X109134286Y-96398571D01*
X109762857Y-96398571D01*
X109762857Y-98512857D02*
X109762857Y-97827142D01*
X109762857Y-98170000D02*
X108562857Y-98170000D01*
X108734286Y-98055714D01*
X108848571Y-97941428D01*
X108905714Y-97827142D01*
X109648571Y-99027142D02*
X109705714Y-99084285D01*
X109762857Y-99027142D01*
X109705714Y-98969999D01*
X109648571Y-99027142D01*
X109762857Y-99027142D01*
X108562857Y-100170000D02*
X108562857Y-99598571D01*
X109134286Y-99541428D01*
X109077143Y-99598571D01*
X109020000Y-99712857D01*
X109020000Y-99998571D01*
X109077143Y-100112857D01*
X109134286Y-100170000D01*
X109248571Y-100227143D01*
X109534286Y-100227143D01*
X109648571Y-100170000D01*
X109705714Y-100112857D01*
X109762857Y-99998571D01*
X109762857Y-99712857D01*
X109705714Y-99598571D01*
X109648571Y-99541428D01*
X109305714Y-101655714D02*
X109305714Y-102570000D01*
X108562857Y-104284286D02*
X108562857Y-104398571D01*
X108620000Y-104512857D01*
X108677143Y-104570000D01*
X108791429Y-104627143D01*
X109020000Y-104684286D01*
X109305714Y-104684286D01*
X109534286Y-104627143D01*
X109648571Y-104570000D01*
X109705714Y-104512857D01*
X109762857Y-104398571D01*
X109762857Y-104284286D01*
X109705714Y-104170000D01*
X109648571Y-104112857D01*
X109534286Y-104055714D01*
X109305714Y-103998571D01*
X109020000Y-103998571D01*
X108791429Y-104055714D01*
X108677143Y-104112857D01*
X108620000Y-104170000D01*
X108562857Y-104284286D01*
X108562857Y-105770000D02*
X108562857Y-105198571D01*
X109134286Y-105141428D01*
X109077143Y-105198571D01*
X109020000Y-105312857D01*
X109020000Y-105598571D01*
X109077143Y-105712857D01*
X109134286Y-105770000D01*
X109248571Y-105827143D01*
X109534286Y-105827143D01*
X109648571Y-105770000D01*
X109705714Y-105712857D01*
X109762857Y-105598571D01*
X109762857Y-105312857D01*
X109705714Y-105198571D01*
X109648571Y-105141428D01*
X108505714Y-107198571D02*
X110048571Y-106170000D01*
X108677143Y-107541428D02*
X108620000Y-107598571D01*
X108562857Y-107712857D01*
X108562857Y-107998571D01*
X108620000Y-108112857D01*
X108677143Y-108170000D01*
X108791429Y-108227143D01*
X108905714Y-108227143D01*
X109077143Y-108170000D01*
X109762857Y-107484286D01*
X109762857Y-108227143D01*
X108562857Y-108970000D02*
X108562857Y-109084285D01*
X108620000Y-109198571D01*
X108677143Y-109255714D01*
X108791429Y-109312857D01*
X109020000Y-109370000D01*
X109305714Y-109370000D01*
X109534286Y-109312857D01*
X109648571Y-109255714D01*
X109705714Y-109198571D01*
X109762857Y-109084285D01*
X109762857Y-108970000D01*
X109705714Y-108855714D01*
X109648571Y-108798571D01*
X109534286Y-108741428D01*
X109305714Y-108684285D01*
X109020000Y-108684285D01*
X108791429Y-108741428D01*
X108677143Y-108798571D01*
X108620000Y-108855714D01*
X108562857Y-108970000D01*
X109762857Y-110512857D02*
X109762857Y-109827142D01*
X109762857Y-110170000D02*
X108562857Y-110170000D01*
X108734286Y-110055714D01*
X108848571Y-109941428D01*
X108905714Y-109827142D01*
X109077143Y-111198571D02*
X109020000Y-111084285D01*
X108962857Y-111027142D01*
X108848571Y-110969999D01*
X108791429Y-110969999D01*
X108677143Y-111027142D01*
X108620000Y-111084285D01*
X108562857Y-111198571D01*
X108562857Y-111427142D01*
X108620000Y-111541428D01*
X108677143Y-111598571D01*
X108791429Y-111655714D01*
X108848571Y-111655714D01*
X108962857Y-111598571D01*
X109020000Y-111541428D01*
X109077143Y-111427142D01*
X109077143Y-111198571D01*
X109134286Y-111084285D01*
X109191429Y-111027142D01*
X109305714Y-110969999D01*
X109534286Y-110969999D01*
X109648571Y-111027142D01*
X109705714Y-111084285D01*
X109762857Y-111198571D01*
X109762857Y-111427142D01*
X109705714Y-111541428D01*
X109648571Y-111598571D01*
X109534286Y-111655714D01*
X109305714Y-111655714D01*
X109191429Y-111598571D01*
X109134286Y-111541428D01*
X109077143Y-111427142D01*
D12*
X107358571Y-90527143D02*
X105858571Y-90527143D01*
X106572857Y-90527143D02*
X106572857Y-91384286D01*
X107358571Y-91384286D02*
X105858571Y-91384286D01*
X106572857Y-92598572D02*
X106644286Y-92812858D01*
X106715714Y-92884286D01*
X106858571Y-92955715D01*
X107072857Y-92955715D01*
X107215714Y-92884286D01*
X107287143Y-92812858D01*
X107358571Y-92670000D01*
X107358571Y-92098572D01*
X105858571Y-92098572D01*
X105858571Y-92598572D01*
X105930000Y-92741429D01*
X106001429Y-92812858D01*
X106144286Y-92884286D01*
X106287143Y-92884286D01*
X106430000Y-92812858D01*
X106501429Y-92741429D01*
X106572857Y-92598572D01*
X106572857Y-92098572D01*
X106787143Y-93598572D02*
X106787143Y-94741429D01*
X105858571Y-95455715D02*
X107072857Y-95455715D01*
X107215714Y-95527143D01*
X107287143Y-95598572D01*
X107358571Y-95741429D01*
X107358571Y-96027143D01*
X107287143Y-96170001D01*
X107215714Y-96241429D01*
X107072857Y-96312858D01*
X105858571Y-96312858D01*
X107358571Y-97027144D02*
X105858571Y-97027144D01*
X107358571Y-97884287D01*
X105858571Y-97884287D01*
X107358571Y-98598573D02*
X105858571Y-98598573D01*
X106787143Y-99312859D02*
X106787143Y-100455716D01*
X107287143Y-101098573D02*
X107358571Y-101312859D01*
X107358571Y-101670002D01*
X107287143Y-101812859D01*
X107215714Y-101884288D01*
X107072857Y-101955716D01*
X106930000Y-101955716D01*
X106787143Y-101884288D01*
X106715714Y-101812859D01*
X106644286Y-101670002D01*
X106572857Y-101384288D01*
X106501429Y-101241430D01*
X106430000Y-101170002D01*
X106287143Y-101098573D01*
X106144286Y-101098573D01*
X106001429Y-101170002D01*
X105930000Y-101241430D01*
X105858571Y-101384288D01*
X105858571Y-101741430D01*
X105930000Y-101955716D01*
X106572857Y-102598573D02*
X106572857Y-103098573D01*
X107358571Y-103312859D02*
X107358571Y-102598573D01*
X105858571Y-102598573D01*
X105858571Y-103312859D01*
X107358571Y-103955716D02*
X105858571Y-103955716D01*
X107358571Y-104812859D01*
X105858571Y-104812859D01*
X107287143Y-105455716D02*
X107358571Y-105670002D01*
X107358571Y-106027145D01*
X107287143Y-106170002D01*
X107215714Y-106241431D01*
X107072857Y-106312859D01*
X106930000Y-106312859D01*
X106787143Y-106241431D01*
X106715714Y-106170002D01*
X106644286Y-106027145D01*
X106572857Y-105741431D01*
X106501429Y-105598573D01*
X106430000Y-105527145D01*
X106287143Y-105455716D01*
X106144286Y-105455716D01*
X106001429Y-105527145D01*
X105930000Y-105598573D01*
X105858571Y-105741431D01*
X105858571Y-106098573D01*
X105930000Y-106312859D01*
X106787143Y-106955716D02*
X106787143Y-108098573D01*
X106572857Y-109312859D02*
X106644286Y-109527145D01*
X106715714Y-109598573D01*
X106858571Y-109670002D01*
X107072857Y-109670002D01*
X107215714Y-109598573D01*
X107287143Y-109527145D01*
X107358571Y-109384287D01*
X107358571Y-108812859D01*
X105858571Y-108812859D01*
X105858571Y-109312859D01*
X105930000Y-109455716D01*
X106001429Y-109527145D01*
X106144286Y-109598573D01*
X106287143Y-109598573D01*
X106430000Y-109527145D01*
X106501429Y-109455716D01*
X106572857Y-109312859D01*
X106572857Y-108812859D01*
X106930000Y-110241430D02*
X106930000Y-110955716D01*
X107358571Y-110098573D02*
X105858571Y-110598573D01*
X107358571Y-111098573D01*
X105858571Y-111384287D02*
X105858571Y-112241430D01*
X107358571Y-111812859D02*
X105858571Y-111812859D01*
X105858571Y-112527144D02*
X105858571Y-113384287D01*
X107358571Y-112955716D02*
X105858571Y-112955716D01*
D13*
X140335000Y-80010000D02*
G75*
G03X140335000Y-80010000I-635000J0D01*
G01*
X137795000Y-80010000D02*
G75*
G03X137795000Y-80010000I-635000J0D01*
G01*
X135255000Y-80010000D02*
G75*
G03X135255000Y-80010000I-635000J0D01*
G01*
X132715000Y-80010000D02*
G75*
G03X132715000Y-80010000I-635000J0D01*
G01*
X130175000Y-80010000D02*
G75*
G03X130175000Y-80010000I-635000J0D01*
G01*
X127635000Y-80010000D02*
G75*
G03X127635000Y-80010000I-635000J0D01*
G01*
D14*
X108585000Y-148335000D02*
X111125000Y-148335000D01*
X111125000Y-150115000D02*
X108585000Y-150115000D01*
X111125000Y-150115000D02*
X111125000Y-148335000D01*
X108585000Y-148335000D02*
X108585000Y-150115000D01*
D13*
X138765000Y-82092858D02*
X138736429Y-82035715D01*
X138736429Y-81950001D01*
X138765000Y-81864286D01*
X138822143Y-81807144D01*
X138879286Y-81778572D01*
X138993571Y-81750001D01*
X139079286Y-81750001D01*
X139193571Y-81778572D01*
X139250714Y-81807144D01*
X139307857Y-81864286D01*
X139336429Y-81950001D01*
X139336429Y-82007144D01*
X139307857Y-82092858D01*
X139279286Y-82121429D01*
X139079286Y-82121429D01*
X139079286Y-82007144D01*
X139336429Y-82378572D02*
X138736429Y-82378572D01*
X139336429Y-82721429D01*
X138736429Y-82721429D01*
X139336429Y-83007143D02*
X138736429Y-83007143D01*
X138736429Y-83150000D01*
X138765000Y-83235715D01*
X138822143Y-83292857D01*
X138879286Y-83321429D01*
X138993571Y-83350000D01*
X139079286Y-83350000D01*
X139193571Y-83321429D01*
X139250714Y-83292857D01*
X139307857Y-83235715D01*
X139336429Y-83150000D01*
X139336429Y-83007143D01*
X136860000Y-82092858D02*
X136831429Y-82035715D01*
X136831429Y-81950001D01*
X136860000Y-81864286D01*
X136917143Y-81807144D01*
X136974286Y-81778572D01*
X137088571Y-81750001D01*
X137174286Y-81750001D01*
X137288571Y-81778572D01*
X137345714Y-81807144D01*
X137402857Y-81864286D01*
X137431429Y-81950001D01*
X137431429Y-82007144D01*
X137402857Y-82092858D01*
X137374286Y-82121429D01*
X137174286Y-82121429D01*
X137174286Y-82007144D01*
X137431429Y-82378572D02*
X136831429Y-82378572D01*
X137431429Y-82721429D01*
X136831429Y-82721429D01*
X137431429Y-83007143D02*
X136831429Y-83007143D01*
X136831429Y-83150000D01*
X136860000Y-83235715D01*
X136917143Y-83292857D01*
X136974286Y-83321429D01*
X137088571Y-83350000D01*
X137174286Y-83350000D01*
X137288571Y-83321429D01*
X137345714Y-83292857D01*
X137402857Y-83235715D01*
X137431429Y-83150000D01*
X137431429Y-83007143D01*
X134291429Y-81750000D02*
X134891429Y-81950000D01*
X134291429Y-82150000D01*
X134834286Y-82692857D02*
X134862857Y-82664286D01*
X134891429Y-82578572D01*
X134891429Y-82521429D01*
X134862857Y-82435714D01*
X134805714Y-82378572D01*
X134748571Y-82350000D01*
X134634286Y-82321429D01*
X134548571Y-82321429D01*
X134434286Y-82350000D01*
X134377143Y-82378572D01*
X134320000Y-82435714D01*
X134291429Y-82521429D01*
X134291429Y-82578572D01*
X134320000Y-82664286D01*
X134348571Y-82692857D01*
X134834286Y-83292857D02*
X134862857Y-83264286D01*
X134891429Y-83178572D01*
X134891429Y-83121429D01*
X134862857Y-83035714D01*
X134805714Y-82978572D01*
X134748571Y-82950000D01*
X134634286Y-82921429D01*
X134548571Y-82921429D01*
X134434286Y-82950000D01*
X134377143Y-82978572D01*
X134320000Y-83035714D01*
X134291429Y-83121429D01*
X134291429Y-83178572D01*
X134320000Y-83264286D01*
X134348571Y-83292857D01*
X132351429Y-82307143D02*
X132065714Y-82107143D01*
X132351429Y-81964286D02*
X131751429Y-81964286D01*
X131751429Y-82192858D01*
X131780000Y-82250000D01*
X131808571Y-82278572D01*
X131865714Y-82307143D01*
X131951429Y-82307143D01*
X132008571Y-82278572D01*
X132037143Y-82250000D01*
X132065714Y-82192858D01*
X132065714Y-81964286D01*
X131751429Y-82507143D02*
X132351429Y-82907143D01*
X131751429Y-82907143D02*
X132351429Y-82507143D01*
X132351429Y-83135715D02*
X131751429Y-83135715D01*
X129211429Y-81792857D02*
X129211429Y-82135714D01*
X129811429Y-81964285D02*
X129211429Y-81964285D01*
X129211429Y-82278571D02*
X129811429Y-82678571D01*
X129211429Y-82678571D02*
X129811429Y-82278571D01*
X129811429Y-82907143D02*
X129211429Y-82907143D01*
X129211429Y-83050000D01*
X129240000Y-83135715D01*
X129297143Y-83192857D01*
X129354286Y-83221429D01*
X129468571Y-83250000D01*
X129554286Y-83250000D01*
X129668571Y-83221429D01*
X129725714Y-83192857D01*
X129782857Y-83135715D01*
X129811429Y-83050000D01*
X129811429Y-82907143D01*
X127906429Y-81864286D02*
X127306429Y-81864286D01*
X127306429Y-82007143D01*
X127335000Y-82092858D01*
X127392143Y-82150000D01*
X127449286Y-82178572D01*
X127563571Y-82207143D01*
X127649286Y-82207143D01*
X127763571Y-82178572D01*
X127820714Y-82150000D01*
X127877857Y-82092858D01*
X127906429Y-82007143D01*
X127906429Y-81864286D01*
X127306429Y-82378572D02*
X127306429Y-82721429D01*
X127906429Y-82550000D02*
X127306429Y-82550000D01*
X127906429Y-83264286D02*
X127620714Y-83064286D01*
X127906429Y-82921429D02*
X127306429Y-82921429D01*
X127306429Y-83150001D01*
X127335000Y-83207143D01*
X127363571Y-83235715D01*
X127420714Y-83264286D01*
X127506429Y-83264286D01*
X127563571Y-83235715D01*
X127592143Y-83207143D01*
X127620714Y-83150001D01*
X127620714Y-82921429D01*
X110188333Y-150457381D02*
X110188333Y-151171667D01*
X110235953Y-151314524D01*
X110331191Y-151409762D01*
X110474048Y-151457381D01*
X110569286Y-151457381D01*
X109569286Y-150885952D02*
X109664524Y-150838333D01*
X109712143Y-150790714D01*
X109759762Y-150695476D01*
X109759762Y-150647857D01*
X109712143Y-150552619D01*
X109664524Y-150505000D01*
X109569286Y-150457381D01*
X109378809Y-150457381D01*
X109283571Y-150505000D01*
X109235952Y-150552619D01*
X109188333Y-150647857D01*
X109188333Y-150695476D01*
X109235952Y-150790714D01*
X109283571Y-150838333D01*
X109378809Y-150885952D01*
X109569286Y-150885952D01*
X109664524Y-150933571D01*
X109712143Y-150981190D01*
X109759762Y-151076429D01*
X109759762Y-151266905D01*
X109712143Y-151362143D01*
X109664524Y-151409762D01*
X109569286Y-151457381D01*
X109378809Y-151457381D01*
X109283571Y-151409762D01*
X109235952Y-151362143D01*
X109188333Y-151266905D01*
X109188333Y-151076429D01*
X109235952Y-150981190D01*
X109283571Y-150933571D01*
X109378809Y-150885952D01*
M02*
