%FSLAX45Y45*%
G04 Gerber Fmt 4.5, Leading zero omitted, Abs format (unit mm)*
G04 Created by KiCad (PCBNEW 4.0.7) date 08/02/18 21:55:23*
%MOMM*%
%LPD*%
G01*
G04 APERTURE LIST*
%ADD10C,0.127000*%
%ADD11C,0.150000*%
%ADD12C,0.200000*%
%ADD13C,0.300000*%
G04 APERTURE END LIST*
D10*
D11*
X10096500Y-5715000D02*
X10096500Y-4762500D01*
X10096500Y-4762500D02*
X14414500Y-4762500D01*
X10096500Y-7239000D02*
X10096500Y-7810500D01*
X10160000Y-5778500D02*
X10096500Y-5715000D01*
X10160000Y-7175500D02*
X10160000Y-5778500D01*
X10096500Y-7239000D02*
X10160000Y-7175500D01*
X14541500Y-7810500D02*
X10096500Y-7810500D01*
X14541500Y-4762500D02*
X14541500Y-7810500D01*
X14478000Y-4762500D02*
X14541500Y-4762500D01*
X14414500Y-4762500D02*
X14478000Y-4762500D01*
D12*
X11447000Y-7510000D02*
X11667000Y-7730000D01*
X11667000Y-7510000D02*
X11447000Y-7730000D01*
X13606000Y-5160500D02*
X13826000Y-5380500D01*
X13826000Y-5160500D02*
X13606000Y-5380500D01*
D13*
X10360429Y-8283714D02*
X10360429Y-7983714D01*
X10431857Y-7983714D01*
X10474714Y-7998000D01*
X10503286Y-8026571D01*
X10517571Y-8055143D01*
X10531857Y-8112286D01*
X10531857Y-8155143D01*
X10517571Y-8212286D01*
X10503286Y-8240857D01*
X10474714Y-8269429D01*
X10431857Y-8283714D01*
X10360429Y-8283714D01*
X10660429Y-8283714D02*
X10660429Y-8083714D01*
X10660429Y-8140857D02*
X10674714Y-8112286D01*
X10689000Y-8098000D01*
X10717571Y-8083714D01*
X10746143Y-8083714D01*
X10846143Y-8283714D02*
X10846143Y-8083714D01*
X10846143Y-7983714D02*
X10831857Y-7998000D01*
X10846143Y-8012286D01*
X10860429Y-7998000D01*
X10846143Y-7983714D01*
X10846143Y-8012286D01*
X11031857Y-8283714D02*
X11003286Y-8269429D01*
X10989000Y-8240857D01*
X10989000Y-7983714D01*
X11189000Y-8283714D02*
X11160429Y-8269429D01*
X11146143Y-8240857D01*
X11146143Y-7983714D01*
X11531857Y-8283714D02*
X11531857Y-7983714D01*
X11631857Y-8198000D01*
X11731857Y-7983714D01*
X11731857Y-8283714D01*
X12003286Y-8283714D02*
X12003286Y-8126571D01*
X11989000Y-8098000D01*
X11960428Y-8083714D01*
X11903286Y-8083714D01*
X11874714Y-8098000D01*
X12003286Y-8269429D02*
X11974714Y-8283714D01*
X11903286Y-8283714D01*
X11874714Y-8269429D01*
X11860428Y-8240857D01*
X11860428Y-8212286D01*
X11874714Y-8183714D01*
X11903286Y-8169429D01*
X11974714Y-8169429D01*
X12003286Y-8155143D01*
X12146143Y-8083714D02*
X12146143Y-8383714D01*
X12146143Y-8098000D02*
X12174714Y-8083714D01*
X12231857Y-8083714D01*
X12260428Y-8098000D01*
X12274714Y-8112286D01*
X12289000Y-8140857D01*
X12289000Y-8226571D01*
X12274714Y-8255143D01*
X12260428Y-8269429D01*
X12231857Y-8283714D01*
X12174714Y-8283714D01*
X12146143Y-8269429D01*
X12417571Y-8255143D02*
X12431857Y-8269429D01*
X12417571Y-8283714D01*
X12403286Y-8269429D01*
X12417571Y-8255143D01*
X12417571Y-8283714D01*
X12417571Y-8098000D02*
X12431857Y-8112286D01*
X12417571Y-8126571D01*
X12403286Y-8112286D01*
X12417571Y-8098000D01*
X12417571Y-8126571D01*
X9869000Y-8668000D02*
X10089000Y-8888000D01*
X10089000Y-8668000D02*
X9869000Y-8888000D01*
X10346143Y-8642286D02*
X10360429Y-8628000D01*
X10389000Y-8613714D01*
X10460429Y-8613714D01*
X10489000Y-8628000D01*
X10503286Y-8642286D01*
X10517571Y-8670857D01*
X10517571Y-8699429D01*
X10503286Y-8742286D01*
X10331857Y-8913714D01*
X10517571Y-8913714D01*
X10646143Y-8885143D02*
X10660429Y-8899429D01*
X10646143Y-8913714D01*
X10631857Y-8899429D01*
X10646143Y-8885143D01*
X10646143Y-8913714D01*
X10774714Y-8642286D02*
X10789000Y-8628000D01*
X10817571Y-8613714D01*
X10889000Y-8613714D01*
X10917571Y-8628000D01*
X10931857Y-8642286D01*
X10946143Y-8670857D01*
X10946143Y-8699429D01*
X10931857Y-8742286D01*
X10760428Y-8913714D01*
X10946143Y-8913714D01*
X11131857Y-8613714D02*
X11160429Y-8613714D01*
X11189000Y-8628000D01*
X11203286Y-8642286D01*
X11217571Y-8670857D01*
X11231857Y-8728000D01*
X11231857Y-8799429D01*
X11217571Y-8856572D01*
X11203286Y-8885143D01*
X11189000Y-8899429D01*
X11160429Y-8913714D01*
X11131857Y-8913714D01*
X11103286Y-8899429D01*
X11089000Y-8885143D01*
X11074714Y-8856572D01*
X11060429Y-8799429D01*
X11060429Y-8728000D01*
X11074714Y-8670857D01*
X11089000Y-8642286D01*
X11103286Y-8628000D01*
X11131857Y-8613714D01*
X11360428Y-8913714D02*
X11360428Y-8713714D01*
X11360428Y-8742286D02*
X11374714Y-8728000D01*
X11403286Y-8713714D01*
X11446143Y-8713714D01*
X11474714Y-8728000D01*
X11489000Y-8756572D01*
X11489000Y-8913714D01*
X11489000Y-8756572D02*
X11503286Y-8728000D01*
X11531857Y-8713714D01*
X11574714Y-8713714D01*
X11603286Y-8728000D01*
X11617571Y-8756572D01*
X11617571Y-8913714D01*
X11760428Y-8913714D02*
X11760428Y-8713714D01*
X11760428Y-8742286D02*
X11774714Y-8728000D01*
X11803286Y-8713714D01*
X11846143Y-8713714D01*
X11874714Y-8728000D01*
X11889000Y-8756572D01*
X11889000Y-8913714D01*
X11889000Y-8756572D02*
X11903286Y-8728000D01*
X11931857Y-8713714D01*
X11974714Y-8713714D01*
X12003286Y-8728000D01*
X12017571Y-8756572D01*
X12017571Y-8913714D01*
X12603286Y-8599429D02*
X12346143Y-8985143D01*
X12989000Y-8613714D02*
X13017571Y-8613714D01*
X13046143Y-8628000D01*
X13060428Y-8642286D01*
X13074714Y-8670857D01*
X13089000Y-8728000D01*
X13089000Y-8799429D01*
X13074714Y-8856572D01*
X13060428Y-8885143D01*
X13046143Y-8899429D01*
X13017571Y-8913714D01*
X12989000Y-8913714D01*
X12960428Y-8899429D01*
X12946143Y-8885143D01*
X12931857Y-8856572D01*
X12917571Y-8799429D01*
X12917571Y-8728000D01*
X12931857Y-8670857D01*
X12946143Y-8642286D01*
X12960428Y-8628000D01*
X12989000Y-8613714D01*
X13217571Y-8885143D02*
X13231857Y-8899429D01*
X13217571Y-8913714D01*
X13203286Y-8899429D01*
X13217571Y-8885143D01*
X13217571Y-8913714D01*
X13417571Y-8613714D02*
X13446143Y-8613714D01*
X13474714Y-8628000D01*
X13489000Y-8642286D01*
X13503285Y-8670857D01*
X13517571Y-8728000D01*
X13517571Y-8799429D01*
X13503285Y-8856572D01*
X13489000Y-8885143D01*
X13474714Y-8899429D01*
X13446143Y-8913714D01*
X13417571Y-8913714D01*
X13389000Y-8899429D01*
X13374714Y-8885143D01*
X13360428Y-8856572D01*
X13346143Y-8799429D01*
X13346143Y-8728000D01*
X13360428Y-8670857D01*
X13374714Y-8642286D01*
X13389000Y-8628000D01*
X13417571Y-8613714D01*
X13689000Y-8742286D02*
X13660428Y-8728000D01*
X13646143Y-8713714D01*
X13631857Y-8685143D01*
X13631857Y-8670857D01*
X13646143Y-8642286D01*
X13660428Y-8628000D01*
X13689000Y-8613714D01*
X13746143Y-8613714D01*
X13774714Y-8628000D01*
X13789000Y-8642286D01*
X13803285Y-8670857D01*
X13803285Y-8685143D01*
X13789000Y-8713714D01*
X13774714Y-8728000D01*
X13746143Y-8742286D01*
X13689000Y-8742286D01*
X13660428Y-8756572D01*
X13646143Y-8770857D01*
X13631857Y-8799429D01*
X13631857Y-8856572D01*
X13646143Y-8885143D01*
X13660428Y-8899429D01*
X13689000Y-8913714D01*
X13746143Y-8913714D01*
X13774714Y-8899429D01*
X13789000Y-8885143D01*
X13803285Y-8856572D01*
X13803285Y-8799429D01*
X13789000Y-8770857D01*
X13774714Y-8756572D01*
X13746143Y-8742286D01*
X13903285Y-8613714D02*
X14103285Y-8613714D01*
X13974714Y-8913714D01*
X14203286Y-8613714D02*
X14203286Y-8670857D01*
X14317571Y-8613714D02*
X14317571Y-8670857D01*
X14760428Y-9028000D02*
X14746143Y-9013714D01*
X14717571Y-8970857D01*
X14703285Y-8942286D01*
X14689000Y-8899429D01*
X14674714Y-8828000D01*
X14674714Y-8770857D01*
X14689000Y-8699429D01*
X14703285Y-8656572D01*
X14717571Y-8628000D01*
X14746143Y-8585143D01*
X14760428Y-8570857D01*
X14860428Y-8642286D02*
X14874714Y-8628000D01*
X14903285Y-8613714D01*
X14974714Y-8613714D01*
X15003285Y-8628000D01*
X15017571Y-8642286D01*
X15031857Y-8670857D01*
X15031857Y-8699429D01*
X15017571Y-8742286D01*
X14846143Y-8913714D01*
X15031857Y-8913714D01*
X15389000Y-8913714D02*
X15389000Y-8613714D01*
X15517571Y-8913714D02*
X15517571Y-8756572D01*
X15503285Y-8728000D01*
X15474714Y-8713714D01*
X15431857Y-8713714D01*
X15403285Y-8728000D01*
X15389000Y-8742286D01*
X15703285Y-8913714D02*
X15674714Y-8899429D01*
X15660428Y-8885143D01*
X15646143Y-8856572D01*
X15646143Y-8770857D01*
X15660428Y-8742286D01*
X15674714Y-8728000D01*
X15703285Y-8713714D01*
X15746143Y-8713714D01*
X15774714Y-8728000D01*
X15789000Y-8742286D01*
X15803285Y-8770857D01*
X15803285Y-8856572D01*
X15789000Y-8885143D01*
X15774714Y-8899429D01*
X15746143Y-8913714D01*
X15703285Y-8913714D01*
X15974714Y-8913714D02*
X15946143Y-8899429D01*
X15931857Y-8870857D01*
X15931857Y-8613714D01*
X16203286Y-8899429D02*
X16174714Y-8913714D01*
X16117571Y-8913714D01*
X16089000Y-8899429D01*
X16074714Y-8870857D01*
X16074714Y-8756572D01*
X16089000Y-8728000D01*
X16117571Y-8713714D01*
X16174714Y-8713714D01*
X16203286Y-8728000D01*
X16217571Y-8756572D01*
X16217571Y-8785143D01*
X16074714Y-8813714D01*
X16331857Y-8899429D02*
X16360428Y-8913714D01*
X16417571Y-8913714D01*
X16446143Y-8899429D01*
X16460428Y-8870857D01*
X16460428Y-8856572D01*
X16446143Y-8828000D01*
X16417571Y-8813714D01*
X16374714Y-8813714D01*
X16346143Y-8799429D01*
X16331857Y-8770857D01*
X16331857Y-8756572D01*
X16346143Y-8728000D01*
X16374714Y-8713714D01*
X16417571Y-8713714D01*
X16446143Y-8728000D01*
X16560428Y-9028000D02*
X16574714Y-9013714D01*
X16603286Y-8970857D01*
X16617571Y-8942286D01*
X16631857Y-8899429D01*
X16646143Y-8828000D01*
X16646143Y-8770857D01*
X16631857Y-8699429D01*
X16617571Y-8656572D01*
X16603286Y-8628000D01*
X16574714Y-8585143D01*
X16560428Y-8570857D01*
X17103286Y-9028000D02*
X17089000Y-9013714D01*
X17060428Y-8970857D01*
X17046143Y-8942286D01*
X17031857Y-8899429D01*
X17017571Y-8828000D01*
X17017571Y-8770857D01*
X17031857Y-8699429D01*
X17046143Y-8656572D01*
X17060428Y-8628000D01*
X17089000Y-8585143D01*
X17103286Y-8570857D01*
X17217571Y-8713714D02*
X17217571Y-8913714D01*
X17217571Y-8742286D02*
X17231857Y-8728000D01*
X17260428Y-8713714D01*
X17303286Y-8713714D01*
X17331857Y-8728000D01*
X17346143Y-8756572D01*
X17346143Y-8913714D01*
X17531857Y-8913714D02*
X17503286Y-8899429D01*
X17489000Y-8885143D01*
X17474714Y-8856572D01*
X17474714Y-8770857D01*
X17489000Y-8742286D01*
X17503286Y-8728000D01*
X17531857Y-8713714D01*
X17574714Y-8713714D01*
X17603286Y-8728000D01*
X17617571Y-8742286D01*
X17631857Y-8770857D01*
X17631857Y-8856572D01*
X17617571Y-8885143D01*
X17603286Y-8899429D01*
X17574714Y-8913714D01*
X17531857Y-8913714D01*
X17717571Y-8713714D02*
X17831857Y-8713714D01*
X17760429Y-8613714D02*
X17760429Y-8870857D01*
X17774714Y-8899429D01*
X17803286Y-8913714D01*
X17831857Y-8913714D01*
X18160429Y-8713714D02*
X18160429Y-9013714D01*
X18160429Y-8728000D02*
X18189000Y-8713714D01*
X18246143Y-8713714D01*
X18274714Y-8728000D01*
X18289000Y-8742286D01*
X18303286Y-8770857D01*
X18303286Y-8856572D01*
X18289000Y-8885143D01*
X18274714Y-8899429D01*
X18246143Y-8913714D01*
X18189000Y-8913714D01*
X18160429Y-8899429D01*
X18474714Y-8913714D02*
X18446143Y-8899429D01*
X18431857Y-8870857D01*
X18431857Y-8613714D01*
X18717571Y-8913714D02*
X18717571Y-8756572D01*
X18703286Y-8728000D01*
X18674714Y-8713714D01*
X18617571Y-8713714D01*
X18589000Y-8728000D01*
X18717571Y-8899429D02*
X18689000Y-8913714D01*
X18617571Y-8913714D01*
X18589000Y-8899429D01*
X18574714Y-8870857D01*
X18574714Y-8842286D01*
X18589000Y-8813714D01*
X18617571Y-8799429D01*
X18689000Y-8799429D01*
X18717571Y-8785143D01*
X18817571Y-8713714D02*
X18931857Y-8713714D01*
X18860429Y-8613714D02*
X18860429Y-8870857D01*
X18874714Y-8899429D01*
X18903286Y-8913714D01*
X18931857Y-8913714D01*
X19146143Y-8899429D02*
X19117572Y-8913714D01*
X19060429Y-8913714D01*
X19031857Y-8899429D01*
X19017572Y-8870857D01*
X19017572Y-8756572D01*
X19031857Y-8728000D01*
X19060429Y-8713714D01*
X19117572Y-8713714D01*
X19146143Y-8728000D01*
X19160429Y-8756572D01*
X19160429Y-8785143D01*
X19017572Y-8813714D01*
X19417572Y-8913714D02*
X19417572Y-8613714D01*
X19417572Y-8899429D02*
X19389000Y-8913714D01*
X19331857Y-8913714D01*
X19303286Y-8899429D01*
X19289000Y-8885143D01*
X19274714Y-8856572D01*
X19274714Y-8770857D01*
X19289000Y-8742286D01*
X19303286Y-8728000D01*
X19331857Y-8713714D01*
X19389000Y-8713714D01*
X19417572Y-8728000D01*
X19531857Y-9028000D02*
X19546143Y-9013714D01*
X19574714Y-8970857D01*
X19589000Y-8942286D01*
X19603286Y-8899429D01*
X19617572Y-8828000D01*
X19617572Y-8770857D01*
X19603286Y-8699429D01*
X19589000Y-8656572D01*
X19574714Y-8628000D01*
X19546143Y-8585143D01*
X19531857Y-8570857D01*
M02*
