M48
;DRILL file {KiCad 4.0.7} date 08/02/18 21:55:22
;FORMAT={-:-/ absolute / inch / decimal}
FMAT,2
INCH,TZ
T1C0.016
T2C0.031
T3C0.035
T4C0.039
T5C0.043
%
G90
G05
M72
T1
X4.125Y-2.15
X4.3Y-2.95
X4.325Y-2.925
X4.4Y-2.95
X4.425Y-2.9
X4.575Y-2.6
X4.675Y-2.3
X4.675Y-2.6
X4.825Y-2.3
X5.15Y-2.375
T2
X4.45Y-1.95
X4.85Y-1.95
X4.95Y-1.95
X5.25Y-3.
X5.35Y-1.95
X5.6234Y-1.9591
X5.6234Y-2.0378
X5.6234Y-2.1165
X5.6234Y-2.1953
X5.6234Y-2.274
X5.6234Y-2.3528
X5.6234Y-2.4315
X5.6234Y-2.5102
X5.65Y-3.
T3
X5.3Y-2.25
X5.3Y-2.35
X5.3Y-2.45
X5.3Y-2.55
X5.3Y-2.7
X5.3Y-2.8
T4
X4.05Y-2.1
X4.05Y-2.25
X4.05Y-2.85
X4.05Y-3.
X4.15Y-1.95
X4.15Y-2.1
X4.15Y-2.25
X4.15Y-2.85
X4.15Y-3.
X4.25Y-1.95
X4.25Y-2.25
X4.25Y-2.85
X4.25Y-3.
X4.35Y-2.1
X4.35Y-2.25
X4.35Y-2.85
X4.35Y-3.
X4.4Y-2.35
X4.45Y-2.1
X4.45Y-2.25
X4.45Y-2.85
X4.5Y-2.35
X4.55Y-2.25
X4.55Y-2.85
X4.65Y-2.1
X4.65Y-2.25
X4.65Y-2.85
X4.75Y-2.1
X4.75Y-2.25
X4.75Y-2.85
X4.85Y-2.1
X4.85Y-2.25
X4.85Y-2.85
X4.85Y-3.
X4.95Y-2.25
X4.95Y-2.85
X4.95Y-3.
X5.05Y-2.1
X5.05Y-2.25
X5.05Y-2.85
X5.05Y-3.
X5.15Y-2.1
X5.15Y-2.25
X5.15Y-2.85
X5.15Y-3.
X5.25Y-2.1
T5
X5.46Y-2.6341
X5.46Y-2.89
X5.6372Y-2.6341
X5.6372Y-2.89
T0
M30
