G04 #@! TF.FileFunction,Legend,Bot*
%FSLAX46Y46*%
G04 Gerber Fmt 4.6, Leading zero omitted, Abs format (unit mm)*
G04 Created by KiCad (PCBNEW 4.0.7) date 08/02/18 21:55:20*
%MOMM*%
%LPD*%
G01*
G04 APERTURE LIST*
%ADD10C,0.100000*%
%ADD11C,0.200000*%
%ADD12C,0.300000*%
%ADD13C,0.150000*%
%ADD14C,0.010000*%
%ADD15R,2.200000X2.200000*%
%ADD16C,2.200000*%
%ADD17R,2.100000X2.100000*%
%ADD18O,2.100000X2.100000*%
%ADD19C,2.600000*%
%ADD20C,2.400000*%
%ADD21C,1.750000*%
%ADD22C,2.000000*%
%ADD23O,2.000000X2.000000*%
G04 APERTURE END LIST*
D10*
D11*
X128961429Y-68945000D02*
X129011428Y-68887857D01*
X129104286Y-68716429D01*
X129147143Y-68602143D01*
X129182857Y-68430714D01*
X129204286Y-68145000D01*
X129175715Y-67916429D01*
X129082857Y-67630714D01*
X129004286Y-67459286D01*
X128932857Y-67345000D01*
X128797142Y-67173571D01*
X128732858Y-67116429D01*
X127925714Y-68430714D02*
X128047143Y-68487857D01*
X128275714Y-68487857D01*
X128382857Y-68430714D01*
X128432857Y-68373571D01*
X128475715Y-68259286D01*
X128432858Y-67916429D01*
X128361429Y-67802143D01*
X128297143Y-67745000D01*
X128175714Y-67687857D01*
X127947143Y-67687857D01*
X127840000Y-67745000D01*
X127590000Y-68945000D02*
X127525715Y-68887857D01*
X127390001Y-68716429D01*
X127318572Y-68602143D01*
X127240000Y-68430714D01*
X127147143Y-68145000D01*
X127118572Y-67916429D01*
X127140000Y-67630714D01*
X127175715Y-67459286D01*
X127218572Y-67345000D01*
X127311429Y-67173571D01*
X127361429Y-67116429D01*
X125718572Y-68145000D02*
X125147143Y-68145000D01*
X125875714Y-68487857D02*
X125325714Y-67287857D01*
X125075714Y-68487857D01*
X124504286Y-68487857D02*
X124611429Y-68430714D01*
X124654287Y-68316429D01*
X124525715Y-67287857D01*
X123582858Y-68430714D02*
X123704287Y-68487857D01*
X123932858Y-68487857D01*
X124040001Y-68430714D01*
X124082859Y-68316429D01*
X124025716Y-67859286D01*
X123954287Y-67745000D01*
X123832858Y-67687857D01*
X123604287Y-67687857D01*
X123497144Y-67745000D01*
X123454287Y-67859286D01*
X123468572Y-67973571D01*
X124054287Y-68087857D01*
X123132858Y-68487857D02*
X122404287Y-67687857D01*
X123032858Y-67687857D02*
X122504287Y-68487857D01*
X121532858Y-68487857D02*
X121454287Y-67859286D01*
X121497144Y-67745000D01*
X121604287Y-67687857D01*
X121832858Y-67687857D01*
X121954287Y-67745000D01*
X121525715Y-68430714D02*
X121647144Y-68487857D01*
X121932858Y-68487857D01*
X122040001Y-68430714D01*
X122082859Y-68316429D01*
X122068573Y-68202143D01*
X121997144Y-68087857D01*
X121875715Y-68030714D01*
X121590001Y-68030714D01*
X121468572Y-67973571D01*
X120861430Y-67687857D02*
X120961430Y-68487857D01*
X120875716Y-67802143D02*
X120811430Y-67745000D01*
X120690001Y-67687857D01*
X120518573Y-67687857D01*
X120411430Y-67745000D01*
X120368573Y-67859286D01*
X120447144Y-68487857D01*
X119361430Y-68487857D02*
X119211430Y-67287857D01*
X119354287Y-68430714D02*
X119475716Y-68487857D01*
X119704287Y-68487857D01*
X119811430Y-68430714D01*
X119861430Y-68373571D01*
X119904288Y-68259286D01*
X119861431Y-67916429D01*
X119790002Y-67802143D01*
X119725716Y-67745000D01*
X119604287Y-67687857D01*
X119375716Y-67687857D01*
X119268573Y-67745000D01*
X118325716Y-68430714D02*
X118447145Y-68487857D01*
X118675716Y-68487857D01*
X118782859Y-68430714D01*
X118825717Y-68316429D01*
X118768574Y-67859286D01*
X118697145Y-67745000D01*
X118575716Y-67687857D01*
X118347145Y-67687857D01*
X118240002Y-67745000D01*
X118197145Y-67859286D01*
X118211430Y-67973571D01*
X118797145Y-68087857D01*
X117761431Y-68487857D02*
X117661431Y-67687857D01*
X117690003Y-67916429D02*
X117618574Y-67802143D01*
X117554288Y-67745000D01*
X117432859Y-67687857D01*
X117318574Y-67687857D01*
X115418573Y-68487857D02*
X115747145Y-67916429D01*
X116104288Y-68487857D02*
X115954288Y-67287857D01*
X115497145Y-67287857D01*
X115390002Y-67345000D01*
X115340002Y-67402143D01*
X115297145Y-67516429D01*
X115318573Y-67687857D01*
X115390002Y-67802143D01*
X115454288Y-67859286D01*
X115575717Y-67916429D01*
X116032860Y-67916429D01*
X114440002Y-68430714D02*
X114561431Y-68487857D01*
X114790002Y-68487857D01*
X114897145Y-68430714D01*
X114940003Y-68316429D01*
X114882860Y-67859286D01*
X114811431Y-67745000D01*
X114690002Y-67687857D01*
X114461431Y-67687857D01*
X114354288Y-67745000D01*
X114311431Y-67859286D01*
X114325716Y-67973571D01*
X114911431Y-68087857D01*
X113875717Y-68487857D02*
X113775717Y-67687857D01*
X113725717Y-67287857D02*
X113790003Y-67345000D01*
X113740003Y-67402143D01*
X113675717Y-67345000D01*
X113725717Y-67287857D01*
X113740003Y-67402143D01*
X113204288Y-67687857D02*
X113304288Y-68487857D01*
X113218574Y-67802143D02*
X113154288Y-67745000D01*
X113032859Y-67687857D01*
X112861431Y-67687857D01*
X112754288Y-67745000D01*
X112711431Y-67859286D01*
X112790002Y-68487857D01*
X111754288Y-68430714D02*
X111875717Y-68487857D01*
X112104288Y-68487857D01*
X112211431Y-68430714D01*
X112254289Y-68316429D01*
X112197146Y-67859286D01*
X112125717Y-67745000D01*
X112004288Y-67687857D01*
X111775717Y-67687857D01*
X111668574Y-67745000D01*
X111625717Y-67859286D01*
X111640002Y-67973571D01*
X112225717Y-68087857D01*
X111190003Y-68487857D02*
X111090003Y-67687857D01*
X111118575Y-67916429D02*
X111047146Y-67802143D01*
X110982860Y-67745000D01*
X110861431Y-67687857D01*
X110747146Y-67687857D01*
X110518574Y-67687857D02*
X110061431Y-67687857D01*
X110297146Y-67287857D02*
X110425718Y-68316429D01*
X110382860Y-68430714D01*
X110275717Y-68487857D01*
X110161431Y-68487857D01*
X129425714Y-64112857D02*
X129025714Y-65312857D01*
X128625714Y-64112857D01*
X127768572Y-65255714D02*
X127882858Y-65312857D01*
X128111429Y-65312857D01*
X128225715Y-65255714D01*
X128282858Y-65141429D01*
X128282858Y-64684286D01*
X128225715Y-64570000D01*
X128111429Y-64512857D01*
X127882858Y-64512857D01*
X127768572Y-64570000D01*
X127711429Y-64684286D01*
X127711429Y-64798571D01*
X128282858Y-64912857D01*
X127197144Y-65312857D02*
X127197144Y-64512857D01*
X127197144Y-64741429D02*
X127140001Y-64627143D01*
X127082858Y-64570000D01*
X126968572Y-64512857D01*
X126854287Y-64512857D01*
X126511430Y-65255714D02*
X126397144Y-65312857D01*
X126168572Y-65312857D01*
X126054287Y-65255714D01*
X125997144Y-65141429D01*
X125997144Y-65084286D01*
X126054287Y-64970000D01*
X126168572Y-64912857D01*
X126340001Y-64912857D01*
X126454287Y-64855714D01*
X126511430Y-64741429D01*
X126511430Y-64684286D01*
X126454287Y-64570000D01*
X126340001Y-64512857D01*
X126168572Y-64512857D01*
X126054287Y-64570000D01*
X125482858Y-65312857D02*
X125482858Y-64512857D01*
X125482858Y-64112857D02*
X125540001Y-64170000D01*
X125482858Y-64227143D01*
X125425715Y-64170000D01*
X125482858Y-64112857D01*
X125482858Y-64227143D01*
X124740000Y-65312857D02*
X124854286Y-65255714D01*
X124911429Y-65198571D01*
X124968572Y-65084286D01*
X124968572Y-64741429D01*
X124911429Y-64627143D01*
X124854286Y-64570000D01*
X124740000Y-64512857D01*
X124568572Y-64512857D01*
X124454286Y-64570000D01*
X124397143Y-64627143D01*
X124340000Y-64741429D01*
X124340000Y-65084286D01*
X124397143Y-65198571D01*
X124454286Y-65255714D01*
X124568572Y-65312857D01*
X124740000Y-65312857D01*
X123825715Y-64512857D02*
X123825715Y-65312857D01*
X123825715Y-64627143D02*
X123768572Y-64570000D01*
X123654286Y-64512857D01*
X123482858Y-64512857D01*
X123368572Y-64570000D01*
X123311429Y-64684286D01*
X123311429Y-65312857D01*
X121197143Y-65312857D02*
X121882858Y-65312857D01*
X121540000Y-65312857D02*
X121540000Y-64112857D01*
X121654286Y-64284286D01*
X121768572Y-64398571D01*
X121882858Y-64455714D01*
X120682858Y-65198571D02*
X120625715Y-65255714D01*
X120682858Y-65312857D01*
X120740001Y-65255714D01*
X120682858Y-65198571D01*
X120682858Y-65312857D01*
X119597143Y-64512857D02*
X119597143Y-65312857D01*
X119882857Y-64055714D02*
X120168572Y-64912857D01*
X119425714Y-64912857D01*
X118054286Y-64855714D02*
X117140000Y-64855714D01*
X115425714Y-64112857D02*
X115311429Y-64112857D01*
X115197143Y-64170000D01*
X115140000Y-64227143D01*
X115082857Y-64341429D01*
X115025714Y-64570000D01*
X115025714Y-64855714D01*
X115082857Y-65084286D01*
X115140000Y-65198571D01*
X115197143Y-65255714D01*
X115311429Y-65312857D01*
X115425714Y-65312857D01*
X115540000Y-65255714D01*
X115597143Y-65198571D01*
X115654286Y-65084286D01*
X115711429Y-64855714D01*
X115711429Y-64570000D01*
X115654286Y-64341429D01*
X115597143Y-64227143D01*
X115540000Y-64170000D01*
X115425714Y-64112857D01*
X114340000Y-64627143D02*
X114454286Y-64570000D01*
X114511429Y-64512857D01*
X114568572Y-64398571D01*
X114568572Y-64341429D01*
X114511429Y-64227143D01*
X114454286Y-64170000D01*
X114340000Y-64112857D01*
X114111429Y-64112857D01*
X113997143Y-64170000D01*
X113940000Y-64227143D01*
X113882857Y-64341429D01*
X113882857Y-64398571D01*
X113940000Y-64512857D01*
X113997143Y-64570000D01*
X114111429Y-64627143D01*
X114340000Y-64627143D01*
X114454286Y-64684286D01*
X114511429Y-64741429D01*
X114568572Y-64855714D01*
X114568572Y-65084286D01*
X114511429Y-65198571D01*
X114454286Y-65255714D01*
X114340000Y-65312857D01*
X114111429Y-65312857D01*
X113997143Y-65255714D01*
X113940000Y-65198571D01*
X113882857Y-65084286D01*
X113882857Y-64855714D01*
X113940000Y-64741429D01*
X113997143Y-64684286D01*
X114111429Y-64627143D01*
X112511429Y-64055714D02*
X113540000Y-65598571D01*
X112168572Y-64227143D02*
X112111429Y-64170000D01*
X111997143Y-64112857D01*
X111711429Y-64112857D01*
X111597143Y-64170000D01*
X111540000Y-64227143D01*
X111482857Y-64341429D01*
X111482857Y-64455714D01*
X111540000Y-64627143D01*
X112225714Y-65312857D01*
X111482857Y-65312857D01*
X110740000Y-64112857D02*
X110625715Y-64112857D01*
X110511429Y-64170000D01*
X110454286Y-64227143D01*
X110397143Y-64341429D01*
X110340000Y-64570000D01*
X110340000Y-64855714D01*
X110397143Y-65084286D01*
X110454286Y-65198571D01*
X110511429Y-65255714D01*
X110625715Y-65312857D01*
X110740000Y-65312857D01*
X110854286Y-65255714D01*
X110911429Y-65198571D01*
X110968572Y-65084286D01*
X111025715Y-64855714D01*
X111025715Y-64570000D01*
X110968572Y-64341429D01*
X110911429Y-64227143D01*
X110854286Y-64170000D01*
X110740000Y-64112857D01*
X109197143Y-65312857D02*
X109882858Y-65312857D01*
X109540000Y-65312857D02*
X109540000Y-64112857D01*
X109654286Y-64284286D01*
X109768572Y-64398571D01*
X109882858Y-64455714D01*
X108511429Y-64627143D02*
X108625715Y-64570000D01*
X108682858Y-64512857D01*
X108740001Y-64398571D01*
X108740001Y-64341429D01*
X108682858Y-64227143D01*
X108625715Y-64170000D01*
X108511429Y-64112857D01*
X108282858Y-64112857D01*
X108168572Y-64170000D01*
X108111429Y-64227143D01*
X108054286Y-64341429D01*
X108054286Y-64398571D01*
X108111429Y-64512857D01*
X108168572Y-64570000D01*
X108282858Y-64627143D01*
X108511429Y-64627143D01*
X108625715Y-64684286D01*
X108682858Y-64741429D01*
X108740001Y-64855714D01*
X108740001Y-65084286D01*
X108682858Y-65198571D01*
X108625715Y-65255714D01*
X108511429Y-65312857D01*
X108282858Y-65312857D01*
X108168572Y-65255714D01*
X108111429Y-65198571D01*
X108054286Y-65084286D01*
X108054286Y-64855714D01*
X108111429Y-64741429D01*
X108168572Y-64684286D01*
X108282858Y-64627143D01*
D12*
X129182857Y-63543571D02*
X129182857Y-62043571D01*
X129182857Y-62757857D02*
X128325714Y-62757857D01*
X128325714Y-63543571D02*
X128325714Y-62043571D01*
X127111428Y-62757857D02*
X126897142Y-62829286D01*
X126825714Y-62900714D01*
X126754285Y-63043571D01*
X126754285Y-63257857D01*
X126825714Y-63400714D01*
X126897142Y-63472143D01*
X127040000Y-63543571D01*
X127611428Y-63543571D01*
X127611428Y-62043571D01*
X127111428Y-62043571D01*
X126968571Y-62115000D01*
X126897142Y-62186429D01*
X126825714Y-62329286D01*
X126825714Y-62472143D01*
X126897142Y-62615000D01*
X126968571Y-62686429D01*
X127111428Y-62757857D01*
X127611428Y-62757857D01*
X126111428Y-62972143D02*
X124968571Y-62972143D01*
X124254285Y-62043571D02*
X124254285Y-63257857D01*
X124182857Y-63400714D01*
X124111428Y-63472143D01*
X123968571Y-63543571D01*
X123682857Y-63543571D01*
X123539999Y-63472143D01*
X123468571Y-63400714D01*
X123397142Y-63257857D01*
X123397142Y-62043571D01*
X122682856Y-63543571D02*
X122682856Y-62043571D01*
X121825713Y-63543571D01*
X121825713Y-62043571D01*
X121111427Y-63543571D02*
X121111427Y-62043571D01*
X120397141Y-62972143D02*
X119254284Y-62972143D01*
X118611427Y-63472143D02*
X118397141Y-63543571D01*
X118039998Y-63543571D01*
X117897141Y-63472143D01*
X117825712Y-63400714D01*
X117754284Y-63257857D01*
X117754284Y-63115000D01*
X117825712Y-62972143D01*
X117897141Y-62900714D01*
X118039998Y-62829286D01*
X118325712Y-62757857D01*
X118468570Y-62686429D01*
X118539998Y-62615000D01*
X118611427Y-62472143D01*
X118611427Y-62329286D01*
X118539998Y-62186429D01*
X118468570Y-62115000D01*
X118325712Y-62043571D01*
X117968570Y-62043571D01*
X117754284Y-62115000D01*
X117111427Y-62757857D02*
X116611427Y-62757857D01*
X116397141Y-63543571D02*
X117111427Y-63543571D01*
X117111427Y-62043571D01*
X116397141Y-62043571D01*
X115754284Y-63543571D02*
X115754284Y-62043571D01*
X114897141Y-63543571D01*
X114897141Y-62043571D01*
X114254284Y-63472143D02*
X114039998Y-63543571D01*
X113682855Y-63543571D01*
X113539998Y-63472143D01*
X113468569Y-63400714D01*
X113397141Y-63257857D01*
X113397141Y-63115000D01*
X113468569Y-62972143D01*
X113539998Y-62900714D01*
X113682855Y-62829286D01*
X113968569Y-62757857D01*
X114111427Y-62686429D01*
X114182855Y-62615000D01*
X114254284Y-62472143D01*
X114254284Y-62329286D01*
X114182855Y-62186429D01*
X114111427Y-62115000D01*
X113968569Y-62043571D01*
X113611427Y-62043571D01*
X113397141Y-62115000D01*
X112754284Y-62972143D02*
X111611427Y-62972143D01*
X110897141Y-63543571D02*
X110897141Y-62043571D01*
X110325713Y-62043571D01*
X110182855Y-62115000D01*
X110111427Y-62186429D01*
X110039998Y-62329286D01*
X110039998Y-62543571D01*
X110111427Y-62686429D01*
X110182855Y-62757857D01*
X110325713Y-62829286D01*
X110897141Y-62829286D01*
X108539998Y-63400714D02*
X108611427Y-63472143D01*
X108825713Y-63543571D01*
X108968570Y-63543571D01*
X109182855Y-63472143D01*
X109325713Y-63329286D01*
X109397141Y-63186429D01*
X109468570Y-62900714D01*
X109468570Y-62686429D01*
X109397141Y-62400714D01*
X109325713Y-62257857D01*
X109182855Y-62115000D01*
X108968570Y-62043571D01*
X108825713Y-62043571D01*
X108611427Y-62115000D01*
X108539998Y-62186429D01*
X107397141Y-62757857D02*
X107182855Y-62829286D01*
X107111427Y-62900714D01*
X107039998Y-63043571D01*
X107039998Y-63257857D01*
X107111427Y-63400714D01*
X107182855Y-63472143D01*
X107325713Y-63543571D01*
X107897141Y-63543571D01*
X107897141Y-62043571D01*
X107397141Y-62043571D01*
X107254284Y-62115000D01*
X107182855Y-62186429D01*
X107111427Y-62329286D01*
X107111427Y-62472143D01*
X107182855Y-62615000D01*
X107254284Y-62686429D01*
X107397141Y-62757857D01*
X107897141Y-62757857D01*
D13*
X100965000Y-58420000D02*
G75*
G03X100965000Y-58420000I-635000J0D01*
G01*
X100965000Y-60960000D02*
G75*
G03X100965000Y-60960000I-635000J0D01*
G01*
X100965000Y-63500000D02*
G75*
G03X100965000Y-63500000I-635000J0D01*
G01*
X100965000Y-66040000D02*
G75*
G03X100965000Y-66040000I-635000J0D01*
G01*
X100965000Y-68580000D02*
G75*
G03X100965000Y-68580000I-635000J0D01*
G01*
X100965000Y-71120000D02*
G75*
G03X100965000Y-71120000I-635000J0D01*
G01*
D14*
G36*
X141365688Y-61724548D02*
X141324538Y-61526275D01*
X141312777Y-61487053D01*
X141223512Y-61263400D01*
X141104256Y-61054651D01*
X140958324Y-60864534D01*
X140789031Y-60696776D01*
X140599692Y-60555104D01*
X140393624Y-60443245D01*
X140378206Y-60436431D01*
X140158242Y-60359110D01*
X139928325Y-60312539D01*
X139693644Y-60296301D01*
X139459389Y-60309982D01*
X139230749Y-60353168D01*
X139012914Y-60425442D01*
X138811073Y-60526390D01*
X138747500Y-60566842D01*
X138559501Y-60714518D01*
X138394952Y-60886038D01*
X138255484Y-61077485D01*
X138142727Y-61284941D01*
X138058313Y-61504492D01*
X138003872Y-61732219D01*
X137981037Y-61964207D01*
X137991437Y-62196539D01*
X138013316Y-62329786D01*
X138082686Y-62576183D01*
X138183029Y-62803750D01*
X138313929Y-63011853D01*
X138474970Y-63199853D01*
X138665736Y-63367113D01*
X138714053Y-63402783D01*
X138915493Y-63524938D01*
X139132552Y-63616444D01*
X139360617Y-63676776D01*
X139595077Y-63705409D01*
X139711407Y-63703641D01*
X139711407Y-63397572D01*
X139503462Y-63385738D01*
X139298201Y-63341092D01*
X139098871Y-63263416D01*
X138908720Y-63152496D01*
X138831090Y-63094925D01*
X138674391Y-62948303D01*
X138539558Y-62776635D01*
X138430972Y-62586670D01*
X138353019Y-62385160D01*
X138340133Y-62338857D01*
X138314028Y-62194230D01*
X138303299Y-62031996D01*
X138307936Y-61866947D01*
X138327927Y-61713876D01*
X138340671Y-61657581D01*
X138392542Y-61504449D01*
X138467164Y-61345059D01*
X138557235Y-61193485D01*
X138638403Y-61083807D01*
X138788736Y-60930184D01*
X138959302Y-60804824D01*
X139146389Y-60708725D01*
X139346284Y-60642890D01*
X139555274Y-60608317D01*
X139769647Y-60606008D01*
X139985689Y-60636961D01*
X140138252Y-60679746D01*
X140312176Y-60752973D01*
X140472571Y-60851239D01*
X140626713Y-60979267D01*
X140679714Y-61031151D01*
X140823003Y-61199396D01*
X140933195Y-61380355D01*
X141011404Y-61576537D01*
X141058743Y-61790449D01*
X141071946Y-61915447D01*
X141069882Y-62138940D01*
X141033056Y-62354153D01*
X140962450Y-62558454D01*
X140859049Y-62749208D01*
X140723834Y-62923782D01*
X140677712Y-62972106D01*
X140505066Y-63121097D01*
X140318865Y-63238355D01*
X140122356Y-63323664D01*
X139918788Y-63376809D01*
X139711407Y-63397572D01*
X139711407Y-63703641D01*
X139831323Y-63701817D01*
X140064741Y-63665476D01*
X140290721Y-63595859D01*
X140316857Y-63585352D01*
X140537412Y-63475716D01*
X140739041Y-63337852D01*
X140918727Y-63174913D01*
X141073451Y-62990054D01*
X141200196Y-62786427D01*
X141295945Y-62567187D01*
X141298686Y-62559305D01*
X141349898Y-62365616D01*
X141378229Y-62154843D01*
X141383539Y-61937613D01*
X141365688Y-61724548D01*
X141365688Y-61724548D01*
G37*
X141365688Y-61724548D02*
X141324538Y-61526275D01*
X141312777Y-61487053D01*
X141223512Y-61263400D01*
X141104256Y-61054651D01*
X140958324Y-60864534D01*
X140789031Y-60696776D01*
X140599692Y-60555104D01*
X140393624Y-60443245D01*
X140378206Y-60436431D01*
X140158242Y-60359110D01*
X139928325Y-60312539D01*
X139693644Y-60296301D01*
X139459389Y-60309982D01*
X139230749Y-60353168D01*
X139012914Y-60425442D01*
X138811073Y-60526390D01*
X138747500Y-60566842D01*
X138559501Y-60714518D01*
X138394952Y-60886038D01*
X138255484Y-61077485D01*
X138142727Y-61284941D01*
X138058313Y-61504492D01*
X138003872Y-61732219D01*
X137981037Y-61964207D01*
X137991437Y-62196539D01*
X138013316Y-62329786D01*
X138082686Y-62576183D01*
X138183029Y-62803750D01*
X138313929Y-63011853D01*
X138474970Y-63199853D01*
X138665736Y-63367113D01*
X138714053Y-63402783D01*
X138915493Y-63524938D01*
X139132552Y-63616444D01*
X139360617Y-63676776D01*
X139595077Y-63705409D01*
X139711407Y-63703641D01*
X139711407Y-63397572D01*
X139503462Y-63385738D01*
X139298201Y-63341092D01*
X139098871Y-63263416D01*
X138908720Y-63152496D01*
X138831090Y-63094925D01*
X138674391Y-62948303D01*
X138539558Y-62776635D01*
X138430972Y-62586670D01*
X138353019Y-62385160D01*
X138340133Y-62338857D01*
X138314028Y-62194230D01*
X138303299Y-62031996D01*
X138307936Y-61866947D01*
X138327927Y-61713876D01*
X138340671Y-61657581D01*
X138392542Y-61504449D01*
X138467164Y-61345059D01*
X138557235Y-61193485D01*
X138638403Y-61083807D01*
X138788736Y-60930184D01*
X138959302Y-60804824D01*
X139146389Y-60708725D01*
X139346284Y-60642890D01*
X139555274Y-60608317D01*
X139769647Y-60606008D01*
X139985689Y-60636961D01*
X140138252Y-60679746D01*
X140312176Y-60752973D01*
X140472571Y-60851239D01*
X140626713Y-60979267D01*
X140679714Y-61031151D01*
X140823003Y-61199396D01*
X140933195Y-61380355D01*
X141011404Y-61576537D01*
X141058743Y-61790449D01*
X141071946Y-61915447D01*
X141069882Y-62138940D01*
X141033056Y-62354153D01*
X140962450Y-62558454D01*
X140859049Y-62749208D01*
X140723834Y-62923782D01*
X140677712Y-62972106D01*
X140505066Y-63121097D01*
X140318865Y-63238355D01*
X140122356Y-63323664D01*
X139918788Y-63376809D01*
X139711407Y-63397572D01*
X139711407Y-63703641D01*
X139831323Y-63701817D01*
X140064741Y-63665476D01*
X140290721Y-63595859D01*
X140316857Y-63585352D01*
X140537412Y-63475716D01*
X140739041Y-63337852D01*
X140918727Y-63174913D01*
X141073451Y-62990054D01*
X141200196Y-62786427D01*
X141295945Y-62567187D01*
X141298686Y-62559305D01*
X141349898Y-62365616D01*
X141378229Y-62154843D01*
X141383539Y-61937613D01*
X141365688Y-61724548D01*
G36*
X141376260Y-58151143D02*
X141337746Y-57918079D01*
X141268814Y-57694769D01*
X141178224Y-57501833D01*
X141042441Y-57294738D01*
X140881093Y-57111370D01*
X140697087Y-56953970D01*
X140493329Y-56824774D01*
X140272727Y-56726024D01*
X140104610Y-56674912D01*
X139964319Y-56649681D01*
X139802480Y-56635853D01*
X139631790Y-56633435D01*
X139464943Y-56642432D01*
X139314638Y-56662849D01*
X139260775Y-56674515D01*
X139037480Y-56745871D01*
X138833700Y-56845740D01*
X138645295Y-56976523D01*
X138482400Y-57125780D01*
X138315694Y-57321204D01*
X138182074Y-57530784D01*
X138080458Y-57756457D01*
X138020783Y-57952722D01*
X138002798Y-58053577D01*
X137990765Y-58177780D01*
X137985003Y-58312834D01*
X137985830Y-58446241D01*
X137993564Y-58565505D01*
X138003412Y-58634685D01*
X138062672Y-58866131D01*
X138148934Y-59077754D01*
X138264751Y-59274209D01*
X138412679Y-59460147D01*
X138514236Y-59565044D01*
X138698494Y-59723286D01*
X138891078Y-59847870D01*
X139096259Y-59941197D01*
X139283711Y-59997731D01*
X139393273Y-60016917D01*
X139526119Y-60029317D01*
X139670325Y-60034754D01*
X139677393Y-60034671D01*
X139677393Y-59726167D01*
X139521345Y-59719215D01*
X139380571Y-59698128D01*
X139355587Y-59692241D01*
X139151107Y-59622204D01*
X138958270Y-59519823D01*
X138782233Y-59388454D01*
X138628154Y-59231456D01*
X138605934Y-59204246D01*
X138522202Y-59092706D01*
X138458836Y-58991587D01*
X138408558Y-58887813D01*
X138365301Y-58771932D01*
X138315027Y-58567990D01*
X138295880Y-58353685D01*
X138308145Y-58137769D01*
X138339249Y-57975643D01*
X138405204Y-57786461D01*
X138502344Y-57604039D01*
X138625829Y-57434259D01*
X138770816Y-57283003D01*
X138932464Y-57156153D01*
X139085597Y-57068937D01*
X139210046Y-57015362D01*
X139325441Y-56978582D01*
X139443930Y-56956035D01*
X139577658Y-56945159D01*
X139681857Y-56943125D01*
X139826899Y-56946493D01*
X139948906Y-56959246D01*
X140060547Y-56984301D01*
X140174491Y-57024572D01*
X140303408Y-57082975D01*
X140315647Y-57088960D01*
X140393833Y-57129333D01*
X140458067Y-57168441D01*
X140517893Y-57213448D01*
X140582857Y-57271517D01*
X140660361Y-57347654D01*
X140750032Y-57441642D01*
X140818049Y-57522690D01*
X140871551Y-57599943D01*
X140909794Y-57667250D01*
X140998860Y-57875218D01*
X141054014Y-58091631D01*
X141074956Y-58312434D01*
X141061389Y-58533577D01*
X141013013Y-58751007D01*
X140994018Y-58808345D01*
X140910550Y-58991559D01*
X140796050Y-59164753D01*
X140655386Y-59323183D01*
X140493426Y-59462102D01*
X140315039Y-59576764D01*
X140125093Y-59662424D01*
X140113789Y-59666415D01*
X139985953Y-59699347D01*
X139836375Y-59719404D01*
X139677393Y-59726167D01*
X139677393Y-60034671D01*
X139813967Y-60033052D01*
X139945120Y-60024036D01*
X140045158Y-60008989D01*
X140271279Y-59942876D01*
X140486611Y-59844181D01*
X140687354Y-59715928D01*
X140869705Y-59561142D01*
X141029863Y-59382847D01*
X141164024Y-59184069D01*
X141223035Y-59071978D01*
X141307745Y-58854379D01*
X141361415Y-58624742D01*
X141384202Y-58388514D01*
X141376260Y-58151143D01*
X141376260Y-58151143D01*
G37*
X141376260Y-58151143D02*
X141337746Y-57918079D01*
X141268814Y-57694769D01*
X141178224Y-57501833D01*
X141042441Y-57294738D01*
X140881093Y-57111370D01*
X140697087Y-56953970D01*
X140493329Y-56824774D01*
X140272727Y-56726024D01*
X140104610Y-56674912D01*
X139964319Y-56649681D01*
X139802480Y-56635853D01*
X139631790Y-56633435D01*
X139464943Y-56642432D01*
X139314638Y-56662849D01*
X139260775Y-56674515D01*
X139037480Y-56745871D01*
X138833700Y-56845740D01*
X138645295Y-56976523D01*
X138482400Y-57125780D01*
X138315694Y-57321204D01*
X138182074Y-57530784D01*
X138080458Y-57756457D01*
X138020783Y-57952722D01*
X138002798Y-58053577D01*
X137990765Y-58177780D01*
X137985003Y-58312834D01*
X137985830Y-58446241D01*
X137993564Y-58565505D01*
X138003412Y-58634685D01*
X138062672Y-58866131D01*
X138148934Y-59077754D01*
X138264751Y-59274209D01*
X138412679Y-59460147D01*
X138514236Y-59565044D01*
X138698494Y-59723286D01*
X138891078Y-59847870D01*
X139096259Y-59941197D01*
X139283711Y-59997731D01*
X139393273Y-60016917D01*
X139526119Y-60029317D01*
X139670325Y-60034754D01*
X139677393Y-60034671D01*
X139677393Y-59726167D01*
X139521345Y-59719215D01*
X139380571Y-59698128D01*
X139355587Y-59692241D01*
X139151107Y-59622204D01*
X138958270Y-59519823D01*
X138782233Y-59388454D01*
X138628154Y-59231456D01*
X138605934Y-59204246D01*
X138522202Y-59092706D01*
X138458836Y-58991587D01*
X138408558Y-58887813D01*
X138365301Y-58771932D01*
X138315027Y-58567990D01*
X138295880Y-58353685D01*
X138308145Y-58137769D01*
X138339249Y-57975643D01*
X138405204Y-57786461D01*
X138502344Y-57604039D01*
X138625829Y-57434259D01*
X138770816Y-57283003D01*
X138932464Y-57156153D01*
X139085597Y-57068937D01*
X139210046Y-57015362D01*
X139325441Y-56978582D01*
X139443930Y-56956035D01*
X139577658Y-56945159D01*
X139681857Y-56943125D01*
X139826899Y-56946493D01*
X139948906Y-56959246D01*
X140060547Y-56984301D01*
X140174491Y-57024572D01*
X140303408Y-57082975D01*
X140315647Y-57088960D01*
X140393833Y-57129333D01*
X140458067Y-57168441D01*
X140517893Y-57213448D01*
X140582857Y-57271517D01*
X140660361Y-57347654D01*
X140750032Y-57441642D01*
X140818049Y-57522690D01*
X140871551Y-57599943D01*
X140909794Y-57667250D01*
X140998860Y-57875218D01*
X141054014Y-58091631D01*
X141074956Y-58312434D01*
X141061389Y-58533577D01*
X141013013Y-58751007D01*
X140994018Y-58808345D01*
X140910550Y-58991559D01*
X140796050Y-59164753D01*
X140655386Y-59323183D01*
X140493426Y-59462102D01*
X140315039Y-59576764D01*
X140125093Y-59662424D01*
X140113789Y-59666415D01*
X139985953Y-59699347D01*
X139836375Y-59719404D01*
X139677393Y-59726167D01*
X139677393Y-60034671D01*
X139813967Y-60033052D01*
X139945120Y-60024036D01*
X140045158Y-60008989D01*
X140271279Y-59942876D01*
X140486611Y-59844181D01*
X140687354Y-59715928D01*
X140869705Y-59561142D01*
X141029863Y-59382847D01*
X141164024Y-59184069D01*
X141223035Y-59071978D01*
X141307745Y-58854379D01*
X141361415Y-58624742D01*
X141384202Y-58388514D01*
X141376260Y-58151143D01*
G36*
X141377952Y-54510503D02*
X141340843Y-54275036D01*
X141273957Y-54048759D01*
X141177988Y-53837162D01*
X141116245Y-53733874D01*
X140965197Y-53534901D01*
X140790769Y-53362523D01*
X140595326Y-53218435D01*
X140381233Y-53104330D01*
X140150855Y-53021903D01*
X140105983Y-53010098D01*
X139962819Y-52984172D01*
X139798346Y-52970149D01*
X139625358Y-52968034D01*
X139456650Y-52977830D01*
X139305016Y-52999545D01*
X139259104Y-53009772D01*
X139038986Y-53079977D01*
X138838850Y-53177282D01*
X138653698Y-53304616D01*
X138478532Y-53464904D01*
X138474048Y-53469556D01*
X138328851Y-53635822D01*
X138213749Y-53803135D01*
X138123351Y-53980117D01*
X138073124Y-54110724D01*
X138012474Y-54339989D01*
X137982744Y-54577059D01*
X137984621Y-54813262D01*
X138005000Y-54972857D01*
X138063619Y-55198169D01*
X138154450Y-55414193D01*
X138274226Y-55617176D01*
X138419679Y-55803369D01*
X138587542Y-55969020D01*
X138774547Y-56110378D01*
X138977426Y-56223692D01*
X139155714Y-56293817D01*
X139270890Y-56327542D01*
X139376670Y-56350240D01*
X139484195Y-56363227D01*
X139604610Y-56367817D01*
X139687347Y-56366391D01*
X139687347Y-56061114D01*
X139510972Y-56052568D01*
X139354589Y-56025672D01*
X139205357Y-55977522D01*
X139092214Y-55926621D01*
X138893895Y-55809253D01*
X138722255Y-55667369D01*
X138576601Y-55500274D01*
X138456239Y-55307274D01*
X138437346Y-55270015D01*
X138386081Y-55158396D01*
X138349556Y-55058375D01*
X138325810Y-54959907D01*
X138312885Y-54852948D01*
X138308818Y-54727452D01*
X138310299Y-54619072D01*
X138314538Y-54503217D01*
X138321127Y-54414579D01*
X138331206Y-54344111D01*
X138345913Y-54282764D01*
X138357103Y-54247535D01*
X138421957Y-54082548D01*
X138498399Y-53939386D01*
X138593738Y-53806326D01*
X138715283Y-53671648D01*
X138717895Y-53668995D01*
X138799332Y-53590663D01*
X138873332Y-53527539D01*
X138935785Y-53482568D01*
X138982579Y-53458693D01*
X139009604Y-53458858D01*
X139010381Y-53459569D01*
X139022268Y-53480290D01*
X139045456Y-53527543D01*
X139076988Y-53594718D01*
X139113903Y-53675208D01*
X139153242Y-53762405D01*
X139192045Y-53849700D01*
X139227354Y-53930484D01*
X139256208Y-53998151D01*
X139275648Y-54046091D01*
X139282714Y-54067653D01*
X139267469Y-54081537D01*
X139230274Y-54098542D01*
X139225365Y-54100300D01*
X139126762Y-54153131D01*
X139041383Y-54235592D01*
X138973825Y-54342069D01*
X138930225Y-54460792D01*
X138908306Y-54546500D01*
X138782546Y-54548624D01*
X138656786Y-54550747D01*
X138656786Y-54746072D01*
X138915340Y-54756642D01*
X138927411Y-54863334D01*
X138948560Y-54958325D01*
X138988186Y-55063090D01*
X139039317Y-55161539D01*
X139084403Y-55225634D01*
X139121539Y-55269769D01*
X139242159Y-55149149D01*
X139362778Y-55028529D01*
X139323633Y-54986860D01*
X139273180Y-54915156D01*
X139235738Y-54826567D01*
X139212921Y-54730703D01*
X139206343Y-54637174D01*
X139217618Y-54555592D01*
X139242371Y-54502917D01*
X139270939Y-54473228D01*
X139307233Y-54459294D01*
X139365263Y-54455786D01*
X139366280Y-54455786D01*
X139420870Y-54457891D01*
X139452487Y-54468860D01*
X139474395Y-54495677D01*
X139486898Y-54519286D01*
X139511354Y-54570145D01*
X139546095Y-54645455D01*
X139589346Y-54741127D01*
X139639330Y-54853074D01*
X139694272Y-54977207D01*
X139752397Y-55109440D01*
X139811929Y-55245685D01*
X139871093Y-55381855D01*
X139928113Y-55513860D01*
X139981213Y-55637615D01*
X140028618Y-55749031D01*
X140068552Y-55844020D01*
X140099240Y-55918495D01*
X140118906Y-55968369D01*
X140125775Y-55989554D01*
X140125700Y-55989921D01*
X140099671Y-56005406D01*
X140045314Y-56021154D01*
X139970558Y-56035877D01*
X139883325Y-56048288D01*
X139791544Y-56057101D01*
X139703139Y-56061026D01*
X139687347Y-56061114D01*
X139687347Y-56366391D01*
X139749056Y-56365327D01*
X139758632Y-56364984D01*
X139988086Y-56344955D01*
X140194986Y-56301013D01*
X140386021Y-56230731D01*
X140454798Y-56193271D01*
X140454798Y-55825370D01*
X140438069Y-55809834D01*
X140413385Y-55769278D01*
X140386068Y-55712456D01*
X140385861Y-55711978D01*
X140358202Y-55648509D01*
X140321009Y-55563871D01*
X140279548Y-55470024D01*
X140246080Y-55394626D01*
X140155224Y-55190466D01*
X140227213Y-55153740D01*
X140315262Y-55088521D01*
X140385016Y-54992212D01*
X140436222Y-54865204D01*
X140451645Y-54805036D01*
X140459245Y-54778921D01*
X140473300Y-54764003D01*
X140502453Y-54757150D01*
X140555343Y-54755231D01*
X140589346Y-54755143D01*
X140716000Y-54755143D01*
X140716000Y-54555572D01*
X140463644Y-54555572D01*
X140452492Y-54487536D01*
X140433338Y-54404886D01*
X140403976Y-54316556D01*
X140369466Y-54235686D01*
X140334867Y-54175416D01*
X140329703Y-54168615D01*
X140289643Y-54118617D01*
X140073537Y-54337379D01*
X140115283Y-54423304D01*
X140149818Y-54515987D01*
X140165989Y-54608525D01*
X140164512Y-54694078D01*
X140146104Y-54765805D01*
X140111481Y-54816866D01*
X140071796Y-54838440D01*
X140030936Y-54842080D01*
X140008027Y-54834550D01*
X139997221Y-54814780D01*
X139973733Y-54765925D01*
X139939390Y-54692097D01*
X139896024Y-54597404D01*
X139845462Y-54485954D01*
X139789536Y-54361858D01*
X139730073Y-54229225D01*
X139668904Y-54092163D01*
X139607858Y-53954782D01*
X139548764Y-53821191D01*
X139493453Y-53695499D01*
X139443752Y-53581816D01*
X139401492Y-53484250D01*
X139368502Y-53406911D01*
X139346612Y-53353909D01*
X139337651Y-53329351D01*
X139337531Y-53328508D01*
X139352817Y-53310258D01*
X139387036Y-53297171D01*
X139549265Y-53274989D01*
X139727907Y-53272473D01*
X139909412Y-53288826D01*
X140080230Y-53323247D01*
X140141931Y-53341697D01*
X140314798Y-53416659D01*
X140482210Y-53522428D01*
X140638372Y-53653527D01*
X140777488Y-53804478D01*
X140893762Y-53969805D01*
X140975307Y-54129252D01*
X141041028Y-54331208D01*
X141074100Y-54542457D01*
X141074978Y-54757437D01*
X141044119Y-54970585D01*
X140981978Y-55176339D01*
X140889011Y-55369134D01*
X140871312Y-55398399D01*
X140832024Y-55454043D01*
X140778380Y-55520006D01*
X140715730Y-55590806D01*
X140649424Y-55660956D01*
X140584813Y-55724972D01*
X140527246Y-55777369D01*
X140482075Y-55812662D01*
X140454798Y-55825370D01*
X140454798Y-56193271D01*
X140567877Y-56131681D01*
X140736698Y-56009957D01*
X140897408Y-55863261D01*
X141041616Y-55696717D01*
X141164061Y-55517682D01*
X141259483Y-55333511D01*
X141303681Y-55217154D01*
X141360064Y-54987051D01*
X141384590Y-54749671D01*
X141377952Y-54510503D01*
X141377952Y-54510503D01*
G37*
X141377952Y-54510503D02*
X141340843Y-54275036D01*
X141273957Y-54048759D01*
X141177988Y-53837162D01*
X141116245Y-53733874D01*
X140965197Y-53534901D01*
X140790769Y-53362523D01*
X140595326Y-53218435D01*
X140381233Y-53104330D01*
X140150855Y-53021903D01*
X140105983Y-53010098D01*
X139962819Y-52984172D01*
X139798346Y-52970149D01*
X139625358Y-52968034D01*
X139456650Y-52977830D01*
X139305016Y-52999545D01*
X139259104Y-53009772D01*
X139038986Y-53079977D01*
X138838850Y-53177282D01*
X138653698Y-53304616D01*
X138478532Y-53464904D01*
X138474048Y-53469556D01*
X138328851Y-53635822D01*
X138213749Y-53803135D01*
X138123351Y-53980117D01*
X138073124Y-54110724D01*
X138012474Y-54339989D01*
X137982744Y-54577059D01*
X137984621Y-54813262D01*
X138005000Y-54972857D01*
X138063619Y-55198169D01*
X138154450Y-55414193D01*
X138274226Y-55617176D01*
X138419679Y-55803369D01*
X138587542Y-55969020D01*
X138774547Y-56110378D01*
X138977426Y-56223692D01*
X139155714Y-56293817D01*
X139270890Y-56327542D01*
X139376670Y-56350240D01*
X139484195Y-56363227D01*
X139604610Y-56367817D01*
X139687347Y-56366391D01*
X139687347Y-56061114D01*
X139510972Y-56052568D01*
X139354589Y-56025672D01*
X139205357Y-55977522D01*
X139092214Y-55926621D01*
X138893895Y-55809253D01*
X138722255Y-55667369D01*
X138576601Y-55500274D01*
X138456239Y-55307274D01*
X138437346Y-55270015D01*
X138386081Y-55158396D01*
X138349556Y-55058375D01*
X138325810Y-54959907D01*
X138312885Y-54852948D01*
X138308818Y-54727452D01*
X138310299Y-54619072D01*
X138314538Y-54503217D01*
X138321127Y-54414579D01*
X138331206Y-54344111D01*
X138345913Y-54282764D01*
X138357103Y-54247535D01*
X138421957Y-54082548D01*
X138498399Y-53939386D01*
X138593738Y-53806326D01*
X138715283Y-53671648D01*
X138717895Y-53668995D01*
X138799332Y-53590663D01*
X138873332Y-53527539D01*
X138935785Y-53482568D01*
X138982579Y-53458693D01*
X139009604Y-53458858D01*
X139010381Y-53459569D01*
X139022268Y-53480290D01*
X139045456Y-53527543D01*
X139076988Y-53594718D01*
X139113903Y-53675208D01*
X139153242Y-53762405D01*
X139192045Y-53849700D01*
X139227354Y-53930484D01*
X139256208Y-53998151D01*
X139275648Y-54046091D01*
X139282714Y-54067653D01*
X139267469Y-54081537D01*
X139230274Y-54098542D01*
X139225365Y-54100300D01*
X139126762Y-54153131D01*
X139041383Y-54235592D01*
X138973825Y-54342069D01*
X138930225Y-54460792D01*
X138908306Y-54546500D01*
X138782546Y-54548624D01*
X138656786Y-54550747D01*
X138656786Y-54746072D01*
X138915340Y-54756642D01*
X138927411Y-54863334D01*
X138948560Y-54958325D01*
X138988186Y-55063090D01*
X139039317Y-55161539D01*
X139084403Y-55225634D01*
X139121539Y-55269769D01*
X139242159Y-55149149D01*
X139362778Y-55028529D01*
X139323633Y-54986860D01*
X139273180Y-54915156D01*
X139235738Y-54826567D01*
X139212921Y-54730703D01*
X139206343Y-54637174D01*
X139217618Y-54555592D01*
X139242371Y-54502917D01*
X139270939Y-54473228D01*
X139307233Y-54459294D01*
X139365263Y-54455786D01*
X139366280Y-54455786D01*
X139420870Y-54457891D01*
X139452487Y-54468860D01*
X139474395Y-54495677D01*
X139486898Y-54519286D01*
X139511354Y-54570145D01*
X139546095Y-54645455D01*
X139589346Y-54741127D01*
X139639330Y-54853074D01*
X139694272Y-54977207D01*
X139752397Y-55109440D01*
X139811929Y-55245685D01*
X139871093Y-55381855D01*
X139928113Y-55513860D01*
X139981213Y-55637615D01*
X140028618Y-55749031D01*
X140068552Y-55844020D01*
X140099240Y-55918495D01*
X140118906Y-55968369D01*
X140125775Y-55989554D01*
X140125700Y-55989921D01*
X140099671Y-56005406D01*
X140045314Y-56021154D01*
X139970558Y-56035877D01*
X139883325Y-56048288D01*
X139791544Y-56057101D01*
X139703139Y-56061026D01*
X139687347Y-56061114D01*
X139687347Y-56366391D01*
X139749056Y-56365327D01*
X139758632Y-56364984D01*
X139988086Y-56344955D01*
X140194986Y-56301013D01*
X140386021Y-56230731D01*
X140454798Y-56193271D01*
X140454798Y-55825370D01*
X140438069Y-55809834D01*
X140413385Y-55769278D01*
X140386068Y-55712456D01*
X140385861Y-55711978D01*
X140358202Y-55648509D01*
X140321009Y-55563871D01*
X140279548Y-55470024D01*
X140246080Y-55394626D01*
X140155224Y-55190466D01*
X140227213Y-55153740D01*
X140315262Y-55088521D01*
X140385016Y-54992212D01*
X140436222Y-54865204D01*
X140451645Y-54805036D01*
X140459245Y-54778921D01*
X140473300Y-54764003D01*
X140502453Y-54757150D01*
X140555343Y-54755231D01*
X140589346Y-54755143D01*
X140716000Y-54755143D01*
X140716000Y-54555572D01*
X140463644Y-54555572D01*
X140452492Y-54487536D01*
X140433338Y-54404886D01*
X140403976Y-54316556D01*
X140369466Y-54235686D01*
X140334867Y-54175416D01*
X140329703Y-54168615D01*
X140289643Y-54118617D01*
X140073537Y-54337379D01*
X140115283Y-54423304D01*
X140149818Y-54515987D01*
X140165989Y-54608525D01*
X140164512Y-54694078D01*
X140146104Y-54765805D01*
X140111481Y-54816866D01*
X140071796Y-54838440D01*
X140030936Y-54842080D01*
X140008027Y-54834550D01*
X139997221Y-54814780D01*
X139973733Y-54765925D01*
X139939390Y-54692097D01*
X139896024Y-54597404D01*
X139845462Y-54485954D01*
X139789536Y-54361858D01*
X139730073Y-54229225D01*
X139668904Y-54092163D01*
X139607858Y-53954782D01*
X139548764Y-53821191D01*
X139493453Y-53695499D01*
X139443752Y-53581816D01*
X139401492Y-53484250D01*
X139368502Y-53406911D01*
X139346612Y-53353909D01*
X139337651Y-53329351D01*
X139337531Y-53328508D01*
X139352817Y-53310258D01*
X139387036Y-53297171D01*
X139549265Y-53274989D01*
X139727907Y-53272473D01*
X139909412Y-53288826D01*
X140080230Y-53323247D01*
X140141931Y-53341697D01*
X140314798Y-53416659D01*
X140482210Y-53522428D01*
X140638372Y-53653527D01*
X140777488Y-53804478D01*
X140893762Y-53969805D01*
X140975307Y-54129252D01*
X141041028Y-54331208D01*
X141074100Y-54542457D01*
X141074978Y-54757437D01*
X141044119Y-54970585D01*
X140981978Y-55176339D01*
X140889011Y-55369134D01*
X140871312Y-55398399D01*
X140832024Y-55454043D01*
X140778380Y-55520006D01*
X140715730Y-55590806D01*
X140649424Y-55660956D01*
X140584813Y-55724972D01*
X140527246Y-55777369D01*
X140482075Y-55812662D01*
X140454798Y-55825370D01*
X140454798Y-56193271D01*
X140567877Y-56131681D01*
X140736698Y-56009957D01*
X140897408Y-55863261D01*
X141041616Y-55696717D01*
X141164061Y-55517682D01*
X141259483Y-55333511D01*
X141303681Y-55217154D01*
X141360064Y-54987051D01*
X141384590Y-54749671D01*
X141377952Y-54510503D01*
G36*
X141377935Y-50844158D02*
X141338490Y-50599011D01*
X141301909Y-50464357D01*
X141214938Y-50245738D01*
X141095684Y-50040393D01*
X140946777Y-49851704D01*
X140770844Y-49683055D01*
X140592993Y-49552117D01*
X140391595Y-49443079D01*
X140174874Y-49364231D01*
X139947583Y-49315539D01*
X139714479Y-49296971D01*
X139480318Y-49308492D01*
X139249856Y-49350069D01*
X139027847Y-49421670D01*
X138819049Y-49523260D01*
X138751302Y-49565024D01*
X138570432Y-49703835D01*
X138406691Y-49870614D01*
X138264275Y-50059429D01*
X138147385Y-50264345D01*
X138060218Y-50479427D01*
X138030247Y-50584218D01*
X137999422Y-50751846D01*
X137984276Y-50933223D01*
X137985121Y-51114739D01*
X138002267Y-51282783D01*
X138012988Y-51339660D01*
X138078789Y-51573513D01*
X138170978Y-51785912D01*
X138292356Y-51981819D01*
X138445722Y-52166194D01*
X138523946Y-52244835D01*
X138714322Y-52403265D01*
X138919569Y-52528632D01*
X139139121Y-52620709D01*
X139372411Y-52679270D01*
X139618870Y-52704089D01*
X139677760Y-52705000D01*
X139692047Y-52704165D01*
X139692047Y-52393746D01*
X139553146Y-52390242D01*
X139429329Y-52376280D01*
X139398645Y-52370341D01*
X139195350Y-52308355D01*
X139004645Y-52215087D01*
X138829800Y-52094103D01*
X138674082Y-51948967D01*
X138540759Y-51783245D01*
X138433100Y-51600502D01*
X138354374Y-51404302D01*
X138307847Y-51198211D01*
X138305128Y-51177501D01*
X138296321Y-51019650D01*
X138304781Y-50850222D01*
X138329249Y-50688797D01*
X138339249Y-50645929D01*
X138404601Y-50458122D01*
X138501018Y-50275378D01*
X138623321Y-50104565D01*
X138766335Y-49952551D01*
X138924883Y-49826206D01*
X138986261Y-49787448D01*
X139166341Y-49701438D01*
X139364351Y-49642184D01*
X139572655Y-49610689D01*
X139783619Y-49607957D01*
X139989610Y-49634993D01*
X140045744Y-49648134D01*
X140235577Y-49715107D01*
X140417408Y-49813666D01*
X140585598Y-49939184D01*
X140734507Y-50087040D01*
X140858496Y-50252608D01*
X140923027Y-50367481D01*
X140982756Y-50497715D01*
X141024260Y-50612540D01*
X141050436Y-50724557D01*
X141064183Y-50846368D01*
X141068400Y-50990576D01*
X141068413Y-50999572D01*
X141061192Y-51176205D01*
X141037577Y-51330752D01*
X140994820Y-51474749D01*
X140930173Y-51619731D01*
X140912842Y-51652715D01*
X140796421Y-51832183D01*
X140651294Y-51994951D01*
X140482938Y-52136495D01*
X140296828Y-52252292D01*
X140098441Y-52337820D01*
X140073438Y-52346035D01*
X139964774Y-52371189D01*
X139833449Y-52387244D01*
X139692047Y-52393746D01*
X139692047Y-52704165D01*
X139922432Y-52690698D01*
X140148631Y-52646745D01*
X140360866Y-52571570D01*
X140563645Y-52463604D01*
X140747804Y-52332303D01*
X140928665Y-52165217D01*
X141080734Y-51977942D01*
X141203119Y-51773488D01*
X141294925Y-51554871D01*
X141355259Y-51325101D01*
X141383227Y-51087193D01*
X141377935Y-50844158D01*
X141377935Y-50844158D01*
G37*
X141377935Y-50844158D02*
X141338490Y-50599011D01*
X141301909Y-50464357D01*
X141214938Y-50245738D01*
X141095684Y-50040393D01*
X140946777Y-49851704D01*
X140770844Y-49683055D01*
X140592993Y-49552117D01*
X140391595Y-49443079D01*
X140174874Y-49364231D01*
X139947583Y-49315539D01*
X139714479Y-49296971D01*
X139480318Y-49308492D01*
X139249856Y-49350069D01*
X139027847Y-49421670D01*
X138819049Y-49523260D01*
X138751302Y-49565024D01*
X138570432Y-49703835D01*
X138406691Y-49870614D01*
X138264275Y-50059429D01*
X138147385Y-50264345D01*
X138060218Y-50479427D01*
X138030247Y-50584218D01*
X137999422Y-50751846D01*
X137984276Y-50933223D01*
X137985121Y-51114739D01*
X138002267Y-51282783D01*
X138012988Y-51339660D01*
X138078789Y-51573513D01*
X138170978Y-51785912D01*
X138292356Y-51981819D01*
X138445722Y-52166194D01*
X138523946Y-52244835D01*
X138714322Y-52403265D01*
X138919569Y-52528632D01*
X139139121Y-52620709D01*
X139372411Y-52679270D01*
X139618870Y-52704089D01*
X139677760Y-52705000D01*
X139692047Y-52704165D01*
X139692047Y-52393746D01*
X139553146Y-52390242D01*
X139429329Y-52376280D01*
X139398645Y-52370341D01*
X139195350Y-52308355D01*
X139004645Y-52215087D01*
X138829800Y-52094103D01*
X138674082Y-51948967D01*
X138540759Y-51783245D01*
X138433100Y-51600502D01*
X138354374Y-51404302D01*
X138307847Y-51198211D01*
X138305128Y-51177501D01*
X138296321Y-51019650D01*
X138304781Y-50850222D01*
X138329249Y-50688797D01*
X138339249Y-50645929D01*
X138404601Y-50458122D01*
X138501018Y-50275378D01*
X138623321Y-50104565D01*
X138766335Y-49952551D01*
X138924883Y-49826206D01*
X138986261Y-49787448D01*
X139166341Y-49701438D01*
X139364351Y-49642184D01*
X139572655Y-49610689D01*
X139783619Y-49607957D01*
X139989610Y-49634993D01*
X140045744Y-49648134D01*
X140235577Y-49715107D01*
X140417408Y-49813666D01*
X140585598Y-49939184D01*
X140734507Y-50087040D01*
X140858496Y-50252608D01*
X140923027Y-50367481D01*
X140982756Y-50497715D01*
X141024260Y-50612540D01*
X141050436Y-50724557D01*
X141064183Y-50846368D01*
X141068400Y-50990576D01*
X141068413Y-50999572D01*
X141061192Y-51176205D01*
X141037577Y-51330752D01*
X140994820Y-51474749D01*
X140930173Y-51619731D01*
X140912842Y-51652715D01*
X140796421Y-51832183D01*
X140651294Y-51994951D01*
X140482938Y-52136495D01*
X140296828Y-52252292D01*
X140098441Y-52337820D01*
X140073438Y-52346035D01*
X139964774Y-52371189D01*
X139833449Y-52387244D01*
X139692047Y-52393746D01*
X139692047Y-52704165D01*
X139922432Y-52690698D01*
X140148631Y-52646745D01*
X140360866Y-52571570D01*
X140563645Y-52463604D01*
X140747804Y-52332303D01*
X140928665Y-52165217D01*
X141080734Y-51977942D01*
X141203119Y-51773488D01*
X141294925Y-51554871D01*
X141355259Y-51325101D01*
X141383227Y-51087193D01*
X141377935Y-50844158D01*
G36*
X140200439Y-62358953D02*
X140182839Y-62272446D01*
X140180035Y-62264031D01*
X140155967Y-62215535D01*
X140118203Y-62159831D01*
X140073943Y-62105408D01*
X140030390Y-62060751D01*
X139994746Y-62034348D01*
X139981973Y-62030644D01*
X139964326Y-62045520D01*
X139936276Y-62084301D01*
X139904088Y-62138252D01*
X139845104Y-62245645D01*
X139899097Y-62284091D01*
X139954083Y-62343835D01*
X139980239Y-62419000D01*
X139974820Y-62499781D01*
X139966361Y-62524283D01*
X139928314Y-62587088D01*
X139872277Y-62628801D01*
X139791943Y-62653060D01*
X139729835Y-62660720D01*
X139613833Y-62660108D01*
X139522918Y-62636607D01*
X139453074Y-62589001D01*
X139437522Y-62572111D01*
X139401892Y-62506622D01*
X139390639Y-62431913D01*
X139402462Y-62358584D01*
X139436058Y-62297234D01*
X139475218Y-62265213D01*
X139505328Y-62243724D01*
X139515635Y-62216887D01*
X139505758Y-62177118D01*
X139475314Y-62116833D01*
X139466985Y-62102104D01*
X139415398Y-62011780D01*
X139330155Y-62086814D01*
X139247157Y-62173971D01*
X139194772Y-62266414D01*
X139168043Y-62374562D01*
X139162712Y-62438643D01*
X139161966Y-62511805D01*
X139165335Y-62578044D01*
X139171501Y-62620072D01*
X139218982Y-62733229D01*
X139295314Y-62831183D01*
X139393954Y-62906717D01*
X139459548Y-62937688D01*
X139582074Y-62967380D01*
X139716497Y-62973053D01*
X139847547Y-62954748D01*
X139907195Y-62936555D01*
X139996042Y-62888897D01*
X140078680Y-62818931D01*
X140145362Y-62736605D01*
X140186341Y-62651867D01*
X140186432Y-62651564D01*
X140202506Y-62564851D01*
X140207085Y-62461868D01*
X140200439Y-62358953D01*
X140200439Y-62358953D01*
G37*
X140200439Y-62358953D02*
X140182839Y-62272446D01*
X140180035Y-62264031D01*
X140155967Y-62215535D01*
X140118203Y-62159831D01*
X140073943Y-62105408D01*
X140030390Y-62060751D01*
X139994746Y-62034348D01*
X139981973Y-62030644D01*
X139964326Y-62045520D01*
X139936276Y-62084301D01*
X139904088Y-62138252D01*
X139845104Y-62245645D01*
X139899097Y-62284091D01*
X139954083Y-62343835D01*
X139980239Y-62419000D01*
X139974820Y-62499781D01*
X139966361Y-62524283D01*
X139928314Y-62587088D01*
X139872277Y-62628801D01*
X139791943Y-62653060D01*
X139729835Y-62660720D01*
X139613833Y-62660108D01*
X139522918Y-62636607D01*
X139453074Y-62589001D01*
X139437522Y-62572111D01*
X139401892Y-62506622D01*
X139390639Y-62431913D01*
X139402462Y-62358584D01*
X139436058Y-62297234D01*
X139475218Y-62265213D01*
X139505328Y-62243724D01*
X139515635Y-62216887D01*
X139505758Y-62177118D01*
X139475314Y-62116833D01*
X139466985Y-62102104D01*
X139415398Y-62011780D01*
X139330155Y-62086814D01*
X139247157Y-62173971D01*
X139194772Y-62266414D01*
X139168043Y-62374562D01*
X139162712Y-62438643D01*
X139161966Y-62511805D01*
X139165335Y-62578044D01*
X139171501Y-62620072D01*
X139218982Y-62733229D01*
X139295314Y-62831183D01*
X139393954Y-62906717D01*
X139459548Y-62937688D01*
X139582074Y-62967380D01*
X139716497Y-62973053D01*
X139847547Y-62954748D01*
X139907195Y-62936555D01*
X139996042Y-62888897D01*
X140078680Y-62818931D01*
X140145362Y-62736605D01*
X140186341Y-62651867D01*
X140186432Y-62651564D01*
X140202506Y-62564851D01*
X140207085Y-62461868D01*
X140200439Y-62358953D01*
G36*
X140205796Y-61440138D02*
X140191246Y-61333550D01*
X140163993Y-61241924D01*
X140147651Y-61208669D01*
X140109823Y-61154115D01*
X140065166Y-61103988D01*
X140021093Y-61065081D01*
X139985019Y-61044184D01*
X139968063Y-61044165D01*
X139952659Y-61064131D01*
X139927330Y-61107001D01*
X139901230Y-61156358D01*
X139849271Y-61259357D01*
X139893653Y-61292776D01*
X139932366Y-61332814D01*
X139965727Y-61384336D01*
X139967221Y-61387397D01*
X139984630Y-61462499D01*
X139971287Y-61538094D01*
X139930532Y-61602866D01*
X139895244Y-61631265D01*
X139807439Y-61667204D01*
X139707448Y-61680591D01*
X139606068Y-61672294D01*
X139514098Y-61643182D01*
X139443133Y-61594925D01*
X139411031Y-61556400D01*
X139395719Y-61514968D01*
X139391587Y-61454733D01*
X139391571Y-61448860D01*
X139394436Y-61389027D01*
X139407752Y-61348513D01*
X139438600Y-61310506D01*
X139457618Y-61292066D01*
X139523665Y-61229776D01*
X139481174Y-61139054D01*
X139455104Y-61087190D01*
X139433235Y-61050268D01*
X139423876Y-61039183D01*
X139398211Y-61042781D01*
X139358745Y-61069432D01*
X139312472Y-61112453D01*
X139266384Y-61165161D01*
X139227476Y-61220872D01*
X139219886Y-61234126D01*
X139179822Y-61339046D01*
X139160762Y-61459788D01*
X139163967Y-61581730D01*
X139182507Y-61667572D01*
X139236716Y-61777540D01*
X139321070Y-61868645D01*
X139422751Y-61933378D01*
X139481083Y-61959270D01*
X139534024Y-61974545D01*
X139595197Y-61981834D01*
X139678224Y-61983772D01*
X139683466Y-61983776D01*
X139766199Y-61982255D01*
X139826179Y-61975852D01*
X139876873Y-61961806D01*
X139931753Y-61937354D01*
X139946699Y-61929807D01*
X140050781Y-61859396D01*
X140132217Y-61768868D01*
X140184924Y-61665323D01*
X140191360Y-61644130D01*
X140206286Y-61548170D01*
X140205796Y-61440138D01*
X140205796Y-61440138D01*
G37*
X140205796Y-61440138D02*
X140191246Y-61333550D01*
X140163993Y-61241924D01*
X140147651Y-61208669D01*
X140109823Y-61154115D01*
X140065166Y-61103988D01*
X140021093Y-61065081D01*
X139985019Y-61044184D01*
X139968063Y-61044165D01*
X139952659Y-61064131D01*
X139927330Y-61107001D01*
X139901230Y-61156358D01*
X139849271Y-61259357D01*
X139893653Y-61292776D01*
X139932366Y-61332814D01*
X139965727Y-61384336D01*
X139967221Y-61387397D01*
X139984630Y-61462499D01*
X139971287Y-61538094D01*
X139930532Y-61602866D01*
X139895244Y-61631265D01*
X139807439Y-61667204D01*
X139707448Y-61680591D01*
X139606068Y-61672294D01*
X139514098Y-61643182D01*
X139443133Y-61594925D01*
X139411031Y-61556400D01*
X139395719Y-61514968D01*
X139391587Y-61454733D01*
X139391571Y-61448860D01*
X139394436Y-61389027D01*
X139407752Y-61348513D01*
X139438600Y-61310506D01*
X139457618Y-61292066D01*
X139523665Y-61229776D01*
X139481174Y-61139054D01*
X139455104Y-61087190D01*
X139433235Y-61050268D01*
X139423876Y-61039183D01*
X139398211Y-61042781D01*
X139358745Y-61069432D01*
X139312472Y-61112453D01*
X139266384Y-61165161D01*
X139227476Y-61220872D01*
X139219886Y-61234126D01*
X139179822Y-61339046D01*
X139160762Y-61459788D01*
X139163967Y-61581730D01*
X139182507Y-61667572D01*
X139236716Y-61777540D01*
X139321070Y-61868645D01*
X139422751Y-61933378D01*
X139481083Y-61959270D01*
X139534024Y-61974545D01*
X139595197Y-61981834D01*
X139678224Y-61983772D01*
X139683466Y-61983776D01*
X139766199Y-61982255D01*
X139826179Y-61975852D01*
X139876873Y-61961806D01*
X139931753Y-61937354D01*
X139946699Y-61929807D01*
X140050781Y-61859396D01*
X140132217Y-61768868D01*
X140184924Y-61665323D01*
X140191360Y-61644130D01*
X140206286Y-61548170D01*
X140205796Y-61440138D01*
G36*
X140207665Y-58199775D02*
X140206458Y-58097561D01*
X140204075Y-58022467D01*
X140200211Y-57969911D01*
X140194563Y-57935315D01*
X140186826Y-57914096D01*
X140179490Y-57904225D01*
X140164706Y-57894373D01*
X140139600Y-57887020D01*
X140099396Y-57881826D01*
X140039319Y-57878449D01*
X139954593Y-57876547D01*
X139840441Y-57875780D01*
X139780347Y-57875715D01*
X139409714Y-57875715D01*
X139409714Y-58075286D01*
X138575143Y-58075286D01*
X138575143Y-58601429D01*
X139409714Y-58601429D01*
X139409714Y-58801000D01*
X139778831Y-58801000D01*
X139904694Y-58800741D01*
X139999273Y-58799688D01*
X140067566Y-58797423D01*
X140114571Y-58793533D01*
X140145289Y-58787602D01*
X140164717Y-58779213D01*
X140177856Y-58767952D01*
X140177974Y-58767822D01*
X140187929Y-58752759D01*
X140195451Y-58729354D01*
X140200868Y-58692890D01*
X140204505Y-58638652D01*
X140206688Y-58561921D01*
X140207744Y-58457983D01*
X140208000Y-58333689D01*
X140207665Y-58199775D01*
X140207665Y-58199775D01*
G37*
X140207665Y-58199775D02*
X140206458Y-58097561D01*
X140204075Y-58022467D01*
X140200211Y-57969911D01*
X140194563Y-57935315D01*
X140186826Y-57914096D01*
X140179490Y-57904225D01*
X140164706Y-57894373D01*
X140139600Y-57887020D01*
X140099396Y-57881826D01*
X140039319Y-57878449D01*
X139954593Y-57876547D01*
X139840441Y-57875780D01*
X139780347Y-57875715D01*
X139409714Y-57875715D01*
X139409714Y-58075286D01*
X138575143Y-58075286D01*
X138575143Y-58601429D01*
X139409714Y-58601429D01*
X139409714Y-58801000D01*
X139778831Y-58801000D01*
X139904694Y-58800741D01*
X139999273Y-58799688D01*
X140067566Y-58797423D01*
X140114571Y-58793533D01*
X140145289Y-58787602D01*
X140164717Y-58779213D01*
X140177856Y-58767952D01*
X140177974Y-58767822D01*
X140187929Y-58752759D01*
X140195451Y-58729354D01*
X140200868Y-58692890D01*
X140204505Y-58638652D01*
X140206688Y-58561921D01*
X140207744Y-58457983D01*
X140208000Y-58333689D01*
X140207665Y-58199775D01*
G36*
X140781206Y-58273829D02*
X140751401Y-58196066D01*
X140723028Y-58159833D01*
X140657461Y-58117485D01*
X140576987Y-58098920D01*
X140492509Y-58103425D01*
X140414933Y-58130287D01*
X140355164Y-58178794D01*
X140351061Y-58184155D01*
X140320972Y-58249456D01*
X140307523Y-58331263D01*
X140312956Y-58412774D01*
X140317925Y-58432466D01*
X140350778Y-58498336D01*
X140404563Y-58540596D01*
X140483464Y-58561664D01*
X140547485Y-58565143D01*
X140614308Y-58563325D01*
X140657618Y-58555276D01*
X140690111Y-58537101D01*
X140716061Y-58513444D01*
X140763325Y-58443279D01*
X140785110Y-58359821D01*
X140781206Y-58273829D01*
X140781206Y-58273829D01*
G37*
X140781206Y-58273829D02*
X140751401Y-58196066D01*
X140723028Y-58159833D01*
X140657461Y-58117485D01*
X140576987Y-58098920D01*
X140492509Y-58103425D01*
X140414933Y-58130287D01*
X140355164Y-58178794D01*
X140351061Y-58184155D01*
X140320972Y-58249456D01*
X140307523Y-58331263D01*
X140312956Y-58412774D01*
X140317925Y-58432466D01*
X140350778Y-58498336D01*
X140404563Y-58540596D01*
X140483464Y-58561664D01*
X140547485Y-58565143D01*
X140614308Y-58563325D01*
X140657618Y-58555276D01*
X140690111Y-58537101D01*
X140716061Y-58513444D01*
X140763325Y-58443279D01*
X140785110Y-58359821D01*
X140781206Y-58273829D01*
G36*
X140569092Y-50883337D02*
X140549657Y-50758964D01*
X140535608Y-50706156D01*
X140470394Y-50556637D01*
X140375837Y-50425543D01*
X140255252Y-50315483D01*
X140111952Y-50229063D01*
X139949251Y-50168891D01*
X139819868Y-50143003D01*
X139625343Y-50132367D01*
X139442444Y-50153329D01*
X139274125Y-50205170D01*
X139123342Y-50287173D01*
X139073576Y-50324218D01*
X138947853Y-50447895D01*
X138851560Y-50591019D01*
X138786039Y-50750060D01*
X138752635Y-50921488D01*
X138752693Y-51101772D01*
X138758588Y-51151285D01*
X138798246Y-51304537D01*
X138868836Y-51442840D01*
X138966706Y-51562239D01*
X139088208Y-51658777D01*
X139229692Y-51728496D01*
X139314464Y-51753920D01*
X139409714Y-51776442D01*
X139409714Y-51348594D01*
X139330190Y-51328569D01*
X139253830Y-51293628D01*
X139185382Y-51234733D01*
X139136450Y-51163027D01*
X139124227Y-51130775D01*
X139116676Y-51085393D01*
X139111768Y-51020399D01*
X139110663Y-50970570D01*
X139125055Y-50861939D01*
X139169015Y-50771344D01*
X139244712Y-50695268D01*
X139304228Y-50656286D01*
X139414121Y-50608757D01*
X139538595Y-50580108D01*
X139670090Y-50569767D01*
X139801048Y-50577163D01*
X139923909Y-50601724D01*
X140031115Y-50642879D01*
X140115105Y-50700054D01*
X140133571Y-50719013D01*
X140189204Y-50808517D01*
X140218149Y-50914675D01*
X140219526Y-51028630D01*
X140192452Y-51141528D01*
X140178806Y-51173538D01*
X140135252Y-51234282D01*
X140071815Y-51287353D01*
X140002371Y-51322274D01*
X139972521Y-51329320D01*
X139938198Y-51326873D01*
X139921725Y-51300904D01*
X139918092Y-51284769D01*
X139913251Y-51265016D01*
X139904984Y-51256582D01*
X139888932Y-51262334D01*
X139860738Y-51285141D01*
X139816041Y-51327869D01*
X139750484Y-51393386D01*
X139745735Y-51398162D01*
X139582828Y-51562000D01*
X139745735Y-51725880D01*
X139908643Y-51889761D01*
X139917714Y-51830202D01*
X139927831Y-51791850D01*
X139950297Y-51768536D01*
X139995733Y-51750478D01*
X140008429Y-51746661D01*
X140175308Y-51683012D01*
X140312870Y-51598387D01*
X140421910Y-51492054D01*
X140503223Y-51363281D01*
X140546445Y-51251686D01*
X140567763Y-51143679D01*
X140575219Y-51016236D01*
X140569092Y-50883337D01*
X140569092Y-50883337D01*
G37*
X140569092Y-50883337D02*
X140549657Y-50758964D01*
X140535608Y-50706156D01*
X140470394Y-50556637D01*
X140375837Y-50425543D01*
X140255252Y-50315483D01*
X140111952Y-50229063D01*
X139949251Y-50168891D01*
X139819868Y-50143003D01*
X139625343Y-50132367D01*
X139442444Y-50153329D01*
X139274125Y-50205170D01*
X139123342Y-50287173D01*
X139073576Y-50324218D01*
X138947853Y-50447895D01*
X138851560Y-50591019D01*
X138786039Y-50750060D01*
X138752635Y-50921488D01*
X138752693Y-51101772D01*
X138758588Y-51151285D01*
X138798246Y-51304537D01*
X138868836Y-51442840D01*
X138966706Y-51562239D01*
X139088208Y-51658777D01*
X139229692Y-51728496D01*
X139314464Y-51753920D01*
X139409714Y-51776442D01*
X139409714Y-51348594D01*
X139330190Y-51328569D01*
X139253830Y-51293628D01*
X139185382Y-51234733D01*
X139136450Y-51163027D01*
X139124227Y-51130775D01*
X139116676Y-51085393D01*
X139111768Y-51020399D01*
X139110663Y-50970570D01*
X139125055Y-50861939D01*
X139169015Y-50771344D01*
X139244712Y-50695268D01*
X139304228Y-50656286D01*
X139414121Y-50608757D01*
X139538595Y-50580108D01*
X139670090Y-50569767D01*
X139801048Y-50577163D01*
X139923909Y-50601724D01*
X140031115Y-50642879D01*
X140115105Y-50700054D01*
X140133571Y-50719013D01*
X140189204Y-50808517D01*
X140218149Y-50914675D01*
X140219526Y-51028630D01*
X140192452Y-51141528D01*
X140178806Y-51173538D01*
X140135252Y-51234282D01*
X140071815Y-51287353D01*
X140002371Y-51322274D01*
X139972521Y-51329320D01*
X139938198Y-51326873D01*
X139921725Y-51300904D01*
X139918092Y-51284769D01*
X139913251Y-51265016D01*
X139904984Y-51256582D01*
X139888932Y-51262334D01*
X139860738Y-51285141D01*
X139816041Y-51327869D01*
X139750484Y-51393386D01*
X139745735Y-51398162D01*
X139582828Y-51562000D01*
X139745735Y-51725880D01*
X139908643Y-51889761D01*
X139917714Y-51830202D01*
X139927831Y-51791850D01*
X139950297Y-51768536D01*
X139995733Y-51750478D01*
X140008429Y-51746661D01*
X140175308Y-51683012D01*
X140312870Y-51598387D01*
X140421910Y-51492054D01*
X140503223Y-51363281D01*
X140546445Y-51251686D01*
X140567763Y-51143679D01*
X140575219Y-51016236D01*
X140569092Y-50883337D01*
D13*
X103327142Y-58755000D02*
X103384285Y-58726429D01*
X103469999Y-58726429D01*
X103555714Y-58755000D01*
X103612856Y-58812143D01*
X103641428Y-58869286D01*
X103669999Y-58983571D01*
X103669999Y-59069286D01*
X103641428Y-59183571D01*
X103612856Y-59240714D01*
X103555714Y-59297857D01*
X103469999Y-59326429D01*
X103412856Y-59326429D01*
X103327142Y-59297857D01*
X103298571Y-59269286D01*
X103298571Y-59069286D01*
X103412856Y-59069286D01*
X103041428Y-59326429D02*
X103041428Y-58726429D01*
X102698571Y-59326429D01*
X102698571Y-58726429D01*
X102412857Y-59326429D02*
X102412857Y-58726429D01*
X102270000Y-58726429D01*
X102184285Y-58755000D01*
X102127143Y-58812143D01*
X102098571Y-58869286D01*
X102070000Y-58983571D01*
X102070000Y-59069286D01*
X102098571Y-59183571D01*
X102127143Y-59240714D01*
X102184285Y-59297857D01*
X102270000Y-59326429D01*
X102412857Y-59326429D01*
X103327142Y-60660000D02*
X103384285Y-60631429D01*
X103469999Y-60631429D01*
X103555714Y-60660000D01*
X103612856Y-60717143D01*
X103641428Y-60774286D01*
X103669999Y-60888571D01*
X103669999Y-60974286D01*
X103641428Y-61088571D01*
X103612856Y-61145714D01*
X103555714Y-61202857D01*
X103469999Y-61231429D01*
X103412856Y-61231429D01*
X103327142Y-61202857D01*
X103298571Y-61174286D01*
X103298571Y-60974286D01*
X103412856Y-60974286D01*
X103041428Y-61231429D02*
X103041428Y-60631429D01*
X102698571Y-61231429D01*
X102698571Y-60631429D01*
X102412857Y-61231429D02*
X102412857Y-60631429D01*
X102270000Y-60631429D01*
X102184285Y-60660000D01*
X102127143Y-60717143D01*
X102098571Y-60774286D01*
X102070000Y-60888571D01*
X102070000Y-60974286D01*
X102098571Y-61088571D01*
X102127143Y-61145714D01*
X102184285Y-61202857D01*
X102270000Y-61231429D01*
X102412857Y-61231429D01*
X103670000Y-63171429D02*
X103470000Y-63771429D01*
X103270000Y-63171429D01*
X102727143Y-63714286D02*
X102755714Y-63742857D01*
X102841428Y-63771429D01*
X102898571Y-63771429D01*
X102984286Y-63742857D01*
X103041428Y-63685714D01*
X103070000Y-63628571D01*
X103098571Y-63514286D01*
X103098571Y-63428571D01*
X103070000Y-63314286D01*
X103041428Y-63257143D01*
X102984286Y-63200000D01*
X102898571Y-63171429D01*
X102841428Y-63171429D01*
X102755714Y-63200000D01*
X102727143Y-63228571D01*
X102127143Y-63714286D02*
X102155714Y-63742857D01*
X102241428Y-63771429D01*
X102298571Y-63771429D01*
X102384286Y-63742857D01*
X102441428Y-63685714D01*
X102470000Y-63628571D01*
X102498571Y-63514286D01*
X102498571Y-63428571D01*
X102470000Y-63314286D01*
X102441428Y-63257143D01*
X102384286Y-63200000D01*
X102298571Y-63171429D01*
X102241428Y-63171429D01*
X102155714Y-63200000D01*
X102127143Y-63228571D01*
X103112857Y-66311429D02*
X103312857Y-66025714D01*
X103455714Y-66311429D02*
X103455714Y-65711429D01*
X103227142Y-65711429D01*
X103170000Y-65740000D01*
X103141428Y-65768571D01*
X103112857Y-65825714D01*
X103112857Y-65911429D01*
X103141428Y-65968571D01*
X103170000Y-65997143D01*
X103227142Y-66025714D01*
X103455714Y-66025714D01*
X102912857Y-65711429D02*
X102512857Y-66311429D01*
X102512857Y-65711429D02*
X102912857Y-66311429D01*
X102284285Y-66311429D02*
X102284285Y-65711429D01*
X103627143Y-68251429D02*
X103284286Y-68251429D01*
X103455715Y-68851429D02*
X103455715Y-68251429D01*
X103141429Y-68251429D02*
X102741429Y-68851429D01*
X102741429Y-68251429D02*
X103141429Y-68851429D01*
X102512857Y-68851429D02*
X102512857Y-68251429D01*
X102370000Y-68251429D01*
X102284285Y-68280000D01*
X102227143Y-68337143D01*
X102198571Y-68394286D01*
X102170000Y-68508571D01*
X102170000Y-68594286D01*
X102198571Y-68708571D01*
X102227143Y-68765714D01*
X102284285Y-68822857D01*
X102370000Y-68851429D01*
X102512857Y-68851429D01*
X103555714Y-70756429D02*
X103555714Y-70156429D01*
X103412857Y-70156429D01*
X103327142Y-70185000D01*
X103270000Y-70242143D01*
X103241428Y-70299286D01*
X103212857Y-70413571D01*
X103212857Y-70499286D01*
X103241428Y-70613571D01*
X103270000Y-70670714D01*
X103327142Y-70727857D01*
X103412857Y-70756429D01*
X103555714Y-70756429D01*
X103041428Y-70156429D02*
X102698571Y-70156429D01*
X102870000Y-70756429D02*
X102870000Y-70156429D01*
X102155714Y-70756429D02*
X102355714Y-70470714D01*
X102498571Y-70756429D02*
X102498571Y-70156429D01*
X102269999Y-70156429D01*
X102212857Y-70185000D01*
X102184285Y-70213571D01*
X102155714Y-70270714D01*
X102155714Y-70356429D01*
X102184285Y-70413571D01*
X102212857Y-70442143D01*
X102269999Y-70470714D01*
X102498571Y-70470714D01*
%LPC*%
D15*
X134620000Y-68580000D03*
D16*
X134620000Y-71120000D03*
D17*
X102870000Y-53340000D03*
D18*
X105410000Y-53340000D03*
D19*
X115570000Y-76200000D03*
D20*
X143184000Y-73406000D03*
X138684000Y-73406000D03*
X143184000Y-66906000D03*
X138684000Y-66906000D03*
D21*
X142835000Y-63760000D03*
X142835000Y-49760000D03*
X142835000Y-51760000D03*
X142835000Y-53760000D03*
X142835000Y-55760000D03*
X142835000Y-57760000D03*
X142835000Y-59760000D03*
X142835000Y-61760000D03*
D17*
X105410000Y-49530000D03*
D18*
X107950000Y-49530000D03*
D17*
X110490000Y-76200000D03*
D18*
X107950000Y-76200000D03*
X105410000Y-76200000D03*
X102870000Y-76200000D03*
D17*
X123190000Y-76200000D03*
D18*
X125730000Y-76200000D03*
X128270000Y-76200000D03*
X130810000Y-76200000D03*
D17*
X128270000Y-53340000D03*
D18*
X130810000Y-53340000D03*
X133350000Y-53340000D03*
D17*
X118110000Y-53340000D03*
D18*
X120650000Y-53340000D03*
X123190000Y-53340000D03*
D17*
X110490000Y-53340000D03*
D18*
X113030000Y-53340000D03*
D17*
X134620000Y-57150000D03*
D18*
X134620000Y-59690000D03*
X134620000Y-62230000D03*
X134620000Y-64770000D03*
D22*
X143510000Y-76200000D03*
D23*
X133350000Y-76200000D03*
D22*
X125730000Y-49530000D03*
D23*
X135890000Y-49530000D03*
D22*
X113030000Y-49530000D03*
D23*
X123190000Y-49530000D03*
D19*
X137160000Y-52705000D03*
D16*
X130810000Y-57150000D03*
X128270000Y-57150000D03*
X125730000Y-57150000D03*
X123190000Y-57150000D03*
X120650000Y-57150000D03*
X118110000Y-57150000D03*
X115570000Y-57150000D03*
X113030000Y-57150000D03*
X110490000Y-57150000D03*
X107950000Y-57150000D03*
X105410000Y-57150000D03*
X102870000Y-57150000D03*
X102870000Y-72390000D03*
X105410000Y-72390000D03*
X107950000Y-72390000D03*
X110490000Y-72390000D03*
X113030000Y-72390000D03*
X115570000Y-72390000D03*
X118110000Y-72390000D03*
X120650000Y-72390000D03*
X123190000Y-72390000D03*
X125730000Y-72390000D03*
X128270000Y-72390000D03*
X130810000Y-72390000D03*
X114300000Y-59690000D03*
X111760000Y-59690000D03*
M02*
