G04 #@! TF.FileFunction,Legend,Top*
%FSLAX46Y46*%
G04 Gerber Fmt 4.6, Leading zero omitted, Abs format (unit mm)*
G04 Created by KiCad (PCBNEW 4.0.7) date 08/02/18 21:55:20*
%MOMM*%
%LPD*%
G01*
G04 APERTURE LIST*
%ADD10C,0.100000*%
%ADD11C,0.150000*%
%ADD12C,0.300000*%
%ADD13C,0.120000*%
%ADD14R,2.200000X2.200000*%
%ADD15C,2.200000*%
%ADD16R,2.100000X2.100000*%
%ADD17O,2.100000X2.100000*%
%ADD18C,2.600000*%
%ADD19C,2.400000*%
%ADD20C,1.750000*%
%ADD21R,2.200000X1.750000*%
%ADD22C,2.000000*%
%ADD23O,2.000000X2.000000*%
G04 APERTURE END LIST*
D10*
D11*
X127555714Y-51601667D02*
X128031905Y-51601667D01*
X127460476Y-51887381D02*
X127793809Y-50887381D01*
X128127143Y-51887381D01*
X128650952Y-50887381D02*
X128746191Y-50887381D01*
X128841429Y-50935000D01*
X128889048Y-50982619D01*
X128936667Y-51077857D01*
X128984286Y-51268333D01*
X128984286Y-51506429D01*
X128936667Y-51696905D01*
X128889048Y-51792143D01*
X128841429Y-51839762D01*
X128746191Y-51887381D01*
X128650952Y-51887381D01*
X128555714Y-51839762D01*
X128508095Y-51792143D01*
X128460476Y-51696905D01*
X128412857Y-51506429D01*
X128412857Y-51268333D01*
X128460476Y-51077857D01*
X128508095Y-50982619D01*
X128555714Y-50935000D01*
X128650952Y-50887381D01*
X117395714Y-51601667D02*
X117871905Y-51601667D01*
X117300476Y-51887381D02*
X117633809Y-50887381D01*
X117967143Y-51887381D01*
X118824286Y-51887381D02*
X118252857Y-51887381D01*
X118538571Y-51887381D02*
X118538571Y-50887381D01*
X118443333Y-51030238D01*
X118348095Y-51125476D01*
X118252857Y-51173095D01*
X109775714Y-51601667D02*
X110251905Y-51601667D01*
X109680476Y-51887381D02*
X110013809Y-50887381D01*
X110347143Y-51887381D01*
X110632857Y-50982619D02*
X110680476Y-50935000D01*
X110775714Y-50887381D01*
X111013810Y-50887381D01*
X111109048Y-50935000D01*
X111156667Y-50982619D01*
X111204286Y-51077857D01*
X111204286Y-51173095D01*
X111156667Y-51315952D01*
X110585238Y-51887381D01*
X111204286Y-51887381D01*
X102155714Y-51601667D02*
X102631905Y-51601667D01*
X102060476Y-51887381D02*
X102393809Y-50887381D01*
X102727143Y-51887381D01*
X102965238Y-50887381D02*
X103584286Y-50887381D01*
X103250952Y-51268333D01*
X103393810Y-51268333D01*
X103489048Y-51315952D01*
X103536667Y-51363571D01*
X103584286Y-51458810D01*
X103584286Y-51696905D01*
X103536667Y-51792143D01*
X103489048Y-51839762D01*
X103393810Y-51887381D01*
X103108095Y-51887381D01*
X103012857Y-51839762D01*
X102965238Y-51792143D01*
X121102381Y-77176190D02*
X120102381Y-77176190D01*
X120197619Y-76747619D02*
X120150000Y-76700000D01*
X120102381Y-76604762D01*
X120102381Y-76366666D01*
X120150000Y-76271428D01*
X120197619Y-76223809D01*
X120292857Y-76176190D01*
X120388095Y-76176190D01*
X120530952Y-76223809D01*
X121102381Y-76795238D01*
X121102381Y-76176190D01*
X121007143Y-75176190D02*
X121054762Y-75223809D01*
X121102381Y-75366666D01*
X121102381Y-75461904D01*
X121054762Y-75604762D01*
X120959524Y-75700000D01*
X120864286Y-75747619D01*
X120673810Y-75795238D01*
X120530952Y-75795238D01*
X120340476Y-75747619D01*
X120245238Y-75700000D01*
X120150000Y-75604762D01*
X120102381Y-75461904D01*
X120102381Y-75366666D01*
X120150000Y-75223809D01*
X120197619Y-75176190D01*
X113482381Y-77176190D02*
X112482381Y-77176190D01*
X112577619Y-76747619D02*
X112530000Y-76700000D01*
X112482381Y-76604762D01*
X112482381Y-76366666D01*
X112530000Y-76271428D01*
X112577619Y-76223809D01*
X112672857Y-76176190D01*
X112768095Y-76176190D01*
X112910952Y-76223809D01*
X113482381Y-76795238D01*
X113482381Y-76176190D01*
X113387143Y-75176190D02*
X113434762Y-75223809D01*
X113482381Y-75366666D01*
X113482381Y-75461904D01*
X113434762Y-75604762D01*
X113339524Y-75700000D01*
X113244286Y-75747619D01*
X113053810Y-75795238D01*
X112910952Y-75795238D01*
X112720476Y-75747619D01*
X112625238Y-75700000D01*
X112530000Y-75604762D01*
X112482381Y-75461904D01*
X112482381Y-75366666D01*
X112530000Y-75223809D01*
X112577619Y-75176190D01*
X137445714Y-71373809D02*
X137483810Y-71411904D01*
X137521905Y-71526190D01*
X137521905Y-71602380D01*
X137483810Y-71716666D01*
X137407619Y-71792857D01*
X137331429Y-71830952D01*
X137179048Y-71869047D01*
X137064762Y-71869047D01*
X136912381Y-71830952D01*
X136836190Y-71792857D01*
X136760000Y-71716666D01*
X136721905Y-71602380D01*
X136721905Y-71526190D01*
X136760000Y-71411904D01*
X136798095Y-71373809D01*
X136721905Y-70878571D02*
X136721905Y-70726190D01*
X136760000Y-70649999D01*
X136836190Y-70573809D01*
X136988571Y-70535714D01*
X137255238Y-70535714D01*
X137407619Y-70573809D01*
X137483810Y-70649999D01*
X137521905Y-70726190D01*
X137521905Y-70878571D01*
X137483810Y-70954761D01*
X137407619Y-71030952D01*
X137255238Y-71069047D01*
X136988571Y-71069047D01*
X136836190Y-71030952D01*
X136760000Y-70954761D01*
X136721905Y-70878571D01*
X137521905Y-70192857D02*
X136721905Y-70192857D01*
X137521905Y-69735714D01*
X136721905Y-69735714D01*
X137102857Y-69088095D02*
X137102857Y-69354762D01*
X137521905Y-69354762D02*
X136721905Y-69354762D01*
X136721905Y-68973809D01*
X137521905Y-68669048D02*
X136721905Y-68669048D01*
X136760000Y-67869048D02*
X136721905Y-67945239D01*
X136721905Y-68059524D01*
X136760000Y-68173810D01*
X136836190Y-68250001D01*
X136912381Y-68288096D01*
X137064762Y-68326191D01*
X137179048Y-68326191D01*
X137331429Y-68288096D01*
X137407619Y-68250001D01*
X137483810Y-68173810D01*
X137521905Y-68059524D01*
X137521905Y-67983334D01*
X137483810Y-67869048D01*
X137445714Y-67830953D01*
X137179048Y-67830953D01*
X137179048Y-67983334D01*
D10*
X136631727Y-64996190D02*
X136494822Y-64758095D01*
X136346013Y-64996190D02*
X136408513Y-64496190D01*
X136598989Y-64496190D01*
X136643632Y-64520000D01*
X136664465Y-64543810D01*
X136682322Y-64591429D01*
X136673394Y-64662857D01*
X136643632Y-64710476D01*
X136616846Y-64734286D01*
X136566251Y-64758095D01*
X136375775Y-64758095D01*
X136825179Y-64972381D02*
X136893632Y-64996190D01*
X137012679Y-64996190D01*
X137063274Y-64972381D01*
X137090061Y-64948571D01*
X137119822Y-64900952D01*
X137125774Y-64853333D01*
X137107918Y-64805714D01*
X137087084Y-64781905D01*
X137042441Y-64758095D01*
X136950179Y-64734286D01*
X136905537Y-64710476D01*
X136884704Y-64686667D01*
X136866846Y-64639048D01*
X136872798Y-64591429D01*
X136902561Y-64543810D01*
X136929346Y-64520000D01*
X136979941Y-64496190D01*
X137098989Y-64496190D01*
X137167441Y-64520000D01*
X137354941Y-64734286D02*
X137521607Y-64734286D01*
X137560298Y-64996190D02*
X137322203Y-64996190D01*
X137384703Y-64496190D01*
X137622798Y-64496190D01*
X137765655Y-64496190D02*
X138051369Y-64496190D01*
X137846012Y-64996190D02*
X137908512Y-64496190D01*
X136346012Y-62456190D02*
X136408512Y-61956190D01*
X136530535Y-62313333D01*
X136741845Y-61956190D01*
X136679345Y-62456190D01*
X136917441Y-62456190D02*
X136979941Y-61956190D01*
X137134702Y-62432381D02*
X137203155Y-62456190D01*
X137322202Y-62456190D01*
X137372797Y-62432381D01*
X137399584Y-62408571D01*
X137429345Y-62360952D01*
X137435297Y-62313333D01*
X137417441Y-62265714D01*
X137396607Y-62241905D01*
X137351964Y-62218095D01*
X137259702Y-62194286D01*
X137215060Y-62170476D01*
X137194227Y-62146667D01*
X137176369Y-62099048D01*
X137182321Y-62051429D01*
X137212084Y-62003810D01*
X137238869Y-61980000D01*
X137289464Y-61956190D01*
X137408512Y-61956190D01*
X137476964Y-61980000D01*
X137789464Y-61956190D02*
X137884702Y-61956190D01*
X137929345Y-61980000D01*
X137971012Y-62027619D01*
X137982916Y-62122857D01*
X137962083Y-62289524D01*
X137926369Y-62384762D01*
X137872797Y-62432381D01*
X137822202Y-62456190D01*
X137726964Y-62456190D01*
X137682321Y-62432381D01*
X137640655Y-62384762D01*
X137628750Y-62289524D01*
X137649583Y-62122857D01*
X137685298Y-62027619D01*
X137738869Y-61980000D01*
X137789464Y-61956190D01*
X136491845Y-59892381D02*
X136560298Y-59916190D01*
X136679345Y-59916190D01*
X136729940Y-59892381D01*
X136756727Y-59868571D01*
X136786488Y-59820952D01*
X136792440Y-59773333D01*
X136774584Y-59725714D01*
X136753750Y-59701905D01*
X136709107Y-59678095D01*
X136616845Y-59654286D01*
X136572203Y-59630476D01*
X136551370Y-59606667D01*
X136533512Y-59559048D01*
X136539464Y-59511429D01*
X136569227Y-59463810D01*
X136596012Y-59440000D01*
X136646607Y-59416190D01*
X136765655Y-59416190D01*
X136834107Y-59440000D01*
X137280536Y-59868571D02*
X137253749Y-59892381D01*
X137179345Y-59916190D01*
X137131726Y-59916190D01*
X137063273Y-59892381D01*
X137021607Y-59844762D01*
X137003750Y-59797143D01*
X136991845Y-59701905D01*
X137000774Y-59630476D01*
X137036488Y-59535238D01*
X137066250Y-59487619D01*
X137119821Y-59440000D01*
X137194226Y-59416190D01*
X137241845Y-59416190D01*
X137310297Y-59440000D01*
X137331131Y-59463810D01*
X137488869Y-59916190D02*
X137551369Y-59416190D01*
X137774583Y-59916190D02*
X137596012Y-59630476D01*
X137837083Y-59416190D02*
X137515655Y-59701905D01*
X136346012Y-57376190D02*
X136408512Y-56876190D01*
X136530535Y-57233333D01*
X136741845Y-56876190D01*
X136679345Y-57376190D01*
X137075179Y-56876190D02*
X137170417Y-56876190D01*
X137215060Y-56900000D01*
X137256727Y-56947619D01*
X137268631Y-57042857D01*
X137247798Y-57209524D01*
X137212084Y-57304762D01*
X137158512Y-57352381D01*
X137107917Y-57376190D01*
X137012679Y-57376190D01*
X136968036Y-57352381D01*
X136926370Y-57304762D01*
X136914465Y-57209524D01*
X136935298Y-57042857D01*
X136971013Y-56947619D01*
X137024584Y-56900000D01*
X137075179Y-56876190D01*
X137420417Y-57352381D02*
X137488870Y-57376190D01*
X137607917Y-57376190D01*
X137658512Y-57352381D01*
X137685299Y-57328571D01*
X137715060Y-57280952D01*
X137721012Y-57233333D01*
X137703156Y-57185714D01*
X137682322Y-57161905D01*
X137637679Y-57138095D01*
X137545417Y-57114286D01*
X137500775Y-57090476D01*
X137479942Y-57066667D01*
X137462084Y-57019048D01*
X137468036Y-56971429D01*
X137497799Y-56923810D01*
X137524584Y-56900000D01*
X137575179Y-56876190D01*
X137694227Y-56876190D01*
X137762679Y-56900000D01*
X137917441Y-57376190D02*
X137979941Y-56876190D01*
X130460297Y-51185000D02*
X130415654Y-51161190D01*
X130344226Y-51161190D01*
X130269821Y-51185000D01*
X130216250Y-51232619D01*
X130186488Y-51280238D01*
X130150774Y-51375476D01*
X130141845Y-51446905D01*
X130153750Y-51542143D01*
X130171607Y-51589762D01*
X130213273Y-51637381D01*
X130281726Y-51661190D01*
X130329345Y-51661190D01*
X130403749Y-51637381D01*
X130430536Y-51613571D01*
X130451369Y-51446905D01*
X130356131Y-51446905D01*
X130638869Y-51661190D02*
X130701369Y-51161190D01*
X130924583Y-51661190D01*
X130987083Y-51161190D01*
X131162679Y-51661190D02*
X131225179Y-51161190D01*
X131344226Y-51161190D01*
X131412679Y-51185000D01*
X131454346Y-51232619D01*
X131472202Y-51280238D01*
X131484108Y-51375476D01*
X131475179Y-51446905D01*
X131439464Y-51542143D01*
X131409703Y-51589762D01*
X131356131Y-51637381D01*
X131281726Y-51661190D01*
X131162679Y-51661190D01*
X120300297Y-51185000D02*
X120255654Y-51161190D01*
X120184226Y-51161190D01*
X120109821Y-51185000D01*
X120056250Y-51232619D01*
X120026488Y-51280238D01*
X119990774Y-51375476D01*
X119981845Y-51446905D01*
X119993750Y-51542143D01*
X120011607Y-51589762D01*
X120053273Y-51637381D01*
X120121726Y-51661190D01*
X120169345Y-51661190D01*
X120243749Y-51637381D01*
X120270536Y-51613571D01*
X120291369Y-51446905D01*
X120196131Y-51446905D01*
X120478869Y-51661190D02*
X120541369Y-51161190D01*
X120764583Y-51661190D01*
X120827083Y-51161190D01*
X121002679Y-51661190D02*
X121065179Y-51161190D01*
X121184226Y-51161190D01*
X121252679Y-51185000D01*
X121294346Y-51232619D01*
X121312202Y-51280238D01*
X121324108Y-51375476D01*
X121315179Y-51446905D01*
X121279464Y-51542143D01*
X121249703Y-51589762D01*
X121196131Y-51637381D01*
X121121726Y-51661190D01*
X121002679Y-51661190D01*
X112680297Y-51185000D02*
X112635654Y-51161190D01*
X112564226Y-51161190D01*
X112489821Y-51185000D01*
X112436250Y-51232619D01*
X112406488Y-51280238D01*
X112370774Y-51375476D01*
X112361845Y-51446905D01*
X112373750Y-51542143D01*
X112391607Y-51589762D01*
X112433273Y-51637381D01*
X112501726Y-51661190D01*
X112549345Y-51661190D01*
X112623749Y-51637381D01*
X112650536Y-51613571D01*
X112671369Y-51446905D01*
X112576131Y-51446905D01*
X112858869Y-51661190D02*
X112921369Y-51161190D01*
X113144583Y-51661190D01*
X113207083Y-51161190D01*
X113382679Y-51661190D02*
X113445179Y-51161190D01*
X113564226Y-51161190D01*
X113632679Y-51185000D01*
X113674346Y-51232619D01*
X113692202Y-51280238D01*
X113704108Y-51375476D01*
X113695179Y-51446905D01*
X113659464Y-51542143D01*
X113629703Y-51589762D01*
X113576131Y-51637381D01*
X113501726Y-51661190D01*
X113382679Y-51661190D01*
X105060297Y-51185000D02*
X105015654Y-51161190D01*
X104944226Y-51161190D01*
X104869821Y-51185000D01*
X104816250Y-51232619D01*
X104786488Y-51280238D01*
X104750774Y-51375476D01*
X104741845Y-51446905D01*
X104753750Y-51542143D01*
X104771607Y-51589762D01*
X104813273Y-51637381D01*
X104881726Y-51661190D01*
X104929345Y-51661190D01*
X105003749Y-51637381D01*
X105030536Y-51613571D01*
X105051369Y-51446905D01*
X104956131Y-51446905D01*
X105238869Y-51661190D02*
X105301369Y-51161190D01*
X105524583Y-51661190D01*
X105587083Y-51161190D01*
X105762679Y-51661190D02*
X105825179Y-51161190D01*
X105944226Y-51161190D01*
X106012679Y-51185000D01*
X106054346Y-51232619D01*
X106072202Y-51280238D01*
X106084108Y-51375476D01*
X106075179Y-51446905D01*
X106039464Y-51542143D01*
X106009703Y-51589762D01*
X105956131Y-51637381D01*
X105881726Y-51661190D01*
X105762679Y-51661190D01*
X130177560Y-74497381D02*
X130246013Y-74521190D01*
X130365060Y-74521190D01*
X130415655Y-74497381D01*
X130442442Y-74473571D01*
X130472203Y-74425952D01*
X130478155Y-74378333D01*
X130460299Y-74330714D01*
X130439465Y-74306905D01*
X130394822Y-74283095D01*
X130302560Y-74259286D01*
X130257918Y-74235476D01*
X130237085Y-74211667D01*
X130219227Y-74164048D01*
X130225179Y-74116429D01*
X130254942Y-74068810D01*
X130281727Y-74045000D01*
X130332322Y-74021190D01*
X130451370Y-74021190D01*
X130519822Y-74045000D01*
X130674584Y-74521190D02*
X130737084Y-74021190D01*
X130856131Y-74021190D01*
X130924584Y-74045000D01*
X130966251Y-74092619D01*
X130984107Y-74140238D01*
X130996013Y-74235476D01*
X130987084Y-74306905D01*
X130951369Y-74402143D01*
X130921608Y-74449762D01*
X130868036Y-74497381D01*
X130793631Y-74521190D01*
X130674584Y-74521190D01*
X131168631Y-74378333D02*
X131406726Y-74378333D01*
X131103155Y-74521190D02*
X131332322Y-74021190D01*
X131436488Y-74521190D01*
X102237560Y-74497381D02*
X102306013Y-74521190D01*
X102425060Y-74521190D01*
X102475655Y-74497381D01*
X102502442Y-74473571D01*
X102532203Y-74425952D01*
X102538155Y-74378333D01*
X102520299Y-74330714D01*
X102499465Y-74306905D01*
X102454822Y-74283095D01*
X102362560Y-74259286D01*
X102317918Y-74235476D01*
X102297085Y-74211667D01*
X102279227Y-74164048D01*
X102285179Y-74116429D01*
X102314942Y-74068810D01*
X102341727Y-74045000D01*
X102392322Y-74021190D01*
X102511370Y-74021190D01*
X102579822Y-74045000D01*
X102734584Y-74521190D02*
X102797084Y-74021190D01*
X102916131Y-74021190D01*
X102984584Y-74045000D01*
X103026251Y-74092619D01*
X103044107Y-74140238D01*
X103056013Y-74235476D01*
X103047084Y-74306905D01*
X103011369Y-74402143D01*
X102981608Y-74449762D01*
X102928036Y-74497381D01*
X102853631Y-74521190D01*
X102734584Y-74521190D01*
X103228631Y-74378333D02*
X103466726Y-74378333D01*
X103163155Y-74521190D02*
X103392322Y-74021190D01*
X103496488Y-74521190D01*
X127649464Y-74497381D02*
X127717917Y-74521190D01*
X127836964Y-74521190D01*
X127887559Y-74497381D01*
X127914346Y-74473571D01*
X127944107Y-74425952D01*
X127950059Y-74378333D01*
X127932203Y-74330714D01*
X127911369Y-74306905D01*
X127866726Y-74283095D01*
X127774464Y-74259286D01*
X127729822Y-74235476D01*
X127708989Y-74211667D01*
X127691131Y-74164048D01*
X127697083Y-74116429D01*
X127726846Y-74068810D01*
X127753631Y-74045000D01*
X127804226Y-74021190D01*
X127923274Y-74021190D01*
X127991726Y-74045000D01*
X128438155Y-74473571D02*
X128411368Y-74497381D01*
X128336964Y-74521190D01*
X128289345Y-74521190D01*
X128220892Y-74497381D01*
X128179226Y-74449762D01*
X128161369Y-74402143D01*
X128149464Y-74306905D01*
X128158393Y-74235476D01*
X128194107Y-74140238D01*
X128223869Y-74092619D01*
X128277440Y-74045000D01*
X128351845Y-74021190D01*
X128399464Y-74021190D01*
X128467916Y-74045000D01*
X128488750Y-74068810D01*
X128884583Y-74521190D02*
X128646488Y-74521190D01*
X128708988Y-74021190D01*
X104789464Y-74497381D02*
X104857917Y-74521190D01*
X104976964Y-74521190D01*
X105027559Y-74497381D01*
X105054346Y-74473571D01*
X105084107Y-74425952D01*
X105090059Y-74378333D01*
X105072203Y-74330714D01*
X105051369Y-74306905D01*
X105006726Y-74283095D01*
X104914464Y-74259286D01*
X104869822Y-74235476D01*
X104848989Y-74211667D01*
X104831131Y-74164048D01*
X104837083Y-74116429D01*
X104866846Y-74068810D01*
X104893631Y-74045000D01*
X104944226Y-74021190D01*
X105063274Y-74021190D01*
X105131726Y-74045000D01*
X105578155Y-74473571D02*
X105551368Y-74497381D01*
X105476964Y-74521190D01*
X105429345Y-74521190D01*
X105360892Y-74497381D01*
X105319226Y-74449762D01*
X105301369Y-74402143D01*
X105289464Y-74306905D01*
X105298393Y-74235476D01*
X105334107Y-74140238D01*
X105363869Y-74092619D01*
X105417440Y-74045000D01*
X105491845Y-74021190D01*
X105539464Y-74021190D01*
X105607916Y-74045000D01*
X105628750Y-74068810D01*
X106024583Y-74521190D02*
X105786488Y-74521190D01*
X105848988Y-74021190D01*
X125380297Y-74045000D02*
X125335654Y-74021190D01*
X125264226Y-74021190D01*
X125189821Y-74045000D01*
X125136250Y-74092619D01*
X125106488Y-74140238D01*
X125070774Y-74235476D01*
X125061845Y-74306905D01*
X125073750Y-74402143D01*
X125091607Y-74449762D01*
X125133273Y-74497381D01*
X125201726Y-74521190D01*
X125249345Y-74521190D01*
X125323749Y-74497381D01*
X125350536Y-74473571D01*
X125371369Y-74306905D01*
X125276131Y-74306905D01*
X125558869Y-74521190D02*
X125621369Y-74021190D01*
X125844583Y-74521190D01*
X125907083Y-74021190D01*
X126082679Y-74521190D02*
X126145179Y-74021190D01*
X126264226Y-74021190D01*
X126332679Y-74045000D01*
X126374346Y-74092619D01*
X126392202Y-74140238D01*
X126404108Y-74235476D01*
X126395179Y-74306905D01*
X126359464Y-74402143D01*
X126329703Y-74449762D01*
X126276131Y-74497381D01*
X126201726Y-74521190D01*
X126082679Y-74521190D01*
X107600297Y-74045000D02*
X107555654Y-74021190D01*
X107484226Y-74021190D01*
X107409821Y-74045000D01*
X107356250Y-74092619D01*
X107326488Y-74140238D01*
X107290774Y-74235476D01*
X107281845Y-74306905D01*
X107293750Y-74402143D01*
X107311607Y-74449762D01*
X107353273Y-74497381D01*
X107421726Y-74521190D01*
X107469345Y-74521190D01*
X107543749Y-74497381D01*
X107570536Y-74473571D01*
X107591369Y-74306905D01*
X107496131Y-74306905D01*
X107778869Y-74521190D02*
X107841369Y-74021190D01*
X108064583Y-74521190D01*
X108127083Y-74021190D01*
X108302679Y-74521190D02*
X108365179Y-74021190D01*
X108484226Y-74021190D01*
X108552679Y-74045000D01*
X108594346Y-74092619D01*
X108612202Y-74140238D01*
X108624108Y-74235476D01*
X108615179Y-74306905D01*
X108579464Y-74402143D01*
X108549703Y-74449762D01*
X108496131Y-74497381D01*
X108421726Y-74521190D01*
X108302679Y-74521190D01*
X122557560Y-74021190D02*
X122661727Y-74521190D01*
X122890893Y-74021190D01*
X123286727Y-74473571D02*
X123259940Y-74497381D01*
X123185536Y-74521190D01*
X123137917Y-74521190D01*
X123069464Y-74497381D01*
X123027798Y-74449762D01*
X123009941Y-74402143D01*
X122998036Y-74306905D01*
X123006965Y-74235476D01*
X123042679Y-74140238D01*
X123072441Y-74092619D01*
X123126012Y-74045000D01*
X123200417Y-74021190D01*
X123248036Y-74021190D01*
X123316488Y-74045000D01*
X123337322Y-74068810D01*
X123786727Y-74473571D02*
X123759940Y-74497381D01*
X123685536Y-74521190D01*
X123637917Y-74521190D01*
X123569464Y-74497381D01*
X123527798Y-74449762D01*
X123509941Y-74402143D01*
X123498036Y-74306905D01*
X123506965Y-74235476D01*
X123542679Y-74140238D01*
X123572441Y-74092619D01*
X123626012Y-74045000D01*
X123700417Y-74021190D01*
X123748036Y-74021190D01*
X123816488Y-74045000D01*
X123837322Y-74068810D01*
X109857560Y-74021190D02*
X109961727Y-74521190D01*
X110190893Y-74021190D01*
X110586727Y-74473571D02*
X110559940Y-74497381D01*
X110485536Y-74521190D01*
X110437917Y-74521190D01*
X110369464Y-74497381D01*
X110327798Y-74449762D01*
X110309941Y-74402143D01*
X110298036Y-74306905D01*
X110306965Y-74235476D01*
X110342679Y-74140238D01*
X110372441Y-74092619D01*
X110426012Y-74045000D01*
X110500417Y-74021190D01*
X110548036Y-74021190D01*
X110616488Y-74045000D01*
X110637322Y-74068810D01*
X111086727Y-74473571D02*
X111059940Y-74497381D01*
X110985536Y-74521190D01*
X110937917Y-74521190D01*
X110869464Y-74497381D01*
X110827798Y-74449762D01*
X110809941Y-74402143D01*
X110798036Y-74306905D01*
X110806965Y-74235476D01*
X110842679Y-74140238D01*
X110872441Y-74092619D01*
X110926012Y-74045000D01*
X111000417Y-74021190D01*
X111048036Y-74021190D01*
X111116488Y-74045000D01*
X111137322Y-74068810D01*
X132738393Y-51661190D02*
X132800893Y-51161190D01*
X133024107Y-51661190D01*
X133086607Y-51161190D01*
X133253274Y-51161190D02*
X133538988Y-51161190D01*
X133333631Y-51661190D02*
X133396131Y-51161190D01*
X133934822Y-51613571D02*
X133908035Y-51637381D01*
X133833631Y-51661190D01*
X133786012Y-51661190D01*
X133717559Y-51637381D01*
X133675893Y-51589762D01*
X133658036Y-51542143D01*
X133646131Y-51446905D01*
X133655060Y-51375476D01*
X133690774Y-51280238D01*
X133720536Y-51232619D01*
X133774107Y-51185000D01*
X133848512Y-51161190D01*
X133896131Y-51161190D01*
X133964583Y-51185000D01*
X133985417Y-51208810D01*
X122578393Y-51661190D02*
X122640893Y-51161190D01*
X122864107Y-51661190D01*
X122926607Y-51161190D01*
X123093274Y-51161190D02*
X123378988Y-51161190D01*
X123173631Y-51661190D02*
X123236131Y-51161190D01*
X123774822Y-51613571D02*
X123748035Y-51637381D01*
X123673631Y-51661190D01*
X123626012Y-51661190D01*
X123557559Y-51637381D01*
X123515893Y-51589762D01*
X123498036Y-51542143D01*
X123486131Y-51446905D01*
X123495060Y-51375476D01*
X123530774Y-51280238D01*
X123560536Y-51232619D01*
X123614107Y-51185000D01*
X123688512Y-51161190D01*
X123736131Y-51161190D01*
X123804583Y-51185000D01*
X123825417Y-51208810D01*
D12*
X102298572Y-49637143D02*
X103441429Y-49637143D01*
X102870000Y-50208571D02*
X102870000Y-49065714D01*
X109918572Y-49637143D02*
X111061429Y-49637143D01*
D13*
X135698608Y-71522335D02*
G75*
G03X135855516Y-68290000I-1078608J1672335D01*
G01*
X133541392Y-71522335D02*
G75*
G02X133384484Y-68290000I1078608J1672335D01*
G01*
X135699837Y-70891130D02*
G75*
G03X135700000Y-68809039I-1079837J1041130D01*
G01*
X133540163Y-70891130D02*
G75*
G02X133540000Y-68809039I1079837J1041130D01*
G01*
X135856000Y-68290000D02*
X135700000Y-68290000D01*
X133540000Y-68290000D02*
X133384000Y-68290000D01*
X106740000Y-54670000D02*
X106740000Y-52010000D01*
X104140000Y-54670000D02*
X106740000Y-54670000D01*
X104140000Y-52010000D02*
X106740000Y-52010000D01*
X104140000Y-54670000D02*
X104140000Y-52010000D01*
X102870000Y-54670000D02*
X101540000Y-54670000D01*
X101540000Y-54670000D02*
X101540000Y-53340000D01*
X144184000Y-72406000D02*
X144184000Y-67906000D01*
X140184000Y-73656000D02*
X141684000Y-73656000D01*
X137684000Y-67906000D02*
X137684000Y-72406000D01*
X141684000Y-66656000D02*
X140184000Y-66656000D01*
D11*
X141835000Y-65260000D02*
X141835000Y-64760000D01*
X141835000Y-48260000D02*
X141835000Y-48760000D01*
X161335000Y-60260000D02*
G75*
G03X161335000Y-60260000I-500000J0D01*
G01*
X161335000Y-55260000D02*
G75*
G03X161335000Y-55260000I-500000J0D01*
G01*
X161335000Y-57760000D02*
G75*
G03X161335000Y-57760000I-500000J0D01*
G01*
X141835000Y-48260000D02*
X161835000Y-48260000D01*
X161835000Y-48260000D02*
X161835000Y-65260000D01*
X161835000Y-65260000D02*
X141835000Y-65260000D01*
D13*
X109280000Y-50860000D02*
X109280000Y-48200000D01*
X106680000Y-50860000D02*
X109280000Y-50860000D01*
X106680000Y-48200000D02*
X109280000Y-48200000D01*
X106680000Y-50860000D02*
X106680000Y-48200000D01*
X105410000Y-50860000D02*
X104080000Y-50860000D01*
X104080000Y-50860000D02*
X104080000Y-49530000D01*
X101540000Y-74870000D02*
X101540000Y-77530000D01*
X109220000Y-74870000D02*
X101540000Y-74870000D01*
X109220000Y-77530000D02*
X101540000Y-77530000D01*
X109220000Y-74870000D02*
X109220000Y-77530000D01*
X110490000Y-74870000D02*
X111820000Y-74870000D01*
X111820000Y-74870000D02*
X111820000Y-76200000D01*
X132140000Y-77530000D02*
X132140000Y-74870000D01*
X124460000Y-77530000D02*
X132140000Y-77530000D01*
X124460000Y-74870000D02*
X132140000Y-74870000D01*
X124460000Y-77530000D02*
X124460000Y-74870000D01*
X123190000Y-77530000D02*
X121860000Y-77530000D01*
X121860000Y-77530000D02*
X121860000Y-76200000D01*
X134680000Y-54670000D02*
X134680000Y-52010000D01*
X129540000Y-54670000D02*
X134680000Y-54670000D01*
X129540000Y-52010000D02*
X134680000Y-52010000D01*
X129540000Y-54670000D02*
X129540000Y-52010000D01*
X128270000Y-54670000D02*
X126940000Y-54670000D01*
X126940000Y-54670000D02*
X126940000Y-53340000D01*
X124520000Y-54670000D02*
X124520000Y-52010000D01*
X119380000Y-54670000D02*
X124520000Y-54670000D01*
X119380000Y-52010000D02*
X124520000Y-52010000D01*
X119380000Y-54670000D02*
X119380000Y-52010000D01*
X118110000Y-54670000D02*
X116780000Y-54670000D01*
X116780000Y-54670000D02*
X116780000Y-53340000D01*
X114360000Y-54670000D02*
X114360000Y-52010000D01*
X111760000Y-54670000D02*
X114360000Y-54670000D01*
X111760000Y-52010000D02*
X114360000Y-52010000D01*
X111760000Y-54670000D02*
X111760000Y-52010000D01*
X110490000Y-54670000D02*
X109160000Y-54670000D01*
X109160000Y-54670000D02*
X109160000Y-53340000D01*
X133290000Y-66100000D02*
X135950000Y-66100000D01*
X133290000Y-58420000D02*
X133290000Y-66100000D01*
X135950000Y-58420000D02*
X135950000Y-66100000D01*
X133290000Y-58420000D02*
X135950000Y-58420000D01*
X133290000Y-57150000D02*
X133290000Y-55820000D01*
X133290000Y-55820000D02*
X134620000Y-55820000D01*
X141640000Y-77510000D02*
X141640000Y-74890000D01*
X141640000Y-74890000D02*
X135220000Y-74890000D01*
X135220000Y-74890000D02*
X135220000Y-77510000D01*
X135220000Y-77510000D02*
X141640000Y-77510000D01*
X142530000Y-76200000D02*
X141640000Y-76200000D01*
X134330000Y-76200000D02*
X135220000Y-76200000D01*
X127600000Y-48220000D02*
X127600000Y-50840000D01*
X127600000Y-50840000D02*
X134020000Y-50840000D01*
X134020000Y-50840000D02*
X134020000Y-48220000D01*
X134020000Y-48220000D02*
X127600000Y-48220000D01*
X126710000Y-49530000D02*
X127600000Y-49530000D01*
X134910000Y-49530000D02*
X134020000Y-49530000D01*
X114900000Y-48220000D02*
X114900000Y-50840000D01*
X114900000Y-50840000D02*
X121320000Y-50840000D01*
X121320000Y-50840000D02*
X121320000Y-48220000D01*
X121320000Y-48220000D02*
X114900000Y-48220000D01*
X114010000Y-49530000D02*
X114900000Y-49530000D01*
X122210000Y-49530000D02*
X121320000Y-49530000D01*
D11*
X100965000Y-58420000D02*
G75*
G03X100965000Y-58420000I-635000J0D01*
G01*
X100965000Y-60960000D02*
G75*
G03X100965000Y-60960000I-635000J0D01*
G01*
X100965000Y-63500000D02*
G75*
G03X100965000Y-63500000I-635000J0D01*
G01*
X100965000Y-66040000D02*
G75*
G03X100965000Y-66040000I-635000J0D01*
G01*
X100965000Y-68580000D02*
G75*
G03X100965000Y-68580000I-635000J0D01*
G01*
X100965000Y-71120000D02*
G75*
G03X100965000Y-71120000I-635000J0D01*
G01*
X129540000Y-67310000D02*
X129540000Y-62230000D01*
X129540000Y-62230000D02*
X127000000Y-62230000D01*
X127000000Y-62230000D02*
X127000000Y-67310000D01*
X127000000Y-67310000D02*
X129540000Y-67310000D01*
X116840000Y-59690000D02*
X111760000Y-64770000D01*
X111760000Y-64770000D02*
X116840000Y-69850000D01*
X116840000Y-69850000D02*
X121920000Y-64770000D01*
X121920000Y-64770000D02*
X116840000Y-59690000D01*
X132080000Y-55880000D02*
X99060000Y-55880000D01*
X99060000Y-55880000D02*
X99060000Y-73660000D01*
X99060000Y-73660000D02*
X132080000Y-73660000D01*
X132080000Y-73660000D02*
X132080000Y-55880000D01*
X138263334Y-76652381D02*
X137930000Y-76176190D01*
X137691905Y-76652381D02*
X137691905Y-75652381D01*
X138072858Y-75652381D01*
X138168096Y-75700000D01*
X138215715Y-75747619D01*
X138263334Y-75842857D01*
X138263334Y-75985714D01*
X138215715Y-76080952D01*
X138168096Y-76128571D01*
X138072858Y-76176190D01*
X137691905Y-76176190D01*
X139215715Y-76652381D02*
X138644286Y-76652381D01*
X138930000Y-76652381D02*
X138930000Y-75652381D01*
X138834762Y-75795238D01*
X138739524Y-75890476D01*
X138644286Y-75938095D01*
X130643334Y-49982381D02*
X130310000Y-49506190D01*
X130071905Y-49982381D02*
X130071905Y-48982381D01*
X130452858Y-48982381D01*
X130548096Y-49030000D01*
X130595715Y-49077619D01*
X130643334Y-49172857D01*
X130643334Y-49315714D01*
X130595715Y-49410952D01*
X130548096Y-49458571D01*
X130452858Y-49506190D01*
X130071905Y-49506190D01*
X131024286Y-49077619D02*
X131071905Y-49030000D01*
X131167143Y-48982381D01*
X131405239Y-48982381D01*
X131500477Y-49030000D01*
X131548096Y-49077619D01*
X131595715Y-49172857D01*
X131595715Y-49268095D01*
X131548096Y-49410952D01*
X130976667Y-49982381D01*
X131595715Y-49982381D01*
X117943334Y-49982381D02*
X117610000Y-49506190D01*
X117371905Y-49982381D02*
X117371905Y-48982381D01*
X117752858Y-48982381D01*
X117848096Y-49030000D01*
X117895715Y-49077619D01*
X117943334Y-49172857D01*
X117943334Y-49315714D01*
X117895715Y-49410952D01*
X117848096Y-49458571D01*
X117752858Y-49506190D01*
X117371905Y-49506190D01*
X118276667Y-48982381D02*
X118895715Y-48982381D01*
X118562381Y-49363333D01*
X118705239Y-49363333D01*
X118800477Y-49410952D01*
X118848096Y-49458571D01*
X118895715Y-49553810D01*
X118895715Y-49791905D01*
X118848096Y-49887143D01*
X118800477Y-49934762D01*
X118705239Y-49982381D01*
X118419524Y-49982381D01*
X118324286Y-49934762D01*
X118276667Y-49887143D01*
X102070000Y-63171429D02*
X102270000Y-63771429D01*
X102470000Y-63171429D01*
X103012857Y-63714286D02*
X102984286Y-63742857D01*
X102898572Y-63771429D01*
X102841429Y-63771429D01*
X102755714Y-63742857D01*
X102698572Y-63685714D01*
X102670000Y-63628571D01*
X102641429Y-63514286D01*
X102641429Y-63428571D01*
X102670000Y-63314286D01*
X102698572Y-63257143D01*
X102755714Y-63200000D01*
X102841429Y-63171429D01*
X102898572Y-63171429D01*
X102984286Y-63200000D01*
X103012857Y-63228571D01*
X103612857Y-63714286D02*
X103584286Y-63742857D01*
X103498572Y-63771429D01*
X103441429Y-63771429D01*
X103355714Y-63742857D01*
X103298572Y-63685714D01*
X103270000Y-63628571D01*
X103241429Y-63514286D01*
X103241429Y-63428571D01*
X103270000Y-63314286D01*
X103298572Y-63257143D01*
X103355714Y-63200000D01*
X103441429Y-63171429D01*
X103498572Y-63171429D01*
X103584286Y-63200000D01*
X103612857Y-63228571D01*
X102627143Y-66311429D02*
X102427143Y-66025714D01*
X102284286Y-66311429D02*
X102284286Y-65711429D01*
X102512858Y-65711429D01*
X102570000Y-65740000D01*
X102598572Y-65768571D01*
X102627143Y-65825714D01*
X102627143Y-65911429D01*
X102598572Y-65968571D01*
X102570000Y-65997143D01*
X102512858Y-66025714D01*
X102284286Y-66025714D01*
X102827143Y-65711429D02*
X103227143Y-66311429D01*
X103227143Y-65711429D02*
X102827143Y-66311429D01*
X103455715Y-66311429D02*
X103455715Y-65711429D01*
X102112857Y-68251429D02*
X102455714Y-68251429D01*
X102284285Y-68851429D02*
X102284285Y-68251429D01*
X102598571Y-68251429D02*
X102998571Y-68851429D01*
X102998571Y-68251429D02*
X102598571Y-68851429D01*
X103227143Y-68851429D02*
X103227143Y-68251429D01*
X103370000Y-68251429D01*
X103455715Y-68280000D01*
X103512857Y-68337143D01*
X103541429Y-68394286D01*
X103570000Y-68508571D01*
X103570000Y-68594286D01*
X103541429Y-68708571D01*
X103512857Y-68765714D01*
X103455715Y-68822857D01*
X103370000Y-68851429D01*
X103227143Y-68851429D01*
X102184286Y-70756429D02*
X102184286Y-70156429D01*
X102327143Y-70156429D01*
X102412858Y-70185000D01*
X102470000Y-70242143D01*
X102498572Y-70299286D01*
X102527143Y-70413571D01*
X102527143Y-70499286D01*
X102498572Y-70613571D01*
X102470000Y-70670714D01*
X102412858Y-70727857D01*
X102327143Y-70756429D01*
X102184286Y-70756429D01*
X102698572Y-70156429D02*
X103041429Y-70156429D01*
X102870000Y-70756429D02*
X102870000Y-70156429D01*
X103584286Y-70756429D02*
X103384286Y-70470714D01*
X103241429Y-70756429D02*
X103241429Y-70156429D01*
X103470001Y-70156429D01*
X103527143Y-70185000D01*
X103555715Y-70213571D01*
X103584286Y-70270714D01*
X103584286Y-70356429D01*
X103555715Y-70413571D01*
X103527143Y-70442143D01*
X103470001Y-70470714D01*
X103241429Y-70470714D01*
X102412858Y-58755000D02*
X102355715Y-58726429D01*
X102270001Y-58726429D01*
X102184286Y-58755000D01*
X102127144Y-58812143D01*
X102098572Y-58869286D01*
X102070001Y-58983571D01*
X102070001Y-59069286D01*
X102098572Y-59183571D01*
X102127144Y-59240714D01*
X102184286Y-59297857D01*
X102270001Y-59326429D01*
X102327144Y-59326429D01*
X102412858Y-59297857D01*
X102441429Y-59269286D01*
X102441429Y-59069286D01*
X102327144Y-59069286D01*
X102698572Y-59326429D02*
X102698572Y-58726429D01*
X103041429Y-59326429D01*
X103041429Y-58726429D01*
X103327143Y-59326429D02*
X103327143Y-58726429D01*
X103470000Y-58726429D01*
X103555715Y-58755000D01*
X103612857Y-58812143D01*
X103641429Y-58869286D01*
X103670000Y-58983571D01*
X103670000Y-59069286D01*
X103641429Y-59183571D01*
X103612857Y-59240714D01*
X103555715Y-59297857D01*
X103470000Y-59326429D01*
X103327143Y-59326429D01*
X102412858Y-60660000D02*
X102355715Y-60631429D01*
X102270001Y-60631429D01*
X102184286Y-60660000D01*
X102127144Y-60717143D01*
X102098572Y-60774286D01*
X102070001Y-60888571D01*
X102070001Y-60974286D01*
X102098572Y-61088571D01*
X102127144Y-61145714D01*
X102184286Y-61202857D01*
X102270001Y-61231429D01*
X102327144Y-61231429D01*
X102412858Y-61202857D01*
X102441429Y-61174286D01*
X102441429Y-60974286D01*
X102327144Y-60974286D01*
X102698572Y-61231429D02*
X102698572Y-60631429D01*
X103041429Y-61231429D01*
X103041429Y-60631429D01*
X103327143Y-61231429D02*
X103327143Y-60631429D01*
X103470000Y-60631429D01*
X103555715Y-60660000D01*
X103612857Y-60717143D01*
X103641429Y-60774286D01*
X103670000Y-60888571D01*
X103670000Y-60974286D01*
X103641429Y-61088571D01*
X103612857Y-61145714D01*
X103555715Y-61202857D01*
X103470000Y-61231429D01*
X103327143Y-61231429D01*
%LPC*%
D14*
X134620000Y-68580000D03*
D15*
X134620000Y-71120000D03*
D16*
X102870000Y-53340000D03*
D17*
X105410000Y-53340000D03*
D18*
X115570000Y-76200000D03*
D19*
X143184000Y-73406000D03*
X138684000Y-73406000D03*
X143184000Y-66906000D03*
X138684000Y-66906000D03*
D20*
X142835000Y-63760000D03*
D21*
X141835000Y-63760000D03*
D20*
X142835000Y-49760000D03*
X142835000Y-51760000D03*
X142835000Y-53760000D03*
X142835000Y-55760000D03*
X142835000Y-57760000D03*
X142835000Y-59760000D03*
X142835000Y-61760000D03*
D21*
X141835000Y-49760000D03*
X141835000Y-51760000D03*
X141835000Y-53760000D03*
X141835000Y-55760000D03*
X141835000Y-57760000D03*
X141835000Y-59760000D03*
X141835000Y-61760000D03*
D16*
X105410000Y-49530000D03*
D17*
X107950000Y-49530000D03*
D16*
X110490000Y-76200000D03*
D17*
X107950000Y-76200000D03*
X105410000Y-76200000D03*
X102870000Y-76200000D03*
D16*
X123190000Y-76200000D03*
D17*
X125730000Y-76200000D03*
X128270000Y-76200000D03*
X130810000Y-76200000D03*
D16*
X128270000Y-53340000D03*
D17*
X130810000Y-53340000D03*
X133350000Y-53340000D03*
D16*
X118110000Y-53340000D03*
D17*
X120650000Y-53340000D03*
X123190000Y-53340000D03*
D16*
X110490000Y-53340000D03*
D17*
X113030000Y-53340000D03*
D16*
X134620000Y-57150000D03*
D17*
X134620000Y-59690000D03*
X134620000Y-62230000D03*
X134620000Y-64770000D03*
D22*
X143510000Y-76200000D03*
D23*
X133350000Y-76200000D03*
D22*
X125730000Y-49530000D03*
D23*
X135890000Y-49530000D03*
D22*
X113030000Y-49530000D03*
D23*
X123190000Y-49530000D03*
D18*
X137160000Y-52705000D03*
D15*
X130810000Y-57150000D03*
X128270000Y-57150000D03*
X125730000Y-57150000D03*
X123190000Y-57150000D03*
X120650000Y-57150000D03*
X118110000Y-57150000D03*
X115570000Y-57150000D03*
X113030000Y-57150000D03*
X110490000Y-57150000D03*
X107950000Y-57150000D03*
X105410000Y-57150000D03*
X102870000Y-57150000D03*
X102870000Y-72390000D03*
X105410000Y-72390000D03*
X107950000Y-72390000D03*
X110490000Y-72390000D03*
X113030000Y-72390000D03*
X115570000Y-72390000D03*
X118110000Y-72390000D03*
X120650000Y-72390000D03*
X123190000Y-72390000D03*
X125730000Y-72390000D03*
X128270000Y-72390000D03*
X130810000Y-72390000D03*
X114300000Y-59690000D03*
X111760000Y-59690000D03*
M02*
