G04 #@! TF.FileFunction,Copper,L1,Top,Signal*
%FSLAX46Y46*%
G04 Gerber Fmt 4.6, Leading zero omitted, Abs format (unit mm)*
G04 Created by KiCad (PCBNEW 4.0.7) date 08/02/18 21:55:20*
%MOMM*%
%LPD*%
G01*
G04 APERTURE LIST*
%ADD10C,0.100000*%
%ADD11R,1.800000X1.800000*%
%ADD12C,1.800000*%
%ADD13R,1.700000X1.700000*%
%ADD14O,1.700000X1.700000*%
%ADD15C,2.000000*%
%ADD16C,1.350000*%
%ADD17R,1.800000X1.350000*%
%ADD18C,1.600000*%
%ADD19O,1.600000X1.600000*%
%ADD20C,0.600000*%
%ADD21C,0.250000*%
G04 APERTURE END LIST*
D10*
D11*
X134620000Y-68580000D03*
D12*
X134620000Y-71120000D03*
D13*
X102870000Y-53340000D03*
D14*
X105410000Y-53340000D03*
D15*
X143184000Y-73406000D03*
X138684000Y-73406000D03*
X143184000Y-66906000D03*
X138684000Y-66906000D03*
D16*
X142835000Y-63760000D03*
D17*
X141835000Y-63760000D03*
D16*
X142835000Y-49760000D03*
X142835000Y-51760000D03*
X142835000Y-53760000D03*
X142835000Y-55760000D03*
X142835000Y-57760000D03*
X142835000Y-59760000D03*
X142835000Y-61760000D03*
D17*
X141835000Y-49760000D03*
X141835000Y-51760000D03*
X141835000Y-53760000D03*
X141835000Y-55760000D03*
X141835000Y-57760000D03*
X141835000Y-59760000D03*
X141835000Y-61760000D03*
D13*
X105410000Y-49530000D03*
D14*
X107950000Y-49530000D03*
D13*
X110490000Y-76200000D03*
D14*
X107950000Y-76200000D03*
X105410000Y-76200000D03*
X102870000Y-76200000D03*
D13*
X123190000Y-76200000D03*
D14*
X125730000Y-76200000D03*
X128270000Y-76200000D03*
X130810000Y-76200000D03*
D13*
X128270000Y-53340000D03*
D14*
X130810000Y-53340000D03*
X133350000Y-53340000D03*
D13*
X118110000Y-53340000D03*
D14*
X120650000Y-53340000D03*
X123190000Y-53340000D03*
D13*
X110490000Y-53340000D03*
D14*
X113030000Y-53340000D03*
D13*
X134620000Y-57150000D03*
D14*
X134620000Y-59690000D03*
X134620000Y-62230000D03*
X134620000Y-64770000D03*
D18*
X143510000Y-76200000D03*
D19*
X133350000Y-76200000D03*
D18*
X125730000Y-49530000D03*
D19*
X135890000Y-49530000D03*
D18*
X113030000Y-49530000D03*
D19*
X123190000Y-49530000D03*
D12*
X130810000Y-57150000D03*
X128270000Y-57150000D03*
X125730000Y-57150000D03*
X123190000Y-57150000D03*
X120650000Y-57150000D03*
X118110000Y-57150000D03*
X115570000Y-57150000D03*
X113030000Y-57150000D03*
X110490000Y-57150000D03*
X107950000Y-57150000D03*
X105410000Y-57150000D03*
X102870000Y-57150000D03*
X102870000Y-72390000D03*
X105410000Y-72390000D03*
X107950000Y-72390000D03*
X110490000Y-72390000D03*
X113030000Y-72390000D03*
X115570000Y-72390000D03*
X118110000Y-72390000D03*
X120650000Y-72390000D03*
X123190000Y-72390000D03*
X125730000Y-72390000D03*
X128270000Y-72390000D03*
X130810000Y-72390000D03*
X114300000Y-59690000D03*
X111760000Y-59690000D03*
D20*
X130810000Y-60325000D03*
X118745000Y-66040000D03*
X116205000Y-66040000D03*
X111760000Y-74930000D03*
X109220000Y-74930000D03*
X112395000Y-73660000D03*
X109855000Y-74295000D03*
X104775000Y-54610000D03*
X118745000Y-58420000D03*
X122555000Y-58420000D03*
D21*
X109854301Y-73659301D02*
X110489301Y-73659301D01*
X111125000Y-74295000D02*
X111125000Y-75565000D01*
X110489301Y-73659301D02*
X111125000Y-74295000D01*
X111125000Y-75565000D02*
X110490000Y-76200000D01*
X108585000Y-73659301D02*
X109854301Y-73659301D01*
X108585000Y-73659301D02*
X108585000Y-73659301D01*
X104775000Y-55880000D02*
X108585000Y-55880000D01*
X104140000Y-56515000D02*
X104775000Y-55880000D01*
X104775000Y-55880000D02*
X104140000Y-55245000D01*
X108585000Y-55880000D02*
X109855000Y-57150000D01*
X104140000Y-53975000D02*
X104140000Y-55245000D01*
X105410000Y-49530000D02*
X104140000Y-50800000D01*
X104140000Y-50800000D02*
X104140000Y-51435000D01*
X105410000Y-49530000D02*
X106680000Y-50800000D01*
X109855000Y-57150000D02*
X110490000Y-57150000D01*
X104140000Y-66675000D02*
X104140000Y-73025000D01*
X104774301Y-73659301D02*
X108585000Y-73659301D01*
X104140000Y-73025000D02*
X104774301Y-73659301D01*
X104140000Y-60960000D02*
X104140000Y-66675000D01*
X104140000Y-51435000D02*
X104140000Y-53975000D01*
X104140000Y-56515000D02*
X104140000Y-60960000D01*
X141835000Y-49760000D02*
X137565000Y-49760000D01*
X137565000Y-49760000D02*
X136525000Y-50800000D01*
X136525000Y-50800000D02*
X106680000Y-50800000D01*
X141835000Y-49760000D02*
X142835000Y-49760000D01*
X141835000Y-51760000D02*
X142835000Y-51760000D01*
X134620000Y-71120000D02*
X134620000Y-71755000D01*
X134620000Y-71755000D02*
X139065000Y-76200000D01*
X139065000Y-76200000D02*
X143510000Y-76200000D01*
X142875000Y-76200000D02*
X143510000Y-76200000D01*
X142875000Y-76200000D02*
X143510000Y-76200000D01*
X141835000Y-59760000D02*
X142835000Y-59760000D01*
X128905000Y-73660000D02*
X130175000Y-73660000D01*
X130175000Y-73660000D02*
X131445000Y-74930000D01*
X131445000Y-74930000D02*
X132715000Y-76200000D01*
X132715000Y-76200000D02*
X133350000Y-76200000D01*
X118745000Y-73660000D02*
X118110000Y-73025000D01*
X128905000Y-73660000D02*
X118745000Y-73660000D01*
X118110000Y-73025000D02*
X118110000Y-72390000D01*
X118110000Y-73025000D02*
X118110000Y-72390000D01*
X138684000Y-66906000D02*
X138684000Y-67056000D01*
X138684000Y-67056000D02*
X135890000Y-69850000D01*
X135890000Y-69850000D02*
X131445000Y-69850000D01*
X131445000Y-69850000D02*
X128905000Y-72390000D01*
X128905000Y-72390000D02*
X128270000Y-72390000D01*
X117475000Y-68580000D02*
X120650000Y-71755000D01*
X120650000Y-71755000D02*
X120650000Y-72390000D01*
X117475000Y-67310000D02*
X117475000Y-68580000D01*
X117475000Y-67310000D02*
X117475000Y-60960000D01*
X119380000Y-56515000D02*
X121920000Y-53975000D01*
X121920000Y-53975000D02*
X122555000Y-53340000D01*
X122555000Y-53340000D02*
X123190000Y-53340000D01*
X122555000Y-53340000D02*
X123190000Y-53340000D01*
X119380000Y-58420000D02*
X119380000Y-59055000D01*
X119380000Y-59055000D02*
X117475000Y-60960000D01*
X119380000Y-59055000D02*
X117475000Y-60960000D01*
X119380000Y-56515000D02*
X119380000Y-58420000D01*
X133350000Y-53340000D02*
X131445000Y-55245000D01*
X121920000Y-56515000D02*
X123190000Y-55245000D01*
X123190000Y-55245000D02*
X128905000Y-55245000D01*
X131445000Y-55245000D02*
X128905000Y-55245000D01*
X121920000Y-56515000D02*
X121920000Y-57785000D01*
X118110000Y-67310000D02*
X118110000Y-67945000D01*
X118110000Y-67945000D02*
X122555000Y-72390000D01*
X122555000Y-72390000D02*
X123190000Y-72390000D01*
X121285000Y-58420000D02*
X118110000Y-61595000D01*
X118110000Y-61595000D02*
X118110000Y-67310000D01*
X121285000Y-58420000D02*
X121920000Y-57785000D01*
X135255000Y-63500000D02*
X140335000Y-63500000D01*
X140595000Y-63760000D02*
X141835000Y-63760000D01*
X140335000Y-63500000D02*
X140595000Y-63760000D01*
X135255000Y-63500000D02*
X134620000Y-63500000D01*
X133985000Y-63500000D02*
X134620000Y-63500000D01*
X133350000Y-62865000D02*
X133985000Y-63500000D01*
X130810000Y-60325000D02*
X133350000Y-62865000D01*
X141835000Y-63760000D02*
X142835000Y-63760000D01*
X120015000Y-66040000D02*
X118745000Y-66040000D01*
X113030000Y-69215000D02*
X113030000Y-72390000D01*
X116205000Y-66040000D02*
X113030000Y-69215000D01*
X137795000Y-64770000D02*
X136525000Y-66040000D01*
X136525000Y-66040000D02*
X120015000Y-66040000D01*
X113030000Y-71755000D02*
X113030000Y-72390000D01*
X140335000Y-64770000D02*
X137795000Y-64770000D01*
X143510000Y-64770000D02*
X140335000Y-64770000D01*
X144145000Y-62230000D02*
X144145000Y-64135000D01*
X141835000Y-61760000D02*
X143675000Y-61760000D01*
X143675000Y-61760000D02*
X144145000Y-62230000D01*
X143510000Y-64770000D02*
X144145000Y-64135000D01*
X141835000Y-61760000D02*
X142835000Y-61760000D01*
X114617500Y-74612500D02*
X116522500Y-74612500D01*
X116522500Y-74612500D02*
X116840000Y-74930000D01*
X126365000Y-74930000D02*
X127635000Y-76200000D01*
X127635000Y-76200000D02*
X128270000Y-76200000D01*
X111760000Y-68580000D02*
X111760000Y-74930000D01*
X111760000Y-74930000D02*
X114300000Y-74930000D01*
X126365000Y-74930000D02*
X117475000Y-74930000D01*
X114300000Y-74930000D02*
X114617500Y-74612500D01*
X116840000Y-74930000D02*
X117475000Y-74930000D01*
X111760000Y-59690000D02*
X111760000Y-68580000D01*
X105410000Y-75565000D02*
X106045000Y-74930000D01*
X106045000Y-74930000D02*
X109220000Y-74930000D01*
X111760000Y-74930000D02*
X111760000Y-74930000D01*
X105410000Y-76200000D02*
X105410000Y-75565000D01*
X127635000Y-74295000D02*
X128270000Y-74295000D01*
X128270000Y-74295000D02*
X130175000Y-76200000D01*
X130175000Y-76200000D02*
X130810000Y-76200000D01*
X112395000Y-73660000D02*
X113665000Y-73660000D01*
X116205000Y-73660000D02*
X116840000Y-73025000D01*
X113665000Y-73660000D02*
X116205000Y-73660000D01*
X130810000Y-76200000D02*
X130175000Y-76200000D01*
X102870000Y-76200000D02*
X104775000Y-74295000D01*
X114300000Y-59690000D02*
X116840000Y-62230000D01*
X114300000Y-59690000D02*
X114300000Y-59955004D01*
X118110000Y-74295000D02*
X117475000Y-73660000D01*
X117475000Y-73660000D02*
X116840000Y-73025000D01*
X118110000Y-74295000D02*
X118745000Y-74295000D01*
X109855000Y-74295000D02*
X104775000Y-74295000D01*
X116840000Y-71755000D02*
X116840000Y-62495004D01*
X116840000Y-62495004D02*
X116840000Y-62230000D01*
X116840000Y-71755000D02*
X116840000Y-73025000D01*
X118110000Y-74295000D02*
X118745000Y-74295000D01*
X118745000Y-74295000D02*
X127635000Y-74295000D01*
X125095000Y-54610000D02*
X125730000Y-54610000D01*
X125730000Y-54610000D02*
X127000000Y-54610000D01*
X127000000Y-54610000D02*
X128270000Y-53340000D01*
X122555000Y-54610000D02*
X121920000Y-55245000D01*
X121920000Y-55245000D02*
X120650000Y-56515000D01*
X120650000Y-56515000D02*
X120650000Y-57150000D01*
X122555000Y-54610000D02*
X125095000Y-54610000D01*
X127000000Y-54610000D02*
X128270000Y-53340000D01*
X120650000Y-57150000D02*
X120650000Y-56515000D01*
X118110000Y-57150000D02*
X118110000Y-53340000D01*
X111125000Y-53340000D02*
X114935000Y-57150000D01*
X114935000Y-57150000D02*
X115570000Y-57150000D01*
X114935000Y-57150000D02*
X115570000Y-57150000D01*
X111125000Y-55880000D02*
X112395000Y-57150000D01*
X112395000Y-57150000D02*
X113030000Y-57150000D01*
X106045000Y-54610000D02*
X104775000Y-54610000D01*
X105410000Y-54610000D02*
X106045000Y-54610000D01*
X106045000Y-54610000D02*
X108585000Y-54610000D01*
X109855000Y-54610000D02*
X111125000Y-55880000D01*
X109855000Y-54610000D02*
X108585000Y-54610000D01*
X141835000Y-53760000D02*
X141185000Y-53760000D01*
X141185000Y-53760000D02*
X137795000Y-57150000D01*
X137795000Y-57150000D02*
X134620000Y-57150000D01*
X130175000Y-58420000D02*
X128905000Y-58420000D01*
X133350000Y-58420000D02*
X134620000Y-57150000D01*
X130175000Y-58420000D02*
X133350000Y-58420000D01*
X128905000Y-58420000D02*
X128270000Y-57785000D01*
X128270000Y-57785000D02*
X128270000Y-57150000D01*
X134620000Y-57150000D02*
X135255000Y-57150000D01*
X141835000Y-53760000D02*
X142835000Y-53760000D01*
X132715000Y-59055000D02*
X133985000Y-59055000D01*
X133985000Y-59055000D02*
X134620000Y-59690000D01*
X141835000Y-55760000D02*
X141090000Y-55760000D01*
X141090000Y-55760000D02*
X137160000Y-59690000D01*
X137160000Y-59690000D02*
X134620000Y-59690000D01*
X135255000Y-59690000D02*
X134620000Y-59690000D01*
X123825000Y-55880000D02*
X123190000Y-56515000D01*
X123190000Y-56515000D02*
X123190000Y-57150000D01*
X123190000Y-57150000D02*
X123190000Y-56515000D01*
X123825000Y-55880000D02*
X124460000Y-55880000D01*
X128270000Y-59055000D02*
X132715000Y-59055000D01*
X128270000Y-59055000D02*
X127000000Y-57785000D01*
X125095000Y-55880000D02*
X124460000Y-55880000D01*
X127000000Y-57785000D02*
X127000000Y-56515000D01*
X127000000Y-56515000D02*
X126365000Y-55880000D01*
X126365000Y-55880000D02*
X125095000Y-55880000D01*
X141835000Y-55760000D02*
X142835000Y-55760000D01*
X134620000Y-62230000D02*
X136525000Y-62230000D01*
X136525000Y-62230000D02*
X140995000Y-57760000D01*
X141835000Y-57760000D02*
X140995000Y-57760000D01*
X130810000Y-59690000D02*
X131445000Y-59690000D01*
X131445000Y-59690000D02*
X133985000Y-62230000D01*
X133985000Y-62230000D02*
X134620000Y-62230000D01*
X127635000Y-59690000D02*
X130810000Y-59690000D01*
X125730000Y-57150000D02*
X125730000Y-57785000D01*
X125730000Y-57785000D02*
X127635000Y-59690000D01*
X141835000Y-57760000D02*
X142835000Y-57760000D01*
X128905000Y-60325000D02*
X129540000Y-60325000D01*
X129540000Y-60325000D02*
X133985000Y-64770000D01*
X133985000Y-64770000D02*
X134620000Y-64770000D01*
X127000000Y-60325000D02*
X128905000Y-60325000D01*
X112395000Y-58420000D02*
X109220000Y-58420000D01*
X109220000Y-58420000D02*
X107950000Y-57150000D01*
X124460000Y-58420000D02*
X125095000Y-58420000D01*
X125095000Y-58420000D02*
X127000000Y-60325000D01*
X124460000Y-58420000D02*
X122555000Y-58420000D01*
X116840000Y-58420000D02*
X117475000Y-58420000D01*
X117475000Y-58420000D02*
X118745000Y-58420000D01*
X116205000Y-58420000D02*
X116840000Y-58420000D01*
X133985000Y-64770000D02*
X134620000Y-64770000D01*
X116205000Y-58420000D02*
X112395000Y-58420000D01*
X122555000Y-58420000D02*
X122555000Y-58420000D01*
X134620000Y-64770000D02*
X133985000Y-64770000D01*
M02*
