%FSLAX45Y45*%
G04 Gerber Fmt 4.5, Leading zero omitted, Abs format (unit mm)*
G04 Created by KiCad (PCBNEW 4.0.7) date 08/02/18 21:55:23*
%MOMM*%
%LPD*%
G01*
G04 APERTURE LIST*
%ADD10C,0.127000*%
%ADD11C,0.150000*%
%ADD12C,0.200000*%
%ADD13C,0.300000*%
G04 APERTURE END LIST*
D10*
D11*
X10096500Y-5715000D02*
X10096500Y-4762500D01*
X10096500Y-4762500D02*
X14414500Y-4762500D01*
X10096500Y-7239000D02*
X10096500Y-7810500D01*
X10160000Y-5778500D02*
X10096500Y-5715000D01*
X10160000Y-7175500D02*
X10160000Y-5778500D01*
X10096500Y-7239000D02*
X10160000Y-7175500D01*
X14541500Y-7810500D02*
X10096500Y-7810500D01*
X14541500Y-4762500D02*
X14541500Y-7810500D01*
X14478000Y-4762500D02*
X14541500Y-4762500D01*
X14414500Y-4762500D02*
X14478000Y-4762500D01*
D12*
X10457500Y-5441000D02*
X10497500Y-5481000D01*
X10497500Y-5441000D02*
X10457500Y-5481000D01*
X10902000Y-7473000D02*
X10942000Y-7513000D01*
X10942000Y-7473000D02*
X10902000Y-7513000D01*
X10965500Y-7409500D02*
X11005500Y-7449500D01*
X11005500Y-7409500D02*
X10965500Y-7449500D01*
X11156000Y-7473000D02*
X11196000Y-7513000D01*
X11196000Y-7473000D02*
X11156000Y-7513000D01*
X11219500Y-7346000D02*
X11259500Y-7386000D01*
X11259500Y-7346000D02*
X11219500Y-7386000D01*
X11600500Y-6584000D02*
X11640500Y-6624000D01*
X11640500Y-6584000D02*
X11600500Y-6624000D01*
X11854500Y-5822000D02*
X11894500Y-5862000D01*
X11894500Y-5822000D02*
X11854500Y-5862000D01*
X11854500Y-6584000D02*
X11894500Y-6624000D01*
X11894500Y-6584000D02*
X11854500Y-6624000D01*
X12235500Y-5822000D02*
X12275500Y-5862000D01*
X12275500Y-5822000D02*
X12235500Y-5862000D01*
X13061000Y-6012500D02*
X13101000Y-6052500D01*
X13101000Y-6012500D02*
X13061000Y-6052500D01*
X11343000Y-4953000D02*
G75*
G03X11343000Y-4953000I-40000J0D01*
G01*
X12359000Y-4953000D02*
G75*
G03X12359000Y-4953000I-40000J0D01*
G01*
X12613000Y-4953000D02*
G75*
G03X12613000Y-4953000I-40000J0D01*
G01*
X13375000Y-7620000D02*
G75*
G03X13375000Y-7620000I-40000J0D01*
G01*
X13629000Y-4953000D02*
G75*
G03X13629000Y-4953000I-40000J0D01*
G01*
X14323500Y-4976000D02*
G75*
G03X14323500Y-4976000I-40000J0D01*
G01*
X14323500Y-5176000D02*
G75*
G03X14323500Y-5176000I-40000J0D01*
G01*
X14323500Y-5376000D02*
G75*
G03X14323500Y-5376000I-40000J0D01*
G01*
X14323500Y-5576000D02*
G75*
G03X14323500Y-5576000I-40000J0D01*
G01*
X14323500Y-5776000D02*
G75*
G03X14323500Y-5776000I-40000J0D01*
G01*
X14323500Y-5976000D02*
G75*
G03X14323500Y-5976000I-40000J0D01*
G01*
X14323500Y-6176000D02*
G75*
G03X14323500Y-6176000I-40000J0D01*
G01*
X14323500Y-6376000D02*
G75*
G03X14323500Y-6376000I-40000J0D01*
G01*
X14391000Y-7620000D02*
G75*
G03X14391000Y-7620000I-40000J0D01*
G01*
X13462000Y-5670000D02*
X13462000Y-5760000D01*
X13417000Y-5715000D02*
X13507000Y-5715000D01*
X13462000Y-5924000D02*
X13462000Y-6014000D01*
X13417000Y-5969000D02*
X13507000Y-5969000D01*
X13462000Y-6178000D02*
X13462000Y-6268000D01*
X13417000Y-6223000D02*
X13507000Y-6223000D01*
X13462000Y-6432000D02*
X13462000Y-6522000D01*
X13417000Y-6477000D02*
X13507000Y-6477000D01*
X13462000Y-6813000D02*
X13462000Y-6903000D01*
X13417000Y-6858000D02*
X13507000Y-6858000D01*
X13462000Y-7067000D02*
X13462000Y-7157000D01*
X13417000Y-7112000D02*
X13507000Y-7112000D01*
X10322356Y-5369356D02*
X10322356Y-5298644D01*
X10251644Y-5298644D01*
X10251644Y-5369356D01*
X10322356Y-5369356D01*
X10322356Y-5750356D02*
X10322356Y-5679644D01*
X10251644Y-5679644D01*
X10251644Y-5750356D01*
X10322356Y-5750356D01*
X10322356Y-7274356D02*
X10322356Y-7203644D01*
X10251644Y-7203644D01*
X10251644Y-7274356D01*
X10322356Y-7274356D01*
X10322356Y-7655356D02*
X10322356Y-7584644D01*
X10251644Y-7584644D01*
X10251644Y-7655356D01*
X10322356Y-7655356D01*
X10576356Y-4988356D02*
X10576356Y-4917644D01*
X10505644Y-4917644D01*
X10505644Y-4988356D01*
X10576356Y-4988356D01*
X10576356Y-5369356D02*
X10576356Y-5298644D01*
X10505644Y-5298644D01*
X10505644Y-5369356D01*
X10576356Y-5369356D01*
X10576356Y-5750356D02*
X10576356Y-5679644D01*
X10505644Y-5679644D01*
X10505644Y-5750356D01*
X10576356Y-5750356D01*
X10576356Y-7274356D02*
X10576356Y-7203644D01*
X10505644Y-7203644D01*
X10505644Y-7274356D01*
X10576356Y-7274356D01*
X10576356Y-7655356D02*
X10576356Y-7584644D01*
X10505644Y-7584644D01*
X10505644Y-7655356D01*
X10576356Y-7655356D01*
X10830356Y-4988356D02*
X10830356Y-4917644D01*
X10759644Y-4917644D01*
X10759644Y-4988356D01*
X10830356Y-4988356D01*
X10830356Y-5750356D02*
X10830356Y-5679644D01*
X10759644Y-5679644D01*
X10759644Y-5750356D01*
X10830356Y-5750356D01*
X10830356Y-7274356D02*
X10830356Y-7203644D01*
X10759644Y-7203644D01*
X10759644Y-7274356D01*
X10830356Y-7274356D01*
X10830356Y-7655356D02*
X10830356Y-7584644D01*
X10759644Y-7584644D01*
X10759644Y-7655356D01*
X10830356Y-7655356D01*
X11084356Y-5369356D02*
X11084356Y-5298644D01*
X11013644Y-5298644D01*
X11013644Y-5369356D01*
X11084356Y-5369356D01*
X11084356Y-5750356D02*
X11084356Y-5679644D01*
X11013644Y-5679644D01*
X11013644Y-5750356D01*
X11084356Y-5750356D01*
X11084356Y-7274356D02*
X11084356Y-7203644D01*
X11013644Y-7203644D01*
X11013644Y-7274356D01*
X11084356Y-7274356D01*
X11084356Y-7655356D02*
X11084356Y-7584644D01*
X11013644Y-7584644D01*
X11013644Y-7655356D01*
X11084356Y-7655356D01*
X11211356Y-6004356D02*
X11211356Y-5933644D01*
X11140644Y-5933644D01*
X11140644Y-6004356D01*
X11211356Y-6004356D01*
X11338356Y-5369356D02*
X11338356Y-5298644D01*
X11267644Y-5298644D01*
X11267644Y-5369356D01*
X11338356Y-5369356D01*
X11338356Y-5750356D02*
X11338356Y-5679644D01*
X11267644Y-5679644D01*
X11267644Y-5750356D01*
X11338356Y-5750356D01*
X11338356Y-7274356D02*
X11338356Y-7203644D01*
X11267644Y-7203644D01*
X11267644Y-7274356D01*
X11338356Y-7274356D01*
X11465356Y-6004356D02*
X11465356Y-5933644D01*
X11394644Y-5933644D01*
X11394644Y-6004356D01*
X11465356Y-6004356D01*
X11592356Y-5750356D02*
X11592356Y-5679644D01*
X11521644Y-5679644D01*
X11521644Y-5750356D01*
X11592356Y-5750356D01*
X11592356Y-7274356D02*
X11592356Y-7203644D01*
X11521644Y-7203644D01*
X11521644Y-7274356D01*
X11592356Y-7274356D01*
X11846356Y-5369356D02*
X11846356Y-5298644D01*
X11775644Y-5298644D01*
X11775644Y-5369356D01*
X11846356Y-5369356D01*
X11846356Y-5750356D02*
X11846356Y-5679644D01*
X11775644Y-5679644D01*
X11775644Y-5750356D01*
X11846356Y-5750356D01*
X11846356Y-7274356D02*
X11846356Y-7203644D01*
X11775644Y-7203644D01*
X11775644Y-7274356D01*
X11846356Y-7274356D01*
X12100356Y-5369356D02*
X12100356Y-5298644D01*
X12029644Y-5298644D01*
X12029644Y-5369356D01*
X12100356Y-5369356D01*
X12100356Y-5750356D02*
X12100356Y-5679644D01*
X12029644Y-5679644D01*
X12029644Y-5750356D01*
X12100356Y-5750356D01*
X12100356Y-7274356D02*
X12100356Y-7203644D01*
X12029644Y-7203644D01*
X12029644Y-7274356D01*
X12100356Y-7274356D01*
X12354356Y-5369356D02*
X12354356Y-5298644D01*
X12283644Y-5298644D01*
X12283644Y-5369356D01*
X12354356Y-5369356D01*
X12354356Y-5750356D02*
X12354356Y-5679644D01*
X12283644Y-5679644D01*
X12283644Y-5750356D01*
X12354356Y-5750356D01*
X12354356Y-7274356D02*
X12354356Y-7203644D01*
X12283644Y-7203644D01*
X12283644Y-7274356D01*
X12354356Y-7274356D01*
X12354356Y-7655356D02*
X12354356Y-7584644D01*
X12283644Y-7584644D01*
X12283644Y-7655356D01*
X12354356Y-7655356D01*
X12608356Y-5750356D02*
X12608356Y-5679644D01*
X12537644Y-5679644D01*
X12537644Y-5750356D01*
X12608356Y-5750356D01*
X12608356Y-7274356D02*
X12608356Y-7203644D01*
X12537644Y-7203644D01*
X12537644Y-7274356D01*
X12608356Y-7274356D01*
X12608356Y-7655356D02*
X12608356Y-7584644D01*
X12537644Y-7584644D01*
X12537644Y-7655356D01*
X12608356Y-7655356D01*
X12862356Y-5369356D02*
X12862356Y-5298644D01*
X12791644Y-5298644D01*
X12791644Y-5369356D01*
X12862356Y-5369356D01*
X12862356Y-5750356D02*
X12862356Y-5679644D01*
X12791644Y-5679644D01*
X12791644Y-5750356D01*
X12862356Y-5750356D01*
X12862356Y-7274356D02*
X12862356Y-7203644D01*
X12791644Y-7203644D01*
X12791644Y-7274356D01*
X12862356Y-7274356D01*
X12862356Y-7655356D02*
X12862356Y-7584644D01*
X12791644Y-7584644D01*
X12791644Y-7655356D01*
X12862356Y-7655356D01*
X13116356Y-5369356D02*
X13116356Y-5298644D01*
X13045644Y-5298644D01*
X13045644Y-5369356D01*
X13116356Y-5369356D01*
X13116356Y-5750356D02*
X13116356Y-5679644D01*
X13045644Y-5679644D01*
X13045644Y-5750356D01*
X13116356Y-5750356D01*
X13116356Y-7274356D02*
X13116356Y-7203644D01*
X13045644Y-7203644D01*
X13045644Y-7274356D01*
X13116356Y-7274356D01*
X13116356Y-7655356D02*
X13116356Y-7584644D01*
X13045644Y-7584644D01*
X13045644Y-7655356D01*
X13116356Y-7655356D01*
X13370356Y-5369356D02*
X13370356Y-5298644D01*
X13299644Y-5298644D01*
X13299644Y-5369356D01*
X13370356Y-5369356D01*
X13868400Y-6745600D02*
X13923400Y-6690600D01*
X13868400Y-6635600D01*
X13813400Y-6690600D01*
X13868400Y-6745600D01*
X13868400Y-7395600D02*
X13923400Y-7340600D01*
X13868400Y-7285600D01*
X13813400Y-7340600D01*
X13868400Y-7395600D01*
X14318400Y-6745600D02*
X14373400Y-6690600D01*
X14318400Y-6635600D01*
X14263400Y-6690600D01*
X14318400Y-6745600D01*
X14318400Y-7395600D02*
X14373400Y-7340600D01*
X14318400Y-7285600D01*
X14263400Y-7340600D01*
X14318400Y-7395600D01*
D13*
X10360429Y-8283714D02*
X10360429Y-7983714D01*
X10431857Y-7983714D01*
X10474714Y-7998000D01*
X10503286Y-8026571D01*
X10517571Y-8055143D01*
X10531857Y-8112286D01*
X10531857Y-8155143D01*
X10517571Y-8212286D01*
X10503286Y-8240857D01*
X10474714Y-8269429D01*
X10431857Y-8283714D01*
X10360429Y-8283714D01*
X10660429Y-8283714D02*
X10660429Y-8083714D01*
X10660429Y-8140857D02*
X10674714Y-8112286D01*
X10689000Y-8098000D01*
X10717571Y-8083714D01*
X10746143Y-8083714D01*
X10846143Y-8283714D02*
X10846143Y-8083714D01*
X10846143Y-7983714D02*
X10831857Y-7998000D01*
X10846143Y-8012286D01*
X10860429Y-7998000D01*
X10846143Y-7983714D01*
X10846143Y-8012286D01*
X11031857Y-8283714D02*
X11003286Y-8269429D01*
X10989000Y-8240857D01*
X10989000Y-7983714D01*
X11189000Y-8283714D02*
X11160429Y-8269429D01*
X11146143Y-8240857D01*
X11146143Y-7983714D01*
X11531857Y-8283714D02*
X11531857Y-7983714D01*
X11631857Y-8198000D01*
X11731857Y-7983714D01*
X11731857Y-8283714D01*
X12003286Y-8283714D02*
X12003286Y-8126571D01*
X11989000Y-8098000D01*
X11960428Y-8083714D01*
X11903286Y-8083714D01*
X11874714Y-8098000D01*
X12003286Y-8269429D02*
X11974714Y-8283714D01*
X11903286Y-8283714D01*
X11874714Y-8269429D01*
X11860428Y-8240857D01*
X11860428Y-8212286D01*
X11874714Y-8183714D01*
X11903286Y-8169429D01*
X11974714Y-8169429D01*
X12003286Y-8155143D01*
X12146143Y-8083714D02*
X12146143Y-8383714D01*
X12146143Y-8098000D02*
X12174714Y-8083714D01*
X12231857Y-8083714D01*
X12260428Y-8098000D01*
X12274714Y-8112286D01*
X12289000Y-8140857D01*
X12289000Y-8226571D01*
X12274714Y-8255143D01*
X12260428Y-8269429D01*
X12231857Y-8283714D01*
X12174714Y-8283714D01*
X12146143Y-8269429D01*
X12417571Y-8255143D02*
X12431857Y-8269429D01*
X12417571Y-8283714D01*
X12403286Y-8269429D01*
X12417571Y-8255143D01*
X12417571Y-8283714D01*
X12417571Y-8098000D02*
X12431857Y-8112286D01*
X12417571Y-8126571D01*
X12403286Y-8112286D01*
X12417571Y-8098000D01*
X12417571Y-8126571D01*
X10049000Y-8758000D02*
X10089000Y-8798000D01*
X10089000Y-8758000D02*
X10049000Y-8798000D01*
X10417571Y-8613714D02*
X10446143Y-8613714D01*
X10474714Y-8628000D01*
X10489000Y-8642286D01*
X10503286Y-8670857D01*
X10517571Y-8728000D01*
X10517571Y-8799429D01*
X10503286Y-8856572D01*
X10489000Y-8885143D01*
X10474714Y-8899429D01*
X10446143Y-8913714D01*
X10417571Y-8913714D01*
X10389000Y-8899429D01*
X10374714Y-8885143D01*
X10360429Y-8856572D01*
X10346143Y-8799429D01*
X10346143Y-8728000D01*
X10360429Y-8670857D01*
X10374714Y-8642286D01*
X10389000Y-8628000D01*
X10417571Y-8613714D01*
X10646143Y-8885143D02*
X10660429Y-8899429D01*
X10646143Y-8913714D01*
X10631857Y-8899429D01*
X10646143Y-8885143D01*
X10646143Y-8913714D01*
X10917571Y-8713714D02*
X10917571Y-8913714D01*
X10846143Y-8599429D02*
X10774714Y-8813714D01*
X10960428Y-8813714D01*
X11131857Y-8613714D02*
X11160429Y-8613714D01*
X11189000Y-8628000D01*
X11203286Y-8642286D01*
X11217571Y-8670857D01*
X11231857Y-8728000D01*
X11231857Y-8799429D01*
X11217571Y-8856572D01*
X11203286Y-8885143D01*
X11189000Y-8899429D01*
X11160429Y-8913714D01*
X11131857Y-8913714D01*
X11103286Y-8899429D01*
X11089000Y-8885143D01*
X11074714Y-8856572D01*
X11060429Y-8799429D01*
X11060429Y-8728000D01*
X11074714Y-8670857D01*
X11089000Y-8642286D01*
X11103286Y-8628000D01*
X11131857Y-8613714D01*
X11360428Y-8913714D02*
X11360428Y-8713714D01*
X11360428Y-8742286D02*
X11374714Y-8728000D01*
X11403286Y-8713714D01*
X11446143Y-8713714D01*
X11474714Y-8728000D01*
X11489000Y-8756572D01*
X11489000Y-8913714D01*
X11489000Y-8756572D02*
X11503286Y-8728000D01*
X11531857Y-8713714D01*
X11574714Y-8713714D01*
X11603286Y-8728000D01*
X11617571Y-8756572D01*
X11617571Y-8913714D01*
X11760428Y-8913714D02*
X11760428Y-8713714D01*
X11760428Y-8742286D02*
X11774714Y-8728000D01*
X11803286Y-8713714D01*
X11846143Y-8713714D01*
X11874714Y-8728000D01*
X11889000Y-8756572D01*
X11889000Y-8913714D01*
X11889000Y-8756572D02*
X11903286Y-8728000D01*
X11931857Y-8713714D01*
X11974714Y-8713714D01*
X12003286Y-8728000D01*
X12017571Y-8756572D01*
X12017571Y-8913714D01*
X12603286Y-8599429D02*
X12346143Y-8985143D01*
X12989000Y-8613714D02*
X13017571Y-8613714D01*
X13046143Y-8628000D01*
X13060428Y-8642286D01*
X13074714Y-8670857D01*
X13089000Y-8728000D01*
X13089000Y-8799429D01*
X13074714Y-8856572D01*
X13060428Y-8885143D01*
X13046143Y-8899429D01*
X13017571Y-8913714D01*
X12989000Y-8913714D01*
X12960428Y-8899429D01*
X12946143Y-8885143D01*
X12931857Y-8856572D01*
X12917571Y-8799429D01*
X12917571Y-8728000D01*
X12931857Y-8670857D01*
X12946143Y-8642286D01*
X12960428Y-8628000D01*
X12989000Y-8613714D01*
X13217571Y-8885143D02*
X13231857Y-8899429D01*
X13217571Y-8913714D01*
X13203286Y-8899429D01*
X13217571Y-8885143D01*
X13217571Y-8913714D01*
X13417571Y-8613714D02*
X13446143Y-8613714D01*
X13474714Y-8628000D01*
X13489000Y-8642286D01*
X13503285Y-8670857D01*
X13517571Y-8728000D01*
X13517571Y-8799429D01*
X13503285Y-8856572D01*
X13489000Y-8885143D01*
X13474714Y-8899429D01*
X13446143Y-8913714D01*
X13417571Y-8913714D01*
X13389000Y-8899429D01*
X13374714Y-8885143D01*
X13360428Y-8856572D01*
X13346143Y-8799429D01*
X13346143Y-8728000D01*
X13360428Y-8670857D01*
X13374714Y-8642286D01*
X13389000Y-8628000D01*
X13417571Y-8613714D01*
X13803285Y-8913714D02*
X13631857Y-8913714D01*
X13717571Y-8913714D02*
X13717571Y-8613714D01*
X13689000Y-8656572D01*
X13660428Y-8685143D01*
X13631857Y-8699429D01*
X14060428Y-8613714D02*
X14003285Y-8613714D01*
X13974714Y-8628000D01*
X13960428Y-8642286D01*
X13931857Y-8685143D01*
X13917571Y-8742286D01*
X13917571Y-8856572D01*
X13931857Y-8885143D01*
X13946143Y-8899429D01*
X13974714Y-8913714D01*
X14031857Y-8913714D01*
X14060428Y-8899429D01*
X14074714Y-8885143D01*
X14089000Y-8856572D01*
X14089000Y-8785143D01*
X14074714Y-8756572D01*
X14060428Y-8742286D01*
X14031857Y-8728000D01*
X13974714Y-8728000D01*
X13946143Y-8742286D01*
X13931857Y-8756572D01*
X13917571Y-8785143D01*
X14203286Y-8613714D02*
X14203286Y-8670857D01*
X14317571Y-8613714D02*
X14317571Y-8670857D01*
X14760428Y-9028000D02*
X14746143Y-9013714D01*
X14717571Y-8970857D01*
X14703285Y-8942286D01*
X14689000Y-8899429D01*
X14674714Y-8828000D01*
X14674714Y-8770857D01*
X14689000Y-8699429D01*
X14703285Y-8656572D01*
X14717571Y-8628000D01*
X14746143Y-8585143D01*
X14760428Y-8570857D01*
X15031857Y-8913714D02*
X14860428Y-8913714D01*
X14946143Y-8913714D02*
X14946143Y-8613714D01*
X14917571Y-8656572D01*
X14889000Y-8685143D01*
X14860428Y-8699429D01*
X15217571Y-8613714D02*
X15246143Y-8613714D01*
X15274714Y-8628000D01*
X15289000Y-8642286D01*
X15303285Y-8670857D01*
X15317571Y-8728000D01*
X15317571Y-8799429D01*
X15303285Y-8856572D01*
X15289000Y-8885143D01*
X15274714Y-8899429D01*
X15246143Y-8913714D01*
X15217571Y-8913714D01*
X15189000Y-8899429D01*
X15174714Y-8885143D01*
X15160428Y-8856572D01*
X15146143Y-8799429D01*
X15146143Y-8728000D01*
X15160428Y-8670857D01*
X15174714Y-8642286D01*
X15189000Y-8628000D01*
X15217571Y-8613714D01*
X15674714Y-8913714D02*
X15674714Y-8613714D01*
X15803285Y-8913714D02*
X15803285Y-8756572D01*
X15789000Y-8728000D01*
X15760428Y-8713714D01*
X15717571Y-8713714D01*
X15689000Y-8728000D01*
X15674714Y-8742286D01*
X15989000Y-8913714D02*
X15960428Y-8899429D01*
X15946143Y-8885143D01*
X15931857Y-8856572D01*
X15931857Y-8770857D01*
X15946143Y-8742286D01*
X15960428Y-8728000D01*
X15989000Y-8713714D01*
X16031857Y-8713714D01*
X16060428Y-8728000D01*
X16074714Y-8742286D01*
X16089000Y-8770857D01*
X16089000Y-8856572D01*
X16074714Y-8885143D01*
X16060428Y-8899429D01*
X16031857Y-8913714D01*
X15989000Y-8913714D01*
X16260428Y-8913714D02*
X16231857Y-8899429D01*
X16217571Y-8870857D01*
X16217571Y-8613714D01*
X16489000Y-8899429D02*
X16460428Y-8913714D01*
X16403286Y-8913714D01*
X16374714Y-8899429D01*
X16360428Y-8870857D01*
X16360428Y-8756572D01*
X16374714Y-8728000D01*
X16403286Y-8713714D01*
X16460428Y-8713714D01*
X16489000Y-8728000D01*
X16503286Y-8756572D01*
X16503286Y-8785143D01*
X16360428Y-8813714D01*
X16617571Y-8899429D02*
X16646143Y-8913714D01*
X16703286Y-8913714D01*
X16731857Y-8899429D01*
X16746143Y-8870857D01*
X16746143Y-8856572D01*
X16731857Y-8828000D01*
X16703286Y-8813714D01*
X16660428Y-8813714D01*
X16631857Y-8799429D01*
X16617571Y-8770857D01*
X16617571Y-8756572D01*
X16631857Y-8728000D01*
X16660428Y-8713714D01*
X16703286Y-8713714D01*
X16731857Y-8728000D01*
X16846143Y-9028000D02*
X16860429Y-9013714D01*
X16889000Y-8970857D01*
X16903286Y-8942286D01*
X16917571Y-8899429D01*
X16931857Y-8828000D01*
X16931857Y-8770857D01*
X16917571Y-8699429D01*
X16903286Y-8656572D01*
X16889000Y-8628000D01*
X16860429Y-8585143D01*
X16846143Y-8570857D01*
X10089000Y-9174000D02*
G75*
G03X10089000Y-9174000I-40000J0D01*
G01*
X10417571Y-9009714D02*
X10446143Y-9009714D01*
X10474714Y-9024000D01*
X10489000Y-9038286D01*
X10503286Y-9066857D01*
X10517571Y-9124000D01*
X10517571Y-9195429D01*
X10503286Y-9252572D01*
X10489000Y-9281143D01*
X10474714Y-9295429D01*
X10446143Y-9309714D01*
X10417571Y-9309714D01*
X10389000Y-9295429D01*
X10374714Y-9281143D01*
X10360429Y-9252572D01*
X10346143Y-9195429D01*
X10346143Y-9124000D01*
X10360429Y-9066857D01*
X10374714Y-9038286D01*
X10389000Y-9024000D01*
X10417571Y-9009714D01*
X10646143Y-9281143D02*
X10660429Y-9295429D01*
X10646143Y-9309714D01*
X10631857Y-9295429D01*
X10646143Y-9281143D01*
X10646143Y-9309714D01*
X10831857Y-9138286D02*
X10803286Y-9124000D01*
X10789000Y-9109714D01*
X10774714Y-9081143D01*
X10774714Y-9066857D01*
X10789000Y-9038286D01*
X10803286Y-9024000D01*
X10831857Y-9009714D01*
X10889000Y-9009714D01*
X10917571Y-9024000D01*
X10931857Y-9038286D01*
X10946143Y-9066857D01*
X10946143Y-9081143D01*
X10931857Y-9109714D01*
X10917571Y-9124000D01*
X10889000Y-9138286D01*
X10831857Y-9138286D01*
X10803286Y-9152572D01*
X10789000Y-9166857D01*
X10774714Y-9195429D01*
X10774714Y-9252572D01*
X10789000Y-9281143D01*
X10803286Y-9295429D01*
X10831857Y-9309714D01*
X10889000Y-9309714D01*
X10917571Y-9295429D01*
X10931857Y-9281143D01*
X10946143Y-9252572D01*
X10946143Y-9195429D01*
X10931857Y-9166857D01*
X10917571Y-9152572D01*
X10889000Y-9138286D01*
X11131857Y-9009714D02*
X11160429Y-9009714D01*
X11189000Y-9024000D01*
X11203286Y-9038286D01*
X11217571Y-9066857D01*
X11231857Y-9124000D01*
X11231857Y-9195429D01*
X11217571Y-9252572D01*
X11203286Y-9281143D01*
X11189000Y-9295429D01*
X11160429Y-9309714D01*
X11131857Y-9309714D01*
X11103286Y-9295429D01*
X11089000Y-9281143D01*
X11074714Y-9252572D01*
X11060429Y-9195429D01*
X11060429Y-9124000D01*
X11074714Y-9066857D01*
X11089000Y-9038286D01*
X11103286Y-9024000D01*
X11131857Y-9009714D01*
X11360428Y-9309714D02*
X11360428Y-9109714D01*
X11360428Y-9138286D02*
X11374714Y-9124000D01*
X11403286Y-9109714D01*
X11446143Y-9109714D01*
X11474714Y-9124000D01*
X11489000Y-9152572D01*
X11489000Y-9309714D01*
X11489000Y-9152572D02*
X11503286Y-9124000D01*
X11531857Y-9109714D01*
X11574714Y-9109714D01*
X11603286Y-9124000D01*
X11617571Y-9152572D01*
X11617571Y-9309714D01*
X11760428Y-9309714D02*
X11760428Y-9109714D01*
X11760428Y-9138286D02*
X11774714Y-9124000D01*
X11803286Y-9109714D01*
X11846143Y-9109714D01*
X11874714Y-9124000D01*
X11889000Y-9152572D01*
X11889000Y-9309714D01*
X11889000Y-9152572D02*
X11903286Y-9124000D01*
X11931857Y-9109714D01*
X11974714Y-9109714D01*
X12003286Y-9124000D01*
X12017571Y-9152572D01*
X12017571Y-9309714D01*
X12603286Y-8995429D02*
X12346143Y-9381143D01*
X12989000Y-9009714D02*
X13017571Y-9009714D01*
X13046143Y-9024000D01*
X13060428Y-9038286D01*
X13074714Y-9066857D01*
X13089000Y-9124000D01*
X13089000Y-9195429D01*
X13074714Y-9252572D01*
X13060428Y-9281143D01*
X13046143Y-9295429D01*
X13017571Y-9309714D01*
X12989000Y-9309714D01*
X12960428Y-9295429D01*
X12946143Y-9281143D01*
X12931857Y-9252572D01*
X12917571Y-9195429D01*
X12917571Y-9124000D01*
X12931857Y-9066857D01*
X12946143Y-9038286D01*
X12960428Y-9024000D01*
X12989000Y-9009714D01*
X13217571Y-9281143D02*
X13231857Y-9295429D01*
X13217571Y-9309714D01*
X13203286Y-9295429D01*
X13217571Y-9281143D01*
X13217571Y-9309714D01*
X13417571Y-9009714D02*
X13446143Y-9009714D01*
X13474714Y-9024000D01*
X13489000Y-9038286D01*
X13503285Y-9066857D01*
X13517571Y-9124000D01*
X13517571Y-9195429D01*
X13503285Y-9252572D01*
X13489000Y-9281143D01*
X13474714Y-9295429D01*
X13446143Y-9309714D01*
X13417571Y-9309714D01*
X13389000Y-9295429D01*
X13374714Y-9281143D01*
X13360428Y-9252572D01*
X13346143Y-9195429D01*
X13346143Y-9124000D01*
X13360428Y-9066857D01*
X13374714Y-9038286D01*
X13389000Y-9024000D01*
X13417571Y-9009714D01*
X13617571Y-9009714D02*
X13803285Y-9009714D01*
X13703285Y-9124000D01*
X13746143Y-9124000D01*
X13774714Y-9138286D01*
X13789000Y-9152572D01*
X13803285Y-9181143D01*
X13803285Y-9252572D01*
X13789000Y-9281143D01*
X13774714Y-9295429D01*
X13746143Y-9309714D01*
X13660428Y-9309714D01*
X13631857Y-9295429D01*
X13617571Y-9281143D01*
X14089000Y-9309714D02*
X13917571Y-9309714D01*
X14003285Y-9309714D02*
X14003285Y-9009714D01*
X13974714Y-9052572D01*
X13946143Y-9081143D01*
X13917571Y-9095429D01*
X14203286Y-9009714D02*
X14203286Y-9066857D01*
X14317571Y-9009714D02*
X14317571Y-9066857D01*
X14760428Y-9424000D02*
X14746143Y-9409714D01*
X14717571Y-9366857D01*
X14703285Y-9338286D01*
X14689000Y-9295429D01*
X14674714Y-9224000D01*
X14674714Y-9166857D01*
X14689000Y-9095429D01*
X14703285Y-9052572D01*
X14717571Y-9024000D01*
X14746143Y-8981143D01*
X14760428Y-8966857D01*
X15031857Y-9309714D02*
X14860428Y-9309714D01*
X14946143Y-9309714D02*
X14946143Y-9009714D01*
X14917571Y-9052572D01*
X14889000Y-9081143D01*
X14860428Y-9095429D01*
X15289000Y-9109714D02*
X15289000Y-9309714D01*
X15217571Y-8995429D02*
X15146143Y-9209714D01*
X15331857Y-9209714D01*
X15674714Y-9309714D02*
X15674714Y-9009714D01*
X15803285Y-9309714D02*
X15803285Y-9152572D01*
X15789000Y-9124000D01*
X15760428Y-9109714D01*
X15717571Y-9109714D01*
X15689000Y-9124000D01*
X15674714Y-9138286D01*
X15989000Y-9309714D02*
X15960428Y-9295429D01*
X15946143Y-9281143D01*
X15931857Y-9252572D01*
X15931857Y-9166857D01*
X15946143Y-9138286D01*
X15960428Y-9124000D01*
X15989000Y-9109714D01*
X16031857Y-9109714D01*
X16060428Y-9124000D01*
X16074714Y-9138286D01*
X16089000Y-9166857D01*
X16089000Y-9252572D01*
X16074714Y-9281143D01*
X16060428Y-9295429D01*
X16031857Y-9309714D01*
X15989000Y-9309714D01*
X16260428Y-9309714D02*
X16231857Y-9295429D01*
X16217571Y-9266857D01*
X16217571Y-9009714D01*
X16489000Y-9295429D02*
X16460428Y-9309714D01*
X16403286Y-9309714D01*
X16374714Y-9295429D01*
X16360428Y-9266857D01*
X16360428Y-9152572D01*
X16374714Y-9124000D01*
X16403286Y-9109714D01*
X16460428Y-9109714D01*
X16489000Y-9124000D01*
X16503286Y-9152572D01*
X16503286Y-9181143D01*
X16360428Y-9209714D01*
X16617571Y-9295429D02*
X16646143Y-9309714D01*
X16703286Y-9309714D01*
X16731857Y-9295429D01*
X16746143Y-9266857D01*
X16746143Y-9252572D01*
X16731857Y-9224000D01*
X16703286Y-9209714D01*
X16660428Y-9209714D01*
X16631857Y-9195429D01*
X16617571Y-9166857D01*
X16617571Y-9152572D01*
X16631857Y-9124000D01*
X16660428Y-9109714D01*
X16703286Y-9109714D01*
X16731857Y-9124000D01*
X16846143Y-9424000D02*
X16860429Y-9409714D01*
X16889000Y-9366857D01*
X16903286Y-9338286D01*
X16917571Y-9295429D01*
X16931857Y-9224000D01*
X16931857Y-9166857D01*
X16917571Y-9095429D01*
X16903286Y-9052572D01*
X16889000Y-9024000D01*
X16860429Y-8981143D01*
X16846143Y-8966857D01*
X10044000Y-9525000D02*
X10044000Y-9615000D01*
X9999000Y-9570000D02*
X10089000Y-9570000D01*
X10417571Y-9405714D02*
X10446143Y-9405714D01*
X10474714Y-9420000D01*
X10489000Y-9434286D01*
X10503286Y-9462857D01*
X10517571Y-9520000D01*
X10517571Y-9591429D01*
X10503286Y-9648572D01*
X10489000Y-9677143D01*
X10474714Y-9691429D01*
X10446143Y-9705714D01*
X10417571Y-9705714D01*
X10389000Y-9691429D01*
X10374714Y-9677143D01*
X10360429Y-9648572D01*
X10346143Y-9591429D01*
X10346143Y-9520000D01*
X10360429Y-9462857D01*
X10374714Y-9434286D01*
X10389000Y-9420000D01*
X10417571Y-9405714D01*
X10646143Y-9677143D02*
X10660429Y-9691429D01*
X10646143Y-9705714D01*
X10631857Y-9691429D01*
X10646143Y-9677143D01*
X10646143Y-9705714D01*
X10803286Y-9705714D02*
X10860428Y-9705714D01*
X10889000Y-9691429D01*
X10903286Y-9677143D01*
X10931857Y-9634286D01*
X10946143Y-9577143D01*
X10946143Y-9462857D01*
X10931857Y-9434286D01*
X10917571Y-9420000D01*
X10889000Y-9405714D01*
X10831857Y-9405714D01*
X10803286Y-9420000D01*
X10789000Y-9434286D01*
X10774714Y-9462857D01*
X10774714Y-9534286D01*
X10789000Y-9562857D01*
X10803286Y-9577143D01*
X10831857Y-9591429D01*
X10889000Y-9591429D01*
X10917571Y-9577143D01*
X10931857Y-9562857D01*
X10946143Y-9534286D01*
X11131857Y-9405714D02*
X11160429Y-9405714D01*
X11189000Y-9420000D01*
X11203286Y-9434286D01*
X11217571Y-9462857D01*
X11231857Y-9520000D01*
X11231857Y-9591429D01*
X11217571Y-9648572D01*
X11203286Y-9677143D01*
X11189000Y-9691429D01*
X11160429Y-9705714D01*
X11131857Y-9705714D01*
X11103286Y-9691429D01*
X11089000Y-9677143D01*
X11074714Y-9648572D01*
X11060429Y-9591429D01*
X11060429Y-9520000D01*
X11074714Y-9462857D01*
X11089000Y-9434286D01*
X11103286Y-9420000D01*
X11131857Y-9405714D01*
X11360428Y-9705714D02*
X11360428Y-9505714D01*
X11360428Y-9534286D02*
X11374714Y-9520000D01*
X11403286Y-9505714D01*
X11446143Y-9505714D01*
X11474714Y-9520000D01*
X11489000Y-9548572D01*
X11489000Y-9705714D01*
X11489000Y-9548572D02*
X11503286Y-9520000D01*
X11531857Y-9505714D01*
X11574714Y-9505714D01*
X11603286Y-9520000D01*
X11617571Y-9548572D01*
X11617571Y-9705714D01*
X11760428Y-9705714D02*
X11760428Y-9505714D01*
X11760428Y-9534286D02*
X11774714Y-9520000D01*
X11803286Y-9505714D01*
X11846143Y-9505714D01*
X11874714Y-9520000D01*
X11889000Y-9548572D01*
X11889000Y-9705714D01*
X11889000Y-9548572D02*
X11903286Y-9520000D01*
X11931857Y-9505714D01*
X11974714Y-9505714D01*
X12003286Y-9520000D01*
X12017571Y-9548572D01*
X12017571Y-9705714D01*
X12603286Y-9391429D02*
X12346143Y-9777143D01*
X12989000Y-9405714D02*
X13017571Y-9405714D01*
X13046143Y-9420000D01*
X13060428Y-9434286D01*
X13074714Y-9462857D01*
X13089000Y-9520000D01*
X13089000Y-9591429D01*
X13074714Y-9648572D01*
X13060428Y-9677143D01*
X13046143Y-9691429D01*
X13017571Y-9705714D01*
X12989000Y-9705714D01*
X12960428Y-9691429D01*
X12946143Y-9677143D01*
X12931857Y-9648572D01*
X12917571Y-9591429D01*
X12917571Y-9520000D01*
X12931857Y-9462857D01*
X12946143Y-9434286D01*
X12960428Y-9420000D01*
X12989000Y-9405714D01*
X13217571Y-9677143D02*
X13231857Y-9691429D01*
X13217571Y-9705714D01*
X13203286Y-9691429D01*
X13217571Y-9677143D01*
X13217571Y-9705714D01*
X13417571Y-9405714D02*
X13446143Y-9405714D01*
X13474714Y-9420000D01*
X13489000Y-9434286D01*
X13503285Y-9462857D01*
X13517571Y-9520000D01*
X13517571Y-9591429D01*
X13503285Y-9648572D01*
X13489000Y-9677143D01*
X13474714Y-9691429D01*
X13446143Y-9705714D01*
X13417571Y-9705714D01*
X13389000Y-9691429D01*
X13374714Y-9677143D01*
X13360428Y-9648572D01*
X13346143Y-9591429D01*
X13346143Y-9520000D01*
X13360428Y-9462857D01*
X13374714Y-9434286D01*
X13389000Y-9420000D01*
X13417571Y-9405714D01*
X13617571Y-9405714D02*
X13803285Y-9405714D01*
X13703285Y-9520000D01*
X13746143Y-9520000D01*
X13774714Y-9534286D01*
X13789000Y-9548572D01*
X13803285Y-9577143D01*
X13803285Y-9648572D01*
X13789000Y-9677143D01*
X13774714Y-9691429D01*
X13746143Y-9705714D01*
X13660428Y-9705714D01*
X13631857Y-9691429D01*
X13617571Y-9677143D01*
X14074714Y-9405714D02*
X13931857Y-9405714D01*
X13917571Y-9548572D01*
X13931857Y-9534286D01*
X13960428Y-9520000D01*
X14031857Y-9520000D01*
X14060428Y-9534286D01*
X14074714Y-9548572D01*
X14089000Y-9577143D01*
X14089000Y-9648572D01*
X14074714Y-9677143D01*
X14060428Y-9691429D01*
X14031857Y-9705714D01*
X13960428Y-9705714D01*
X13931857Y-9691429D01*
X13917571Y-9677143D01*
X14203286Y-9405714D02*
X14203286Y-9462857D01*
X14317571Y-9405714D02*
X14317571Y-9462857D01*
X14760428Y-9820000D02*
X14746143Y-9805714D01*
X14717571Y-9762857D01*
X14703285Y-9734286D01*
X14689000Y-9691429D01*
X14674714Y-9620000D01*
X14674714Y-9562857D01*
X14689000Y-9491429D01*
X14703285Y-9448572D01*
X14717571Y-9420000D01*
X14746143Y-9377143D01*
X14760428Y-9362857D01*
X15003285Y-9405714D02*
X14946143Y-9405714D01*
X14917571Y-9420000D01*
X14903285Y-9434286D01*
X14874714Y-9477143D01*
X14860428Y-9534286D01*
X14860428Y-9648572D01*
X14874714Y-9677143D01*
X14889000Y-9691429D01*
X14917571Y-9705714D01*
X14974714Y-9705714D01*
X15003285Y-9691429D01*
X15017571Y-9677143D01*
X15031857Y-9648572D01*
X15031857Y-9577143D01*
X15017571Y-9548572D01*
X15003285Y-9534286D01*
X14974714Y-9520000D01*
X14917571Y-9520000D01*
X14889000Y-9534286D01*
X14874714Y-9548572D01*
X14860428Y-9577143D01*
X15389000Y-9705714D02*
X15389000Y-9405714D01*
X15517571Y-9705714D02*
X15517571Y-9548572D01*
X15503285Y-9520000D01*
X15474714Y-9505714D01*
X15431857Y-9505714D01*
X15403285Y-9520000D01*
X15389000Y-9534286D01*
X15703285Y-9705714D02*
X15674714Y-9691429D01*
X15660428Y-9677143D01*
X15646143Y-9648572D01*
X15646143Y-9562857D01*
X15660428Y-9534286D01*
X15674714Y-9520000D01*
X15703285Y-9505714D01*
X15746143Y-9505714D01*
X15774714Y-9520000D01*
X15789000Y-9534286D01*
X15803285Y-9562857D01*
X15803285Y-9648572D01*
X15789000Y-9677143D01*
X15774714Y-9691429D01*
X15746143Y-9705714D01*
X15703285Y-9705714D01*
X15974714Y-9705714D02*
X15946143Y-9691429D01*
X15931857Y-9662857D01*
X15931857Y-9405714D01*
X16203286Y-9691429D02*
X16174714Y-9705714D01*
X16117571Y-9705714D01*
X16089000Y-9691429D01*
X16074714Y-9662857D01*
X16074714Y-9548572D01*
X16089000Y-9520000D01*
X16117571Y-9505714D01*
X16174714Y-9505714D01*
X16203286Y-9520000D01*
X16217571Y-9548572D01*
X16217571Y-9577143D01*
X16074714Y-9605714D01*
X16331857Y-9691429D02*
X16360428Y-9705714D01*
X16417571Y-9705714D01*
X16446143Y-9691429D01*
X16460428Y-9662857D01*
X16460428Y-9648572D01*
X16446143Y-9620000D01*
X16417571Y-9605714D01*
X16374714Y-9605714D01*
X16346143Y-9591429D01*
X16331857Y-9562857D01*
X16331857Y-9548572D01*
X16346143Y-9520000D01*
X16374714Y-9505714D01*
X16417571Y-9505714D01*
X16446143Y-9520000D01*
X16560428Y-9820000D02*
X16574714Y-9805714D01*
X16603286Y-9762857D01*
X16617571Y-9734286D01*
X16631857Y-9691429D01*
X16646143Y-9620000D01*
X16646143Y-9562857D01*
X16631857Y-9491429D01*
X16617571Y-9448572D01*
X16603286Y-9420000D01*
X16574714Y-9377143D01*
X16560428Y-9362857D01*
X10074356Y-10001356D02*
X10074356Y-9930644D01*
X10003644Y-9930644D01*
X10003644Y-10001356D01*
X10074356Y-10001356D01*
X10517571Y-10101714D02*
X10346143Y-10101714D01*
X10431857Y-10101714D02*
X10431857Y-9801714D01*
X10403286Y-9844572D01*
X10374714Y-9873143D01*
X10346143Y-9887429D01*
X10646143Y-10073143D02*
X10660429Y-10087429D01*
X10646143Y-10101714D01*
X10631857Y-10087429D01*
X10646143Y-10073143D01*
X10646143Y-10101714D01*
X10846143Y-9801714D02*
X10874714Y-9801714D01*
X10903286Y-9816000D01*
X10917571Y-9830286D01*
X10931857Y-9858857D01*
X10946143Y-9916000D01*
X10946143Y-9987429D01*
X10931857Y-10044572D01*
X10917571Y-10073143D01*
X10903286Y-10087429D01*
X10874714Y-10101714D01*
X10846143Y-10101714D01*
X10817571Y-10087429D01*
X10803286Y-10073143D01*
X10789000Y-10044572D01*
X10774714Y-9987429D01*
X10774714Y-9916000D01*
X10789000Y-9858857D01*
X10803286Y-9830286D01*
X10817571Y-9816000D01*
X10846143Y-9801714D01*
X11131857Y-9801714D02*
X11160429Y-9801714D01*
X11189000Y-9816000D01*
X11203286Y-9830286D01*
X11217571Y-9858857D01*
X11231857Y-9916000D01*
X11231857Y-9987429D01*
X11217571Y-10044572D01*
X11203286Y-10073143D01*
X11189000Y-10087429D01*
X11160429Y-10101714D01*
X11131857Y-10101714D01*
X11103286Y-10087429D01*
X11089000Y-10073143D01*
X11074714Y-10044572D01*
X11060429Y-9987429D01*
X11060429Y-9916000D01*
X11074714Y-9858857D01*
X11089000Y-9830286D01*
X11103286Y-9816000D01*
X11131857Y-9801714D01*
X11360428Y-10101714D02*
X11360428Y-9901714D01*
X11360428Y-9930286D02*
X11374714Y-9916000D01*
X11403286Y-9901714D01*
X11446143Y-9901714D01*
X11474714Y-9916000D01*
X11489000Y-9944572D01*
X11489000Y-10101714D01*
X11489000Y-9944572D02*
X11503286Y-9916000D01*
X11531857Y-9901714D01*
X11574714Y-9901714D01*
X11603286Y-9916000D01*
X11617571Y-9944572D01*
X11617571Y-10101714D01*
X11760428Y-10101714D02*
X11760428Y-9901714D01*
X11760428Y-9930286D02*
X11774714Y-9916000D01*
X11803286Y-9901714D01*
X11846143Y-9901714D01*
X11874714Y-9916000D01*
X11889000Y-9944572D01*
X11889000Y-10101714D01*
X11889000Y-9944572D02*
X11903286Y-9916000D01*
X11931857Y-9901714D01*
X11974714Y-9901714D01*
X12003286Y-9916000D01*
X12017571Y-9944572D01*
X12017571Y-10101714D01*
X12603286Y-9787429D02*
X12346143Y-10173143D01*
X12989000Y-9801714D02*
X13017571Y-9801714D01*
X13046143Y-9816000D01*
X13060428Y-9830286D01*
X13074714Y-9858857D01*
X13089000Y-9916000D01*
X13089000Y-9987429D01*
X13074714Y-10044572D01*
X13060428Y-10073143D01*
X13046143Y-10087429D01*
X13017571Y-10101714D01*
X12989000Y-10101714D01*
X12960428Y-10087429D01*
X12946143Y-10073143D01*
X12931857Y-10044572D01*
X12917571Y-9987429D01*
X12917571Y-9916000D01*
X12931857Y-9858857D01*
X12946143Y-9830286D01*
X12960428Y-9816000D01*
X12989000Y-9801714D01*
X13217571Y-10073143D02*
X13231857Y-10087429D01*
X13217571Y-10101714D01*
X13203286Y-10087429D01*
X13217571Y-10073143D01*
X13217571Y-10101714D01*
X13417571Y-9801714D02*
X13446143Y-9801714D01*
X13474714Y-9816000D01*
X13489000Y-9830286D01*
X13503285Y-9858857D01*
X13517571Y-9916000D01*
X13517571Y-9987429D01*
X13503285Y-10044572D01*
X13489000Y-10073143D01*
X13474714Y-10087429D01*
X13446143Y-10101714D01*
X13417571Y-10101714D01*
X13389000Y-10087429D01*
X13374714Y-10073143D01*
X13360428Y-10044572D01*
X13346143Y-9987429D01*
X13346143Y-9916000D01*
X13360428Y-9858857D01*
X13374714Y-9830286D01*
X13389000Y-9816000D01*
X13417571Y-9801714D01*
X13617571Y-9801714D02*
X13803285Y-9801714D01*
X13703285Y-9916000D01*
X13746143Y-9916000D01*
X13774714Y-9930286D01*
X13789000Y-9944572D01*
X13803285Y-9973143D01*
X13803285Y-10044572D01*
X13789000Y-10073143D01*
X13774714Y-10087429D01*
X13746143Y-10101714D01*
X13660428Y-10101714D01*
X13631857Y-10087429D01*
X13617571Y-10073143D01*
X13946143Y-10101714D02*
X14003285Y-10101714D01*
X14031857Y-10087429D01*
X14046143Y-10073143D01*
X14074714Y-10030286D01*
X14089000Y-9973143D01*
X14089000Y-9858857D01*
X14074714Y-9830286D01*
X14060428Y-9816000D01*
X14031857Y-9801714D01*
X13974714Y-9801714D01*
X13946143Y-9816000D01*
X13931857Y-9830286D01*
X13917571Y-9858857D01*
X13917571Y-9930286D01*
X13931857Y-9958857D01*
X13946143Y-9973143D01*
X13974714Y-9987429D01*
X14031857Y-9987429D01*
X14060428Y-9973143D01*
X14074714Y-9958857D01*
X14089000Y-9930286D01*
X14203286Y-9801714D02*
X14203286Y-9858857D01*
X14317571Y-9801714D02*
X14317571Y-9858857D01*
X14760428Y-10216000D02*
X14746143Y-10201714D01*
X14717571Y-10158857D01*
X14703285Y-10130286D01*
X14689000Y-10087429D01*
X14674714Y-10016000D01*
X14674714Y-9958857D01*
X14689000Y-9887429D01*
X14703285Y-9844572D01*
X14717571Y-9816000D01*
X14746143Y-9773143D01*
X14760428Y-9758857D01*
X15003285Y-9901714D02*
X15003285Y-10101714D01*
X14931857Y-9787429D02*
X14860428Y-10001714D01*
X15046143Y-10001714D01*
X15289000Y-9801714D02*
X15231857Y-9801714D01*
X15203285Y-9816000D01*
X15189000Y-9830286D01*
X15160428Y-9873143D01*
X15146143Y-9930286D01*
X15146143Y-10044572D01*
X15160428Y-10073143D01*
X15174714Y-10087429D01*
X15203285Y-10101714D01*
X15260428Y-10101714D01*
X15289000Y-10087429D01*
X15303285Y-10073143D01*
X15317571Y-10044572D01*
X15317571Y-9973143D01*
X15303285Y-9944572D01*
X15289000Y-9930286D01*
X15260428Y-9916000D01*
X15203285Y-9916000D01*
X15174714Y-9930286D01*
X15160428Y-9944572D01*
X15146143Y-9973143D01*
X15674714Y-10101714D02*
X15674714Y-9801714D01*
X15803285Y-10101714D02*
X15803285Y-9944572D01*
X15789000Y-9916000D01*
X15760428Y-9901714D01*
X15717571Y-9901714D01*
X15689000Y-9916000D01*
X15674714Y-9930286D01*
X15989000Y-10101714D02*
X15960428Y-10087429D01*
X15946143Y-10073143D01*
X15931857Y-10044572D01*
X15931857Y-9958857D01*
X15946143Y-9930286D01*
X15960428Y-9916000D01*
X15989000Y-9901714D01*
X16031857Y-9901714D01*
X16060428Y-9916000D01*
X16074714Y-9930286D01*
X16089000Y-9958857D01*
X16089000Y-10044572D01*
X16074714Y-10073143D01*
X16060428Y-10087429D01*
X16031857Y-10101714D01*
X15989000Y-10101714D01*
X16260428Y-10101714D02*
X16231857Y-10087429D01*
X16217571Y-10058857D01*
X16217571Y-9801714D01*
X16489000Y-10087429D02*
X16460428Y-10101714D01*
X16403286Y-10101714D01*
X16374714Y-10087429D01*
X16360428Y-10058857D01*
X16360428Y-9944572D01*
X16374714Y-9916000D01*
X16403286Y-9901714D01*
X16460428Y-9901714D01*
X16489000Y-9916000D01*
X16503286Y-9944572D01*
X16503286Y-9973143D01*
X16360428Y-10001714D01*
X16617571Y-10087429D02*
X16646143Y-10101714D01*
X16703286Y-10101714D01*
X16731857Y-10087429D01*
X16746143Y-10058857D01*
X16746143Y-10044572D01*
X16731857Y-10016000D01*
X16703286Y-10001714D01*
X16660428Y-10001714D01*
X16631857Y-9987429D01*
X16617571Y-9958857D01*
X16617571Y-9944572D01*
X16631857Y-9916000D01*
X16660428Y-9901714D01*
X16703286Y-9901714D01*
X16731857Y-9916000D01*
X16846143Y-10216000D02*
X16860429Y-10201714D01*
X16889000Y-10158857D01*
X16903286Y-10130286D01*
X16917571Y-10087429D01*
X16931857Y-10016000D01*
X16931857Y-9958857D01*
X16917571Y-9887429D01*
X16903286Y-9844572D01*
X16889000Y-9816000D01*
X16860429Y-9773143D01*
X16846143Y-9758857D01*
X10034000Y-10417000D02*
X10089000Y-10362000D01*
X10034000Y-10307000D01*
X9979000Y-10362000D01*
X10034000Y-10417000D01*
X10517571Y-10497714D02*
X10346143Y-10497714D01*
X10431857Y-10497714D02*
X10431857Y-10197714D01*
X10403286Y-10240572D01*
X10374714Y-10269143D01*
X10346143Y-10283429D01*
X10646143Y-10469143D02*
X10660429Y-10483429D01*
X10646143Y-10497714D01*
X10631857Y-10483429D01*
X10646143Y-10469143D01*
X10646143Y-10497714D01*
X10946143Y-10497714D02*
X10774714Y-10497714D01*
X10860428Y-10497714D02*
X10860428Y-10197714D01*
X10831857Y-10240572D01*
X10803286Y-10269143D01*
X10774714Y-10283429D01*
X11131857Y-10197714D02*
X11160429Y-10197714D01*
X11189000Y-10212000D01*
X11203286Y-10226286D01*
X11217571Y-10254857D01*
X11231857Y-10312000D01*
X11231857Y-10383429D01*
X11217571Y-10440572D01*
X11203286Y-10469143D01*
X11189000Y-10483429D01*
X11160429Y-10497714D01*
X11131857Y-10497714D01*
X11103286Y-10483429D01*
X11089000Y-10469143D01*
X11074714Y-10440572D01*
X11060429Y-10383429D01*
X11060429Y-10312000D01*
X11074714Y-10254857D01*
X11089000Y-10226286D01*
X11103286Y-10212000D01*
X11131857Y-10197714D01*
X11360428Y-10497714D02*
X11360428Y-10297714D01*
X11360428Y-10326286D02*
X11374714Y-10312000D01*
X11403286Y-10297714D01*
X11446143Y-10297714D01*
X11474714Y-10312000D01*
X11489000Y-10340572D01*
X11489000Y-10497714D01*
X11489000Y-10340572D02*
X11503286Y-10312000D01*
X11531857Y-10297714D01*
X11574714Y-10297714D01*
X11603286Y-10312000D01*
X11617571Y-10340572D01*
X11617571Y-10497714D01*
X11760428Y-10497714D02*
X11760428Y-10297714D01*
X11760428Y-10326286D02*
X11774714Y-10312000D01*
X11803286Y-10297714D01*
X11846143Y-10297714D01*
X11874714Y-10312000D01*
X11889000Y-10340572D01*
X11889000Y-10497714D01*
X11889000Y-10340572D02*
X11903286Y-10312000D01*
X11931857Y-10297714D01*
X11974714Y-10297714D01*
X12003286Y-10312000D01*
X12017571Y-10340572D01*
X12017571Y-10497714D01*
X12603286Y-10183429D02*
X12346143Y-10569143D01*
X12989000Y-10197714D02*
X13017571Y-10197714D01*
X13046143Y-10212000D01*
X13060428Y-10226286D01*
X13074714Y-10254857D01*
X13089000Y-10312000D01*
X13089000Y-10383429D01*
X13074714Y-10440572D01*
X13060428Y-10469143D01*
X13046143Y-10483429D01*
X13017571Y-10497714D01*
X12989000Y-10497714D01*
X12960428Y-10483429D01*
X12946143Y-10469143D01*
X12931857Y-10440572D01*
X12917571Y-10383429D01*
X12917571Y-10312000D01*
X12931857Y-10254857D01*
X12946143Y-10226286D01*
X12960428Y-10212000D01*
X12989000Y-10197714D01*
X13217571Y-10469143D02*
X13231857Y-10483429D01*
X13217571Y-10497714D01*
X13203286Y-10483429D01*
X13217571Y-10469143D01*
X13217571Y-10497714D01*
X13417571Y-10197714D02*
X13446143Y-10197714D01*
X13474714Y-10212000D01*
X13489000Y-10226286D01*
X13503285Y-10254857D01*
X13517571Y-10312000D01*
X13517571Y-10383429D01*
X13503285Y-10440572D01*
X13489000Y-10469143D01*
X13474714Y-10483429D01*
X13446143Y-10497714D01*
X13417571Y-10497714D01*
X13389000Y-10483429D01*
X13374714Y-10469143D01*
X13360428Y-10440572D01*
X13346143Y-10383429D01*
X13346143Y-10312000D01*
X13360428Y-10254857D01*
X13374714Y-10226286D01*
X13389000Y-10212000D01*
X13417571Y-10197714D01*
X13774714Y-10297714D02*
X13774714Y-10497714D01*
X13703285Y-10183429D02*
X13631857Y-10397714D01*
X13817571Y-10397714D01*
X13903285Y-10197714D02*
X14089000Y-10197714D01*
X13989000Y-10312000D01*
X14031857Y-10312000D01*
X14060428Y-10326286D01*
X14074714Y-10340572D01*
X14089000Y-10369143D01*
X14089000Y-10440572D01*
X14074714Y-10469143D01*
X14060428Y-10483429D01*
X14031857Y-10497714D01*
X13946143Y-10497714D01*
X13917571Y-10483429D01*
X13903285Y-10469143D01*
X14203286Y-10197714D02*
X14203286Y-10254857D01*
X14317571Y-10197714D02*
X14317571Y-10254857D01*
X14760428Y-10612000D02*
X14746143Y-10597714D01*
X14717571Y-10554857D01*
X14703285Y-10526286D01*
X14689000Y-10483429D01*
X14674714Y-10412000D01*
X14674714Y-10354857D01*
X14689000Y-10283429D01*
X14703285Y-10240572D01*
X14717571Y-10212000D01*
X14746143Y-10169143D01*
X14760428Y-10154857D01*
X15003285Y-10297714D02*
X15003285Y-10497714D01*
X14931857Y-10183429D02*
X14860428Y-10397714D01*
X15046143Y-10397714D01*
X15389000Y-10497714D02*
X15389000Y-10197714D01*
X15517571Y-10497714D02*
X15517571Y-10340572D01*
X15503285Y-10312000D01*
X15474714Y-10297714D01*
X15431857Y-10297714D01*
X15403285Y-10312000D01*
X15389000Y-10326286D01*
X15703285Y-10497714D02*
X15674714Y-10483429D01*
X15660428Y-10469143D01*
X15646143Y-10440572D01*
X15646143Y-10354857D01*
X15660428Y-10326286D01*
X15674714Y-10312000D01*
X15703285Y-10297714D01*
X15746143Y-10297714D01*
X15774714Y-10312000D01*
X15789000Y-10326286D01*
X15803285Y-10354857D01*
X15803285Y-10440572D01*
X15789000Y-10469143D01*
X15774714Y-10483429D01*
X15746143Y-10497714D01*
X15703285Y-10497714D01*
X15974714Y-10497714D02*
X15946143Y-10483429D01*
X15931857Y-10454857D01*
X15931857Y-10197714D01*
X16203286Y-10483429D02*
X16174714Y-10497714D01*
X16117571Y-10497714D01*
X16089000Y-10483429D01*
X16074714Y-10454857D01*
X16074714Y-10340572D01*
X16089000Y-10312000D01*
X16117571Y-10297714D01*
X16174714Y-10297714D01*
X16203286Y-10312000D01*
X16217571Y-10340572D01*
X16217571Y-10369143D01*
X16074714Y-10397714D01*
X16331857Y-10483429D02*
X16360428Y-10497714D01*
X16417571Y-10497714D01*
X16446143Y-10483429D01*
X16460428Y-10454857D01*
X16460428Y-10440572D01*
X16446143Y-10412000D01*
X16417571Y-10397714D01*
X16374714Y-10397714D01*
X16346143Y-10383429D01*
X16331857Y-10354857D01*
X16331857Y-10340572D01*
X16346143Y-10312000D01*
X16374714Y-10297714D01*
X16417571Y-10297714D01*
X16446143Y-10312000D01*
X16560428Y-10612000D02*
X16574714Y-10597714D01*
X16603286Y-10554857D01*
X16617571Y-10526286D01*
X16631857Y-10483429D01*
X16646143Y-10412000D01*
X16646143Y-10354857D01*
X16631857Y-10283429D01*
X16617571Y-10240572D01*
X16603286Y-10212000D01*
X16574714Y-10169143D01*
X16560428Y-10154857D01*
M02*
