G04 #@! TF.FileFunction,Soldermask,Top*
%FSLAX46Y46*%
G04 Gerber Fmt 4.6, Leading zero omitted, Abs format (unit mm)*
G04 Created by KiCad (PCBNEW 4.0.7) date 08/02/18 21:55:20*
%MOMM*%
%LPD*%
G01*
G04 APERTURE LIST*
%ADD10C,0.100000*%
%ADD11R,2.200000X2.200000*%
%ADD12C,2.200000*%
%ADD13R,2.100000X2.100000*%
%ADD14O,2.100000X2.100000*%
%ADD15C,2.600000*%
%ADD16C,2.400000*%
%ADD17C,1.750000*%
%ADD18R,2.200000X1.750000*%
%ADD19C,2.000000*%
%ADD20O,2.000000X2.000000*%
G04 APERTURE END LIST*
D10*
D11*
X134620000Y-68580000D03*
D12*
X134620000Y-71120000D03*
D13*
X102870000Y-53340000D03*
D14*
X105410000Y-53340000D03*
D15*
X115570000Y-76200000D03*
D16*
X143184000Y-73406000D03*
X138684000Y-73406000D03*
X143184000Y-66906000D03*
X138684000Y-66906000D03*
D17*
X142835000Y-63760000D03*
D18*
X141835000Y-63760000D03*
D17*
X142835000Y-49760000D03*
X142835000Y-51760000D03*
X142835000Y-53760000D03*
X142835000Y-55760000D03*
X142835000Y-57760000D03*
X142835000Y-59760000D03*
X142835000Y-61760000D03*
D18*
X141835000Y-49760000D03*
X141835000Y-51760000D03*
X141835000Y-53760000D03*
X141835000Y-55760000D03*
X141835000Y-57760000D03*
X141835000Y-59760000D03*
X141835000Y-61760000D03*
D13*
X105410000Y-49530000D03*
D14*
X107950000Y-49530000D03*
D13*
X110490000Y-76200000D03*
D14*
X107950000Y-76200000D03*
X105410000Y-76200000D03*
X102870000Y-76200000D03*
D13*
X123190000Y-76200000D03*
D14*
X125730000Y-76200000D03*
X128270000Y-76200000D03*
X130810000Y-76200000D03*
D13*
X128270000Y-53340000D03*
D14*
X130810000Y-53340000D03*
X133350000Y-53340000D03*
D13*
X118110000Y-53340000D03*
D14*
X120650000Y-53340000D03*
X123190000Y-53340000D03*
D13*
X110490000Y-53340000D03*
D14*
X113030000Y-53340000D03*
D13*
X134620000Y-57150000D03*
D14*
X134620000Y-59690000D03*
X134620000Y-62230000D03*
X134620000Y-64770000D03*
D19*
X143510000Y-76200000D03*
D20*
X133350000Y-76200000D03*
D19*
X125730000Y-49530000D03*
D20*
X135890000Y-49530000D03*
D19*
X113030000Y-49530000D03*
D20*
X123190000Y-49530000D03*
D15*
X137160000Y-52705000D03*
D12*
X130810000Y-57150000D03*
X128270000Y-57150000D03*
X125730000Y-57150000D03*
X123190000Y-57150000D03*
X120650000Y-57150000D03*
X118110000Y-57150000D03*
X115570000Y-57150000D03*
X113030000Y-57150000D03*
X110490000Y-57150000D03*
X107950000Y-57150000D03*
X105410000Y-57150000D03*
X102870000Y-57150000D03*
X102870000Y-72390000D03*
X105410000Y-72390000D03*
X107950000Y-72390000D03*
X110490000Y-72390000D03*
X113030000Y-72390000D03*
X115570000Y-72390000D03*
X118110000Y-72390000D03*
X120650000Y-72390000D03*
X123190000Y-72390000D03*
X125730000Y-72390000D03*
X128270000Y-72390000D03*
X130810000Y-72390000D03*
X114300000Y-59690000D03*
X111760000Y-59690000D03*
M02*
