G04 #@! TF.FileFunction,Copper,L2,Bot,Signal*
%FSLAX46Y46*%
G04 Gerber Fmt 4.6, Leading zero omitted, Abs format (unit mm)*
G04 Created by KiCad (PCBNEW 4.0.7) date 08/02/18 21:55:20*
%MOMM*%
%LPD*%
G01*
G04 APERTURE LIST*
%ADD10C,0.100000*%
%ADD11R,1.800000X1.800000*%
%ADD12C,1.800000*%
%ADD13R,1.700000X1.700000*%
%ADD14O,1.700000X1.700000*%
%ADD15C,2.000000*%
%ADD16C,1.350000*%
%ADD17C,1.600000*%
%ADD18O,1.600000X1.600000*%
%ADD19C,0.600000*%
%ADD20C,0.250000*%
%ADD21C,0.254000*%
G04 APERTURE END LIST*
D10*
D11*
X134620000Y-68580000D03*
D12*
X134620000Y-71120000D03*
D13*
X102870000Y-53340000D03*
D14*
X105410000Y-53340000D03*
D15*
X143184000Y-73406000D03*
X138684000Y-73406000D03*
X143184000Y-66906000D03*
X138684000Y-66906000D03*
D16*
X142835000Y-63760000D03*
X142835000Y-49760000D03*
X142835000Y-51760000D03*
X142835000Y-53760000D03*
X142835000Y-55760000D03*
X142835000Y-57760000D03*
X142835000Y-59760000D03*
X142835000Y-61760000D03*
D13*
X105410000Y-49530000D03*
D14*
X107950000Y-49530000D03*
D13*
X110490000Y-76200000D03*
D14*
X107950000Y-76200000D03*
X105410000Y-76200000D03*
X102870000Y-76200000D03*
D13*
X123190000Y-76200000D03*
D14*
X125730000Y-76200000D03*
X128270000Y-76200000D03*
X130810000Y-76200000D03*
D13*
X128270000Y-53340000D03*
D14*
X130810000Y-53340000D03*
X133350000Y-53340000D03*
D13*
X118110000Y-53340000D03*
D14*
X120650000Y-53340000D03*
X123190000Y-53340000D03*
D13*
X110490000Y-53340000D03*
D14*
X113030000Y-53340000D03*
D13*
X134620000Y-57150000D03*
D14*
X134620000Y-59690000D03*
X134620000Y-62230000D03*
X134620000Y-64770000D03*
D17*
X143510000Y-76200000D03*
D18*
X133350000Y-76200000D03*
D17*
X125730000Y-49530000D03*
D18*
X135890000Y-49530000D03*
D17*
X113030000Y-49530000D03*
D18*
X123190000Y-49530000D03*
D12*
X130810000Y-57150000D03*
X128270000Y-57150000D03*
X125730000Y-57150000D03*
X123190000Y-57150000D03*
X120650000Y-57150000D03*
X118110000Y-57150000D03*
X115570000Y-57150000D03*
X113030000Y-57150000D03*
X110490000Y-57150000D03*
X107950000Y-57150000D03*
X105410000Y-57150000D03*
X102870000Y-57150000D03*
X102870000Y-72390000D03*
X105410000Y-72390000D03*
X107950000Y-72390000D03*
X110490000Y-72390000D03*
X113030000Y-72390000D03*
X115570000Y-72390000D03*
X118110000Y-72390000D03*
X120650000Y-72390000D03*
X123190000Y-72390000D03*
X125730000Y-72390000D03*
X128270000Y-72390000D03*
X130810000Y-72390000D03*
X114300000Y-59690000D03*
X111760000Y-59690000D03*
D19*
X130810000Y-60325000D03*
X118745000Y-66040000D03*
X116205000Y-66040000D03*
X111760000Y-74930000D03*
X109220000Y-74930000D03*
X112395000Y-73660000D03*
X109855000Y-74295000D03*
X104775000Y-54610000D03*
X118745000Y-58420000D03*
X122555000Y-58420000D03*
D20*
X114490500Y-74739500D02*
X114681000Y-74549000D01*
X116459000Y-74549000D02*
X116713000Y-74803000D01*
X114681000Y-74549000D02*
X116459000Y-74549000D01*
X114363500Y-74866500D02*
X114490500Y-74739500D01*
X114109500Y-75120500D02*
X114363500Y-74866500D01*
X113030000Y-76200000D02*
X114109500Y-75120500D01*
X110490000Y-76200000D02*
X113030000Y-76200000D01*
X117475000Y-75565000D02*
X117475000Y-76200000D01*
X118745000Y-76835000D02*
X121285000Y-76835000D01*
X116840000Y-74930000D02*
X117475000Y-75565000D01*
X116713000Y-74803000D02*
X116840000Y-74930000D01*
X121285000Y-76835000D02*
X122555000Y-76835000D01*
X117475000Y-76200000D02*
X118110000Y-76835000D01*
X118110000Y-76835000D02*
X118745000Y-76835000D01*
X122555000Y-76835000D02*
X123190000Y-76200000D01*
X110236000Y-72390000D02*
X109728000Y-72898000D01*
X109347000Y-73279000D02*
X109728000Y-72898000D01*
X110109000Y-72390000D02*
X109220000Y-73279000D01*
X110490000Y-72390000D02*
X110236000Y-72390000D01*
X107950000Y-76200000D02*
X107950000Y-74930000D01*
X107950000Y-74930000D02*
X110490000Y-72390000D01*
X110490000Y-72390000D02*
X110109000Y-72390000D01*
X130810000Y-60325000D02*
X130810000Y-57150000D01*
X118745000Y-66040000D02*
X116205000Y-66040000D01*
X109220000Y-74930000D02*
X111760000Y-74930000D01*
X109855000Y-74295000D02*
X111760000Y-74295000D01*
X111760000Y-74295000D02*
X112395000Y-73660000D01*
X125730000Y-49530000D02*
X125730000Y-50165000D01*
X125730000Y-50165000D02*
X128270000Y-52705000D01*
X128270000Y-52705000D02*
X128270000Y-53340000D01*
X113030000Y-49530000D02*
X116840000Y-53340000D01*
X116840000Y-53340000D02*
X118110000Y-53340000D01*
X117475000Y-53340000D02*
X118110000Y-53340000D01*
X104775000Y-54610000D02*
X103505000Y-53340000D01*
X103505000Y-53340000D02*
X102870000Y-53340000D01*
X103505000Y-53340000D02*
X102870000Y-53340000D01*
X122555000Y-58420000D02*
X118745000Y-58420000D01*
D21*
G36*
X103963569Y-48428110D02*
X103912560Y-48680000D01*
X103912560Y-50380000D01*
X103956838Y-50615317D01*
X104095910Y-50831441D01*
X104308110Y-50976431D01*
X104560000Y-51027440D01*
X106260000Y-51027440D01*
X106495317Y-50983162D01*
X106711441Y-50844090D01*
X106856431Y-50631890D01*
X106878301Y-50523893D01*
X107183076Y-50801645D01*
X107593110Y-50971476D01*
X107823000Y-50850155D01*
X107823000Y-49657000D01*
X108077000Y-49657000D01*
X108077000Y-50850155D01*
X108306890Y-50971476D01*
X108716924Y-50801645D01*
X109145183Y-50411358D01*
X109391486Y-49886892D01*
X109270819Y-49657000D01*
X108077000Y-49657000D01*
X107823000Y-49657000D01*
X107803000Y-49657000D01*
X107803000Y-49403000D01*
X107823000Y-49403000D01*
X107823000Y-49383000D01*
X108077000Y-49383000D01*
X108077000Y-49403000D01*
X109270819Y-49403000D01*
X109391486Y-49173108D01*
X109145183Y-48648642D01*
X108858085Y-48387000D01*
X112143827Y-48387000D01*
X111814176Y-48716077D01*
X111595250Y-49243309D01*
X111594752Y-49814187D01*
X111812757Y-50341800D01*
X112216077Y-50745824D01*
X112743309Y-50964750D01*
X113314187Y-50965248D01*
X113368149Y-50942951D01*
X116302599Y-53877401D01*
X116549161Y-54042148D01*
X116612560Y-54054759D01*
X116612560Y-54190000D01*
X116656838Y-54425317D01*
X116795910Y-54641441D01*
X117008110Y-54786431D01*
X117260000Y-54837440D01*
X118960000Y-54837440D01*
X119195317Y-54793162D01*
X119411441Y-54654090D01*
X119556431Y-54441890D01*
X119578301Y-54333893D01*
X119883076Y-54611645D01*
X120293110Y-54781476D01*
X120523000Y-54660155D01*
X120523000Y-53467000D01*
X120503000Y-53467000D01*
X120503000Y-53213000D01*
X120523000Y-53213000D01*
X120523000Y-52019845D01*
X120777000Y-52019845D01*
X120777000Y-53213000D01*
X120797000Y-53213000D01*
X120797000Y-53467000D01*
X120777000Y-53467000D01*
X120777000Y-54660155D01*
X121006890Y-54781476D01*
X121416924Y-54611645D01*
X121845183Y-54221358D01*
X121912298Y-54078447D01*
X122139946Y-54419147D01*
X122621715Y-54741054D01*
X123190000Y-54854093D01*
X123758285Y-54741054D01*
X124240054Y-54419147D01*
X124561961Y-53937378D01*
X124675000Y-53369093D01*
X124675000Y-53310907D01*
X124561961Y-52742622D01*
X124240054Y-52260853D01*
X123758285Y-51938946D01*
X123190000Y-51825907D01*
X122621715Y-51938946D01*
X122139946Y-52260853D01*
X121912298Y-52601553D01*
X121845183Y-52458642D01*
X121416924Y-52068355D01*
X121006890Y-51898524D01*
X120777000Y-52019845D01*
X120523000Y-52019845D01*
X120293110Y-51898524D01*
X119883076Y-52068355D01*
X119580063Y-52344501D01*
X119563162Y-52254683D01*
X119424090Y-52038559D01*
X119211890Y-51893569D01*
X118960000Y-51842560D01*
X117260000Y-51842560D01*
X117024683Y-51886838D01*
X116808559Y-52025910D01*
X116724190Y-52149388D01*
X114453841Y-49879039D01*
X121798096Y-49879039D01*
X121958959Y-50267423D01*
X122334866Y-50682389D01*
X122840959Y-50921914D01*
X123063000Y-50800629D01*
X123063000Y-49657000D01*
X121920085Y-49657000D01*
X121798096Y-49879039D01*
X114453841Y-49879039D01*
X114443256Y-49868454D01*
X114464750Y-49816691D01*
X114465248Y-49245813D01*
X114247243Y-48718200D01*
X113916620Y-48387000D01*
X122326361Y-48387000D01*
X121958959Y-48792577D01*
X121798096Y-49180961D01*
X121920085Y-49403000D01*
X123063000Y-49403000D01*
X123063000Y-49383000D01*
X123317000Y-49383000D01*
X123317000Y-49403000D01*
X123337000Y-49403000D01*
X123337000Y-49657000D01*
X123317000Y-49657000D01*
X123317000Y-50800629D01*
X123539041Y-50921914D01*
X124045134Y-50682389D01*
X124421041Y-50267423D01*
X124451570Y-50193715D01*
X124512757Y-50341800D01*
X124916077Y-50745824D01*
X125443309Y-50964750D01*
X125454958Y-50964760D01*
X126807527Y-52317329D01*
X126772560Y-52490000D01*
X126772560Y-54190000D01*
X126816838Y-54425317D01*
X126955910Y-54641441D01*
X127168110Y-54786431D01*
X127420000Y-54837440D01*
X129120000Y-54837440D01*
X129355317Y-54793162D01*
X129571441Y-54654090D01*
X129716431Y-54441890D01*
X129738301Y-54333893D01*
X130043076Y-54611645D01*
X130453110Y-54781476D01*
X130683000Y-54660155D01*
X130683000Y-53467000D01*
X130663000Y-53467000D01*
X130663000Y-53213000D01*
X130683000Y-53213000D01*
X130683000Y-52019845D01*
X130937000Y-52019845D01*
X130937000Y-53213000D01*
X130957000Y-53213000D01*
X130957000Y-53467000D01*
X130937000Y-53467000D01*
X130937000Y-54660155D01*
X131166890Y-54781476D01*
X131576924Y-54611645D01*
X132005183Y-54221358D01*
X132072298Y-54078447D01*
X132299946Y-54419147D01*
X132781715Y-54741054D01*
X133350000Y-54854093D01*
X133918285Y-54741054D01*
X134400054Y-54419147D01*
X134721961Y-53937378D01*
X134835000Y-53369093D01*
X134835000Y-53310907D01*
X134782824Y-53048599D01*
X135424699Y-53048599D01*
X135688281Y-53686515D01*
X136175918Y-54175004D01*
X136813373Y-54439699D01*
X137503599Y-54440301D01*
X138141515Y-54176719D01*
X138299076Y-54019432D01*
X141524774Y-54019432D01*
X141723789Y-54501086D01*
X141982380Y-54760129D01*
X141725084Y-55016976D01*
X141525228Y-55498282D01*
X141524774Y-56019432D01*
X141723789Y-56501086D01*
X141982380Y-56760129D01*
X141725084Y-57016976D01*
X141525228Y-57498282D01*
X141524774Y-58019432D01*
X141723789Y-58501086D01*
X141982380Y-58760129D01*
X141725084Y-59016976D01*
X141525228Y-59498282D01*
X141524774Y-60019432D01*
X141723789Y-60501086D01*
X141982380Y-60760129D01*
X141725084Y-61016976D01*
X141525228Y-61498282D01*
X141524774Y-62019432D01*
X141723789Y-62501086D01*
X141982380Y-62760129D01*
X141725084Y-63016976D01*
X141525228Y-63498282D01*
X141524774Y-64019432D01*
X141723789Y-64501086D01*
X142091976Y-64869916D01*
X142573282Y-65069772D01*
X143094432Y-65070226D01*
X143576086Y-64871211D01*
X143944916Y-64503024D01*
X144144772Y-64021718D01*
X144145226Y-63500568D01*
X143946211Y-63018914D01*
X143687620Y-62759871D01*
X143944916Y-62503024D01*
X144144772Y-62021718D01*
X144145226Y-61500568D01*
X143946211Y-61018914D01*
X143687620Y-60759871D01*
X143944916Y-60503024D01*
X144144772Y-60021718D01*
X144145226Y-59500568D01*
X143946211Y-59018914D01*
X143687620Y-58759871D01*
X143944916Y-58503024D01*
X144144772Y-58021718D01*
X144145226Y-57500568D01*
X143946211Y-57018914D01*
X143687620Y-56759871D01*
X143944916Y-56503024D01*
X144144772Y-56021718D01*
X144145226Y-55500568D01*
X143946211Y-55018914D01*
X143687620Y-54759871D01*
X143944916Y-54503024D01*
X144144772Y-54021718D01*
X144145226Y-53500568D01*
X143946211Y-53018914D01*
X143578024Y-52650084D01*
X143522369Y-52626974D01*
X142835000Y-51939605D01*
X142148279Y-52626326D01*
X142093914Y-52648789D01*
X141725084Y-53016976D01*
X141525228Y-53498282D01*
X141524774Y-54019432D01*
X138299076Y-54019432D01*
X138630004Y-53689082D01*
X138894699Y-53051627D01*
X138895301Y-52361401D01*
X138631719Y-51723485D01*
X138481597Y-51573100D01*
X141512478Y-51573100D01*
X141541625Y-52093434D01*
X141684672Y-52438781D01*
X141917853Y-52497542D01*
X142655395Y-51760000D01*
X143014605Y-51760000D01*
X143752147Y-52497542D01*
X143985328Y-52438781D01*
X144157522Y-51946900D01*
X144128375Y-51426566D01*
X143985328Y-51081219D01*
X143752147Y-51022458D01*
X143014605Y-51760000D01*
X142655395Y-51760000D01*
X141917853Y-51022458D01*
X141684672Y-51081219D01*
X141512478Y-51573100D01*
X138481597Y-51573100D01*
X138144082Y-51234996D01*
X137506627Y-50970301D01*
X136816401Y-50969699D01*
X136178485Y-51233281D01*
X135689996Y-51720918D01*
X135425301Y-52358373D01*
X135424699Y-53048599D01*
X134782824Y-53048599D01*
X134721961Y-52742622D01*
X134400054Y-52260853D01*
X133918285Y-51938946D01*
X133350000Y-51825907D01*
X132781715Y-51938946D01*
X132299946Y-52260853D01*
X132072298Y-52601553D01*
X132005183Y-52458642D01*
X131576924Y-52068355D01*
X131166890Y-51898524D01*
X130937000Y-52019845D01*
X130683000Y-52019845D01*
X130453110Y-51898524D01*
X130043076Y-52068355D01*
X129740063Y-52344501D01*
X129723162Y-52254683D01*
X129584090Y-52038559D01*
X129371890Y-51893569D01*
X129120000Y-51842560D01*
X128482362Y-51842560D01*
X126956944Y-50317142D01*
X127138860Y-49879039D01*
X134498096Y-49879039D01*
X134658959Y-50267423D01*
X135034866Y-50682389D01*
X135540959Y-50921914D01*
X135763000Y-50800629D01*
X135763000Y-49657000D01*
X136017000Y-49657000D01*
X136017000Y-50800629D01*
X136239041Y-50921914D01*
X136745134Y-50682389D01*
X137121041Y-50267423D01*
X137223755Y-50019432D01*
X141524774Y-50019432D01*
X141723789Y-50501086D01*
X142091976Y-50869916D01*
X142147631Y-50893026D01*
X142835000Y-51580395D01*
X143521721Y-50893674D01*
X143576086Y-50871211D01*
X143944916Y-50503024D01*
X144144772Y-50021718D01*
X144145226Y-49500568D01*
X143946211Y-49018914D01*
X143578024Y-48650084D01*
X143096718Y-48450228D01*
X142575568Y-48449774D01*
X142093914Y-48648789D01*
X141725084Y-49016976D01*
X141525228Y-49498282D01*
X141524774Y-50019432D01*
X137223755Y-50019432D01*
X137281904Y-49879039D01*
X137159915Y-49657000D01*
X136017000Y-49657000D01*
X135763000Y-49657000D01*
X134620085Y-49657000D01*
X134498096Y-49879039D01*
X127138860Y-49879039D01*
X127164750Y-49816691D01*
X127165248Y-49245813D01*
X126947243Y-48718200D01*
X126616620Y-48387000D01*
X135026361Y-48387000D01*
X134658959Y-48792577D01*
X134498096Y-49180961D01*
X134620085Y-49403000D01*
X135763000Y-49403000D01*
X135763000Y-49383000D01*
X136017000Y-49383000D01*
X136017000Y-49403000D01*
X137159915Y-49403000D01*
X137281904Y-49180961D01*
X137121041Y-48792577D01*
X136753639Y-48387000D01*
X144653000Y-48387000D01*
X144653000Y-66151513D01*
X144603387Y-66031736D01*
X144336532Y-65933073D01*
X143363605Y-66906000D01*
X144336532Y-67878927D01*
X144603387Y-67780264D01*
X144653000Y-67646721D01*
X144653000Y-72651513D01*
X144603387Y-72531736D01*
X144336532Y-72433073D01*
X143363605Y-73406000D01*
X144336532Y-74378927D01*
X144603387Y-74280264D01*
X144653000Y-74146721D01*
X144653000Y-75313827D01*
X144323923Y-74984176D01*
X143999818Y-74849596D01*
X144058264Y-74825387D01*
X144156927Y-74558532D01*
X143184000Y-73585605D01*
X142211073Y-74558532D01*
X142309736Y-74825387D01*
X142714831Y-74975885D01*
X142698200Y-74982757D01*
X142294176Y-75386077D01*
X142075250Y-75913309D01*
X142074752Y-76484187D01*
X142292757Y-77011800D01*
X142623380Y-77343000D01*
X134200793Y-77343000D01*
X134392811Y-77214698D01*
X134703880Y-76749151D01*
X134813113Y-76200000D01*
X134703880Y-75650849D01*
X134392811Y-75185302D01*
X133927264Y-74874233D01*
X133378113Y-74765000D01*
X133321887Y-74765000D01*
X132772736Y-74874233D01*
X132307189Y-75185302D01*
X132105153Y-75487670D01*
X131860054Y-75120853D01*
X131378285Y-74798946D01*
X130810000Y-74685907D01*
X130241715Y-74798946D01*
X129759946Y-75120853D01*
X129540000Y-75450026D01*
X129320054Y-75120853D01*
X128838285Y-74798946D01*
X128270000Y-74685907D01*
X127701715Y-74798946D01*
X127219946Y-75120853D01*
X126992298Y-75461553D01*
X126925183Y-75318642D01*
X126496924Y-74928355D01*
X126086890Y-74758524D01*
X125857000Y-74879845D01*
X125857000Y-76073000D01*
X125877000Y-76073000D01*
X125877000Y-76327000D01*
X125857000Y-76327000D01*
X125857000Y-76347000D01*
X125603000Y-76347000D01*
X125603000Y-76327000D01*
X125583000Y-76327000D01*
X125583000Y-76073000D01*
X125603000Y-76073000D01*
X125603000Y-74879845D01*
X125373110Y-74758524D01*
X124963076Y-74928355D01*
X124660063Y-75204501D01*
X124643162Y-75114683D01*
X124504090Y-74898559D01*
X124291890Y-74753569D01*
X124040000Y-74702560D01*
X122340000Y-74702560D01*
X122104683Y-74746838D01*
X121888559Y-74885910D01*
X121743569Y-75098110D01*
X121692560Y-75350000D01*
X121692560Y-76075000D01*
X118424802Y-76075000D01*
X118235000Y-75885198D01*
X118235000Y-75565000D01*
X118177148Y-75274161D01*
X118012401Y-75027599D01*
X116996401Y-74011599D01*
X116749839Y-73846852D01*
X116459000Y-73789000D01*
X116203778Y-73789000D01*
X116438371Y-73692068D01*
X116840323Y-73290818D01*
X117239357Y-73690551D01*
X117803330Y-73924733D01*
X118413991Y-73925265D01*
X118978371Y-73692068D01*
X119380323Y-73290818D01*
X119779357Y-73690551D01*
X120343330Y-73924733D01*
X120953991Y-73925265D01*
X121518371Y-73692068D01*
X121920323Y-73290818D01*
X122319357Y-73690551D01*
X122883330Y-73924733D01*
X123493991Y-73925265D01*
X124058371Y-73692068D01*
X124460323Y-73290818D01*
X124859357Y-73690551D01*
X125423330Y-73924733D01*
X126033991Y-73925265D01*
X126598371Y-73692068D01*
X127000323Y-73290818D01*
X127399357Y-73690551D01*
X127963330Y-73924733D01*
X128573991Y-73925265D01*
X129138371Y-73692068D01*
X129540323Y-73290818D01*
X129939357Y-73690551D01*
X130503330Y-73924733D01*
X131113991Y-73925265D01*
X131587064Y-73729795D01*
X137048716Y-73729795D01*
X137297106Y-74330943D01*
X137756637Y-74791278D01*
X138357352Y-75040716D01*
X139007795Y-75041284D01*
X139608943Y-74792894D01*
X140069278Y-74333363D01*
X140318716Y-73732648D01*
X140319232Y-73141461D01*
X141538092Y-73141461D01*
X141562144Y-73791460D01*
X141764613Y-74280264D01*
X142031468Y-74378927D01*
X143004395Y-73406000D01*
X142031468Y-72433073D01*
X141764613Y-72531736D01*
X141538092Y-73141461D01*
X140319232Y-73141461D01*
X140319284Y-73082205D01*
X140070894Y-72481057D01*
X139843703Y-72253468D01*
X142211073Y-72253468D01*
X143184000Y-73226395D01*
X144156927Y-72253468D01*
X144058264Y-71986613D01*
X143448539Y-71760092D01*
X142798540Y-71784144D01*
X142309736Y-71986613D01*
X142211073Y-72253468D01*
X139843703Y-72253468D01*
X139611363Y-72020722D01*
X139010648Y-71771284D01*
X138360205Y-71770716D01*
X137759057Y-72019106D01*
X137298722Y-72478637D01*
X137049284Y-73079352D01*
X137048716Y-73729795D01*
X131587064Y-73729795D01*
X131678371Y-73692068D01*
X132110551Y-73260643D01*
X132344733Y-72696670D01*
X132345265Y-72086009D01*
X132112068Y-71521629D01*
X132014601Y-71423991D01*
X133084735Y-71423991D01*
X133317932Y-71988371D01*
X133749357Y-72420551D01*
X134313330Y-72654733D01*
X134923991Y-72655265D01*
X135488371Y-72422068D01*
X135920551Y-71990643D01*
X136154733Y-71426670D01*
X136155265Y-70816009D01*
X135922068Y-70251629D01*
X135744908Y-70074159D01*
X135879699Y-70018327D01*
X136058327Y-69839698D01*
X136155000Y-69606309D01*
X136155000Y-68865750D01*
X135996250Y-68707000D01*
X134747000Y-68707000D01*
X134747000Y-68727000D01*
X134493000Y-68727000D01*
X134493000Y-68707000D01*
X133243750Y-68707000D01*
X133085000Y-68865750D01*
X133085000Y-69606309D01*
X133181673Y-69839698D01*
X133360301Y-70018327D01*
X133494994Y-70074119D01*
X133319449Y-70249357D01*
X133085267Y-70813330D01*
X133084735Y-71423991D01*
X132014601Y-71423991D01*
X131680643Y-71089449D01*
X131116670Y-70855267D01*
X130506009Y-70854735D01*
X129941629Y-71087932D01*
X129539677Y-71489182D01*
X129140643Y-71089449D01*
X128576670Y-70855267D01*
X127966009Y-70854735D01*
X127401629Y-71087932D01*
X126999677Y-71489182D01*
X126600643Y-71089449D01*
X126036670Y-70855267D01*
X125426009Y-70854735D01*
X124861629Y-71087932D01*
X124459677Y-71489182D01*
X124060643Y-71089449D01*
X123496670Y-70855267D01*
X122886009Y-70854735D01*
X122321629Y-71087932D01*
X121919677Y-71489182D01*
X121520643Y-71089449D01*
X120956670Y-70855267D01*
X120346009Y-70854735D01*
X119781629Y-71087932D01*
X119379677Y-71489182D01*
X118980643Y-71089449D01*
X118416670Y-70855267D01*
X117806009Y-70854735D01*
X117241629Y-71087932D01*
X116839677Y-71489182D01*
X116440643Y-71089449D01*
X115876670Y-70855267D01*
X115266009Y-70854735D01*
X114701629Y-71087932D01*
X114299677Y-71489182D01*
X113900643Y-71089449D01*
X113336670Y-70855267D01*
X112726009Y-70854735D01*
X112161629Y-71087932D01*
X111729449Y-71519357D01*
X111720797Y-71540194D01*
X111570159Y-71489446D01*
X110669605Y-72390000D01*
X110683748Y-72404143D01*
X110504143Y-72583748D01*
X110490000Y-72569605D01*
X110475858Y-72583748D01*
X110296253Y-72404143D01*
X110310395Y-72390000D01*
X109409841Y-71489446D01*
X109259673Y-71540035D01*
X109252068Y-71521629D01*
X109040650Y-71309841D01*
X109589446Y-71309841D01*
X110490000Y-72210395D01*
X111390554Y-71309841D01*
X111304148Y-71053357D01*
X110730664Y-70843542D01*
X110120540Y-70869161D01*
X109675852Y-71053357D01*
X109589446Y-71309841D01*
X109040650Y-71309841D01*
X108820643Y-71089449D01*
X108256670Y-70855267D01*
X107646009Y-70854735D01*
X107081629Y-71087932D01*
X106679677Y-71489182D01*
X106280643Y-71089449D01*
X105716670Y-70855267D01*
X105106009Y-70854735D01*
X104541629Y-71087932D01*
X104139677Y-71489182D01*
X103740643Y-71089449D01*
X103176670Y-70855267D01*
X102566009Y-70854735D01*
X102362000Y-70939030D01*
X102362000Y-67553691D01*
X133085000Y-67553691D01*
X133085000Y-68294250D01*
X133243750Y-68453000D01*
X134493000Y-68453000D01*
X134493000Y-67203750D01*
X134747000Y-67203750D01*
X134747000Y-68453000D01*
X135996250Y-68453000D01*
X136155000Y-68294250D01*
X136155000Y-67553691D01*
X136058327Y-67320302D01*
X135967821Y-67229795D01*
X137048716Y-67229795D01*
X137297106Y-67830943D01*
X137756637Y-68291278D01*
X138357352Y-68540716D01*
X139007795Y-68541284D01*
X139608943Y-68292894D01*
X139843715Y-68058532D01*
X142211073Y-68058532D01*
X142309736Y-68325387D01*
X142919461Y-68551908D01*
X143569460Y-68527856D01*
X144058264Y-68325387D01*
X144156927Y-68058532D01*
X143184000Y-67085605D01*
X142211073Y-68058532D01*
X139843715Y-68058532D01*
X140069278Y-67833363D01*
X140318716Y-67232648D01*
X140319232Y-66641461D01*
X141538092Y-66641461D01*
X141562144Y-67291460D01*
X141764613Y-67780264D01*
X142031468Y-67878927D01*
X143004395Y-66906000D01*
X142031468Y-65933073D01*
X141764613Y-66031736D01*
X141538092Y-66641461D01*
X140319232Y-66641461D01*
X140319284Y-66582205D01*
X140070894Y-65981057D01*
X139843703Y-65753468D01*
X142211073Y-65753468D01*
X143184000Y-66726395D01*
X144156927Y-65753468D01*
X144058264Y-65486613D01*
X143448539Y-65260092D01*
X142798540Y-65284144D01*
X142309736Y-65486613D01*
X142211073Y-65753468D01*
X139843703Y-65753468D01*
X139611363Y-65520722D01*
X139010648Y-65271284D01*
X138360205Y-65270716D01*
X137759057Y-65519106D01*
X137298722Y-65978637D01*
X137049284Y-66579352D01*
X137048716Y-67229795D01*
X135967821Y-67229795D01*
X135879699Y-67141673D01*
X135646310Y-67045000D01*
X134905750Y-67045000D01*
X134747000Y-67203750D01*
X134493000Y-67203750D01*
X134334250Y-67045000D01*
X133593690Y-67045000D01*
X133360301Y-67141673D01*
X133181673Y-67320302D01*
X133085000Y-67553691D01*
X102362000Y-67553691D01*
X102362000Y-66225167D01*
X115269838Y-66225167D01*
X115411883Y-66568943D01*
X115674673Y-66832192D01*
X116018201Y-66974838D01*
X116390167Y-66975162D01*
X116733943Y-66833117D01*
X116767118Y-66800000D01*
X118182537Y-66800000D01*
X118214673Y-66832192D01*
X118558201Y-66974838D01*
X118930167Y-66975162D01*
X119273943Y-66833117D01*
X119537192Y-66570327D01*
X119679838Y-66226799D01*
X119680162Y-65854833D01*
X119538117Y-65511057D01*
X119275327Y-65247808D01*
X118931799Y-65105162D01*
X118559833Y-65104838D01*
X118216057Y-65246883D01*
X118182882Y-65280000D01*
X116767463Y-65280000D01*
X116735327Y-65247808D01*
X116391799Y-65105162D01*
X116019833Y-65104838D01*
X115676057Y-65246883D01*
X115412808Y-65509673D01*
X115270162Y-65853201D01*
X115269838Y-66225167D01*
X102362000Y-66225167D01*
X102362000Y-58601133D01*
X102563330Y-58684733D01*
X103173991Y-58685265D01*
X103738371Y-58452068D01*
X103960668Y-58230159D01*
X104509446Y-58230159D01*
X104595852Y-58486643D01*
X105169336Y-58696458D01*
X105779460Y-58670839D01*
X106224148Y-58486643D01*
X106310554Y-58230159D01*
X105410000Y-57329605D01*
X104509446Y-58230159D01*
X103960668Y-58230159D01*
X104170551Y-58020643D01*
X104179203Y-57999806D01*
X104329841Y-58050554D01*
X105230395Y-57150000D01*
X105589605Y-57150000D01*
X106490159Y-58050554D01*
X106640327Y-57999965D01*
X106647932Y-58018371D01*
X107079357Y-58450551D01*
X107643330Y-58684733D01*
X108253991Y-58685265D01*
X108818371Y-58452068D01*
X109220323Y-58050818D01*
X109619357Y-58450551D01*
X110183330Y-58684733D01*
X110593950Y-58685091D01*
X110459449Y-58819357D01*
X110225267Y-59383330D01*
X110224735Y-59993991D01*
X110457932Y-60558371D01*
X110889357Y-60990551D01*
X111453330Y-61224733D01*
X112063991Y-61225265D01*
X112628371Y-60992068D01*
X113030323Y-60590818D01*
X113429357Y-60990551D01*
X113993330Y-61224733D01*
X114603991Y-61225265D01*
X115168371Y-60992068D01*
X115600551Y-60560643D01*
X115834733Y-59996670D01*
X115835265Y-59386009D01*
X115602068Y-58821629D01*
X115465587Y-58684909D01*
X115873991Y-58685265D01*
X116438371Y-58452068D01*
X116840323Y-58050818D01*
X117239357Y-58450551D01*
X117803330Y-58684733D01*
X117842728Y-58684767D01*
X117951883Y-58948943D01*
X118214673Y-59212192D01*
X118558201Y-59354838D01*
X118930167Y-59355162D01*
X119273943Y-59213117D01*
X119307118Y-59180000D01*
X121992537Y-59180000D01*
X122024673Y-59212192D01*
X122368201Y-59354838D01*
X122740167Y-59355162D01*
X123083943Y-59213117D01*
X123347192Y-58950327D01*
X123457269Y-58685233D01*
X123493991Y-58685265D01*
X124058371Y-58452068D01*
X124460323Y-58050818D01*
X124859357Y-58450551D01*
X125423330Y-58684733D01*
X126033991Y-58685265D01*
X126598371Y-58452068D01*
X127000323Y-58050818D01*
X127399357Y-58450551D01*
X127963330Y-58684733D01*
X128573991Y-58685265D01*
X129138371Y-58452068D01*
X129540323Y-58050818D01*
X129939357Y-58450551D01*
X130050000Y-58496494D01*
X130050000Y-59762537D01*
X130017808Y-59794673D01*
X129875162Y-60138201D01*
X129874838Y-60510167D01*
X130016883Y-60853943D01*
X130279673Y-61117192D01*
X130623201Y-61259838D01*
X130995167Y-61260162D01*
X131338943Y-61118117D01*
X131602192Y-60855327D01*
X131744838Y-60511799D01*
X131745162Y-60139833D01*
X131603117Y-59796057D01*
X131570000Y-59762882D01*
X131570000Y-59690000D01*
X133105907Y-59690000D01*
X133218946Y-60258285D01*
X133540853Y-60740054D01*
X133870026Y-60960000D01*
X133540853Y-61179946D01*
X133218946Y-61661715D01*
X133105907Y-62230000D01*
X133218946Y-62798285D01*
X133540853Y-63280054D01*
X133870026Y-63500000D01*
X133540853Y-63719946D01*
X133218946Y-64201715D01*
X133105907Y-64770000D01*
X133218946Y-65338285D01*
X133540853Y-65820054D01*
X134022622Y-66141961D01*
X134590907Y-66255000D01*
X134649093Y-66255000D01*
X135217378Y-66141961D01*
X135699147Y-65820054D01*
X136021054Y-65338285D01*
X136134093Y-64770000D01*
X136021054Y-64201715D01*
X135699147Y-63719946D01*
X135369974Y-63500000D01*
X135699147Y-63280054D01*
X136021054Y-62798285D01*
X136134093Y-62230000D01*
X136021054Y-61661715D01*
X135699147Y-61179946D01*
X135369974Y-60960000D01*
X135699147Y-60740054D01*
X136021054Y-60258285D01*
X136134093Y-59690000D01*
X136021054Y-59121715D01*
X135699147Y-58639946D01*
X135657548Y-58612150D01*
X135705317Y-58603162D01*
X135921441Y-58464090D01*
X136066431Y-58251890D01*
X136117440Y-58000000D01*
X136117440Y-56300000D01*
X136073162Y-56064683D01*
X135934090Y-55848559D01*
X135721890Y-55703569D01*
X135470000Y-55652560D01*
X133770000Y-55652560D01*
X133534683Y-55696838D01*
X133318559Y-55835910D01*
X133173569Y-56048110D01*
X133122560Y-56300000D01*
X133122560Y-58000000D01*
X133166838Y-58235317D01*
X133305910Y-58451441D01*
X133518110Y-58596431D01*
X133585541Y-58610086D01*
X133540853Y-58639946D01*
X133218946Y-59121715D01*
X133105907Y-59690000D01*
X131570000Y-59690000D01*
X131570000Y-58496846D01*
X131678371Y-58452068D01*
X132110551Y-58020643D01*
X132344733Y-57456670D01*
X132345265Y-56846009D01*
X132112068Y-56281629D01*
X131680643Y-55849449D01*
X131116670Y-55615267D01*
X130506009Y-55614735D01*
X129941629Y-55847932D01*
X129539677Y-56249182D01*
X129140643Y-55849449D01*
X128576670Y-55615267D01*
X127966009Y-55614735D01*
X127401629Y-55847932D01*
X126999677Y-56249182D01*
X126600643Y-55849449D01*
X126036670Y-55615267D01*
X125426009Y-55614735D01*
X124861629Y-55847932D01*
X124459677Y-56249182D01*
X124060643Y-55849449D01*
X123496670Y-55615267D01*
X122886009Y-55614735D01*
X122321629Y-55847932D01*
X121919677Y-56249182D01*
X121520643Y-55849449D01*
X120956670Y-55615267D01*
X120346009Y-55614735D01*
X119781629Y-55847932D01*
X119379677Y-56249182D01*
X118980643Y-55849449D01*
X118416670Y-55615267D01*
X117806009Y-55614735D01*
X117241629Y-55847932D01*
X116839677Y-56249182D01*
X116440643Y-55849449D01*
X115876670Y-55615267D01*
X115266009Y-55614735D01*
X114701629Y-55847932D01*
X114299677Y-56249182D01*
X113900643Y-55849449D01*
X113336670Y-55615267D01*
X112726009Y-55614735D01*
X112161629Y-55847932D01*
X111759677Y-56249182D01*
X111360643Y-55849449D01*
X110796670Y-55615267D01*
X110186009Y-55614735D01*
X109621629Y-55847932D01*
X109219677Y-56249182D01*
X108820643Y-55849449D01*
X108256670Y-55615267D01*
X107646009Y-55614735D01*
X107081629Y-55847932D01*
X106649449Y-56279357D01*
X106640797Y-56300194D01*
X106490159Y-56249446D01*
X105589605Y-57150000D01*
X105230395Y-57150000D01*
X104329841Y-56249446D01*
X104179673Y-56300035D01*
X104172068Y-56281629D01*
X103960650Y-56069841D01*
X104509446Y-56069841D01*
X105410000Y-56970395D01*
X106310554Y-56069841D01*
X106224148Y-55813357D01*
X105650664Y-55603542D01*
X105040540Y-55629161D01*
X104595852Y-55813357D01*
X104509446Y-56069841D01*
X103960650Y-56069841D01*
X103740643Y-55849449D01*
X103176670Y-55615267D01*
X102566009Y-55614735D01*
X102001629Y-55847932D01*
X101727000Y-56122081D01*
X101727000Y-54758342D01*
X101768110Y-54786431D01*
X102020000Y-54837440D01*
X103720000Y-54837440D01*
X103847400Y-54813468D01*
X103981883Y-55138943D01*
X104244673Y-55402192D01*
X104588201Y-55544838D01*
X104960167Y-55545162D01*
X105303943Y-55403117D01*
X105567192Y-55140327D01*
X105709838Y-54796799D01*
X105709878Y-54751389D01*
X105766890Y-54781476D01*
X106176924Y-54611645D01*
X106605183Y-54221358D01*
X106851486Y-53696892D01*
X106730819Y-53467000D01*
X105537000Y-53467000D01*
X105537000Y-53487000D01*
X105283000Y-53487000D01*
X105283000Y-53467000D01*
X105263000Y-53467000D01*
X105263000Y-53213000D01*
X105283000Y-53213000D01*
X105283000Y-52019845D01*
X105537000Y-52019845D01*
X105537000Y-53213000D01*
X106730819Y-53213000D01*
X106851486Y-52983108D01*
X106619910Y-52490000D01*
X108992560Y-52490000D01*
X108992560Y-54190000D01*
X109036838Y-54425317D01*
X109175910Y-54641441D01*
X109388110Y-54786431D01*
X109640000Y-54837440D01*
X111340000Y-54837440D01*
X111575317Y-54793162D01*
X111791441Y-54654090D01*
X111936431Y-54441890D01*
X111958301Y-54333893D01*
X112263076Y-54611645D01*
X112673110Y-54781476D01*
X112903000Y-54660155D01*
X112903000Y-53467000D01*
X113157000Y-53467000D01*
X113157000Y-54660155D01*
X113386890Y-54781476D01*
X113796924Y-54611645D01*
X114225183Y-54221358D01*
X114471486Y-53696892D01*
X114350819Y-53467000D01*
X113157000Y-53467000D01*
X112903000Y-53467000D01*
X112883000Y-53467000D01*
X112883000Y-53213000D01*
X112903000Y-53213000D01*
X112903000Y-52019845D01*
X113157000Y-52019845D01*
X113157000Y-53213000D01*
X114350819Y-53213000D01*
X114471486Y-52983108D01*
X114225183Y-52458642D01*
X113796924Y-52068355D01*
X113386890Y-51898524D01*
X113157000Y-52019845D01*
X112903000Y-52019845D01*
X112673110Y-51898524D01*
X112263076Y-52068355D01*
X111960063Y-52344501D01*
X111943162Y-52254683D01*
X111804090Y-52038559D01*
X111591890Y-51893569D01*
X111340000Y-51842560D01*
X109640000Y-51842560D01*
X109404683Y-51886838D01*
X109188559Y-52025910D01*
X109043569Y-52238110D01*
X108992560Y-52490000D01*
X106619910Y-52490000D01*
X106605183Y-52458642D01*
X106176924Y-52068355D01*
X105766890Y-51898524D01*
X105537000Y-52019845D01*
X105283000Y-52019845D01*
X105053110Y-51898524D01*
X104643076Y-52068355D01*
X104340063Y-52344501D01*
X104323162Y-52254683D01*
X104184090Y-52038559D01*
X103971890Y-51893569D01*
X103720000Y-51842560D01*
X102020000Y-51842560D01*
X101784683Y-51886838D01*
X101727000Y-51923956D01*
X101727000Y-48387000D01*
X103991658Y-48387000D01*
X103963569Y-48428110D01*
X103963569Y-48428110D01*
G37*
X103963569Y-48428110D02*
X103912560Y-48680000D01*
X103912560Y-50380000D01*
X103956838Y-50615317D01*
X104095910Y-50831441D01*
X104308110Y-50976431D01*
X104560000Y-51027440D01*
X106260000Y-51027440D01*
X106495317Y-50983162D01*
X106711441Y-50844090D01*
X106856431Y-50631890D01*
X106878301Y-50523893D01*
X107183076Y-50801645D01*
X107593110Y-50971476D01*
X107823000Y-50850155D01*
X107823000Y-49657000D01*
X108077000Y-49657000D01*
X108077000Y-50850155D01*
X108306890Y-50971476D01*
X108716924Y-50801645D01*
X109145183Y-50411358D01*
X109391486Y-49886892D01*
X109270819Y-49657000D01*
X108077000Y-49657000D01*
X107823000Y-49657000D01*
X107803000Y-49657000D01*
X107803000Y-49403000D01*
X107823000Y-49403000D01*
X107823000Y-49383000D01*
X108077000Y-49383000D01*
X108077000Y-49403000D01*
X109270819Y-49403000D01*
X109391486Y-49173108D01*
X109145183Y-48648642D01*
X108858085Y-48387000D01*
X112143827Y-48387000D01*
X111814176Y-48716077D01*
X111595250Y-49243309D01*
X111594752Y-49814187D01*
X111812757Y-50341800D01*
X112216077Y-50745824D01*
X112743309Y-50964750D01*
X113314187Y-50965248D01*
X113368149Y-50942951D01*
X116302599Y-53877401D01*
X116549161Y-54042148D01*
X116612560Y-54054759D01*
X116612560Y-54190000D01*
X116656838Y-54425317D01*
X116795910Y-54641441D01*
X117008110Y-54786431D01*
X117260000Y-54837440D01*
X118960000Y-54837440D01*
X119195317Y-54793162D01*
X119411441Y-54654090D01*
X119556431Y-54441890D01*
X119578301Y-54333893D01*
X119883076Y-54611645D01*
X120293110Y-54781476D01*
X120523000Y-54660155D01*
X120523000Y-53467000D01*
X120503000Y-53467000D01*
X120503000Y-53213000D01*
X120523000Y-53213000D01*
X120523000Y-52019845D01*
X120777000Y-52019845D01*
X120777000Y-53213000D01*
X120797000Y-53213000D01*
X120797000Y-53467000D01*
X120777000Y-53467000D01*
X120777000Y-54660155D01*
X121006890Y-54781476D01*
X121416924Y-54611645D01*
X121845183Y-54221358D01*
X121912298Y-54078447D01*
X122139946Y-54419147D01*
X122621715Y-54741054D01*
X123190000Y-54854093D01*
X123758285Y-54741054D01*
X124240054Y-54419147D01*
X124561961Y-53937378D01*
X124675000Y-53369093D01*
X124675000Y-53310907D01*
X124561961Y-52742622D01*
X124240054Y-52260853D01*
X123758285Y-51938946D01*
X123190000Y-51825907D01*
X122621715Y-51938946D01*
X122139946Y-52260853D01*
X121912298Y-52601553D01*
X121845183Y-52458642D01*
X121416924Y-52068355D01*
X121006890Y-51898524D01*
X120777000Y-52019845D01*
X120523000Y-52019845D01*
X120293110Y-51898524D01*
X119883076Y-52068355D01*
X119580063Y-52344501D01*
X119563162Y-52254683D01*
X119424090Y-52038559D01*
X119211890Y-51893569D01*
X118960000Y-51842560D01*
X117260000Y-51842560D01*
X117024683Y-51886838D01*
X116808559Y-52025910D01*
X116724190Y-52149388D01*
X114453841Y-49879039D01*
X121798096Y-49879039D01*
X121958959Y-50267423D01*
X122334866Y-50682389D01*
X122840959Y-50921914D01*
X123063000Y-50800629D01*
X123063000Y-49657000D01*
X121920085Y-49657000D01*
X121798096Y-49879039D01*
X114453841Y-49879039D01*
X114443256Y-49868454D01*
X114464750Y-49816691D01*
X114465248Y-49245813D01*
X114247243Y-48718200D01*
X113916620Y-48387000D01*
X122326361Y-48387000D01*
X121958959Y-48792577D01*
X121798096Y-49180961D01*
X121920085Y-49403000D01*
X123063000Y-49403000D01*
X123063000Y-49383000D01*
X123317000Y-49383000D01*
X123317000Y-49403000D01*
X123337000Y-49403000D01*
X123337000Y-49657000D01*
X123317000Y-49657000D01*
X123317000Y-50800629D01*
X123539041Y-50921914D01*
X124045134Y-50682389D01*
X124421041Y-50267423D01*
X124451570Y-50193715D01*
X124512757Y-50341800D01*
X124916077Y-50745824D01*
X125443309Y-50964750D01*
X125454958Y-50964760D01*
X126807527Y-52317329D01*
X126772560Y-52490000D01*
X126772560Y-54190000D01*
X126816838Y-54425317D01*
X126955910Y-54641441D01*
X127168110Y-54786431D01*
X127420000Y-54837440D01*
X129120000Y-54837440D01*
X129355317Y-54793162D01*
X129571441Y-54654090D01*
X129716431Y-54441890D01*
X129738301Y-54333893D01*
X130043076Y-54611645D01*
X130453110Y-54781476D01*
X130683000Y-54660155D01*
X130683000Y-53467000D01*
X130663000Y-53467000D01*
X130663000Y-53213000D01*
X130683000Y-53213000D01*
X130683000Y-52019845D01*
X130937000Y-52019845D01*
X130937000Y-53213000D01*
X130957000Y-53213000D01*
X130957000Y-53467000D01*
X130937000Y-53467000D01*
X130937000Y-54660155D01*
X131166890Y-54781476D01*
X131576924Y-54611645D01*
X132005183Y-54221358D01*
X132072298Y-54078447D01*
X132299946Y-54419147D01*
X132781715Y-54741054D01*
X133350000Y-54854093D01*
X133918285Y-54741054D01*
X134400054Y-54419147D01*
X134721961Y-53937378D01*
X134835000Y-53369093D01*
X134835000Y-53310907D01*
X134782824Y-53048599D01*
X135424699Y-53048599D01*
X135688281Y-53686515D01*
X136175918Y-54175004D01*
X136813373Y-54439699D01*
X137503599Y-54440301D01*
X138141515Y-54176719D01*
X138299076Y-54019432D01*
X141524774Y-54019432D01*
X141723789Y-54501086D01*
X141982380Y-54760129D01*
X141725084Y-55016976D01*
X141525228Y-55498282D01*
X141524774Y-56019432D01*
X141723789Y-56501086D01*
X141982380Y-56760129D01*
X141725084Y-57016976D01*
X141525228Y-57498282D01*
X141524774Y-58019432D01*
X141723789Y-58501086D01*
X141982380Y-58760129D01*
X141725084Y-59016976D01*
X141525228Y-59498282D01*
X141524774Y-60019432D01*
X141723789Y-60501086D01*
X141982380Y-60760129D01*
X141725084Y-61016976D01*
X141525228Y-61498282D01*
X141524774Y-62019432D01*
X141723789Y-62501086D01*
X141982380Y-62760129D01*
X141725084Y-63016976D01*
X141525228Y-63498282D01*
X141524774Y-64019432D01*
X141723789Y-64501086D01*
X142091976Y-64869916D01*
X142573282Y-65069772D01*
X143094432Y-65070226D01*
X143576086Y-64871211D01*
X143944916Y-64503024D01*
X144144772Y-64021718D01*
X144145226Y-63500568D01*
X143946211Y-63018914D01*
X143687620Y-62759871D01*
X143944916Y-62503024D01*
X144144772Y-62021718D01*
X144145226Y-61500568D01*
X143946211Y-61018914D01*
X143687620Y-60759871D01*
X143944916Y-60503024D01*
X144144772Y-60021718D01*
X144145226Y-59500568D01*
X143946211Y-59018914D01*
X143687620Y-58759871D01*
X143944916Y-58503024D01*
X144144772Y-58021718D01*
X144145226Y-57500568D01*
X143946211Y-57018914D01*
X143687620Y-56759871D01*
X143944916Y-56503024D01*
X144144772Y-56021718D01*
X144145226Y-55500568D01*
X143946211Y-55018914D01*
X143687620Y-54759871D01*
X143944916Y-54503024D01*
X144144772Y-54021718D01*
X144145226Y-53500568D01*
X143946211Y-53018914D01*
X143578024Y-52650084D01*
X143522369Y-52626974D01*
X142835000Y-51939605D01*
X142148279Y-52626326D01*
X142093914Y-52648789D01*
X141725084Y-53016976D01*
X141525228Y-53498282D01*
X141524774Y-54019432D01*
X138299076Y-54019432D01*
X138630004Y-53689082D01*
X138894699Y-53051627D01*
X138895301Y-52361401D01*
X138631719Y-51723485D01*
X138481597Y-51573100D01*
X141512478Y-51573100D01*
X141541625Y-52093434D01*
X141684672Y-52438781D01*
X141917853Y-52497542D01*
X142655395Y-51760000D01*
X143014605Y-51760000D01*
X143752147Y-52497542D01*
X143985328Y-52438781D01*
X144157522Y-51946900D01*
X144128375Y-51426566D01*
X143985328Y-51081219D01*
X143752147Y-51022458D01*
X143014605Y-51760000D01*
X142655395Y-51760000D01*
X141917853Y-51022458D01*
X141684672Y-51081219D01*
X141512478Y-51573100D01*
X138481597Y-51573100D01*
X138144082Y-51234996D01*
X137506627Y-50970301D01*
X136816401Y-50969699D01*
X136178485Y-51233281D01*
X135689996Y-51720918D01*
X135425301Y-52358373D01*
X135424699Y-53048599D01*
X134782824Y-53048599D01*
X134721961Y-52742622D01*
X134400054Y-52260853D01*
X133918285Y-51938946D01*
X133350000Y-51825907D01*
X132781715Y-51938946D01*
X132299946Y-52260853D01*
X132072298Y-52601553D01*
X132005183Y-52458642D01*
X131576924Y-52068355D01*
X131166890Y-51898524D01*
X130937000Y-52019845D01*
X130683000Y-52019845D01*
X130453110Y-51898524D01*
X130043076Y-52068355D01*
X129740063Y-52344501D01*
X129723162Y-52254683D01*
X129584090Y-52038559D01*
X129371890Y-51893569D01*
X129120000Y-51842560D01*
X128482362Y-51842560D01*
X126956944Y-50317142D01*
X127138860Y-49879039D01*
X134498096Y-49879039D01*
X134658959Y-50267423D01*
X135034866Y-50682389D01*
X135540959Y-50921914D01*
X135763000Y-50800629D01*
X135763000Y-49657000D01*
X136017000Y-49657000D01*
X136017000Y-50800629D01*
X136239041Y-50921914D01*
X136745134Y-50682389D01*
X137121041Y-50267423D01*
X137223755Y-50019432D01*
X141524774Y-50019432D01*
X141723789Y-50501086D01*
X142091976Y-50869916D01*
X142147631Y-50893026D01*
X142835000Y-51580395D01*
X143521721Y-50893674D01*
X143576086Y-50871211D01*
X143944916Y-50503024D01*
X144144772Y-50021718D01*
X144145226Y-49500568D01*
X143946211Y-49018914D01*
X143578024Y-48650084D01*
X143096718Y-48450228D01*
X142575568Y-48449774D01*
X142093914Y-48648789D01*
X141725084Y-49016976D01*
X141525228Y-49498282D01*
X141524774Y-50019432D01*
X137223755Y-50019432D01*
X137281904Y-49879039D01*
X137159915Y-49657000D01*
X136017000Y-49657000D01*
X135763000Y-49657000D01*
X134620085Y-49657000D01*
X134498096Y-49879039D01*
X127138860Y-49879039D01*
X127164750Y-49816691D01*
X127165248Y-49245813D01*
X126947243Y-48718200D01*
X126616620Y-48387000D01*
X135026361Y-48387000D01*
X134658959Y-48792577D01*
X134498096Y-49180961D01*
X134620085Y-49403000D01*
X135763000Y-49403000D01*
X135763000Y-49383000D01*
X136017000Y-49383000D01*
X136017000Y-49403000D01*
X137159915Y-49403000D01*
X137281904Y-49180961D01*
X137121041Y-48792577D01*
X136753639Y-48387000D01*
X144653000Y-48387000D01*
X144653000Y-66151513D01*
X144603387Y-66031736D01*
X144336532Y-65933073D01*
X143363605Y-66906000D01*
X144336532Y-67878927D01*
X144603387Y-67780264D01*
X144653000Y-67646721D01*
X144653000Y-72651513D01*
X144603387Y-72531736D01*
X144336532Y-72433073D01*
X143363605Y-73406000D01*
X144336532Y-74378927D01*
X144603387Y-74280264D01*
X144653000Y-74146721D01*
X144653000Y-75313827D01*
X144323923Y-74984176D01*
X143999818Y-74849596D01*
X144058264Y-74825387D01*
X144156927Y-74558532D01*
X143184000Y-73585605D01*
X142211073Y-74558532D01*
X142309736Y-74825387D01*
X142714831Y-74975885D01*
X142698200Y-74982757D01*
X142294176Y-75386077D01*
X142075250Y-75913309D01*
X142074752Y-76484187D01*
X142292757Y-77011800D01*
X142623380Y-77343000D01*
X134200793Y-77343000D01*
X134392811Y-77214698D01*
X134703880Y-76749151D01*
X134813113Y-76200000D01*
X134703880Y-75650849D01*
X134392811Y-75185302D01*
X133927264Y-74874233D01*
X133378113Y-74765000D01*
X133321887Y-74765000D01*
X132772736Y-74874233D01*
X132307189Y-75185302D01*
X132105153Y-75487670D01*
X131860054Y-75120853D01*
X131378285Y-74798946D01*
X130810000Y-74685907D01*
X130241715Y-74798946D01*
X129759946Y-75120853D01*
X129540000Y-75450026D01*
X129320054Y-75120853D01*
X128838285Y-74798946D01*
X128270000Y-74685907D01*
X127701715Y-74798946D01*
X127219946Y-75120853D01*
X126992298Y-75461553D01*
X126925183Y-75318642D01*
X126496924Y-74928355D01*
X126086890Y-74758524D01*
X125857000Y-74879845D01*
X125857000Y-76073000D01*
X125877000Y-76073000D01*
X125877000Y-76327000D01*
X125857000Y-76327000D01*
X125857000Y-76347000D01*
X125603000Y-76347000D01*
X125603000Y-76327000D01*
X125583000Y-76327000D01*
X125583000Y-76073000D01*
X125603000Y-76073000D01*
X125603000Y-74879845D01*
X125373110Y-74758524D01*
X124963076Y-74928355D01*
X124660063Y-75204501D01*
X124643162Y-75114683D01*
X124504090Y-74898559D01*
X124291890Y-74753569D01*
X124040000Y-74702560D01*
X122340000Y-74702560D01*
X122104683Y-74746838D01*
X121888559Y-74885910D01*
X121743569Y-75098110D01*
X121692560Y-75350000D01*
X121692560Y-76075000D01*
X118424802Y-76075000D01*
X118235000Y-75885198D01*
X118235000Y-75565000D01*
X118177148Y-75274161D01*
X118012401Y-75027599D01*
X116996401Y-74011599D01*
X116749839Y-73846852D01*
X116459000Y-73789000D01*
X116203778Y-73789000D01*
X116438371Y-73692068D01*
X116840323Y-73290818D01*
X117239357Y-73690551D01*
X117803330Y-73924733D01*
X118413991Y-73925265D01*
X118978371Y-73692068D01*
X119380323Y-73290818D01*
X119779357Y-73690551D01*
X120343330Y-73924733D01*
X120953991Y-73925265D01*
X121518371Y-73692068D01*
X121920323Y-73290818D01*
X122319357Y-73690551D01*
X122883330Y-73924733D01*
X123493991Y-73925265D01*
X124058371Y-73692068D01*
X124460323Y-73290818D01*
X124859357Y-73690551D01*
X125423330Y-73924733D01*
X126033991Y-73925265D01*
X126598371Y-73692068D01*
X127000323Y-73290818D01*
X127399357Y-73690551D01*
X127963330Y-73924733D01*
X128573991Y-73925265D01*
X129138371Y-73692068D01*
X129540323Y-73290818D01*
X129939357Y-73690551D01*
X130503330Y-73924733D01*
X131113991Y-73925265D01*
X131587064Y-73729795D01*
X137048716Y-73729795D01*
X137297106Y-74330943D01*
X137756637Y-74791278D01*
X138357352Y-75040716D01*
X139007795Y-75041284D01*
X139608943Y-74792894D01*
X140069278Y-74333363D01*
X140318716Y-73732648D01*
X140319232Y-73141461D01*
X141538092Y-73141461D01*
X141562144Y-73791460D01*
X141764613Y-74280264D01*
X142031468Y-74378927D01*
X143004395Y-73406000D01*
X142031468Y-72433073D01*
X141764613Y-72531736D01*
X141538092Y-73141461D01*
X140319232Y-73141461D01*
X140319284Y-73082205D01*
X140070894Y-72481057D01*
X139843703Y-72253468D01*
X142211073Y-72253468D01*
X143184000Y-73226395D01*
X144156927Y-72253468D01*
X144058264Y-71986613D01*
X143448539Y-71760092D01*
X142798540Y-71784144D01*
X142309736Y-71986613D01*
X142211073Y-72253468D01*
X139843703Y-72253468D01*
X139611363Y-72020722D01*
X139010648Y-71771284D01*
X138360205Y-71770716D01*
X137759057Y-72019106D01*
X137298722Y-72478637D01*
X137049284Y-73079352D01*
X137048716Y-73729795D01*
X131587064Y-73729795D01*
X131678371Y-73692068D01*
X132110551Y-73260643D01*
X132344733Y-72696670D01*
X132345265Y-72086009D01*
X132112068Y-71521629D01*
X132014601Y-71423991D01*
X133084735Y-71423991D01*
X133317932Y-71988371D01*
X133749357Y-72420551D01*
X134313330Y-72654733D01*
X134923991Y-72655265D01*
X135488371Y-72422068D01*
X135920551Y-71990643D01*
X136154733Y-71426670D01*
X136155265Y-70816009D01*
X135922068Y-70251629D01*
X135744908Y-70074159D01*
X135879699Y-70018327D01*
X136058327Y-69839698D01*
X136155000Y-69606309D01*
X136155000Y-68865750D01*
X135996250Y-68707000D01*
X134747000Y-68707000D01*
X134747000Y-68727000D01*
X134493000Y-68727000D01*
X134493000Y-68707000D01*
X133243750Y-68707000D01*
X133085000Y-68865750D01*
X133085000Y-69606309D01*
X133181673Y-69839698D01*
X133360301Y-70018327D01*
X133494994Y-70074119D01*
X133319449Y-70249357D01*
X133085267Y-70813330D01*
X133084735Y-71423991D01*
X132014601Y-71423991D01*
X131680643Y-71089449D01*
X131116670Y-70855267D01*
X130506009Y-70854735D01*
X129941629Y-71087932D01*
X129539677Y-71489182D01*
X129140643Y-71089449D01*
X128576670Y-70855267D01*
X127966009Y-70854735D01*
X127401629Y-71087932D01*
X126999677Y-71489182D01*
X126600643Y-71089449D01*
X126036670Y-70855267D01*
X125426009Y-70854735D01*
X124861629Y-71087932D01*
X124459677Y-71489182D01*
X124060643Y-71089449D01*
X123496670Y-70855267D01*
X122886009Y-70854735D01*
X122321629Y-71087932D01*
X121919677Y-71489182D01*
X121520643Y-71089449D01*
X120956670Y-70855267D01*
X120346009Y-70854735D01*
X119781629Y-71087932D01*
X119379677Y-71489182D01*
X118980643Y-71089449D01*
X118416670Y-70855267D01*
X117806009Y-70854735D01*
X117241629Y-71087932D01*
X116839677Y-71489182D01*
X116440643Y-71089449D01*
X115876670Y-70855267D01*
X115266009Y-70854735D01*
X114701629Y-71087932D01*
X114299677Y-71489182D01*
X113900643Y-71089449D01*
X113336670Y-70855267D01*
X112726009Y-70854735D01*
X112161629Y-71087932D01*
X111729449Y-71519357D01*
X111720797Y-71540194D01*
X111570159Y-71489446D01*
X110669605Y-72390000D01*
X110683748Y-72404143D01*
X110504143Y-72583748D01*
X110490000Y-72569605D01*
X110475858Y-72583748D01*
X110296253Y-72404143D01*
X110310395Y-72390000D01*
X109409841Y-71489446D01*
X109259673Y-71540035D01*
X109252068Y-71521629D01*
X109040650Y-71309841D01*
X109589446Y-71309841D01*
X110490000Y-72210395D01*
X111390554Y-71309841D01*
X111304148Y-71053357D01*
X110730664Y-70843542D01*
X110120540Y-70869161D01*
X109675852Y-71053357D01*
X109589446Y-71309841D01*
X109040650Y-71309841D01*
X108820643Y-71089449D01*
X108256670Y-70855267D01*
X107646009Y-70854735D01*
X107081629Y-71087932D01*
X106679677Y-71489182D01*
X106280643Y-71089449D01*
X105716670Y-70855267D01*
X105106009Y-70854735D01*
X104541629Y-71087932D01*
X104139677Y-71489182D01*
X103740643Y-71089449D01*
X103176670Y-70855267D01*
X102566009Y-70854735D01*
X102362000Y-70939030D01*
X102362000Y-67553691D01*
X133085000Y-67553691D01*
X133085000Y-68294250D01*
X133243750Y-68453000D01*
X134493000Y-68453000D01*
X134493000Y-67203750D01*
X134747000Y-67203750D01*
X134747000Y-68453000D01*
X135996250Y-68453000D01*
X136155000Y-68294250D01*
X136155000Y-67553691D01*
X136058327Y-67320302D01*
X135967821Y-67229795D01*
X137048716Y-67229795D01*
X137297106Y-67830943D01*
X137756637Y-68291278D01*
X138357352Y-68540716D01*
X139007795Y-68541284D01*
X139608943Y-68292894D01*
X139843715Y-68058532D01*
X142211073Y-68058532D01*
X142309736Y-68325387D01*
X142919461Y-68551908D01*
X143569460Y-68527856D01*
X144058264Y-68325387D01*
X144156927Y-68058532D01*
X143184000Y-67085605D01*
X142211073Y-68058532D01*
X139843715Y-68058532D01*
X140069278Y-67833363D01*
X140318716Y-67232648D01*
X140319232Y-66641461D01*
X141538092Y-66641461D01*
X141562144Y-67291460D01*
X141764613Y-67780264D01*
X142031468Y-67878927D01*
X143004395Y-66906000D01*
X142031468Y-65933073D01*
X141764613Y-66031736D01*
X141538092Y-66641461D01*
X140319232Y-66641461D01*
X140319284Y-66582205D01*
X140070894Y-65981057D01*
X139843703Y-65753468D01*
X142211073Y-65753468D01*
X143184000Y-66726395D01*
X144156927Y-65753468D01*
X144058264Y-65486613D01*
X143448539Y-65260092D01*
X142798540Y-65284144D01*
X142309736Y-65486613D01*
X142211073Y-65753468D01*
X139843703Y-65753468D01*
X139611363Y-65520722D01*
X139010648Y-65271284D01*
X138360205Y-65270716D01*
X137759057Y-65519106D01*
X137298722Y-65978637D01*
X137049284Y-66579352D01*
X137048716Y-67229795D01*
X135967821Y-67229795D01*
X135879699Y-67141673D01*
X135646310Y-67045000D01*
X134905750Y-67045000D01*
X134747000Y-67203750D01*
X134493000Y-67203750D01*
X134334250Y-67045000D01*
X133593690Y-67045000D01*
X133360301Y-67141673D01*
X133181673Y-67320302D01*
X133085000Y-67553691D01*
X102362000Y-67553691D01*
X102362000Y-66225167D01*
X115269838Y-66225167D01*
X115411883Y-66568943D01*
X115674673Y-66832192D01*
X116018201Y-66974838D01*
X116390167Y-66975162D01*
X116733943Y-66833117D01*
X116767118Y-66800000D01*
X118182537Y-66800000D01*
X118214673Y-66832192D01*
X118558201Y-66974838D01*
X118930167Y-66975162D01*
X119273943Y-66833117D01*
X119537192Y-66570327D01*
X119679838Y-66226799D01*
X119680162Y-65854833D01*
X119538117Y-65511057D01*
X119275327Y-65247808D01*
X118931799Y-65105162D01*
X118559833Y-65104838D01*
X118216057Y-65246883D01*
X118182882Y-65280000D01*
X116767463Y-65280000D01*
X116735327Y-65247808D01*
X116391799Y-65105162D01*
X116019833Y-65104838D01*
X115676057Y-65246883D01*
X115412808Y-65509673D01*
X115270162Y-65853201D01*
X115269838Y-66225167D01*
X102362000Y-66225167D01*
X102362000Y-58601133D01*
X102563330Y-58684733D01*
X103173991Y-58685265D01*
X103738371Y-58452068D01*
X103960668Y-58230159D01*
X104509446Y-58230159D01*
X104595852Y-58486643D01*
X105169336Y-58696458D01*
X105779460Y-58670839D01*
X106224148Y-58486643D01*
X106310554Y-58230159D01*
X105410000Y-57329605D01*
X104509446Y-58230159D01*
X103960668Y-58230159D01*
X104170551Y-58020643D01*
X104179203Y-57999806D01*
X104329841Y-58050554D01*
X105230395Y-57150000D01*
X105589605Y-57150000D01*
X106490159Y-58050554D01*
X106640327Y-57999965D01*
X106647932Y-58018371D01*
X107079357Y-58450551D01*
X107643330Y-58684733D01*
X108253991Y-58685265D01*
X108818371Y-58452068D01*
X109220323Y-58050818D01*
X109619357Y-58450551D01*
X110183330Y-58684733D01*
X110593950Y-58685091D01*
X110459449Y-58819357D01*
X110225267Y-59383330D01*
X110224735Y-59993991D01*
X110457932Y-60558371D01*
X110889357Y-60990551D01*
X111453330Y-61224733D01*
X112063991Y-61225265D01*
X112628371Y-60992068D01*
X113030323Y-60590818D01*
X113429357Y-60990551D01*
X113993330Y-61224733D01*
X114603991Y-61225265D01*
X115168371Y-60992068D01*
X115600551Y-60560643D01*
X115834733Y-59996670D01*
X115835265Y-59386009D01*
X115602068Y-58821629D01*
X115465587Y-58684909D01*
X115873991Y-58685265D01*
X116438371Y-58452068D01*
X116840323Y-58050818D01*
X117239357Y-58450551D01*
X117803330Y-58684733D01*
X117842728Y-58684767D01*
X117951883Y-58948943D01*
X118214673Y-59212192D01*
X118558201Y-59354838D01*
X118930167Y-59355162D01*
X119273943Y-59213117D01*
X119307118Y-59180000D01*
X121992537Y-59180000D01*
X122024673Y-59212192D01*
X122368201Y-59354838D01*
X122740167Y-59355162D01*
X123083943Y-59213117D01*
X123347192Y-58950327D01*
X123457269Y-58685233D01*
X123493991Y-58685265D01*
X124058371Y-58452068D01*
X124460323Y-58050818D01*
X124859357Y-58450551D01*
X125423330Y-58684733D01*
X126033991Y-58685265D01*
X126598371Y-58452068D01*
X127000323Y-58050818D01*
X127399357Y-58450551D01*
X127963330Y-58684733D01*
X128573991Y-58685265D01*
X129138371Y-58452068D01*
X129540323Y-58050818D01*
X129939357Y-58450551D01*
X130050000Y-58496494D01*
X130050000Y-59762537D01*
X130017808Y-59794673D01*
X129875162Y-60138201D01*
X129874838Y-60510167D01*
X130016883Y-60853943D01*
X130279673Y-61117192D01*
X130623201Y-61259838D01*
X130995167Y-61260162D01*
X131338943Y-61118117D01*
X131602192Y-60855327D01*
X131744838Y-60511799D01*
X131745162Y-60139833D01*
X131603117Y-59796057D01*
X131570000Y-59762882D01*
X131570000Y-59690000D01*
X133105907Y-59690000D01*
X133218946Y-60258285D01*
X133540853Y-60740054D01*
X133870026Y-60960000D01*
X133540853Y-61179946D01*
X133218946Y-61661715D01*
X133105907Y-62230000D01*
X133218946Y-62798285D01*
X133540853Y-63280054D01*
X133870026Y-63500000D01*
X133540853Y-63719946D01*
X133218946Y-64201715D01*
X133105907Y-64770000D01*
X133218946Y-65338285D01*
X133540853Y-65820054D01*
X134022622Y-66141961D01*
X134590907Y-66255000D01*
X134649093Y-66255000D01*
X135217378Y-66141961D01*
X135699147Y-65820054D01*
X136021054Y-65338285D01*
X136134093Y-64770000D01*
X136021054Y-64201715D01*
X135699147Y-63719946D01*
X135369974Y-63500000D01*
X135699147Y-63280054D01*
X136021054Y-62798285D01*
X136134093Y-62230000D01*
X136021054Y-61661715D01*
X135699147Y-61179946D01*
X135369974Y-60960000D01*
X135699147Y-60740054D01*
X136021054Y-60258285D01*
X136134093Y-59690000D01*
X136021054Y-59121715D01*
X135699147Y-58639946D01*
X135657548Y-58612150D01*
X135705317Y-58603162D01*
X135921441Y-58464090D01*
X136066431Y-58251890D01*
X136117440Y-58000000D01*
X136117440Y-56300000D01*
X136073162Y-56064683D01*
X135934090Y-55848559D01*
X135721890Y-55703569D01*
X135470000Y-55652560D01*
X133770000Y-55652560D01*
X133534683Y-55696838D01*
X133318559Y-55835910D01*
X133173569Y-56048110D01*
X133122560Y-56300000D01*
X133122560Y-58000000D01*
X133166838Y-58235317D01*
X133305910Y-58451441D01*
X133518110Y-58596431D01*
X133585541Y-58610086D01*
X133540853Y-58639946D01*
X133218946Y-59121715D01*
X133105907Y-59690000D01*
X131570000Y-59690000D01*
X131570000Y-58496846D01*
X131678371Y-58452068D01*
X132110551Y-58020643D01*
X132344733Y-57456670D01*
X132345265Y-56846009D01*
X132112068Y-56281629D01*
X131680643Y-55849449D01*
X131116670Y-55615267D01*
X130506009Y-55614735D01*
X129941629Y-55847932D01*
X129539677Y-56249182D01*
X129140643Y-55849449D01*
X128576670Y-55615267D01*
X127966009Y-55614735D01*
X127401629Y-55847932D01*
X126999677Y-56249182D01*
X126600643Y-55849449D01*
X126036670Y-55615267D01*
X125426009Y-55614735D01*
X124861629Y-55847932D01*
X124459677Y-56249182D01*
X124060643Y-55849449D01*
X123496670Y-55615267D01*
X122886009Y-55614735D01*
X122321629Y-55847932D01*
X121919677Y-56249182D01*
X121520643Y-55849449D01*
X120956670Y-55615267D01*
X120346009Y-55614735D01*
X119781629Y-55847932D01*
X119379677Y-56249182D01*
X118980643Y-55849449D01*
X118416670Y-55615267D01*
X117806009Y-55614735D01*
X117241629Y-55847932D01*
X116839677Y-56249182D01*
X116440643Y-55849449D01*
X115876670Y-55615267D01*
X115266009Y-55614735D01*
X114701629Y-55847932D01*
X114299677Y-56249182D01*
X113900643Y-55849449D01*
X113336670Y-55615267D01*
X112726009Y-55614735D01*
X112161629Y-55847932D01*
X111759677Y-56249182D01*
X111360643Y-55849449D01*
X110796670Y-55615267D01*
X110186009Y-55614735D01*
X109621629Y-55847932D01*
X109219677Y-56249182D01*
X108820643Y-55849449D01*
X108256670Y-55615267D01*
X107646009Y-55614735D01*
X107081629Y-55847932D01*
X106649449Y-56279357D01*
X106640797Y-56300194D01*
X106490159Y-56249446D01*
X105589605Y-57150000D01*
X105230395Y-57150000D01*
X104329841Y-56249446D01*
X104179673Y-56300035D01*
X104172068Y-56281629D01*
X103960650Y-56069841D01*
X104509446Y-56069841D01*
X105410000Y-56970395D01*
X106310554Y-56069841D01*
X106224148Y-55813357D01*
X105650664Y-55603542D01*
X105040540Y-55629161D01*
X104595852Y-55813357D01*
X104509446Y-56069841D01*
X103960650Y-56069841D01*
X103740643Y-55849449D01*
X103176670Y-55615267D01*
X102566009Y-55614735D01*
X102001629Y-55847932D01*
X101727000Y-56122081D01*
X101727000Y-54758342D01*
X101768110Y-54786431D01*
X102020000Y-54837440D01*
X103720000Y-54837440D01*
X103847400Y-54813468D01*
X103981883Y-55138943D01*
X104244673Y-55402192D01*
X104588201Y-55544838D01*
X104960167Y-55545162D01*
X105303943Y-55403117D01*
X105567192Y-55140327D01*
X105709838Y-54796799D01*
X105709878Y-54751389D01*
X105766890Y-54781476D01*
X106176924Y-54611645D01*
X106605183Y-54221358D01*
X106851486Y-53696892D01*
X106730819Y-53467000D01*
X105537000Y-53467000D01*
X105537000Y-53487000D01*
X105283000Y-53487000D01*
X105283000Y-53467000D01*
X105263000Y-53467000D01*
X105263000Y-53213000D01*
X105283000Y-53213000D01*
X105283000Y-52019845D01*
X105537000Y-52019845D01*
X105537000Y-53213000D01*
X106730819Y-53213000D01*
X106851486Y-52983108D01*
X106619910Y-52490000D01*
X108992560Y-52490000D01*
X108992560Y-54190000D01*
X109036838Y-54425317D01*
X109175910Y-54641441D01*
X109388110Y-54786431D01*
X109640000Y-54837440D01*
X111340000Y-54837440D01*
X111575317Y-54793162D01*
X111791441Y-54654090D01*
X111936431Y-54441890D01*
X111958301Y-54333893D01*
X112263076Y-54611645D01*
X112673110Y-54781476D01*
X112903000Y-54660155D01*
X112903000Y-53467000D01*
X113157000Y-53467000D01*
X113157000Y-54660155D01*
X113386890Y-54781476D01*
X113796924Y-54611645D01*
X114225183Y-54221358D01*
X114471486Y-53696892D01*
X114350819Y-53467000D01*
X113157000Y-53467000D01*
X112903000Y-53467000D01*
X112883000Y-53467000D01*
X112883000Y-53213000D01*
X112903000Y-53213000D01*
X112903000Y-52019845D01*
X113157000Y-52019845D01*
X113157000Y-53213000D01*
X114350819Y-53213000D01*
X114471486Y-52983108D01*
X114225183Y-52458642D01*
X113796924Y-52068355D01*
X113386890Y-51898524D01*
X113157000Y-52019845D01*
X112903000Y-52019845D01*
X112673110Y-51898524D01*
X112263076Y-52068355D01*
X111960063Y-52344501D01*
X111943162Y-52254683D01*
X111804090Y-52038559D01*
X111591890Y-51893569D01*
X111340000Y-51842560D01*
X109640000Y-51842560D01*
X109404683Y-51886838D01*
X109188559Y-52025910D01*
X109043569Y-52238110D01*
X108992560Y-52490000D01*
X106619910Y-52490000D01*
X106605183Y-52458642D01*
X106176924Y-52068355D01*
X105766890Y-51898524D01*
X105537000Y-52019845D01*
X105283000Y-52019845D01*
X105053110Y-51898524D01*
X104643076Y-52068355D01*
X104340063Y-52344501D01*
X104323162Y-52254683D01*
X104184090Y-52038559D01*
X103971890Y-51893569D01*
X103720000Y-51842560D01*
X102020000Y-51842560D01*
X101784683Y-51886838D01*
X101727000Y-51923956D01*
X101727000Y-48387000D01*
X103991658Y-48387000D01*
X103963569Y-48428110D01*
G36*
X109409839Y-73290553D02*
X109295282Y-73405110D01*
X109372758Y-73482586D01*
X109326057Y-73501883D01*
X109062808Y-73764673D01*
X108953235Y-74028554D01*
X108691057Y-74136883D01*
X108427808Y-74399673D01*
X108285162Y-74743201D01*
X108285139Y-74770003D01*
X108077000Y-74879845D01*
X108077000Y-76073000D01*
X108097000Y-76073000D01*
X108097000Y-76327000D01*
X108077000Y-76327000D01*
X108077000Y-76347000D01*
X107823000Y-76347000D01*
X107823000Y-76327000D01*
X107803000Y-76327000D01*
X107803000Y-76073000D01*
X107823000Y-76073000D01*
X107823000Y-74879845D01*
X107593110Y-74758524D01*
X107183076Y-74928355D01*
X106754817Y-75318642D01*
X106687702Y-75461553D01*
X106460054Y-75120853D01*
X105978285Y-74798946D01*
X105410000Y-74685907D01*
X104841715Y-74798946D01*
X104359946Y-75120853D01*
X104140000Y-75450026D01*
X103920054Y-75120853D01*
X103438285Y-74798946D01*
X102870000Y-74685907D01*
X102301715Y-74798946D01*
X101819946Y-75120853D01*
X101727000Y-75259957D01*
X101727000Y-73417717D01*
X101999357Y-73690551D01*
X102563330Y-73924733D01*
X103173991Y-73925265D01*
X103738371Y-73692068D01*
X104140323Y-73290818D01*
X104539357Y-73690551D01*
X105103330Y-73924733D01*
X105713991Y-73925265D01*
X106278371Y-73692068D01*
X106680323Y-73290818D01*
X107079357Y-73690551D01*
X107643330Y-73924733D01*
X108253991Y-73925265D01*
X108818371Y-73692068D01*
X109250551Y-73260643D01*
X109259203Y-73239806D01*
X109409839Y-73290553D01*
X109409839Y-73290553D01*
G37*
X109409839Y-73290553D02*
X109295282Y-73405110D01*
X109372758Y-73482586D01*
X109326057Y-73501883D01*
X109062808Y-73764673D01*
X108953235Y-74028554D01*
X108691057Y-74136883D01*
X108427808Y-74399673D01*
X108285162Y-74743201D01*
X108285139Y-74770003D01*
X108077000Y-74879845D01*
X108077000Y-76073000D01*
X108097000Y-76073000D01*
X108097000Y-76327000D01*
X108077000Y-76327000D01*
X108077000Y-76347000D01*
X107823000Y-76347000D01*
X107823000Y-76327000D01*
X107803000Y-76327000D01*
X107803000Y-76073000D01*
X107823000Y-76073000D01*
X107823000Y-74879845D01*
X107593110Y-74758524D01*
X107183076Y-74928355D01*
X106754817Y-75318642D01*
X106687702Y-75461553D01*
X106460054Y-75120853D01*
X105978285Y-74798946D01*
X105410000Y-74685907D01*
X104841715Y-74798946D01*
X104359946Y-75120853D01*
X104140000Y-75450026D01*
X103920054Y-75120853D01*
X103438285Y-74798946D01*
X102870000Y-74685907D01*
X102301715Y-74798946D01*
X101819946Y-75120853D01*
X101727000Y-75259957D01*
X101727000Y-73417717D01*
X101999357Y-73690551D01*
X102563330Y-73924733D01*
X103173991Y-73925265D01*
X103738371Y-73692068D01*
X104140323Y-73290818D01*
X104539357Y-73690551D01*
X105103330Y-73924733D01*
X105713991Y-73925265D01*
X106278371Y-73692068D01*
X106680323Y-73290818D01*
X107079357Y-73690551D01*
X107643330Y-73924733D01*
X108253991Y-73925265D01*
X108818371Y-73692068D01*
X109250551Y-73260643D01*
X109259203Y-73239806D01*
X109409839Y-73290553D01*
M02*
