G04 #@! TF.FileFunction,Legend,Top*
%FSLAX46Y46*%
G04 Gerber Fmt 4.6, Leading zero omitted, Abs format (unit mm)*
G04 Created by KiCad (PCBNEW 4.0.7) date 05/04/18 00:13:25*
%MOMM*%
%LPD*%
G01*
G04 APERTURE LIST*
%ADD10C,0.100000*%
%ADD11C,0.150000*%
%ADD12C,0.300000*%
%ADD13C,0.200000*%
%ADD14C,0.120000*%
%ADD15C,0.500000*%
G04 APERTURE END LIST*
D10*
D11*
X141966905Y-95885714D02*
X141166905Y-95785714D01*
X141166905Y-95595238D01*
X141205000Y-95485714D01*
X141281190Y-95419047D01*
X141357381Y-95390476D01*
X141509762Y-95371428D01*
X141624048Y-95385714D01*
X141776429Y-95442857D01*
X141852619Y-95490475D01*
X141928810Y-95576190D01*
X141966905Y-95695238D01*
X141966905Y-95885714D01*
X141166905Y-94642857D02*
X141166905Y-94795238D01*
X141205000Y-94876190D01*
X141243095Y-94919047D01*
X141357381Y-95009524D01*
X141509762Y-95066666D01*
X141814524Y-95104761D01*
X141890714Y-95076190D01*
X141928810Y-95042857D01*
X141966905Y-94971428D01*
X141966905Y-94819047D01*
X141928810Y-94738095D01*
X141890714Y-94695237D01*
X141814524Y-94647618D01*
X141624048Y-94623809D01*
X141547857Y-94652380D01*
X141509762Y-94685714D01*
X141471667Y-94757142D01*
X141471667Y-94909523D01*
X141509762Y-94990476D01*
X141547857Y-95033333D01*
X141624048Y-95080952D01*
X147681905Y-95885714D02*
X146881905Y-95785714D01*
X146881905Y-95595238D01*
X146920000Y-95485714D01*
X146996190Y-95419047D01*
X147072381Y-95390476D01*
X147224762Y-95371428D01*
X147339048Y-95385714D01*
X147491429Y-95442857D01*
X147567619Y-95490475D01*
X147643810Y-95576190D01*
X147681905Y-95695238D01*
X147681905Y-95885714D01*
X146881905Y-95061904D02*
X146881905Y-94528571D01*
X147681905Y-94971428D01*
X146920000Y-93269523D02*
X146881905Y-93340952D01*
X146881905Y-93455237D01*
X146920000Y-93574285D01*
X146996190Y-93660000D01*
X147072381Y-93707619D01*
X147224762Y-93764761D01*
X147339048Y-93779047D01*
X147491429Y-93760000D01*
X147567619Y-93731428D01*
X147643810Y-93664761D01*
X147681905Y-93555237D01*
X147681905Y-93479047D01*
X147643810Y-93359999D01*
X147605714Y-93317142D01*
X147339048Y-93283809D01*
X147339048Y-93436190D01*
X147681905Y-92983809D02*
X146881905Y-92883809D01*
X147681905Y-92526666D01*
X146881905Y-92426666D01*
X147681905Y-92145714D02*
X146881905Y-92045714D01*
X146881905Y-91855238D01*
X146920000Y-91745714D01*
X146996190Y-91679047D01*
X147072381Y-91650476D01*
X147224762Y-91631428D01*
X147339048Y-91645714D01*
X147491429Y-91702857D01*
X147567619Y-91750475D01*
X147643810Y-91836190D01*
X147681905Y-91955238D01*
X147681905Y-92145714D01*
X141205000Y-93269523D02*
X141166905Y-93340952D01*
X141166905Y-93455237D01*
X141205000Y-93574285D01*
X141281190Y-93660000D01*
X141357381Y-93707619D01*
X141509762Y-93764761D01*
X141624048Y-93779047D01*
X141776429Y-93760000D01*
X141852619Y-93731428D01*
X141928810Y-93664761D01*
X141966905Y-93555237D01*
X141966905Y-93479047D01*
X141928810Y-93359999D01*
X141890714Y-93317142D01*
X141624048Y-93283809D01*
X141624048Y-93436190D01*
X141966905Y-92983809D02*
X141166905Y-92883809D01*
X141966905Y-92526666D01*
X141166905Y-92426666D01*
X141966905Y-92145714D02*
X141166905Y-92045714D01*
X141166905Y-91855238D01*
X141205000Y-91745714D01*
X141281190Y-91679047D01*
X141357381Y-91650476D01*
X141509762Y-91631428D01*
X141624048Y-91645714D01*
X141776429Y-91702857D01*
X141852619Y-91750475D01*
X141928810Y-91836190D01*
X141966905Y-91955238D01*
X141966905Y-92145714D01*
X141205000Y-109779523D02*
X141166905Y-109850952D01*
X141166905Y-109965237D01*
X141205000Y-110084285D01*
X141281190Y-110170000D01*
X141357381Y-110217619D01*
X141509762Y-110274761D01*
X141624048Y-110289047D01*
X141776429Y-110270000D01*
X141852619Y-110241428D01*
X141928810Y-110174761D01*
X141966905Y-110065237D01*
X141966905Y-109989047D01*
X141928810Y-109869999D01*
X141890714Y-109827142D01*
X141624048Y-109793809D01*
X141624048Y-109946190D01*
X141966905Y-109493809D02*
X141166905Y-109393809D01*
X141966905Y-109036666D01*
X141166905Y-108936666D01*
X141966905Y-108655714D02*
X141166905Y-108555714D01*
X141166905Y-108365238D01*
X141205000Y-108255714D01*
X141281190Y-108189047D01*
X141357381Y-108160476D01*
X141509762Y-108141428D01*
X141624048Y-108155714D01*
X141776429Y-108212857D01*
X141852619Y-108260475D01*
X141928810Y-108346190D01*
X141966905Y-108465238D01*
X141966905Y-108655714D01*
X140410477Y-136760000D02*
X140339048Y-136721905D01*
X140224763Y-136721905D01*
X140105715Y-136760000D01*
X140020000Y-136836190D01*
X139972381Y-136912381D01*
X139915239Y-137064762D01*
X139900953Y-137179048D01*
X139920000Y-137331429D01*
X139948572Y-137407619D01*
X140015239Y-137483810D01*
X140124763Y-137521905D01*
X140200953Y-137521905D01*
X140320001Y-137483810D01*
X140362858Y-137445714D01*
X140396191Y-137179048D01*
X140243810Y-137179048D01*
X140696191Y-137521905D02*
X140796191Y-136721905D01*
X141153334Y-137521905D01*
X141253334Y-136721905D01*
X141534286Y-137521905D02*
X141634286Y-136721905D01*
X141824762Y-136721905D01*
X141934286Y-136760000D01*
X142000953Y-136836190D01*
X142029524Y-136912381D01*
X142048572Y-137064762D01*
X142034286Y-137179048D01*
X141977143Y-137331429D01*
X141929525Y-137407619D01*
X141843810Y-137483810D01*
X141724762Y-137521905D01*
X141534286Y-137521905D01*
D12*
X135922144Y-78640714D02*
X135850715Y-78712143D01*
X135636429Y-78783571D01*
X135493572Y-78783571D01*
X135279287Y-78712143D01*
X135136429Y-78569286D01*
X135065001Y-78426429D01*
X134993572Y-78140714D01*
X134993572Y-77926429D01*
X135065001Y-77640714D01*
X135136429Y-77497857D01*
X135279287Y-77355000D01*
X135493572Y-77283571D01*
X135636429Y-77283571D01*
X135850715Y-77355000D01*
X135922144Y-77426429D01*
X137422144Y-78640714D02*
X137350715Y-78712143D01*
X137136429Y-78783571D01*
X136993572Y-78783571D01*
X136779287Y-78712143D01*
X136636429Y-78569286D01*
X136565001Y-78426429D01*
X136493572Y-78140714D01*
X136493572Y-77926429D01*
X136565001Y-77640714D01*
X136636429Y-77497857D01*
X136779287Y-77355000D01*
X136993572Y-77283571D01*
X137136429Y-77283571D01*
X137350715Y-77355000D01*
X137422144Y-77426429D01*
X138850715Y-78783571D02*
X137993572Y-78783571D01*
X138422144Y-78783571D02*
X138422144Y-77283571D01*
X138279287Y-77497857D01*
X138136429Y-77640714D01*
X137993572Y-77712143D01*
X140279286Y-78783571D02*
X139422143Y-78783571D01*
X139850715Y-78783571D02*
X139850715Y-77283571D01*
X139707858Y-77497857D01*
X139565000Y-77640714D01*
X139422143Y-77712143D01*
X141207857Y-77283571D02*
X141350714Y-77283571D01*
X141493571Y-77355000D01*
X141565000Y-77426429D01*
X141636429Y-77569286D01*
X141707857Y-77855000D01*
X141707857Y-78212143D01*
X141636429Y-78497857D01*
X141565000Y-78640714D01*
X141493571Y-78712143D01*
X141350714Y-78783571D01*
X141207857Y-78783571D01*
X141065000Y-78712143D01*
X140993571Y-78640714D01*
X140922143Y-78497857D01*
X140850714Y-78212143D01*
X140850714Y-77855000D01*
X140922143Y-77569286D01*
X140993571Y-77426429D01*
X141065000Y-77355000D01*
X141207857Y-77283571D01*
X143136428Y-78783571D02*
X142279285Y-78783571D01*
X142707857Y-78783571D02*
X142707857Y-77283571D01*
X142565000Y-77497857D01*
X142422142Y-77640714D01*
X142279285Y-77712143D01*
X142045715Y-54653571D02*
X142045715Y-53153571D01*
X142688572Y-53296429D02*
X142760001Y-53225000D01*
X142902858Y-53153571D01*
X143260001Y-53153571D01*
X143402858Y-53225000D01*
X143474287Y-53296429D01*
X143545715Y-53439286D01*
X143545715Y-53582143D01*
X143474287Y-53796429D01*
X142617144Y-54653571D01*
X143545715Y-54653571D01*
X145045715Y-54510714D02*
X144974286Y-54582143D01*
X144760000Y-54653571D01*
X144617143Y-54653571D01*
X144402858Y-54582143D01*
X144260000Y-54439286D01*
X144188572Y-54296429D01*
X144117143Y-54010714D01*
X144117143Y-53796429D01*
X144188572Y-53510714D01*
X144260000Y-53367857D01*
X144402858Y-53225000D01*
X144617143Y-53153571D01*
X144760000Y-53153571D01*
X144974286Y-53225000D01*
X145045715Y-53296429D01*
X125535715Y-54653571D02*
X125535715Y-53153571D01*
X126178572Y-53296429D02*
X126250001Y-53225000D01*
X126392858Y-53153571D01*
X126750001Y-53153571D01*
X126892858Y-53225000D01*
X126964287Y-53296429D01*
X127035715Y-53439286D01*
X127035715Y-53582143D01*
X126964287Y-53796429D01*
X126107144Y-54653571D01*
X127035715Y-54653571D01*
X128535715Y-54510714D02*
X128464286Y-54582143D01*
X128250000Y-54653571D01*
X128107143Y-54653571D01*
X127892858Y-54582143D01*
X127750000Y-54439286D01*
X127678572Y-54296429D01*
X127607143Y-54010714D01*
X127607143Y-53796429D01*
X127678572Y-53510714D01*
X127750000Y-53367857D01*
X127892858Y-53225000D01*
X128107143Y-53153571D01*
X128250000Y-53153571D01*
X128464286Y-53225000D01*
X128535715Y-53296429D01*
D11*
X145831421Y-143803232D02*
X145945905Y-143378967D01*
X145508172Y-143479983D02*
X146144568Y-142985008D01*
X146360067Y-143200508D01*
X146383638Y-143277953D01*
X146380271Y-143328460D01*
X146346598Y-143402538D01*
X146255686Y-143473249D01*
X146168139Y-143493452D01*
X146110897Y-143490085D01*
X146026718Y-143459780D01*
X145811218Y-143244280D01*
X146077225Y-143995161D02*
X146127733Y-144099544D01*
X146262420Y-144234231D01*
X146346598Y-144264535D01*
X146403842Y-144267902D01*
X146491388Y-144247699D01*
X146551997Y-144200558D01*
X146585668Y-144126481D01*
X146589035Y-144075973D01*
X146565466Y-143998528D01*
X146488021Y-143867208D01*
X146464450Y-143789763D01*
X146467817Y-143739256D01*
X146501490Y-143665178D01*
X146562098Y-143618037D01*
X146649645Y-143597834D01*
X146706886Y-143601201D01*
X146791066Y-143631506D01*
X146925753Y-143766193D01*
X146976261Y-143870575D01*
X146945956Y-144325144D02*
X147134518Y-144513706D01*
X146881980Y-144853791D02*
X146612606Y-144584417D01*
X147249002Y-144089442D01*
X147518376Y-144358816D01*
X147680000Y-144520440D02*
X148003249Y-144843689D01*
X147205229Y-145177040D02*
X147841625Y-144682065D01*
X142968172Y-143479983D02*
X143604568Y-142985008D01*
X143338562Y-143527123D01*
X143981692Y-143362132D01*
X143345296Y-143857107D01*
X143614670Y-144126481D02*
X144251066Y-143631506D01*
X143887411Y-144345347D02*
X143937919Y-144449730D01*
X144072606Y-144584417D01*
X144156785Y-144614721D01*
X144214028Y-144618088D01*
X144301574Y-144597886D01*
X144362183Y-144550744D01*
X144395855Y-144476667D01*
X144399221Y-144426159D01*
X144375652Y-144348714D01*
X144298207Y-144217394D01*
X144274636Y-144139949D01*
X144278003Y-144089442D01*
X144311676Y-144015364D01*
X144372284Y-143968223D01*
X144459831Y-143948020D01*
X144517073Y-143951387D01*
X144601252Y-143981692D01*
X144735939Y-144116379D01*
X144786447Y-144220762D01*
X145166938Y-144547378D02*
X145274687Y-144655127D01*
X145298258Y-144732573D01*
X145291523Y-144833587D01*
X145197243Y-144954806D01*
X144985110Y-145119797D01*
X144836955Y-145187141D01*
X144722471Y-145180407D01*
X144638291Y-145150102D01*
X144530541Y-145042352D01*
X144506971Y-144964908D01*
X144513706Y-144863892D01*
X144607987Y-144742674D01*
X144820119Y-144577682D01*
X144968275Y-144510338D01*
X145082759Y-144517073D01*
X145166938Y-144547378D01*
X140620101Y-143618038D02*
X140670609Y-143722420D01*
X140805296Y-143857107D01*
X140889475Y-143887412D01*
X140946718Y-143890779D01*
X141034264Y-143870576D01*
X141094873Y-143823435D01*
X141128545Y-143749357D01*
X141131912Y-143698850D01*
X141108342Y-143621404D01*
X141030897Y-143490085D01*
X141007326Y-143412640D01*
X141010694Y-143362132D01*
X141044366Y-143288054D01*
X141104974Y-143240914D01*
X141192521Y-143220710D01*
X141249763Y-143224078D01*
X141333943Y-143254383D01*
X141468630Y-143389070D01*
X141519137Y-143493452D01*
X141539341Y-144483402D02*
X141482098Y-144480035D01*
X141370982Y-144422793D01*
X141317107Y-144368918D01*
X141266599Y-144264536D01*
X141273334Y-144163520D01*
X141307005Y-144089442D01*
X141401286Y-143968224D01*
X141492200Y-143897513D01*
X141640355Y-143830169D01*
X141727902Y-143809966D01*
X141842386Y-143816701D01*
X141953503Y-143873943D01*
X142007378Y-143927818D01*
X142057886Y-144032200D01*
X142054518Y-144082707D01*
X141721168Y-144772979D02*
X142357564Y-144278004D01*
X142044417Y-145096228D02*
X142165635Y-144570948D01*
X142680813Y-144601253D02*
X141993909Y-144560847D01*
X137888172Y-143479983D02*
X138524568Y-142985008D01*
X138258562Y-143527123D01*
X138901692Y-143362132D01*
X138265296Y-143857107D01*
X139278816Y-143739256D02*
X139386565Y-143847005D01*
X139410136Y-143924451D01*
X139403402Y-144025465D01*
X139309121Y-144146684D01*
X139096988Y-144311675D01*
X138948833Y-144379019D01*
X138834349Y-144372285D01*
X138750169Y-144341980D01*
X138642420Y-144234231D01*
X138618850Y-144156786D01*
X138625584Y-144055770D01*
X138719865Y-143934552D01*
X138931997Y-143769560D01*
X139080153Y-143702216D01*
X139194637Y-143708951D01*
X139278816Y-143739256D01*
X139130660Y-144668596D02*
X139181168Y-144772979D01*
X139315855Y-144907666D01*
X139400034Y-144937970D01*
X139457277Y-144941337D01*
X139544823Y-144921135D01*
X139605432Y-144873993D01*
X139639104Y-144799916D01*
X139642470Y-144749408D01*
X139618901Y-144671963D01*
X139541456Y-144540643D01*
X139517885Y-144463198D01*
X139521252Y-144412691D01*
X139554925Y-144338613D01*
X139615533Y-144291472D01*
X139703080Y-144271269D01*
X139760321Y-144274636D01*
X139844501Y-144304941D01*
X139979188Y-144439628D01*
X140029696Y-144544010D01*
X139666041Y-145257852D02*
X140302437Y-144762877D01*
X136783095Y-136721905D02*
X136949762Y-137521905D01*
X137316429Y-136721905D01*
X137949762Y-137445714D02*
X137906905Y-137483810D01*
X137787857Y-137521905D01*
X137711667Y-137521905D01*
X137602143Y-137483810D01*
X137535476Y-137407619D01*
X137506904Y-137331429D01*
X137487857Y-137179048D01*
X137502143Y-137064762D01*
X137559285Y-136912381D01*
X137606904Y-136836190D01*
X137692619Y-136760000D01*
X137811667Y-136721905D01*
X137887857Y-136721905D01*
X137997381Y-136760000D01*
X138030714Y-136798095D01*
X138749762Y-137445714D02*
X138706905Y-137483810D01*
X138587857Y-137521905D01*
X138511667Y-137521905D01*
X138402143Y-137483810D01*
X138335476Y-137407619D01*
X138306904Y-137331429D01*
X138287857Y-137179048D01*
X138302143Y-137064762D01*
X138359285Y-136912381D01*
X138406904Y-136836190D01*
X138492619Y-136760000D01*
X138611667Y-136721905D01*
X138687857Y-136721905D01*
X138797381Y-136760000D01*
X138830714Y-136798095D01*
X141215239Y-112591905D02*
X140834286Y-112591905D01*
X140748572Y-112972857D01*
X140791429Y-112934762D01*
X140872382Y-112896667D01*
X141062858Y-112896667D01*
X141134286Y-112934762D01*
X141167620Y-112972857D01*
X141196191Y-113049048D01*
X141172382Y-113239524D01*
X141124763Y-113315714D01*
X141081905Y-113353810D01*
X141000953Y-113391905D01*
X140810477Y-113391905D01*
X140739048Y-113353810D01*
X140705715Y-113315714D01*
X146223810Y-112858571D02*
X146157143Y-113391905D01*
X146071429Y-112553810D02*
X145809524Y-113125238D01*
X146304762Y-113125238D01*
X141738333Y-107268095D02*
X141738333Y-106887143D01*
X141966905Y-107372857D02*
X141166905Y-107006190D01*
X141966905Y-106839523D01*
X141166905Y-106549047D02*
X141166905Y-106053809D01*
X141471667Y-106358571D01*
X141471667Y-106244285D01*
X141509762Y-106172857D01*
X141547857Y-106139523D01*
X141624048Y-106110952D01*
X141814524Y-106134761D01*
X141890714Y-106182380D01*
X141928810Y-106225238D01*
X141966905Y-106306190D01*
X141966905Y-106534762D01*
X141928810Y-106606190D01*
X141890714Y-106639523D01*
X147453333Y-107268095D02*
X147453333Y-106887143D01*
X147681905Y-107372857D02*
X146881905Y-107006190D01*
X147681905Y-106839523D01*
X146958095Y-106520476D02*
X146920000Y-106477619D01*
X146881905Y-106396666D01*
X146881905Y-106206190D01*
X146920000Y-106134762D01*
X146958095Y-106101428D01*
X147034286Y-106072857D01*
X147110476Y-106082380D01*
X147224762Y-106134761D01*
X147681905Y-106649047D01*
X147681905Y-106153809D01*
X141738333Y-90758095D02*
X141738333Y-90377143D01*
X141966905Y-90862857D02*
X141166905Y-90496190D01*
X141966905Y-90329523D01*
X141966905Y-89643809D02*
X141966905Y-90100952D01*
X141966905Y-89872381D02*
X141166905Y-89772381D01*
X141281190Y-89862857D01*
X141357381Y-89948572D01*
X141395476Y-90029523D01*
X147453333Y-90758095D02*
X147453333Y-90377143D01*
X147681905Y-90862857D02*
X146881905Y-90496190D01*
X147681905Y-90329523D01*
X146881905Y-89810476D02*
X146881905Y-89734285D01*
X146920000Y-89662857D01*
X146958095Y-89629524D01*
X147034286Y-89600952D01*
X147186667Y-89581904D01*
X147377143Y-89605714D01*
X147529524Y-89662856D01*
X147605714Y-89710476D01*
X147643810Y-89753333D01*
X147681905Y-89834285D01*
X147681905Y-89910476D01*
X147643810Y-89981904D01*
X147605714Y-90015238D01*
X147529524Y-90043809D01*
X147377143Y-90062857D01*
X147186667Y-90039047D01*
X147034286Y-89981905D01*
X146958095Y-89934286D01*
X146920000Y-89891428D01*
X146881905Y-89810476D01*
X146920000Y-109779523D02*
X146881905Y-109850952D01*
X146881905Y-109965237D01*
X146920000Y-110084285D01*
X146996190Y-110170000D01*
X147072381Y-110217619D01*
X147224762Y-110274761D01*
X147339048Y-110289047D01*
X147491429Y-110270000D01*
X147567619Y-110241428D01*
X147643810Y-110174761D01*
X147681905Y-110065237D01*
X147681905Y-109989047D01*
X147643810Y-109869999D01*
X147605714Y-109827142D01*
X147339048Y-109793809D01*
X147339048Y-109946190D01*
X147681905Y-109493809D02*
X146881905Y-109393809D01*
X147681905Y-109036666D01*
X146881905Y-108936666D01*
X147681905Y-108655714D02*
X146881905Y-108555714D01*
X146881905Y-108365238D01*
X146920000Y-108255714D01*
X146996190Y-108189047D01*
X147072381Y-108160476D01*
X147224762Y-108141428D01*
X147339048Y-108155714D01*
X147491429Y-108212857D01*
X147567619Y-108260475D01*
X147643810Y-108346190D01*
X147681905Y-108465238D01*
X147681905Y-108655714D01*
X143133095Y-66236905D02*
X143299762Y-67036905D01*
X143666429Y-66236905D01*
X144299762Y-66960714D02*
X144256905Y-66998810D01*
X144137857Y-67036905D01*
X144061667Y-67036905D01*
X143952143Y-66998810D01*
X143885476Y-66922619D01*
X143856904Y-66846429D01*
X143837857Y-66694048D01*
X143852143Y-66579762D01*
X143909285Y-66427381D01*
X143956904Y-66351190D01*
X144042619Y-66275000D01*
X144161667Y-66236905D01*
X144237857Y-66236905D01*
X144347381Y-66275000D01*
X144380714Y-66313095D01*
X145099762Y-66960714D02*
X145056905Y-66998810D01*
X144937857Y-67036905D01*
X144861667Y-67036905D01*
X144752143Y-66998810D01*
X144685476Y-66922619D01*
X144656904Y-66846429D01*
X144637857Y-66694048D01*
X144652143Y-66579762D01*
X144709285Y-66427381D01*
X144756904Y-66351190D01*
X144842619Y-66275000D01*
X144961667Y-66236905D01*
X145037857Y-66236905D01*
X145147381Y-66275000D01*
X145180714Y-66313095D01*
X143585477Y-63735000D02*
X143514048Y-63696905D01*
X143399763Y-63696905D01*
X143280715Y-63735000D01*
X143195000Y-63811190D01*
X143147381Y-63887381D01*
X143090239Y-64039762D01*
X143075953Y-64154048D01*
X143095000Y-64306429D01*
X143123572Y-64382619D01*
X143190239Y-64458810D01*
X143299763Y-64496905D01*
X143375953Y-64496905D01*
X143495001Y-64458810D01*
X143537858Y-64420714D01*
X143571191Y-64154048D01*
X143418810Y-64154048D01*
X143871191Y-64496905D02*
X143971191Y-63696905D01*
X144328334Y-64496905D01*
X144428334Y-63696905D01*
X144709286Y-64496905D02*
X144809286Y-63696905D01*
X144999762Y-63696905D01*
X145109286Y-63735000D01*
X145175953Y-63811190D01*
X145204524Y-63887381D01*
X145223572Y-64039762D01*
X145209286Y-64154048D01*
X145152143Y-64306429D01*
X145104525Y-64382619D01*
X145018810Y-64458810D01*
X144899762Y-64496905D01*
X144709286Y-64496905D01*
X143152143Y-61918810D02*
X143261667Y-61956905D01*
X143452143Y-61956905D01*
X143533095Y-61918810D01*
X143575953Y-61880714D01*
X143623572Y-61804524D01*
X143633095Y-61728333D01*
X143604524Y-61652143D01*
X143571190Y-61614048D01*
X143499762Y-61575952D01*
X143352143Y-61537857D01*
X143280714Y-61499762D01*
X143247381Y-61461667D01*
X143218810Y-61385476D01*
X143228333Y-61309286D01*
X143275952Y-61233095D01*
X143318809Y-61195000D01*
X143399762Y-61156905D01*
X143590238Y-61156905D01*
X143699762Y-61195000D01*
X144414048Y-61880714D02*
X144371191Y-61918810D01*
X144252143Y-61956905D01*
X144175953Y-61956905D01*
X144066429Y-61918810D01*
X143999762Y-61842619D01*
X143971190Y-61766429D01*
X143952143Y-61614048D01*
X143966429Y-61499762D01*
X144023571Y-61347381D01*
X144071190Y-61271190D01*
X144156905Y-61195000D01*
X144275953Y-61156905D01*
X144352143Y-61156905D01*
X144461667Y-61195000D01*
X144495000Y-61233095D01*
X145128334Y-61956905D02*
X144747381Y-61956905D01*
X144847381Y-61156905D01*
X143133096Y-59378810D02*
X143242620Y-59416905D01*
X143433096Y-59416905D01*
X143514048Y-59378810D01*
X143556906Y-59340714D01*
X143604525Y-59264524D01*
X143614048Y-59188333D01*
X143585477Y-59112143D01*
X143552143Y-59074048D01*
X143480715Y-59035952D01*
X143333096Y-58997857D01*
X143261667Y-58959762D01*
X143228334Y-58921667D01*
X143199763Y-58845476D01*
X143209286Y-58769286D01*
X143256905Y-58693095D01*
X143299762Y-58655000D01*
X143380715Y-58616905D01*
X143571191Y-58616905D01*
X143680715Y-58655000D01*
X143928334Y-59416905D02*
X144028334Y-58616905D01*
X144218810Y-58616905D01*
X144328334Y-58655000D01*
X144395001Y-58731190D01*
X144423572Y-58807381D01*
X144442620Y-58959762D01*
X144428334Y-59074048D01*
X144371191Y-59226429D01*
X144323573Y-59302619D01*
X144237858Y-59378810D01*
X144118810Y-59416905D01*
X143928334Y-59416905D01*
X144718810Y-59188333D02*
X145099762Y-59188333D01*
X144614048Y-59416905D02*
X144980715Y-58616905D01*
X145147382Y-59416905D01*
X139323095Y-66236905D02*
X139489762Y-67036905D01*
X139856429Y-66236905D01*
X140489762Y-66960714D02*
X140446905Y-66998810D01*
X140327857Y-67036905D01*
X140251667Y-67036905D01*
X140142143Y-66998810D01*
X140075476Y-66922619D01*
X140046904Y-66846429D01*
X140027857Y-66694048D01*
X140042143Y-66579762D01*
X140099285Y-66427381D01*
X140146904Y-66351190D01*
X140232619Y-66275000D01*
X140351667Y-66236905D01*
X140427857Y-66236905D01*
X140537381Y-66275000D01*
X140570714Y-66313095D01*
X141289762Y-66960714D02*
X141246905Y-66998810D01*
X141127857Y-67036905D01*
X141051667Y-67036905D01*
X140942143Y-66998810D01*
X140875476Y-66922619D01*
X140846904Y-66846429D01*
X140827857Y-66694048D01*
X140842143Y-66579762D01*
X140899285Y-66427381D01*
X140946904Y-66351190D01*
X141032619Y-66275000D01*
X141151667Y-66236905D01*
X141227857Y-66236905D01*
X141337381Y-66275000D01*
X141370714Y-66313095D01*
X139775477Y-63735000D02*
X139704048Y-63696905D01*
X139589763Y-63696905D01*
X139470715Y-63735000D01*
X139385000Y-63811190D01*
X139337381Y-63887381D01*
X139280239Y-64039762D01*
X139265953Y-64154048D01*
X139285000Y-64306429D01*
X139313572Y-64382619D01*
X139380239Y-64458810D01*
X139489763Y-64496905D01*
X139565953Y-64496905D01*
X139685001Y-64458810D01*
X139727858Y-64420714D01*
X139761191Y-64154048D01*
X139608810Y-64154048D01*
X140061191Y-64496905D02*
X140161191Y-63696905D01*
X140518334Y-64496905D01*
X140618334Y-63696905D01*
X140899286Y-64496905D02*
X140999286Y-63696905D01*
X141189762Y-63696905D01*
X141299286Y-63735000D01*
X141365953Y-63811190D01*
X141394524Y-63887381D01*
X141413572Y-64039762D01*
X141399286Y-64154048D01*
X141342143Y-64306429D01*
X141294525Y-64382619D01*
X141208810Y-64458810D01*
X141089762Y-64496905D01*
X140899286Y-64496905D01*
X139342143Y-61918810D02*
X139451667Y-61956905D01*
X139642143Y-61956905D01*
X139723095Y-61918810D01*
X139765953Y-61880714D01*
X139813572Y-61804524D01*
X139823095Y-61728333D01*
X139794524Y-61652143D01*
X139761190Y-61614048D01*
X139689762Y-61575952D01*
X139542143Y-61537857D01*
X139470714Y-61499762D01*
X139437381Y-61461667D01*
X139408810Y-61385476D01*
X139418333Y-61309286D01*
X139465952Y-61233095D01*
X139508809Y-61195000D01*
X139589762Y-61156905D01*
X139780238Y-61156905D01*
X139889762Y-61195000D01*
X140604048Y-61880714D02*
X140561191Y-61918810D01*
X140442143Y-61956905D01*
X140365953Y-61956905D01*
X140256429Y-61918810D01*
X140189762Y-61842619D01*
X140161190Y-61766429D01*
X140142143Y-61614048D01*
X140156429Y-61499762D01*
X140213571Y-61347381D01*
X140261190Y-61271190D01*
X140346905Y-61195000D01*
X140465953Y-61156905D01*
X140542143Y-61156905D01*
X140651667Y-61195000D01*
X140685000Y-61233095D01*
X141318334Y-61956905D02*
X140937381Y-61956905D01*
X141037381Y-61156905D01*
X139323096Y-59378810D02*
X139432620Y-59416905D01*
X139623096Y-59416905D01*
X139704048Y-59378810D01*
X139746906Y-59340714D01*
X139794525Y-59264524D01*
X139804048Y-59188333D01*
X139775477Y-59112143D01*
X139742143Y-59074048D01*
X139670715Y-59035952D01*
X139523096Y-58997857D01*
X139451667Y-58959762D01*
X139418334Y-58921667D01*
X139389763Y-58845476D01*
X139399286Y-58769286D01*
X139446905Y-58693095D01*
X139489762Y-58655000D01*
X139570715Y-58616905D01*
X139761191Y-58616905D01*
X139870715Y-58655000D01*
X140118334Y-59416905D02*
X140218334Y-58616905D01*
X140408810Y-58616905D01*
X140518334Y-58655000D01*
X140585001Y-58731190D01*
X140613572Y-58807381D01*
X140632620Y-58959762D01*
X140618334Y-59074048D01*
X140561191Y-59226429D01*
X140513573Y-59302619D01*
X140427858Y-59378810D01*
X140308810Y-59416905D01*
X140118334Y-59416905D01*
X140908810Y-59188333D02*
X141289762Y-59188333D01*
X140804048Y-59416905D02*
X141170715Y-58616905D01*
X141337382Y-59416905D01*
X127893096Y-59378810D02*
X128002620Y-59416905D01*
X128193096Y-59416905D01*
X128274048Y-59378810D01*
X128316906Y-59340714D01*
X128364525Y-59264524D01*
X128374048Y-59188333D01*
X128345477Y-59112143D01*
X128312143Y-59074048D01*
X128240715Y-59035952D01*
X128093096Y-58997857D01*
X128021667Y-58959762D01*
X127988334Y-58921667D01*
X127959763Y-58845476D01*
X127969286Y-58769286D01*
X128016905Y-58693095D01*
X128059762Y-58655000D01*
X128140715Y-58616905D01*
X128331191Y-58616905D01*
X128440715Y-58655000D01*
X128688334Y-59416905D02*
X128788334Y-58616905D01*
X128978810Y-58616905D01*
X129088334Y-58655000D01*
X129155001Y-58731190D01*
X129183572Y-58807381D01*
X129202620Y-58959762D01*
X129188334Y-59074048D01*
X129131191Y-59226429D01*
X129083573Y-59302619D01*
X128997858Y-59378810D01*
X128878810Y-59416905D01*
X128688334Y-59416905D01*
X129478810Y-59188333D02*
X129859762Y-59188333D01*
X129374048Y-59416905D02*
X129740715Y-58616905D01*
X129907382Y-59416905D01*
X127912143Y-61918810D02*
X128021667Y-61956905D01*
X128212143Y-61956905D01*
X128293095Y-61918810D01*
X128335953Y-61880714D01*
X128383572Y-61804524D01*
X128393095Y-61728333D01*
X128364524Y-61652143D01*
X128331190Y-61614048D01*
X128259762Y-61575952D01*
X128112143Y-61537857D01*
X128040714Y-61499762D01*
X128007381Y-61461667D01*
X127978810Y-61385476D01*
X127988333Y-61309286D01*
X128035952Y-61233095D01*
X128078809Y-61195000D01*
X128159762Y-61156905D01*
X128350238Y-61156905D01*
X128459762Y-61195000D01*
X129174048Y-61880714D02*
X129131191Y-61918810D01*
X129012143Y-61956905D01*
X128935953Y-61956905D01*
X128826429Y-61918810D01*
X128759762Y-61842619D01*
X128731190Y-61766429D01*
X128712143Y-61614048D01*
X128726429Y-61499762D01*
X128783571Y-61347381D01*
X128831190Y-61271190D01*
X128916905Y-61195000D01*
X129035953Y-61156905D01*
X129112143Y-61156905D01*
X129221667Y-61195000D01*
X129255000Y-61233095D01*
X129888334Y-61956905D02*
X129507381Y-61956905D01*
X129607381Y-61156905D01*
X128345477Y-63735000D02*
X128274048Y-63696905D01*
X128159763Y-63696905D01*
X128040715Y-63735000D01*
X127955000Y-63811190D01*
X127907381Y-63887381D01*
X127850239Y-64039762D01*
X127835953Y-64154048D01*
X127855000Y-64306429D01*
X127883572Y-64382619D01*
X127950239Y-64458810D01*
X128059763Y-64496905D01*
X128135953Y-64496905D01*
X128255001Y-64458810D01*
X128297858Y-64420714D01*
X128331191Y-64154048D01*
X128178810Y-64154048D01*
X128631191Y-64496905D02*
X128731191Y-63696905D01*
X129088334Y-64496905D01*
X129188334Y-63696905D01*
X129469286Y-64496905D02*
X129569286Y-63696905D01*
X129759762Y-63696905D01*
X129869286Y-63735000D01*
X129935953Y-63811190D01*
X129964524Y-63887381D01*
X129983572Y-64039762D01*
X129969286Y-64154048D01*
X129912143Y-64306429D01*
X129864525Y-64382619D01*
X129778810Y-64458810D01*
X129659762Y-64496905D01*
X129469286Y-64496905D01*
X127893095Y-66236905D02*
X128059762Y-67036905D01*
X128426429Y-66236905D01*
X129059762Y-66960714D02*
X129016905Y-66998810D01*
X128897857Y-67036905D01*
X128821667Y-67036905D01*
X128712143Y-66998810D01*
X128645476Y-66922619D01*
X128616904Y-66846429D01*
X128597857Y-66694048D01*
X128612143Y-66579762D01*
X128669285Y-66427381D01*
X128716904Y-66351190D01*
X128802619Y-66275000D01*
X128921667Y-66236905D01*
X128997857Y-66236905D01*
X129107381Y-66275000D01*
X129140714Y-66313095D01*
X129859762Y-66960714D02*
X129816905Y-66998810D01*
X129697857Y-67036905D01*
X129621667Y-67036905D01*
X129512143Y-66998810D01*
X129445476Y-66922619D01*
X129416904Y-66846429D01*
X129397857Y-66694048D01*
X129412143Y-66579762D01*
X129469285Y-66427381D01*
X129516904Y-66351190D01*
X129602619Y-66275000D01*
X129721667Y-66236905D01*
X129797857Y-66236905D01*
X129907381Y-66275000D01*
X129940714Y-66313095D01*
X124083095Y-66236905D02*
X124249762Y-67036905D01*
X124616429Y-66236905D01*
X125249762Y-66960714D02*
X125206905Y-66998810D01*
X125087857Y-67036905D01*
X125011667Y-67036905D01*
X124902143Y-66998810D01*
X124835476Y-66922619D01*
X124806904Y-66846429D01*
X124787857Y-66694048D01*
X124802143Y-66579762D01*
X124859285Y-66427381D01*
X124906904Y-66351190D01*
X124992619Y-66275000D01*
X125111667Y-66236905D01*
X125187857Y-66236905D01*
X125297381Y-66275000D01*
X125330714Y-66313095D01*
X126049762Y-66960714D02*
X126006905Y-66998810D01*
X125887857Y-67036905D01*
X125811667Y-67036905D01*
X125702143Y-66998810D01*
X125635476Y-66922619D01*
X125606904Y-66846429D01*
X125587857Y-66694048D01*
X125602143Y-66579762D01*
X125659285Y-66427381D01*
X125706904Y-66351190D01*
X125792619Y-66275000D01*
X125911667Y-66236905D01*
X125987857Y-66236905D01*
X126097381Y-66275000D01*
X126130714Y-66313095D01*
X124535477Y-63735000D02*
X124464048Y-63696905D01*
X124349763Y-63696905D01*
X124230715Y-63735000D01*
X124145000Y-63811190D01*
X124097381Y-63887381D01*
X124040239Y-64039762D01*
X124025953Y-64154048D01*
X124045000Y-64306429D01*
X124073572Y-64382619D01*
X124140239Y-64458810D01*
X124249763Y-64496905D01*
X124325953Y-64496905D01*
X124445001Y-64458810D01*
X124487858Y-64420714D01*
X124521191Y-64154048D01*
X124368810Y-64154048D01*
X124821191Y-64496905D02*
X124921191Y-63696905D01*
X125278334Y-64496905D01*
X125378334Y-63696905D01*
X125659286Y-64496905D02*
X125759286Y-63696905D01*
X125949762Y-63696905D01*
X126059286Y-63735000D01*
X126125953Y-63811190D01*
X126154524Y-63887381D01*
X126173572Y-64039762D01*
X126159286Y-64154048D01*
X126102143Y-64306429D01*
X126054525Y-64382619D01*
X125968810Y-64458810D01*
X125849762Y-64496905D01*
X125659286Y-64496905D01*
X124102143Y-61918810D02*
X124211667Y-61956905D01*
X124402143Y-61956905D01*
X124483095Y-61918810D01*
X124525953Y-61880714D01*
X124573572Y-61804524D01*
X124583095Y-61728333D01*
X124554524Y-61652143D01*
X124521190Y-61614048D01*
X124449762Y-61575952D01*
X124302143Y-61537857D01*
X124230714Y-61499762D01*
X124197381Y-61461667D01*
X124168810Y-61385476D01*
X124178333Y-61309286D01*
X124225952Y-61233095D01*
X124268809Y-61195000D01*
X124349762Y-61156905D01*
X124540238Y-61156905D01*
X124649762Y-61195000D01*
X125364048Y-61880714D02*
X125321191Y-61918810D01*
X125202143Y-61956905D01*
X125125953Y-61956905D01*
X125016429Y-61918810D01*
X124949762Y-61842619D01*
X124921190Y-61766429D01*
X124902143Y-61614048D01*
X124916429Y-61499762D01*
X124973571Y-61347381D01*
X125021190Y-61271190D01*
X125106905Y-61195000D01*
X125225953Y-61156905D01*
X125302143Y-61156905D01*
X125411667Y-61195000D01*
X125445000Y-61233095D01*
X126078334Y-61956905D02*
X125697381Y-61956905D01*
X125797381Y-61156905D01*
X124083096Y-59378810D02*
X124192620Y-59416905D01*
X124383096Y-59416905D01*
X124464048Y-59378810D01*
X124506906Y-59340714D01*
X124554525Y-59264524D01*
X124564048Y-59188333D01*
X124535477Y-59112143D01*
X124502143Y-59074048D01*
X124430715Y-59035952D01*
X124283096Y-58997857D01*
X124211667Y-58959762D01*
X124178334Y-58921667D01*
X124149763Y-58845476D01*
X124159286Y-58769286D01*
X124206905Y-58693095D01*
X124249762Y-58655000D01*
X124330715Y-58616905D01*
X124521191Y-58616905D01*
X124630715Y-58655000D01*
X124878334Y-59416905D02*
X124978334Y-58616905D01*
X125168810Y-58616905D01*
X125278334Y-58655000D01*
X125345001Y-58731190D01*
X125373572Y-58807381D01*
X125392620Y-58959762D01*
X125378334Y-59074048D01*
X125321191Y-59226429D01*
X125273573Y-59302619D01*
X125187858Y-59378810D01*
X125068810Y-59416905D01*
X124878334Y-59416905D01*
X125668810Y-59188333D02*
X126049762Y-59188333D01*
X125564048Y-59416905D02*
X125930715Y-58616905D01*
X126097382Y-59416905D01*
D13*
X134740000Y-51250000D02*
X119500000Y-51250000D01*
X119500000Y-51250000D02*
X119500000Y-69030000D01*
X119500000Y-69030000D02*
X134740000Y-69030000D01*
X134740000Y-69030000D02*
X134740000Y-51250000D01*
X149980000Y-69030000D02*
X149980000Y-51250000D01*
X134740000Y-69030000D02*
X149980000Y-69030000D01*
X134740000Y-51250000D02*
X134740000Y-69030000D01*
X149980000Y-51250000D02*
X134740000Y-51250000D01*
D14*
X145223608Y-116607335D02*
G75*
G03X145380516Y-113375000I-1078608J1672335D01*
G01*
X143066392Y-116607335D02*
G75*
G02X142909484Y-113375000I1078608J1672335D01*
G01*
X145224837Y-115976130D02*
G75*
G03X145225000Y-113894039I-1079837J1041130D01*
G01*
X143065163Y-115976130D02*
G75*
G02X143065000Y-113894039I1079837J1041130D01*
G01*
X145381000Y-113375000D02*
X145225000Y-113375000D01*
X143065000Y-113375000D02*
X142909000Y-113375000D01*
D11*
X129621320Y-93900000D02*
G75*
G03X129621320Y-93900000I-2121320J0D01*
G01*
X129621320Y-138200000D02*
G75*
G03X129621320Y-138200000I-2121320J0D01*
G01*
X136000000Y-145000000D02*
X119000000Y-145000000D01*
X119000000Y-145000000D02*
X119000000Y-88000000D01*
X119000000Y-88000000D02*
X136000000Y-88000000D01*
X136000000Y-88000000D02*
X136000000Y-145000000D01*
D14*
X126074170Y-80066436D02*
G75*
G03X126075000Y-76374004I-979170J1846436D01*
G01*
X124115830Y-80066436D02*
G75*
G02X124115000Y-76374004I979170J1846436D01*
G01*
X124115830Y-80066436D02*
G75*
G03X126075000Y-80065996I979170J1846436D01*
G01*
X124315000Y-78220000D02*
X123045000Y-78220000D01*
X127145000Y-78220000D02*
X125875000Y-78220000D01*
X127145000Y-78260000D02*
X125875000Y-78260000D01*
X124315000Y-78260000D02*
X123045000Y-78260000D01*
X127144000Y-78300000D02*
X125875000Y-78300000D01*
X124315000Y-78300000D02*
X123046000Y-78300000D01*
X127142000Y-78340000D02*
X125875000Y-78340000D01*
X124315000Y-78340000D02*
X123048000Y-78340000D01*
X127139000Y-78380000D02*
X125875000Y-78380000D01*
X124315000Y-78380000D02*
X123051000Y-78380000D01*
X127136000Y-78420000D02*
X125875000Y-78420000D01*
X124315000Y-78420000D02*
X123054000Y-78420000D01*
X127132000Y-78460000D02*
X125875000Y-78460000D01*
X124315000Y-78460000D02*
X123058000Y-78460000D01*
X127127000Y-78500000D02*
X125875000Y-78500000D01*
X124315000Y-78500000D02*
X123063000Y-78500000D01*
X127121000Y-78540000D02*
X125875000Y-78540000D01*
X124315000Y-78540000D02*
X123069000Y-78540000D01*
X127114000Y-78580000D02*
X125875000Y-78580000D01*
X124315000Y-78580000D02*
X123076000Y-78580000D01*
X127107000Y-78620000D02*
X125875000Y-78620000D01*
X124315000Y-78620000D02*
X123083000Y-78620000D01*
X127099000Y-78660000D02*
X125875000Y-78660000D01*
X124315000Y-78660000D02*
X123091000Y-78660000D01*
X127090000Y-78700000D02*
X125875000Y-78700000D01*
X124315000Y-78700000D02*
X123100000Y-78700000D01*
X127080000Y-78740000D02*
X125875000Y-78740000D01*
X124315000Y-78740000D02*
X123110000Y-78740000D01*
X127069000Y-78780000D02*
X125875000Y-78780000D01*
X124315000Y-78780000D02*
X123121000Y-78780000D01*
X127058000Y-78820000D02*
X125875000Y-78820000D01*
X124315000Y-78820000D02*
X123132000Y-78820000D01*
X127045000Y-78860000D02*
X125875000Y-78860000D01*
X124315000Y-78860000D02*
X123145000Y-78860000D01*
X127032000Y-78900000D02*
X125875000Y-78900000D01*
X124315000Y-78900000D02*
X123158000Y-78900000D01*
X127018000Y-78941000D02*
X125875000Y-78941000D01*
X124315000Y-78941000D02*
X123172000Y-78941000D01*
X127002000Y-78981000D02*
X125875000Y-78981000D01*
X124315000Y-78981000D02*
X123188000Y-78981000D01*
X126986000Y-79021000D02*
X125875000Y-79021000D01*
X124315000Y-79021000D02*
X123204000Y-79021000D01*
X126969000Y-79061000D02*
X125875000Y-79061000D01*
X124315000Y-79061000D02*
X123221000Y-79061000D01*
X126951000Y-79101000D02*
X125875000Y-79101000D01*
X124315000Y-79101000D02*
X123239000Y-79101000D01*
X126932000Y-79141000D02*
X125875000Y-79141000D01*
X124315000Y-79141000D02*
X123258000Y-79141000D01*
X126912000Y-79181000D02*
X125875000Y-79181000D01*
X124315000Y-79181000D02*
X123278000Y-79181000D01*
X126891000Y-79221000D02*
X125875000Y-79221000D01*
X124315000Y-79221000D02*
X123299000Y-79221000D01*
X126868000Y-79261000D02*
X125875000Y-79261000D01*
X124315000Y-79261000D02*
X123322000Y-79261000D01*
X126845000Y-79301000D02*
X125875000Y-79301000D01*
X124315000Y-79301000D02*
X123345000Y-79301000D01*
X126820000Y-79341000D02*
X125875000Y-79341000D01*
X124315000Y-79341000D02*
X123370000Y-79341000D01*
X126794000Y-79381000D02*
X125875000Y-79381000D01*
X124315000Y-79381000D02*
X123396000Y-79381000D01*
X126767000Y-79421000D02*
X125875000Y-79421000D01*
X124315000Y-79421000D02*
X123423000Y-79421000D01*
X126738000Y-79461000D02*
X125875000Y-79461000D01*
X124315000Y-79461000D02*
X123452000Y-79461000D01*
X126708000Y-79501000D02*
X125875000Y-79501000D01*
X124315000Y-79501000D02*
X123482000Y-79501000D01*
X126676000Y-79541000D02*
X125875000Y-79541000D01*
X124315000Y-79541000D02*
X123514000Y-79541000D01*
X126642000Y-79581000D02*
X125875000Y-79581000D01*
X124315000Y-79581000D02*
X123548000Y-79581000D01*
X126607000Y-79621000D02*
X125875000Y-79621000D01*
X124315000Y-79621000D02*
X123583000Y-79621000D01*
X126570000Y-79661000D02*
X125875000Y-79661000D01*
X124315000Y-79661000D02*
X123620000Y-79661000D01*
X126531000Y-79701000D02*
X125875000Y-79701000D01*
X124315000Y-79701000D02*
X123659000Y-79701000D01*
X126490000Y-79741000D02*
X125875000Y-79741000D01*
X124315000Y-79741000D02*
X123700000Y-79741000D01*
X126446000Y-79781000D02*
X123744000Y-79781000D01*
X126400000Y-79821000D02*
X123790000Y-79821000D01*
X126351000Y-79861000D02*
X123839000Y-79861000D01*
X126299000Y-79901000D02*
X123891000Y-79901000D01*
X126243000Y-79941000D02*
X123947000Y-79941000D01*
X126183000Y-79981000D02*
X124007000Y-79981000D01*
X126118000Y-80021000D02*
X124072000Y-80021000D01*
X126047000Y-80061000D02*
X124143000Y-80061000D01*
X125969000Y-80101000D02*
X124221000Y-80101000D01*
X125881000Y-80141000D02*
X124309000Y-80141000D01*
X125781000Y-80181000D02*
X124409000Y-80181000D01*
X125662000Y-80221000D02*
X124528000Y-80221000D01*
X125510000Y-80261000D02*
X124680000Y-80261000D01*
X125260000Y-80301000D02*
X124930000Y-80301000D01*
X125095000Y-75770000D02*
X125095000Y-76670000D01*
X125545000Y-76220000D02*
X124645000Y-76220000D01*
D11*
X116840000Y-51435000D02*
G75*
G03X116840000Y-51435000I-635000J0D01*
G01*
X114300000Y-51435000D02*
G75*
G03X114300000Y-51435000I-635000J0D01*
G01*
X111760000Y-51435000D02*
G75*
G03X111760000Y-51435000I-635000J0D01*
G01*
X109220000Y-51435000D02*
G75*
G03X109220000Y-51435000I-635000J0D01*
G01*
X106680000Y-51435000D02*
G75*
G03X106680000Y-51435000I-635000J0D01*
G01*
X104140000Y-51435000D02*
G75*
G03X104140000Y-51435000I-635000J0D01*
G01*
X107315000Y-80645000D02*
X112395000Y-80645000D01*
X112395000Y-80645000D02*
X112395000Y-78105000D01*
X112395000Y-78105000D02*
X107315000Y-78105000D01*
X107315000Y-78105000D02*
X107315000Y-80645000D01*
X114935000Y-67945000D02*
X109855000Y-62865000D01*
X109855000Y-62865000D02*
X104775000Y-67945000D01*
X104775000Y-67945000D02*
X109855000Y-73025000D01*
X109855000Y-73025000D02*
X114935000Y-67945000D01*
X118745000Y-83185000D02*
X118745000Y-50165000D01*
X118745000Y-50165000D02*
X100965000Y-50165000D01*
X100965000Y-50165000D02*
X100965000Y-83185000D01*
X100965000Y-83185000D02*
X118745000Y-83185000D01*
D14*
X140143608Y-116607335D02*
G75*
G03X140300516Y-113375000I-1078608J1672335D01*
G01*
X137986392Y-116607335D02*
G75*
G02X137829484Y-113375000I1078608J1672335D01*
G01*
X140144837Y-115976130D02*
G75*
G03X140145000Y-113894039I-1079837J1041130D01*
G01*
X137985163Y-115976130D02*
G75*
G02X137985000Y-113894039I1079837J1041130D01*
G01*
X140301000Y-113375000D02*
X140145000Y-113375000D01*
X137985000Y-113375000D02*
X137829000Y-113375000D01*
D11*
X129135000Y-86850000D02*
X129135000Y-86350000D01*
X129135000Y-69850000D02*
X129135000Y-70350000D01*
X148635000Y-81850000D02*
G75*
G03X148635000Y-81850000I-500000J0D01*
G01*
X148635000Y-76850000D02*
G75*
G03X148635000Y-76850000I-500000J0D01*
G01*
X148635000Y-79350000D02*
G75*
G03X148635000Y-79350000I-500000J0D01*
G01*
X129135000Y-69850000D02*
X149135000Y-69850000D01*
X149135000Y-69850000D02*
X149135000Y-86850000D01*
X149135000Y-86850000D02*
X129135000Y-86850000D01*
D14*
X139938000Y-130976000D02*
X144438000Y-130976000D01*
X138688000Y-126976000D02*
X138688000Y-128476000D01*
X144438000Y-124476000D02*
X139938000Y-124476000D01*
X145688000Y-128476000D02*
X145688000Y-126976000D01*
X142300000Y-140395000D02*
X142300000Y-137735000D01*
X139700000Y-140395000D02*
X142300000Y-140395000D01*
X139700000Y-137735000D02*
X142300000Y-137735000D01*
X139700000Y-140395000D02*
X139700000Y-137735000D01*
X138430000Y-140395000D02*
X137100000Y-140395000D01*
X137100000Y-140395000D02*
X137100000Y-139065000D01*
X148650000Y-57725000D02*
X145990000Y-57725000D01*
X148650000Y-65405000D02*
X148650000Y-57725000D01*
X145990000Y-65405000D02*
X145990000Y-57725000D01*
X148650000Y-65405000D02*
X145990000Y-65405000D01*
X148650000Y-66675000D02*
X148650000Y-68005000D01*
X148650000Y-68005000D02*
X147320000Y-68005000D01*
X123250000Y-57725000D02*
X120590000Y-57725000D01*
X123250000Y-65405000D02*
X123250000Y-57725000D01*
X120590000Y-65405000D02*
X120590000Y-57725000D01*
X123250000Y-65405000D02*
X120590000Y-65405000D01*
X123250000Y-66675000D02*
X123250000Y-68005000D01*
X123250000Y-68005000D02*
X121920000Y-68005000D01*
X147380000Y-142935000D02*
X147380000Y-140275000D01*
X139700000Y-142935000D02*
X147380000Y-142935000D01*
X139700000Y-140275000D02*
X147380000Y-140275000D01*
X139700000Y-142935000D02*
X139700000Y-140275000D01*
X138430000Y-142935000D02*
X137100000Y-142935000D01*
X137100000Y-142935000D02*
X137100000Y-141605000D01*
D11*
X111621320Y-139100000D02*
G75*
G03X111621320Y-139100000I-2121320J0D01*
G01*
X111621320Y-94800000D02*
G75*
G03X111621320Y-94800000I-2121320J0D01*
G01*
X101000000Y-88000000D02*
X118000000Y-88000000D01*
X118000000Y-88000000D02*
X118000000Y-145000000D01*
X118000000Y-145000000D02*
X101000000Y-145000000D01*
X101000000Y-145000000D02*
X101000000Y-88000000D01*
D14*
X143450000Y-110550000D02*
X146110000Y-110550000D01*
X143450000Y-107950000D02*
X143450000Y-110550000D01*
X146110000Y-107950000D02*
X146110000Y-110550000D01*
X143450000Y-107950000D02*
X146110000Y-107950000D01*
X143450000Y-106680000D02*
X143450000Y-105350000D01*
X143450000Y-105350000D02*
X144780000Y-105350000D01*
X137735000Y-110550000D02*
X140395000Y-110550000D01*
X137735000Y-107950000D02*
X137735000Y-110550000D01*
X140395000Y-107950000D02*
X140395000Y-110550000D01*
X137735000Y-107950000D02*
X140395000Y-107950000D01*
X137735000Y-106680000D02*
X137735000Y-105350000D01*
X137735000Y-105350000D02*
X139065000Y-105350000D01*
X138490000Y-57725000D02*
X135830000Y-57725000D01*
X138490000Y-65405000D02*
X138490000Y-57725000D01*
X135830000Y-65405000D02*
X135830000Y-57725000D01*
X138490000Y-65405000D02*
X135830000Y-65405000D01*
X138490000Y-66675000D02*
X138490000Y-68005000D01*
X138490000Y-68005000D02*
X137160000Y-68005000D01*
X133410000Y-57725000D02*
X130750000Y-57725000D01*
X133410000Y-65405000D02*
X133410000Y-57725000D01*
X130750000Y-65405000D02*
X130750000Y-57725000D01*
X133410000Y-65405000D02*
X130750000Y-65405000D01*
X133410000Y-66675000D02*
X133410000Y-68005000D01*
X133410000Y-68005000D02*
X132080000Y-68005000D01*
X126405000Y-73660000D02*
G75*
G03X126405000Y-73660000I-1310000J0D01*
G01*
X125095000Y-72350000D02*
X125095000Y-72220000D01*
X122595000Y-73660000D02*
G75*
G03X122595000Y-73660000I-1310000J0D01*
G01*
X121285000Y-72350000D02*
X121285000Y-72220000D01*
X145455000Y-119380000D02*
G75*
G03X145455000Y-119380000I-1310000J0D01*
G01*
X144145000Y-120690000D02*
X144145000Y-120820000D01*
X140375000Y-119380000D02*
G75*
G03X140375000Y-119380000I-1310000J0D01*
G01*
X139065000Y-120690000D02*
X139065000Y-120820000D01*
X149265000Y-134620000D02*
G75*
G03X149265000Y-134620000I-1310000J0D01*
G01*
X146645000Y-134620000D02*
X146515000Y-134620000D01*
X136724000Y-133500000D02*
X143465000Y-133500000D01*
X136724000Y-136040000D02*
X143465000Y-136040000D01*
X136724000Y-133500000D02*
X136724000Y-136040000D01*
X143465000Y-133500000D02*
X143465000Y-136040000D01*
X136724000Y-134239000D02*
X136945000Y-134239000D01*
X138645000Y-134239000D02*
X139257000Y-134239000D01*
X140934000Y-134239000D02*
X141557000Y-134239000D01*
X143234000Y-134239000D02*
X143465000Y-134239000D01*
X140375000Y-101600000D02*
G75*
G03X140375000Y-101600000I-1310000J0D01*
G01*
X139065000Y-100290000D02*
X139065000Y-100160000D01*
X146090000Y-101600000D02*
G75*
G03X146090000Y-101600000I-1310000J0D01*
G01*
X144780000Y-100290000D02*
X144780000Y-100160000D01*
X143450000Y-96580000D02*
X146110000Y-96580000D01*
X143450000Y-91440000D02*
X143450000Y-96580000D01*
X146110000Y-91440000D02*
X146110000Y-96580000D01*
X143450000Y-91440000D02*
X146110000Y-91440000D01*
X143450000Y-90170000D02*
X143450000Y-88840000D01*
X143450000Y-88840000D02*
X144780000Y-88840000D01*
X137735000Y-96580000D02*
X140395000Y-96580000D01*
X137735000Y-91440000D02*
X137735000Y-96580000D01*
X140395000Y-91440000D02*
X140395000Y-96580000D01*
X137735000Y-91440000D02*
X140395000Y-91440000D01*
X137735000Y-90170000D02*
X137735000Y-88840000D01*
X137735000Y-88840000D02*
X139065000Y-88840000D01*
D15*
X127514286Y-95042857D02*
X127514286Y-92757143D01*
X128657143Y-93900000D02*
X126371429Y-93900000D01*
X127514286Y-139342857D02*
X127514286Y-137057143D01*
D11*
X122912143Y-80811666D02*
X122959762Y-80859285D01*
X123007381Y-81002142D01*
X123007381Y-81097380D01*
X122959762Y-81240238D01*
X122864524Y-81335476D01*
X122769286Y-81383095D01*
X122578810Y-81430714D01*
X122435952Y-81430714D01*
X122245476Y-81383095D01*
X122150238Y-81335476D01*
X122055000Y-81240238D01*
X122007381Y-81097380D01*
X122007381Y-81002142D01*
X122055000Y-80859285D01*
X122102619Y-80811666D01*
X123007381Y-79859285D02*
X123007381Y-80430714D01*
X123007381Y-80145000D02*
X122007381Y-80145000D01*
X122150238Y-80240238D01*
X122245476Y-80335476D01*
X122293095Y-80430714D01*
X110796429Y-54775000D02*
X111396429Y-54575000D01*
X110796429Y-54375000D01*
X111339286Y-53832143D02*
X111367857Y-53860714D01*
X111396429Y-53946428D01*
X111396429Y-54003571D01*
X111367857Y-54089286D01*
X111310714Y-54146428D01*
X111253571Y-54175000D01*
X111139286Y-54203571D01*
X111053571Y-54203571D01*
X110939286Y-54175000D01*
X110882143Y-54146428D01*
X110825000Y-54089286D01*
X110796429Y-54003571D01*
X110796429Y-53946428D01*
X110825000Y-53860714D01*
X110853571Y-53832143D01*
X111339286Y-53232143D02*
X111367857Y-53260714D01*
X111396429Y-53346428D01*
X111396429Y-53403571D01*
X111367857Y-53489286D01*
X111310714Y-53546428D01*
X111253571Y-53575000D01*
X111139286Y-53603571D01*
X111053571Y-53603571D01*
X110939286Y-53575000D01*
X110882143Y-53546428D01*
X110825000Y-53489286D01*
X110796429Y-53403571D01*
X110796429Y-53346428D01*
X110825000Y-53260714D01*
X110853571Y-53232143D01*
X108856429Y-54217857D02*
X108570714Y-54417857D01*
X108856429Y-54560714D02*
X108256429Y-54560714D01*
X108256429Y-54332142D01*
X108285000Y-54275000D01*
X108313571Y-54246428D01*
X108370714Y-54217857D01*
X108456429Y-54217857D01*
X108513571Y-54246428D01*
X108542143Y-54275000D01*
X108570714Y-54332142D01*
X108570714Y-54560714D01*
X108256429Y-54017857D02*
X108856429Y-53617857D01*
X108256429Y-53617857D02*
X108856429Y-54017857D01*
X108856429Y-53389285D02*
X108256429Y-53389285D01*
X105716429Y-54732143D02*
X105716429Y-54389286D01*
X106316429Y-54560715D02*
X105716429Y-54560715D01*
X105716429Y-54246429D02*
X106316429Y-53846429D01*
X105716429Y-53846429D02*
X106316429Y-54246429D01*
X106316429Y-53617857D02*
X105716429Y-53617857D01*
X105716429Y-53475000D01*
X105745000Y-53389285D01*
X105802143Y-53332143D01*
X105859286Y-53303571D01*
X105973571Y-53275000D01*
X106059286Y-53275000D01*
X106173571Y-53303571D01*
X106230714Y-53332143D01*
X106287857Y-53389285D01*
X106316429Y-53475000D01*
X106316429Y-53617857D01*
X104411429Y-54660714D02*
X103811429Y-54660714D01*
X103811429Y-54517857D01*
X103840000Y-54432142D01*
X103897143Y-54375000D01*
X103954286Y-54346428D01*
X104068571Y-54317857D01*
X104154286Y-54317857D01*
X104268571Y-54346428D01*
X104325714Y-54375000D01*
X104382857Y-54432142D01*
X104411429Y-54517857D01*
X104411429Y-54660714D01*
X103811429Y-54146428D02*
X103811429Y-53803571D01*
X104411429Y-53975000D02*
X103811429Y-53975000D01*
X104411429Y-53260714D02*
X104125714Y-53460714D01*
X104411429Y-53603571D02*
X103811429Y-53603571D01*
X103811429Y-53374999D01*
X103840000Y-53317857D01*
X103868571Y-53289285D01*
X103925714Y-53260714D01*
X104011429Y-53260714D01*
X104068571Y-53289285D01*
X104097143Y-53317857D01*
X104125714Y-53374999D01*
X104125714Y-53603571D01*
X115270000Y-54432142D02*
X115241429Y-54489285D01*
X115241429Y-54574999D01*
X115270000Y-54660714D01*
X115327143Y-54717856D01*
X115384286Y-54746428D01*
X115498571Y-54774999D01*
X115584286Y-54774999D01*
X115698571Y-54746428D01*
X115755714Y-54717856D01*
X115812857Y-54660714D01*
X115841429Y-54574999D01*
X115841429Y-54517856D01*
X115812857Y-54432142D01*
X115784286Y-54403571D01*
X115584286Y-54403571D01*
X115584286Y-54517856D01*
X115841429Y-54146428D02*
X115241429Y-54146428D01*
X115841429Y-53803571D01*
X115241429Y-53803571D01*
X115841429Y-53517857D02*
X115241429Y-53517857D01*
X115241429Y-53375000D01*
X115270000Y-53289285D01*
X115327143Y-53232143D01*
X115384286Y-53203571D01*
X115498571Y-53175000D01*
X115584286Y-53175000D01*
X115698571Y-53203571D01*
X115755714Y-53232143D01*
X115812857Y-53289285D01*
X115841429Y-53375000D01*
X115841429Y-53517857D01*
X113365000Y-54432142D02*
X113336429Y-54489285D01*
X113336429Y-54574999D01*
X113365000Y-54660714D01*
X113422143Y-54717856D01*
X113479286Y-54746428D01*
X113593571Y-54774999D01*
X113679286Y-54774999D01*
X113793571Y-54746428D01*
X113850714Y-54717856D01*
X113907857Y-54660714D01*
X113936429Y-54574999D01*
X113936429Y-54517856D01*
X113907857Y-54432142D01*
X113879286Y-54403571D01*
X113679286Y-54403571D01*
X113679286Y-54517856D01*
X113936429Y-54146428D02*
X113336429Y-54146428D01*
X113936429Y-53803571D01*
X113336429Y-53803571D01*
X113936429Y-53517857D02*
X113336429Y-53517857D01*
X113336429Y-53375000D01*
X113365000Y-53289285D01*
X113422143Y-53232143D01*
X113479286Y-53203571D01*
X113593571Y-53175000D01*
X113679286Y-53175000D01*
X113793571Y-53203571D01*
X113850714Y-53232143D01*
X113907857Y-53289285D01*
X113936429Y-53375000D01*
X113936429Y-53517857D01*
D15*
X109914286Y-140242857D02*
X109914286Y-137957143D01*
X111057143Y-139100000D02*
X108771429Y-139100000D01*
X109914286Y-95942857D02*
X109914286Y-93657143D01*
D11*
X127452381Y-70651666D02*
X126976190Y-70985000D01*
X127452381Y-71223095D02*
X126452381Y-71223095D01*
X126452381Y-70842142D01*
X126500000Y-70746904D01*
X126547619Y-70699285D01*
X126642857Y-70651666D01*
X126785714Y-70651666D01*
X126880952Y-70699285D01*
X126928571Y-70746904D01*
X126976190Y-70842142D01*
X126976190Y-71223095D01*
X126785714Y-69794523D02*
X127452381Y-69794523D01*
X126404762Y-70032619D02*
X127119048Y-70270714D01*
X127119048Y-69651666D01*
X120467381Y-76366666D02*
X119991190Y-76700000D01*
X120467381Y-76938095D02*
X119467381Y-76938095D01*
X119467381Y-76557142D01*
X119515000Y-76461904D01*
X119562619Y-76414285D01*
X119657857Y-76366666D01*
X119800714Y-76366666D01*
X119895952Y-76414285D01*
X119943571Y-76461904D01*
X119991190Y-76557142D01*
X119991190Y-76938095D01*
X119467381Y-75461904D02*
X119467381Y-75938095D01*
X119943571Y-75985714D01*
X119895952Y-75938095D01*
X119848333Y-75842857D01*
X119848333Y-75604761D01*
X119895952Y-75509523D01*
X119943571Y-75461904D01*
X120038810Y-75414285D01*
X120276905Y-75414285D01*
X120372143Y-75461904D01*
X120419762Y-75509523D01*
X120467381Y-75604761D01*
X120467381Y-75842857D01*
X120419762Y-75938095D01*
X120372143Y-75985714D01*
X146907381Y-120816666D02*
X146431190Y-121150000D01*
X146907381Y-121388095D02*
X145907381Y-121388095D01*
X145907381Y-121007142D01*
X145955000Y-120911904D01*
X146002619Y-120864285D01*
X146097857Y-120816666D01*
X146240714Y-120816666D01*
X146335952Y-120864285D01*
X146383571Y-120911904D01*
X146431190Y-121007142D01*
X146431190Y-121388095D01*
X146907381Y-119864285D02*
X146907381Y-120435714D01*
X146907381Y-120150000D02*
X145907381Y-120150000D01*
X146050238Y-120245238D01*
X146145476Y-120340476D01*
X146193095Y-120435714D01*
X141827381Y-120816666D02*
X141351190Y-121150000D01*
X141827381Y-121388095D02*
X140827381Y-121388095D01*
X140827381Y-121007142D01*
X140875000Y-120911904D01*
X140922619Y-120864285D01*
X141017857Y-120816666D01*
X141160714Y-120816666D01*
X141255952Y-120864285D01*
X141303571Y-120911904D01*
X141351190Y-121007142D01*
X141351190Y-121388095D01*
X140922619Y-120435714D02*
X140875000Y-120388095D01*
X140827381Y-120292857D01*
X140827381Y-120054761D01*
X140875000Y-119959523D01*
X140922619Y-119911904D01*
X141017857Y-119864285D01*
X141113095Y-119864285D01*
X141255952Y-119911904D01*
X141827381Y-120483333D01*
X141827381Y-119864285D01*
X148423334Y-137612381D02*
X148090000Y-137136190D01*
X147851905Y-137612381D02*
X147851905Y-136612381D01*
X148232858Y-136612381D01*
X148328096Y-136660000D01*
X148375715Y-136707619D01*
X148423334Y-136802857D01*
X148423334Y-136945714D01*
X148375715Y-137040952D01*
X148328096Y-137088571D01*
X148232858Y-137136190D01*
X147851905Y-137136190D01*
X148756667Y-136612381D02*
X149375715Y-136612381D01*
X149042381Y-136993333D01*
X149185239Y-136993333D01*
X149280477Y-137040952D01*
X149328096Y-137088571D01*
X149375715Y-137183810D01*
X149375715Y-137421905D01*
X149328096Y-137517143D01*
X149280477Y-137564762D01*
X149185239Y-137612381D01*
X148899524Y-137612381D01*
X148804286Y-137564762D01*
X148756667Y-137517143D01*
X137699762Y-133262619D02*
X137604524Y-133215000D01*
X137509286Y-133119762D01*
X137366429Y-132976905D01*
X137271190Y-132929286D01*
X137175952Y-132929286D01*
X137223571Y-133167381D02*
X137128333Y-133119762D01*
X137033095Y-133024524D01*
X136985476Y-132834048D01*
X136985476Y-132500714D01*
X137033095Y-132310238D01*
X137128333Y-132215000D01*
X137223571Y-132167381D01*
X137414048Y-132167381D01*
X137509286Y-132215000D01*
X137604524Y-132310238D01*
X137652143Y-132500714D01*
X137652143Y-132834048D01*
X137604524Y-133024524D01*
X137509286Y-133119762D01*
X137414048Y-133167381D01*
X137223571Y-133167381D01*
X138604524Y-133167381D02*
X138033095Y-133167381D01*
X138318809Y-133167381D02*
X138318809Y-132167381D01*
X138223571Y-132310238D01*
X138128333Y-132405476D01*
X138033095Y-132453095D01*
X142057381Y-100496666D02*
X141581190Y-100830000D01*
X142057381Y-101068095D02*
X141057381Y-101068095D01*
X141057381Y-100687142D01*
X141105000Y-100591904D01*
X141152619Y-100544285D01*
X141247857Y-100496666D01*
X141390714Y-100496666D01*
X141485952Y-100544285D01*
X141533571Y-100591904D01*
X141581190Y-100687142D01*
X141581190Y-101068095D01*
X141057381Y-99639523D02*
X141057381Y-99830000D01*
X141105000Y-99925238D01*
X141152619Y-99972857D01*
X141295476Y-100068095D01*
X141485952Y-100115714D01*
X141866905Y-100115714D01*
X141962143Y-100068095D01*
X142009762Y-100020476D01*
X142057381Y-99925238D01*
X142057381Y-99734761D01*
X142009762Y-99639523D01*
X141962143Y-99591904D01*
X141866905Y-99544285D01*
X141628810Y-99544285D01*
X141533571Y-99591904D01*
X141485952Y-99639523D01*
X141438333Y-99734761D01*
X141438333Y-99925238D01*
X141485952Y-100020476D01*
X141533571Y-100068095D01*
X141628810Y-100115714D01*
X147772381Y-100496666D02*
X147296190Y-100830000D01*
X147772381Y-101068095D02*
X146772381Y-101068095D01*
X146772381Y-100687142D01*
X146820000Y-100591904D01*
X146867619Y-100544285D01*
X146962857Y-100496666D01*
X147105714Y-100496666D01*
X147200952Y-100544285D01*
X147248571Y-100591904D01*
X147296190Y-100687142D01*
X147296190Y-101068095D01*
X146772381Y-100163333D02*
X146772381Y-99496666D01*
X147772381Y-99925238D01*
X144446667Y-87292381D02*
X144446667Y-88006667D01*
X144399047Y-88149524D01*
X144303809Y-88244762D01*
X144160952Y-88292381D01*
X144065714Y-88292381D01*
X144827619Y-87292381D02*
X145446667Y-87292381D01*
X145113333Y-87673333D01*
X145256191Y-87673333D01*
X145351429Y-87720952D01*
X145399048Y-87768571D01*
X145446667Y-87863810D01*
X145446667Y-88101905D01*
X145399048Y-88197143D01*
X145351429Y-88244762D01*
X145256191Y-88292381D01*
X144970476Y-88292381D01*
X144875238Y-88244762D01*
X144827619Y-88197143D01*
X138731667Y-87292381D02*
X138731667Y-88006667D01*
X138684047Y-88149524D01*
X138588809Y-88244762D01*
X138445952Y-88292381D01*
X138350714Y-88292381D01*
X139636429Y-87625714D02*
X139636429Y-88292381D01*
X139398333Y-87244762D02*
X139160238Y-87959048D01*
X139779286Y-87959048D01*
M02*
