%FSLAX45Y45*%
G04 Gerber Fmt 4.5, Leading zero omitted, Abs format (unit mm)*
G04 Created by KiCad (PCBNEW 4.0.7) date 05/04/18 00:13:29*
%MOMM*%
%LPD*%
G01*
G04 APERTURE LIST*
%ADD10C,0.127000*%
%ADD11C,0.150000*%
%ADD12C,0.200000*%
%ADD13C,0.300000*%
G04 APERTURE END LIST*
D10*
D11*
X14922500Y-14605000D02*
X10160000Y-14605000D01*
X14922500Y-5016500D02*
X12001500Y-5016500D01*
X10033000Y-5384800D02*
X10033000Y-14478000D01*
X15049500Y-14478000D02*
X15049500Y-5143500D01*
X10033000Y-14478000D02*
G75*
G03X10160000Y-14605000I127000J0D01*
G01*
X14922500Y-14605000D02*
G75*
G03X15049500Y-14478000I0J127000D01*
G01*
X15049500Y-5143500D02*
G75*
G03X14922500Y-5016500I-127000J0D01*
G01*
X11760200Y-5257800D02*
X10160000Y-5257800D01*
X11760200Y-5257800D02*
G75*
G03X11874500Y-5143500I0J114300D01*
G01*
X12001500Y-5016500D02*
G75*
G03X11874500Y-5143500I0J-127000D01*
G01*
X10160000Y-5257800D02*
G75*
G03X10033000Y-5384800I0J-127000D01*
G01*
D12*
X10394000Y-7917500D02*
X10434000Y-7957500D01*
X10434000Y-7917500D02*
X10394000Y-7957500D01*
X11283000Y-8044500D02*
X11323000Y-8084500D01*
X11323000Y-8044500D02*
X11283000Y-8084500D01*
X11600500Y-8044500D02*
X11640500Y-8084500D01*
X11640500Y-8044500D02*
X11600500Y-8084500D01*
X12539500Y-7747000D02*
G75*
G03X12539500Y-7747000I-30000J0D01*
G01*
X12539500Y-7897000D02*
G75*
G03X12539500Y-7897000I-30000J0D01*
G01*
X10950000Y-9040000D02*
X10950000Y-9120000D01*
X10910000Y-9080000D02*
X10990000Y-9080000D01*
X10950000Y-14270000D02*
X10950000Y-14350000D01*
X10910000Y-14310000D02*
X10990000Y-14310000D01*
X12128500Y-7072000D02*
X12128500Y-7152000D01*
X12088500Y-7112000D02*
X12168500Y-7112000D01*
X12128500Y-7326000D02*
X12128500Y-7406000D01*
X12088500Y-7366000D02*
X12168500Y-7366000D01*
X12509500Y-7072000D02*
X12509500Y-7152000D01*
X12469500Y-7112000D02*
X12549500Y-7112000D01*
X12509500Y-7326000D02*
X12509500Y-7406000D01*
X12469500Y-7366000D02*
X12549500Y-7366000D01*
X12750000Y-8950000D02*
X12750000Y-9030000D01*
X12710000Y-8990000D02*
X12790000Y-8990000D01*
X12750000Y-14270000D02*
X12750000Y-14350000D01*
X12710000Y-14310000D02*
X12790000Y-14310000D01*
X13013500Y-7095000D02*
X13013500Y-7175000D01*
X12973500Y-7135000D02*
X13053500Y-7135000D01*
X13013500Y-7295000D02*
X13013500Y-7375000D01*
X12973500Y-7335000D02*
X13053500Y-7335000D01*
X13013500Y-7495000D02*
X13013500Y-7575000D01*
X12973500Y-7535000D02*
X13053500Y-7535000D01*
X13013500Y-7695000D02*
X13013500Y-7775000D01*
X12973500Y-7735000D02*
X13053500Y-7735000D01*
X13013500Y-7895000D02*
X13013500Y-7975000D01*
X12973500Y-7935000D02*
X13053500Y-7935000D01*
X13013500Y-8095000D02*
X13013500Y-8175000D01*
X12973500Y-8135000D02*
X13053500Y-8135000D01*
X13013500Y-8295000D02*
X13013500Y-8375000D01*
X12973500Y-8335000D02*
X13053500Y-8335000D01*
X13013500Y-8495000D02*
X13013500Y-8575000D01*
X12973500Y-8535000D02*
X13053500Y-8535000D01*
X13779500Y-13422000D02*
X13779500Y-13502000D01*
X13739500Y-13462000D02*
X13819500Y-13462000D01*
X13906500Y-9866000D02*
X13906500Y-9946000D01*
X13866500Y-9906000D02*
X13946500Y-9906000D01*
X13906500Y-10120000D02*
X13906500Y-10200000D01*
X13866500Y-10160000D02*
X13946500Y-10160000D01*
X13906500Y-11898000D02*
X13906500Y-11978000D01*
X13866500Y-11938000D02*
X13946500Y-11938000D01*
X13906500Y-12152000D02*
X13906500Y-12232000D01*
X13866500Y-12192000D02*
X13946500Y-12192000D01*
X14009500Y-13422000D02*
X14009500Y-13502000D01*
X13969500Y-13462000D02*
X14049500Y-13462000D01*
X14239500Y-13422000D02*
X14239500Y-13502000D01*
X14199500Y-13462000D02*
X14279500Y-13462000D01*
X14414500Y-11898000D02*
X14414500Y-11978000D01*
X14374500Y-11938000D02*
X14454500Y-11938000D01*
X14414500Y-12152000D02*
X14414500Y-12232000D01*
X14374500Y-12192000D02*
X14454500Y-12192000D01*
X14478000Y-9866000D02*
X14478000Y-9946000D01*
X14438000Y-9906000D02*
X14518000Y-9906000D01*
X14478000Y-10120000D02*
X14478000Y-10200000D01*
X14438000Y-10160000D02*
X14518000Y-10160000D01*
X14541500Y-13422000D02*
X14541500Y-13502000D01*
X14501500Y-13462000D02*
X14581500Y-13462000D01*
X14795500Y-13422000D02*
X14795500Y-13502000D01*
X14755500Y-13462000D02*
X14835500Y-13462000D01*
X13874820Y-13938320D02*
X13874820Y-13874680D01*
X13811180Y-13874680D01*
X13811180Y-13938320D01*
X13874820Y-13938320D01*
X13874820Y-14192320D02*
X13874820Y-14128680D01*
X13811180Y-14128680D01*
X13811180Y-14192320D01*
X13874820Y-14192320D01*
X13938320Y-11398320D02*
X13938320Y-11334680D01*
X13874680Y-11334680D01*
X13874680Y-11398320D01*
X13938320Y-11398320D01*
X13938320Y-11652320D02*
X13938320Y-11588680D01*
X13874680Y-11588680D01*
X13874680Y-11652320D01*
X13938320Y-11652320D01*
X14128820Y-13938320D02*
X14128820Y-13874680D01*
X14065180Y-13874680D01*
X14065180Y-13938320D01*
X14128820Y-13938320D01*
X14128820Y-14192320D02*
X14128820Y-14128680D01*
X14065180Y-14128680D01*
X14065180Y-14192320D01*
X14128820Y-14192320D01*
X14382820Y-14192320D02*
X14382820Y-14128680D01*
X14319180Y-14128680D01*
X14319180Y-14192320D01*
X14382820Y-14192320D01*
X14446320Y-11398320D02*
X14446320Y-11334680D01*
X14382680Y-11334680D01*
X14382680Y-11398320D01*
X14446320Y-11398320D01*
X14446320Y-11652320D02*
X14446320Y-11588680D01*
X14382680Y-11588680D01*
X14382680Y-11652320D01*
X14446320Y-11652320D01*
X14636820Y-14192320D02*
X14636820Y-14128680D01*
X14573180Y-14128680D01*
X14573180Y-14192320D01*
X14636820Y-14192320D01*
X10223500Y-5447500D02*
X10273500Y-5397500D01*
X10223500Y-5347500D01*
X10173500Y-5397500D01*
X10223500Y-5447500D01*
X10223500Y-5701500D02*
X10273500Y-5651500D01*
X10223500Y-5601500D01*
X10173500Y-5651500D01*
X10223500Y-5701500D01*
X10223500Y-5955500D02*
X10273500Y-5905500D01*
X10223500Y-5855500D01*
X10173500Y-5905500D01*
X10223500Y-5955500D01*
X10223500Y-6209500D02*
X10273500Y-6159500D01*
X10223500Y-6109500D01*
X10173500Y-6159500D01*
X10223500Y-6209500D01*
X10223500Y-6463500D02*
X10273500Y-6413500D01*
X10223500Y-6363500D01*
X10173500Y-6413500D01*
X10223500Y-6463500D01*
X10223500Y-6717500D02*
X10273500Y-6667500D01*
X10223500Y-6617500D01*
X10173500Y-6667500D01*
X10223500Y-6717500D01*
X10223500Y-6971500D02*
X10273500Y-6921500D01*
X10223500Y-6871500D01*
X10173500Y-6921500D01*
X10223500Y-6971500D01*
X10223500Y-7225500D02*
X10273500Y-7175500D01*
X10223500Y-7125500D01*
X10173500Y-7175500D01*
X10223500Y-7225500D01*
X10223500Y-7479500D02*
X10273500Y-7429500D01*
X10223500Y-7379500D01*
X10173500Y-7429500D01*
X10223500Y-7479500D01*
X10223500Y-7733500D02*
X10273500Y-7683500D01*
X10223500Y-7633500D01*
X10173500Y-7683500D01*
X10223500Y-7733500D01*
X10223500Y-7987500D02*
X10273500Y-7937500D01*
X10223500Y-7887500D01*
X10173500Y-7937500D01*
X10223500Y-7987500D01*
X10223500Y-8241500D02*
X10273500Y-8191500D01*
X10223500Y-8141500D01*
X10173500Y-8191500D01*
X10223500Y-8241500D01*
X11493500Y-6336500D02*
X11543500Y-6286500D01*
X11493500Y-6236500D01*
X11443500Y-6286500D01*
X11493500Y-6336500D01*
X11493500Y-6590500D02*
X11543500Y-6540500D01*
X11493500Y-6490500D01*
X11443500Y-6540500D01*
X11493500Y-6590500D01*
X11747500Y-5447500D02*
X11797500Y-5397500D01*
X11747500Y-5347500D01*
X11697500Y-5397500D01*
X11747500Y-5447500D01*
X11747500Y-5701500D02*
X11797500Y-5651500D01*
X11747500Y-5601500D01*
X11697500Y-5651500D01*
X11747500Y-5701500D01*
X11747500Y-5955500D02*
X11797500Y-5905500D01*
X11747500Y-5855500D01*
X11697500Y-5905500D01*
X11747500Y-5955500D01*
X11747500Y-6209500D02*
X11797500Y-6159500D01*
X11747500Y-6109500D01*
X11697500Y-6159500D01*
X11747500Y-6209500D01*
X11747500Y-6463500D02*
X11797500Y-6413500D01*
X11747500Y-6363500D01*
X11697500Y-6413500D01*
X11747500Y-6463500D01*
X11747500Y-6717500D02*
X11797500Y-6667500D01*
X11747500Y-6617500D01*
X11697500Y-6667500D01*
X11747500Y-6717500D01*
X11747500Y-6971500D02*
X11797500Y-6921500D01*
X11747500Y-6871500D01*
X11697500Y-6921500D01*
X11747500Y-6971500D01*
X11747500Y-7225500D02*
X11797500Y-7175500D01*
X11747500Y-7125500D01*
X11697500Y-7175500D01*
X11747500Y-7225500D01*
X11747500Y-7479500D02*
X11797500Y-7429500D01*
X11747500Y-7379500D01*
X11697500Y-7429500D01*
X11747500Y-7479500D01*
X11747500Y-7733500D02*
X11797500Y-7683500D01*
X11747500Y-7633500D01*
X11697500Y-7683500D01*
X11747500Y-7733500D01*
X11747500Y-7987500D02*
X11797500Y-7937500D01*
X11747500Y-7887500D01*
X11697500Y-7937500D01*
X11747500Y-7987500D01*
X11747500Y-8241500D02*
X11797500Y-8191500D01*
X11747500Y-8141500D01*
X11697500Y-8191500D01*
X11747500Y-8241500D01*
X12192000Y-5955500D02*
X12242000Y-5905500D01*
X12192000Y-5855500D01*
X12142000Y-5905500D01*
X12192000Y-5955500D01*
X12192000Y-6209500D02*
X12242000Y-6159500D01*
X12192000Y-6109500D01*
X12142000Y-6159500D01*
X12192000Y-6209500D01*
X12192000Y-6463500D02*
X12242000Y-6413500D01*
X12192000Y-6363500D01*
X12142000Y-6413500D01*
X12192000Y-6463500D01*
X12192000Y-6717500D02*
X12242000Y-6667500D01*
X12192000Y-6617500D01*
X12142000Y-6667500D01*
X12192000Y-6717500D01*
X13208000Y-5955500D02*
X13258000Y-5905500D01*
X13208000Y-5855500D01*
X13158000Y-5905500D01*
X13208000Y-5955500D01*
X13208000Y-6209500D02*
X13258000Y-6159500D01*
X13208000Y-6109500D01*
X13158000Y-6159500D01*
X13208000Y-6209500D01*
X13208000Y-6463500D02*
X13258000Y-6413500D01*
X13208000Y-6363500D01*
X13158000Y-6413500D01*
X13208000Y-6463500D01*
X13208000Y-6717500D02*
X13258000Y-6667500D01*
X13208000Y-6617500D01*
X13158000Y-6667500D01*
X13208000Y-6717500D01*
X13716000Y-5955500D02*
X13766000Y-5905500D01*
X13716000Y-5855500D01*
X13666000Y-5905500D01*
X13716000Y-5955500D01*
X13716000Y-6209500D02*
X13766000Y-6159500D01*
X13716000Y-6109500D01*
X13666000Y-6159500D01*
X13716000Y-6209500D01*
X13716000Y-6463500D02*
X13766000Y-6413500D01*
X13716000Y-6363500D01*
X13666000Y-6413500D01*
X13716000Y-6463500D01*
X13716000Y-6717500D02*
X13766000Y-6667500D01*
X13716000Y-6617500D01*
X13666000Y-6667500D01*
X13716000Y-6717500D01*
X13906500Y-9067000D02*
X13956500Y-9017000D01*
X13906500Y-8967000D01*
X13856500Y-9017000D01*
X13906500Y-9067000D01*
X13906500Y-9321000D02*
X13956500Y-9271000D01*
X13906500Y-9221000D01*
X13856500Y-9271000D01*
X13906500Y-9321000D01*
X13906500Y-9575000D02*
X13956500Y-9525000D01*
X13906500Y-9475000D01*
X13856500Y-9525000D01*
X13906500Y-9575000D01*
X13906500Y-10718000D02*
X13956500Y-10668000D01*
X13906500Y-10618000D01*
X13856500Y-10668000D01*
X13906500Y-10718000D01*
X13906500Y-10972000D02*
X13956500Y-10922000D01*
X13906500Y-10872000D01*
X13856500Y-10922000D01*
X13906500Y-10972000D01*
X14478000Y-9067000D02*
X14528000Y-9017000D01*
X14478000Y-8967000D01*
X14428000Y-9017000D01*
X14478000Y-9067000D01*
X14478000Y-9321000D02*
X14528000Y-9271000D01*
X14478000Y-9221000D01*
X14428000Y-9271000D01*
X14478000Y-9321000D01*
X14478000Y-9575000D02*
X14528000Y-9525000D01*
X14478000Y-9475000D01*
X14428000Y-9525000D01*
X14478000Y-9575000D01*
X14478000Y-10718000D02*
X14528000Y-10668000D01*
X14478000Y-10618000D01*
X14428000Y-10668000D01*
X14478000Y-10718000D01*
X14478000Y-10972000D02*
X14528000Y-10922000D01*
X14478000Y-10872000D01*
X14428000Y-10922000D01*
X14478000Y-10972000D01*
X14732000Y-5955500D02*
X14782000Y-5905500D01*
X14732000Y-5855500D01*
X14682000Y-5905500D01*
X14732000Y-5955500D01*
X14732000Y-6209500D02*
X14782000Y-6159500D01*
X14732000Y-6109500D01*
X14682000Y-6159500D01*
X14732000Y-6209500D01*
X14732000Y-6463500D02*
X14782000Y-6413500D01*
X14732000Y-6363500D01*
X14682000Y-6413500D01*
X14732000Y-6463500D01*
X14732000Y-6717500D02*
X14782000Y-6667500D01*
X14732000Y-6617500D01*
X14682000Y-6667500D01*
X14732000Y-6717500D01*
X13838800Y-12492600D02*
X13948800Y-12602600D01*
X13948800Y-12492600D02*
X13838800Y-12602600D01*
X13948800Y-12547600D02*
G75*
G03X13948800Y-12547600I-55000J0D01*
G01*
X13838800Y-12942600D02*
X13948800Y-13052600D01*
X13948800Y-12942600D02*
X13838800Y-13052600D01*
X13948800Y-12997600D02*
G75*
G03X13948800Y-12997600I-55000J0D01*
G01*
X14488800Y-12492600D02*
X14598800Y-12602600D01*
X14598800Y-12492600D02*
X14488800Y-12602600D01*
X14598800Y-12547600D02*
G75*
G03X14598800Y-12547600I-55000J0D01*
G01*
X14488800Y-12942600D02*
X14598800Y-13052600D01*
X14598800Y-12942600D02*
X14488800Y-13052600D01*
X14598800Y-12997600D02*
G75*
G03X14598800Y-12997600I-55000J0D01*
G01*
D13*
X10296929Y-15078214D02*
X10296929Y-14778214D01*
X10368357Y-14778214D01*
X10411214Y-14792500D01*
X10439786Y-14821071D01*
X10454071Y-14849643D01*
X10468357Y-14906786D01*
X10468357Y-14949643D01*
X10454071Y-15006786D01*
X10439786Y-15035357D01*
X10411214Y-15063929D01*
X10368357Y-15078214D01*
X10296929Y-15078214D01*
X10596929Y-15078214D02*
X10596929Y-14878214D01*
X10596929Y-14935357D02*
X10611214Y-14906786D01*
X10625500Y-14892500D01*
X10654071Y-14878214D01*
X10682643Y-14878214D01*
X10782643Y-15078214D02*
X10782643Y-14878214D01*
X10782643Y-14778214D02*
X10768357Y-14792500D01*
X10782643Y-14806786D01*
X10796929Y-14792500D01*
X10782643Y-14778214D01*
X10782643Y-14806786D01*
X10968357Y-15078214D02*
X10939786Y-15063929D01*
X10925500Y-15035357D01*
X10925500Y-14778214D01*
X11125500Y-15078214D02*
X11096929Y-15063929D01*
X11082643Y-15035357D01*
X11082643Y-14778214D01*
X11468357Y-15078214D02*
X11468357Y-14778214D01*
X11568357Y-14992500D01*
X11668357Y-14778214D01*
X11668357Y-15078214D01*
X11939786Y-15078214D02*
X11939786Y-14921071D01*
X11925500Y-14892500D01*
X11896928Y-14878214D01*
X11839786Y-14878214D01*
X11811214Y-14892500D01*
X11939786Y-15063929D02*
X11911214Y-15078214D01*
X11839786Y-15078214D01*
X11811214Y-15063929D01*
X11796928Y-15035357D01*
X11796928Y-15006786D01*
X11811214Y-14978214D01*
X11839786Y-14963929D01*
X11911214Y-14963929D01*
X11939786Y-14949643D01*
X12082643Y-14878214D02*
X12082643Y-15178214D01*
X12082643Y-14892500D02*
X12111214Y-14878214D01*
X12168357Y-14878214D01*
X12196928Y-14892500D01*
X12211214Y-14906786D01*
X12225500Y-14935357D01*
X12225500Y-15021071D01*
X12211214Y-15049643D01*
X12196928Y-15063929D01*
X12168357Y-15078214D01*
X12111214Y-15078214D01*
X12082643Y-15063929D01*
X12354071Y-15049643D02*
X12368357Y-15063929D01*
X12354071Y-15078214D01*
X12339786Y-15063929D01*
X12354071Y-15049643D01*
X12354071Y-15078214D01*
X12354071Y-14892500D02*
X12368357Y-14906786D01*
X12354071Y-14921071D01*
X12339786Y-14906786D01*
X12354071Y-14892500D01*
X12354071Y-14921071D01*
X9985500Y-15552500D02*
X10025500Y-15592500D01*
X10025500Y-15552500D02*
X9985500Y-15592500D01*
X10354071Y-15408214D02*
X10382643Y-15408214D01*
X10411214Y-15422500D01*
X10425500Y-15436786D01*
X10439786Y-15465357D01*
X10454071Y-15522500D01*
X10454071Y-15593929D01*
X10439786Y-15651071D01*
X10425500Y-15679643D01*
X10411214Y-15693929D01*
X10382643Y-15708214D01*
X10354071Y-15708214D01*
X10325500Y-15693929D01*
X10311214Y-15679643D01*
X10296929Y-15651071D01*
X10282643Y-15593929D01*
X10282643Y-15522500D01*
X10296929Y-15465357D01*
X10311214Y-15436786D01*
X10325500Y-15422500D01*
X10354071Y-15408214D01*
X10582643Y-15679643D02*
X10596929Y-15693929D01*
X10582643Y-15708214D01*
X10568357Y-15693929D01*
X10582643Y-15679643D01*
X10582643Y-15708214D01*
X10854071Y-15508214D02*
X10854071Y-15708214D01*
X10782643Y-15393929D02*
X10711214Y-15608214D01*
X10896928Y-15608214D01*
X11068357Y-15408214D02*
X11096929Y-15408214D01*
X11125500Y-15422500D01*
X11139786Y-15436786D01*
X11154071Y-15465357D01*
X11168357Y-15522500D01*
X11168357Y-15593929D01*
X11154071Y-15651071D01*
X11139786Y-15679643D01*
X11125500Y-15693929D01*
X11096929Y-15708214D01*
X11068357Y-15708214D01*
X11039786Y-15693929D01*
X11025500Y-15679643D01*
X11011214Y-15651071D01*
X10996929Y-15593929D01*
X10996929Y-15522500D01*
X11011214Y-15465357D01*
X11025500Y-15436786D01*
X11039786Y-15422500D01*
X11068357Y-15408214D01*
X11296928Y-15708214D02*
X11296928Y-15508214D01*
X11296928Y-15536786D02*
X11311214Y-15522500D01*
X11339786Y-15508214D01*
X11382643Y-15508214D01*
X11411214Y-15522500D01*
X11425500Y-15551071D01*
X11425500Y-15708214D01*
X11425500Y-15551071D02*
X11439786Y-15522500D01*
X11468357Y-15508214D01*
X11511214Y-15508214D01*
X11539786Y-15522500D01*
X11554071Y-15551071D01*
X11554071Y-15708214D01*
X11696928Y-15708214D02*
X11696928Y-15508214D01*
X11696928Y-15536786D02*
X11711214Y-15522500D01*
X11739786Y-15508214D01*
X11782643Y-15508214D01*
X11811214Y-15522500D01*
X11825500Y-15551071D01*
X11825500Y-15708214D01*
X11825500Y-15551071D02*
X11839786Y-15522500D01*
X11868357Y-15508214D01*
X11911214Y-15508214D01*
X11939786Y-15522500D01*
X11954071Y-15551071D01*
X11954071Y-15708214D01*
X12539786Y-15393929D02*
X12282643Y-15779643D01*
X12925500Y-15408214D02*
X12954071Y-15408214D01*
X12982643Y-15422500D01*
X12996928Y-15436786D01*
X13011214Y-15465357D01*
X13025500Y-15522500D01*
X13025500Y-15593929D01*
X13011214Y-15651071D01*
X12996928Y-15679643D01*
X12982643Y-15693929D01*
X12954071Y-15708214D01*
X12925500Y-15708214D01*
X12896928Y-15693929D01*
X12882643Y-15679643D01*
X12868357Y-15651071D01*
X12854071Y-15593929D01*
X12854071Y-15522500D01*
X12868357Y-15465357D01*
X12882643Y-15436786D01*
X12896928Y-15422500D01*
X12925500Y-15408214D01*
X13154071Y-15679643D02*
X13168357Y-15693929D01*
X13154071Y-15708214D01*
X13139786Y-15693929D01*
X13154071Y-15679643D01*
X13154071Y-15708214D01*
X13354071Y-15408214D02*
X13382643Y-15408214D01*
X13411214Y-15422500D01*
X13425500Y-15436786D01*
X13439785Y-15465357D01*
X13454071Y-15522500D01*
X13454071Y-15593929D01*
X13439785Y-15651071D01*
X13425500Y-15679643D01*
X13411214Y-15693929D01*
X13382643Y-15708214D01*
X13354071Y-15708214D01*
X13325500Y-15693929D01*
X13311214Y-15679643D01*
X13296928Y-15651071D01*
X13282643Y-15593929D01*
X13282643Y-15522500D01*
X13296928Y-15465357D01*
X13311214Y-15436786D01*
X13325500Y-15422500D01*
X13354071Y-15408214D01*
X13739785Y-15708214D02*
X13568357Y-15708214D01*
X13654071Y-15708214D02*
X13654071Y-15408214D01*
X13625500Y-15451071D01*
X13596928Y-15479643D01*
X13568357Y-15493929D01*
X13996928Y-15408214D02*
X13939785Y-15408214D01*
X13911214Y-15422500D01*
X13896928Y-15436786D01*
X13868357Y-15479643D01*
X13854071Y-15536786D01*
X13854071Y-15651071D01*
X13868357Y-15679643D01*
X13882643Y-15693929D01*
X13911214Y-15708214D01*
X13968357Y-15708214D01*
X13996928Y-15693929D01*
X14011214Y-15679643D01*
X14025500Y-15651071D01*
X14025500Y-15579643D01*
X14011214Y-15551071D01*
X13996928Y-15536786D01*
X13968357Y-15522500D01*
X13911214Y-15522500D01*
X13882643Y-15536786D01*
X13868357Y-15551071D01*
X13854071Y-15579643D01*
X14139786Y-15408214D02*
X14139786Y-15465357D01*
X14254071Y-15408214D02*
X14254071Y-15465357D01*
X14696928Y-15822500D02*
X14682643Y-15808214D01*
X14654071Y-15765357D01*
X14639785Y-15736786D01*
X14625500Y-15693929D01*
X14611214Y-15622500D01*
X14611214Y-15565357D01*
X14625500Y-15493929D01*
X14639785Y-15451071D01*
X14654071Y-15422500D01*
X14682643Y-15379643D01*
X14696928Y-15365357D01*
X14782643Y-15408214D02*
X14968357Y-15408214D01*
X14868357Y-15522500D01*
X14911214Y-15522500D01*
X14939785Y-15536786D01*
X14954071Y-15551071D01*
X14968357Y-15579643D01*
X14968357Y-15651071D01*
X14954071Y-15679643D01*
X14939785Y-15693929D01*
X14911214Y-15708214D01*
X14825500Y-15708214D01*
X14796928Y-15693929D01*
X14782643Y-15679643D01*
X15325500Y-15708214D02*
X15325500Y-15408214D01*
X15454071Y-15708214D02*
X15454071Y-15551071D01*
X15439785Y-15522500D01*
X15411214Y-15508214D01*
X15368357Y-15508214D01*
X15339785Y-15522500D01*
X15325500Y-15536786D01*
X15639785Y-15708214D02*
X15611214Y-15693929D01*
X15596928Y-15679643D01*
X15582643Y-15651071D01*
X15582643Y-15565357D01*
X15596928Y-15536786D01*
X15611214Y-15522500D01*
X15639785Y-15508214D01*
X15682643Y-15508214D01*
X15711214Y-15522500D01*
X15725500Y-15536786D01*
X15739785Y-15565357D01*
X15739785Y-15651071D01*
X15725500Y-15679643D01*
X15711214Y-15693929D01*
X15682643Y-15708214D01*
X15639785Y-15708214D01*
X15911214Y-15708214D02*
X15882643Y-15693929D01*
X15868357Y-15665357D01*
X15868357Y-15408214D01*
X16139786Y-15693929D02*
X16111214Y-15708214D01*
X16054071Y-15708214D01*
X16025500Y-15693929D01*
X16011214Y-15665357D01*
X16011214Y-15551071D01*
X16025500Y-15522500D01*
X16054071Y-15508214D01*
X16111214Y-15508214D01*
X16139786Y-15522500D01*
X16154071Y-15551071D01*
X16154071Y-15579643D01*
X16011214Y-15608214D01*
X16268357Y-15693929D02*
X16296928Y-15708214D01*
X16354071Y-15708214D01*
X16382643Y-15693929D01*
X16396928Y-15665357D01*
X16396928Y-15651071D01*
X16382643Y-15622500D01*
X16354071Y-15608214D01*
X16311214Y-15608214D01*
X16282643Y-15593929D01*
X16268357Y-15565357D01*
X16268357Y-15551071D01*
X16282643Y-15522500D01*
X16311214Y-15508214D01*
X16354071Y-15508214D01*
X16382643Y-15522500D01*
X16496928Y-15822500D02*
X16511214Y-15808214D01*
X16539786Y-15765357D01*
X16554071Y-15736786D01*
X16568357Y-15693929D01*
X16582643Y-15622500D01*
X16582643Y-15565357D01*
X16568357Y-15493929D01*
X16554071Y-15451071D01*
X16539786Y-15422500D01*
X16511214Y-15379643D01*
X16496928Y-15365357D01*
X10025500Y-15968500D02*
G75*
G03X10025500Y-15968500I-30000J0D01*
G01*
X10354071Y-15804214D02*
X10382643Y-15804214D01*
X10411214Y-15818500D01*
X10425500Y-15832786D01*
X10439786Y-15861357D01*
X10454071Y-15918500D01*
X10454071Y-15989929D01*
X10439786Y-16047071D01*
X10425500Y-16075643D01*
X10411214Y-16089929D01*
X10382643Y-16104214D01*
X10354071Y-16104214D01*
X10325500Y-16089929D01*
X10311214Y-16075643D01*
X10296929Y-16047071D01*
X10282643Y-15989929D01*
X10282643Y-15918500D01*
X10296929Y-15861357D01*
X10311214Y-15832786D01*
X10325500Y-15818500D01*
X10354071Y-15804214D01*
X10582643Y-16075643D02*
X10596929Y-16089929D01*
X10582643Y-16104214D01*
X10568357Y-16089929D01*
X10582643Y-16075643D01*
X10582643Y-16104214D01*
X10854071Y-15804214D02*
X10796928Y-15804214D01*
X10768357Y-15818500D01*
X10754071Y-15832786D01*
X10725500Y-15875643D01*
X10711214Y-15932786D01*
X10711214Y-16047071D01*
X10725500Y-16075643D01*
X10739786Y-16089929D01*
X10768357Y-16104214D01*
X10825500Y-16104214D01*
X10854071Y-16089929D01*
X10868357Y-16075643D01*
X10882643Y-16047071D01*
X10882643Y-15975643D01*
X10868357Y-15947071D01*
X10854071Y-15932786D01*
X10825500Y-15918500D01*
X10768357Y-15918500D01*
X10739786Y-15932786D01*
X10725500Y-15947071D01*
X10711214Y-15975643D01*
X11068357Y-15804214D02*
X11096929Y-15804214D01*
X11125500Y-15818500D01*
X11139786Y-15832786D01*
X11154071Y-15861357D01*
X11168357Y-15918500D01*
X11168357Y-15989929D01*
X11154071Y-16047071D01*
X11139786Y-16075643D01*
X11125500Y-16089929D01*
X11096929Y-16104214D01*
X11068357Y-16104214D01*
X11039786Y-16089929D01*
X11025500Y-16075643D01*
X11011214Y-16047071D01*
X10996929Y-15989929D01*
X10996929Y-15918500D01*
X11011214Y-15861357D01*
X11025500Y-15832786D01*
X11039786Y-15818500D01*
X11068357Y-15804214D01*
X11296928Y-16104214D02*
X11296928Y-15904214D01*
X11296928Y-15932786D02*
X11311214Y-15918500D01*
X11339786Y-15904214D01*
X11382643Y-15904214D01*
X11411214Y-15918500D01*
X11425500Y-15947071D01*
X11425500Y-16104214D01*
X11425500Y-15947071D02*
X11439786Y-15918500D01*
X11468357Y-15904214D01*
X11511214Y-15904214D01*
X11539786Y-15918500D01*
X11554071Y-15947071D01*
X11554071Y-16104214D01*
X11696928Y-16104214D02*
X11696928Y-15904214D01*
X11696928Y-15932786D02*
X11711214Y-15918500D01*
X11739786Y-15904214D01*
X11782643Y-15904214D01*
X11811214Y-15918500D01*
X11825500Y-15947071D01*
X11825500Y-16104214D01*
X11825500Y-15947071D02*
X11839786Y-15918500D01*
X11868357Y-15904214D01*
X11911214Y-15904214D01*
X11939786Y-15918500D01*
X11954071Y-15947071D01*
X11954071Y-16104214D01*
X12539786Y-15789929D02*
X12282643Y-16175643D01*
X12925500Y-15804214D02*
X12954071Y-15804214D01*
X12982643Y-15818500D01*
X12996928Y-15832786D01*
X13011214Y-15861357D01*
X13025500Y-15918500D01*
X13025500Y-15989929D01*
X13011214Y-16047071D01*
X12996928Y-16075643D01*
X12982643Y-16089929D01*
X12954071Y-16104214D01*
X12925500Y-16104214D01*
X12896928Y-16089929D01*
X12882643Y-16075643D01*
X12868357Y-16047071D01*
X12854071Y-15989929D01*
X12854071Y-15918500D01*
X12868357Y-15861357D01*
X12882643Y-15832786D01*
X12896928Y-15818500D01*
X12925500Y-15804214D01*
X13154071Y-16075643D02*
X13168357Y-16089929D01*
X13154071Y-16104214D01*
X13139786Y-16089929D01*
X13154071Y-16075643D01*
X13154071Y-16104214D01*
X13354071Y-15804214D02*
X13382643Y-15804214D01*
X13411214Y-15818500D01*
X13425500Y-15832786D01*
X13439785Y-15861357D01*
X13454071Y-15918500D01*
X13454071Y-15989929D01*
X13439785Y-16047071D01*
X13425500Y-16075643D01*
X13411214Y-16089929D01*
X13382643Y-16104214D01*
X13354071Y-16104214D01*
X13325500Y-16089929D01*
X13311214Y-16075643D01*
X13296928Y-16047071D01*
X13282643Y-15989929D01*
X13282643Y-15918500D01*
X13296928Y-15861357D01*
X13311214Y-15832786D01*
X13325500Y-15818500D01*
X13354071Y-15804214D01*
X13568357Y-15832786D02*
X13582643Y-15818500D01*
X13611214Y-15804214D01*
X13682643Y-15804214D01*
X13711214Y-15818500D01*
X13725500Y-15832786D01*
X13739785Y-15861357D01*
X13739785Y-15889929D01*
X13725500Y-15932786D01*
X13554071Y-16104214D01*
X13739785Y-16104214D01*
X13996928Y-15904214D02*
X13996928Y-16104214D01*
X13925500Y-15789929D02*
X13854071Y-16004214D01*
X14039785Y-16004214D01*
X14139786Y-15804214D02*
X14139786Y-15861357D01*
X14254071Y-15804214D02*
X14254071Y-15861357D01*
X14696928Y-16218500D02*
X14682643Y-16204214D01*
X14654071Y-16161357D01*
X14639785Y-16132786D01*
X14625500Y-16089929D01*
X14611214Y-16018500D01*
X14611214Y-15961357D01*
X14625500Y-15889929D01*
X14639785Y-15847071D01*
X14654071Y-15818500D01*
X14682643Y-15775643D01*
X14696928Y-15761357D01*
X14796928Y-15832786D02*
X14811214Y-15818500D01*
X14839785Y-15804214D01*
X14911214Y-15804214D01*
X14939785Y-15818500D01*
X14954071Y-15832786D01*
X14968357Y-15861357D01*
X14968357Y-15889929D01*
X14954071Y-15932786D01*
X14782643Y-16104214D01*
X14968357Y-16104214D01*
X15325500Y-16104214D02*
X15325500Y-15804214D01*
X15454071Y-16104214D02*
X15454071Y-15947071D01*
X15439785Y-15918500D01*
X15411214Y-15904214D01*
X15368357Y-15904214D01*
X15339785Y-15918500D01*
X15325500Y-15932786D01*
X15639785Y-16104214D02*
X15611214Y-16089929D01*
X15596928Y-16075643D01*
X15582643Y-16047071D01*
X15582643Y-15961357D01*
X15596928Y-15932786D01*
X15611214Y-15918500D01*
X15639785Y-15904214D01*
X15682643Y-15904214D01*
X15711214Y-15918500D01*
X15725500Y-15932786D01*
X15739785Y-15961357D01*
X15739785Y-16047071D01*
X15725500Y-16075643D01*
X15711214Y-16089929D01*
X15682643Y-16104214D01*
X15639785Y-16104214D01*
X15911214Y-16104214D02*
X15882643Y-16089929D01*
X15868357Y-16061357D01*
X15868357Y-15804214D01*
X16139786Y-16089929D02*
X16111214Y-16104214D01*
X16054071Y-16104214D01*
X16025500Y-16089929D01*
X16011214Y-16061357D01*
X16011214Y-15947071D01*
X16025500Y-15918500D01*
X16054071Y-15904214D01*
X16111214Y-15904214D01*
X16139786Y-15918500D01*
X16154071Y-15947071D01*
X16154071Y-15975643D01*
X16011214Y-16004214D01*
X16268357Y-16089929D02*
X16296928Y-16104214D01*
X16354071Y-16104214D01*
X16382643Y-16089929D01*
X16396928Y-16061357D01*
X16396928Y-16047071D01*
X16382643Y-16018500D01*
X16354071Y-16004214D01*
X16311214Y-16004214D01*
X16282643Y-15989929D01*
X16268357Y-15961357D01*
X16268357Y-15947071D01*
X16282643Y-15918500D01*
X16311214Y-15904214D01*
X16354071Y-15904214D01*
X16382643Y-15918500D01*
X16496928Y-16218500D02*
X16511214Y-16204214D01*
X16539786Y-16161357D01*
X16554071Y-16132786D01*
X16568357Y-16089929D01*
X16582643Y-16018500D01*
X16582643Y-15961357D01*
X16568357Y-15889929D01*
X16554071Y-15847071D01*
X16539786Y-15818500D01*
X16511214Y-15775643D01*
X16496928Y-15761357D01*
X9985500Y-16324500D02*
X9985500Y-16404500D01*
X9945500Y-16364500D02*
X10025500Y-16364500D01*
X10354071Y-16200214D02*
X10382643Y-16200214D01*
X10411214Y-16214500D01*
X10425500Y-16228786D01*
X10439786Y-16257357D01*
X10454071Y-16314500D01*
X10454071Y-16385929D01*
X10439786Y-16443071D01*
X10425500Y-16471643D01*
X10411214Y-16485929D01*
X10382643Y-16500214D01*
X10354071Y-16500214D01*
X10325500Y-16485929D01*
X10311214Y-16471643D01*
X10296929Y-16443071D01*
X10282643Y-16385929D01*
X10282643Y-16314500D01*
X10296929Y-16257357D01*
X10311214Y-16228786D01*
X10325500Y-16214500D01*
X10354071Y-16200214D01*
X10582643Y-16471643D02*
X10596929Y-16485929D01*
X10582643Y-16500214D01*
X10568357Y-16485929D01*
X10582643Y-16471643D01*
X10582643Y-16500214D01*
X10768357Y-16328786D02*
X10739786Y-16314500D01*
X10725500Y-16300214D01*
X10711214Y-16271643D01*
X10711214Y-16257357D01*
X10725500Y-16228786D01*
X10739786Y-16214500D01*
X10768357Y-16200214D01*
X10825500Y-16200214D01*
X10854071Y-16214500D01*
X10868357Y-16228786D01*
X10882643Y-16257357D01*
X10882643Y-16271643D01*
X10868357Y-16300214D01*
X10854071Y-16314500D01*
X10825500Y-16328786D01*
X10768357Y-16328786D01*
X10739786Y-16343071D01*
X10725500Y-16357357D01*
X10711214Y-16385929D01*
X10711214Y-16443071D01*
X10725500Y-16471643D01*
X10739786Y-16485929D01*
X10768357Y-16500214D01*
X10825500Y-16500214D01*
X10854071Y-16485929D01*
X10868357Y-16471643D01*
X10882643Y-16443071D01*
X10882643Y-16385929D01*
X10868357Y-16357357D01*
X10854071Y-16343071D01*
X10825500Y-16328786D01*
X11068357Y-16200214D02*
X11096929Y-16200214D01*
X11125500Y-16214500D01*
X11139786Y-16228786D01*
X11154071Y-16257357D01*
X11168357Y-16314500D01*
X11168357Y-16385929D01*
X11154071Y-16443071D01*
X11139786Y-16471643D01*
X11125500Y-16485929D01*
X11096929Y-16500214D01*
X11068357Y-16500214D01*
X11039786Y-16485929D01*
X11025500Y-16471643D01*
X11011214Y-16443071D01*
X10996929Y-16385929D01*
X10996929Y-16314500D01*
X11011214Y-16257357D01*
X11025500Y-16228786D01*
X11039786Y-16214500D01*
X11068357Y-16200214D01*
X11296928Y-16500214D02*
X11296928Y-16300214D01*
X11296928Y-16328786D02*
X11311214Y-16314500D01*
X11339786Y-16300214D01*
X11382643Y-16300214D01*
X11411214Y-16314500D01*
X11425500Y-16343071D01*
X11425500Y-16500214D01*
X11425500Y-16343071D02*
X11439786Y-16314500D01*
X11468357Y-16300214D01*
X11511214Y-16300214D01*
X11539786Y-16314500D01*
X11554071Y-16343071D01*
X11554071Y-16500214D01*
X11696928Y-16500214D02*
X11696928Y-16300214D01*
X11696928Y-16328786D02*
X11711214Y-16314500D01*
X11739786Y-16300214D01*
X11782643Y-16300214D01*
X11811214Y-16314500D01*
X11825500Y-16343071D01*
X11825500Y-16500214D01*
X11825500Y-16343071D02*
X11839786Y-16314500D01*
X11868357Y-16300214D01*
X11911214Y-16300214D01*
X11939786Y-16314500D01*
X11954071Y-16343071D01*
X11954071Y-16500214D01*
X12539786Y-16185929D02*
X12282643Y-16571643D01*
X12925500Y-16200214D02*
X12954071Y-16200214D01*
X12982643Y-16214500D01*
X12996928Y-16228786D01*
X13011214Y-16257357D01*
X13025500Y-16314500D01*
X13025500Y-16385929D01*
X13011214Y-16443071D01*
X12996928Y-16471643D01*
X12982643Y-16485929D01*
X12954071Y-16500214D01*
X12925500Y-16500214D01*
X12896928Y-16485929D01*
X12882643Y-16471643D01*
X12868357Y-16443071D01*
X12854071Y-16385929D01*
X12854071Y-16314500D01*
X12868357Y-16257357D01*
X12882643Y-16228786D01*
X12896928Y-16214500D01*
X12925500Y-16200214D01*
X13154071Y-16471643D02*
X13168357Y-16485929D01*
X13154071Y-16500214D01*
X13139786Y-16485929D01*
X13154071Y-16471643D01*
X13154071Y-16500214D01*
X13354071Y-16200214D02*
X13382643Y-16200214D01*
X13411214Y-16214500D01*
X13425500Y-16228786D01*
X13439785Y-16257357D01*
X13454071Y-16314500D01*
X13454071Y-16385929D01*
X13439785Y-16443071D01*
X13425500Y-16471643D01*
X13411214Y-16485929D01*
X13382643Y-16500214D01*
X13354071Y-16500214D01*
X13325500Y-16485929D01*
X13311214Y-16471643D01*
X13296928Y-16443071D01*
X13282643Y-16385929D01*
X13282643Y-16314500D01*
X13296928Y-16257357D01*
X13311214Y-16228786D01*
X13325500Y-16214500D01*
X13354071Y-16200214D01*
X13554071Y-16200214D02*
X13739785Y-16200214D01*
X13639785Y-16314500D01*
X13682643Y-16314500D01*
X13711214Y-16328786D01*
X13725500Y-16343071D01*
X13739785Y-16371643D01*
X13739785Y-16443071D01*
X13725500Y-16471643D01*
X13711214Y-16485929D01*
X13682643Y-16500214D01*
X13596928Y-16500214D01*
X13568357Y-16485929D01*
X13554071Y-16471643D01*
X14025500Y-16500214D02*
X13854071Y-16500214D01*
X13939785Y-16500214D02*
X13939785Y-16200214D01*
X13911214Y-16243071D01*
X13882643Y-16271643D01*
X13854071Y-16285929D01*
X14139786Y-16200214D02*
X14139786Y-16257357D01*
X14254071Y-16200214D02*
X14254071Y-16257357D01*
X14696928Y-16614500D02*
X14682643Y-16600214D01*
X14654071Y-16557357D01*
X14639785Y-16528786D01*
X14625500Y-16485929D01*
X14611214Y-16414500D01*
X14611214Y-16357357D01*
X14625500Y-16285929D01*
X14639785Y-16243071D01*
X14654071Y-16214500D01*
X14682643Y-16171643D01*
X14696928Y-16157357D01*
X14796928Y-16228786D02*
X14811214Y-16214500D01*
X14839785Y-16200214D01*
X14911214Y-16200214D01*
X14939785Y-16214500D01*
X14954071Y-16228786D01*
X14968357Y-16257357D01*
X14968357Y-16285929D01*
X14954071Y-16328786D01*
X14782643Y-16500214D01*
X14968357Y-16500214D01*
X15111214Y-16500214D02*
X15168357Y-16500214D01*
X15196928Y-16485929D01*
X15211214Y-16471643D01*
X15239785Y-16428786D01*
X15254071Y-16371643D01*
X15254071Y-16257357D01*
X15239785Y-16228786D01*
X15225500Y-16214500D01*
X15196928Y-16200214D01*
X15139785Y-16200214D01*
X15111214Y-16214500D01*
X15096928Y-16228786D01*
X15082643Y-16257357D01*
X15082643Y-16328786D01*
X15096928Y-16357357D01*
X15111214Y-16371643D01*
X15139785Y-16385929D01*
X15196928Y-16385929D01*
X15225500Y-16371643D01*
X15239785Y-16357357D01*
X15254071Y-16328786D01*
X15611214Y-16500214D02*
X15611214Y-16200214D01*
X15739785Y-16500214D02*
X15739785Y-16343071D01*
X15725500Y-16314500D01*
X15696928Y-16300214D01*
X15654071Y-16300214D01*
X15625500Y-16314500D01*
X15611214Y-16328786D01*
X15925500Y-16500214D02*
X15896928Y-16485929D01*
X15882643Y-16471643D01*
X15868357Y-16443071D01*
X15868357Y-16357357D01*
X15882643Y-16328786D01*
X15896928Y-16314500D01*
X15925500Y-16300214D01*
X15968357Y-16300214D01*
X15996928Y-16314500D01*
X16011214Y-16328786D01*
X16025500Y-16357357D01*
X16025500Y-16443071D01*
X16011214Y-16471643D01*
X15996928Y-16485929D01*
X15968357Y-16500214D01*
X15925500Y-16500214D01*
X16196928Y-16500214D02*
X16168357Y-16485929D01*
X16154071Y-16457357D01*
X16154071Y-16200214D01*
X16425500Y-16485929D02*
X16396928Y-16500214D01*
X16339786Y-16500214D01*
X16311214Y-16485929D01*
X16296928Y-16457357D01*
X16296928Y-16343071D01*
X16311214Y-16314500D01*
X16339786Y-16300214D01*
X16396928Y-16300214D01*
X16425500Y-16314500D01*
X16439786Y-16343071D01*
X16439786Y-16371643D01*
X16296928Y-16400214D01*
X16554071Y-16485929D02*
X16582643Y-16500214D01*
X16639786Y-16500214D01*
X16668357Y-16485929D01*
X16682643Y-16457357D01*
X16682643Y-16443071D01*
X16668357Y-16414500D01*
X16639786Y-16400214D01*
X16596928Y-16400214D01*
X16568357Y-16385929D01*
X16554071Y-16357357D01*
X16554071Y-16343071D01*
X16568357Y-16314500D01*
X16596928Y-16300214D01*
X16639786Y-16300214D01*
X16668357Y-16314500D01*
X16782643Y-16614500D02*
X16796929Y-16600214D01*
X16825500Y-16557357D01*
X16839786Y-16528786D01*
X16854071Y-16485929D01*
X16868357Y-16414500D01*
X16868357Y-16357357D01*
X16854071Y-16285929D01*
X16839786Y-16243071D01*
X16825500Y-16214500D01*
X16796929Y-16171643D01*
X16782643Y-16157357D01*
X10012320Y-16792320D02*
X10012320Y-16728680D01*
X9948680Y-16728680D01*
X9948680Y-16792320D01*
X10012320Y-16792320D01*
X10354071Y-16596214D02*
X10382643Y-16596214D01*
X10411214Y-16610500D01*
X10425500Y-16624786D01*
X10439786Y-16653357D01*
X10454071Y-16710500D01*
X10454071Y-16781929D01*
X10439786Y-16839072D01*
X10425500Y-16867643D01*
X10411214Y-16881929D01*
X10382643Y-16896214D01*
X10354071Y-16896214D01*
X10325500Y-16881929D01*
X10311214Y-16867643D01*
X10296929Y-16839072D01*
X10282643Y-16781929D01*
X10282643Y-16710500D01*
X10296929Y-16653357D01*
X10311214Y-16624786D01*
X10325500Y-16610500D01*
X10354071Y-16596214D01*
X10582643Y-16867643D02*
X10596929Y-16881929D01*
X10582643Y-16896214D01*
X10568357Y-16881929D01*
X10582643Y-16867643D01*
X10582643Y-16896214D01*
X10739786Y-16896214D02*
X10796928Y-16896214D01*
X10825500Y-16881929D01*
X10839786Y-16867643D01*
X10868357Y-16824786D01*
X10882643Y-16767643D01*
X10882643Y-16653357D01*
X10868357Y-16624786D01*
X10854071Y-16610500D01*
X10825500Y-16596214D01*
X10768357Y-16596214D01*
X10739786Y-16610500D01*
X10725500Y-16624786D01*
X10711214Y-16653357D01*
X10711214Y-16724786D01*
X10725500Y-16753357D01*
X10739786Y-16767643D01*
X10768357Y-16781929D01*
X10825500Y-16781929D01*
X10854071Y-16767643D01*
X10868357Y-16753357D01*
X10882643Y-16724786D01*
X11068357Y-16596214D02*
X11096929Y-16596214D01*
X11125500Y-16610500D01*
X11139786Y-16624786D01*
X11154071Y-16653357D01*
X11168357Y-16710500D01*
X11168357Y-16781929D01*
X11154071Y-16839072D01*
X11139786Y-16867643D01*
X11125500Y-16881929D01*
X11096929Y-16896214D01*
X11068357Y-16896214D01*
X11039786Y-16881929D01*
X11025500Y-16867643D01*
X11011214Y-16839072D01*
X10996929Y-16781929D01*
X10996929Y-16710500D01*
X11011214Y-16653357D01*
X11025500Y-16624786D01*
X11039786Y-16610500D01*
X11068357Y-16596214D01*
X11296928Y-16896214D02*
X11296928Y-16696214D01*
X11296928Y-16724786D02*
X11311214Y-16710500D01*
X11339786Y-16696214D01*
X11382643Y-16696214D01*
X11411214Y-16710500D01*
X11425500Y-16739071D01*
X11425500Y-16896214D01*
X11425500Y-16739071D02*
X11439786Y-16710500D01*
X11468357Y-16696214D01*
X11511214Y-16696214D01*
X11539786Y-16710500D01*
X11554071Y-16739071D01*
X11554071Y-16896214D01*
X11696928Y-16896214D02*
X11696928Y-16696214D01*
X11696928Y-16724786D02*
X11711214Y-16710500D01*
X11739786Y-16696214D01*
X11782643Y-16696214D01*
X11811214Y-16710500D01*
X11825500Y-16739071D01*
X11825500Y-16896214D01*
X11825500Y-16739071D02*
X11839786Y-16710500D01*
X11868357Y-16696214D01*
X11911214Y-16696214D01*
X11939786Y-16710500D01*
X11954071Y-16739071D01*
X11954071Y-16896214D01*
X12539786Y-16581929D02*
X12282643Y-16967643D01*
X12925500Y-16596214D02*
X12954071Y-16596214D01*
X12982643Y-16610500D01*
X12996928Y-16624786D01*
X13011214Y-16653357D01*
X13025500Y-16710500D01*
X13025500Y-16781929D01*
X13011214Y-16839072D01*
X12996928Y-16867643D01*
X12982643Y-16881929D01*
X12954071Y-16896214D01*
X12925500Y-16896214D01*
X12896928Y-16881929D01*
X12882643Y-16867643D01*
X12868357Y-16839072D01*
X12854071Y-16781929D01*
X12854071Y-16710500D01*
X12868357Y-16653357D01*
X12882643Y-16624786D01*
X12896928Y-16610500D01*
X12925500Y-16596214D01*
X13154071Y-16867643D02*
X13168357Y-16881929D01*
X13154071Y-16896214D01*
X13139786Y-16881929D01*
X13154071Y-16867643D01*
X13154071Y-16896214D01*
X13354071Y-16596214D02*
X13382643Y-16596214D01*
X13411214Y-16610500D01*
X13425500Y-16624786D01*
X13439785Y-16653357D01*
X13454071Y-16710500D01*
X13454071Y-16781929D01*
X13439785Y-16839072D01*
X13425500Y-16867643D01*
X13411214Y-16881929D01*
X13382643Y-16896214D01*
X13354071Y-16896214D01*
X13325500Y-16881929D01*
X13311214Y-16867643D01*
X13296928Y-16839072D01*
X13282643Y-16781929D01*
X13282643Y-16710500D01*
X13296928Y-16653357D01*
X13311214Y-16624786D01*
X13325500Y-16610500D01*
X13354071Y-16596214D01*
X13554071Y-16596214D02*
X13739785Y-16596214D01*
X13639785Y-16710500D01*
X13682643Y-16710500D01*
X13711214Y-16724786D01*
X13725500Y-16739071D01*
X13739785Y-16767643D01*
X13739785Y-16839072D01*
X13725500Y-16867643D01*
X13711214Y-16881929D01*
X13682643Y-16896214D01*
X13596928Y-16896214D01*
X13568357Y-16881929D01*
X13554071Y-16867643D01*
X14011214Y-16596214D02*
X13868357Y-16596214D01*
X13854071Y-16739071D01*
X13868357Y-16724786D01*
X13896928Y-16710500D01*
X13968357Y-16710500D01*
X13996928Y-16724786D01*
X14011214Y-16739071D01*
X14025500Y-16767643D01*
X14025500Y-16839072D01*
X14011214Y-16867643D01*
X13996928Y-16881929D01*
X13968357Y-16896214D01*
X13896928Y-16896214D01*
X13868357Y-16881929D01*
X13854071Y-16867643D01*
X14139786Y-16596214D02*
X14139786Y-16653357D01*
X14254071Y-16596214D02*
X14254071Y-16653357D01*
X14696928Y-17010500D02*
X14682643Y-16996214D01*
X14654071Y-16953357D01*
X14639785Y-16924786D01*
X14625500Y-16881929D01*
X14611214Y-16810500D01*
X14611214Y-16753357D01*
X14625500Y-16681929D01*
X14639785Y-16639071D01*
X14654071Y-16610500D01*
X14682643Y-16567643D01*
X14696928Y-16553357D01*
X14968357Y-16896214D02*
X14796928Y-16896214D01*
X14882643Y-16896214D02*
X14882643Y-16596214D01*
X14854071Y-16639071D01*
X14825500Y-16667643D01*
X14796928Y-16681929D01*
X15154071Y-16596214D02*
X15182643Y-16596214D01*
X15211214Y-16610500D01*
X15225500Y-16624786D01*
X15239785Y-16653357D01*
X15254071Y-16710500D01*
X15254071Y-16781929D01*
X15239785Y-16839072D01*
X15225500Y-16867643D01*
X15211214Y-16881929D01*
X15182643Y-16896214D01*
X15154071Y-16896214D01*
X15125500Y-16881929D01*
X15111214Y-16867643D01*
X15096928Y-16839072D01*
X15082643Y-16781929D01*
X15082643Y-16710500D01*
X15096928Y-16653357D01*
X15111214Y-16624786D01*
X15125500Y-16610500D01*
X15154071Y-16596214D01*
X15611214Y-16896214D02*
X15611214Y-16596214D01*
X15739785Y-16896214D02*
X15739785Y-16739071D01*
X15725500Y-16710500D01*
X15696928Y-16696214D01*
X15654071Y-16696214D01*
X15625500Y-16710500D01*
X15611214Y-16724786D01*
X15925500Y-16896214D02*
X15896928Y-16881929D01*
X15882643Y-16867643D01*
X15868357Y-16839072D01*
X15868357Y-16753357D01*
X15882643Y-16724786D01*
X15896928Y-16710500D01*
X15925500Y-16696214D01*
X15968357Y-16696214D01*
X15996928Y-16710500D01*
X16011214Y-16724786D01*
X16025500Y-16753357D01*
X16025500Y-16839072D01*
X16011214Y-16867643D01*
X15996928Y-16881929D01*
X15968357Y-16896214D01*
X15925500Y-16896214D01*
X16196928Y-16896214D02*
X16168357Y-16881929D01*
X16154071Y-16853357D01*
X16154071Y-16596214D01*
X16425500Y-16881929D02*
X16396928Y-16896214D01*
X16339786Y-16896214D01*
X16311214Y-16881929D01*
X16296928Y-16853357D01*
X16296928Y-16739071D01*
X16311214Y-16710500D01*
X16339786Y-16696214D01*
X16396928Y-16696214D01*
X16425500Y-16710500D01*
X16439786Y-16739071D01*
X16439786Y-16767643D01*
X16296928Y-16796214D01*
X16554071Y-16881929D02*
X16582643Y-16896214D01*
X16639786Y-16896214D01*
X16668357Y-16881929D01*
X16682643Y-16853357D01*
X16682643Y-16839072D01*
X16668357Y-16810500D01*
X16639786Y-16796214D01*
X16596928Y-16796214D01*
X16568357Y-16781929D01*
X16554071Y-16753357D01*
X16554071Y-16739071D01*
X16568357Y-16710500D01*
X16596928Y-16696214D01*
X16639786Y-16696214D01*
X16668357Y-16710500D01*
X16782643Y-17010500D02*
X16796929Y-16996214D01*
X16825500Y-16953357D01*
X16839786Y-16924786D01*
X16854071Y-16881929D01*
X16868357Y-16810500D01*
X16868357Y-16753357D01*
X16854071Y-16681929D01*
X16839786Y-16639071D01*
X16825500Y-16610500D01*
X16796929Y-16567643D01*
X16782643Y-16553357D01*
X9975500Y-17206500D02*
X10025500Y-17156500D01*
X9975500Y-17106500D01*
X9925500Y-17156500D01*
X9975500Y-17206500D01*
X10454071Y-17292214D02*
X10282643Y-17292214D01*
X10368357Y-17292214D02*
X10368357Y-16992214D01*
X10339786Y-17035072D01*
X10311214Y-17063643D01*
X10282643Y-17077929D01*
X10582643Y-17263643D02*
X10596929Y-17277929D01*
X10582643Y-17292214D01*
X10568357Y-17277929D01*
X10582643Y-17263643D01*
X10582643Y-17292214D01*
X10782643Y-16992214D02*
X10811214Y-16992214D01*
X10839786Y-17006500D01*
X10854071Y-17020786D01*
X10868357Y-17049357D01*
X10882643Y-17106500D01*
X10882643Y-17177929D01*
X10868357Y-17235072D01*
X10854071Y-17263643D01*
X10839786Y-17277929D01*
X10811214Y-17292214D01*
X10782643Y-17292214D01*
X10754071Y-17277929D01*
X10739786Y-17263643D01*
X10725500Y-17235072D01*
X10711214Y-17177929D01*
X10711214Y-17106500D01*
X10725500Y-17049357D01*
X10739786Y-17020786D01*
X10754071Y-17006500D01*
X10782643Y-16992214D01*
X11068357Y-16992214D02*
X11096929Y-16992214D01*
X11125500Y-17006500D01*
X11139786Y-17020786D01*
X11154071Y-17049357D01*
X11168357Y-17106500D01*
X11168357Y-17177929D01*
X11154071Y-17235072D01*
X11139786Y-17263643D01*
X11125500Y-17277929D01*
X11096929Y-17292214D01*
X11068357Y-17292214D01*
X11039786Y-17277929D01*
X11025500Y-17263643D01*
X11011214Y-17235072D01*
X10996929Y-17177929D01*
X10996929Y-17106500D01*
X11011214Y-17049357D01*
X11025500Y-17020786D01*
X11039786Y-17006500D01*
X11068357Y-16992214D01*
X11296928Y-17292214D02*
X11296928Y-17092214D01*
X11296928Y-17120786D02*
X11311214Y-17106500D01*
X11339786Y-17092214D01*
X11382643Y-17092214D01*
X11411214Y-17106500D01*
X11425500Y-17135072D01*
X11425500Y-17292214D01*
X11425500Y-17135072D02*
X11439786Y-17106500D01*
X11468357Y-17092214D01*
X11511214Y-17092214D01*
X11539786Y-17106500D01*
X11554071Y-17135072D01*
X11554071Y-17292214D01*
X11696928Y-17292214D02*
X11696928Y-17092214D01*
X11696928Y-17120786D02*
X11711214Y-17106500D01*
X11739786Y-17092214D01*
X11782643Y-17092214D01*
X11811214Y-17106500D01*
X11825500Y-17135072D01*
X11825500Y-17292214D01*
X11825500Y-17135072D02*
X11839786Y-17106500D01*
X11868357Y-17092214D01*
X11911214Y-17092214D01*
X11939786Y-17106500D01*
X11954071Y-17135072D01*
X11954071Y-17292214D01*
X12539786Y-16977929D02*
X12282643Y-17363643D01*
X12925500Y-16992214D02*
X12954071Y-16992214D01*
X12982643Y-17006500D01*
X12996928Y-17020786D01*
X13011214Y-17049357D01*
X13025500Y-17106500D01*
X13025500Y-17177929D01*
X13011214Y-17235072D01*
X12996928Y-17263643D01*
X12982643Y-17277929D01*
X12954071Y-17292214D01*
X12925500Y-17292214D01*
X12896928Y-17277929D01*
X12882643Y-17263643D01*
X12868357Y-17235072D01*
X12854071Y-17177929D01*
X12854071Y-17106500D01*
X12868357Y-17049357D01*
X12882643Y-17020786D01*
X12896928Y-17006500D01*
X12925500Y-16992214D01*
X13154071Y-17263643D02*
X13168357Y-17277929D01*
X13154071Y-17292214D01*
X13139786Y-17277929D01*
X13154071Y-17263643D01*
X13154071Y-17292214D01*
X13354071Y-16992214D02*
X13382643Y-16992214D01*
X13411214Y-17006500D01*
X13425500Y-17020786D01*
X13439785Y-17049357D01*
X13454071Y-17106500D01*
X13454071Y-17177929D01*
X13439785Y-17235072D01*
X13425500Y-17263643D01*
X13411214Y-17277929D01*
X13382643Y-17292214D01*
X13354071Y-17292214D01*
X13325500Y-17277929D01*
X13311214Y-17263643D01*
X13296928Y-17235072D01*
X13282643Y-17177929D01*
X13282643Y-17106500D01*
X13296928Y-17049357D01*
X13311214Y-17020786D01*
X13325500Y-17006500D01*
X13354071Y-16992214D01*
X13554071Y-16992214D02*
X13739785Y-16992214D01*
X13639785Y-17106500D01*
X13682643Y-17106500D01*
X13711214Y-17120786D01*
X13725500Y-17135072D01*
X13739785Y-17163643D01*
X13739785Y-17235072D01*
X13725500Y-17263643D01*
X13711214Y-17277929D01*
X13682643Y-17292214D01*
X13596928Y-17292214D01*
X13568357Y-17277929D01*
X13554071Y-17263643D01*
X13882643Y-17292214D02*
X13939785Y-17292214D01*
X13968357Y-17277929D01*
X13982643Y-17263643D01*
X14011214Y-17220786D01*
X14025500Y-17163643D01*
X14025500Y-17049357D01*
X14011214Y-17020786D01*
X13996928Y-17006500D01*
X13968357Y-16992214D01*
X13911214Y-16992214D01*
X13882643Y-17006500D01*
X13868357Y-17020786D01*
X13854071Y-17049357D01*
X13854071Y-17120786D01*
X13868357Y-17149357D01*
X13882643Y-17163643D01*
X13911214Y-17177929D01*
X13968357Y-17177929D01*
X13996928Y-17163643D01*
X14011214Y-17149357D01*
X14025500Y-17120786D01*
X14139786Y-16992214D02*
X14139786Y-17049357D01*
X14254071Y-16992214D02*
X14254071Y-17049357D01*
X14696928Y-17406500D02*
X14682643Y-17392214D01*
X14654071Y-17349357D01*
X14639785Y-17320786D01*
X14625500Y-17277929D01*
X14611214Y-17206500D01*
X14611214Y-17149357D01*
X14625500Y-17077929D01*
X14639785Y-17035072D01*
X14654071Y-17006500D01*
X14682643Y-16963643D01*
X14696928Y-16949357D01*
X14954071Y-16992214D02*
X14811214Y-16992214D01*
X14796928Y-17135072D01*
X14811214Y-17120786D01*
X14839785Y-17106500D01*
X14911214Y-17106500D01*
X14939785Y-17120786D01*
X14954071Y-17135072D01*
X14968357Y-17163643D01*
X14968357Y-17235072D01*
X14954071Y-17263643D01*
X14939785Y-17277929D01*
X14911214Y-17292214D01*
X14839785Y-17292214D01*
X14811214Y-17277929D01*
X14796928Y-17263643D01*
X15082643Y-17020786D02*
X15096928Y-17006500D01*
X15125500Y-16992214D01*
X15196928Y-16992214D01*
X15225500Y-17006500D01*
X15239785Y-17020786D01*
X15254071Y-17049357D01*
X15254071Y-17077929D01*
X15239785Y-17120786D01*
X15068357Y-17292214D01*
X15254071Y-17292214D01*
X15611214Y-17292214D02*
X15611214Y-16992214D01*
X15739785Y-17292214D02*
X15739785Y-17135072D01*
X15725500Y-17106500D01*
X15696928Y-17092214D01*
X15654071Y-17092214D01*
X15625500Y-17106500D01*
X15611214Y-17120786D01*
X15925500Y-17292214D02*
X15896928Y-17277929D01*
X15882643Y-17263643D01*
X15868357Y-17235072D01*
X15868357Y-17149357D01*
X15882643Y-17120786D01*
X15896928Y-17106500D01*
X15925500Y-17092214D01*
X15968357Y-17092214D01*
X15996928Y-17106500D01*
X16011214Y-17120786D01*
X16025500Y-17149357D01*
X16025500Y-17235072D01*
X16011214Y-17263643D01*
X15996928Y-17277929D01*
X15968357Y-17292214D01*
X15925500Y-17292214D01*
X16196928Y-17292214D02*
X16168357Y-17277929D01*
X16154071Y-17249357D01*
X16154071Y-16992214D01*
X16425500Y-17277929D02*
X16396928Y-17292214D01*
X16339786Y-17292214D01*
X16311214Y-17277929D01*
X16296928Y-17249357D01*
X16296928Y-17135072D01*
X16311214Y-17106500D01*
X16339786Y-17092214D01*
X16396928Y-17092214D01*
X16425500Y-17106500D01*
X16439786Y-17135072D01*
X16439786Y-17163643D01*
X16296928Y-17192214D01*
X16554071Y-17277929D02*
X16582643Y-17292214D01*
X16639786Y-17292214D01*
X16668357Y-17277929D01*
X16682643Y-17249357D01*
X16682643Y-17235072D01*
X16668357Y-17206500D01*
X16639786Y-17192214D01*
X16596928Y-17192214D01*
X16568357Y-17177929D01*
X16554071Y-17149357D01*
X16554071Y-17135072D01*
X16568357Y-17106500D01*
X16596928Y-17092214D01*
X16639786Y-17092214D01*
X16668357Y-17106500D01*
X16782643Y-17406500D02*
X16796929Y-17392214D01*
X16825500Y-17349357D01*
X16839786Y-17320786D01*
X16854071Y-17277929D01*
X16868357Y-17206500D01*
X16868357Y-17149357D01*
X16854071Y-17077929D01*
X16839786Y-17035072D01*
X16825500Y-17006500D01*
X16796929Y-16963643D01*
X16782643Y-16949357D01*
X9915500Y-17497500D02*
X10025500Y-17607500D01*
X10025500Y-17497500D02*
X9915500Y-17607500D01*
X10025500Y-17552500D02*
G75*
G03X10025500Y-17552500I-55000J0D01*
G01*
X10454071Y-17688214D02*
X10282643Y-17688214D01*
X10368357Y-17688214D02*
X10368357Y-17388214D01*
X10339786Y-17431072D01*
X10311214Y-17459643D01*
X10282643Y-17473929D01*
X10582643Y-17659643D02*
X10596929Y-17673929D01*
X10582643Y-17688214D01*
X10568357Y-17673929D01*
X10582643Y-17659643D01*
X10582643Y-17688214D01*
X10882643Y-17688214D02*
X10711214Y-17688214D01*
X10796928Y-17688214D02*
X10796928Y-17388214D01*
X10768357Y-17431072D01*
X10739786Y-17459643D01*
X10711214Y-17473929D01*
X11068357Y-17388214D02*
X11096929Y-17388214D01*
X11125500Y-17402500D01*
X11139786Y-17416786D01*
X11154071Y-17445357D01*
X11168357Y-17502500D01*
X11168357Y-17573929D01*
X11154071Y-17631072D01*
X11139786Y-17659643D01*
X11125500Y-17673929D01*
X11096929Y-17688214D01*
X11068357Y-17688214D01*
X11039786Y-17673929D01*
X11025500Y-17659643D01*
X11011214Y-17631072D01*
X10996929Y-17573929D01*
X10996929Y-17502500D01*
X11011214Y-17445357D01*
X11025500Y-17416786D01*
X11039786Y-17402500D01*
X11068357Y-17388214D01*
X11296928Y-17688214D02*
X11296928Y-17488214D01*
X11296928Y-17516786D02*
X11311214Y-17502500D01*
X11339786Y-17488214D01*
X11382643Y-17488214D01*
X11411214Y-17502500D01*
X11425500Y-17531072D01*
X11425500Y-17688214D01*
X11425500Y-17531072D02*
X11439786Y-17502500D01*
X11468357Y-17488214D01*
X11511214Y-17488214D01*
X11539786Y-17502500D01*
X11554071Y-17531072D01*
X11554071Y-17688214D01*
X11696928Y-17688214D02*
X11696928Y-17488214D01*
X11696928Y-17516786D02*
X11711214Y-17502500D01*
X11739786Y-17488214D01*
X11782643Y-17488214D01*
X11811214Y-17502500D01*
X11825500Y-17531072D01*
X11825500Y-17688214D01*
X11825500Y-17531072D02*
X11839786Y-17502500D01*
X11868357Y-17488214D01*
X11911214Y-17488214D01*
X11939786Y-17502500D01*
X11954071Y-17531072D01*
X11954071Y-17688214D01*
X12539786Y-17373929D02*
X12282643Y-17759643D01*
X12925500Y-17388214D02*
X12954071Y-17388214D01*
X12982643Y-17402500D01*
X12996928Y-17416786D01*
X13011214Y-17445357D01*
X13025500Y-17502500D01*
X13025500Y-17573929D01*
X13011214Y-17631072D01*
X12996928Y-17659643D01*
X12982643Y-17673929D01*
X12954071Y-17688214D01*
X12925500Y-17688214D01*
X12896928Y-17673929D01*
X12882643Y-17659643D01*
X12868357Y-17631072D01*
X12854071Y-17573929D01*
X12854071Y-17502500D01*
X12868357Y-17445357D01*
X12882643Y-17416786D01*
X12896928Y-17402500D01*
X12925500Y-17388214D01*
X13154071Y-17659643D02*
X13168357Y-17673929D01*
X13154071Y-17688214D01*
X13139786Y-17673929D01*
X13154071Y-17659643D01*
X13154071Y-17688214D01*
X13354071Y-17388214D02*
X13382643Y-17388214D01*
X13411214Y-17402500D01*
X13425500Y-17416786D01*
X13439785Y-17445357D01*
X13454071Y-17502500D01*
X13454071Y-17573929D01*
X13439785Y-17631072D01*
X13425500Y-17659643D01*
X13411214Y-17673929D01*
X13382643Y-17688214D01*
X13354071Y-17688214D01*
X13325500Y-17673929D01*
X13311214Y-17659643D01*
X13296928Y-17631072D01*
X13282643Y-17573929D01*
X13282643Y-17502500D01*
X13296928Y-17445357D01*
X13311214Y-17416786D01*
X13325500Y-17402500D01*
X13354071Y-17388214D01*
X13711214Y-17488214D02*
X13711214Y-17688214D01*
X13639785Y-17373929D02*
X13568357Y-17588214D01*
X13754071Y-17588214D01*
X13839785Y-17388214D02*
X14025500Y-17388214D01*
X13925500Y-17502500D01*
X13968357Y-17502500D01*
X13996928Y-17516786D01*
X14011214Y-17531072D01*
X14025500Y-17559643D01*
X14025500Y-17631072D01*
X14011214Y-17659643D01*
X13996928Y-17673929D01*
X13968357Y-17688214D01*
X13882643Y-17688214D01*
X13854071Y-17673929D01*
X13839785Y-17659643D01*
X14139786Y-17388214D02*
X14139786Y-17445357D01*
X14254071Y-17388214D02*
X14254071Y-17445357D01*
X14696928Y-17802500D02*
X14682643Y-17788214D01*
X14654071Y-17745357D01*
X14639785Y-17716786D01*
X14625500Y-17673929D01*
X14611214Y-17602500D01*
X14611214Y-17545357D01*
X14625500Y-17473929D01*
X14639785Y-17431072D01*
X14654071Y-17402500D01*
X14682643Y-17359643D01*
X14696928Y-17345357D01*
X14939785Y-17488214D02*
X14939785Y-17688214D01*
X14868357Y-17373929D02*
X14796928Y-17588214D01*
X14982643Y-17588214D01*
X15325500Y-17688214D02*
X15325500Y-17388214D01*
X15454071Y-17688214D02*
X15454071Y-17531072D01*
X15439785Y-17502500D01*
X15411214Y-17488214D01*
X15368357Y-17488214D01*
X15339785Y-17502500D01*
X15325500Y-17516786D01*
X15639785Y-17688214D02*
X15611214Y-17673929D01*
X15596928Y-17659643D01*
X15582643Y-17631072D01*
X15582643Y-17545357D01*
X15596928Y-17516786D01*
X15611214Y-17502500D01*
X15639785Y-17488214D01*
X15682643Y-17488214D01*
X15711214Y-17502500D01*
X15725500Y-17516786D01*
X15739785Y-17545357D01*
X15739785Y-17631072D01*
X15725500Y-17659643D01*
X15711214Y-17673929D01*
X15682643Y-17688214D01*
X15639785Y-17688214D01*
X15911214Y-17688214D02*
X15882643Y-17673929D01*
X15868357Y-17645357D01*
X15868357Y-17388214D01*
X16139786Y-17673929D02*
X16111214Y-17688214D01*
X16054071Y-17688214D01*
X16025500Y-17673929D01*
X16011214Y-17645357D01*
X16011214Y-17531072D01*
X16025500Y-17502500D01*
X16054071Y-17488214D01*
X16111214Y-17488214D01*
X16139786Y-17502500D01*
X16154071Y-17531072D01*
X16154071Y-17559643D01*
X16011214Y-17588214D01*
X16268357Y-17673929D02*
X16296928Y-17688214D01*
X16354071Y-17688214D01*
X16382643Y-17673929D01*
X16396928Y-17645357D01*
X16396928Y-17631072D01*
X16382643Y-17602500D01*
X16354071Y-17588214D01*
X16311214Y-17588214D01*
X16282643Y-17573929D01*
X16268357Y-17545357D01*
X16268357Y-17531072D01*
X16282643Y-17502500D01*
X16311214Y-17488214D01*
X16354071Y-17488214D01*
X16382643Y-17502500D01*
X16496928Y-17802500D02*
X16511214Y-17788214D01*
X16539786Y-17745357D01*
X16554071Y-17716786D01*
X16568357Y-17673929D01*
X16582643Y-17602500D01*
X16582643Y-17545357D01*
X16568357Y-17473929D01*
X16554071Y-17431072D01*
X16539786Y-17402500D01*
X16511214Y-17359643D01*
X16496928Y-17345357D01*
M02*
