G04 #@! TF.FileFunction,Legend,Bot*
%FSLAX46Y46*%
G04 Gerber Fmt 4.6, Leading zero omitted, Abs format (unit mm)*
G04 Created by KiCad (PCBNEW 4.0.7) date 05/04/18 00:13:25*
%MOMM*%
%LPD*%
G01*
G04 APERTURE LIST*
%ADD10C,0.100000*%
%ADD11C,0.200000*%
%ADD12C,0.300000*%
%ADD13C,0.150000*%
%ADD14C,0.120000*%
G04 APERTURE END LIST*
D10*
D11*
X105387857Y-119494286D02*
X106587857Y-119894286D01*
X105387857Y-120294286D01*
X106530714Y-121151428D02*
X106587857Y-121037142D01*
X106587857Y-120808571D01*
X106530714Y-120694285D01*
X106416429Y-120637142D01*
X105959286Y-120637142D01*
X105845000Y-120694285D01*
X105787857Y-120808571D01*
X105787857Y-121037142D01*
X105845000Y-121151428D01*
X105959286Y-121208571D01*
X106073571Y-121208571D01*
X106187857Y-120637142D01*
X106587857Y-121722856D02*
X105787857Y-121722856D01*
X106016429Y-121722856D02*
X105902143Y-121779999D01*
X105845000Y-121837142D01*
X105787857Y-121951428D01*
X105787857Y-122065713D01*
X106530714Y-122408570D02*
X106587857Y-122522856D01*
X106587857Y-122751428D01*
X106530714Y-122865713D01*
X106416429Y-122922856D01*
X106359286Y-122922856D01*
X106245000Y-122865713D01*
X106187857Y-122751428D01*
X106187857Y-122579999D01*
X106130714Y-122465713D01*
X106016429Y-122408570D01*
X105959286Y-122408570D01*
X105845000Y-122465713D01*
X105787857Y-122579999D01*
X105787857Y-122751428D01*
X105845000Y-122865713D01*
X106587857Y-123437142D02*
X105787857Y-123437142D01*
X105387857Y-123437142D02*
X105445000Y-123379999D01*
X105502143Y-123437142D01*
X105445000Y-123494285D01*
X105387857Y-123437142D01*
X105502143Y-123437142D01*
X106587857Y-124180000D02*
X106530714Y-124065714D01*
X106473571Y-124008571D01*
X106359286Y-123951428D01*
X106016429Y-123951428D01*
X105902143Y-124008571D01*
X105845000Y-124065714D01*
X105787857Y-124180000D01*
X105787857Y-124351428D01*
X105845000Y-124465714D01*
X105902143Y-124522857D01*
X106016429Y-124580000D01*
X106359286Y-124580000D01*
X106473571Y-124522857D01*
X106530714Y-124465714D01*
X106587857Y-124351428D01*
X106587857Y-124180000D01*
X105787857Y-125094285D02*
X106587857Y-125094285D01*
X105902143Y-125094285D02*
X105845000Y-125151428D01*
X105787857Y-125265714D01*
X105787857Y-125437142D01*
X105845000Y-125551428D01*
X105959286Y-125608571D01*
X106587857Y-125608571D01*
X106587857Y-127722857D02*
X106587857Y-127037142D01*
X106587857Y-127380000D02*
X105387857Y-127380000D01*
X105559286Y-127265714D01*
X105673571Y-127151428D01*
X105730714Y-127037142D01*
X106473571Y-128237142D02*
X106530714Y-128294285D01*
X106587857Y-128237142D01*
X106530714Y-128179999D01*
X106473571Y-128237142D01*
X106587857Y-128237142D01*
X105387857Y-129037143D02*
X105387857Y-129151428D01*
X105445000Y-129265714D01*
X105502143Y-129322857D01*
X105616429Y-129380000D01*
X105845000Y-129437143D01*
X106130714Y-129437143D01*
X106359286Y-129380000D01*
X106473571Y-129322857D01*
X106530714Y-129265714D01*
X106587857Y-129151428D01*
X106587857Y-129037143D01*
X106530714Y-128922857D01*
X106473571Y-128865714D01*
X106359286Y-128808571D01*
X106130714Y-128751428D01*
X105845000Y-128751428D01*
X105616429Y-128808571D01*
X105502143Y-128865714D01*
X105445000Y-128922857D01*
X105387857Y-129037143D01*
X106130714Y-130865714D02*
X106130714Y-131780000D01*
X105387857Y-133494286D02*
X105387857Y-133608571D01*
X105445000Y-133722857D01*
X105502143Y-133780000D01*
X105616429Y-133837143D01*
X105845000Y-133894286D01*
X106130714Y-133894286D01*
X106359286Y-133837143D01*
X106473571Y-133780000D01*
X106530714Y-133722857D01*
X106587857Y-133608571D01*
X106587857Y-133494286D01*
X106530714Y-133380000D01*
X106473571Y-133322857D01*
X106359286Y-133265714D01*
X106130714Y-133208571D01*
X105845000Y-133208571D01*
X105616429Y-133265714D01*
X105502143Y-133322857D01*
X105445000Y-133380000D01*
X105387857Y-133494286D01*
X105387857Y-134980000D02*
X105387857Y-134408571D01*
X105959286Y-134351428D01*
X105902143Y-134408571D01*
X105845000Y-134522857D01*
X105845000Y-134808571D01*
X105902143Y-134922857D01*
X105959286Y-134980000D01*
X106073571Y-135037143D01*
X106359286Y-135037143D01*
X106473571Y-134980000D01*
X106530714Y-134922857D01*
X106587857Y-134808571D01*
X106587857Y-134522857D01*
X106530714Y-134408571D01*
X106473571Y-134351428D01*
X105330714Y-136408571D02*
X106873571Y-135380000D01*
X105502143Y-136751428D02*
X105445000Y-136808571D01*
X105387857Y-136922857D01*
X105387857Y-137208571D01*
X105445000Y-137322857D01*
X105502143Y-137380000D01*
X105616429Y-137437143D01*
X105730714Y-137437143D01*
X105902143Y-137380000D01*
X106587857Y-136694286D01*
X106587857Y-137437143D01*
X105387857Y-138180000D02*
X105387857Y-138294285D01*
X105445000Y-138408571D01*
X105502143Y-138465714D01*
X105616429Y-138522857D01*
X105845000Y-138580000D01*
X106130714Y-138580000D01*
X106359286Y-138522857D01*
X106473571Y-138465714D01*
X106530714Y-138408571D01*
X106587857Y-138294285D01*
X106587857Y-138180000D01*
X106530714Y-138065714D01*
X106473571Y-138008571D01*
X106359286Y-137951428D01*
X106130714Y-137894285D01*
X105845000Y-137894285D01*
X105616429Y-137951428D01*
X105502143Y-138008571D01*
X105445000Y-138065714D01*
X105387857Y-138180000D01*
X106587857Y-139722857D02*
X106587857Y-139037142D01*
X106587857Y-139380000D02*
X105387857Y-139380000D01*
X105559286Y-139265714D01*
X105673571Y-139151428D01*
X105730714Y-139037142D01*
X105902143Y-140408571D02*
X105845000Y-140294285D01*
X105787857Y-140237142D01*
X105673571Y-140179999D01*
X105616429Y-140179999D01*
X105502143Y-140237142D01*
X105445000Y-140294285D01*
X105387857Y-140408571D01*
X105387857Y-140637142D01*
X105445000Y-140751428D01*
X105502143Y-140808571D01*
X105616429Y-140865714D01*
X105673571Y-140865714D01*
X105787857Y-140808571D01*
X105845000Y-140751428D01*
X105902143Y-140637142D01*
X105902143Y-140408571D01*
X105959286Y-140294285D01*
X106016429Y-140237142D01*
X106130714Y-140179999D01*
X106359286Y-140179999D01*
X106473571Y-140237142D01*
X106530714Y-140294285D01*
X106587857Y-140408571D01*
X106587857Y-140637142D01*
X106530714Y-140751428D01*
X106473571Y-140808571D01*
X106359286Y-140865714D01*
X106130714Y-140865714D01*
X106016429Y-140808571D01*
X105959286Y-140751428D01*
X105902143Y-140637142D01*
X109585000Y-120008571D02*
X109527857Y-119951429D01*
X109356429Y-119837143D01*
X109242143Y-119780000D01*
X109070714Y-119722857D01*
X108785000Y-119665714D01*
X108556429Y-119665714D01*
X108270714Y-119722857D01*
X108099286Y-119780000D01*
X107985000Y-119837143D01*
X107813571Y-119951429D01*
X107756429Y-120008571D01*
X109070714Y-120980000D02*
X109127857Y-120865714D01*
X109127857Y-120637143D01*
X109070714Y-120522857D01*
X109013571Y-120465714D01*
X108899286Y-120408571D01*
X108556429Y-120408571D01*
X108442143Y-120465714D01*
X108385000Y-120522857D01*
X108327857Y-120637143D01*
X108327857Y-120865714D01*
X108385000Y-120980000D01*
X109585000Y-121380000D02*
X109527857Y-121437142D01*
X109356429Y-121551428D01*
X109242143Y-121608571D01*
X109070714Y-121665714D01*
X108785000Y-121722857D01*
X108556429Y-121722857D01*
X108270714Y-121665714D01*
X108099286Y-121608571D01*
X107985000Y-121551428D01*
X107813571Y-121437142D01*
X107756429Y-121380000D01*
X108785000Y-123151428D02*
X108785000Y-123722857D01*
X109127857Y-123037143D02*
X107927857Y-123437143D01*
X109127857Y-123837143D01*
X109127857Y-124408571D02*
X109070714Y-124294285D01*
X108956429Y-124237142D01*
X107927857Y-124237142D01*
X109070714Y-125322856D02*
X109127857Y-125208570D01*
X109127857Y-124979999D01*
X109070714Y-124865713D01*
X108956429Y-124808570D01*
X108499286Y-124808570D01*
X108385000Y-124865713D01*
X108327857Y-124979999D01*
X108327857Y-125208570D01*
X108385000Y-125322856D01*
X108499286Y-125379999D01*
X108613571Y-125379999D01*
X108727857Y-124808570D01*
X109127857Y-125779999D02*
X108327857Y-126408570D01*
X108327857Y-125779999D02*
X109127857Y-126408570D01*
X109127857Y-127379999D02*
X108499286Y-127379999D01*
X108385000Y-127322856D01*
X108327857Y-127208570D01*
X108327857Y-126979999D01*
X108385000Y-126865713D01*
X109070714Y-127379999D02*
X109127857Y-127265713D01*
X109127857Y-126979999D01*
X109070714Y-126865713D01*
X108956429Y-126808570D01*
X108842143Y-126808570D01*
X108727857Y-126865713D01*
X108670714Y-126979999D01*
X108670714Y-127265713D01*
X108613571Y-127379999D01*
X108327857Y-127951427D02*
X109127857Y-127951427D01*
X108442143Y-127951427D02*
X108385000Y-128008570D01*
X108327857Y-128122856D01*
X108327857Y-128294284D01*
X108385000Y-128408570D01*
X108499286Y-128465713D01*
X109127857Y-128465713D01*
X109127857Y-129551427D02*
X107927857Y-129551427D01*
X109070714Y-129551427D02*
X109127857Y-129437141D01*
X109127857Y-129208570D01*
X109070714Y-129094284D01*
X109013571Y-129037141D01*
X108899286Y-128979998D01*
X108556429Y-128979998D01*
X108442143Y-129037141D01*
X108385000Y-129094284D01*
X108327857Y-129208570D01*
X108327857Y-129437141D01*
X108385000Y-129551427D01*
X109070714Y-130579998D02*
X109127857Y-130465712D01*
X109127857Y-130237141D01*
X109070714Y-130122855D01*
X108956429Y-130065712D01*
X108499286Y-130065712D01*
X108385000Y-130122855D01*
X108327857Y-130237141D01*
X108327857Y-130465712D01*
X108385000Y-130579998D01*
X108499286Y-130637141D01*
X108613571Y-130637141D01*
X108727857Y-130065712D01*
X109127857Y-131151426D02*
X108327857Y-131151426D01*
X108556429Y-131151426D02*
X108442143Y-131208569D01*
X108385000Y-131265712D01*
X108327857Y-131379998D01*
X108327857Y-131494283D01*
X109127857Y-133494284D02*
X108556429Y-133094284D01*
X109127857Y-132808569D02*
X107927857Y-132808569D01*
X107927857Y-133265712D01*
X107985000Y-133379998D01*
X108042143Y-133437141D01*
X108156429Y-133494284D01*
X108327857Y-133494284D01*
X108442143Y-133437141D01*
X108499286Y-133379998D01*
X108556429Y-133265712D01*
X108556429Y-132808569D01*
X109070714Y-134465712D02*
X109127857Y-134351426D01*
X109127857Y-134122855D01*
X109070714Y-134008569D01*
X108956429Y-133951426D01*
X108499286Y-133951426D01*
X108385000Y-134008569D01*
X108327857Y-134122855D01*
X108327857Y-134351426D01*
X108385000Y-134465712D01*
X108499286Y-134522855D01*
X108613571Y-134522855D01*
X108727857Y-133951426D01*
X109127857Y-135037140D02*
X108327857Y-135037140D01*
X107927857Y-135037140D02*
X107985000Y-134979997D01*
X108042143Y-135037140D01*
X107985000Y-135094283D01*
X107927857Y-135037140D01*
X108042143Y-135037140D01*
X108327857Y-135608569D02*
X109127857Y-135608569D01*
X108442143Y-135608569D02*
X108385000Y-135665712D01*
X108327857Y-135779998D01*
X108327857Y-135951426D01*
X108385000Y-136065712D01*
X108499286Y-136122855D01*
X109127857Y-136122855D01*
X109070714Y-137151426D02*
X109127857Y-137037140D01*
X109127857Y-136808569D01*
X109070714Y-136694283D01*
X108956429Y-136637140D01*
X108499286Y-136637140D01*
X108385000Y-136694283D01*
X108327857Y-136808569D01*
X108327857Y-137037140D01*
X108385000Y-137151426D01*
X108499286Y-137208569D01*
X108613571Y-137208569D01*
X108727857Y-136637140D01*
X109127857Y-137722854D02*
X108327857Y-137722854D01*
X108556429Y-137722854D02*
X108442143Y-137779997D01*
X108385000Y-137837140D01*
X108327857Y-137951426D01*
X108327857Y-138065711D01*
X108327857Y-138294283D02*
X108327857Y-138751426D01*
X107927857Y-138465711D02*
X108956429Y-138465711D01*
X109070714Y-138522854D01*
X109127857Y-138637140D01*
X109127857Y-138751426D01*
D12*
X104183571Y-119737143D02*
X102683571Y-119737143D01*
X103397857Y-119737143D02*
X103397857Y-120594286D01*
X104183571Y-120594286D02*
X102683571Y-120594286D01*
X103397857Y-121808572D02*
X103469286Y-122022858D01*
X103540714Y-122094286D01*
X103683571Y-122165715D01*
X103897857Y-122165715D01*
X104040714Y-122094286D01*
X104112143Y-122022858D01*
X104183571Y-121880000D01*
X104183571Y-121308572D01*
X102683571Y-121308572D01*
X102683571Y-121808572D01*
X102755000Y-121951429D01*
X102826429Y-122022858D01*
X102969286Y-122094286D01*
X103112143Y-122094286D01*
X103255000Y-122022858D01*
X103326429Y-121951429D01*
X103397857Y-121808572D01*
X103397857Y-121308572D01*
X103612143Y-122808572D02*
X103612143Y-123951429D01*
X102683571Y-124665715D02*
X103897857Y-124665715D01*
X104040714Y-124737143D01*
X104112143Y-124808572D01*
X104183571Y-124951429D01*
X104183571Y-125237143D01*
X104112143Y-125380001D01*
X104040714Y-125451429D01*
X103897857Y-125522858D01*
X102683571Y-125522858D01*
X104183571Y-126237144D02*
X102683571Y-126237144D01*
X104183571Y-127094287D01*
X102683571Y-127094287D01*
X104183571Y-127808573D02*
X102683571Y-127808573D01*
X103612143Y-128522859D02*
X103612143Y-129665716D01*
X104112143Y-130308573D02*
X104183571Y-130522859D01*
X104183571Y-130880002D01*
X104112143Y-131022859D01*
X104040714Y-131094288D01*
X103897857Y-131165716D01*
X103755000Y-131165716D01*
X103612143Y-131094288D01*
X103540714Y-131022859D01*
X103469286Y-130880002D01*
X103397857Y-130594288D01*
X103326429Y-130451430D01*
X103255000Y-130380002D01*
X103112143Y-130308573D01*
X102969286Y-130308573D01*
X102826429Y-130380002D01*
X102755000Y-130451430D01*
X102683571Y-130594288D01*
X102683571Y-130951430D01*
X102755000Y-131165716D01*
X103397857Y-131808573D02*
X103397857Y-132308573D01*
X104183571Y-132522859D02*
X104183571Y-131808573D01*
X102683571Y-131808573D01*
X102683571Y-132522859D01*
X104183571Y-133165716D02*
X102683571Y-133165716D01*
X104183571Y-134022859D01*
X102683571Y-134022859D01*
X104112143Y-134665716D02*
X104183571Y-134880002D01*
X104183571Y-135237145D01*
X104112143Y-135380002D01*
X104040714Y-135451431D01*
X103897857Y-135522859D01*
X103755000Y-135522859D01*
X103612143Y-135451431D01*
X103540714Y-135380002D01*
X103469286Y-135237145D01*
X103397857Y-134951431D01*
X103326429Y-134808573D01*
X103255000Y-134737145D01*
X103112143Y-134665716D01*
X102969286Y-134665716D01*
X102826429Y-134737145D01*
X102755000Y-134808573D01*
X102683571Y-134951431D01*
X102683571Y-135308573D01*
X102755000Y-135522859D01*
X103612143Y-136165716D02*
X103612143Y-137308573D01*
X102683571Y-138308573D02*
X102683571Y-138594287D01*
X102755000Y-138737145D01*
X102897857Y-138880002D01*
X103183571Y-138951430D01*
X103683571Y-138951430D01*
X103969286Y-138880002D01*
X104112143Y-138737145D01*
X104183571Y-138594287D01*
X104183571Y-138308573D01*
X104112143Y-138165716D01*
X103969286Y-138022859D01*
X103683571Y-137951430D01*
X103183571Y-137951430D01*
X102897857Y-138022859D01*
X102755000Y-138165716D01*
X102683571Y-138308573D01*
D13*
X116840000Y-51435000D02*
G75*
G03X116840000Y-51435000I-635000J0D01*
G01*
X114300000Y-51435000D02*
G75*
G03X114300000Y-51435000I-635000J0D01*
G01*
X111760000Y-51435000D02*
G75*
G03X111760000Y-51435000I-635000J0D01*
G01*
X109220000Y-51435000D02*
G75*
G03X109220000Y-51435000I-635000J0D01*
G01*
X106680000Y-51435000D02*
G75*
G03X106680000Y-51435000I-635000J0D01*
G01*
X104140000Y-51435000D02*
G75*
G03X104140000Y-51435000I-635000J0D01*
G01*
D14*
X146050000Y-139320000D02*
X143510000Y-139320000D01*
X143510000Y-137540000D02*
X146050000Y-137540000D01*
X143510000Y-137540000D02*
X143510000Y-139320000D01*
X146050000Y-139320000D02*
X146050000Y-137540000D01*
D13*
X115270000Y-53517858D02*
X115241429Y-53460715D01*
X115241429Y-53375001D01*
X115270000Y-53289286D01*
X115327143Y-53232144D01*
X115384286Y-53203572D01*
X115498571Y-53175001D01*
X115584286Y-53175001D01*
X115698571Y-53203572D01*
X115755714Y-53232144D01*
X115812857Y-53289286D01*
X115841429Y-53375001D01*
X115841429Y-53432144D01*
X115812857Y-53517858D01*
X115784286Y-53546429D01*
X115584286Y-53546429D01*
X115584286Y-53432144D01*
X115841429Y-53803572D02*
X115241429Y-53803572D01*
X115841429Y-54146429D01*
X115241429Y-54146429D01*
X115841429Y-54432143D02*
X115241429Y-54432143D01*
X115241429Y-54575000D01*
X115270000Y-54660715D01*
X115327143Y-54717857D01*
X115384286Y-54746429D01*
X115498571Y-54775000D01*
X115584286Y-54775000D01*
X115698571Y-54746429D01*
X115755714Y-54717857D01*
X115812857Y-54660715D01*
X115841429Y-54575000D01*
X115841429Y-54432143D01*
X113365000Y-53517858D02*
X113336429Y-53460715D01*
X113336429Y-53375001D01*
X113365000Y-53289286D01*
X113422143Y-53232144D01*
X113479286Y-53203572D01*
X113593571Y-53175001D01*
X113679286Y-53175001D01*
X113793571Y-53203572D01*
X113850714Y-53232144D01*
X113907857Y-53289286D01*
X113936429Y-53375001D01*
X113936429Y-53432144D01*
X113907857Y-53517858D01*
X113879286Y-53546429D01*
X113679286Y-53546429D01*
X113679286Y-53432144D01*
X113936429Y-53803572D02*
X113336429Y-53803572D01*
X113936429Y-54146429D01*
X113336429Y-54146429D01*
X113936429Y-54432143D02*
X113336429Y-54432143D01*
X113336429Y-54575000D01*
X113365000Y-54660715D01*
X113422143Y-54717857D01*
X113479286Y-54746429D01*
X113593571Y-54775000D01*
X113679286Y-54775000D01*
X113793571Y-54746429D01*
X113850714Y-54717857D01*
X113907857Y-54660715D01*
X113936429Y-54575000D01*
X113936429Y-54432143D01*
X110796429Y-53175000D02*
X111396429Y-53375000D01*
X110796429Y-53575000D01*
X111339286Y-54117857D02*
X111367857Y-54089286D01*
X111396429Y-54003572D01*
X111396429Y-53946429D01*
X111367857Y-53860714D01*
X111310714Y-53803572D01*
X111253571Y-53775000D01*
X111139286Y-53746429D01*
X111053571Y-53746429D01*
X110939286Y-53775000D01*
X110882143Y-53803572D01*
X110825000Y-53860714D01*
X110796429Y-53946429D01*
X110796429Y-54003572D01*
X110825000Y-54089286D01*
X110853571Y-54117857D01*
X111339286Y-54717857D02*
X111367857Y-54689286D01*
X111396429Y-54603572D01*
X111396429Y-54546429D01*
X111367857Y-54460714D01*
X111310714Y-54403572D01*
X111253571Y-54375000D01*
X111139286Y-54346429D01*
X111053571Y-54346429D01*
X110939286Y-54375000D01*
X110882143Y-54403572D01*
X110825000Y-54460714D01*
X110796429Y-54546429D01*
X110796429Y-54603572D01*
X110825000Y-54689286D01*
X110853571Y-54717857D01*
X108856429Y-53732143D02*
X108570714Y-53532143D01*
X108856429Y-53389286D02*
X108256429Y-53389286D01*
X108256429Y-53617858D01*
X108285000Y-53675000D01*
X108313571Y-53703572D01*
X108370714Y-53732143D01*
X108456429Y-53732143D01*
X108513571Y-53703572D01*
X108542143Y-53675000D01*
X108570714Y-53617858D01*
X108570714Y-53389286D01*
X108256429Y-53932143D02*
X108856429Y-54332143D01*
X108256429Y-54332143D02*
X108856429Y-53932143D01*
X108856429Y-54560715D02*
X108256429Y-54560715D01*
X105716429Y-53217857D02*
X105716429Y-53560714D01*
X106316429Y-53389285D02*
X105716429Y-53389285D01*
X105716429Y-53703571D02*
X106316429Y-54103571D01*
X105716429Y-54103571D02*
X106316429Y-53703571D01*
X106316429Y-54332143D02*
X105716429Y-54332143D01*
X105716429Y-54475000D01*
X105745000Y-54560715D01*
X105802143Y-54617857D01*
X105859286Y-54646429D01*
X105973571Y-54675000D01*
X106059286Y-54675000D01*
X106173571Y-54646429D01*
X106230714Y-54617857D01*
X106287857Y-54560715D01*
X106316429Y-54475000D01*
X106316429Y-54332143D01*
X104411429Y-53289286D02*
X103811429Y-53289286D01*
X103811429Y-53432143D01*
X103840000Y-53517858D01*
X103897143Y-53575000D01*
X103954286Y-53603572D01*
X104068571Y-53632143D01*
X104154286Y-53632143D01*
X104268571Y-53603572D01*
X104325714Y-53575000D01*
X104382857Y-53517858D01*
X104411429Y-53432143D01*
X104411429Y-53289286D01*
X103811429Y-53803572D02*
X103811429Y-54146429D01*
X104411429Y-53975000D02*
X103811429Y-53975000D01*
X104411429Y-54689286D02*
X104125714Y-54489286D01*
X104411429Y-54346429D02*
X103811429Y-54346429D01*
X103811429Y-54575001D01*
X103840000Y-54632143D01*
X103868571Y-54660715D01*
X103925714Y-54689286D01*
X104011429Y-54689286D01*
X104068571Y-54660715D01*
X104097143Y-54632143D01*
X104125714Y-54575001D01*
X104125714Y-54346429D01*
X145113333Y-136102381D02*
X145113333Y-136816667D01*
X145160953Y-136959524D01*
X145256191Y-137054762D01*
X145399048Y-137102381D01*
X145494286Y-137102381D01*
X144494286Y-136530952D02*
X144589524Y-136483333D01*
X144637143Y-136435714D01*
X144684762Y-136340476D01*
X144684762Y-136292857D01*
X144637143Y-136197619D01*
X144589524Y-136150000D01*
X144494286Y-136102381D01*
X144303809Y-136102381D01*
X144208571Y-136150000D01*
X144160952Y-136197619D01*
X144113333Y-136292857D01*
X144113333Y-136340476D01*
X144160952Y-136435714D01*
X144208571Y-136483333D01*
X144303809Y-136530952D01*
X144494286Y-136530952D01*
X144589524Y-136578571D01*
X144637143Y-136626190D01*
X144684762Y-136721429D01*
X144684762Y-136911905D01*
X144637143Y-137007143D01*
X144589524Y-137054762D01*
X144494286Y-137102381D01*
X144303809Y-137102381D01*
X144208571Y-137054762D01*
X144160952Y-137007143D01*
X144113333Y-136911905D01*
X144113333Y-136721429D01*
X144160952Y-136626190D01*
X144208571Y-136578571D01*
X144303809Y-136530952D01*
M02*
