M48
;DRILL file {KiCad 4.0.7} date 05/04/18 00:13:28
;FORMAT={-:-/ absolute / inch / decimal}
FMAT,2
INCH,TZ
T1C0.016
T2C0.024
T3C0.031
T4C0.035
T5C0.039
T6C0.043
%
G90
G05
M72
T1
X4.1Y-3.125
X4.45Y-3.175
X4.575Y-3.175
T2
X4.925Y-3.05
X4.925Y-3.1091
T3
X4.311Y-3.5748
X4.311Y-5.6339
X4.775Y-2.8
X4.775Y-2.9
X4.925Y-2.8
X4.925Y-2.9
X5.0197Y-3.5394
X5.0197Y-5.6339
X5.1234Y-2.8091
X5.1234Y-2.8878
X5.1234Y-2.9665
X5.1234Y-3.0453
X5.1234Y-3.124
X5.1234Y-3.2028
X5.1234Y-3.2815
X5.1234Y-3.3602
X5.425Y-5.3
X5.475Y-3.9
X5.475Y-4.
X5.475Y-4.7
X5.475Y-4.8
X5.5156Y-5.3
X5.6061Y-5.3
X5.675Y-4.7
X5.675Y-4.8
X5.7Y-3.9
X5.7Y-4.
X5.725Y-5.3
X5.825Y-5.3
T4
X5.45Y-5.475
X5.45Y-5.575
X5.475Y-4.475
X5.475Y-4.575
X5.55Y-5.475
X5.55Y-5.575
X5.65Y-5.575
X5.675Y-4.475
X5.675Y-4.575
X5.75Y-5.575
T5
X4.025Y-2.125
X4.025Y-2.225
X4.025Y-2.325
X4.025Y-2.425
X4.025Y-2.525
X4.025Y-2.625
X4.025Y-2.725
X4.025Y-2.825
X4.025Y-2.925
X4.025Y-3.025
X4.025Y-3.125
X4.025Y-3.225
X4.525Y-2.475
X4.525Y-2.575
X4.625Y-2.125
X4.625Y-2.225
X4.625Y-2.325
X4.625Y-2.425
X4.625Y-2.525
X4.625Y-2.625
X4.625Y-2.725
X4.625Y-2.825
X4.625Y-2.925
X4.625Y-3.025
X4.625Y-3.125
X4.625Y-3.225
X4.8Y-2.325
X4.8Y-2.425
X4.8Y-2.525
X4.8Y-2.625
X5.2Y-2.325
X5.2Y-2.425
X5.2Y-2.525
X5.2Y-2.625
X5.4Y-2.325
X5.4Y-2.425
X5.4Y-2.525
X5.4Y-2.625
X5.475Y-3.55
X5.475Y-3.65
X5.475Y-3.75
X5.475Y-4.2
X5.475Y-4.3
X5.7Y-3.55
X5.7Y-3.65
X5.7Y-3.75
X5.7Y-4.2
X5.7Y-4.3
X5.8Y-2.325
X5.8Y-2.425
X5.8Y-2.525
X5.8Y-2.625
T6
X5.47Y-4.94
X5.47Y-5.1172
X5.7259Y-4.94
X5.7259Y-5.1172
T0
M30
