%FSLAX45Y45*%
G04 Gerber Fmt 4.5, Leading zero omitted, Abs format (unit mm)*
G04 Created by KiCad (PCBNEW 4.0.7) date 05/04/18 00:13:29*
%MOMM*%
%LPD*%
G01*
G04 APERTURE LIST*
%ADD10C,0.127000*%
%ADD11C,0.150000*%
%ADD12C,0.200000*%
%ADD13C,0.300000*%
G04 APERTURE END LIST*
D10*
D11*
X14922500Y-14605000D02*
X10160000Y-14605000D01*
X14922500Y-5016500D02*
X12001500Y-5016500D01*
X10033000Y-5384800D02*
X10033000Y-14478000D01*
X15049500Y-14478000D02*
X15049500Y-5143500D01*
X10033000Y-14478000D02*
G75*
G03X10160000Y-14605000I127000J0D01*
G01*
X14922500Y-14605000D02*
G75*
G03X15049500Y-14478000I0J127000D01*
G01*
X15049500Y-5143500D02*
G75*
G03X14922500Y-5016500I-127000J0D01*
G01*
X11760200Y-5257800D02*
X10160000Y-5257800D01*
X11760200Y-5257800D02*
G75*
G03X11874500Y-5143500I0J114300D01*
G01*
X12001500Y-5016500D02*
G75*
G03X11874500Y-5143500I0J-127000D01*
G01*
X10160000Y-5257800D02*
G75*
G03X10033000Y-5384800I0J-127000D01*
G01*
D12*
X14704550Y-7827500D02*
X14924550Y-8047500D01*
X14924550Y-7827500D02*
X14704550Y-8047500D01*
X11095000Y-11650000D02*
G75*
G03X11095000Y-11650000I-145000J0D01*
G01*
X12895000Y-11650000D02*
G75*
G03X12895000Y-11650000I-145000J0D01*
G01*
D13*
X10296929Y-15078214D02*
X10296929Y-14778214D01*
X10368357Y-14778214D01*
X10411214Y-14792500D01*
X10439786Y-14821071D01*
X10454071Y-14849643D01*
X10468357Y-14906786D01*
X10468357Y-14949643D01*
X10454071Y-15006786D01*
X10439786Y-15035357D01*
X10411214Y-15063929D01*
X10368357Y-15078214D01*
X10296929Y-15078214D01*
X10596929Y-15078214D02*
X10596929Y-14878214D01*
X10596929Y-14935357D02*
X10611214Y-14906786D01*
X10625500Y-14892500D01*
X10654071Y-14878214D01*
X10682643Y-14878214D01*
X10782643Y-15078214D02*
X10782643Y-14878214D01*
X10782643Y-14778214D02*
X10768357Y-14792500D01*
X10782643Y-14806786D01*
X10796929Y-14792500D01*
X10782643Y-14778214D01*
X10782643Y-14806786D01*
X10968357Y-15078214D02*
X10939786Y-15063929D01*
X10925500Y-15035357D01*
X10925500Y-14778214D01*
X11125500Y-15078214D02*
X11096929Y-15063929D01*
X11082643Y-15035357D01*
X11082643Y-14778214D01*
X11468357Y-15078214D02*
X11468357Y-14778214D01*
X11568357Y-14992500D01*
X11668357Y-14778214D01*
X11668357Y-15078214D01*
X11939786Y-15078214D02*
X11939786Y-14921071D01*
X11925500Y-14892500D01*
X11896928Y-14878214D01*
X11839786Y-14878214D01*
X11811214Y-14892500D01*
X11939786Y-15063929D02*
X11911214Y-15078214D01*
X11839786Y-15078214D01*
X11811214Y-15063929D01*
X11796928Y-15035357D01*
X11796928Y-15006786D01*
X11811214Y-14978214D01*
X11839786Y-14963929D01*
X11911214Y-14963929D01*
X11939786Y-14949643D01*
X12082643Y-14878214D02*
X12082643Y-15178214D01*
X12082643Y-14892500D02*
X12111214Y-14878214D01*
X12168357Y-14878214D01*
X12196928Y-14892500D01*
X12211214Y-14906786D01*
X12225500Y-14935357D01*
X12225500Y-15021071D01*
X12211214Y-15049643D01*
X12196928Y-15063929D01*
X12168357Y-15078214D01*
X12111214Y-15078214D01*
X12082643Y-15063929D01*
X12354071Y-15049643D02*
X12368357Y-15063929D01*
X12354071Y-15078214D01*
X12339786Y-15063929D01*
X12354071Y-15049643D01*
X12354071Y-15078214D01*
X12354071Y-14892500D02*
X12368357Y-14906786D01*
X12354071Y-14921071D01*
X12339786Y-14906786D01*
X12354071Y-14892500D01*
X12354071Y-14921071D01*
X9805500Y-15462500D02*
X10025500Y-15682500D01*
X10025500Y-15462500D02*
X9805500Y-15682500D01*
X10282643Y-15436786D02*
X10296929Y-15422500D01*
X10325500Y-15408214D01*
X10396929Y-15408214D01*
X10425500Y-15422500D01*
X10439786Y-15436786D01*
X10454071Y-15465357D01*
X10454071Y-15493929D01*
X10439786Y-15536786D01*
X10268357Y-15708214D01*
X10454071Y-15708214D01*
X10582643Y-15679643D02*
X10596929Y-15693929D01*
X10582643Y-15708214D01*
X10568357Y-15693929D01*
X10582643Y-15679643D01*
X10582643Y-15708214D01*
X10711214Y-15436786D02*
X10725500Y-15422500D01*
X10754071Y-15408214D01*
X10825500Y-15408214D01*
X10854071Y-15422500D01*
X10868357Y-15436786D01*
X10882643Y-15465357D01*
X10882643Y-15493929D01*
X10868357Y-15536786D01*
X10696928Y-15708214D01*
X10882643Y-15708214D01*
X11068357Y-15408214D02*
X11096929Y-15408214D01*
X11125500Y-15422500D01*
X11139786Y-15436786D01*
X11154071Y-15465357D01*
X11168357Y-15522500D01*
X11168357Y-15593929D01*
X11154071Y-15651071D01*
X11139786Y-15679643D01*
X11125500Y-15693929D01*
X11096929Y-15708214D01*
X11068357Y-15708214D01*
X11039786Y-15693929D01*
X11025500Y-15679643D01*
X11011214Y-15651071D01*
X10996929Y-15593929D01*
X10996929Y-15522500D01*
X11011214Y-15465357D01*
X11025500Y-15436786D01*
X11039786Y-15422500D01*
X11068357Y-15408214D01*
X11296928Y-15708214D02*
X11296928Y-15508214D01*
X11296928Y-15536786D02*
X11311214Y-15522500D01*
X11339786Y-15508214D01*
X11382643Y-15508214D01*
X11411214Y-15522500D01*
X11425500Y-15551071D01*
X11425500Y-15708214D01*
X11425500Y-15551071D02*
X11439786Y-15522500D01*
X11468357Y-15508214D01*
X11511214Y-15508214D01*
X11539786Y-15522500D01*
X11554071Y-15551071D01*
X11554071Y-15708214D01*
X11696928Y-15708214D02*
X11696928Y-15508214D01*
X11696928Y-15536786D02*
X11711214Y-15522500D01*
X11739786Y-15508214D01*
X11782643Y-15508214D01*
X11811214Y-15522500D01*
X11825500Y-15551071D01*
X11825500Y-15708214D01*
X11825500Y-15551071D02*
X11839786Y-15522500D01*
X11868357Y-15508214D01*
X11911214Y-15508214D01*
X11939786Y-15522500D01*
X11954071Y-15551071D01*
X11954071Y-15708214D01*
X12539786Y-15393929D02*
X12282643Y-15779643D01*
X12925500Y-15408214D02*
X12954071Y-15408214D01*
X12982643Y-15422500D01*
X12996928Y-15436786D01*
X13011214Y-15465357D01*
X13025500Y-15522500D01*
X13025500Y-15593929D01*
X13011214Y-15651071D01*
X12996928Y-15679643D01*
X12982643Y-15693929D01*
X12954071Y-15708214D01*
X12925500Y-15708214D01*
X12896928Y-15693929D01*
X12882643Y-15679643D01*
X12868357Y-15651071D01*
X12854071Y-15593929D01*
X12854071Y-15522500D01*
X12868357Y-15465357D01*
X12882643Y-15436786D01*
X12896928Y-15422500D01*
X12925500Y-15408214D01*
X13154071Y-15679643D02*
X13168357Y-15693929D01*
X13154071Y-15708214D01*
X13139786Y-15693929D01*
X13154071Y-15679643D01*
X13154071Y-15708214D01*
X13354071Y-15408214D02*
X13382643Y-15408214D01*
X13411214Y-15422500D01*
X13425500Y-15436786D01*
X13439785Y-15465357D01*
X13454071Y-15522500D01*
X13454071Y-15593929D01*
X13439785Y-15651071D01*
X13425500Y-15679643D01*
X13411214Y-15693929D01*
X13382643Y-15708214D01*
X13354071Y-15708214D01*
X13325500Y-15693929D01*
X13311214Y-15679643D01*
X13296928Y-15651071D01*
X13282643Y-15593929D01*
X13282643Y-15522500D01*
X13296928Y-15465357D01*
X13311214Y-15436786D01*
X13325500Y-15422500D01*
X13354071Y-15408214D01*
X13625500Y-15536786D02*
X13596928Y-15522500D01*
X13582643Y-15508214D01*
X13568357Y-15479643D01*
X13568357Y-15465357D01*
X13582643Y-15436786D01*
X13596928Y-15422500D01*
X13625500Y-15408214D01*
X13682643Y-15408214D01*
X13711214Y-15422500D01*
X13725500Y-15436786D01*
X13739785Y-15465357D01*
X13739785Y-15479643D01*
X13725500Y-15508214D01*
X13711214Y-15522500D01*
X13682643Y-15536786D01*
X13625500Y-15536786D01*
X13596928Y-15551071D01*
X13582643Y-15565357D01*
X13568357Y-15593929D01*
X13568357Y-15651071D01*
X13582643Y-15679643D01*
X13596928Y-15693929D01*
X13625500Y-15708214D01*
X13682643Y-15708214D01*
X13711214Y-15693929D01*
X13725500Y-15679643D01*
X13739785Y-15651071D01*
X13739785Y-15593929D01*
X13725500Y-15565357D01*
X13711214Y-15551071D01*
X13682643Y-15536786D01*
X13839785Y-15408214D02*
X14039785Y-15408214D01*
X13911214Y-15708214D01*
X14139786Y-15408214D02*
X14139786Y-15465357D01*
X14254071Y-15408214D02*
X14254071Y-15465357D01*
X14696928Y-15822500D02*
X14682643Y-15808214D01*
X14654071Y-15765357D01*
X14639785Y-15736786D01*
X14625500Y-15693929D01*
X14611214Y-15622500D01*
X14611214Y-15565357D01*
X14625500Y-15493929D01*
X14639785Y-15451071D01*
X14654071Y-15422500D01*
X14682643Y-15379643D01*
X14696928Y-15365357D01*
X14968357Y-15708214D02*
X14796928Y-15708214D01*
X14882643Y-15708214D02*
X14882643Y-15408214D01*
X14854071Y-15451071D01*
X14825500Y-15479643D01*
X14796928Y-15493929D01*
X15325500Y-15708214D02*
X15325500Y-15408214D01*
X15454071Y-15708214D02*
X15454071Y-15551071D01*
X15439785Y-15522500D01*
X15411214Y-15508214D01*
X15368357Y-15508214D01*
X15339785Y-15522500D01*
X15325500Y-15536786D01*
X15639785Y-15708214D02*
X15611214Y-15693929D01*
X15596928Y-15679643D01*
X15582643Y-15651071D01*
X15582643Y-15565357D01*
X15596928Y-15536786D01*
X15611214Y-15522500D01*
X15639785Y-15508214D01*
X15682643Y-15508214D01*
X15711214Y-15522500D01*
X15725500Y-15536786D01*
X15739785Y-15565357D01*
X15739785Y-15651071D01*
X15725500Y-15679643D01*
X15711214Y-15693929D01*
X15682643Y-15708214D01*
X15639785Y-15708214D01*
X15911214Y-15708214D02*
X15882643Y-15693929D01*
X15868357Y-15665357D01*
X15868357Y-15408214D01*
X16139786Y-15693929D02*
X16111214Y-15708214D01*
X16054071Y-15708214D01*
X16025500Y-15693929D01*
X16011214Y-15665357D01*
X16011214Y-15551071D01*
X16025500Y-15522500D01*
X16054071Y-15508214D01*
X16111214Y-15508214D01*
X16139786Y-15522500D01*
X16154071Y-15551071D01*
X16154071Y-15579643D01*
X16011214Y-15608214D01*
X16254071Y-15822500D02*
X16268357Y-15808214D01*
X16296928Y-15765357D01*
X16311214Y-15736786D01*
X16325500Y-15693929D01*
X16339786Y-15622500D01*
X16339786Y-15565357D01*
X16325500Y-15493929D01*
X16311214Y-15451071D01*
X16296928Y-15422500D01*
X16268357Y-15379643D01*
X16254071Y-15365357D01*
X16796929Y-15822500D02*
X16782643Y-15808214D01*
X16754071Y-15765357D01*
X16739786Y-15736786D01*
X16725500Y-15693929D01*
X16711214Y-15622500D01*
X16711214Y-15565357D01*
X16725500Y-15493929D01*
X16739786Y-15451071D01*
X16754071Y-15422500D01*
X16782643Y-15379643D01*
X16796929Y-15365357D01*
X16911214Y-15508214D02*
X16911214Y-15708214D01*
X16911214Y-15536786D02*
X16925500Y-15522500D01*
X16954071Y-15508214D01*
X16996929Y-15508214D01*
X17025500Y-15522500D01*
X17039786Y-15551071D01*
X17039786Y-15708214D01*
X17225500Y-15708214D02*
X17196929Y-15693929D01*
X17182643Y-15679643D01*
X17168357Y-15651071D01*
X17168357Y-15565357D01*
X17182643Y-15536786D01*
X17196929Y-15522500D01*
X17225500Y-15508214D01*
X17268357Y-15508214D01*
X17296929Y-15522500D01*
X17311214Y-15536786D01*
X17325500Y-15565357D01*
X17325500Y-15651071D01*
X17311214Y-15679643D01*
X17296929Y-15693929D01*
X17268357Y-15708214D01*
X17225500Y-15708214D01*
X17411214Y-15508214D02*
X17525500Y-15508214D01*
X17454071Y-15408214D02*
X17454071Y-15665357D01*
X17468357Y-15693929D01*
X17496929Y-15708214D01*
X17525500Y-15708214D01*
X17854071Y-15508214D02*
X17854071Y-15808214D01*
X17854071Y-15522500D02*
X17882643Y-15508214D01*
X17939786Y-15508214D01*
X17968357Y-15522500D01*
X17982643Y-15536786D01*
X17996929Y-15565357D01*
X17996929Y-15651071D01*
X17982643Y-15679643D01*
X17968357Y-15693929D01*
X17939786Y-15708214D01*
X17882643Y-15708214D01*
X17854071Y-15693929D01*
X18168357Y-15708214D02*
X18139786Y-15693929D01*
X18125500Y-15665357D01*
X18125500Y-15408214D01*
X18411214Y-15708214D02*
X18411214Y-15551071D01*
X18396929Y-15522500D01*
X18368357Y-15508214D01*
X18311214Y-15508214D01*
X18282643Y-15522500D01*
X18411214Y-15693929D02*
X18382643Y-15708214D01*
X18311214Y-15708214D01*
X18282643Y-15693929D01*
X18268357Y-15665357D01*
X18268357Y-15636786D01*
X18282643Y-15608214D01*
X18311214Y-15593929D01*
X18382643Y-15593929D01*
X18411214Y-15579643D01*
X18511214Y-15508214D02*
X18625500Y-15508214D01*
X18554072Y-15408214D02*
X18554072Y-15665357D01*
X18568357Y-15693929D01*
X18596929Y-15708214D01*
X18625500Y-15708214D01*
X18839786Y-15693929D02*
X18811214Y-15708214D01*
X18754072Y-15708214D01*
X18725500Y-15693929D01*
X18711214Y-15665357D01*
X18711214Y-15551071D01*
X18725500Y-15522500D01*
X18754072Y-15508214D01*
X18811214Y-15508214D01*
X18839786Y-15522500D01*
X18854072Y-15551071D01*
X18854072Y-15579643D01*
X18711214Y-15608214D01*
X19111214Y-15708214D02*
X19111214Y-15408214D01*
X19111214Y-15693929D02*
X19082643Y-15708214D01*
X19025500Y-15708214D01*
X18996929Y-15693929D01*
X18982643Y-15679643D01*
X18968357Y-15651071D01*
X18968357Y-15565357D01*
X18982643Y-15536786D01*
X18996929Y-15522500D01*
X19025500Y-15508214D01*
X19082643Y-15508214D01*
X19111214Y-15522500D01*
X19225500Y-15822500D02*
X19239786Y-15808214D01*
X19268357Y-15765357D01*
X19282643Y-15736786D01*
X19296929Y-15693929D01*
X19311214Y-15622500D01*
X19311214Y-15565357D01*
X19296929Y-15493929D01*
X19282643Y-15451071D01*
X19268357Y-15422500D01*
X19239786Y-15379643D01*
X19225500Y-15365357D01*
X10025500Y-15968500D02*
G75*
G03X10025500Y-15968500I-145000J0D01*
G01*
X10282643Y-15832786D02*
X10296929Y-15818500D01*
X10325500Y-15804214D01*
X10396929Y-15804214D01*
X10425500Y-15818500D01*
X10439786Y-15832786D01*
X10454071Y-15861357D01*
X10454071Y-15889929D01*
X10439786Y-15932786D01*
X10268357Y-16104214D01*
X10454071Y-16104214D01*
X10582643Y-16075643D02*
X10596929Y-16089929D01*
X10582643Y-16104214D01*
X10568357Y-16089929D01*
X10582643Y-16075643D01*
X10582643Y-16104214D01*
X10739786Y-16104214D02*
X10796928Y-16104214D01*
X10825500Y-16089929D01*
X10839786Y-16075643D01*
X10868357Y-16032786D01*
X10882643Y-15975643D01*
X10882643Y-15861357D01*
X10868357Y-15832786D01*
X10854071Y-15818500D01*
X10825500Y-15804214D01*
X10768357Y-15804214D01*
X10739786Y-15818500D01*
X10725500Y-15832786D01*
X10711214Y-15861357D01*
X10711214Y-15932786D01*
X10725500Y-15961357D01*
X10739786Y-15975643D01*
X10768357Y-15989929D01*
X10825500Y-15989929D01*
X10854071Y-15975643D01*
X10868357Y-15961357D01*
X10882643Y-15932786D01*
X11068357Y-15804214D02*
X11096929Y-15804214D01*
X11125500Y-15818500D01*
X11139786Y-15832786D01*
X11154071Y-15861357D01*
X11168357Y-15918500D01*
X11168357Y-15989929D01*
X11154071Y-16047071D01*
X11139786Y-16075643D01*
X11125500Y-16089929D01*
X11096929Y-16104214D01*
X11068357Y-16104214D01*
X11039786Y-16089929D01*
X11025500Y-16075643D01*
X11011214Y-16047071D01*
X10996929Y-15989929D01*
X10996929Y-15918500D01*
X11011214Y-15861357D01*
X11025500Y-15832786D01*
X11039786Y-15818500D01*
X11068357Y-15804214D01*
X11296928Y-16104214D02*
X11296928Y-15904214D01*
X11296928Y-15932786D02*
X11311214Y-15918500D01*
X11339786Y-15904214D01*
X11382643Y-15904214D01*
X11411214Y-15918500D01*
X11425500Y-15947071D01*
X11425500Y-16104214D01*
X11425500Y-15947071D02*
X11439786Y-15918500D01*
X11468357Y-15904214D01*
X11511214Y-15904214D01*
X11539786Y-15918500D01*
X11554071Y-15947071D01*
X11554071Y-16104214D01*
X11696928Y-16104214D02*
X11696928Y-15904214D01*
X11696928Y-15932786D02*
X11711214Y-15918500D01*
X11739786Y-15904214D01*
X11782643Y-15904214D01*
X11811214Y-15918500D01*
X11825500Y-15947071D01*
X11825500Y-16104214D01*
X11825500Y-15947071D02*
X11839786Y-15918500D01*
X11868357Y-15904214D01*
X11911214Y-15904214D01*
X11939786Y-15918500D01*
X11954071Y-15947071D01*
X11954071Y-16104214D01*
X12539786Y-15789929D02*
X12282643Y-16175643D01*
X12925500Y-15804214D02*
X12954071Y-15804214D01*
X12982643Y-15818500D01*
X12996928Y-15832786D01*
X13011214Y-15861357D01*
X13025500Y-15918500D01*
X13025500Y-15989929D01*
X13011214Y-16047071D01*
X12996928Y-16075643D01*
X12982643Y-16089929D01*
X12954071Y-16104214D01*
X12925500Y-16104214D01*
X12896928Y-16089929D01*
X12882643Y-16075643D01*
X12868357Y-16047071D01*
X12854071Y-15989929D01*
X12854071Y-15918500D01*
X12868357Y-15861357D01*
X12882643Y-15832786D01*
X12896928Y-15818500D01*
X12925500Y-15804214D01*
X13154071Y-16075643D02*
X13168357Y-16089929D01*
X13154071Y-16104214D01*
X13139786Y-16089929D01*
X13154071Y-16075643D01*
X13154071Y-16104214D01*
X13454071Y-16104214D02*
X13282643Y-16104214D01*
X13368357Y-16104214D02*
X13368357Y-15804214D01*
X13339785Y-15847071D01*
X13311214Y-15875643D01*
X13282643Y-15889929D01*
X13739785Y-16104214D02*
X13568357Y-16104214D01*
X13654071Y-16104214D02*
X13654071Y-15804214D01*
X13625500Y-15847071D01*
X13596928Y-15875643D01*
X13568357Y-15889929D01*
X13996928Y-15904214D02*
X13996928Y-16104214D01*
X13925500Y-15789929D02*
X13854071Y-16004214D01*
X14039785Y-16004214D01*
X14139786Y-15804214D02*
X14139786Y-15861357D01*
X14254071Y-15804214D02*
X14254071Y-15861357D01*
X14696928Y-16218500D02*
X14682643Y-16204214D01*
X14654071Y-16161357D01*
X14639785Y-16132786D01*
X14625500Y-16089929D01*
X14611214Y-16018500D01*
X14611214Y-15961357D01*
X14625500Y-15889929D01*
X14639785Y-15847071D01*
X14654071Y-15818500D01*
X14682643Y-15775643D01*
X14696928Y-15761357D01*
X14796928Y-15832786D02*
X14811214Y-15818500D01*
X14839785Y-15804214D01*
X14911214Y-15804214D01*
X14939785Y-15818500D01*
X14954071Y-15832786D01*
X14968357Y-15861357D01*
X14968357Y-15889929D01*
X14954071Y-15932786D01*
X14782643Y-16104214D01*
X14968357Y-16104214D01*
X15325500Y-16104214D02*
X15325500Y-15804214D01*
X15454071Y-16104214D02*
X15454071Y-15947071D01*
X15439785Y-15918500D01*
X15411214Y-15904214D01*
X15368357Y-15904214D01*
X15339785Y-15918500D01*
X15325500Y-15932786D01*
X15639785Y-16104214D02*
X15611214Y-16089929D01*
X15596928Y-16075643D01*
X15582643Y-16047071D01*
X15582643Y-15961357D01*
X15596928Y-15932786D01*
X15611214Y-15918500D01*
X15639785Y-15904214D01*
X15682643Y-15904214D01*
X15711214Y-15918500D01*
X15725500Y-15932786D01*
X15739785Y-15961357D01*
X15739785Y-16047071D01*
X15725500Y-16075643D01*
X15711214Y-16089929D01*
X15682643Y-16104214D01*
X15639785Y-16104214D01*
X15911214Y-16104214D02*
X15882643Y-16089929D01*
X15868357Y-16061357D01*
X15868357Y-15804214D01*
X16139786Y-16089929D02*
X16111214Y-16104214D01*
X16054071Y-16104214D01*
X16025500Y-16089929D01*
X16011214Y-16061357D01*
X16011214Y-15947071D01*
X16025500Y-15918500D01*
X16054071Y-15904214D01*
X16111214Y-15904214D01*
X16139786Y-15918500D01*
X16154071Y-15947071D01*
X16154071Y-15975643D01*
X16011214Y-16004214D01*
X16268357Y-16089929D02*
X16296928Y-16104214D01*
X16354071Y-16104214D01*
X16382643Y-16089929D01*
X16396928Y-16061357D01*
X16396928Y-16047071D01*
X16382643Y-16018500D01*
X16354071Y-16004214D01*
X16311214Y-16004214D01*
X16282643Y-15989929D01*
X16268357Y-15961357D01*
X16268357Y-15947071D01*
X16282643Y-15918500D01*
X16311214Y-15904214D01*
X16354071Y-15904214D01*
X16382643Y-15918500D01*
X16496928Y-16218500D02*
X16511214Y-16204214D01*
X16539786Y-16161357D01*
X16554071Y-16132786D01*
X16568357Y-16089929D01*
X16582643Y-16018500D01*
X16582643Y-15961357D01*
X16568357Y-15889929D01*
X16554071Y-15847071D01*
X16539786Y-15818500D01*
X16511214Y-15775643D01*
X16496928Y-15761357D01*
X17039786Y-16218500D02*
X17025500Y-16204214D01*
X16996928Y-16161357D01*
X16982643Y-16132786D01*
X16968357Y-16089929D01*
X16954071Y-16018500D01*
X16954071Y-15961357D01*
X16968357Y-15889929D01*
X16982643Y-15847071D01*
X16996928Y-15818500D01*
X17025500Y-15775643D01*
X17039786Y-15761357D01*
X17154071Y-15904214D02*
X17154071Y-16104214D01*
X17154071Y-15932786D02*
X17168357Y-15918500D01*
X17196928Y-15904214D01*
X17239786Y-15904214D01*
X17268357Y-15918500D01*
X17282643Y-15947071D01*
X17282643Y-16104214D01*
X17468357Y-16104214D02*
X17439786Y-16089929D01*
X17425500Y-16075643D01*
X17411214Y-16047071D01*
X17411214Y-15961357D01*
X17425500Y-15932786D01*
X17439786Y-15918500D01*
X17468357Y-15904214D01*
X17511214Y-15904214D01*
X17539786Y-15918500D01*
X17554071Y-15932786D01*
X17568357Y-15961357D01*
X17568357Y-16047071D01*
X17554071Y-16075643D01*
X17539786Y-16089929D01*
X17511214Y-16104214D01*
X17468357Y-16104214D01*
X17654071Y-15904214D02*
X17768357Y-15904214D01*
X17696929Y-15804214D02*
X17696929Y-16061357D01*
X17711214Y-16089929D01*
X17739786Y-16104214D01*
X17768357Y-16104214D01*
X18096929Y-15904214D02*
X18096929Y-16204214D01*
X18096929Y-15918500D02*
X18125500Y-15904214D01*
X18182643Y-15904214D01*
X18211214Y-15918500D01*
X18225500Y-15932786D01*
X18239786Y-15961357D01*
X18239786Y-16047071D01*
X18225500Y-16075643D01*
X18211214Y-16089929D01*
X18182643Y-16104214D01*
X18125500Y-16104214D01*
X18096929Y-16089929D01*
X18411214Y-16104214D02*
X18382643Y-16089929D01*
X18368357Y-16061357D01*
X18368357Y-15804214D01*
X18654071Y-16104214D02*
X18654071Y-15947071D01*
X18639786Y-15918500D01*
X18611214Y-15904214D01*
X18554071Y-15904214D01*
X18525500Y-15918500D01*
X18654071Y-16089929D02*
X18625500Y-16104214D01*
X18554071Y-16104214D01*
X18525500Y-16089929D01*
X18511214Y-16061357D01*
X18511214Y-16032786D01*
X18525500Y-16004214D01*
X18554071Y-15989929D01*
X18625500Y-15989929D01*
X18654071Y-15975643D01*
X18754071Y-15904214D02*
X18868357Y-15904214D01*
X18796929Y-15804214D02*
X18796929Y-16061357D01*
X18811214Y-16089929D01*
X18839786Y-16104214D01*
X18868357Y-16104214D01*
X19082643Y-16089929D02*
X19054072Y-16104214D01*
X18996929Y-16104214D01*
X18968357Y-16089929D01*
X18954072Y-16061357D01*
X18954072Y-15947071D01*
X18968357Y-15918500D01*
X18996929Y-15904214D01*
X19054072Y-15904214D01*
X19082643Y-15918500D01*
X19096929Y-15947071D01*
X19096929Y-15975643D01*
X18954072Y-16004214D01*
X19354072Y-16104214D02*
X19354072Y-15804214D01*
X19354072Y-16089929D02*
X19325500Y-16104214D01*
X19268357Y-16104214D01*
X19239786Y-16089929D01*
X19225500Y-16075643D01*
X19211214Y-16047071D01*
X19211214Y-15961357D01*
X19225500Y-15932786D01*
X19239786Y-15918500D01*
X19268357Y-15904214D01*
X19325500Y-15904214D01*
X19354072Y-15918500D01*
X19468357Y-16218500D02*
X19482643Y-16204214D01*
X19511214Y-16161357D01*
X19525500Y-16132786D01*
X19539786Y-16089929D01*
X19554072Y-16018500D01*
X19554072Y-15961357D01*
X19539786Y-15889929D01*
X19525500Y-15847071D01*
X19511214Y-15818500D01*
X19482643Y-15775643D01*
X19468357Y-15761357D01*
M02*
