G04 #@! TF.FileFunction,Soldermask,Top*
%FSLAX46Y46*%
G04 Gerber Fmt 4.6, Leading zero omitted, Abs format (unit mm)*
G04 Created by KiCad (PCBNEW 4.0.7) date 05/04/18 00:13:25*
%MOMM*%
%LPD*%
G01*
G04 APERTURE LIST*
%ADD10C,0.100000*%
%ADD11R,2.200000X2.200000*%
%ADD12C,2.200000*%
%ADD13C,2.000000*%
%ADD14C,3.300000*%
%ADD15R,1.600000X1.600000*%
%ADD16C,1.600000*%
%ADD17C,2.600000*%
%ADD18C,1.750000*%
%ADD19R,2.200000X1.750000*%
%ADD20C,2.400000*%
%ADD21R,2.100000X2.100000*%
%ADD22O,2.100000X2.100000*%
%ADD23O,2.000000X2.000000*%
%ADD24R,1.800000X1.800000*%
%ADD25O,1.800000X1.800000*%
G04 APERTURE END LIST*
D10*
D11*
X144145000Y-113665000D03*
D12*
X144145000Y-116205000D03*
D13*
X127500000Y-143100000D03*
X127500000Y-89900000D03*
D14*
X127500000Y-116500000D03*
D15*
X125095000Y-77470000D03*
D16*
X125095000Y-78970000D03*
D12*
X117475000Y-81915000D03*
X117475000Y-79375000D03*
X117475000Y-76835000D03*
X117475000Y-74295000D03*
X117475000Y-71755000D03*
X117475000Y-69215000D03*
X117475000Y-66675000D03*
X117475000Y-64135000D03*
X117475000Y-61595000D03*
X117475000Y-59055000D03*
X117475000Y-56515000D03*
X117475000Y-53975000D03*
X102235000Y-53975000D03*
X102235000Y-56515000D03*
X102235000Y-59055000D03*
X102235000Y-61595000D03*
X102235000Y-64135000D03*
X102235000Y-66675000D03*
X102235000Y-69215000D03*
X102235000Y-71755000D03*
X102235000Y-74295000D03*
X102235000Y-76835000D03*
X102235000Y-79375000D03*
X102235000Y-81915000D03*
X114935000Y-65405000D03*
X114935000Y-62865000D03*
D11*
X139065000Y-113665000D03*
D12*
X139065000Y-116205000D03*
D17*
X148145500Y-79375000D03*
D18*
X130135000Y-85350000D03*
D19*
X129135000Y-85350000D03*
D18*
X130135000Y-71350000D03*
X130135000Y-73350000D03*
X130135000Y-75350000D03*
X130135000Y-77350000D03*
X130135000Y-79350000D03*
X130135000Y-81350000D03*
X130135000Y-83350000D03*
D19*
X129135000Y-71350000D03*
X129135000Y-73350000D03*
X129135000Y-75350000D03*
X129135000Y-77350000D03*
X129135000Y-79350000D03*
X129135000Y-81350000D03*
X129135000Y-83350000D03*
D20*
X138938000Y-129976000D03*
X138938000Y-125476000D03*
X145438000Y-129976000D03*
X145438000Y-125476000D03*
D21*
X138430000Y-139065000D03*
D22*
X140970000Y-139065000D03*
D21*
X147320000Y-66675000D03*
D22*
X147320000Y-64135000D03*
X147320000Y-61595000D03*
X147320000Y-59055000D03*
D21*
X121920000Y-66675000D03*
D22*
X121920000Y-64135000D03*
X121920000Y-61595000D03*
X121920000Y-59055000D03*
D21*
X138430000Y-141605000D03*
D22*
X140970000Y-141605000D03*
X143510000Y-141605000D03*
X146050000Y-141605000D03*
D13*
X109500000Y-90800000D03*
X109500000Y-143100000D03*
D14*
X109500000Y-116500000D03*
D21*
X144780000Y-106680000D03*
D22*
X144780000Y-109220000D03*
D21*
X139065000Y-106680000D03*
D22*
X139065000Y-109220000D03*
D21*
X137160000Y-66675000D03*
D22*
X137160000Y-64135000D03*
X137160000Y-61595000D03*
X137160000Y-59055000D03*
D21*
X132080000Y-66675000D03*
D22*
X132080000Y-64135000D03*
X132080000Y-61595000D03*
X132080000Y-59055000D03*
D13*
X125095000Y-73660000D03*
D23*
X125095000Y-71120000D03*
D13*
X121285000Y-73660000D03*
D23*
X121285000Y-71120000D03*
D13*
X144145000Y-119380000D03*
D23*
X144145000Y-121920000D03*
D13*
X139065000Y-119380000D03*
D23*
X139065000Y-121920000D03*
D13*
X147955000Y-134620000D03*
D23*
X145415000Y-134620000D03*
D24*
X137795000Y-134620000D03*
D25*
X140095000Y-134620000D03*
X142395000Y-134620000D03*
D13*
X139065000Y-101600000D03*
D23*
X139065000Y-99060000D03*
D13*
X144780000Y-101600000D03*
D23*
X144780000Y-99060000D03*
D21*
X144780000Y-90170000D03*
D22*
X144780000Y-92710000D03*
X144780000Y-95250000D03*
D21*
X139065000Y-90170000D03*
D22*
X139065000Y-92710000D03*
X139065000Y-95250000D03*
M02*
