G04 #@! TF.FileFunction,Copper,L2,Bot,Signal*
%FSLAX46Y46*%
G04 Gerber Fmt 4.6, Leading zero omitted, Abs format (unit mm)*
G04 Created by KiCad (PCBNEW 4.0.7) date 05/04/18 00:13:25*
%MOMM*%
%LPD*%
G01*
G04 APERTURE LIST*
%ADD10C,0.100000*%
%ADD11R,1.800000X1.800000*%
%ADD12C,1.800000*%
%ADD13C,1.600000*%
%ADD14R,1.200000X1.200000*%
%ADD15C,1.200000*%
%ADD16C,1.350000*%
%ADD17C,2.000000*%
%ADD18R,1.700000X1.700000*%
%ADD19O,1.700000X1.700000*%
%ADD20O,1.600000X1.600000*%
%ADD21R,0.970000X1.270000*%
%ADD22R,1.400000X1.400000*%
%ADD23O,1.400000X1.400000*%
%ADD24C,0.600000*%
%ADD25C,0.350000*%
%ADD26C,0.250000*%
%ADD27C,0.254000*%
G04 APERTURE END LIST*
D10*
D11*
X144145000Y-113665000D03*
D12*
X144145000Y-116205000D03*
D13*
X127500000Y-143100000D03*
X127500000Y-89900000D03*
D14*
X125095000Y-77470000D03*
D15*
X125095000Y-78970000D03*
D12*
X117475000Y-81915000D03*
X117475000Y-79375000D03*
X117475000Y-76835000D03*
X117475000Y-74295000D03*
X117475000Y-71755000D03*
X117475000Y-69215000D03*
X117475000Y-66675000D03*
X117475000Y-64135000D03*
X117475000Y-61595000D03*
X117475000Y-59055000D03*
X117475000Y-56515000D03*
X117475000Y-53975000D03*
X102235000Y-53975000D03*
X102235000Y-56515000D03*
X102235000Y-59055000D03*
X102235000Y-61595000D03*
X102235000Y-64135000D03*
X102235000Y-66675000D03*
X102235000Y-69215000D03*
X102235000Y-71755000D03*
X102235000Y-74295000D03*
X102235000Y-76835000D03*
X102235000Y-79375000D03*
X102235000Y-81915000D03*
X114935000Y-65405000D03*
X114935000Y-62865000D03*
D11*
X139065000Y-113665000D03*
D12*
X139065000Y-116205000D03*
D16*
X130135000Y-85350000D03*
X130135000Y-71350000D03*
X130135000Y-73350000D03*
X130135000Y-75350000D03*
X130135000Y-77350000D03*
X130135000Y-79350000D03*
X130135000Y-81350000D03*
X130135000Y-83350000D03*
D17*
X138938000Y-129976000D03*
X138938000Y-125476000D03*
X145438000Y-129976000D03*
X145438000Y-125476000D03*
D18*
X138430000Y-139065000D03*
D19*
X140970000Y-139065000D03*
D18*
X147320000Y-66675000D03*
D19*
X147320000Y-64135000D03*
X147320000Y-61595000D03*
X147320000Y-59055000D03*
D18*
X121920000Y-66675000D03*
D19*
X121920000Y-64135000D03*
X121920000Y-61595000D03*
X121920000Y-59055000D03*
D18*
X138430000Y-141605000D03*
D19*
X140970000Y-141605000D03*
X143510000Y-141605000D03*
X146050000Y-141605000D03*
D13*
X109500000Y-90800000D03*
X109500000Y-143100000D03*
D18*
X144780000Y-106680000D03*
D19*
X144780000Y-109220000D03*
D18*
X139065000Y-106680000D03*
D19*
X139065000Y-109220000D03*
D18*
X137160000Y-66675000D03*
D19*
X137160000Y-64135000D03*
X137160000Y-61595000D03*
X137160000Y-59055000D03*
D18*
X132080000Y-66675000D03*
D19*
X132080000Y-64135000D03*
X132080000Y-61595000D03*
X132080000Y-59055000D03*
D13*
X125095000Y-73660000D03*
D20*
X125095000Y-71120000D03*
D13*
X121285000Y-73660000D03*
D20*
X121285000Y-71120000D03*
D13*
X144145000Y-119380000D03*
D20*
X144145000Y-121920000D03*
D13*
X139065000Y-119380000D03*
D20*
X139065000Y-121920000D03*
D13*
X147955000Y-134620000D03*
D20*
X145415000Y-134620000D03*
D21*
X145420000Y-138430000D03*
X144140000Y-138430000D03*
D22*
X137795000Y-134620000D03*
D23*
X140095000Y-134620000D03*
X142395000Y-134620000D03*
D13*
X139065000Y-101600000D03*
D20*
X139065000Y-99060000D03*
D13*
X144780000Y-101600000D03*
D20*
X144780000Y-99060000D03*
D18*
X144780000Y-90170000D03*
D19*
X144780000Y-92710000D03*
X144780000Y-95250000D03*
D18*
X139065000Y-90170000D03*
D19*
X139065000Y-92710000D03*
X139065000Y-95250000D03*
D24*
X104140000Y-79375000D03*
X113030000Y-80645000D03*
X116205000Y-80645000D03*
D25*
X125095000Y-73660000D02*
X125095000Y-77470000D01*
D26*
X104140000Y-79375000D02*
X102870000Y-78105000D01*
X100965000Y-70485000D02*
X102235000Y-69215000D01*
X100965000Y-77470000D02*
X100965000Y-70485000D01*
X101600000Y-78105000D02*
X100965000Y-77470000D01*
X102870000Y-78105000D02*
X101600000Y-78105000D01*
X116205000Y-80645000D02*
X113030000Y-80645000D01*
X121920000Y-61595000D02*
X125095000Y-64770000D01*
X125095000Y-64770000D02*
X125095000Y-71120000D01*
X134620000Y-140335000D02*
X135890000Y-141605000D01*
X130135000Y-75525000D02*
X133985000Y-79375000D01*
X133985000Y-79375000D02*
X133985000Y-121920000D01*
X133985000Y-121920000D02*
X133985000Y-122555000D01*
X133985000Y-139700000D02*
X134620000Y-140335000D01*
X133985000Y-122555000D02*
X133985000Y-139700000D01*
X135890000Y-141605000D02*
X138430000Y-141605000D01*
X130135000Y-75525000D02*
X130135000Y-75350000D01*
X139065000Y-142875000D02*
X139700000Y-142875000D01*
X139700000Y-142875000D02*
X140970000Y-141605000D01*
X133985000Y-140970000D02*
X135890000Y-142875000D01*
X133350000Y-80010000D02*
X130690000Y-77350000D01*
X133350000Y-123190000D02*
X133350000Y-80010000D01*
X133350000Y-140335000D02*
X133985000Y-140970000D01*
X133350000Y-123190000D02*
X133350000Y-140335000D01*
X135890000Y-142875000D02*
X139065000Y-142875000D01*
X130690000Y-77350000D02*
X130135000Y-77350000D01*
X135255000Y-143510000D02*
X141605000Y-143510000D01*
X141605000Y-143510000D02*
X143510000Y-141605000D01*
X132715000Y-123825000D02*
X132715000Y-140970000D01*
X132715000Y-140970000D02*
X135255000Y-143510000D01*
X132715000Y-80645000D02*
X132715000Y-123825000D01*
X131420000Y-79350000D02*
X130135000Y-79350000D01*
X132715000Y-80645000D02*
X131420000Y-79350000D01*
X130785000Y-79350000D02*
X130135000Y-79350000D01*
X130135000Y-79350000D02*
X130150000Y-79350000D01*
D25*
X109500000Y-143100000D02*
X127500000Y-143100000D01*
X140970000Y-139065000D02*
X141605000Y-139065000D01*
X141605000Y-139065000D02*
X142240000Y-138430000D01*
X142240000Y-138430000D02*
X143510000Y-138430000D01*
X144140000Y-138430000D02*
X143510000Y-138430000D01*
X140095000Y-134620000D02*
X140095000Y-138190000D01*
X140095000Y-138190000D02*
X140970000Y-139065000D01*
D27*
G36*
X149433979Y-50930478D02*
X149611145Y-51048856D01*
X149729521Y-51226019D01*
X149785000Y-51504931D01*
X149785000Y-78799545D01*
X149617219Y-78393485D01*
X149129582Y-77904996D01*
X148492127Y-77640301D01*
X147801901Y-77639699D01*
X147163985Y-77903281D01*
X146675496Y-78390918D01*
X146410801Y-79028373D01*
X146410199Y-79718599D01*
X146673781Y-80356515D01*
X147161418Y-80845004D01*
X147798873Y-81109699D01*
X148489099Y-81110301D01*
X149127015Y-80846719D01*
X149615504Y-80359082D01*
X149785000Y-79950891D01*
X149785000Y-144710069D01*
X149729521Y-144988981D01*
X149611145Y-145166144D01*
X149433979Y-145284522D01*
X149155070Y-145340000D01*
X101669931Y-145340000D01*
X101391019Y-145284521D01*
X101213856Y-145166145D01*
X101095478Y-144988979D01*
X101040000Y-144710070D01*
X101040000Y-143384187D01*
X108064752Y-143384187D01*
X108282757Y-143911800D01*
X108686077Y-144315824D01*
X109213309Y-144534750D01*
X109784187Y-144535248D01*
X110311800Y-144317243D01*
X110715824Y-143913923D01*
X110717453Y-143910000D01*
X126282013Y-143910000D01*
X126282757Y-143911800D01*
X126686077Y-144315824D01*
X127213309Y-144534750D01*
X127784187Y-144535248D01*
X128311800Y-144317243D01*
X128715824Y-143913923D01*
X128934750Y-143386691D01*
X128935248Y-142815813D01*
X128717243Y-142288200D01*
X128313923Y-141884176D01*
X127786691Y-141665250D01*
X127215813Y-141664752D01*
X126688200Y-141882757D01*
X126284176Y-142286077D01*
X126282547Y-142290000D01*
X110717987Y-142290000D01*
X110717243Y-142288200D01*
X110313923Y-141884176D01*
X109786691Y-141665250D01*
X109215813Y-141664752D01*
X108688200Y-141882757D01*
X108284176Y-142286077D01*
X108065250Y-142813309D01*
X108064752Y-143384187D01*
X101040000Y-143384187D01*
X101040000Y-116912913D01*
X107414638Y-116912913D01*
X107731392Y-117679515D01*
X108317400Y-118266547D01*
X109083448Y-118584638D01*
X109912913Y-118585362D01*
X110679515Y-118268608D01*
X111266547Y-117682600D01*
X111584638Y-116916552D01*
X111584641Y-116912913D01*
X125414638Y-116912913D01*
X125731392Y-117679515D01*
X126317400Y-118266547D01*
X127083448Y-118584638D01*
X127912913Y-118585362D01*
X128679515Y-118268608D01*
X129266547Y-117682600D01*
X129584638Y-116916552D01*
X129585362Y-116087087D01*
X129268608Y-115320485D01*
X128682600Y-114733453D01*
X127916552Y-114415362D01*
X127087087Y-114414638D01*
X126320485Y-114731392D01*
X125733453Y-115317400D01*
X125415362Y-116083448D01*
X125414638Y-116912913D01*
X111584641Y-116912913D01*
X111585362Y-116087087D01*
X111268608Y-115320485D01*
X110682600Y-114733453D01*
X109916552Y-114415362D01*
X109087087Y-114414638D01*
X108320485Y-114731392D01*
X107733453Y-115317400D01*
X107415362Y-116083448D01*
X107414638Y-116912913D01*
X101040000Y-116912913D01*
X101040000Y-91084187D01*
X108064752Y-91084187D01*
X108282757Y-91611800D01*
X108686077Y-92015824D01*
X109213309Y-92234750D01*
X109784187Y-92235248D01*
X110311800Y-92017243D01*
X110715824Y-91613923D01*
X110934750Y-91086691D01*
X110935248Y-90515813D01*
X110798224Y-90184187D01*
X126064752Y-90184187D01*
X126282757Y-90711800D01*
X126686077Y-91115824D01*
X127213309Y-91334750D01*
X127784187Y-91335248D01*
X128311800Y-91117243D01*
X128715824Y-90713923D01*
X128934750Y-90186691D01*
X128935248Y-89615813D01*
X128717243Y-89088200D01*
X128313923Y-88684176D01*
X127786691Y-88465250D01*
X127215813Y-88464752D01*
X126688200Y-88682757D01*
X126284176Y-89086077D01*
X126065250Y-89613309D01*
X126064752Y-90184187D01*
X110798224Y-90184187D01*
X110717243Y-89988200D01*
X110313923Y-89584176D01*
X109786691Y-89365250D01*
X109215813Y-89364752D01*
X108688200Y-89582757D01*
X108284176Y-89986077D01*
X108065250Y-90513309D01*
X108064752Y-91084187D01*
X101040000Y-91084187D01*
X101040000Y-82890626D01*
X101364357Y-83215551D01*
X101928330Y-83449733D01*
X102538991Y-83450265D01*
X103103371Y-83217068D01*
X103535551Y-82785643D01*
X103769733Y-82221670D01*
X103770265Y-81611009D01*
X103537068Y-81046629D01*
X103320985Y-80830167D01*
X112094838Y-80830167D01*
X112236883Y-81173943D01*
X112499673Y-81437192D01*
X112843201Y-81579838D01*
X113215167Y-81580162D01*
X113558943Y-81438117D01*
X113592118Y-81405000D01*
X115642537Y-81405000D01*
X115674673Y-81437192D01*
X115961819Y-81556426D01*
X115940267Y-81608330D01*
X115939735Y-82218991D01*
X116172932Y-82783371D01*
X116604357Y-83215551D01*
X117168330Y-83449733D01*
X117778991Y-83450265D01*
X118343371Y-83217068D01*
X118775551Y-82785643D01*
X119009733Y-82221670D01*
X119010265Y-81611009D01*
X118777068Y-81046629D01*
X118375818Y-80644677D01*
X118775551Y-80245643D01*
X118947005Y-79832735D01*
X124411870Y-79832735D01*
X124461383Y-80058164D01*
X124926036Y-80217807D01*
X125416413Y-80187482D01*
X125728617Y-80058164D01*
X125778130Y-79832735D01*
X125095000Y-79149605D01*
X124411870Y-79832735D01*
X118947005Y-79832735D01*
X119009733Y-79681670D01*
X119010265Y-79071009D01*
X118777068Y-78506629D01*
X118375818Y-78104677D01*
X118775551Y-77705643D01*
X119009733Y-77141670D01*
X119010265Y-76531009D01*
X118777068Y-75966629D01*
X118375818Y-75564677D01*
X118775551Y-75165643D01*
X119009733Y-74601670D01*
X119010265Y-73991009D01*
X118990919Y-73944187D01*
X119849752Y-73944187D01*
X120067757Y-74471800D01*
X120471077Y-74875824D01*
X120998309Y-75094750D01*
X121569187Y-75095248D01*
X122096800Y-74877243D01*
X122500824Y-74473923D01*
X122719750Y-73946691D01*
X122720248Y-73375813D01*
X122502243Y-72848200D01*
X122098923Y-72444176D01*
X121963046Y-72387755D01*
X122299698Y-72162811D01*
X122610767Y-71697264D01*
X122720000Y-71148113D01*
X122720000Y-71091887D01*
X122610767Y-70542736D01*
X122299698Y-70077189D01*
X121834151Y-69766120D01*
X121285000Y-69656887D01*
X120735849Y-69766120D01*
X120270302Y-70077189D01*
X119959233Y-70542736D01*
X119850000Y-71091887D01*
X119850000Y-71148113D01*
X119959233Y-71697264D01*
X120270302Y-72162811D01*
X120606710Y-72387592D01*
X120473200Y-72442757D01*
X120069176Y-72846077D01*
X119850250Y-73373309D01*
X119849752Y-73944187D01*
X118990919Y-73944187D01*
X118777068Y-73426629D01*
X118375818Y-73024677D01*
X118775551Y-72625643D01*
X119009733Y-72061670D01*
X119010265Y-71451009D01*
X118777068Y-70886629D01*
X118375818Y-70484677D01*
X118775551Y-70085643D01*
X119009733Y-69521670D01*
X119010265Y-68911009D01*
X118777068Y-68346629D01*
X118375818Y-67944677D01*
X118775551Y-67545643D01*
X119009733Y-66981670D01*
X119010265Y-66371009D01*
X118777068Y-65806629D01*
X118375818Y-65404677D01*
X118775551Y-65005643D01*
X119009733Y-64441670D01*
X119010265Y-63831009D01*
X118777068Y-63266629D01*
X118375818Y-62864677D01*
X118775551Y-62465643D01*
X119009733Y-61901670D01*
X119010265Y-61291009D01*
X118777068Y-60726629D01*
X118375818Y-60324677D01*
X118775551Y-59925643D01*
X119009733Y-59361670D01*
X119010000Y-59055000D01*
X120405907Y-59055000D01*
X120518946Y-59623285D01*
X120840853Y-60105054D01*
X121170026Y-60325000D01*
X120840853Y-60544946D01*
X120518946Y-61026715D01*
X120405907Y-61595000D01*
X120518946Y-62163285D01*
X120840853Y-62645054D01*
X121181553Y-62872702D01*
X121038642Y-62939817D01*
X120648355Y-63368076D01*
X120478524Y-63778110D01*
X120599845Y-64008000D01*
X121793000Y-64008000D01*
X121793000Y-63988000D01*
X122047000Y-63988000D01*
X122047000Y-64008000D01*
X122067000Y-64008000D01*
X122067000Y-64262000D01*
X122047000Y-64262000D01*
X122047000Y-64282000D01*
X121793000Y-64282000D01*
X121793000Y-64262000D01*
X120599845Y-64262000D01*
X120478524Y-64491890D01*
X120648355Y-64901924D01*
X120924501Y-65204937D01*
X120834683Y-65221838D01*
X120618559Y-65360910D01*
X120473569Y-65573110D01*
X120422560Y-65825000D01*
X120422560Y-67525000D01*
X120466838Y-67760317D01*
X120605910Y-67976441D01*
X120818110Y-68121431D01*
X121070000Y-68172440D01*
X122770000Y-68172440D01*
X123005317Y-68128162D01*
X123221441Y-67989090D01*
X123366431Y-67776890D01*
X123417440Y-67525000D01*
X123417440Y-65825000D01*
X123373162Y-65589683D01*
X123234090Y-65373559D01*
X123021890Y-65228569D01*
X122913893Y-65206699D01*
X123191645Y-64901924D01*
X123361476Y-64491890D01*
X123240156Y-64262002D01*
X123405000Y-64262002D01*
X123405000Y-64154802D01*
X124335000Y-65084802D01*
X124335000Y-69907005D01*
X124080302Y-70077189D01*
X123769233Y-70542736D01*
X123660000Y-71091887D01*
X123660000Y-71148113D01*
X123769233Y-71697264D01*
X124080302Y-72162811D01*
X124416710Y-72387592D01*
X124283200Y-72442757D01*
X123879176Y-72846077D01*
X123660250Y-73373309D01*
X123659752Y-73944187D01*
X123877757Y-74471800D01*
X124281077Y-74875824D01*
X124285000Y-74877453D01*
X124285000Y-76262074D01*
X124259683Y-76266838D01*
X124043559Y-76405910D01*
X123898569Y-76618110D01*
X123847560Y-76870000D01*
X123847560Y-78070000D01*
X123891838Y-78305317D01*
X123973766Y-78432636D01*
X123847193Y-78801036D01*
X123877518Y-79291413D01*
X124006836Y-79603617D01*
X124232265Y-79653130D01*
X124915395Y-78970000D01*
X124901253Y-78955858D01*
X125080858Y-78776253D01*
X125095000Y-78790395D01*
X125109143Y-78776253D01*
X125288748Y-78955858D01*
X125274605Y-78970000D01*
X125957735Y-79653130D01*
X126183164Y-79603617D01*
X126342807Y-79138964D01*
X126312482Y-78648587D01*
X126220289Y-78426010D01*
X126291431Y-78321890D01*
X126342440Y-78070000D01*
X126342440Y-76870000D01*
X126298162Y-76634683D01*
X126159090Y-76418559D01*
X125946890Y-76273569D01*
X125905000Y-76265086D01*
X125905000Y-75609432D01*
X128824774Y-75609432D01*
X129023789Y-76091086D01*
X129282380Y-76350129D01*
X129025084Y-76606976D01*
X128825228Y-77088282D01*
X128824774Y-77609432D01*
X129023789Y-78091086D01*
X129282380Y-78350129D01*
X129025084Y-78606976D01*
X128825228Y-79088282D01*
X128824774Y-79609432D01*
X129023789Y-80091086D01*
X129282380Y-80350129D01*
X129025084Y-80606976D01*
X128825228Y-81088282D01*
X128824774Y-81609432D01*
X129023789Y-82091086D01*
X129282380Y-82350129D01*
X129025084Y-82606976D01*
X128825228Y-83088282D01*
X128824774Y-83609432D01*
X129023789Y-84091086D01*
X129282380Y-84350129D01*
X129025084Y-84606976D01*
X128825228Y-85088282D01*
X128824774Y-85609432D01*
X129023789Y-86091086D01*
X129391976Y-86459916D01*
X129873282Y-86659772D01*
X130394432Y-86660226D01*
X130876086Y-86461211D01*
X131244916Y-86093024D01*
X131444772Y-85611718D01*
X131445226Y-85090568D01*
X131246211Y-84608914D01*
X130987620Y-84349871D01*
X131244916Y-84093024D01*
X131444772Y-83611718D01*
X131445226Y-83090568D01*
X131246211Y-82608914D01*
X130987620Y-82349871D01*
X131244916Y-82093024D01*
X131444772Y-81611718D01*
X131445226Y-81090568D01*
X131246211Y-80608914D01*
X130987620Y-80349871D01*
X131166501Y-80171303D01*
X131955000Y-80959802D01*
X131955000Y-140970000D01*
X132012852Y-141260839D01*
X132177599Y-141507401D01*
X134717599Y-144047401D01*
X134964160Y-144212148D01*
X135012414Y-144221746D01*
X135255000Y-144270000D01*
X141605000Y-144270000D01*
X141895839Y-144212148D01*
X142142401Y-144047401D01*
X143143592Y-143046210D01*
X143510000Y-143119093D01*
X144078285Y-143006054D01*
X144560054Y-142684147D01*
X144780000Y-142354974D01*
X144999946Y-142684147D01*
X145481715Y-143006054D01*
X146050000Y-143119093D01*
X146618285Y-143006054D01*
X147100054Y-142684147D01*
X147421961Y-142202378D01*
X147535000Y-141634093D01*
X147535000Y-141575907D01*
X147421961Y-141007622D01*
X147100054Y-140525853D01*
X146618285Y-140203946D01*
X146050000Y-140090907D01*
X145481715Y-140203946D01*
X144999946Y-140525853D01*
X144780000Y-140855026D01*
X144560054Y-140525853D01*
X144078285Y-140203946D01*
X143510000Y-140090907D01*
X142941715Y-140203946D01*
X142459946Y-140525853D01*
X142240000Y-140855026D01*
X142020054Y-140525853D01*
X141734422Y-140335000D01*
X142020054Y-140144147D01*
X142341961Y-139662378D01*
X142388847Y-139426665D01*
X142575513Y-139240000D01*
X143040489Y-139240000D01*
X143051838Y-139300317D01*
X143190910Y-139516441D01*
X143403110Y-139661431D01*
X143655000Y-139712440D01*
X144625000Y-139712440D01*
X144771963Y-139684787D01*
X144808690Y-139700000D01*
X145134250Y-139700000D01*
X145293000Y-139541250D01*
X145293000Y-138557000D01*
X145547000Y-138557000D01*
X145547000Y-139541250D01*
X145705750Y-139700000D01*
X146031310Y-139700000D01*
X146264699Y-139603327D01*
X146443327Y-139424698D01*
X146540000Y-139191309D01*
X146540000Y-138715750D01*
X146381250Y-138557000D01*
X145547000Y-138557000D01*
X145293000Y-138557000D01*
X145273000Y-138557000D01*
X145273000Y-138303000D01*
X145293000Y-138303000D01*
X145293000Y-137318750D01*
X145547000Y-137318750D01*
X145547000Y-138303000D01*
X146381250Y-138303000D01*
X146540000Y-138144250D01*
X146540000Y-137668691D01*
X146443327Y-137435302D01*
X146264699Y-137256673D01*
X146031310Y-137160000D01*
X145705750Y-137160000D01*
X145547000Y-137318750D01*
X145293000Y-137318750D01*
X145134250Y-137160000D01*
X144808690Y-137160000D01*
X144768545Y-137176629D01*
X144625000Y-137147560D01*
X143655000Y-137147560D01*
X143419683Y-137191838D01*
X143203559Y-137330910D01*
X143058569Y-137543110D01*
X143042998Y-137620000D01*
X142240000Y-137620000D01*
X141930027Y-137681657D01*
X141747409Y-137803678D01*
X141538285Y-137663946D01*
X140970000Y-137550907D01*
X140905000Y-137563836D01*
X140905000Y-135670991D01*
X141065142Y-135563988D01*
X141244209Y-135295995D01*
X141245203Y-135298396D01*
X141592337Y-135686764D01*
X142061669Y-135912727D01*
X142268000Y-135790206D01*
X142268000Y-134747000D01*
X142522000Y-134747000D01*
X142522000Y-135790206D01*
X142728331Y-135912727D01*
X143197663Y-135686764D01*
X143544797Y-135298396D01*
X143687716Y-134953329D01*
X143564374Y-134747000D01*
X142522000Y-134747000D01*
X142268000Y-134747000D01*
X142248000Y-134747000D01*
X142248000Y-134620000D01*
X143951887Y-134620000D01*
X144061120Y-135169151D01*
X144372189Y-135634698D01*
X144837736Y-135945767D01*
X145386887Y-136055000D01*
X145443113Y-136055000D01*
X145992264Y-135945767D01*
X146457811Y-135634698D01*
X146682592Y-135298290D01*
X146737757Y-135431800D01*
X147141077Y-135835824D01*
X147668309Y-136054750D01*
X148239187Y-136055248D01*
X148766800Y-135837243D01*
X149170824Y-135433923D01*
X149389750Y-134906691D01*
X149390248Y-134335813D01*
X149172243Y-133808200D01*
X148768923Y-133404176D01*
X148241691Y-133185250D01*
X147670813Y-133184752D01*
X147143200Y-133402757D01*
X146739176Y-133806077D01*
X146682755Y-133941954D01*
X146457811Y-133605302D01*
X145992264Y-133294233D01*
X145443113Y-133185000D01*
X145386887Y-133185000D01*
X144837736Y-133294233D01*
X144372189Y-133605302D01*
X144061120Y-134070849D01*
X143951887Y-134620000D01*
X142248000Y-134620000D01*
X142248000Y-134493000D01*
X142268000Y-134493000D01*
X142268000Y-133449794D01*
X142522000Y-133449794D01*
X142522000Y-134493000D01*
X143564374Y-134493000D01*
X143687716Y-134286671D01*
X143544797Y-133941604D01*
X143197663Y-133553236D01*
X142728331Y-133327273D01*
X142522000Y-133449794D01*
X142268000Y-133449794D01*
X142061669Y-133327273D01*
X141592337Y-133553236D01*
X141245203Y-133941604D01*
X141244209Y-133944005D01*
X141065142Y-133676012D01*
X140632036Y-133386621D01*
X140121154Y-133285000D01*
X140068846Y-133285000D01*
X139557964Y-133386621D01*
X139124858Y-133676012D01*
X139102755Y-133709092D01*
X139098162Y-133684683D01*
X138959090Y-133468559D01*
X138746890Y-133323569D01*
X138495000Y-133272560D01*
X137095000Y-133272560D01*
X136859683Y-133316838D01*
X136643559Y-133455910D01*
X136498569Y-133668110D01*
X136447560Y-133920000D01*
X136447560Y-135320000D01*
X136491838Y-135555317D01*
X136630910Y-135771441D01*
X136843110Y-135916431D01*
X137095000Y-135967440D01*
X138495000Y-135967440D01*
X138730317Y-135923162D01*
X138946441Y-135784090D01*
X139091431Y-135571890D01*
X139100434Y-135527434D01*
X139124858Y-135563988D01*
X139285000Y-135670991D01*
X139285000Y-137568573D01*
X139280000Y-137567560D01*
X137580000Y-137567560D01*
X137344683Y-137611838D01*
X137128559Y-137750910D01*
X136983569Y-137963110D01*
X136932560Y-138215000D01*
X136932560Y-139915000D01*
X136976838Y-140150317D01*
X137097015Y-140337077D01*
X136983569Y-140503110D01*
X136932560Y-140755000D01*
X136932560Y-140845000D01*
X136204802Y-140845000D01*
X134745000Y-139385198D01*
X134745000Y-131128532D01*
X137965073Y-131128532D01*
X138063736Y-131395387D01*
X138673461Y-131621908D01*
X139323460Y-131597856D01*
X139812264Y-131395387D01*
X139910927Y-131128532D01*
X144465073Y-131128532D01*
X144563736Y-131395387D01*
X145173461Y-131621908D01*
X145823460Y-131597856D01*
X146312264Y-131395387D01*
X146410927Y-131128532D01*
X145438000Y-130155605D01*
X144465073Y-131128532D01*
X139910927Y-131128532D01*
X138938000Y-130155605D01*
X137965073Y-131128532D01*
X134745000Y-131128532D01*
X134745000Y-129711461D01*
X137292092Y-129711461D01*
X137316144Y-130361460D01*
X137518613Y-130850264D01*
X137785468Y-130948927D01*
X138758395Y-129976000D01*
X139117605Y-129976000D01*
X140090532Y-130948927D01*
X140357387Y-130850264D01*
X140583908Y-130240539D01*
X140564331Y-129711461D01*
X143792092Y-129711461D01*
X143816144Y-130361460D01*
X144018613Y-130850264D01*
X144285468Y-130948927D01*
X145258395Y-129976000D01*
X145617605Y-129976000D01*
X146590532Y-130948927D01*
X146857387Y-130850264D01*
X147083908Y-130240539D01*
X147059856Y-129590540D01*
X146857387Y-129101736D01*
X146590532Y-129003073D01*
X145617605Y-129976000D01*
X145258395Y-129976000D01*
X144285468Y-129003073D01*
X144018613Y-129101736D01*
X143792092Y-129711461D01*
X140564331Y-129711461D01*
X140559856Y-129590540D01*
X140357387Y-129101736D01*
X140090532Y-129003073D01*
X139117605Y-129976000D01*
X138758395Y-129976000D01*
X137785468Y-129003073D01*
X137518613Y-129101736D01*
X137292092Y-129711461D01*
X134745000Y-129711461D01*
X134745000Y-128823468D01*
X137965073Y-128823468D01*
X138938000Y-129796395D01*
X139910927Y-128823468D01*
X144465073Y-128823468D01*
X145438000Y-129796395D01*
X146410927Y-128823468D01*
X146312264Y-128556613D01*
X145702539Y-128330092D01*
X145052540Y-128354144D01*
X144563736Y-128556613D01*
X144465073Y-128823468D01*
X139910927Y-128823468D01*
X139812264Y-128556613D01*
X139202539Y-128330092D01*
X138552540Y-128354144D01*
X138063736Y-128556613D01*
X137965073Y-128823468D01*
X134745000Y-128823468D01*
X134745000Y-125799795D01*
X137302716Y-125799795D01*
X137551106Y-126400943D01*
X138010637Y-126861278D01*
X138611352Y-127110716D01*
X139261795Y-127111284D01*
X139862943Y-126862894D01*
X140323278Y-126403363D01*
X140572716Y-125802648D01*
X140572718Y-125799795D01*
X143802716Y-125799795D01*
X144051106Y-126400943D01*
X144510637Y-126861278D01*
X145111352Y-127110716D01*
X145761795Y-127111284D01*
X146362943Y-126862894D01*
X146823278Y-126403363D01*
X147072716Y-125802648D01*
X147073284Y-125152205D01*
X146824894Y-124551057D01*
X146365363Y-124090722D01*
X145764648Y-123841284D01*
X145114205Y-123840716D01*
X144513057Y-124089106D01*
X144052722Y-124548637D01*
X143803284Y-125149352D01*
X143802716Y-125799795D01*
X140572718Y-125799795D01*
X140573284Y-125152205D01*
X140324894Y-124551057D01*
X139865363Y-124090722D01*
X139264648Y-123841284D01*
X138614205Y-123840716D01*
X138013057Y-124089106D01*
X137552722Y-124548637D01*
X137303284Y-125149352D01*
X137302716Y-125799795D01*
X134745000Y-125799795D01*
X134745000Y-119664187D01*
X137629752Y-119664187D01*
X137847757Y-120191800D01*
X138251077Y-120595824D01*
X138386954Y-120652245D01*
X138050302Y-120877189D01*
X137739233Y-121342736D01*
X137630000Y-121891887D01*
X137630000Y-121948113D01*
X137739233Y-122497264D01*
X138050302Y-122962811D01*
X138515849Y-123273880D01*
X139065000Y-123383113D01*
X139614151Y-123273880D01*
X140079698Y-122962811D01*
X140390767Y-122497264D01*
X140500000Y-121948113D01*
X140500000Y-121891887D01*
X140390767Y-121342736D01*
X140079698Y-120877189D01*
X139743290Y-120652408D01*
X139876800Y-120597243D01*
X140280824Y-120193923D01*
X140499750Y-119666691D01*
X140499752Y-119664187D01*
X142709752Y-119664187D01*
X142927757Y-120191800D01*
X143331077Y-120595824D01*
X143466954Y-120652245D01*
X143130302Y-120877189D01*
X142819233Y-121342736D01*
X142710000Y-121891887D01*
X142710000Y-121948113D01*
X142819233Y-122497264D01*
X143130302Y-122962811D01*
X143595849Y-123273880D01*
X144145000Y-123383113D01*
X144694151Y-123273880D01*
X145159698Y-122962811D01*
X145470767Y-122497264D01*
X145580000Y-121948113D01*
X145580000Y-121891887D01*
X145470767Y-121342736D01*
X145159698Y-120877189D01*
X144823290Y-120652408D01*
X144956800Y-120597243D01*
X145360824Y-120193923D01*
X145579750Y-119666691D01*
X145580248Y-119095813D01*
X145362243Y-118568200D01*
X144958923Y-118164176D01*
X144431691Y-117945250D01*
X143860813Y-117944752D01*
X143333200Y-118162757D01*
X142929176Y-118566077D01*
X142710250Y-119093309D01*
X142709752Y-119664187D01*
X140499752Y-119664187D01*
X140500248Y-119095813D01*
X140282243Y-118568200D01*
X139878923Y-118164176D01*
X139351691Y-117945250D01*
X138780813Y-117944752D01*
X138253200Y-118162757D01*
X137849176Y-118566077D01*
X137630250Y-119093309D01*
X137629752Y-119664187D01*
X134745000Y-119664187D01*
X134745000Y-116508991D01*
X137529735Y-116508991D01*
X137762932Y-117073371D01*
X138194357Y-117505551D01*
X138758330Y-117739733D01*
X139368991Y-117740265D01*
X139933371Y-117507068D01*
X140365551Y-117075643D01*
X140599733Y-116511670D01*
X140599735Y-116508991D01*
X142609735Y-116508991D01*
X142842932Y-117073371D01*
X143274357Y-117505551D01*
X143838330Y-117739733D01*
X144448991Y-117740265D01*
X145013371Y-117507068D01*
X145445551Y-117075643D01*
X145679733Y-116511670D01*
X145680265Y-115901009D01*
X145447068Y-115336629D01*
X145269908Y-115159159D01*
X145404699Y-115103327D01*
X145583327Y-114924698D01*
X145680000Y-114691309D01*
X145680000Y-113950750D01*
X145521250Y-113792000D01*
X144272000Y-113792000D01*
X144272000Y-113812000D01*
X144018000Y-113812000D01*
X144018000Y-113792000D01*
X142768750Y-113792000D01*
X142610000Y-113950750D01*
X142610000Y-114691309D01*
X142706673Y-114924698D01*
X142885301Y-115103327D01*
X143019994Y-115159119D01*
X142844449Y-115334357D01*
X142610267Y-115898330D01*
X142609735Y-116508991D01*
X140599735Y-116508991D01*
X140600265Y-115901009D01*
X140367068Y-115336629D01*
X140189908Y-115159159D01*
X140324699Y-115103327D01*
X140503327Y-114924698D01*
X140600000Y-114691309D01*
X140600000Y-113950750D01*
X140441250Y-113792000D01*
X139192000Y-113792000D01*
X139192000Y-113812000D01*
X138938000Y-113812000D01*
X138938000Y-113792000D01*
X137688750Y-113792000D01*
X137530000Y-113950750D01*
X137530000Y-114691309D01*
X137626673Y-114924698D01*
X137805301Y-115103327D01*
X137939994Y-115159119D01*
X137764449Y-115334357D01*
X137530267Y-115898330D01*
X137529735Y-116508991D01*
X134745000Y-116508991D01*
X134745000Y-112638691D01*
X137530000Y-112638691D01*
X137530000Y-113379250D01*
X137688750Y-113538000D01*
X138938000Y-113538000D01*
X138938000Y-112288750D01*
X139192000Y-112288750D01*
X139192000Y-113538000D01*
X140441250Y-113538000D01*
X140600000Y-113379250D01*
X140600000Y-112638691D01*
X142610000Y-112638691D01*
X142610000Y-113379250D01*
X142768750Y-113538000D01*
X144018000Y-113538000D01*
X144018000Y-112288750D01*
X144272000Y-112288750D01*
X144272000Y-113538000D01*
X145521250Y-113538000D01*
X145680000Y-113379250D01*
X145680000Y-112638691D01*
X145583327Y-112405302D01*
X145404699Y-112226673D01*
X145171310Y-112130000D01*
X144430750Y-112130000D01*
X144272000Y-112288750D01*
X144018000Y-112288750D01*
X143859250Y-112130000D01*
X143118690Y-112130000D01*
X142885301Y-112226673D01*
X142706673Y-112405302D01*
X142610000Y-112638691D01*
X140600000Y-112638691D01*
X140503327Y-112405302D01*
X140324699Y-112226673D01*
X140091310Y-112130000D01*
X139350750Y-112130000D01*
X139192000Y-112288750D01*
X138938000Y-112288750D01*
X138779250Y-112130000D01*
X138038690Y-112130000D01*
X137805301Y-112226673D01*
X137626673Y-112405302D01*
X137530000Y-112638691D01*
X134745000Y-112638691D01*
X134745000Y-109576890D01*
X137623524Y-109576890D01*
X137793355Y-109986924D01*
X138183642Y-110415183D01*
X138708108Y-110661486D01*
X138938000Y-110540819D01*
X138938000Y-109347000D01*
X139192000Y-109347000D01*
X139192000Y-110540819D01*
X139421892Y-110661486D01*
X139946358Y-110415183D01*
X140336645Y-109986924D01*
X140506476Y-109576890D01*
X143338524Y-109576890D01*
X143508355Y-109986924D01*
X143898642Y-110415183D01*
X144423108Y-110661486D01*
X144653000Y-110540819D01*
X144653000Y-109347000D01*
X144907000Y-109347000D01*
X144907000Y-110540819D01*
X145136892Y-110661486D01*
X145661358Y-110415183D01*
X146051645Y-109986924D01*
X146221476Y-109576890D01*
X146100155Y-109347000D01*
X144907000Y-109347000D01*
X144653000Y-109347000D01*
X143459845Y-109347000D01*
X143338524Y-109576890D01*
X140506476Y-109576890D01*
X140385155Y-109347000D01*
X139192000Y-109347000D01*
X138938000Y-109347000D01*
X137744845Y-109347000D01*
X137623524Y-109576890D01*
X134745000Y-109576890D01*
X134745000Y-105830000D01*
X137567560Y-105830000D01*
X137567560Y-107530000D01*
X137611838Y-107765317D01*
X137750910Y-107981441D01*
X137963110Y-108126431D01*
X138071107Y-108148301D01*
X137793355Y-108453076D01*
X137623524Y-108863110D01*
X137744845Y-109093000D01*
X138938000Y-109093000D01*
X138938000Y-109073000D01*
X139192000Y-109073000D01*
X139192000Y-109093000D01*
X140385155Y-109093000D01*
X140506476Y-108863110D01*
X140336645Y-108453076D01*
X140060499Y-108150063D01*
X140150317Y-108133162D01*
X140366441Y-107994090D01*
X140511431Y-107781890D01*
X140562440Y-107530000D01*
X140562440Y-105830000D01*
X143282560Y-105830000D01*
X143282560Y-107530000D01*
X143326838Y-107765317D01*
X143465910Y-107981441D01*
X143678110Y-108126431D01*
X143786107Y-108148301D01*
X143508355Y-108453076D01*
X143338524Y-108863110D01*
X143459845Y-109093000D01*
X144653000Y-109093000D01*
X144653000Y-109073000D01*
X144907000Y-109073000D01*
X144907000Y-109093000D01*
X146100155Y-109093000D01*
X146221476Y-108863110D01*
X146051645Y-108453076D01*
X145775499Y-108150063D01*
X145865317Y-108133162D01*
X146081441Y-107994090D01*
X146226431Y-107781890D01*
X146277440Y-107530000D01*
X146277440Y-105830000D01*
X146233162Y-105594683D01*
X146094090Y-105378559D01*
X145881890Y-105233569D01*
X145630000Y-105182560D01*
X143930000Y-105182560D01*
X143694683Y-105226838D01*
X143478559Y-105365910D01*
X143333569Y-105578110D01*
X143282560Y-105830000D01*
X140562440Y-105830000D01*
X140518162Y-105594683D01*
X140379090Y-105378559D01*
X140166890Y-105233569D01*
X139915000Y-105182560D01*
X138215000Y-105182560D01*
X137979683Y-105226838D01*
X137763559Y-105365910D01*
X137618569Y-105578110D01*
X137567560Y-105830000D01*
X134745000Y-105830000D01*
X134745000Y-101884187D01*
X137629752Y-101884187D01*
X137847757Y-102411800D01*
X138251077Y-102815824D01*
X138778309Y-103034750D01*
X139349187Y-103035248D01*
X139876800Y-102817243D01*
X140280824Y-102413923D01*
X140499750Y-101886691D01*
X140499752Y-101884187D01*
X143344752Y-101884187D01*
X143562757Y-102411800D01*
X143966077Y-102815824D01*
X144493309Y-103034750D01*
X145064187Y-103035248D01*
X145591800Y-102817243D01*
X145995824Y-102413923D01*
X146214750Y-101886691D01*
X146215248Y-101315813D01*
X145997243Y-100788200D01*
X145593923Y-100384176D01*
X145443432Y-100321687D01*
X145517423Y-100291041D01*
X145932389Y-99915134D01*
X146171914Y-99409041D01*
X146050629Y-99187000D01*
X144907000Y-99187000D01*
X144907000Y-99207000D01*
X144653000Y-99207000D01*
X144653000Y-99187000D01*
X143509371Y-99187000D01*
X143388086Y-99409041D01*
X143627611Y-99915134D01*
X144042577Y-100291041D01*
X144116285Y-100321570D01*
X143968200Y-100382757D01*
X143564176Y-100786077D01*
X143345250Y-101313309D01*
X143344752Y-101884187D01*
X140499752Y-101884187D01*
X140500248Y-101315813D01*
X140282243Y-100788200D01*
X139878923Y-100384176D01*
X139728432Y-100321687D01*
X139802423Y-100291041D01*
X140217389Y-99915134D01*
X140456914Y-99409041D01*
X140335629Y-99187000D01*
X139192000Y-99187000D01*
X139192000Y-99207000D01*
X138938000Y-99207000D01*
X138938000Y-99187000D01*
X137794371Y-99187000D01*
X137673086Y-99409041D01*
X137912611Y-99915134D01*
X138327577Y-100291041D01*
X138401285Y-100321570D01*
X138253200Y-100382757D01*
X137849176Y-100786077D01*
X137630250Y-101313309D01*
X137629752Y-101884187D01*
X134745000Y-101884187D01*
X134745000Y-98710959D01*
X137673086Y-98710959D01*
X137794371Y-98933000D01*
X138938000Y-98933000D01*
X138938000Y-97790085D01*
X139192000Y-97790085D01*
X139192000Y-98933000D01*
X140335629Y-98933000D01*
X140456914Y-98710959D01*
X143388086Y-98710959D01*
X143509371Y-98933000D01*
X144653000Y-98933000D01*
X144653000Y-97790085D01*
X144907000Y-97790085D01*
X144907000Y-98933000D01*
X146050629Y-98933000D01*
X146171914Y-98710959D01*
X145932389Y-98204866D01*
X145517423Y-97828959D01*
X145129039Y-97668096D01*
X144907000Y-97790085D01*
X144653000Y-97790085D01*
X144430961Y-97668096D01*
X144042577Y-97828959D01*
X143627611Y-98204866D01*
X143388086Y-98710959D01*
X140456914Y-98710959D01*
X140217389Y-98204866D01*
X139802423Y-97828959D01*
X139414039Y-97668096D01*
X139192000Y-97790085D01*
X138938000Y-97790085D01*
X138715961Y-97668096D01*
X138327577Y-97828959D01*
X137912611Y-98204866D01*
X137673086Y-98710959D01*
X134745000Y-98710959D01*
X134745000Y-95250000D01*
X137550907Y-95250000D01*
X137663946Y-95818285D01*
X137985853Y-96300054D01*
X138467622Y-96621961D01*
X139035907Y-96735000D01*
X139094093Y-96735000D01*
X139662378Y-96621961D01*
X140144147Y-96300054D01*
X140466054Y-95818285D01*
X140579093Y-95250000D01*
X143265907Y-95250000D01*
X143378946Y-95818285D01*
X143700853Y-96300054D01*
X144182622Y-96621961D01*
X144750907Y-96735000D01*
X144809093Y-96735000D01*
X145377378Y-96621961D01*
X145859147Y-96300054D01*
X146181054Y-95818285D01*
X146294093Y-95250000D01*
X146181054Y-94681715D01*
X145859147Y-94199946D01*
X145518447Y-93972298D01*
X145661358Y-93905183D01*
X146051645Y-93476924D01*
X146221476Y-93066890D01*
X146100155Y-92837000D01*
X144907000Y-92837000D01*
X144907000Y-92857000D01*
X144653000Y-92857000D01*
X144653000Y-92837000D01*
X143459845Y-92837000D01*
X143338524Y-93066890D01*
X143508355Y-93476924D01*
X143898642Y-93905183D01*
X144041553Y-93972298D01*
X143700853Y-94199946D01*
X143378946Y-94681715D01*
X143265907Y-95250000D01*
X140579093Y-95250000D01*
X140466054Y-94681715D01*
X140144147Y-94199946D01*
X139803447Y-93972298D01*
X139946358Y-93905183D01*
X140336645Y-93476924D01*
X140506476Y-93066890D01*
X140385155Y-92837000D01*
X139192000Y-92837000D01*
X139192000Y-92857000D01*
X138938000Y-92857000D01*
X138938000Y-92837000D01*
X137744845Y-92837000D01*
X137623524Y-93066890D01*
X137793355Y-93476924D01*
X138183642Y-93905183D01*
X138326553Y-93972298D01*
X137985853Y-94199946D01*
X137663946Y-94681715D01*
X137550907Y-95250000D01*
X134745000Y-95250000D01*
X134745000Y-89320000D01*
X137567560Y-89320000D01*
X137567560Y-91020000D01*
X137611838Y-91255317D01*
X137750910Y-91471441D01*
X137963110Y-91616431D01*
X138071107Y-91638301D01*
X137793355Y-91943076D01*
X137623524Y-92353110D01*
X137744845Y-92583000D01*
X138938000Y-92583000D01*
X138938000Y-92563000D01*
X139192000Y-92563000D01*
X139192000Y-92583000D01*
X140385155Y-92583000D01*
X140506476Y-92353110D01*
X140336645Y-91943076D01*
X140060499Y-91640063D01*
X140150317Y-91623162D01*
X140366441Y-91484090D01*
X140511431Y-91271890D01*
X140562440Y-91020000D01*
X140562440Y-89320000D01*
X143282560Y-89320000D01*
X143282560Y-91020000D01*
X143326838Y-91255317D01*
X143465910Y-91471441D01*
X143678110Y-91616431D01*
X143786107Y-91638301D01*
X143508355Y-91943076D01*
X143338524Y-92353110D01*
X143459845Y-92583000D01*
X144653000Y-92583000D01*
X144653000Y-92563000D01*
X144907000Y-92563000D01*
X144907000Y-92583000D01*
X146100155Y-92583000D01*
X146221476Y-92353110D01*
X146051645Y-91943076D01*
X145775499Y-91640063D01*
X145865317Y-91623162D01*
X146081441Y-91484090D01*
X146226431Y-91271890D01*
X146277440Y-91020000D01*
X146277440Y-89320000D01*
X146233162Y-89084683D01*
X146094090Y-88868559D01*
X145881890Y-88723569D01*
X145630000Y-88672560D01*
X143930000Y-88672560D01*
X143694683Y-88716838D01*
X143478559Y-88855910D01*
X143333569Y-89068110D01*
X143282560Y-89320000D01*
X140562440Y-89320000D01*
X140518162Y-89084683D01*
X140379090Y-88868559D01*
X140166890Y-88723569D01*
X139915000Y-88672560D01*
X138215000Y-88672560D01*
X137979683Y-88716838D01*
X137763559Y-88855910D01*
X137618569Y-89068110D01*
X137567560Y-89320000D01*
X134745000Y-89320000D01*
X134745000Y-79375000D01*
X134698049Y-79138964D01*
X134687148Y-79084160D01*
X134522401Y-78837599D01*
X131401274Y-75716472D01*
X131444772Y-75611718D01*
X131445226Y-75090568D01*
X131246211Y-74608914D01*
X130878024Y-74240084D01*
X130822369Y-74216974D01*
X130135000Y-73529605D01*
X129448279Y-74216326D01*
X129393914Y-74238789D01*
X129025084Y-74606976D01*
X128825228Y-75088282D01*
X128824774Y-75609432D01*
X125905000Y-75609432D01*
X125905000Y-74877987D01*
X125906800Y-74877243D01*
X126310824Y-74473923D01*
X126529750Y-73946691D01*
X126530248Y-73375813D01*
X126442357Y-73163100D01*
X128812478Y-73163100D01*
X128841625Y-73683434D01*
X128984672Y-74028781D01*
X129217853Y-74087542D01*
X129955395Y-73350000D01*
X130314605Y-73350000D01*
X131052147Y-74087542D01*
X131285328Y-74028781D01*
X131457522Y-73536900D01*
X131428375Y-73016566D01*
X131285328Y-72671219D01*
X131052147Y-72612458D01*
X130314605Y-73350000D01*
X129955395Y-73350000D01*
X129217853Y-72612458D01*
X128984672Y-72671219D01*
X128812478Y-73163100D01*
X126442357Y-73163100D01*
X126312243Y-72848200D01*
X125908923Y-72444176D01*
X125773046Y-72387755D01*
X126109698Y-72162811D01*
X126420767Y-71697264D01*
X126438237Y-71609432D01*
X128824774Y-71609432D01*
X129023789Y-72091086D01*
X129391976Y-72459916D01*
X129447631Y-72483026D01*
X130135000Y-73170395D01*
X130821721Y-72483674D01*
X130876086Y-72461211D01*
X131244916Y-72093024D01*
X131444772Y-71611718D01*
X131445226Y-71090568D01*
X131246211Y-70608914D01*
X130878024Y-70240084D01*
X130396718Y-70040228D01*
X129875568Y-70039774D01*
X129393914Y-70238789D01*
X129025084Y-70606976D01*
X128825228Y-71088282D01*
X128824774Y-71609432D01*
X126438237Y-71609432D01*
X126530000Y-71148113D01*
X126530000Y-71091887D01*
X126420767Y-70542736D01*
X126109698Y-70077189D01*
X125855000Y-69907005D01*
X125855000Y-65825000D01*
X130582560Y-65825000D01*
X130582560Y-67525000D01*
X130626838Y-67760317D01*
X130765910Y-67976441D01*
X130978110Y-68121431D01*
X131230000Y-68172440D01*
X132930000Y-68172440D01*
X133165317Y-68128162D01*
X133381441Y-67989090D01*
X133526431Y-67776890D01*
X133577440Y-67525000D01*
X133577440Y-65825000D01*
X135662560Y-65825000D01*
X135662560Y-67525000D01*
X135706838Y-67760317D01*
X135845910Y-67976441D01*
X136058110Y-68121431D01*
X136310000Y-68172440D01*
X138010000Y-68172440D01*
X138245317Y-68128162D01*
X138461441Y-67989090D01*
X138606431Y-67776890D01*
X138657440Y-67525000D01*
X138657440Y-65825000D01*
X145822560Y-65825000D01*
X145822560Y-67525000D01*
X145866838Y-67760317D01*
X146005910Y-67976441D01*
X146218110Y-68121431D01*
X146470000Y-68172440D01*
X148170000Y-68172440D01*
X148405317Y-68128162D01*
X148621441Y-67989090D01*
X148766431Y-67776890D01*
X148817440Y-67525000D01*
X148817440Y-65825000D01*
X148773162Y-65589683D01*
X148634090Y-65373559D01*
X148421890Y-65228569D01*
X148313893Y-65206699D01*
X148591645Y-64901924D01*
X148761476Y-64491890D01*
X148640155Y-64262000D01*
X147447000Y-64262000D01*
X147447000Y-64282000D01*
X147193000Y-64282000D01*
X147193000Y-64262000D01*
X145999845Y-64262000D01*
X145878524Y-64491890D01*
X146048355Y-64901924D01*
X146324501Y-65204937D01*
X146234683Y-65221838D01*
X146018559Y-65360910D01*
X145873569Y-65573110D01*
X145822560Y-65825000D01*
X138657440Y-65825000D01*
X138613162Y-65589683D01*
X138474090Y-65373559D01*
X138261890Y-65228569D01*
X138153893Y-65206699D01*
X138431645Y-64901924D01*
X138601476Y-64491890D01*
X138480155Y-64262000D01*
X137287000Y-64262000D01*
X137287000Y-64282000D01*
X137033000Y-64282000D01*
X137033000Y-64262000D01*
X135839845Y-64262000D01*
X135718524Y-64491890D01*
X135888355Y-64901924D01*
X136164501Y-65204937D01*
X136074683Y-65221838D01*
X135858559Y-65360910D01*
X135713569Y-65573110D01*
X135662560Y-65825000D01*
X133577440Y-65825000D01*
X133533162Y-65589683D01*
X133394090Y-65373559D01*
X133181890Y-65228569D01*
X133073893Y-65206699D01*
X133351645Y-64901924D01*
X133521476Y-64491890D01*
X133400155Y-64262000D01*
X132207000Y-64262000D01*
X132207000Y-64282000D01*
X131953000Y-64282000D01*
X131953000Y-64262000D01*
X130759845Y-64262000D01*
X130638524Y-64491890D01*
X130808355Y-64901924D01*
X131084501Y-65204937D01*
X130994683Y-65221838D01*
X130778559Y-65360910D01*
X130633569Y-65573110D01*
X130582560Y-65825000D01*
X125855000Y-65825000D01*
X125855000Y-64770000D01*
X125797148Y-64479161D01*
X125632401Y-64232599D01*
X123361210Y-61961408D01*
X123434093Y-61595000D01*
X123321054Y-61026715D01*
X122999147Y-60544946D01*
X122669974Y-60325000D01*
X122999147Y-60105054D01*
X123321054Y-59623285D01*
X123434093Y-59055000D01*
X130565907Y-59055000D01*
X130678946Y-59623285D01*
X131000853Y-60105054D01*
X131330026Y-60325000D01*
X131000853Y-60544946D01*
X130678946Y-61026715D01*
X130565907Y-61595000D01*
X130678946Y-62163285D01*
X131000853Y-62645054D01*
X131341553Y-62872702D01*
X131198642Y-62939817D01*
X130808355Y-63368076D01*
X130638524Y-63778110D01*
X130759845Y-64008000D01*
X131953000Y-64008000D01*
X131953000Y-63988000D01*
X132207000Y-63988000D01*
X132207000Y-64008000D01*
X133400155Y-64008000D01*
X133521476Y-63778110D01*
X133351645Y-63368076D01*
X132961358Y-62939817D01*
X132818447Y-62872702D01*
X133159147Y-62645054D01*
X133481054Y-62163285D01*
X133594093Y-61595000D01*
X133481054Y-61026715D01*
X133159147Y-60544946D01*
X132829974Y-60325000D01*
X133159147Y-60105054D01*
X133481054Y-59623285D01*
X133594093Y-59055000D01*
X135645907Y-59055000D01*
X135758946Y-59623285D01*
X136080853Y-60105054D01*
X136410026Y-60325000D01*
X136080853Y-60544946D01*
X135758946Y-61026715D01*
X135645907Y-61595000D01*
X135758946Y-62163285D01*
X136080853Y-62645054D01*
X136421553Y-62872702D01*
X136278642Y-62939817D01*
X135888355Y-63368076D01*
X135718524Y-63778110D01*
X135839845Y-64008000D01*
X137033000Y-64008000D01*
X137033000Y-63988000D01*
X137287000Y-63988000D01*
X137287000Y-64008000D01*
X138480155Y-64008000D01*
X138601476Y-63778110D01*
X138431645Y-63368076D01*
X138041358Y-62939817D01*
X137898447Y-62872702D01*
X138239147Y-62645054D01*
X138561054Y-62163285D01*
X138674093Y-61595000D01*
X138561054Y-61026715D01*
X138239147Y-60544946D01*
X137909974Y-60325000D01*
X138239147Y-60105054D01*
X138561054Y-59623285D01*
X138674093Y-59055000D01*
X145805907Y-59055000D01*
X145918946Y-59623285D01*
X146240853Y-60105054D01*
X146570026Y-60325000D01*
X146240853Y-60544946D01*
X145918946Y-61026715D01*
X145805907Y-61595000D01*
X145918946Y-62163285D01*
X146240853Y-62645054D01*
X146581553Y-62872702D01*
X146438642Y-62939817D01*
X146048355Y-63368076D01*
X145878524Y-63778110D01*
X145999845Y-64008000D01*
X147193000Y-64008000D01*
X147193000Y-63988000D01*
X147447000Y-63988000D01*
X147447000Y-64008000D01*
X148640155Y-64008000D01*
X148761476Y-63778110D01*
X148591645Y-63368076D01*
X148201358Y-62939817D01*
X148058447Y-62872702D01*
X148399147Y-62645054D01*
X148721054Y-62163285D01*
X148834093Y-61595000D01*
X148721054Y-61026715D01*
X148399147Y-60544946D01*
X148069974Y-60325000D01*
X148399147Y-60105054D01*
X148721054Y-59623285D01*
X148834093Y-59055000D01*
X148721054Y-58486715D01*
X148399147Y-58004946D01*
X147917378Y-57683039D01*
X147349093Y-57570000D01*
X147290907Y-57570000D01*
X146722622Y-57683039D01*
X146240853Y-58004946D01*
X145918946Y-58486715D01*
X145805907Y-59055000D01*
X138674093Y-59055000D01*
X138561054Y-58486715D01*
X138239147Y-58004946D01*
X137757378Y-57683039D01*
X137189093Y-57570000D01*
X137130907Y-57570000D01*
X136562622Y-57683039D01*
X136080853Y-58004946D01*
X135758946Y-58486715D01*
X135645907Y-59055000D01*
X133594093Y-59055000D01*
X133481054Y-58486715D01*
X133159147Y-58004946D01*
X132677378Y-57683039D01*
X132109093Y-57570000D01*
X132050907Y-57570000D01*
X131482622Y-57683039D01*
X131000853Y-58004946D01*
X130678946Y-58486715D01*
X130565907Y-59055000D01*
X123434093Y-59055000D01*
X123321054Y-58486715D01*
X122999147Y-58004946D01*
X122517378Y-57683039D01*
X121949093Y-57570000D01*
X121890907Y-57570000D01*
X121322622Y-57683039D01*
X120840853Y-58004946D01*
X120518946Y-58486715D01*
X120405907Y-59055000D01*
X119010000Y-59055000D01*
X119010265Y-58751009D01*
X118777068Y-58186629D01*
X118345643Y-57754449D01*
X118324806Y-57745797D01*
X118375554Y-57595159D01*
X117475000Y-56694605D01*
X116574446Y-57595159D01*
X116625035Y-57745327D01*
X116606629Y-57752932D01*
X116174449Y-58184357D01*
X115940267Y-58748330D01*
X115939735Y-59358991D01*
X116172932Y-59923371D01*
X116574182Y-60325323D01*
X116174449Y-60724357D01*
X115940267Y-61288330D01*
X115939909Y-61698950D01*
X115805643Y-61564449D01*
X115241670Y-61330267D01*
X114631009Y-61329735D01*
X114066629Y-61562932D01*
X113634449Y-61994357D01*
X113400267Y-62558330D01*
X113399735Y-63168991D01*
X113632932Y-63733371D01*
X114034182Y-64135323D01*
X113634449Y-64534357D01*
X113400267Y-65098330D01*
X113399735Y-65708991D01*
X113632932Y-66273371D01*
X114064357Y-66705551D01*
X114628330Y-66939733D01*
X115238991Y-66940265D01*
X115803371Y-66707068D01*
X115940091Y-66570587D01*
X115939735Y-66978991D01*
X116172932Y-67543371D01*
X116574182Y-67945323D01*
X116174449Y-68344357D01*
X115940267Y-68908330D01*
X115939735Y-69518991D01*
X116172932Y-70083371D01*
X116574182Y-70485323D01*
X116174449Y-70884357D01*
X115940267Y-71448330D01*
X115939735Y-72058991D01*
X116172932Y-72623371D01*
X116574182Y-73025323D01*
X116174449Y-73424357D01*
X115940267Y-73988330D01*
X115939735Y-74598991D01*
X116172932Y-75163371D01*
X116574182Y-75565323D01*
X116174449Y-75964357D01*
X115940267Y-76528330D01*
X115939735Y-77138991D01*
X116172932Y-77703371D01*
X116574182Y-78105323D01*
X116174449Y-78504357D01*
X115940267Y-79068330D01*
X115939735Y-79678991D01*
X115962303Y-79733609D01*
X115676057Y-79851883D01*
X115642882Y-79885000D01*
X113592463Y-79885000D01*
X113560327Y-79852808D01*
X113216799Y-79710162D01*
X112844833Y-79709838D01*
X112501057Y-79851883D01*
X112237808Y-80114673D01*
X112095162Y-80458201D01*
X112094838Y-80830167D01*
X103320985Y-80830167D01*
X103135818Y-80644677D01*
X103535551Y-80245643D01*
X103580332Y-80137799D01*
X103609673Y-80167192D01*
X103953201Y-80309838D01*
X104325167Y-80310162D01*
X104668943Y-80168117D01*
X104932192Y-79905327D01*
X105074838Y-79561799D01*
X105075162Y-79189833D01*
X104933117Y-78846057D01*
X104670327Y-78582808D01*
X104326799Y-78440162D01*
X104279923Y-78440121D01*
X103538454Y-77698652D01*
X103769733Y-77141670D01*
X103770265Y-76531009D01*
X103537068Y-75966629D01*
X103135818Y-75564677D01*
X103535551Y-75165643D01*
X103769733Y-74601670D01*
X103770265Y-73991009D01*
X103537068Y-73426629D01*
X103135818Y-73024677D01*
X103535551Y-72625643D01*
X103769733Y-72061670D01*
X103770265Y-71451009D01*
X103537068Y-70886629D01*
X103135818Y-70484677D01*
X103535551Y-70085643D01*
X103769733Y-69521670D01*
X103770265Y-68911009D01*
X103537068Y-68346629D01*
X103135818Y-67944677D01*
X103535551Y-67545643D01*
X103769733Y-66981670D01*
X103770265Y-66371009D01*
X103537068Y-65806629D01*
X103135818Y-65404677D01*
X103535551Y-65005643D01*
X103769733Y-64441670D01*
X103770265Y-63831009D01*
X103537068Y-63266629D01*
X103105643Y-62834449D01*
X103084806Y-62825797D01*
X103135554Y-62675159D01*
X102235000Y-61774605D01*
X101334446Y-62675159D01*
X101385035Y-62825327D01*
X101366629Y-62832932D01*
X101040000Y-63158990D01*
X101040000Y-62456866D01*
X101154841Y-62495554D01*
X102055395Y-61595000D01*
X102414605Y-61595000D01*
X103315159Y-62495554D01*
X103571643Y-62409148D01*
X103781458Y-61835664D01*
X103755839Y-61225540D01*
X103571643Y-60780852D01*
X103315159Y-60694446D01*
X102414605Y-61595000D01*
X102055395Y-61595000D01*
X101154841Y-60694446D01*
X101040000Y-60733134D01*
X101040000Y-60030626D01*
X101364357Y-60355551D01*
X101385194Y-60364203D01*
X101334446Y-60514841D01*
X102235000Y-61415395D01*
X103135554Y-60514841D01*
X103084965Y-60364673D01*
X103103371Y-60357068D01*
X103535551Y-59925643D01*
X103769733Y-59361670D01*
X103770265Y-58751009D01*
X103537068Y-58186629D01*
X103135818Y-57784677D01*
X103535551Y-57385643D01*
X103769733Y-56821670D01*
X103770209Y-56274336D01*
X115928542Y-56274336D01*
X115954161Y-56884460D01*
X116138357Y-57329148D01*
X116394841Y-57415554D01*
X117295395Y-56515000D01*
X117654605Y-56515000D01*
X118555159Y-57415554D01*
X118811643Y-57329148D01*
X119021458Y-56755664D01*
X118995839Y-56145540D01*
X118811643Y-55700852D01*
X118555159Y-55614446D01*
X117654605Y-56515000D01*
X117295395Y-56515000D01*
X116394841Y-55614446D01*
X116138357Y-55700852D01*
X115928542Y-56274336D01*
X103770209Y-56274336D01*
X103770265Y-56211009D01*
X103537068Y-55646629D01*
X103135818Y-55244677D01*
X103535551Y-54845643D01*
X103769733Y-54281670D01*
X103770265Y-53671009D01*
X103612009Y-53288000D01*
X116098194Y-53288000D01*
X115940267Y-53668330D01*
X115939735Y-54278991D01*
X116172932Y-54843371D01*
X116604357Y-55275551D01*
X116625194Y-55284203D01*
X116574446Y-55434841D01*
X117475000Y-56335395D01*
X118375554Y-55434841D01*
X118324965Y-55284673D01*
X118343371Y-55277068D01*
X118775551Y-54845643D01*
X119009733Y-54281670D01*
X119010265Y-53671009D01*
X118777068Y-53106629D01*
X118624598Y-52953892D01*
X118804677Y-52833567D01*
X118866595Y-52771649D01*
X119000567Y-52637678D01*
X119248337Y-52266862D01*
X119282848Y-52183545D01*
X119354351Y-52010922D01*
X119441356Y-51573518D01*
X119441358Y-51573514D01*
X119510478Y-51226021D01*
X119628856Y-51048855D01*
X119806019Y-50930479D01*
X120084931Y-50875000D01*
X149155070Y-50875000D01*
X149433979Y-50930478D01*
X149433979Y-50930478D01*
G37*
X149433979Y-50930478D02*
X149611145Y-51048856D01*
X149729521Y-51226019D01*
X149785000Y-51504931D01*
X149785000Y-78799545D01*
X149617219Y-78393485D01*
X149129582Y-77904996D01*
X148492127Y-77640301D01*
X147801901Y-77639699D01*
X147163985Y-77903281D01*
X146675496Y-78390918D01*
X146410801Y-79028373D01*
X146410199Y-79718599D01*
X146673781Y-80356515D01*
X147161418Y-80845004D01*
X147798873Y-81109699D01*
X148489099Y-81110301D01*
X149127015Y-80846719D01*
X149615504Y-80359082D01*
X149785000Y-79950891D01*
X149785000Y-144710069D01*
X149729521Y-144988981D01*
X149611145Y-145166144D01*
X149433979Y-145284522D01*
X149155070Y-145340000D01*
X101669931Y-145340000D01*
X101391019Y-145284521D01*
X101213856Y-145166145D01*
X101095478Y-144988979D01*
X101040000Y-144710070D01*
X101040000Y-143384187D01*
X108064752Y-143384187D01*
X108282757Y-143911800D01*
X108686077Y-144315824D01*
X109213309Y-144534750D01*
X109784187Y-144535248D01*
X110311800Y-144317243D01*
X110715824Y-143913923D01*
X110717453Y-143910000D01*
X126282013Y-143910000D01*
X126282757Y-143911800D01*
X126686077Y-144315824D01*
X127213309Y-144534750D01*
X127784187Y-144535248D01*
X128311800Y-144317243D01*
X128715824Y-143913923D01*
X128934750Y-143386691D01*
X128935248Y-142815813D01*
X128717243Y-142288200D01*
X128313923Y-141884176D01*
X127786691Y-141665250D01*
X127215813Y-141664752D01*
X126688200Y-141882757D01*
X126284176Y-142286077D01*
X126282547Y-142290000D01*
X110717987Y-142290000D01*
X110717243Y-142288200D01*
X110313923Y-141884176D01*
X109786691Y-141665250D01*
X109215813Y-141664752D01*
X108688200Y-141882757D01*
X108284176Y-142286077D01*
X108065250Y-142813309D01*
X108064752Y-143384187D01*
X101040000Y-143384187D01*
X101040000Y-116912913D01*
X107414638Y-116912913D01*
X107731392Y-117679515D01*
X108317400Y-118266547D01*
X109083448Y-118584638D01*
X109912913Y-118585362D01*
X110679515Y-118268608D01*
X111266547Y-117682600D01*
X111584638Y-116916552D01*
X111584641Y-116912913D01*
X125414638Y-116912913D01*
X125731392Y-117679515D01*
X126317400Y-118266547D01*
X127083448Y-118584638D01*
X127912913Y-118585362D01*
X128679515Y-118268608D01*
X129266547Y-117682600D01*
X129584638Y-116916552D01*
X129585362Y-116087087D01*
X129268608Y-115320485D01*
X128682600Y-114733453D01*
X127916552Y-114415362D01*
X127087087Y-114414638D01*
X126320485Y-114731392D01*
X125733453Y-115317400D01*
X125415362Y-116083448D01*
X125414638Y-116912913D01*
X111584641Y-116912913D01*
X111585362Y-116087087D01*
X111268608Y-115320485D01*
X110682600Y-114733453D01*
X109916552Y-114415362D01*
X109087087Y-114414638D01*
X108320485Y-114731392D01*
X107733453Y-115317400D01*
X107415362Y-116083448D01*
X107414638Y-116912913D01*
X101040000Y-116912913D01*
X101040000Y-91084187D01*
X108064752Y-91084187D01*
X108282757Y-91611800D01*
X108686077Y-92015824D01*
X109213309Y-92234750D01*
X109784187Y-92235248D01*
X110311800Y-92017243D01*
X110715824Y-91613923D01*
X110934750Y-91086691D01*
X110935248Y-90515813D01*
X110798224Y-90184187D01*
X126064752Y-90184187D01*
X126282757Y-90711800D01*
X126686077Y-91115824D01*
X127213309Y-91334750D01*
X127784187Y-91335248D01*
X128311800Y-91117243D01*
X128715824Y-90713923D01*
X128934750Y-90186691D01*
X128935248Y-89615813D01*
X128717243Y-89088200D01*
X128313923Y-88684176D01*
X127786691Y-88465250D01*
X127215813Y-88464752D01*
X126688200Y-88682757D01*
X126284176Y-89086077D01*
X126065250Y-89613309D01*
X126064752Y-90184187D01*
X110798224Y-90184187D01*
X110717243Y-89988200D01*
X110313923Y-89584176D01*
X109786691Y-89365250D01*
X109215813Y-89364752D01*
X108688200Y-89582757D01*
X108284176Y-89986077D01*
X108065250Y-90513309D01*
X108064752Y-91084187D01*
X101040000Y-91084187D01*
X101040000Y-82890626D01*
X101364357Y-83215551D01*
X101928330Y-83449733D01*
X102538991Y-83450265D01*
X103103371Y-83217068D01*
X103535551Y-82785643D01*
X103769733Y-82221670D01*
X103770265Y-81611009D01*
X103537068Y-81046629D01*
X103320985Y-80830167D01*
X112094838Y-80830167D01*
X112236883Y-81173943D01*
X112499673Y-81437192D01*
X112843201Y-81579838D01*
X113215167Y-81580162D01*
X113558943Y-81438117D01*
X113592118Y-81405000D01*
X115642537Y-81405000D01*
X115674673Y-81437192D01*
X115961819Y-81556426D01*
X115940267Y-81608330D01*
X115939735Y-82218991D01*
X116172932Y-82783371D01*
X116604357Y-83215551D01*
X117168330Y-83449733D01*
X117778991Y-83450265D01*
X118343371Y-83217068D01*
X118775551Y-82785643D01*
X119009733Y-82221670D01*
X119010265Y-81611009D01*
X118777068Y-81046629D01*
X118375818Y-80644677D01*
X118775551Y-80245643D01*
X118947005Y-79832735D01*
X124411870Y-79832735D01*
X124461383Y-80058164D01*
X124926036Y-80217807D01*
X125416413Y-80187482D01*
X125728617Y-80058164D01*
X125778130Y-79832735D01*
X125095000Y-79149605D01*
X124411870Y-79832735D01*
X118947005Y-79832735D01*
X119009733Y-79681670D01*
X119010265Y-79071009D01*
X118777068Y-78506629D01*
X118375818Y-78104677D01*
X118775551Y-77705643D01*
X119009733Y-77141670D01*
X119010265Y-76531009D01*
X118777068Y-75966629D01*
X118375818Y-75564677D01*
X118775551Y-75165643D01*
X119009733Y-74601670D01*
X119010265Y-73991009D01*
X118990919Y-73944187D01*
X119849752Y-73944187D01*
X120067757Y-74471800D01*
X120471077Y-74875824D01*
X120998309Y-75094750D01*
X121569187Y-75095248D01*
X122096800Y-74877243D01*
X122500824Y-74473923D01*
X122719750Y-73946691D01*
X122720248Y-73375813D01*
X122502243Y-72848200D01*
X122098923Y-72444176D01*
X121963046Y-72387755D01*
X122299698Y-72162811D01*
X122610767Y-71697264D01*
X122720000Y-71148113D01*
X122720000Y-71091887D01*
X122610767Y-70542736D01*
X122299698Y-70077189D01*
X121834151Y-69766120D01*
X121285000Y-69656887D01*
X120735849Y-69766120D01*
X120270302Y-70077189D01*
X119959233Y-70542736D01*
X119850000Y-71091887D01*
X119850000Y-71148113D01*
X119959233Y-71697264D01*
X120270302Y-72162811D01*
X120606710Y-72387592D01*
X120473200Y-72442757D01*
X120069176Y-72846077D01*
X119850250Y-73373309D01*
X119849752Y-73944187D01*
X118990919Y-73944187D01*
X118777068Y-73426629D01*
X118375818Y-73024677D01*
X118775551Y-72625643D01*
X119009733Y-72061670D01*
X119010265Y-71451009D01*
X118777068Y-70886629D01*
X118375818Y-70484677D01*
X118775551Y-70085643D01*
X119009733Y-69521670D01*
X119010265Y-68911009D01*
X118777068Y-68346629D01*
X118375818Y-67944677D01*
X118775551Y-67545643D01*
X119009733Y-66981670D01*
X119010265Y-66371009D01*
X118777068Y-65806629D01*
X118375818Y-65404677D01*
X118775551Y-65005643D01*
X119009733Y-64441670D01*
X119010265Y-63831009D01*
X118777068Y-63266629D01*
X118375818Y-62864677D01*
X118775551Y-62465643D01*
X119009733Y-61901670D01*
X119010265Y-61291009D01*
X118777068Y-60726629D01*
X118375818Y-60324677D01*
X118775551Y-59925643D01*
X119009733Y-59361670D01*
X119010000Y-59055000D01*
X120405907Y-59055000D01*
X120518946Y-59623285D01*
X120840853Y-60105054D01*
X121170026Y-60325000D01*
X120840853Y-60544946D01*
X120518946Y-61026715D01*
X120405907Y-61595000D01*
X120518946Y-62163285D01*
X120840853Y-62645054D01*
X121181553Y-62872702D01*
X121038642Y-62939817D01*
X120648355Y-63368076D01*
X120478524Y-63778110D01*
X120599845Y-64008000D01*
X121793000Y-64008000D01*
X121793000Y-63988000D01*
X122047000Y-63988000D01*
X122047000Y-64008000D01*
X122067000Y-64008000D01*
X122067000Y-64262000D01*
X122047000Y-64262000D01*
X122047000Y-64282000D01*
X121793000Y-64282000D01*
X121793000Y-64262000D01*
X120599845Y-64262000D01*
X120478524Y-64491890D01*
X120648355Y-64901924D01*
X120924501Y-65204937D01*
X120834683Y-65221838D01*
X120618559Y-65360910D01*
X120473569Y-65573110D01*
X120422560Y-65825000D01*
X120422560Y-67525000D01*
X120466838Y-67760317D01*
X120605910Y-67976441D01*
X120818110Y-68121431D01*
X121070000Y-68172440D01*
X122770000Y-68172440D01*
X123005317Y-68128162D01*
X123221441Y-67989090D01*
X123366431Y-67776890D01*
X123417440Y-67525000D01*
X123417440Y-65825000D01*
X123373162Y-65589683D01*
X123234090Y-65373559D01*
X123021890Y-65228569D01*
X122913893Y-65206699D01*
X123191645Y-64901924D01*
X123361476Y-64491890D01*
X123240156Y-64262002D01*
X123405000Y-64262002D01*
X123405000Y-64154802D01*
X124335000Y-65084802D01*
X124335000Y-69907005D01*
X124080302Y-70077189D01*
X123769233Y-70542736D01*
X123660000Y-71091887D01*
X123660000Y-71148113D01*
X123769233Y-71697264D01*
X124080302Y-72162811D01*
X124416710Y-72387592D01*
X124283200Y-72442757D01*
X123879176Y-72846077D01*
X123660250Y-73373309D01*
X123659752Y-73944187D01*
X123877757Y-74471800D01*
X124281077Y-74875824D01*
X124285000Y-74877453D01*
X124285000Y-76262074D01*
X124259683Y-76266838D01*
X124043559Y-76405910D01*
X123898569Y-76618110D01*
X123847560Y-76870000D01*
X123847560Y-78070000D01*
X123891838Y-78305317D01*
X123973766Y-78432636D01*
X123847193Y-78801036D01*
X123877518Y-79291413D01*
X124006836Y-79603617D01*
X124232265Y-79653130D01*
X124915395Y-78970000D01*
X124901253Y-78955858D01*
X125080858Y-78776253D01*
X125095000Y-78790395D01*
X125109143Y-78776253D01*
X125288748Y-78955858D01*
X125274605Y-78970000D01*
X125957735Y-79653130D01*
X126183164Y-79603617D01*
X126342807Y-79138964D01*
X126312482Y-78648587D01*
X126220289Y-78426010D01*
X126291431Y-78321890D01*
X126342440Y-78070000D01*
X126342440Y-76870000D01*
X126298162Y-76634683D01*
X126159090Y-76418559D01*
X125946890Y-76273569D01*
X125905000Y-76265086D01*
X125905000Y-75609432D01*
X128824774Y-75609432D01*
X129023789Y-76091086D01*
X129282380Y-76350129D01*
X129025084Y-76606976D01*
X128825228Y-77088282D01*
X128824774Y-77609432D01*
X129023789Y-78091086D01*
X129282380Y-78350129D01*
X129025084Y-78606976D01*
X128825228Y-79088282D01*
X128824774Y-79609432D01*
X129023789Y-80091086D01*
X129282380Y-80350129D01*
X129025084Y-80606976D01*
X128825228Y-81088282D01*
X128824774Y-81609432D01*
X129023789Y-82091086D01*
X129282380Y-82350129D01*
X129025084Y-82606976D01*
X128825228Y-83088282D01*
X128824774Y-83609432D01*
X129023789Y-84091086D01*
X129282380Y-84350129D01*
X129025084Y-84606976D01*
X128825228Y-85088282D01*
X128824774Y-85609432D01*
X129023789Y-86091086D01*
X129391976Y-86459916D01*
X129873282Y-86659772D01*
X130394432Y-86660226D01*
X130876086Y-86461211D01*
X131244916Y-86093024D01*
X131444772Y-85611718D01*
X131445226Y-85090568D01*
X131246211Y-84608914D01*
X130987620Y-84349871D01*
X131244916Y-84093024D01*
X131444772Y-83611718D01*
X131445226Y-83090568D01*
X131246211Y-82608914D01*
X130987620Y-82349871D01*
X131244916Y-82093024D01*
X131444772Y-81611718D01*
X131445226Y-81090568D01*
X131246211Y-80608914D01*
X130987620Y-80349871D01*
X131166501Y-80171303D01*
X131955000Y-80959802D01*
X131955000Y-140970000D01*
X132012852Y-141260839D01*
X132177599Y-141507401D01*
X134717599Y-144047401D01*
X134964160Y-144212148D01*
X135012414Y-144221746D01*
X135255000Y-144270000D01*
X141605000Y-144270000D01*
X141895839Y-144212148D01*
X142142401Y-144047401D01*
X143143592Y-143046210D01*
X143510000Y-143119093D01*
X144078285Y-143006054D01*
X144560054Y-142684147D01*
X144780000Y-142354974D01*
X144999946Y-142684147D01*
X145481715Y-143006054D01*
X146050000Y-143119093D01*
X146618285Y-143006054D01*
X147100054Y-142684147D01*
X147421961Y-142202378D01*
X147535000Y-141634093D01*
X147535000Y-141575907D01*
X147421961Y-141007622D01*
X147100054Y-140525853D01*
X146618285Y-140203946D01*
X146050000Y-140090907D01*
X145481715Y-140203946D01*
X144999946Y-140525853D01*
X144780000Y-140855026D01*
X144560054Y-140525853D01*
X144078285Y-140203946D01*
X143510000Y-140090907D01*
X142941715Y-140203946D01*
X142459946Y-140525853D01*
X142240000Y-140855026D01*
X142020054Y-140525853D01*
X141734422Y-140335000D01*
X142020054Y-140144147D01*
X142341961Y-139662378D01*
X142388847Y-139426665D01*
X142575513Y-139240000D01*
X143040489Y-139240000D01*
X143051838Y-139300317D01*
X143190910Y-139516441D01*
X143403110Y-139661431D01*
X143655000Y-139712440D01*
X144625000Y-139712440D01*
X144771963Y-139684787D01*
X144808690Y-139700000D01*
X145134250Y-139700000D01*
X145293000Y-139541250D01*
X145293000Y-138557000D01*
X145547000Y-138557000D01*
X145547000Y-139541250D01*
X145705750Y-139700000D01*
X146031310Y-139700000D01*
X146264699Y-139603327D01*
X146443327Y-139424698D01*
X146540000Y-139191309D01*
X146540000Y-138715750D01*
X146381250Y-138557000D01*
X145547000Y-138557000D01*
X145293000Y-138557000D01*
X145273000Y-138557000D01*
X145273000Y-138303000D01*
X145293000Y-138303000D01*
X145293000Y-137318750D01*
X145547000Y-137318750D01*
X145547000Y-138303000D01*
X146381250Y-138303000D01*
X146540000Y-138144250D01*
X146540000Y-137668691D01*
X146443327Y-137435302D01*
X146264699Y-137256673D01*
X146031310Y-137160000D01*
X145705750Y-137160000D01*
X145547000Y-137318750D01*
X145293000Y-137318750D01*
X145134250Y-137160000D01*
X144808690Y-137160000D01*
X144768545Y-137176629D01*
X144625000Y-137147560D01*
X143655000Y-137147560D01*
X143419683Y-137191838D01*
X143203559Y-137330910D01*
X143058569Y-137543110D01*
X143042998Y-137620000D01*
X142240000Y-137620000D01*
X141930027Y-137681657D01*
X141747409Y-137803678D01*
X141538285Y-137663946D01*
X140970000Y-137550907D01*
X140905000Y-137563836D01*
X140905000Y-135670991D01*
X141065142Y-135563988D01*
X141244209Y-135295995D01*
X141245203Y-135298396D01*
X141592337Y-135686764D01*
X142061669Y-135912727D01*
X142268000Y-135790206D01*
X142268000Y-134747000D01*
X142522000Y-134747000D01*
X142522000Y-135790206D01*
X142728331Y-135912727D01*
X143197663Y-135686764D01*
X143544797Y-135298396D01*
X143687716Y-134953329D01*
X143564374Y-134747000D01*
X142522000Y-134747000D01*
X142268000Y-134747000D01*
X142248000Y-134747000D01*
X142248000Y-134620000D01*
X143951887Y-134620000D01*
X144061120Y-135169151D01*
X144372189Y-135634698D01*
X144837736Y-135945767D01*
X145386887Y-136055000D01*
X145443113Y-136055000D01*
X145992264Y-135945767D01*
X146457811Y-135634698D01*
X146682592Y-135298290D01*
X146737757Y-135431800D01*
X147141077Y-135835824D01*
X147668309Y-136054750D01*
X148239187Y-136055248D01*
X148766800Y-135837243D01*
X149170824Y-135433923D01*
X149389750Y-134906691D01*
X149390248Y-134335813D01*
X149172243Y-133808200D01*
X148768923Y-133404176D01*
X148241691Y-133185250D01*
X147670813Y-133184752D01*
X147143200Y-133402757D01*
X146739176Y-133806077D01*
X146682755Y-133941954D01*
X146457811Y-133605302D01*
X145992264Y-133294233D01*
X145443113Y-133185000D01*
X145386887Y-133185000D01*
X144837736Y-133294233D01*
X144372189Y-133605302D01*
X144061120Y-134070849D01*
X143951887Y-134620000D01*
X142248000Y-134620000D01*
X142248000Y-134493000D01*
X142268000Y-134493000D01*
X142268000Y-133449794D01*
X142522000Y-133449794D01*
X142522000Y-134493000D01*
X143564374Y-134493000D01*
X143687716Y-134286671D01*
X143544797Y-133941604D01*
X143197663Y-133553236D01*
X142728331Y-133327273D01*
X142522000Y-133449794D01*
X142268000Y-133449794D01*
X142061669Y-133327273D01*
X141592337Y-133553236D01*
X141245203Y-133941604D01*
X141244209Y-133944005D01*
X141065142Y-133676012D01*
X140632036Y-133386621D01*
X140121154Y-133285000D01*
X140068846Y-133285000D01*
X139557964Y-133386621D01*
X139124858Y-133676012D01*
X139102755Y-133709092D01*
X139098162Y-133684683D01*
X138959090Y-133468559D01*
X138746890Y-133323569D01*
X138495000Y-133272560D01*
X137095000Y-133272560D01*
X136859683Y-133316838D01*
X136643559Y-133455910D01*
X136498569Y-133668110D01*
X136447560Y-133920000D01*
X136447560Y-135320000D01*
X136491838Y-135555317D01*
X136630910Y-135771441D01*
X136843110Y-135916431D01*
X137095000Y-135967440D01*
X138495000Y-135967440D01*
X138730317Y-135923162D01*
X138946441Y-135784090D01*
X139091431Y-135571890D01*
X139100434Y-135527434D01*
X139124858Y-135563988D01*
X139285000Y-135670991D01*
X139285000Y-137568573D01*
X139280000Y-137567560D01*
X137580000Y-137567560D01*
X137344683Y-137611838D01*
X137128559Y-137750910D01*
X136983569Y-137963110D01*
X136932560Y-138215000D01*
X136932560Y-139915000D01*
X136976838Y-140150317D01*
X137097015Y-140337077D01*
X136983569Y-140503110D01*
X136932560Y-140755000D01*
X136932560Y-140845000D01*
X136204802Y-140845000D01*
X134745000Y-139385198D01*
X134745000Y-131128532D01*
X137965073Y-131128532D01*
X138063736Y-131395387D01*
X138673461Y-131621908D01*
X139323460Y-131597856D01*
X139812264Y-131395387D01*
X139910927Y-131128532D01*
X144465073Y-131128532D01*
X144563736Y-131395387D01*
X145173461Y-131621908D01*
X145823460Y-131597856D01*
X146312264Y-131395387D01*
X146410927Y-131128532D01*
X145438000Y-130155605D01*
X144465073Y-131128532D01*
X139910927Y-131128532D01*
X138938000Y-130155605D01*
X137965073Y-131128532D01*
X134745000Y-131128532D01*
X134745000Y-129711461D01*
X137292092Y-129711461D01*
X137316144Y-130361460D01*
X137518613Y-130850264D01*
X137785468Y-130948927D01*
X138758395Y-129976000D01*
X139117605Y-129976000D01*
X140090532Y-130948927D01*
X140357387Y-130850264D01*
X140583908Y-130240539D01*
X140564331Y-129711461D01*
X143792092Y-129711461D01*
X143816144Y-130361460D01*
X144018613Y-130850264D01*
X144285468Y-130948927D01*
X145258395Y-129976000D01*
X145617605Y-129976000D01*
X146590532Y-130948927D01*
X146857387Y-130850264D01*
X147083908Y-130240539D01*
X147059856Y-129590540D01*
X146857387Y-129101736D01*
X146590532Y-129003073D01*
X145617605Y-129976000D01*
X145258395Y-129976000D01*
X144285468Y-129003073D01*
X144018613Y-129101736D01*
X143792092Y-129711461D01*
X140564331Y-129711461D01*
X140559856Y-129590540D01*
X140357387Y-129101736D01*
X140090532Y-129003073D01*
X139117605Y-129976000D01*
X138758395Y-129976000D01*
X137785468Y-129003073D01*
X137518613Y-129101736D01*
X137292092Y-129711461D01*
X134745000Y-129711461D01*
X134745000Y-128823468D01*
X137965073Y-128823468D01*
X138938000Y-129796395D01*
X139910927Y-128823468D01*
X144465073Y-128823468D01*
X145438000Y-129796395D01*
X146410927Y-128823468D01*
X146312264Y-128556613D01*
X145702539Y-128330092D01*
X145052540Y-128354144D01*
X144563736Y-128556613D01*
X144465073Y-128823468D01*
X139910927Y-128823468D01*
X139812264Y-128556613D01*
X139202539Y-128330092D01*
X138552540Y-128354144D01*
X138063736Y-128556613D01*
X137965073Y-128823468D01*
X134745000Y-128823468D01*
X134745000Y-125799795D01*
X137302716Y-125799795D01*
X137551106Y-126400943D01*
X138010637Y-126861278D01*
X138611352Y-127110716D01*
X139261795Y-127111284D01*
X139862943Y-126862894D01*
X140323278Y-126403363D01*
X140572716Y-125802648D01*
X140572718Y-125799795D01*
X143802716Y-125799795D01*
X144051106Y-126400943D01*
X144510637Y-126861278D01*
X145111352Y-127110716D01*
X145761795Y-127111284D01*
X146362943Y-126862894D01*
X146823278Y-126403363D01*
X147072716Y-125802648D01*
X147073284Y-125152205D01*
X146824894Y-124551057D01*
X146365363Y-124090722D01*
X145764648Y-123841284D01*
X145114205Y-123840716D01*
X144513057Y-124089106D01*
X144052722Y-124548637D01*
X143803284Y-125149352D01*
X143802716Y-125799795D01*
X140572718Y-125799795D01*
X140573284Y-125152205D01*
X140324894Y-124551057D01*
X139865363Y-124090722D01*
X139264648Y-123841284D01*
X138614205Y-123840716D01*
X138013057Y-124089106D01*
X137552722Y-124548637D01*
X137303284Y-125149352D01*
X137302716Y-125799795D01*
X134745000Y-125799795D01*
X134745000Y-119664187D01*
X137629752Y-119664187D01*
X137847757Y-120191800D01*
X138251077Y-120595824D01*
X138386954Y-120652245D01*
X138050302Y-120877189D01*
X137739233Y-121342736D01*
X137630000Y-121891887D01*
X137630000Y-121948113D01*
X137739233Y-122497264D01*
X138050302Y-122962811D01*
X138515849Y-123273880D01*
X139065000Y-123383113D01*
X139614151Y-123273880D01*
X140079698Y-122962811D01*
X140390767Y-122497264D01*
X140500000Y-121948113D01*
X140500000Y-121891887D01*
X140390767Y-121342736D01*
X140079698Y-120877189D01*
X139743290Y-120652408D01*
X139876800Y-120597243D01*
X140280824Y-120193923D01*
X140499750Y-119666691D01*
X140499752Y-119664187D01*
X142709752Y-119664187D01*
X142927757Y-120191800D01*
X143331077Y-120595824D01*
X143466954Y-120652245D01*
X143130302Y-120877189D01*
X142819233Y-121342736D01*
X142710000Y-121891887D01*
X142710000Y-121948113D01*
X142819233Y-122497264D01*
X143130302Y-122962811D01*
X143595849Y-123273880D01*
X144145000Y-123383113D01*
X144694151Y-123273880D01*
X145159698Y-122962811D01*
X145470767Y-122497264D01*
X145580000Y-121948113D01*
X145580000Y-121891887D01*
X145470767Y-121342736D01*
X145159698Y-120877189D01*
X144823290Y-120652408D01*
X144956800Y-120597243D01*
X145360824Y-120193923D01*
X145579750Y-119666691D01*
X145580248Y-119095813D01*
X145362243Y-118568200D01*
X144958923Y-118164176D01*
X144431691Y-117945250D01*
X143860813Y-117944752D01*
X143333200Y-118162757D01*
X142929176Y-118566077D01*
X142710250Y-119093309D01*
X142709752Y-119664187D01*
X140499752Y-119664187D01*
X140500248Y-119095813D01*
X140282243Y-118568200D01*
X139878923Y-118164176D01*
X139351691Y-117945250D01*
X138780813Y-117944752D01*
X138253200Y-118162757D01*
X137849176Y-118566077D01*
X137630250Y-119093309D01*
X137629752Y-119664187D01*
X134745000Y-119664187D01*
X134745000Y-116508991D01*
X137529735Y-116508991D01*
X137762932Y-117073371D01*
X138194357Y-117505551D01*
X138758330Y-117739733D01*
X139368991Y-117740265D01*
X139933371Y-117507068D01*
X140365551Y-117075643D01*
X140599733Y-116511670D01*
X140599735Y-116508991D01*
X142609735Y-116508991D01*
X142842932Y-117073371D01*
X143274357Y-117505551D01*
X143838330Y-117739733D01*
X144448991Y-117740265D01*
X145013371Y-117507068D01*
X145445551Y-117075643D01*
X145679733Y-116511670D01*
X145680265Y-115901009D01*
X145447068Y-115336629D01*
X145269908Y-115159159D01*
X145404699Y-115103327D01*
X145583327Y-114924698D01*
X145680000Y-114691309D01*
X145680000Y-113950750D01*
X145521250Y-113792000D01*
X144272000Y-113792000D01*
X144272000Y-113812000D01*
X144018000Y-113812000D01*
X144018000Y-113792000D01*
X142768750Y-113792000D01*
X142610000Y-113950750D01*
X142610000Y-114691309D01*
X142706673Y-114924698D01*
X142885301Y-115103327D01*
X143019994Y-115159119D01*
X142844449Y-115334357D01*
X142610267Y-115898330D01*
X142609735Y-116508991D01*
X140599735Y-116508991D01*
X140600265Y-115901009D01*
X140367068Y-115336629D01*
X140189908Y-115159159D01*
X140324699Y-115103327D01*
X140503327Y-114924698D01*
X140600000Y-114691309D01*
X140600000Y-113950750D01*
X140441250Y-113792000D01*
X139192000Y-113792000D01*
X139192000Y-113812000D01*
X138938000Y-113812000D01*
X138938000Y-113792000D01*
X137688750Y-113792000D01*
X137530000Y-113950750D01*
X137530000Y-114691309D01*
X137626673Y-114924698D01*
X137805301Y-115103327D01*
X137939994Y-115159119D01*
X137764449Y-115334357D01*
X137530267Y-115898330D01*
X137529735Y-116508991D01*
X134745000Y-116508991D01*
X134745000Y-112638691D01*
X137530000Y-112638691D01*
X137530000Y-113379250D01*
X137688750Y-113538000D01*
X138938000Y-113538000D01*
X138938000Y-112288750D01*
X139192000Y-112288750D01*
X139192000Y-113538000D01*
X140441250Y-113538000D01*
X140600000Y-113379250D01*
X140600000Y-112638691D01*
X142610000Y-112638691D01*
X142610000Y-113379250D01*
X142768750Y-113538000D01*
X144018000Y-113538000D01*
X144018000Y-112288750D01*
X144272000Y-112288750D01*
X144272000Y-113538000D01*
X145521250Y-113538000D01*
X145680000Y-113379250D01*
X145680000Y-112638691D01*
X145583327Y-112405302D01*
X145404699Y-112226673D01*
X145171310Y-112130000D01*
X144430750Y-112130000D01*
X144272000Y-112288750D01*
X144018000Y-112288750D01*
X143859250Y-112130000D01*
X143118690Y-112130000D01*
X142885301Y-112226673D01*
X142706673Y-112405302D01*
X142610000Y-112638691D01*
X140600000Y-112638691D01*
X140503327Y-112405302D01*
X140324699Y-112226673D01*
X140091310Y-112130000D01*
X139350750Y-112130000D01*
X139192000Y-112288750D01*
X138938000Y-112288750D01*
X138779250Y-112130000D01*
X138038690Y-112130000D01*
X137805301Y-112226673D01*
X137626673Y-112405302D01*
X137530000Y-112638691D01*
X134745000Y-112638691D01*
X134745000Y-109576890D01*
X137623524Y-109576890D01*
X137793355Y-109986924D01*
X138183642Y-110415183D01*
X138708108Y-110661486D01*
X138938000Y-110540819D01*
X138938000Y-109347000D01*
X139192000Y-109347000D01*
X139192000Y-110540819D01*
X139421892Y-110661486D01*
X139946358Y-110415183D01*
X140336645Y-109986924D01*
X140506476Y-109576890D01*
X143338524Y-109576890D01*
X143508355Y-109986924D01*
X143898642Y-110415183D01*
X144423108Y-110661486D01*
X144653000Y-110540819D01*
X144653000Y-109347000D01*
X144907000Y-109347000D01*
X144907000Y-110540819D01*
X145136892Y-110661486D01*
X145661358Y-110415183D01*
X146051645Y-109986924D01*
X146221476Y-109576890D01*
X146100155Y-109347000D01*
X144907000Y-109347000D01*
X144653000Y-109347000D01*
X143459845Y-109347000D01*
X143338524Y-109576890D01*
X140506476Y-109576890D01*
X140385155Y-109347000D01*
X139192000Y-109347000D01*
X138938000Y-109347000D01*
X137744845Y-109347000D01*
X137623524Y-109576890D01*
X134745000Y-109576890D01*
X134745000Y-105830000D01*
X137567560Y-105830000D01*
X137567560Y-107530000D01*
X137611838Y-107765317D01*
X137750910Y-107981441D01*
X137963110Y-108126431D01*
X138071107Y-108148301D01*
X137793355Y-108453076D01*
X137623524Y-108863110D01*
X137744845Y-109093000D01*
X138938000Y-109093000D01*
X138938000Y-109073000D01*
X139192000Y-109073000D01*
X139192000Y-109093000D01*
X140385155Y-109093000D01*
X140506476Y-108863110D01*
X140336645Y-108453076D01*
X140060499Y-108150063D01*
X140150317Y-108133162D01*
X140366441Y-107994090D01*
X140511431Y-107781890D01*
X140562440Y-107530000D01*
X140562440Y-105830000D01*
X143282560Y-105830000D01*
X143282560Y-107530000D01*
X143326838Y-107765317D01*
X143465910Y-107981441D01*
X143678110Y-108126431D01*
X143786107Y-108148301D01*
X143508355Y-108453076D01*
X143338524Y-108863110D01*
X143459845Y-109093000D01*
X144653000Y-109093000D01*
X144653000Y-109073000D01*
X144907000Y-109073000D01*
X144907000Y-109093000D01*
X146100155Y-109093000D01*
X146221476Y-108863110D01*
X146051645Y-108453076D01*
X145775499Y-108150063D01*
X145865317Y-108133162D01*
X146081441Y-107994090D01*
X146226431Y-107781890D01*
X146277440Y-107530000D01*
X146277440Y-105830000D01*
X146233162Y-105594683D01*
X146094090Y-105378559D01*
X145881890Y-105233569D01*
X145630000Y-105182560D01*
X143930000Y-105182560D01*
X143694683Y-105226838D01*
X143478559Y-105365910D01*
X143333569Y-105578110D01*
X143282560Y-105830000D01*
X140562440Y-105830000D01*
X140518162Y-105594683D01*
X140379090Y-105378559D01*
X140166890Y-105233569D01*
X139915000Y-105182560D01*
X138215000Y-105182560D01*
X137979683Y-105226838D01*
X137763559Y-105365910D01*
X137618569Y-105578110D01*
X137567560Y-105830000D01*
X134745000Y-105830000D01*
X134745000Y-101884187D01*
X137629752Y-101884187D01*
X137847757Y-102411800D01*
X138251077Y-102815824D01*
X138778309Y-103034750D01*
X139349187Y-103035248D01*
X139876800Y-102817243D01*
X140280824Y-102413923D01*
X140499750Y-101886691D01*
X140499752Y-101884187D01*
X143344752Y-101884187D01*
X143562757Y-102411800D01*
X143966077Y-102815824D01*
X144493309Y-103034750D01*
X145064187Y-103035248D01*
X145591800Y-102817243D01*
X145995824Y-102413923D01*
X146214750Y-101886691D01*
X146215248Y-101315813D01*
X145997243Y-100788200D01*
X145593923Y-100384176D01*
X145443432Y-100321687D01*
X145517423Y-100291041D01*
X145932389Y-99915134D01*
X146171914Y-99409041D01*
X146050629Y-99187000D01*
X144907000Y-99187000D01*
X144907000Y-99207000D01*
X144653000Y-99207000D01*
X144653000Y-99187000D01*
X143509371Y-99187000D01*
X143388086Y-99409041D01*
X143627611Y-99915134D01*
X144042577Y-100291041D01*
X144116285Y-100321570D01*
X143968200Y-100382757D01*
X143564176Y-100786077D01*
X143345250Y-101313309D01*
X143344752Y-101884187D01*
X140499752Y-101884187D01*
X140500248Y-101315813D01*
X140282243Y-100788200D01*
X139878923Y-100384176D01*
X139728432Y-100321687D01*
X139802423Y-100291041D01*
X140217389Y-99915134D01*
X140456914Y-99409041D01*
X140335629Y-99187000D01*
X139192000Y-99187000D01*
X139192000Y-99207000D01*
X138938000Y-99207000D01*
X138938000Y-99187000D01*
X137794371Y-99187000D01*
X137673086Y-99409041D01*
X137912611Y-99915134D01*
X138327577Y-100291041D01*
X138401285Y-100321570D01*
X138253200Y-100382757D01*
X137849176Y-100786077D01*
X137630250Y-101313309D01*
X137629752Y-101884187D01*
X134745000Y-101884187D01*
X134745000Y-98710959D01*
X137673086Y-98710959D01*
X137794371Y-98933000D01*
X138938000Y-98933000D01*
X138938000Y-97790085D01*
X139192000Y-97790085D01*
X139192000Y-98933000D01*
X140335629Y-98933000D01*
X140456914Y-98710959D01*
X143388086Y-98710959D01*
X143509371Y-98933000D01*
X144653000Y-98933000D01*
X144653000Y-97790085D01*
X144907000Y-97790085D01*
X144907000Y-98933000D01*
X146050629Y-98933000D01*
X146171914Y-98710959D01*
X145932389Y-98204866D01*
X145517423Y-97828959D01*
X145129039Y-97668096D01*
X144907000Y-97790085D01*
X144653000Y-97790085D01*
X144430961Y-97668096D01*
X144042577Y-97828959D01*
X143627611Y-98204866D01*
X143388086Y-98710959D01*
X140456914Y-98710959D01*
X140217389Y-98204866D01*
X139802423Y-97828959D01*
X139414039Y-97668096D01*
X139192000Y-97790085D01*
X138938000Y-97790085D01*
X138715961Y-97668096D01*
X138327577Y-97828959D01*
X137912611Y-98204866D01*
X137673086Y-98710959D01*
X134745000Y-98710959D01*
X134745000Y-95250000D01*
X137550907Y-95250000D01*
X137663946Y-95818285D01*
X137985853Y-96300054D01*
X138467622Y-96621961D01*
X139035907Y-96735000D01*
X139094093Y-96735000D01*
X139662378Y-96621961D01*
X140144147Y-96300054D01*
X140466054Y-95818285D01*
X140579093Y-95250000D01*
X143265907Y-95250000D01*
X143378946Y-95818285D01*
X143700853Y-96300054D01*
X144182622Y-96621961D01*
X144750907Y-96735000D01*
X144809093Y-96735000D01*
X145377378Y-96621961D01*
X145859147Y-96300054D01*
X146181054Y-95818285D01*
X146294093Y-95250000D01*
X146181054Y-94681715D01*
X145859147Y-94199946D01*
X145518447Y-93972298D01*
X145661358Y-93905183D01*
X146051645Y-93476924D01*
X146221476Y-93066890D01*
X146100155Y-92837000D01*
X144907000Y-92837000D01*
X144907000Y-92857000D01*
X144653000Y-92857000D01*
X144653000Y-92837000D01*
X143459845Y-92837000D01*
X143338524Y-93066890D01*
X143508355Y-93476924D01*
X143898642Y-93905183D01*
X144041553Y-93972298D01*
X143700853Y-94199946D01*
X143378946Y-94681715D01*
X143265907Y-95250000D01*
X140579093Y-95250000D01*
X140466054Y-94681715D01*
X140144147Y-94199946D01*
X139803447Y-93972298D01*
X139946358Y-93905183D01*
X140336645Y-93476924D01*
X140506476Y-93066890D01*
X140385155Y-92837000D01*
X139192000Y-92837000D01*
X139192000Y-92857000D01*
X138938000Y-92857000D01*
X138938000Y-92837000D01*
X137744845Y-92837000D01*
X137623524Y-93066890D01*
X137793355Y-93476924D01*
X138183642Y-93905183D01*
X138326553Y-93972298D01*
X137985853Y-94199946D01*
X137663946Y-94681715D01*
X137550907Y-95250000D01*
X134745000Y-95250000D01*
X134745000Y-89320000D01*
X137567560Y-89320000D01*
X137567560Y-91020000D01*
X137611838Y-91255317D01*
X137750910Y-91471441D01*
X137963110Y-91616431D01*
X138071107Y-91638301D01*
X137793355Y-91943076D01*
X137623524Y-92353110D01*
X137744845Y-92583000D01*
X138938000Y-92583000D01*
X138938000Y-92563000D01*
X139192000Y-92563000D01*
X139192000Y-92583000D01*
X140385155Y-92583000D01*
X140506476Y-92353110D01*
X140336645Y-91943076D01*
X140060499Y-91640063D01*
X140150317Y-91623162D01*
X140366441Y-91484090D01*
X140511431Y-91271890D01*
X140562440Y-91020000D01*
X140562440Y-89320000D01*
X143282560Y-89320000D01*
X143282560Y-91020000D01*
X143326838Y-91255317D01*
X143465910Y-91471441D01*
X143678110Y-91616431D01*
X143786107Y-91638301D01*
X143508355Y-91943076D01*
X143338524Y-92353110D01*
X143459845Y-92583000D01*
X144653000Y-92583000D01*
X144653000Y-92563000D01*
X144907000Y-92563000D01*
X144907000Y-92583000D01*
X146100155Y-92583000D01*
X146221476Y-92353110D01*
X146051645Y-91943076D01*
X145775499Y-91640063D01*
X145865317Y-91623162D01*
X146081441Y-91484090D01*
X146226431Y-91271890D01*
X146277440Y-91020000D01*
X146277440Y-89320000D01*
X146233162Y-89084683D01*
X146094090Y-88868559D01*
X145881890Y-88723569D01*
X145630000Y-88672560D01*
X143930000Y-88672560D01*
X143694683Y-88716838D01*
X143478559Y-88855910D01*
X143333569Y-89068110D01*
X143282560Y-89320000D01*
X140562440Y-89320000D01*
X140518162Y-89084683D01*
X140379090Y-88868559D01*
X140166890Y-88723569D01*
X139915000Y-88672560D01*
X138215000Y-88672560D01*
X137979683Y-88716838D01*
X137763559Y-88855910D01*
X137618569Y-89068110D01*
X137567560Y-89320000D01*
X134745000Y-89320000D01*
X134745000Y-79375000D01*
X134698049Y-79138964D01*
X134687148Y-79084160D01*
X134522401Y-78837599D01*
X131401274Y-75716472D01*
X131444772Y-75611718D01*
X131445226Y-75090568D01*
X131246211Y-74608914D01*
X130878024Y-74240084D01*
X130822369Y-74216974D01*
X130135000Y-73529605D01*
X129448279Y-74216326D01*
X129393914Y-74238789D01*
X129025084Y-74606976D01*
X128825228Y-75088282D01*
X128824774Y-75609432D01*
X125905000Y-75609432D01*
X125905000Y-74877987D01*
X125906800Y-74877243D01*
X126310824Y-74473923D01*
X126529750Y-73946691D01*
X126530248Y-73375813D01*
X126442357Y-73163100D01*
X128812478Y-73163100D01*
X128841625Y-73683434D01*
X128984672Y-74028781D01*
X129217853Y-74087542D01*
X129955395Y-73350000D01*
X130314605Y-73350000D01*
X131052147Y-74087542D01*
X131285328Y-74028781D01*
X131457522Y-73536900D01*
X131428375Y-73016566D01*
X131285328Y-72671219D01*
X131052147Y-72612458D01*
X130314605Y-73350000D01*
X129955395Y-73350000D01*
X129217853Y-72612458D01*
X128984672Y-72671219D01*
X128812478Y-73163100D01*
X126442357Y-73163100D01*
X126312243Y-72848200D01*
X125908923Y-72444176D01*
X125773046Y-72387755D01*
X126109698Y-72162811D01*
X126420767Y-71697264D01*
X126438237Y-71609432D01*
X128824774Y-71609432D01*
X129023789Y-72091086D01*
X129391976Y-72459916D01*
X129447631Y-72483026D01*
X130135000Y-73170395D01*
X130821721Y-72483674D01*
X130876086Y-72461211D01*
X131244916Y-72093024D01*
X131444772Y-71611718D01*
X131445226Y-71090568D01*
X131246211Y-70608914D01*
X130878024Y-70240084D01*
X130396718Y-70040228D01*
X129875568Y-70039774D01*
X129393914Y-70238789D01*
X129025084Y-70606976D01*
X128825228Y-71088282D01*
X128824774Y-71609432D01*
X126438237Y-71609432D01*
X126530000Y-71148113D01*
X126530000Y-71091887D01*
X126420767Y-70542736D01*
X126109698Y-70077189D01*
X125855000Y-69907005D01*
X125855000Y-65825000D01*
X130582560Y-65825000D01*
X130582560Y-67525000D01*
X130626838Y-67760317D01*
X130765910Y-67976441D01*
X130978110Y-68121431D01*
X131230000Y-68172440D01*
X132930000Y-68172440D01*
X133165317Y-68128162D01*
X133381441Y-67989090D01*
X133526431Y-67776890D01*
X133577440Y-67525000D01*
X133577440Y-65825000D01*
X135662560Y-65825000D01*
X135662560Y-67525000D01*
X135706838Y-67760317D01*
X135845910Y-67976441D01*
X136058110Y-68121431D01*
X136310000Y-68172440D01*
X138010000Y-68172440D01*
X138245317Y-68128162D01*
X138461441Y-67989090D01*
X138606431Y-67776890D01*
X138657440Y-67525000D01*
X138657440Y-65825000D01*
X145822560Y-65825000D01*
X145822560Y-67525000D01*
X145866838Y-67760317D01*
X146005910Y-67976441D01*
X146218110Y-68121431D01*
X146470000Y-68172440D01*
X148170000Y-68172440D01*
X148405317Y-68128162D01*
X148621441Y-67989090D01*
X148766431Y-67776890D01*
X148817440Y-67525000D01*
X148817440Y-65825000D01*
X148773162Y-65589683D01*
X148634090Y-65373559D01*
X148421890Y-65228569D01*
X148313893Y-65206699D01*
X148591645Y-64901924D01*
X148761476Y-64491890D01*
X148640155Y-64262000D01*
X147447000Y-64262000D01*
X147447000Y-64282000D01*
X147193000Y-64282000D01*
X147193000Y-64262000D01*
X145999845Y-64262000D01*
X145878524Y-64491890D01*
X146048355Y-64901924D01*
X146324501Y-65204937D01*
X146234683Y-65221838D01*
X146018559Y-65360910D01*
X145873569Y-65573110D01*
X145822560Y-65825000D01*
X138657440Y-65825000D01*
X138613162Y-65589683D01*
X138474090Y-65373559D01*
X138261890Y-65228569D01*
X138153893Y-65206699D01*
X138431645Y-64901924D01*
X138601476Y-64491890D01*
X138480155Y-64262000D01*
X137287000Y-64262000D01*
X137287000Y-64282000D01*
X137033000Y-64282000D01*
X137033000Y-64262000D01*
X135839845Y-64262000D01*
X135718524Y-64491890D01*
X135888355Y-64901924D01*
X136164501Y-65204937D01*
X136074683Y-65221838D01*
X135858559Y-65360910D01*
X135713569Y-65573110D01*
X135662560Y-65825000D01*
X133577440Y-65825000D01*
X133533162Y-65589683D01*
X133394090Y-65373559D01*
X133181890Y-65228569D01*
X133073893Y-65206699D01*
X133351645Y-64901924D01*
X133521476Y-64491890D01*
X133400155Y-64262000D01*
X132207000Y-64262000D01*
X132207000Y-64282000D01*
X131953000Y-64282000D01*
X131953000Y-64262000D01*
X130759845Y-64262000D01*
X130638524Y-64491890D01*
X130808355Y-64901924D01*
X131084501Y-65204937D01*
X130994683Y-65221838D01*
X130778559Y-65360910D01*
X130633569Y-65573110D01*
X130582560Y-65825000D01*
X125855000Y-65825000D01*
X125855000Y-64770000D01*
X125797148Y-64479161D01*
X125632401Y-64232599D01*
X123361210Y-61961408D01*
X123434093Y-61595000D01*
X123321054Y-61026715D01*
X122999147Y-60544946D01*
X122669974Y-60325000D01*
X122999147Y-60105054D01*
X123321054Y-59623285D01*
X123434093Y-59055000D01*
X130565907Y-59055000D01*
X130678946Y-59623285D01*
X131000853Y-60105054D01*
X131330026Y-60325000D01*
X131000853Y-60544946D01*
X130678946Y-61026715D01*
X130565907Y-61595000D01*
X130678946Y-62163285D01*
X131000853Y-62645054D01*
X131341553Y-62872702D01*
X131198642Y-62939817D01*
X130808355Y-63368076D01*
X130638524Y-63778110D01*
X130759845Y-64008000D01*
X131953000Y-64008000D01*
X131953000Y-63988000D01*
X132207000Y-63988000D01*
X132207000Y-64008000D01*
X133400155Y-64008000D01*
X133521476Y-63778110D01*
X133351645Y-63368076D01*
X132961358Y-62939817D01*
X132818447Y-62872702D01*
X133159147Y-62645054D01*
X133481054Y-62163285D01*
X133594093Y-61595000D01*
X133481054Y-61026715D01*
X133159147Y-60544946D01*
X132829974Y-60325000D01*
X133159147Y-60105054D01*
X133481054Y-59623285D01*
X133594093Y-59055000D01*
X135645907Y-59055000D01*
X135758946Y-59623285D01*
X136080853Y-60105054D01*
X136410026Y-60325000D01*
X136080853Y-60544946D01*
X135758946Y-61026715D01*
X135645907Y-61595000D01*
X135758946Y-62163285D01*
X136080853Y-62645054D01*
X136421553Y-62872702D01*
X136278642Y-62939817D01*
X135888355Y-63368076D01*
X135718524Y-63778110D01*
X135839845Y-64008000D01*
X137033000Y-64008000D01*
X137033000Y-63988000D01*
X137287000Y-63988000D01*
X137287000Y-64008000D01*
X138480155Y-64008000D01*
X138601476Y-63778110D01*
X138431645Y-63368076D01*
X138041358Y-62939817D01*
X137898447Y-62872702D01*
X138239147Y-62645054D01*
X138561054Y-62163285D01*
X138674093Y-61595000D01*
X138561054Y-61026715D01*
X138239147Y-60544946D01*
X137909974Y-60325000D01*
X138239147Y-60105054D01*
X138561054Y-59623285D01*
X138674093Y-59055000D01*
X145805907Y-59055000D01*
X145918946Y-59623285D01*
X146240853Y-60105054D01*
X146570026Y-60325000D01*
X146240853Y-60544946D01*
X145918946Y-61026715D01*
X145805907Y-61595000D01*
X145918946Y-62163285D01*
X146240853Y-62645054D01*
X146581553Y-62872702D01*
X146438642Y-62939817D01*
X146048355Y-63368076D01*
X145878524Y-63778110D01*
X145999845Y-64008000D01*
X147193000Y-64008000D01*
X147193000Y-63988000D01*
X147447000Y-63988000D01*
X147447000Y-64008000D01*
X148640155Y-64008000D01*
X148761476Y-63778110D01*
X148591645Y-63368076D01*
X148201358Y-62939817D01*
X148058447Y-62872702D01*
X148399147Y-62645054D01*
X148721054Y-62163285D01*
X148834093Y-61595000D01*
X148721054Y-61026715D01*
X148399147Y-60544946D01*
X148069974Y-60325000D01*
X148399147Y-60105054D01*
X148721054Y-59623285D01*
X148834093Y-59055000D01*
X148721054Y-58486715D01*
X148399147Y-58004946D01*
X147917378Y-57683039D01*
X147349093Y-57570000D01*
X147290907Y-57570000D01*
X146722622Y-57683039D01*
X146240853Y-58004946D01*
X145918946Y-58486715D01*
X145805907Y-59055000D01*
X138674093Y-59055000D01*
X138561054Y-58486715D01*
X138239147Y-58004946D01*
X137757378Y-57683039D01*
X137189093Y-57570000D01*
X137130907Y-57570000D01*
X136562622Y-57683039D01*
X136080853Y-58004946D01*
X135758946Y-58486715D01*
X135645907Y-59055000D01*
X133594093Y-59055000D01*
X133481054Y-58486715D01*
X133159147Y-58004946D01*
X132677378Y-57683039D01*
X132109093Y-57570000D01*
X132050907Y-57570000D01*
X131482622Y-57683039D01*
X131000853Y-58004946D01*
X130678946Y-58486715D01*
X130565907Y-59055000D01*
X123434093Y-59055000D01*
X123321054Y-58486715D01*
X122999147Y-58004946D01*
X122517378Y-57683039D01*
X121949093Y-57570000D01*
X121890907Y-57570000D01*
X121322622Y-57683039D01*
X120840853Y-58004946D01*
X120518946Y-58486715D01*
X120405907Y-59055000D01*
X119010000Y-59055000D01*
X119010265Y-58751009D01*
X118777068Y-58186629D01*
X118345643Y-57754449D01*
X118324806Y-57745797D01*
X118375554Y-57595159D01*
X117475000Y-56694605D01*
X116574446Y-57595159D01*
X116625035Y-57745327D01*
X116606629Y-57752932D01*
X116174449Y-58184357D01*
X115940267Y-58748330D01*
X115939735Y-59358991D01*
X116172932Y-59923371D01*
X116574182Y-60325323D01*
X116174449Y-60724357D01*
X115940267Y-61288330D01*
X115939909Y-61698950D01*
X115805643Y-61564449D01*
X115241670Y-61330267D01*
X114631009Y-61329735D01*
X114066629Y-61562932D01*
X113634449Y-61994357D01*
X113400267Y-62558330D01*
X113399735Y-63168991D01*
X113632932Y-63733371D01*
X114034182Y-64135323D01*
X113634449Y-64534357D01*
X113400267Y-65098330D01*
X113399735Y-65708991D01*
X113632932Y-66273371D01*
X114064357Y-66705551D01*
X114628330Y-66939733D01*
X115238991Y-66940265D01*
X115803371Y-66707068D01*
X115940091Y-66570587D01*
X115939735Y-66978991D01*
X116172932Y-67543371D01*
X116574182Y-67945323D01*
X116174449Y-68344357D01*
X115940267Y-68908330D01*
X115939735Y-69518991D01*
X116172932Y-70083371D01*
X116574182Y-70485323D01*
X116174449Y-70884357D01*
X115940267Y-71448330D01*
X115939735Y-72058991D01*
X116172932Y-72623371D01*
X116574182Y-73025323D01*
X116174449Y-73424357D01*
X115940267Y-73988330D01*
X115939735Y-74598991D01*
X116172932Y-75163371D01*
X116574182Y-75565323D01*
X116174449Y-75964357D01*
X115940267Y-76528330D01*
X115939735Y-77138991D01*
X116172932Y-77703371D01*
X116574182Y-78105323D01*
X116174449Y-78504357D01*
X115940267Y-79068330D01*
X115939735Y-79678991D01*
X115962303Y-79733609D01*
X115676057Y-79851883D01*
X115642882Y-79885000D01*
X113592463Y-79885000D01*
X113560327Y-79852808D01*
X113216799Y-79710162D01*
X112844833Y-79709838D01*
X112501057Y-79851883D01*
X112237808Y-80114673D01*
X112095162Y-80458201D01*
X112094838Y-80830167D01*
X103320985Y-80830167D01*
X103135818Y-80644677D01*
X103535551Y-80245643D01*
X103580332Y-80137799D01*
X103609673Y-80167192D01*
X103953201Y-80309838D01*
X104325167Y-80310162D01*
X104668943Y-80168117D01*
X104932192Y-79905327D01*
X105074838Y-79561799D01*
X105075162Y-79189833D01*
X104933117Y-78846057D01*
X104670327Y-78582808D01*
X104326799Y-78440162D01*
X104279923Y-78440121D01*
X103538454Y-77698652D01*
X103769733Y-77141670D01*
X103770265Y-76531009D01*
X103537068Y-75966629D01*
X103135818Y-75564677D01*
X103535551Y-75165643D01*
X103769733Y-74601670D01*
X103770265Y-73991009D01*
X103537068Y-73426629D01*
X103135818Y-73024677D01*
X103535551Y-72625643D01*
X103769733Y-72061670D01*
X103770265Y-71451009D01*
X103537068Y-70886629D01*
X103135818Y-70484677D01*
X103535551Y-70085643D01*
X103769733Y-69521670D01*
X103770265Y-68911009D01*
X103537068Y-68346629D01*
X103135818Y-67944677D01*
X103535551Y-67545643D01*
X103769733Y-66981670D01*
X103770265Y-66371009D01*
X103537068Y-65806629D01*
X103135818Y-65404677D01*
X103535551Y-65005643D01*
X103769733Y-64441670D01*
X103770265Y-63831009D01*
X103537068Y-63266629D01*
X103105643Y-62834449D01*
X103084806Y-62825797D01*
X103135554Y-62675159D01*
X102235000Y-61774605D01*
X101334446Y-62675159D01*
X101385035Y-62825327D01*
X101366629Y-62832932D01*
X101040000Y-63158990D01*
X101040000Y-62456866D01*
X101154841Y-62495554D01*
X102055395Y-61595000D01*
X102414605Y-61595000D01*
X103315159Y-62495554D01*
X103571643Y-62409148D01*
X103781458Y-61835664D01*
X103755839Y-61225540D01*
X103571643Y-60780852D01*
X103315159Y-60694446D01*
X102414605Y-61595000D01*
X102055395Y-61595000D01*
X101154841Y-60694446D01*
X101040000Y-60733134D01*
X101040000Y-60030626D01*
X101364357Y-60355551D01*
X101385194Y-60364203D01*
X101334446Y-60514841D01*
X102235000Y-61415395D01*
X103135554Y-60514841D01*
X103084965Y-60364673D01*
X103103371Y-60357068D01*
X103535551Y-59925643D01*
X103769733Y-59361670D01*
X103770265Y-58751009D01*
X103537068Y-58186629D01*
X103135818Y-57784677D01*
X103535551Y-57385643D01*
X103769733Y-56821670D01*
X103770209Y-56274336D01*
X115928542Y-56274336D01*
X115954161Y-56884460D01*
X116138357Y-57329148D01*
X116394841Y-57415554D01*
X117295395Y-56515000D01*
X117654605Y-56515000D01*
X118555159Y-57415554D01*
X118811643Y-57329148D01*
X119021458Y-56755664D01*
X118995839Y-56145540D01*
X118811643Y-55700852D01*
X118555159Y-55614446D01*
X117654605Y-56515000D01*
X117295395Y-56515000D01*
X116394841Y-55614446D01*
X116138357Y-55700852D01*
X115928542Y-56274336D01*
X103770209Y-56274336D01*
X103770265Y-56211009D01*
X103537068Y-55646629D01*
X103135818Y-55244677D01*
X103535551Y-54845643D01*
X103769733Y-54281670D01*
X103770265Y-53671009D01*
X103612009Y-53288000D01*
X116098194Y-53288000D01*
X115940267Y-53668330D01*
X115939735Y-54278991D01*
X116172932Y-54843371D01*
X116604357Y-55275551D01*
X116625194Y-55284203D01*
X116574446Y-55434841D01*
X117475000Y-56335395D01*
X118375554Y-55434841D01*
X118324965Y-55284673D01*
X118343371Y-55277068D01*
X118775551Y-54845643D01*
X119009733Y-54281670D01*
X119010265Y-53671009D01*
X118777068Y-53106629D01*
X118624598Y-52953892D01*
X118804677Y-52833567D01*
X118866595Y-52771649D01*
X119000567Y-52637678D01*
X119248337Y-52266862D01*
X119282848Y-52183545D01*
X119354351Y-52010922D01*
X119441356Y-51573518D01*
X119441358Y-51573514D01*
X119510478Y-51226021D01*
X119628856Y-51048855D01*
X119806019Y-50930479D01*
X120084931Y-50875000D01*
X149155070Y-50875000D01*
X149433979Y-50930478D01*
M02*
