G04 #@! TF.GenerationSoftware,KiCad,Pcbnew,(5.1.5)-3*
G04 #@! TF.CreationDate,2020-05-08T10:51:27+02:00*
G04 #@! TF.ProjectId,HB-RF-USB-2,48422d52-462d-4555-9342-2d322e6b6963,rev?*
G04 #@! TF.SameCoordinates,PX4c4b400PY7270e00*
G04 #@! TF.FileFunction,Paste,Top*
G04 #@! TF.FilePolarity,Positive*
%FSLAX46Y46*%
G04 Gerber Fmt 4.6, Leading zero omitted, Abs format (unit mm)*
G04 Created by KiCad (PCBNEW (5.1.5)-3) date 2020-05-08 10:51:27*
%MOMM*%
%LPD*%
G04 APERTURE LIST*
%ADD10R,0.540000X0.540000*%
%ADD11R,0.300000X0.900000*%
%ADD12R,0.300000X0.300000*%
%ADD13R,0.900000X0.300000*%
%ADD14R,0.650000X1.060000*%
%ADD15C,0.100000*%
%ADD16R,0.900000X0.800000*%
G04 APERTURE END LIST*
D10*
X58056200Y10696600D03*
X58056200Y9796600D03*
X58956200Y10696600D03*
X58956200Y9796600D03*
D11*
X59256200Y8696600D03*
X58756200Y8696600D03*
X58256200Y8696600D03*
X57756200Y8696600D03*
D12*
X57256200Y8996600D03*
D13*
X56956200Y9496600D03*
X56956200Y9996600D03*
X56956200Y10496600D03*
X56956200Y10996600D03*
D12*
X57256200Y11496600D03*
D11*
X57756200Y11796600D03*
X58256200Y11796600D03*
X58756200Y11796600D03*
X59256200Y11796600D03*
D12*
X59756200Y11496600D03*
D13*
X60056200Y10996600D03*
X60056200Y10496600D03*
X60056200Y9996600D03*
X60056200Y9496600D03*
D12*
X59756200Y8996600D03*
D14*
X66497000Y6505000D03*
X67447000Y6505000D03*
X68397000Y6505000D03*
X68397000Y8705000D03*
X66497000Y8705000D03*
X67447000Y8705000D03*
D15*
G36*
X60473958Y13563090D02*
G01*
X60488276Y13560966D01*
X60502317Y13557449D01*
X60515946Y13552572D01*
X60529031Y13546383D01*
X60541447Y13538942D01*
X60553073Y13530319D01*
X60563798Y13520598D01*
X60573519Y13509873D01*
X60582142Y13498247D01*
X60589583Y13485831D01*
X60595772Y13472746D01*
X60600649Y13459117D01*
X60604166Y13445076D01*
X60606290Y13430758D01*
X60607000Y13416300D01*
X60607000Y13071300D01*
X60606290Y13056842D01*
X60604166Y13042524D01*
X60600649Y13028483D01*
X60595772Y13014854D01*
X60589583Y13001769D01*
X60582142Y12989353D01*
X60573519Y12977727D01*
X60563798Y12967002D01*
X60553073Y12957281D01*
X60541447Y12948658D01*
X60529031Y12941217D01*
X60515946Y12935028D01*
X60502317Y12930151D01*
X60488276Y12926634D01*
X60473958Y12924510D01*
X60459500Y12923800D01*
X60164500Y12923800D01*
X60150042Y12924510D01*
X60135724Y12926634D01*
X60121683Y12930151D01*
X60108054Y12935028D01*
X60094969Y12941217D01*
X60082553Y12948658D01*
X60070927Y12957281D01*
X60060202Y12967002D01*
X60050481Y12977727D01*
X60041858Y12989353D01*
X60034417Y13001769D01*
X60028228Y13014854D01*
X60023351Y13028483D01*
X60019834Y13042524D01*
X60017710Y13056842D01*
X60017000Y13071300D01*
X60017000Y13416300D01*
X60017710Y13430758D01*
X60019834Y13445076D01*
X60023351Y13459117D01*
X60028228Y13472746D01*
X60034417Y13485831D01*
X60041858Y13498247D01*
X60050481Y13509873D01*
X60060202Y13520598D01*
X60070927Y13530319D01*
X60082553Y13538942D01*
X60094969Y13546383D01*
X60108054Y13552572D01*
X60121683Y13557449D01*
X60135724Y13560966D01*
X60150042Y13563090D01*
X60164500Y13563800D01*
X60459500Y13563800D01*
X60473958Y13563090D01*
G37*
G36*
X59503958Y13563090D02*
G01*
X59518276Y13560966D01*
X59532317Y13557449D01*
X59545946Y13552572D01*
X59559031Y13546383D01*
X59571447Y13538942D01*
X59583073Y13530319D01*
X59593798Y13520598D01*
X59603519Y13509873D01*
X59612142Y13498247D01*
X59619583Y13485831D01*
X59625772Y13472746D01*
X59630649Y13459117D01*
X59634166Y13445076D01*
X59636290Y13430758D01*
X59637000Y13416300D01*
X59637000Y13071300D01*
X59636290Y13056842D01*
X59634166Y13042524D01*
X59630649Y13028483D01*
X59625772Y13014854D01*
X59619583Y13001769D01*
X59612142Y12989353D01*
X59603519Y12977727D01*
X59593798Y12967002D01*
X59583073Y12957281D01*
X59571447Y12948658D01*
X59559031Y12941217D01*
X59545946Y12935028D01*
X59532317Y12930151D01*
X59518276Y12926634D01*
X59503958Y12924510D01*
X59489500Y12923800D01*
X59194500Y12923800D01*
X59180042Y12924510D01*
X59165724Y12926634D01*
X59151683Y12930151D01*
X59138054Y12935028D01*
X59124969Y12941217D01*
X59112553Y12948658D01*
X59100927Y12957281D01*
X59090202Y12967002D01*
X59080481Y12977727D01*
X59071858Y12989353D01*
X59064417Y13001769D01*
X59058228Y13014854D01*
X59053351Y13028483D01*
X59049834Y13042524D01*
X59047710Y13056842D01*
X59047000Y13071300D01*
X59047000Y13416300D01*
X59047710Y13430758D01*
X59049834Y13445076D01*
X59053351Y13459117D01*
X59058228Y13472746D01*
X59064417Y13485831D01*
X59071858Y13498247D01*
X59080481Y13509873D01*
X59090202Y13520598D01*
X59100927Y13530319D01*
X59112553Y13538942D01*
X59124969Y13546383D01*
X59138054Y13552572D01*
X59151683Y13557449D01*
X59165724Y13560966D01*
X59180042Y13563090D01*
X59194500Y13563800D01*
X59489500Y13563800D01*
X59503958Y13563090D01*
G37*
G36*
X11878958Y47611790D02*
G01*
X11893276Y47609666D01*
X11907317Y47606149D01*
X11920946Y47601272D01*
X11934031Y47595083D01*
X11946447Y47587642D01*
X11958073Y47579019D01*
X11968798Y47569298D01*
X11978519Y47558573D01*
X11987142Y47546947D01*
X11994583Y47534531D01*
X12000772Y47521446D01*
X12005649Y47507817D01*
X12009166Y47493776D01*
X12011290Y47479458D01*
X12012000Y47465000D01*
X12012000Y47120000D01*
X12011290Y47105542D01*
X12009166Y47091224D01*
X12005649Y47077183D01*
X12000772Y47063554D01*
X11994583Y47050469D01*
X11987142Y47038053D01*
X11978519Y47026427D01*
X11968798Y47015702D01*
X11958073Y47005981D01*
X11946447Y46997358D01*
X11934031Y46989917D01*
X11920946Y46983728D01*
X11907317Y46978851D01*
X11893276Y46975334D01*
X11878958Y46973210D01*
X11864500Y46972500D01*
X11569500Y46972500D01*
X11555042Y46973210D01*
X11540724Y46975334D01*
X11526683Y46978851D01*
X11513054Y46983728D01*
X11499969Y46989917D01*
X11487553Y46997358D01*
X11475927Y47005981D01*
X11465202Y47015702D01*
X11455481Y47026427D01*
X11446858Y47038053D01*
X11439417Y47050469D01*
X11433228Y47063554D01*
X11428351Y47077183D01*
X11424834Y47091224D01*
X11422710Y47105542D01*
X11422000Y47120000D01*
X11422000Y47465000D01*
X11422710Y47479458D01*
X11424834Y47493776D01*
X11428351Y47507817D01*
X11433228Y47521446D01*
X11439417Y47534531D01*
X11446858Y47546947D01*
X11455481Y47558573D01*
X11465202Y47569298D01*
X11475927Y47579019D01*
X11487553Y47587642D01*
X11499969Y47595083D01*
X11513054Y47601272D01*
X11526683Y47606149D01*
X11540724Y47609666D01*
X11555042Y47611790D01*
X11569500Y47612500D01*
X11864500Y47612500D01*
X11878958Y47611790D01*
G37*
G36*
X12848958Y47611790D02*
G01*
X12863276Y47609666D01*
X12877317Y47606149D01*
X12890946Y47601272D01*
X12904031Y47595083D01*
X12916447Y47587642D01*
X12928073Y47579019D01*
X12938798Y47569298D01*
X12948519Y47558573D01*
X12957142Y47546947D01*
X12964583Y47534531D01*
X12970772Y47521446D01*
X12975649Y47507817D01*
X12979166Y47493776D01*
X12981290Y47479458D01*
X12982000Y47465000D01*
X12982000Y47120000D01*
X12981290Y47105542D01*
X12979166Y47091224D01*
X12975649Y47077183D01*
X12970772Y47063554D01*
X12964583Y47050469D01*
X12957142Y47038053D01*
X12948519Y47026427D01*
X12938798Y47015702D01*
X12928073Y47005981D01*
X12916447Y46997358D01*
X12904031Y46989917D01*
X12890946Y46983728D01*
X12877317Y46978851D01*
X12863276Y46975334D01*
X12848958Y46973210D01*
X12834500Y46972500D01*
X12539500Y46972500D01*
X12525042Y46973210D01*
X12510724Y46975334D01*
X12496683Y46978851D01*
X12483054Y46983728D01*
X12469969Y46989917D01*
X12457553Y46997358D01*
X12445927Y47005981D01*
X12435202Y47015702D01*
X12425481Y47026427D01*
X12416858Y47038053D01*
X12409417Y47050469D01*
X12403228Y47063554D01*
X12398351Y47077183D01*
X12394834Y47091224D01*
X12392710Y47105542D01*
X12392000Y47120000D01*
X12392000Y47465000D01*
X12392710Y47479458D01*
X12394834Y47493776D01*
X12398351Y47507817D01*
X12403228Y47521446D01*
X12409417Y47534531D01*
X12416858Y47546947D01*
X12425481Y47558573D01*
X12435202Y47569298D01*
X12445927Y47579019D01*
X12457553Y47587642D01*
X12469969Y47595083D01*
X12483054Y47601272D01*
X12496683Y47606149D01*
X12510724Y47609666D01*
X12525042Y47611790D01*
X12539500Y47612500D01*
X12834500Y47612500D01*
X12848958Y47611790D01*
G37*
G36*
X12871958Y48818290D02*
G01*
X12886276Y48816166D01*
X12900317Y48812649D01*
X12913946Y48807772D01*
X12927031Y48801583D01*
X12939447Y48794142D01*
X12951073Y48785519D01*
X12961798Y48775798D01*
X12971519Y48765073D01*
X12980142Y48753447D01*
X12987583Y48741031D01*
X12993772Y48727946D01*
X12998649Y48714317D01*
X13002166Y48700276D01*
X13004290Y48685958D01*
X13005000Y48671500D01*
X13005000Y48326500D01*
X13004290Y48312042D01*
X13002166Y48297724D01*
X12998649Y48283683D01*
X12993772Y48270054D01*
X12987583Y48256969D01*
X12980142Y48244553D01*
X12971519Y48232927D01*
X12961798Y48222202D01*
X12951073Y48212481D01*
X12939447Y48203858D01*
X12927031Y48196417D01*
X12913946Y48190228D01*
X12900317Y48185351D01*
X12886276Y48181834D01*
X12871958Y48179710D01*
X12857500Y48179000D01*
X12562500Y48179000D01*
X12548042Y48179710D01*
X12533724Y48181834D01*
X12519683Y48185351D01*
X12506054Y48190228D01*
X12492969Y48196417D01*
X12480553Y48203858D01*
X12468927Y48212481D01*
X12458202Y48222202D01*
X12448481Y48232927D01*
X12439858Y48244553D01*
X12432417Y48256969D01*
X12426228Y48270054D01*
X12421351Y48283683D01*
X12417834Y48297724D01*
X12415710Y48312042D01*
X12415000Y48326500D01*
X12415000Y48671500D01*
X12415710Y48685958D01*
X12417834Y48700276D01*
X12421351Y48714317D01*
X12426228Y48727946D01*
X12432417Y48741031D01*
X12439858Y48753447D01*
X12448481Y48765073D01*
X12458202Y48775798D01*
X12468927Y48785519D01*
X12480553Y48794142D01*
X12492969Y48801583D01*
X12506054Y48807772D01*
X12519683Y48812649D01*
X12533724Y48816166D01*
X12548042Y48818290D01*
X12562500Y48819000D01*
X12857500Y48819000D01*
X12871958Y48818290D01*
G37*
G36*
X11901958Y48818290D02*
G01*
X11916276Y48816166D01*
X11930317Y48812649D01*
X11943946Y48807772D01*
X11957031Y48801583D01*
X11969447Y48794142D01*
X11981073Y48785519D01*
X11991798Y48775798D01*
X12001519Y48765073D01*
X12010142Y48753447D01*
X12017583Y48741031D01*
X12023772Y48727946D01*
X12028649Y48714317D01*
X12032166Y48700276D01*
X12034290Y48685958D01*
X12035000Y48671500D01*
X12035000Y48326500D01*
X12034290Y48312042D01*
X12032166Y48297724D01*
X12028649Y48283683D01*
X12023772Y48270054D01*
X12017583Y48256969D01*
X12010142Y48244553D01*
X12001519Y48232927D01*
X11991798Y48222202D01*
X11981073Y48212481D01*
X11969447Y48203858D01*
X11957031Y48196417D01*
X11943946Y48190228D01*
X11930317Y48185351D01*
X11916276Y48181834D01*
X11901958Y48179710D01*
X11887500Y48179000D01*
X11592500Y48179000D01*
X11578042Y48179710D01*
X11563724Y48181834D01*
X11549683Y48185351D01*
X11536054Y48190228D01*
X11522969Y48196417D01*
X11510553Y48203858D01*
X11498927Y48212481D01*
X11488202Y48222202D01*
X11478481Y48232927D01*
X11469858Y48244553D01*
X11462417Y48256969D01*
X11456228Y48270054D01*
X11451351Y48283683D01*
X11447834Y48297724D01*
X11445710Y48312042D01*
X11445000Y48326500D01*
X11445000Y48671500D01*
X11445710Y48685958D01*
X11447834Y48700276D01*
X11451351Y48714317D01*
X11456228Y48727946D01*
X11462417Y48741031D01*
X11469858Y48753447D01*
X11478481Y48765073D01*
X11488202Y48775798D01*
X11498927Y48785519D01*
X11510553Y48794142D01*
X11522969Y48801583D01*
X11536054Y48807772D01*
X11549683Y48812649D01*
X11563724Y48816166D01*
X11578042Y48818290D01*
X11592500Y48819000D01*
X11887500Y48819000D01*
X11901958Y48818290D01*
G37*
G36*
X7895958Y43420790D02*
G01*
X7910276Y43418666D01*
X7924317Y43415149D01*
X7937946Y43410272D01*
X7951031Y43404083D01*
X7963447Y43396642D01*
X7975073Y43388019D01*
X7985798Y43378298D01*
X7995519Y43367573D01*
X8004142Y43355947D01*
X8011583Y43343531D01*
X8017772Y43330446D01*
X8022649Y43316817D01*
X8026166Y43302776D01*
X8028290Y43288458D01*
X8029000Y43274000D01*
X8029000Y42929000D01*
X8028290Y42914542D01*
X8026166Y42900224D01*
X8022649Y42886183D01*
X8017772Y42872554D01*
X8011583Y42859469D01*
X8004142Y42847053D01*
X7995519Y42835427D01*
X7985798Y42824702D01*
X7975073Y42814981D01*
X7963447Y42806358D01*
X7951031Y42798917D01*
X7937946Y42792728D01*
X7924317Y42787851D01*
X7910276Y42784334D01*
X7895958Y42782210D01*
X7881500Y42781500D01*
X7586500Y42781500D01*
X7572042Y42782210D01*
X7557724Y42784334D01*
X7543683Y42787851D01*
X7530054Y42792728D01*
X7516969Y42798917D01*
X7504553Y42806358D01*
X7492927Y42814981D01*
X7482202Y42824702D01*
X7472481Y42835427D01*
X7463858Y42847053D01*
X7456417Y42859469D01*
X7450228Y42872554D01*
X7445351Y42886183D01*
X7441834Y42900224D01*
X7439710Y42914542D01*
X7439000Y42929000D01*
X7439000Y43274000D01*
X7439710Y43288458D01*
X7441834Y43302776D01*
X7445351Y43316817D01*
X7450228Y43330446D01*
X7456417Y43343531D01*
X7463858Y43355947D01*
X7472481Y43367573D01*
X7482202Y43378298D01*
X7492927Y43388019D01*
X7504553Y43396642D01*
X7516969Y43404083D01*
X7530054Y43410272D01*
X7543683Y43415149D01*
X7557724Y43418666D01*
X7572042Y43420790D01*
X7586500Y43421500D01*
X7881500Y43421500D01*
X7895958Y43420790D01*
G37*
G36*
X6925958Y43420790D02*
G01*
X6940276Y43418666D01*
X6954317Y43415149D01*
X6967946Y43410272D01*
X6981031Y43404083D01*
X6993447Y43396642D01*
X7005073Y43388019D01*
X7015798Y43378298D01*
X7025519Y43367573D01*
X7034142Y43355947D01*
X7041583Y43343531D01*
X7047772Y43330446D01*
X7052649Y43316817D01*
X7056166Y43302776D01*
X7058290Y43288458D01*
X7059000Y43274000D01*
X7059000Y42929000D01*
X7058290Y42914542D01*
X7056166Y42900224D01*
X7052649Y42886183D01*
X7047772Y42872554D01*
X7041583Y42859469D01*
X7034142Y42847053D01*
X7025519Y42835427D01*
X7015798Y42824702D01*
X7005073Y42814981D01*
X6993447Y42806358D01*
X6981031Y42798917D01*
X6967946Y42792728D01*
X6954317Y42787851D01*
X6940276Y42784334D01*
X6925958Y42782210D01*
X6911500Y42781500D01*
X6616500Y42781500D01*
X6602042Y42782210D01*
X6587724Y42784334D01*
X6573683Y42787851D01*
X6560054Y42792728D01*
X6546969Y42798917D01*
X6534553Y42806358D01*
X6522927Y42814981D01*
X6512202Y42824702D01*
X6502481Y42835427D01*
X6493858Y42847053D01*
X6486417Y42859469D01*
X6480228Y42872554D01*
X6475351Y42886183D01*
X6471834Y42900224D01*
X6469710Y42914542D01*
X6469000Y42929000D01*
X6469000Y43274000D01*
X6469710Y43288458D01*
X6471834Y43302776D01*
X6475351Y43316817D01*
X6480228Y43330446D01*
X6486417Y43343531D01*
X6493858Y43355947D01*
X6502481Y43367573D01*
X6512202Y43378298D01*
X6522927Y43388019D01*
X6534553Y43396642D01*
X6546969Y43404083D01*
X6560054Y43410272D01*
X6573683Y43415149D01*
X6587724Y43418666D01*
X6602042Y43420790D01*
X6616500Y43421500D01*
X6911500Y43421500D01*
X6925958Y43420790D01*
G37*
G36*
X7895958Y42277790D02*
G01*
X7910276Y42275666D01*
X7924317Y42272149D01*
X7937946Y42267272D01*
X7951031Y42261083D01*
X7963447Y42253642D01*
X7975073Y42245019D01*
X7985798Y42235298D01*
X7995519Y42224573D01*
X8004142Y42212947D01*
X8011583Y42200531D01*
X8017772Y42187446D01*
X8022649Y42173817D01*
X8026166Y42159776D01*
X8028290Y42145458D01*
X8029000Y42131000D01*
X8029000Y41786000D01*
X8028290Y41771542D01*
X8026166Y41757224D01*
X8022649Y41743183D01*
X8017772Y41729554D01*
X8011583Y41716469D01*
X8004142Y41704053D01*
X7995519Y41692427D01*
X7985798Y41681702D01*
X7975073Y41671981D01*
X7963447Y41663358D01*
X7951031Y41655917D01*
X7937946Y41649728D01*
X7924317Y41644851D01*
X7910276Y41641334D01*
X7895958Y41639210D01*
X7881500Y41638500D01*
X7586500Y41638500D01*
X7572042Y41639210D01*
X7557724Y41641334D01*
X7543683Y41644851D01*
X7530054Y41649728D01*
X7516969Y41655917D01*
X7504553Y41663358D01*
X7492927Y41671981D01*
X7482202Y41681702D01*
X7472481Y41692427D01*
X7463858Y41704053D01*
X7456417Y41716469D01*
X7450228Y41729554D01*
X7445351Y41743183D01*
X7441834Y41757224D01*
X7439710Y41771542D01*
X7439000Y41786000D01*
X7439000Y42131000D01*
X7439710Y42145458D01*
X7441834Y42159776D01*
X7445351Y42173817D01*
X7450228Y42187446D01*
X7456417Y42200531D01*
X7463858Y42212947D01*
X7472481Y42224573D01*
X7482202Y42235298D01*
X7492927Y42245019D01*
X7504553Y42253642D01*
X7516969Y42261083D01*
X7530054Y42267272D01*
X7543683Y42272149D01*
X7557724Y42275666D01*
X7572042Y42277790D01*
X7586500Y42278500D01*
X7881500Y42278500D01*
X7895958Y42277790D01*
G37*
G36*
X6925958Y42277790D02*
G01*
X6940276Y42275666D01*
X6954317Y42272149D01*
X6967946Y42267272D01*
X6981031Y42261083D01*
X6993447Y42253642D01*
X7005073Y42245019D01*
X7015798Y42235298D01*
X7025519Y42224573D01*
X7034142Y42212947D01*
X7041583Y42200531D01*
X7047772Y42187446D01*
X7052649Y42173817D01*
X7056166Y42159776D01*
X7058290Y42145458D01*
X7059000Y42131000D01*
X7059000Y41786000D01*
X7058290Y41771542D01*
X7056166Y41757224D01*
X7052649Y41743183D01*
X7047772Y41729554D01*
X7041583Y41716469D01*
X7034142Y41704053D01*
X7025519Y41692427D01*
X7015798Y41681702D01*
X7005073Y41671981D01*
X6993447Y41663358D01*
X6981031Y41655917D01*
X6967946Y41649728D01*
X6954317Y41644851D01*
X6940276Y41641334D01*
X6925958Y41639210D01*
X6911500Y41638500D01*
X6616500Y41638500D01*
X6602042Y41639210D01*
X6587724Y41641334D01*
X6573683Y41644851D01*
X6560054Y41649728D01*
X6546969Y41655917D01*
X6534553Y41663358D01*
X6522927Y41671981D01*
X6512202Y41681702D01*
X6502481Y41692427D01*
X6493858Y41704053D01*
X6486417Y41716469D01*
X6480228Y41729554D01*
X6475351Y41743183D01*
X6471834Y41757224D01*
X6469710Y41771542D01*
X6469000Y41786000D01*
X6469000Y42131000D01*
X6469710Y42145458D01*
X6471834Y42159776D01*
X6475351Y42173817D01*
X6480228Y42187446D01*
X6486417Y42200531D01*
X6493858Y42212947D01*
X6502481Y42224573D01*
X6512202Y42235298D01*
X6522927Y42245019D01*
X6534553Y42253642D01*
X6546969Y42261083D01*
X6560054Y42267272D01*
X6573683Y42272149D01*
X6587724Y42275666D01*
X6602042Y42277790D01*
X6616500Y42278500D01*
X6911500Y42278500D01*
X6925958Y42277790D01*
G37*
G36*
X67712958Y10591290D02*
G01*
X67727276Y10589166D01*
X67741317Y10585649D01*
X67754946Y10580772D01*
X67768031Y10574583D01*
X67780447Y10567142D01*
X67792073Y10558519D01*
X67802798Y10548798D01*
X67812519Y10538073D01*
X67821142Y10526447D01*
X67828583Y10514031D01*
X67834772Y10500946D01*
X67839649Y10487317D01*
X67843166Y10473276D01*
X67845290Y10458958D01*
X67846000Y10444500D01*
X67846000Y10099500D01*
X67845290Y10085042D01*
X67843166Y10070724D01*
X67839649Y10056683D01*
X67834772Y10043054D01*
X67828583Y10029969D01*
X67821142Y10017553D01*
X67812519Y10005927D01*
X67802798Y9995202D01*
X67792073Y9985481D01*
X67780447Y9976858D01*
X67768031Y9969417D01*
X67754946Y9963228D01*
X67741317Y9958351D01*
X67727276Y9954834D01*
X67712958Y9952710D01*
X67698500Y9952000D01*
X67403500Y9952000D01*
X67389042Y9952710D01*
X67374724Y9954834D01*
X67360683Y9958351D01*
X67347054Y9963228D01*
X67333969Y9969417D01*
X67321553Y9976858D01*
X67309927Y9985481D01*
X67299202Y9995202D01*
X67289481Y10005927D01*
X67280858Y10017553D01*
X67273417Y10029969D01*
X67267228Y10043054D01*
X67262351Y10056683D01*
X67258834Y10070724D01*
X67256710Y10085042D01*
X67256000Y10099500D01*
X67256000Y10444500D01*
X67256710Y10458958D01*
X67258834Y10473276D01*
X67262351Y10487317D01*
X67267228Y10500946D01*
X67273417Y10514031D01*
X67280858Y10526447D01*
X67289481Y10538073D01*
X67299202Y10548798D01*
X67309927Y10558519D01*
X67321553Y10567142D01*
X67333969Y10574583D01*
X67347054Y10580772D01*
X67360683Y10585649D01*
X67374724Y10589166D01*
X67389042Y10591290D01*
X67403500Y10592000D01*
X67698500Y10592000D01*
X67712958Y10591290D01*
G37*
G36*
X66742958Y10591290D02*
G01*
X66757276Y10589166D01*
X66771317Y10585649D01*
X66784946Y10580772D01*
X66798031Y10574583D01*
X66810447Y10567142D01*
X66822073Y10558519D01*
X66832798Y10548798D01*
X66842519Y10538073D01*
X66851142Y10526447D01*
X66858583Y10514031D01*
X66864772Y10500946D01*
X66869649Y10487317D01*
X66873166Y10473276D01*
X66875290Y10458958D01*
X66876000Y10444500D01*
X66876000Y10099500D01*
X66875290Y10085042D01*
X66873166Y10070724D01*
X66869649Y10056683D01*
X66864772Y10043054D01*
X66858583Y10029969D01*
X66851142Y10017553D01*
X66842519Y10005927D01*
X66832798Y9995202D01*
X66822073Y9985481D01*
X66810447Y9976858D01*
X66798031Y9969417D01*
X66784946Y9963228D01*
X66771317Y9958351D01*
X66757276Y9954834D01*
X66742958Y9952710D01*
X66728500Y9952000D01*
X66433500Y9952000D01*
X66419042Y9952710D01*
X66404724Y9954834D01*
X66390683Y9958351D01*
X66377054Y9963228D01*
X66363969Y9969417D01*
X66351553Y9976858D01*
X66339927Y9985481D01*
X66329202Y9995202D01*
X66319481Y10005927D01*
X66310858Y10017553D01*
X66303417Y10029969D01*
X66297228Y10043054D01*
X66292351Y10056683D01*
X66288834Y10070724D01*
X66286710Y10085042D01*
X66286000Y10099500D01*
X66286000Y10444500D01*
X66286710Y10458958D01*
X66288834Y10473276D01*
X66292351Y10487317D01*
X66297228Y10500946D01*
X66303417Y10514031D01*
X66310858Y10526447D01*
X66319481Y10538073D01*
X66329202Y10548798D01*
X66339927Y10558519D01*
X66351553Y10567142D01*
X66363969Y10574583D01*
X66377054Y10580772D01*
X66390683Y10585649D01*
X66404724Y10589166D01*
X66419042Y10591290D01*
X66433500Y10592000D01*
X66728500Y10592000D01*
X66742958Y10591290D01*
G37*
G36*
X61413491Y15190947D02*
G01*
X61434726Y15187797D01*
X61455550Y15182581D01*
X61475762Y15175349D01*
X61495168Y15166170D01*
X61513581Y15155134D01*
X61530824Y15142346D01*
X61546730Y15127930D01*
X61561146Y15112024D01*
X61573934Y15094781D01*
X61584970Y15076368D01*
X61594149Y15056962D01*
X61601381Y15036750D01*
X61606597Y15015926D01*
X61609747Y14994691D01*
X61610800Y14973250D01*
X61610800Y14460750D01*
X61609747Y14439309D01*
X61606597Y14418074D01*
X61601381Y14397250D01*
X61594149Y14377038D01*
X61584970Y14357632D01*
X61573934Y14339219D01*
X61561146Y14321976D01*
X61546730Y14306070D01*
X61530824Y14291654D01*
X61513581Y14278866D01*
X61495168Y14267830D01*
X61475762Y14258651D01*
X61455550Y14251419D01*
X61434726Y14246203D01*
X61413491Y14243053D01*
X61392050Y14242000D01*
X60954550Y14242000D01*
X60933109Y14243053D01*
X60911874Y14246203D01*
X60891050Y14251419D01*
X60870838Y14258651D01*
X60851432Y14267830D01*
X60833019Y14278866D01*
X60815776Y14291654D01*
X60799870Y14306070D01*
X60785454Y14321976D01*
X60772666Y14339219D01*
X60761630Y14357632D01*
X60752451Y14377038D01*
X60745219Y14397250D01*
X60740003Y14418074D01*
X60736853Y14439309D01*
X60735800Y14460750D01*
X60735800Y14973250D01*
X60736853Y14994691D01*
X60740003Y15015926D01*
X60745219Y15036750D01*
X60752451Y15056962D01*
X60761630Y15076368D01*
X60772666Y15094781D01*
X60785454Y15112024D01*
X60799870Y15127930D01*
X60815776Y15142346D01*
X60833019Y15155134D01*
X60851432Y15166170D01*
X60870838Y15175349D01*
X60891050Y15182581D01*
X60911874Y15187797D01*
X60933109Y15190947D01*
X60954550Y15192000D01*
X61392050Y15192000D01*
X61413491Y15190947D01*
G37*
G36*
X59838491Y15190947D02*
G01*
X59859726Y15187797D01*
X59880550Y15182581D01*
X59900762Y15175349D01*
X59920168Y15166170D01*
X59938581Y15155134D01*
X59955824Y15142346D01*
X59971730Y15127930D01*
X59986146Y15112024D01*
X59998934Y15094781D01*
X60009970Y15076368D01*
X60019149Y15056962D01*
X60026381Y15036750D01*
X60031597Y15015926D01*
X60034747Y14994691D01*
X60035800Y14973250D01*
X60035800Y14460750D01*
X60034747Y14439309D01*
X60031597Y14418074D01*
X60026381Y14397250D01*
X60019149Y14377038D01*
X60009970Y14357632D01*
X59998934Y14339219D01*
X59986146Y14321976D01*
X59971730Y14306070D01*
X59955824Y14291654D01*
X59938581Y14278866D01*
X59920168Y14267830D01*
X59900762Y14258651D01*
X59880550Y14251419D01*
X59859726Y14246203D01*
X59838491Y14243053D01*
X59817050Y14242000D01*
X59379550Y14242000D01*
X59358109Y14243053D01*
X59336874Y14246203D01*
X59316050Y14251419D01*
X59295838Y14258651D01*
X59276432Y14267830D01*
X59258019Y14278866D01*
X59240776Y14291654D01*
X59224870Y14306070D01*
X59210454Y14321976D01*
X59197666Y14339219D01*
X59186630Y14357632D01*
X59177451Y14377038D01*
X59170219Y14397250D01*
X59165003Y14418074D01*
X59161853Y14439309D01*
X59160800Y14460750D01*
X59160800Y14973250D01*
X59161853Y14994691D01*
X59165003Y15015926D01*
X59170219Y15036750D01*
X59177451Y15056962D01*
X59186630Y15076368D01*
X59197666Y15094781D01*
X59210454Y15112024D01*
X59224870Y15127930D01*
X59240776Y15142346D01*
X59258019Y15155134D01*
X59276432Y15166170D01*
X59295838Y15175349D01*
X59316050Y15182581D01*
X59336874Y15187797D01*
X59358109Y15190947D01*
X59379550Y15192000D01*
X59817050Y15192000D01*
X59838491Y15190947D01*
G37*
G36*
X76841458Y19913490D02*
G01*
X76855776Y19911366D01*
X76869817Y19907849D01*
X76883446Y19902972D01*
X76896531Y19896783D01*
X76908947Y19889342D01*
X76920573Y19880719D01*
X76931298Y19870998D01*
X76941019Y19860273D01*
X76949642Y19848647D01*
X76957083Y19836231D01*
X76963272Y19823146D01*
X76968149Y19809517D01*
X76971666Y19795476D01*
X76973790Y19781158D01*
X76974500Y19766700D01*
X76974500Y19471700D01*
X76973790Y19457242D01*
X76971666Y19442924D01*
X76968149Y19428883D01*
X76963272Y19415254D01*
X76957083Y19402169D01*
X76949642Y19389753D01*
X76941019Y19378127D01*
X76931298Y19367402D01*
X76920573Y19357681D01*
X76908947Y19349058D01*
X76896531Y19341617D01*
X76883446Y19335428D01*
X76869817Y19330551D01*
X76855776Y19327034D01*
X76841458Y19324910D01*
X76827000Y19324200D01*
X76482000Y19324200D01*
X76467542Y19324910D01*
X76453224Y19327034D01*
X76439183Y19330551D01*
X76425554Y19335428D01*
X76412469Y19341617D01*
X76400053Y19349058D01*
X76388427Y19357681D01*
X76377702Y19367402D01*
X76367981Y19378127D01*
X76359358Y19389753D01*
X76351917Y19402169D01*
X76345728Y19415254D01*
X76340851Y19428883D01*
X76337334Y19442924D01*
X76335210Y19457242D01*
X76334500Y19471700D01*
X76334500Y19766700D01*
X76335210Y19781158D01*
X76337334Y19795476D01*
X76340851Y19809517D01*
X76345728Y19823146D01*
X76351917Y19836231D01*
X76359358Y19848647D01*
X76367981Y19860273D01*
X76377702Y19870998D01*
X76388427Y19880719D01*
X76400053Y19889342D01*
X76412469Y19896783D01*
X76425554Y19902972D01*
X76439183Y19907849D01*
X76453224Y19911366D01*
X76467542Y19913490D01*
X76482000Y19914200D01*
X76827000Y19914200D01*
X76841458Y19913490D01*
G37*
G36*
X76841458Y20883490D02*
G01*
X76855776Y20881366D01*
X76869817Y20877849D01*
X76883446Y20872972D01*
X76896531Y20866783D01*
X76908947Y20859342D01*
X76920573Y20850719D01*
X76931298Y20840998D01*
X76941019Y20830273D01*
X76949642Y20818647D01*
X76957083Y20806231D01*
X76963272Y20793146D01*
X76968149Y20779517D01*
X76971666Y20765476D01*
X76973790Y20751158D01*
X76974500Y20736700D01*
X76974500Y20441700D01*
X76973790Y20427242D01*
X76971666Y20412924D01*
X76968149Y20398883D01*
X76963272Y20385254D01*
X76957083Y20372169D01*
X76949642Y20359753D01*
X76941019Y20348127D01*
X76931298Y20337402D01*
X76920573Y20327681D01*
X76908947Y20319058D01*
X76896531Y20311617D01*
X76883446Y20305428D01*
X76869817Y20300551D01*
X76855776Y20297034D01*
X76841458Y20294910D01*
X76827000Y20294200D01*
X76482000Y20294200D01*
X76467542Y20294910D01*
X76453224Y20297034D01*
X76439183Y20300551D01*
X76425554Y20305428D01*
X76412469Y20311617D01*
X76400053Y20319058D01*
X76388427Y20327681D01*
X76377702Y20337402D01*
X76367981Y20348127D01*
X76359358Y20359753D01*
X76351917Y20372169D01*
X76345728Y20385254D01*
X76340851Y20398883D01*
X76337334Y20412924D01*
X76335210Y20427242D01*
X76334500Y20441700D01*
X76334500Y20736700D01*
X76335210Y20751158D01*
X76337334Y20765476D01*
X76340851Y20779517D01*
X76345728Y20793146D01*
X76351917Y20806231D01*
X76359358Y20818647D01*
X76367981Y20830273D01*
X76377702Y20840998D01*
X76388427Y20850719D01*
X76400053Y20859342D01*
X76412469Y20866783D01*
X76425554Y20872972D01*
X76439183Y20877849D01*
X76453224Y20881366D01*
X76467542Y20883490D01*
X76482000Y20884200D01*
X76827000Y20884200D01*
X76841458Y20883490D01*
G37*
G36*
X65938942Y13002826D02*
G01*
X65962603Y12999316D01*
X65985807Y12993504D01*
X66008329Y12985446D01*
X66029953Y12975218D01*
X66050470Y12962921D01*
X66069683Y12948671D01*
X66087407Y12932607D01*
X66103471Y12914883D01*
X66117721Y12895670D01*
X66130018Y12875153D01*
X66140246Y12853529D01*
X66148304Y12831007D01*
X66154116Y12807803D01*
X66157626Y12784142D01*
X66158800Y12760250D01*
X66158800Y11847750D01*
X66157626Y11823858D01*
X66154116Y11800197D01*
X66148304Y11776993D01*
X66140246Y11754471D01*
X66130018Y11732847D01*
X66117721Y11712330D01*
X66103471Y11693117D01*
X66087407Y11675393D01*
X66069683Y11659329D01*
X66050470Y11645079D01*
X66029953Y11632782D01*
X66008329Y11622554D01*
X65985807Y11614496D01*
X65962603Y11608684D01*
X65938942Y11605174D01*
X65915050Y11604000D01*
X65427550Y11604000D01*
X65403658Y11605174D01*
X65379997Y11608684D01*
X65356793Y11614496D01*
X65334271Y11622554D01*
X65312647Y11632782D01*
X65292130Y11645079D01*
X65272917Y11659329D01*
X65255193Y11675393D01*
X65239129Y11693117D01*
X65224879Y11712330D01*
X65212582Y11732847D01*
X65202354Y11754471D01*
X65194296Y11776993D01*
X65188484Y11800197D01*
X65184974Y11823858D01*
X65183800Y11847750D01*
X65183800Y12760250D01*
X65184974Y12784142D01*
X65188484Y12807803D01*
X65194296Y12831007D01*
X65202354Y12853529D01*
X65212582Y12875153D01*
X65224879Y12895670D01*
X65239129Y12914883D01*
X65255193Y12932607D01*
X65272917Y12948671D01*
X65292130Y12962921D01*
X65312647Y12975218D01*
X65334271Y12985446D01*
X65356793Y12993504D01*
X65379997Y12999316D01*
X65403658Y13002826D01*
X65427550Y13004000D01*
X65915050Y13004000D01*
X65938942Y13002826D01*
G37*
G36*
X67813942Y13002826D02*
G01*
X67837603Y12999316D01*
X67860807Y12993504D01*
X67883329Y12985446D01*
X67904953Y12975218D01*
X67925470Y12962921D01*
X67944683Y12948671D01*
X67962407Y12932607D01*
X67978471Y12914883D01*
X67992721Y12895670D01*
X68005018Y12875153D01*
X68015246Y12853529D01*
X68023304Y12831007D01*
X68029116Y12807803D01*
X68032626Y12784142D01*
X68033800Y12760250D01*
X68033800Y11847750D01*
X68032626Y11823858D01*
X68029116Y11800197D01*
X68023304Y11776993D01*
X68015246Y11754471D01*
X68005018Y11732847D01*
X67992721Y11712330D01*
X67978471Y11693117D01*
X67962407Y11675393D01*
X67944683Y11659329D01*
X67925470Y11645079D01*
X67904953Y11632782D01*
X67883329Y11622554D01*
X67860807Y11614496D01*
X67837603Y11608684D01*
X67813942Y11605174D01*
X67790050Y11604000D01*
X67302550Y11604000D01*
X67278658Y11605174D01*
X67254997Y11608684D01*
X67231793Y11614496D01*
X67209271Y11622554D01*
X67187647Y11632782D01*
X67167130Y11645079D01*
X67147917Y11659329D01*
X67130193Y11675393D01*
X67114129Y11693117D01*
X67099879Y11712330D01*
X67087582Y11732847D01*
X67077354Y11754471D01*
X67069296Y11776993D01*
X67063484Y11800197D01*
X67059974Y11823858D01*
X67058800Y11847750D01*
X67058800Y12760250D01*
X67059974Y12784142D01*
X67063484Y12807803D01*
X67069296Y12831007D01*
X67077354Y12853529D01*
X67087582Y12875153D01*
X67099879Y12895670D01*
X67114129Y12914883D01*
X67130193Y12932607D01*
X67147917Y12948671D01*
X67167130Y12962921D01*
X67187647Y12975218D01*
X67209271Y12985446D01*
X67231793Y12993504D01*
X67254997Y12999316D01*
X67278658Y13002826D01*
X67302550Y13004000D01*
X67790050Y13004000D01*
X67813942Y13002826D01*
G37*
D16*
X13964000Y43866000D03*
X13964000Y45766000D03*
X11964000Y44816000D03*
X9011000Y38532000D03*
X9011000Y40432000D03*
X7011000Y39482000D03*
X12027500Y36815000D03*
X14027500Y37765000D03*
X14027500Y35865000D03*
D15*
G36*
X15134958Y42468290D02*
G01*
X15149276Y42466166D01*
X15163317Y42462649D01*
X15176946Y42457772D01*
X15190031Y42451583D01*
X15202447Y42444142D01*
X15214073Y42435519D01*
X15224798Y42425798D01*
X15234519Y42415073D01*
X15243142Y42403447D01*
X15250583Y42391031D01*
X15256772Y42377946D01*
X15261649Y42364317D01*
X15265166Y42350276D01*
X15267290Y42335958D01*
X15268000Y42321500D01*
X15268000Y41976500D01*
X15267290Y41962042D01*
X15265166Y41947724D01*
X15261649Y41933683D01*
X15256772Y41920054D01*
X15250583Y41906969D01*
X15243142Y41894553D01*
X15234519Y41882927D01*
X15224798Y41872202D01*
X15214073Y41862481D01*
X15202447Y41853858D01*
X15190031Y41846417D01*
X15176946Y41840228D01*
X15163317Y41835351D01*
X15149276Y41831834D01*
X15134958Y41829710D01*
X15120500Y41829000D01*
X14825500Y41829000D01*
X14811042Y41829710D01*
X14796724Y41831834D01*
X14782683Y41835351D01*
X14769054Y41840228D01*
X14755969Y41846417D01*
X14743553Y41853858D01*
X14731927Y41862481D01*
X14721202Y41872202D01*
X14711481Y41882927D01*
X14702858Y41894553D01*
X14695417Y41906969D01*
X14689228Y41920054D01*
X14684351Y41933683D01*
X14680834Y41947724D01*
X14678710Y41962042D01*
X14678000Y41976500D01*
X14678000Y42321500D01*
X14678710Y42335958D01*
X14680834Y42350276D01*
X14684351Y42364317D01*
X14689228Y42377946D01*
X14695417Y42391031D01*
X14702858Y42403447D01*
X14711481Y42415073D01*
X14721202Y42425798D01*
X14731927Y42435519D01*
X14743553Y42444142D01*
X14755969Y42451583D01*
X14769054Y42457772D01*
X14782683Y42462649D01*
X14796724Y42466166D01*
X14811042Y42468290D01*
X14825500Y42469000D01*
X15120500Y42469000D01*
X15134958Y42468290D01*
G37*
G36*
X14164958Y42468290D02*
G01*
X14179276Y42466166D01*
X14193317Y42462649D01*
X14206946Y42457772D01*
X14220031Y42451583D01*
X14232447Y42444142D01*
X14244073Y42435519D01*
X14254798Y42425798D01*
X14264519Y42415073D01*
X14273142Y42403447D01*
X14280583Y42391031D01*
X14286772Y42377946D01*
X14291649Y42364317D01*
X14295166Y42350276D01*
X14297290Y42335958D01*
X14298000Y42321500D01*
X14298000Y41976500D01*
X14297290Y41962042D01*
X14295166Y41947724D01*
X14291649Y41933683D01*
X14286772Y41920054D01*
X14280583Y41906969D01*
X14273142Y41894553D01*
X14264519Y41882927D01*
X14254798Y41872202D01*
X14244073Y41862481D01*
X14232447Y41853858D01*
X14220031Y41846417D01*
X14206946Y41840228D01*
X14193317Y41835351D01*
X14179276Y41831834D01*
X14164958Y41829710D01*
X14150500Y41829000D01*
X13855500Y41829000D01*
X13841042Y41829710D01*
X13826724Y41831834D01*
X13812683Y41835351D01*
X13799054Y41840228D01*
X13785969Y41846417D01*
X13773553Y41853858D01*
X13761927Y41862481D01*
X13751202Y41872202D01*
X13741481Y41882927D01*
X13732858Y41894553D01*
X13725417Y41906969D01*
X13719228Y41920054D01*
X13714351Y41933683D01*
X13710834Y41947724D01*
X13708710Y41962042D01*
X13708000Y41976500D01*
X13708000Y42321500D01*
X13708710Y42335958D01*
X13710834Y42350276D01*
X13714351Y42364317D01*
X13719228Y42377946D01*
X13725417Y42391031D01*
X13732858Y42403447D01*
X13741481Y42415073D01*
X13751202Y42425798D01*
X13761927Y42435519D01*
X13773553Y42444142D01*
X13785969Y42451583D01*
X13799054Y42457772D01*
X13812683Y42462649D01*
X13826724Y42466166D01*
X13841042Y42468290D01*
X13855500Y42469000D01*
X14150500Y42469000D01*
X14164958Y42468290D01*
G37*
G36*
X10181958Y37134290D02*
G01*
X10196276Y37132166D01*
X10210317Y37128649D01*
X10223946Y37123772D01*
X10237031Y37117583D01*
X10249447Y37110142D01*
X10261073Y37101519D01*
X10271798Y37091798D01*
X10281519Y37081073D01*
X10290142Y37069447D01*
X10297583Y37057031D01*
X10303772Y37043946D01*
X10308649Y37030317D01*
X10312166Y37016276D01*
X10314290Y37001958D01*
X10315000Y36987500D01*
X10315000Y36642500D01*
X10314290Y36628042D01*
X10312166Y36613724D01*
X10308649Y36599683D01*
X10303772Y36586054D01*
X10297583Y36572969D01*
X10290142Y36560553D01*
X10281519Y36548927D01*
X10271798Y36538202D01*
X10261073Y36528481D01*
X10249447Y36519858D01*
X10237031Y36512417D01*
X10223946Y36506228D01*
X10210317Y36501351D01*
X10196276Y36497834D01*
X10181958Y36495710D01*
X10167500Y36495000D01*
X9872500Y36495000D01*
X9858042Y36495710D01*
X9843724Y36497834D01*
X9829683Y36501351D01*
X9816054Y36506228D01*
X9802969Y36512417D01*
X9790553Y36519858D01*
X9778927Y36528481D01*
X9768202Y36538202D01*
X9758481Y36548927D01*
X9749858Y36560553D01*
X9742417Y36572969D01*
X9736228Y36586054D01*
X9731351Y36599683D01*
X9727834Y36613724D01*
X9725710Y36628042D01*
X9725000Y36642500D01*
X9725000Y36987500D01*
X9725710Y37001958D01*
X9727834Y37016276D01*
X9731351Y37030317D01*
X9736228Y37043946D01*
X9742417Y37057031D01*
X9749858Y37069447D01*
X9758481Y37081073D01*
X9768202Y37091798D01*
X9778927Y37101519D01*
X9790553Y37110142D01*
X9802969Y37117583D01*
X9816054Y37123772D01*
X9829683Y37128649D01*
X9843724Y37132166D01*
X9858042Y37134290D01*
X9872500Y37135000D01*
X10167500Y37135000D01*
X10181958Y37134290D01*
G37*
G36*
X9211958Y37134290D02*
G01*
X9226276Y37132166D01*
X9240317Y37128649D01*
X9253946Y37123772D01*
X9267031Y37117583D01*
X9279447Y37110142D01*
X9291073Y37101519D01*
X9301798Y37091798D01*
X9311519Y37081073D01*
X9320142Y37069447D01*
X9327583Y37057031D01*
X9333772Y37043946D01*
X9338649Y37030317D01*
X9342166Y37016276D01*
X9344290Y37001958D01*
X9345000Y36987500D01*
X9345000Y36642500D01*
X9344290Y36628042D01*
X9342166Y36613724D01*
X9338649Y36599683D01*
X9333772Y36586054D01*
X9327583Y36572969D01*
X9320142Y36560553D01*
X9311519Y36548927D01*
X9301798Y36538202D01*
X9291073Y36528481D01*
X9279447Y36519858D01*
X9267031Y36512417D01*
X9253946Y36506228D01*
X9240317Y36501351D01*
X9226276Y36497834D01*
X9211958Y36495710D01*
X9197500Y36495000D01*
X8902500Y36495000D01*
X8888042Y36495710D01*
X8873724Y36497834D01*
X8859683Y36501351D01*
X8846054Y36506228D01*
X8832969Y36512417D01*
X8820553Y36519858D01*
X8808927Y36528481D01*
X8798202Y36538202D01*
X8788481Y36548927D01*
X8779858Y36560553D01*
X8772417Y36572969D01*
X8766228Y36586054D01*
X8761351Y36599683D01*
X8757834Y36613724D01*
X8755710Y36628042D01*
X8755000Y36642500D01*
X8755000Y36987500D01*
X8755710Y37001958D01*
X8757834Y37016276D01*
X8761351Y37030317D01*
X8766228Y37043946D01*
X8772417Y37057031D01*
X8779858Y37069447D01*
X8788481Y37081073D01*
X8798202Y37091798D01*
X8808927Y37101519D01*
X8820553Y37110142D01*
X8832969Y37117583D01*
X8846054Y37123772D01*
X8859683Y37128649D01*
X8873724Y37132166D01*
X8888042Y37134290D01*
X8902500Y37135000D01*
X9197500Y37135000D01*
X9211958Y37134290D01*
G37*
G36*
X78111458Y19936490D02*
G01*
X78125776Y19934366D01*
X78139817Y19930849D01*
X78153446Y19925972D01*
X78166531Y19919783D01*
X78178947Y19912342D01*
X78190573Y19903719D01*
X78201298Y19893998D01*
X78211019Y19883273D01*
X78219642Y19871647D01*
X78227083Y19859231D01*
X78233272Y19846146D01*
X78238149Y19832517D01*
X78241666Y19818476D01*
X78243790Y19804158D01*
X78244500Y19789700D01*
X78244500Y19494700D01*
X78243790Y19480242D01*
X78241666Y19465924D01*
X78238149Y19451883D01*
X78233272Y19438254D01*
X78227083Y19425169D01*
X78219642Y19412753D01*
X78211019Y19401127D01*
X78201298Y19390402D01*
X78190573Y19380681D01*
X78178947Y19372058D01*
X78166531Y19364617D01*
X78153446Y19358428D01*
X78139817Y19353551D01*
X78125776Y19350034D01*
X78111458Y19347910D01*
X78097000Y19347200D01*
X77752000Y19347200D01*
X77737542Y19347910D01*
X77723224Y19350034D01*
X77709183Y19353551D01*
X77695554Y19358428D01*
X77682469Y19364617D01*
X77670053Y19372058D01*
X77658427Y19380681D01*
X77647702Y19390402D01*
X77637981Y19401127D01*
X77629358Y19412753D01*
X77621917Y19425169D01*
X77615728Y19438254D01*
X77610851Y19451883D01*
X77607334Y19465924D01*
X77605210Y19480242D01*
X77604500Y19494700D01*
X77604500Y19789700D01*
X77605210Y19804158D01*
X77607334Y19818476D01*
X77610851Y19832517D01*
X77615728Y19846146D01*
X77621917Y19859231D01*
X77629358Y19871647D01*
X77637981Y19883273D01*
X77647702Y19893998D01*
X77658427Y19903719D01*
X77670053Y19912342D01*
X77682469Y19919783D01*
X77695554Y19925972D01*
X77709183Y19930849D01*
X77723224Y19934366D01*
X77737542Y19936490D01*
X77752000Y19937200D01*
X78097000Y19937200D01*
X78111458Y19936490D01*
G37*
G36*
X78111458Y20906490D02*
G01*
X78125776Y20904366D01*
X78139817Y20900849D01*
X78153446Y20895972D01*
X78166531Y20889783D01*
X78178947Y20882342D01*
X78190573Y20873719D01*
X78201298Y20863998D01*
X78211019Y20853273D01*
X78219642Y20841647D01*
X78227083Y20829231D01*
X78233272Y20816146D01*
X78238149Y20802517D01*
X78241666Y20788476D01*
X78243790Y20774158D01*
X78244500Y20759700D01*
X78244500Y20464700D01*
X78243790Y20450242D01*
X78241666Y20435924D01*
X78238149Y20421883D01*
X78233272Y20408254D01*
X78227083Y20395169D01*
X78219642Y20382753D01*
X78211019Y20371127D01*
X78201298Y20360402D01*
X78190573Y20350681D01*
X78178947Y20342058D01*
X78166531Y20334617D01*
X78153446Y20328428D01*
X78139817Y20323551D01*
X78125776Y20320034D01*
X78111458Y20317910D01*
X78097000Y20317200D01*
X77752000Y20317200D01*
X77737542Y20317910D01*
X77723224Y20320034D01*
X77709183Y20323551D01*
X77695554Y20328428D01*
X77682469Y20334617D01*
X77670053Y20342058D01*
X77658427Y20350681D01*
X77647702Y20360402D01*
X77637981Y20371127D01*
X77629358Y20382753D01*
X77621917Y20395169D01*
X77615728Y20408254D01*
X77610851Y20421883D01*
X77607334Y20435924D01*
X77605210Y20450242D01*
X77604500Y20464700D01*
X77604500Y20759700D01*
X77605210Y20774158D01*
X77607334Y20788476D01*
X77610851Y20802517D01*
X77615728Y20816146D01*
X77621917Y20829231D01*
X77629358Y20841647D01*
X77637981Y20853273D01*
X77647702Y20863998D01*
X77658427Y20873719D01*
X77670053Y20882342D01*
X77682469Y20889783D01*
X77695554Y20895972D01*
X77709183Y20900849D01*
X77723224Y20904366D01*
X77737542Y20906490D01*
X77752000Y20907200D01*
X78097000Y20907200D01*
X78111458Y20906490D01*
G37*
G36*
X10118458Y35864290D02*
G01*
X10132776Y35862166D01*
X10146817Y35858649D01*
X10160446Y35853772D01*
X10173531Y35847583D01*
X10185947Y35840142D01*
X10197573Y35831519D01*
X10208298Y35821798D01*
X10218019Y35811073D01*
X10226642Y35799447D01*
X10234083Y35787031D01*
X10240272Y35773946D01*
X10245149Y35760317D01*
X10248666Y35746276D01*
X10250790Y35731958D01*
X10251500Y35717500D01*
X10251500Y35372500D01*
X10250790Y35358042D01*
X10248666Y35343724D01*
X10245149Y35329683D01*
X10240272Y35316054D01*
X10234083Y35302969D01*
X10226642Y35290553D01*
X10218019Y35278927D01*
X10208298Y35268202D01*
X10197573Y35258481D01*
X10185947Y35249858D01*
X10173531Y35242417D01*
X10160446Y35236228D01*
X10146817Y35231351D01*
X10132776Y35227834D01*
X10118458Y35225710D01*
X10104000Y35225000D01*
X9809000Y35225000D01*
X9794542Y35225710D01*
X9780224Y35227834D01*
X9766183Y35231351D01*
X9752554Y35236228D01*
X9739469Y35242417D01*
X9727053Y35249858D01*
X9715427Y35258481D01*
X9704702Y35268202D01*
X9694981Y35278927D01*
X9686358Y35290553D01*
X9678917Y35302969D01*
X9672728Y35316054D01*
X9667851Y35329683D01*
X9664334Y35343724D01*
X9662210Y35358042D01*
X9661500Y35372500D01*
X9661500Y35717500D01*
X9662210Y35731958D01*
X9664334Y35746276D01*
X9667851Y35760317D01*
X9672728Y35773946D01*
X9678917Y35787031D01*
X9686358Y35799447D01*
X9694981Y35811073D01*
X9704702Y35821798D01*
X9715427Y35831519D01*
X9727053Y35840142D01*
X9739469Y35847583D01*
X9752554Y35853772D01*
X9766183Y35858649D01*
X9780224Y35862166D01*
X9794542Y35864290D01*
X9809000Y35865000D01*
X10104000Y35865000D01*
X10118458Y35864290D01*
G37*
G36*
X9148458Y35864290D02*
G01*
X9162776Y35862166D01*
X9176817Y35858649D01*
X9190446Y35853772D01*
X9203531Y35847583D01*
X9215947Y35840142D01*
X9227573Y35831519D01*
X9238298Y35821798D01*
X9248019Y35811073D01*
X9256642Y35799447D01*
X9264083Y35787031D01*
X9270272Y35773946D01*
X9275149Y35760317D01*
X9278666Y35746276D01*
X9280790Y35731958D01*
X9281500Y35717500D01*
X9281500Y35372500D01*
X9280790Y35358042D01*
X9278666Y35343724D01*
X9275149Y35329683D01*
X9270272Y35316054D01*
X9264083Y35302969D01*
X9256642Y35290553D01*
X9248019Y35278927D01*
X9238298Y35268202D01*
X9227573Y35258481D01*
X9215947Y35249858D01*
X9203531Y35242417D01*
X9190446Y35236228D01*
X9176817Y35231351D01*
X9162776Y35227834D01*
X9148458Y35225710D01*
X9134000Y35225000D01*
X8839000Y35225000D01*
X8824542Y35225710D01*
X8810224Y35227834D01*
X8796183Y35231351D01*
X8782554Y35236228D01*
X8769469Y35242417D01*
X8757053Y35249858D01*
X8745427Y35258481D01*
X8734702Y35268202D01*
X8724981Y35278927D01*
X8716358Y35290553D01*
X8708917Y35302969D01*
X8702728Y35316054D01*
X8697851Y35329683D01*
X8694334Y35343724D01*
X8692210Y35358042D01*
X8691500Y35372500D01*
X8691500Y35717500D01*
X8692210Y35731958D01*
X8694334Y35746276D01*
X8697851Y35760317D01*
X8702728Y35773946D01*
X8708917Y35787031D01*
X8716358Y35799447D01*
X8724981Y35811073D01*
X8734702Y35821798D01*
X8745427Y35831519D01*
X8757053Y35840142D01*
X8769469Y35847583D01*
X8782554Y35853772D01*
X8796183Y35858649D01*
X8810224Y35862166D01*
X8824542Y35864290D01*
X8839000Y35865000D01*
X9134000Y35865000D01*
X9148458Y35864290D01*
G37*
G36*
X61664958Y12981690D02*
G01*
X61679276Y12979566D01*
X61693317Y12976049D01*
X61706946Y12971172D01*
X61720031Y12964983D01*
X61732447Y12957542D01*
X61744073Y12948919D01*
X61754798Y12939198D01*
X61764519Y12928473D01*
X61773142Y12916847D01*
X61780583Y12904431D01*
X61786772Y12891346D01*
X61791649Y12877717D01*
X61795166Y12863676D01*
X61797290Y12849358D01*
X61798000Y12834900D01*
X61798000Y12539900D01*
X61797290Y12525442D01*
X61795166Y12511124D01*
X61791649Y12497083D01*
X61786772Y12483454D01*
X61780583Y12470369D01*
X61773142Y12457953D01*
X61764519Y12446327D01*
X61754798Y12435602D01*
X61744073Y12425881D01*
X61732447Y12417258D01*
X61720031Y12409817D01*
X61706946Y12403628D01*
X61693317Y12398751D01*
X61679276Y12395234D01*
X61664958Y12393110D01*
X61650500Y12392400D01*
X61305500Y12392400D01*
X61291042Y12393110D01*
X61276724Y12395234D01*
X61262683Y12398751D01*
X61249054Y12403628D01*
X61235969Y12409817D01*
X61223553Y12417258D01*
X61211927Y12425881D01*
X61201202Y12435602D01*
X61191481Y12446327D01*
X61182858Y12457953D01*
X61175417Y12470369D01*
X61169228Y12483454D01*
X61164351Y12497083D01*
X61160834Y12511124D01*
X61158710Y12525442D01*
X61158000Y12539900D01*
X61158000Y12834900D01*
X61158710Y12849358D01*
X61160834Y12863676D01*
X61164351Y12877717D01*
X61169228Y12891346D01*
X61175417Y12904431D01*
X61182858Y12916847D01*
X61191481Y12928473D01*
X61201202Y12939198D01*
X61211927Y12948919D01*
X61223553Y12957542D01*
X61235969Y12964983D01*
X61249054Y12971172D01*
X61262683Y12976049D01*
X61276724Y12979566D01*
X61291042Y12981690D01*
X61305500Y12982400D01*
X61650500Y12982400D01*
X61664958Y12981690D01*
G37*
G36*
X61664958Y12011690D02*
G01*
X61679276Y12009566D01*
X61693317Y12006049D01*
X61706946Y12001172D01*
X61720031Y11994983D01*
X61732447Y11987542D01*
X61744073Y11978919D01*
X61754798Y11969198D01*
X61764519Y11958473D01*
X61773142Y11946847D01*
X61780583Y11934431D01*
X61786772Y11921346D01*
X61791649Y11907717D01*
X61795166Y11893676D01*
X61797290Y11879358D01*
X61798000Y11864900D01*
X61798000Y11569900D01*
X61797290Y11555442D01*
X61795166Y11541124D01*
X61791649Y11527083D01*
X61786772Y11513454D01*
X61780583Y11500369D01*
X61773142Y11487953D01*
X61764519Y11476327D01*
X61754798Y11465602D01*
X61744073Y11455881D01*
X61732447Y11447258D01*
X61720031Y11439817D01*
X61706946Y11433628D01*
X61693317Y11428751D01*
X61679276Y11425234D01*
X61664958Y11423110D01*
X61650500Y11422400D01*
X61305500Y11422400D01*
X61291042Y11423110D01*
X61276724Y11425234D01*
X61262683Y11428751D01*
X61249054Y11433628D01*
X61235969Y11439817D01*
X61223553Y11447258D01*
X61211927Y11455881D01*
X61201202Y11465602D01*
X61191481Y11476327D01*
X61182858Y11487953D01*
X61175417Y11500369D01*
X61169228Y11513454D01*
X61164351Y11527083D01*
X61160834Y11541124D01*
X61158710Y11555442D01*
X61158000Y11569900D01*
X61158000Y11864900D01*
X61158710Y11879358D01*
X61160834Y11893676D01*
X61164351Y11907717D01*
X61169228Y11921346D01*
X61175417Y11934431D01*
X61182858Y11946847D01*
X61191481Y11958473D01*
X61201202Y11969198D01*
X61211927Y11978919D01*
X61223553Y11987542D01*
X61235969Y11994983D01*
X61249054Y12001172D01*
X61262683Y12006049D01*
X61276724Y12009566D01*
X61291042Y12011690D01*
X61305500Y12012400D01*
X61650500Y12012400D01*
X61664958Y12011690D01*
G37*
G36*
X63152691Y13959747D02*
G01*
X63173926Y13956597D01*
X63194750Y13951381D01*
X63214962Y13944149D01*
X63234368Y13934970D01*
X63252781Y13923934D01*
X63270024Y13911146D01*
X63285930Y13896730D01*
X63300346Y13880824D01*
X63313134Y13863581D01*
X63324170Y13845168D01*
X63333349Y13825762D01*
X63340581Y13805550D01*
X63345797Y13784726D01*
X63348947Y13763491D01*
X63350000Y13742050D01*
X63350000Y13304550D01*
X63348947Y13283109D01*
X63345797Y13261874D01*
X63340581Y13241050D01*
X63333349Y13220838D01*
X63324170Y13201432D01*
X63313134Y13183019D01*
X63300346Y13165776D01*
X63285930Y13149870D01*
X63270024Y13135454D01*
X63252781Y13122666D01*
X63234368Y13111630D01*
X63214962Y13102451D01*
X63194750Y13095219D01*
X63173926Y13090003D01*
X63152691Y13086853D01*
X63131250Y13085800D01*
X62618750Y13085800D01*
X62597309Y13086853D01*
X62576074Y13090003D01*
X62555250Y13095219D01*
X62535038Y13102451D01*
X62515632Y13111630D01*
X62497219Y13122666D01*
X62479976Y13135454D01*
X62464070Y13149870D01*
X62449654Y13165776D01*
X62436866Y13183019D01*
X62425830Y13201432D01*
X62416651Y13220838D01*
X62409419Y13241050D01*
X62404203Y13261874D01*
X62401053Y13283109D01*
X62400000Y13304550D01*
X62400000Y13742050D01*
X62401053Y13763491D01*
X62404203Y13784726D01*
X62409419Y13805550D01*
X62416651Y13825762D01*
X62425830Y13845168D01*
X62436866Y13863581D01*
X62449654Y13880824D01*
X62464070Y13896730D01*
X62479976Y13911146D01*
X62497219Y13923934D01*
X62515632Y13934970D01*
X62535038Y13944149D01*
X62555250Y13951381D01*
X62576074Y13956597D01*
X62597309Y13959747D01*
X62618750Y13960800D01*
X63131250Y13960800D01*
X63152691Y13959747D01*
G37*
G36*
X63152691Y12384747D02*
G01*
X63173926Y12381597D01*
X63194750Y12376381D01*
X63214962Y12369149D01*
X63234368Y12359970D01*
X63252781Y12348934D01*
X63270024Y12336146D01*
X63285930Y12321730D01*
X63300346Y12305824D01*
X63313134Y12288581D01*
X63324170Y12270168D01*
X63333349Y12250762D01*
X63340581Y12230550D01*
X63345797Y12209726D01*
X63348947Y12188491D01*
X63350000Y12167050D01*
X63350000Y11729550D01*
X63348947Y11708109D01*
X63345797Y11686874D01*
X63340581Y11666050D01*
X63333349Y11645838D01*
X63324170Y11626432D01*
X63313134Y11608019D01*
X63300346Y11590776D01*
X63285930Y11574870D01*
X63270024Y11560454D01*
X63252781Y11547666D01*
X63234368Y11536630D01*
X63214962Y11527451D01*
X63194750Y11520219D01*
X63173926Y11515003D01*
X63152691Y11511853D01*
X63131250Y11510800D01*
X62618750Y11510800D01*
X62597309Y11511853D01*
X62576074Y11515003D01*
X62555250Y11520219D01*
X62535038Y11527451D01*
X62515632Y11536630D01*
X62497219Y11547666D01*
X62479976Y11560454D01*
X62464070Y11574870D01*
X62449654Y11590776D01*
X62436866Y11608019D01*
X62425830Y11626432D01*
X62416651Y11645838D01*
X62409419Y11666050D01*
X62404203Y11686874D01*
X62401053Y11708109D01*
X62400000Y11729550D01*
X62400000Y12167050D01*
X62401053Y12188491D01*
X62404203Y12209726D01*
X62409419Y12230550D01*
X62416651Y12250762D01*
X62425830Y12270168D01*
X62436866Y12288581D01*
X62449654Y12305824D01*
X62464070Y12321730D01*
X62479976Y12336146D01*
X62497219Y12348934D01*
X62515632Y12359970D01*
X62535038Y12369149D01*
X62555250Y12376381D01*
X62576074Y12381597D01*
X62597309Y12384747D01*
X62618750Y12385800D01*
X63131250Y12385800D01*
X63152691Y12384747D01*
G37*
D16*
X26994200Y46253600D03*
X26994200Y48153600D03*
X24994200Y47203600D03*
D15*
G36*
X56940558Y14480290D02*
G01*
X56954876Y14478166D01*
X56968917Y14474649D01*
X56982546Y14469772D01*
X56995631Y14463583D01*
X57008047Y14456142D01*
X57019673Y14447519D01*
X57030398Y14437798D01*
X57040119Y14427073D01*
X57048742Y14415447D01*
X57056183Y14403031D01*
X57062372Y14389946D01*
X57067249Y14376317D01*
X57070766Y14362276D01*
X57072890Y14347958D01*
X57073600Y14333500D01*
X57073600Y14038500D01*
X57072890Y14024042D01*
X57070766Y14009724D01*
X57067249Y13995683D01*
X57062372Y13982054D01*
X57056183Y13968969D01*
X57048742Y13956553D01*
X57040119Y13944927D01*
X57030398Y13934202D01*
X57019673Y13924481D01*
X57008047Y13915858D01*
X56995631Y13908417D01*
X56982546Y13902228D01*
X56968917Y13897351D01*
X56954876Y13893834D01*
X56940558Y13891710D01*
X56926100Y13891000D01*
X56581100Y13891000D01*
X56566642Y13891710D01*
X56552324Y13893834D01*
X56538283Y13897351D01*
X56524654Y13902228D01*
X56511569Y13908417D01*
X56499153Y13915858D01*
X56487527Y13924481D01*
X56476802Y13934202D01*
X56467081Y13944927D01*
X56458458Y13956553D01*
X56451017Y13968969D01*
X56444828Y13982054D01*
X56439951Y13995683D01*
X56436434Y14009724D01*
X56434310Y14024042D01*
X56433600Y14038500D01*
X56433600Y14333500D01*
X56434310Y14347958D01*
X56436434Y14362276D01*
X56439951Y14376317D01*
X56444828Y14389946D01*
X56451017Y14403031D01*
X56458458Y14415447D01*
X56467081Y14427073D01*
X56476802Y14437798D01*
X56487527Y14447519D01*
X56499153Y14456142D01*
X56511569Y14463583D01*
X56524654Y14469772D01*
X56538283Y14474649D01*
X56552324Y14478166D01*
X56566642Y14480290D01*
X56581100Y14481000D01*
X56926100Y14481000D01*
X56940558Y14480290D01*
G37*
G36*
X56940558Y13510290D02*
G01*
X56954876Y13508166D01*
X56968917Y13504649D01*
X56982546Y13499772D01*
X56995631Y13493583D01*
X57008047Y13486142D01*
X57019673Y13477519D01*
X57030398Y13467798D01*
X57040119Y13457073D01*
X57048742Y13445447D01*
X57056183Y13433031D01*
X57062372Y13419946D01*
X57067249Y13406317D01*
X57070766Y13392276D01*
X57072890Y13377958D01*
X57073600Y13363500D01*
X57073600Y13068500D01*
X57072890Y13054042D01*
X57070766Y13039724D01*
X57067249Y13025683D01*
X57062372Y13012054D01*
X57056183Y12998969D01*
X57048742Y12986553D01*
X57040119Y12974927D01*
X57030398Y12964202D01*
X57019673Y12954481D01*
X57008047Y12945858D01*
X56995631Y12938417D01*
X56982546Y12932228D01*
X56968917Y12927351D01*
X56954876Y12923834D01*
X56940558Y12921710D01*
X56926100Y12921000D01*
X56581100Y12921000D01*
X56566642Y12921710D01*
X56552324Y12923834D01*
X56538283Y12927351D01*
X56524654Y12932228D01*
X56511569Y12938417D01*
X56499153Y12945858D01*
X56487527Y12954481D01*
X56476802Y12964202D01*
X56467081Y12974927D01*
X56458458Y12986553D01*
X56451017Y12998969D01*
X56444828Y13012054D01*
X56439951Y13025683D01*
X56436434Y13039724D01*
X56434310Y13054042D01*
X56433600Y13068500D01*
X56433600Y13363500D01*
X56434310Y13377958D01*
X56436434Y13392276D01*
X56439951Y13406317D01*
X56444828Y13419946D01*
X56451017Y13433031D01*
X56458458Y13445447D01*
X56467081Y13457073D01*
X56476802Y13467798D01*
X56487527Y13477519D01*
X56499153Y13486142D01*
X56511569Y13493583D01*
X56524654Y13499772D01*
X56538283Y13504649D01*
X56552324Y13508166D01*
X56566642Y13510290D01*
X56581100Y13511000D01*
X56926100Y13511000D01*
X56940558Y13510290D01*
G37*
G36*
X29838758Y47525690D02*
G01*
X29853076Y47523566D01*
X29867117Y47520049D01*
X29880746Y47515172D01*
X29893831Y47508983D01*
X29906247Y47501542D01*
X29917873Y47492919D01*
X29928598Y47483198D01*
X29938319Y47472473D01*
X29946942Y47460847D01*
X29954383Y47448431D01*
X29960572Y47435346D01*
X29965449Y47421717D01*
X29968966Y47407676D01*
X29971090Y47393358D01*
X29971800Y47378900D01*
X29971800Y47083900D01*
X29971090Y47069442D01*
X29968966Y47055124D01*
X29965449Y47041083D01*
X29960572Y47027454D01*
X29954383Y47014369D01*
X29946942Y47001953D01*
X29938319Y46990327D01*
X29928598Y46979602D01*
X29917873Y46969881D01*
X29906247Y46961258D01*
X29893831Y46953817D01*
X29880746Y46947628D01*
X29867117Y46942751D01*
X29853076Y46939234D01*
X29838758Y46937110D01*
X29824300Y46936400D01*
X29479300Y46936400D01*
X29464842Y46937110D01*
X29450524Y46939234D01*
X29436483Y46942751D01*
X29422854Y46947628D01*
X29409769Y46953817D01*
X29397353Y46961258D01*
X29385727Y46969881D01*
X29375002Y46979602D01*
X29365281Y46990327D01*
X29356658Y47001953D01*
X29349217Y47014369D01*
X29343028Y47027454D01*
X29338151Y47041083D01*
X29334634Y47055124D01*
X29332510Y47069442D01*
X29331800Y47083900D01*
X29331800Y47378900D01*
X29332510Y47393358D01*
X29334634Y47407676D01*
X29338151Y47421717D01*
X29343028Y47435346D01*
X29349217Y47448431D01*
X29356658Y47460847D01*
X29365281Y47472473D01*
X29375002Y47483198D01*
X29385727Y47492919D01*
X29397353Y47501542D01*
X29409769Y47508983D01*
X29422854Y47515172D01*
X29436483Y47520049D01*
X29450524Y47523566D01*
X29464842Y47525690D01*
X29479300Y47526400D01*
X29824300Y47526400D01*
X29838758Y47525690D01*
G37*
G36*
X29838758Y46555690D02*
G01*
X29853076Y46553566D01*
X29867117Y46550049D01*
X29880746Y46545172D01*
X29893831Y46538983D01*
X29906247Y46531542D01*
X29917873Y46522919D01*
X29928598Y46513198D01*
X29938319Y46502473D01*
X29946942Y46490847D01*
X29954383Y46478431D01*
X29960572Y46465346D01*
X29965449Y46451717D01*
X29968966Y46437676D01*
X29971090Y46423358D01*
X29971800Y46408900D01*
X29971800Y46113900D01*
X29971090Y46099442D01*
X29968966Y46085124D01*
X29965449Y46071083D01*
X29960572Y46057454D01*
X29954383Y46044369D01*
X29946942Y46031953D01*
X29938319Y46020327D01*
X29928598Y46009602D01*
X29917873Y45999881D01*
X29906247Y45991258D01*
X29893831Y45983817D01*
X29880746Y45977628D01*
X29867117Y45972751D01*
X29853076Y45969234D01*
X29838758Y45967110D01*
X29824300Y45966400D01*
X29479300Y45966400D01*
X29464842Y45967110D01*
X29450524Y45969234D01*
X29436483Y45972751D01*
X29422854Y45977628D01*
X29409769Y45983817D01*
X29397353Y45991258D01*
X29385727Y45999881D01*
X29375002Y46009602D01*
X29365281Y46020327D01*
X29356658Y46031953D01*
X29349217Y46044369D01*
X29343028Y46057454D01*
X29338151Y46071083D01*
X29334634Y46085124D01*
X29332510Y46099442D01*
X29331800Y46113900D01*
X29331800Y46408900D01*
X29332510Y46423358D01*
X29334634Y46437676D01*
X29338151Y46451717D01*
X29343028Y46465346D01*
X29349217Y46478431D01*
X29356658Y46490847D01*
X29365281Y46502473D01*
X29375002Y46513198D01*
X29385727Y46522919D01*
X29397353Y46531542D01*
X29409769Y46538983D01*
X29422854Y46545172D01*
X29436483Y46550049D01*
X29450524Y46553566D01*
X29464842Y46555690D01*
X29479300Y46556400D01*
X29824300Y46556400D01*
X29838758Y46555690D01*
G37*
G36*
X28670358Y47525690D02*
G01*
X28684676Y47523566D01*
X28698717Y47520049D01*
X28712346Y47515172D01*
X28725431Y47508983D01*
X28737847Y47501542D01*
X28749473Y47492919D01*
X28760198Y47483198D01*
X28769919Y47472473D01*
X28778542Y47460847D01*
X28785983Y47448431D01*
X28792172Y47435346D01*
X28797049Y47421717D01*
X28800566Y47407676D01*
X28802690Y47393358D01*
X28803400Y47378900D01*
X28803400Y47083900D01*
X28802690Y47069442D01*
X28800566Y47055124D01*
X28797049Y47041083D01*
X28792172Y47027454D01*
X28785983Y47014369D01*
X28778542Y47001953D01*
X28769919Y46990327D01*
X28760198Y46979602D01*
X28749473Y46969881D01*
X28737847Y46961258D01*
X28725431Y46953817D01*
X28712346Y46947628D01*
X28698717Y46942751D01*
X28684676Y46939234D01*
X28670358Y46937110D01*
X28655900Y46936400D01*
X28310900Y46936400D01*
X28296442Y46937110D01*
X28282124Y46939234D01*
X28268083Y46942751D01*
X28254454Y46947628D01*
X28241369Y46953817D01*
X28228953Y46961258D01*
X28217327Y46969881D01*
X28206602Y46979602D01*
X28196881Y46990327D01*
X28188258Y47001953D01*
X28180817Y47014369D01*
X28174628Y47027454D01*
X28169751Y47041083D01*
X28166234Y47055124D01*
X28164110Y47069442D01*
X28163400Y47083900D01*
X28163400Y47378900D01*
X28164110Y47393358D01*
X28166234Y47407676D01*
X28169751Y47421717D01*
X28174628Y47435346D01*
X28180817Y47448431D01*
X28188258Y47460847D01*
X28196881Y47472473D01*
X28206602Y47483198D01*
X28217327Y47492919D01*
X28228953Y47501542D01*
X28241369Y47508983D01*
X28254454Y47515172D01*
X28268083Y47520049D01*
X28282124Y47523566D01*
X28296442Y47525690D01*
X28310900Y47526400D01*
X28655900Y47526400D01*
X28670358Y47525690D01*
G37*
G36*
X28670358Y46555690D02*
G01*
X28684676Y46553566D01*
X28698717Y46550049D01*
X28712346Y46545172D01*
X28725431Y46538983D01*
X28737847Y46531542D01*
X28749473Y46522919D01*
X28760198Y46513198D01*
X28769919Y46502473D01*
X28778542Y46490847D01*
X28785983Y46478431D01*
X28792172Y46465346D01*
X28797049Y46451717D01*
X28800566Y46437676D01*
X28802690Y46423358D01*
X28803400Y46408900D01*
X28803400Y46113900D01*
X28802690Y46099442D01*
X28800566Y46085124D01*
X28797049Y46071083D01*
X28792172Y46057454D01*
X28785983Y46044369D01*
X28778542Y46031953D01*
X28769919Y46020327D01*
X28760198Y46009602D01*
X28749473Y45999881D01*
X28737847Y45991258D01*
X28725431Y45983817D01*
X28712346Y45977628D01*
X28698717Y45972751D01*
X28684676Y45969234D01*
X28670358Y45967110D01*
X28655900Y45966400D01*
X28310900Y45966400D01*
X28296442Y45967110D01*
X28282124Y45969234D01*
X28268083Y45972751D01*
X28254454Y45977628D01*
X28241369Y45983817D01*
X28228953Y45991258D01*
X28217327Y45999881D01*
X28206602Y46009602D01*
X28196881Y46020327D01*
X28188258Y46031953D01*
X28180817Y46044369D01*
X28174628Y46057454D01*
X28169751Y46071083D01*
X28166234Y46085124D01*
X28164110Y46099442D01*
X28163400Y46113900D01*
X28163400Y46408900D01*
X28164110Y46423358D01*
X28166234Y46437676D01*
X28169751Y46451717D01*
X28174628Y46465346D01*
X28180817Y46478431D01*
X28188258Y46490847D01*
X28196881Y46502473D01*
X28206602Y46513198D01*
X28217327Y46522919D01*
X28228953Y46531542D01*
X28241369Y46538983D01*
X28254454Y46545172D01*
X28268083Y46550049D01*
X28282124Y46553566D01*
X28296442Y46555690D01*
X28310900Y46556400D01*
X28655900Y46556400D01*
X28670358Y46555690D01*
G37*
G36*
X23742758Y47825690D02*
G01*
X23757076Y47823566D01*
X23771117Y47820049D01*
X23784746Y47815172D01*
X23797831Y47808983D01*
X23810247Y47801542D01*
X23821873Y47792919D01*
X23832598Y47783198D01*
X23842319Y47772473D01*
X23850942Y47760847D01*
X23858383Y47748431D01*
X23864572Y47735346D01*
X23869449Y47721717D01*
X23872966Y47707676D01*
X23875090Y47693358D01*
X23875800Y47678900D01*
X23875800Y47383900D01*
X23875090Y47369442D01*
X23872966Y47355124D01*
X23869449Y47341083D01*
X23864572Y47327454D01*
X23858383Y47314369D01*
X23850942Y47301953D01*
X23842319Y47290327D01*
X23832598Y47279602D01*
X23821873Y47269881D01*
X23810247Y47261258D01*
X23797831Y47253817D01*
X23784746Y47247628D01*
X23771117Y47242751D01*
X23757076Y47239234D01*
X23742758Y47237110D01*
X23728300Y47236400D01*
X23383300Y47236400D01*
X23368842Y47237110D01*
X23354524Y47239234D01*
X23340483Y47242751D01*
X23326854Y47247628D01*
X23313769Y47253817D01*
X23301353Y47261258D01*
X23289727Y47269881D01*
X23279002Y47279602D01*
X23269281Y47290327D01*
X23260658Y47301953D01*
X23253217Y47314369D01*
X23247028Y47327454D01*
X23242151Y47341083D01*
X23238634Y47355124D01*
X23236510Y47369442D01*
X23235800Y47383900D01*
X23235800Y47678900D01*
X23236510Y47693358D01*
X23238634Y47707676D01*
X23242151Y47721717D01*
X23247028Y47735346D01*
X23253217Y47748431D01*
X23260658Y47760847D01*
X23269281Y47772473D01*
X23279002Y47783198D01*
X23289727Y47792919D01*
X23301353Y47801542D01*
X23313769Y47808983D01*
X23326854Y47815172D01*
X23340483Y47820049D01*
X23354524Y47823566D01*
X23368842Y47825690D01*
X23383300Y47826400D01*
X23728300Y47826400D01*
X23742758Y47825690D01*
G37*
G36*
X23742758Y48795690D02*
G01*
X23757076Y48793566D01*
X23771117Y48790049D01*
X23784746Y48785172D01*
X23797831Y48778983D01*
X23810247Y48771542D01*
X23821873Y48762919D01*
X23832598Y48753198D01*
X23842319Y48742473D01*
X23850942Y48730847D01*
X23858383Y48718431D01*
X23864572Y48705346D01*
X23869449Y48691717D01*
X23872966Y48677676D01*
X23875090Y48663358D01*
X23875800Y48648900D01*
X23875800Y48353900D01*
X23875090Y48339442D01*
X23872966Y48325124D01*
X23869449Y48311083D01*
X23864572Y48297454D01*
X23858383Y48284369D01*
X23850942Y48271953D01*
X23842319Y48260327D01*
X23832598Y48249602D01*
X23821873Y48239881D01*
X23810247Y48231258D01*
X23797831Y48223817D01*
X23784746Y48217628D01*
X23771117Y48212751D01*
X23757076Y48209234D01*
X23742758Y48207110D01*
X23728300Y48206400D01*
X23383300Y48206400D01*
X23368842Y48207110D01*
X23354524Y48209234D01*
X23340483Y48212751D01*
X23326854Y48217628D01*
X23313769Y48223817D01*
X23301353Y48231258D01*
X23289727Y48239881D01*
X23279002Y48249602D01*
X23269281Y48260327D01*
X23260658Y48271953D01*
X23253217Y48284369D01*
X23247028Y48297454D01*
X23242151Y48311083D01*
X23238634Y48325124D01*
X23236510Y48339442D01*
X23235800Y48353900D01*
X23235800Y48648900D01*
X23236510Y48663358D01*
X23238634Y48677676D01*
X23242151Y48691717D01*
X23247028Y48705346D01*
X23253217Y48718431D01*
X23260658Y48730847D01*
X23269281Y48742473D01*
X23279002Y48753198D01*
X23289727Y48762919D01*
X23301353Y48771542D01*
X23313769Y48778983D01*
X23326854Y48785172D01*
X23340483Y48790049D01*
X23354524Y48793566D01*
X23368842Y48795690D01*
X23383300Y48796400D01*
X23728300Y48796400D01*
X23742758Y48795690D01*
G37*
M02*
