M48
; DRILL file {KiCad (5.1.5)-3} date 08.05.2020 10:51:30
; FORMAT={-:-/ absolute / inch / decimal}
; #@! TF.CreationDate,2020-05-08T10:51:30+02:00
; #@! TF.GenerationSoftware,Kicad,Pcbnew,(5.1.5)-3
; #@! TF.FileFunction,Plated,1,2,PTH
FMAT,2
INCH
T1C0.0157
T2C0.0362
T3C0.0394
T4C0.0917
%
G90
G05
T1
X0.3054Y1.7319
X0.4997Y1.941
X1.1214Y1.9024
X2.1984Y0.4334
X2.3344Y0.2414
X2.3804Y0.4834
X2.4164Y0.3847
X2.5464Y0.4584
X2.5848Y0.3994
X2.6554Y0.2094
X3.0179Y0.8449
X3.0679Y0.8449
T2
X2.8304Y0.4528
X2.8304Y0.3543
X2.9091Y0.4528
X2.9091Y0.3543
T3
X0.3295Y2.1169
X0.3295Y2.0169
X0.4295Y2.1169
X0.4295Y2.0169
X0.5295Y2.1169
X0.5295Y2.0169
X0.6295Y2.1169
X0.6295Y2.0169
X0.7295Y2.1169
X0.7295Y2.0169
X0.8295Y2.1169
X0.8295Y2.0169
X0.9295Y2.1169
X0.9295Y2.0169
X1.0295Y2.1169
X1.0295Y2.0169
X1.1295Y2.1169
X1.1295Y2.0169
X1.2295Y2.1169
X1.2295Y2.0169
X1.3295Y2.1169
X1.3295Y2.0169
X1.4295Y2.1169
X1.4295Y2.0169
X1.5295Y2.1169
X1.5295Y2.0169
X1.6295Y2.1169
X1.6295Y2.0169
X1.7295Y2.1169
X1.7295Y2.0169
X1.8295Y2.1169
X1.8295Y2.0169
X1.9295Y2.1169
X1.9295Y2.0169
X2.0295Y2.1169
X2.0295Y2.0169
X2.1295Y2.1169
X2.1295Y2.0169
X2.2295Y2.1169
X2.2295Y2.0169
T4
X3.0158Y0.6406
X3.0158Y0.1665
T0
M30
