G04 #@! TF.GenerationSoftware,KiCad,Pcbnew,(5.1.4)-1*
G04 #@! TF.CreationDate,2019-10-16T18:51:52+02:00*
G04 #@! TF.ProjectId,HB-RF-USB,48422d52-462d-4555-9342-2e6b69636164,rev?*
G04 #@! TF.SameCoordinates,Original*
G04 #@! TF.FileFunction,Soldermask,Bot*
G04 #@! TF.FilePolarity,Negative*
%FSLAX46Y46*%
G04 Gerber Fmt 4.6, Leading zero omitted, Abs format (unit mm)*
G04 Created by KiCad (PCBNEW (5.1.4)-1) date 2019-10-16 18:51:52*
%MOMM*%
%LPD*%
G04 APERTURE LIST*
%ADD10C,0.100000*%
G04 APERTURE END LIST*
D10*
G36*
X75359199Y-97537273D02*
G01*
X75571717Y-97579545D01*
X75707777Y-97635903D01*
X75946619Y-97734834D01*
X75972093Y-97745386D01*
X76332418Y-97986148D01*
X76638852Y-98292582D01*
X76728122Y-98426183D01*
X76879615Y-98652909D01*
X77045455Y-99053284D01*
X77130000Y-99478319D01*
X77130000Y-99911681D01*
X77111405Y-100005166D01*
X77045455Y-100336717D01*
X76879614Y-100737093D01*
X76638852Y-101097418D01*
X76332418Y-101403852D01*
X75972093Y-101644614D01*
X75972092Y-101644615D01*
X75972091Y-101644615D01*
X75898329Y-101675168D01*
X75571717Y-101810455D01*
X75359198Y-101852728D01*
X75146681Y-101895000D01*
X74713319Y-101895000D01*
X74500802Y-101852728D01*
X74288283Y-101810455D01*
X73961671Y-101675168D01*
X73887909Y-101644615D01*
X73887908Y-101644615D01*
X73887907Y-101644614D01*
X73527582Y-101403852D01*
X73221148Y-101097418D01*
X72980386Y-100737093D01*
X72814545Y-100336717D01*
X72748595Y-100005166D01*
X72730000Y-99911681D01*
X72730000Y-99478319D01*
X72814545Y-99053284D01*
X72980385Y-98652909D01*
X73131879Y-98426183D01*
X73221148Y-98292582D01*
X73527582Y-97986148D01*
X73887907Y-97745386D01*
X73913382Y-97734834D01*
X74152223Y-97635903D01*
X74288283Y-97579545D01*
X74500801Y-97537273D01*
X74713319Y-97495000D01*
X75146681Y-97495000D01*
X75359199Y-97537273D01*
X75359199Y-97537273D01*
G37*
G36*
X41069199Y-97537273D02*
G01*
X41281717Y-97579545D01*
X41417777Y-97635903D01*
X41656619Y-97734834D01*
X41682093Y-97745386D01*
X42042418Y-97986148D01*
X42348852Y-98292582D01*
X42438122Y-98426183D01*
X42589615Y-98652909D01*
X42755455Y-99053284D01*
X42840000Y-99478319D01*
X42840000Y-99911681D01*
X42821405Y-100005166D01*
X42755455Y-100336717D01*
X42589614Y-100737093D01*
X42348852Y-101097418D01*
X42042418Y-101403852D01*
X41682093Y-101644614D01*
X41682092Y-101644615D01*
X41682091Y-101644615D01*
X41608329Y-101675168D01*
X41281717Y-101810455D01*
X41069198Y-101852728D01*
X40856681Y-101895000D01*
X40423319Y-101895000D01*
X40210802Y-101852728D01*
X39998283Y-101810455D01*
X39671671Y-101675168D01*
X39597909Y-101644615D01*
X39597908Y-101644615D01*
X39597907Y-101644614D01*
X39237582Y-101403852D01*
X38931148Y-101097418D01*
X38690386Y-100737093D01*
X38524545Y-100336717D01*
X38458595Y-100005166D01*
X38440000Y-99911681D01*
X38440000Y-99478319D01*
X38524545Y-99053284D01*
X38690385Y-98652909D01*
X38841879Y-98426183D01*
X38931148Y-98292582D01*
X39237582Y-97986148D01*
X39597907Y-97745386D01*
X39623382Y-97734834D01*
X39862223Y-97635903D01*
X39998283Y-97579545D01*
X40210801Y-97537273D01*
X40423319Y-97495000D01*
X40856681Y-97495000D01*
X41069199Y-97537273D01*
X41069199Y-97537273D01*
G37*
G36*
X35706629Y-100127300D02*
G01*
X35866855Y-100175903D01*
X36014519Y-100254832D01*
X36143948Y-100361052D01*
X36250168Y-100490481D01*
X36329097Y-100638145D01*
X36377700Y-100798371D01*
X36394112Y-100965000D01*
X36377700Y-101131629D01*
X36329097Y-101291855D01*
X36250168Y-101439519D01*
X36143948Y-101568948D01*
X36014519Y-101675168D01*
X35866855Y-101754097D01*
X35706629Y-101802700D01*
X35581749Y-101815000D01*
X35498251Y-101815000D01*
X35373371Y-101802700D01*
X35213145Y-101754097D01*
X35065481Y-101675168D01*
X34936052Y-101568948D01*
X34829832Y-101439519D01*
X34750903Y-101291855D01*
X34702300Y-101131629D01*
X34685888Y-100965000D01*
X34702300Y-100798371D01*
X34750903Y-100638145D01*
X34829832Y-100490481D01*
X34936052Y-100361052D01*
X35065481Y-100254832D01*
X35213145Y-100175903D01*
X35373371Y-100127300D01*
X35498251Y-100115000D01*
X35581749Y-100115000D01*
X35706629Y-100127300D01*
X35706629Y-100127300D01*
G37*
G36*
X33166629Y-100127300D02*
G01*
X33326855Y-100175903D01*
X33474519Y-100254832D01*
X33603948Y-100361052D01*
X33710168Y-100490481D01*
X33789097Y-100638145D01*
X33837700Y-100798371D01*
X33854112Y-100965000D01*
X33837700Y-101131629D01*
X33789097Y-101291855D01*
X33710168Y-101439519D01*
X33603948Y-101568948D01*
X33474519Y-101675168D01*
X33326855Y-101754097D01*
X33166629Y-101802700D01*
X33041749Y-101815000D01*
X32958251Y-101815000D01*
X32833371Y-101802700D01*
X32673145Y-101754097D01*
X32525481Y-101675168D01*
X32396052Y-101568948D01*
X32289832Y-101439519D01*
X32210903Y-101291855D01*
X32162300Y-101131629D01*
X32145888Y-100965000D01*
X32162300Y-100798371D01*
X32210903Y-100638145D01*
X32289832Y-100490481D01*
X32396052Y-100361052D01*
X32525481Y-100254832D01*
X32673145Y-100175903D01*
X32833371Y-100127300D01*
X32958251Y-100115000D01*
X33041749Y-100115000D01*
X33166629Y-100127300D01*
X33166629Y-100127300D01*
G37*
G36*
X33166629Y-97587300D02*
G01*
X33326855Y-97635903D01*
X33474519Y-97714832D01*
X33603948Y-97821052D01*
X33710168Y-97950481D01*
X33789097Y-98098145D01*
X33837700Y-98258371D01*
X33854112Y-98425000D01*
X33837700Y-98591629D01*
X33789097Y-98751855D01*
X33710168Y-98899519D01*
X33603948Y-99028948D01*
X33474519Y-99135168D01*
X33326855Y-99214097D01*
X33166629Y-99262700D01*
X33041749Y-99275000D01*
X32958251Y-99275000D01*
X32833371Y-99262700D01*
X32673145Y-99214097D01*
X32525481Y-99135168D01*
X32396052Y-99028948D01*
X32289832Y-98899519D01*
X32210903Y-98751855D01*
X32162300Y-98591629D01*
X32145888Y-98425000D01*
X32162300Y-98258371D01*
X32210903Y-98098145D01*
X32289832Y-97950481D01*
X32396052Y-97821052D01*
X32525481Y-97714832D01*
X32673145Y-97635903D01*
X32833371Y-97587300D01*
X32958251Y-97575000D01*
X33041749Y-97575000D01*
X33166629Y-97587300D01*
X33166629Y-97587300D01*
G37*
G36*
X35706629Y-97587300D02*
G01*
X35866855Y-97635903D01*
X36014519Y-97714832D01*
X36143948Y-97821052D01*
X36250168Y-97950481D01*
X36329097Y-98098145D01*
X36377700Y-98258371D01*
X36394112Y-98425000D01*
X36377700Y-98591629D01*
X36329097Y-98751855D01*
X36250168Y-98899519D01*
X36143948Y-99028948D01*
X36014519Y-99135168D01*
X35866855Y-99214097D01*
X35706629Y-99262700D01*
X35581749Y-99275000D01*
X35498251Y-99275000D01*
X35373371Y-99262700D01*
X35213145Y-99214097D01*
X35065481Y-99135168D01*
X34936052Y-99028948D01*
X34829832Y-98899519D01*
X34750903Y-98751855D01*
X34702300Y-98591629D01*
X34685888Y-98425000D01*
X34702300Y-98258371D01*
X34750903Y-98098145D01*
X34829832Y-97950481D01*
X34936052Y-97821052D01*
X35065481Y-97714832D01*
X35213145Y-97635903D01*
X35373371Y-97587300D01*
X35498251Y-97575000D01*
X35581749Y-97575000D01*
X35706629Y-97587300D01*
X35706629Y-97587300D01*
G37*
G36*
X33166629Y-95047300D02*
G01*
X33326855Y-95095903D01*
X33474519Y-95174832D01*
X33603948Y-95281052D01*
X33710168Y-95410481D01*
X33789097Y-95558145D01*
X33837700Y-95718371D01*
X33854112Y-95885000D01*
X33837700Y-96051629D01*
X33789097Y-96211855D01*
X33710168Y-96359519D01*
X33603948Y-96488948D01*
X33474519Y-96595168D01*
X33326855Y-96674097D01*
X33166629Y-96722700D01*
X33041749Y-96735000D01*
X32958251Y-96735000D01*
X32833371Y-96722700D01*
X32673145Y-96674097D01*
X32525481Y-96595168D01*
X32396052Y-96488948D01*
X32289832Y-96359519D01*
X32210903Y-96211855D01*
X32162300Y-96051629D01*
X32145888Y-95885000D01*
X32162300Y-95718371D01*
X32210903Y-95558145D01*
X32289832Y-95410481D01*
X32396052Y-95281052D01*
X32525481Y-95174832D01*
X32673145Y-95095903D01*
X32833371Y-95047300D01*
X32958251Y-95035000D01*
X33041749Y-95035000D01*
X33166629Y-95047300D01*
X33166629Y-95047300D01*
G37*
G36*
X35706629Y-95047300D02*
G01*
X35866855Y-95095903D01*
X36014519Y-95174832D01*
X36143948Y-95281052D01*
X36250168Y-95410481D01*
X36329097Y-95558145D01*
X36377700Y-95718371D01*
X36394112Y-95885000D01*
X36377700Y-96051629D01*
X36329097Y-96211855D01*
X36250168Y-96359519D01*
X36143948Y-96488948D01*
X36014519Y-96595168D01*
X35866855Y-96674097D01*
X35706629Y-96722700D01*
X35581749Y-96735000D01*
X35498251Y-96735000D01*
X35373371Y-96722700D01*
X35213145Y-96674097D01*
X35065481Y-96595168D01*
X34936052Y-96488948D01*
X34829832Y-96359519D01*
X34750903Y-96211855D01*
X34702300Y-96051629D01*
X34685888Y-95885000D01*
X34702300Y-95718371D01*
X34750903Y-95558145D01*
X34829832Y-95410481D01*
X34936052Y-95281052D01*
X35065481Y-95174832D01*
X35213145Y-95095903D01*
X35373371Y-95047300D01*
X35498251Y-95035000D01*
X35581749Y-95035000D01*
X35706629Y-95047300D01*
X35706629Y-95047300D01*
G37*
G36*
X33166629Y-92507300D02*
G01*
X33326855Y-92555903D01*
X33474519Y-92634832D01*
X33603948Y-92741052D01*
X33710168Y-92870481D01*
X33789097Y-93018145D01*
X33837700Y-93178371D01*
X33854112Y-93345000D01*
X33837700Y-93511629D01*
X33789097Y-93671855D01*
X33710168Y-93819519D01*
X33603948Y-93948948D01*
X33474519Y-94055168D01*
X33326855Y-94134097D01*
X33166629Y-94182700D01*
X33041749Y-94195000D01*
X32958251Y-94195000D01*
X32833371Y-94182700D01*
X32673145Y-94134097D01*
X32525481Y-94055168D01*
X32396052Y-93948948D01*
X32289832Y-93819519D01*
X32210903Y-93671855D01*
X32162300Y-93511629D01*
X32145888Y-93345000D01*
X32162300Y-93178371D01*
X32210903Y-93018145D01*
X32289832Y-92870481D01*
X32396052Y-92741052D01*
X32525481Y-92634832D01*
X32673145Y-92555903D01*
X32833371Y-92507300D01*
X32958251Y-92495000D01*
X33041749Y-92495000D01*
X33166629Y-92507300D01*
X33166629Y-92507300D01*
G37*
G36*
X35706629Y-92507300D02*
G01*
X35866855Y-92555903D01*
X36014519Y-92634832D01*
X36143948Y-92741052D01*
X36250168Y-92870481D01*
X36329097Y-93018145D01*
X36377700Y-93178371D01*
X36394112Y-93345000D01*
X36377700Y-93511629D01*
X36329097Y-93671855D01*
X36250168Y-93819519D01*
X36143948Y-93948948D01*
X36014519Y-94055168D01*
X35866855Y-94134097D01*
X35706629Y-94182700D01*
X35581749Y-94195000D01*
X35498251Y-94195000D01*
X35373371Y-94182700D01*
X35213145Y-94134097D01*
X35065481Y-94055168D01*
X34936052Y-93948948D01*
X34829832Y-93819519D01*
X34750903Y-93671855D01*
X34702300Y-93511629D01*
X34685888Y-93345000D01*
X34702300Y-93178371D01*
X34750903Y-93018145D01*
X34829832Y-92870481D01*
X34936052Y-92741052D01*
X35065481Y-92634832D01*
X35213145Y-92555903D01*
X35373371Y-92507300D01*
X35498251Y-92495000D01*
X35581749Y-92495000D01*
X35706629Y-92507300D01*
X35706629Y-92507300D01*
G37*
G36*
X33166629Y-89967300D02*
G01*
X33326855Y-90015903D01*
X33474519Y-90094832D01*
X33603948Y-90201052D01*
X33710168Y-90330481D01*
X33789097Y-90478145D01*
X33837700Y-90638371D01*
X33854112Y-90805000D01*
X33837700Y-90971629D01*
X33789097Y-91131855D01*
X33710168Y-91279519D01*
X33603948Y-91408948D01*
X33474519Y-91515168D01*
X33326855Y-91594097D01*
X33166629Y-91642700D01*
X33041749Y-91655000D01*
X32958251Y-91655000D01*
X32833371Y-91642700D01*
X32673145Y-91594097D01*
X32525481Y-91515168D01*
X32396052Y-91408948D01*
X32289832Y-91279519D01*
X32210903Y-91131855D01*
X32162300Y-90971629D01*
X32145888Y-90805000D01*
X32162300Y-90638371D01*
X32210903Y-90478145D01*
X32289832Y-90330481D01*
X32396052Y-90201052D01*
X32525481Y-90094832D01*
X32673145Y-90015903D01*
X32833371Y-89967300D01*
X32958251Y-89955000D01*
X33041749Y-89955000D01*
X33166629Y-89967300D01*
X33166629Y-89967300D01*
G37*
G36*
X35706629Y-89967300D02*
G01*
X35866855Y-90015903D01*
X36014519Y-90094832D01*
X36143948Y-90201052D01*
X36250168Y-90330481D01*
X36329097Y-90478145D01*
X36377700Y-90638371D01*
X36394112Y-90805000D01*
X36377700Y-90971629D01*
X36329097Y-91131855D01*
X36250168Y-91279519D01*
X36143948Y-91408948D01*
X36014519Y-91515168D01*
X35866855Y-91594097D01*
X35706629Y-91642700D01*
X35581749Y-91655000D01*
X35498251Y-91655000D01*
X35373371Y-91642700D01*
X35213145Y-91594097D01*
X35065481Y-91515168D01*
X34936052Y-91408948D01*
X34829832Y-91279519D01*
X34750903Y-91131855D01*
X34702300Y-90971629D01*
X34685888Y-90805000D01*
X34702300Y-90638371D01*
X34750903Y-90478145D01*
X34829832Y-90330481D01*
X34936052Y-90201052D01*
X35065481Y-90094832D01*
X35213145Y-90015903D01*
X35373371Y-89967300D01*
X35498251Y-89955000D01*
X35581749Y-89955000D01*
X35706629Y-89967300D01*
X35706629Y-89967300D01*
G37*
G36*
X35706629Y-87427300D02*
G01*
X35866855Y-87475903D01*
X36014519Y-87554832D01*
X36143948Y-87661052D01*
X36250168Y-87790481D01*
X36329097Y-87938145D01*
X36377700Y-88098371D01*
X36394112Y-88265000D01*
X36377700Y-88431629D01*
X36329097Y-88591855D01*
X36250168Y-88739519D01*
X36143948Y-88868948D01*
X36014519Y-88975168D01*
X35866855Y-89054097D01*
X35706629Y-89102700D01*
X35581749Y-89115000D01*
X35498251Y-89115000D01*
X35373371Y-89102700D01*
X35213145Y-89054097D01*
X35065481Y-88975168D01*
X34936052Y-88868948D01*
X34829832Y-88739519D01*
X34750903Y-88591855D01*
X34702300Y-88431629D01*
X34685888Y-88265000D01*
X34702300Y-88098371D01*
X34750903Y-87938145D01*
X34829832Y-87790481D01*
X34936052Y-87661052D01*
X35065481Y-87554832D01*
X35213145Y-87475903D01*
X35373371Y-87427300D01*
X35498251Y-87415000D01*
X35581749Y-87415000D01*
X35706629Y-87427300D01*
X35706629Y-87427300D01*
G37*
G36*
X33166629Y-87427300D02*
G01*
X33326855Y-87475903D01*
X33474519Y-87554832D01*
X33603948Y-87661052D01*
X33710168Y-87790481D01*
X33789097Y-87938145D01*
X33837700Y-88098371D01*
X33854112Y-88265000D01*
X33837700Y-88431629D01*
X33789097Y-88591855D01*
X33710168Y-88739519D01*
X33603948Y-88868948D01*
X33474519Y-88975168D01*
X33326855Y-89054097D01*
X33166629Y-89102700D01*
X33041749Y-89115000D01*
X32958251Y-89115000D01*
X32833371Y-89102700D01*
X32673145Y-89054097D01*
X32525481Y-88975168D01*
X32396052Y-88868948D01*
X32289832Y-88739519D01*
X32210903Y-88591855D01*
X32162300Y-88431629D01*
X32145888Y-88265000D01*
X32162300Y-88098371D01*
X32210903Y-87938145D01*
X32289832Y-87790481D01*
X32396052Y-87661052D01*
X32525481Y-87554832D01*
X32673145Y-87475903D01*
X32833371Y-87427300D01*
X32958251Y-87415000D01*
X33041749Y-87415000D01*
X33166629Y-87427300D01*
X33166629Y-87427300D01*
G37*
G36*
X77169839Y-86247886D02*
G01*
X77272572Y-86279049D01*
X77367251Y-86329656D01*
X77450238Y-86397762D01*
X77518344Y-86480749D01*
X77568951Y-86575428D01*
X77600114Y-86678161D01*
X77610637Y-86785000D01*
X77600114Y-86891839D01*
X77568951Y-86994572D01*
X77518344Y-87089251D01*
X77450238Y-87172238D01*
X77367251Y-87240344D01*
X77272572Y-87290951D01*
X77169839Y-87322114D01*
X77089773Y-87330000D01*
X76126227Y-87330000D01*
X76046161Y-87322114D01*
X75943428Y-87290951D01*
X75848749Y-87240344D01*
X75765762Y-87172238D01*
X75697656Y-87089251D01*
X75647049Y-86994572D01*
X75615886Y-86891839D01*
X75605363Y-86785000D01*
X75615886Y-86678161D01*
X75647049Y-86575428D01*
X75697656Y-86480749D01*
X75765762Y-86397762D01*
X75848749Y-86329656D01*
X75943428Y-86279049D01*
X76046161Y-86247886D01*
X76126227Y-86240000D01*
X77089773Y-86240000D01*
X77169839Y-86247886D01*
X77169839Y-86247886D01*
G37*
G36*
X73535918Y-86267597D02*
G01*
X73573670Y-86279049D01*
X73634885Y-86297618D01*
X73726083Y-86346365D01*
X73726084Y-86346366D01*
X73726086Y-86346367D01*
X73806027Y-86411973D01*
X73862472Y-86480751D01*
X73871635Y-86491917D01*
X73920382Y-86583115D01*
X73920383Y-86583119D01*
X73950403Y-86682082D01*
X73960540Y-86785000D01*
X73950403Y-86887918D01*
X73928193Y-86961133D01*
X73920382Y-86986885D01*
X73871635Y-87078083D01*
X73871633Y-87078086D01*
X73806027Y-87158027D01*
X73726086Y-87223633D01*
X73726084Y-87223634D01*
X73726083Y-87223635D01*
X73634885Y-87272382D01*
X73594016Y-87284779D01*
X73535918Y-87302403D01*
X73458788Y-87310000D01*
X72857212Y-87310000D01*
X72780082Y-87302403D01*
X72721984Y-87284779D01*
X72681115Y-87272382D01*
X72589917Y-87223635D01*
X72589916Y-87223634D01*
X72589914Y-87223633D01*
X72509973Y-87158027D01*
X72444367Y-87078086D01*
X72444365Y-87078083D01*
X72395618Y-86986885D01*
X72387807Y-86961133D01*
X72365597Y-86887918D01*
X72355460Y-86785000D01*
X72365597Y-86682082D01*
X72395617Y-86583119D01*
X72395618Y-86583115D01*
X72444365Y-86491917D01*
X72453529Y-86480751D01*
X72509973Y-86411973D01*
X72589914Y-86346367D01*
X72589916Y-86346366D01*
X72589917Y-86346365D01*
X72681115Y-86297618D01*
X72742330Y-86279049D01*
X72780082Y-86267597D01*
X72857212Y-86260000D01*
X73458788Y-86260000D01*
X73535918Y-86267597D01*
X73535918Y-86267597D01*
G37*
G36*
X33166629Y-84887300D02*
G01*
X33326855Y-84935903D01*
X33474519Y-85014832D01*
X33603948Y-85121052D01*
X33710168Y-85250481D01*
X33789097Y-85398145D01*
X33837700Y-85558371D01*
X33854112Y-85725000D01*
X33837700Y-85891629D01*
X33789097Y-86051855D01*
X33710168Y-86199519D01*
X33603948Y-86328948D01*
X33474519Y-86435168D01*
X33326855Y-86514097D01*
X33166629Y-86562700D01*
X33041749Y-86575000D01*
X32958251Y-86575000D01*
X32833371Y-86562700D01*
X32673145Y-86514097D01*
X32525481Y-86435168D01*
X32396052Y-86328948D01*
X32289832Y-86199519D01*
X32210903Y-86051855D01*
X32162300Y-85891629D01*
X32145888Y-85725000D01*
X32162300Y-85558371D01*
X32210903Y-85398145D01*
X32289832Y-85250481D01*
X32396052Y-85121052D01*
X32525481Y-85014832D01*
X32673145Y-84935903D01*
X32833371Y-84887300D01*
X32958251Y-84875000D01*
X33041749Y-84875000D01*
X33166629Y-84887300D01*
X33166629Y-84887300D01*
G37*
G36*
X35706629Y-84887300D02*
G01*
X35866855Y-84935903D01*
X36014519Y-85014832D01*
X36143948Y-85121052D01*
X36250168Y-85250481D01*
X36329097Y-85398145D01*
X36377700Y-85558371D01*
X36394112Y-85725000D01*
X36377700Y-85891629D01*
X36329097Y-86051855D01*
X36250168Y-86199519D01*
X36143948Y-86328948D01*
X36014519Y-86435168D01*
X35866855Y-86514097D01*
X35706629Y-86562700D01*
X35581749Y-86575000D01*
X35498251Y-86575000D01*
X35373371Y-86562700D01*
X35213145Y-86514097D01*
X35065481Y-86435168D01*
X34936052Y-86328948D01*
X34829832Y-86199519D01*
X34750903Y-86051855D01*
X34702300Y-85891629D01*
X34685888Y-85725000D01*
X34702300Y-85558371D01*
X34750903Y-85398145D01*
X34829832Y-85250481D01*
X34936052Y-85121052D01*
X35065481Y-85014832D01*
X35213145Y-84935903D01*
X35373371Y-84887300D01*
X35498251Y-84875000D01*
X35581749Y-84875000D01*
X35706629Y-84887300D01*
X35706629Y-84887300D01*
G37*
G36*
X74538215Y-84920568D02*
G01*
X74588262Y-84941298D01*
X74633303Y-84971393D01*
X74671607Y-85009697D01*
X74701702Y-85054738D01*
X74722432Y-85104785D01*
X74733000Y-85157915D01*
X74733000Y-85212085D01*
X74722432Y-85265215D01*
X74701702Y-85315262D01*
X74671607Y-85360303D01*
X74633303Y-85398607D01*
X74588262Y-85428702D01*
X74538215Y-85449432D01*
X74485085Y-85460000D01*
X74430915Y-85460000D01*
X74377785Y-85449432D01*
X74327738Y-85428702D01*
X74282697Y-85398607D01*
X74244393Y-85360303D01*
X74214298Y-85315262D01*
X74193568Y-85265215D01*
X74183000Y-85212085D01*
X74183000Y-85157915D01*
X74193568Y-85104785D01*
X74214298Y-85054738D01*
X74244393Y-85009697D01*
X74282697Y-84971393D01*
X74327738Y-84941298D01*
X74377785Y-84920568D01*
X74430915Y-84910000D01*
X74485085Y-84910000D01*
X74538215Y-84920568D01*
X74538215Y-84920568D01*
G37*
G36*
X33166629Y-82347300D02*
G01*
X33326855Y-82395903D01*
X33474519Y-82474832D01*
X33603948Y-82581052D01*
X33710168Y-82710481D01*
X33789097Y-82858145D01*
X33837700Y-83018371D01*
X33854112Y-83185000D01*
X33837700Y-83351629D01*
X33789097Y-83511855D01*
X33710168Y-83659519D01*
X33603948Y-83788948D01*
X33474519Y-83895168D01*
X33326855Y-83974097D01*
X33166629Y-84022700D01*
X33041749Y-84035000D01*
X32958251Y-84035000D01*
X32833371Y-84022700D01*
X32673145Y-83974097D01*
X32525481Y-83895168D01*
X32396052Y-83788948D01*
X32289832Y-83659519D01*
X32210903Y-83511855D01*
X32162300Y-83351629D01*
X32145888Y-83185000D01*
X32162300Y-83018371D01*
X32210903Y-82858145D01*
X32289832Y-82710481D01*
X32396052Y-82581052D01*
X32525481Y-82474832D01*
X32673145Y-82395903D01*
X32833371Y-82347300D01*
X32958251Y-82335000D01*
X33041749Y-82335000D01*
X33166629Y-82347300D01*
X33166629Y-82347300D01*
G37*
G36*
X35706629Y-82347300D02*
G01*
X35866855Y-82395903D01*
X36014519Y-82474832D01*
X36143948Y-82581052D01*
X36250168Y-82710481D01*
X36329097Y-82858145D01*
X36377700Y-83018371D01*
X36394112Y-83185000D01*
X36377700Y-83351629D01*
X36329097Y-83511855D01*
X36250168Y-83659519D01*
X36143948Y-83788948D01*
X36014519Y-83895168D01*
X35866855Y-83974097D01*
X35706629Y-84022700D01*
X35581749Y-84035000D01*
X35498251Y-84035000D01*
X35373371Y-84022700D01*
X35213145Y-83974097D01*
X35065481Y-83895168D01*
X34936052Y-83788948D01*
X34829832Y-83659519D01*
X34750903Y-83511855D01*
X34702300Y-83351629D01*
X34685888Y-83185000D01*
X34702300Y-83018371D01*
X34750903Y-82858145D01*
X34829832Y-82710481D01*
X34936052Y-82581052D01*
X35065481Y-82474832D01*
X35213145Y-82395903D01*
X35373371Y-82347300D01*
X35498251Y-82335000D01*
X35581749Y-82335000D01*
X35706629Y-82347300D01*
X35706629Y-82347300D01*
G37*
G36*
X33166629Y-79807300D02*
G01*
X33326855Y-79855903D01*
X33474519Y-79934832D01*
X33603948Y-80041052D01*
X33710168Y-80170481D01*
X33789097Y-80318145D01*
X33837700Y-80478371D01*
X33854112Y-80645000D01*
X33837700Y-80811629D01*
X33789097Y-80971855D01*
X33710168Y-81119519D01*
X33603948Y-81248948D01*
X33474519Y-81355168D01*
X33326855Y-81434097D01*
X33166629Y-81482700D01*
X33041749Y-81495000D01*
X32958251Y-81495000D01*
X32833371Y-81482700D01*
X32673145Y-81434097D01*
X32525481Y-81355168D01*
X32396052Y-81248948D01*
X32289832Y-81119519D01*
X32210903Y-80971855D01*
X32162300Y-80811629D01*
X32145888Y-80645000D01*
X32162300Y-80478371D01*
X32210903Y-80318145D01*
X32289832Y-80170481D01*
X32396052Y-80041052D01*
X32525481Y-79934832D01*
X32673145Y-79855903D01*
X32833371Y-79807300D01*
X32958251Y-79795000D01*
X33041749Y-79795000D01*
X33166629Y-79807300D01*
X33166629Y-79807300D01*
G37*
G36*
X35706629Y-79807300D02*
G01*
X35866855Y-79855903D01*
X36014519Y-79934832D01*
X36143948Y-80041052D01*
X36250168Y-80170481D01*
X36329097Y-80318145D01*
X36377700Y-80478371D01*
X36394112Y-80645000D01*
X36377700Y-80811629D01*
X36329097Y-80971855D01*
X36250168Y-81119519D01*
X36143948Y-81248948D01*
X36014519Y-81355168D01*
X35866855Y-81434097D01*
X35706629Y-81482700D01*
X35581749Y-81495000D01*
X35498251Y-81495000D01*
X35373371Y-81482700D01*
X35213145Y-81434097D01*
X35065481Y-81355168D01*
X34936052Y-81248948D01*
X34829832Y-81119519D01*
X34750903Y-80971855D01*
X34702300Y-80811629D01*
X34685888Y-80645000D01*
X34702300Y-80478371D01*
X34750903Y-80318145D01*
X34829832Y-80170481D01*
X34936052Y-80041052D01*
X35065481Y-79934832D01*
X35213145Y-79855903D01*
X35373371Y-79807300D01*
X35498251Y-79795000D01*
X35581749Y-79795000D01*
X35706629Y-79807300D01*
X35706629Y-79807300D01*
G37*
G36*
X74538215Y-80920568D02*
G01*
X74588262Y-80941298D01*
X74633303Y-80971393D01*
X74671607Y-81009697D01*
X74701702Y-81054738D01*
X74722432Y-81104785D01*
X74733000Y-81157915D01*
X74733000Y-81212085D01*
X74722432Y-81265215D01*
X74701702Y-81315262D01*
X74671607Y-81360303D01*
X74633303Y-81398607D01*
X74588262Y-81428702D01*
X74538215Y-81449432D01*
X74485085Y-81460000D01*
X74430915Y-81460000D01*
X74377785Y-81449432D01*
X74327738Y-81428702D01*
X74282697Y-81398607D01*
X74244393Y-81360303D01*
X74214298Y-81315262D01*
X74193568Y-81265215D01*
X74183000Y-81212085D01*
X74183000Y-81157915D01*
X74193568Y-81104785D01*
X74214298Y-81054738D01*
X74244393Y-81009697D01*
X74282697Y-80971393D01*
X74327738Y-80941298D01*
X74377785Y-80920568D01*
X74430915Y-80910000D01*
X74485085Y-80910000D01*
X74538215Y-80920568D01*
X74538215Y-80920568D01*
G37*
G36*
X77169839Y-79047886D02*
G01*
X77272572Y-79079049D01*
X77367251Y-79129656D01*
X77450238Y-79197762D01*
X77518344Y-79280749D01*
X77568951Y-79375428D01*
X77600114Y-79478161D01*
X77610637Y-79585000D01*
X77600114Y-79691839D01*
X77568951Y-79794572D01*
X77518344Y-79889251D01*
X77450238Y-79972238D01*
X77367251Y-80040344D01*
X77272572Y-80090951D01*
X77169839Y-80122114D01*
X77089773Y-80130000D01*
X76126227Y-80130000D01*
X76046161Y-80122114D01*
X75943428Y-80090951D01*
X75848749Y-80040344D01*
X75765762Y-79972238D01*
X75697656Y-79889251D01*
X75647049Y-79794572D01*
X75615886Y-79691839D01*
X75605363Y-79585000D01*
X75615886Y-79478161D01*
X75647049Y-79375428D01*
X75697656Y-79280749D01*
X75765762Y-79197762D01*
X75848749Y-79129656D01*
X75943428Y-79079049D01*
X76046161Y-79047886D01*
X76126227Y-79040000D01*
X77089773Y-79040000D01*
X77169839Y-79047886D01*
X77169839Y-79047886D01*
G37*
G36*
X73535918Y-79067597D02*
G01*
X73573670Y-79079049D01*
X73634885Y-79097618D01*
X73726083Y-79146365D01*
X73726084Y-79146366D01*
X73726086Y-79146367D01*
X73806027Y-79211973D01*
X73862472Y-79280751D01*
X73871635Y-79291917D01*
X73920382Y-79383115D01*
X73920383Y-79383119D01*
X73950403Y-79482082D01*
X73960540Y-79585000D01*
X73950403Y-79687918D01*
X73928193Y-79761133D01*
X73920382Y-79786885D01*
X73871635Y-79878083D01*
X73871633Y-79878086D01*
X73806027Y-79958027D01*
X73726086Y-80023633D01*
X73726084Y-80023634D01*
X73726083Y-80023635D01*
X73634885Y-80072382D01*
X73594016Y-80084779D01*
X73535918Y-80102403D01*
X73458788Y-80110000D01*
X72857212Y-80110000D01*
X72780082Y-80102403D01*
X72721984Y-80084779D01*
X72681115Y-80072382D01*
X72589917Y-80023635D01*
X72589916Y-80023634D01*
X72589914Y-80023633D01*
X72509973Y-79958027D01*
X72444367Y-79878086D01*
X72444365Y-79878083D01*
X72395618Y-79786885D01*
X72387807Y-79761133D01*
X72365597Y-79687918D01*
X72355460Y-79585000D01*
X72365597Y-79482082D01*
X72395617Y-79383119D01*
X72395618Y-79383115D01*
X72444365Y-79291917D01*
X72453529Y-79280751D01*
X72509973Y-79211973D01*
X72589914Y-79146367D01*
X72589916Y-79146366D01*
X72589917Y-79146365D01*
X72681115Y-79097618D01*
X72742330Y-79079049D01*
X72780082Y-79067597D01*
X72857212Y-79060000D01*
X73458788Y-79060000D01*
X73535918Y-79067597D01*
X73535918Y-79067597D01*
G37*
G36*
X35706629Y-77267300D02*
G01*
X35866855Y-77315903D01*
X36014519Y-77394832D01*
X36143948Y-77501052D01*
X36250168Y-77630481D01*
X36329097Y-77778145D01*
X36377700Y-77938371D01*
X36394112Y-78105000D01*
X36377700Y-78271629D01*
X36329097Y-78431855D01*
X36250168Y-78579519D01*
X36143948Y-78708948D01*
X36014519Y-78815168D01*
X35866855Y-78894097D01*
X35706629Y-78942700D01*
X35581749Y-78955000D01*
X35498251Y-78955000D01*
X35373371Y-78942700D01*
X35213145Y-78894097D01*
X35065481Y-78815168D01*
X34936052Y-78708948D01*
X34829832Y-78579519D01*
X34750903Y-78431855D01*
X34702300Y-78271629D01*
X34685888Y-78105000D01*
X34702300Y-77938371D01*
X34750903Y-77778145D01*
X34829832Y-77630481D01*
X34936052Y-77501052D01*
X35065481Y-77394832D01*
X35213145Y-77315903D01*
X35373371Y-77267300D01*
X35498251Y-77255000D01*
X35581749Y-77255000D01*
X35706629Y-77267300D01*
X35706629Y-77267300D01*
G37*
G36*
X33166629Y-77267300D02*
G01*
X33326855Y-77315903D01*
X33474519Y-77394832D01*
X33603948Y-77501052D01*
X33710168Y-77630481D01*
X33789097Y-77778145D01*
X33837700Y-77938371D01*
X33854112Y-78105000D01*
X33837700Y-78271629D01*
X33789097Y-78431855D01*
X33710168Y-78579519D01*
X33603948Y-78708948D01*
X33474519Y-78815168D01*
X33326855Y-78894097D01*
X33166629Y-78942700D01*
X33041749Y-78955000D01*
X32958251Y-78955000D01*
X32833371Y-78942700D01*
X32673145Y-78894097D01*
X32525481Y-78815168D01*
X32396052Y-78708948D01*
X32289832Y-78579519D01*
X32210903Y-78431855D01*
X32162300Y-78271629D01*
X32145888Y-78105000D01*
X32162300Y-77938371D01*
X32210903Y-77778145D01*
X32289832Y-77630481D01*
X32396052Y-77501052D01*
X32525481Y-77394832D01*
X32673145Y-77315903D01*
X32833371Y-77267300D01*
X32958251Y-77255000D01*
X33041749Y-77255000D01*
X33166629Y-77267300D01*
X33166629Y-77267300D01*
G37*
G36*
X35706629Y-74727300D02*
G01*
X35866855Y-74775903D01*
X36014519Y-74854832D01*
X36143948Y-74961052D01*
X36250168Y-75090481D01*
X36329097Y-75238145D01*
X36377700Y-75398371D01*
X36394112Y-75565000D01*
X36377700Y-75731629D01*
X36329097Y-75891855D01*
X36250168Y-76039519D01*
X36143948Y-76168948D01*
X36014519Y-76275168D01*
X35866855Y-76354097D01*
X35706629Y-76402700D01*
X35581749Y-76415000D01*
X35498251Y-76415000D01*
X35373371Y-76402700D01*
X35213145Y-76354097D01*
X35065481Y-76275168D01*
X34936052Y-76168948D01*
X34829832Y-76039519D01*
X34750903Y-75891855D01*
X34702300Y-75731629D01*
X34685888Y-75565000D01*
X34702300Y-75398371D01*
X34750903Y-75238145D01*
X34829832Y-75090481D01*
X34936052Y-74961052D01*
X35065481Y-74854832D01*
X35213145Y-74775903D01*
X35373371Y-74727300D01*
X35498251Y-74715000D01*
X35581749Y-74715000D01*
X35706629Y-74727300D01*
X35706629Y-74727300D01*
G37*
G36*
X33166629Y-74727300D02*
G01*
X33326855Y-74775903D01*
X33474519Y-74854832D01*
X33603948Y-74961052D01*
X33710168Y-75090481D01*
X33789097Y-75238145D01*
X33837700Y-75398371D01*
X33854112Y-75565000D01*
X33837700Y-75731629D01*
X33789097Y-75891855D01*
X33710168Y-76039519D01*
X33603948Y-76168948D01*
X33474519Y-76275168D01*
X33326855Y-76354097D01*
X33166629Y-76402700D01*
X33041749Y-76415000D01*
X32958251Y-76415000D01*
X32833371Y-76402700D01*
X32673145Y-76354097D01*
X32525481Y-76275168D01*
X32396052Y-76168948D01*
X32289832Y-76039519D01*
X32210903Y-75891855D01*
X32162300Y-75731629D01*
X32145888Y-75565000D01*
X32162300Y-75398371D01*
X32210903Y-75238145D01*
X32289832Y-75090481D01*
X32396052Y-74961052D01*
X32525481Y-74854832D01*
X32673145Y-74775903D01*
X32833371Y-74727300D01*
X32958251Y-74715000D01*
X33041749Y-74715000D01*
X33166629Y-74727300D01*
X33166629Y-74727300D01*
G37*
G36*
X33166629Y-72187300D02*
G01*
X33326855Y-72235903D01*
X33474519Y-72314832D01*
X33603948Y-72421052D01*
X33710168Y-72550481D01*
X33789097Y-72698145D01*
X33837700Y-72858371D01*
X33854112Y-73025000D01*
X33837700Y-73191629D01*
X33789097Y-73351855D01*
X33710168Y-73499519D01*
X33603948Y-73628948D01*
X33474519Y-73735168D01*
X33326855Y-73814097D01*
X33166629Y-73862700D01*
X33041749Y-73875000D01*
X32958251Y-73875000D01*
X32833371Y-73862700D01*
X32673145Y-73814097D01*
X32525481Y-73735168D01*
X32396052Y-73628948D01*
X32289832Y-73499519D01*
X32210903Y-73351855D01*
X32162300Y-73191629D01*
X32145888Y-73025000D01*
X32162300Y-72858371D01*
X32210903Y-72698145D01*
X32289832Y-72550481D01*
X32396052Y-72421052D01*
X32525481Y-72314832D01*
X32673145Y-72235903D01*
X32833371Y-72187300D01*
X32958251Y-72175000D01*
X33041749Y-72175000D01*
X33166629Y-72187300D01*
X33166629Y-72187300D01*
G37*
G36*
X73826629Y-72187300D02*
G01*
X73986855Y-72235903D01*
X74134519Y-72314832D01*
X74263948Y-72421052D01*
X74370168Y-72550481D01*
X74449097Y-72698145D01*
X74497700Y-72858371D01*
X74514112Y-73025000D01*
X74497700Y-73191629D01*
X74449097Y-73351855D01*
X74370168Y-73499519D01*
X74263948Y-73628948D01*
X74134519Y-73735168D01*
X73986855Y-73814097D01*
X73826629Y-73862700D01*
X73701749Y-73875000D01*
X73618251Y-73875000D01*
X73493371Y-73862700D01*
X73333145Y-73814097D01*
X73185481Y-73735168D01*
X73056052Y-73628948D01*
X72949832Y-73499519D01*
X72870903Y-73351855D01*
X72822300Y-73191629D01*
X72805888Y-73025000D01*
X72822300Y-72858371D01*
X72870903Y-72698145D01*
X72949832Y-72550481D01*
X73056052Y-72421052D01*
X73185481Y-72314832D01*
X73333145Y-72235903D01*
X73493371Y-72187300D01*
X73618251Y-72175000D01*
X73701749Y-72175000D01*
X73826629Y-72187300D01*
X73826629Y-72187300D01*
G37*
G36*
X76366629Y-72187300D02*
G01*
X76526855Y-72235903D01*
X76674519Y-72314832D01*
X76803948Y-72421052D01*
X76910168Y-72550481D01*
X76989097Y-72698145D01*
X77037700Y-72858371D01*
X77054112Y-73025000D01*
X77037700Y-73191629D01*
X76989097Y-73351855D01*
X76910168Y-73499519D01*
X76803948Y-73628948D01*
X76674519Y-73735168D01*
X76526855Y-73814097D01*
X76366629Y-73862700D01*
X76241749Y-73875000D01*
X76158251Y-73875000D01*
X76033371Y-73862700D01*
X75873145Y-73814097D01*
X75725481Y-73735168D01*
X75596052Y-73628948D01*
X75489832Y-73499519D01*
X75410903Y-73351855D01*
X75362300Y-73191629D01*
X75345888Y-73025000D01*
X75362300Y-72858371D01*
X75410903Y-72698145D01*
X75489832Y-72550481D01*
X75596052Y-72421052D01*
X75725481Y-72314832D01*
X75873145Y-72235903D01*
X76033371Y-72187300D01*
X76158251Y-72175000D01*
X76241749Y-72175000D01*
X76366629Y-72187300D01*
X76366629Y-72187300D01*
G37*
G36*
X35706629Y-72187300D02*
G01*
X35866855Y-72235903D01*
X36014519Y-72314832D01*
X36143948Y-72421052D01*
X36250168Y-72550481D01*
X36329097Y-72698145D01*
X36377700Y-72858371D01*
X36394112Y-73025000D01*
X36377700Y-73191629D01*
X36329097Y-73351855D01*
X36250168Y-73499519D01*
X36143948Y-73628948D01*
X36014519Y-73735168D01*
X35866855Y-73814097D01*
X35706629Y-73862700D01*
X35581749Y-73875000D01*
X35498251Y-73875000D01*
X35373371Y-73862700D01*
X35213145Y-73814097D01*
X35065481Y-73735168D01*
X34936052Y-73628948D01*
X34829832Y-73499519D01*
X34750903Y-73351855D01*
X34702300Y-73191629D01*
X34685888Y-73025000D01*
X34702300Y-72858371D01*
X34750903Y-72698145D01*
X34829832Y-72550481D01*
X34936052Y-72421052D01*
X35065481Y-72314832D01*
X35213145Y-72235903D01*
X35373371Y-72187300D01*
X35498251Y-72175000D01*
X35581749Y-72175000D01*
X35706629Y-72187300D01*
X35706629Y-72187300D01*
G37*
G36*
X35706629Y-69647300D02*
G01*
X35866855Y-69695903D01*
X36014519Y-69774832D01*
X36143948Y-69881052D01*
X36250168Y-70010481D01*
X36329097Y-70158145D01*
X36377700Y-70318371D01*
X36394112Y-70485000D01*
X36377700Y-70651629D01*
X36329097Y-70811855D01*
X36250168Y-70959519D01*
X36143948Y-71088948D01*
X36014519Y-71195168D01*
X35866855Y-71274097D01*
X35706629Y-71322700D01*
X35581749Y-71335000D01*
X35498251Y-71335000D01*
X35373371Y-71322700D01*
X35213145Y-71274097D01*
X35065481Y-71195168D01*
X34936052Y-71088948D01*
X34829832Y-70959519D01*
X34750903Y-70811855D01*
X34702300Y-70651629D01*
X34685888Y-70485000D01*
X34702300Y-70318371D01*
X34750903Y-70158145D01*
X34829832Y-70010481D01*
X34936052Y-69881052D01*
X35065481Y-69774832D01*
X35213145Y-69695903D01*
X35373371Y-69647300D01*
X35498251Y-69635000D01*
X35581749Y-69635000D01*
X35706629Y-69647300D01*
X35706629Y-69647300D01*
G37*
G36*
X76366629Y-69647300D02*
G01*
X76526855Y-69695903D01*
X76674519Y-69774832D01*
X76803948Y-69881052D01*
X76910168Y-70010481D01*
X76989097Y-70158145D01*
X77037700Y-70318371D01*
X77054112Y-70485000D01*
X77037700Y-70651629D01*
X76989097Y-70811855D01*
X76910168Y-70959519D01*
X76803948Y-71088948D01*
X76674519Y-71195168D01*
X76526855Y-71274097D01*
X76366629Y-71322700D01*
X76241749Y-71335000D01*
X76158251Y-71335000D01*
X76033371Y-71322700D01*
X75873145Y-71274097D01*
X75725481Y-71195168D01*
X75596052Y-71088948D01*
X75489832Y-70959519D01*
X75410903Y-70811855D01*
X75362300Y-70651629D01*
X75345888Y-70485000D01*
X75362300Y-70318371D01*
X75410903Y-70158145D01*
X75489832Y-70010481D01*
X75596052Y-69881052D01*
X75725481Y-69774832D01*
X75873145Y-69695903D01*
X76033371Y-69647300D01*
X76158251Y-69635000D01*
X76241749Y-69635000D01*
X76366629Y-69647300D01*
X76366629Y-69647300D01*
G37*
G36*
X73826629Y-69647300D02*
G01*
X73986855Y-69695903D01*
X74134519Y-69774832D01*
X74263948Y-69881052D01*
X74370168Y-70010481D01*
X74449097Y-70158145D01*
X74497700Y-70318371D01*
X74514112Y-70485000D01*
X74497700Y-70651629D01*
X74449097Y-70811855D01*
X74370168Y-70959519D01*
X74263948Y-71088948D01*
X74134519Y-71195168D01*
X73986855Y-71274097D01*
X73826629Y-71322700D01*
X73701749Y-71335000D01*
X73618251Y-71335000D01*
X73493371Y-71322700D01*
X73333145Y-71274097D01*
X73185481Y-71195168D01*
X73056052Y-71088948D01*
X72949832Y-70959519D01*
X72870903Y-70811855D01*
X72822300Y-70651629D01*
X72805888Y-70485000D01*
X72822300Y-70318371D01*
X72870903Y-70158145D01*
X72949832Y-70010481D01*
X73056052Y-69881052D01*
X73185481Y-69774832D01*
X73333145Y-69695903D01*
X73493371Y-69647300D01*
X73618251Y-69635000D01*
X73701749Y-69635000D01*
X73826629Y-69647300D01*
X73826629Y-69647300D01*
G37*
G36*
X33166629Y-69647300D02*
G01*
X33326855Y-69695903D01*
X33474519Y-69774832D01*
X33603948Y-69881052D01*
X33710168Y-70010481D01*
X33789097Y-70158145D01*
X33837700Y-70318371D01*
X33854112Y-70485000D01*
X33837700Y-70651629D01*
X33789097Y-70811855D01*
X33710168Y-70959519D01*
X33603948Y-71088948D01*
X33474519Y-71195168D01*
X33326855Y-71274097D01*
X33166629Y-71322700D01*
X33041749Y-71335000D01*
X32958251Y-71335000D01*
X32833371Y-71322700D01*
X32673145Y-71274097D01*
X32525481Y-71195168D01*
X32396052Y-71088948D01*
X32289832Y-70959519D01*
X32210903Y-70811855D01*
X32162300Y-70651629D01*
X32145888Y-70485000D01*
X32162300Y-70318371D01*
X32210903Y-70158145D01*
X32289832Y-70010481D01*
X32396052Y-69881052D01*
X32525481Y-69774832D01*
X32673145Y-69695903D01*
X32833371Y-69647300D01*
X32958251Y-69635000D01*
X33041749Y-69635000D01*
X33166629Y-69647300D01*
X33166629Y-69647300D01*
G37*
G36*
X76366629Y-67107300D02*
G01*
X76526855Y-67155903D01*
X76674519Y-67234832D01*
X76803948Y-67341052D01*
X76910168Y-67470481D01*
X76989097Y-67618145D01*
X77037700Y-67778371D01*
X77054112Y-67945000D01*
X77037700Y-68111629D01*
X76989097Y-68271855D01*
X76910168Y-68419519D01*
X76803948Y-68548948D01*
X76674519Y-68655168D01*
X76526855Y-68734097D01*
X76366629Y-68782700D01*
X76241749Y-68795000D01*
X76158251Y-68795000D01*
X76033371Y-68782700D01*
X75873145Y-68734097D01*
X75725481Y-68655168D01*
X75596052Y-68548948D01*
X75489832Y-68419519D01*
X75410903Y-68271855D01*
X75362300Y-68111629D01*
X75345888Y-67945000D01*
X75362300Y-67778371D01*
X75410903Y-67618145D01*
X75489832Y-67470481D01*
X75596052Y-67341052D01*
X75725481Y-67234832D01*
X75873145Y-67155903D01*
X76033371Y-67107300D01*
X76158251Y-67095000D01*
X76241749Y-67095000D01*
X76366629Y-67107300D01*
X76366629Y-67107300D01*
G37*
G36*
X73826629Y-67107300D02*
G01*
X73986855Y-67155903D01*
X74134519Y-67234832D01*
X74263948Y-67341052D01*
X74370168Y-67470481D01*
X74449097Y-67618145D01*
X74497700Y-67778371D01*
X74514112Y-67945000D01*
X74497700Y-68111629D01*
X74449097Y-68271855D01*
X74370168Y-68419519D01*
X74263948Y-68548948D01*
X74134519Y-68655168D01*
X73986855Y-68734097D01*
X73826629Y-68782700D01*
X73701749Y-68795000D01*
X73618251Y-68795000D01*
X73493371Y-68782700D01*
X73333145Y-68734097D01*
X73185481Y-68655168D01*
X73056052Y-68548948D01*
X72949832Y-68419519D01*
X72870903Y-68271855D01*
X72822300Y-68111629D01*
X72805888Y-67945000D01*
X72822300Y-67778371D01*
X72870903Y-67618145D01*
X72949832Y-67470481D01*
X73056052Y-67341052D01*
X73185481Y-67234832D01*
X73333145Y-67155903D01*
X73493371Y-67107300D01*
X73618251Y-67095000D01*
X73701749Y-67095000D01*
X73826629Y-67107300D01*
X73826629Y-67107300D01*
G37*
G36*
X35706629Y-67107300D02*
G01*
X35866855Y-67155903D01*
X36014519Y-67234832D01*
X36143948Y-67341052D01*
X36250168Y-67470481D01*
X36329097Y-67618145D01*
X36377700Y-67778371D01*
X36394112Y-67945000D01*
X36377700Y-68111629D01*
X36329097Y-68271855D01*
X36250168Y-68419519D01*
X36143948Y-68548948D01*
X36014519Y-68655168D01*
X35866855Y-68734097D01*
X35706629Y-68782700D01*
X35581749Y-68795000D01*
X35498251Y-68795000D01*
X35373371Y-68782700D01*
X35213145Y-68734097D01*
X35065481Y-68655168D01*
X34936052Y-68548948D01*
X34829832Y-68419519D01*
X34750903Y-68271855D01*
X34702300Y-68111629D01*
X34685888Y-67945000D01*
X34702300Y-67778371D01*
X34750903Y-67618145D01*
X34829832Y-67470481D01*
X34936052Y-67341052D01*
X35065481Y-67234832D01*
X35213145Y-67155903D01*
X35373371Y-67107300D01*
X35498251Y-67095000D01*
X35581749Y-67095000D01*
X35706629Y-67107300D01*
X35706629Y-67107300D01*
G37*
G36*
X33166629Y-67107300D02*
G01*
X33326855Y-67155903D01*
X33474519Y-67234832D01*
X33603948Y-67341052D01*
X33710168Y-67470481D01*
X33789097Y-67618145D01*
X33837700Y-67778371D01*
X33854112Y-67945000D01*
X33837700Y-68111629D01*
X33789097Y-68271855D01*
X33710168Y-68419519D01*
X33603948Y-68548948D01*
X33474519Y-68655168D01*
X33326855Y-68734097D01*
X33166629Y-68782700D01*
X33041749Y-68795000D01*
X32958251Y-68795000D01*
X32833371Y-68782700D01*
X32673145Y-68734097D01*
X32525481Y-68655168D01*
X32396052Y-68548948D01*
X32289832Y-68419519D01*
X32210903Y-68271855D01*
X32162300Y-68111629D01*
X32145888Y-67945000D01*
X32162300Y-67778371D01*
X32210903Y-67618145D01*
X32289832Y-67470481D01*
X32396052Y-67341052D01*
X32525481Y-67234832D01*
X32673145Y-67155903D01*
X32833371Y-67107300D01*
X32958251Y-67095000D01*
X33041749Y-67095000D01*
X33166629Y-67107300D01*
X33166629Y-67107300D01*
G37*
G36*
X76366629Y-64567300D02*
G01*
X76526855Y-64615903D01*
X76674519Y-64694832D01*
X76803948Y-64801052D01*
X76910168Y-64930481D01*
X76989097Y-65078145D01*
X77037700Y-65238371D01*
X77054112Y-65405000D01*
X77037700Y-65571629D01*
X76989097Y-65731855D01*
X76910168Y-65879519D01*
X76803948Y-66008948D01*
X76674519Y-66115168D01*
X76526855Y-66194097D01*
X76366629Y-66242700D01*
X76241749Y-66255000D01*
X76158251Y-66255000D01*
X76033371Y-66242700D01*
X75873145Y-66194097D01*
X75725481Y-66115168D01*
X75596052Y-66008948D01*
X75489832Y-65879519D01*
X75410903Y-65731855D01*
X75362300Y-65571629D01*
X75345888Y-65405000D01*
X75362300Y-65238371D01*
X75410903Y-65078145D01*
X75489832Y-64930481D01*
X75596052Y-64801052D01*
X75725481Y-64694832D01*
X75873145Y-64615903D01*
X76033371Y-64567300D01*
X76158251Y-64555000D01*
X76241749Y-64555000D01*
X76366629Y-64567300D01*
X76366629Y-64567300D01*
G37*
G36*
X73826629Y-64567300D02*
G01*
X73986855Y-64615903D01*
X74134519Y-64694832D01*
X74263948Y-64801052D01*
X74370168Y-64930481D01*
X74449097Y-65078145D01*
X74497700Y-65238371D01*
X74514112Y-65405000D01*
X74497700Y-65571629D01*
X74449097Y-65731855D01*
X74370168Y-65879519D01*
X74263948Y-66008948D01*
X74134519Y-66115168D01*
X73986855Y-66194097D01*
X73826629Y-66242700D01*
X73701749Y-66255000D01*
X73618251Y-66255000D01*
X73493371Y-66242700D01*
X73333145Y-66194097D01*
X73185481Y-66115168D01*
X73056052Y-66008948D01*
X72949832Y-65879519D01*
X72870903Y-65731855D01*
X72822300Y-65571629D01*
X72805888Y-65405000D01*
X72822300Y-65238371D01*
X72870903Y-65078145D01*
X72949832Y-64930481D01*
X73056052Y-64801052D01*
X73185481Y-64694832D01*
X73333145Y-64615903D01*
X73493371Y-64567300D01*
X73618251Y-64555000D01*
X73701749Y-64555000D01*
X73826629Y-64567300D01*
X73826629Y-64567300D01*
G37*
G36*
X33166629Y-64567300D02*
G01*
X33326855Y-64615903D01*
X33474519Y-64694832D01*
X33603948Y-64801052D01*
X33710168Y-64930481D01*
X33789097Y-65078145D01*
X33837700Y-65238371D01*
X33854112Y-65405000D01*
X33837700Y-65571629D01*
X33789097Y-65731855D01*
X33710168Y-65879519D01*
X33603948Y-66008948D01*
X33474519Y-66115168D01*
X33326855Y-66194097D01*
X33166629Y-66242700D01*
X33041749Y-66255000D01*
X32958251Y-66255000D01*
X32833371Y-66242700D01*
X32673145Y-66194097D01*
X32525481Y-66115168D01*
X32396052Y-66008948D01*
X32289832Y-65879519D01*
X32210903Y-65731855D01*
X32162300Y-65571629D01*
X32145888Y-65405000D01*
X32162300Y-65238371D01*
X32210903Y-65078145D01*
X32289832Y-64930481D01*
X32396052Y-64801052D01*
X32525481Y-64694832D01*
X32673145Y-64615903D01*
X32833371Y-64567300D01*
X32958251Y-64555000D01*
X33041749Y-64555000D01*
X33166629Y-64567300D01*
X33166629Y-64567300D01*
G37*
G36*
X35706629Y-64567300D02*
G01*
X35866855Y-64615903D01*
X36014519Y-64694832D01*
X36143948Y-64801052D01*
X36250168Y-64930481D01*
X36329097Y-65078145D01*
X36377700Y-65238371D01*
X36394112Y-65405000D01*
X36377700Y-65571629D01*
X36329097Y-65731855D01*
X36250168Y-65879519D01*
X36143948Y-66008948D01*
X36014519Y-66115168D01*
X35866855Y-66194097D01*
X35706629Y-66242700D01*
X35581749Y-66255000D01*
X35498251Y-66255000D01*
X35373371Y-66242700D01*
X35213145Y-66194097D01*
X35065481Y-66115168D01*
X34936052Y-66008948D01*
X34829832Y-65879519D01*
X34750903Y-65731855D01*
X34702300Y-65571629D01*
X34685888Y-65405000D01*
X34702300Y-65238371D01*
X34750903Y-65078145D01*
X34829832Y-64930481D01*
X34936052Y-64801052D01*
X35065481Y-64694832D01*
X35213145Y-64615903D01*
X35373371Y-64567300D01*
X35498251Y-64555000D01*
X35581749Y-64555000D01*
X35706629Y-64567300D01*
X35706629Y-64567300D01*
G37*
G36*
X73826629Y-62027300D02*
G01*
X73986855Y-62075903D01*
X74134519Y-62154832D01*
X74263948Y-62261052D01*
X74370168Y-62390481D01*
X74449097Y-62538145D01*
X74497700Y-62698371D01*
X74514112Y-62865000D01*
X74497700Y-63031629D01*
X74449097Y-63191855D01*
X74370168Y-63339519D01*
X74263948Y-63468948D01*
X74134519Y-63575168D01*
X73986855Y-63654097D01*
X73826629Y-63702700D01*
X73701749Y-63715000D01*
X73618251Y-63715000D01*
X73493371Y-63702700D01*
X73333145Y-63654097D01*
X73185481Y-63575168D01*
X73056052Y-63468948D01*
X72949832Y-63339519D01*
X72870903Y-63191855D01*
X72822300Y-63031629D01*
X72805888Y-62865000D01*
X72822300Y-62698371D01*
X72870903Y-62538145D01*
X72949832Y-62390481D01*
X73056052Y-62261052D01*
X73185481Y-62154832D01*
X73333145Y-62075903D01*
X73493371Y-62027300D01*
X73618251Y-62015000D01*
X73701749Y-62015000D01*
X73826629Y-62027300D01*
X73826629Y-62027300D01*
G37*
G36*
X33166629Y-62027300D02*
G01*
X33326855Y-62075903D01*
X33474519Y-62154832D01*
X33603948Y-62261052D01*
X33710168Y-62390481D01*
X33789097Y-62538145D01*
X33837700Y-62698371D01*
X33854112Y-62865000D01*
X33837700Y-63031629D01*
X33789097Y-63191855D01*
X33710168Y-63339519D01*
X33603948Y-63468948D01*
X33474519Y-63575168D01*
X33326855Y-63654097D01*
X33166629Y-63702700D01*
X33041749Y-63715000D01*
X32958251Y-63715000D01*
X32833371Y-63702700D01*
X32673145Y-63654097D01*
X32525481Y-63575168D01*
X32396052Y-63468948D01*
X32289832Y-63339519D01*
X32210903Y-63191855D01*
X32162300Y-63031629D01*
X32145888Y-62865000D01*
X32162300Y-62698371D01*
X32210903Y-62538145D01*
X32289832Y-62390481D01*
X32396052Y-62261052D01*
X32525481Y-62154832D01*
X32673145Y-62075903D01*
X32833371Y-62027300D01*
X32958251Y-62015000D01*
X33041749Y-62015000D01*
X33166629Y-62027300D01*
X33166629Y-62027300D01*
G37*
G36*
X35706629Y-62027300D02*
G01*
X35866855Y-62075903D01*
X36014519Y-62154832D01*
X36143948Y-62261052D01*
X36250168Y-62390481D01*
X36329097Y-62538145D01*
X36377700Y-62698371D01*
X36394112Y-62865000D01*
X36377700Y-63031629D01*
X36329097Y-63191855D01*
X36250168Y-63339519D01*
X36143948Y-63468948D01*
X36014519Y-63575168D01*
X35866855Y-63654097D01*
X35706629Y-63702700D01*
X35581749Y-63715000D01*
X35498251Y-63715000D01*
X35373371Y-63702700D01*
X35213145Y-63654097D01*
X35065481Y-63575168D01*
X34936052Y-63468948D01*
X34829832Y-63339519D01*
X34750903Y-63191855D01*
X34702300Y-63031629D01*
X34685888Y-62865000D01*
X34702300Y-62698371D01*
X34750903Y-62538145D01*
X34829832Y-62390481D01*
X34936052Y-62261052D01*
X35065481Y-62154832D01*
X35213145Y-62075903D01*
X35373371Y-62027300D01*
X35498251Y-62015000D01*
X35581749Y-62015000D01*
X35706629Y-62027300D01*
X35706629Y-62027300D01*
G37*
G36*
X76366629Y-62027300D02*
G01*
X76526855Y-62075903D01*
X76674519Y-62154832D01*
X76803948Y-62261052D01*
X76910168Y-62390481D01*
X76989097Y-62538145D01*
X77037700Y-62698371D01*
X77054112Y-62865000D01*
X77037700Y-63031629D01*
X76989097Y-63191855D01*
X76910168Y-63339519D01*
X76803948Y-63468948D01*
X76674519Y-63575168D01*
X76526855Y-63654097D01*
X76366629Y-63702700D01*
X76241749Y-63715000D01*
X76158251Y-63715000D01*
X76033371Y-63702700D01*
X75873145Y-63654097D01*
X75725481Y-63575168D01*
X75596052Y-63468948D01*
X75489832Y-63339519D01*
X75410903Y-63191855D01*
X75362300Y-63031629D01*
X75345888Y-62865000D01*
X75362300Y-62698371D01*
X75410903Y-62538145D01*
X75489832Y-62390481D01*
X75596052Y-62261052D01*
X75725481Y-62154832D01*
X75873145Y-62075903D01*
X76033371Y-62027300D01*
X76158251Y-62015000D01*
X76241749Y-62015000D01*
X76366629Y-62027300D01*
X76366629Y-62027300D01*
G37*
G36*
X76366629Y-59487300D02*
G01*
X76526855Y-59535903D01*
X76674519Y-59614832D01*
X76803948Y-59721052D01*
X76910168Y-59850481D01*
X76989097Y-59998145D01*
X77037700Y-60158371D01*
X77054112Y-60325000D01*
X77037700Y-60491629D01*
X76989097Y-60651855D01*
X76910168Y-60799519D01*
X76803948Y-60928948D01*
X76674519Y-61035168D01*
X76526855Y-61114097D01*
X76366629Y-61162700D01*
X76241749Y-61175000D01*
X76158251Y-61175000D01*
X76033371Y-61162700D01*
X75873145Y-61114097D01*
X75725481Y-61035168D01*
X75596052Y-60928948D01*
X75489832Y-60799519D01*
X75410903Y-60651855D01*
X75362300Y-60491629D01*
X75345888Y-60325000D01*
X75362300Y-60158371D01*
X75410903Y-59998145D01*
X75489832Y-59850481D01*
X75596052Y-59721052D01*
X75725481Y-59614832D01*
X75873145Y-59535903D01*
X76033371Y-59487300D01*
X76158251Y-59475000D01*
X76241749Y-59475000D01*
X76366629Y-59487300D01*
X76366629Y-59487300D01*
G37*
G36*
X35706629Y-59487300D02*
G01*
X35866855Y-59535903D01*
X36014519Y-59614832D01*
X36143948Y-59721052D01*
X36250168Y-59850481D01*
X36329097Y-59998145D01*
X36377700Y-60158371D01*
X36394112Y-60325000D01*
X36377700Y-60491629D01*
X36329097Y-60651855D01*
X36250168Y-60799519D01*
X36143948Y-60928948D01*
X36014519Y-61035168D01*
X35866855Y-61114097D01*
X35706629Y-61162700D01*
X35581749Y-61175000D01*
X35498251Y-61175000D01*
X35373371Y-61162700D01*
X35213145Y-61114097D01*
X35065481Y-61035168D01*
X34936052Y-60928948D01*
X34829832Y-60799519D01*
X34750903Y-60651855D01*
X34702300Y-60491629D01*
X34685888Y-60325000D01*
X34702300Y-60158371D01*
X34750903Y-59998145D01*
X34829832Y-59850481D01*
X34936052Y-59721052D01*
X35065481Y-59614832D01*
X35213145Y-59535903D01*
X35373371Y-59487300D01*
X35498251Y-59475000D01*
X35581749Y-59475000D01*
X35706629Y-59487300D01*
X35706629Y-59487300D01*
G37*
G36*
X74510000Y-61175000D02*
G01*
X72810000Y-61175000D01*
X72810000Y-59475000D01*
X74510000Y-59475000D01*
X74510000Y-61175000D01*
X74510000Y-61175000D01*
G37*
G36*
X33166629Y-59487300D02*
G01*
X33326855Y-59535903D01*
X33474519Y-59614832D01*
X33603948Y-59721052D01*
X33710168Y-59850481D01*
X33789097Y-59998145D01*
X33837700Y-60158371D01*
X33854112Y-60325000D01*
X33837700Y-60491629D01*
X33789097Y-60651855D01*
X33710168Y-60799519D01*
X33603948Y-60928948D01*
X33474519Y-61035168D01*
X33326855Y-61114097D01*
X33166629Y-61162700D01*
X33041749Y-61175000D01*
X32958251Y-61175000D01*
X32833371Y-61162700D01*
X32673145Y-61114097D01*
X32525481Y-61035168D01*
X32396052Y-60928948D01*
X32289832Y-60799519D01*
X32210903Y-60651855D01*
X32162300Y-60491629D01*
X32145888Y-60325000D01*
X32162300Y-60158371D01*
X32210903Y-59998145D01*
X32289832Y-59850481D01*
X32396052Y-59721052D01*
X32525481Y-59614832D01*
X32673145Y-59535903D01*
X32833371Y-59487300D01*
X32958251Y-59475000D01*
X33041749Y-59475000D01*
X33166629Y-59487300D01*
X33166629Y-59487300D01*
G37*
G36*
X35706629Y-56947300D02*
G01*
X35866855Y-56995903D01*
X36014519Y-57074832D01*
X36143948Y-57181052D01*
X36250168Y-57310481D01*
X36329097Y-57458145D01*
X36377700Y-57618371D01*
X36394112Y-57785000D01*
X36377700Y-57951629D01*
X36329097Y-58111855D01*
X36250168Y-58259519D01*
X36143948Y-58388948D01*
X36014519Y-58495168D01*
X35866855Y-58574097D01*
X35706629Y-58622700D01*
X35581749Y-58635000D01*
X35498251Y-58635000D01*
X35373371Y-58622700D01*
X35213145Y-58574097D01*
X35065481Y-58495168D01*
X34936052Y-58388948D01*
X34829832Y-58259519D01*
X34750903Y-58111855D01*
X34702300Y-57951629D01*
X34685888Y-57785000D01*
X34702300Y-57618371D01*
X34750903Y-57458145D01*
X34829832Y-57310481D01*
X34936052Y-57181052D01*
X35065481Y-57074832D01*
X35213145Y-56995903D01*
X35373371Y-56947300D01*
X35498251Y-56935000D01*
X35581749Y-56935000D01*
X35706629Y-56947300D01*
X35706629Y-56947300D01*
G37*
G36*
X33166629Y-56947300D02*
G01*
X33326855Y-56995903D01*
X33474519Y-57074832D01*
X33603948Y-57181052D01*
X33710168Y-57310481D01*
X33789097Y-57458145D01*
X33837700Y-57618371D01*
X33854112Y-57785000D01*
X33837700Y-57951629D01*
X33789097Y-58111855D01*
X33710168Y-58259519D01*
X33603948Y-58388948D01*
X33474519Y-58495168D01*
X33326855Y-58574097D01*
X33166629Y-58622700D01*
X33041749Y-58635000D01*
X32958251Y-58635000D01*
X32833371Y-58622700D01*
X32673145Y-58574097D01*
X32525481Y-58495168D01*
X32396052Y-58388948D01*
X32289832Y-58259519D01*
X32210903Y-58111855D01*
X32162300Y-57951629D01*
X32145888Y-57785000D01*
X32162300Y-57618371D01*
X32210903Y-57458145D01*
X32289832Y-57310481D01*
X32396052Y-57181052D01*
X32525481Y-57074832D01*
X32673145Y-56995903D01*
X32833371Y-56947300D01*
X32958251Y-56935000D01*
X33041749Y-56935000D01*
X33166629Y-56947300D01*
X33166629Y-56947300D01*
G37*
G36*
X41069199Y-51817273D02*
G01*
X41281717Y-51859545D01*
X41417777Y-51915903D01*
X41656619Y-52014834D01*
X41682093Y-52025386D01*
X42042418Y-52266148D01*
X42348852Y-52572582D01*
X42438122Y-52706183D01*
X42589615Y-52932909D01*
X42755455Y-53333284D01*
X42840000Y-53758319D01*
X42840000Y-54191681D01*
X42821405Y-54285166D01*
X42755455Y-54616717D01*
X42589614Y-55017093D01*
X42348852Y-55377418D01*
X42042418Y-55683852D01*
X41682093Y-55924614D01*
X41682092Y-55924615D01*
X41682091Y-55924615D01*
X41608329Y-55955168D01*
X41281717Y-56090455D01*
X41069198Y-56132728D01*
X40856681Y-56175000D01*
X40423319Y-56175000D01*
X40210802Y-56132728D01*
X39998283Y-56090455D01*
X39671671Y-55955168D01*
X39597909Y-55924615D01*
X39597908Y-55924615D01*
X39597907Y-55924614D01*
X39237582Y-55683852D01*
X38931148Y-55377418D01*
X38690386Y-55017093D01*
X38524545Y-54616717D01*
X38458595Y-54285166D01*
X38440000Y-54191681D01*
X38440000Y-53758319D01*
X38524545Y-53333284D01*
X38690385Y-52932909D01*
X38841879Y-52706183D01*
X38931148Y-52572582D01*
X39237582Y-52266148D01*
X39597907Y-52025386D01*
X39623382Y-52014834D01*
X39862223Y-51915903D01*
X39998283Y-51859545D01*
X40210801Y-51817273D01*
X40423319Y-51775000D01*
X40856681Y-51775000D01*
X41069199Y-51817273D01*
X41069199Y-51817273D01*
G37*
G36*
X75359199Y-51817273D02*
G01*
X75571717Y-51859545D01*
X75707777Y-51915903D01*
X75946619Y-52014834D01*
X75972093Y-52025386D01*
X76332418Y-52266148D01*
X76638852Y-52572582D01*
X76728122Y-52706183D01*
X76879615Y-52932909D01*
X77045455Y-53333284D01*
X77130000Y-53758319D01*
X77130000Y-54191681D01*
X77111405Y-54285166D01*
X77045455Y-54616717D01*
X76879614Y-55017093D01*
X76638852Y-55377418D01*
X76332418Y-55683852D01*
X75972093Y-55924614D01*
X75972092Y-55924615D01*
X75972091Y-55924615D01*
X75898329Y-55955168D01*
X75571717Y-56090455D01*
X75359198Y-56132728D01*
X75146681Y-56175000D01*
X74713319Y-56175000D01*
X74500802Y-56132728D01*
X74288283Y-56090455D01*
X73961671Y-55955168D01*
X73887909Y-55924615D01*
X73887908Y-55924615D01*
X73887907Y-55924614D01*
X73527582Y-55683852D01*
X73221148Y-55377418D01*
X72980386Y-55017093D01*
X72814545Y-54616717D01*
X72748595Y-54285166D01*
X72730000Y-54191681D01*
X72730000Y-53758319D01*
X72814545Y-53333284D01*
X72980385Y-52932909D01*
X73131879Y-52706183D01*
X73221148Y-52572582D01*
X73527582Y-52266148D01*
X73887907Y-52025386D01*
X73913382Y-52014834D01*
X74152223Y-51915903D01*
X74288283Y-51859545D01*
X74500801Y-51817273D01*
X74713319Y-51775000D01*
X75146681Y-51775000D01*
X75359199Y-51817273D01*
X75359199Y-51817273D01*
G37*
G36*
X35706629Y-54407300D02*
G01*
X35866855Y-54455903D01*
X36014519Y-54534832D01*
X36143948Y-54641052D01*
X36250168Y-54770481D01*
X36329097Y-54918145D01*
X36377700Y-55078371D01*
X36394112Y-55245000D01*
X36377700Y-55411629D01*
X36329097Y-55571855D01*
X36250168Y-55719519D01*
X36143948Y-55848948D01*
X36014519Y-55955168D01*
X35866855Y-56034097D01*
X35706629Y-56082700D01*
X35581749Y-56095000D01*
X35498251Y-56095000D01*
X35373371Y-56082700D01*
X35213145Y-56034097D01*
X35065481Y-55955168D01*
X34936052Y-55848948D01*
X34829832Y-55719519D01*
X34750903Y-55571855D01*
X34702300Y-55411629D01*
X34685888Y-55245000D01*
X34702300Y-55078371D01*
X34750903Y-54918145D01*
X34829832Y-54770481D01*
X34936052Y-54641052D01*
X35065481Y-54534832D01*
X35213145Y-54455903D01*
X35373371Y-54407300D01*
X35498251Y-54395000D01*
X35581749Y-54395000D01*
X35706629Y-54407300D01*
X35706629Y-54407300D01*
G37*
G36*
X33166629Y-54407300D02*
G01*
X33326855Y-54455903D01*
X33474519Y-54534832D01*
X33603948Y-54641052D01*
X33710168Y-54770481D01*
X33789097Y-54918145D01*
X33837700Y-55078371D01*
X33854112Y-55245000D01*
X33837700Y-55411629D01*
X33789097Y-55571855D01*
X33710168Y-55719519D01*
X33603948Y-55848948D01*
X33474519Y-55955168D01*
X33326855Y-56034097D01*
X33166629Y-56082700D01*
X33041749Y-56095000D01*
X32958251Y-56095000D01*
X32833371Y-56082700D01*
X32673145Y-56034097D01*
X32525481Y-55955168D01*
X32396052Y-55848948D01*
X32289832Y-55719519D01*
X32210903Y-55571855D01*
X32162300Y-55411629D01*
X32145888Y-55245000D01*
X32162300Y-55078371D01*
X32210903Y-54918145D01*
X32289832Y-54770481D01*
X32396052Y-54641052D01*
X32525481Y-54534832D01*
X32673145Y-54455903D01*
X32833371Y-54407300D01*
X32958251Y-54395000D01*
X33041749Y-54395000D01*
X33166629Y-54407300D01*
X33166629Y-54407300D01*
G37*
G36*
X35706629Y-51867300D02*
G01*
X35866855Y-51915903D01*
X36014519Y-51994832D01*
X36143948Y-52101052D01*
X36250168Y-52230481D01*
X36329097Y-52378145D01*
X36377700Y-52538371D01*
X36394112Y-52705000D01*
X36377700Y-52871629D01*
X36329097Y-53031855D01*
X36250168Y-53179519D01*
X36143948Y-53308948D01*
X36014519Y-53415168D01*
X35866855Y-53494097D01*
X35706629Y-53542700D01*
X35581749Y-53555000D01*
X35498251Y-53555000D01*
X35373371Y-53542700D01*
X35213145Y-53494097D01*
X35065481Y-53415168D01*
X34936052Y-53308948D01*
X34829832Y-53179519D01*
X34750903Y-53031855D01*
X34702300Y-52871629D01*
X34685888Y-52705000D01*
X34702300Y-52538371D01*
X34750903Y-52378145D01*
X34829832Y-52230481D01*
X34936052Y-52101052D01*
X35065481Y-51994832D01*
X35213145Y-51915903D01*
X35373371Y-51867300D01*
X35498251Y-51855000D01*
X35581749Y-51855000D01*
X35706629Y-51867300D01*
X35706629Y-51867300D01*
G37*
G36*
X33850000Y-53555000D02*
G01*
X32150000Y-53555000D01*
X32150000Y-51855000D01*
X33850000Y-51855000D01*
X33850000Y-53555000D01*
X33850000Y-53555000D01*
G37*
M02*
