G04 #@! TF.GenerationSoftware,KiCad,Pcbnew,(5.1.4)-1*
G04 #@! TF.CreationDate,2019-10-16T18:51:52+02:00*
G04 #@! TF.ProjectId,HB-RF-USB,48422d52-462d-4555-9342-2e6b69636164,rev?*
G04 #@! TF.SameCoordinates,Original*
G04 #@! TF.FileFunction,Legend,Top*
G04 #@! TF.FilePolarity,Positive*
%FSLAX46Y46*%
G04 Gerber Fmt 4.6, Leading zero omitted, Abs format (unit mm)*
G04 Created by KiCad (PCBNEW (5.1.4)-1) date 2019-10-16 18:51:52*
%MOMM*%
%LPD*%
G04 APERTURE LIST*
%ADD10C,0.300000*%
%ADD11C,0.120000*%
%ADD12C,0.010000*%
%ADD13C,0.150000*%
%ADD14R,1.700000X1.700000*%
%ADD15O,1.700000X1.700000*%
%ADD16C,0.700000*%
%ADD17C,4.400000*%
%ADD18C,0.100000*%
%ADD19C,1.150000*%
%ADD20C,1.000000*%
%ADD21O,2.000000X1.090000*%
%ADD22O,1.600000X1.050000*%
%ADD23C,0.550000*%
%ADD24C,0.400000*%
%ADD25R,0.800000X1.900000*%
%ADD26R,0.450000X1.750000*%
G04 APERTURE END LIST*
D10*
X38409285Y-92052857D02*
X38809285Y-93252857D01*
X39209285Y-92052857D01*
X40066428Y-93195714D02*
X39952142Y-93252857D01*
X39723571Y-93252857D01*
X39609285Y-93195714D01*
X39552142Y-93081428D01*
X39552142Y-92624285D01*
X39609285Y-92510000D01*
X39723571Y-92452857D01*
X39952142Y-92452857D01*
X40066428Y-92510000D01*
X40123571Y-92624285D01*
X40123571Y-92738571D01*
X39552142Y-92852857D01*
X40637857Y-93252857D02*
X40637857Y-92452857D01*
X40637857Y-92681428D02*
X40695000Y-92567142D01*
X40752142Y-92510000D01*
X40866428Y-92452857D01*
X40980714Y-92452857D01*
X41323571Y-93195714D02*
X41437857Y-93252857D01*
X41666428Y-93252857D01*
X41780714Y-93195714D01*
X41837857Y-93081428D01*
X41837857Y-93024285D01*
X41780714Y-92910000D01*
X41666428Y-92852857D01*
X41495000Y-92852857D01*
X41380714Y-92795714D01*
X41323571Y-92681428D01*
X41323571Y-92624285D01*
X41380714Y-92510000D01*
X41495000Y-92452857D01*
X41666428Y-92452857D01*
X41780714Y-92510000D01*
X42352142Y-93252857D02*
X42352142Y-92452857D01*
X42352142Y-92052857D02*
X42295000Y-92110000D01*
X42352142Y-92167142D01*
X42409285Y-92110000D01*
X42352142Y-92052857D01*
X42352142Y-92167142D01*
X43095000Y-93252857D02*
X42980714Y-93195714D01*
X42923571Y-93138571D01*
X42866428Y-93024285D01*
X42866428Y-92681428D01*
X42923571Y-92567142D01*
X42980714Y-92510000D01*
X43095000Y-92452857D01*
X43266428Y-92452857D01*
X43380714Y-92510000D01*
X43437857Y-92567142D01*
X43495000Y-92681428D01*
X43495000Y-93024285D01*
X43437857Y-93138571D01*
X43380714Y-93195714D01*
X43266428Y-93252857D01*
X43095000Y-93252857D01*
X44009285Y-92452857D02*
X44009285Y-93252857D01*
X44009285Y-92567142D02*
X44066428Y-92510000D01*
X44180714Y-92452857D01*
X44352142Y-92452857D01*
X44466428Y-92510000D01*
X44523571Y-92624285D01*
X44523571Y-93252857D01*
X46637857Y-93252857D02*
X45952142Y-93252857D01*
X46295000Y-93252857D02*
X46295000Y-92052857D01*
X46180714Y-92224285D01*
X46066428Y-92338571D01*
X45952142Y-92395714D01*
X47152142Y-93138571D02*
X47209285Y-93195714D01*
X47152142Y-93252857D01*
X47095000Y-93195714D01*
X47152142Y-93138571D01*
X47152142Y-93252857D01*
X48237857Y-92452857D02*
X48237857Y-93252857D01*
X47952142Y-91995714D02*
X47666428Y-92852857D01*
X48409285Y-92852857D01*
X49780714Y-92795714D02*
X50695000Y-92795714D01*
X52809285Y-93252857D02*
X52123571Y-93252857D01*
X52466428Y-93252857D02*
X52466428Y-92052857D01*
X52352142Y-92224285D01*
X52237857Y-92338571D01*
X52123571Y-92395714D01*
X53552142Y-92052857D02*
X53666428Y-92052857D01*
X53780714Y-92110000D01*
X53837857Y-92167142D01*
X53895000Y-92281428D01*
X53952142Y-92510000D01*
X53952142Y-92795714D01*
X53895000Y-93024285D01*
X53837857Y-93138571D01*
X53780714Y-93195714D01*
X53666428Y-93252857D01*
X53552142Y-93252857D01*
X53437857Y-93195714D01*
X53380714Y-93138571D01*
X53323571Y-93024285D01*
X53266428Y-92795714D01*
X53266428Y-92510000D01*
X53323571Y-92281428D01*
X53380714Y-92167142D01*
X53437857Y-92110000D01*
X53552142Y-92052857D01*
X55323571Y-91995714D02*
X54295000Y-93538571D01*
X55666428Y-92167142D02*
X55723571Y-92110000D01*
X55837857Y-92052857D01*
X56123571Y-92052857D01*
X56237857Y-92110000D01*
X56295000Y-92167142D01*
X56352142Y-92281428D01*
X56352142Y-92395714D01*
X56295000Y-92567142D01*
X55609285Y-93252857D01*
X56352142Y-93252857D01*
X57095000Y-92052857D02*
X57209285Y-92052857D01*
X57323571Y-92110000D01*
X57380714Y-92167142D01*
X57437857Y-92281428D01*
X57495000Y-92510000D01*
X57495000Y-92795714D01*
X57437857Y-93024285D01*
X57380714Y-93138571D01*
X57323571Y-93195714D01*
X57209285Y-93252857D01*
X57095000Y-93252857D01*
X56980714Y-93195714D01*
X56923571Y-93138571D01*
X56866428Y-93024285D01*
X56809285Y-92795714D01*
X56809285Y-92510000D01*
X56866428Y-92281428D01*
X56923571Y-92167142D01*
X56980714Y-92110000D01*
X57095000Y-92052857D01*
X58637857Y-93252857D02*
X57952142Y-93252857D01*
X58295000Y-93252857D02*
X58295000Y-92052857D01*
X58180714Y-92224285D01*
X58066428Y-92338571D01*
X57952142Y-92395714D01*
X59209285Y-93252857D02*
X59437857Y-93252857D01*
X59552142Y-93195714D01*
X59609285Y-93138571D01*
X59723571Y-92967142D01*
X59780714Y-92738571D01*
X59780714Y-92281428D01*
X59723571Y-92167142D01*
X59666428Y-92110000D01*
X59552142Y-92052857D01*
X59323571Y-92052857D01*
X59209285Y-92110000D01*
X59152142Y-92167142D01*
X59095000Y-92281428D01*
X59095000Y-92567142D01*
X59152142Y-92681428D01*
X59209285Y-92738571D01*
X59323571Y-92795714D01*
X59552142Y-92795714D01*
X59666428Y-92738571D01*
X59723571Y-92681428D01*
X59780714Y-92567142D01*
X38923571Y-96250000D02*
X38866428Y-96192857D01*
X38752142Y-96021428D01*
X38695000Y-95907142D01*
X38637857Y-95735714D01*
X38580714Y-95450000D01*
X38580714Y-95221428D01*
X38637857Y-94935714D01*
X38695000Y-94764285D01*
X38752142Y-94650000D01*
X38866428Y-94478571D01*
X38923571Y-94421428D01*
X39895000Y-95735714D02*
X39780714Y-95792857D01*
X39552142Y-95792857D01*
X39437857Y-95735714D01*
X39380714Y-95678571D01*
X39323571Y-95564285D01*
X39323571Y-95221428D01*
X39380714Y-95107142D01*
X39437857Y-95050000D01*
X39552142Y-94992857D01*
X39780714Y-94992857D01*
X39895000Y-95050000D01*
X40295000Y-96250000D02*
X40352142Y-96192857D01*
X40466428Y-96021428D01*
X40523571Y-95907142D01*
X40580714Y-95735714D01*
X40637857Y-95450000D01*
X40637857Y-95221428D01*
X40580714Y-94935714D01*
X40523571Y-94764285D01*
X40466428Y-94650000D01*
X40352142Y-94478571D01*
X40295000Y-94421428D01*
X42066428Y-95450000D02*
X42637857Y-95450000D01*
X41952142Y-95792857D02*
X42352142Y-94592857D01*
X42752142Y-95792857D01*
X43323571Y-95792857D02*
X43209285Y-95735714D01*
X43152142Y-95621428D01*
X43152142Y-94592857D01*
X44237857Y-95735714D02*
X44123571Y-95792857D01*
X43895000Y-95792857D01*
X43780714Y-95735714D01*
X43723571Y-95621428D01*
X43723571Y-95164285D01*
X43780714Y-95050000D01*
X43895000Y-94992857D01*
X44123571Y-94992857D01*
X44237857Y-95050000D01*
X44295000Y-95164285D01*
X44295000Y-95278571D01*
X43723571Y-95392857D01*
X44695000Y-95792857D02*
X45323571Y-94992857D01*
X44695000Y-94992857D02*
X45323571Y-95792857D01*
X46295000Y-95792857D02*
X46295000Y-95164285D01*
X46237857Y-95050000D01*
X46123571Y-94992857D01*
X45895000Y-94992857D01*
X45780714Y-95050000D01*
X46295000Y-95735714D02*
X46180714Y-95792857D01*
X45895000Y-95792857D01*
X45780714Y-95735714D01*
X45723571Y-95621428D01*
X45723571Y-95507142D01*
X45780714Y-95392857D01*
X45895000Y-95335714D01*
X46180714Y-95335714D01*
X46295000Y-95278571D01*
X46866428Y-94992857D02*
X46866428Y-95792857D01*
X46866428Y-95107142D02*
X46923571Y-95050000D01*
X47037857Y-94992857D01*
X47209285Y-94992857D01*
X47323571Y-95050000D01*
X47380714Y-95164285D01*
X47380714Y-95792857D01*
X48466428Y-95792857D02*
X48466428Y-94592857D01*
X48466428Y-95735714D02*
X48352142Y-95792857D01*
X48123571Y-95792857D01*
X48009285Y-95735714D01*
X47952142Y-95678571D01*
X47895000Y-95564285D01*
X47895000Y-95221428D01*
X47952142Y-95107142D01*
X48009285Y-95050000D01*
X48123571Y-94992857D01*
X48352142Y-94992857D01*
X48466428Y-95050000D01*
X49495000Y-95735714D02*
X49380714Y-95792857D01*
X49152142Y-95792857D01*
X49037857Y-95735714D01*
X48980714Y-95621428D01*
X48980714Y-95164285D01*
X49037857Y-95050000D01*
X49152142Y-94992857D01*
X49380714Y-94992857D01*
X49495000Y-95050000D01*
X49552142Y-95164285D01*
X49552142Y-95278571D01*
X48980714Y-95392857D01*
X50066428Y-95792857D02*
X50066428Y-94992857D01*
X50066428Y-95221428D02*
X50123571Y-95107142D01*
X50180714Y-95050000D01*
X50295000Y-94992857D01*
X50409285Y-94992857D01*
X52409285Y-95792857D02*
X52009285Y-95221428D01*
X51723571Y-95792857D02*
X51723571Y-94592857D01*
X52180714Y-94592857D01*
X52295000Y-94650000D01*
X52352142Y-94707142D01*
X52409285Y-94821428D01*
X52409285Y-94992857D01*
X52352142Y-95107142D01*
X52295000Y-95164285D01*
X52180714Y-95221428D01*
X51723571Y-95221428D01*
X53380714Y-95735714D02*
X53266428Y-95792857D01*
X53037857Y-95792857D01*
X52923571Y-95735714D01*
X52866428Y-95621428D01*
X52866428Y-95164285D01*
X52923571Y-95050000D01*
X53037857Y-94992857D01*
X53266428Y-94992857D01*
X53380714Y-95050000D01*
X53437857Y-95164285D01*
X53437857Y-95278571D01*
X52866428Y-95392857D01*
X53952142Y-95792857D02*
X53952142Y-94992857D01*
X53952142Y-94592857D02*
X53895000Y-94650000D01*
X53952142Y-94707142D01*
X54009285Y-94650000D01*
X53952142Y-94592857D01*
X53952142Y-94707142D01*
X54523571Y-94992857D02*
X54523571Y-95792857D01*
X54523571Y-95107142D02*
X54580714Y-95050000D01*
X54695000Y-94992857D01*
X54866428Y-94992857D01*
X54980714Y-95050000D01*
X55037857Y-95164285D01*
X55037857Y-95792857D01*
X56066428Y-95735714D02*
X55952142Y-95792857D01*
X55723571Y-95792857D01*
X55609285Y-95735714D01*
X55552142Y-95621428D01*
X55552142Y-95164285D01*
X55609285Y-95050000D01*
X55723571Y-94992857D01*
X55952142Y-94992857D01*
X56066428Y-95050000D01*
X56123571Y-95164285D01*
X56123571Y-95278571D01*
X55552142Y-95392857D01*
X56637857Y-95792857D02*
X56637857Y-94992857D01*
X56637857Y-95221428D02*
X56695000Y-95107142D01*
X56752142Y-95050000D01*
X56866428Y-94992857D01*
X56980714Y-94992857D01*
X57209285Y-94992857D02*
X57666428Y-94992857D01*
X57380714Y-94592857D02*
X57380714Y-95621428D01*
X57437857Y-95735714D01*
X57552142Y-95792857D01*
X57666428Y-95792857D01*
X38652142Y-90213571D02*
X38652142Y-88713571D01*
X38652142Y-89427857D02*
X39509285Y-89427857D01*
X39509285Y-90213571D02*
X39509285Y-88713571D01*
X40723571Y-89427857D02*
X40937857Y-89499285D01*
X41009285Y-89570714D01*
X41080714Y-89713571D01*
X41080714Y-89927857D01*
X41009285Y-90070714D01*
X40937857Y-90142142D01*
X40795000Y-90213571D01*
X40223571Y-90213571D01*
X40223571Y-88713571D01*
X40723571Y-88713571D01*
X40866428Y-88785000D01*
X40937857Y-88856428D01*
X41009285Y-88999285D01*
X41009285Y-89142142D01*
X40937857Y-89285000D01*
X40866428Y-89356428D01*
X40723571Y-89427857D01*
X40223571Y-89427857D01*
X41723571Y-89642142D02*
X42866428Y-89642142D01*
X44437857Y-90213571D02*
X43937857Y-89499285D01*
X43580714Y-90213571D02*
X43580714Y-88713571D01*
X44152142Y-88713571D01*
X44295000Y-88785000D01*
X44366428Y-88856428D01*
X44437857Y-88999285D01*
X44437857Y-89213571D01*
X44366428Y-89356428D01*
X44295000Y-89427857D01*
X44152142Y-89499285D01*
X43580714Y-89499285D01*
X45580714Y-89427857D02*
X45080714Y-89427857D01*
X45080714Y-90213571D02*
X45080714Y-88713571D01*
X45795000Y-88713571D01*
X46366428Y-89642142D02*
X47509285Y-89642142D01*
X48223571Y-88713571D02*
X48223571Y-89927857D01*
X48295000Y-90070714D01*
X48366428Y-90142142D01*
X48509285Y-90213571D01*
X48795000Y-90213571D01*
X48937857Y-90142142D01*
X49009285Y-90070714D01*
X49080714Y-89927857D01*
X49080714Y-88713571D01*
X49723571Y-90142142D02*
X49937857Y-90213571D01*
X50295000Y-90213571D01*
X50437857Y-90142142D01*
X50509285Y-90070714D01*
X50580714Y-89927857D01*
X50580714Y-89785000D01*
X50509285Y-89642142D01*
X50437857Y-89570714D01*
X50295000Y-89499285D01*
X50009285Y-89427857D01*
X49866428Y-89356428D01*
X49795000Y-89285000D01*
X49723571Y-89142142D01*
X49723571Y-88999285D01*
X49795000Y-88856428D01*
X49866428Y-88785000D01*
X50009285Y-88713571D01*
X50366428Y-88713571D01*
X50580714Y-88785000D01*
X51723571Y-89427857D02*
X51937857Y-89499285D01*
X52009285Y-89570714D01*
X52080714Y-89713571D01*
X52080714Y-89927857D01*
X52009285Y-90070714D01*
X51937857Y-90142142D01*
X51795000Y-90213571D01*
X51223571Y-90213571D01*
X51223571Y-88713571D01*
X51723571Y-88713571D01*
X51866428Y-88785000D01*
X51937857Y-88856428D01*
X52009285Y-88999285D01*
X52009285Y-89142142D01*
X51937857Y-89285000D01*
X51866428Y-89356428D01*
X51723571Y-89427857D01*
X51223571Y-89427857D01*
D11*
X31670000Y-102295000D02*
X36870000Y-102295000D01*
X31670000Y-53975000D02*
X31670000Y-102295000D01*
X36870000Y-51375000D02*
X36870000Y-102295000D01*
X31670000Y-53975000D02*
X34270000Y-53975000D01*
X34270000Y-53975000D02*
X34270000Y-51375000D01*
X34270000Y-51375000D02*
X36870000Y-51375000D01*
X31670000Y-52705000D02*
X31670000Y-51375000D01*
X31670000Y-51375000D02*
X33000000Y-51375000D01*
D12*
G36*
X69766663Y-98825908D02*
G01*
X69891036Y-98845343D01*
X69943844Y-98859392D01*
X70093363Y-98924606D01*
X70224457Y-99019163D01*
X70334517Y-99139748D01*
X70420937Y-99283048D01*
X70481109Y-99445749D01*
X70506997Y-99575132D01*
X70517633Y-99769657D01*
X70496671Y-99952556D01*
X70444830Y-100120875D01*
X70362827Y-100271658D01*
X70325782Y-100321424D01*
X70202105Y-100447147D01*
X70058981Y-100543440D01*
X69899940Y-100608961D01*
X69728512Y-100642365D01*
X69548228Y-100642307D01*
X69498715Y-100636412D01*
X69345463Y-100596754D01*
X69207160Y-100526164D01*
X69087761Y-100428294D01*
X68991223Y-100306792D01*
X68921504Y-100165308D01*
X68896080Y-100080536D01*
X68873558Y-99985286D01*
X69301406Y-99985286D01*
X69321431Y-100064810D01*
X69356372Y-100141170D01*
X69415267Y-100209618D01*
X69486973Y-100258550D01*
X69519225Y-100270773D01*
X69564607Y-100278324D01*
X69629601Y-100283232D01*
X69679430Y-100284337D01*
X69788061Y-100269945D01*
X69878656Y-100225985D01*
X69954732Y-100150288D01*
X69993714Y-100090772D01*
X70041243Y-99980879D01*
X70069892Y-99856405D01*
X70080233Y-99724910D01*
X70072837Y-99593952D01*
X70048276Y-99471091D01*
X70007121Y-99363885D01*
X69949946Y-99279895D01*
X69930987Y-99261429D01*
X69841483Y-99205796D01*
X69735325Y-99176851D01*
X69621370Y-99175474D01*
X69508472Y-99202548D01*
X69476462Y-99216194D01*
X69415718Y-99259748D01*
X69362647Y-99323185D01*
X69327726Y-99392629D01*
X69320680Y-99422479D01*
X69323127Y-99456802D01*
X69349096Y-99473275D01*
X69365231Y-99476908D01*
X69384984Y-99481749D01*
X69393418Y-99490016D01*
X69387666Y-99506068D01*
X69364859Y-99534262D01*
X69322131Y-99578959D01*
X69256614Y-99644516D01*
X69251838Y-99649265D01*
X69088000Y-99812172D01*
X68924120Y-99649265D01*
X68760239Y-99486357D01*
X68819798Y-99477286D01*
X68858150Y-99467169D01*
X68881464Y-99444703D01*
X68899522Y-99399267D01*
X68903339Y-99386571D01*
X68966988Y-99219692D01*
X69051613Y-99082130D01*
X69157946Y-98973090D01*
X69286719Y-98891777D01*
X69398314Y-98848555D01*
X69506321Y-98827237D01*
X69633764Y-98819781D01*
X69766663Y-98825908D01*
X69766663Y-98825908D01*
G37*
X69766663Y-98825908D02*
X69891036Y-98845343D01*
X69943844Y-98859392D01*
X70093363Y-98924606D01*
X70224457Y-99019163D01*
X70334517Y-99139748D01*
X70420937Y-99283048D01*
X70481109Y-99445749D01*
X70506997Y-99575132D01*
X70517633Y-99769657D01*
X70496671Y-99952556D01*
X70444830Y-100120875D01*
X70362827Y-100271658D01*
X70325782Y-100321424D01*
X70202105Y-100447147D01*
X70058981Y-100543440D01*
X69899940Y-100608961D01*
X69728512Y-100642365D01*
X69548228Y-100642307D01*
X69498715Y-100636412D01*
X69345463Y-100596754D01*
X69207160Y-100526164D01*
X69087761Y-100428294D01*
X68991223Y-100306792D01*
X68921504Y-100165308D01*
X68896080Y-100080536D01*
X68873558Y-99985286D01*
X69301406Y-99985286D01*
X69321431Y-100064810D01*
X69356372Y-100141170D01*
X69415267Y-100209618D01*
X69486973Y-100258550D01*
X69519225Y-100270773D01*
X69564607Y-100278324D01*
X69629601Y-100283232D01*
X69679430Y-100284337D01*
X69788061Y-100269945D01*
X69878656Y-100225985D01*
X69954732Y-100150288D01*
X69993714Y-100090772D01*
X70041243Y-99980879D01*
X70069892Y-99856405D01*
X70080233Y-99724910D01*
X70072837Y-99593952D01*
X70048276Y-99471091D01*
X70007121Y-99363885D01*
X69949946Y-99279895D01*
X69930987Y-99261429D01*
X69841483Y-99205796D01*
X69735325Y-99176851D01*
X69621370Y-99175474D01*
X69508472Y-99202548D01*
X69476462Y-99216194D01*
X69415718Y-99259748D01*
X69362647Y-99323185D01*
X69327726Y-99392629D01*
X69320680Y-99422479D01*
X69323127Y-99456802D01*
X69349096Y-99473275D01*
X69365231Y-99476908D01*
X69384984Y-99481749D01*
X69393418Y-99490016D01*
X69387666Y-99506068D01*
X69364859Y-99534262D01*
X69322131Y-99578959D01*
X69256614Y-99644516D01*
X69251838Y-99649265D01*
X69088000Y-99812172D01*
X68924120Y-99649265D01*
X68760239Y-99486357D01*
X68819798Y-99477286D01*
X68858150Y-99467169D01*
X68881464Y-99444703D01*
X68899522Y-99399267D01*
X68903339Y-99386571D01*
X68966988Y-99219692D01*
X69051613Y-99082130D01*
X69157946Y-98973090D01*
X69286719Y-98891777D01*
X69398314Y-98848555D01*
X69506321Y-98827237D01*
X69633764Y-98819781D01*
X69766663Y-98825908D01*
G36*
X62376171Y-98613794D02*
G01*
X62453934Y-98643599D01*
X62490167Y-98671972D01*
X62532515Y-98737539D01*
X62551080Y-98818013D01*
X62546575Y-98902491D01*
X62519713Y-98980067D01*
X62471206Y-99039836D01*
X62465845Y-99043939D01*
X62400544Y-99074028D01*
X62318737Y-99087477D01*
X62237226Y-99082044D01*
X62217534Y-99077075D01*
X62151664Y-99044222D01*
X62109404Y-98990437D01*
X62088336Y-98911536D01*
X62084857Y-98847515D01*
X62086675Y-98780692D01*
X62094724Y-98737382D01*
X62112899Y-98704889D01*
X62136556Y-98678939D01*
X62206721Y-98631675D01*
X62290179Y-98609890D01*
X62376171Y-98613794D01*
X62376171Y-98613794D01*
G37*
X62376171Y-98613794D02*
X62453934Y-98643599D01*
X62490167Y-98671972D01*
X62532515Y-98737539D01*
X62551080Y-98818013D01*
X62546575Y-98902491D01*
X62519713Y-98980067D01*
X62471206Y-99039836D01*
X62465845Y-99043939D01*
X62400544Y-99074028D01*
X62318737Y-99087477D01*
X62237226Y-99082044D01*
X62217534Y-99077075D01*
X62151664Y-99044222D01*
X62109404Y-98990437D01*
X62088336Y-98911536D01*
X62084857Y-98847515D01*
X62086675Y-98780692D01*
X62094724Y-98737382D01*
X62112899Y-98704889D01*
X62136556Y-98678939D01*
X62206721Y-98631675D01*
X62290179Y-98609890D01*
X62376171Y-98613794D01*
G36*
X62450225Y-99187335D02*
G01*
X62552439Y-99188542D01*
X62627533Y-99190925D01*
X62680089Y-99194789D01*
X62714685Y-99200437D01*
X62735904Y-99208174D01*
X62745775Y-99215510D01*
X62755627Y-99230294D01*
X62762980Y-99255400D01*
X62768174Y-99295604D01*
X62771551Y-99355681D01*
X62773453Y-99440407D01*
X62774220Y-99554559D01*
X62774285Y-99614653D01*
X62774285Y-99985286D01*
X62574714Y-99985286D01*
X62574714Y-100819857D01*
X62048571Y-100819857D01*
X62048571Y-99985286D01*
X61849000Y-99985286D01*
X61849000Y-99616169D01*
X61849259Y-99490306D01*
X61850312Y-99395727D01*
X61852577Y-99327434D01*
X61856467Y-99280429D01*
X61862398Y-99249711D01*
X61870787Y-99230283D01*
X61882048Y-99217144D01*
X61882178Y-99217026D01*
X61897241Y-99207071D01*
X61920646Y-99199549D01*
X61957110Y-99194132D01*
X62011348Y-99190495D01*
X62088079Y-99188312D01*
X62192017Y-99187256D01*
X62316311Y-99187000D01*
X62450225Y-99187335D01*
X62450225Y-99187335D01*
G37*
X62450225Y-99187335D02*
X62552439Y-99188542D01*
X62627533Y-99190925D01*
X62680089Y-99194789D01*
X62714685Y-99200437D01*
X62735904Y-99208174D01*
X62745775Y-99215510D01*
X62755627Y-99230294D01*
X62762980Y-99255400D01*
X62768174Y-99295604D01*
X62771551Y-99355681D01*
X62773453Y-99440407D01*
X62774220Y-99554559D01*
X62774285Y-99614653D01*
X62774285Y-99985286D01*
X62574714Y-99985286D01*
X62574714Y-100819857D01*
X62048571Y-100819857D01*
X62048571Y-99985286D01*
X61849000Y-99985286D01*
X61849000Y-99616169D01*
X61849259Y-99490306D01*
X61850312Y-99395727D01*
X61852577Y-99327434D01*
X61856467Y-99280429D01*
X61862398Y-99249711D01*
X61870787Y-99230283D01*
X61882048Y-99217144D01*
X61882178Y-99217026D01*
X61897241Y-99207071D01*
X61920646Y-99199549D01*
X61957110Y-99194132D01*
X62011348Y-99190495D01*
X62088079Y-99188312D01*
X62192017Y-99187256D01*
X62316311Y-99187000D01*
X62450225Y-99187335D01*
G36*
X59209862Y-99189204D02*
G01*
X59316450Y-99203754D01*
X59408076Y-99231007D01*
X59441331Y-99247349D01*
X59495885Y-99285177D01*
X59546012Y-99329834D01*
X59584919Y-99373907D01*
X59605816Y-99409981D01*
X59605835Y-99426937D01*
X59585869Y-99442341D01*
X59542999Y-99467670D01*
X59493642Y-99493770D01*
X59390643Y-99545729D01*
X59357224Y-99501347D01*
X59317186Y-99462634D01*
X59265664Y-99429273D01*
X59262603Y-99427779D01*
X59187501Y-99410370D01*
X59111906Y-99423713D01*
X59047134Y-99464468D01*
X59018735Y-99499756D01*
X58982796Y-99587561D01*
X58969409Y-99687552D01*
X58977706Y-99788932D01*
X59006818Y-99880902D01*
X59055075Y-99951867D01*
X59093600Y-99983969D01*
X59135032Y-99999281D01*
X59195267Y-100003413D01*
X59201140Y-100003429D01*
X59260973Y-100000564D01*
X59301487Y-99987248D01*
X59339494Y-99956400D01*
X59357934Y-99937382D01*
X59420224Y-99871335D01*
X59510946Y-99913826D01*
X59562810Y-99939896D01*
X59599732Y-99961765D01*
X59610817Y-99971124D01*
X59607219Y-99996789D01*
X59580568Y-100036255D01*
X59537547Y-100082528D01*
X59484839Y-100128616D01*
X59429128Y-100167524D01*
X59415874Y-100175114D01*
X59310954Y-100215178D01*
X59190212Y-100234238D01*
X59068270Y-100231033D01*
X58982428Y-100212493D01*
X58872460Y-100158284D01*
X58781355Y-100073930D01*
X58716622Y-99972249D01*
X58690730Y-99913917D01*
X58675455Y-99860976D01*
X58668166Y-99799803D01*
X58666228Y-99716776D01*
X58666224Y-99711534D01*
X58667745Y-99628801D01*
X58674148Y-99568821D01*
X58688194Y-99518127D01*
X58712646Y-99463247D01*
X58720193Y-99448301D01*
X58790604Y-99344219D01*
X58881132Y-99262783D01*
X58984677Y-99210076D01*
X59005870Y-99203640D01*
X59101830Y-99188714D01*
X59209862Y-99189204D01*
X59209862Y-99189204D01*
G37*
X59209862Y-99189204D02*
X59316450Y-99203754D01*
X59408076Y-99231007D01*
X59441331Y-99247349D01*
X59495885Y-99285177D01*
X59546012Y-99329834D01*
X59584919Y-99373907D01*
X59605816Y-99409981D01*
X59605835Y-99426937D01*
X59585869Y-99442341D01*
X59542999Y-99467670D01*
X59493642Y-99493770D01*
X59390643Y-99545729D01*
X59357224Y-99501347D01*
X59317186Y-99462634D01*
X59265664Y-99429273D01*
X59262603Y-99427779D01*
X59187501Y-99410370D01*
X59111906Y-99423713D01*
X59047134Y-99464468D01*
X59018735Y-99499756D01*
X58982796Y-99587561D01*
X58969409Y-99687552D01*
X58977706Y-99788932D01*
X59006818Y-99880902D01*
X59055075Y-99951867D01*
X59093600Y-99983969D01*
X59135032Y-99999281D01*
X59195267Y-100003413D01*
X59201140Y-100003429D01*
X59260973Y-100000564D01*
X59301487Y-99987248D01*
X59339494Y-99956400D01*
X59357934Y-99937382D01*
X59420224Y-99871335D01*
X59510946Y-99913826D01*
X59562810Y-99939896D01*
X59599732Y-99961765D01*
X59610817Y-99971124D01*
X59607219Y-99996789D01*
X59580568Y-100036255D01*
X59537547Y-100082528D01*
X59484839Y-100128616D01*
X59429128Y-100167524D01*
X59415874Y-100175114D01*
X59310954Y-100215178D01*
X59190212Y-100234238D01*
X59068270Y-100231033D01*
X58982428Y-100212493D01*
X58872460Y-100158284D01*
X58781355Y-100073930D01*
X58716622Y-99972249D01*
X58690730Y-99913917D01*
X58675455Y-99860976D01*
X58668166Y-99799803D01*
X58666228Y-99716776D01*
X58666224Y-99711534D01*
X58667745Y-99628801D01*
X58674148Y-99568821D01*
X58688194Y-99518127D01*
X58712646Y-99463247D01*
X58720193Y-99448301D01*
X58790604Y-99344219D01*
X58881132Y-99262783D01*
X58984677Y-99210076D01*
X59005870Y-99203640D01*
X59101830Y-99188714D01*
X59209862Y-99189204D01*
G36*
X58291047Y-99194561D02*
G01*
X58377554Y-99212161D01*
X58385969Y-99214965D01*
X58434465Y-99239033D01*
X58490169Y-99276797D01*
X58544592Y-99321057D01*
X58589249Y-99364610D01*
X58615652Y-99400254D01*
X58619356Y-99413027D01*
X58604480Y-99430674D01*
X58565699Y-99458724D01*
X58511748Y-99490912D01*
X58404355Y-99549896D01*
X58365909Y-99495903D01*
X58306165Y-99440917D01*
X58231000Y-99414761D01*
X58150219Y-99420180D01*
X58125717Y-99428639D01*
X58062912Y-99466686D01*
X58021199Y-99522723D01*
X57996940Y-99603057D01*
X57989280Y-99665165D01*
X57989892Y-99781167D01*
X58013393Y-99872082D01*
X58060999Y-99941926D01*
X58077889Y-99957478D01*
X58143378Y-99993108D01*
X58218087Y-100004361D01*
X58291416Y-99992538D01*
X58352766Y-99958942D01*
X58384787Y-99919782D01*
X58406276Y-99889672D01*
X58433113Y-99879365D01*
X58472882Y-99889242D01*
X58533167Y-99919686D01*
X58547896Y-99928015D01*
X58638220Y-99979602D01*
X58563186Y-100064845D01*
X58476029Y-100147843D01*
X58383586Y-100200228D01*
X58275438Y-100226957D01*
X58211357Y-100232288D01*
X58138195Y-100233034D01*
X58071956Y-100229665D01*
X58029928Y-100223499D01*
X57916771Y-100176018D01*
X57818817Y-100099686D01*
X57743283Y-100001046D01*
X57712312Y-99935452D01*
X57682620Y-99812926D01*
X57676947Y-99678503D01*
X57695252Y-99547453D01*
X57713445Y-99487805D01*
X57761103Y-99398958D01*
X57831069Y-99316320D01*
X57913395Y-99249638D01*
X57998133Y-99208659D01*
X57998436Y-99208568D01*
X58085149Y-99192494D01*
X58188132Y-99187915D01*
X58291047Y-99194561D01*
X58291047Y-99194561D01*
G37*
X58291047Y-99194561D02*
X58377554Y-99212161D01*
X58385969Y-99214965D01*
X58434465Y-99239033D01*
X58490169Y-99276797D01*
X58544592Y-99321057D01*
X58589249Y-99364610D01*
X58615652Y-99400254D01*
X58619356Y-99413027D01*
X58604480Y-99430674D01*
X58565699Y-99458724D01*
X58511748Y-99490912D01*
X58404355Y-99549896D01*
X58365909Y-99495903D01*
X58306165Y-99440917D01*
X58231000Y-99414761D01*
X58150219Y-99420180D01*
X58125717Y-99428639D01*
X58062912Y-99466686D01*
X58021199Y-99522723D01*
X57996940Y-99603057D01*
X57989280Y-99665165D01*
X57989892Y-99781167D01*
X58013393Y-99872082D01*
X58060999Y-99941926D01*
X58077889Y-99957478D01*
X58143378Y-99993108D01*
X58218087Y-100004361D01*
X58291416Y-99992538D01*
X58352766Y-99958942D01*
X58384787Y-99919782D01*
X58406276Y-99889672D01*
X58433113Y-99879365D01*
X58472882Y-99889242D01*
X58533167Y-99919686D01*
X58547896Y-99928015D01*
X58638220Y-99979602D01*
X58563186Y-100064845D01*
X58476029Y-100147843D01*
X58383586Y-100200228D01*
X58275438Y-100226957D01*
X58211357Y-100232288D01*
X58138195Y-100233034D01*
X58071956Y-100229665D01*
X58029928Y-100223499D01*
X57916771Y-100176018D01*
X57818817Y-100099686D01*
X57743283Y-100001046D01*
X57712312Y-99935452D01*
X57682620Y-99812926D01*
X57676947Y-99678503D01*
X57695252Y-99547453D01*
X57713445Y-99487805D01*
X57761103Y-99398958D01*
X57831069Y-99316320D01*
X57913395Y-99249638D01*
X57998133Y-99208659D01*
X57998436Y-99208568D01*
X58085149Y-99192494D01*
X58188132Y-99187915D01*
X58291047Y-99194561D01*
G36*
X69805842Y-98017065D02*
G01*
X70050989Y-98056510D01*
X70185643Y-98093091D01*
X70404262Y-98180062D01*
X70609607Y-98299316D01*
X70798296Y-98448223D01*
X70966945Y-98624156D01*
X71097883Y-98802007D01*
X71206921Y-99003405D01*
X71285769Y-99220126D01*
X71334461Y-99447417D01*
X71353029Y-99680521D01*
X71341508Y-99914682D01*
X71299931Y-100145144D01*
X71228330Y-100367153D01*
X71126740Y-100575951D01*
X71084976Y-100643698D01*
X70946165Y-100824568D01*
X70779386Y-100988309D01*
X70590571Y-101130725D01*
X70385655Y-101247615D01*
X70170573Y-101334782D01*
X70065782Y-101364753D01*
X69898154Y-101395578D01*
X69716777Y-101410724D01*
X69535261Y-101409879D01*
X69367217Y-101392733D01*
X69310340Y-101382012D01*
X69076487Y-101316211D01*
X68864088Y-101224022D01*
X68668181Y-101102644D01*
X68483806Y-100949278D01*
X68405165Y-100871054D01*
X68246735Y-100680678D01*
X68121368Y-100475431D01*
X68029291Y-100255879D01*
X67970730Y-100022589D01*
X67945911Y-99776130D01*
X67945000Y-99717240D01*
X67945835Y-99702953D01*
X68256254Y-99702953D01*
X68259758Y-99841854D01*
X68273720Y-99965671D01*
X68279659Y-99996355D01*
X68341645Y-100199650D01*
X68434913Y-100390355D01*
X68555897Y-100565200D01*
X68701033Y-100720918D01*
X68866755Y-100854241D01*
X69049498Y-100961900D01*
X69245698Y-101040626D01*
X69451789Y-101087153D01*
X69472499Y-101089872D01*
X69630350Y-101098679D01*
X69799778Y-101090219D01*
X69961203Y-101065751D01*
X70004071Y-101055751D01*
X70191878Y-100990399D01*
X70374622Y-100893982D01*
X70545435Y-100771679D01*
X70697449Y-100628665D01*
X70823794Y-100470117D01*
X70862552Y-100408739D01*
X70948562Y-100228659D01*
X71007816Y-100030649D01*
X71039311Y-99822345D01*
X71042043Y-99611381D01*
X71015007Y-99405390D01*
X71001866Y-99349256D01*
X70934893Y-99159423D01*
X70836334Y-98977592D01*
X70710816Y-98809402D01*
X70562960Y-98660493D01*
X70397392Y-98536504D01*
X70282519Y-98471973D01*
X70152285Y-98412244D01*
X70037460Y-98370740D01*
X69925443Y-98344564D01*
X69803632Y-98330817D01*
X69659424Y-98326600D01*
X69650428Y-98326587D01*
X69473795Y-98333808D01*
X69319248Y-98357423D01*
X69175251Y-98400180D01*
X69030269Y-98464827D01*
X68997285Y-98482158D01*
X68817817Y-98598579D01*
X68655049Y-98743706D01*
X68513505Y-98912062D01*
X68397708Y-99098172D01*
X68312180Y-99296559D01*
X68303965Y-99321562D01*
X68278811Y-99430226D01*
X68262756Y-99561551D01*
X68256254Y-99702953D01*
X67945835Y-99702953D01*
X67959302Y-99472568D01*
X68003255Y-99246369D01*
X68078430Y-99034134D01*
X68186396Y-98831355D01*
X68317697Y-98647196D01*
X68484783Y-98466335D01*
X68672058Y-98314266D01*
X68876512Y-98191881D01*
X69095129Y-98100075D01*
X69324899Y-98039741D01*
X69562807Y-98011773D01*
X69805842Y-98017065D01*
X69805842Y-98017065D01*
G37*
X69805842Y-98017065D02*
X70050989Y-98056510D01*
X70185643Y-98093091D01*
X70404262Y-98180062D01*
X70609607Y-98299316D01*
X70798296Y-98448223D01*
X70966945Y-98624156D01*
X71097883Y-98802007D01*
X71206921Y-99003405D01*
X71285769Y-99220126D01*
X71334461Y-99447417D01*
X71353029Y-99680521D01*
X71341508Y-99914682D01*
X71299931Y-100145144D01*
X71228330Y-100367153D01*
X71126740Y-100575951D01*
X71084976Y-100643698D01*
X70946165Y-100824568D01*
X70779386Y-100988309D01*
X70590571Y-101130725D01*
X70385655Y-101247615D01*
X70170573Y-101334782D01*
X70065782Y-101364753D01*
X69898154Y-101395578D01*
X69716777Y-101410724D01*
X69535261Y-101409879D01*
X69367217Y-101392733D01*
X69310340Y-101382012D01*
X69076487Y-101316211D01*
X68864088Y-101224022D01*
X68668181Y-101102644D01*
X68483806Y-100949278D01*
X68405165Y-100871054D01*
X68246735Y-100680678D01*
X68121368Y-100475431D01*
X68029291Y-100255879D01*
X67970730Y-100022589D01*
X67945911Y-99776130D01*
X67945000Y-99717240D01*
X67945835Y-99702953D01*
X68256254Y-99702953D01*
X68259758Y-99841854D01*
X68273720Y-99965671D01*
X68279659Y-99996355D01*
X68341645Y-100199650D01*
X68434913Y-100390355D01*
X68555897Y-100565200D01*
X68701033Y-100720918D01*
X68866755Y-100854241D01*
X69049498Y-100961900D01*
X69245698Y-101040626D01*
X69451789Y-101087153D01*
X69472499Y-101089872D01*
X69630350Y-101098679D01*
X69799778Y-101090219D01*
X69961203Y-101065751D01*
X70004071Y-101055751D01*
X70191878Y-100990399D01*
X70374622Y-100893982D01*
X70545435Y-100771679D01*
X70697449Y-100628665D01*
X70823794Y-100470117D01*
X70862552Y-100408739D01*
X70948562Y-100228659D01*
X71007816Y-100030649D01*
X71039311Y-99822345D01*
X71042043Y-99611381D01*
X71015007Y-99405390D01*
X71001866Y-99349256D01*
X70934893Y-99159423D01*
X70836334Y-98977592D01*
X70710816Y-98809402D01*
X70562960Y-98660493D01*
X70397392Y-98536504D01*
X70282519Y-98471973D01*
X70152285Y-98412244D01*
X70037460Y-98370740D01*
X69925443Y-98344564D01*
X69803632Y-98330817D01*
X69659424Y-98326600D01*
X69650428Y-98326587D01*
X69473795Y-98333808D01*
X69319248Y-98357423D01*
X69175251Y-98400180D01*
X69030269Y-98464827D01*
X68997285Y-98482158D01*
X68817817Y-98598579D01*
X68655049Y-98743706D01*
X68513505Y-98912062D01*
X68397708Y-99098172D01*
X68312180Y-99296559D01*
X68303965Y-99321562D01*
X68278811Y-99430226D01*
X68262756Y-99561551D01*
X68256254Y-99702953D01*
X67945835Y-99702953D01*
X67959302Y-99472568D01*
X68003255Y-99246369D01*
X68078430Y-99034134D01*
X68186396Y-98831355D01*
X68317697Y-98647196D01*
X68484783Y-98466335D01*
X68672058Y-98314266D01*
X68876512Y-98191881D01*
X69095129Y-98100075D01*
X69324899Y-98039741D01*
X69562807Y-98011773D01*
X69805842Y-98017065D01*
G36*
X66139497Y-98017048D02*
G01*
X66374964Y-98054157D01*
X66601241Y-98121043D01*
X66812838Y-98217012D01*
X66916126Y-98278755D01*
X67115099Y-98429803D01*
X67287477Y-98604231D01*
X67431565Y-98799674D01*
X67545670Y-99013767D01*
X67628097Y-99244145D01*
X67639902Y-99289017D01*
X67665828Y-99432181D01*
X67679851Y-99596654D01*
X67681966Y-99769642D01*
X67672170Y-99938350D01*
X67650455Y-100089984D01*
X67640228Y-100135896D01*
X67570023Y-100356014D01*
X67472718Y-100556150D01*
X67345384Y-100741302D01*
X67185096Y-100916468D01*
X67180444Y-100920952D01*
X67014178Y-101066149D01*
X66846865Y-101181251D01*
X66669883Y-101271649D01*
X66539276Y-101321876D01*
X66310011Y-101382526D01*
X66072941Y-101412256D01*
X65836738Y-101410379D01*
X65677143Y-101390000D01*
X65451831Y-101331381D01*
X65235807Y-101240550D01*
X65032824Y-101120774D01*
X64846631Y-100975321D01*
X64680980Y-100807458D01*
X64539622Y-100620453D01*
X64426308Y-100417574D01*
X64356183Y-100239286D01*
X64322458Y-100124110D01*
X64299760Y-100018330D01*
X64286773Y-99910805D01*
X64282183Y-99790390D01*
X64283609Y-99707653D01*
X64588886Y-99707653D01*
X64597432Y-99884028D01*
X64624328Y-100040411D01*
X64672478Y-100189643D01*
X64723379Y-100302786D01*
X64840747Y-100501105D01*
X64982631Y-100672745D01*
X65149726Y-100818399D01*
X65342726Y-100938761D01*
X65379985Y-100957654D01*
X65491604Y-101008919D01*
X65591625Y-101045444D01*
X65690093Y-101069190D01*
X65797052Y-101082115D01*
X65922548Y-101086182D01*
X66030928Y-101084701D01*
X66146783Y-101080462D01*
X66235421Y-101073873D01*
X66305889Y-101063794D01*
X66367236Y-101049087D01*
X66402465Y-101037897D01*
X66567452Y-100973043D01*
X66710614Y-100896601D01*
X66843674Y-100801262D01*
X66978352Y-100679717D01*
X66981005Y-100677105D01*
X67059337Y-100595668D01*
X67122461Y-100521668D01*
X67167432Y-100459215D01*
X67191307Y-100412421D01*
X67191142Y-100385396D01*
X67190431Y-100384619D01*
X67169710Y-100372732D01*
X67122457Y-100349544D01*
X67055282Y-100318012D01*
X66974792Y-100281097D01*
X66887595Y-100241758D01*
X66800300Y-100202955D01*
X66719516Y-100167646D01*
X66651849Y-100138792D01*
X66603909Y-100119352D01*
X66582347Y-100112286D01*
X66568463Y-100127531D01*
X66551458Y-100164726D01*
X66549700Y-100169635D01*
X66496869Y-100268238D01*
X66414408Y-100353617D01*
X66307931Y-100421175D01*
X66189208Y-100464775D01*
X66103500Y-100486694D01*
X66101376Y-100612454D01*
X66099253Y-100738214D01*
X65903928Y-100738214D01*
X65893358Y-100479660D01*
X65786666Y-100467589D01*
X65691675Y-100446440D01*
X65586910Y-100406814D01*
X65488461Y-100355683D01*
X65424366Y-100310597D01*
X65380231Y-100273461D01*
X65500851Y-100152841D01*
X65621471Y-100032222D01*
X65663140Y-100071367D01*
X65734844Y-100121820D01*
X65823433Y-100159262D01*
X65919297Y-100182079D01*
X66012826Y-100188657D01*
X66094408Y-100177382D01*
X66147083Y-100152629D01*
X66176772Y-100124061D01*
X66190706Y-100087767D01*
X66194214Y-100029737D01*
X66194214Y-100028720D01*
X66192109Y-99974130D01*
X66181140Y-99942513D01*
X66154323Y-99920605D01*
X66130714Y-99908102D01*
X66079855Y-99883646D01*
X66004545Y-99848905D01*
X65908873Y-99805654D01*
X65796926Y-99755670D01*
X65672793Y-99700728D01*
X65540560Y-99642603D01*
X65404315Y-99583071D01*
X65268145Y-99523907D01*
X65136140Y-99466887D01*
X65012385Y-99413787D01*
X64900969Y-99366382D01*
X64805980Y-99326448D01*
X64731505Y-99295760D01*
X64681631Y-99276094D01*
X64660446Y-99269225D01*
X64660079Y-99269300D01*
X64644594Y-99295329D01*
X64628846Y-99349686D01*
X64614123Y-99424442D01*
X64601712Y-99511675D01*
X64592899Y-99603456D01*
X64588974Y-99691861D01*
X64588886Y-99707653D01*
X64283609Y-99707653D01*
X64284673Y-99645944D01*
X64285016Y-99636368D01*
X64305045Y-99406914D01*
X64348987Y-99200014D01*
X64419269Y-99008979D01*
X64456729Y-98940202D01*
X64824630Y-98940202D01*
X64840166Y-98956931D01*
X64880722Y-98981615D01*
X64937544Y-99008932D01*
X64938022Y-99009139D01*
X65001491Y-99036798D01*
X65086129Y-99073991D01*
X65179976Y-99115452D01*
X65255374Y-99148920D01*
X65459534Y-99239776D01*
X65496260Y-99167787D01*
X65561479Y-99079738D01*
X65657788Y-99009984D01*
X65784796Y-98958778D01*
X65844964Y-98943355D01*
X65871079Y-98935755D01*
X65885997Y-98921700D01*
X65892850Y-98892547D01*
X65894769Y-98839657D01*
X65894857Y-98805654D01*
X65894857Y-98679000D01*
X66094428Y-98679000D01*
X66094428Y-98931356D01*
X66162464Y-98942508D01*
X66245114Y-98961662D01*
X66333444Y-98991024D01*
X66414314Y-99025534D01*
X66474584Y-99060133D01*
X66481385Y-99065297D01*
X66531383Y-99105357D01*
X66312621Y-99321463D01*
X66226696Y-99279717D01*
X66134013Y-99245182D01*
X66041475Y-99229011D01*
X65955922Y-99230488D01*
X65884195Y-99248896D01*
X65833134Y-99283519D01*
X65811560Y-99323204D01*
X65807920Y-99364064D01*
X65815450Y-99386973D01*
X65835220Y-99397779D01*
X65884075Y-99421267D01*
X65957903Y-99455610D01*
X66052596Y-99498976D01*
X66164046Y-99549538D01*
X66288142Y-99605464D01*
X66420775Y-99664927D01*
X66557837Y-99726096D01*
X66695218Y-99787142D01*
X66828809Y-99846236D01*
X66954501Y-99901547D01*
X67068184Y-99951248D01*
X67165750Y-99993508D01*
X67243089Y-100026498D01*
X67296091Y-100048388D01*
X67320649Y-100057349D01*
X67321492Y-100057469D01*
X67339742Y-100042183D01*
X67352829Y-100007964D01*
X67375011Y-99845735D01*
X67377527Y-99667093D01*
X67361174Y-99485588D01*
X67326753Y-99314770D01*
X67308303Y-99253069D01*
X67233341Y-99080202D01*
X67127572Y-98912790D01*
X66996473Y-98756628D01*
X66845522Y-98617512D01*
X66680195Y-98501238D01*
X66520748Y-98419693D01*
X66318792Y-98353972D01*
X66107543Y-98320900D01*
X65892563Y-98320022D01*
X65679415Y-98350881D01*
X65473661Y-98413022D01*
X65280866Y-98505989D01*
X65251601Y-98523688D01*
X65195957Y-98562976D01*
X65129994Y-98616620D01*
X65059194Y-98679270D01*
X64989044Y-98745576D01*
X64925028Y-98810187D01*
X64872631Y-98867754D01*
X64837338Y-98912925D01*
X64824630Y-98940202D01*
X64456729Y-98940202D01*
X64518319Y-98827123D01*
X64640043Y-98658302D01*
X64786739Y-98497592D01*
X64953283Y-98353384D01*
X65132318Y-98230939D01*
X65316489Y-98135517D01*
X65432846Y-98091319D01*
X65662949Y-98034936D01*
X65900329Y-98010410D01*
X66139497Y-98017048D01*
X66139497Y-98017048D01*
G37*
X66139497Y-98017048D02*
X66374964Y-98054157D01*
X66601241Y-98121043D01*
X66812838Y-98217012D01*
X66916126Y-98278755D01*
X67115099Y-98429803D01*
X67287477Y-98604231D01*
X67431565Y-98799674D01*
X67545670Y-99013767D01*
X67628097Y-99244145D01*
X67639902Y-99289017D01*
X67665828Y-99432181D01*
X67679851Y-99596654D01*
X67681966Y-99769642D01*
X67672170Y-99938350D01*
X67650455Y-100089984D01*
X67640228Y-100135896D01*
X67570023Y-100356014D01*
X67472718Y-100556150D01*
X67345384Y-100741302D01*
X67185096Y-100916468D01*
X67180444Y-100920952D01*
X67014178Y-101066149D01*
X66846865Y-101181251D01*
X66669883Y-101271649D01*
X66539276Y-101321876D01*
X66310011Y-101382526D01*
X66072941Y-101412256D01*
X65836738Y-101410379D01*
X65677143Y-101390000D01*
X65451831Y-101331381D01*
X65235807Y-101240550D01*
X65032824Y-101120774D01*
X64846631Y-100975321D01*
X64680980Y-100807458D01*
X64539622Y-100620453D01*
X64426308Y-100417574D01*
X64356183Y-100239286D01*
X64322458Y-100124110D01*
X64299760Y-100018330D01*
X64286773Y-99910805D01*
X64282183Y-99790390D01*
X64283609Y-99707653D01*
X64588886Y-99707653D01*
X64597432Y-99884028D01*
X64624328Y-100040411D01*
X64672478Y-100189643D01*
X64723379Y-100302786D01*
X64840747Y-100501105D01*
X64982631Y-100672745D01*
X65149726Y-100818399D01*
X65342726Y-100938761D01*
X65379985Y-100957654D01*
X65491604Y-101008919D01*
X65591625Y-101045444D01*
X65690093Y-101069190D01*
X65797052Y-101082115D01*
X65922548Y-101086182D01*
X66030928Y-101084701D01*
X66146783Y-101080462D01*
X66235421Y-101073873D01*
X66305889Y-101063794D01*
X66367236Y-101049087D01*
X66402465Y-101037897D01*
X66567452Y-100973043D01*
X66710614Y-100896601D01*
X66843674Y-100801262D01*
X66978352Y-100679717D01*
X66981005Y-100677105D01*
X67059337Y-100595668D01*
X67122461Y-100521668D01*
X67167432Y-100459215D01*
X67191307Y-100412421D01*
X67191142Y-100385396D01*
X67190431Y-100384619D01*
X67169710Y-100372732D01*
X67122457Y-100349544D01*
X67055282Y-100318012D01*
X66974792Y-100281097D01*
X66887595Y-100241758D01*
X66800300Y-100202955D01*
X66719516Y-100167646D01*
X66651849Y-100138792D01*
X66603909Y-100119352D01*
X66582347Y-100112286D01*
X66568463Y-100127531D01*
X66551458Y-100164726D01*
X66549700Y-100169635D01*
X66496869Y-100268238D01*
X66414408Y-100353617D01*
X66307931Y-100421175D01*
X66189208Y-100464775D01*
X66103500Y-100486694D01*
X66101376Y-100612454D01*
X66099253Y-100738214D01*
X65903928Y-100738214D01*
X65893358Y-100479660D01*
X65786666Y-100467589D01*
X65691675Y-100446440D01*
X65586910Y-100406814D01*
X65488461Y-100355683D01*
X65424366Y-100310597D01*
X65380231Y-100273461D01*
X65500851Y-100152841D01*
X65621471Y-100032222D01*
X65663140Y-100071367D01*
X65734844Y-100121820D01*
X65823433Y-100159262D01*
X65919297Y-100182079D01*
X66012826Y-100188657D01*
X66094408Y-100177382D01*
X66147083Y-100152629D01*
X66176772Y-100124061D01*
X66190706Y-100087767D01*
X66194214Y-100029737D01*
X66194214Y-100028720D01*
X66192109Y-99974130D01*
X66181140Y-99942513D01*
X66154323Y-99920605D01*
X66130714Y-99908102D01*
X66079855Y-99883646D01*
X66004545Y-99848905D01*
X65908873Y-99805654D01*
X65796926Y-99755670D01*
X65672793Y-99700728D01*
X65540560Y-99642603D01*
X65404315Y-99583071D01*
X65268145Y-99523907D01*
X65136140Y-99466887D01*
X65012385Y-99413787D01*
X64900969Y-99366382D01*
X64805980Y-99326448D01*
X64731505Y-99295760D01*
X64681631Y-99276094D01*
X64660446Y-99269225D01*
X64660079Y-99269300D01*
X64644594Y-99295329D01*
X64628846Y-99349686D01*
X64614123Y-99424442D01*
X64601712Y-99511675D01*
X64592899Y-99603456D01*
X64588974Y-99691861D01*
X64588886Y-99707653D01*
X64283609Y-99707653D01*
X64284673Y-99645944D01*
X64285016Y-99636368D01*
X64305045Y-99406914D01*
X64348987Y-99200014D01*
X64419269Y-99008979D01*
X64456729Y-98940202D01*
X64824630Y-98940202D01*
X64840166Y-98956931D01*
X64880722Y-98981615D01*
X64937544Y-99008932D01*
X64938022Y-99009139D01*
X65001491Y-99036798D01*
X65086129Y-99073991D01*
X65179976Y-99115452D01*
X65255374Y-99148920D01*
X65459534Y-99239776D01*
X65496260Y-99167787D01*
X65561479Y-99079738D01*
X65657788Y-99009984D01*
X65784796Y-98958778D01*
X65844964Y-98943355D01*
X65871079Y-98935755D01*
X65885997Y-98921700D01*
X65892850Y-98892547D01*
X65894769Y-98839657D01*
X65894857Y-98805654D01*
X65894857Y-98679000D01*
X66094428Y-98679000D01*
X66094428Y-98931356D01*
X66162464Y-98942508D01*
X66245114Y-98961662D01*
X66333444Y-98991024D01*
X66414314Y-99025534D01*
X66474584Y-99060133D01*
X66481385Y-99065297D01*
X66531383Y-99105357D01*
X66312621Y-99321463D01*
X66226696Y-99279717D01*
X66134013Y-99245182D01*
X66041475Y-99229011D01*
X65955922Y-99230488D01*
X65884195Y-99248896D01*
X65833134Y-99283519D01*
X65811560Y-99323204D01*
X65807920Y-99364064D01*
X65815450Y-99386973D01*
X65835220Y-99397779D01*
X65884075Y-99421267D01*
X65957903Y-99455610D01*
X66052596Y-99498976D01*
X66164046Y-99549538D01*
X66288142Y-99605464D01*
X66420775Y-99664927D01*
X66557837Y-99726096D01*
X66695218Y-99787142D01*
X66828809Y-99846236D01*
X66954501Y-99901547D01*
X67068184Y-99951248D01*
X67165750Y-99993508D01*
X67243089Y-100026498D01*
X67296091Y-100048388D01*
X67320649Y-100057349D01*
X67321492Y-100057469D01*
X67339742Y-100042183D01*
X67352829Y-100007964D01*
X67375011Y-99845735D01*
X67377527Y-99667093D01*
X67361174Y-99485588D01*
X67326753Y-99314770D01*
X67308303Y-99253069D01*
X67233341Y-99080202D01*
X67127572Y-98912790D01*
X66996473Y-98756628D01*
X66845522Y-98617512D01*
X66680195Y-98501238D01*
X66520748Y-98419693D01*
X66318792Y-98353972D01*
X66107543Y-98320900D01*
X65892563Y-98320022D01*
X65679415Y-98350881D01*
X65473661Y-98413022D01*
X65280866Y-98505989D01*
X65251601Y-98523688D01*
X65195957Y-98562976D01*
X65129994Y-98616620D01*
X65059194Y-98679270D01*
X64989044Y-98745576D01*
X64925028Y-98810187D01*
X64872631Y-98867754D01*
X64837338Y-98912925D01*
X64824630Y-98940202D01*
X64456729Y-98940202D01*
X64518319Y-98827123D01*
X64640043Y-98658302D01*
X64786739Y-98497592D01*
X64953283Y-98353384D01*
X65132318Y-98230939D01*
X65316489Y-98135517D01*
X65432846Y-98091319D01*
X65662949Y-98034936D01*
X65900329Y-98010410D01*
X66139497Y-98017048D01*
G36*
X62498857Y-98018740D02*
G01*
X62731921Y-98057254D01*
X62955231Y-98126186D01*
X63148167Y-98216776D01*
X63355262Y-98352559D01*
X63538630Y-98513907D01*
X63696030Y-98697913D01*
X63825226Y-98901671D01*
X63923976Y-99122273D01*
X63975088Y-99290390D01*
X64000319Y-99430681D01*
X64014147Y-99592520D01*
X64016565Y-99763210D01*
X64007568Y-99930057D01*
X63987151Y-100080362D01*
X63975485Y-100134225D01*
X63904129Y-100357520D01*
X63804260Y-100561300D01*
X63673477Y-100749705D01*
X63524220Y-100912600D01*
X63328796Y-101079306D01*
X63119216Y-101212926D01*
X62893543Y-101314542D01*
X62697278Y-101374217D01*
X62596423Y-101392202D01*
X62472220Y-101404235D01*
X62337166Y-101409997D01*
X62203759Y-101409170D01*
X62084495Y-101401436D01*
X62015315Y-101391588D01*
X61783869Y-101332328D01*
X61572246Y-101246066D01*
X61375791Y-101130249D01*
X61189853Y-100982321D01*
X61084956Y-100880764D01*
X60926714Y-100696506D01*
X60802130Y-100503922D01*
X60708803Y-100298741D01*
X60652269Y-100111289D01*
X60633083Y-100001727D01*
X60620683Y-99868881D01*
X60615246Y-99724675D01*
X60615329Y-99717607D01*
X60923833Y-99717607D01*
X60930785Y-99873655D01*
X60951872Y-100014429D01*
X60957759Y-100039413D01*
X61027796Y-100243893D01*
X61130177Y-100436730D01*
X61261546Y-100612767D01*
X61418544Y-100766846D01*
X61445754Y-100789066D01*
X61557294Y-100872798D01*
X61658413Y-100936164D01*
X61762187Y-100986442D01*
X61878068Y-101029699D01*
X62082010Y-101079973D01*
X62296315Y-101099120D01*
X62512231Y-101086855D01*
X62674357Y-101055751D01*
X62863539Y-100989796D01*
X63045961Y-100892656D01*
X63215741Y-100769171D01*
X63366997Y-100624184D01*
X63493847Y-100462536D01*
X63581063Y-100309403D01*
X63634638Y-100184954D01*
X63671418Y-100069559D01*
X63693965Y-99951070D01*
X63704841Y-99817342D01*
X63706875Y-99713143D01*
X63703507Y-99568101D01*
X63690754Y-99446094D01*
X63665699Y-99334453D01*
X63625428Y-99220509D01*
X63567025Y-99091592D01*
X63561040Y-99079353D01*
X63520667Y-99001167D01*
X63481559Y-98936933D01*
X63436552Y-98877107D01*
X63378483Y-98812143D01*
X63302346Y-98734639D01*
X63208358Y-98644968D01*
X63127310Y-98576951D01*
X63050057Y-98523449D01*
X62982750Y-98485206D01*
X62774782Y-98396140D01*
X62558369Y-98340986D01*
X62337566Y-98320044D01*
X62116423Y-98333611D01*
X61898993Y-98381987D01*
X61841655Y-98400982D01*
X61658441Y-98484450D01*
X61485247Y-98598950D01*
X61326817Y-98739614D01*
X61187898Y-98901574D01*
X61073236Y-99079961D01*
X60987576Y-99269907D01*
X60983585Y-99281211D01*
X60950653Y-99409047D01*
X60930596Y-99558625D01*
X60923833Y-99717607D01*
X60615329Y-99717607D01*
X60616948Y-99581033D01*
X60625964Y-99449880D01*
X60641011Y-99349842D01*
X60707124Y-99123721D01*
X60805819Y-98908389D01*
X60934072Y-98707646D01*
X61088858Y-98525295D01*
X61267153Y-98365137D01*
X61465931Y-98230976D01*
X61578022Y-98171965D01*
X61795621Y-98087255D01*
X62025258Y-98033585D01*
X62261486Y-98010798D01*
X62498857Y-98018740D01*
X62498857Y-98018740D01*
G37*
X62498857Y-98018740D02*
X62731921Y-98057254D01*
X62955231Y-98126186D01*
X63148167Y-98216776D01*
X63355262Y-98352559D01*
X63538630Y-98513907D01*
X63696030Y-98697913D01*
X63825226Y-98901671D01*
X63923976Y-99122273D01*
X63975088Y-99290390D01*
X64000319Y-99430681D01*
X64014147Y-99592520D01*
X64016565Y-99763210D01*
X64007568Y-99930057D01*
X63987151Y-100080362D01*
X63975485Y-100134225D01*
X63904129Y-100357520D01*
X63804260Y-100561300D01*
X63673477Y-100749705D01*
X63524220Y-100912600D01*
X63328796Y-101079306D01*
X63119216Y-101212926D01*
X62893543Y-101314542D01*
X62697278Y-101374217D01*
X62596423Y-101392202D01*
X62472220Y-101404235D01*
X62337166Y-101409997D01*
X62203759Y-101409170D01*
X62084495Y-101401436D01*
X62015315Y-101391588D01*
X61783869Y-101332328D01*
X61572246Y-101246066D01*
X61375791Y-101130249D01*
X61189853Y-100982321D01*
X61084956Y-100880764D01*
X60926714Y-100696506D01*
X60802130Y-100503922D01*
X60708803Y-100298741D01*
X60652269Y-100111289D01*
X60633083Y-100001727D01*
X60620683Y-99868881D01*
X60615246Y-99724675D01*
X60615329Y-99717607D01*
X60923833Y-99717607D01*
X60930785Y-99873655D01*
X60951872Y-100014429D01*
X60957759Y-100039413D01*
X61027796Y-100243893D01*
X61130177Y-100436730D01*
X61261546Y-100612767D01*
X61418544Y-100766846D01*
X61445754Y-100789066D01*
X61557294Y-100872798D01*
X61658413Y-100936164D01*
X61762187Y-100986442D01*
X61878068Y-101029699D01*
X62082010Y-101079973D01*
X62296315Y-101099120D01*
X62512231Y-101086855D01*
X62674357Y-101055751D01*
X62863539Y-100989796D01*
X63045961Y-100892656D01*
X63215741Y-100769171D01*
X63366997Y-100624184D01*
X63493847Y-100462536D01*
X63581063Y-100309403D01*
X63634638Y-100184954D01*
X63671418Y-100069559D01*
X63693965Y-99951070D01*
X63704841Y-99817342D01*
X63706875Y-99713143D01*
X63703507Y-99568101D01*
X63690754Y-99446094D01*
X63665699Y-99334453D01*
X63625428Y-99220509D01*
X63567025Y-99091592D01*
X63561040Y-99079353D01*
X63520667Y-99001167D01*
X63481559Y-98936933D01*
X63436552Y-98877107D01*
X63378483Y-98812143D01*
X63302346Y-98734639D01*
X63208358Y-98644968D01*
X63127310Y-98576951D01*
X63050057Y-98523449D01*
X62982750Y-98485206D01*
X62774782Y-98396140D01*
X62558369Y-98340986D01*
X62337566Y-98320044D01*
X62116423Y-98333611D01*
X61898993Y-98381987D01*
X61841655Y-98400982D01*
X61658441Y-98484450D01*
X61485247Y-98598950D01*
X61326817Y-98739614D01*
X61187898Y-98901574D01*
X61073236Y-99079961D01*
X60987576Y-99269907D01*
X60983585Y-99281211D01*
X60950653Y-99409047D01*
X60930596Y-99558625D01*
X60923833Y-99717607D01*
X60615329Y-99717607D01*
X60616948Y-99581033D01*
X60625964Y-99449880D01*
X60641011Y-99349842D01*
X60707124Y-99123721D01*
X60805819Y-98908389D01*
X60934072Y-98707646D01*
X61088858Y-98525295D01*
X61267153Y-98365137D01*
X61465931Y-98230976D01*
X61578022Y-98171965D01*
X61795621Y-98087255D01*
X62025258Y-98033585D01*
X62261486Y-98010798D01*
X62498857Y-98018740D01*
G36*
X58925452Y-98029312D02*
G01*
X59123725Y-98070462D01*
X59162947Y-98082223D01*
X59386600Y-98171488D01*
X59595349Y-98290744D01*
X59785466Y-98436676D01*
X59953224Y-98605969D01*
X60094896Y-98795308D01*
X60206755Y-99001376D01*
X60213569Y-99016794D01*
X60290890Y-99236758D01*
X60337461Y-99466675D01*
X60353699Y-99701356D01*
X60340018Y-99935611D01*
X60296832Y-100164251D01*
X60224558Y-100382086D01*
X60123610Y-100583927D01*
X60083158Y-100647500D01*
X59935482Y-100835499D01*
X59763962Y-101000048D01*
X59572515Y-101139516D01*
X59365059Y-101252273D01*
X59145508Y-101336687D01*
X58917781Y-101391128D01*
X58685793Y-101413963D01*
X58453461Y-101403563D01*
X58320214Y-101381684D01*
X58073817Y-101312314D01*
X57846250Y-101211971D01*
X57638147Y-101081071D01*
X57450147Y-100920030D01*
X57282887Y-100729264D01*
X57247217Y-100680947D01*
X57125062Y-100479507D01*
X57033556Y-100262448D01*
X56973224Y-100034383D01*
X56944591Y-99799923D01*
X56946359Y-99683593D01*
X57252428Y-99683593D01*
X57264262Y-99891538D01*
X57308908Y-100096799D01*
X57386584Y-100296129D01*
X57497504Y-100486280D01*
X57555075Y-100563910D01*
X57701697Y-100720609D01*
X57873365Y-100855442D01*
X58063330Y-100964028D01*
X58264840Y-101041981D01*
X58311143Y-101054867D01*
X58455770Y-101080972D01*
X58618004Y-101091701D01*
X58783053Y-101087064D01*
X58936124Y-101067073D01*
X58992419Y-101054329D01*
X59145551Y-101002458D01*
X59304941Y-100927836D01*
X59456515Y-100837765D01*
X59566193Y-100756597D01*
X59719816Y-100606264D01*
X59845176Y-100435698D01*
X59941275Y-100248611D01*
X60007110Y-100048716D01*
X60041683Y-99839726D01*
X60043992Y-99625353D01*
X60013039Y-99409311D01*
X59970254Y-99256748D01*
X59897027Y-99082824D01*
X59798761Y-98922429D01*
X59670733Y-98768287D01*
X59618849Y-98715286D01*
X59450604Y-98571997D01*
X59269645Y-98461805D01*
X59073463Y-98383596D01*
X58859551Y-98336257D01*
X58734553Y-98323054D01*
X58511060Y-98325118D01*
X58295847Y-98361944D01*
X58091546Y-98432550D01*
X57900792Y-98535951D01*
X57726218Y-98671166D01*
X57677894Y-98717288D01*
X57528903Y-98889934D01*
X57411645Y-99076135D01*
X57326336Y-99272644D01*
X57273191Y-99476212D01*
X57252428Y-99683593D01*
X56946359Y-99683593D01*
X56948183Y-99563677D01*
X56984524Y-99330259D01*
X57054141Y-99104279D01*
X57064648Y-99078143D01*
X57174284Y-98857588D01*
X57312148Y-98655959D01*
X57475087Y-98476273D01*
X57659946Y-98321549D01*
X57863573Y-98194804D01*
X58082813Y-98099055D01*
X58090695Y-98096314D01*
X58284384Y-98045102D01*
X58495157Y-98016771D01*
X58712387Y-98011461D01*
X58925452Y-98029312D01*
X58925452Y-98029312D01*
G37*
X58925452Y-98029312D02*
X59123725Y-98070462D01*
X59162947Y-98082223D01*
X59386600Y-98171488D01*
X59595349Y-98290744D01*
X59785466Y-98436676D01*
X59953224Y-98605969D01*
X60094896Y-98795308D01*
X60206755Y-99001376D01*
X60213569Y-99016794D01*
X60290890Y-99236758D01*
X60337461Y-99466675D01*
X60353699Y-99701356D01*
X60340018Y-99935611D01*
X60296832Y-100164251D01*
X60224558Y-100382086D01*
X60123610Y-100583927D01*
X60083158Y-100647500D01*
X59935482Y-100835499D01*
X59763962Y-101000048D01*
X59572515Y-101139516D01*
X59365059Y-101252273D01*
X59145508Y-101336687D01*
X58917781Y-101391128D01*
X58685793Y-101413963D01*
X58453461Y-101403563D01*
X58320214Y-101381684D01*
X58073817Y-101312314D01*
X57846250Y-101211971D01*
X57638147Y-101081071D01*
X57450147Y-100920030D01*
X57282887Y-100729264D01*
X57247217Y-100680947D01*
X57125062Y-100479507D01*
X57033556Y-100262448D01*
X56973224Y-100034383D01*
X56944591Y-99799923D01*
X56946359Y-99683593D01*
X57252428Y-99683593D01*
X57264262Y-99891538D01*
X57308908Y-100096799D01*
X57386584Y-100296129D01*
X57497504Y-100486280D01*
X57555075Y-100563910D01*
X57701697Y-100720609D01*
X57873365Y-100855442D01*
X58063330Y-100964028D01*
X58264840Y-101041981D01*
X58311143Y-101054867D01*
X58455770Y-101080972D01*
X58618004Y-101091701D01*
X58783053Y-101087064D01*
X58936124Y-101067073D01*
X58992419Y-101054329D01*
X59145551Y-101002458D01*
X59304941Y-100927836D01*
X59456515Y-100837765D01*
X59566193Y-100756597D01*
X59719816Y-100606264D01*
X59845176Y-100435698D01*
X59941275Y-100248611D01*
X60007110Y-100048716D01*
X60041683Y-99839726D01*
X60043992Y-99625353D01*
X60013039Y-99409311D01*
X59970254Y-99256748D01*
X59897027Y-99082824D01*
X59798761Y-98922429D01*
X59670733Y-98768287D01*
X59618849Y-98715286D01*
X59450604Y-98571997D01*
X59269645Y-98461805D01*
X59073463Y-98383596D01*
X58859551Y-98336257D01*
X58734553Y-98323054D01*
X58511060Y-98325118D01*
X58295847Y-98361944D01*
X58091546Y-98432550D01*
X57900792Y-98535951D01*
X57726218Y-98671166D01*
X57677894Y-98717288D01*
X57528903Y-98889934D01*
X57411645Y-99076135D01*
X57326336Y-99272644D01*
X57273191Y-99476212D01*
X57252428Y-99683593D01*
X56946359Y-99683593D01*
X56948183Y-99563677D01*
X56984524Y-99330259D01*
X57054141Y-99104279D01*
X57064648Y-99078143D01*
X57174284Y-98857588D01*
X57312148Y-98655959D01*
X57475087Y-98476273D01*
X57659946Y-98321549D01*
X57863573Y-98194804D01*
X58082813Y-98099055D01*
X58090695Y-98096314D01*
X58284384Y-98045102D01*
X58495157Y-98016771D01*
X58712387Y-98011461D01*
X58925452Y-98029312D01*
D11*
X59336252Y-83895000D02*
X58813748Y-83895000D01*
X59336252Y-82475000D02*
X58813748Y-82475000D01*
X53733748Y-83895000D02*
X54256252Y-83895000D01*
X53733748Y-82475000D02*
X54256252Y-82475000D01*
X45160000Y-61333748D02*
X45160000Y-61856252D01*
X43740000Y-61333748D02*
X43740000Y-61856252D01*
X46280000Y-61333748D02*
X46280000Y-61856252D01*
X47700000Y-61333748D02*
X47700000Y-61856252D01*
X39295000Y-80271252D02*
X39295000Y-79748748D01*
X40715000Y-80271252D02*
X40715000Y-79748748D01*
X43890000Y-80271252D02*
X43890000Y-79748748D01*
X42470000Y-80271252D02*
X42470000Y-79748748D01*
X71195000Y-86733748D02*
X71195000Y-87256252D01*
X69775000Y-86733748D02*
X69775000Y-87256252D01*
X59336252Y-85015000D02*
X58813748Y-85015000D01*
X59336252Y-86435000D02*
X58813748Y-86435000D01*
X75826252Y-91515000D02*
X75303748Y-91515000D01*
X75826252Y-90095000D02*
X75303748Y-90095000D01*
X78758000Y-86885000D02*
X78258000Y-86885000D01*
X78758000Y-86885000D02*
X78758000Y-86385000D01*
X78758000Y-86885000D02*
X79158000Y-87185000D01*
X75158000Y-86885000D02*
X74658000Y-86885000D01*
X75158000Y-79485000D02*
X74658000Y-79485000D01*
X78758000Y-79485000D02*
X78258000Y-79485000D01*
X78758000Y-79485000D02*
X78758000Y-79985000D01*
X78758000Y-79485000D02*
X79158000Y-79185000D01*
X72558000Y-85885000D02*
X72558000Y-85085000D01*
X72558000Y-80485000D02*
X72558000Y-81285000D01*
X78758000Y-86385000D02*
X78758000Y-80685000D01*
X78758000Y-80685000D02*
X78758000Y-79985000D01*
X72330000Y-74355000D02*
X77530000Y-74355000D01*
X72330000Y-61595000D02*
X72330000Y-74355000D01*
X77530000Y-58995000D02*
X77530000Y-74355000D01*
X72330000Y-61595000D02*
X74930000Y-61595000D01*
X74930000Y-61595000D02*
X74930000Y-58995000D01*
X74930000Y-58995000D02*
X77530000Y-58995000D01*
X72330000Y-60325000D02*
X72330000Y-58995000D01*
X72330000Y-58995000D02*
X73660000Y-58995000D01*
X66600000Y-87256252D02*
X66600000Y-86733748D01*
X68020000Y-87256252D02*
X68020000Y-86733748D01*
X42220000Y-60835000D02*
X41290000Y-60835000D01*
X39060000Y-60835000D02*
X39990000Y-60835000D01*
X39060000Y-60835000D02*
X39060000Y-63995000D01*
X42220000Y-60835000D02*
X42220000Y-62295000D01*
X45410000Y-80770000D02*
X46340000Y-80770000D01*
X48570000Y-80770000D02*
X47640000Y-80770000D01*
X48570000Y-80770000D02*
X48570000Y-77610000D01*
X45410000Y-80770000D02*
X45410000Y-79310000D01*
X39060000Y-75055000D02*
X39060000Y-73595000D01*
X42220000Y-75055000D02*
X42220000Y-71895000D01*
X42220000Y-75055000D02*
X41290000Y-75055000D01*
X39060000Y-75055000D02*
X39990000Y-75055000D01*
X44525000Y-67683748D02*
X44525000Y-68206252D01*
X43105000Y-67683748D02*
X43105000Y-68206252D01*
X39295000Y-68206252D02*
X39295000Y-67683748D01*
X40715000Y-68206252D02*
X40715000Y-67683748D01*
X44375000Y-74033748D02*
X44375000Y-74556252D01*
X45795000Y-74033748D02*
X45795000Y-74556252D01*
X75303748Y-94055000D02*
X75826252Y-94055000D01*
X75303748Y-92635000D02*
X75826252Y-92635000D01*
X49605000Y-74033748D02*
X49605000Y-74556252D01*
X48185000Y-74033748D02*
X48185000Y-74556252D01*
D13*
X63745000Y-73325000D02*
X63170000Y-73325000D01*
X63745000Y-79075000D02*
X63095000Y-79075000D01*
X53095000Y-79075000D02*
X53745000Y-79075000D01*
X53095000Y-73325000D02*
X53745000Y-73325000D01*
X63745000Y-73325000D02*
X63745000Y-79075000D01*
X53095000Y-73325000D02*
X53095000Y-79075000D01*
X63170000Y-73325000D02*
X63170000Y-71725000D01*
X37552380Y-52149333D02*
X38266666Y-52149333D01*
X38409523Y-52196952D01*
X38504761Y-52292190D01*
X38552380Y-52435047D01*
X38552380Y-52530285D01*
X37647619Y-51720761D02*
X37600000Y-51673142D01*
X37552380Y-51577904D01*
X37552380Y-51339809D01*
X37600000Y-51244571D01*
X37647619Y-51196952D01*
X37742857Y-51149333D01*
X37838095Y-51149333D01*
X37980952Y-51196952D01*
X38552380Y-51768380D01*
X38552380Y-51149333D01*
X62698333Y-83542142D02*
X62650714Y-83589761D01*
X62507857Y-83637380D01*
X62412619Y-83637380D01*
X62269761Y-83589761D01*
X62174523Y-83494523D01*
X62126904Y-83399285D01*
X62079285Y-83208809D01*
X62079285Y-83065952D01*
X62126904Y-82875476D01*
X62174523Y-82780238D01*
X62269761Y-82685000D01*
X62412619Y-82637380D01*
X62507857Y-82637380D01*
X62650714Y-82685000D01*
X62698333Y-82732619D01*
X63650714Y-83637380D02*
X63079285Y-83637380D01*
X63365000Y-83637380D02*
X63365000Y-82637380D01*
X63269761Y-82780238D01*
X63174523Y-82875476D01*
X63079285Y-82923095D01*
X53828333Y-85447142D02*
X53780714Y-85494761D01*
X53637857Y-85542380D01*
X53542619Y-85542380D01*
X53399761Y-85494761D01*
X53304523Y-85399523D01*
X53256904Y-85304285D01*
X53209285Y-85113809D01*
X53209285Y-84970952D01*
X53256904Y-84780476D01*
X53304523Y-84685238D01*
X53399761Y-84590000D01*
X53542619Y-84542380D01*
X53637857Y-84542380D01*
X53780714Y-84590000D01*
X53828333Y-84637619D01*
X54209285Y-84637619D02*
X54256904Y-84590000D01*
X54352142Y-84542380D01*
X54590238Y-84542380D01*
X54685476Y-84590000D01*
X54733095Y-84637619D01*
X54780714Y-84732857D01*
X54780714Y-84828095D01*
X54733095Y-84970952D01*
X54161666Y-85542380D01*
X54780714Y-85542380D01*
X44807142Y-58586666D02*
X44854761Y-58634285D01*
X44902380Y-58777142D01*
X44902380Y-58872380D01*
X44854761Y-59015238D01*
X44759523Y-59110476D01*
X44664285Y-59158095D01*
X44473809Y-59205714D01*
X44330952Y-59205714D01*
X44140476Y-59158095D01*
X44045238Y-59110476D01*
X43950000Y-59015238D01*
X43902380Y-58872380D01*
X43902380Y-58777142D01*
X43950000Y-58634285D01*
X43997619Y-58586666D01*
X43902380Y-58253333D02*
X43902380Y-57634285D01*
X44283333Y-57967619D01*
X44283333Y-57824761D01*
X44330952Y-57729523D01*
X44378571Y-57681904D01*
X44473809Y-57634285D01*
X44711904Y-57634285D01*
X44807142Y-57681904D01*
X44854761Y-57729523D01*
X44902380Y-57824761D01*
X44902380Y-58110476D01*
X44854761Y-58205714D01*
X44807142Y-58253333D01*
X47347142Y-58586666D02*
X47394761Y-58634285D01*
X47442380Y-58777142D01*
X47442380Y-58872380D01*
X47394761Y-59015238D01*
X47299523Y-59110476D01*
X47204285Y-59158095D01*
X47013809Y-59205714D01*
X46870952Y-59205714D01*
X46680476Y-59158095D01*
X46585238Y-59110476D01*
X46490000Y-59015238D01*
X46442380Y-58872380D01*
X46442380Y-58777142D01*
X46490000Y-58634285D01*
X46537619Y-58586666D01*
X46775714Y-57729523D02*
X47442380Y-57729523D01*
X46394761Y-57967619D02*
X47109047Y-58205714D01*
X47109047Y-57586666D01*
X40362142Y-83351666D02*
X40409761Y-83399285D01*
X40457380Y-83542142D01*
X40457380Y-83637380D01*
X40409761Y-83780238D01*
X40314523Y-83875476D01*
X40219285Y-83923095D01*
X40028809Y-83970714D01*
X39885952Y-83970714D01*
X39695476Y-83923095D01*
X39600238Y-83875476D01*
X39505000Y-83780238D01*
X39457380Y-83637380D01*
X39457380Y-83542142D01*
X39505000Y-83399285D01*
X39552619Y-83351666D01*
X39457380Y-82446904D02*
X39457380Y-82923095D01*
X39933571Y-82970714D01*
X39885952Y-82923095D01*
X39838333Y-82827857D01*
X39838333Y-82589761D01*
X39885952Y-82494523D01*
X39933571Y-82446904D01*
X40028809Y-82399285D01*
X40266904Y-82399285D01*
X40362142Y-82446904D01*
X40409761Y-82494523D01*
X40457380Y-82589761D01*
X40457380Y-82827857D01*
X40409761Y-82923095D01*
X40362142Y-82970714D01*
X43537142Y-83351666D02*
X43584761Y-83399285D01*
X43632380Y-83542142D01*
X43632380Y-83637380D01*
X43584761Y-83780238D01*
X43489523Y-83875476D01*
X43394285Y-83923095D01*
X43203809Y-83970714D01*
X43060952Y-83970714D01*
X42870476Y-83923095D01*
X42775238Y-83875476D01*
X42680000Y-83780238D01*
X42632380Y-83637380D01*
X42632380Y-83542142D01*
X42680000Y-83399285D01*
X42727619Y-83351666D01*
X42632380Y-82494523D02*
X42632380Y-82685000D01*
X42680000Y-82780238D01*
X42727619Y-82827857D01*
X42870476Y-82923095D01*
X43060952Y-82970714D01*
X43441904Y-82970714D01*
X43537142Y-82923095D01*
X43584761Y-82875476D01*
X43632380Y-82780238D01*
X43632380Y-82589761D01*
X43584761Y-82494523D01*
X43537142Y-82446904D01*
X43441904Y-82399285D01*
X43203809Y-82399285D01*
X43108571Y-82446904D01*
X43060952Y-82494523D01*
X43013333Y-82589761D01*
X43013333Y-82780238D01*
X43060952Y-82875476D01*
X43108571Y-82923095D01*
X43203809Y-82970714D01*
X70842142Y-83986666D02*
X70889761Y-84034285D01*
X70937380Y-84177142D01*
X70937380Y-84272380D01*
X70889761Y-84415238D01*
X70794523Y-84510476D01*
X70699285Y-84558095D01*
X70508809Y-84605714D01*
X70365952Y-84605714D01*
X70175476Y-84558095D01*
X70080238Y-84510476D01*
X69985000Y-84415238D01*
X69937380Y-84272380D01*
X69937380Y-84177142D01*
X69985000Y-84034285D01*
X70032619Y-83986666D01*
X69937380Y-83653333D02*
X69937380Y-82986666D01*
X70937380Y-83415238D01*
X62698333Y-86082142D02*
X62650714Y-86129761D01*
X62507857Y-86177380D01*
X62412619Y-86177380D01*
X62269761Y-86129761D01*
X62174523Y-86034523D01*
X62126904Y-85939285D01*
X62079285Y-85748809D01*
X62079285Y-85605952D01*
X62126904Y-85415476D01*
X62174523Y-85320238D01*
X62269761Y-85225000D01*
X62412619Y-85177380D01*
X62507857Y-85177380D01*
X62650714Y-85225000D01*
X62698333Y-85272619D01*
X63269761Y-85605952D02*
X63174523Y-85558333D01*
X63126904Y-85510714D01*
X63079285Y-85415476D01*
X63079285Y-85367857D01*
X63126904Y-85272619D01*
X63174523Y-85225000D01*
X63269761Y-85177380D01*
X63460238Y-85177380D01*
X63555476Y-85225000D01*
X63603095Y-85272619D01*
X63650714Y-85367857D01*
X63650714Y-85415476D01*
X63603095Y-85510714D01*
X63555476Y-85558333D01*
X63460238Y-85605952D01*
X63269761Y-85605952D01*
X63174523Y-85653571D01*
X63126904Y-85701190D01*
X63079285Y-85796428D01*
X63079285Y-85986904D01*
X63126904Y-86082142D01*
X63174523Y-86129761D01*
X63269761Y-86177380D01*
X63460238Y-86177380D01*
X63555476Y-86129761D01*
X63603095Y-86082142D01*
X63650714Y-85986904D01*
X63650714Y-85796428D01*
X63603095Y-85701190D01*
X63555476Y-85653571D01*
X63460238Y-85605952D01*
X72223333Y-91162142D02*
X72175714Y-91209761D01*
X72032857Y-91257380D01*
X71937619Y-91257380D01*
X71794761Y-91209761D01*
X71699523Y-91114523D01*
X71651904Y-91019285D01*
X71604285Y-90828809D01*
X71604285Y-90685952D01*
X71651904Y-90495476D01*
X71699523Y-90400238D01*
X71794761Y-90305000D01*
X71937619Y-90257380D01*
X72032857Y-90257380D01*
X72175714Y-90305000D01*
X72223333Y-90352619D01*
X72699523Y-91257380D02*
X72890000Y-91257380D01*
X72985238Y-91209761D01*
X73032857Y-91162142D01*
X73128095Y-91019285D01*
X73175714Y-90828809D01*
X73175714Y-90447857D01*
X73128095Y-90352619D01*
X73080476Y-90305000D01*
X72985238Y-90257380D01*
X72794761Y-90257380D01*
X72699523Y-90305000D01*
X72651904Y-90352619D01*
X72604285Y-90447857D01*
X72604285Y-90685952D01*
X72651904Y-90781190D01*
X72699523Y-90828809D01*
X72794761Y-90876428D01*
X72985238Y-90876428D01*
X73080476Y-90828809D01*
X73128095Y-90781190D01*
X73175714Y-90685952D01*
X70572380Y-80343333D02*
X71286666Y-80343333D01*
X71429523Y-80390952D01*
X71524761Y-80486190D01*
X71572380Y-80629047D01*
X71572380Y-80724285D01*
X71572380Y-79343333D02*
X71572380Y-79914761D01*
X71572380Y-79629047D02*
X70572380Y-79629047D01*
X70715238Y-79724285D01*
X70810476Y-79819523D01*
X70858095Y-79914761D01*
X70572380Y-60023333D02*
X71286666Y-60023333D01*
X71429523Y-60070952D01*
X71524761Y-60166190D01*
X71572380Y-60309047D01*
X71572380Y-60404285D01*
X70572380Y-59642380D02*
X70572380Y-59023333D01*
X70953333Y-59356666D01*
X70953333Y-59213809D01*
X71000952Y-59118571D01*
X71048571Y-59070952D01*
X71143809Y-59023333D01*
X71381904Y-59023333D01*
X71477142Y-59070952D01*
X71524761Y-59118571D01*
X71572380Y-59213809D01*
X71572380Y-59499523D01*
X71524761Y-59594761D01*
X71477142Y-59642380D01*
X67762380Y-83986666D02*
X67762380Y-84462857D01*
X66762380Y-84462857D01*
X67762380Y-83129523D02*
X67762380Y-83700952D01*
X67762380Y-83415238D02*
X66762380Y-83415238D01*
X66905238Y-83510476D01*
X67000476Y-83605714D01*
X67048095Y-83700952D01*
X40544761Y-58332619D02*
X40449523Y-58285000D01*
X40354285Y-58189761D01*
X40211428Y-58046904D01*
X40116190Y-57999285D01*
X40020952Y-57999285D01*
X40068571Y-58237380D02*
X39973333Y-58189761D01*
X39878095Y-58094523D01*
X39830476Y-57904047D01*
X39830476Y-57570714D01*
X39878095Y-57380238D01*
X39973333Y-57285000D01*
X40068571Y-57237380D01*
X40259047Y-57237380D01*
X40354285Y-57285000D01*
X40449523Y-57380238D01*
X40497142Y-57570714D01*
X40497142Y-57904047D01*
X40449523Y-58094523D01*
X40354285Y-58189761D01*
X40259047Y-58237380D01*
X40068571Y-58237380D01*
X41449523Y-58237380D02*
X40878095Y-58237380D01*
X41163809Y-58237380D02*
X41163809Y-57237380D01*
X41068571Y-57380238D01*
X40973333Y-57475476D01*
X40878095Y-57523095D01*
X46894761Y-84367619D02*
X46799523Y-84320000D01*
X46704285Y-84224761D01*
X46561428Y-84081904D01*
X46466190Y-84034285D01*
X46370952Y-84034285D01*
X46418571Y-84272380D02*
X46323333Y-84224761D01*
X46228095Y-84129523D01*
X46180476Y-83939047D01*
X46180476Y-83605714D01*
X46228095Y-83415238D01*
X46323333Y-83320000D01*
X46418571Y-83272380D01*
X46609047Y-83272380D01*
X46704285Y-83320000D01*
X46799523Y-83415238D01*
X46847142Y-83605714D01*
X46847142Y-83939047D01*
X46799523Y-84129523D01*
X46704285Y-84224761D01*
X46609047Y-84272380D01*
X46418571Y-84272380D01*
X47228095Y-83367619D02*
X47275714Y-83320000D01*
X47370952Y-83272380D01*
X47609047Y-83272380D01*
X47704285Y-83320000D01*
X47751904Y-83367619D01*
X47799523Y-83462857D01*
X47799523Y-83558095D01*
X47751904Y-83700952D01*
X47180476Y-84272380D01*
X47799523Y-84272380D01*
X43687619Y-74390238D02*
X43640000Y-74485476D01*
X43544761Y-74580714D01*
X43401904Y-74723571D01*
X43354285Y-74818809D01*
X43354285Y-74914047D01*
X43592380Y-74866428D02*
X43544761Y-74961666D01*
X43449523Y-75056904D01*
X43259047Y-75104523D01*
X42925714Y-75104523D01*
X42735238Y-75056904D01*
X42640000Y-74961666D01*
X42592380Y-74866428D01*
X42592380Y-74675952D01*
X42640000Y-74580714D01*
X42735238Y-74485476D01*
X42925714Y-74437857D01*
X43259047Y-74437857D01*
X43449523Y-74485476D01*
X43544761Y-74580714D01*
X43592380Y-74675952D01*
X43592380Y-74866428D01*
X42592380Y-74104523D02*
X42592380Y-73485476D01*
X42973333Y-73818809D01*
X42973333Y-73675952D01*
X43020952Y-73580714D01*
X43068571Y-73533095D01*
X43163809Y-73485476D01*
X43401904Y-73485476D01*
X43497142Y-73533095D01*
X43544761Y-73580714D01*
X43592380Y-73675952D01*
X43592380Y-73961666D01*
X43544761Y-74056904D01*
X43497142Y-74104523D01*
X46172380Y-68111666D02*
X45696190Y-68445000D01*
X46172380Y-68683095D02*
X45172380Y-68683095D01*
X45172380Y-68302142D01*
X45220000Y-68206904D01*
X45267619Y-68159285D01*
X45362857Y-68111666D01*
X45505714Y-68111666D01*
X45600952Y-68159285D01*
X45648571Y-68206904D01*
X45696190Y-68302142D01*
X45696190Y-68683095D01*
X46172380Y-67159285D02*
X46172380Y-67730714D01*
X46172380Y-67445000D02*
X45172380Y-67445000D01*
X45315238Y-67540238D01*
X45410476Y-67635476D01*
X45458095Y-67730714D01*
X42362380Y-68111666D02*
X41886190Y-68445000D01*
X42362380Y-68683095D02*
X41362380Y-68683095D01*
X41362380Y-68302142D01*
X41410000Y-68206904D01*
X41457619Y-68159285D01*
X41552857Y-68111666D01*
X41695714Y-68111666D01*
X41790952Y-68159285D01*
X41838571Y-68206904D01*
X41886190Y-68302142D01*
X41886190Y-68683095D01*
X41457619Y-67730714D02*
X41410000Y-67683095D01*
X41362380Y-67587857D01*
X41362380Y-67349761D01*
X41410000Y-67254523D01*
X41457619Y-67206904D01*
X41552857Y-67159285D01*
X41648095Y-67159285D01*
X41790952Y-67206904D01*
X42362380Y-67778333D01*
X42362380Y-67159285D01*
X47442380Y-74461666D02*
X46966190Y-74795000D01*
X47442380Y-75033095D02*
X46442380Y-75033095D01*
X46442380Y-74652142D01*
X46490000Y-74556904D01*
X46537619Y-74509285D01*
X46632857Y-74461666D01*
X46775714Y-74461666D01*
X46870952Y-74509285D01*
X46918571Y-74556904D01*
X46966190Y-74652142D01*
X46966190Y-75033095D01*
X46442380Y-74128333D02*
X46442380Y-73509285D01*
X46823333Y-73842619D01*
X46823333Y-73699761D01*
X46870952Y-73604523D01*
X46918571Y-73556904D01*
X47013809Y-73509285D01*
X47251904Y-73509285D01*
X47347142Y-73556904D01*
X47394761Y-73604523D01*
X47442380Y-73699761D01*
X47442380Y-73985476D01*
X47394761Y-74080714D01*
X47347142Y-74128333D01*
X72223333Y-93797380D02*
X71890000Y-93321190D01*
X71651904Y-93797380D02*
X71651904Y-92797380D01*
X72032857Y-92797380D01*
X72128095Y-92845000D01*
X72175714Y-92892619D01*
X72223333Y-92987857D01*
X72223333Y-93130714D01*
X72175714Y-93225952D01*
X72128095Y-93273571D01*
X72032857Y-93321190D01*
X71651904Y-93321190D01*
X73080476Y-93130714D02*
X73080476Y-93797380D01*
X72842380Y-92749761D02*
X72604285Y-93464047D01*
X73223333Y-93464047D01*
X51252380Y-74461666D02*
X50776190Y-74795000D01*
X51252380Y-75033095D02*
X50252380Y-75033095D01*
X50252380Y-74652142D01*
X50300000Y-74556904D01*
X50347619Y-74509285D01*
X50442857Y-74461666D01*
X50585714Y-74461666D01*
X50680952Y-74509285D01*
X50728571Y-74556904D01*
X50776190Y-74652142D01*
X50776190Y-75033095D01*
X50252380Y-73556904D02*
X50252380Y-74033095D01*
X50728571Y-74080714D01*
X50680952Y-74033095D01*
X50633333Y-73937857D01*
X50633333Y-73699761D01*
X50680952Y-73604523D01*
X50728571Y-73556904D01*
X50823809Y-73509285D01*
X51061904Y-73509285D01*
X51157142Y-73556904D01*
X51204761Y-73604523D01*
X51252380Y-73699761D01*
X51252380Y-73937857D01*
X51204761Y-74033095D01*
X51157142Y-74080714D01*
X64122380Y-76961904D02*
X64931904Y-76961904D01*
X65027142Y-76914285D01*
X65074761Y-76866666D01*
X65122380Y-76771428D01*
X65122380Y-76580952D01*
X65074761Y-76485714D01*
X65027142Y-76438095D01*
X64931904Y-76390476D01*
X64122380Y-76390476D01*
X65122380Y-75390476D02*
X65122380Y-75961904D01*
X65122380Y-75676190D02*
X64122380Y-75676190D01*
X64265238Y-75771428D01*
X64360476Y-75866666D01*
X64408095Y-75961904D01*
%LPC*%
D14*
X33000000Y-52705000D03*
D15*
X35540000Y-52705000D03*
X33000000Y-55245000D03*
X35540000Y-55245000D03*
X33000000Y-57785000D03*
X35540000Y-57785000D03*
X33000000Y-60325000D03*
X35540000Y-60325000D03*
X33000000Y-62865000D03*
X35540000Y-62865000D03*
X33000000Y-65405000D03*
X35540000Y-65405000D03*
X33000000Y-67945000D03*
X35540000Y-67945000D03*
X33000000Y-70485000D03*
X35540000Y-70485000D03*
X33000000Y-73025000D03*
X35540000Y-73025000D03*
X33000000Y-75565000D03*
X35540000Y-75565000D03*
X33000000Y-78105000D03*
X35540000Y-78105000D03*
X33000000Y-80645000D03*
X35540000Y-80645000D03*
X33000000Y-83185000D03*
X35540000Y-83185000D03*
X33000000Y-85725000D03*
X35540000Y-85725000D03*
X33000000Y-88265000D03*
X35540000Y-88265000D03*
X33000000Y-90805000D03*
X35540000Y-90805000D03*
X33000000Y-93345000D03*
X35540000Y-93345000D03*
X33000000Y-95885000D03*
X35540000Y-95885000D03*
X33000000Y-98425000D03*
X35540000Y-98425000D03*
X33000000Y-100965000D03*
X35540000Y-100965000D03*
D16*
X76096726Y-52808274D03*
X74930000Y-52325000D03*
X73763274Y-52808274D03*
X73280000Y-53975000D03*
X73763274Y-55141726D03*
X74930000Y-55625000D03*
X76096726Y-55141726D03*
X76580000Y-53975000D03*
D17*
X74930000Y-53975000D03*
X40640000Y-53975000D03*
D16*
X42290000Y-53975000D03*
X41806726Y-55141726D03*
X40640000Y-55625000D03*
X39473274Y-55141726D03*
X38990000Y-53975000D03*
X39473274Y-52808274D03*
X40640000Y-52325000D03*
X41806726Y-52808274D03*
X41806726Y-98528274D03*
X40640000Y-98045000D03*
X39473274Y-98528274D03*
X38990000Y-99695000D03*
X39473274Y-100861726D03*
X40640000Y-101345000D03*
X41806726Y-100861726D03*
X42290000Y-99695000D03*
D17*
X40640000Y-99695000D03*
X74930000Y-99695000D03*
D16*
X76580000Y-99695000D03*
X76096726Y-100861726D03*
X74930000Y-101345000D03*
X73763274Y-100861726D03*
X73280000Y-99695000D03*
X73763274Y-98528274D03*
X74930000Y-98045000D03*
X76096726Y-98528274D03*
D18*
G36*
X60449505Y-82486204D02*
G01*
X60473773Y-82489804D01*
X60497572Y-82495765D01*
X60520671Y-82504030D01*
X60542850Y-82514520D01*
X60563893Y-82527132D01*
X60583599Y-82541747D01*
X60601777Y-82558223D01*
X60618253Y-82576401D01*
X60632868Y-82596107D01*
X60645480Y-82617150D01*
X60655970Y-82639329D01*
X60664235Y-82662428D01*
X60670196Y-82686227D01*
X60673796Y-82710495D01*
X60675000Y-82734999D01*
X60675000Y-83635001D01*
X60673796Y-83659505D01*
X60670196Y-83683773D01*
X60664235Y-83707572D01*
X60655970Y-83730671D01*
X60645480Y-83752850D01*
X60632868Y-83773893D01*
X60618253Y-83793599D01*
X60601777Y-83811777D01*
X60583599Y-83828253D01*
X60563893Y-83842868D01*
X60542850Y-83855480D01*
X60520671Y-83865970D01*
X60497572Y-83874235D01*
X60473773Y-83880196D01*
X60449505Y-83883796D01*
X60425001Y-83885000D01*
X59774999Y-83885000D01*
X59750495Y-83883796D01*
X59726227Y-83880196D01*
X59702428Y-83874235D01*
X59679329Y-83865970D01*
X59657150Y-83855480D01*
X59636107Y-83842868D01*
X59616401Y-83828253D01*
X59598223Y-83811777D01*
X59581747Y-83793599D01*
X59567132Y-83773893D01*
X59554520Y-83752850D01*
X59544030Y-83730671D01*
X59535765Y-83707572D01*
X59529804Y-83683773D01*
X59526204Y-83659505D01*
X59525000Y-83635001D01*
X59525000Y-82734999D01*
X59526204Y-82710495D01*
X59529804Y-82686227D01*
X59535765Y-82662428D01*
X59544030Y-82639329D01*
X59554520Y-82617150D01*
X59567132Y-82596107D01*
X59581747Y-82576401D01*
X59598223Y-82558223D01*
X59616401Y-82541747D01*
X59636107Y-82527132D01*
X59657150Y-82514520D01*
X59679329Y-82504030D01*
X59702428Y-82495765D01*
X59726227Y-82489804D01*
X59750495Y-82486204D01*
X59774999Y-82485000D01*
X60425001Y-82485000D01*
X60449505Y-82486204D01*
X60449505Y-82486204D01*
G37*
D19*
X60100000Y-83185000D03*
D18*
G36*
X58399505Y-82486204D02*
G01*
X58423773Y-82489804D01*
X58447572Y-82495765D01*
X58470671Y-82504030D01*
X58492850Y-82514520D01*
X58513893Y-82527132D01*
X58533599Y-82541747D01*
X58551777Y-82558223D01*
X58568253Y-82576401D01*
X58582868Y-82596107D01*
X58595480Y-82617150D01*
X58605970Y-82639329D01*
X58614235Y-82662428D01*
X58620196Y-82686227D01*
X58623796Y-82710495D01*
X58625000Y-82734999D01*
X58625000Y-83635001D01*
X58623796Y-83659505D01*
X58620196Y-83683773D01*
X58614235Y-83707572D01*
X58605970Y-83730671D01*
X58595480Y-83752850D01*
X58582868Y-83773893D01*
X58568253Y-83793599D01*
X58551777Y-83811777D01*
X58533599Y-83828253D01*
X58513893Y-83842868D01*
X58492850Y-83855480D01*
X58470671Y-83865970D01*
X58447572Y-83874235D01*
X58423773Y-83880196D01*
X58399505Y-83883796D01*
X58375001Y-83885000D01*
X57724999Y-83885000D01*
X57700495Y-83883796D01*
X57676227Y-83880196D01*
X57652428Y-83874235D01*
X57629329Y-83865970D01*
X57607150Y-83855480D01*
X57586107Y-83842868D01*
X57566401Y-83828253D01*
X57548223Y-83811777D01*
X57531747Y-83793599D01*
X57517132Y-83773893D01*
X57504520Y-83752850D01*
X57494030Y-83730671D01*
X57485765Y-83707572D01*
X57479804Y-83683773D01*
X57476204Y-83659505D01*
X57475000Y-83635001D01*
X57475000Y-82734999D01*
X57476204Y-82710495D01*
X57479804Y-82686227D01*
X57485765Y-82662428D01*
X57494030Y-82639329D01*
X57504520Y-82617150D01*
X57517132Y-82596107D01*
X57531747Y-82576401D01*
X57548223Y-82558223D01*
X57566401Y-82541747D01*
X57586107Y-82527132D01*
X57607150Y-82514520D01*
X57629329Y-82504030D01*
X57652428Y-82495765D01*
X57676227Y-82489804D01*
X57700495Y-82486204D01*
X57724999Y-82485000D01*
X58375001Y-82485000D01*
X58399505Y-82486204D01*
X58399505Y-82486204D01*
G37*
D19*
X58050000Y-83185000D03*
D18*
G36*
X55369505Y-82486204D02*
G01*
X55393773Y-82489804D01*
X55417572Y-82495765D01*
X55440671Y-82504030D01*
X55462850Y-82514520D01*
X55483893Y-82527132D01*
X55503599Y-82541747D01*
X55521777Y-82558223D01*
X55538253Y-82576401D01*
X55552868Y-82596107D01*
X55565480Y-82617150D01*
X55575970Y-82639329D01*
X55584235Y-82662428D01*
X55590196Y-82686227D01*
X55593796Y-82710495D01*
X55595000Y-82734999D01*
X55595000Y-83635001D01*
X55593796Y-83659505D01*
X55590196Y-83683773D01*
X55584235Y-83707572D01*
X55575970Y-83730671D01*
X55565480Y-83752850D01*
X55552868Y-83773893D01*
X55538253Y-83793599D01*
X55521777Y-83811777D01*
X55503599Y-83828253D01*
X55483893Y-83842868D01*
X55462850Y-83855480D01*
X55440671Y-83865970D01*
X55417572Y-83874235D01*
X55393773Y-83880196D01*
X55369505Y-83883796D01*
X55345001Y-83885000D01*
X54694999Y-83885000D01*
X54670495Y-83883796D01*
X54646227Y-83880196D01*
X54622428Y-83874235D01*
X54599329Y-83865970D01*
X54577150Y-83855480D01*
X54556107Y-83842868D01*
X54536401Y-83828253D01*
X54518223Y-83811777D01*
X54501747Y-83793599D01*
X54487132Y-83773893D01*
X54474520Y-83752850D01*
X54464030Y-83730671D01*
X54455765Y-83707572D01*
X54449804Y-83683773D01*
X54446204Y-83659505D01*
X54445000Y-83635001D01*
X54445000Y-82734999D01*
X54446204Y-82710495D01*
X54449804Y-82686227D01*
X54455765Y-82662428D01*
X54464030Y-82639329D01*
X54474520Y-82617150D01*
X54487132Y-82596107D01*
X54501747Y-82576401D01*
X54518223Y-82558223D01*
X54536401Y-82541747D01*
X54556107Y-82527132D01*
X54577150Y-82514520D01*
X54599329Y-82504030D01*
X54622428Y-82495765D01*
X54646227Y-82489804D01*
X54670495Y-82486204D01*
X54694999Y-82485000D01*
X55345001Y-82485000D01*
X55369505Y-82486204D01*
X55369505Y-82486204D01*
G37*
D19*
X55020000Y-83185000D03*
D18*
G36*
X53319505Y-82486204D02*
G01*
X53343773Y-82489804D01*
X53367572Y-82495765D01*
X53390671Y-82504030D01*
X53412850Y-82514520D01*
X53433893Y-82527132D01*
X53453599Y-82541747D01*
X53471777Y-82558223D01*
X53488253Y-82576401D01*
X53502868Y-82596107D01*
X53515480Y-82617150D01*
X53525970Y-82639329D01*
X53534235Y-82662428D01*
X53540196Y-82686227D01*
X53543796Y-82710495D01*
X53545000Y-82734999D01*
X53545000Y-83635001D01*
X53543796Y-83659505D01*
X53540196Y-83683773D01*
X53534235Y-83707572D01*
X53525970Y-83730671D01*
X53515480Y-83752850D01*
X53502868Y-83773893D01*
X53488253Y-83793599D01*
X53471777Y-83811777D01*
X53453599Y-83828253D01*
X53433893Y-83842868D01*
X53412850Y-83855480D01*
X53390671Y-83865970D01*
X53367572Y-83874235D01*
X53343773Y-83880196D01*
X53319505Y-83883796D01*
X53295001Y-83885000D01*
X52644999Y-83885000D01*
X52620495Y-83883796D01*
X52596227Y-83880196D01*
X52572428Y-83874235D01*
X52549329Y-83865970D01*
X52527150Y-83855480D01*
X52506107Y-83842868D01*
X52486401Y-83828253D01*
X52468223Y-83811777D01*
X52451747Y-83793599D01*
X52437132Y-83773893D01*
X52424520Y-83752850D01*
X52414030Y-83730671D01*
X52405765Y-83707572D01*
X52399804Y-83683773D01*
X52396204Y-83659505D01*
X52395000Y-83635001D01*
X52395000Y-82734999D01*
X52396204Y-82710495D01*
X52399804Y-82686227D01*
X52405765Y-82662428D01*
X52414030Y-82639329D01*
X52424520Y-82617150D01*
X52437132Y-82596107D01*
X52451747Y-82576401D01*
X52468223Y-82558223D01*
X52486401Y-82541747D01*
X52506107Y-82527132D01*
X52527150Y-82514520D01*
X52549329Y-82504030D01*
X52572428Y-82495765D01*
X52596227Y-82489804D01*
X52620495Y-82486204D01*
X52644999Y-82485000D01*
X53295001Y-82485000D01*
X53319505Y-82486204D01*
X53319505Y-82486204D01*
G37*
D19*
X52970000Y-83185000D03*
D18*
G36*
X44924505Y-59996204D02*
G01*
X44948773Y-59999804D01*
X44972572Y-60005765D01*
X44995671Y-60014030D01*
X45017850Y-60024520D01*
X45038893Y-60037132D01*
X45058599Y-60051747D01*
X45076777Y-60068223D01*
X45093253Y-60086401D01*
X45107868Y-60106107D01*
X45120480Y-60127150D01*
X45130970Y-60149329D01*
X45139235Y-60172428D01*
X45145196Y-60196227D01*
X45148796Y-60220495D01*
X45150000Y-60244999D01*
X45150000Y-60895001D01*
X45148796Y-60919505D01*
X45145196Y-60943773D01*
X45139235Y-60967572D01*
X45130970Y-60990671D01*
X45120480Y-61012850D01*
X45107868Y-61033893D01*
X45093253Y-61053599D01*
X45076777Y-61071777D01*
X45058599Y-61088253D01*
X45038893Y-61102868D01*
X45017850Y-61115480D01*
X44995671Y-61125970D01*
X44972572Y-61134235D01*
X44948773Y-61140196D01*
X44924505Y-61143796D01*
X44900001Y-61145000D01*
X43999999Y-61145000D01*
X43975495Y-61143796D01*
X43951227Y-61140196D01*
X43927428Y-61134235D01*
X43904329Y-61125970D01*
X43882150Y-61115480D01*
X43861107Y-61102868D01*
X43841401Y-61088253D01*
X43823223Y-61071777D01*
X43806747Y-61053599D01*
X43792132Y-61033893D01*
X43779520Y-61012850D01*
X43769030Y-60990671D01*
X43760765Y-60967572D01*
X43754804Y-60943773D01*
X43751204Y-60919505D01*
X43750000Y-60895001D01*
X43750000Y-60244999D01*
X43751204Y-60220495D01*
X43754804Y-60196227D01*
X43760765Y-60172428D01*
X43769030Y-60149329D01*
X43779520Y-60127150D01*
X43792132Y-60106107D01*
X43806747Y-60086401D01*
X43823223Y-60068223D01*
X43841401Y-60051747D01*
X43861107Y-60037132D01*
X43882150Y-60024520D01*
X43904329Y-60014030D01*
X43927428Y-60005765D01*
X43951227Y-59999804D01*
X43975495Y-59996204D01*
X43999999Y-59995000D01*
X44900001Y-59995000D01*
X44924505Y-59996204D01*
X44924505Y-59996204D01*
G37*
D19*
X44450000Y-60570000D03*
D18*
G36*
X44924505Y-62046204D02*
G01*
X44948773Y-62049804D01*
X44972572Y-62055765D01*
X44995671Y-62064030D01*
X45017850Y-62074520D01*
X45038893Y-62087132D01*
X45058599Y-62101747D01*
X45076777Y-62118223D01*
X45093253Y-62136401D01*
X45107868Y-62156107D01*
X45120480Y-62177150D01*
X45130970Y-62199329D01*
X45139235Y-62222428D01*
X45145196Y-62246227D01*
X45148796Y-62270495D01*
X45150000Y-62294999D01*
X45150000Y-62945001D01*
X45148796Y-62969505D01*
X45145196Y-62993773D01*
X45139235Y-63017572D01*
X45130970Y-63040671D01*
X45120480Y-63062850D01*
X45107868Y-63083893D01*
X45093253Y-63103599D01*
X45076777Y-63121777D01*
X45058599Y-63138253D01*
X45038893Y-63152868D01*
X45017850Y-63165480D01*
X44995671Y-63175970D01*
X44972572Y-63184235D01*
X44948773Y-63190196D01*
X44924505Y-63193796D01*
X44900001Y-63195000D01*
X43999999Y-63195000D01*
X43975495Y-63193796D01*
X43951227Y-63190196D01*
X43927428Y-63184235D01*
X43904329Y-63175970D01*
X43882150Y-63165480D01*
X43861107Y-63152868D01*
X43841401Y-63138253D01*
X43823223Y-63121777D01*
X43806747Y-63103599D01*
X43792132Y-63083893D01*
X43779520Y-63062850D01*
X43769030Y-63040671D01*
X43760765Y-63017572D01*
X43754804Y-62993773D01*
X43751204Y-62969505D01*
X43750000Y-62945001D01*
X43750000Y-62294999D01*
X43751204Y-62270495D01*
X43754804Y-62246227D01*
X43760765Y-62222428D01*
X43769030Y-62199329D01*
X43779520Y-62177150D01*
X43792132Y-62156107D01*
X43806747Y-62136401D01*
X43823223Y-62118223D01*
X43841401Y-62101747D01*
X43861107Y-62087132D01*
X43882150Y-62074520D01*
X43904329Y-62064030D01*
X43927428Y-62055765D01*
X43951227Y-62049804D01*
X43975495Y-62046204D01*
X43999999Y-62045000D01*
X44900001Y-62045000D01*
X44924505Y-62046204D01*
X44924505Y-62046204D01*
G37*
D19*
X44450000Y-62620000D03*
D18*
G36*
X47464505Y-62046204D02*
G01*
X47488773Y-62049804D01*
X47512572Y-62055765D01*
X47535671Y-62064030D01*
X47557850Y-62074520D01*
X47578893Y-62087132D01*
X47598599Y-62101747D01*
X47616777Y-62118223D01*
X47633253Y-62136401D01*
X47647868Y-62156107D01*
X47660480Y-62177150D01*
X47670970Y-62199329D01*
X47679235Y-62222428D01*
X47685196Y-62246227D01*
X47688796Y-62270495D01*
X47690000Y-62294999D01*
X47690000Y-62945001D01*
X47688796Y-62969505D01*
X47685196Y-62993773D01*
X47679235Y-63017572D01*
X47670970Y-63040671D01*
X47660480Y-63062850D01*
X47647868Y-63083893D01*
X47633253Y-63103599D01*
X47616777Y-63121777D01*
X47598599Y-63138253D01*
X47578893Y-63152868D01*
X47557850Y-63165480D01*
X47535671Y-63175970D01*
X47512572Y-63184235D01*
X47488773Y-63190196D01*
X47464505Y-63193796D01*
X47440001Y-63195000D01*
X46539999Y-63195000D01*
X46515495Y-63193796D01*
X46491227Y-63190196D01*
X46467428Y-63184235D01*
X46444329Y-63175970D01*
X46422150Y-63165480D01*
X46401107Y-63152868D01*
X46381401Y-63138253D01*
X46363223Y-63121777D01*
X46346747Y-63103599D01*
X46332132Y-63083893D01*
X46319520Y-63062850D01*
X46309030Y-63040671D01*
X46300765Y-63017572D01*
X46294804Y-62993773D01*
X46291204Y-62969505D01*
X46290000Y-62945001D01*
X46290000Y-62294999D01*
X46291204Y-62270495D01*
X46294804Y-62246227D01*
X46300765Y-62222428D01*
X46309030Y-62199329D01*
X46319520Y-62177150D01*
X46332132Y-62156107D01*
X46346747Y-62136401D01*
X46363223Y-62118223D01*
X46381401Y-62101747D01*
X46401107Y-62087132D01*
X46422150Y-62074520D01*
X46444329Y-62064030D01*
X46467428Y-62055765D01*
X46491227Y-62049804D01*
X46515495Y-62046204D01*
X46539999Y-62045000D01*
X47440001Y-62045000D01*
X47464505Y-62046204D01*
X47464505Y-62046204D01*
G37*
D19*
X46990000Y-62620000D03*
D18*
G36*
X47464505Y-59996204D02*
G01*
X47488773Y-59999804D01*
X47512572Y-60005765D01*
X47535671Y-60014030D01*
X47557850Y-60024520D01*
X47578893Y-60037132D01*
X47598599Y-60051747D01*
X47616777Y-60068223D01*
X47633253Y-60086401D01*
X47647868Y-60106107D01*
X47660480Y-60127150D01*
X47670970Y-60149329D01*
X47679235Y-60172428D01*
X47685196Y-60196227D01*
X47688796Y-60220495D01*
X47690000Y-60244999D01*
X47690000Y-60895001D01*
X47688796Y-60919505D01*
X47685196Y-60943773D01*
X47679235Y-60967572D01*
X47670970Y-60990671D01*
X47660480Y-61012850D01*
X47647868Y-61033893D01*
X47633253Y-61053599D01*
X47616777Y-61071777D01*
X47598599Y-61088253D01*
X47578893Y-61102868D01*
X47557850Y-61115480D01*
X47535671Y-61125970D01*
X47512572Y-61134235D01*
X47488773Y-61140196D01*
X47464505Y-61143796D01*
X47440001Y-61145000D01*
X46539999Y-61145000D01*
X46515495Y-61143796D01*
X46491227Y-61140196D01*
X46467428Y-61134235D01*
X46444329Y-61125970D01*
X46422150Y-61115480D01*
X46401107Y-61102868D01*
X46381401Y-61088253D01*
X46363223Y-61071777D01*
X46346747Y-61053599D01*
X46332132Y-61033893D01*
X46319520Y-61012850D01*
X46309030Y-60990671D01*
X46300765Y-60967572D01*
X46294804Y-60943773D01*
X46291204Y-60919505D01*
X46290000Y-60895001D01*
X46290000Y-60244999D01*
X46291204Y-60220495D01*
X46294804Y-60196227D01*
X46300765Y-60172428D01*
X46309030Y-60149329D01*
X46319520Y-60127150D01*
X46332132Y-60106107D01*
X46346747Y-60086401D01*
X46363223Y-60068223D01*
X46381401Y-60051747D01*
X46401107Y-60037132D01*
X46422150Y-60024520D01*
X46444329Y-60014030D01*
X46467428Y-60005765D01*
X46491227Y-59999804D01*
X46515495Y-59996204D01*
X46539999Y-59995000D01*
X47440001Y-59995000D01*
X47464505Y-59996204D01*
X47464505Y-59996204D01*
G37*
D19*
X46990000Y-60570000D03*
D18*
G36*
X40479505Y-80461204D02*
G01*
X40503773Y-80464804D01*
X40527572Y-80470765D01*
X40550671Y-80479030D01*
X40572850Y-80489520D01*
X40593893Y-80502132D01*
X40613599Y-80516747D01*
X40631777Y-80533223D01*
X40648253Y-80551401D01*
X40662868Y-80571107D01*
X40675480Y-80592150D01*
X40685970Y-80614329D01*
X40694235Y-80637428D01*
X40700196Y-80661227D01*
X40703796Y-80685495D01*
X40705000Y-80709999D01*
X40705000Y-81360001D01*
X40703796Y-81384505D01*
X40700196Y-81408773D01*
X40694235Y-81432572D01*
X40685970Y-81455671D01*
X40675480Y-81477850D01*
X40662868Y-81498893D01*
X40648253Y-81518599D01*
X40631777Y-81536777D01*
X40613599Y-81553253D01*
X40593893Y-81567868D01*
X40572850Y-81580480D01*
X40550671Y-81590970D01*
X40527572Y-81599235D01*
X40503773Y-81605196D01*
X40479505Y-81608796D01*
X40455001Y-81610000D01*
X39554999Y-81610000D01*
X39530495Y-81608796D01*
X39506227Y-81605196D01*
X39482428Y-81599235D01*
X39459329Y-81590970D01*
X39437150Y-81580480D01*
X39416107Y-81567868D01*
X39396401Y-81553253D01*
X39378223Y-81536777D01*
X39361747Y-81518599D01*
X39347132Y-81498893D01*
X39334520Y-81477850D01*
X39324030Y-81455671D01*
X39315765Y-81432572D01*
X39309804Y-81408773D01*
X39306204Y-81384505D01*
X39305000Y-81360001D01*
X39305000Y-80709999D01*
X39306204Y-80685495D01*
X39309804Y-80661227D01*
X39315765Y-80637428D01*
X39324030Y-80614329D01*
X39334520Y-80592150D01*
X39347132Y-80571107D01*
X39361747Y-80551401D01*
X39378223Y-80533223D01*
X39396401Y-80516747D01*
X39416107Y-80502132D01*
X39437150Y-80489520D01*
X39459329Y-80479030D01*
X39482428Y-80470765D01*
X39506227Y-80464804D01*
X39530495Y-80461204D01*
X39554999Y-80460000D01*
X40455001Y-80460000D01*
X40479505Y-80461204D01*
X40479505Y-80461204D01*
G37*
D19*
X40005000Y-81035000D03*
D18*
G36*
X40479505Y-78411204D02*
G01*
X40503773Y-78414804D01*
X40527572Y-78420765D01*
X40550671Y-78429030D01*
X40572850Y-78439520D01*
X40593893Y-78452132D01*
X40613599Y-78466747D01*
X40631777Y-78483223D01*
X40648253Y-78501401D01*
X40662868Y-78521107D01*
X40675480Y-78542150D01*
X40685970Y-78564329D01*
X40694235Y-78587428D01*
X40700196Y-78611227D01*
X40703796Y-78635495D01*
X40705000Y-78659999D01*
X40705000Y-79310001D01*
X40703796Y-79334505D01*
X40700196Y-79358773D01*
X40694235Y-79382572D01*
X40685970Y-79405671D01*
X40675480Y-79427850D01*
X40662868Y-79448893D01*
X40648253Y-79468599D01*
X40631777Y-79486777D01*
X40613599Y-79503253D01*
X40593893Y-79517868D01*
X40572850Y-79530480D01*
X40550671Y-79540970D01*
X40527572Y-79549235D01*
X40503773Y-79555196D01*
X40479505Y-79558796D01*
X40455001Y-79560000D01*
X39554999Y-79560000D01*
X39530495Y-79558796D01*
X39506227Y-79555196D01*
X39482428Y-79549235D01*
X39459329Y-79540970D01*
X39437150Y-79530480D01*
X39416107Y-79517868D01*
X39396401Y-79503253D01*
X39378223Y-79486777D01*
X39361747Y-79468599D01*
X39347132Y-79448893D01*
X39334520Y-79427850D01*
X39324030Y-79405671D01*
X39315765Y-79382572D01*
X39309804Y-79358773D01*
X39306204Y-79334505D01*
X39305000Y-79310001D01*
X39305000Y-78659999D01*
X39306204Y-78635495D01*
X39309804Y-78611227D01*
X39315765Y-78587428D01*
X39324030Y-78564329D01*
X39334520Y-78542150D01*
X39347132Y-78521107D01*
X39361747Y-78501401D01*
X39378223Y-78483223D01*
X39396401Y-78466747D01*
X39416107Y-78452132D01*
X39437150Y-78439520D01*
X39459329Y-78429030D01*
X39482428Y-78420765D01*
X39506227Y-78414804D01*
X39530495Y-78411204D01*
X39554999Y-78410000D01*
X40455001Y-78410000D01*
X40479505Y-78411204D01*
X40479505Y-78411204D01*
G37*
D19*
X40005000Y-78985000D03*
D18*
G36*
X43654505Y-78411204D02*
G01*
X43678773Y-78414804D01*
X43702572Y-78420765D01*
X43725671Y-78429030D01*
X43747850Y-78439520D01*
X43768893Y-78452132D01*
X43788599Y-78466747D01*
X43806777Y-78483223D01*
X43823253Y-78501401D01*
X43837868Y-78521107D01*
X43850480Y-78542150D01*
X43860970Y-78564329D01*
X43869235Y-78587428D01*
X43875196Y-78611227D01*
X43878796Y-78635495D01*
X43880000Y-78659999D01*
X43880000Y-79310001D01*
X43878796Y-79334505D01*
X43875196Y-79358773D01*
X43869235Y-79382572D01*
X43860970Y-79405671D01*
X43850480Y-79427850D01*
X43837868Y-79448893D01*
X43823253Y-79468599D01*
X43806777Y-79486777D01*
X43788599Y-79503253D01*
X43768893Y-79517868D01*
X43747850Y-79530480D01*
X43725671Y-79540970D01*
X43702572Y-79549235D01*
X43678773Y-79555196D01*
X43654505Y-79558796D01*
X43630001Y-79560000D01*
X42729999Y-79560000D01*
X42705495Y-79558796D01*
X42681227Y-79555196D01*
X42657428Y-79549235D01*
X42634329Y-79540970D01*
X42612150Y-79530480D01*
X42591107Y-79517868D01*
X42571401Y-79503253D01*
X42553223Y-79486777D01*
X42536747Y-79468599D01*
X42522132Y-79448893D01*
X42509520Y-79427850D01*
X42499030Y-79405671D01*
X42490765Y-79382572D01*
X42484804Y-79358773D01*
X42481204Y-79334505D01*
X42480000Y-79310001D01*
X42480000Y-78659999D01*
X42481204Y-78635495D01*
X42484804Y-78611227D01*
X42490765Y-78587428D01*
X42499030Y-78564329D01*
X42509520Y-78542150D01*
X42522132Y-78521107D01*
X42536747Y-78501401D01*
X42553223Y-78483223D01*
X42571401Y-78466747D01*
X42591107Y-78452132D01*
X42612150Y-78439520D01*
X42634329Y-78429030D01*
X42657428Y-78420765D01*
X42681227Y-78414804D01*
X42705495Y-78411204D01*
X42729999Y-78410000D01*
X43630001Y-78410000D01*
X43654505Y-78411204D01*
X43654505Y-78411204D01*
G37*
D19*
X43180000Y-78985000D03*
D18*
G36*
X43654505Y-80461204D02*
G01*
X43678773Y-80464804D01*
X43702572Y-80470765D01*
X43725671Y-80479030D01*
X43747850Y-80489520D01*
X43768893Y-80502132D01*
X43788599Y-80516747D01*
X43806777Y-80533223D01*
X43823253Y-80551401D01*
X43837868Y-80571107D01*
X43850480Y-80592150D01*
X43860970Y-80614329D01*
X43869235Y-80637428D01*
X43875196Y-80661227D01*
X43878796Y-80685495D01*
X43880000Y-80709999D01*
X43880000Y-81360001D01*
X43878796Y-81384505D01*
X43875196Y-81408773D01*
X43869235Y-81432572D01*
X43860970Y-81455671D01*
X43850480Y-81477850D01*
X43837868Y-81498893D01*
X43823253Y-81518599D01*
X43806777Y-81536777D01*
X43788599Y-81553253D01*
X43768893Y-81567868D01*
X43747850Y-81580480D01*
X43725671Y-81590970D01*
X43702572Y-81599235D01*
X43678773Y-81605196D01*
X43654505Y-81608796D01*
X43630001Y-81610000D01*
X42729999Y-81610000D01*
X42705495Y-81608796D01*
X42681227Y-81605196D01*
X42657428Y-81599235D01*
X42634329Y-81590970D01*
X42612150Y-81580480D01*
X42591107Y-81567868D01*
X42571401Y-81553253D01*
X42553223Y-81536777D01*
X42536747Y-81518599D01*
X42522132Y-81498893D01*
X42509520Y-81477850D01*
X42499030Y-81455671D01*
X42490765Y-81432572D01*
X42484804Y-81408773D01*
X42481204Y-81384505D01*
X42480000Y-81360001D01*
X42480000Y-80709999D01*
X42481204Y-80685495D01*
X42484804Y-80661227D01*
X42490765Y-80637428D01*
X42499030Y-80614329D01*
X42509520Y-80592150D01*
X42522132Y-80571107D01*
X42536747Y-80551401D01*
X42553223Y-80533223D01*
X42571401Y-80516747D01*
X42591107Y-80502132D01*
X42612150Y-80489520D01*
X42634329Y-80479030D01*
X42657428Y-80470765D01*
X42681227Y-80464804D01*
X42705495Y-80461204D01*
X42729999Y-80460000D01*
X43630001Y-80460000D01*
X43654505Y-80461204D01*
X43654505Y-80461204D01*
G37*
D19*
X43180000Y-81035000D03*
D18*
G36*
X70959505Y-85396204D02*
G01*
X70983773Y-85399804D01*
X71007572Y-85405765D01*
X71030671Y-85414030D01*
X71052850Y-85424520D01*
X71073893Y-85437132D01*
X71093599Y-85451747D01*
X71111777Y-85468223D01*
X71128253Y-85486401D01*
X71142868Y-85506107D01*
X71155480Y-85527150D01*
X71165970Y-85549329D01*
X71174235Y-85572428D01*
X71180196Y-85596227D01*
X71183796Y-85620495D01*
X71185000Y-85644999D01*
X71185000Y-86295001D01*
X71183796Y-86319505D01*
X71180196Y-86343773D01*
X71174235Y-86367572D01*
X71165970Y-86390671D01*
X71155480Y-86412850D01*
X71142868Y-86433893D01*
X71128253Y-86453599D01*
X71111777Y-86471777D01*
X71093599Y-86488253D01*
X71073893Y-86502868D01*
X71052850Y-86515480D01*
X71030671Y-86525970D01*
X71007572Y-86534235D01*
X70983773Y-86540196D01*
X70959505Y-86543796D01*
X70935001Y-86545000D01*
X70034999Y-86545000D01*
X70010495Y-86543796D01*
X69986227Y-86540196D01*
X69962428Y-86534235D01*
X69939329Y-86525970D01*
X69917150Y-86515480D01*
X69896107Y-86502868D01*
X69876401Y-86488253D01*
X69858223Y-86471777D01*
X69841747Y-86453599D01*
X69827132Y-86433893D01*
X69814520Y-86412850D01*
X69804030Y-86390671D01*
X69795765Y-86367572D01*
X69789804Y-86343773D01*
X69786204Y-86319505D01*
X69785000Y-86295001D01*
X69785000Y-85644999D01*
X69786204Y-85620495D01*
X69789804Y-85596227D01*
X69795765Y-85572428D01*
X69804030Y-85549329D01*
X69814520Y-85527150D01*
X69827132Y-85506107D01*
X69841747Y-85486401D01*
X69858223Y-85468223D01*
X69876401Y-85451747D01*
X69896107Y-85437132D01*
X69917150Y-85424520D01*
X69939329Y-85414030D01*
X69962428Y-85405765D01*
X69986227Y-85399804D01*
X70010495Y-85396204D01*
X70034999Y-85395000D01*
X70935001Y-85395000D01*
X70959505Y-85396204D01*
X70959505Y-85396204D01*
G37*
D19*
X70485000Y-85970000D03*
D18*
G36*
X70959505Y-87446204D02*
G01*
X70983773Y-87449804D01*
X71007572Y-87455765D01*
X71030671Y-87464030D01*
X71052850Y-87474520D01*
X71073893Y-87487132D01*
X71093599Y-87501747D01*
X71111777Y-87518223D01*
X71128253Y-87536401D01*
X71142868Y-87556107D01*
X71155480Y-87577150D01*
X71165970Y-87599329D01*
X71174235Y-87622428D01*
X71180196Y-87646227D01*
X71183796Y-87670495D01*
X71185000Y-87694999D01*
X71185000Y-88345001D01*
X71183796Y-88369505D01*
X71180196Y-88393773D01*
X71174235Y-88417572D01*
X71165970Y-88440671D01*
X71155480Y-88462850D01*
X71142868Y-88483893D01*
X71128253Y-88503599D01*
X71111777Y-88521777D01*
X71093599Y-88538253D01*
X71073893Y-88552868D01*
X71052850Y-88565480D01*
X71030671Y-88575970D01*
X71007572Y-88584235D01*
X70983773Y-88590196D01*
X70959505Y-88593796D01*
X70935001Y-88595000D01*
X70034999Y-88595000D01*
X70010495Y-88593796D01*
X69986227Y-88590196D01*
X69962428Y-88584235D01*
X69939329Y-88575970D01*
X69917150Y-88565480D01*
X69896107Y-88552868D01*
X69876401Y-88538253D01*
X69858223Y-88521777D01*
X69841747Y-88503599D01*
X69827132Y-88483893D01*
X69814520Y-88462850D01*
X69804030Y-88440671D01*
X69795765Y-88417572D01*
X69789804Y-88393773D01*
X69786204Y-88369505D01*
X69785000Y-88345001D01*
X69785000Y-87694999D01*
X69786204Y-87670495D01*
X69789804Y-87646227D01*
X69795765Y-87622428D01*
X69804030Y-87599329D01*
X69814520Y-87577150D01*
X69827132Y-87556107D01*
X69841747Y-87536401D01*
X69858223Y-87518223D01*
X69876401Y-87501747D01*
X69896107Y-87487132D01*
X69917150Y-87474520D01*
X69939329Y-87464030D01*
X69962428Y-87455765D01*
X69986227Y-87449804D01*
X70010495Y-87446204D01*
X70034999Y-87445000D01*
X70935001Y-87445000D01*
X70959505Y-87446204D01*
X70959505Y-87446204D01*
G37*
D19*
X70485000Y-88020000D03*
D18*
G36*
X58399505Y-85026204D02*
G01*
X58423773Y-85029804D01*
X58447572Y-85035765D01*
X58470671Y-85044030D01*
X58492850Y-85054520D01*
X58513893Y-85067132D01*
X58533599Y-85081747D01*
X58551777Y-85098223D01*
X58568253Y-85116401D01*
X58582868Y-85136107D01*
X58595480Y-85157150D01*
X58605970Y-85179329D01*
X58614235Y-85202428D01*
X58620196Y-85226227D01*
X58623796Y-85250495D01*
X58625000Y-85274999D01*
X58625000Y-86175001D01*
X58623796Y-86199505D01*
X58620196Y-86223773D01*
X58614235Y-86247572D01*
X58605970Y-86270671D01*
X58595480Y-86292850D01*
X58582868Y-86313893D01*
X58568253Y-86333599D01*
X58551777Y-86351777D01*
X58533599Y-86368253D01*
X58513893Y-86382868D01*
X58492850Y-86395480D01*
X58470671Y-86405970D01*
X58447572Y-86414235D01*
X58423773Y-86420196D01*
X58399505Y-86423796D01*
X58375001Y-86425000D01*
X57724999Y-86425000D01*
X57700495Y-86423796D01*
X57676227Y-86420196D01*
X57652428Y-86414235D01*
X57629329Y-86405970D01*
X57607150Y-86395480D01*
X57586107Y-86382868D01*
X57566401Y-86368253D01*
X57548223Y-86351777D01*
X57531747Y-86333599D01*
X57517132Y-86313893D01*
X57504520Y-86292850D01*
X57494030Y-86270671D01*
X57485765Y-86247572D01*
X57479804Y-86223773D01*
X57476204Y-86199505D01*
X57475000Y-86175001D01*
X57475000Y-85274999D01*
X57476204Y-85250495D01*
X57479804Y-85226227D01*
X57485765Y-85202428D01*
X57494030Y-85179329D01*
X57504520Y-85157150D01*
X57517132Y-85136107D01*
X57531747Y-85116401D01*
X57548223Y-85098223D01*
X57566401Y-85081747D01*
X57586107Y-85067132D01*
X57607150Y-85054520D01*
X57629329Y-85044030D01*
X57652428Y-85035765D01*
X57676227Y-85029804D01*
X57700495Y-85026204D01*
X57724999Y-85025000D01*
X58375001Y-85025000D01*
X58399505Y-85026204D01*
X58399505Y-85026204D01*
G37*
D19*
X58050000Y-85725000D03*
D18*
G36*
X60449505Y-85026204D02*
G01*
X60473773Y-85029804D01*
X60497572Y-85035765D01*
X60520671Y-85044030D01*
X60542850Y-85054520D01*
X60563893Y-85067132D01*
X60583599Y-85081747D01*
X60601777Y-85098223D01*
X60618253Y-85116401D01*
X60632868Y-85136107D01*
X60645480Y-85157150D01*
X60655970Y-85179329D01*
X60664235Y-85202428D01*
X60670196Y-85226227D01*
X60673796Y-85250495D01*
X60675000Y-85274999D01*
X60675000Y-86175001D01*
X60673796Y-86199505D01*
X60670196Y-86223773D01*
X60664235Y-86247572D01*
X60655970Y-86270671D01*
X60645480Y-86292850D01*
X60632868Y-86313893D01*
X60618253Y-86333599D01*
X60601777Y-86351777D01*
X60583599Y-86368253D01*
X60563893Y-86382868D01*
X60542850Y-86395480D01*
X60520671Y-86405970D01*
X60497572Y-86414235D01*
X60473773Y-86420196D01*
X60449505Y-86423796D01*
X60425001Y-86425000D01*
X59774999Y-86425000D01*
X59750495Y-86423796D01*
X59726227Y-86420196D01*
X59702428Y-86414235D01*
X59679329Y-86405970D01*
X59657150Y-86395480D01*
X59636107Y-86382868D01*
X59616401Y-86368253D01*
X59598223Y-86351777D01*
X59581747Y-86333599D01*
X59567132Y-86313893D01*
X59554520Y-86292850D01*
X59544030Y-86270671D01*
X59535765Y-86247572D01*
X59529804Y-86223773D01*
X59526204Y-86199505D01*
X59525000Y-86175001D01*
X59525000Y-85274999D01*
X59526204Y-85250495D01*
X59529804Y-85226227D01*
X59535765Y-85202428D01*
X59544030Y-85179329D01*
X59554520Y-85157150D01*
X59567132Y-85136107D01*
X59581747Y-85116401D01*
X59598223Y-85098223D01*
X59616401Y-85081747D01*
X59636107Y-85067132D01*
X59657150Y-85054520D01*
X59679329Y-85044030D01*
X59702428Y-85035765D01*
X59726227Y-85029804D01*
X59750495Y-85026204D01*
X59774999Y-85025000D01*
X60425001Y-85025000D01*
X60449505Y-85026204D01*
X60449505Y-85026204D01*
G37*
D19*
X60100000Y-85725000D03*
D18*
G36*
X76939505Y-90106204D02*
G01*
X76963773Y-90109804D01*
X76987572Y-90115765D01*
X77010671Y-90124030D01*
X77032850Y-90134520D01*
X77053893Y-90147132D01*
X77073599Y-90161747D01*
X77091777Y-90178223D01*
X77108253Y-90196401D01*
X77122868Y-90216107D01*
X77135480Y-90237150D01*
X77145970Y-90259329D01*
X77154235Y-90282428D01*
X77160196Y-90306227D01*
X77163796Y-90330495D01*
X77165000Y-90354999D01*
X77165000Y-91255001D01*
X77163796Y-91279505D01*
X77160196Y-91303773D01*
X77154235Y-91327572D01*
X77145970Y-91350671D01*
X77135480Y-91372850D01*
X77122868Y-91393893D01*
X77108253Y-91413599D01*
X77091777Y-91431777D01*
X77073599Y-91448253D01*
X77053893Y-91462868D01*
X77032850Y-91475480D01*
X77010671Y-91485970D01*
X76987572Y-91494235D01*
X76963773Y-91500196D01*
X76939505Y-91503796D01*
X76915001Y-91505000D01*
X76264999Y-91505000D01*
X76240495Y-91503796D01*
X76216227Y-91500196D01*
X76192428Y-91494235D01*
X76169329Y-91485970D01*
X76147150Y-91475480D01*
X76126107Y-91462868D01*
X76106401Y-91448253D01*
X76088223Y-91431777D01*
X76071747Y-91413599D01*
X76057132Y-91393893D01*
X76044520Y-91372850D01*
X76034030Y-91350671D01*
X76025765Y-91327572D01*
X76019804Y-91303773D01*
X76016204Y-91279505D01*
X76015000Y-91255001D01*
X76015000Y-90354999D01*
X76016204Y-90330495D01*
X76019804Y-90306227D01*
X76025765Y-90282428D01*
X76034030Y-90259329D01*
X76044520Y-90237150D01*
X76057132Y-90216107D01*
X76071747Y-90196401D01*
X76088223Y-90178223D01*
X76106401Y-90161747D01*
X76126107Y-90147132D01*
X76147150Y-90134520D01*
X76169329Y-90124030D01*
X76192428Y-90115765D01*
X76216227Y-90109804D01*
X76240495Y-90106204D01*
X76264999Y-90105000D01*
X76915001Y-90105000D01*
X76939505Y-90106204D01*
X76939505Y-90106204D01*
G37*
D19*
X76590000Y-90805000D03*
D18*
G36*
X74889505Y-90106204D02*
G01*
X74913773Y-90109804D01*
X74937572Y-90115765D01*
X74960671Y-90124030D01*
X74982850Y-90134520D01*
X75003893Y-90147132D01*
X75023599Y-90161747D01*
X75041777Y-90178223D01*
X75058253Y-90196401D01*
X75072868Y-90216107D01*
X75085480Y-90237150D01*
X75095970Y-90259329D01*
X75104235Y-90282428D01*
X75110196Y-90306227D01*
X75113796Y-90330495D01*
X75115000Y-90354999D01*
X75115000Y-91255001D01*
X75113796Y-91279505D01*
X75110196Y-91303773D01*
X75104235Y-91327572D01*
X75095970Y-91350671D01*
X75085480Y-91372850D01*
X75072868Y-91393893D01*
X75058253Y-91413599D01*
X75041777Y-91431777D01*
X75023599Y-91448253D01*
X75003893Y-91462868D01*
X74982850Y-91475480D01*
X74960671Y-91485970D01*
X74937572Y-91494235D01*
X74913773Y-91500196D01*
X74889505Y-91503796D01*
X74865001Y-91505000D01*
X74214999Y-91505000D01*
X74190495Y-91503796D01*
X74166227Y-91500196D01*
X74142428Y-91494235D01*
X74119329Y-91485970D01*
X74097150Y-91475480D01*
X74076107Y-91462868D01*
X74056401Y-91448253D01*
X74038223Y-91431777D01*
X74021747Y-91413599D01*
X74007132Y-91393893D01*
X73994520Y-91372850D01*
X73984030Y-91350671D01*
X73975765Y-91327572D01*
X73969804Y-91303773D01*
X73966204Y-91279505D01*
X73965000Y-91255001D01*
X73965000Y-90354999D01*
X73966204Y-90330495D01*
X73969804Y-90306227D01*
X73975765Y-90282428D01*
X73984030Y-90259329D01*
X73994520Y-90237150D01*
X74007132Y-90216107D01*
X74021747Y-90196401D01*
X74038223Y-90178223D01*
X74056401Y-90161747D01*
X74076107Y-90147132D01*
X74097150Y-90134520D01*
X74119329Y-90124030D01*
X74142428Y-90115765D01*
X74166227Y-90109804D01*
X74190495Y-90106204D01*
X74214999Y-90105000D01*
X74865001Y-90105000D01*
X74889505Y-90106204D01*
X74889505Y-90106204D01*
G37*
D19*
X74540000Y-90805000D03*
D18*
G36*
X78167802Y-81135482D02*
G01*
X78177509Y-81136921D01*
X78187028Y-81139306D01*
X78196268Y-81142612D01*
X78205140Y-81146808D01*
X78213557Y-81151853D01*
X78221439Y-81157699D01*
X78228711Y-81164289D01*
X78235301Y-81171561D01*
X78241147Y-81179443D01*
X78246192Y-81187860D01*
X78250388Y-81196732D01*
X78253694Y-81205972D01*
X78256079Y-81215491D01*
X78257518Y-81225198D01*
X78258000Y-81235000D01*
X78258000Y-82135000D01*
X78257518Y-82144802D01*
X78256079Y-82154509D01*
X78253694Y-82164028D01*
X78250388Y-82173268D01*
X78246192Y-82182140D01*
X78241147Y-82190557D01*
X78235301Y-82198439D01*
X78228711Y-82205711D01*
X78221439Y-82212301D01*
X78213557Y-82218147D01*
X78205140Y-82223192D01*
X78196268Y-82227388D01*
X78187028Y-82230694D01*
X78177509Y-82233079D01*
X78167802Y-82234518D01*
X78158000Y-82235000D01*
X77358000Y-82235000D01*
X77348198Y-82234518D01*
X77338491Y-82233079D01*
X77328972Y-82230694D01*
X77319732Y-82227388D01*
X77310860Y-82223192D01*
X77302443Y-82218147D01*
X77294561Y-82212301D01*
X77287289Y-82205711D01*
X77280699Y-82198439D01*
X77274853Y-82190557D01*
X77269808Y-82182140D01*
X77265612Y-82173268D01*
X77262306Y-82164028D01*
X77259921Y-82154509D01*
X77258482Y-82144802D01*
X77258000Y-82135000D01*
X77258000Y-81235000D01*
X77258482Y-81225198D01*
X77259921Y-81215491D01*
X77262306Y-81205972D01*
X77265612Y-81196732D01*
X77269808Y-81187860D01*
X77274853Y-81179443D01*
X77280699Y-81171561D01*
X77287289Y-81164289D01*
X77294561Y-81157699D01*
X77302443Y-81151853D01*
X77310860Y-81146808D01*
X77319732Y-81142612D01*
X77328972Y-81139306D01*
X77338491Y-81136921D01*
X77348198Y-81135482D01*
X77358000Y-81135000D01*
X78158000Y-81135000D01*
X78167802Y-81135482D01*
X78167802Y-81135482D01*
G37*
D20*
X77758000Y-81685000D03*
D18*
G36*
X78167802Y-84135482D02*
G01*
X78177509Y-84136921D01*
X78187028Y-84139306D01*
X78196268Y-84142612D01*
X78205140Y-84146808D01*
X78213557Y-84151853D01*
X78221439Y-84157699D01*
X78228711Y-84164289D01*
X78235301Y-84171561D01*
X78241147Y-84179443D01*
X78246192Y-84187860D01*
X78250388Y-84196732D01*
X78253694Y-84205972D01*
X78256079Y-84215491D01*
X78257518Y-84225198D01*
X78258000Y-84235000D01*
X78258000Y-85135000D01*
X78257518Y-85144802D01*
X78256079Y-85154509D01*
X78253694Y-85164028D01*
X78250388Y-85173268D01*
X78246192Y-85182140D01*
X78241147Y-85190557D01*
X78235301Y-85198439D01*
X78228711Y-85205711D01*
X78221439Y-85212301D01*
X78213557Y-85218147D01*
X78205140Y-85223192D01*
X78196268Y-85227388D01*
X78187028Y-85230694D01*
X78177509Y-85233079D01*
X78167802Y-85234518D01*
X78158000Y-85235000D01*
X77358000Y-85235000D01*
X77348198Y-85234518D01*
X77338491Y-85233079D01*
X77328972Y-85230694D01*
X77319732Y-85227388D01*
X77310860Y-85223192D01*
X77302443Y-85218147D01*
X77294561Y-85212301D01*
X77287289Y-85205711D01*
X77280699Y-85198439D01*
X77274853Y-85190557D01*
X77269808Y-85182140D01*
X77265612Y-85173268D01*
X77262306Y-85164028D01*
X77259921Y-85154509D01*
X77258482Y-85144802D01*
X77258000Y-85135000D01*
X77258000Y-84235000D01*
X77258482Y-84225198D01*
X77259921Y-84215491D01*
X77262306Y-84205972D01*
X77265612Y-84196732D01*
X77269808Y-84187860D01*
X77274853Y-84179443D01*
X77280699Y-84171561D01*
X77287289Y-84164289D01*
X77294561Y-84157699D01*
X77302443Y-84151853D01*
X77310860Y-84146808D01*
X77319732Y-84142612D01*
X77328972Y-84139306D01*
X77338491Y-84136921D01*
X77348198Y-84135482D01*
X77358000Y-84135000D01*
X78158000Y-84135000D01*
X78167802Y-84135482D01*
X78167802Y-84135482D01*
G37*
D20*
X77758000Y-84685000D03*
D21*
X76608000Y-79585000D03*
X76608000Y-86785000D03*
D22*
X73158000Y-86785000D03*
X73158000Y-79585000D03*
D23*
X74458000Y-81185000D03*
X74458000Y-85185000D03*
D18*
G36*
X74112901Y-84285241D02*
G01*
X74117755Y-84285961D01*
X74122514Y-84287153D01*
X74127134Y-84288806D01*
X74131570Y-84290904D01*
X74135779Y-84293427D01*
X74139720Y-84296349D01*
X74143355Y-84299645D01*
X74146651Y-84303280D01*
X74149573Y-84307221D01*
X74152096Y-84311430D01*
X74154194Y-84315866D01*
X74155847Y-84320486D01*
X74157039Y-84325245D01*
X74157759Y-84330099D01*
X74158000Y-84335000D01*
X74158000Y-84635000D01*
X74157759Y-84639901D01*
X74157039Y-84644755D01*
X74155847Y-84649514D01*
X74154194Y-84654134D01*
X74152096Y-84658570D01*
X74149573Y-84662779D01*
X74146651Y-84666720D01*
X74143355Y-84670355D01*
X74139720Y-84673651D01*
X74135779Y-84676573D01*
X74131570Y-84679096D01*
X74127134Y-84681194D01*
X74122514Y-84682847D01*
X74117755Y-84684039D01*
X74112901Y-84684759D01*
X74108000Y-84685000D01*
X72608000Y-84685000D01*
X72603099Y-84684759D01*
X72598245Y-84684039D01*
X72593486Y-84682847D01*
X72588866Y-84681194D01*
X72584430Y-84679096D01*
X72580221Y-84676573D01*
X72576280Y-84673651D01*
X72572645Y-84670355D01*
X72569349Y-84666720D01*
X72566427Y-84662779D01*
X72563904Y-84658570D01*
X72561806Y-84654134D01*
X72560153Y-84649514D01*
X72558961Y-84644755D01*
X72558241Y-84639901D01*
X72558000Y-84635000D01*
X72558000Y-84335000D01*
X72558241Y-84330099D01*
X72558961Y-84325245D01*
X72560153Y-84320486D01*
X72561806Y-84315866D01*
X72563904Y-84311430D01*
X72566427Y-84307221D01*
X72569349Y-84303280D01*
X72572645Y-84299645D01*
X72576280Y-84296349D01*
X72580221Y-84293427D01*
X72584430Y-84290904D01*
X72588866Y-84288806D01*
X72593486Y-84287153D01*
X72598245Y-84285961D01*
X72603099Y-84285241D01*
X72608000Y-84285000D01*
X74108000Y-84285000D01*
X74112901Y-84285241D01*
X74112901Y-84285241D01*
G37*
D24*
X73358000Y-84485000D03*
D18*
G36*
X74112901Y-82985241D02*
G01*
X74117755Y-82985961D01*
X74122514Y-82987153D01*
X74127134Y-82988806D01*
X74131570Y-82990904D01*
X74135779Y-82993427D01*
X74139720Y-82996349D01*
X74143355Y-82999645D01*
X74146651Y-83003280D01*
X74149573Y-83007221D01*
X74152096Y-83011430D01*
X74154194Y-83015866D01*
X74155847Y-83020486D01*
X74157039Y-83025245D01*
X74157759Y-83030099D01*
X74158000Y-83035000D01*
X74158000Y-83335000D01*
X74157759Y-83339901D01*
X74157039Y-83344755D01*
X74155847Y-83349514D01*
X74154194Y-83354134D01*
X74152096Y-83358570D01*
X74149573Y-83362779D01*
X74146651Y-83366720D01*
X74143355Y-83370355D01*
X74139720Y-83373651D01*
X74135779Y-83376573D01*
X74131570Y-83379096D01*
X74127134Y-83381194D01*
X74122514Y-83382847D01*
X74117755Y-83384039D01*
X74112901Y-83384759D01*
X74108000Y-83385000D01*
X72608000Y-83385000D01*
X72603099Y-83384759D01*
X72598245Y-83384039D01*
X72593486Y-83382847D01*
X72588866Y-83381194D01*
X72584430Y-83379096D01*
X72580221Y-83376573D01*
X72576280Y-83373651D01*
X72572645Y-83370355D01*
X72569349Y-83366720D01*
X72566427Y-83362779D01*
X72563904Y-83358570D01*
X72561806Y-83354134D01*
X72560153Y-83349514D01*
X72558961Y-83344755D01*
X72558241Y-83339901D01*
X72558000Y-83335000D01*
X72558000Y-83035000D01*
X72558241Y-83030099D01*
X72558961Y-83025245D01*
X72560153Y-83020486D01*
X72561806Y-83015866D01*
X72563904Y-83011430D01*
X72566427Y-83007221D01*
X72569349Y-83003280D01*
X72572645Y-82999645D01*
X72576280Y-82996349D01*
X72580221Y-82993427D01*
X72584430Y-82990904D01*
X72588866Y-82988806D01*
X72593486Y-82987153D01*
X72598245Y-82985961D01*
X72603099Y-82985241D01*
X72608000Y-82985000D01*
X74108000Y-82985000D01*
X74112901Y-82985241D01*
X74112901Y-82985241D01*
G37*
D24*
X73358000Y-83185000D03*
D18*
G36*
X74112901Y-83635241D02*
G01*
X74117755Y-83635961D01*
X74122514Y-83637153D01*
X74127134Y-83638806D01*
X74131570Y-83640904D01*
X74135779Y-83643427D01*
X74139720Y-83646349D01*
X74143355Y-83649645D01*
X74146651Y-83653280D01*
X74149573Y-83657221D01*
X74152096Y-83661430D01*
X74154194Y-83665866D01*
X74155847Y-83670486D01*
X74157039Y-83675245D01*
X74157759Y-83680099D01*
X74158000Y-83685000D01*
X74158000Y-83985000D01*
X74157759Y-83989901D01*
X74157039Y-83994755D01*
X74155847Y-83999514D01*
X74154194Y-84004134D01*
X74152096Y-84008570D01*
X74149573Y-84012779D01*
X74146651Y-84016720D01*
X74143355Y-84020355D01*
X74139720Y-84023651D01*
X74135779Y-84026573D01*
X74131570Y-84029096D01*
X74127134Y-84031194D01*
X74122514Y-84032847D01*
X74117755Y-84034039D01*
X74112901Y-84034759D01*
X74108000Y-84035000D01*
X72608000Y-84035000D01*
X72603099Y-84034759D01*
X72598245Y-84034039D01*
X72593486Y-84032847D01*
X72588866Y-84031194D01*
X72584430Y-84029096D01*
X72580221Y-84026573D01*
X72576280Y-84023651D01*
X72572645Y-84020355D01*
X72569349Y-84016720D01*
X72566427Y-84012779D01*
X72563904Y-84008570D01*
X72561806Y-84004134D01*
X72560153Y-83999514D01*
X72558961Y-83994755D01*
X72558241Y-83989901D01*
X72558000Y-83985000D01*
X72558000Y-83685000D01*
X72558241Y-83680099D01*
X72558961Y-83675245D01*
X72560153Y-83670486D01*
X72561806Y-83665866D01*
X72563904Y-83661430D01*
X72566427Y-83657221D01*
X72569349Y-83653280D01*
X72572645Y-83649645D01*
X72576280Y-83646349D01*
X72580221Y-83643427D01*
X72584430Y-83640904D01*
X72588866Y-83638806D01*
X72593486Y-83637153D01*
X72598245Y-83635961D01*
X72603099Y-83635241D01*
X72608000Y-83635000D01*
X74108000Y-83635000D01*
X74112901Y-83635241D01*
X74112901Y-83635241D01*
G37*
D24*
X73358000Y-83835000D03*
D18*
G36*
X74112901Y-82335241D02*
G01*
X74117755Y-82335961D01*
X74122514Y-82337153D01*
X74127134Y-82338806D01*
X74131570Y-82340904D01*
X74135779Y-82343427D01*
X74139720Y-82346349D01*
X74143355Y-82349645D01*
X74146651Y-82353280D01*
X74149573Y-82357221D01*
X74152096Y-82361430D01*
X74154194Y-82365866D01*
X74155847Y-82370486D01*
X74157039Y-82375245D01*
X74157759Y-82380099D01*
X74158000Y-82385000D01*
X74158000Y-82685000D01*
X74157759Y-82689901D01*
X74157039Y-82694755D01*
X74155847Y-82699514D01*
X74154194Y-82704134D01*
X74152096Y-82708570D01*
X74149573Y-82712779D01*
X74146651Y-82716720D01*
X74143355Y-82720355D01*
X74139720Y-82723651D01*
X74135779Y-82726573D01*
X74131570Y-82729096D01*
X74127134Y-82731194D01*
X74122514Y-82732847D01*
X74117755Y-82734039D01*
X74112901Y-82734759D01*
X74108000Y-82735000D01*
X72608000Y-82735000D01*
X72603099Y-82734759D01*
X72598245Y-82734039D01*
X72593486Y-82732847D01*
X72588866Y-82731194D01*
X72584430Y-82729096D01*
X72580221Y-82726573D01*
X72576280Y-82723651D01*
X72572645Y-82720355D01*
X72569349Y-82716720D01*
X72566427Y-82712779D01*
X72563904Y-82708570D01*
X72561806Y-82704134D01*
X72560153Y-82699514D01*
X72558961Y-82694755D01*
X72558241Y-82689901D01*
X72558000Y-82685000D01*
X72558000Y-82385000D01*
X72558241Y-82380099D01*
X72558961Y-82375245D01*
X72560153Y-82370486D01*
X72561806Y-82365866D01*
X72563904Y-82361430D01*
X72566427Y-82357221D01*
X72569349Y-82353280D01*
X72572645Y-82349645D01*
X72576280Y-82346349D01*
X72580221Y-82343427D01*
X72584430Y-82340904D01*
X72588866Y-82338806D01*
X72593486Y-82337153D01*
X72598245Y-82335961D01*
X72603099Y-82335241D01*
X72608000Y-82335000D01*
X74108000Y-82335000D01*
X74112901Y-82335241D01*
X74112901Y-82335241D01*
G37*
D24*
X73358000Y-82535000D03*
D18*
G36*
X74112901Y-81685241D02*
G01*
X74117755Y-81685961D01*
X74122514Y-81687153D01*
X74127134Y-81688806D01*
X74131570Y-81690904D01*
X74135779Y-81693427D01*
X74139720Y-81696349D01*
X74143355Y-81699645D01*
X74146651Y-81703280D01*
X74149573Y-81707221D01*
X74152096Y-81711430D01*
X74154194Y-81715866D01*
X74155847Y-81720486D01*
X74157039Y-81725245D01*
X74157759Y-81730099D01*
X74158000Y-81735000D01*
X74158000Y-82035000D01*
X74157759Y-82039901D01*
X74157039Y-82044755D01*
X74155847Y-82049514D01*
X74154194Y-82054134D01*
X74152096Y-82058570D01*
X74149573Y-82062779D01*
X74146651Y-82066720D01*
X74143355Y-82070355D01*
X74139720Y-82073651D01*
X74135779Y-82076573D01*
X74131570Y-82079096D01*
X74127134Y-82081194D01*
X74122514Y-82082847D01*
X74117755Y-82084039D01*
X74112901Y-82084759D01*
X74108000Y-82085000D01*
X72608000Y-82085000D01*
X72603099Y-82084759D01*
X72598245Y-82084039D01*
X72593486Y-82082847D01*
X72588866Y-82081194D01*
X72584430Y-82079096D01*
X72580221Y-82076573D01*
X72576280Y-82073651D01*
X72572645Y-82070355D01*
X72569349Y-82066720D01*
X72566427Y-82062779D01*
X72563904Y-82058570D01*
X72561806Y-82054134D01*
X72560153Y-82049514D01*
X72558961Y-82044755D01*
X72558241Y-82039901D01*
X72558000Y-82035000D01*
X72558000Y-81735000D01*
X72558241Y-81730099D01*
X72558961Y-81725245D01*
X72560153Y-81720486D01*
X72561806Y-81715866D01*
X72563904Y-81711430D01*
X72566427Y-81707221D01*
X72569349Y-81703280D01*
X72572645Y-81699645D01*
X72576280Y-81696349D01*
X72580221Y-81693427D01*
X72584430Y-81690904D01*
X72588866Y-81688806D01*
X72593486Y-81687153D01*
X72598245Y-81685961D01*
X72603099Y-81685241D01*
X72608000Y-81685000D01*
X74108000Y-81685000D01*
X74112901Y-81685241D01*
X74112901Y-81685241D01*
G37*
D24*
X73358000Y-81885000D03*
D14*
X73660000Y-60325000D03*
D15*
X76200000Y-60325000D03*
X73660000Y-62865000D03*
X76200000Y-62865000D03*
X73660000Y-65405000D03*
X76200000Y-65405000D03*
X73660000Y-67945000D03*
X76200000Y-67945000D03*
X73660000Y-70485000D03*
X76200000Y-70485000D03*
X73660000Y-73025000D03*
X76200000Y-73025000D03*
D18*
G36*
X67784505Y-87446204D02*
G01*
X67808773Y-87449804D01*
X67832572Y-87455765D01*
X67855671Y-87464030D01*
X67877850Y-87474520D01*
X67898893Y-87487132D01*
X67918599Y-87501747D01*
X67936777Y-87518223D01*
X67953253Y-87536401D01*
X67967868Y-87556107D01*
X67980480Y-87577150D01*
X67990970Y-87599329D01*
X67999235Y-87622428D01*
X68005196Y-87646227D01*
X68008796Y-87670495D01*
X68010000Y-87694999D01*
X68010000Y-88345001D01*
X68008796Y-88369505D01*
X68005196Y-88393773D01*
X67999235Y-88417572D01*
X67990970Y-88440671D01*
X67980480Y-88462850D01*
X67967868Y-88483893D01*
X67953253Y-88503599D01*
X67936777Y-88521777D01*
X67918599Y-88538253D01*
X67898893Y-88552868D01*
X67877850Y-88565480D01*
X67855671Y-88575970D01*
X67832572Y-88584235D01*
X67808773Y-88590196D01*
X67784505Y-88593796D01*
X67760001Y-88595000D01*
X66859999Y-88595000D01*
X66835495Y-88593796D01*
X66811227Y-88590196D01*
X66787428Y-88584235D01*
X66764329Y-88575970D01*
X66742150Y-88565480D01*
X66721107Y-88552868D01*
X66701401Y-88538253D01*
X66683223Y-88521777D01*
X66666747Y-88503599D01*
X66652132Y-88483893D01*
X66639520Y-88462850D01*
X66629030Y-88440671D01*
X66620765Y-88417572D01*
X66614804Y-88393773D01*
X66611204Y-88369505D01*
X66610000Y-88345001D01*
X66610000Y-87694999D01*
X66611204Y-87670495D01*
X66614804Y-87646227D01*
X66620765Y-87622428D01*
X66629030Y-87599329D01*
X66639520Y-87577150D01*
X66652132Y-87556107D01*
X66666747Y-87536401D01*
X66683223Y-87518223D01*
X66701401Y-87501747D01*
X66721107Y-87487132D01*
X66742150Y-87474520D01*
X66764329Y-87464030D01*
X66787428Y-87455765D01*
X66811227Y-87449804D01*
X66835495Y-87446204D01*
X66859999Y-87445000D01*
X67760001Y-87445000D01*
X67784505Y-87446204D01*
X67784505Y-87446204D01*
G37*
D19*
X67310000Y-88020000D03*
D18*
G36*
X67784505Y-85396204D02*
G01*
X67808773Y-85399804D01*
X67832572Y-85405765D01*
X67855671Y-85414030D01*
X67877850Y-85424520D01*
X67898893Y-85437132D01*
X67918599Y-85451747D01*
X67936777Y-85468223D01*
X67953253Y-85486401D01*
X67967868Y-85506107D01*
X67980480Y-85527150D01*
X67990970Y-85549329D01*
X67999235Y-85572428D01*
X68005196Y-85596227D01*
X68008796Y-85620495D01*
X68010000Y-85644999D01*
X68010000Y-86295001D01*
X68008796Y-86319505D01*
X68005196Y-86343773D01*
X67999235Y-86367572D01*
X67990970Y-86390671D01*
X67980480Y-86412850D01*
X67967868Y-86433893D01*
X67953253Y-86453599D01*
X67936777Y-86471777D01*
X67918599Y-86488253D01*
X67898893Y-86502868D01*
X67877850Y-86515480D01*
X67855671Y-86525970D01*
X67832572Y-86534235D01*
X67808773Y-86540196D01*
X67784505Y-86543796D01*
X67760001Y-86545000D01*
X66859999Y-86545000D01*
X66835495Y-86543796D01*
X66811227Y-86540196D01*
X66787428Y-86534235D01*
X66764329Y-86525970D01*
X66742150Y-86515480D01*
X66721107Y-86502868D01*
X66701401Y-86488253D01*
X66683223Y-86471777D01*
X66666747Y-86453599D01*
X66652132Y-86433893D01*
X66639520Y-86412850D01*
X66629030Y-86390671D01*
X66620765Y-86367572D01*
X66614804Y-86343773D01*
X66611204Y-86319505D01*
X66610000Y-86295001D01*
X66610000Y-85644999D01*
X66611204Y-85620495D01*
X66614804Y-85596227D01*
X66620765Y-85572428D01*
X66629030Y-85549329D01*
X66639520Y-85527150D01*
X66652132Y-85506107D01*
X66666747Y-85486401D01*
X66683223Y-85468223D01*
X66701401Y-85451747D01*
X66721107Y-85437132D01*
X66742150Y-85424520D01*
X66764329Y-85414030D01*
X66787428Y-85405765D01*
X66811227Y-85399804D01*
X66835495Y-85396204D01*
X66859999Y-85395000D01*
X67760001Y-85395000D01*
X67784505Y-85396204D01*
X67784505Y-85396204D01*
G37*
D19*
X67310000Y-85970000D03*
D25*
X39690000Y-63095000D03*
X41590000Y-63095000D03*
X40640000Y-60095000D03*
X47940000Y-78510000D03*
X46040000Y-78510000D03*
X46990000Y-81510000D03*
X40640000Y-75795000D03*
X39690000Y-72795000D03*
X41590000Y-72795000D03*
D18*
G36*
X44289505Y-66346204D02*
G01*
X44313773Y-66349804D01*
X44337572Y-66355765D01*
X44360671Y-66364030D01*
X44382850Y-66374520D01*
X44403893Y-66387132D01*
X44423599Y-66401747D01*
X44441777Y-66418223D01*
X44458253Y-66436401D01*
X44472868Y-66456107D01*
X44485480Y-66477150D01*
X44495970Y-66499329D01*
X44504235Y-66522428D01*
X44510196Y-66546227D01*
X44513796Y-66570495D01*
X44515000Y-66594999D01*
X44515000Y-67245001D01*
X44513796Y-67269505D01*
X44510196Y-67293773D01*
X44504235Y-67317572D01*
X44495970Y-67340671D01*
X44485480Y-67362850D01*
X44472868Y-67383893D01*
X44458253Y-67403599D01*
X44441777Y-67421777D01*
X44423599Y-67438253D01*
X44403893Y-67452868D01*
X44382850Y-67465480D01*
X44360671Y-67475970D01*
X44337572Y-67484235D01*
X44313773Y-67490196D01*
X44289505Y-67493796D01*
X44265001Y-67495000D01*
X43364999Y-67495000D01*
X43340495Y-67493796D01*
X43316227Y-67490196D01*
X43292428Y-67484235D01*
X43269329Y-67475970D01*
X43247150Y-67465480D01*
X43226107Y-67452868D01*
X43206401Y-67438253D01*
X43188223Y-67421777D01*
X43171747Y-67403599D01*
X43157132Y-67383893D01*
X43144520Y-67362850D01*
X43134030Y-67340671D01*
X43125765Y-67317572D01*
X43119804Y-67293773D01*
X43116204Y-67269505D01*
X43115000Y-67245001D01*
X43115000Y-66594999D01*
X43116204Y-66570495D01*
X43119804Y-66546227D01*
X43125765Y-66522428D01*
X43134030Y-66499329D01*
X43144520Y-66477150D01*
X43157132Y-66456107D01*
X43171747Y-66436401D01*
X43188223Y-66418223D01*
X43206401Y-66401747D01*
X43226107Y-66387132D01*
X43247150Y-66374520D01*
X43269329Y-66364030D01*
X43292428Y-66355765D01*
X43316227Y-66349804D01*
X43340495Y-66346204D01*
X43364999Y-66345000D01*
X44265001Y-66345000D01*
X44289505Y-66346204D01*
X44289505Y-66346204D01*
G37*
D19*
X43815000Y-66920000D03*
D18*
G36*
X44289505Y-68396204D02*
G01*
X44313773Y-68399804D01*
X44337572Y-68405765D01*
X44360671Y-68414030D01*
X44382850Y-68424520D01*
X44403893Y-68437132D01*
X44423599Y-68451747D01*
X44441777Y-68468223D01*
X44458253Y-68486401D01*
X44472868Y-68506107D01*
X44485480Y-68527150D01*
X44495970Y-68549329D01*
X44504235Y-68572428D01*
X44510196Y-68596227D01*
X44513796Y-68620495D01*
X44515000Y-68644999D01*
X44515000Y-69295001D01*
X44513796Y-69319505D01*
X44510196Y-69343773D01*
X44504235Y-69367572D01*
X44495970Y-69390671D01*
X44485480Y-69412850D01*
X44472868Y-69433893D01*
X44458253Y-69453599D01*
X44441777Y-69471777D01*
X44423599Y-69488253D01*
X44403893Y-69502868D01*
X44382850Y-69515480D01*
X44360671Y-69525970D01*
X44337572Y-69534235D01*
X44313773Y-69540196D01*
X44289505Y-69543796D01*
X44265001Y-69545000D01*
X43364999Y-69545000D01*
X43340495Y-69543796D01*
X43316227Y-69540196D01*
X43292428Y-69534235D01*
X43269329Y-69525970D01*
X43247150Y-69515480D01*
X43226107Y-69502868D01*
X43206401Y-69488253D01*
X43188223Y-69471777D01*
X43171747Y-69453599D01*
X43157132Y-69433893D01*
X43144520Y-69412850D01*
X43134030Y-69390671D01*
X43125765Y-69367572D01*
X43119804Y-69343773D01*
X43116204Y-69319505D01*
X43115000Y-69295001D01*
X43115000Y-68644999D01*
X43116204Y-68620495D01*
X43119804Y-68596227D01*
X43125765Y-68572428D01*
X43134030Y-68549329D01*
X43144520Y-68527150D01*
X43157132Y-68506107D01*
X43171747Y-68486401D01*
X43188223Y-68468223D01*
X43206401Y-68451747D01*
X43226107Y-68437132D01*
X43247150Y-68424520D01*
X43269329Y-68414030D01*
X43292428Y-68405765D01*
X43316227Y-68399804D01*
X43340495Y-68396204D01*
X43364999Y-68395000D01*
X44265001Y-68395000D01*
X44289505Y-68396204D01*
X44289505Y-68396204D01*
G37*
D19*
X43815000Y-68970000D03*
D18*
G36*
X40479505Y-68396204D02*
G01*
X40503773Y-68399804D01*
X40527572Y-68405765D01*
X40550671Y-68414030D01*
X40572850Y-68424520D01*
X40593893Y-68437132D01*
X40613599Y-68451747D01*
X40631777Y-68468223D01*
X40648253Y-68486401D01*
X40662868Y-68506107D01*
X40675480Y-68527150D01*
X40685970Y-68549329D01*
X40694235Y-68572428D01*
X40700196Y-68596227D01*
X40703796Y-68620495D01*
X40705000Y-68644999D01*
X40705000Y-69295001D01*
X40703796Y-69319505D01*
X40700196Y-69343773D01*
X40694235Y-69367572D01*
X40685970Y-69390671D01*
X40675480Y-69412850D01*
X40662868Y-69433893D01*
X40648253Y-69453599D01*
X40631777Y-69471777D01*
X40613599Y-69488253D01*
X40593893Y-69502868D01*
X40572850Y-69515480D01*
X40550671Y-69525970D01*
X40527572Y-69534235D01*
X40503773Y-69540196D01*
X40479505Y-69543796D01*
X40455001Y-69545000D01*
X39554999Y-69545000D01*
X39530495Y-69543796D01*
X39506227Y-69540196D01*
X39482428Y-69534235D01*
X39459329Y-69525970D01*
X39437150Y-69515480D01*
X39416107Y-69502868D01*
X39396401Y-69488253D01*
X39378223Y-69471777D01*
X39361747Y-69453599D01*
X39347132Y-69433893D01*
X39334520Y-69412850D01*
X39324030Y-69390671D01*
X39315765Y-69367572D01*
X39309804Y-69343773D01*
X39306204Y-69319505D01*
X39305000Y-69295001D01*
X39305000Y-68644999D01*
X39306204Y-68620495D01*
X39309804Y-68596227D01*
X39315765Y-68572428D01*
X39324030Y-68549329D01*
X39334520Y-68527150D01*
X39347132Y-68506107D01*
X39361747Y-68486401D01*
X39378223Y-68468223D01*
X39396401Y-68451747D01*
X39416107Y-68437132D01*
X39437150Y-68424520D01*
X39459329Y-68414030D01*
X39482428Y-68405765D01*
X39506227Y-68399804D01*
X39530495Y-68396204D01*
X39554999Y-68395000D01*
X40455001Y-68395000D01*
X40479505Y-68396204D01*
X40479505Y-68396204D01*
G37*
D19*
X40005000Y-68970000D03*
D18*
G36*
X40479505Y-66346204D02*
G01*
X40503773Y-66349804D01*
X40527572Y-66355765D01*
X40550671Y-66364030D01*
X40572850Y-66374520D01*
X40593893Y-66387132D01*
X40613599Y-66401747D01*
X40631777Y-66418223D01*
X40648253Y-66436401D01*
X40662868Y-66456107D01*
X40675480Y-66477150D01*
X40685970Y-66499329D01*
X40694235Y-66522428D01*
X40700196Y-66546227D01*
X40703796Y-66570495D01*
X40705000Y-66594999D01*
X40705000Y-67245001D01*
X40703796Y-67269505D01*
X40700196Y-67293773D01*
X40694235Y-67317572D01*
X40685970Y-67340671D01*
X40675480Y-67362850D01*
X40662868Y-67383893D01*
X40648253Y-67403599D01*
X40631777Y-67421777D01*
X40613599Y-67438253D01*
X40593893Y-67452868D01*
X40572850Y-67465480D01*
X40550671Y-67475970D01*
X40527572Y-67484235D01*
X40503773Y-67490196D01*
X40479505Y-67493796D01*
X40455001Y-67495000D01*
X39554999Y-67495000D01*
X39530495Y-67493796D01*
X39506227Y-67490196D01*
X39482428Y-67484235D01*
X39459329Y-67475970D01*
X39437150Y-67465480D01*
X39416107Y-67452868D01*
X39396401Y-67438253D01*
X39378223Y-67421777D01*
X39361747Y-67403599D01*
X39347132Y-67383893D01*
X39334520Y-67362850D01*
X39324030Y-67340671D01*
X39315765Y-67317572D01*
X39309804Y-67293773D01*
X39306204Y-67269505D01*
X39305000Y-67245001D01*
X39305000Y-66594999D01*
X39306204Y-66570495D01*
X39309804Y-66546227D01*
X39315765Y-66522428D01*
X39324030Y-66499329D01*
X39334520Y-66477150D01*
X39347132Y-66456107D01*
X39361747Y-66436401D01*
X39378223Y-66418223D01*
X39396401Y-66401747D01*
X39416107Y-66387132D01*
X39437150Y-66374520D01*
X39459329Y-66364030D01*
X39482428Y-66355765D01*
X39506227Y-66349804D01*
X39530495Y-66346204D01*
X39554999Y-66345000D01*
X40455001Y-66345000D01*
X40479505Y-66346204D01*
X40479505Y-66346204D01*
G37*
D19*
X40005000Y-66920000D03*
D18*
G36*
X45559505Y-74746204D02*
G01*
X45583773Y-74749804D01*
X45607572Y-74755765D01*
X45630671Y-74764030D01*
X45652850Y-74774520D01*
X45673893Y-74787132D01*
X45693599Y-74801747D01*
X45711777Y-74818223D01*
X45728253Y-74836401D01*
X45742868Y-74856107D01*
X45755480Y-74877150D01*
X45765970Y-74899329D01*
X45774235Y-74922428D01*
X45780196Y-74946227D01*
X45783796Y-74970495D01*
X45785000Y-74994999D01*
X45785000Y-75645001D01*
X45783796Y-75669505D01*
X45780196Y-75693773D01*
X45774235Y-75717572D01*
X45765970Y-75740671D01*
X45755480Y-75762850D01*
X45742868Y-75783893D01*
X45728253Y-75803599D01*
X45711777Y-75821777D01*
X45693599Y-75838253D01*
X45673893Y-75852868D01*
X45652850Y-75865480D01*
X45630671Y-75875970D01*
X45607572Y-75884235D01*
X45583773Y-75890196D01*
X45559505Y-75893796D01*
X45535001Y-75895000D01*
X44634999Y-75895000D01*
X44610495Y-75893796D01*
X44586227Y-75890196D01*
X44562428Y-75884235D01*
X44539329Y-75875970D01*
X44517150Y-75865480D01*
X44496107Y-75852868D01*
X44476401Y-75838253D01*
X44458223Y-75821777D01*
X44441747Y-75803599D01*
X44427132Y-75783893D01*
X44414520Y-75762850D01*
X44404030Y-75740671D01*
X44395765Y-75717572D01*
X44389804Y-75693773D01*
X44386204Y-75669505D01*
X44385000Y-75645001D01*
X44385000Y-74994999D01*
X44386204Y-74970495D01*
X44389804Y-74946227D01*
X44395765Y-74922428D01*
X44404030Y-74899329D01*
X44414520Y-74877150D01*
X44427132Y-74856107D01*
X44441747Y-74836401D01*
X44458223Y-74818223D01*
X44476401Y-74801747D01*
X44496107Y-74787132D01*
X44517150Y-74774520D01*
X44539329Y-74764030D01*
X44562428Y-74755765D01*
X44586227Y-74749804D01*
X44610495Y-74746204D01*
X44634999Y-74745000D01*
X45535001Y-74745000D01*
X45559505Y-74746204D01*
X45559505Y-74746204D01*
G37*
D19*
X45085000Y-75320000D03*
D18*
G36*
X45559505Y-72696204D02*
G01*
X45583773Y-72699804D01*
X45607572Y-72705765D01*
X45630671Y-72714030D01*
X45652850Y-72724520D01*
X45673893Y-72737132D01*
X45693599Y-72751747D01*
X45711777Y-72768223D01*
X45728253Y-72786401D01*
X45742868Y-72806107D01*
X45755480Y-72827150D01*
X45765970Y-72849329D01*
X45774235Y-72872428D01*
X45780196Y-72896227D01*
X45783796Y-72920495D01*
X45785000Y-72944999D01*
X45785000Y-73595001D01*
X45783796Y-73619505D01*
X45780196Y-73643773D01*
X45774235Y-73667572D01*
X45765970Y-73690671D01*
X45755480Y-73712850D01*
X45742868Y-73733893D01*
X45728253Y-73753599D01*
X45711777Y-73771777D01*
X45693599Y-73788253D01*
X45673893Y-73802868D01*
X45652850Y-73815480D01*
X45630671Y-73825970D01*
X45607572Y-73834235D01*
X45583773Y-73840196D01*
X45559505Y-73843796D01*
X45535001Y-73845000D01*
X44634999Y-73845000D01*
X44610495Y-73843796D01*
X44586227Y-73840196D01*
X44562428Y-73834235D01*
X44539329Y-73825970D01*
X44517150Y-73815480D01*
X44496107Y-73802868D01*
X44476401Y-73788253D01*
X44458223Y-73771777D01*
X44441747Y-73753599D01*
X44427132Y-73733893D01*
X44414520Y-73712850D01*
X44404030Y-73690671D01*
X44395765Y-73667572D01*
X44389804Y-73643773D01*
X44386204Y-73619505D01*
X44385000Y-73595001D01*
X44385000Y-72944999D01*
X44386204Y-72920495D01*
X44389804Y-72896227D01*
X44395765Y-72872428D01*
X44404030Y-72849329D01*
X44414520Y-72827150D01*
X44427132Y-72806107D01*
X44441747Y-72786401D01*
X44458223Y-72768223D01*
X44476401Y-72751747D01*
X44496107Y-72737132D01*
X44517150Y-72724520D01*
X44539329Y-72714030D01*
X44562428Y-72705765D01*
X44586227Y-72699804D01*
X44610495Y-72696204D01*
X44634999Y-72695000D01*
X45535001Y-72695000D01*
X45559505Y-72696204D01*
X45559505Y-72696204D01*
G37*
D19*
X45085000Y-73270000D03*
D18*
G36*
X76939505Y-92646204D02*
G01*
X76963773Y-92649804D01*
X76987572Y-92655765D01*
X77010671Y-92664030D01*
X77032850Y-92674520D01*
X77053893Y-92687132D01*
X77073599Y-92701747D01*
X77091777Y-92718223D01*
X77108253Y-92736401D01*
X77122868Y-92756107D01*
X77135480Y-92777150D01*
X77145970Y-92799329D01*
X77154235Y-92822428D01*
X77160196Y-92846227D01*
X77163796Y-92870495D01*
X77165000Y-92894999D01*
X77165000Y-93795001D01*
X77163796Y-93819505D01*
X77160196Y-93843773D01*
X77154235Y-93867572D01*
X77145970Y-93890671D01*
X77135480Y-93912850D01*
X77122868Y-93933893D01*
X77108253Y-93953599D01*
X77091777Y-93971777D01*
X77073599Y-93988253D01*
X77053893Y-94002868D01*
X77032850Y-94015480D01*
X77010671Y-94025970D01*
X76987572Y-94034235D01*
X76963773Y-94040196D01*
X76939505Y-94043796D01*
X76915001Y-94045000D01*
X76264999Y-94045000D01*
X76240495Y-94043796D01*
X76216227Y-94040196D01*
X76192428Y-94034235D01*
X76169329Y-94025970D01*
X76147150Y-94015480D01*
X76126107Y-94002868D01*
X76106401Y-93988253D01*
X76088223Y-93971777D01*
X76071747Y-93953599D01*
X76057132Y-93933893D01*
X76044520Y-93912850D01*
X76034030Y-93890671D01*
X76025765Y-93867572D01*
X76019804Y-93843773D01*
X76016204Y-93819505D01*
X76015000Y-93795001D01*
X76015000Y-92894999D01*
X76016204Y-92870495D01*
X76019804Y-92846227D01*
X76025765Y-92822428D01*
X76034030Y-92799329D01*
X76044520Y-92777150D01*
X76057132Y-92756107D01*
X76071747Y-92736401D01*
X76088223Y-92718223D01*
X76106401Y-92701747D01*
X76126107Y-92687132D01*
X76147150Y-92674520D01*
X76169329Y-92664030D01*
X76192428Y-92655765D01*
X76216227Y-92649804D01*
X76240495Y-92646204D01*
X76264999Y-92645000D01*
X76915001Y-92645000D01*
X76939505Y-92646204D01*
X76939505Y-92646204D01*
G37*
D19*
X76590000Y-93345000D03*
D18*
G36*
X74889505Y-92646204D02*
G01*
X74913773Y-92649804D01*
X74937572Y-92655765D01*
X74960671Y-92664030D01*
X74982850Y-92674520D01*
X75003893Y-92687132D01*
X75023599Y-92701747D01*
X75041777Y-92718223D01*
X75058253Y-92736401D01*
X75072868Y-92756107D01*
X75085480Y-92777150D01*
X75095970Y-92799329D01*
X75104235Y-92822428D01*
X75110196Y-92846227D01*
X75113796Y-92870495D01*
X75115000Y-92894999D01*
X75115000Y-93795001D01*
X75113796Y-93819505D01*
X75110196Y-93843773D01*
X75104235Y-93867572D01*
X75095970Y-93890671D01*
X75085480Y-93912850D01*
X75072868Y-93933893D01*
X75058253Y-93953599D01*
X75041777Y-93971777D01*
X75023599Y-93988253D01*
X75003893Y-94002868D01*
X74982850Y-94015480D01*
X74960671Y-94025970D01*
X74937572Y-94034235D01*
X74913773Y-94040196D01*
X74889505Y-94043796D01*
X74865001Y-94045000D01*
X74214999Y-94045000D01*
X74190495Y-94043796D01*
X74166227Y-94040196D01*
X74142428Y-94034235D01*
X74119329Y-94025970D01*
X74097150Y-94015480D01*
X74076107Y-94002868D01*
X74056401Y-93988253D01*
X74038223Y-93971777D01*
X74021747Y-93953599D01*
X74007132Y-93933893D01*
X73994520Y-93912850D01*
X73984030Y-93890671D01*
X73975765Y-93867572D01*
X73969804Y-93843773D01*
X73966204Y-93819505D01*
X73965000Y-93795001D01*
X73965000Y-92894999D01*
X73966204Y-92870495D01*
X73969804Y-92846227D01*
X73975765Y-92822428D01*
X73984030Y-92799329D01*
X73994520Y-92777150D01*
X74007132Y-92756107D01*
X74021747Y-92736401D01*
X74038223Y-92718223D01*
X74056401Y-92701747D01*
X74076107Y-92687132D01*
X74097150Y-92674520D01*
X74119329Y-92664030D01*
X74142428Y-92655765D01*
X74166227Y-92649804D01*
X74190495Y-92646204D01*
X74214999Y-92645000D01*
X74865001Y-92645000D01*
X74889505Y-92646204D01*
X74889505Y-92646204D01*
G37*
D19*
X74540000Y-93345000D03*
D18*
G36*
X49369505Y-72696204D02*
G01*
X49393773Y-72699804D01*
X49417572Y-72705765D01*
X49440671Y-72714030D01*
X49462850Y-72724520D01*
X49483893Y-72737132D01*
X49503599Y-72751747D01*
X49521777Y-72768223D01*
X49538253Y-72786401D01*
X49552868Y-72806107D01*
X49565480Y-72827150D01*
X49575970Y-72849329D01*
X49584235Y-72872428D01*
X49590196Y-72896227D01*
X49593796Y-72920495D01*
X49595000Y-72944999D01*
X49595000Y-73595001D01*
X49593796Y-73619505D01*
X49590196Y-73643773D01*
X49584235Y-73667572D01*
X49575970Y-73690671D01*
X49565480Y-73712850D01*
X49552868Y-73733893D01*
X49538253Y-73753599D01*
X49521777Y-73771777D01*
X49503599Y-73788253D01*
X49483893Y-73802868D01*
X49462850Y-73815480D01*
X49440671Y-73825970D01*
X49417572Y-73834235D01*
X49393773Y-73840196D01*
X49369505Y-73843796D01*
X49345001Y-73845000D01*
X48444999Y-73845000D01*
X48420495Y-73843796D01*
X48396227Y-73840196D01*
X48372428Y-73834235D01*
X48349329Y-73825970D01*
X48327150Y-73815480D01*
X48306107Y-73802868D01*
X48286401Y-73788253D01*
X48268223Y-73771777D01*
X48251747Y-73753599D01*
X48237132Y-73733893D01*
X48224520Y-73712850D01*
X48214030Y-73690671D01*
X48205765Y-73667572D01*
X48199804Y-73643773D01*
X48196204Y-73619505D01*
X48195000Y-73595001D01*
X48195000Y-72944999D01*
X48196204Y-72920495D01*
X48199804Y-72896227D01*
X48205765Y-72872428D01*
X48214030Y-72849329D01*
X48224520Y-72827150D01*
X48237132Y-72806107D01*
X48251747Y-72786401D01*
X48268223Y-72768223D01*
X48286401Y-72751747D01*
X48306107Y-72737132D01*
X48327150Y-72724520D01*
X48349329Y-72714030D01*
X48372428Y-72705765D01*
X48396227Y-72699804D01*
X48420495Y-72696204D01*
X48444999Y-72695000D01*
X49345001Y-72695000D01*
X49369505Y-72696204D01*
X49369505Y-72696204D01*
G37*
D19*
X48895000Y-73270000D03*
D18*
G36*
X49369505Y-74746204D02*
G01*
X49393773Y-74749804D01*
X49417572Y-74755765D01*
X49440671Y-74764030D01*
X49462850Y-74774520D01*
X49483893Y-74787132D01*
X49503599Y-74801747D01*
X49521777Y-74818223D01*
X49538253Y-74836401D01*
X49552868Y-74856107D01*
X49565480Y-74877150D01*
X49575970Y-74899329D01*
X49584235Y-74922428D01*
X49590196Y-74946227D01*
X49593796Y-74970495D01*
X49595000Y-74994999D01*
X49595000Y-75645001D01*
X49593796Y-75669505D01*
X49590196Y-75693773D01*
X49584235Y-75717572D01*
X49575970Y-75740671D01*
X49565480Y-75762850D01*
X49552868Y-75783893D01*
X49538253Y-75803599D01*
X49521777Y-75821777D01*
X49503599Y-75838253D01*
X49483893Y-75852868D01*
X49462850Y-75865480D01*
X49440671Y-75875970D01*
X49417572Y-75884235D01*
X49393773Y-75890196D01*
X49369505Y-75893796D01*
X49345001Y-75895000D01*
X48444999Y-75895000D01*
X48420495Y-75893796D01*
X48396227Y-75890196D01*
X48372428Y-75884235D01*
X48349329Y-75875970D01*
X48327150Y-75865480D01*
X48306107Y-75852868D01*
X48286401Y-75838253D01*
X48268223Y-75821777D01*
X48251747Y-75803599D01*
X48237132Y-75783893D01*
X48224520Y-75762850D01*
X48214030Y-75740671D01*
X48205765Y-75717572D01*
X48199804Y-75693773D01*
X48196204Y-75669505D01*
X48195000Y-75645001D01*
X48195000Y-74994999D01*
X48196204Y-74970495D01*
X48199804Y-74946227D01*
X48205765Y-74922428D01*
X48214030Y-74899329D01*
X48224520Y-74877150D01*
X48237132Y-74856107D01*
X48251747Y-74836401D01*
X48268223Y-74818223D01*
X48286401Y-74801747D01*
X48306107Y-74787132D01*
X48327150Y-74774520D01*
X48349329Y-74764030D01*
X48372428Y-74755765D01*
X48396227Y-74749804D01*
X48420495Y-74746204D01*
X48444999Y-74745000D01*
X49345001Y-74745000D01*
X49369505Y-74746204D01*
X49369505Y-74746204D01*
G37*
D19*
X48895000Y-75320000D03*
D26*
X62645000Y-72600000D03*
X61995000Y-72600000D03*
X61345000Y-72600000D03*
X60695000Y-72600000D03*
X60045000Y-72600000D03*
X59395000Y-72600000D03*
X58745000Y-72600000D03*
X58095000Y-72600000D03*
X57445000Y-72600000D03*
X56795000Y-72600000D03*
X56145000Y-72600000D03*
X55495000Y-72600000D03*
X54845000Y-72600000D03*
X54195000Y-72600000D03*
X54195000Y-79800000D03*
X54845000Y-79800000D03*
X55495000Y-79800000D03*
X56145000Y-79800000D03*
X56795000Y-79800000D03*
X57445000Y-79800000D03*
X58095000Y-79800000D03*
X58745000Y-79800000D03*
X59395000Y-79800000D03*
X60045000Y-79800000D03*
X60695000Y-79800000D03*
X61345000Y-79800000D03*
X61995000Y-79800000D03*
X62645000Y-79800000D03*
M02*
