G04 #@! TF.GenerationSoftware,KiCad,Pcbnew,(5.1.4)-1*
G04 #@! TF.CreationDate,2019-10-16T18:51:52+02:00*
G04 #@! TF.ProjectId,HB-RF-USB,48422d52-462d-4555-9342-2e6b69636164,rev?*
G04 #@! TF.SameCoordinates,Original*
G04 #@! TF.FileFunction,Copper,L1,Top*
G04 #@! TF.FilePolarity,Positive*
%FSLAX46Y46*%
G04 Gerber Fmt 4.6, Leading zero omitted, Abs format (unit mm)*
G04 Created by KiCad (PCBNEW (5.1.4)-1) date 2019-10-16 18:51:52*
%MOMM*%
%LPD*%
G04 APERTURE LIST*
%ADD10R,1.700000X1.700000*%
%ADD11O,1.700000X1.700000*%
%ADD12C,0.700000*%
%ADD13C,4.400000*%
%ADD14C,0.100000*%
%ADD15C,1.150000*%
%ADD16C,1.000000*%
%ADD17O,2.000000X1.090000*%
%ADD18O,1.600000X1.050000*%
%ADD19C,0.400000*%
%ADD20R,0.800000X1.900000*%
%ADD21R,0.450000X1.750000*%
%ADD22C,0.800000*%
%ADD23C,0.400000*%
%ADD24C,0.250000*%
%ADD25C,0.200000*%
G04 APERTURE END LIST*
D10*
X33000000Y-52705000D03*
D11*
X35540000Y-52705000D03*
X33000000Y-55245000D03*
X35540000Y-55245000D03*
X33000000Y-57785000D03*
X35540000Y-57785000D03*
X33000000Y-60325000D03*
X35540000Y-60325000D03*
X33000000Y-62865000D03*
X35540000Y-62865000D03*
X33000000Y-65405000D03*
X35540000Y-65405000D03*
X33000000Y-67945000D03*
X35540000Y-67945000D03*
X33000000Y-70485000D03*
X35540000Y-70485000D03*
X33000000Y-73025000D03*
X35540000Y-73025000D03*
X33000000Y-75565000D03*
X35540000Y-75565000D03*
X33000000Y-78105000D03*
X35540000Y-78105000D03*
X33000000Y-80645000D03*
X35540000Y-80645000D03*
X33000000Y-83185000D03*
X35540000Y-83185000D03*
X33000000Y-85725000D03*
X35540000Y-85725000D03*
X33000000Y-88265000D03*
X35540000Y-88265000D03*
X33000000Y-90805000D03*
X35540000Y-90805000D03*
X33000000Y-93345000D03*
X35540000Y-93345000D03*
X33000000Y-95885000D03*
X35540000Y-95885000D03*
X33000000Y-98425000D03*
X35540000Y-98425000D03*
X33000000Y-100965000D03*
X35540000Y-100965000D03*
D12*
X76096726Y-52808274D03*
X74930000Y-52325000D03*
X73763274Y-52808274D03*
X73280000Y-53975000D03*
X73763274Y-55141726D03*
X74930000Y-55625000D03*
X76096726Y-55141726D03*
X76580000Y-53975000D03*
D13*
X74930000Y-53975000D03*
X40640000Y-53975000D03*
D12*
X42290000Y-53975000D03*
X41806726Y-55141726D03*
X40640000Y-55625000D03*
X39473274Y-55141726D03*
X38990000Y-53975000D03*
X39473274Y-52808274D03*
X40640000Y-52325000D03*
X41806726Y-52808274D03*
X41806726Y-98528274D03*
X40640000Y-98045000D03*
X39473274Y-98528274D03*
X38990000Y-99695000D03*
X39473274Y-100861726D03*
X40640000Y-101345000D03*
X41806726Y-100861726D03*
X42290000Y-99695000D03*
D13*
X40640000Y-99695000D03*
X74930000Y-99695000D03*
D12*
X76580000Y-99695000D03*
X76096726Y-100861726D03*
X74930000Y-101345000D03*
X73763274Y-100861726D03*
X73280000Y-99695000D03*
X73763274Y-98528274D03*
X74930000Y-98045000D03*
X76096726Y-98528274D03*
D14*
G36*
X60449505Y-82486204D02*
G01*
X60473773Y-82489804D01*
X60497572Y-82495765D01*
X60520671Y-82504030D01*
X60542850Y-82514520D01*
X60563893Y-82527132D01*
X60583599Y-82541747D01*
X60601777Y-82558223D01*
X60618253Y-82576401D01*
X60632868Y-82596107D01*
X60645480Y-82617150D01*
X60655970Y-82639329D01*
X60664235Y-82662428D01*
X60670196Y-82686227D01*
X60673796Y-82710495D01*
X60675000Y-82734999D01*
X60675000Y-83635001D01*
X60673796Y-83659505D01*
X60670196Y-83683773D01*
X60664235Y-83707572D01*
X60655970Y-83730671D01*
X60645480Y-83752850D01*
X60632868Y-83773893D01*
X60618253Y-83793599D01*
X60601777Y-83811777D01*
X60583599Y-83828253D01*
X60563893Y-83842868D01*
X60542850Y-83855480D01*
X60520671Y-83865970D01*
X60497572Y-83874235D01*
X60473773Y-83880196D01*
X60449505Y-83883796D01*
X60425001Y-83885000D01*
X59774999Y-83885000D01*
X59750495Y-83883796D01*
X59726227Y-83880196D01*
X59702428Y-83874235D01*
X59679329Y-83865970D01*
X59657150Y-83855480D01*
X59636107Y-83842868D01*
X59616401Y-83828253D01*
X59598223Y-83811777D01*
X59581747Y-83793599D01*
X59567132Y-83773893D01*
X59554520Y-83752850D01*
X59544030Y-83730671D01*
X59535765Y-83707572D01*
X59529804Y-83683773D01*
X59526204Y-83659505D01*
X59525000Y-83635001D01*
X59525000Y-82734999D01*
X59526204Y-82710495D01*
X59529804Y-82686227D01*
X59535765Y-82662428D01*
X59544030Y-82639329D01*
X59554520Y-82617150D01*
X59567132Y-82596107D01*
X59581747Y-82576401D01*
X59598223Y-82558223D01*
X59616401Y-82541747D01*
X59636107Y-82527132D01*
X59657150Y-82514520D01*
X59679329Y-82504030D01*
X59702428Y-82495765D01*
X59726227Y-82489804D01*
X59750495Y-82486204D01*
X59774999Y-82485000D01*
X60425001Y-82485000D01*
X60449505Y-82486204D01*
X60449505Y-82486204D01*
G37*
D15*
X60100000Y-83185000D03*
D14*
G36*
X58399505Y-82486204D02*
G01*
X58423773Y-82489804D01*
X58447572Y-82495765D01*
X58470671Y-82504030D01*
X58492850Y-82514520D01*
X58513893Y-82527132D01*
X58533599Y-82541747D01*
X58551777Y-82558223D01*
X58568253Y-82576401D01*
X58582868Y-82596107D01*
X58595480Y-82617150D01*
X58605970Y-82639329D01*
X58614235Y-82662428D01*
X58620196Y-82686227D01*
X58623796Y-82710495D01*
X58625000Y-82734999D01*
X58625000Y-83635001D01*
X58623796Y-83659505D01*
X58620196Y-83683773D01*
X58614235Y-83707572D01*
X58605970Y-83730671D01*
X58595480Y-83752850D01*
X58582868Y-83773893D01*
X58568253Y-83793599D01*
X58551777Y-83811777D01*
X58533599Y-83828253D01*
X58513893Y-83842868D01*
X58492850Y-83855480D01*
X58470671Y-83865970D01*
X58447572Y-83874235D01*
X58423773Y-83880196D01*
X58399505Y-83883796D01*
X58375001Y-83885000D01*
X57724999Y-83885000D01*
X57700495Y-83883796D01*
X57676227Y-83880196D01*
X57652428Y-83874235D01*
X57629329Y-83865970D01*
X57607150Y-83855480D01*
X57586107Y-83842868D01*
X57566401Y-83828253D01*
X57548223Y-83811777D01*
X57531747Y-83793599D01*
X57517132Y-83773893D01*
X57504520Y-83752850D01*
X57494030Y-83730671D01*
X57485765Y-83707572D01*
X57479804Y-83683773D01*
X57476204Y-83659505D01*
X57475000Y-83635001D01*
X57475000Y-82734999D01*
X57476204Y-82710495D01*
X57479804Y-82686227D01*
X57485765Y-82662428D01*
X57494030Y-82639329D01*
X57504520Y-82617150D01*
X57517132Y-82596107D01*
X57531747Y-82576401D01*
X57548223Y-82558223D01*
X57566401Y-82541747D01*
X57586107Y-82527132D01*
X57607150Y-82514520D01*
X57629329Y-82504030D01*
X57652428Y-82495765D01*
X57676227Y-82489804D01*
X57700495Y-82486204D01*
X57724999Y-82485000D01*
X58375001Y-82485000D01*
X58399505Y-82486204D01*
X58399505Y-82486204D01*
G37*
D15*
X58050000Y-83185000D03*
D14*
G36*
X55369505Y-82486204D02*
G01*
X55393773Y-82489804D01*
X55417572Y-82495765D01*
X55440671Y-82504030D01*
X55462850Y-82514520D01*
X55483893Y-82527132D01*
X55503599Y-82541747D01*
X55521777Y-82558223D01*
X55538253Y-82576401D01*
X55552868Y-82596107D01*
X55565480Y-82617150D01*
X55575970Y-82639329D01*
X55584235Y-82662428D01*
X55590196Y-82686227D01*
X55593796Y-82710495D01*
X55595000Y-82734999D01*
X55595000Y-83635001D01*
X55593796Y-83659505D01*
X55590196Y-83683773D01*
X55584235Y-83707572D01*
X55575970Y-83730671D01*
X55565480Y-83752850D01*
X55552868Y-83773893D01*
X55538253Y-83793599D01*
X55521777Y-83811777D01*
X55503599Y-83828253D01*
X55483893Y-83842868D01*
X55462850Y-83855480D01*
X55440671Y-83865970D01*
X55417572Y-83874235D01*
X55393773Y-83880196D01*
X55369505Y-83883796D01*
X55345001Y-83885000D01*
X54694999Y-83885000D01*
X54670495Y-83883796D01*
X54646227Y-83880196D01*
X54622428Y-83874235D01*
X54599329Y-83865970D01*
X54577150Y-83855480D01*
X54556107Y-83842868D01*
X54536401Y-83828253D01*
X54518223Y-83811777D01*
X54501747Y-83793599D01*
X54487132Y-83773893D01*
X54474520Y-83752850D01*
X54464030Y-83730671D01*
X54455765Y-83707572D01*
X54449804Y-83683773D01*
X54446204Y-83659505D01*
X54445000Y-83635001D01*
X54445000Y-82734999D01*
X54446204Y-82710495D01*
X54449804Y-82686227D01*
X54455765Y-82662428D01*
X54464030Y-82639329D01*
X54474520Y-82617150D01*
X54487132Y-82596107D01*
X54501747Y-82576401D01*
X54518223Y-82558223D01*
X54536401Y-82541747D01*
X54556107Y-82527132D01*
X54577150Y-82514520D01*
X54599329Y-82504030D01*
X54622428Y-82495765D01*
X54646227Y-82489804D01*
X54670495Y-82486204D01*
X54694999Y-82485000D01*
X55345001Y-82485000D01*
X55369505Y-82486204D01*
X55369505Y-82486204D01*
G37*
D15*
X55020000Y-83185000D03*
D14*
G36*
X53319505Y-82486204D02*
G01*
X53343773Y-82489804D01*
X53367572Y-82495765D01*
X53390671Y-82504030D01*
X53412850Y-82514520D01*
X53433893Y-82527132D01*
X53453599Y-82541747D01*
X53471777Y-82558223D01*
X53488253Y-82576401D01*
X53502868Y-82596107D01*
X53515480Y-82617150D01*
X53525970Y-82639329D01*
X53534235Y-82662428D01*
X53540196Y-82686227D01*
X53543796Y-82710495D01*
X53545000Y-82734999D01*
X53545000Y-83635001D01*
X53543796Y-83659505D01*
X53540196Y-83683773D01*
X53534235Y-83707572D01*
X53525970Y-83730671D01*
X53515480Y-83752850D01*
X53502868Y-83773893D01*
X53488253Y-83793599D01*
X53471777Y-83811777D01*
X53453599Y-83828253D01*
X53433893Y-83842868D01*
X53412850Y-83855480D01*
X53390671Y-83865970D01*
X53367572Y-83874235D01*
X53343773Y-83880196D01*
X53319505Y-83883796D01*
X53295001Y-83885000D01*
X52644999Y-83885000D01*
X52620495Y-83883796D01*
X52596227Y-83880196D01*
X52572428Y-83874235D01*
X52549329Y-83865970D01*
X52527150Y-83855480D01*
X52506107Y-83842868D01*
X52486401Y-83828253D01*
X52468223Y-83811777D01*
X52451747Y-83793599D01*
X52437132Y-83773893D01*
X52424520Y-83752850D01*
X52414030Y-83730671D01*
X52405765Y-83707572D01*
X52399804Y-83683773D01*
X52396204Y-83659505D01*
X52395000Y-83635001D01*
X52395000Y-82734999D01*
X52396204Y-82710495D01*
X52399804Y-82686227D01*
X52405765Y-82662428D01*
X52414030Y-82639329D01*
X52424520Y-82617150D01*
X52437132Y-82596107D01*
X52451747Y-82576401D01*
X52468223Y-82558223D01*
X52486401Y-82541747D01*
X52506107Y-82527132D01*
X52527150Y-82514520D01*
X52549329Y-82504030D01*
X52572428Y-82495765D01*
X52596227Y-82489804D01*
X52620495Y-82486204D01*
X52644999Y-82485000D01*
X53295001Y-82485000D01*
X53319505Y-82486204D01*
X53319505Y-82486204D01*
G37*
D15*
X52970000Y-83185000D03*
D14*
G36*
X44924505Y-59996204D02*
G01*
X44948773Y-59999804D01*
X44972572Y-60005765D01*
X44995671Y-60014030D01*
X45017850Y-60024520D01*
X45038893Y-60037132D01*
X45058599Y-60051747D01*
X45076777Y-60068223D01*
X45093253Y-60086401D01*
X45107868Y-60106107D01*
X45120480Y-60127150D01*
X45130970Y-60149329D01*
X45139235Y-60172428D01*
X45145196Y-60196227D01*
X45148796Y-60220495D01*
X45150000Y-60244999D01*
X45150000Y-60895001D01*
X45148796Y-60919505D01*
X45145196Y-60943773D01*
X45139235Y-60967572D01*
X45130970Y-60990671D01*
X45120480Y-61012850D01*
X45107868Y-61033893D01*
X45093253Y-61053599D01*
X45076777Y-61071777D01*
X45058599Y-61088253D01*
X45038893Y-61102868D01*
X45017850Y-61115480D01*
X44995671Y-61125970D01*
X44972572Y-61134235D01*
X44948773Y-61140196D01*
X44924505Y-61143796D01*
X44900001Y-61145000D01*
X43999999Y-61145000D01*
X43975495Y-61143796D01*
X43951227Y-61140196D01*
X43927428Y-61134235D01*
X43904329Y-61125970D01*
X43882150Y-61115480D01*
X43861107Y-61102868D01*
X43841401Y-61088253D01*
X43823223Y-61071777D01*
X43806747Y-61053599D01*
X43792132Y-61033893D01*
X43779520Y-61012850D01*
X43769030Y-60990671D01*
X43760765Y-60967572D01*
X43754804Y-60943773D01*
X43751204Y-60919505D01*
X43750000Y-60895001D01*
X43750000Y-60244999D01*
X43751204Y-60220495D01*
X43754804Y-60196227D01*
X43760765Y-60172428D01*
X43769030Y-60149329D01*
X43779520Y-60127150D01*
X43792132Y-60106107D01*
X43806747Y-60086401D01*
X43823223Y-60068223D01*
X43841401Y-60051747D01*
X43861107Y-60037132D01*
X43882150Y-60024520D01*
X43904329Y-60014030D01*
X43927428Y-60005765D01*
X43951227Y-59999804D01*
X43975495Y-59996204D01*
X43999999Y-59995000D01*
X44900001Y-59995000D01*
X44924505Y-59996204D01*
X44924505Y-59996204D01*
G37*
D15*
X44450000Y-60570000D03*
D14*
G36*
X44924505Y-62046204D02*
G01*
X44948773Y-62049804D01*
X44972572Y-62055765D01*
X44995671Y-62064030D01*
X45017850Y-62074520D01*
X45038893Y-62087132D01*
X45058599Y-62101747D01*
X45076777Y-62118223D01*
X45093253Y-62136401D01*
X45107868Y-62156107D01*
X45120480Y-62177150D01*
X45130970Y-62199329D01*
X45139235Y-62222428D01*
X45145196Y-62246227D01*
X45148796Y-62270495D01*
X45150000Y-62294999D01*
X45150000Y-62945001D01*
X45148796Y-62969505D01*
X45145196Y-62993773D01*
X45139235Y-63017572D01*
X45130970Y-63040671D01*
X45120480Y-63062850D01*
X45107868Y-63083893D01*
X45093253Y-63103599D01*
X45076777Y-63121777D01*
X45058599Y-63138253D01*
X45038893Y-63152868D01*
X45017850Y-63165480D01*
X44995671Y-63175970D01*
X44972572Y-63184235D01*
X44948773Y-63190196D01*
X44924505Y-63193796D01*
X44900001Y-63195000D01*
X43999999Y-63195000D01*
X43975495Y-63193796D01*
X43951227Y-63190196D01*
X43927428Y-63184235D01*
X43904329Y-63175970D01*
X43882150Y-63165480D01*
X43861107Y-63152868D01*
X43841401Y-63138253D01*
X43823223Y-63121777D01*
X43806747Y-63103599D01*
X43792132Y-63083893D01*
X43779520Y-63062850D01*
X43769030Y-63040671D01*
X43760765Y-63017572D01*
X43754804Y-62993773D01*
X43751204Y-62969505D01*
X43750000Y-62945001D01*
X43750000Y-62294999D01*
X43751204Y-62270495D01*
X43754804Y-62246227D01*
X43760765Y-62222428D01*
X43769030Y-62199329D01*
X43779520Y-62177150D01*
X43792132Y-62156107D01*
X43806747Y-62136401D01*
X43823223Y-62118223D01*
X43841401Y-62101747D01*
X43861107Y-62087132D01*
X43882150Y-62074520D01*
X43904329Y-62064030D01*
X43927428Y-62055765D01*
X43951227Y-62049804D01*
X43975495Y-62046204D01*
X43999999Y-62045000D01*
X44900001Y-62045000D01*
X44924505Y-62046204D01*
X44924505Y-62046204D01*
G37*
D15*
X44450000Y-62620000D03*
D14*
G36*
X47464505Y-62046204D02*
G01*
X47488773Y-62049804D01*
X47512572Y-62055765D01*
X47535671Y-62064030D01*
X47557850Y-62074520D01*
X47578893Y-62087132D01*
X47598599Y-62101747D01*
X47616777Y-62118223D01*
X47633253Y-62136401D01*
X47647868Y-62156107D01*
X47660480Y-62177150D01*
X47670970Y-62199329D01*
X47679235Y-62222428D01*
X47685196Y-62246227D01*
X47688796Y-62270495D01*
X47690000Y-62294999D01*
X47690000Y-62945001D01*
X47688796Y-62969505D01*
X47685196Y-62993773D01*
X47679235Y-63017572D01*
X47670970Y-63040671D01*
X47660480Y-63062850D01*
X47647868Y-63083893D01*
X47633253Y-63103599D01*
X47616777Y-63121777D01*
X47598599Y-63138253D01*
X47578893Y-63152868D01*
X47557850Y-63165480D01*
X47535671Y-63175970D01*
X47512572Y-63184235D01*
X47488773Y-63190196D01*
X47464505Y-63193796D01*
X47440001Y-63195000D01*
X46539999Y-63195000D01*
X46515495Y-63193796D01*
X46491227Y-63190196D01*
X46467428Y-63184235D01*
X46444329Y-63175970D01*
X46422150Y-63165480D01*
X46401107Y-63152868D01*
X46381401Y-63138253D01*
X46363223Y-63121777D01*
X46346747Y-63103599D01*
X46332132Y-63083893D01*
X46319520Y-63062850D01*
X46309030Y-63040671D01*
X46300765Y-63017572D01*
X46294804Y-62993773D01*
X46291204Y-62969505D01*
X46290000Y-62945001D01*
X46290000Y-62294999D01*
X46291204Y-62270495D01*
X46294804Y-62246227D01*
X46300765Y-62222428D01*
X46309030Y-62199329D01*
X46319520Y-62177150D01*
X46332132Y-62156107D01*
X46346747Y-62136401D01*
X46363223Y-62118223D01*
X46381401Y-62101747D01*
X46401107Y-62087132D01*
X46422150Y-62074520D01*
X46444329Y-62064030D01*
X46467428Y-62055765D01*
X46491227Y-62049804D01*
X46515495Y-62046204D01*
X46539999Y-62045000D01*
X47440001Y-62045000D01*
X47464505Y-62046204D01*
X47464505Y-62046204D01*
G37*
D15*
X46990000Y-62620000D03*
D14*
G36*
X47464505Y-59996204D02*
G01*
X47488773Y-59999804D01*
X47512572Y-60005765D01*
X47535671Y-60014030D01*
X47557850Y-60024520D01*
X47578893Y-60037132D01*
X47598599Y-60051747D01*
X47616777Y-60068223D01*
X47633253Y-60086401D01*
X47647868Y-60106107D01*
X47660480Y-60127150D01*
X47670970Y-60149329D01*
X47679235Y-60172428D01*
X47685196Y-60196227D01*
X47688796Y-60220495D01*
X47690000Y-60244999D01*
X47690000Y-60895001D01*
X47688796Y-60919505D01*
X47685196Y-60943773D01*
X47679235Y-60967572D01*
X47670970Y-60990671D01*
X47660480Y-61012850D01*
X47647868Y-61033893D01*
X47633253Y-61053599D01*
X47616777Y-61071777D01*
X47598599Y-61088253D01*
X47578893Y-61102868D01*
X47557850Y-61115480D01*
X47535671Y-61125970D01*
X47512572Y-61134235D01*
X47488773Y-61140196D01*
X47464505Y-61143796D01*
X47440001Y-61145000D01*
X46539999Y-61145000D01*
X46515495Y-61143796D01*
X46491227Y-61140196D01*
X46467428Y-61134235D01*
X46444329Y-61125970D01*
X46422150Y-61115480D01*
X46401107Y-61102868D01*
X46381401Y-61088253D01*
X46363223Y-61071777D01*
X46346747Y-61053599D01*
X46332132Y-61033893D01*
X46319520Y-61012850D01*
X46309030Y-60990671D01*
X46300765Y-60967572D01*
X46294804Y-60943773D01*
X46291204Y-60919505D01*
X46290000Y-60895001D01*
X46290000Y-60244999D01*
X46291204Y-60220495D01*
X46294804Y-60196227D01*
X46300765Y-60172428D01*
X46309030Y-60149329D01*
X46319520Y-60127150D01*
X46332132Y-60106107D01*
X46346747Y-60086401D01*
X46363223Y-60068223D01*
X46381401Y-60051747D01*
X46401107Y-60037132D01*
X46422150Y-60024520D01*
X46444329Y-60014030D01*
X46467428Y-60005765D01*
X46491227Y-59999804D01*
X46515495Y-59996204D01*
X46539999Y-59995000D01*
X47440001Y-59995000D01*
X47464505Y-59996204D01*
X47464505Y-59996204D01*
G37*
D15*
X46990000Y-60570000D03*
D14*
G36*
X40479505Y-80461204D02*
G01*
X40503773Y-80464804D01*
X40527572Y-80470765D01*
X40550671Y-80479030D01*
X40572850Y-80489520D01*
X40593893Y-80502132D01*
X40613599Y-80516747D01*
X40631777Y-80533223D01*
X40648253Y-80551401D01*
X40662868Y-80571107D01*
X40675480Y-80592150D01*
X40685970Y-80614329D01*
X40694235Y-80637428D01*
X40700196Y-80661227D01*
X40703796Y-80685495D01*
X40705000Y-80709999D01*
X40705000Y-81360001D01*
X40703796Y-81384505D01*
X40700196Y-81408773D01*
X40694235Y-81432572D01*
X40685970Y-81455671D01*
X40675480Y-81477850D01*
X40662868Y-81498893D01*
X40648253Y-81518599D01*
X40631777Y-81536777D01*
X40613599Y-81553253D01*
X40593893Y-81567868D01*
X40572850Y-81580480D01*
X40550671Y-81590970D01*
X40527572Y-81599235D01*
X40503773Y-81605196D01*
X40479505Y-81608796D01*
X40455001Y-81610000D01*
X39554999Y-81610000D01*
X39530495Y-81608796D01*
X39506227Y-81605196D01*
X39482428Y-81599235D01*
X39459329Y-81590970D01*
X39437150Y-81580480D01*
X39416107Y-81567868D01*
X39396401Y-81553253D01*
X39378223Y-81536777D01*
X39361747Y-81518599D01*
X39347132Y-81498893D01*
X39334520Y-81477850D01*
X39324030Y-81455671D01*
X39315765Y-81432572D01*
X39309804Y-81408773D01*
X39306204Y-81384505D01*
X39305000Y-81360001D01*
X39305000Y-80709999D01*
X39306204Y-80685495D01*
X39309804Y-80661227D01*
X39315765Y-80637428D01*
X39324030Y-80614329D01*
X39334520Y-80592150D01*
X39347132Y-80571107D01*
X39361747Y-80551401D01*
X39378223Y-80533223D01*
X39396401Y-80516747D01*
X39416107Y-80502132D01*
X39437150Y-80489520D01*
X39459329Y-80479030D01*
X39482428Y-80470765D01*
X39506227Y-80464804D01*
X39530495Y-80461204D01*
X39554999Y-80460000D01*
X40455001Y-80460000D01*
X40479505Y-80461204D01*
X40479505Y-80461204D01*
G37*
D15*
X40005000Y-81035000D03*
D14*
G36*
X40479505Y-78411204D02*
G01*
X40503773Y-78414804D01*
X40527572Y-78420765D01*
X40550671Y-78429030D01*
X40572850Y-78439520D01*
X40593893Y-78452132D01*
X40613599Y-78466747D01*
X40631777Y-78483223D01*
X40648253Y-78501401D01*
X40662868Y-78521107D01*
X40675480Y-78542150D01*
X40685970Y-78564329D01*
X40694235Y-78587428D01*
X40700196Y-78611227D01*
X40703796Y-78635495D01*
X40705000Y-78659999D01*
X40705000Y-79310001D01*
X40703796Y-79334505D01*
X40700196Y-79358773D01*
X40694235Y-79382572D01*
X40685970Y-79405671D01*
X40675480Y-79427850D01*
X40662868Y-79448893D01*
X40648253Y-79468599D01*
X40631777Y-79486777D01*
X40613599Y-79503253D01*
X40593893Y-79517868D01*
X40572850Y-79530480D01*
X40550671Y-79540970D01*
X40527572Y-79549235D01*
X40503773Y-79555196D01*
X40479505Y-79558796D01*
X40455001Y-79560000D01*
X39554999Y-79560000D01*
X39530495Y-79558796D01*
X39506227Y-79555196D01*
X39482428Y-79549235D01*
X39459329Y-79540970D01*
X39437150Y-79530480D01*
X39416107Y-79517868D01*
X39396401Y-79503253D01*
X39378223Y-79486777D01*
X39361747Y-79468599D01*
X39347132Y-79448893D01*
X39334520Y-79427850D01*
X39324030Y-79405671D01*
X39315765Y-79382572D01*
X39309804Y-79358773D01*
X39306204Y-79334505D01*
X39305000Y-79310001D01*
X39305000Y-78659999D01*
X39306204Y-78635495D01*
X39309804Y-78611227D01*
X39315765Y-78587428D01*
X39324030Y-78564329D01*
X39334520Y-78542150D01*
X39347132Y-78521107D01*
X39361747Y-78501401D01*
X39378223Y-78483223D01*
X39396401Y-78466747D01*
X39416107Y-78452132D01*
X39437150Y-78439520D01*
X39459329Y-78429030D01*
X39482428Y-78420765D01*
X39506227Y-78414804D01*
X39530495Y-78411204D01*
X39554999Y-78410000D01*
X40455001Y-78410000D01*
X40479505Y-78411204D01*
X40479505Y-78411204D01*
G37*
D15*
X40005000Y-78985000D03*
D14*
G36*
X43654505Y-78411204D02*
G01*
X43678773Y-78414804D01*
X43702572Y-78420765D01*
X43725671Y-78429030D01*
X43747850Y-78439520D01*
X43768893Y-78452132D01*
X43788599Y-78466747D01*
X43806777Y-78483223D01*
X43823253Y-78501401D01*
X43837868Y-78521107D01*
X43850480Y-78542150D01*
X43860970Y-78564329D01*
X43869235Y-78587428D01*
X43875196Y-78611227D01*
X43878796Y-78635495D01*
X43880000Y-78659999D01*
X43880000Y-79310001D01*
X43878796Y-79334505D01*
X43875196Y-79358773D01*
X43869235Y-79382572D01*
X43860970Y-79405671D01*
X43850480Y-79427850D01*
X43837868Y-79448893D01*
X43823253Y-79468599D01*
X43806777Y-79486777D01*
X43788599Y-79503253D01*
X43768893Y-79517868D01*
X43747850Y-79530480D01*
X43725671Y-79540970D01*
X43702572Y-79549235D01*
X43678773Y-79555196D01*
X43654505Y-79558796D01*
X43630001Y-79560000D01*
X42729999Y-79560000D01*
X42705495Y-79558796D01*
X42681227Y-79555196D01*
X42657428Y-79549235D01*
X42634329Y-79540970D01*
X42612150Y-79530480D01*
X42591107Y-79517868D01*
X42571401Y-79503253D01*
X42553223Y-79486777D01*
X42536747Y-79468599D01*
X42522132Y-79448893D01*
X42509520Y-79427850D01*
X42499030Y-79405671D01*
X42490765Y-79382572D01*
X42484804Y-79358773D01*
X42481204Y-79334505D01*
X42480000Y-79310001D01*
X42480000Y-78659999D01*
X42481204Y-78635495D01*
X42484804Y-78611227D01*
X42490765Y-78587428D01*
X42499030Y-78564329D01*
X42509520Y-78542150D01*
X42522132Y-78521107D01*
X42536747Y-78501401D01*
X42553223Y-78483223D01*
X42571401Y-78466747D01*
X42591107Y-78452132D01*
X42612150Y-78439520D01*
X42634329Y-78429030D01*
X42657428Y-78420765D01*
X42681227Y-78414804D01*
X42705495Y-78411204D01*
X42729999Y-78410000D01*
X43630001Y-78410000D01*
X43654505Y-78411204D01*
X43654505Y-78411204D01*
G37*
D15*
X43180000Y-78985000D03*
D14*
G36*
X43654505Y-80461204D02*
G01*
X43678773Y-80464804D01*
X43702572Y-80470765D01*
X43725671Y-80479030D01*
X43747850Y-80489520D01*
X43768893Y-80502132D01*
X43788599Y-80516747D01*
X43806777Y-80533223D01*
X43823253Y-80551401D01*
X43837868Y-80571107D01*
X43850480Y-80592150D01*
X43860970Y-80614329D01*
X43869235Y-80637428D01*
X43875196Y-80661227D01*
X43878796Y-80685495D01*
X43880000Y-80709999D01*
X43880000Y-81360001D01*
X43878796Y-81384505D01*
X43875196Y-81408773D01*
X43869235Y-81432572D01*
X43860970Y-81455671D01*
X43850480Y-81477850D01*
X43837868Y-81498893D01*
X43823253Y-81518599D01*
X43806777Y-81536777D01*
X43788599Y-81553253D01*
X43768893Y-81567868D01*
X43747850Y-81580480D01*
X43725671Y-81590970D01*
X43702572Y-81599235D01*
X43678773Y-81605196D01*
X43654505Y-81608796D01*
X43630001Y-81610000D01*
X42729999Y-81610000D01*
X42705495Y-81608796D01*
X42681227Y-81605196D01*
X42657428Y-81599235D01*
X42634329Y-81590970D01*
X42612150Y-81580480D01*
X42591107Y-81567868D01*
X42571401Y-81553253D01*
X42553223Y-81536777D01*
X42536747Y-81518599D01*
X42522132Y-81498893D01*
X42509520Y-81477850D01*
X42499030Y-81455671D01*
X42490765Y-81432572D01*
X42484804Y-81408773D01*
X42481204Y-81384505D01*
X42480000Y-81360001D01*
X42480000Y-80709999D01*
X42481204Y-80685495D01*
X42484804Y-80661227D01*
X42490765Y-80637428D01*
X42499030Y-80614329D01*
X42509520Y-80592150D01*
X42522132Y-80571107D01*
X42536747Y-80551401D01*
X42553223Y-80533223D01*
X42571401Y-80516747D01*
X42591107Y-80502132D01*
X42612150Y-80489520D01*
X42634329Y-80479030D01*
X42657428Y-80470765D01*
X42681227Y-80464804D01*
X42705495Y-80461204D01*
X42729999Y-80460000D01*
X43630001Y-80460000D01*
X43654505Y-80461204D01*
X43654505Y-80461204D01*
G37*
D15*
X43180000Y-81035000D03*
D14*
G36*
X70959505Y-85396204D02*
G01*
X70983773Y-85399804D01*
X71007572Y-85405765D01*
X71030671Y-85414030D01*
X71052850Y-85424520D01*
X71073893Y-85437132D01*
X71093599Y-85451747D01*
X71111777Y-85468223D01*
X71128253Y-85486401D01*
X71142868Y-85506107D01*
X71155480Y-85527150D01*
X71165970Y-85549329D01*
X71174235Y-85572428D01*
X71180196Y-85596227D01*
X71183796Y-85620495D01*
X71185000Y-85644999D01*
X71185000Y-86295001D01*
X71183796Y-86319505D01*
X71180196Y-86343773D01*
X71174235Y-86367572D01*
X71165970Y-86390671D01*
X71155480Y-86412850D01*
X71142868Y-86433893D01*
X71128253Y-86453599D01*
X71111777Y-86471777D01*
X71093599Y-86488253D01*
X71073893Y-86502868D01*
X71052850Y-86515480D01*
X71030671Y-86525970D01*
X71007572Y-86534235D01*
X70983773Y-86540196D01*
X70959505Y-86543796D01*
X70935001Y-86545000D01*
X70034999Y-86545000D01*
X70010495Y-86543796D01*
X69986227Y-86540196D01*
X69962428Y-86534235D01*
X69939329Y-86525970D01*
X69917150Y-86515480D01*
X69896107Y-86502868D01*
X69876401Y-86488253D01*
X69858223Y-86471777D01*
X69841747Y-86453599D01*
X69827132Y-86433893D01*
X69814520Y-86412850D01*
X69804030Y-86390671D01*
X69795765Y-86367572D01*
X69789804Y-86343773D01*
X69786204Y-86319505D01*
X69785000Y-86295001D01*
X69785000Y-85644999D01*
X69786204Y-85620495D01*
X69789804Y-85596227D01*
X69795765Y-85572428D01*
X69804030Y-85549329D01*
X69814520Y-85527150D01*
X69827132Y-85506107D01*
X69841747Y-85486401D01*
X69858223Y-85468223D01*
X69876401Y-85451747D01*
X69896107Y-85437132D01*
X69917150Y-85424520D01*
X69939329Y-85414030D01*
X69962428Y-85405765D01*
X69986227Y-85399804D01*
X70010495Y-85396204D01*
X70034999Y-85395000D01*
X70935001Y-85395000D01*
X70959505Y-85396204D01*
X70959505Y-85396204D01*
G37*
D15*
X70485000Y-85970000D03*
D14*
G36*
X70959505Y-87446204D02*
G01*
X70983773Y-87449804D01*
X71007572Y-87455765D01*
X71030671Y-87464030D01*
X71052850Y-87474520D01*
X71073893Y-87487132D01*
X71093599Y-87501747D01*
X71111777Y-87518223D01*
X71128253Y-87536401D01*
X71142868Y-87556107D01*
X71155480Y-87577150D01*
X71165970Y-87599329D01*
X71174235Y-87622428D01*
X71180196Y-87646227D01*
X71183796Y-87670495D01*
X71185000Y-87694999D01*
X71185000Y-88345001D01*
X71183796Y-88369505D01*
X71180196Y-88393773D01*
X71174235Y-88417572D01*
X71165970Y-88440671D01*
X71155480Y-88462850D01*
X71142868Y-88483893D01*
X71128253Y-88503599D01*
X71111777Y-88521777D01*
X71093599Y-88538253D01*
X71073893Y-88552868D01*
X71052850Y-88565480D01*
X71030671Y-88575970D01*
X71007572Y-88584235D01*
X70983773Y-88590196D01*
X70959505Y-88593796D01*
X70935001Y-88595000D01*
X70034999Y-88595000D01*
X70010495Y-88593796D01*
X69986227Y-88590196D01*
X69962428Y-88584235D01*
X69939329Y-88575970D01*
X69917150Y-88565480D01*
X69896107Y-88552868D01*
X69876401Y-88538253D01*
X69858223Y-88521777D01*
X69841747Y-88503599D01*
X69827132Y-88483893D01*
X69814520Y-88462850D01*
X69804030Y-88440671D01*
X69795765Y-88417572D01*
X69789804Y-88393773D01*
X69786204Y-88369505D01*
X69785000Y-88345001D01*
X69785000Y-87694999D01*
X69786204Y-87670495D01*
X69789804Y-87646227D01*
X69795765Y-87622428D01*
X69804030Y-87599329D01*
X69814520Y-87577150D01*
X69827132Y-87556107D01*
X69841747Y-87536401D01*
X69858223Y-87518223D01*
X69876401Y-87501747D01*
X69896107Y-87487132D01*
X69917150Y-87474520D01*
X69939329Y-87464030D01*
X69962428Y-87455765D01*
X69986227Y-87449804D01*
X70010495Y-87446204D01*
X70034999Y-87445000D01*
X70935001Y-87445000D01*
X70959505Y-87446204D01*
X70959505Y-87446204D01*
G37*
D15*
X70485000Y-88020000D03*
D14*
G36*
X58399505Y-85026204D02*
G01*
X58423773Y-85029804D01*
X58447572Y-85035765D01*
X58470671Y-85044030D01*
X58492850Y-85054520D01*
X58513893Y-85067132D01*
X58533599Y-85081747D01*
X58551777Y-85098223D01*
X58568253Y-85116401D01*
X58582868Y-85136107D01*
X58595480Y-85157150D01*
X58605970Y-85179329D01*
X58614235Y-85202428D01*
X58620196Y-85226227D01*
X58623796Y-85250495D01*
X58625000Y-85274999D01*
X58625000Y-86175001D01*
X58623796Y-86199505D01*
X58620196Y-86223773D01*
X58614235Y-86247572D01*
X58605970Y-86270671D01*
X58595480Y-86292850D01*
X58582868Y-86313893D01*
X58568253Y-86333599D01*
X58551777Y-86351777D01*
X58533599Y-86368253D01*
X58513893Y-86382868D01*
X58492850Y-86395480D01*
X58470671Y-86405970D01*
X58447572Y-86414235D01*
X58423773Y-86420196D01*
X58399505Y-86423796D01*
X58375001Y-86425000D01*
X57724999Y-86425000D01*
X57700495Y-86423796D01*
X57676227Y-86420196D01*
X57652428Y-86414235D01*
X57629329Y-86405970D01*
X57607150Y-86395480D01*
X57586107Y-86382868D01*
X57566401Y-86368253D01*
X57548223Y-86351777D01*
X57531747Y-86333599D01*
X57517132Y-86313893D01*
X57504520Y-86292850D01*
X57494030Y-86270671D01*
X57485765Y-86247572D01*
X57479804Y-86223773D01*
X57476204Y-86199505D01*
X57475000Y-86175001D01*
X57475000Y-85274999D01*
X57476204Y-85250495D01*
X57479804Y-85226227D01*
X57485765Y-85202428D01*
X57494030Y-85179329D01*
X57504520Y-85157150D01*
X57517132Y-85136107D01*
X57531747Y-85116401D01*
X57548223Y-85098223D01*
X57566401Y-85081747D01*
X57586107Y-85067132D01*
X57607150Y-85054520D01*
X57629329Y-85044030D01*
X57652428Y-85035765D01*
X57676227Y-85029804D01*
X57700495Y-85026204D01*
X57724999Y-85025000D01*
X58375001Y-85025000D01*
X58399505Y-85026204D01*
X58399505Y-85026204D01*
G37*
D15*
X58050000Y-85725000D03*
D14*
G36*
X60449505Y-85026204D02*
G01*
X60473773Y-85029804D01*
X60497572Y-85035765D01*
X60520671Y-85044030D01*
X60542850Y-85054520D01*
X60563893Y-85067132D01*
X60583599Y-85081747D01*
X60601777Y-85098223D01*
X60618253Y-85116401D01*
X60632868Y-85136107D01*
X60645480Y-85157150D01*
X60655970Y-85179329D01*
X60664235Y-85202428D01*
X60670196Y-85226227D01*
X60673796Y-85250495D01*
X60675000Y-85274999D01*
X60675000Y-86175001D01*
X60673796Y-86199505D01*
X60670196Y-86223773D01*
X60664235Y-86247572D01*
X60655970Y-86270671D01*
X60645480Y-86292850D01*
X60632868Y-86313893D01*
X60618253Y-86333599D01*
X60601777Y-86351777D01*
X60583599Y-86368253D01*
X60563893Y-86382868D01*
X60542850Y-86395480D01*
X60520671Y-86405970D01*
X60497572Y-86414235D01*
X60473773Y-86420196D01*
X60449505Y-86423796D01*
X60425001Y-86425000D01*
X59774999Y-86425000D01*
X59750495Y-86423796D01*
X59726227Y-86420196D01*
X59702428Y-86414235D01*
X59679329Y-86405970D01*
X59657150Y-86395480D01*
X59636107Y-86382868D01*
X59616401Y-86368253D01*
X59598223Y-86351777D01*
X59581747Y-86333599D01*
X59567132Y-86313893D01*
X59554520Y-86292850D01*
X59544030Y-86270671D01*
X59535765Y-86247572D01*
X59529804Y-86223773D01*
X59526204Y-86199505D01*
X59525000Y-86175001D01*
X59525000Y-85274999D01*
X59526204Y-85250495D01*
X59529804Y-85226227D01*
X59535765Y-85202428D01*
X59544030Y-85179329D01*
X59554520Y-85157150D01*
X59567132Y-85136107D01*
X59581747Y-85116401D01*
X59598223Y-85098223D01*
X59616401Y-85081747D01*
X59636107Y-85067132D01*
X59657150Y-85054520D01*
X59679329Y-85044030D01*
X59702428Y-85035765D01*
X59726227Y-85029804D01*
X59750495Y-85026204D01*
X59774999Y-85025000D01*
X60425001Y-85025000D01*
X60449505Y-85026204D01*
X60449505Y-85026204D01*
G37*
D15*
X60100000Y-85725000D03*
D14*
G36*
X76939505Y-90106204D02*
G01*
X76963773Y-90109804D01*
X76987572Y-90115765D01*
X77010671Y-90124030D01*
X77032850Y-90134520D01*
X77053893Y-90147132D01*
X77073599Y-90161747D01*
X77091777Y-90178223D01*
X77108253Y-90196401D01*
X77122868Y-90216107D01*
X77135480Y-90237150D01*
X77145970Y-90259329D01*
X77154235Y-90282428D01*
X77160196Y-90306227D01*
X77163796Y-90330495D01*
X77165000Y-90354999D01*
X77165000Y-91255001D01*
X77163796Y-91279505D01*
X77160196Y-91303773D01*
X77154235Y-91327572D01*
X77145970Y-91350671D01*
X77135480Y-91372850D01*
X77122868Y-91393893D01*
X77108253Y-91413599D01*
X77091777Y-91431777D01*
X77073599Y-91448253D01*
X77053893Y-91462868D01*
X77032850Y-91475480D01*
X77010671Y-91485970D01*
X76987572Y-91494235D01*
X76963773Y-91500196D01*
X76939505Y-91503796D01*
X76915001Y-91505000D01*
X76264999Y-91505000D01*
X76240495Y-91503796D01*
X76216227Y-91500196D01*
X76192428Y-91494235D01*
X76169329Y-91485970D01*
X76147150Y-91475480D01*
X76126107Y-91462868D01*
X76106401Y-91448253D01*
X76088223Y-91431777D01*
X76071747Y-91413599D01*
X76057132Y-91393893D01*
X76044520Y-91372850D01*
X76034030Y-91350671D01*
X76025765Y-91327572D01*
X76019804Y-91303773D01*
X76016204Y-91279505D01*
X76015000Y-91255001D01*
X76015000Y-90354999D01*
X76016204Y-90330495D01*
X76019804Y-90306227D01*
X76025765Y-90282428D01*
X76034030Y-90259329D01*
X76044520Y-90237150D01*
X76057132Y-90216107D01*
X76071747Y-90196401D01*
X76088223Y-90178223D01*
X76106401Y-90161747D01*
X76126107Y-90147132D01*
X76147150Y-90134520D01*
X76169329Y-90124030D01*
X76192428Y-90115765D01*
X76216227Y-90109804D01*
X76240495Y-90106204D01*
X76264999Y-90105000D01*
X76915001Y-90105000D01*
X76939505Y-90106204D01*
X76939505Y-90106204D01*
G37*
D15*
X76590000Y-90805000D03*
D14*
G36*
X74889505Y-90106204D02*
G01*
X74913773Y-90109804D01*
X74937572Y-90115765D01*
X74960671Y-90124030D01*
X74982850Y-90134520D01*
X75003893Y-90147132D01*
X75023599Y-90161747D01*
X75041777Y-90178223D01*
X75058253Y-90196401D01*
X75072868Y-90216107D01*
X75085480Y-90237150D01*
X75095970Y-90259329D01*
X75104235Y-90282428D01*
X75110196Y-90306227D01*
X75113796Y-90330495D01*
X75115000Y-90354999D01*
X75115000Y-91255001D01*
X75113796Y-91279505D01*
X75110196Y-91303773D01*
X75104235Y-91327572D01*
X75095970Y-91350671D01*
X75085480Y-91372850D01*
X75072868Y-91393893D01*
X75058253Y-91413599D01*
X75041777Y-91431777D01*
X75023599Y-91448253D01*
X75003893Y-91462868D01*
X74982850Y-91475480D01*
X74960671Y-91485970D01*
X74937572Y-91494235D01*
X74913773Y-91500196D01*
X74889505Y-91503796D01*
X74865001Y-91505000D01*
X74214999Y-91505000D01*
X74190495Y-91503796D01*
X74166227Y-91500196D01*
X74142428Y-91494235D01*
X74119329Y-91485970D01*
X74097150Y-91475480D01*
X74076107Y-91462868D01*
X74056401Y-91448253D01*
X74038223Y-91431777D01*
X74021747Y-91413599D01*
X74007132Y-91393893D01*
X73994520Y-91372850D01*
X73984030Y-91350671D01*
X73975765Y-91327572D01*
X73969804Y-91303773D01*
X73966204Y-91279505D01*
X73965000Y-91255001D01*
X73965000Y-90354999D01*
X73966204Y-90330495D01*
X73969804Y-90306227D01*
X73975765Y-90282428D01*
X73984030Y-90259329D01*
X73994520Y-90237150D01*
X74007132Y-90216107D01*
X74021747Y-90196401D01*
X74038223Y-90178223D01*
X74056401Y-90161747D01*
X74076107Y-90147132D01*
X74097150Y-90134520D01*
X74119329Y-90124030D01*
X74142428Y-90115765D01*
X74166227Y-90109804D01*
X74190495Y-90106204D01*
X74214999Y-90105000D01*
X74865001Y-90105000D01*
X74889505Y-90106204D01*
X74889505Y-90106204D01*
G37*
D15*
X74540000Y-90805000D03*
D14*
G36*
X78167802Y-81135482D02*
G01*
X78177509Y-81136921D01*
X78187028Y-81139306D01*
X78196268Y-81142612D01*
X78205140Y-81146808D01*
X78213557Y-81151853D01*
X78221439Y-81157699D01*
X78228711Y-81164289D01*
X78235301Y-81171561D01*
X78241147Y-81179443D01*
X78246192Y-81187860D01*
X78250388Y-81196732D01*
X78253694Y-81205972D01*
X78256079Y-81215491D01*
X78257518Y-81225198D01*
X78258000Y-81235000D01*
X78258000Y-82135000D01*
X78257518Y-82144802D01*
X78256079Y-82154509D01*
X78253694Y-82164028D01*
X78250388Y-82173268D01*
X78246192Y-82182140D01*
X78241147Y-82190557D01*
X78235301Y-82198439D01*
X78228711Y-82205711D01*
X78221439Y-82212301D01*
X78213557Y-82218147D01*
X78205140Y-82223192D01*
X78196268Y-82227388D01*
X78187028Y-82230694D01*
X78177509Y-82233079D01*
X78167802Y-82234518D01*
X78158000Y-82235000D01*
X77358000Y-82235000D01*
X77348198Y-82234518D01*
X77338491Y-82233079D01*
X77328972Y-82230694D01*
X77319732Y-82227388D01*
X77310860Y-82223192D01*
X77302443Y-82218147D01*
X77294561Y-82212301D01*
X77287289Y-82205711D01*
X77280699Y-82198439D01*
X77274853Y-82190557D01*
X77269808Y-82182140D01*
X77265612Y-82173268D01*
X77262306Y-82164028D01*
X77259921Y-82154509D01*
X77258482Y-82144802D01*
X77258000Y-82135000D01*
X77258000Y-81235000D01*
X77258482Y-81225198D01*
X77259921Y-81215491D01*
X77262306Y-81205972D01*
X77265612Y-81196732D01*
X77269808Y-81187860D01*
X77274853Y-81179443D01*
X77280699Y-81171561D01*
X77287289Y-81164289D01*
X77294561Y-81157699D01*
X77302443Y-81151853D01*
X77310860Y-81146808D01*
X77319732Y-81142612D01*
X77328972Y-81139306D01*
X77338491Y-81136921D01*
X77348198Y-81135482D01*
X77358000Y-81135000D01*
X78158000Y-81135000D01*
X78167802Y-81135482D01*
X78167802Y-81135482D01*
G37*
D16*
X77758000Y-81685000D03*
D14*
G36*
X78167802Y-84135482D02*
G01*
X78177509Y-84136921D01*
X78187028Y-84139306D01*
X78196268Y-84142612D01*
X78205140Y-84146808D01*
X78213557Y-84151853D01*
X78221439Y-84157699D01*
X78228711Y-84164289D01*
X78235301Y-84171561D01*
X78241147Y-84179443D01*
X78246192Y-84187860D01*
X78250388Y-84196732D01*
X78253694Y-84205972D01*
X78256079Y-84215491D01*
X78257518Y-84225198D01*
X78258000Y-84235000D01*
X78258000Y-85135000D01*
X78257518Y-85144802D01*
X78256079Y-85154509D01*
X78253694Y-85164028D01*
X78250388Y-85173268D01*
X78246192Y-85182140D01*
X78241147Y-85190557D01*
X78235301Y-85198439D01*
X78228711Y-85205711D01*
X78221439Y-85212301D01*
X78213557Y-85218147D01*
X78205140Y-85223192D01*
X78196268Y-85227388D01*
X78187028Y-85230694D01*
X78177509Y-85233079D01*
X78167802Y-85234518D01*
X78158000Y-85235000D01*
X77358000Y-85235000D01*
X77348198Y-85234518D01*
X77338491Y-85233079D01*
X77328972Y-85230694D01*
X77319732Y-85227388D01*
X77310860Y-85223192D01*
X77302443Y-85218147D01*
X77294561Y-85212301D01*
X77287289Y-85205711D01*
X77280699Y-85198439D01*
X77274853Y-85190557D01*
X77269808Y-85182140D01*
X77265612Y-85173268D01*
X77262306Y-85164028D01*
X77259921Y-85154509D01*
X77258482Y-85144802D01*
X77258000Y-85135000D01*
X77258000Y-84235000D01*
X77258482Y-84225198D01*
X77259921Y-84215491D01*
X77262306Y-84205972D01*
X77265612Y-84196732D01*
X77269808Y-84187860D01*
X77274853Y-84179443D01*
X77280699Y-84171561D01*
X77287289Y-84164289D01*
X77294561Y-84157699D01*
X77302443Y-84151853D01*
X77310860Y-84146808D01*
X77319732Y-84142612D01*
X77328972Y-84139306D01*
X77338491Y-84136921D01*
X77348198Y-84135482D01*
X77358000Y-84135000D01*
X78158000Y-84135000D01*
X78167802Y-84135482D01*
X78167802Y-84135482D01*
G37*
D16*
X77758000Y-84685000D03*
D17*
X76608000Y-79585000D03*
X76608000Y-86785000D03*
D18*
X73158000Y-86785000D03*
X73158000Y-79585000D03*
D14*
G36*
X74112901Y-84285241D02*
G01*
X74117755Y-84285961D01*
X74122514Y-84287153D01*
X74127134Y-84288806D01*
X74131570Y-84290904D01*
X74135779Y-84293427D01*
X74139720Y-84296349D01*
X74143355Y-84299645D01*
X74146651Y-84303280D01*
X74149573Y-84307221D01*
X74152096Y-84311430D01*
X74154194Y-84315866D01*
X74155847Y-84320486D01*
X74157039Y-84325245D01*
X74157759Y-84330099D01*
X74158000Y-84335000D01*
X74158000Y-84635000D01*
X74157759Y-84639901D01*
X74157039Y-84644755D01*
X74155847Y-84649514D01*
X74154194Y-84654134D01*
X74152096Y-84658570D01*
X74149573Y-84662779D01*
X74146651Y-84666720D01*
X74143355Y-84670355D01*
X74139720Y-84673651D01*
X74135779Y-84676573D01*
X74131570Y-84679096D01*
X74127134Y-84681194D01*
X74122514Y-84682847D01*
X74117755Y-84684039D01*
X74112901Y-84684759D01*
X74108000Y-84685000D01*
X72608000Y-84685000D01*
X72603099Y-84684759D01*
X72598245Y-84684039D01*
X72593486Y-84682847D01*
X72588866Y-84681194D01*
X72584430Y-84679096D01*
X72580221Y-84676573D01*
X72576280Y-84673651D01*
X72572645Y-84670355D01*
X72569349Y-84666720D01*
X72566427Y-84662779D01*
X72563904Y-84658570D01*
X72561806Y-84654134D01*
X72560153Y-84649514D01*
X72558961Y-84644755D01*
X72558241Y-84639901D01*
X72558000Y-84635000D01*
X72558000Y-84335000D01*
X72558241Y-84330099D01*
X72558961Y-84325245D01*
X72560153Y-84320486D01*
X72561806Y-84315866D01*
X72563904Y-84311430D01*
X72566427Y-84307221D01*
X72569349Y-84303280D01*
X72572645Y-84299645D01*
X72576280Y-84296349D01*
X72580221Y-84293427D01*
X72584430Y-84290904D01*
X72588866Y-84288806D01*
X72593486Y-84287153D01*
X72598245Y-84285961D01*
X72603099Y-84285241D01*
X72608000Y-84285000D01*
X74108000Y-84285000D01*
X74112901Y-84285241D01*
X74112901Y-84285241D01*
G37*
D19*
X73358000Y-84485000D03*
D14*
G36*
X74112901Y-82985241D02*
G01*
X74117755Y-82985961D01*
X74122514Y-82987153D01*
X74127134Y-82988806D01*
X74131570Y-82990904D01*
X74135779Y-82993427D01*
X74139720Y-82996349D01*
X74143355Y-82999645D01*
X74146651Y-83003280D01*
X74149573Y-83007221D01*
X74152096Y-83011430D01*
X74154194Y-83015866D01*
X74155847Y-83020486D01*
X74157039Y-83025245D01*
X74157759Y-83030099D01*
X74158000Y-83035000D01*
X74158000Y-83335000D01*
X74157759Y-83339901D01*
X74157039Y-83344755D01*
X74155847Y-83349514D01*
X74154194Y-83354134D01*
X74152096Y-83358570D01*
X74149573Y-83362779D01*
X74146651Y-83366720D01*
X74143355Y-83370355D01*
X74139720Y-83373651D01*
X74135779Y-83376573D01*
X74131570Y-83379096D01*
X74127134Y-83381194D01*
X74122514Y-83382847D01*
X74117755Y-83384039D01*
X74112901Y-83384759D01*
X74108000Y-83385000D01*
X72608000Y-83385000D01*
X72603099Y-83384759D01*
X72598245Y-83384039D01*
X72593486Y-83382847D01*
X72588866Y-83381194D01*
X72584430Y-83379096D01*
X72580221Y-83376573D01*
X72576280Y-83373651D01*
X72572645Y-83370355D01*
X72569349Y-83366720D01*
X72566427Y-83362779D01*
X72563904Y-83358570D01*
X72561806Y-83354134D01*
X72560153Y-83349514D01*
X72558961Y-83344755D01*
X72558241Y-83339901D01*
X72558000Y-83335000D01*
X72558000Y-83035000D01*
X72558241Y-83030099D01*
X72558961Y-83025245D01*
X72560153Y-83020486D01*
X72561806Y-83015866D01*
X72563904Y-83011430D01*
X72566427Y-83007221D01*
X72569349Y-83003280D01*
X72572645Y-82999645D01*
X72576280Y-82996349D01*
X72580221Y-82993427D01*
X72584430Y-82990904D01*
X72588866Y-82988806D01*
X72593486Y-82987153D01*
X72598245Y-82985961D01*
X72603099Y-82985241D01*
X72608000Y-82985000D01*
X74108000Y-82985000D01*
X74112901Y-82985241D01*
X74112901Y-82985241D01*
G37*
D19*
X73358000Y-83185000D03*
D14*
G36*
X74112901Y-83635241D02*
G01*
X74117755Y-83635961D01*
X74122514Y-83637153D01*
X74127134Y-83638806D01*
X74131570Y-83640904D01*
X74135779Y-83643427D01*
X74139720Y-83646349D01*
X74143355Y-83649645D01*
X74146651Y-83653280D01*
X74149573Y-83657221D01*
X74152096Y-83661430D01*
X74154194Y-83665866D01*
X74155847Y-83670486D01*
X74157039Y-83675245D01*
X74157759Y-83680099D01*
X74158000Y-83685000D01*
X74158000Y-83985000D01*
X74157759Y-83989901D01*
X74157039Y-83994755D01*
X74155847Y-83999514D01*
X74154194Y-84004134D01*
X74152096Y-84008570D01*
X74149573Y-84012779D01*
X74146651Y-84016720D01*
X74143355Y-84020355D01*
X74139720Y-84023651D01*
X74135779Y-84026573D01*
X74131570Y-84029096D01*
X74127134Y-84031194D01*
X74122514Y-84032847D01*
X74117755Y-84034039D01*
X74112901Y-84034759D01*
X74108000Y-84035000D01*
X72608000Y-84035000D01*
X72603099Y-84034759D01*
X72598245Y-84034039D01*
X72593486Y-84032847D01*
X72588866Y-84031194D01*
X72584430Y-84029096D01*
X72580221Y-84026573D01*
X72576280Y-84023651D01*
X72572645Y-84020355D01*
X72569349Y-84016720D01*
X72566427Y-84012779D01*
X72563904Y-84008570D01*
X72561806Y-84004134D01*
X72560153Y-83999514D01*
X72558961Y-83994755D01*
X72558241Y-83989901D01*
X72558000Y-83985000D01*
X72558000Y-83685000D01*
X72558241Y-83680099D01*
X72558961Y-83675245D01*
X72560153Y-83670486D01*
X72561806Y-83665866D01*
X72563904Y-83661430D01*
X72566427Y-83657221D01*
X72569349Y-83653280D01*
X72572645Y-83649645D01*
X72576280Y-83646349D01*
X72580221Y-83643427D01*
X72584430Y-83640904D01*
X72588866Y-83638806D01*
X72593486Y-83637153D01*
X72598245Y-83635961D01*
X72603099Y-83635241D01*
X72608000Y-83635000D01*
X74108000Y-83635000D01*
X74112901Y-83635241D01*
X74112901Y-83635241D01*
G37*
D19*
X73358000Y-83835000D03*
D14*
G36*
X74112901Y-82335241D02*
G01*
X74117755Y-82335961D01*
X74122514Y-82337153D01*
X74127134Y-82338806D01*
X74131570Y-82340904D01*
X74135779Y-82343427D01*
X74139720Y-82346349D01*
X74143355Y-82349645D01*
X74146651Y-82353280D01*
X74149573Y-82357221D01*
X74152096Y-82361430D01*
X74154194Y-82365866D01*
X74155847Y-82370486D01*
X74157039Y-82375245D01*
X74157759Y-82380099D01*
X74158000Y-82385000D01*
X74158000Y-82685000D01*
X74157759Y-82689901D01*
X74157039Y-82694755D01*
X74155847Y-82699514D01*
X74154194Y-82704134D01*
X74152096Y-82708570D01*
X74149573Y-82712779D01*
X74146651Y-82716720D01*
X74143355Y-82720355D01*
X74139720Y-82723651D01*
X74135779Y-82726573D01*
X74131570Y-82729096D01*
X74127134Y-82731194D01*
X74122514Y-82732847D01*
X74117755Y-82734039D01*
X74112901Y-82734759D01*
X74108000Y-82735000D01*
X72608000Y-82735000D01*
X72603099Y-82734759D01*
X72598245Y-82734039D01*
X72593486Y-82732847D01*
X72588866Y-82731194D01*
X72584430Y-82729096D01*
X72580221Y-82726573D01*
X72576280Y-82723651D01*
X72572645Y-82720355D01*
X72569349Y-82716720D01*
X72566427Y-82712779D01*
X72563904Y-82708570D01*
X72561806Y-82704134D01*
X72560153Y-82699514D01*
X72558961Y-82694755D01*
X72558241Y-82689901D01*
X72558000Y-82685000D01*
X72558000Y-82385000D01*
X72558241Y-82380099D01*
X72558961Y-82375245D01*
X72560153Y-82370486D01*
X72561806Y-82365866D01*
X72563904Y-82361430D01*
X72566427Y-82357221D01*
X72569349Y-82353280D01*
X72572645Y-82349645D01*
X72576280Y-82346349D01*
X72580221Y-82343427D01*
X72584430Y-82340904D01*
X72588866Y-82338806D01*
X72593486Y-82337153D01*
X72598245Y-82335961D01*
X72603099Y-82335241D01*
X72608000Y-82335000D01*
X74108000Y-82335000D01*
X74112901Y-82335241D01*
X74112901Y-82335241D01*
G37*
D19*
X73358000Y-82535000D03*
D14*
G36*
X74112901Y-81685241D02*
G01*
X74117755Y-81685961D01*
X74122514Y-81687153D01*
X74127134Y-81688806D01*
X74131570Y-81690904D01*
X74135779Y-81693427D01*
X74139720Y-81696349D01*
X74143355Y-81699645D01*
X74146651Y-81703280D01*
X74149573Y-81707221D01*
X74152096Y-81711430D01*
X74154194Y-81715866D01*
X74155847Y-81720486D01*
X74157039Y-81725245D01*
X74157759Y-81730099D01*
X74158000Y-81735000D01*
X74158000Y-82035000D01*
X74157759Y-82039901D01*
X74157039Y-82044755D01*
X74155847Y-82049514D01*
X74154194Y-82054134D01*
X74152096Y-82058570D01*
X74149573Y-82062779D01*
X74146651Y-82066720D01*
X74143355Y-82070355D01*
X74139720Y-82073651D01*
X74135779Y-82076573D01*
X74131570Y-82079096D01*
X74127134Y-82081194D01*
X74122514Y-82082847D01*
X74117755Y-82084039D01*
X74112901Y-82084759D01*
X74108000Y-82085000D01*
X72608000Y-82085000D01*
X72603099Y-82084759D01*
X72598245Y-82084039D01*
X72593486Y-82082847D01*
X72588866Y-82081194D01*
X72584430Y-82079096D01*
X72580221Y-82076573D01*
X72576280Y-82073651D01*
X72572645Y-82070355D01*
X72569349Y-82066720D01*
X72566427Y-82062779D01*
X72563904Y-82058570D01*
X72561806Y-82054134D01*
X72560153Y-82049514D01*
X72558961Y-82044755D01*
X72558241Y-82039901D01*
X72558000Y-82035000D01*
X72558000Y-81735000D01*
X72558241Y-81730099D01*
X72558961Y-81725245D01*
X72560153Y-81720486D01*
X72561806Y-81715866D01*
X72563904Y-81711430D01*
X72566427Y-81707221D01*
X72569349Y-81703280D01*
X72572645Y-81699645D01*
X72576280Y-81696349D01*
X72580221Y-81693427D01*
X72584430Y-81690904D01*
X72588866Y-81688806D01*
X72593486Y-81687153D01*
X72598245Y-81685961D01*
X72603099Y-81685241D01*
X72608000Y-81685000D01*
X74108000Y-81685000D01*
X74112901Y-81685241D01*
X74112901Y-81685241D01*
G37*
D19*
X73358000Y-81885000D03*
D10*
X73660000Y-60325000D03*
D11*
X76200000Y-60325000D03*
X73660000Y-62865000D03*
X76200000Y-62865000D03*
X73660000Y-65405000D03*
X76200000Y-65405000D03*
X73660000Y-67945000D03*
X76200000Y-67945000D03*
X73660000Y-70485000D03*
X76200000Y-70485000D03*
X73660000Y-73025000D03*
X76200000Y-73025000D03*
D14*
G36*
X67784505Y-87446204D02*
G01*
X67808773Y-87449804D01*
X67832572Y-87455765D01*
X67855671Y-87464030D01*
X67877850Y-87474520D01*
X67898893Y-87487132D01*
X67918599Y-87501747D01*
X67936777Y-87518223D01*
X67953253Y-87536401D01*
X67967868Y-87556107D01*
X67980480Y-87577150D01*
X67990970Y-87599329D01*
X67999235Y-87622428D01*
X68005196Y-87646227D01*
X68008796Y-87670495D01*
X68010000Y-87694999D01*
X68010000Y-88345001D01*
X68008796Y-88369505D01*
X68005196Y-88393773D01*
X67999235Y-88417572D01*
X67990970Y-88440671D01*
X67980480Y-88462850D01*
X67967868Y-88483893D01*
X67953253Y-88503599D01*
X67936777Y-88521777D01*
X67918599Y-88538253D01*
X67898893Y-88552868D01*
X67877850Y-88565480D01*
X67855671Y-88575970D01*
X67832572Y-88584235D01*
X67808773Y-88590196D01*
X67784505Y-88593796D01*
X67760001Y-88595000D01*
X66859999Y-88595000D01*
X66835495Y-88593796D01*
X66811227Y-88590196D01*
X66787428Y-88584235D01*
X66764329Y-88575970D01*
X66742150Y-88565480D01*
X66721107Y-88552868D01*
X66701401Y-88538253D01*
X66683223Y-88521777D01*
X66666747Y-88503599D01*
X66652132Y-88483893D01*
X66639520Y-88462850D01*
X66629030Y-88440671D01*
X66620765Y-88417572D01*
X66614804Y-88393773D01*
X66611204Y-88369505D01*
X66610000Y-88345001D01*
X66610000Y-87694999D01*
X66611204Y-87670495D01*
X66614804Y-87646227D01*
X66620765Y-87622428D01*
X66629030Y-87599329D01*
X66639520Y-87577150D01*
X66652132Y-87556107D01*
X66666747Y-87536401D01*
X66683223Y-87518223D01*
X66701401Y-87501747D01*
X66721107Y-87487132D01*
X66742150Y-87474520D01*
X66764329Y-87464030D01*
X66787428Y-87455765D01*
X66811227Y-87449804D01*
X66835495Y-87446204D01*
X66859999Y-87445000D01*
X67760001Y-87445000D01*
X67784505Y-87446204D01*
X67784505Y-87446204D01*
G37*
D15*
X67310000Y-88020000D03*
D14*
G36*
X67784505Y-85396204D02*
G01*
X67808773Y-85399804D01*
X67832572Y-85405765D01*
X67855671Y-85414030D01*
X67877850Y-85424520D01*
X67898893Y-85437132D01*
X67918599Y-85451747D01*
X67936777Y-85468223D01*
X67953253Y-85486401D01*
X67967868Y-85506107D01*
X67980480Y-85527150D01*
X67990970Y-85549329D01*
X67999235Y-85572428D01*
X68005196Y-85596227D01*
X68008796Y-85620495D01*
X68010000Y-85644999D01*
X68010000Y-86295001D01*
X68008796Y-86319505D01*
X68005196Y-86343773D01*
X67999235Y-86367572D01*
X67990970Y-86390671D01*
X67980480Y-86412850D01*
X67967868Y-86433893D01*
X67953253Y-86453599D01*
X67936777Y-86471777D01*
X67918599Y-86488253D01*
X67898893Y-86502868D01*
X67877850Y-86515480D01*
X67855671Y-86525970D01*
X67832572Y-86534235D01*
X67808773Y-86540196D01*
X67784505Y-86543796D01*
X67760001Y-86545000D01*
X66859999Y-86545000D01*
X66835495Y-86543796D01*
X66811227Y-86540196D01*
X66787428Y-86534235D01*
X66764329Y-86525970D01*
X66742150Y-86515480D01*
X66721107Y-86502868D01*
X66701401Y-86488253D01*
X66683223Y-86471777D01*
X66666747Y-86453599D01*
X66652132Y-86433893D01*
X66639520Y-86412850D01*
X66629030Y-86390671D01*
X66620765Y-86367572D01*
X66614804Y-86343773D01*
X66611204Y-86319505D01*
X66610000Y-86295001D01*
X66610000Y-85644999D01*
X66611204Y-85620495D01*
X66614804Y-85596227D01*
X66620765Y-85572428D01*
X66629030Y-85549329D01*
X66639520Y-85527150D01*
X66652132Y-85506107D01*
X66666747Y-85486401D01*
X66683223Y-85468223D01*
X66701401Y-85451747D01*
X66721107Y-85437132D01*
X66742150Y-85424520D01*
X66764329Y-85414030D01*
X66787428Y-85405765D01*
X66811227Y-85399804D01*
X66835495Y-85396204D01*
X66859999Y-85395000D01*
X67760001Y-85395000D01*
X67784505Y-85396204D01*
X67784505Y-85396204D01*
G37*
D15*
X67310000Y-85970000D03*
D20*
X39690000Y-63095000D03*
X41590000Y-63095000D03*
X40640000Y-60095000D03*
X47940000Y-78510000D03*
X46040000Y-78510000D03*
X46990000Y-81510000D03*
X40640000Y-75795000D03*
X39690000Y-72795000D03*
X41590000Y-72795000D03*
D14*
G36*
X44289505Y-66346204D02*
G01*
X44313773Y-66349804D01*
X44337572Y-66355765D01*
X44360671Y-66364030D01*
X44382850Y-66374520D01*
X44403893Y-66387132D01*
X44423599Y-66401747D01*
X44441777Y-66418223D01*
X44458253Y-66436401D01*
X44472868Y-66456107D01*
X44485480Y-66477150D01*
X44495970Y-66499329D01*
X44504235Y-66522428D01*
X44510196Y-66546227D01*
X44513796Y-66570495D01*
X44515000Y-66594999D01*
X44515000Y-67245001D01*
X44513796Y-67269505D01*
X44510196Y-67293773D01*
X44504235Y-67317572D01*
X44495970Y-67340671D01*
X44485480Y-67362850D01*
X44472868Y-67383893D01*
X44458253Y-67403599D01*
X44441777Y-67421777D01*
X44423599Y-67438253D01*
X44403893Y-67452868D01*
X44382850Y-67465480D01*
X44360671Y-67475970D01*
X44337572Y-67484235D01*
X44313773Y-67490196D01*
X44289505Y-67493796D01*
X44265001Y-67495000D01*
X43364999Y-67495000D01*
X43340495Y-67493796D01*
X43316227Y-67490196D01*
X43292428Y-67484235D01*
X43269329Y-67475970D01*
X43247150Y-67465480D01*
X43226107Y-67452868D01*
X43206401Y-67438253D01*
X43188223Y-67421777D01*
X43171747Y-67403599D01*
X43157132Y-67383893D01*
X43144520Y-67362850D01*
X43134030Y-67340671D01*
X43125765Y-67317572D01*
X43119804Y-67293773D01*
X43116204Y-67269505D01*
X43115000Y-67245001D01*
X43115000Y-66594999D01*
X43116204Y-66570495D01*
X43119804Y-66546227D01*
X43125765Y-66522428D01*
X43134030Y-66499329D01*
X43144520Y-66477150D01*
X43157132Y-66456107D01*
X43171747Y-66436401D01*
X43188223Y-66418223D01*
X43206401Y-66401747D01*
X43226107Y-66387132D01*
X43247150Y-66374520D01*
X43269329Y-66364030D01*
X43292428Y-66355765D01*
X43316227Y-66349804D01*
X43340495Y-66346204D01*
X43364999Y-66345000D01*
X44265001Y-66345000D01*
X44289505Y-66346204D01*
X44289505Y-66346204D01*
G37*
D15*
X43815000Y-66920000D03*
D14*
G36*
X44289505Y-68396204D02*
G01*
X44313773Y-68399804D01*
X44337572Y-68405765D01*
X44360671Y-68414030D01*
X44382850Y-68424520D01*
X44403893Y-68437132D01*
X44423599Y-68451747D01*
X44441777Y-68468223D01*
X44458253Y-68486401D01*
X44472868Y-68506107D01*
X44485480Y-68527150D01*
X44495970Y-68549329D01*
X44504235Y-68572428D01*
X44510196Y-68596227D01*
X44513796Y-68620495D01*
X44515000Y-68644999D01*
X44515000Y-69295001D01*
X44513796Y-69319505D01*
X44510196Y-69343773D01*
X44504235Y-69367572D01*
X44495970Y-69390671D01*
X44485480Y-69412850D01*
X44472868Y-69433893D01*
X44458253Y-69453599D01*
X44441777Y-69471777D01*
X44423599Y-69488253D01*
X44403893Y-69502868D01*
X44382850Y-69515480D01*
X44360671Y-69525970D01*
X44337572Y-69534235D01*
X44313773Y-69540196D01*
X44289505Y-69543796D01*
X44265001Y-69545000D01*
X43364999Y-69545000D01*
X43340495Y-69543796D01*
X43316227Y-69540196D01*
X43292428Y-69534235D01*
X43269329Y-69525970D01*
X43247150Y-69515480D01*
X43226107Y-69502868D01*
X43206401Y-69488253D01*
X43188223Y-69471777D01*
X43171747Y-69453599D01*
X43157132Y-69433893D01*
X43144520Y-69412850D01*
X43134030Y-69390671D01*
X43125765Y-69367572D01*
X43119804Y-69343773D01*
X43116204Y-69319505D01*
X43115000Y-69295001D01*
X43115000Y-68644999D01*
X43116204Y-68620495D01*
X43119804Y-68596227D01*
X43125765Y-68572428D01*
X43134030Y-68549329D01*
X43144520Y-68527150D01*
X43157132Y-68506107D01*
X43171747Y-68486401D01*
X43188223Y-68468223D01*
X43206401Y-68451747D01*
X43226107Y-68437132D01*
X43247150Y-68424520D01*
X43269329Y-68414030D01*
X43292428Y-68405765D01*
X43316227Y-68399804D01*
X43340495Y-68396204D01*
X43364999Y-68395000D01*
X44265001Y-68395000D01*
X44289505Y-68396204D01*
X44289505Y-68396204D01*
G37*
D15*
X43815000Y-68970000D03*
D14*
G36*
X40479505Y-68396204D02*
G01*
X40503773Y-68399804D01*
X40527572Y-68405765D01*
X40550671Y-68414030D01*
X40572850Y-68424520D01*
X40593893Y-68437132D01*
X40613599Y-68451747D01*
X40631777Y-68468223D01*
X40648253Y-68486401D01*
X40662868Y-68506107D01*
X40675480Y-68527150D01*
X40685970Y-68549329D01*
X40694235Y-68572428D01*
X40700196Y-68596227D01*
X40703796Y-68620495D01*
X40705000Y-68644999D01*
X40705000Y-69295001D01*
X40703796Y-69319505D01*
X40700196Y-69343773D01*
X40694235Y-69367572D01*
X40685970Y-69390671D01*
X40675480Y-69412850D01*
X40662868Y-69433893D01*
X40648253Y-69453599D01*
X40631777Y-69471777D01*
X40613599Y-69488253D01*
X40593893Y-69502868D01*
X40572850Y-69515480D01*
X40550671Y-69525970D01*
X40527572Y-69534235D01*
X40503773Y-69540196D01*
X40479505Y-69543796D01*
X40455001Y-69545000D01*
X39554999Y-69545000D01*
X39530495Y-69543796D01*
X39506227Y-69540196D01*
X39482428Y-69534235D01*
X39459329Y-69525970D01*
X39437150Y-69515480D01*
X39416107Y-69502868D01*
X39396401Y-69488253D01*
X39378223Y-69471777D01*
X39361747Y-69453599D01*
X39347132Y-69433893D01*
X39334520Y-69412850D01*
X39324030Y-69390671D01*
X39315765Y-69367572D01*
X39309804Y-69343773D01*
X39306204Y-69319505D01*
X39305000Y-69295001D01*
X39305000Y-68644999D01*
X39306204Y-68620495D01*
X39309804Y-68596227D01*
X39315765Y-68572428D01*
X39324030Y-68549329D01*
X39334520Y-68527150D01*
X39347132Y-68506107D01*
X39361747Y-68486401D01*
X39378223Y-68468223D01*
X39396401Y-68451747D01*
X39416107Y-68437132D01*
X39437150Y-68424520D01*
X39459329Y-68414030D01*
X39482428Y-68405765D01*
X39506227Y-68399804D01*
X39530495Y-68396204D01*
X39554999Y-68395000D01*
X40455001Y-68395000D01*
X40479505Y-68396204D01*
X40479505Y-68396204D01*
G37*
D15*
X40005000Y-68970000D03*
D14*
G36*
X40479505Y-66346204D02*
G01*
X40503773Y-66349804D01*
X40527572Y-66355765D01*
X40550671Y-66364030D01*
X40572850Y-66374520D01*
X40593893Y-66387132D01*
X40613599Y-66401747D01*
X40631777Y-66418223D01*
X40648253Y-66436401D01*
X40662868Y-66456107D01*
X40675480Y-66477150D01*
X40685970Y-66499329D01*
X40694235Y-66522428D01*
X40700196Y-66546227D01*
X40703796Y-66570495D01*
X40705000Y-66594999D01*
X40705000Y-67245001D01*
X40703796Y-67269505D01*
X40700196Y-67293773D01*
X40694235Y-67317572D01*
X40685970Y-67340671D01*
X40675480Y-67362850D01*
X40662868Y-67383893D01*
X40648253Y-67403599D01*
X40631777Y-67421777D01*
X40613599Y-67438253D01*
X40593893Y-67452868D01*
X40572850Y-67465480D01*
X40550671Y-67475970D01*
X40527572Y-67484235D01*
X40503773Y-67490196D01*
X40479505Y-67493796D01*
X40455001Y-67495000D01*
X39554999Y-67495000D01*
X39530495Y-67493796D01*
X39506227Y-67490196D01*
X39482428Y-67484235D01*
X39459329Y-67475970D01*
X39437150Y-67465480D01*
X39416107Y-67452868D01*
X39396401Y-67438253D01*
X39378223Y-67421777D01*
X39361747Y-67403599D01*
X39347132Y-67383893D01*
X39334520Y-67362850D01*
X39324030Y-67340671D01*
X39315765Y-67317572D01*
X39309804Y-67293773D01*
X39306204Y-67269505D01*
X39305000Y-67245001D01*
X39305000Y-66594999D01*
X39306204Y-66570495D01*
X39309804Y-66546227D01*
X39315765Y-66522428D01*
X39324030Y-66499329D01*
X39334520Y-66477150D01*
X39347132Y-66456107D01*
X39361747Y-66436401D01*
X39378223Y-66418223D01*
X39396401Y-66401747D01*
X39416107Y-66387132D01*
X39437150Y-66374520D01*
X39459329Y-66364030D01*
X39482428Y-66355765D01*
X39506227Y-66349804D01*
X39530495Y-66346204D01*
X39554999Y-66345000D01*
X40455001Y-66345000D01*
X40479505Y-66346204D01*
X40479505Y-66346204D01*
G37*
D15*
X40005000Y-66920000D03*
D14*
G36*
X45559505Y-74746204D02*
G01*
X45583773Y-74749804D01*
X45607572Y-74755765D01*
X45630671Y-74764030D01*
X45652850Y-74774520D01*
X45673893Y-74787132D01*
X45693599Y-74801747D01*
X45711777Y-74818223D01*
X45728253Y-74836401D01*
X45742868Y-74856107D01*
X45755480Y-74877150D01*
X45765970Y-74899329D01*
X45774235Y-74922428D01*
X45780196Y-74946227D01*
X45783796Y-74970495D01*
X45785000Y-74994999D01*
X45785000Y-75645001D01*
X45783796Y-75669505D01*
X45780196Y-75693773D01*
X45774235Y-75717572D01*
X45765970Y-75740671D01*
X45755480Y-75762850D01*
X45742868Y-75783893D01*
X45728253Y-75803599D01*
X45711777Y-75821777D01*
X45693599Y-75838253D01*
X45673893Y-75852868D01*
X45652850Y-75865480D01*
X45630671Y-75875970D01*
X45607572Y-75884235D01*
X45583773Y-75890196D01*
X45559505Y-75893796D01*
X45535001Y-75895000D01*
X44634999Y-75895000D01*
X44610495Y-75893796D01*
X44586227Y-75890196D01*
X44562428Y-75884235D01*
X44539329Y-75875970D01*
X44517150Y-75865480D01*
X44496107Y-75852868D01*
X44476401Y-75838253D01*
X44458223Y-75821777D01*
X44441747Y-75803599D01*
X44427132Y-75783893D01*
X44414520Y-75762850D01*
X44404030Y-75740671D01*
X44395765Y-75717572D01*
X44389804Y-75693773D01*
X44386204Y-75669505D01*
X44385000Y-75645001D01*
X44385000Y-74994999D01*
X44386204Y-74970495D01*
X44389804Y-74946227D01*
X44395765Y-74922428D01*
X44404030Y-74899329D01*
X44414520Y-74877150D01*
X44427132Y-74856107D01*
X44441747Y-74836401D01*
X44458223Y-74818223D01*
X44476401Y-74801747D01*
X44496107Y-74787132D01*
X44517150Y-74774520D01*
X44539329Y-74764030D01*
X44562428Y-74755765D01*
X44586227Y-74749804D01*
X44610495Y-74746204D01*
X44634999Y-74745000D01*
X45535001Y-74745000D01*
X45559505Y-74746204D01*
X45559505Y-74746204D01*
G37*
D15*
X45085000Y-75320000D03*
D14*
G36*
X45559505Y-72696204D02*
G01*
X45583773Y-72699804D01*
X45607572Y-72705765D01*
X45630671Y-72714030D01*
X45652850Y-72724520D01*
X45673893Y-72737132D01*
X45693599Y-72751747D01*
X45711777Y-72768223D01*
X45728253Y-72786401D01*
X45742868Y-72806107D01*
X45755480Y-72827150D01*
X45765970Y-72849329D01*
X45774235Y-72872428D01*
X45780196Y-72896227D01*
X45783796Y-72920495D01*
X45785000Y-72944999D01*
X45785000Y-73595001D01*
X45783796Y-73619505D01*
X45780196Y-73643773D01*
X45774235Y-73667572D01*
X45765970Y-73690671D01*
X45755480Y-73712850D01*
X45742868Y-73733893D01*
X45728253Y-73753599D01*
X45711777Y-73771777D01*
X45693599Y-73788253D01*
X45673893Y-73802868D01*
X45652850Y-73815480D01*
X45630671Y-73825970D01*
X45607572Y-73834235D01*
X45583773Y-73840196D01*
X45559505Y-73843796D01*
X45535001Y-73845000D01*
X44634999Y-73845000D01*
X44610495Y-73843796D01*
X44586227Y-73840196D01*
X44562428Y-73834235D01*
X44539329Y-73825970D01*
X44517150Y-73815480D01*
X44496107Y-73802868D01*
X44476401Y-73788253D01*
X44458223Y-73771777D01*
X44441747Y-73753599D01*
X44427132Y-73733893D01*
X44414520Y-73712850D01*
X44404030Y-73690671D01*
X44395765Y-73667572D01*
X44389804Y-73643773D01*
X44386204Y-73619505D01*
X44385000Y-73595001D01*
X44385000Y-72944999D01*
X44386204Y-72920495D01*
X44389804Y-72896227D01*
X44395765Y-72872428D01*
X44404030Y-72849329D01*
X44414520Y-72827150D01*
X44427132Y-72806107D01*
X44441747Y-72786401D01*
X44458223Y-72768223D01*
X44476401Y-72751747D01*
X44496107Y-72737132D01*
X44517150Y-72724520D01*
X44539329Y-72714030D01*
X44562428Y-72705765D01*
X44586227Y-72699804D01*
X44610495Y-72696204D01*
X44634999Y-72695000D01*
X45535001Y-72695000D01*
X45559505Y-72696204D01*
X45559505Y-72696204D01*
G37*
D15*
X45085000Y-73270000D03*
D14*
G36*
X76939505Y-92646204D02*
G01*
X76963773Y-92649804D01*
X76987572Y-92655765D01*
X77010671Y-92664030D01*
X77032850Y-92674520D01*
X77053893Y-92687132D01*
X77073599Y-92701747D01*
X77091777Y-92718223D01*
X77108253Y-92736401D01*
X77122868Y-92756107D01*
X77135480Y-92777150D01*
X77145970Y-92799329D01*
X77154235Y-92822428D01*
X77160196Y-92846227D01*
X77163796Y-92870495D01*
X77165000Y-92894999D01*
X77165000Y-93795001D01*
X77163796Y-93819505D01*
X77160196Y-93843773D01*
X77154235Y-93867572D01*
X77145970Y-93890671D01*
X77135480Y-93912850D01*
X77122868Y-93933893D01*
X77108253Y-93953599D01*
X77091777Y-93971777D01*
X77073599Y-93988253D01*
X77053893Y-94002868D01*
X77032850Y-94015480D01*
X77010671Y-94025970D01*
X76987572Y-94034235D01*
X76963773Y-94040196D01*
X76939505Y-94043796D01*
X76915001Y-94045000D01*
X76264999Y-94045000D01*
X76240495Y-94043796D01*
X76216227Y-94040196D01*
X76192428Y-94034235D01*
X76169329Y-94025970D01*
X76147150Y-94015480D01*
X76126107Y-94002868D01*
X76106401Y-93988253D01*
X76088223Y-93971777D01*
X76071747Y-93953599D01*
X76057132Y-93933893D01*
X76044520Y-93912850D01*
X76034030Y-93890671D01*
X76025765Y-93867572D01*
X76019804Y-93843773D01*
X76016204Y-93819505D01*
X76015000Y-93795001D01*
X76015000Y-92894999D01*
X76016204Y-92870495D01*
X76019804Y-92846227D01*
X76025765Y-92822428D01*
X76034030Y-92799329D01*
X76044520Y-92777150D01*
X76057132Y-92756107D01*
X76071747Y-92736401D01*
X76088223Y-92718223D01*
X76106401Y-92701747D01*
X76126107Y-92687132D01*
X76147150Y-92674520D01*
X76169329Y-92664030D01*
X76192428Y-92655765D01*
X76216227Y-92649804D01*
X76240495Y-92646204D01*
X76264999Y-92645000D01*
X76915001Y-92645000D01*
X76939505Y-92646204D01*
X76939505Y-92646204D01*
G37*
D15*
X76590000Y-93345000D03*
D14*
G36*
X74889505Y-92646204D02*
G01*
X74913773Y-92649804D01*
X74937572Y-92655765D01*
X74960671Y-92664030D01*
X74982850Y-92674520D01*
X75003893Y-92687132D01*
X75023599Y-92701747D01*
X75041777Y-92718223D01*
X75058253Y-92736401D01*
X75072868Y-92756107D01*
X75085480Y-92777150D01*
X75095970Y-92799329D01*
X75104235Y-92822428D01*
X75110196Y-92846227D01*
X75113796Y-92870495D01*
X75115000Y-92894999D01*
X75115000Y-93795001D01*
X75113796Y-93819505D01*
X75110196Y-93843773D01*
X75104235Y-93867572D01*
X75095970Y-93890671D01*
X75085480Y-93912850D01*
X75072868Y-93933893D01*
X75058253Y-93953599D01*
X75041777Y-93971777D01*
X75023599Y-93988253D01*
X75003893Y-94002868D01*
X74982850Y-94015480D01*
X74960671Y-94025970D01*
X74937572Y-94034235D01*
X74913773Y-94040196D01*
X74889505Y-94043796D01*
X74865001Y-94045000D01*
X74214999Y-94045000D01*
X74190495Y-94043796D01*
X74166227Y-94040196D01*
X74142428Y-94034235D01*
X74119329Y-94025970D01*
X74097150Y-94015480D01*
X74076107Y-94002868D01*
X74056401Y-93988253D01*
X74038223Y-93971777D01*
X74021747Y-93953599D01*
X74007132Y-93933893D01*
X73994520Y-93912850D01*
X73984030Y-93890671D01*
X73975765Y-93867572D01*
X73969804Y-93843773D01*
X73966204Y-93819505D01*
X73965000Y-93795001D01*
X73965000Y-92894999D01*
X73966204Y-92870495D01*
X73969804Y-92846227D01*
X73975765Y-92822428D01*
X73984030Y-92799329D01*
X73994520Y-92777150D01*
X74007132Y-92756107D01*
X74021747Y-92736401D01*
X74038223Y-92718223D01*
X74056401Y-92701747D01*
X74076107Y-92687132D01*
X74097150Y-92674520D01*
X74119329Y-92664030D01*
X74142428Y-92655765D01*
X74166227Y-92649804D01*
X74190495Y-92646204D01*
X74214999Y-92645000D01*
X74865001Y-92645000D01*
X74889505Y-92646204D01*
X74889505Y-92646204D01*
G37*
D15*
X74540000Y-93345000D03*
D14*
G36*
X49369505Y-72696204D02*
G01*
X49393773Y-72699804D01*
X49417572Y-72705765D01*
X49440671Y-72714030D01*
X49462850Y-72724520D01*
X49483893Y-72737132D01*
X49503599Y-72751747D01*
X49521777Y-72768223D01*
X49538253Y-72786401D01*
X49552868Y-72806107D01*
X49565480Y-72827150D01*
X49575970Y-72849329D01*
X49584235Y-72872428D01*
X49590196Y-72896227D01*
X49593796Y-72920495D01*
X49595000Y-72944999D01*
X49595000Y-73595001D01*
X49593796Y-73619505D01*
X49590196Y-73643773D01*
X49584235Y-73667572D01*
X49575970Y-73690671D01*
X49565480Y-73712850D01*
X49552868Y-73733893D01*
X49538253Y-73753599D01*
X49521777Y-73771777D01*
X49503599Y-73788253D01*
X49483893Y-73802868D01*
X49462850Y-73815480D01*
X49440671Y-73825970D01*
X49417572Y-73834235D01*
X49393773Y-73840196D01*
X49369505Y-73843796D01*
X49345001Y-73845000D01*
X48444999Y-73845000D01*
X48420495Y-73843796D01*
X48396227Y-73840196D01*
X48372428Y-73834235D01*
X48349329Y-73825970D01*
X48327150Y-73815480D01*
X48306107Y-73802868D01*
X48286401Y-73788253D01*
X48268223Y-73771777D01*
X48251747Y-73753599D01*
X48237132Y-73733893D01*
X48224520Y-73712850D01*
X48214030Y-73690671D01*
X48205765Y-73667572D01*
X48199804Y-73643773D01*
X48196204Y-73619505D01*
X48195000Y-73595001D01*
X48195000Y-72944999D01*
X48196204Y-72920495D01*
X48199804Y-72896227D01*
X48205765Y-72872428D01*
X48214030Y-72849329D01*
X48224520Y-72827150D01*
X48237132Y-72806107D01*
X48251747Y-72786401D01*
X48268223Y-72768223D01*
X48286401Y-72751747D01*
X48306107Y-72737132D01*
X48327150Y-72724520D01*
X48349329Y-72714030D01*
X48372428Y-72705765D01*
X48396227Y-72699804D01*
X48420495Y-72696204D01*
X48444999Y-72695000D01*
X49345001Y-72695000D01*
X49369505Y-72696204D01*
X49369505Y-72696204D01*
G37*
D15*
X48895000Y-73270000D03*
D14*
G36*
X49369505Y-74746204D02*
G01*
X49393773Y-74749804D01*
X49417572Y-74755765D01*
X49440671Y-74764030D01*
X49462850Y-74774520D01*
X49483893Y-74787132D01*
X49503599Y-74801747D01*
X49521777Y-74818223D01*
X49538253Y-74836401D01*
X49552868Y-74856107D01*
X49565480Y-74877150D01*
X49575970Y-74899329D01*
X49584235Y-74922428D01*
X49590196Y-74946227D01*
X49593796Y-74970495D01*
X49595000Y-74994999D01*
X49595000Y-75645001D01*
X49593796Y-75669505D01*
X49590196Y-75693773D01*
X49584235Y-75717572D01*
X49575970Y-75740671D01*
X49565480Y-75762850D01*
X49552868Y-75783893D01*
X49538253Y-75803599D01*
X49521777Y-75821777D01*
X49503599Y-75838253D01*
X49483893Y-75852868D01*
X49462850Y-75865480D01*
X49440671Y-75875970D01*
X49417572Y-75884235D01*
X49393773Y-75890196D01*
X49369505Y-75893796D01*
X49345001Y-75895000D01*
X48444999Y-75895000D01*
X48420495Y-75893796D01*
X48396227Y-75890196D01*
X48372428Y-75884235D01*
X48349329Y-75875970D01*
X48327150Y-75865480D01*
X48306107Y-75852868D01*
X48286401Y-75838253D01*
X48268223Y-75821777D01*
X48251747Y-75803599D01*
X48237132Y-75783893D01*
X48224520Y-75762850D01*
X48214030Y-75740671D01*
X48205765Y-75717572D01*
X48199804Y-75693773D01*
X48196204Y-75669505D01*
X48195000Y-75645001D01*
X48195000Y-74994999D01*
X48196204Y-74970495D01*
X48199804Y-74946227D01*
X48205765Y-74922428D01*
X48214030Y-74899329D01*
X48224520Y-74877150D01*
X48237132Y-74856107D01*
X48251747Y-74836401D01*
X48268223Y-74818223D01*
X48286401Y-74801747D01*
X48306107Y-74787132D01*
X48327150Y-74774520D01*
X48349329Y-74764030D01*
X48372428Y-74755765D01*
X48396227Y-74749804D01*
X48420495Y-74746204D01*
X48444999Y-74745000D01*
X49345001Y-74745000D01*
X49369505Y-74746204D01*
X49369505Y-74746204D01*
G37*
D15*
X48895000Y-75320000D03*
D21*
X62645000Y-72600000D03*
X61995000Y-72600000D03*
X61345000Y-72600000D03*
X60695000Y-72600000D03*
X60045000Y-72600000D03*
X59395000Y-72600000D03*
X58745000Y-72600000D03*
X58095000Y-72600000D03*
X57445000Y-72600000D03*
X56795000Y-72600000D03*
X56145000Y-72600000D03*
X55495000Y-72600000D03*
X54845000Y-72600000D03*
X54195000Y-72600000D03*
X54195000Y-79800000D03*
X54845000Y-79800000D03*
X55495000Y-79800000D03*
X56145000Y-79800000D03*
X56795000Y-79800000D03*
X57445000Y-79800000D03*
X58095000Y-79800000D03*
X58745000Y-79800000D03*
X59395000Y-79800000D03*
X60045000Y-79800000D03*
X60695000Y-79800000D03*
X61345000Y-79800000D03*
X61995000Y-79800000D03*
X62645000Y-79800000D03*
D22*
X48260000Y-81915000D03*
X48260000Y-86360000D03*
X70485000Y-89535000D03*
X74295000Y-92075000D03*
X74930000Y-82550000D03*
X61595000Y-85725000D03*
X61595000Y-83185000D03*
X55245000Y-84455000D03*
X41275000Y-78740000D03*
X46990000Y-64135000D03*
X58420000Y-74295000D03*
X60960000Y-78105000D03*
X60325000Y-76940000D03*
X61232653Y-74177347D03*
X37465000Y-60325000D03*
X52705000Y-79375000D03*
X59690000Y-78105000D03*
X58420000Y-78105000D03*
X52705000Y-78105000D03*
D23*
X57445000Y-82805000D02*
X57445000Y-79800000D01*
X57825000Y-83185000D02*
X57445000Y-82805000D01*
X67310000Y-88020000D02*
X58810000Y-88020000D01*
X58050000Y-85725000D02*
X58050000Y-83185000D01*
X58050000Y-87260000D02*
X58810000Y-88020000D01*
X58050000Y-85725000D02*
X58050000Y-87260000D01*
X48260000Y-81915000D02*
X48895000Y-81280000D01*
X48895000Y-80010000D02*
X48895000Y-77470000D01*
X48895000Y-81280000D02*
X48895000Y-80010000D01*
X48895000Y-77470000D02*
X48895000Y-75645000D01*
X58050000Y-87260000D02*
X58050000Y-87365000D01*
X58050000Y-87365000D02*
X57785000Y-87630000D01*
X49530000Y-87630000D02*
X48260000Y-86360000D01*
X57785000Y-87630000D02*
X49530000Y-87630000D01*
X48680000Y-75320000D02*
X48895000Y-75320000D01*
X46040000Y-77960000D02*
X48680000Y-75320000D01*
X46040000Y-78510000D02*
X46040000Y-77960000D01*
X57445000Y-82580000D02*
X57445000Y-79800000D01*
X58050000Y-83185000D02*
X57445000Y-82580000D01*
X58095000Y-81075000D02*
X60205000Y-83185000D01*
X58095000Y-79800000D02*
X58095000Y-81075000D01*
X73958000Y-81885000D02*
X72995000Y-81885000D01*
X74295000Y-93265000D02*
X74215000Y-93345000D01*
X70485000Y-88245000D02*
X70485000Y-89535000D01*
X60100000Y-85725000D02*
X60100000Y-83185000D01*
X56145000Y-82060000D02*
X55020000Y-83185000D01*
X56145000Y-79800000D02*
X56145000Y-82060000D01*
X58095000Y-81180000D02*
X60100000Y-83185000D01*
X58095000Y-79800000D02*
X58095000Y-81180000D01*
X74540000Y-91830000D02*
X74295000Y-92075000D01*
X74540000Y-90805000D02*
X74540000Y-91830000D01*
X74540000Y-93345000D02*
X74540000Y-92320000D01*
X74540000Y-92320000D02*
X74295000Y-92075000D01*
X73358000Y-81885000D02*
X74265000Y-81885000D01*
X74265000Y-81885000D02*
X74930000Y-82550000D01*
X60100000Y-85725000D02*
X61595000Y-85725000D01*
X60100000Y-83185000D02*
X61595000Y-83185000D01*
X55020000Y-83185000D02*
X55020000Y-84230000D01*
X55020000Y-84230000D02*
X55245000Y-84455000D01*
X40005000Y-78985000D02*
X41030000Y-78985000D01*
X41030000Y-78985000D02*
X41275000Y-78740000D01*
X46990000Y-62620000D02*
X46990000Y-64135000D01*
X58745000Y-72600000D02*
X58745000Y-73970000D01*
X58745000Y-73970000D02*
X58420000Y-74295000D01*
X60695000Y-79800000D02*
X60695000Y-78370000D01*
X60695000Y-78370000D02*
X60960000Y-78105000D01*
X61345000Y-78490000D02*
X60960000Y-78105000D01*
X61345000Y-79800000D02*
X61345000Y-78490000D01*
X60695000Y-73875000D02*
X61115000Y-74295000D01*
X60695000Y-72600000D02*
X60695000Y-73875000D01*
X55495000Y-79800000D02*
X55495000Y-78490000D01*
X55880000Y-78105000D02*
X57045000Y-76940000D01*
X55495000Y-78490000D02*
X55880000Y-78105000D01*
X61115000Y-74295000D02*
X61232653Y-74177347D01*
X57045000Y-76940000D02*
X55495000Y-78490000D01*
X60325000Y-76940000D02*
X57045000Y-76940000D01*
X43895000Y-66675000D02*
X43815000Y-66595000D01*
X43815000Y-66595000D02*
X43815000Y-66675000D01*
X41590000Y-73345000D02*
X41590000Y-72795000D01*
X40640000Y-74295000D02*
X41590000Y-73345000D01*
X38735000Y-74295000D02*
X40640000Y-74295000D01*
X38065002Y-73625002D02*
X38735000Y-74295000D01*
X38065002Y-68614998D02*
X38065002Y-73625002D01*
X38735000Y-67945000D02*
X38065002Y-68614998D01*
X41590000Y-64695000D02*
X43815000Y-66920000D01*
X41590000Y-63095000D02*
X41590000Y-64695000D01*
X60695000Y-71385000D02*
X60695000Y-72600000D01*
X55495000Y-80970002D02*
X55495000Y-79800000D01*
X53903374Y-82561628D02*
X55495000Y-80970002D01*
X53593372Y-82561628D02*
X53903374Y-82561628D01*
X52970000Y-83185000D02*
X53593372Y-82561628D01*
X43815000Y-66920000D02*
X42790000Y-67945000D01*
X42790000Y-67945000D02*
X40640000Y-67945000D01*
X40640000Y-67945000D02*
X38735000Y-67945000D01*
X56230000Y-66920000D02*
X60695000Y-71385000D01*
X43815000Y-66920000D02*
X56230000Y-66920000D01*
X35540000Y-52705000D02*
X35540000Y-55245000D01*
X37465000Y-73660000D02*
X37465000Y-74295000D01*
X37465000Y-72390000D02*
X37465000Y-73660000D01*
X37465000Y-72390000D02*
X37465000Y-60325000D01*
X37465000Y-74295000D02*
X37465000Y-80010000D01*
X40005000Y-81035000D02*
X43180000Y-81035000D01*
X38490000Y-81035000D02*
X37465000Y-80010000D01*
X40005000Y-81035000D02*
X38490000Y-81035000D01*
X45015000Y-81035000D02*
X45490000Y-81510000D01*
X43180000Y-81035000D02*
X45015000Y-81035000D01*
X46990000Y-81510000D02*
X45490000Y-81510000D01*
D24*
X47940000Y-79060000D02*
X47940000Y-78510000D01*
X46990000Y-80010000D02*
X47940000Y-79060000D01*
X44450000Y-80010000D02*
X46990000Y-80010000D01*
X44205000Y-80010000D02*
X44450000Y-80010000D01*
X43180000Y-78985000D02*
X44205000Y-80010000D01*
X43180000Y-77225000D02*
X45085000Y-75320000D01*
X43180000Y-78985000D02*
X43180000Y-77225000D01*
X35540000Y-62865000D02*
X35540000Y-62845000D01*
X34290000Y-61595000D02*
X34290000Y-59690000D01*
X35540000Y-62845000D02*
X34290000Y-61595000D01*
X77470000Y-69215000D02*
X76200000Y-70485000D01*
X77470000Y-59055000D02*
X77470000Y-69215000D01*
X76200000Y-57785000D02*
X77470000Y-59055000D01*
X76200000Y-57785000D02*
X49530000Y-57785000D01*
X49530000Y-57785000D02*
X37465000Y-57785000D01*
X34925000Y-59055000D02*
X34290000Y-59690000D01*
X36195000Y-59055000D02*
X34925000Y-59055000D01*
X37465000Y-57785000D02*
X36195000Y-59055000D01*
X61864245Y-74914989D02*
X61879256Y-74930000D01*
X60045000Y-72600000D02*
X60045000Y-74650000D01*
X60045000Y-74650000D02*
X60309989Y-74914989D01*
X75350001Y-71334999D02*
X76200000Y-70485000D01*
X74930000Y-71755000D02*
X75350001Y-71334999D01*
X74930000Y-74295000D02*
X74930000Y-71755000D01*
X74295000Y-74930000D02*
X74930000Y-74295000D01*
X61879256Y-74930000D02*
X74295000Y-74930000D01*
X60309989Y-74914989D02*
X61864245Y-74914989D01*
X74930000Y-66675000D02*
X76200000Y-67945000D01*
X48895000Y-58420000D02*
X38100000Y-58420000D01*
X74295000Y-58420000D02*
X48895000Y-58420000D01*
X74930000Y-59055000D02*
X74295000Y-58420000D01*
X74930000Y-59055000D02*
X74930000Y-66675000D01*
X62645000Y-72600000D02*
X62645000Y-74075000D01*
X74930000Y-69215000D02*
X76200000Y-67945000D01*
X73025000Y-69215000D02*
X74930000Y-69215000D01*
X72390000Y-69850000D02*
X73025000Y-69215000D01*
X72390000Y-73025000D02*
X72390000Y-69850000D01*
X71120000Y-74295000D02*
X72390000Y-73025000D01*
X62865000Y-74295000D02*
X71120000Y-74295000D01*
X62645000Y-74075000D02*
X62865000Y-74295000D01*
X35540000Y-60325000D02*
X36195000Y-60325000D01*
X36195000Y-60325000D02*
X38100000Y-58420000D01*
X76835000Y-57150000D02*
X50165000Y-57150000D01*
X36195000Y-64135000D02*
X36830000Y-64770000D01*
X36830000Y-64770000D02*
X36830000Y-74930000D01*
X33655000Y-64135000D02*
X36195000Y-64135000D01*
X76200000Y-73025000D02*
X76835000Y-73025000D01*
X78105000Y-71755000D02*
X78105000Y-58420000D01*
X76835000Y-73025000D02*
X78105000Y-71755000D01*
X78105000Y-58420000D02*
X76835000Y-57150000D01*
X31750000Y-57150000D02*
X31750000Y-63500000D01*
X32385000Y-56515000D02*
X31750000Y-57150000D01*
X36195000Y-56515000D02*
X32385000Y-56515000D01*
X36830000Y-57150000D02*
X36195000Y-56515000D01*
X38100000Y-57150000D02*
X36830000Y-57150000D01*
X50165000Y-57150000D02*
X38100000Y-57150000D01*
X32385000Y-64135000D02*
X31750000Y-63500000D01*
X33655000Y-64135000D02*
X32385000Y-64135000D01*
X36830000Y-91440000D02*
X36830000Y-84455000D01*
X33020000Y-95885000D02*
X34290000Y-94615000D01*
X34290000Y-94615000D02*
X35560000Y-94615000D01*
X33000000Y-95885000D02*
X33020000Y-95885000D01*
X35560000Y-94615000D02*
X36195000Y-94615000D01*
X36830000Y-93980000D02*
X36830000Y-91440000D01*
X36195000Y-94615000D02*
X36830000Y-93980000D01*
X36830000Y-81915000D02*
X36830000Y-80645000D01*
X36830000Y-80010000D02*
X36830000Y-80645000D01*
X51435000Y-76835000D02*
X50800000Y-77470000D01*
X54195000Y-72600000D02*
X54195000Y-74075000D01*
X54195000Y-74075000D02*
X51435000Y-76835000D01*
X50800000Y-77470000D02*
X49530000Y-78740000D01*
X38100000Y-83185000D02*
X36830000Y-84455000D01*
X48260000Y-83185000D02*
X38100000Y-83185000D01*
X49530000Y-81915000D02*
X48260000Y-83185000D01*
X49530000Y-78740000D02*
X49530000Y-81915000D01*
X38100000Y-83185000D02*
X36830000Y-81915000D01*
X36830000Y-80010000D02*
X36830000Y-74930000D01*
X39690000Y-72795000D02*
X39690000Y-69610000D01*
X39690000Y-69610000D02*
X40005000Y-69295000D01*
X39690000Y-69285000D02*
X40005000Y-68970000D01*
X39690000Y-72795000D02*
X39690000Y-69285000D01*
X40005000Y-68970000D02*
X43815000Y-68970000D01*
X55495000Y-71475000D02*
X55495000Y-72600000D01*
X52990000Y-68970000D02*
X55495000Y-71475000D01*
X43815000Y-68970000D02*
X52990000Y-68970000D01*
X37465000Y-85090000D02*
X37465000Y-92075000D01*
X52070000Y-77470000D02*
X51435000Y-78105000D01*
X54845000Y-74695000D02*
X54845000Y-72600000D01*
X52070000Y-77470000D02*
X54845000Y-74695000D01*
X37465000Y-94615000D02*
X37465000Y-92075000D01*
X35540000Y-95885000D02*
X36195000Y-95885000D01*
X36195000Y-95885000D02*
X37465000Y-94615000D01*
X37465000Y-85090000D02*
X38735000Y-83820000D01*
X50165000Y-79375000D02*
X51435000Y-78105000D01*
X50165000Y-82550000D02*
X50165000Y-79375000D01*
X48895000Y-83820000D02*
X50165000Y-82550000D01*
X38735000Y-83820000D02*
X48895000Y-83820000D01*
X38735000Y-86995000D02*
X38735000Y-95885000D01*
X59395000Y-78400000D02*
X59690000Y-78105000D01*
X59395000Y-78400000D02*
X59395000Y-79800000D01*
X35560000Y-100965000D02*
X36830000Y-99695000D01*
X35540000Y-100965000D02*
X35560000Y-100965000D01*
X36830000Y-99695000D02*
X37465000Y-99060000D01*
X38735000Y-96520000D02*
X38735000Y-95885000D01*
X37465000Y-99060000D02*
X37465000Y-98425000D01*
X37465000Y-98425000D02*
X37465000Y-97790000D01*
X37465000Y-97790000D02*
X38735000Y-96520000D01*
X38735000Y-86995000D02*
X38735000Y-86360000D01*
X51435000Y-80645000D02*
X52705000Y-79375000D01*
X51435000Y-83820000D02*
X51435000Y-80645000D01*
X50165000Y-85090000D02*
X51435000Y-83820000D01*
X40005000Y-85090000D02*
X50165000Y-85090000D01*
X38735000Y-86360000D02*
X40005000Y-85090000D01*
X58745000Y-79800000D02*
X58745000Y-78430000D01*
X58745000Y-78430000D02*
X58420000Y-78105000D01*
X52070000Y-78740000D02*
X52705000Y-78105000D01*
X38100000Y-95250000D02*
X38100000Y-92710000D01*
X38100000Y-95885000D02*
X38100000Y-95250000D01*
X36830000Y-97155000D02*
X38100000Y-95885000D01*
X35560000Y-98425000D02*
X36830000Y-97155000D01*
X35540000Y-98425000D02*
X35560000Y-98425000D01*
X38100000Y-92710000D02*
X38100000Y-85725000D01*
X52070000Y-78740000D02*
X50800000Y-80010000D01*
X39370000Y-84455000D02*
X38100000Y-85725000D01*
X49530000Y-84455000D02*
X39370000Y-84455000D01*
X50800000Y-83185000D02*
X49530000Y-84455000D01*
X50800000Y-82550000D02*
X50800000Y-83185000D01*
X50800000Y-80010000D02*
X50800000Y-82550000D01*
D25*
X69446800Y-83735000D02*
X73258000Y-83735000D01*
X63236928Y-77525128D02*
X69446800Y-83735000D01*
X62430285Y-77048341D02*
X62388400Y-77100864D01*
X62388400Y-77100864D02*
X62365562Y-77123701D01*
X62459432Y-76789648D02*
X62474381Y-76855142D01*
X62925711Y-77454094D02*
X62991206Y-77439145D01*
X62474381Y-76922321D02*
X62459432Y-76987815D01*
X62459432Y-76987815D02*
X62430285Y-77048341D01*
X62430285Y-76729122D02*
X62459432Y-76789648D01*
X62323677Y-77495443D02*
X62365562Y-77547965D01*
X62388400Y-76676600D02*
X62430285Y-76729122D01*
X62323677Y-77176223D02*
X62294529Y-77236749D01*
X62544104Y-77633946D02*
X62611283Y-77633946D01*
X62365562Y-77123701D02*
X62323677Y-77176223D01*
X62418084Y-77589850D02*
X62478610Y-77618997D01*
X62474381Y-76855142D02*
X62474381Y-76922321D01*
X54845000Y-79800000D02*
X54845000Y-78487499D01*
X62294529Y-77236749D02*
X62279580Y-77302244D01*
X54845000Y-78487499D02*
X54745000Y-78387499D01*
X62294529Y-77434917D02*
X62323677Y-77495443D01*
X54745000Y-77018200D02*
X55973200Y-75790000D01*
X63184405Y-77483242D02*
X63236928Y-77525128D01*
X73258000Y-83735000D02*
X73358000Y-83835000D01*
X61501800Y-75790000D02*
X62388400Y-76676600D01*
X62365562Y-77547965D02*
X62418084Y-77589850D01*
X62611283Y-77633946D02*
X62676777Y-77618997D01*
X62279580Y-77302244D02*
X62279580Y-77369422D01*
X62279580Y-77369422D02*
X62294529Y-77434917D01*
X62478610Y-77618997D02*
X62544104Y-77633946D01*
X62676777Y-77618997D02*
X62737303Y-77589850D01*
X62737303Y-77589850D02*
X62789826Y-77547965D01*
X62789826Y-77547965D02*
X62812663Y-77525127D01*
X55973200Y-75790000D02*
X61501800Y-75790000D01*
X62812663Y-77525127D02*
X62865185Y-77483242D01*
X54745000Y-78387499D02*
X54745000Y-77018200D01*
X62865185Y-77483242D02*
X62925711Y-77454094D01*
X62991206Y-77439145D02*
X63058384Y-77439145D01*
X63058384Y-77439145D02*
X63123879Y-77454094D01*
X63123879Y-77454094D02*
X63184405Y-77483242D01*
X73358000Y-83185000D02*
X73258000Y-83285000D01*
X73258000Y-83285000D02*
X69633200Y-83285000D01*
X69633200Y-83285000D02*
X61688200Y-75340000D01*
X61688200Y-75340000D02*
X55786800Y-75340000D01*
X54295000Y-76831800D02*
X54295000Y-78387499D01*
X55786800Y-75340000D02*
X54295000Y-76831800D01*
X54295000Y-78387499D02*
X54195000Y-78487499D01*
X54195000Y-78487499D02*
X54195000Y-79800000D01*
D24*
X39690000Y-62545000D02*
X39690000Y-63095000D01*
X40415001Y-61819999D02*
X39690000Y-62545000D01*
X43649999Y-61819999D02*
X40415001Y-61819999D01*
X44450000Y-62620000D02*
X43649999Y-61819999D01*
X39690000Y-66605000D02*
X40005000Y-66920000D01*
X39690000Y-63095000D02*
X39690000Y-66605000D01*
D23*
X44450000Y-60570000D02*
X46990000Y-60570000D01*
X73415000Y-60570000D02*
X73660000Y-60325000D01*
X46990000Y-60570000D02*
X73415000Y-60570000D01*
X41115000Y-60570000D02*
X40640000Y-60095000D01*
X44450000Y-60570000D02*
X41115000Y-60570000D01*
X73958000Y-84485000D02*
X71745000Y-84485000D01*
X71745000Y-84485000D02*
X70485000Y-85745000D01*
X67310000Y-85970000D02*
X70485000Y-85970000D01*
X76815000Y-93245000D02*
X76915000Y-93345000D01*
X73158000Y-79585000D02*
X76608000Y-79585000D01*
X76608000Y-79585000D02*
X77045000Y-79585000D01*
X77758000Y-80735000D02*
X76608000Y-79585000D01*
X77758000Y-81685000D02*
X77758000Y-80735000D01*
X77758000Y-81685000D02*
X77758000Y-84685000D01*
X77758000Y-85635000D02*
X76608000Y-86785000D01*
X77758000Y-84685000D02*
X77758000Y-85635000D01*
X76608000Y-86785000D02*
X73158000Y-86785000D01*
X76608000Y-90787000D02*
X76590000Y-90805000D01*
X76608000Y-86785000D02*
X76608000Y-90787000D01*
X76590000Y-90805000D02*
X76590000Y-93345000D01*
D24*
X44030000Y-73270000D02*
X41505000Y-75795000D01*
X45085000Y-73270000D02*
X44030000Y-73270000D01*
X40640000Y-75795000D02*
X41505000Y-75795000D01*
X45085000Y-73270000D02*
X48895000Y-73270000D01*
M02*
