G04 #@! TF.GenerationSoftware,KiCad,Pcbnew,(5.0.1)-3*
G04 #@! TF.CreationDate,2018-12-20T13:20:35+01:00*
G04 #@! TF.ProjectId,HB-RF-USB,48422D52462D5553422E6B696361645F,rev?*
G04 #@! TF.SameCoordinates,Original*
G04 #@! TF.FileFunction,Copper,L1,Top,Signal*
G04 #@! TF.FilePolarity,Positive*
%FSLAX46Y46*%
G04 Gerber Fmt 4.6, Leading zero omitted, Abs format (unit mm)*
G04 Created by KiCad (PCBNEW (5.0.1)-3) date 20.12.2018 13:20:35*
%MOMM*%
%LPD*%
G01*
G04 APERTURE LIST*
G04 #@! TA.AperFunction,SMDPad,CuDef*
%ADD10R,0.450000X1.750000*%
G04 #@! TD*
G04 #@! TA.AperFunction,ComponentPad*
%ADD11C,0.700000*%
G04 #@! TD*
G04 #@! TA.AperFunction,ComponentPad*
%ADD12C,4.400000*%
G04 #@! TD*
G04 #@! TA.AperFunction,SMDPad,CuDef*
%ADD13R,1.300000X1.500000*%
G04 #@! TD*
G04 #@! TA.AperFunction,SMDPad,CuDef*
%ADD14R,1.500000X1.250000*%
G04 #@! TD*
G04 #@! TA.AperFunction,SMDPad,CuDef*
%ADD15R,1.250000X1.500000*%
G04 #@! TD*
G04 #@! TA.AperFunction,SMDPad,CuDef*
%ADD16R,0.800000X1.900000*%
G04 #@! TD*
G04 #@! TA.AperFunction,ComponentPad*
%ADD17O,1.700000X1.700000*%
G04 #@! TD*
G04 #@! TA.AperFunction,ComponentPad*
%ADD18R,1.700000X1.700000*%
G04 #@! TD*
G04 #@! TA.AperFunction,SMDPad,CuDef*
%ADD19R,1.900000X2.500000*%
G04 #@! TD*
G04 #@! TA.AperFunction,SMDPad,CuDef*
%ADD20R,1.900000X1.900000*%
G04 #@! TD*
G04 #@! TA.AperFunction,SMDPad,CuDef*
%ADD21R,1.900000X2.400000*%
G04 #@! TD*
G04 #@! TA.AperFunction,SMDPad,CuDef*
%ADD22R,1.400000X0.400000*%
G04 #@! TD*
G04 #@! TA.AperFunction,SMDPad,CuDef*
%ADD23R,1.500000X1.300000*%
G04 #@! TD*
G04 #@! TA.AperFunction,ViaPad*
%ADD24C,0.800000*%
G04 #@! TD*
G04 #@! TA.AperFunction,Conductor*
%ADD25C,0.400000*%
G04 #@! TD*
G04 #@! TA.AperFunction,Conductor*
%ADD26C,0.250000*%
G04 #@! TD*
G04 APERTURE END LIST*
D10*
G04 #@! TO.P,U1,28*
G04 #@! TO.N,Net-(U1-Pad28)*
X62645000Y-79800000D03*
G04 #@! TO.P,U1,27*
G04 #@! TO.N,Net-(U1-Pad27)*
X61995000Y-79800000D03*
G04 #@! TO.P,U1,26*
G04 #@! TO.N,GND*
X61345000Y-79800000D03*
G04 #@! TO.P,U1,25*
X60695000Y-79800000D03*
G04 #@! TO.P,U1,24*
G04 #@! TO.N,N/C*
X60045000Y-79800000D03*
G04 #@! TO.P,U1,23*
G04 #@! TO.N,/B_LED*
X59395000Y-79800000D03*
G04 #@! TO.P,U1,22*
G04 #@! TO.N,/G_LED*
X58745000Y-79800000D03*
G04 #@! TO.P,U1,21*
G04 #@! TO.N,GND*
X58095000Y-79800000D03*
G04 #@! TO.P,U1,20*
G04 #@! TO.N,+5V*
X57445000Y-79800000D03*
G04 #@! TO.P,U1,19*
G04 #@! TO.N,Net-(U1-Pad19)*
X56795000Y-79800000D03*
G04 #@! TO.P,U1,18*
G04 #@! TO.N,GND*
X56145000Y-79800000D03*
G04 #@! TO.P,U1,17*
G04 #@! TO.N,+3V3*
X55495000Y-79800000D03*
G04 #@! TO.P,U1,16*
G04 #@! TO.N,/D-*
X54845000Y-79800000D03*
G04 #@! TO.P,U1,15*
G04 #@! TO.N,/D+*
X54195000Y-79800000D03*
G04 #@! TO.P,U1,14*
G04 #@! TO.N,/RESET*
X54195000Y-72600000D03*
G04 #@! TO.P,U1,13*
G04 #@! TO.N,/R_LED*
X54845000Y-72600000D03*
G04 #@! TO.P,U1,12*
G04 #@! TO.N,/PWREN*
X55495000Y-72600000D03*
G04 #@! TO.P,U1,11*
G04 #@! TO.N,Net-(U1-Pad11)*
X56145000Y-72600000D03*
G04 #@! TO.P,U1,10*
G04 #@! TO.N,Net-(U1-Pad10)*
X56795000Y-72600000D03*
G04 #@! TO.P,U1,9*
G04 #@! TO.N,Net-(U1-Pad9)*
X57445000Y-72600000D03*
G04 #@! TO.P,U1,8*
G04 #@! TO.N,N/C*
X58095000Y-72600000D03*
G04 #@! TO.P,U1,7*
G04 #@! TO.N,GND*
X58745000Y-72600000D03*
G04 #@! TO.P,U1,6*
G04 #@! TO.N,Net-(U1-Pad6)*
X59395000Y-72600000D03*
G04 #@! TO.P,U1,5*
G04 #@! TO.N,/RXD*
X60045000Y-72600000D03*
G04 #@! TO.P,U1,4*
G04 #@! TO.N,+3V3*
X60695000Y-72600000D03*
G04 #@! TO.P,U1,3*
G04 #@! TO.N,Net-(U1-Pad3)*
X61345000Y-72600000D03*
G04 #@! TO.P,U1,2*
G04 #@! TO.N,Net-(U1-Pad2)*
X61995000Y-72600000D03*
G04 #@! TO.P,U1,1*
G04 #@! TO.N,/TXD*
X62645000Y-72600000D03*
G04 #@! TD*
D11*
G04 #@! TO.P,,1*
G04 #@! TO.N,N/C*
X76096726Y-52808274D03*
X74930000Y-52325000D03*
X73763274Y-52808274D03*
X73280000Y-53975000D03*
X73763274Y-55141726D03*
X74930000Y-55625000D03*
X76096726Y-55141726D03*
X76580000Y-53975000D03*
D12*
X74930000Y-53975000D03*
G04 #@! TD*
G04 #@! TO.P,,1*
G04 #@! TO.N,N/C*
X40640000Y-53975000D03*
D11*
X42290000Y-53975000D03*
X41806726Y-55141726D03*
X40640000Y-55625000D03*
X39473274Y-55141726D03*
X38990000Y-53975000D03*
X39473274Y-52808274D03*
X40640000Y-52325000D03*
X41806726Y-52808274D03*
G04 #@! TD*
G04 #@! TO.P,,1*
G04 #@! TO.N,N/C*
X41806726Y-98528274D03*
X40640000Y-98045000D03*
X39473274Y-98528274D03*
X38990000Y-99695000D03*
X39473274Y-100861726D03*
X40640000Y-101345000D03*
X41806726Y-100861726D03*
X42290000Y-99695000D03*
D12*
X40640000Y-99695000D03*
G04 #@! TD*
D13*
G04 #@! TO.P,R1,2*
G04 #@! TO.N,/PWREN*
X43815000Y-69295000D03*
G04 #@! TO.P,R1,1*
G04 #@! TO.N,+3V3*
X43815000Y-66595000D03*
G04 #@! TD*
D14*
G04 #@! TO.P,C1,1*
G04 #@! TO.N,GND*
X60325000Y-83185000D03*
G04 #@! TO.P,C1,2*
G04 #@! TO.N,+5V*
X57825000Y-83185000D03*
G04 #@! TD*
G04 #@! TO.P,C2,2*
G04 #@! TO.N,GND*
X55245000Y-83185000D03*
G04 #@! TO.P,C2,1*
G04 #@! TO.N,+3V3*
X52745000Y-83185000D03*
G04 #@! TD*
D15*
G04 #@! TO.P,C5,1*
G04 #@! TO.N,Net-(C5-Pad1)*
X40005000Y-81260000D03*
G04 #@! TO.P,C5,2*
G04 #@! TO.N,GND*
X40005000Y-78760000D03*
G04 #@! TD*
G04 #@! TO.P,C6,2*
G04 #@! TO.N,Net-(C6-Pad2)*
X43180000Y-78760000D03*
G04 #@! TO.P,C6,1*
G04 #@! TO.N,Net-(C5-Pad1)*
X43180000Y-81260000D03*
G04 #@! TD*
D13*
G04 #@! TO.P,R3,1*
G04 #@! TO.N,/PWREN_5V*
X45085000Y-72945000D03*
G04 #@! TO.P,R3,2*
G04 #@! TO.N,Net-(C6-Pad2)*
X45085000Y-75645000D03*
G04 #@! TD*
D16*
G04 #@! TO.P,Q2,3*
G04 #@! TO.N,Net-(C5-Pad1)*
X46990000Y-81510000D03*
G04 #@! TO.P,Q2,2*
G04 #@! TO.N,+5V*
X46040000Y-78510000D03*
G04 #@! TO.P,Q2,1*
G04 #@! TO.N,Net-(C6-Pad2)*
X47940000Y-78510000D03*
G04 #@! TD*
D17*
G04 #@! TO.P,J2,40*
G04 #@! TO.N,/B_LED*
X35540000Y-100965000D03*
G04 #@! TO.P,J2,39*
G04 #@! TO.N,GND*
X33000000Y-100965000D03*
G04 #@! TO.P,J2,38*
G04 #@! TO.N,/G_LED*
X35540000Y-98425000D03*
G04 #@! TO.P,J2,37*
G04 #@! TO.N,Net-(J2-Pad37)*
X33000000Y-98425000D03*
G04 #@! TO.P,J2,36*
G04 #@! TO.N,/R_LED*
X35540000Y-95885000D03*
G04 #@! TO.P,J2,35*
G04 #@! TO.N,/RESET*
X33000000Y-95885000D03*
G04 #@! TO.P,J2,34*
G04 #@! TO.N,GND*
X35540000Y-93345000D03*
G04 #@! TO.P,J2,33*
G04 #@! TO.N,Net-(J2-Pad33)*
X33000000Y-93345000D03*
G04 #@! TO.P,J2,32*
G04 #@! TO.N,Net-(J2-Pad32)*
X35540000Y-90805000D03*
G04 #@! TO.P,J2,31*
G04 #@! TO.N,Net-(J2-Pad31)*
X33000000Y-90805000D03*
G04 #@! TO.P,J2,30*
G04 #@! TO.N,GND*
X35540000Y-88265000D03*
G04 #@! TO.P,J2,29*
G04 #@! TO.N,Net-(J2-Pad29)*
X33000000Y-88265000D03*
G04 #@! TO.P,J2,28*
G04 #@! TO.N,Net-(J2-Pad28)*
X35540000Y-85725000D03*
G04 #@! TO.P,J2,27*
G04 #@! TO.N,Net-(J2-Pad27)*
X33000000Y-85725000D03*
G04 #@! TO.P,J2,26*
G04 #@! TO.N,Net-(J2-Pad26)*
X35540000Y-83185000D03*
G04 #@! TO.P,J2,25*
G04 #@! TO.N,GND*
X33000000Y-83185000D03*
G04 #@! TO.P,J2,24*
G04 #@! TO.N,Net-(J2-Pad24)*
X35540000Y-80645000D03*
G04 #@! TO.P,J2,23*
G04 #@! TO.N,Net-(J2-Pad23)*
X33000000Y-80645000D03*
G04 #@! TO.P,J2,22*
G04 #@! TO.N,Net-(J2-Pad22)*
X35540000Y-78105000D03*
G04 #@! TO.P,J2,21*
G04 #@! TO.N,Net-(J2-Pad21)*
X33000000Y-78105000D03*
G04 #@! TO.P,J2,20*
G04 #@! TO.N,GND*
X35540000Y-75565000D03*
G04 #@! TO.P,J2,19*
G04 #@! TO.N,Net-(J2-Pad19)*
X33000000Y-75565000D03*
G04 #@! TO.P,J2,18*
G04 #@! TO.N,Net-(J2-Pad18)*
X35540000Y-73025000D03*
G04 #@! TO.P,J2,17*
G04 #@! TO.N,Net-(J2-Pad17)*
X33000000Y-73025000D03*
G04 #@! TO.P,J2,16*
G04 #@! TO.N,Net-(J2-Pad16)*
X35540000Y-70485000D03*
G04 #@! TO.P,J2,15*
G04 #@! TO.N,Net-(J2-Pad15)*
X33000000Y-70485000D03*
G04 #@! TO.P,J2,14*
G04 #@! TO.N,GND*
X35540000Y-67945000D03*
G04 #@! TO.P,J2,13*
G04 #@! TO.N,Net-(J2-Pad13)*
X33000000Y-67945000D03*
G04 #@! TO.P,J2,12*
G04 #@! TO.N,Net-(J2-Pad12)*
X35540000Y-65405000D03*
G04 #@! TO.P,J2,11*
G04 #@! TO.N,Net-(J2-Pad11)*
X33000000Y-65405000D03*
G04 #@! TO.P,J2,10*
G04 #@! TO.N,/RXD*
X35540000Y-62865000D03*
G04 #@! TO.P,J2,9*
G04 #@! TO.N,GND*
X33000000Y-62865000D03*
G04 #@! TO.P,J2,8*
G04 #@! TO.N,/TXD*
X35540000Y-60325000D03*
G04 #@! TO.P,J2,7*
G04 #@! TO.N,Net-(J2-Pad7)*
X33000000Y-60325000D03*
G04 #@! TO.P,J2,6*
G04 #@! TO.N,GND*
X35540000Y-57785000D03*
G04 #@! TO.P,J2,5*
G04 #@! TO.N,Net-(J2-Pad5)*
X33000000Y-57785000D03*
G04 #@! TO.P,J2,4*
G04 #@! TO.N,Net-(C5-Pad1)*
X35540000Y-55245000D03*
G04 #@! TO.P,J2,3*
G04 #@! TO.N,Net-(J2-Pad3)*
X33000000Y-55245000D03*
G04 #@! TO.P,J2,2*
G04 #@! TO.N,Net-(C5-Pad1)*
X35540000Y-52705000D03*
D18*
G04 #@! TO.P,J2,1*
G04 #@! TO.N,Net-(J2-Pad1)*
X33000000Y-52705000D03*
G04 #@! TD*
D15*
G04 #@! TO.P,C3,2*
G04 #@! TO.N,Net-(C3-Pad2)*
X44450000Y-62845000D03*
G04 #@! TO.P,C3,1*
G04 #@! TO.N,Net-(C3-Pad1)*
X44450000Y-60345000D03*
G04 #@! TD*
G04 #@! TO.P,C4,1*
G04 #@! TO.N,Net-(C3-Pad1)*
X46990000Y-60345000D03*
G04 #@! TO.P,C4,2*
G04 #@! TO.N,GND*
X46990000Y-62845000D03*
G04 #@! TD*
D19*
G04 #@! TO.P,J1,6*
G04 #@! TO.N,Net-(C9-Pad1)*
X76608000Y-78885000D03*
D20*
X76608000Y-81985000D03*
X76608000Y-84385000D03*
D21*
X76608000Y-87485000D03*
D22*
G04 #@! TO.P,J1,5*
G04 #@! TO.N,GND*
X73958000Y-81885000D03*
G04 #@! TO.P,J1,4*
G04 #@! TO.N,Net-(J1-Pad4)*
X73958000Y-82535000D03*
G04 #@! TO.P,J1,3*
G04 #@! TO.N,/D+*
X73958000Y-83185000D03*
G04 #@! TO.P,J1,2*
G04 #@! TO.N,/D-*
X73958000Y-83835000D03*
G04 #@! TO.P,J1,1*
G04 #@! TO.N,Net-(C7-Pad1)*
X73958000Y-84485000D03*
G04 #@! TD*
D17*
G04 #@! TO.P,J3,12*
G04 #@! TO.N,/RESET*
X76200000Y-73025000D03*
G04 #@! TO.P,J3,11*
G04 #@! TO.N,Net-(J3-Pad11)*
X73660000Y-73025000D03*
G04 #@! TO.P,J3,10*
G04 #@! TO.N,/RXD*
X76200000Y-70485000D03*
G04 #@! TO.P,J3,9*
G04 #@! TO.N,GND*
X73660000Y-70485000D03*
G04 #@! TO.P,J3,8*
G04 #@! TO.N,/TXD*
X76200000Y-67945000D03*
G04 #@! TO.P,J3,7*
G04 #@! TO.N,Net-(J3-Pad7)*
X73660000Y-67945000D03*
G04 #@! TO.P,J3,6*
G04 #@! TO.N,GND*
X76200000Y-65405000D03*
G04 #@! TO.P,J3,5*
G04 #@! TO.N,Net-(J3-Pad5)*
X73660000Y-65405000D03*
G04 #@! TO.P,J3,4*
G04 #@! TO.N,Net-(J3-Pad4)*
X76200000Y-62865000D03*
G04 #@! TO.P,J3,3*
G04 #@! TO.N,Net-(J3-Pad3)*
X73660000Y-62865000D03*
G04 #@! TO.P,J3,2*
G04 #@! TO.N,Net-(J3-Pad2)*
X76200000Y-60325000D03*
D18*
G04 #@! TO.P,J3,1*
G04 #@! TO.N,Net-(C3-Pad1)*
X73660000Y-60325000D03*
G04 #@! TD*
D16*
G04 #@! TO.P,Q1,3*
G04 #@! TO.N,Net-(C3-Pad1)*
X40640000Y-60095000D03*
G04 #@! TO.P,Q1,2*
G04 #@! TO.N,+3V3*
X41590000Y-63095000D03*
G04 #@! TO.P,Q1,1*
G04 #@! TO.N,Net-(C3-Pad2)*
X39690000Y-63095000D03*
G04 #@! TD*
D13*
G04 #@! TO.P,R2,2*
G04 #@! TO.N,Net-(C3-Pad2)*
X40005000Y-66595000D03*
G04 #@! TO.P,R2,1*
G04 #@! TO.N,/PWREN*
X40005000Y-69295000D03*
G04 #@! TD*
D12*
G04 #@! TO.P,,1*
G04 #@! TO.N,N/C*
X74930000Y-99695000D03*
D11*
X76580000Y-99695000D03*
X76096726Y-100861726D03*
X74930000Y-101345000D03*
X73763274Y-100861726D03*
X73280000Y-99695000D03*
X73763274Y-98528274D03*
X74930000Y-98045000D03*
X76096726Y-98528274D03*
G04 #@! TD*
D15*
G04 #@! TO.P,C7,2*
G04 #@! TO.N,GND*
X70485000Y-88245000D03*
G04 #@! TO.P,C7,1*
G04 #@! TO.N,Net-(C7-Pad1)*
X70485000Y-85745000D03*
G04 #@! TD*
D14*
G04 #@! TO.P,C8,1*
G04 #@! TO.N,GND*
X60325000Y-85725000D03*
G04 #@! TO.P,C8,2*
G04 #@! TO.N,+5V*
X57825000Y-85725000D03*
G04 #@! TD*
D13*
G04 #@! TO.P,L1,2*
G04 #@! TO.N,Net-(C7-Pad1)*
X67310000Y-85645000D03*
G04 #@! TO.P,L1,1*
G04 #@! TO.N,+5V*
X67310000Y-88345000D03*
G04 #@! TD*
D14*
G04 #@! TO.P,C9,2*
G04 #@! TO.N,GND*
X74315000Y-90805000D03*
G04 #@! TO.P,C9,1*
G04 #@! TO.N,Net-(C9-Pad1)*
X76815000Y-90805000D03*
G04 #@! TD*
D23*
G04 #@! TO.P,R4,2*
G04 #@! TO.N,Net-(C9-Pad1)*
X76915000Y-93345000D03*
G04 #@! TO.P,R4,1*
G04 #@! TO.N,GND*
X74215000Y-93345000D03*
G04 #@! TD*
D16*
G04 #@! TO.P,Q3,3*
G04 #@! TO.N,/PWREN_5V*
X40640000Y-75795000D03*
G04 #@! TO.P,Q3,2*
G04 #@! TO.N,/PWREN*
X39690000Y-72795000D03*
G04 #@! TO.P,Q3,1*
G04 #@! TO.N,+3V3*
X41590000Y-72795000D03*
G04 #@! TD*
D13*
G04 #@! TO.P,R5,2*
G04 #@! TO.N,+5V*
X48895000Y-75645000D03*
G04 #@! TO.P,R5,1*
G04 #@! TO.N,/PWREN_5V*
X48895000Y-72945000D03*
G04 #@! TD*
D24*
G04 #@! TO.N,+5V*
X48260000Y-86360000D03*
X48260000Y-81915000D03*
G04 #@! TO.N,GND*
X59055000Y-71120000D03*
X60960000Y-81280000D03*
X55245000Y-84455000D03*
X60325000Y-86830000D03*
X72390000Y-81280000D03*
X74295000Y-92075000D03*
X70485000Y-89535000D03*
X48260000Y-62865000D03*
X38735000Y-78740000D03*
G04 #@! TO.N,+3V3*
X60325000Y-76940000D03*
X61232653Y-74177347D03*
G04 #@! TO.N,Net-(C5-Pad1)*
X37465000Y-60325000D03*
G04 #@! TO.N,/B_LED*
X52705000Y-79375000D03*
X59690000Y-78105000D03*
G04 #@! TO.N,/G_LED*
X58420000Y-78105000D03*
X52705000Y-78105000D03*
G04 #@! TD*
D25*
G04 #@! TO.N,+5V*
X57825000Y-86995000D02*
X57825000Y-83185000D01*
X57445000Y-82805000D02*
X57445000Y-79800000D01*
X57825000Y-83185000D02*
X57445000Y-82805000D01*
X57825000Y-85725000D02*
X57825000Y-87035000D01*
X57825000Y-86995000D02*
X57825000Y-87035000D01*
X57825000Y-87035000D02*
X59135000Y-88345000D01*
X59135000Y-88345000D02*
X67310000Y-88345000D01*
X57825000Y-86995000D02*
X57785000Y-86995000D01*
X56515000Y-88265000D02*
X50800000Y-88265000D01*
X57785000Y-86995000D02*
X56515000Y-88265000D01*
X50800000Y-88265000D02*
X50165000Y-88265000D01*
X50165000Y-88265000D02*
X48260000Y-86360000D01*
X48895000Y-80010000D02*
X48895000Y-77470000D01*
X48895000Y-77470000D02*
X48895000Y-75645000D01*
X46040000Y-78510000D02*
X46040000Y-77150000D01*
X47545000Y-75645000D02*
X48895000Y-75645000D01*
X46040000Y-77150000D02*
X47545000Y-75645000D01*
X48260000Y-81915000D02*
X48895000Y-81280000D01*
X48895000Y-81280000D02*
X48895000Y-80010000D01*
G04 #@! TO.N,GND*
X58745000Y-72600000D02*
X58745000Y-71430000D01*
X58745000Y-71430000D02*
X59055000Y-71120000D01*
X61345000Y-80895000D02*
X60960000Y-81280000D01*
X61345000Y-79800000D02*
X61345000Y-80895000D01*
X60695000Y-81015000D02*
X60960000Y-81280000D01*
X60695000Y-81015000D02*
X60695000Y-79800000D01*
X60205000Y-83185000D02*
X60325000Y-83185000D01*
X58095000Y-81075000D02*
X60205000Y-83185000D01*
X58095000Y-79800000D02*
X58095000Y-81075000D01*
X60325000Y-83185000D02*
X60325000Y-84455000D01*
X60325000Y-85725000D02*
X60325000Y-84455000D01*
X56145000Y-82285000D02*
X55245000Y-83185000D01*
X56145000Y-79800000D02*
X56145000Y-82285000D01*
X55245000Y-83185000D02*
X55245000Y-84455000D01*
X60325000Y-85725000D02*
X60325000Y-86830000D01*
X73958000Y-81885000D02*
X72995000Y-81885000D01*
X72995000Y-81885000D02*
X72390000Y-81280000D01*
X74315000Y-90805000D02*
X74315000Y-92055000D01*
X74295000Y-93265000D02*
X74215000Y-93345000D01*
X74295000Y-92075000D02*
X74295000Y-93265000D01*
X74315000Y-92055000D02*
X74295000Y-92075000D01*
X70485000Y-88245000D02*
X70485000Y-89535000D01*
X46990000Y-62845000D02*
X48240000Y-62845000D01*
X48240000Y-62845000D02*
X48260000Y-62865000D01*
X40005000Y-78760000D02*
X38755000Y-78760000D01*
X38755000Y-78760000D02*
X38735000Y-78740000D01*
G04 #@! TO.N,+3V3*
X60695000Y-73875000D02*
X61115000Y-74295000D01*
X60695000Y-72600000D02*
X60695000Y-73875000D01*
X55495000Y-79800000D02*
X55495000Y-78490000D01*
X55880000Y-78105000D02*
X57045000Y-76940000D01*
X55495000Y-78490000D02*
X55880000Y-78105000D01*
X61115000Y-74295000D02*
X61232653Y-74177347D01*
X57045000Y-76940000D02*
X55495000Y-78490000D01*
X60325000Y-76940000D02*
X57045000Y-76940000D01*
X55495000Y-80970002D02*
X55495000Y-79800000D01*
X53280002Y-83185000D02*
X55495000Y-80970002D01*
X52745000Y-83185000D02*
X53280002Y-83185000D01*
X41590000Y-63095000D02*
X41590000Y-64450000D01*
X41590000Y-64450000D02*
X41910000Y-64770000D01*
X60695000Y-70855000D02*
X60695000Y-72600000D01*
X43815000Y-66595000D02*
X43735000Y-66595000D01*
X43735000Y-66595000D02*
X41910000Y-64770000D01*
X57785000Y-67945000D02*
X60695000Y-70855000D01*
X60695000Y-70855000D02*
X60695000Y-72600000D01*
X43895000Y-66675000D02*
X43815000Y-66595000D01*
X56515000Y-66675000D02*
X43895000Y-66675000D01*
X57785000Y-67945000D02*
X56515000Y-66675000D01*
X43815000Y-66595000D02*
X43815000Y-66675000D01*
X42545000Y-67945000D02*
X41910000Y-67945000D01*
X43815000Y-66675000D02*
X42545000Y-67945000D01*
X41910000Y-67945000D02*
X38735000Y-67945000D01*
X41590000Y-73345000D02*
X41590000Y-72795000D01*
X40640000Y-74295000D02*
X41590000Y-73345000D01*
X38735000Y-74295000D02*
X40640000Y-74295000D01*
X38065002Y-73625002D02*
X38735000Y-74295000D01*
X38065002Y-68614998D02*
X38065002Y-73625002D01*
X38735000Y-67945000D02*
X38065002Y-68614998D01*
G04 #@! TO.N,Net-(C5-Pad1)*
X35540000Y-52705000D02*
X35540000Y-55245000D01*
X37465000Y-73660000D02*
X37465000Y-74295000D01*
X37465000Y-72390000D02*
X37465000Y-73660000D01*
X37465000Y-72390000D02*
X37465000Y-60325000D01*
X37465000Y-74295000D02*
X37465000Y-80010000D01*
X38715000Y-81260000D02*
X40005000Y-81260000D01*
X37465000Y-80010000D02*
X38715000Y-81260000D01*
X40005000Y-81260000D02*
X43180000Y-81260000D01*
X43180000Y-81260000D02*
X46740000Y-81260000D01*
X46740000Y-81260000D02*
X46990000Y-81510000D01*
D26*
G04 #@! TO.N,Net-(C6-Pad2)*
X45085000Y-75645000D02*
X45085000Y-76855000D01*
X45085000Y-76855000D02*
X43180000Y-78760000D01*
X43180000Y-78760000D02*
X43200000Y-78760000D01*
X47940000Y-79060000D02*
X47940000Y-78510000D01*
X46990000Y-80010000D02*
X47940000Y-79060000D01*
X44450000Y-80010000D02*
X46990000Y-80010000D01*
X43200000Y-78760000D02*
X44450000Y-80010000D01*
G04 #@! TO.N,/RXD*
X60045000Y-72600000D02*
X60045000Y-74650000D01*
X74930000Y-71755000D02*
X76200000Y-70485000D01*
X74930000Y-74295000D02*
X74930000Y-71755000D01*
X74295000Y-74930000D02*
X74930000Y-74295000D01*
X72390000Y-74930000D02*
X74295000Y-74930000D01*
X60045000Y-74650000D02*
X60325000Y-74930000D01*
X60325000Y-74930000D02*
X72390000Y-74930000D01*
X35540000Y-62865000D02*
X35540000Y-62845000D01*
X34290000Y-61595000D02*
X34290000Y-59690000D01*
X35540000Y-62845000D02*
X34290000Y-61595000D01*
X77470000Y-69215000D02*
X76200000Y-70485000D01*
X77470000Y-59055000D02*
X77470000Y-69215000D01*
X76200000Y-57785000D02*
X77470000Y-59055000D01*
X76200000Y-57785000D02*
X49530000Y-57785000D01*
X49530000Y-57785000D02*
X37465000Y-57785000D01*
X34925000Y-59055000D02*
X34290000Y-59690000D01*
X36195000Y-59055000D02*
X34925000Y-59055000D01*
X37465000Y-57785000D02*
X36195000Y-59055000D01*
G04 #@! TO.N,/TXD*
X74930000Y-66675000D02*
X76200000Y-67945000D01*
X48895000Y-58420000D02*
X38100000Y-58420000D01*
X74295000Y-58420000D02*
X48895000Y-58420000D01*
X74930000Y-59055000D02*
X74295000Y-58420000D01*
X74930000Y-59055000D02*
X74930000Y-66675000D01*
X62645000Y-72600000D02*
X62645000Y-74075000D01*
X74930000Y-69215000D02*
X76200000Y-67945000D01*
X73025000Y-69215000D02*
X74930000Y-69215000D01*
X72390000Y-69850000D02*
X73025000Y-69215000D01*
X72390000Y-73025000D02*
X72390000Y-69850000D01*
X71120000Y-74295000D02*
X72390000Y-73025000D01*
X62865000Y-74295000D02*
X71120000Y-74295000D01*
X62645000Y-74075000D02*
X62865000Y-74295000D01*
X35540000Y-60325000D02*
X36195000Y-60325000D01*
X36195000Y-60325000D02*
X38100000Y-58420000D01*
G04 #@! TO.N,/RESET*
X76835000Y-57150000D02*
X50165000Y-57150000D01*
X36195000Y-64135000D02*
X36830000Y-64770000D01*
X36830000Y-64770000D02*
X36830000Y-74930000D01*
X33655000Y-64135000D02*
X36195000Y-64135000D01*
X76200000Y-73025000D02*
X76835000Y-73025000D01*
X78105000Y-71755000D02*
X78105000Y-58420000D01*
X76835000Y-73025000D02*
X78105000Y-71755000D01*
X78105000Y-58420000D02*
X76835000Y-57150000D01*
X31750000Y-57150000D02*
X31750000Y-63500000D01*
X32385000Y-56515000D02*
X31750000Y-57150000D01*
X36195000Y-56515000D02*
X32385000Y-56515000D01*
X36830000Y-57150000D02*
X36195000Y-56515000D01*
X38100000Y-57150000D02*
X36830000Y-57150000D01*
X50165000Y-57150000D02*
X38100000Y-57150000D01*
X32385000Y-64135000D02*
X31750000Y-63500000D01*
X33655000Y-64135000D02*
X32385000Y-64135000D01*
X36830000Y-91440000D02*
X36830000Y-84455000D01*
X33020000Y-95885000D02*
X34290000Y-94615000D01*
X34290000Y-94615000D02*
X35560000Y-94615000D01*
X33000000Y-95885000D02*
X33020000Y-95885000D01*
X35560000Y-94615000D02*
X36195000Y-94615000D01*
X36830000Y-93980000D02*
X36830000Y-91440000D01*
X36195000Y-94615000D02*
X36830000Y-93980000D01*
X36830000Y-81915000D02*
X36830000Y-80645000D01*
X36830000Y-80010000D02*
X36830000Y-80645000D01*
X51435000Y-76835000D02*
X50800000Y-77470000D01*
X54195000Y-72600000D02*
X54195000Y-74075000D01*
X54195000Y-74075000D02*
X51435000Y-76835000D01*
X50800000Y-77470000D02*
X49530000Y-78740000D01*
X38100000Y-83185000D02*
X36830000Y-84455000D01*
X48260000Y-83185000D02*
X38100000Y-83185000D01*
X49530000Y-81915000D02*
X48260000Y-83185000D01*
X49530000Y-78740000D02*
X49530000Y-81915000D01*
X38100000Y-83185000D02*
X36830000Y-81915000D01*
X36830000Y-80010000D02*
X36830000Y-74930000D01*
G04 #@! TO.N,/PWREN*
X53975000Y-69215000D02*
X55245000Y-70485000D01*
X43815000Y-69295000D02*
X47625000Y-69295000D01*
X54055000Y-69295000D02*
X53975000Y-69215000D01*
X47625000Y-69295000D02*
X54055000Y-69295000D01*
X55245000Y-70485000D02*
X55495000Y-70735000D01*
X55495000Y-70735000D02*
X55495000Y-72600000D01*
X43815000Y-69295000D02*
X40005000Y-69295000D01*
X39690000Y-72795000D02*
X39690000Y-69610000D01*
X39690000Y-69610000D02*
X40005000Y-69295000D01*
G04 #@! TO.N,/R_LED*
X37465000Y-85090000D02*
X37465000Y-92075000D01*
X52070000Y-77470000D02*
X51435000Y-78105000D01*
X54845000Y-74695000D02*
X54845000Y-72600000D01*
X52070000Y-77470000D02*
X54845000Y-74695000D01*
X37465000Y-94615000D02*
X37465000Y-92075000D01*
X35540000Y-95885000D02*
X36195000Y-95885000D01*
X36195000Y-95885000D02*
X37465000Y-94615000D01*
X37465000Y-85090000D02*
X38735000Y-83820000D01*
X50165000Y-79375000D02*
X51435000Y-78105000D01*
X50165000Y-82550000D02*
X50165000Y-79375000D01*
X48895000Y-83820000D02*
X50165000Y-82550000D01*
X38735000Y-83820000D02*
X48895000Y-83820000D01*
G04 #@! TO.N,/B_LED*
X38735000Y-86995000D02*
X38735000Y-95885000D01*
X59395000Y-78400000D02*
X59690000Y-78105000D01*
X59395000Y-78400000D02*
X59395000Y-79800000D01*
X35560000Y-100965000D02*
X36830000Y-99695000D01*
X35540000Y-100965000D02*
X35560000Y-100965000D01*
X36830000Y-99695000D02*
X37465000Y-99060000D01*
X38735000Y-96520000D02*
X38735000Y-95885000D01*
X37465000Y-99060000D02*
X37465000Y-98425000D01*
X37465000Y-98425000D02*
X37465000Y-97790000D01*
X37465000Y-97790000D02*
X38735000Y-96520000D01*
X38735000Y-86995000D02*
X38735000Y-86360000D01*
X51435000Y-80645000D02*
X52705000Y-79375000D01*
X51435000Y-83820000D02*
X51435000Y-80645000D01*
X50165000Y-85090000D02*
X51435000Y-83820000D01*
X40005000Y-85090000D02*
X50165000Y-85090000D01*
X38735000Y-86360000D02*
X40005000Y-85090000D01*
G04 #@! TO.N,/G_LED*
X58745000Y-79800000D02*
X58745000Y-78430000D01*
X58745000Y-78430000D02*
X58420000Y-78105000D01*
X52070000Y-78740000D02*
X52705000Y-78105000D01*
X38100000Y-95250000D02*
X38100000Y-92710000D01*
X38100000Y-95885000D02*
X38100000Y-95250000D01*
X36830000Y-97155000D02*
X38100000Y-95885000D01*
X35560000Y-98425000D02*
X36830000Y-97155000D01*
X35540000Y-98425000D02*
X35560000Y-98425000D01*
X38100000Y-92710000D02*
X38100000Y-85725000D01*
X52070000Y-78740000D02*
X50800000Y-80010000D01*
X39370000Y-84455000D02*
X38100000Y-85725000D01*
X49530000Y-84455000D02*
X39370000Y-84455000D01*
X50800000Y-83185000D02*
X49530000Y-84455000D01*
X50800000Y-82550000D02*
X50800000Y-83185000D01*
X50800000Y-80010000D02*
X50800000Y-82550000D01*
G04 #@! TO.N,/D-*
X56501410Y-76215000D02*
X64135000Y-76215000D01*
X54845000Y-79800000D02*
X54845000Y-77871410D01*
X54845000Y-77871410D02*
X56501410Y-76215000D01*
X73958000Y-83835000D02*
X71770000Y-83835000D01*
X64135000Y-76200000D02*
X64135000Y-76215000D01*
X64150000Y-76215000D02*
X64135000Y-76200000D01*
X71770000Y-83835000D02*
X64150000Y-76215000D01*
G04 #@! TO.N,/D+*
X62230000Y-75565000D02*
X64770000Y-75565000D01*
X56515000Y-75565000D02*
X62230000Y-75565000D01*
X56515000Y-75565000D02*
X55880000Y-75565000D01*
X54195000Y-77250000D02*
X54195000Y-79800000D01*
X55880000Y-75565000D02*
X54195000Y-77250000D01*
X64770000Y-75565000D02*
X72390000Y-83185000D01*
X72390000Y-83185000D02*
X73958000Y-83185000D01*
G04 #@! TO.N,Net-(C3-Pad2)*
X39690000Y-63095000D02*
X39690000Y-62545000D01*
X40640000Y-61595000D02*
X43180000Y-61595000D01*
X39690000Y-62545000D02*
X40640000Y-61595000D01*
X39690000Y-63095000D02*
X39690000Y-66280000D01*
X39690000Y-66280000D02*
X40005000Y-66595000D01*
X44450000Y-62845000D02*
X44430000Y-62845000D01*
X44430000Y-62845000D02*
X43180000Y-61595000D01*
D25*
G04 #@! TO.N,Net-(C3-Pad1)*
X73660000Y-60325000D02*
X49530000Y-60325000D01*
X49530000Y-60325000D02*
X47010000Y-60325000D01*
X47010000Y-60325000D02*
X46990000Y-60345000D01*
X46990000Y-60345000D02*
X44450000Y-60345000D01*
X44450000Y-60345000D02*
X40890000Y-60345000D01*
X40890000Y-60345000D02*
X40640000Y-60095000D01*
G04 #@! TO.N,Net-(C7-Pad1)*
X73958000Y-84485000D02*
X71745000Y-84485000D01*
X71745000Y-84485000D02*
X70485000Y-85745000D01*
X67310000Y-85645000D02*
X70385000Y-85645000D01*
X70385000Y-85645000D02*
X70485000Y-85745000D01*
G04 #@! TO.N,Net-(C9-Pad1)*
X76608000Y-78885000D02*
X76608000Y-87485000D01*
X76608000Y-87485000D02*
X76608000Y-90598000D01*
X76608000Y-90598000D02*
X76815000Y-90805000D01*
X76815000Y-90805000D02*
X76815000Y-93245000D01*
X76815000Y-93245000D02*
X76915000Y-93345000D01*
D26*
G04 #@! TO.N,/PWREN_5V*
X40640000Y-75795000D02*
X42235000Y-75795000D01*
X42235000Y-75795000D02*
X45085000Y-72945000D01*
X45085000Y-72945000D02*
X47625000Y-72945000D01*
X48895000Y-72945000D02*
X45085000Y-72945000D01*
G04 #@! TD*
M02*
