M48
;DRILL file {KiCad (5.0.1)-3} date 20.12.2018 13:20:38
;FORMAT={-:-/ absolute / inch / decimal}
FMAT,2
INCH,TZ
T1C0.0157
T2C0.0394
T3C0.0866
%
G90
G05
M72
T1
X1.475Y-2.375
X1.525Y-3.1
X1.9Y-2.475
X1.9Y-3.225
X1.9Y-3.4
X2.075Y-3.075
X2.075Y-3.125
X2.175Y-3.325
X2.3Y-3.075
X2.325Y-2.8
X2.35Y-3.075
X2.375Y-3.0291
X2.375Y-3.4185
X2.4Y-3.2
X2.4107Y-2.9204
X2.775Y-3.525
X2.85Y-3.2
X2.925Y-3.625
X2.885Y-2.125
X2.9041Y-2.0791
X2.9041Y-2.1709
X2.95Y-2.06
X2.95Y-2.19
X2.9959Y-2.0791
X2.9959Y-2.1709
X3.015Y-2.125
X1.535Y-2.125
X1.5541Y-2.0791
X1.5541Y-2.1709
X1.6Y-2.06
X1.6Y-2.19
X1.6459Y-2.0791
X1.6459Y-2.1709
X1.665Y-2.125
X1.535Y-3.925
X1.5541Y-3.8791
X1.5541Y-3.9709
X1.6Y-3.86
X1.6Y-3.99
X1.6459Y-3.8791
X1.6459Y-3.9709
X1.665Y-3.925
X2.885Y-3.925
X2.9041Y-3.8791
X2.9041Y-3.9709
X2.95Y-3.86
X2.95Y-3.99
X2.9959Y-3.8791
X2.9959Y-3.9709
X3.015Y-3.925
T2
X1.2992Y-2.075
X1.2992Y-2.175
X1.2992Y-2.275
X1.2992Y-2.375
X1.2992Y-2.475
X1.2992Y-2.575
X1.2992Y-2.675
X1.2992Y-2.775
X1.2992Y-2.875
X1.2992Y-2.975
X1.2992Y-3.075
X1.2992Y-3.175
X1.2992Y-3.275
X1.2992Y-3.375
X1.2992Y-3.475
X1.2992Y-3.575
X1.2992Y-3.675
X1.2992Y-3.775
X1.2992Y-3.875
X1.2992Y-3.975
X1.3992Y-2.075
X1.3992Y-2.175
X1.3992Y-2.275
X1.3992Y-2.375
X1.3992Y-2.475
X1.3992Y-2.575
X1.3992Y-2.675
X1.3992Y-2.775
X1.3992Y-2.875
X1.3992Y-2.975
X1.3992Y-3.075
X1.3992Y-3.175
X1.3992Y-3.275
X1.3992Y-3.375
X1.3992Y-3.475
X1.3992Y-3.575
X1.3992Y-3.675
X1.3992Y-3.775
X1.3992Y-3.875
X1.3992Y-3.975
X2.9Y-2.375
X2.9Y-2.475
X2.9Y-2.575
X2.9Y-2.675
X2.9Y-2.775
X2.9Y-2.875
X3.Y-2.375
X3.Y-2.475
X3.Y-2.575
X3.Y-2.675
X3.Y-2.775
X3.Y-2.875
T3
X2.95Y-2.125
X1.6Y-2.125
X1.6Y-3.925
X2.95Y-3.925
T0
M30
