%FSLAX45Y45*%
G04 Gerber Fmt 4.5, Leading zero omitted, Abs format (unit mm)*
G04 Created by KiCad (PCBNEW (5.0.1)-3) date 20.12.2018 13:20:38*
%MOMM*%
%LPD*%
G01*
G04 APERTURE LIST*
%ADD10C,0.100000*%
%ADD11C,0.200000*%
%ADD12C,0.300000*%
G04 APERTURE END LIST*
D10*
X7874000Y-10287000D02*
X7874000Y-5080000D01*
X3111500Y-10287000D02*
X7874000Y-10287000D01*
X3111500Y-5080000D02*
X3111500Y-10287000D01*
X7874000Y-5080000D02*
X3111500Y-5080000D01*
D11*
X3726500Y-6012500D02*
X3766500Y-6052500D01*
X3766500Y-6012500D02*
X3726500Y-6052500D01*
X3853500Y-7854000D02*
X3893500Y-7894000D01*
X3893500Y-7854000D02*
X3853500Y-7894000D01*
X4806000Y-6266500D02*
X4846000Y-6306500D01*
X4846000Y-6266500D02*
X4806000Y-6306500D01*
X4806000Y-8171500D02*
X4846000Y-8211500D01*
X4846000Y-8171500D02*
X4806000Y-8211500D01*
X4806000Y-8616000D02*
X4846000Y-8656000D01*
X4846000Y-8616000D02*
X4806000Y-8656000D01*
X5250500Y-7790500D02*
X5290500Y-7830500D01*
X5290500Y-7790500D02*
X5250500Y-7830500D01*
X5250500Y-7917500D02*
X5290500Y-7957500D01*
X5290500Y-7917500D02*
X5250500Y-7957500D01*
X5504500Y-8425500D02*
X5544500Y-8465500D01*
X5544500Y-8425500D02*
X5504500Y-8465500D01*
X5822000Y-7790500D02*
X5862000Y-7830500D01*
X5862000Y-7790500D02*
X5822000Y-7830500D01*
X5885500Y-7092000D02*
X5925500Y-7132000D01*
X5925500Y-7092000D02*
X5885500Y-7132000D01*
X5949000Y-7790500D02*
X5989000Y-7830500D01*
X5989000Y-7790500D02*
X5949000Y-7830500D01*
X6012500Y-7674000D02*
X6052500Y-7714000D01*
X6052500Y-7674000D02*
X6012500Y-7714000D01*
X6012500Y-8663000D02*
X6052500Y-8703000D01*
X6052500Y-8663000D02*
X6012500Y-8703000D01*
X6076000Y-8108000D02*
X6116000Y-8148000D01*
X6116000Y-8108000D02*
X6076000Y-8148000D01*
X6103265Y-7397735D02*
X6143265Y-7437735D01*
X6143265Y-7397735D02*
X6103265Y-7437735D01*
X7028500Y-8933500D02*
X7068500Y-8973500D01*
X7068500Y-8933500D02*
X7028500Y-8973500D01*
X7219000Y-8108000D02*
X7259000Y-8148000D01*
X7259000Y-8108000D02*
X7219000Y-8148000D01*
X7409500Y-9187500D02*
X7449500Y-9227500D01*
X7449500Y-9187500D02*
X7409500Y-9227500D01*
X7308000Y-5377500D02*
X7348000Y-5417500D01*
X7348000Y-5377500D02*
X7308000Y-5417500D01*
X7356327Y-5260827D02*
X7396327Y-5300827D01*
X7396327Y-5260827D02*
X7356327Y-5300827D01*
X7356327Y-5494173D02*
X7396327Y-5534173D01*
X7396327Y-5494173D02*
X7356327Y-5534173D01*
X7473000Y-5212500D02*
X7513000Y-5252500D01*
X7513000Y-5212500D02*
X7473000Y-5252500D01*
X7473000Y-5542500D02*
X7513000Y-5582500D01*
X7513000Y-5542500D02*
X7473000Y-5582500D01*
X7589673Y-5260827D02*
X7629673Y-5300827D01*
X7629673Y-5260827D02*
X7589673Y-5300827D01*
X7589673Y-5494173D02*
X7629673Y-5534173D01*
X7629673Y-5494173D02*
X7589673Y-5534173D01*
X7638000Y-5377500D02*
X7678000Y-5417500D01*
X7678000Y-5377500D02*
X7638000Y-5417500D01*
X3879000Y-5377500D02*
X3919000Y-5417500D01*
X3919000Y-5377500D02*
X3879000Y-5417500D01*
X3927327Y-5260827D02*
X3967327Y-5300827D01*
X3967327Y-5260827D02*
X3927327Y-5300827D01*
X3927327Y-5494173D02*
X3967327Y-5534173D01*
X3967327Y-5494173D02*
X3927327Y-5534173D01*
X4044000Y-5212500D02*
X4084000Y-5252500D01*
X4084000Y-5212500D02*
X4044000Y-5252500D01*
X4044000Y-5542500D02*
X4084000Y-5582500D01*
X4084000Y-5542500D02*
X4044000Y-5582500D01*
X4160673Y-5260827D02*
X4200673Y-5300827D01*
X4200673Y-5260827D02*
X4160673Y-5300827D01*
X4160673Y-5494173D02*
X4200673Y-5534173D01*
X4200673Y-5494173D02*
X4160673Y-5534173D01*
X4209000Y-5377500D02*
X4249000Y-5417500D01*
X4249000Y-5377500D02*
X4209000Y-5417500D01*
X3879000Y-9949500D02*
X3919000Y-9989500D01*
X3919000Y-9949500D02*
X3879000Y-9989500D01*
X3927327Y-9832827D02*
X3967327Y-9872827D01*
X3967327Y-9832827D02*
X3927327Y-9872827D01*
X3927327Y-10066173D02*
X3967327Y-10106173D01*
X3967327Y-10066173D02*
X3927327Y-10106173D01*
X4044000Y-9784500D02*
X4084000Y-9824500D01*
X4084000Y-9784500D02*
X4044000Y-9824500D01*
X4044000Y-10114500D02*
X4084000Y-10154500D01*
X4084000Y-10114500D02*
X4044000Y-10154500D01*
X4160673Y-9832827D02*
X4200673Y-9872827D01*
X4200673Y-9832827D02*
X4160673Y-9872827D01*
X4160673Y-10066173D02*
X4200673Y-10106173D01*
X4200673Y-10066173D02*
X4160673Y-10106173D01*
X4209000Y-9949500D02*
X4249000Y-9989500D01*
X4249000Y-9949500D02*
X4209000Y-9989500D01*
X7308000Y-9949500D02*
X7348000Y-9989500D01*
X7348000Y-9949500D02*
X7308000Y-9989500D01*
X7356327Y-9832827D02*
X7396327Y-9872827D01*
X7396327Y-9832827D02*
X7356327Y-9872827D01*
X7356327Y-10066173D02*
X7396327Y-10106173D01*
X7396327Y-10066173D02*
X7356327Y-10106173D01*
X7473000Y-9784500D02*
X7513000Y-9824500D01*
X7513000Y-9784500D02*
X7473000Y-9824500D01*
X7473000Y-10114500D02*
X7513000Y-10154500D01*
X7513000Y-10114500D02*
X7473000Y-10154500D01*
X7589673Y-9832827D02*
X7629673Y-9872827D01*
X7629673Y-9832827D02*
X7589673Y-9872827D01*
X7589673Y-10066173D02*
X7629673Y-10106173D01*
X7629673Y-10066173D02*
X7589673Y-10106173D01*
X7638000Y-9949500D02*
X7678000Y-9989500D01*
X7678000Y-9949500D02*
X7638000Y-9989500D01*
X3350000Y-5270500D02*
G75*
G03X3350000Y-5270500I-50000J0D01*
G01*
X3350000Y-5524500D02*
G75*
G03X3350000Y-5524500I-50000J0D01*
G01*
X3350000Y-5778500D02*
G75*
G03X3350000Y-5778500I-50000J0D01*
G01*
X3350000Y-6032500D02*
G75*
G03X3350000Y-6032500I-50000J0D01*
G01*
X3350000Y-6286500D02*
G75*
G03X3350000Y-6286500I-50000J0D01*
G01*
X3350000Y-6540500D02*
G75*
G03X3350000Y-6540500I-50000J0D01*
G01*
X3350000Y-6794500D02*
G75*
G03X3350000Y-6794500I-50000J0D01*
G01*
X3350000Y-7048500D02*
G75*
G03X3350000Y-7048500I-50000J0D01*
G01*
X3350000Y-7302500D02*
G75*
G03X3350000Y-7302500I-50000J0D01*
G01*
X3350000Y-7556500D02*
G75*
G03X3350000Y-7556500I-50000J0D01*
G01*
X3350000Y-7810500D02*
G75*
G03X3350000Y-7810500I-50000J0D01*
G01*
X3350000Y-8064500D02*
G75*
G03X3350000Y-8064500I-50000J0D01*
G01*
X3350000Y-8318500D02*
G75*
G03X3350000Y-8318500I-50000J0D01*
G01*
X3350000Y-8572500D02*
G75*
G03X3350000Y-8572500I-50000J0D01*
G01*
X3350000Y-8826500D02*
G75*
G03X3350000Y-8826500I-50000J0D01*
G01*
X3350000Y-9080500D02*
G75*
G03X3350000Y-9080500I-50000J0D01*
G01*
X3350000Y-9334500D02*
G75*
G03X3350000Y-9334500I-50000J0D01*
G01*
X3350000Y-9588500D02*
G75*
G03X3350000Y-9588500I-50000J0D01*
G01*
X3350000Y-9842500D02*
G75*
G03X3350000Y-9842500I-50000J0D01*
G01*
X3350000Y-10096500D02*
G75*
G03X3350000Y-10096500I-50000J0D01*
G01*
X3604000Y-5270500D02*
G75*
G03X3604000Y-5270500I-50000J0D01*
G01*
X3604000Y-5524500D02*
G75*
G03X3604000Y-5524500I-50000J0D01*
G01*
X3604000Y-5778500D02*
G75*
G03X3604000Y-5778500I-50000J0D01*
G01*
X3604000Y-6032500D02*
G75*
G03X3604000Y-6032500I-50000J0D01*
G01*
X3604000Y-6286500D02*
G75*
G03X3604000Y-6286500I-50000J0D01*
G01*
X3604000Y-6540500D02*
G75*
G03X3604000Y-6540500I-50000J0D01*
G01*
X3604000Y-6794500D02*
G75*
G03X3604000Y-6794500I-50000J0D01*
G01*
X3604000Y-7048500D02*
G75*
G03X3604000Y-7048500I-50000J0D01*
G01*
X3604000Y-7302500D02*
G75*
G03X3604000Y-7302500I-50000J0D01*
G01*
X3604000Y-7556500D02*
G75*
G03X3604000Y-7556500I-50000J0D01*
G01*
X3604000Y-7810500D02*
G75*
G03X3604000Y-7810500I-50000J0D01*
G01*
X3604000Y-8064500D02*
G75*
G03X3604000Y-8064500I-50000J0D01*
G01*
X3604000Y-8318500D02*
G75*
G03X3604000Y-8318500I-50000J0D01*
G01*
X3604000Y-8572500D02*
G75*
G03X3604000Y-8572500I-50000J0D01*
G01*
X3604000Y-8826500D02*
G75*
G03X3604000Y-8826500I-50000J0D01*
G01*
X3604000Y-9080500D02*
G75*
G03X3604000Y-9080500I-50000J0D01*
G01*
X3604000Y-9334500D02*
G75*
G03X3604000Y-9334500I-50000J0D01*
G01*
X3604000Y-9588500D02*
G75*
G03X3604000Y-9588500I-50000J0D01*
G01*
X3604000Y-9842500D02*
G75*
G03X3604000Y-9842500I-50000J0D01*
G01*
X3604000Y-10096500D02*
G75*
G03X3604000Y-10096500I-50000J0D01*
G01*
X7416000Y-6032500D02*
G75*
G03X7416000Y-6032500I-50000J0D01*
G01*
X7416000Y-6286500D02*
G75*
G03X7416000Y-6286500I-50000J0D01*
G01*
X7416000Y-6540500D02*
G75*
G03X7416000Y-6540500I-50000J0D01*
G01*
X7416000Y-6794500D02*
G75*
G03X7416000Y-6794500I-50000J0D01*
G01*
X7416000Y-7048500D02*
G75*
G03X7416000Y-7048500I-50000J0D01*
G01*
X7416000Y-7302500D02*
G75*
G03X7416000Y-7302500I-50000J0D01*
G01*
X7670000Y-6032500D02*
G75*
G03X7670000Y-6032500I-50000J0D01*
G01*
X7670000Y-6286500D02*
G75*
G03X7670000Y-6286500I-50000J0D01*
G01*
X7670000Y-6540500D02*
G75*
G03X7670000Y-6540500I-50000J0D01*
G01*
X7670000Y-6794500D02*
G75*
G03X7670000Y-6794500I-50000J0D01*
G01*
X7670000Y-7048500D02*
G75*
G03X7670000Y-7048500I-50000J0D01*
G01*
X7670000Y-7302500D02*
G75*
G03X7670000Y-7302500I-50000J0D01*
G01*
X7493000Y-5287500D02*
X7493000Y-5507500D01*
X7383000Y-5397500D02*
X7603000Y-5397500D01*
X4064000Y-5287500D02*
X4064000Y-5507500D01*
X3954000Y-5397500D02*
X4174000Y-5397500D01*
X4064000Y-9859500D02*
X4064000Y-10079500D01*
X3954000Y-9969500D02*
X4174000Y-9969500D01*
X7493000Y-9859500D02*
X7493000Y-10079500D01*
X7383000Y-9969500D02*
X7603000Y-9969500D01*
D12*
X3392928Y-10757714D02*
X3392928Y-10457714D01*
X3464357Y-10457714D01*
X3507214Y-10472000D01*
X3535786Y-10500572D01*
X3550071Y-10529143D01*
X3564357Y-10586286D01*
X3564357Y-10629143D01*
X3550071Y-10686286D01*
X3535786Y-10714857D01*
X3507214Y-10743429D01*
X3464357Y-10757714D01*
X3392928Y-10757714D01*
X3692928Y-10757714D02*
X3692928Y-10557714D01*
X3692928Y-10614857D02*
X3707214Y-10586286D01*
X3721500Y-10572000D01*
X3750071Y-10557714D01*
X3778643Y-10557714D01*
X3878643Y-10757714D02*
X3878643Y-10557714D01*
X3878643Y-10457714D02*
X3864357Y-10472000D01*
X3878643Y-10486286D01*
X3892928Y-10472000D01*
X3878643Y-10457714D01*
X3878643Y-10486286D01*
X4064357Y-10757714D02*
X4035786Y-10743429D01*
X4021500Y-10714857D01*
X4021500Y-10457714D01*
X4221500Y-10757714D02*
X4192928Y-10743429D01*
X4178643Y-10714857D01*
X4178643Y-10457714D01*
X4564357Y-10757714D02*
X4564357Y-10457714D01*
X4664357Y-10672000D01*
X4764357Y-10457714D01*
X4764357Y-10757714D01*
X5035786Y-10757714D02*
X5035786Y-10600572D01*
X5021500Y-10572000D01*
X4992928Y-10557714D01*
X4935786Y-10557714D01*
X4907214Y-10572000D01*
X5035786Y-10743429D02*
X5007214Y-10757714D01*
X4935786Y-10757714D01*
X4907214Y-10743429D01*
X4892928Y-10714857D01*
X4892928Y-10686286D01*
X4907214Y-10657714D01*
X4935786Y-10643429D01*
X5007214Y-10643429D01*
X5035786Y-10629143D01*
X5178643Y-10557714D02*
X5178643Y-10857714D01*
X5178643Y-10572000D02*
X5207214Y-10557714D01*
X5264357Y-10557714D01*
X5292928Y-10572000D01*
X5307214Y-10586286D01*
X5321500Y-10614857D01*
X5321500Y-10700572D01*
X5307214Y-10729143D01*
X5292928Y-10743429D01*
X5264357Y-10757714D01*
X5207214Y-10757714D01*
X5178643Y-10743429D01*
X5450071Y-10729143D02*
X5464357Y-10743429D01*
X5450071Y-10757714D01*
X5435786Y-10743429D01*
X5450071Y-10729143D01*
X5450071Y-10757714D01*
X5450071Y-10572000D02*
X5464357Y-10586286D01*
X5450071Y-10600572D01*
X5435786Y-10586286D01*
X5450071Y-10572000D01*
X5450071Y-10600572D01*
X3066500Y-11232000D02*
X3106500Y-11272000D01*
X3106500Y-11232000D02*
X3066500Y-11272000D01*
X3450071Y-11087714D02*
X3478643Y-11087714D01*
X3507214Y-11102000D01*
X3521500Y-11116286D01*
X3535786Y-11144857D01*
X3550071Y-11202000D01*
X3550071Y-11273429D01*
X3535786Y-11330571D01*
X3521500Y-11359143D01*
X3507214Y-11373429D01*
X3478643Y-11387714D01*
X3450071Y-11387714D01*
X3421500Y-11373429D01*
X3407214Y-11359143D01*
X3392928Y-11330571D01*
X3378643Y-11273429D01*
X3378643Y-11202000D01*
X3392928Y-11144857D01*
X3407214Y-11116286D01*
X3421500Y-11102000D01*
X3450071Y-11087714D01*
X3678643Y-11359143D02*
X3692928Y-11373429D01*
X3678643Y-11387714D01*
X3664357Y-11373429D01*
X3678643Y-11359143D01*
X3678643Y-11387714D01*
X3950071Y-11187714D02*
X3950071Y-11387714D01*
X3878643Y-11073429D02*
X3807214Y-11287714D01*
X3992928Y-11287714D01*
X4164357Y-11087714D02*
X4192928Y-11087714D01*
X4221500Y-11102000D01*
X4235786Y-11116286D01*
X4250071Y-11144857D01*
X4264357Y-11202000D01*
X4264357Y-11273429D01*
X4250071Y-11330571D01*
X4235786Y-11359143D01*
X4221500Y-11373429D01*
X4192928Y-11387714D01*
X4164357Y-11387714D01*
X4135786Y-11373429D01*
X4121500Y-11359143D01*
X4107214Y-11330571D01*
X4092928Y-11273429D01*
X4092928Y-11202000D01*
X4107214Y-11144857D01*
X4121500Y-11116286D01*
X4135786Y-11102000D01*
X4164357Y-11087714D01*
X4392928Y-11387714D02*
X4392928Y-11187714D01*
X4392928Y-11216286D02*
X4407214Y-11202000D01*
X4435786Y-11187714D01*
X4478643Y-11187714D01*
X4507214Y-11202000D01*
X4521500Y-11230571D01*
X4521500Y-11387714D01*
X4521500Y-11230571D02*
X4535786Y-11202000D01*
X4564357Y-11187714D01*
X4607214Y-11187714D01*
X4635786Y-11202000D01*
X4650071Y-11230571D01*
X4650071Y-11387714D01*
X4792928Y-11387714D02*
X4792928Y-11187714D01*
X4792928Y-11216286D02*
X4807214Y-11202000D01*
X4835786Y-11187714D01*
X4878643Y-11187714D01*
X4907214Y-11202000D01*
X4921500Y-11230571D01*
X4921500Y-11387714D01*
X4921500Y-11230571D02*
X4935786Y-11202000D01*
X4964357Y-11187714D01*
X5007214Y-11187714D01*
X5035786Y-11202000D01*
X5050071Y-11230571D01*
X5050071Y-11387714D01*
X5635786Y-11073429D02*
X5378643Y-11459143D01*
X6021500Y-11087714D02*
X6050071Y-11087714D01*
X6078643Y-11102000D01*
X6092928Y-11116286D01*
X6107214Y-11144857D01*
X6121500Y-11202000D01*
X6121500Y-11273429D01*
X6107214Y-11330571D01*
X6092928Y-11359143D01*
X6078643Y-11373429D01*
X6050071Y-11387714D01*
X6021500Y-11387714D01*
X5992928Y-11373429D01*
X5978643Y-11359143D01*
X5964357Y-11330571D01*
X5950071Y-11273429D01*
X5950071Y-11202000D01*
X5964357Y-11144857D01*
X5978643Y-11116286D01*
X5992928Y-11102000D01*
X6021500Y-11087714D01*
X6250071Y-11359143D02*
X6264357Y-11373429D01*
X6250071Y-11387714D01*
X6235786Y-11373429D01*
X6250071Y-11359143D01*
X6250071Y-11387714D01*
X6450071Y-11087714D02*
X6478643Y-11087714D01*
X6507214Y-11102000D01*
X6521500Y-11116286D01*
X6535786Y-11144857D01*
X6550071Y-11202000D01*
X6550071Y-11273429D01*
X6535786Y-11330571D01*
X6521500Y-11359143D01*
X6507214Y-11373429D01*
X6478643Y-11387714D01*
X6450071Y-11387714D01*
X6421500Y-11373429D01*
X6407214Y-11359143D01*
X6392928Y-11330571D01*
X6378643Y-11273429D01*
X6378643Y-11202000D01*
X6392928Y-11144857D01*
X6407214Y-11116286D01*
X6421500Y-11102000D01*
X6450071Y-11087714D01*
X6835786Y-11387714D02*
X6664357Y-11387714D01*
X6750071Y-11387714D02*
X6750071Y-11087714D01*
X6721500Y-11130572D01*
X6692928Y-11159143D01*
X6664357Y-11173429D01*
X7092928Y-11087714D02*
X7035786Y-11087714D01*
X7007214Y-11102000D01*
X6992928Y-11116286D01*
X6964357Y-11159143D01*
X6950071Y-11216286D01*
X6950071Y-11330571D01*
X6964357Y-11359143D01*
X6978643Y-11373429D01*
X7007214Y-11387714D01*
X7064357Y-11387714D01*
X7092928Y-11373429D01*
X7107214Y-11359143D01*
X7121500Y-11330571D01*
X7121500Y-11259143D01*
X7107214Y-11230571D01*
X7092928Y-11216286D01*
X7064357Y-11202000D01*
X7007214Y-11202000D01*
X6978643Y-11216286D01*
X6964357Y-11230571D01*
X6950071Y-11259143D01*
X7235786Y-11087714D02*
X7235786Y-11144857D01*
X7350071Y-11087714D02*
X7350071Y-11144857D01*
X7792928Y-11502000D02*
X7778643Y-11487714D01*
X7750071Y-11444857D01*
X7735786Y-11416286D01*
X7721500Y-11373429D01*
X7707214Y-11302000D01*
X7707214Y-11244857D01*
X7721500Y-11173429D01*
X7735786Y-11130572D01*
X7750071Y-11102000D01*
X7778643Y-11059143D01*
X7792928Y-11044857D01*
X8050071Y-11087714D02*
X7907214Y-11087714D01*
X7892928Y-11230571D01*
X7907214Y-11216286D01*
X7935786Y-11202000D01*
X8007214Y-11202000D01*
X8035786Y-11216286D01*
X8050071Y-11230571D01*
X8064357Y-11259143D01*
X8064357Y-11330571D01*
X8050071Y-11359143D01*
X8035786Y-11373429D01*
X8007214Y-11387714D01*
X7935786Y-11387714D01*
X7907214Y-11373429D01*
X7892928Y-11359143D01*
X8250071Y-11087714D02*
X8278643Y-11087714D01*
X8307214Y-11102000D01*
X8321500Y-11116286D01*
X8335786Y-11144857D01*
X8350071Y-11202000D01*
X8350071Y-11273429D01*
X8335786Y-11330571D01*
X8321500Y-11359143D01*
X8307214Y-11373429D01*
X8278643Y-11387714D01*
X8250071Y-11387714D01*
X8221500Y-11373429D01*
X8207214Y-11359143D01*
X8192928Y-11330571D01*
X8178643Y-11273429D01*
X8178643Y-11202000D01*
X8192928Y-11144857D01*
X8207214Y-11116286D01*
X8221500Y-11102000D01*
X8250071Y-11087714D01*
X8707214Y-11387714D02*
X8707214Y-11087714D01*
X8835786Y-11387714D02*
X8835786Y-11230571D01*
X8821500Y-11202000D01*
X8792928Y-11187714D01*
X8750071Y-11187714D01*
X8721500Y-11202000D01*
X8707214Y-11216286D01*
X9021500Y-11387714D02*
X8992928Y-11373429D01*
X8978643Y-11359143D01*
X8964357Y-11330571D01*
X8964357Y-11244857D01*
X8978643Y-11216286D01*
X8992928Y-11202000D01*
X9021500Y-11187714D01*
X9064357Y-11187714D01*
X9092928Y-11202000D01*
X9107214Y-11216286D01*
X9121500Y-11244857D01*
X9121500Y-11330571D01*
X9107214Y-11359143D01*
X9092928Y-11373429D01*
X9064357Y-11387714D01*
X9021500Y-11387714D01*
X9292928Y-11387714D02*
X9264357Y-11373429D01*
X9250071Y-11344857D01*
X9250071Y-11087714D01*
X9521500Y-11373429D02*
X9492928Y-11387714D01*
X9435786Y-11387714D01*
X9407214Y-11373429D01*
X9392928Y-11344857D01*
X9392928Y-11230571D01*
X9407214Y-11202000D01*
X9435786Y-11187714D01*
X9492928Y-11187714D01*
X9521500Y-11202000D01*
X9535786Y-11230571D01*
X9535786Y-11259143D01*
X9392928Y-11287714D01*
X9650071Y-11373429D02*
X9678643Y-11387714D01*
X9735786Y-11387714D01*
X9764357Y-11373429D01*
X9778643Y-11344857D01*
X9778643Y-11330571D01*
X9764357Y-11302000D01*
X9735786Y-11287714D01*
X9692928Y-11287714D01*
X9664357Y-11273429D01*
X9650071Y-11244857D01*
X9650071Y-11230571D01*
X9664357Y-11202000D01*
X9692928Y-11187714D01*
X9735786Y-11187714D01*
X9764357Y-11202000D01*
X9878643Y-11502000D02*
X9892928Y-11487714D01*
X9921500Y-11444857D01*
X9935786Y-11416286D01*
X9950071Y-11373429D01*
X9964357Y-11302000D01*
X9964357Y-11244857D01*
X9950071Y-11173429D01*
X9935786Y-11130572D01*
X9921500Y-11102000D01*
X9892928Y-11059143D01*
X9878643Y-11044857D01*
X3106500Y-11648000D02*
G75*
G03X3106500Y-11648000I-50000J0D01*
G01*
X3550071Y-11783714D02*
X3378643Y-11783714D01*
X3464357Y-11783714D02*
X3464357Y-11483714D01*
X3435786Y-11526571D01*
X3407214Y-11555143D01*
X3378643Y-11569429D01*
X3678643Y-11755143D02*
X3692928Y-11769429D01*
X3678643Y-11783714D01*
X3664357Y-11769429D01*
X3678643Y-11755143D01*
X3678643Y-11783714D01*
X3878643Y-11483714D02*
X3907214Y-11483714D01*
X3935786Y-11498000D01*
X3950071Y-11512286D01*
X3964357Y-11540857D01*
X3978643Y-11598000D01*
X3978643Y-11669429D01*
X3964357Y-11726571D01*
X3950071Y-11755143D01*
X3935786Y-11769429D01*
X3907214Y-11783714D01*
X3878643Y-11783714D01*
X3850071Y-11769429D01*
X3835786Y-11755143D01*
X3821500Y-11726571D01*
X3807214Y-11669429D01*
X3807214Y-11598000D01*
X3821500Y-11540857D01*
X3835786Y-11512286D01*
X3850071Y-11498000D01*
X3878643Y-11483714D01*
X4164357Y-11483714D02*
X4192928Y-11483714D01*
X4221500Y-11498000D01*
X4235786Y-11512286D01*
X4250071Y-11540857D01*
X4264357Y-11598000D01*
X4264357Y-11669429D01*
X4250071Y-11726571D01*
X4235786Y-11755143D01*
X4221500Y-11769429D01*
X4192928Y-11783714D01*
X4164357Y-11783714D01*
X4135786Y-11769429D01*
X4121500Y-11755143D01*
X4107214Y-11726571D01*
X4092928Y-11669429D01*
X4092928Y-11598000D01*
X4107214Y-11540857D01*
X4121500Y-11512286D01*
X4135786Y-11498000D01*
X4164357Y-11483714D01*
X4392928Y-11783714D02*
X4392928Y-11583714D01*
X4392928Y-11612286D02*
X4407214Y-11598000D01*
X4435786Y-11583714D01*
X4478643Y-11583714D01*
X4507214Y-11598000D01*
X4521500Y-11626571D01*
X4521500Y-11783714D01*
X4521500Y-11626571D02*
X4535786Y-11598000D01*
X4564357Y-11583714D01*
X4607214Y-11583714D01*
X4635786Y-11598000D01*
X4650071Y-11626571D01*
X4650071Y-11783714D01*
X4792928Y-11783714D02*
X4792928Y-11583714D01*
X4792928Y-11612286D02*
X4807214Y-11598000D01*
X4835786Y-11583714D01*
X4878643Y-11583714D01*
X4907214Y-11598000D01*
X4921500Y-11626571D01*
X4921500Y-11783714D01*
X4921500Y-11626571D02*
X4935786Y-11598000D01*
X4964357Y-11583714D01*
X5007214Y-11583714D01*
X5035786Y-11598000D01*
X5050071Y-11626571D01*
X5050071Y-11783714D01*
X5635786Y-11469429D02*
X5378643Y-11855143D01*
X6021500Y-11483714D02*
X6050071Y-11483714D01*
X6078643Y-11498000D01*
X6092928Y-11512286D01*
X6107214Y-11540857D01*
X6121500Y-11598000D01*
X6121500Y-11669429D01*
X6107214Y-11726571D01*
X6092928Y-11755143D01*
X6078643Y-11769429D01*
X6050071Y-11783714D01*
X6021500Y-11783714D01*
X5992928Y-11769429D01*
X5978643Y-11755143D01*
X5964357Y-11726571D01*
X5950071Y-11669429D01*
X5950071Y-11598000D01*
X5964357Y-11540857D01*
X5978643Y-11512286D01*
X5992928Y-11498000D01*
X6021500Y-11483714D01*
X6250071Y-11755143D02*
X6264357Y-11769429D01*
X6250071Y-11783714D01*
X6235786Y-11769429D01*
X6250071Y-11755143D01*
X6250071Y-11783714D01*
X6450071Y-11483714D02*
X6478643Y-11483714D01*
X6507214Y-11498000D01*
X6521500Y-11512286D01*
X6535786Y-11540857D01*
X6550071Y-11598000D01*
X6550071Y-11669429D01*
X6535786Y-11726571D01*
X6521500Y-11755143D01*
X6507214Y-11769429D01*
X6478643Y-11783714D01*
X6450071Y-11783714D01*
X6421500Y-11769429D01*
X6407214Y-11755143D01*
X6392928Y-11726571D01*
X6378643Y-11669429D01*
X6378643Y-11598000D01*
X6392928Y-11540857D01*
X6407214Y-11512286D01*
X6421500Y-11498000D01*
X6450071Y-11483714D01*
X6650071Y-11483714D02*
X6835786Y-11483714D01*
X6735786Y-11598000D01*
X6778643Y-11598000D01*
X6807214Y-11612286D01*
X6821500Y-11626571D01*
X6835786Y-11655143D01*
X6835786Y-11726571D01*
X6821500Y-11755143D01*
X6807214Y-11769429D01*
X6778643Y-11783714D01*
X6692928Y-11783714D01*
X6664357Y-11769429D01*
X6650071Y-11755143D01*
X6978643Y-11783714D02*
X7035786Y-11783714D01*
X7064357Y-11769429D01*
X7078643Y-11755143D01*
X7107214Y-11712286D01*
X7121500Y-11655143D01*
X7121500Y-11540857D01*
X7107214Y-11512286D01*
X7092928Y-11498000D01*
X7064357Y-11483714D01*
X7007214Y-11483714D01*
X6978643Y-11498000D01*
X6964357Y-11512286D01*
X6950071Y-11540857D01*
X6950071Y-11612286D01*
X6964357Y-11640857D01*
X6978643Y-11655143D01*
X7007214Y-11669429D01*
X7064357Y-11669429D01*
X7092928Y-11655143D01*
X7107214Y-11640857D01*
X7121500Y-11612286D01*
X7235786Y-11483714D02*
X7235786Y-11540857D01*
X7350071Y-11483714D02*
X7350071Y-11540857D01*
X7792928Y-11898000D02*
X7778643Y-11883714D01*
X7750071Y-11840857D01*
X7735786Y-11812286D01*
X7721500Y-11769429D01*
X7707214Y-11698000D01*
X7707214Y-11640857D01*
X7721500Y-11569429D01*
X7735786Y-11526571D01*
X7750071Y-11498000D01*
X7778643Y-11455143D01*
X7792928Y-11440857D01*
X8050071Y-11483714D02*
X7907214Y-11483714D01*
X7892928Y-11626571D01*
X7907214Y-11612286D01*
X7935786Y-11598000D01*
X8007214Y-11598000D01*
X8035786Y-11612286D01*
X8050071Y-11626571D01*
X8064357Y-11655143D01*
X8064357Y-11726571D01*
X8050071Y-11755143D01*
X8035786Y-11769429D01*
X8007214Y-11783714D01*
X7935786Y-11783714D01*
X7907214Y-11769429D01*
X7892928Y-11755143D01*
X8178643Y-11512286D02*
X8192928Y-11498000D01*
X8221500Y-11483714D01*
X8292928Y-11483714D01*
X8321500Y-11498000D01*
X8335786Y-11512286D01*
X8350071Y-11540857D01*
X8350071Y-11569429D01*
X8335786Y-11612286D01*
X8164357Y-11783714D01*
X8350071Y-11783714D01*
X8707214Y-11783714D02*
X8707214Y-11483714D01*
X8835786Y-11783714D02*
X8835786Y-11626571D01*
X8821500Y-11598000D01*
X8792928Y-11583714D01*
X8750071Y-11583714D01*
X8721500Y-11598000D01*
X8707214Y-11612286D01*
X9021500Y-11783714D02*
X8992928Y-11769429D01*
X8978643Y-11755143D01*
X8964357Y-11726571D01*
X8964357Y-11640857D01*
X8978643Y-11612286D01*
X8992928Y-11598000D01*
X9021500Y-11583714D01*
X9064357Y-11583714D01*
X9092928Y-11598000D01*
X9107214Y-11612286D01*
X9121500Y-11640857D01*
X9121500Y-11726571D01*
X9107214Y-11755143D01*
X9092928Y-11769429D01*
X9064357Y-11783714D01*
X9021500Y-11783714D01*
X9292928Y-11783714D02*
X9264357Y-11769429D01*
X9250071Y-11740857D01*
X9250071Y-11483714D01*
X9521500Y-11769429D02*
X9492928Y-11783714D01*
X9435786Y-11783714D01*
X9407214Y-11769429D01*
X9392928Y-11740857D01*
X9392928Y-11626571D01*
X9407214Y-11598000D01*
X9435786Y-11583714D01*
X9492928Y-11583714D01*
X9521500Y-11598000D01*
X9535786Y-11626571D01*
X9535786Y-11655143D01*
X9392928Y-11683714D01*
X9650071Y-11769429D02*
X9678643Y-11783714D01*
X9735786Y-11783714D01*
X9764357Y-11769429D01*
X9778643Y-11740857D01*
X9778643Y-11726571D01*
X9764357Y-11698000D01*
X9735786Y-11683714D01*
X9692928Y-11683714D01*
X9664357Y-11669429D01*
X9650071Y-11640857D01*
X9650071Y-11626571D01*
X9664357Y-11598000D01*
X9692928Y-11583714D01*
X9735786Y-11583714D01*
X9764357Y-11598000D01*
X9878643Y-11898000D02*
X9892928Y-11883714D01*
X9921500Y-11840857D01*
X9935786Y-11812286D01*
X9950071Y-11769429D01*
X9964357Y-11698000D01*
X9964357Y-11640857D01*
X9950071Y-11569429D01*
X9935786Y-11526571D01*
X9921500Y-11498000D01*
X9892928Y-11455143D01*
X9878643Y-11440857D01*
X2996500Y-11934000D02*
X2996500Y-12154000D01*
X2886500Y-12044000D02*
X3106500Y-12044000D01*
X3378643Y-11908286D02*
X3392928Y-11894000D01*
X3421500Y-11879714D01*
X3492928Y-11879714D01*
X3521500Y-11894000D01*
X3535786Y-11908286D01*
X3550071Y-11936857D01*
X3550071Y-11965429D01*
X3535786Y-12008286D01*
X3364357Y-12179714D01*
X3550071Y-12179714D01*
X3678643Y-12151143D02*
X3692928Y-12165429D01*
X3678643Y-12179714D01*
X3664357Y-12165429D01*
X3678643Y-12151143D01*
X3678643Y-12179714D01*
X3807214Y-11908286D02*
X3821500Y-11894000D01*
X3850071Y-11879714D01*
X3921500Y-11879714D01*
X3950071Y-11894000D01*
X3964357Y-11908286D01*
X3978643Y-11936857D01*
X3978643Y-11965429D01*
X3964357Y-12008286D01*
X3792928Y-12179714D01*
X3978643Y-12179714D01*
X4164357Y-11879714D02*
X4192928Y-11879714D01*
X4221500Y-11894000D01*
X4235786Y-11908286D01*
X4250071Y-11936857D01*
X4264357Y-11994000D01*
X4264357Y-12065429D01*
X4250071Y-12122571D01*
X4235786Y-12151143D01*
X4221500Y-12165429D01*
X4192928Y-12179714D01*
X4164357Y-12179714D01*
X4135786Y-12165429D01*
X4121500Y-12151143D01*
X4107214Y-12122571D01*
X4092928Y-12065429D01*
X4092928Y-11994000D01*
X4107214Y-11936857D01*
X4121500Y-11908286D01*
X4135786Y-11894000D01*
X4164357Y-11879714D01*
X4392928Y-12179714D02*
X4392928Y-11979714D01*
X4392928Y-12008286D02*
X4407214Y-11994000D01*
X4435786Y-11979714D01*
X4478643Y-11979714D01*
X4507214Y-11994000D01*
X4521500Y-12022571D01*
X4521500Y-12179714D01*
X4521500Y-12022571D02*
X4535786Y-11994000D01*
X4564357Y-11979714D01*
X4607214Y-11979714D01*
X4635786Y-11994000D01*
X4650071Y-12022571D01*
X4650071Y-12179714D01*
X4792928Y-12179714D02*
X4792928Y-11979714D01*
X4792928Y-12008286D02*
X4807214Y-11994000D01*
X4835786Y-11979714D01*
X4878643Y-11979714D01*
X4907214Y-11994000D01*
X4921500Y-12022571D01*
X4921500Y-12179714D01*
X4921500Y-12022571D02*
X4935786Y-11994000D01*
X4964357Y-11979714D01*
X5007214Y-11979714D01*
X5035786Y-11994000D01*
X5050071Y-12022571D01*
X5050071Y-12179714D01*
X5635786Y-11865429D02*
X5378643Y-12251143D01*
X6021500Y-11879714D02*
X6050071Y-11879714D01*
X6078643Y-11894000D01*
X6092928Y-11908286D01*
X6107214Y-11936857D01*
X6121500Y-11994000D01*
X6121500Y-12065429D01*
X6107214Y-12122571D01*
X6092928Y-12151143D01*
X6078643Y-12165429D01*
X6050071Y-12179714D01*
X6021500Y-12179714D01*
X5992928Y-12165429D01*
X5978643Y-12151143D01*
X5964357Y-12122571D01*
X5950071Y-12065429D01*
X5950071Y-11994000D01*
X5964357Y-11936857D01*
X5978643Y-11908286D01*
X5992928Y-11894000D01*
X6021500Y-11879714D01*
X6250071Y-12151143D02*
X6264357Y-12165429D01*
X6250071Y-12179714D01*
X6235786Y-12165429D01*
X6250071Y-12151143D01*
X6250071Y-12179714D01*
X6450071Y-11879714D02*
X6478643Y-11879714D01*
X6507214Y-11894000D01*
X6521500Y-11908286D01*
X6535786Y-11936857D01*
X6550071Y-11994000D01*
X6550071Y-12065429D01*
X6535786Y-12122571D01*
X6521500Y-12151143D01*
X6507214Y-12165429D01*
X6478643Y-12179714D01*
X6450071Y-12179714D01*
X6421500Y-12165429D01*
X6407214Y-12151143D01*
X6392928Y-12122571D01*
X6378643Y-12065429D01*
X6378643Y-11994000D01*
X6392928Y-11936857D01*
X6407214Y-11908286D01*
X6421500Y-11894000D01*
X6450071Y-11879714D01*
X6721500Y-12008286D02*
X6692928Y-11994000D01*
X6678643Y-11979714D01*
X6664357Y-11951143D01*
X6664357Y-11936857D01*
X6678643Y-11908286D01*
X6692928Y-11894000D01*
X6721500Y-11879714D01*
X6778643Y-11879714D01*
X6807214Y-11894000D01*
X6821500Y-11908286D01*
X6835786Y-11936857D01*
X6835786Y-11951143D01*
X6821500Y-11979714D01*
X6807214Y-11994000D01*
X6778643Y-12008286D01*
X6721500Y-12008286D01*
X6692928Y-12022571D01*
X6678643Y-12036857D01*
X6664357Y-12065429D01*
X6664357Y-12122571D01*
X6678643Y-12151143D01*
X6692928Y-12165429D01*
X6721500Y-12179714D01*
X6778643Y-12179714D01*
X6807214Y-12165429D01*
X6821500Y-12151143D01*
X6835786Y-12122571D01*
X6835786Y-12065429D01*
X6821500Y-12036857D01*
X6807214Y-12022571D01*
X6778643Y-12008286D01*
X6935786Y-11879714D02*
X7135786Y-11879714D01*
X7007214Y-12179714D01*
X7235786Y-11879714D02*
X7235786Y-11936857D01*
X7350071Y-11879714D02*
X7350071Y-11936857D01*
X7792928Y-12294000D02*
X7778643Y-12279714D01*
X7750071Y-12236857D01*
X7735786Y-12208286D01*
X7721500Y-12165429D01*
X7707214Y-12094000D01*
X7707214Y-12036857D01*
X7721500Y-11965429D01*
X7735786Y-11922571D01*
X7750071Y-11894000D01*
X7778643Y-11851143D01*
X7792928Y-11836857D01*
X8035786Y-11979714D02*
X8035786Y-12179714D01*
X7964357Y-11865429D02*
X7892928Y-12079714D01*
X8078643Y-12079714D01*
X8421500Y-12179714D02*
X8421500Y-11879714D01*
X8550071Y-12179714D02*
X8550071Y-12022571D01*
X8535786Y-11994000D01*
X8507214Y-11979714D01*
X8464357Y-11979714D01*
X8435786Y-11994000D01*
X8421500Y-12008286D01*
X8735786Y-12179714D02*
X8707214Y-12165429D01*
X8692928Y-12151143D01*
X8678643Y-12122571D01*
X8678643Y-12036857D01*
X8692928Y-12008286D01*
X8707214Y-11994000D01*
X8735786Y-11979714D01*
X8778643Y-11979714D01*
X8807214Y-11994000D01*
X8821500Y-12008286D01*
X8835786Y-12036857D01*
X8835786Y-12122571D01*
X8821500Y-12151143D01*
X8807214Y-12165429D01*
X8778643Y-12179714D01*
X8735786Y-12179714D01*
X9007214Y-12179714D02*
X8978643Y-12165429D01*
X8964357Y-12136857D01*
X8964357Y-11879714D01*
X9235786Y-12165429D02*
X9207214Y-12179714D01*
X9150071Y-12179714D01*
X9121500Y-12165429D01*
X9107214Y-12136857D01*
X9107214Y-12022571D01*
X9121500Y-11994000D01*
X9150071Y-11979714D01*
X9207214Y-11979714D01*
X9235786Y-11994000D01*
X9250071Y-12022571D01*
X9250071Y-12051143D01*
X9107214Y-12079714D01*
X9364357Y-12165429D02*
X9392928Y-12179714D01*
X9450071Y-12179714D01*
X9478643Y-12165429D01*
X9492928Y-12136857D01*
X9492928Y-12122571D01*
X9478643Y-12094000D01*
X9450071Y-12079714D01*
X9407214Y-12079714D01*
X9378643Y-12065429D01*
X9364357Y-12036857D01*
X9364357Y-12022571D01*
X9378643Y-11994000D01*
X9407214Y-11979714D01*
X9450071Y-11979714D01*
X9478643Y-11994000D01*
X9592928Y-12294000D02*
X9607214Y-12279714D01*
X9635786Y-12236857D01*
X9650071Y-12208286D01*
X9664357Y-12165429D01*
X9678643Y-12094000D01*
X9678643Y-12036857D01*
X9664357Y-11965429D01*
X9650071Y-11922571D01*
X9635786Y-11894000D01*
X9607214Y-11851143D01*
X9592928Y-11836857D01*
M02*
