G04 #@! TF.GenerationSoftware,KiCad,Pcbnew,(5.0.1)-3*
G04 #@! TF.CreationDate,2018-12-20T13:20:35+01:00*
G04 #@! TF.ProjectId,HB-RF-USB,48422D52462D5553422E6B696361645F,rev?*
G04 #@! TF.SameCoordinates,Original*
G04 #@! TF.FileFunction,Legend,Bot*
G04 #@! TF.FilePolarity,Positive*
%FSLAX46Y46*%
G04 Gerber Fmt 4.6, Leading zero omitted, Abs format (unit mm)*
G04 Created by KiCad (PCBNEW (5.0.1)-3) date 20.12.2018 13:20:35*
%MOMM*%
%LPD*%
G01*
G04 APERTURE LIST*
%ADD10C,0.700000*%
%ADD11C,4.400000*%
%ADD12O,1.700000X1.700000*%
%ADD13R,1.700000X1.700000*%
G04 APERTURE END LIST*
%LPC*%
D10*
G04 #@! TO.C,*
X76096726Y-52808274D03*
X74930000Y-52325000D03*
X73763274Y-52808274D03*
X73280000Y-53975000D03*
X73763274Y-55141726D03*
X74930000Y-55625000D03*
X76096726Y-55141726D03*
X76580000Y-53975000D03*
D11*
X74930000Y-53975000D03*
G04 #@! TD*
G04 #@! TO.C,*
X40640000Y-53975000D03*
D10*
X42290000Y-53975000D03*
X41806726Y-55141726D03*
X40640000Y-55625000D03*
X39473274Y-55141726D03*
X38990000Y-53975000D03*
X39473274Y-52808274D03*
X40640000Y-52325000D03*
X41806726Y-52808274D03*
G04 #@! TD*
G04 #@! TO.C,*
X41806726Y-98528274D03*
X40640000Y-98045000D03*
X39473274Y-98528274D03*
X38990000Y-99695000D03*
X39473274Y-100861726D03*
X40640000Y-101345000D03*
X41806726Y-100861726D03*
X42290000Y-99695000D03*
D11*
X40640000Y-99695000D03*
G04 #@! TD*
D12*
G04 #@! TO.C,J2*
X35540000Y-100965000D03*
X33000000Y-100965000D03*
X35540000Y-98425000D03*
X33000000Y-98425000D03*
X35540000Y-95885000D03*
X33000000Y-95885000D03*
X35540000Y-93345000D03*
X33000000Y-93345000D03*
X35540000Y-90805000D03*
X33000000Y-90805000D03*
X35540000Y-88265000D03*
X33000000Y-88265000D03*
X35540000Y-85725000D03*
X33000000Y-85725000D03*
X35540000Y-83185000D03*
X33000000Y-83185000D03*
X35540000Y-80645000D03*
X33000000Y-80645000D03*
X35540000Y-78105000D03*
X33000000Y-78105000D03*
X35540000Y-75565000D03*
X33000000Y-75565000D03*
X35540000Y-73025000D03*
X33000000Y-73025000D03*
X35540000Y-70485000D03*
X33000000Y-70485000D03*
X35540000Y-67945000D03*
X33000000Y-67945000D03*
X35540000Y-65405000D03*
X33000000Y-65405000D03*
X35540000Y-62865000D03*
X33000000Y-62865000D03*
X35540000Y-60325000D03*
X33000000Y-60325000D03*
X35540000Y-57785000D03*
X33000000Y-57785000D03*
X35540000Y-55245000D03*
X33000000Y-55245000D03*
X35540000Y-52705000D03*
D13*
X33000000Y-52705000D03*
G04 #@! TD*
D12*
G04 #@! TO.C,J3*
X76200000Y-73025000D03*
X73660000Y-73025000D03*
X76200000Y-70485000D03*
X73660000Y-70485000D03*
X76200000Y-67945000D03*
X73660000Y-67945000D03*
X76200000Y-65405000D03*
X73660000Y-65405000D03*
X76200000Y-62865000D03*
X73660000Y-62865000D03*
X76200000Y-60325000D03*
D13*
X73660000Y-60325000D03*
G04 #@! TD*
D11*
G04 #@! TO.C,*
X74930000Y-99695000D03*
D10*
X76580000Y-99695000D03*
X76096726Y-100861726D03*
X74930000Y-101345000D03*
X73763274Y-100861726D03*
X73280000Y-99695000D03*
X73763274Y-98528274D03*
X74930000Y-98045000D03*
X76096726Y-98528274D03*
G04 #@! TD*
M02*
