G04 #@! TF.GenerationSoftware,KiCad,Pcbnew,(5.1.4)-1*
G04 #@! TF.CreationDate,2019-10-16T18:51:52+02:00*
G04 #@! TF.ProjectId,HB-RF-USB,48422d52-462d-4555-9342-2e6b69636164,rev?*
G04 #@! TF.SameCoordinates,Original*
G04 #@! TF.FileFunction,Copper,L2,Bot*
G04 #@! TF.FilePolarity,Positive*
%FSLAX46Y46*%
G04 Gerber Fmt 4.6, Leading zero omitted, Abs format (unit mm)*
G04 Created by KiCad (PCBNEW (5.1.4)-1) date 2019-10-16 18:51:52*
%MOMM*%
%LPD*%
G04 APERTURE LIST*
%ADD10R,1.700000X1.700000*%
%ADD11O,1.700000X1.700000*%
%ADD12C,0.700000*%
%ADD13C,4.400000*%
%ADD14O,2.000000X1.090000*%
%ADD15O,1.600000X1.050000*%
%ADD16C,0.800000*%
%ADD17C,0.400000*%
%ADD18C,0.250000*%
%ADD19C,0.254000*%
G04 APERTURE END LIST*
D10*
X33000000Y-52705000D03*
D11*
X35540000Y-52705000D03*
X33000000Y-55245000D03*
X35540000Y-55245000D03*
X33000000Y-57785000D03*
X35540000Y-57785000D03*
X33000000Y-60325000D03*
X35540000Y-60325000D03*
X33000000Y-62865000D03*
X35540000Y-62865000D03*
X33000000Y-65405000D03*
X35540000Y-65405000D03*
X33000000Y-67945000D03*
X35540000Y-67945000D03*
X33000000Y-70485000D03*
X35540000Y-70485000D03*
X33000000Y-73025000D03*
X35540000Y-73025000D03*
X33000000Y-75565000D03*
X35540000Y-75565000D03*
X33000000Y-78105000D03*
X35540000Y-78105000D03*
X33000000Y-80645000D03*
X35540000Y-80645000D03*
X33000000Y-83185000D03*
X35540000Y-83185000D03*
X33000000Y-85725000D03*
X35540000Y-85725000D03*
X33000000Y-88265000D03*
X35540000Y-88265000D03*
X33000000Y-90805000D03*
X35540000Y-90805000D03*
X33000000Y-93345000D03*
X35540000Y-93345000D03*
X33000000Y-95885000D03*
X35540000Y-95885000D03*
X33000000Y-98425000D03*
X35540000Y-98425000D03*
X33000000Y-100965000D03*
X35540000Y-100965000D03*
D12*
X76096726Y-52808274D03*
X74930000Y-52325000D03*
X73763274Y-52808274D03*
X73280000Y-53975000D03*
X73763274Y-55141726D03*
X74930000Y-55625000D03*
X76096726Y-55141726D03*
X76580000Y-53975000D03*
D13*
X74930000Y-53975000D03*
X40640000Y-53975000D03*
D12*
X42290000Y-53975000D03*
X41806726Y-55141726D03*
X40640000Y-55625000D03*
X39473274Y-55141726D03*
X38990000Y-53975000D03*
X39473274Y-52808274D03*
X40640000Y-52325000D03*
X41806726Y-52808274D03*
X41806726Y-98528274D03*
X40640000Y-98045000D03*
X39473274Y-98528274D03*
X38990000Y-99695000D03*
X39473274Y-100861726D03*
X40640000Y-101345000D03*
X41806726Y-100861726D03*
X42290000Y-99695000D03*
D13*
X40640000Y-99695000D03*
X74930000Y-99695000D03*
D12*
X76580000Y-99695000D03*
X76096726Y-100861726D03*
X74930000Y-101345000D03*
X73763274Y-100861726D03*
X73280000Y-99695000D03*
X73763274Y-98528274D03*
X74930000Y-98045000D03*
X76096726Y-98528274D03*
D14*
X76608000Y-79585000D03*
X76608000Y-86785000D03*
D15*
X73158000Y-86785000D03*
X73158000Y-79585000D03*
D10*
X73660000Y-60325000D03*
D11*
X76200000Y-60325000D03*
X73660000Y-62865000D03*
X76200000Y-62865000D03*
X73660000Y-65405000D03*
X76200000Y-65405000D03*
X73660000Y-67945000D03*
X76200000Y-67945000D03*
X73660000Y-70485000D03*
X76200000Y-70485000D03*
X73660000Y-73025000D03*
X76200000Y-73025000D03*
D16*
X48260000Y-81915000D03*
X48260000Y-86360000D03*
X70485000Y-89535000D03*
X74295000Y-92075000D03*
X74930000Y-82550000D03*
X61595000Y-85725000D03*
X61595000Y-83185000D03*
X55245000Y-84455000D03*
X41275000Y-78740000D03*
X46990000Y-64135000D03*
X58420000Y-74295000D03*
X60960000Y-78105000D03*
X60325000Y-76940000D03*
X61232653Y-74177347D03*
X37465000Y-60325000D03*
X52705000Y-79375000D03*
X59690000Y-78105000D03*
X58420000Y-78105000D03*
X52705000Y-78105000D03*
D17*
X48260000Y-86360000D02*
X48260000Y-81915000D01*
X60325000Y-75085000D02*
X61232653Y-74177347D01*
X60325000Y-76940000D02*
X60325000Y-75085000D01*
X35560000Y-55245000D02*
X35540000Y-55245000D01*
X37465000Y-57150000D02*
X35560000Y-55245000D01*
X37465000Y-57785000D02*
X37465000Y-57150000D01*
X37465000Y-60325000D02*
X37465000Y-57785000D01*
D18*
X52705000Y-79375000D02*
X58420000Y-79375000D01*
X58420000Y-79375000D02*
X59690000Y-78105000D01*
X52705000Y-78105000D02*
X58420000Y-78105000D01*
D19*
G36*
X78309000Y-102439000D02*
G01*
X31546000Y-102439000D01*
X31546000Y-101289213D01*
X31764842Y-101289213D01*
X31792875Y-101381646D01*
X31897353Y-101609139D01*
X32044205Y-101811878D01*
X32227788Y-101982072D01*
X32441047Y-102113180D01*
X32675786Y-102200164D01*
X32873000Y-102128925D01*
X32873000Y-101092000D01*
X33127000Y-101092000D01*
X33127000Y-102128925D01*
X33324214Y-102200164D01*
X33558953Y-102113180D01*
X33772212Y-101982072D01*
X33955795Y-101811878D01*
X34102647Y-101609139D01*
X34207125Y-101381646D01*
X34235158Y-101289213D01*
X34163338Y-101092000D01*
X33127000Y-101092000D01*
X32873000Y-101092000D01*
X31836662Y-101092000D01*
X31764842Y-101289213D01*
X31546000Y-101289213D01*
X31546000Y-100965000D01*
X34303044Y-100965000D01*
X34326812Y-101206318D01*
X34397202Y-101438363D01*
X34511509Y-101652216D01*
X34665340Y-101839660D01*
X34852784Y-101993491D01*
X35066637Y-102107798D01*
X35298682Y-102178188D01*
X35479528Y-102196000D01*
X35600472Y-102196000D01*
X35781318Y-102178188D01*
X36013363Y-102107798D01*
X36227216Y-101993491D01*
X36414660Y-101839660D01*
X36568491Y-101652216D01*
X36682798Y-101438363D01*
X36753188Y-101206318D01*
X36776956Y-100965000D01*
X36753188Y-100723682D01*
X36682798Y-100491637D01*
X36568491Y-100277784D01*
X36414660Y-100090340D01*
X36227216Y-99936509D01*
X36013363Y-99822202D01*
X35781318Y-99751812D01*
X35600472Y-99734000D01*
X35479528Y-99734000D01*
X35298682Y-99751812D01*
X35066637Y-99822202D01*
X34852784Y-99936509D01*
X34665340Y-100090340D01*
X34511509Y-100277784D01*
X34397202Y-100491637D01*
X34326812Y-100723682D01*
X34303044Y-100965000D01*
X31546000Y-100965000D01*
X31546000Y-100640787D01*
X31764842Y-100640787D01*
X31836662Y-100838000D01*
X32873000Y-100838000D01*
X32873000Y-99801075D01*
X33127000Y-99801075D01*
X33127000Y-100838000D01*
X34163338Y-100838000D01*
X34235158Y-100640787D01*
X34207125Y-100548354D01*
X34102647Y-100320861D01*
X33955795Y-100118122D01*
X33772212Y-99947928D01*
X33558953Y-99816820D01*
X33324214Y-99729836D01*
X33127000Y-99801075D01*
X32873000Y-99801075D01*
X32675786Y-99729836D01*
X32441047Y-99816820D01*
X32227788Y-99947928D01*
X32044205Y-100118122D01*
X31897353Y-100320861D01*
X31792875Y-100548354D01*
X31764842Y-100640787D01*
X31546000Y-100640787D01*
X31546000Y-98425000D01*
X31763044Y-98425000D01*
X31786812Y-98666318D01*
X31857202Y-98898363D01*
X31971509Y-99112216D01*
X32125340Y-99299660D01*
X32312784Y-99453491D01*
X32526637Y-99567798D01*
X32758682Y-99638188D01*
X32939528Y-99656000D01*
X33060472Y-99656000D01*
X33241318Y-99638188D01*
X33473363Y-99567798D01*
X33687216Y-99453491D01*
X33874660Y-99299660D01*
X34028491Y-99112216D01*
X34142798Y-98898363D01*
X34213188Y-98666318D01*
X34236956Y-98425000D01*
X34303044Y-98425000D01*
X34326812Y-98666318D01*
X34397202Y-98898363D01*
X34511509Y-99112216D01*
X34665340Y-99299660D01*
X34852784Y-99453491D01*
X35066637Y-99567798D01*
X35298682Y-99638188D01*
X35479528Y-99656000D01*
X35600472Y-99656000D01*
X35781318Y-99638188D01*
X36013363Y-99567798D01*
X36227216Y-99453491D01*
X36242687Y-99440794D01*
X38059000Y-99440794D01*
X38059000Y-99949206D01*
X38158187Y-100447850D01*
X38352748Y-100917562D01*
X38635207Y-101340291D01*
X38994709Y-101699793D01*
X39417438Y-101982252D01*
X39887150Y-102176813D01*
X40385794Y-102276000D01*
X40894206Y-102276000D01*
X41392850Y-102176813D01*
X41862562Y-101982252D01*
X42285291Y-101699793D01*
X42644793Y-101340291D01*
X42927252Y-100917562D01*
X43121813Y-100447850D01*
X43221000Y-99949206D01*
X43221000Y-99440794D01*
X72349000Y-99440794D01*
X72349000Y-99949206D01*
X72448187Y-100447850D01*
X72642748Y-100917562D01*
X72925207Y-101340291D01*
X73284709Y-101699793D01*
X73707438Y-101982252D01*
X74177150Y-102176813D01*
X74675794Y-102276000D01*
X75184206Y-102276000D01*
X75682850Y-102176813D01*
X76152562Y-101982252D01*
X76575291Y-101699793D01*
X76934793Y-101340291D01*
X77217252Y-100917562D01*
X77411813Y-100447850D01*
X77511000Y-99949206D01*
X77511000Y-99440794D01*
X77411813Y-98942150D01*
X77217252Y-98472438D01*
X76934793Y-98049709D01*
X76575291Y-97690207D01*
X76152562Y-97407748D01*
X75682850Y-97213187D01*
X75184206Y-97114000D01*
X74675794Y-97114000D01*
X74177150Y-97213187D01*
X73707438Y-97407748D01*
X73284709Y-97690207D01*
X72925207Y-98049709D01*
X72642748Y-98472438D01*
X72448187Y-98942150D01*
X72349000Y-99440794D01*
X43221000Y-99440794D01*
X43121813Y-98942150D01*
X42927252Y-98472438D01*
X42644793Y-98049709D01*
X42285291Y-97690207D01*
X41862562Y-97407748D01*
X41392850Y-97213187D01*
X40894206Y-97114000D01*
X40385794Y-97114000D01*
X39887150Y-97213187D01*
X39417438Y-97407748D01*
X38994709Y-97690207D01*
X38635207Y-98049709D01*
X38352748Y-98472438D01*
X38158187Y-98942150D01*
X38059000Y-99440794D01*
X36242687Y-99440794D01*
X36414660Y-99299660D01*
X36568491Y-99112216D01*
X36682798Y-98898363D01*
X36753188Y-98666318D01*
X36776956Y-98425000D01*
X36753188Y-98183682D01*
X36682798Y-97951637D01*
X36568491Y-97737784D01*
X36414660Y-97550340D01*
X36227216Y-97396509D01*
X36013363Y-97282202D01*
X35781318Y-97211812D01*
X35600472Y-97194000D01*
X35479528Y-97194000D01*
X35298682Y-97211812D01*
X35066637Y-97282202D01*
X34852784Y-97396509D01*
X34665340Y-97550340D01*
X34511509Y-97737784D01*
X34397202Y-97951637D01*
X34326812Y-98183682D01*
X34303044Y-98425000D01*
X34236956Y-98425000D01*
X34213188Y-98183682D01*
X34142798Y-97951637D01*
X34028491Y-97737784D01*
X33874660Y-97550340D01*
X33687216Y-97396509D01*
X33473363Y-97282202D01*
X33241318Y-97211812D01*
X33060472Y-97194000D01*
X32939528Y-97194000D01*
X32758682Y-97211812D01*
X32526637Y-97282202D01*
X32312784Y-97396509D01*
X32125340Y-97550340D01*
X31971509Y-97737784D01*
X31857202Y-97951637D01*
X31786812Y-98183682D01*
X31763044Y-98425000D01*
X31546000Y-98425000D01*
X31546000Y-95885000D01*
X31763044Y-95885000D01*
X31786812Y-96126318D01*
X31857202Y-96358363D01*
X31971509Y-96572216D01*
X32125340Y-96759660D01*
X32312784Y-96913491D01*
X32526637Y-97027798D01*
X32758682Y-97098188D01*
X32939528Y-97116000D01*
X33060472Y-97116000D01*
X33241318Y-97098188D01*
X33473363Y-97027798D01*
X33687216Y-96913491D01*
X33874660Y-96759660D01*
X34028491Y-96572216D01*
X34142798Y-96358363D01*
X34213188Y-96126318D01*
X34236956Y-95885000D01*
X34303044Y-95885000D01*
X34326812Y-96126318D01*
X34397202Y-96358363D01*
X34511509Y-96572216D01*
X34665340Y-96759660D01*
X34852784Y-96913491D01*
X35066637Y-97027798D01*
X35298682Y-97098188D01*
X35479528Y-97116000D01*
X35600472Y-97116000D01*
X35781318Y-97098188D01*
X36013363Y-97027798D01*
X36227216Y-96913491D01*
X36414660Y-96759660D01*
X36568491Y-96572216D01*
X36682798Y-96358363D01*
X36753188Y-96126318D01*
X36776956Y-95885000D01*
X36753188Y-95643682D01*
X36682798Y-95411637D01*
X36568491Y-95197784D01*
X36414660Y-95010340D01*
X36227216Y-94856509D01*
X36013363Y-94742202D01*
X35781318Y-94671812D01*
X35600472Y-94654000D01*
X35479528Y-94654000D01*
X35298682Y-94671812D01*
X35066637Y-94742202D01*
X34852784Y-94856509D01*
X34665340Y-95010340D01*
X34511509Y-95197784D01*
X34397202Y-95411637D01*
X34326812Y-95643682D01*
X34303044Y-95885000D01*
X34236956Y-95885000D01*
X34213188Y-95643682D01*
X34142798Y-95411637D01*
X34028491Y-95197784D01*
X33874660Y-95010340D01*
X33687216Y-94856509D01*
X33473363Y-94742202D01*
X33241318Y-94671812D01*
X33060472Y-94654000D01*
X32939528Y-94654000D01*
X32758682Y-94671812D01*
X32526637Y-94742202D01*
X32312784Y-94856509D01*
X32125340Y-95010340D01*
X31971509Y-95197784D01*
X31857202Y-95411637D01*
X31786812Y-95643682D01*
X31763044Y-95885000D01*
X31546000Y-95885000D01*
X31546000Y-93345000D01*
X31763044Y-93345000D01*
X31786812Y-93586318D01*
X31857202Y-93818363D01*
X31971509Y-94032216D01*
X32125340Y-94219660D01*
X32312784Y-94373491D01*
X32526637Y-94487798D01*
X32758682Y-94558188D01*
X32939528Y-94576000D01*
X33060472Y-94576000D01*
X33241318Y-94558188D01*
X33473363Y-94487798D01*
X33687216Y-94373491D01*
X33874660Y-94219660D01*
X34028491Y-94032216D01*
X34142798Y-93818363D01*
X34188042Y-93669213D01*
X34304842Y-93669213D01*
X34332875Y-93761646D01*
X34437353Y-93989139D01*
X34584205Y-94191878D01*
X34767788Y-94362072D01*
X34981047Y-94493180D01*
X35215786Y-94580164D01*
X35413000Y-94508925D01*
X35413000Y-93472000D01*
X35667000Y-93472000D01*
X35667000Y-94508925D01*
X35864214Y-94580164D01*
X36098953Y-94493180D01*
X36312212Y-94362072D01*
X36495795Y-94191878D01*
X36642647Y-93989139D01*
X36747125Y-93761646D01*
X36775158Y-93669213D01*
X36703338Y-93472000D01*
X35667000Y-93472000D01*
X35413000Y-93472000D01*
X34376662Y-93472000D01*
X34304842Y-93669213D01*
X34188042Y-93669213D01*
X34213188Y-93586318D01*
X34236956Y-93345000D01*
X34213188Y-93103682D01*
X34188043Y-93020787D01*
X34304842Y-93020787D01*
X34376662Y-93218000D01*
X35413000Y-93218000D01*
X35413000Y-92181075D01*
X35667000Y-92181075D01*
X35667000Y-93218000D01*
X36703338Y-93218000D01*
X36775158Y-93020787D01*
X36747125Y-92928354D01*
X36642647Y-92700861D01*
X36495795Y-92498122D01*
X36312212Y-92327928D01*
X36098953Y-92196820D01*
X35864214Y-92109836D01*
X35667000Y-92181075D01*
X35413000Y-92181075D01*
X35215786Y-92109836D01*
X34981047Y-92196820D01*
X34767788Y-92327928D01*
X34584205Y-92498122D01*
X34437353Y-92700861D01*
X34332875Y-92928354D01*
X34304842Y-93020787D01*
X34188043Y-93020787D01*
X34142798Y-92871637D01*
X34028491Y-92657784D01*
X33874660Y-92470340D01*
X33687216Y-92316509D01*
X33473363Y-92202202D01*
X33241318Y-92131812D01*
X33060472Y-92114000D01*
X32939528Y-92114000D01*
X32758682Y-92131812D01*
X32526637Y-92202202D01*
X32312784Y-92316509D01*
X32125340Y-92470340D01*
X31971509Y-92657784D01*
X31857202Y-92871637D01*
X31786812Y-93103682D01*
X31763044Y-93345000D01*
X31546000Y-93345000D01*
X31546000Y-90805000D01*
X31763044Y-90805000D01*
X31786812Y-91046318D01*
X31857202Y-91278363D01*
X31971509Y-91492216D01*
X32125340Y-91679660D01*
X32312784Y-91833491D01*
X32526637Y-91947798D01*
X32758682Y-92018188D01*
X32939528Y-92036000D01*
X33060472Y-92036000D01*
X33241318Y-92018188D01*
X33473363Y-91947798D01*
X33687216Y-91833491D01*
X33874660Y-91679660D01*
X34028491Y-91492216D01*
X34142798Y-91278363D01*
X34213188Y-91046318D01*
X34236956Y-90805000D01*
X34303044Y-90805000D01*
X34326812Y-91046318D01*
X34397202Y-91278363D01*
X34511509Y-91492216D01*
X34665340Y-91679660D01*
X34852784Y-91833491D01*
X35066637Y-91947798D01*
X35298682Y-92018188D01*
X35479528Y-92036000D01*
X35600472Y-92036000D01*
X35781318Y-92018188D01*
X36013363Y-91947798D01*
X36227216Y-91833491D01*
X36414660Y-91679660D01*
X36568491Y-91492216D01*
X36682798Y-91278363D01*
X36753188Y-91046318D01*
X36776956Y-90805000D01*
X36753188Y-90563682D01*
X36682798Y-90331637D01*
X36568491Y-90117784D01*
X36414660Y-89930340D01*
X36227216Y-89776509D01*
X36013363Y-89662202D01*
X35781318Y-89591812D01*
X35600472Y-89574000D01*
X35479528Y-89574000D01*
X35298682Y-89591812D01*
X35066637Y-89662202D01*
X34852784Y-89776509D01*
X34665340Y-89930340D01*
X34511509Y-90117784D01*
X34397202Y-90331637D01*
X34326812Y-90563682D01*
X34303044Y-90805000D01*
X34236956Y-90805000D01*
X34213188Y-90563682D01*
X34142798Y-90331637D01*
X34028491Y-90117784D01*
X33874660Y-89930340D01*
X33687216Y-89776509D01*
X33473363Y-89662202D01*
X33241318Y-89591812D01*
X33060472Y-89574000D01*
X32939528Y-89574000D01*
X32758682Y-89591812D01*
X32526637Y-89662202D01*
X32312784Y-89776509D01*
X32125340Y-89930340D01*
X31971509Y-90117784D01*
X31857202Y-90331637D01*
X31786812Y-90563682D01*
X31763044Y-90805000D01*
X31546000Y-90805000D01*
X31546000Y-88265000D01*
X31763044Y-88265000D01*
X31786812Y-88506318D01*
X31857202Y-88738363D01*
X31971509Y-88952216D01*
X32125340Y-89139660D01*
X32312784Y-89293491D01*
X32526637Y-89407798D01*
X32758682Y-89478188D01*
X32939528Y-89496000D01*
X33060472Y-89496000D01*
X33241318Y-89478188D01*
X33473363Y-89407798D01*
X33687216Y-89293491D01*
X33874660Y-89139660D01*
X34028491Y-88952216D01*
X34142798Y-88738363D01*
X34188042Y-88589213D01*
X34304842Y-88589213D01*
X34332875Y-88681646D01*
X34437353Y-88909139D01*
X34584205Y-89111878D01*
X34767788Y-89282072D01*
X34981047Y-89413180D01*
X35215786Y-89500164D01*
X35413000Y-89428925D01*
X35413000Y-88392000D01*
X35667000Y-88392000D01*
X35667000Y-89428925D01*
X35864214Y-89500164D01*
X36098953Y-89413180D01*
X36312212Y-89282072D01*
X36495795Y-89111878D01*
X36642647Y-88909139D01*
X36747125Y-88681646D01*
X36775158Y-88589213D01*
X36703338Y-88392000D01*
X35667000Y-88392000D01*
X35413000Y-88392000D01*
X34376662Y-88392000D01*
X34304842Y-88589213D01*
X34188042Y-88589213D01*
X34213188Y-88506318D01*
X34236956Y-88265000D01*
X34213188Y-88023682D01*
X34188043Y-87940787D01*
X34304842Y-87940787D01*
X34376662Y-88138000D01*
X35413000Y-88138000D01*
X35413000Y-87101075D01*
X35667000Y-87101075D01*
X35667000Y-88138000D01*
X36703338Y-88138000D01*
X36775158Y-87940787D01*
X36747125Y-87848354D01*
X36642647Y-87620861D01*
X36495795Y-87418122D01*
X36312212Y-87247928D01*
X36098953Y-87116820D01*
X35864214Y-87029836D01*
X35667000Y-87101075D01*
X35413000Y-87101075D01*
X35215786Y-87029836D01*
X34981047Y-87116820D01*
X34767788Y-87247928D01*
X34584205Y-87418122D01*
X34437353Y-87620861D01*
X34332875Y-87848354D01*
X34304842Y-87940787D01*
X34188043Y-87940787D01*
X34142798Y-87791637D01*
X34028491Y-87577784D01*
X33874660Y-87390340D01*
X33687216Y-87236509D01*
X33473363Y-87122202D01*
X33241318Y-87051812D01*
X33060472Y-87034000D01*
X32939528Y-87034000D01*
X32758682Y-87051812D01*
X32526637Y-87122202D01*
X32312784Y-87236509D01*
X32125340Y-87390340D01*
X31971509Y-87577784D01*
X31857202Y-87791637D01*
X31786812Y-88023682D01*
X31763044Y-88265000D01*
X31546000Y-88265000D01*
X31546000Y-85725000D01*
X31763044Y-85725000D01*
X31786812Y-85966318D01*
X31857202Y-86198363D01*
X31971509Y-86412216D01*
X32125340Y-86599660D01*
X32312784Y-86753491D01*
X32526637Y-86867798D01*
X32758682Y-86938188D01*
X32939528Y-86956000D01*
X33060472Y-86956000D01*
X33241318Y-86938188D01*
X33473363Y-86867798D01*
X33687216Y-86753491D01*
X33874660Y-86599660D01*
X34028491Y-86412216D01*
X34142798Y-86198363D01*
X34213188Y-85966318D01*
X34236956Y-85725000D01*
X34303044Y-85725000D01*
X34326812Y-85966318D01*
X34397202Y-86198363D01*
X34511509Y-86412216D01*
X34665340Y-86599660D01*
X34852784Y-86753491D01*
X35066637Y-86867798D01*
X35298682Y-86938188D01*
X35479528Y-86956000D01*
X35600472Y-86956000D01*
X35781318Y-86938188D01*
X36013363Y-86867798D01*
X36227216Y-86753491D01*
X36414660Y-86599660D01*
X36568491Y-86412216D01*
X36682798Y-86198363D01*
X36753188Y-85966318D01*
X36776956Y-85725000D01*
X36753188Y-85483682D01*
X36682798Y-85251637D01*
X36568491Y-85037784D01*
X36414660Y-84850340D01*
X36227216Y-84696509D01*
X36013363Y-84582202D01*
X35781318Y-84511812D01*
X35600472Y-84494000D01*
X35479528Y-84494000D01*
X35298682Y-84511812D01*
X35066637Y-84582202D01*
X34852784Y-84696509D01*
X34665340Y-84850340D01*
X34511509Y-85037784D01*
X34397202Y-85251637D01*
X34326812Y-85483682D01*
X34303044Y-85725000D01*
X34236956Y-85725000D01*
X34213188Y-85483682D01*
X34142798Y-85251637D01*
X34028491Y-85037784D01*
X33874660Y-84850340D01*
X33687216Y-84696509D01*
X33473363Y-84582202D01*
X33241318Y-84511812D01*
X33060472Y-84494000D01*
X32939528Y-84494000D01*
X32758682Y-84511812D01*
X32526637Y-84582202D01*
X32312784Y-84696509D01*
X32125340Y-84850340D01*
X31971509Y-85037784D01*
X31857202Y-85251637D01*
X31786812Y-85483682D01*
X31763044Y-85725000D01*
X31546000Y-85725000D01*
X31546000Y-83509213D01*
X31764842Y-83509213D01*
X31792875Y-83601646D01*
X31897353Y-83829139D01*
X32044205Y-84031878D01*
X32227788Y-84202072D01*
X32441047Y-84333180D01*
X32675786Y-84420164D01*
X32873000Y-84348925D01*
X32873000Y-83312000D01*
X33127000Y-83312000D01*
X33127000Y-84348925D01*
X33324214Y-84420164D01*
X33558953Y-84333180D01*
X33772212Y-84202072D01*
X33955795Y-84031878D01*
X34102647Y-83829139D01*
X34207125Y-83601646D01*
X34235158Y-83509213D01*
X34163338Y-83312000D01*
X33127000Y-83312000D01*
X32873000Y-83312000D01*
X31836662Y-83312000D01*
X31764842Y-83509213D01*
X31546000Y-83509213D01*
X31546000Y-83185000D01*
X34303044Y-83185000D01*
X34326812Y-83426318D01*
X34397202Y-83658363D01*
X34511509Y-83872216D01*
X34665340Y-84059660D01*
X34852784Y-84213491D01*
X35066637Y-84327798D01*
X35298682Y-84398188D01*
X35479528Y-84416000D01*
X35600472Y-84416000D01*
X35781318Y-84398188D01*
X36013363Y-84327798D01*
X36227216Y-84213491D01*
X36414660Y-84059660D01*
X36568491Y-83872216D01*
X36682798Y-83658363D01*
X36753188Y-83426318D01*
X36776956Y-83185000D01*
X36753188Y-82943682D01*
X36682798Y-82711637D01*
X36568491Y-82497784D01*
X36414660Y-82310340D01*
X36227216Y-82156509D01*
X36013363Y-82042202D01*
X35781318Y-81971812D01*
X35600472Y-81954000D01*
X35479528Y-81954000D01*
X35298682Y-81971812D01*
X35066637Y-82042202D01*
X34852784Y-82156509D01*
X34665340Y-82310340D01*
X34511509Y-82497784D01*
X34397202Y-82711637D01*
X34326812Y-82943682D01*
X34303044Y-83185000D01*
X31546000Y-83185000D01*
X31546000Y-82860787D01*
X31764842Y-82860787D01*
X31836662Y-83058000D01*
X32873000Y-83058000D01*
X32873000Y-82021075D01*
X33127000Y-82021075D01*
X33127000Y-83058000D01*
X34163338Y-83058000D01*
X34235158Y-82860787D01*
X34207125Y-82768354D01*
X34102647Y-82540861D01*
X33955795Y-82338122D01*
X33772212Y-82167928D01*
X33558953Y-82036820D01*
X33324214Y-81949836D01*
X33127000Y-82021075D01*
X32873000Y-82021075D01*
X32675786Y-81949836D01*
X32441047Y-82036820D01*
X32227788Y-82167928D01*
X32044205Y-82338122D01*
X31897353Y-82540861D01*
X31792875Y-82768354D01*
X31764842Y-82860787D01*
X31546000Y-82860787D01*
X31546000Y-80645000D01*
X31763044Y-80645000D01*
X31786812Y-80886318D01*
X31857202Y-81118363D01*
X31971509Y-81332216D01*
X32125340Y-81519660D01*
X32312784Y-81673491D01*
X32526637Y-81787798D01*
X32758682Y-81858188D01*
X32939528Y-81876000D01*
X33060472Y-81876000D01*
X33241318Y-81858188D01*
X33473363Y-81787798D01*
X33687216Y-81673491D01*
X33874660Y-81519660D01*
X34028491Y-81332216D01*
X34142798Y-81118363D01*
X34213188Y-80886318D01*
X34236956Y-80645000D01*
X34303044Y-80645000D01*
X34326812Y-80886318D01*
X34397202Y-81118363D01*
X34511509Y-81332216D01*
X34665340Y-81519660D01*
X34852784Y-81673491D01*
X35066637Y-81787798D01*
X35298682Y-81858188D01*
X35479528Y-81876000D01*
X35600472Y-81876000D01*
X35781318Y-81858188D01*
X35847611Y-81838078D01*
X47479000Y-81838078D01*
X47479000Y-81991922D01*
X47509013Y-82142809D01*
X47567887Y-82284942D01*
X47653358Y-82412859D01*
X47679001Y-82438502D01*
X47679000Y-85836499D01*
X47653358Y-85862141D01*
X47567887Y-85990058D01*
X47509013Y-86132191D01*
X47479000Y-86283078D01*
X47479000Y-86436922D01*
X47509013Y-86587809D01*
X47567887Y-86729942D01*
X47653358Y-86857859D01*
X47762141Y-86966642D01*
X47890058Y-87052113D01*
X48032191Y-87110987D01*
X48183078Y-87141000D01*
X48336922Y-87141000D01*
X48487809Y-87110987D01*
X48629942Y-87052113D01*
X48757859Y-86966642D01*
X48866642Y-86857859D01*
X48915324Y-86785000D01*
X71972617Y-86785000D01*
X71990110Y-86962607D01*
X72041916Y-87133388D01*
X72126044Y-87290782D01*
X72239262Y-87428738D01*
X72377218Y-87541956D01*
X72534612Y-87626084D01*
X72705393Y-87677890D01*
X72838499Y-87691000D01*
X73477501Y-87691000D01*
X73610607Y-87677890D01*
X73781388Y-87626084D01*
X73938782Y-87541956D01*
X74076738Y-87428738D01*
X74189956Y-87290782D01*
X74274084Y-87133388D01*
X74325890Y-86962607D01*
X74343383Y-86785000D01*
X75222520Y-86785000D01*
X75240399Y-86966528D01*
X75293349Y-87141079D01*
X75379334Y-87301947D01*
X75495051Y-87442949D01*
X75636053Y-87558666D01*
X75796921Y-87644651D01*
X75971472Y-87697601D01*
X76107514Y-87711000D01*
X77108486Y-87711000D01*
X77244528Y-87697601D01*
X77419079Y-87644651D01*
X77579947Y-87558666D01*
X77720949Y-87442949D01*
X77836666Y-87301947D01*
X77922651Y-87141079D01*
X77975601Y-86966528D01*
X77993480Y-86785000D01*
X77975601Y-86603472D01*
X77922651Y-86428921D01*
X77836666Y-86268053D01*
X77720949Y-86127051D01*
X77579947Y-86011334D01*
X77419079Y-85925349D01*
X77244528Y-85872399D01*
X77108486Y-85859000D01*
X76107514Y-85859000D01*
X75971472Y-85872399D01*
X75796921Y-85925349D01*
X75636053Y-86011334D01*
X75495051Y-86127051D01*
X75379334Y-86268053D01*
X75293349Y-86428921D01*
X75240399Y-86603472D01*
X75222520Y-86785000D01*
X74343383Y-86785000D01*
X74325890Y-86607393D01*
X74274084Y-86436612D01*
X74189956Y-86279218D01*
X74076738Y-86141262D01*
X73938782Y-86028044D01*
X73781388Y-85943916D01*
X73610607Y-85892110D01*
X73477501Y-85879000D01*
X72838499Y-85879000D01*
X72705393Y-85892110D01*
X72534612Y-85943916D01*
X72377218Y-86028044D01*
X72239262Y-86141262D01*
X72126044Y-86279218D01*
X72041916Y-86436612D01*
X71990110Y-86607393D01*
X71972617Y-86785000D01*
X48915324Y-86785000D01*
X48952113Y-86729942D01*
X49010987Y-86587809D01*
X49041000Y-86436922D01*
X49041000Y-86283078D01*
X49010987Y-86132191D01*
X48952113Y-85990058D01*
X48866642Y-85862141D01*
X48841000Y-85836499D01*
X48841000Y-85120390D01*
X73802000Y-85120390D01*
X73802000Y-85249610D01*
X73827210Y-85376348D01*
X73876660Y-85495732D01*
X73948452Y-85603176D01*
X74039824Y-85694548D01*
X74147268Y-85766340D01*
X74266652Y-85815790D01*
X74393390Y-85841000D01*
X74522610Y-85841000D01*
X74649348Y-85815790D01*
X74768732Y-85766340D01*
X74876176Y-85694548D01*
X74967548Y-85603176D01*
X75039340Y-85495732D01*
X75088790Y-85376348D01*
X75114000Y-85249610D01*
X75114000Y-85120390D01*
X75088790Y-84993652D01*
X75039340Y-84874268D01*
X74967548Y-84766824D01*
X74876176Y-84675452D01*
X74768732Y-84603660D01*
X74649348Y-84554210D01*
X74522610Y-84529000D01*
X74393390Y-84529000D01*
X74266652Y-84554210D01*
X74147268Y-84603660D01*
X74039824Y-84675452D01*
X73948452Y-84766824D01*
X73876660Y-84874268D01*
X73827210Y-84993652D01*
X73802000Y-85120390D01*
X48841000Y-85120390D01*
X48841000Y-82438501D01*
X48866642Y-82412859D01*
X48952113Y-82284942D01*
X49010987Y-82142809D01*
X49041000Y-81991922D01*
X49041000Y-81838078D01*
X49010987Y-81687191D01*
X48952113Y-81545058D01*
X48866642Y-81417141D01*
X48757859Y-81308358D01*
X48629942Y-81222887D01*
X48487809Y-81164013D01*
X48336922Y-81134000D01*
X48183078Y-81134000D01*
X48032191Y-81164013D01*
X47890058Y-81222887D01*
X47762141Y-81308358D01*
X47653358Y-81417141D01*
X47567887Y-81545058D01*
X47509013Y-81687191D01*
X47479000Y-81838078D01*
X35847611Y-81838078D01*
X36013363Y-81787798D01*
X36227216Y-81673491D01*
X36414660Y-81519660D01*
X36568491Y-81332216D01*
X36681714Y-81120390D01*
X73802000Y-81120390D01*
X73802000Y-81249610D01*
X73827210Y-81376348D01*
X73876660Y-81495732D01*
X73948452Y-81603176D01*
X74039824Y-81694548D01*
X74147268Y-81766340D01*
X74266652Y-81815790D01*
X74393390Y-81841000D01*
X74522610Y-81841000D01*
X74649348Y-81815790D01*
X74768732Y-81766340D01*
X74876176Y-81694548D01*
X74967548Y-81603176D01*
X75039340Y-81495732D01*
X75088790Y-81376348D01*
X75114000Y-81249610D01*
X75114000Y-81120390D01*
X75088790Y-80993652D01*
X75039340Y-80874268D01*
X74967548Y-80766824D01*
X74876176Y-80675452D01*
X74768732Y-80603660D01*
X74649348Y-80554210D01*
X74522610Y-80529000D01*
X74393390Y-80529000D01*
X74266652Y-80554210D01*
X74147268Y-80603660D01*
X74039824Y-80675452D01*
X73948452Y-80766824D01*
X73876660Y-80874268D01*
X73827210Y-80993652D01*
X73802000Y-81120390D01*
X36681714Y-81120390D01*
X36682798Y-81118363D01*
X36753188Y-80886318D01*
X36776956Y-80645000D01*
X36753188Y-80403682D01*
X36682798Y-80171637D01*
X36568491Y-79957784D01*
X36414660Y-79770340D01*
X36227216Y-79616509D01*
X36013363Y-79502202D01*
X35781318Y-79431812D01*
X35600472Y-79414000D01*
X35479528Y-79414000D01*
X35298682Y-79431812D01*
X35066637Y-79502202D01*
X34852784Y-79616509D01*
X34665340Y-79770340D01*
X34511509Y-79957784D01*
X34397202Y-80171637D01*
X34326812Y-80403682D01*
X34303044Y-80645000D01*
X34236956Y-80645000D01*
X34213188Y-80403682D01*
X34142798Y-80171637D01*
X34028491Y-79957784D01*
X33874660Y-79770340D01*
X33687216Y-79616509D01*
X33473363Y-79502202D01*
X33241318Y-79431812D01*
X33060472Y-79414000D01*
X32939528Y-79414000D01*
X32758682Y-79431812D01*
X32526637Y-79502202D01*
X32312784Y-79616509D01*
X32125340Y-79770340D01*
X31971509Y-79957784D01*
X31857202Y-80171637D01*
X31786812Y-80403682D01*
X31763044Y-80645000D01*
X31546000Y-80645000D01*
X31546000Y-78105000D01*
X31763044Y-78105000D01*
X31786812Y-78346318D01*
X31857202Y-78578363D01*
X31971509Y-78792216D01*
X32125340Y-78979660D01*
X32312784Y-79133491D01*
X32526637Y-79247798D01*
X32758682Y-79318188D01*
X32939528Y-79336000D01*
X33060472Y-79336000D01*
X33241318Y-79318188D01*
X33473363Y-79247798D01*
X33687216Y-79133491D01*
X33874660Y-78979660D01*
X34028491Y-78792216D01*
X34142798Y-78578363D01*
X34213188Y-78346318D01*
X34236956Y-78105000D01*
X34303044Y-78105000D01*
X34326812Y-78346318D01*
X34397202Y-78578363D01*
X34511509Y-78792216D01*
X34665340Y-78979660D01*
X34852784Y-79133491D01*
X35066637Y-79247798D01*
X35298682Y-79318188D01*
X35479528Y-79336000D01*
X35600472Y-79336000D01*
X35781318Y-79318188D01*
X36013363Y-79247798D01*
X36227216Y-79133491D01*
X36414660Y-78979660D01*
X36568491Y-78792216D01*
X36682798Y-78578363D01*
X36753188Y-78346318D01*
X36776956Y-78105000D01*
X36769380Y-78028078D01*
X51924000Y-78028078D01*
X51924000Y-78181922D01*
X51954013Y-78332809D01*
X52012887Y-78474942D01*
X52098358Y-78602859D01*
X52207141Y-78711642D01*
X52249582Y-78740000D01*
X52207141Y-78768358D01*
X52098358Y-78877141D01*
X52012887Y-79005058D01*
X51954013Y-79147191D01*
X51924000Y-79298078D01*
X51924000Y-79451922D01*
X51954013Y-79602809D01*
X52012887Y-79744942D01*
X52098358Y-79872859D01*
X52207141Y-79981642D01*
X52335058Y-80067113D01*
X52477191Y-80125987D01*
X52628078Y-80156000D01*
X52781922Y-80156000D01*
X52932809Y-80125987D01*
X53074942Y-80067113D01*
X53202859Y-79981642D01*
X53303501Y-79881000D01*
X58395154Y-79881000D01*
X58420000Y-79883447D01*
X58444846Y-79881000D01*
X58444854Y-79881000D01*
X58519193Y-79873678D01*
X58614575Y-79844745D01*
X58702479Y-79797759D01*
X58779527Y-79734527D01*
X58795376Y-79715215D01*
X58925591Y-79585000D01*
X71972617Y-79585000D01*
X71990110Y-79762607D01*
X72041916Y-79933388D01*
X72126044Y-80090782D01*
X72239262Y-80228738D01*
X72377218Y-80341956D01*
X72534612Y-80426084D01*
X72705393Y-80477890D01*
X72838499Y-80491000D01*
X73477501Y-80491000D01*
X73610607Y-80477890D01*
X73781388Y-80426084D01*
X73938782Y-80341956D01*
X74076738Y-80228738D01*
X74189956Y-80090782D01*
X74274084Y-79933388D01*
X74325890Y-79762607D01*
X74343383Y-79585000D01*
X75222520Y-79585000D01*
X75240399Y-79766528D01*
X75293349Y-79941079D01*
X75379334Y-80101947D01*
X75495051Y-80242949D01*
X75636053Y-80358666D01*
X75796921Y-80444651D01*
X75971472Y-80497601D01*
X76107514Y-80511000D01*
X77108486Y-80511000D01*
X77244528Y-80497601D01*
X77419079Y-80444651D01*
X77579947Y-80358666D01*
X77720949Y-80242949D01*
X77836666Y-80101947D01*
X77922651Y-79941079D01*
X77975601Y-79766528D01*
X77993480Y-79585000D01*
X77975601Y-79403472D01*
X77922651Y-79228921D01*
X77836666Y-79068053D01*
X77720949Y-78927051D01*
X77579947Y-78811334D01*
X77419079Y-78725349D01*
X77244528Y-78672399D01*
X77108486Y-78659000D01*
X76107514Y-78659000D01*
X75971472Y-78672399D01*
X75796921Y-78725349D01*
X75636053Y-78811334D01*
X75495051Y-78927051D01*
X75379334Y-79068053D01*
X75293349Y-79228921D01*
X75240399Y-79403472D01*
X75222520Y-79585000D01*
X74343383Y-79585000D01*
X74325890Y-79407393D01*
X74274084Y-79236612D01*
X74189956Y-79079218D01*
X74076738Y-78941262D01*
X73938782Y-78828044D01*
X73781388Y-78743916D01*
X73610607Y-78692110D01*
X73477501Y-78679000D01*
X72838499Y-78679000D01*
X72705393Y-78692110D01*
X72534612Y-78743916D01*
X72377218Y-78828044D01*
X72239262Y-78941262D01*
X72126044Y-79079218D01*
X72041916Y-79236612D01*
X71990110Y-79407393D01*
X71972617Y-79585000D01*
X58925591Y-79585000D01*
X59624592Y-78886000D01*
X59766922Y-78886000D01*
X59917809Y-78855987D01*
X60059942Y-78797113D01*
X60187859Y-78711642D01*
X60296642Y-78602859D01*
X60382113Y-78474942D01*
X60440987Y-78332809D01*
X60471000Y-78181922D01*
X60471000Y-78028078D01*
X60440987Y-77877191D01*
X60382113Y-77735058D01*
X60372720Y-77721000D01*
X60401922Y-77721000D01*
X60552809Y-77690987D01*
X60694942Y-77632113D01*
X60822859Y-77546642D01*
X60931642Y-77437859D01*
X61017113Y-77309942D01*
X61075987Y-77167809D01*
X61106000Y-77016922D01*
X61106000Y-76863078D01*
X61075987Y-76712191D01*
X61017113Y-76570058D01*
X60931642Y-76442141D01*
X60906000Y-76416499D01*
X60906000Y-75325657D01*
X61273311Y-74958347D01*
X61309575Y-74958347D01*
X61460462Y-74928334D01*
X61602595Y-74869460D01*
X61730512Y-74783989D01*
X61839295Y-74675206D01*
X61924766Y-74547289D01*
X61983640Y-74405156D01*
X62013653Y-74254269D01*
X62013653Y-74100425D01*
X61983640Y-73949538D01*
X61924766Y-73807405D01*
X61839295Y-73679488D01*
X61730512Y-73570705D01*
X61602595Y-73485234D01*
X61460462Y-73426360D01*
X61309575Y-73396347D01*
X61155731Y-73396347D01*
X61004844Y-73426360D01*
X60862711Y-73485234D01*
X60734794Y-73570705D01*
X60626011Y-73679488D01*
X60540540Y-73807405D01*
X60481666Y-73949538D01*
X60451653Y-74100425D01*
X60451653Y-74136689D01*
X59934355Y-74653988D01*
X59912184Y-74672183D01*
X59893991Y-74694352D01*
X59839579Y-74760653D01*
X59785629Y-74861586D01*
X59752407Y-74971105D01*
X59741189Y-75085000D01*
X59744001Y-75113550D01*
X59744000Y-76416499D01*
X59718358Y-76442141D01*
X59632887Y-76570058D01*
X59574013Y-76712191D01*
X59544000Y-76863078D01*
X59544000Y-77016922D01*
X59574013Y-77167809D01*
X59632887Y-77309942D01*
X59642280Y-77324000D01*
X59613078Y-77324000D01*
X59462191Y-77354013D01*
X59320058Y-77412887D01*
X59192141Y-77498358D01*
X59083358Y-77607141D01*
X59055000Y-77649582D01*
X59026642Y-77607141D01*
X58917859Y-77498358D01*
X58789942Y-77412887D01*
X58647809Y-77354013D01*
X58496922Y-77324000D01*
X58343078Y-77324000D01*
X58192191Y-77354013D01*
X58050058Y-77412887D01*
X57922141Y-77498358D01*
X57821499Y-77599000D01*
X53303501Y-77599000D01*
X53202859Y-77498358D01*
X53074942Y-77412887D01*
X52932809Y-77354013D01*
X52781922Y-77324000D01*
X52628078Y-77324000D01*
X52477191Y-77354013D01*
X52335058Y-77412887D01*
X52207141Y-77498358D01*
X52098358Y-77607141D01*
X52012887Y-77735058D01*
X51954013Y-77877191D01*
X51924000Y-78028078D01*
X36769380Y-78028078D01*
X36753188Y-77863682D01*
X36682798Y-77631637D01*
X36568491Y-77417784D01*
X36414660Y-77230340D01*
X36227216Y-77076509D01*
X36013363Y-76962202D01*
X35781318Y-76891812D01*
X35600472Y-76874000D01*
X35479528Y-76874000D01*
X35298682Y-76891812D01*
X35066637Y-76962202D01*
X34852784Y-77076509D01*
X34665340Y-77230340D01*
X34511509Y-77417784D01*
X34397202Y-77631637D01*
X34326812Y-77863682D01*
X34303044Y-78105000D01*
X34236956Y-78105000D01*
X34213188Y-77863682D01*
X34142798Y-77631637D01*
X34028491Y-77417784D01*
X33874660Y-77230340D01*
X33687216Y-77076509D01*
X33473363Y-76962202D01*
X33241318Y-76891812D01*
X33060472Y-76874000D01*
X32939528Y-76874000D01*
X32758682Y-76891812D01*
X32526637Y-76962202D01*
X32312784Y-77076509D01*
X32125340Y-77230340D01*
X31971509Y-77417784D01*
X31857202Y-77631637D01*
X31786812Y-77863682D01*
X31763044Y-78105000D01*
X31546000Y-78105000D01*
X31546000Y-75565000D01*
X31763044Y-75565000D01*
X31786812Y-75806318D01*
X31857202Y-76038363D01*
X31971509Y-76252216D01*
X32125340Y-76439660D01*
X32312784Y-76593491D01*
X32526637Y-76707798D01*
X32758682Y-76778188D01*
X32939528Y-76796000D01*
X33060472Y-76796000D01*
X33241318Y-76778188D01*
X33473363Y-76707798D01*
X33687216Y-76593491D01*
X33874660Y-76439660D01*
X34028491Y-76252216D01*
X34142798Y-76038363D01*
X34188042Y-75889213D01*
X34304842Y-75889213D01*
X34332875Y-75981646D01*
X34437353Y-76209139D01*
X34584205Y-76411878D01*
X34767788Y-76582072D01*
X34981047Y-76713180D01*
X35215786Y-76800164D01*
X35413000Y-76728925D01*
X35413000Y-75692000D01*
X35667000Y-75692000D01*
X35667000Y-76728925D01*
X35864214Y-76800164D01*
X36098953Y-76713180D01*
X36312212Y-76582072D01*
X36495795Y-76411878D01*
X36642647Y-76209139D01*
X36747125Y-75981646D01*
X36775158Y-75889213D01*
X36703338Y-75692000D01*
X35667000Y-75692000D01*
X35413000Y-75692000D01*
X34376662Y-75692000D01*
X34304842Y-75889213D01*
X34188042Y-75889213D01*
X34213188Y-75806318D01*
X34236956Y-75565000D01*
X34213188Y-75323682D01*
X34188043Y-75240787D01*
X34304842Y-75240787D01*
X34376662Y-75438000D01*
X35413000Y-75438000D01*
X35413000Y-74401075D01*
X35667000Y-74401075D01*
X35667000Y-75438000D01*
X36703338Y-75438000D01*
X36775158Y-75240787D01*
X36747125Y-75148354D01*
X36642647Y-74920861D01*
X36495795Y-74718122D01*
X36312212Y-74547928D01*
X36098953Y-74416820D01*
X35864214Y-74329836D01*
X35667000Y-74401075D01*
X35413000Y-74401075D01*
X35215786Y-74329836D01*
X34981047Y-74416820D01*
X34767788Y-74547928D01*
X34584205Y-74718122D01*
X34437353Y-74920861D01*
X34332875Y-75148354D01*
X34304842Y-75240787D01*
X34188043Y-75240787D01*
X34142798Y-75091637D01*
X34028491Y-74877784D01*
X33874660Y-74690340D01*
X33687216Y-74536509D01*
X33473363Y-74422202D01*
X33241318Y-74351812D01*
X33060472Y-74334000D01*
X32939528Y-74334000D01*
X32758682Y-74351812D01*
X32526637Y-74422202D01*
X32312784Y-74536509D01*
X32125340Y-74690340D01*
X31971509Y-74877784D01*
X31857202Y-75091637D01*
X31786812Y-75323682D01*
X31763044Y-75565000D01*
X31546000Y-75565000D01*
X31546000Y-73025000D01*
X31763044Y-73025000D01*
X31786812Y-73266318D01*
X31857202Y-73498363D01*
X31971509Y-73712216D01*
X32125340Y-73899660D01*
X32312784Y-74053491D01*
X32526637Y-74167798D01*
X32758682Y-74238188D01*
X32939528Y-74256000D01*
X33060472Y-74256000D01*
X33241318Y-74238188D01*
X33473363Y-74167798D01*
X33687216Y-74053491D01*
X33874660Y-73899660D01*
X34028491Y-73712216D01*
X34142798Y-73498363D01*
X34213188Y-73266318D01*
X34236956Y-73025000D01*
X34303044Y-73025000D01*
X34326812Y-73266318D01*
X34397202Y-73498363D01*
X34511509Y-73712216D01*
X34665340Y-73899660D01*
X34852784Y-74053491D01*
X35066637Y-74167798D01*
X35298682Y-74238188D01*
X35479528Y-74256000D01*
X35600472Y-74256000D01*
X35781318Y-74238188D01*
X36013363Y-74167798D01*
X36227216Y-74053491D01*
X36414660Y-73899660D01*
X36568491Y-73712216D01*
X36682798Y-73498363D01*
X36753188Y-73266318D01*
X36776956Y-73025000D01*
X72423044Y-73025000D01*
X72446812Y-73266318D01*
X72517202Y-73498363D01*
X72631509Y-73712216D01*
X72785340Y-73899660D01*
X72972784Y-74053491D01*
X73186637Y-74167798D01*
X73418682Y-74238188D01*
X73599528Y-74256000D01*
X73720472Y-74256000D01*
X73901318Y-74238188D01*
X74133363Y-74167798D01*
X74347216Y-74053491D01*
X74534660Y-73899660D01*
X74688491Y-73712216D01*
X74802798Y-73498363D01*
X74873188Y-73266318D01*
X74896956Y-73025000D01*
X74963044Y-73025000D01*
X74986812Y-73266318D01*
X75057202Y-73498363D01*
X75171509Y-73712216D01*
X75325340Y-73899660D01*
X75512784Y-74053491D01*
X75726637Y-74167798D01*
X75958682Y-74238188D01*
X76139528Y-74256000D01*
X76260472Y-74256000D01*
X76441318Y-74238188D01*
X76673363Y-74167798D01*
X76887216Y-74053491D01*
X77074660Y-73899660D01*
X77228491Y-73712216D01*
X77342798Y-73498363D01*
X77413188Y-73266318D01*
X77436956Y-73025000D01*
X77413188Y-72783682D01*
X77342798Y-72551637D01*
X77228491Y-72337784D01*
X77074660Y-72150340D01*
X76887216Y-71996509D01*
X76673363Y-71882202D01*
X76441318Y-71811812D01*
X76260472Y-71794000D01*
X76139528Y-71794000D01*
X75958682Y-71811812D01*
X75726637Y-71882202D01*
X75512784Y-71996509D01*
X75325340Y-72150340D01*
X75171509Y-72337784D01*
X75057202Y-72551637D01*
X74986812Y-72783682D01*
X74963044Y-73025000D01*
X74896956Y-73025000D01*
X74873188Y-72783682D01*
X74802798Y-72551637D01*
X74688491Y-72337784D01*
X74534660Y-72150340D01*
X74347216Y-71996509D01*
X74133363Y-71882202D01*
X73901318Y-71811812D01*
X73720472Y-71794000D01*
X73599528Y-71794000D01*
X73418682Y-71811812D01*
X73186637Y-71882202D01*
X72972784Y-71996509D01*
X72785340Y-72150340D01*
X72631509Y-72337784D01*
X72517202Y-72551637D01*
X72446812Y-72783682D01*
X72423044Y-73025000D01*
X36776956Y-73025000D01*
X36753188Y-72783682D01*
X36682798Y-72551637D01*
X36568491Y-72337784D01*
X36414660Y-72150340D01*
X36227216Y-71996509D01*
X36013363Y-71882202D01*
X35781318Y-71811812D01*
X35600472Y-71794000D01*
X35479528Y-71794000D01*
X35298682Y-71811812D01*
X35066637Y-71882202D01*
X34852784Y-71996509D01*
X34665340Y-72150340D01*
X34511509Y-72337784D01*
X34397202Y-72551637D01*
X34326812Y-72783682D01*
X34303044Y-73025000D01*
X34236956Y-73025000D01*
X34213188Y-72783682D01*
X34142798Y-72551637D01*
X34028491Y-72337784D01*
X33874660Y-72150340D01*
X33687216Y-71996509D01*
X33473363Y-71882202D01*
X33241318Y-71811812D01*
X33060472Y-71794000D01*
X32939528Y-71794000D01*
X32758682Y-71811812D01*
X32526637Y-71882202D01*
X32312784Y-71996509D01*
X32125340Y-72150340D01*
X31971509Y-72337784D01*
X31857202Y-72551637D01*
X31786812Y-72783682D01*
X31763044Y-73025000D01*
X31546000Y-73025000D01*
X31546000Y-70485000D01*
X31763044Y-70485000D01*
X31786812Y-70726318D01*
X31857202Y-70958363D01*
X31971509Y-71172216D01*
X32125340Y-71359660D01*
X32312784Y-71513491D01*
X32526637Y-71627798D01*
X32758682Y-71698188D01*
X32939528Y-71716000D01*
X33060472Y-71716000D01*
X33241318Y-71698188D01*
X33473363Y-71627798D01*
X33687216Y-71513491D01*
X33874660Y-71359660D01*
X34028491Y-71172216D01*
X34142798Y-70958363D01*
X34213188Y-70726318D01*
X34236956Y-70485000D01*
X34303044Y-70485000D01*
X34326812Y-70726318D01*
X34397202Y-70958363D01*
X34511509Y-71172216D01*
X34665340Y-71359660D01*
X34852784Y-71513491D01*
X35066637Y-71627798D01*
X35298682Y-71698188D01*
X35479528Y-71716000D01*
X35600472Y-71716000D01*
X35781318Y-71698188D01*
X36013363Y-71627798D01*
X36227216Y-71513491D01*
X36414660Y-71359660D01*
X36568491Y-71172216D01*
X36682798Y-70958363D01*
X36728042Y-70809213D01*
X72424842Y-70809213D01*
X72452875Y-70901646D01*
X72557353Y-71129139D01*
X72704205Y-71331878D01*
X72887788Y-71502072D01*
X73101047Y-71633180D01*
X73335786Y-71720164D01*
X73533000Y-71648925D01*
X73533000Y-70612000D01*
X73787000Y-70612000D01*
X73787000Y-71648925D01*
X73984214Y-71720164D01*
X74218953Y-71633180D01*
X74432212Y-71502072D01*
X74615795Y-71331878D01*
X74762647Y-71129139D01*
X74867125Y-70901646D01*
X74895158Y-70809213D01*
X74823338Y-70612000D01*
X73787000Y-70612000D01*
X73533000Y-70612000D01*
X72496662Y-70612000D01*
X72424842Y-70809213D01*
X36728042Y-70809213D01*
X36753188Y-70726318D01*
X36776956Y-70485000D01*
X74963044Y-70485000D01*
X74986812Y-70726318D01*
X75057202Y-70958363D01*
X75171509Y-71172216D01*
X75325340Y-71359660D01*
X75512784Y-71513491D01*
X75726637Y-71627798D01*
X75958682Y-71698188D01*
X76139528Y-71716000D01*
X76260472Y-71716000D01*
X76441318Y-71698188D01*
X76673363Y-71627798D01*
X76887216Y-71513491D01*
X77074660Y-71359660D01*
X77228491Y-71172216D01*
X77342798Y-70958363D01*
X77413188Y-70726318D01*
X77436956Y-70485000D01*
X77413188Y-70243682D01*
X77342798Y-70011637D01*
X77228491Y-69797784D01*
X77074660Y-69610340D01*
X76887216Y-69456509D01*
X76673363Y-69342202D01*
X76441318Y-69271812D01*
X76260472Y-69254000D01*
X76139528Y-69254000D01*
X75958682Y-69271812D01*
X75726637Y-69342202D01*
X75512784Y-69456509D01*
X75325340Y-69610340D01*
X75171509Y-69797784D01*
X75057202Y-70011637D01*
X74986812Y-70243682D01*
X74963044Y-70485000D01*
X36776956Y-70485000D01*
X36753188Y-70243682D01*
X36728043Y-70160787D01*
X72424842Y-70160787D01*
X72496662Y-70358000D01*
X73533000Y-70358000D01*
X73533000Y-69321075D01*
X73787000Y-69321075D01*
X73787000Y-70358000D01*
X74823338Y-70358000D01*
X74895158Y-70160787D01*
X74867125Y-70068354D01*
X74762647Y-69840861D01*
X74615795Y-69638122D01*
X74432212Y-69467928D01*
X74218953Y-69336820D01*
X73984214Y-69249836D01*
X73787000Y-69321075D01*
X73533000Y-69321075D01*
X73335786Y-69249836D01*
X73101047Y-69336820D01*
X72887788Y-69467928D01*
X72704205Y-69638122D01*
X72557353Y-69840861D01*
X72452875Y-70068354D01*
X72424842Y-70160787D01*
X36728043Y-70160787D01*
X36682798Y-70011637D01*
X36568491Y-69797784D01*
X36414660Y-69610340D01*
X36227216Y-69456509D01*
X36013363Y-69342202D01*
X35781318Y-69271812D01*
X35600472Y-69254000D01*
X35479528Y-69254000D01*
X35298682Y-69271812D01*
X35066637Y-69342202D01*
X34852784Y-69456509D01*
X34665340Y-69610340D01*
X34511509Y-69797784D01*
X34397202Y-70011637D01*
X34326812Y-70243682D01*
X34303044Y-70485000D01*
X34236956Y-70485000D01*
X34213188Y-70243682D01*
X34142798Y-70011637D01*
X34028491Y-69797784D01*
X33874660Y-69610340D01*
X33687216Y-69456509D01*
X33473363Y-69342202D01*
X33241318Y-69271812D01*
X33060472Y-69254000D01*
X32939528Y-69254000D01*
X32758682Y-69271812D01*
X32526637Y-69342202D01*
X32312784Y-69456509D01*
X32125340Y-69610340D01*
X31971509Y-69797784D01*
X31857202Y-70011637D01*
X31786812Y-70243682D01*
X31763044Y-70485000D01*
X31546000Y-70485000D01*
X31546000Y-67945000D01*
X31763044Y-67945000D01*
X31786812Y-68186318D01*
X31857202Y-68418363D01*
X31971509Y-68632216D01*
X32125340Y-68819660D01*
X32312784Y-68973491D01*
X32526637Y-69087798D01*
X32758682Y-69158188D01*
X32939528Y-69176000D01*
X33060472Y-69176000D01*
X33241318Y-69158188D01*
X33473363Y-69087798D01*
X33687216Y-68973491D01*
X33874660Y-68819660D01*
X34028491Y-68632216D01*
X34142798Y-68418363D01*
X34188042Y-68269213D01*
X34304842Y-68269213D01*
X34332875Y-68361646D01*
X34437353Y-68589139D01*
X34584205Y-68791878D01*
X34767788Y-68962072D01*
X34981047Y-69093180D01*
X35215786Y-69180164D01*
X35413000Y-69108925D01*
X35413000Y-68072000D01*
X35667000Y-68072000D01*
X35667000Y-69108925D01*
X35864214Y-69180164D01*
X36098953Y-69093180D01*
X36312212Y-68962072D01*
X36495795Y-68791878D01*
X36642647Y-68589139D01*
X36747125Y-68361646D01*
X36775158Y-68269213D01*
X36703338Y-68072000D01*
X35667000Y-68072000D01*
X35413000Y-68072000D01*
X34376662Y-68072000D01*
X34304842Y-68269213D01*
X34188042Y-68269213D01*
X34213188Y-68186318D01*
X34236956Y-67945000D01*
X72423044Y-67945000D01*
X72446812Y-68186318D01*
X72517202Y-68418363D01*
X72631509Y-68632216D01*
X72785340Y-68819660D01*
X72972784Y-68973491D01*
X73186637Y-69087798D01*
X73418682Y-69158188D01*
X73599528Y-69176000D01*
X73720472Y-69176000D01*
X73901318Y-69158188D01*
X74133363Y-69087798D01*
X74347216Y-68973491D01*
X74534660Y-68819660D01*
X74688491Y-68632216D01*
X74802798Y-68418363D01*
X74873188Y-68186318D01*
X74896956Y-67945000D01*
X74963044Y-67945000D01*
X74986812Y-68186318D01*
X75057202Y-68418363D01*
X75171509Y-68632216D01*
X75325340Y-68819660D01*
X75512784Y-68973491D01*
X75726637Y-69087798D01*
X75958682Y-69158188D01*
X76139528Y-69176000D01*
X76260472Y-69176000D01*
X76441318Y-69158188D01*
X76673363Y-69087798D01*
X76887216Y-68973491D01*
X77074660Y-68819660D01*
X77228491Y-68632216D01*
X77342798Y-68418363D01*
X77413188Y-68186318D01*
X77436956Y-67945000D01*
X77413188Y-67703682D01*
X77342798Y-67471637D01*
X77228491Y-67257784D01*
X77074660Y-67070340D01*
X76887216Y-66916509D01*
X76673363Y-66802202D01*
X76441318Y-66731812D01*
X76260472Y-66714000D01*
X76139528Y-66714000D01*
X75958682Y-66731812D01*
X75726637Y-66802202D01*
X75512784Y-66916509D01*
X75325340Y-67070340D01*
X75171509Y-67257784D01*
X75057202Y-67471637D01*
X74986812Y-67703682D01*
X74963044Y-67945000D01*
X74896956Y-67945000D01*
X74873188Y-67703682D01*
X74802798Y-67471637D01*
X74688491Y-67257784D01*
X74534660Y-67070340D01*
X74347216Y-66916509D01*
X74133363Y-66802202D01*
X73901318Y-66731812D01*
X73720472Y-66714000D01*
X73599528Y-66714000D01*
X73418682Y-66731812D01*
X73186637Y-66802202D01*
X72972784Y-66916509D01*
X72785340Y-67070340D01*
X72631509Y-67257784D01*
X72517202Y-67471637D01*
X72446812Y-67703682D01*
X72423044Y-67945000D01*
X34236956Y-67945000D01*
X34213188Y-67703682D01*
X34188043Y-67620787D01*
X34304842Y-67620787D01*
X34376662Y-67818000D01*
X35413000Y-67818000D01*
X35413000Y-66781075D01*
X35667000Y-66781075D01*
X35667000Y-67818000D01*
X36703338Y-67818000D01*
X36775158Y-67620787D01*
X36747125Y-67528354D01*
X36642647Y-67300861D01*
X36495795Y-67098122D01*
X36312212Y-66927928D01*
X36098953Y-66796820D01*
X35864214Y-66709836D01*
X35667000Y-66781075D01*
X35413000Y-66781075D01*
X35215786Y-66709836D01*
X34981047Y-66796820D01*
X34767788Y-66927928D01*
X34584205Y-67098122D01*
X34437353Y-67300861D01*
X34332875Y-67528354D01*
X34304842Y-67620787D01*
X34188043Y-67620787D01*
X34142798Y-67471637D01*
X34028491Y-67257784D01*
X33874660Y-67070340D01*
X33687216Y-66916509D01*
X33473363Y-66802202D01*
X33241318Y-66731812D01*
X33060472Y-66714000D01*
X32939528Y-66714000D01*
X32758682Y-66731812D01*
X32526637Y-66802202D01*
X32312784Y-66916509D01*
X32125340Y-67070340D01*
X31971509Y-67257784D01*
X31857202Y-67471637D01*
X31786812Y-67703682D01*
X31763044Y-67945000D01*
X31546000Y-67945000D01*
X31546000Y-65405000D01*
X31763044Y-65405000D01*
X31786812Y-65646318D01*
X31857202Y-65878363D01*
X31971509Y-66092216D01*
X32125340Y-66279660D01*
X32312784Y-66433491D01*
X32526637Y-66547798D01*
X32758682Y-66618188D01*
X32939528Y-66636000D01*
X33060472Y-66636000D01*
X33241318Y-66618188D01*
X33473363Y-66547798D01*
X33687216Y-66433491D01*
X33874660Y-66279660D01*
X34028491Y-66092216D01*
X34142798Y-65878363D01*
X34213188Y-65646318D01*
X34236956Y-65405000D01*
X34303044Y-65405000D01*
X34326812Y-65646318D01*
X34397202Y-65878363D01*
X34511509Y-66092216D01*
X34665340Y-66279660D01*
X34852784Y-66433491D01*
X35066637Y-66547798D01*
X35298682Y-66618188D01*
X35479528Y-66636000D01*
X35600472Y-66636000D01*
X35781318Y-66618188D01*
X36013363Y-66547798D01*
X36227216Y-66433491D01*
X36414660Y-66279660D01*
X36568491Y-66092216D01*
X36682798Y-65878363D01*
X36753188Y-65646318D01*
X36776956Y-65405000D01*
X72423044Y-65405000D01*
X72446812Y-65646318D01*
X72517202Y-65878363D01*
X72631509Y-66092216D01*
X72785340Y-66279660D01*
X72972784Y-66433491D01*
X73186637Y-66547798D01*
X73418682Y-66618188D01*
X73599528Y-66636000D01*
X73720472Y-66636000D01*
X73901318Y-66618188D01*
X74133363Y-66547798D01*
X74347216Y-66433491D01*
X74534660Y-66279660D01*
X74688491Y-66092216D01*
X74802798Y-65878363D01*
X74848042Y-65729213D01*
X74964842Y-65729213D01*
X74992875Y-65821646D01*
X75097353Y-66049139D01*
X75244205Y-66251878D01*
X75427788Y-66422072D01*
X75641047Y-66553180D01*
X75875786Y-66640164D01*
X76073000Y-66568925D01*
X76073000Y-65532000D01*
X76327000Y-65532000D01*
X76327000Y-66568925D01*
X76524214Y-66640164D01*
X76758953Y-66553180D01*
X76972212Y-66422072D01*
X77155795Y-66251878D01*
X77302647Y-66049139D01*
X77407125Y-65821646D01*
X77435158Y-65729213D01*
X77363338Y-65532000D01*
X76327000Y-65532000D01*
X76073000Y-65532000D01*
X75036662Y-65532000D01*
X74964842Y-65729213D01*
X74848042Y-65729213D01*
X74873188Y-65646318D01*
X74896956Y-65405000D01*
X74873188Y-65163682D01*
X74848043Y-65080787D01*
X74964842Y-65080787D01*
X75036662Y-65278000D01*
X76073000Y-65278000D01*
X76073000Y-64241075D01*
X76327000Y-64241075D01*
X76327000Y-65278000D01*
X77363338Y-65278000D01*
X77435158Y-65080787D01*
X77407125Y-64988354D01*
X77302647Y-64760861D01*
X77155795Y-64558122D01*
X76972212Y-64387928D01*
X76758953Y-64256820D01*
X76524214Y-64169836D01*
X76327000Y-64241075D01*
X76073000Y-64241075D01*
X75875786Y-64169836D01*
X75641047Y-64256820D01*
X75427788Y-64387928D01*
X75244205Y-64558122D01*
X75097353Y-64760861D01*
X74992875Y-64988354D01*
X74964842Y-65080787D01*
X74848043Y-65080787D01*
X74802798Y-64931637D01*
X74688491Y-64717784D01*
X74534660Y-64530340D01*
X74347216Y-64376509D01*
X74133363Y-64262202D01*
X73901318Y-64191812D01*
X73720472Y-64174000D01*
X73599528Y-64174000D01*
X73418682Y-64191812D01*
X73186637Y-64262202D01*
X72972784Y-64376509D01*
X72785340Y-64530340D01*
X72631509Y-64717784D01*
X72517202Y-64931637D01*
X72446812Y-65163682D01*
X72423044Y-65405000D01*
X36776956Y-65405000D01*
X36753188Y-65163682D01*
X36682798Y-64931637D01*
X36568491Y-64717784D01*
X36414660Y-64530340D01*
X36227216Y-64376509D01*
X36013363Y-64262202D01*
X35781318Y-64191812D01*
X35600472Y-64174000D01*
X35479528Y-64174000D01*
X35298682Y-64191812D01*
X35066637Y-64262202D01*
X34852784Y-64376509D01*
X34665340Y-64530340D01*
X34511509Y-64717784D01*
X34397202Y-64931637D01*
X34326812Y-65163682D01*
X34303044Y-65405000D01*
X34236956Y-65405000D01*
X34213188Y-65163682D01*
X34142798Y-64931637D01*
X34028491Y-64717784D01*
X33874660Y-64530340D01*
X33687216Y-64376509D01*
X33473363Y-64262202D01*
X33241318Y-64191812D01*
X33060472Y-64174000D01*
X32939528Y-64174000D01*
X32758682Y-64191812D01*
X32526637Y-64262202D01*
X32312784Y-64376509D01*
X32125340Y-64530340D01*
X31971509Y-64717784D01*
X31857202Y-64931637D01*
X31786812Y-65163682D01*
X31763044Y-65405000D01*
X31546000Y-65405000D01*
X31546000Y-63189213D01*
X31764842Y-63189213D01*
X31792875Y-63281646D01*
X31897353Y-63509139D01*
X32044205Y-63711878D01*
X32227788Y-63882072D01*
X32441047Y-64013180D01*
X32675786Y-64100164D01*
X32873000Y-64028925D01*
X32873000Y-62992000D01*
X33127000Y-62992000D01*
X33127000Y-64028925D01*
X33324214Y-64100164D01*
X33558953Y-64013180D01*
X33772212Y-63882072D01*
X33955795Y-63711878D01*
X34102647Y-63509139D01*
X34207125Y-63281646D01*
X34235158Y-63189213D01*
X34163338Y-62992000D01*
X33127000Y-62992000D01*
X32873000Y-62992000D01*
X31836662Y-62992000D01*
X31764842Y-63189213D01*
X31546000Y-63189213D01*
X31546000Y-62865000D01*
X34303044Y-62865000D01*
X34326812Y-63106318D01*
X34397202Y-63338363D01*
X34511509Y-63552216D01*
X34665340Y-63739660D01*
X34852784Y-63893491D01*
X35066637Y-64007798D01*
X35298682Y-64078188D01*
X35479528Y-64096000D01*
X35600472Y-64096000D01*
X35781318Y-64078188D01*
X36013363Y-64007798D01*
X36227216Y-63893491D01*
X36414660Y-63739660D01*
X36568491Y-63552216D01*
X36682798Y-63338363D01*
X36753188Y-63106318D01*
X36776956Y-62865000D01*
X72423044Y-62865000D01*
X72446812Y-63106318D01*
X72517202Y-63338363D01*
X72631509Y-63552216D01*
X72785340Y-63739660D01*
X72972784Y-63893491D01*
X73186637Y-64007798D01*
X73418682Y-64078188D01*
X73599528Y-64096000D01*
X73720472Y-64096000D01*
X73901318Y-64078188D01*
X74133363Y-64007798D01*
X74347216Y-63893491D01*
X74534660Y-63739660D01*
X74688491Y-63552216D01*
X74802798Y-63338363D01*
X74873188Y-63106318D01*
X74896956Y-62865000D01*
X74963044Y-62865000D01*
X74986812Y-63106318D01*
X75057202Y-63338363D01*
X75171509Y-63552216D01*
X75325340Y-63739660D01*
X75512784Y-63893491D01*
X75726637Y-64007798D01*
X75958682Y-64078188D01*
X76139528Y-64096000D01*
X76260472Y-64096000D01*
X76441318Y-64078188D01*
X76673363Y-64007798D01*
X76887216Y-63893491D01*
X77074660Y-63739660D01*
X77228491Y-63552216D01*
X77342798Y-63338363D01*
X77413188Y-63106318D01*
X77436956Y-62865000D01*
X77413188Y-62623682D01*
X77342798Y-62391637D01*
X77228491Y-62177784D01*
X77074660Y-61990340D01*
X76887216Y-61836509D01*
X76673363Y-61722202D01*
X76441318Y-61651812D01*
X76260472Y-61634000D01*
X76139528Y-61634000D01*
X75958682Y-61651812D01*
X75726637Y-61722202D01*
X75512784Y-61836509D01*
X75325340Y-61990340D01*
X75171509Y-62177784D01*
X75057202Y-62391637D01*
X74986812Y-62623682D01*
X74963044Y-62865000D01*
X74896956Y-62865000D01*
X74873188Y-62623682D01*
X74802798Y-62391637D01*
X74688491Y-62177784D01*
X74534660Y-61990340D01*
X74347216Y-61836509D01*
X74133363Y-61722202D01*
X73901318Y-61651812D01*
X73720472Y-61634000D01*
X73599528Y-61634000D01*
X73418682Y-61651812D01*
X73186637Y-61722202D01*
X72972784Y-61836509D01*
X72785340Y-61990340D01*
X72631509Y-62177784D01*
X72517202Y-62391637D01*
X72446812Y-62623682D01*
X72423044Y-62865000D01*
X36776956Y-62865000D01*
X36753188Y-62623682D01*
X36682798Y-62391637D01*
X36568491Y-62177784D01*
X36414660Y-61990340D01*
X36227216Y-61836509D01*
X36013363Y-61722202D01*
X35781318Y-61651812D01*
X35600472Y-61634000D01*
X35479528Y-61634000D01*
X35298682Y-61651812D01*
X35066637Y-61722202D01*
X34852784Y-61836509D01*
X34665340Y-61990340D01*
X34511509Y-62177784D01*
X34397202Y-62391637D01*
X34326812Y-62623682D01*
X34303044Y-62865000D01*
X31546000Y-62865000D01*
X31546000Y-62540787D01*
X31764842Y-62540787D01*
X31836662Y-62738000D01*
X32873000Y-62738000D01*
X32873000Y-61701075D01*
X33127000Y-61701075D01*
X33127000Y-62738000D01*
X34163338Y-62738000D01*
X34235158Y-62540787D01*
X34207125Y-62448354D01*
X34102647Y-62220861D01*
X33955795Y-62018122D01*
X33772212Y-61847928D01*
X33558953Y-61716820D01*
X33324214Y-61629836D01*
X33127000Y-61701075D01*
X32873000Y-61701075D01*
X32675786Y-61629836D01*
X32441047Y-61716820D01*
X32227788Y-61847928D01*
X32044205Y-62018122D01*
X31897353Y-62220861D01*
X31792875Y-62448354D01*
X31764842Y-62540787D01*
X31546000Y-62540787D01*
X31546000Y-60325000D01*
X31763044Y-60325000D01*
X31786812Y-60566318D01*
X31857202Y-60798363D01*
X31971509Y-61012216D01*
X32125340Y-61199660D01*
X32312784Y-61353491D01*
X32526637Y-61467798D01*
X32758682Y-61538188D01*
X32939528Y-61556000D01*
X33060472Y-61556000D01*
X33241318Y-61538188D01*
X33473363Y-61467798D01*
X33687216Y-61353491D01*
X33874660Y-61199660D01*
X34028491Y-61012216D01*
X34142798Y-60798363D01*
X34213188Y-60566318D01*
X34236956Y-60325000D01*
X34213188Y-60083682D01*
X34142798Y-59851637D01*
X34028491Y-59637784D01*
X33874660Y-59450340D01*
X33687216Y-59296509D01*
X33473363Y-59182202D01*
X33241318Y-59111812D01*
X33060472Y-59094000D01*
X32939528Y-59094000D01*
X32758682Y-59111812D01*
X32526637Y-59182202D01*
X32312784Y-59296509D01*
X32125340Y-59450340D01*
X31971509Y-59637784D01*
X31857202Y-59851637D01*
X31786812Y-60083682D01*
X31763044Y-60325000D01*
X31546000Y-60325000D01*
X31546000Y-57785000D01*
X31763044Y-57785000D01*
X31786812Y-58026318D01*
X31857202Y-58258363D01*
X31971509Y-58472216D01*
X32125340Y-58659660D01*
X32312784Y-58813491D01*
X32526637Y-58927798D01*
X32758682Y-58998188D01*
X32939528Y-59016000D01*
X33060472Y-59016000D01*
X33241318Y-58998188D01*
X33473363Y-58927798D01*
X33687216Y-58813491D01*
X33874660Y-58659660D01*
X34028491Y-58472216D01*
X34142798Y-58258363D01*
X34188042Y-58109213D01*
X34304842Y-58109213D01*
X34332875Y-58201646D01*
X34437353Y-58429139D01*
X34584205Y-58631878D01*
X34767788Y-58802072D01*
X34981047Y-58933180D01*
X35215786Y-59020164D01*
X35413000Y-58948925D01*
X35413000Y-57912000D01*
X35667000Y-57912000D01*
X35667000Y-58948925D01*
X35864214Y-59020164D01*
X36098953Y-58933180D01*
X36312212Y-58802072D01*
X36495795Y-58631878D01*
X36642647Y-58429139D01*
X36747125Y-58201646D01*
X36775158Y-58109213D01*
X36703338Y-57912000D01*
X35667000Y-57912000D01*
X35413000Y-57912000D01*
X34376662Y-57912000D01*
X34304842Y-58109213D01*
X34188042Y-58109213D01*
X34213188Y-58026318D01*
X34236956Y-57785000D01*
X34213188Y-57543682D01*
X34188043Y-57460787D01*
X34304842Y-57460787D01*
X34376662Y-57658000D01*
X35413000Y-57658000D01*
X35413000Y-56621075D01*
X35215786Y-56549836D01*
X34981047Y-56636820D01*
X34767788Y-56767928D01*
X34584205Y-56938122D01*
X34437353Y-57140861D01*
X34332875Y-57368354D01*
X34304842Y-57460787D01*
X34188043Y-57460787D01*
X34142798Y-57311637D01*
X34028491Y-57097784D01*
X33874660Y-56910340D01*
X33687216Y-56756509D01*
X33473363Y-56642202D01*
X33241318Y-56571812D01*
X33060472Y-56554000D01*
X32939528Y-56554000D01*
X32758682Y-56571812D01*
X32526637Y-56642202D01*
X32312784Y-56756509D01*
X32125340Y-56910340D01*
X31971509Y-57097784D01*
X31857202Y-57311637D01*
X31786812Y-57543682D01*
X31763044Y-57785000D01*
X31546000Y-57785000D01*
X31546000Y-55245000D01*
X31763044Y-55245000D01*
X31786812Y-55486318D01*
X31857202Y-55718363D01*
X31971509Y-55932216D01*
X32125340Y-56119660D01*
X32312784Y-56273491D01*
X32526637Y-56387798D01*
X32758682Y-56458188D01*
X32939528Y-56476000D01*
X33060472Y-56476000D01*
X33241318Y-56458188D01*
X33473363Y-56387798D01*
X33687216Y-56273491D01*
X33874660Y-56119660D01*
X34028491Y-55932216D01*
X34142798Y-55718363D01*
X34213188Y-55486318D01*
X34236956Y-55245000D01*
X34303044Y-55245000D01*
X34326812Y-55486318D01*
X34397202Y-55718363D01*
X34511509Y-55932216D01*
X34665340Y-56119660D01*
X34852784Y-56273491D01*
X35066637Y-56387798D01*
X35298682Y-56458188D01*
X35479528Y-56476000D01*
X35600472Y-56476000D01*
X35781318Y-56458188D01*
X35911915Y-56418572D01*
X36179971Y-56686628D01*
X36098953Y-56636820D01*
X35864214Y-56549836D01*
X35667000Y-56621075D01*
X35667000Y-57658000D01*
X36703338Y-57658000D01*
X36775158Y-57460787D01*
X36747125Y-57368354D01*
X36649818Y-57156476D01*
X36884000Y-57390658D01*
X36884000Y-57813539D01*
X36884001Y-57813549D01*
X36884000Y-59801499D01*
X36858358Y-59827141D01*
X36772887Y-59955058D01*
X36738993Y-60036886D01*
X36682798Y-59851637D01*
X36568491Y-59637784D01*
X36414660Y-59450340D01*
X36227216Y-59296509D01*
X36013363Y-59182202D01*
X35781318Y-59111812D01*
X35600472Y-59094000D01*
X35479528Y-59094000D01*
X35298682Y-59111812D01*
X35066637Y-59182202D01*
X34852784Y-59296509D01*
X34665340Y-59450340D01*
X34511509Y-59637784D01*
X34397202Y-59851637D01*
X34326812Y-60083682D01*
X34303044Y-60325000D01*
X34326812Y-60566318D01*
X34397202Y-60798363D01*
X34511509Y-61012216D01*
X34665340Y-61199660D01*
X34852784Y-61353491D01*
X35066637Y-61467798D01*
X35298682Y-61538188D01*
X35479528Y-61556000D01*
X35600472Y-61556000D01*
X35781318Y-61538188D01*
X36013363Y-61467798D01*
X36227216Y-61353491D01*
X36414660Y-61199660D01*
X36568491Y-61012216D01*
X36682798Y-60798363D01*
X36738993Y-60613114D01*
X36772887Y-60694942D01*
X36858358Y-60822859D01*
X36967141Y-60931642D01*
X37095058Y-61017113D01*
X37237191Y-61075987D01*
X37388078Y-61106000D01*
X37541922Y-61106000D01*
X37692809Y-61075987D01*
X37834942Y-61017113D01*
X37962859Y-60931642D01*
X38071642Y-60822859D01*
X38157113Y-60694942D01*
X38215987Y-60552809D01*
X38246000Y-60401922D01*
X38246000Y-60248078D01*
X38215987Y-60097191D01*
X38157113Y-59955058D01*
X38071642Y-59827141D01*
X38046000Y-59801499D01*
X38046000Y-59475000D01*
X72427157Y-59475000D01*
X72427157Y-61175000D01*
X72434513Y-61249689D01*
X72456299Y-61321508D01*
X72491678Y-61387696D01*
X72539289Y-61445711D01*
X72597304Y-61493322D01*
X72663492Y-61528701D01*
X72735311Y-61550487D01*
X72810000Y-61557843D01*
X74510000Y-61557843D01*
X74584689Y-61550487D01*
X74656508Y-61528701D01*
X74722696Y-61493322D01*
X74780711Y-61445711D01*
X74828322Y-61387696D01*
X74863701Y-61321508D01*
X74885487Y-61249689D01*
X74892843Y-61175000D01*
X74892843Y-60325000D01*
X74963044Y-60325000D01*
X74986812Y-60566318D01*
X75057202Y-60798363D01*
X75171509Y-61012216D01*
X75325340Y-61199660D01*
X75512784Y-61353491D01*
X75726637Y-61467798D01*
X75958682Y-61538188D01*
X76139528Y-61556000D01*
X76260472Y-61556000D01*
X76441318Y-61538188D01*
X76673363Y-61467798D01*
X76887216Y-61353491D01*
X77074660Y-61199660D01*
X77228491Y-61012216D01*
X77342798Y-60798363D01*
X77413188Y-60566318D01*
X77436956Y-60325000D01*
X77413188Y-60083682D01*
X77342798Y-59851637D01*
X77228491Y-59637784D01*
X77074660Y-59450340D01*
X76887216Y-59296509D01*
X76673363Y-59182202D01*
X76441318Y-59111812D01*
X76260472Y-59094000D01*
X76139528Y-59094000D01*
X75958682Y-59111812D01*
X75726637Y-59182202D01*
X75512784Y-59296509D01*
X75325340Y-59450340D01*
X75171509Y-59637784D01*
X75057202Y-59851637D01*
X74986812Y-60083682D01*
X74963044Y-60325000D01*
X74892843Y-60325000D01*
X74892843Y-59475000D01*
X74885487Y-59400311D01*
X74863701Y-59328492D01*
X74828322Y-59262304D01*
X74780711Y-59204289D01*
X74722696Y-59156678D01*
X74656508Y-59121299D01*
X74584689Y-59099513D01*
X74510000Y-59092157D01*
X72810000Y-59092157D01*
X72735311Y-59099513D01*
X72663492Y-59121299D01*
X72597304Y-59156678D01*
X72539289Y-59204289D01*
X72491678Y-59262304D01*
X72456299Y-59328492D01*
X72434513Y-59400311D01*
X72427157Y-59475000D01*
X38046000Y-59475000D01*
X38046000Y-57178540D01*
X38048811Y-57150000D01*
X38037593Y-57036104D01*
X38004371Y-56926585D01*
X37950421Y-56825652D01*
X37877817Y-56737183D01*
X37855645Y-56718987D01*
X36722882Y-55586224D01*
X36753188Y-55486318D01*
X36776956Y-55245000D01*
X36753188Y-55003682D01*
X36682798Y-54771637D01*
X36568491Y-54557784D01*
X36414660Y-54370340D01*
X36227216Y-54216509D01*
X36013363Y-54102202D01*
X35781318Y-54031812D01*
X35600472Y-54014000D01*
X35479528Y-54014000D01*
X35298682Y-54031812D01*
X35066637Y-54102202D01*
X34852784Y-54216509D01*
X34665340Y-54370340D01*
X34511509Y-54557784D01*
X34397202Y-54771637D01*
X34326812Y-55003682D01*
X34303044Y-55245000D01*
X34236956Y-55245000D01*
X34213188Y-55003682D01*
X34142798Y-54771637D01*
X34028491Y-54557784D01*
X33874660Y-54370340D01*
X33687216Y-54216509D01*
X33473363Y-54102202D01*
X33241318Y-54031812D01*
X33060472Y-54014000D01*
X32939528Y-54014000D01*
X32758682Y-54031812D01*
X32526637Y-54102202D01*
X32312784Y-54216509D01*
X32125340Y-54370340D01*
X31971509Y-54557784D01*
X31857202Y-54771637D01*
X31786812Y-55003682D01*
X31763044Y-55245000D01*
X31546000Y-55245000D01*
X31546000Y-51855000D01*
X31767157Y-51855000D01*
X31767157Y-53555000D01*
X31774513Y-53629689D01*
X31796299Y-53701508D01*
X31831678Y-53767696D01*
X31879289Y-53825711D01*
X31937304Y-53873322D01*
X32003492Y-53908701D01*
X32075311Y-53930487D01*
X32150000Y-53937843D01*
X33850000Y-53937843D01*
X33924689Y-53930487D01*
X33996508Y-53908701D01*
X34062696Y-53873322D01*
X34120711Y-53825711D01*
X34168322Y-53767696D01*
X34203701Y-53701508D01*
X34225487Y-53629689D01*
X34232843Y-53555000D01*
X34232843Y-52705000D01*
X34303044Y-52705000D01*
X34326812Y-52946318D01*
X34397202Y-53178363D01*
X34511509Y-53392216D01*
X34665340Y-53579660D01*
X34852784Y-53733491D01*
X35066637Y-53847798D01*
X35298682Y-53918188D01*
X35479528Y-53936000D01*
X35600472Y-53936000D01*
X35781318Y-53918188D01*
X36013363Y-53847798D01*
X36227216Y-53733491D01*
X36242687Y-53720794D01*
X38059000Y-53720794D01*
X38059000Y-54229206D01*
X38158187Y-54727850D01*
X38352748Y-55197562D01*
X38635207Y-55620291D01*
X38994709Y-55979793D01*
X39417438Y-56262252D01*
X39887150Y-56456813D01*
X40385794Y-56556000D01*
X40894206Y-56556000D01*
X41392850Y-56456813D01*
X41862562Y-56262252D01*
X42285291Y-55979793D01*
X42644793Y-55620291D01*
X42927252Y-55197562D01*
X43121813Y-54727850D01*
X43221000Y-54229206D01*
X43221000Y-53720794D01*
X72349000Y-53720794D01*
X72349000Y-54229206D01*
X72448187Y-54727850D01*
X72642748Y-55197562D01*
X72925207Y-55620291D01*
X73284709Y-55979793D01*
X73707438Y-56262252D01*
X74177150Y-56456813D01*
X74675794Y-56556000D01*
X75184206Y-56556000D01*
X75682850Y-56456813D01*
X76152562Y-56262252D01*
X76575291Y-55979793D01*
X76934793Y-55620291D01*
X77217252Y-55197562D01*
X77411813Y-54727850D01*
X77511000Y-54229206D01*
X77511000Y-53720794D01*
X77411813Y-53222150D01*
X77217252Y-52752438D01*
X76934793Y-52329709D01*
X76575291Y-51970207D01*
X76152562Y-51687748D01*
X75682850Y-51493187D01*
X75184206Y-51394000D01*
X74675794Y-51394000D01*
X74177150Y-51493187D01*
X73707438Y-51687748D01*
X73284709Y-51970207D01*
X72925207Y-52329709D01*
X72642748Y-52752438D01*
X72448187Y-53222150D01*
X72349000Y-53720794D01*
X43221000Y-53720794D01*
X43121813Y-53222150D01*
X42927252Y-52752438D01*
X42644793Y-52329709D01*
X42285291Y-51970207D01*
X41862562Y-51687748D01*
X41392850Y-51493187D01*
X40894206Y-51394000D01*
X40385794Y-51394000D01*
X39887150Y-51493187D01*
X39417438Y-51687748D01*
X38994709Y-51970207D01*
X38635207Y-52329709D01*
X38352748Y-52752438D01*
X38158187Y-53222150D01*
X38059000Y-53720794D01*
X36242687Y-53720794D01*
X36414660Y-53579660D01*
X36568491Y-53392216D01*
X36682798Y-53178363D01*
X36753188Y-52946318D01*
X36776956Y-52705000D01*
X36753188Y-52463682D01*
X36682798Y-52231637D01*
X36568491Y-52017784D01*
X36414660Y-51830340D01*
X36227216Y-51676509D01*
X36013363Y-51562202D01*
X35781318Y-51491812D01*
X35600472Y-51474000D01*
X35479528Y-51474000D01*
X35298682Y-51491812D01*
X35066637Y-51562202D01*
X34852784Y-51676509D01*
X34665340Y-51830340D01*
X34511509Y-52017784D01*
X34397202Y-52231637D01*
X34326812Y-52463682D01*
X34303044Y-52705000D01*
X34232843Y-52705000D01*
X34232843Y-51855000D01*
X34225487Y-51780311D01*
X34203701Y-51708492D01*
X34168322Y-51642304D01*
X34120711Y-51584289D01*
X34062696Y-51536678D01*
X33996508Y-51501299D01*
X33924689Y-51479513D01*
X33850000Y-51472157D01*
X32150000Y-51472157D01*
X32075311Y-51479513D01*
X32003492Y-51501299D01*
X31937304Y-51536678D01*
X31879289Y-51584289D01*
X31831678Y-51642304D01*
X31796299Y-51708492D01*
X31774513Y-51780311D01*
X31767157Y-51855000D01*
X31546000Y-51855000D01*
X31546000Y-51231000D01*
X78309001Y-51231000D01*
X78309000Y-102439000D01*
X78309000Y-102439000D01*
G37*
X78309000Y-102439000D02*
X31546000Y-102439000D01*
X31546000Y-101289213D01*
X31764842Y-101289213D01*
X31792875Y-101381646D01*
X31897353Y-101609139D01*
X32044205Y-101811878D01*
X32227788Y-101982072D01*
X32441047Y-102113180D01*
X32675786Y-102200164D01*
X32873000Y-102128925D01*
X32873000Y-101092000D01*
X33127000Y-101092000D01*
X33127000Y-102128925D01*
X33324214Y-102200164D01*
X33558953Y-102113180D01*
X33772212Y-101982072D01*
X33955795Y-101811878D01*
X34102647Y-101609139D01*
X34207125Y-101381646D01*
X34235158Y-101289213D01*
X34163338Y-101092000D01*
X33127000Y-101092000D01*
X32873000Y-101092000D01*
X31836662Y-101092000D01*
X31764842Y-101289213D01*
X31546000Y-101289213D01*
X31546000Y-100965000D01*
X34303044Y-100965000D01*
X34326812Y-101206318D01*
X34397202Y-101438363D01*
X34511509Y-101652216D01*
X34665340Y-101839660D01*
X34852784Y-101993491D01*
X35066637Y-102107798D01*
X35298682Y-102178188D01*
X35479528Y-102196000D01*
X35600472Y-102196000D01*
X35781318Y-102178188D01*
X36013363Y-102107798D01*
X36227216Y-101993491D01*
X36414660Y-101839660D01*
X36568491Y-101652216D01*
X36682798Y-101438363D01*
X36753188Y-101206318D01*
X36776956Y-100965000D01*
X36753188Y-100723682D01*
X36682798Y-100491637D01*
X36568491Y-100277784D01*
X36414660Y-100090340D01*
X36227216Y-99936509D01*
X36013363Y-99822202D01*
X35781318Y-99751812D01*
X35600472Y-99734000D01*
X35479528Y-99734000D01*
X35298682Y-99751812D01*
X35066637Y-99822202D01*
X34852784Y-99936509D01*
X34665340Y-100090340D01*
X34511509Y-100277784D01*
X34397202Y-100491637D01*
X34326812Y-100723682D01*
X34303044Y-100965000D01*
X31546000Y-100965000D01*
X31546000Y-100640787D01*
X31764842Y-100640787D01*
X31836662Y-100838000D01*
X32873000Y-100838000D01*
X32873000Y-99801075D01*
X33127000Y-99801075D01*
X33127000Y-100838000D01*
X34163338Y-100838000D01*
X34235158Y-100640787D01*
X34207125Y-100548354D01*
X34102647Y-100320861D01*
X33955795Y-100118122D01*
X33772212Y-99947928D01*
X33558953Y-99816820D01*
X33324214Y-99729836D01*
X33127000Y-99801075D01*
X32873000Y-99801075D01*
X32675786Y-99729836D01*
X32441047Y-99816820D01*
X32227788Y-99947928D01*
X32044205Y-100118122D01*
X31897353Y-100320861D01*
X31792875Y-100548354D01*
X31764842Y-100640787D01*
X31546000Y-100640787D01*
X31546000Y-98425000D01*
X31763044Y-98425000D01*
X31786812Y-98666318D01*
X31857202Y-98898363D01*
X31971509Y-99112216D01*
X32125340Y-99299660D01*
X32312784Y-99453491D01*
X32526637Y-99567798D01*
X32758682Y-99638188D01*
X32939528Y-99656000D01*
X33060472Y-99656000D01*
X33241318Y-99638188D01*
X33473363Y-99567798D01*
X33687216Y-99453491D01*
X33874660Y-99299660D01*
X34028491Y-99112216D01*
X34142798Y-98898363D01*
X34213188Y-98666318D01*
X34236956Y-98425000D01*
X34303044Y-98425000D01*
X34326812Y-98666318D01*
X34397202Y-98898363D01*
X34511509Y-99112216D01*
X34665340Y-99299660D01*
X34852784Y-99453491D01*
X35066637Y-99567798D01*
X35298682Y-99638188D01*
X35479528Y-99656000D01*
X35600472Y-99656000D01*
X35781318Y-99638188D01*
X36013363Y-99567798D01*
X36227216Y-99453491D01*
X36242687Y-99440794D01*
X38059000Y-99440794D01*
X38059000Y-99949206D01*
X38158187Y-100447850D01*
X38352748Y-100917562D01*
X38635207Y-101340291D01*
X38994709Y-101699793D01*
X39417438Y-101982252D01*
X39887150Y-102176813D01*
X40385794Y-102276000D01*
X40894206Y-102276000D01*
X41392850Y-102176813D01*
X41862562Y-101982252D01*
X42285291Y-101699793D01*
X42644793Y-101340291D01*
X42927252Y-100917562D01*
X43121813Y-100447850D01*
X43221000Y-99949206D01*
X43221000Y-99440794D01*
X72349000Y-99440794D01*
X72349000Y-99949206D01*
X72448187Y-100447850D01*
X72642748Y-100917562D01*
X72925207Y-101340291D01*
X73284709Y-101699793D01*
X73707438Y-101982252D01*
X74177150Y-102176813D01*
X74675794Y-102276000D01*
X75184206Y-102276000D01*
X75682850Y-102176813D01*
X76152562Y-101982252D01*
X76575291Y-101699793D01*
X76934793Y-101340291D01*
X77217252Y-100917562D01*
X77411813Y-100447850D01*
X77511000Y-99949206D01*
X77511000Y-99440794D01*
X77411813Y-98942150D01*
X77217252Y-98472438D01*
X76934793Y-98049709D01*
X76575291Y-97690207D01*
X76152562Y-97407748D01*
X75682850Y-97213187D01*
X75184206Y-97114000D01*
X74675794Y-97114000D01*
X74177150Y-97213187D01*
X73707438Y-97407748D01*
X73284709Y-97690207D01*
X72925207Y-98049709D01*
X72642748Y-98472438D01*
X72448187Y-98942150D01*
X72349000Y-99440794D01*
X43221000Y-99440794D01*
X43121813Y-98942150D01*
X42927252Y-98472438D01*
X42644793Y-98049709D01*
X42285291Y-97690207D01*
X41862562Y-97407748D01*
X41392850Y-97213187D01*
X40894206Y-97114000D01*
X40385794Y-97114000D01*
X39887150Y-97213187D01*
X39417438Y-97407748D01*
X38994709Y-97690207D01*
X38635207Y-98049709D01*
X38352748Y-98472438D01*
X38158187Y-98942150D01*
X38059000Y-99440794D01*
X36242687Y-99440794D01*
X36414660Y-99299660D01*
X36568491Y-99112216D01*
X36682798Y-98898363D01*
X36753188Y-98666318D01*
X36776956Y-98425000D01*
X36753188Y-98183682D01*
X36682798Y-97951637D01*
X36568491Y-97737784D01*
X36414660Y-97550340D01*
X36227216Y-97396509D01*
X36013363Y-97282202D01*
X35781318Y-97211812D01*
X35600472Y-97194000D01*
X35479528Y-97194000D01*
X35298682Y-97211812D01*
X35066637Y-97282202D01*
X34852784Y-97396509D01*
X34665340Y-97550340D01*
X34511509Y-97737784D01*
X34397202Y-97951637D01*
X34326812Y-98183682D01*
X34303044Y-98425000D01*
X34236956Y-98425000D01*
X34213188Y-98183682D01*
X34142798Y-97951637D01*
X34028491Y-97737784D01*
X33874660Y-97550340D01*
X33687216Y-97396509D01*
X33473363Y-97282202D01*
X33241318Y-97211812D01*
X33060472Y-97194000D01*
X32939528Y-97194000D01*
X32758682Y-97211812D01*
X32526637Y-97282202D01*
X32312784Y-97396509D01*
X32125340Y-97550340D01*
X31971509Y-97737784D01*
X31857202Y-97951637D01*
X31786812Y-98183682D01*
X31763044Y-98425000D01*
X31546000Y-98425000D01*
X31546000Y-95885000D01*
X31763044Y-95885000D01*
X31786812Y-96126318D01*
X31857202Y-96358363D01*
X31971509Y-96572216D01*
X32125340Y-96759660D01*
X32312784Y-96913491D01*
X32526637Y-97027798D01*
X32758682Y-97098188D01*
X32939528Y-97116000D01*
X33060472Y-97116000D01*
X33241318Y-97098188D01*
X33473363Y-97027798D01*
X33687216Y-96913491D01*
X33874660Y-96759660D01*
X34028491Y-96572216D01*
X34142798Y-96358363D01*
X34213188Y-96126318D01*
X34236956Y-95885000D01*
X34303044Y-95885000D01*
X34326812Y-96126318D01*
X34397202Y-96358363D01*
X34511509Y-96572216D01*
X34665340Y-96759660D01*
X34852784Y-96913491D01*
X35066637Y-97027798D01*
X35298682Y-97098188D01*
X35479528Y-97116000D01*
X35600472Y-97116000D01*
X35781318Y-97098188D01*
X36013363Y-97027798D01*
X36227216Y-96913491D01*
X36414660Y-96759660D01*
X36568491Y-96572216D01*
X36682798Y-96358363D01*
X36753188Y-96126318D01*
X36776956Y-95885000D01*
X36753188Y-95643682D01*
X36682798Y-95411637D01*
X36568491Y-95197784D01*
X36414660Y-95010340D01*
X36227216Y-94856509D01*
X36013363Y-94742202D01*
X35781318Y-94671812D01*
X35600472Y-94654000D01*
X35479528Y-94654000D01*
X35298682Y-94671812D01*
X35066637Y-94742202D01*
X34852784Y-94856509D01*
X34665340Y-95010340D01*
X34511509Y-95197784D01*
X34397202Y-95411637D01*
X34326812Y-95643682D01*
X34303044Y-95885000D01*
X34236956Y-95885000D01*
X34213188Y-95643682D01*
X34142798Y-95411637D01*
X34028491Y-95197784D01*
X33874660Y-95010340D01*
X33687216Y-94856509D01*
X33473363Y-94742202D01*
X33241318Y-94671812D01*
X33060472Y-94654000D01*
X32939528Y-94654000D01*
X32758682Y-94671812D01*
X32526637Y-94742202D01*
X32312784Y-94856509D01*
X32125340Y-95010340D01*
X31971509Y-95197784D01*
X31857202Y-95411637D01*
X31786812Y-95643682D01*
X31763044Y-95885000D01*
X31546000Y-95885000D01*
X31546000Y-93345000D01*
X31763044Y-93345000D01*
X31786812Y-93586318D01*
X31857202Y-93818363D01*
X31971509Y-94032216D01*
X32125340Y-94219660D01*
X32312784Y-94373491D01*
X32526637Y-94487798D01*
X32758682Y-94558188D01*
X32939528Y-94576000D01*
X33060472Y-94576000D01*
X33241318Y-94558188D01*
X33473363Y-94487798D01*
X33687216Y-94373491D01*
X33874660Y-94219660D01*
X34028491Y-94032216D01*
X34142798Y-93818363D01*
X34188042Y-93669213D01*
X34304842Y-93669213D01*
X34332875Y-93761646D01*
X34437353Y-93989139D01*
X34584205Y-94191878D01*
X34767788Y-94362072D01*
X34981047Y-94493180D01*
X35215786Y-94580164D01*
X35413000Y-94508925D01*
X35413000Y-93472000D01*
X35667000Y-93472000D01*
X35667000Y-94508925D01*
X35864214Y-94580164D01*
X36098953Y-94493180D01*
X36312212Y-94362072D01*
X36495795Y-94191878D01*
X36642647Y-93989139D01*
X36747125Y-93761646D01*
X36775158Y-93669213D01*
X36703338Y-93472000D01*
X35667000Y-93472000D01*
X35413000Y-93472000D01*
X34376662Y-93472000D01*
X34304842Y-93669213D01*
X34188042Y-93669213D01*
X34213188Y-93586318D01*
X34236956Y-93345000D01*
X34213188Y-93103682D01*
X34188043Y-93020787D01*
X34304842Y-93020787D01*
X34376662Y-93218000D01*
X35413000Y-93218000D01*
X35413000Y-92181075D01*
X35667000Y-92181075D01*
X35667000Y-93218000D01*
X36703338Y-93218000D01*
X36775158Y-93020787D01*
X36747125Y-92928354D01*
X36642647Y-92700861D01*
X36495795Y-92498122D01*
X36312212Y-92327928D01*
X36098953Y-92196820D01*
X35864214Y-92109836D01*
X35667000Y-92181075D01*
X35413000Y-92181075D01*
X35215786Y-92109836D01*
X34981047Y-92196820D01*
X34767788Y-92327928D01*
X34584205Y-92498122D01*
X34437353Y-92700861D01*
X34332875Y-92928354D01*
X34304842Y-93020787D01*
X34188043Y-93020787D01*
X34142798Y-92871637D01*
X34028491Y-92657784D01*
X33874660Y-92470340D01*
X33687216Y-92316509D01*
X33473363Y-92202202D01*
X33241318Y-92131812D01*
X33060472Y-92114000D01*
X32939528Y-92114000D01*
X32758682Y-92131812D01*
X32526637Y-92202202D01*
X32312784Y-92316509D01*
X32125340Y-92470340D01*
X31971509Y-92657784D01*
X31857202Y-92871637D01*
X31786812Y-93103682D01*
X31763044Y-93345000D01*
X31546000Y-93345000D01*
X31546000Y-90805000D01*
X31763044Y-90805000D01*
X31786812Y-91046318D01*
X31857202Y-91278363D01*
X31971509Y-91492216D01*
X32125340Y-91679660D01*
X32312784Y-91833491D01*
X32526637Y-91947798D01*
X32758682Y-92018188D01*
X32939528Y-92036000D01*
X33060472Y-92036000D01*
X33241318Y-92018188D01*
X33473363Y-91947798D01*
X33687216Y-91833491D01*
X33874660Y-91679660D01*
X34028491Y-91492216D01*
X34142798Y-91278363D01*
X34213188Y-91046318D01*
X34236956Y-90805000D01*
X34303044Y-90805000D01*
X34326812Y-91046318D01*
X34397202Y-91278363D01*
X34511509Y-91492216D01*
X34665340Y-91679660D01*
X34852784Y-91833491D01*
X35066637Y-91947798D01*
X35298682Y-92018188D01*
X35479528Y-92036000D01*
X35600472Y-92036000D01*
X35781318Y-92018188D01*
X36013363Y-91947798D01*
X36227216Y-91833491D01*
X36414660Y-91679660D01*
X36568491Y-91492216D01*
X36682798Y-91278363D01*
X36753188Y-91046318D01*
X36776956Y-90805000D01*
X36753188Y-90563682D01*
X36682798Y-90331637D01*
X36568491Y-90117784D01*
X36414660Y-89930340D01*
X36227216Y-89776509D01*
X36013363Y-89662202D01*
X35781318Y-89591812D01*
X35600472Y-89574000D01*
X35479528Y-89574000D01*
X35298682Y-89591812D01*
X35066637Y-89662202D01*
X34852784Y-89776509D01*
X34665340Y-89930340D01*
X34511509Y-90117784D01*
X34397202Y-90331637D01*
X34326812Y-90563682D01*
X34303044Y-90805000D01*
X34236956Y-90805000D01*
X34213188Y-90563682D01*
X34142798Y-90331637D01*
X34028491Y-90117784D01*
X33874660Y-89930340D01*
X33687216Y-89776509D01*
X33473363Y-89662202D01*
X33241318Y-89591812D01*
X33060472Y-89574000D01*
X32939528Y-89574000D01*
X32758682Y-89591812D01*
X32526637Y-89662202D01*
X32312784Y-89776509D01*
X32125340Y-89930340D01*
X31971509Y-90117784D01*
X31857202Y-90331637D01*
X31786812Y-90563682D01*
X31763044Y-90805000D01*
X31546000Y-90805000D01*
X31546000Y-88265000D01*
X31763044Y-88265000D01*
X31786812Y-88506318D01*
X31857202Y-88738363D01*
X31971509Y-88952216D01*
X32125340Y-89139660D01*
X32312784Y-89293491D01*
X32526637Y-89407798D01*
X32758682Y-89478188D01*
X32939528Y-89496000D01*
X33060472Y-89496000D01*
X33241318Y-89478188D01*
X33473363Y-89407798D01*
X33687216Y-89293491D01*
X33874660Y-89139660D01*
X34028491Y-88952216D01*
X34142798Y-88738363D01*
X34188042Y-88589213D01*
X34304842Y-88589213D01*
X34332875Y-88681646D01*
X34437353Y-88909139D01*
X34584205Y-89111878D01*
X34767788Y-89282072D01*
X34981047Y-89413180D01*
X35215786Y-89500164D01*
X35413000Y-89428925D01*
X35413000Y-88392000D01*
X35667000Y-88392000D01*
X35667000Y-89428925D01*
X35864214Y-89500164D01*
X36098953Y-89413180D01*
X36312212Y-89282072D01*
X36495795Y-89111878D01*
X36642647Y-88909139D01*
X36747125Y-88681646D01*
X36775158Y-88589213D01*
X36703338Y-88392000D01*
X35667000Y-88392000D01*
X35413000Y-88392000D01*
X34376662Y-88392000D01*
X34304842Y-88589213D01*
X34188042Y-88589213D01*
X34213188Y-88506318D01*
X34236956Y-88265000D01*
X34213188Y-88023682D01*
X34188043Y-87940787D01*
X34304842Y-87940787D01*
X34376662Y-88138000D01*
X35413000Y-88138000D01*
X35413000Y-87101075D01*
X35667000Y-87101075D01*
X35667000Y-88138000D01*
X36703338Y-88138000D01*
X36775158Y-87940787D01*
X36747125Y-87848354D01*
X36642647Y-87620861D01*
X36495795Y-87418122D01*
X36312212Y-87247928D01*
X36098953Y-87116820D01*
X35864214Y-87029836D01*
X35667000Y-87101075D01*
X35413000Y-87101075D01*
X35215786Y-87029836D01*
X34981047Y-87116820D01*
X34767788Y-87247928D01*
X34584205Y-87418122D01*
X34437353Y-87620861D01*
X34332875Y-87848354D01*
X34304842Y-87940787D01*
X34188043Y-87940787D01*
X34142798Y-87791637D01*
X34028491Y-87577784D01*
X33874660Y-87390340D01*
X33687216Y-87236509D01*
X33473363Y-87122202D01*
X33241318Y-87051812D01*
X33060472Y-87034000D01*
X32939528Y-87034000D01*
X32758682Y-87051812D01*
X32526637Y-87122202D01*
X32312784Y-87236509D01*
X32125340Y-87390340D01*
X31971509Y-87577784D01*
X31857202Y-87791637D01*
X31786812Y-88023682D01*
X31763044Y-88265000D01*
X31546000Y-88265000D01*
X31546000Y-85725000D01*
X31763044Y-85725000D01*
X31786812Y-85966318D01*
X31857202Y-86198363D01*
X31971509Y-86412216D01*
X32125340Y-86599660D01*
X32312784Y-86753491D01*
X32526637Y-86867798D01*
X32758682Y-86938188D01*
X32939528Y-86956000D01*
X33060472Y-86956000D01*
X33241318Y-86938188D01*
X33473363Y-86867798D01*
X33687216Y-86753491D01*
X33874660Y-86599660D01*
X34028491Y-86412216D01*
X34142798Y-86198363D01*
X34213188Y-85966318D01*
X34236956Y-85725000D01*
X34303044Y-85725000D01*
X34326812Y-85966318D01*
X34397202Y-86198363D01*
X34511509Y-86412216D01*
X34665340Y-86599660D01*
X34852784Y-86753491D01*
X35066637Y-86867798D01*
X35298682Y-86938188D01*
X35479528Y-86956000D01*
X35600472Y-86956000D01*
X35781318Y-86938188D01*
X36013363Y-86867798D01*
X36227216Y-86753491D01*
X36414660Y-86599660D01*
X36568491Y-86412216D01*
X36682798Y-86198363D01*
X36753188Y-85966318D01*
X36776956Y-85725000D01*
X36753188Y-85483682D01*
X36682798Y-85251637D01*
X36568491Y-85037784D01*
X36414660Y-84850340D01*
X36227216Y-84696509D01*
X36013363Y-84582202D01*
X35781318Y-84511812D01*
X35600472Y-84494000D01*
X35479528Y-84494000D01*
X35298682Y-84511812D01*
X35066637Y-84582202D01*
X34852784Y-84696509D01*
X34665340Y-84850340D01*
X34511509Y-85037784D01*
X34397202Y-85251637D01*
X34326812Y-85483682D01*
X34303044Y-85725000D01*
X34236956Y-85725000D01*
X34213188Y-85483682D01*
X34142798Y-85251637D01*
X34028491Y-85037784D01*
X33874660Y-84850340D01*
X33687216Y-84696509D01*
X33473363Y-84582202D01*
X33241318Y-84511812D01*
X33060472Y-84494000D01*
X32939528Y-84494000D01*
X32758682Y-84511812D01*
X32526637Y-84582202D01*
X32312784Y-84696509D01*
X32125340Y-84850340D01*
X31971509Y-85037784D01*
X31857202Y-85251637D01*
X31786812Y-85483682D01*
X31763044Y-85725000D01*
X31546000Y-85725000D01*
X31546000Y-83509213D01*
X31764842Y-83509213D01*
X31792875Y-83601646D01*
X31897353Y-83829139D01*
X32044205Y-84031878D01*
X32227788Y-84202072D01*
X32441047Y-84333180D01*
X32675786Y-84420164D01*
X32873000Y-84348925D01*
X32873000Y-83312000D01*
X33127000Y-83312000D01*
X33127000Y-84348925D01*
X33324214Y-84420164D01*
X33558953Y-84333180D01*
X33772212Y-84202072D01*
X33955795Y-84031878D01*
X34102647Y-83829139D01*
X34207125Y-83601646D01*
X34235158Y-83509213D01*
X34163338Y-83312000D01*
X33127000Y-83312000D01*
X32873000Y-83312000D01*
X31836662Y-83312000D01*
X31764842Y-83509213D01*
X31546000Y-83509213D01*
X31546000Y-83185000D01*
X34303044Y-83185000D01*
X34326812Y-83426318D01*
X34397202Y-83658363D01*
X34511509Y-83872216D01*
X34665340Y-84059660D01*
X34852784Y-84213491D01*
X35066637Y-84327798D01*
X35298682Y-84398188D01*
X35479528Y-84416000D01*
X35600472Y-84416000D01*
X35781318Y-84398188D01*
X36013363Y-84327798D01*
X36227216Y-84213491D01*
X36414660Y-84059660D01*
X36568491Y-83872216D01*
X36682798Y-83658363D01*
X36753188Y-83426318D01*
X36776956Y-83185000D01*
X36753188Y-82943682D01*
X36682798Y-82711637D01*
X36568491Y-82497784D01*
X36414660Y-82310340D01*
X36227216Y-82156509D01*
X36013363Y-82042202D01*
X35781318Y-81971812D01*
X35600472Y-81954000D01*
X35479528Y-81954000D01*
X35298682Y-81971812D01*
X35066637Y-82042202D01*
X34852784Y-82156509D01*
X34665340Y-82310340D01*
X34511509Y-82497784D01*
X34397202Y-82711637D01*
X34326812Y-82943682D01*
X34303044Y-83185000D01*
X31546000Y-83185000D01*
X31546000Y-82860787D01*
X31764842Y-82860787D01*
X31836662Y-83058000D01*
X32873000Y-83058000D01*
X32873000Y-82021075D01*
X33127000Y-82021075D01*
X33127000Y-83058000D01*
X34163338Y-83058000D01*
X34235158Y-82860787D01*
X34207125Y-82768354D01*
X34102647Y-82540861D01*
X33955795Y-82338122D01*
X33772212Y-82167928D01*
X33558953Y-82036820D01*
X33324214Y-81949836D01*
X33127000Y-82021075D01*
X32873000Y-82021075D01*
X32675786Y-81949836D01*
X32441047Y-82036820D01*
X32227788Y-82167928D01*
X32044205Y-82338122D01*
X31897353Y-82540861D01*
X31792875Y-82768354D01*
X31764842Y-82860787D01*
X31546000Y-82860787D01*
X31546000Y-80645000D01*
X31763044Y-80645000D01*
X31786812Y-80886318D01*
X31857202Y-81118363D01*
X31971509Y-81332216D01*
X32125340Y-81519660D01*
X32312784Y-81673491D01*
X32526637Y-81787798D01*
X32758682Y-81858188D01*
X32939528Y-81876000D01*
X33060472Y-81876000D01*
X33241318Y-81858188D01*
X33473363Y-81787798D01*
X33687216Y-81673491D01*
X33874660Y-81519660D01*
X34028491Y-81332216D01*
X34142798Y-81118363D01*
X34213188Y-80886318D01*
X34236956Y-80645000D01*
X34303044Y-80645000D01*
X34326812Y-80886318D01*
X34397202Y-81118363D01*
X34511509Y-81332216D01*
X34665340Y-81519660D01*
X34852784Y-81673491D01*
X35066637Y-81787798D01*
X35298682Y-81858188D01*
X35479528Y-81876000D01*
X35600472Y-81876000D01*
X35781318Y-81858188D01*
X35847611Y-81838078D01*
X47479000Y-81838078D01*
X47479000Y-81991922D01*
X47509013Y-82142809D01*
X47567887Y-82284942D01*
X47653358Y-82412859D01*
X47679001Y-82438502D01*
X47679000Y-85836499D01*
X47653358Y-85862141D01*
X47567887Y-85990058D01*
X47509013Y-86132191D01*
X47479000Y-86283078D01*
X47479000Y-86436922D01*
X47509013Y-86587809D01*
X47567887Y-86729942D01*
X47653358Y-86857859D01*
X47762141Y-86966642D01*
X47890058Y-87052113D01*
X48032191Y-87110987D01*
X48183078Y-87141000D01*
X48336922Y-87141000D01*
X48487809Y-87110987D01*
X48629942Y-87052113D01*
X48757859Y-86966642D01*
X48866642Y-86857859D01*
X48915324Y-86785000D01*
X71972617Y-86785000D01*
X71990110Y-86962607D01*
X72041916Y-87133388D01*
X72126044Y-87290782D01*
X72239262Y-87428738D01*
X72377218Y-87541956D01*
X72534612Y-87626084D01*
X72705393Y-87677890D01*
X72838499Y-87691000D01*
X73477501Y-87691000D01*
X73610607Y-87677890D01*
X73781388Y-87626084D01*
X73938782Y-87541956D01*
X74076738Y-87428738D01*
X74189956Y-87290782D01*
X74274084Y-87133388D01*
X74325890Y-86962607D01*
X74343383Y-86785000D01*
X75222520Y-86785000D01*
X75240399Y-86966528D01*
X75293349Y-87141079D01*
X75379334Y-87301947D01*
X75495051Y-87442949D01*
X75636053Y-87558666D01*
X75796921Y-87644651D01*
X75971472Y-87697601D01*
X76107514Y-87711000D01*
X77108486Y-87711000D01*
X77244528Y-87697601D01*
X77419079Y-87644651D01*
X77579947Y-87558666D01*
X77720949Y-87442949D01*
X77836666Y-87301947D01*
X77922651Y-87141079D01*
X77975601Y-86966528D01*
X77993480Y-86785000D01*
X77975601Y-86603472D01*
X77922651Y-86428921D01*
X77836666Y-86268053D01*
X77720949Y-86127051D01*
X77579947Y-86011334D01*
X77419079Y-85925349D01*
X77244528Y-85872399D01*
X77108486Y-85859000D01*
X76107514Y-85859000D01*
X75971472Y-85872399D01*
X75796921Y-85925349D01*
X75636053Y-86011334D01*
X75495051Y-86127051D01*
X75379334Y-86268053D01*
X75293349Y-86428921D01*
X75240399Y-86603472D01*
X75222520Y-86785000D01*
X74343383Y-86785000D01*
X74325890Y-86607393D01*
X74274084Y-86436612D01*
X74189956Y-86279218D01*
X74076738Y-86141262D01*
X73938782Y-86028044D01*
X73781388Y-85943916D01*
X73610607Y-85892110D01*
X73477501Y-85879000D01*
X72838499Y-85879000D01*
X72705393Y-85892110D01*
X72534612Y-85943916D01*
X72377218Y-86028044D01*
X72239262Y-86141262D01*
X72126044Y-86279218D01*
X72041916Y-86436612D01*
X71990110Y-86607393D01*
X71972617Y-86785000D01*
X48915324Y-86785000D01*
X48952113Y-86729942D01*
X49010987Y-86587809D01*
X49041000Y-86436922D01*
X49041000Y-86283078D01*
X49010987Y-86132191D01*
X48952113Y-85990058D01*
X48866642Y-85862141D01*
X48841000Y-85836499D01*
X48841000Y-85120390D01*
X73802000Y-85120390D01*
X73802000Y-85249610D01*
X73827210Y-85376348D01*
X73876660Y-85495732D01*
X73948452Y-85603176D01*
X74039824Y-85694548D01*
X74147268Y-85766340D01*
X74266652Y-85815790D01*
X74393390Y-85841000D01*
X74522610Y-85841000D01*
X74649348Y-85815790D01*
X74768732Y-85766340D01*
X74876176Y-85694548D01*
X74967548Y-85603176D01*
X75039340Y-85495732D01*
X75088790Y-85376348D01*
X75114000Y-85249610D01*
X75114000Y-85120390D01*
X75088790Y-84993652D01*
X75039340Y-84874268D01*
X74967548Y-84766824D01*
X74876176Y-84675452D01*
X74768732Y-84603660D01*
X74649348Y-84554210D01*
X74522610Y-84529000D01*
X74393390Y-84529000D01*
X74266652Y-84554210D01*
X74147268Y-84603660D01*
X74039824Y-84675452D01*
X73948452Y-84766824D01*
X73876660Y-84874268D01*
X73827210Y-84993652D01*
X73802000Y-85120390D01*
X48841000Y-85120390D01*
X48841000Y-82438501D01*
X48866642Y-82412859D01*
X48952113Y-82284942D01*
X49010987Y-82142809D01*
X49041000Y-81991922D01*
X49041000Y-81838078D01*
X49010987Y-81687191D01*
X48952113Y-81545058D01*
X48866642Y-81417141D01*
X48757859Y-81308358D01*
X48629942Y-81222887D01*
X48487809Y-81164013D01*
X48336922Y-81134000D01*
X48183078Y-81134000D01*
X48032191Y-81164013D01*
X47890058Y-81222887D01*
X47762141Y-81308358D01*
X47653358Y-81417141D01*
X47567887Y-81545058D01*
X47509013Y-81687191D01*
X47479000Y-81838078D01*
X35847611Y-81838078D01*
X36013363Y-81787798D01*
X36227216Y-81673491D01*
X36414660Y-81519660D01*
X36568491Y-81332216D01*
X36681714Y-81120390D01*
X73802000Y-81120390D01*
X73802000Y-81249610D01*
X73827210Y-81376348D01*
X73876660Y-81495732D01*
X73948452Y-81603176D01*
X74039824Y-81694548D01*
X74147268Y-81766340D01*
X74266652Y-81815790D01*
X74393390Y-81841000D01*
X74522610Y-81841000D01*
X74649348Y-81815790D01*
X74768732Y-81766340D01*
X74876176Y-81694548D01*
X74967548Y-81603176D01*
X75039340Y-81495732D01*
X75088790Y-81376348D01*
X75114000Y-81249610D01*
X75114000Y-81120390D01*
X75088790Y-80993652D01*
X75039340Y-80874268D01*
X74967548Y-80766824D01*
X74876176Y-80675452D01*
X74768732Y-80603660D01*
X74649348Y-80554210D01*
X74522610Y-80529000D01*
X74393390Y-80529000D01*
X74266652Y-80554210D01*
X74147268Y-80603660D01*
X74039824Y-80675452D01*
X73948452Y-80766824D01*
X73876660Y-80874268D01*
X73827210Y-80993652D01*
X73802000Y-81120390D01*
X36681714Y-81120390D01*
X36682798Y-81118363D01*
X36753188Y-80886318D01*
X36776956Y-80645000D01*
X36753188Y-80403682D01*
X36682798Y-80171637D01*
X36568491Y-79957784D01*
X36414660Y-79770340D01*
X36227216Y-79616509D01*
X36013363Y-79502202D01*
X35781318Y-79431812D01*
X35600472Y-79414000D01*
X35479528Y-79414000D01*
X35298682Y-79431812D01*
X35066637Y-79502202D01*
X34852784Y-79616509D01*
X34665340Y-79770340D01*
X34511509Y-79957784D01*
X34397202Y-80171637D01*
X34326812Y-80403682D01*
X34303044Y-80645000D01*
X34236956Y-80645000D01*
X34213188Y-80403682D01*
X34142798Y-80171637D01*
X34028491Y-79957784D01*
X33874660Y-79770340D01*
X33687216Y-79616509D01*
X33473363Y-79502202D01*
X33241318Y-79431812D01*
X33060472Y-79414000D01*
X32939528Y-79414000D01*
X32758682Y-79431812D01*
X32526637Y-79502202D01*
X32312784Y-79616509D01*
X32125340Y-79770340D01*
X31971509Y-79957784D01*
X31857202Y-80171637D01*
X31786812Y-80403682D01*
X31763044Y-80645000D01*
X31546000Y-80645000D01*
X31546000Y-78105000D01*
X31763044Y-78105000D01*
X31786812Y-78346318D01*
X31857202Y-78578363D01*
X31971509Y-78792216D01*
X32125340Y-78979660D01*
X32312784Y-79133491D01*
X32526637Y-79247798D01*
X32758682Y-79318188D01*
X32939528Y-79336000D01*
X33060472Y-79336000D01*
X33241318Y-79318188D01*
X33473363Y-79247798D01*
X33687216Y-79133491D01*
X33874660Y-78979660D01*
X34028491Y-78792216D01*
X34142798Y-78578363D01*
X34213188Y-78346318D01*
X34236956Y-78105000D01*
X34303044Y-78105000D01*
X34326812Y-78346318D01*
X34397202Y-78578363D01*
X34511509Y-78792216D01*
X34665340Y-78979660D01*
X34852784Y-79133491D01*
X35066637Y-79247798D01*
X35298682Y-79318188D01*
X35479528Y-79336000D01*
X35600472Y-79336000D01*
X35781318Y-79318188D01*
X36013363Y-79247798D01*
X36227216Y-79133491D01*
X36414660Y-78979660D01*
X36568491Y-78792216D01*
X36682798Y-78578363D01*
X36753188Y-78346318D01*
X36776956Y-78105000D01*
X36769380Y-78028078D01*
X51924000Y-78028078D01*
X51924000Y-78181922D01*
X51954013Y-78332809D01*
X52012887Y-78474942D01*
X52098358Y-78602859D01*
X52207141Y-78711642D01*
X52249582Y-78740000D01*
X52207141Y-78768358D01*
X52098358Y-78877141D01*
X52012887Y-79005058D01*
X51954013Y-79147191D01*
X51924000Y-79298078D01*
X51924000Y-79451922D01*
X51954013Y-79602809D01*
X52012887Y-79744942D01*
X52098358Y-79872859D01*
X52207141Y-79981642D01*
X52335058Y-80067113D01*
X52477191Y-80125987D01*
X52628078Y-80156000D01*
X52781922Y-80156000D01*
X52932809Y-80125987D01*
X53074942Y-80067113D01*
X53202859Y-79981642D01*
X53303501Y-79881000D01*
X58395154Y-79881000D01*
X58420000Y-79883447D01*
X58444846Y-79881000D01*
X58444854Y-79881000D01*
X58519193Y-79873678D01*
X58614575Y-79844745D01*
X58702479Y-79797759D01*
X58779527Y-79734527D01*
X58795376Y-79715215D01*
X58925591Y-79585000D01*
X71972617Y-79585000D01*
X71990110Y-79762607D01*
X72041916Y-79933388D01*
X72126044Y-80090782D01*
X72239262Y-80228738D01*
X72377218Y-80341956D01*
X72534612Y-80426084D01*
X72705393Y-80477890D01*
X72838499Y-80491000D01*
X73477501Y-80491000D01*
X73610607Y-80477890D01*
X73781388Y-80426084D01*
X73938782Y-80341956D01*
X74076738Y-80228738D01*
X74189956Y-80090782D01*
X74274084Y-79933388D01*
X74325890Y-79762607D01*
X74343383Y-79585000D01*
X75222520Y-79585000D01*
X75240399Y-79766528D01*
X75293349Y-79941079D01*
X75379334Y-80101947D01*
X75495051Y-80242949D01*
X75636053Y-80358666D01*
X75796921Y-80444651D01*
X75971472Y-80497601D01*
X76107514Y-80511000D01*
X77108486Y-80511000D01*
X77244528Y-80497601D01*
X77419079Y-80444651D01*
X77579947Y-80358666D01*
X77720949Y-80242949D01*
X77836666Y-80101947D01*
X77922651Y-79941079D01*
X77975601Y-79766528D01*
X77993480Y-79585000D01*
X77975601Y-79403472D01*
X77922651Y-79228921D01*
X77836666Y-79068053D01*
X77720949Y-78927051D01*
X77579947Y-78811334D01*
X77419079Y-78725349D01*
X77244528Y-78672399D01*
X77108486Y-78659000D01*
X76107514Y-78659000D01*
X75971472Y-78672399D01*
X75796921Y-78725349D01*
X75636053Y-78811334D01*
X75495051Y-78927051D01*
X75379334Y-79068053D01*
X75293349Y-79228921D01*
X75240399Y-79403472D01*
X75222520Y-79585000D01*
X74343383Y-79585000D01*
X74325890Y-79407393D01*
X74274084Y-79236612D01*
X74189956Y-79079218D01*
X74076738Y-78941262D01*
X73938782Y-78828044D01*
X73781388Y-78743916D01*
X73610607Y-78692110D01*
X73477501Y-78679000D01*
X72838499Y-78679000D01*
X72705393Y-78692110D01*
X72534612Y-78743916D01*
X72377218Y-78828044D01*
X72239262Y-78941262D01*
X72126044Y-79079218D01*
X72041916Y-79236612D01*
X71990110Y-79407393D01*
X71972617Y-79585000D01*
X58925591Y-79585000D01*
X59624592Y-78886000D01*
X59766922Y-78886000D01*
X59917809Y-78855987D01*
X60059942Y-78797113D01*
X60187859Y-78711642D01*
X60296642Y-78602859D01*
X60382113Y-78474942D01*
X60440987Y-78332809D01*
X60471000Y-78181922D01*
X60471000Y-78028078D01*
X60440987Y-77877191D01*
X60382113Y-77735058D01*
X60372720Y-77721000D01*
X60401922Y-77721000D01*
X60552809Y-77690987D01*
X60694942Y-77632113D01*
X60822859Y-77546642D01*
X60931642Y-77437859D01*
X61017113Y-77309942D01*
X61075987Y-77167809D01*
X61106000Y-77016922D01*
X61106000Y-76863078D01*
X61075987Y-76712191D01*
X61017113Y-76570058D01*
X60931642Y-76442141D01*
X60906000Y-76416499D01*
X60906000Y-75325657D01*
X61273311Y-74958347D01*
X61309575Y-74958347D01*
X61460462Y-74928334D01*
X61602595Y-74869460D01*
X61730512Y-74783989D01*
X61839295Y-74675206D01*
X61924766Y-74547289D01*
X61983640Y-74405156D01*
X62013653Y-74254269D01*
X62013653Y-74100425D01*
X61983640Y-73949538D01*
X61924766Y-73807405D01*
X61839295Y-73679488D01*
X61730512Y-73570705D01*
X61602595Y-73485234D01*
X61460462Y-73426360D01*
X61309575Y-73396347D01*
X61155731Y-73396347D01*
X61004844Y-73426360D01*
X60862711Y-73485234D01*
X60734794Y-73570705D01*
X60626011Y-73679488D01*
X60540540Y-73807405D01*
X60481666Y-73949538D01*
X60451653Y-74100425D01*
X60451653Y-74136689D01*
X59934355Y-74653988D01*
X59912184Y-74672183D01*
X59893991Y-74694352D01*
X59839579Y-74760653D01*
X59785629Y-74861586D01*
X59752407Y-74971105D01*
X59741189Y-75085000D01*
X59744001Y-75113550D01*
X59744000Y-76416499D01*
X59718358Y-76442141D01*
X59632887Y-76570058D01*
X59574013Y-76712191D01*
X59544000Y-76863078D01*
X59544000Y-77016922D01*
X59574013Y-77167809D01*
X59632887Y-77309942D01*
X59642280Y-77324000D01*
X59613078Y-77324000D01*
X59462191Y-77354013D01*
X59320058Y-77412887D01*
X59192141Y-77498358D01*
X59083358Y-77607141D01*
X59055000Y-77649582D01*
X59026642Y-77607141D01*
X58917859Y-77498358D01*
X58789942Y-77412887D01*
X58647809Y-77354013D01*
X58496922Y-77324000D01*
X58343078Y-77324000D01*
X58192191Y-77354013D01*
X58050058Y-77412887D01*
X57922141Y-77498358D01*
X57821499Y-77599000D01*
X53303501Y-77599000D01*
X53202859Y-77498358D01*
X53074942Y-77412887D01*
X52932809Y-77354013D01*
X52781922Y-77324000D01*
X52628078Y-77324000D01*
X52477191Y-77354013D01*
X52335058Y-77412887D01*
X52207141Y-77498358D01*
X52098358Y-77607141D01*
X52012887Y-77735058D01*
X51954013Y-77877191D01*
X51924000Y-78028078D01*
X36769380Y-78028078D01*
X36753188Y-77863682D01*
X36682798Y-77631637D01*
X36568491Y-77417784D01*
X36414660Y-77230340D01*
X36227216Y-77076509D01*
X36013363Y-76962202D01*
X35781318Y-76891812D01*
X35600472Y-76874000D01*
X35479528Y-76874000D01*
X35298682Y-76891812D01*
X35066637Y-76962202D01*
X34852784Y-77076509D01*
X34665340Y-77230340D01*
X34511509Y-77417784D01*
X34397202Y-77631637D01*
X34326812Y-77863682D01*
X34303044Y-78105000D01*
X34236956Y-78105000D01*
X34213188Y-77863682D01*
X34142798Y-77631637D01*
X34028491Y-77417784D01*
X33874660Y-77230340D01*
X33687216Y-77076509D01*
X33473363Y-76962202D01*
X33241318Y-76891812D01*
X33060472Y-76874000D01*
X32939528Y-76874000D01*
X32758682Y-76891812D01*
X32526637Y-76962202D01*
X32312784Y-77076509D01*
X32125340Y-77230340D01*
X31971509Y-77417784D01*
X31857202Y-77631637D01*
X31786812Y-77863682D01*
X31763044Y-78105000D01*
X31546000Y-78105000D01*
X31546000Y-75565000D01*
X31763044Y-75565000D01*
X31786812Y-75806318D01*
X31857202Y-76038363D01*
X31971509Y-76252216D01*
X32125340Y-76439660D01*
X32312784Y-76593491D01*
X32526637Y-76707798D01*
X32758682Y-76778188D01*
X32939528Y-76796000D01*
X33060472Y-76796000D01*
X33241318Y-76778188D01*
X33473363Y-76707798D01*
X33687216Y-76593491D01*
X33874660Y-76439660D01*
X34028491Y-76252216D01*
X34142798Y-76038363D01*
X34188042Y-75889213D01*
X34304842Y-75889213D01*
X34332875Y-75981646D01*
X34437353Y-76209139D01*
X34584205Y-76411878D01*
X34767788Y-76582072D01*
X34981047Y-76713180D01*
X35215786Y-76800164D01*
X35413000Y-76728925D01*
X35413000Y-75692000D01*
X35667000Y-75692000D01*
X35667000Y-76728925D01*
X35864214Y-76800164D01*
X36098953Y-76713180D01*
X36312212Y-76582072D01*
X36495795Y-76411878D01*
X36642647Y-76209139D01*
X36747125Y-75981646D01*
X36775158Y-75889213D01*
X36703338Y-75692000D01*
X35667000Y-75692000D01*
X35413000Y-75692000D01*
X34376662Y-75692000D01*
X34304842Y-75889213D01*
X34188042Y-75889213D01*
X34213188Y-75806318D01*
X34236956Y-75565000D01*
X34213188Y-75323682D01*
X34188043Y-75240787D01*
X34304842Y-75240787D01*
X34376662Y-75438000D01*
X35413000Y-75438000D01*
X35413000Y-74401075D01*
X35667000Y-74401075D01*
X35667000Y-75438000D01*
X36703338Y-75438000D01*
X36775158Y-75240787D01*
X36747125Y-75148354D01*
X36642647Y-74920861D01*
X36495795Y-74718122D01*
X36312212Y-74547928D01*
X36098953Y-74416820D01*
X35864214Y-74329836D01*
X35667000Y-74401075D01*
X35413000Y-74401075D01*
X35215786Y-74329836D01*
X34981047Y-74416820D01*
X34767788Y-74547928D01*
X34584205Y-74718122D01*
X34437353Y-74920861D01*
X34332875Y-75148354D01*
X34304842Y-75240787D01*
X34188043Y-75240787D01*
X34142798Y-75091637D01*
X34028491Y-74877784D01*
X33874660Y-74690340D01*
X33687216Y-74536509D01*
X33473363Y-74422202D01*
X33241318Y-74351812D01*
X33060472Y-74334000D01*
X32939528Y-74334000D01*
X32758682Y-74351812D01*
X32526637Y-74422202D01*
X32312784Y-74536509D01*
X32125340Y-74690340D01*
X31971509Y-74877784D01*
X31857202Y-75091637D01*
X31786812Y-75323682D01*
X31763044Y-75565000D01*
X31546000Y-75565000D01*
X31546000Y-73025000D01*
X31763044Y-73025000D01*
X31786812Y-73266318D01*
X31857202Y-73498363D01*
X31971509Y-73712216D01*
X32125340Y-73899660D01*
X32312784Y-74053491D01*
X32526637Y-74167798D01*
X32758682Y-74238188D01*
X32939528Y-74256000D01*
X33060472Y-74256000D01*
X33241318Y-74238188D01*
X33473363Y-74167798D01*
X33687216Y-74053491D01*
X33874660Y-73899660D01*
X34028491Y-73712216D01*
X34142798Y-73498363D01*
X34213188Y-73266318D01*
X34236956Y-73025000D01*
X34303044Y-73025000D01*
X34326812Y-73266318D01*
X34397202Y-73498363D01*
X34511509Y-73712216D01*
X34665340Y-73899660D01*
X34852784Y-74053491D01*
X35066637Y-74167798D01*
X35298682Y-74238188D01*
X35479528Y-74256000D01*
X35600472Y-74256000D01*
X35781318Y-74238188D01*
X36013363Y-74167798D01*
X36227216Y-74053491D01*
X36414660Y-73899660D01*
X36568491Y-73712216D01*
X36682798Y-73498363D01*
X36753188Y-73266318D01*
X36776956Y-73025000D01*
X72423044Y-73025000D01*
X72446812Y-73266318D01*
X72517202Y-73498363D01*
X72631509Y-73712216D01*
X72785340Y-73899660D01*
X72972784Y-74053491D01*
X73186637Y-74167798D01*
X73418682Y-74238188D01*
X73599528Y-74256000D01*
X73720472Y-74256000D01*
X73901318Y-74238188D01*
X74133363Y-74167798D01*
X74347216Y-74053491D01*
X74534660Y-73899660D01*
X74688491Y-73712216D01*
X74802798Y-73498363D01*
X74873188Y-73266318D01*
X74896956Y-73025000D01*
X74963044Y-73025000D01*
X74986812Y-73266318D01*
X75057202Y-73498363D01*
X75171509Y-73712216D01*
X75325340Y-73899660D01*
X75512784Y-74053491D01*
X75726637Y-74167798D01*
X75958682Y-74238188D01*
X76139528Y-74256000D01*
X76260472Y-74256000D01*
X76441318Y-74238188D01*
X76673363Y-74167798D01*
X76887216Y-74053491D01*
X77074660Y-73899660D01*
X77228491Y-73712216D01*
X77342798Y-73498363D01*
X77413188Y-73266318D01*
X77436956Y-73025000D01*
X77413188Y-72783682D01*
X77342798Y-72551637D01*
X77228491Y-72337784D01*
X77074660Y-72150340D01*
X76887216Y-71996509D01*
X76673363Y-71882202D01*
X76441318Y-71811812D01*
X76260472Y-71794000D01*
X76139528Y-71794000D01*
X75958682Y-71811812D01*
X75726637Y-71882202D01*
X75512784Y-71996509D01*
X75325340Y-72150340D01*
X75171509Y-72337784D01*
X75057202Y-72551637D01*
X74986812Y-72783682D01*
X74963044Y-73025000D01*
X74896956Y-73025000D01*
X74873188Y-72783682D01*
X74802798Y-72551637D01*
X74688491Y-72337784D01*
X74534660Y-72150340D01*
X74347216Y-71996509D01*
X74133363Y-71882202D01*
X73901318Y-71811812D01*
X73720472Y-71794000D01*
X73599528Y-71794000D01*
X73418682Y-71811812D01*
X73186637Y-71882202D01*
X72972784Y-71996509D01*
X72785340Y-72150340D01*
X72631509Y-72337784D01*
X72517202Y-72551637D01*
X72446812Y-72783682D01*
X72423044Y-73025000D01*
X36776956Y-73025000D01*
X36753188Y-72783682D01*
X36682798Y-72551637D01*
X36568491Y-72337784D01*
X36414660Y-72150340D01*
X36227216Y-71996509D01*
X36013363Y-71882202D01*
X35781318Y-71811812D01*
X35600472Y-71794000D01*
X35479528Y-71794000D01*
X35298682Y-71811812D01*
X35066637Y-71882202D01*
X34852784Y-71996509D01*
X34665340Y-72150340D01*
X34511509Y-72337784D01*
X34397202Y-72551637D01*
X34326812Y-72783682D01*
X34303044Y-73025000D01*
X34236956Y-73025000D01*
X34213188Y-72783682D01*
X34142798Y-72551637D01*
X34028491Y-72337784D01*
X33874660Y-72150340D01*
X33687216Y-71996509D01*
X33473363Y-71882202D01*
X33241318Y-71811812D01*
X33060472Y-71794000D01*
X32939528Y-71794000D01*
X32758682Y-71811812D01*
X32526637Y-71882202D01*
X32312784Y-71996509D01*
X32125340Y-72150340D01*
X31971509Y-72337784D01*
X31857202Y-72551637D01*
X31786812Y-72783682D01*
X31763044Y-73025000D01*
X31546000Y-73025000D01*
X31546000Y-70485000D01*
X31763044Y-70485000D01*
X31786812Y-70726318D01*
X31857202Y-70958363D01*
X31971509Y-71172216D01*
X32125340Y-71359660D01*
X32312784Y-71513491D01*
X32526637Y-71627798D01*
X32758682Y-71698188D01*
X32939528Y-71716000D01*
X33060472Y-71716000D01*
X33241318Y-71698188D01*
X33473363Y-71627798D01*
X33687216Y-71513491D01*
X33874660Y-71359660D01*
X34028491Y-71172216D01*
X34142798Y-70958363D01*
X34213188Y-70726318D01*
X34236956Y-70485000D01*
X34303044Y-70485000D01*
X34326812Y-70726318D01*
X34397202Y-70958363D01*
X34511509Y-71172216D01*
X34665340Y-71359660D01*
X34852784Y-71513491D01*
X35066637Y-71627798D01*
X35298682Y-71698188D01*
X35479528Y-71716000D01*
X35600472Y-71716000D01*
X35781318Y-71698188D01*
X36013363Y-71627798D01*
X36227216Y-71513491D01*
X36414660Y-71359660D01*
X36568491Y-71172216D01*
X36682798Y-70958363D01*
X36728042Y-70809213D01*
X72424842Y-70809213D01*
X72452875Y-70901646D01*
X72557353Y-71129139D01*
X72704205Y-71331878D01*
X72887788Y-71502072D01*
X73101047Y-71633180D01*
X73335786Y-71720164D01*
X73533000Y-71648925D01*
X73533000Y-70612000D01*
X73787000Y-70612000D01*
X73787000Y-71648925D01*
X73984214Y-71720164D01*
X74218953Y-71633180D01*
X74432212Y-71502072D01*
X74615795Y-71331878D01*
X74762647Y-71129139D01*
X74867125Y-70901646D01*
X74895158Y-70809213D01*
X74823338Y-70612000D01*
X73787000Y-70612000D01*
X73533000Y-70612000D01*
X72496662Y-70612000D01*
X72424842Y-70809213D01*
X36728042Y-70809213D01*
X36753188Y-70726318D01*
X36776956Y-70485000D01*
X74963044Y-70485000D01*
X74986812Y-70726318D01*
X75057202Y-70958363D01*
X75171509Y-71172216D01*
X75325340Y-71359660D01*
X75512784Y-71513491D01*
X75726637Y-71627798D01*
X75958682Y-71698188D01*
X76139528Y-71716000D01*
X76260472Y-71716000D01*
X76441318Y-71698188D01*
X76673363Y-71627798D01*
X76887216Y-71513491D01*
X77074660Y-71359660D01*
X77228491Y-71172216D01*
X77342798Y-70958363D01*
X77413188Y-70726318D01*
X77436956Y-70485000D01*
X77413188Y-70243682D01*
X77342798Y-70011637D01*
X77228491Y-69797784D01*
X77074660Y-69610340D01*
X76887216Y-69456509D01*
X76673363Y-69342202D01*
X76441318Y-69271812D01*
X76260472Y-69254000D01*
X76139528Y-69254000D01*
X75958682Y-69271812D01*
X75726637Y-69342202D01*
X75512784Y-69456509D01*
X75325340Y-69610340D01*
X75171509Y-69797784D01*
X75057202Y-70011637D01*
X74986812Y-70243682D01*
X74963044Y-70485000D01*
X36776956Y-70485000D01*
X36753188Y-70243682D01*
X36728043Y-70160787D01*
X72424842Y-70160787D01*
X72496662Y-70358000D01*
X73533000Y-70358000D01*
X73533000Y-69321075D01*
X73787000Y-69321075D01*
X73787000Y-70358000D01*
X74823338Y-70358000D01*
X74895158Y-70160787D01*
X74867125Y-70068354D01*
X74762647Y-69840861D01*
X74615795Y-69638122D01*
X74432212Y-69467928D01*
X74218953Y-69336820D01*
X73984214Y-69249836D01*
X73787000Y-69321075D01*
X73533000Y-69321075D01*
X73335786Y-69249836D01*
X73101047Y-69336820D01*
X72887788Y-69467928D01*
X72704205Y-69638122D01*
X72557353Y-69840861D01*
X72452875Y-70068354D01*
X72424842Y-70160787D01*
X36728043Y-70160787D01*
X36682798Y-70011637D01*
X36568491Y-69797784D01*
X36414660Y-69610340D01*
X36227216Y-69456509D01*
X36013363Y-69342202D01*
X35781318Y-69271812D01*
X35600472Y-69254000D01*
X35479528Y-69254000D01*
X35298682Y-69271812D01*
X35066637Y-69342202D01*
X34852784Y-69456509D01*
X34665340Y-69610340D01*
X34511509Y-69797784D01*
X34397202Y-70011637D01*
X34326812Y-70243682D01*
X34303044Y-70485000D01*
X34236956Y-70485000D01*
X34213188Y-70243682D01*
X34142798Y-70011637D01*
X34028491Y-69797784D01*
X33874660Y-69610340D01*
X33687216Y-69456509D01*
X33473363Y-69342202D01*
X33241318Y-69271812D01*
X33060472Y-69254000D01*
X32939528Y-69254000D01*
X32758682Y-69271812D01*
X32526637Y-69342202D01*
X32312784Y-69456509D01*
X32125340Y-69610340D01*
X31971509Y-69797784D01*
X31857202Y-70011637D01*
X31786812Y-70243682D01*
X31763044Y-70485000D01*
X31546000Y-70485000D01*
X31546000Y-67945000D01*
X31763044Y-67945000D01*
X31786812Y-68186318D01*
X31857202Y-68418363D01*
X31971509Y-68632216D01*
X32125340Y-68819660D01*
X32312784Y-68973491D01*
X32526637Y-69087798D01*
X32758682Y-69158188D01*
X32939528Y-69176000D01*
X33060472Y-69176000D01*
X33241318Y-69158188D01*
X33473363Y-69087798D01*
X33687216Y-68973491D01*
X33874660Y-68819660D01*
X34028491Y-68632216D01*
X34142798Y-68418363D01*
X34188042Y-68269213D01*
X34304842Y-68269213D01*
X34332875Y-68361646D01*
X34437353Y-68589139D01*
X34584205Y-68791878D01*
X34767788Y-68962072D01*
X34981047Y-69093180D01*
X35215786Y-69180164D01*
X35413000Y-69108925D01*
X35413000Y-68072000D01*
X35667000Y-68072000D01*
X35667000Y-69108925D01*
X35864214Y-69180164D01*
X36098953Y-69093180D01*
X36312212Y-68962072D01*
X36495795Y-68791878D01*
X36642647Y-68589139D01*
X36747125Y-68361646D01*
X36775158Y-68269213D01*
X36703338Y-68072000D01*
X35667000Y-68072000D01*
X35413000Y-68072000D01*
X34376662Y-68072000D01*
X34304842Y-68269213D01*
X34188042Y-68269213D01*
X34213188Y-68186318D01*
X34236956Y-67945000D01*
X72423044Y-67945000D01*
X72446812Y-68186318D01*
X72517202Y-68418363D01*
X72631509Y-68632216D01*
X72785340Y-68819660D01*
X72972784Y-68973491D01*
X73186637Y-69087798D01*
X73418682Y-69158188D01*
X73599528Y-69176000D01*
X73720472Y-69176000D01*
X73901318Y-69158188D01*
X74133363Y-69087798D01*
X74347216Y-68973491D01*
X74534660Y-68819660D01*
X74688491Y-68632216D01*
X74802798Y-68418363D01*
X74873188Y-68186318D01*
X74896956Y-67945000D01*
X74963044Y-67945000D01*
X74986812Y-68186318D01*
X75057202Y-68418363D01*
X75171509Y-68632216D01*
X75325340Y-68819660D01*
X75512784Y-68973491D01*
X75726637Y-69087798D01*
X75958682Y-69158188D01*
X76139528Y-69176000D01*
X76260472Y-69176000D01*
X76441318Y-69158188D01*
X76673363Y-69087798D01*
X76887216Y-68973491D01*
X77074660Y-68819660D01*
X77228491Y-68632216D01*
X77342798Y-68418363D01*
X77413188Y-68186318D01*
X77436956Y-67945000D01*
X77413188Y-67703682D01*
X77342798Y-67471637D01*
X77228491Y-67257784D01*
X77074660Y-67070340D01*
X76887216Y-66916509D01*
X76673363Y-66802202D01*
X76441318Y-66731812D01*
X76260472Y-66714000D01*
X76139528Y-66714000D01*
X75958682Y-66731812D01*
X75726637Y-66802202D01*
X75512784Y-66916509D01*
X75325340Y-67070340D01*
X75171509Y-67257784D01*
X75057202Y-67471637D01*
X74986812Y-67703682D01*
X74963044Y-67945000D01*
X74896956Y-67945000D01*
X74873188Y-67703682D01*
X74802798Y-67471637D01*
X74688491Y-67257784D01*
X74534660Y-67070340D01*
X74347216Y-66916509D01*
X74133363Y-66802202D01*
X73901318Y-66731812D01*
X73720472Y-66714000D01*
X73599528Y-66714000D01*
X73418682Y-66731812D01*
X73186637Y-66802202D01*
X72972784Y-66916509D01*
X72785340Y-67070340D01*
X72631509Y-67257784D01*
X72517202Y-67471637D01*
X72446812Y-67703682D01*
X72423044Y-67945000D01*
X34236956Y-67945000D01*
X34213188Y-67703682D01*
X34188043Y-67620787D01*
X34304842Y-67620787D01*
X34376662Y-67818000D01*
X35413000Y-67818000D01*
X35413000Y-66781075D01*
X35667000Y-66781075D01*
X35667000Y-67818000D01*
X36703338Y-67818000D01*
X36775158Y-67620787D01*
X36747125Y-67528354D01*
X36642647Y-67300861D01*
X36495795Y-67098122D01*
X36312212Y-66927928D01*
X36098953Y-66796820D01*
X35864214Y-66709836D01*
X35667000Y-66781075D01*
X35413000Y-66781075D01*
X35215786Y-66709836D01*
X34981047Y-66796820D01*
X34767788Y-66927928D01*
X34584205Y-67098122D01*
X34437353Y-67300861D01*
X34332875Y-67528354D01*
X34304842Y-67620787D01*
X34188043Y-67620787D01*
X34142798Y-67471637D01*
X34028491Y-67257784D01*
X33874660Y-67070340D01*
X33687216Y-66916509D01*
X33473363Y-66802202D01*
X33241318Y-66731812D01*
X33060472Y-66714000D01*
X32939528Y-66714000D01*
X32758682Y-66731812D01*
X32526637Y-66802202D01*
X32312784Y-66916509D01*
X32125340Y-67070340D01*
X31971509Y-67257784D01*
X31857202Y-67471637D01*
X31786812Y-67703682D01*
X31763044Y-67945000D01*
X31546000Y-67945000D01*
X31546000Y-65405000D01*
X31763044Y-65405000D01*
X31786812Y-65646318D01*
X31857202Y-65878363D01*
X31971509Y-66092216D01*
X32125340Y-66279660D01*
X32312784Y-66433491D01*
X32526637Y-66547798D01*
X32758682Y-66618188D01*
X32939528Y-66636000D01*
X33060472Y-66636000D01*
X33241318Y-66618188D01*
X33473363Y-66547798D01*
X33687216Y-66433491D01*
X33874660Y-66279660D01*
X34028491Y-66092216D01*
X34142798Y-65878363D01*
X34213188Y-65646318D01*
X34236956Y-65405000D01*
X34303044Y-65405000D01*
X34326812Y-65646318D01*
X34397202Y-65878363D01*
X34511509Y-66092216D01*
X34665340Y-66279660D01*
X34852784Y-66433491D01*
X35066637Y-66547798D01*
X35298682Y-66618188D01*
X35479528Y-66636000D01*
X35600472Y-66636000D01*
X35781318Y-66618188D01*
X36013363Y-66547798D01*
X36227216Y-66433491D01*
X36414660Y-66279660D01*
X36568491Y-66092216D01*
X36682798Y-65878363D01*
X36753188Y-65646318D01*
X36776956Y-65405000D01*
X72423044Y-65405000D01*
X72446812Y-65646318D01*
X72517202Y-65878363D01*
X72631509Y-66092216D01*
X72785340Y-66279660D01*
X72972784Y-66433491D01*
X73186637Y-66547798D01*
X73418682Y-66618188D01*
X73599528Y-66636000D01*
X73720472Y-66636000D01*
X73901318Y-66618188D01*
X74133363Y-66547798D01*
X74347216Y-66433491D01*
X74534660Y-66279660D01*
X74688491Y-66092216D01*
X74802798Y-65878363D01*
X74848042Y-65729213D01*
X74964842Y-65729213D01*
X74992875Y-65821646D01*
X75097353Y-66049139D01*
X75244205Y-66251878D01*
X75427788Y-66422072D01*
X75641047Y-66553180D01*
X75875786Y-66640164D01*
X76073000Y-66568925D01*
X76073000Y-65532000D01*
X76327000Y-65532000D01*
X76327000Y-66568925D01*
X76524214Y-66640164D01*
X76758953Y-66553180D01*
X76972212Y-66422072D01*
X77155795Y-66251878D01*
X77302647Y-66049139D01*
X77407125Y-65821646D01*
X77435158Y-65729213D01*
X77363338Y-65532000D01*
X76327000Y-65532000D01*
X76073000Y-65532000D01*
X75036662Y-65532000D01*
X74964842Y-65729213D01*
X74848042Y-65729213D01*
X74873188Y-65646318D01*
X74896956Y-65405000D01*
X74873188Y-65163682D01*
X74848043Y-65080787D01*
X74964842Y-65080787D01*
X75036662Y-65278000D01*
X76073000Y-65278000D01*
X76073000Y-64241075D01*
X76327000Y-64241075D01*
X76327000Y-65278000D01*
X77363338Y-65278000D01*
X77435158Y-65080787D01*
X77407125Y-64988354D01*
X77302647Y-64760861D01*
X77155795Y-64558122D01*
X76972212Y-64387928D01*
X76758953Y-64256820D01*
X76524214Y-64169836D01*
X76327000Y-64241075D01*
X76073000Y-64241075D01*
X75875786Y-64169836D01*
X75641047Y-64256820D01*
X75427788Y-64387928D01*
X75244205Y-64558122D01*
X75097353Y-64760861D01*
X74992875Y-64988354D01*
X74964842Y-65080787D01*
X74848043Y-65080787D01*
X74802798Y-64931637D01*
X74688491Y-64717784D01*
X74534660Y-64530340D01*
X74347216Y-64376509D01*
X74133363Y-64262202D01*
X73901318Y-64191812D01*
X73720472Y-64174000D01*
X73599528Y-64174000D01*
X73418682Y-64191812D01*
X73186637Y-64262202D01*
X72972784Y-64376509D01*
X72785340Y-64530340D01*
X72631509Y-64717784D01*
X72517202Y-64931637D01*
X72446812Y-65163682D01*
X72423044Y-65405000D01*
X36776956Y-65405000D01*
X36753188Y-65163682D01*
X36682798Y-64931637D01*
X36568491Y-64717784D01*
X36414660Y-64530340D01*
X36227216Y-64376509D01*
X36013363Y-64262202D01*
X35781318Y-64191812D01*
X35600472Y-64174000D01*
X35479528Y-64174000D01*
X35298682Y-64191812D01*
X35066637Y-64262202D01*
X34852784Y-64376509D01*
X34665340Y-64530340D01*
X34511509Y-64717784D01*
X34397202Y-64931637D01*
X34326812Y-65163682D01*
X34303044Y-65405000D01*
X34236956Y-65405000D01*
X34213188Y-65163682D01*
X34142798Y-64931637D01*
X34028491Y-64717784D01*
X33874660Y-64530340D01*
X33687216Y-64376509D01*
X33473363Y-64262202D01*
X33241318Y-64191812D01*
X33060472Y-64174000D01*
X32939528Y-64174000D01*
X32758682Y-64191812D01*
X32526637Y-64262202D01*
X32312784Y-64376509D01*
X32125340Y-64530340D01*
X31971509Y-64717784D01*
X31857202Y-64931637D01*
X31786812Y-65163682D01*
X31763044Y-65405000D01*
X31546000Y-65405000D01*
X31546000Y-63189213D01*
X31764842Y-63189213D01*
X31792875Y-63281646D01*
X31897353Y-63509139D01*
X32044205Y-63711878D01*
X32227788Y-63882072D01*
X32441047Y-64013180D01*
X32675786Y-64100164D01*
X32873000Y-64028925D01*
X32873000Y-62992000D01*
X33127000Y-62992000D01*
X33127000Y-64028925D01*
X33324214Y-64100164D01*
X33558953Y-64013180D01*
X33772212Y-63882072D01*
X33955795Y-63711878D01*
X34102647Y-63509139D01*
X34207125Y-63281646D01*
X34235158Y-63189213D01*
X34163338Y-62992000D01*
X33127000Y-62992000D01*
X32873000Y-62992000D01*
X31836662Y-62992000D01*
X31764842Y-63189213D01*
X31546000Y-63189213D01*
X31546000Y-62865000D01*
X34303044Y-62865000D01*
X34326812Y-63106318D01*
X34397202Y-63338363D01*
X34511509Y-63552216D01*
X34665340Y-63739660D01*
X34852784Y-63893491D01*
X35066637Y-64007798D01*
X35298682Y-64078188D01*
X35479528Y-64096000D01*
X35600472Y-64096000D01*
X35781318Y-64078188D01*
X36013363Y-64007798D01*
X36227216Y-63893491D01*
X36414660Y-63739660D01*
X36568491Y-63552216D01*
X36682798Y-63338363D01*
X36753188Y-63106318D01*
X36776956Y-62865000D01*
X72423044Y-62865000D01*
X72446812Y-63106318D01*
X72517202Y-63338363D01*
X72631509Y-63552216D01*
X72785340Y-63739660D01*
X72972784Y-63893491D01*
X73186637Y-64007798D01*
X73418682Y-64078188D01*
X73599528Y-64096000D01*
X73720472Y-64096000D01*
X73901318Y-64078188D01*
X74133363Y-64007798D01*
X74347216Y-63893491D01*
X74534660Y-63739660D01*
X74688491Y-63552216D01*
X74802798Y-63338363D01*
X74873188Y-63106318D01*
X74896956Y-62865000D01*
X74963044Y-62865000D01*
X74986812Y-63106318D01*
X75057202Y-63338363D01*
X75171509Y-63552216D01*
X75325340Y-63739660D01*
X75512784Y-63893491D01*
X75726637Y-64007798D01*
X75958682Y-64078188D01*
X76139528Y-64096000D01*
X76260472Y-64096000D01*
X76441318Y-64078188D01*
X76673363Y-64007798D01*
X76887216Y-63893491D01*
X77074660Y-63739660D01*
X77228491Y-63552216D01*
X77342798Y-63338363D01*
X77413188Y-63106318D01*
X77436956Y-62865000D01*
X77413188Y-62623682D01*
X77342798Y-62391637D01*
X77228491Y-62177784D01*
X77074660Y-61990340D01*
X76887216Y-61836509D01*
X76673363Y-61722202D01*
X76441318Y-61651812D01*
X76260472Y-61634000D01*
X76139528Y-61634000D01*
X75958682Y-61651812D01*
X75726637Y-61722202D01*
X75512784Y-61836509D01*
X75325340Y-61990340D01*
X75171509Y-62177784D01*
X75057202Y-62391637D01*
X74986812Y-62623682D01*
X74963044Y-62865000D01*
X74896956Y-62865000D01*
X74873188Y-62623682D01*
X74802798Y-62391637D01*
X74688491Y-62177784D01*
X74534660Y-61990340D01*
X74347216Y-61836509D01*
X74133363Y-61722202D01*
X73901318Y-61651812D01*
X73720472Y-61634000D01*
X73599528Y-61634000D01*
X73418682Y-61651812D01*
X73186637Y-61722202D01*
X72972784Y-61836509D01*
X72785340Y-61990340D01*
X72631509Y-62177784D01*
X72517202Y-62391637D01*
X72446812Y-62623682D01*
X72423044Y-62865000D01*
X36776956Y-62865000D01*
X36753188Y-62623682D01*
X36682798Y-62391637D01*
X36568491Y-62177784D01*
X36414660Y-61990340D01*
X36227216Y-61836509D01*
X36013363Y-61722202D01*
X35781318Y-61651812D01*
X35600472Y-61634000D01*
X35479528Y-61634000D01*
X35298682Y-61651812D01*
X35066637Y-61722202D01*
X34852784Y-61836509D01*
X34665340Y-61990340D01*
X34511509Y-62177784D01*
X34397202Y-62391637D01*
X34326812Y-62623682D01*
X34303044Y-62865000D01*
X31546000Y-62865000D01*
X31546000Y-62540787D01*
X31764842Y-62540787D01*
X31836662Y-62738000D01*
X32873000Y-62738000D01*
X32873000Y-61701075D01*
X33127000Y-61701075D01*
X33127000Y-62738000D01*
X34163338Y-62738000D01*
X34235158Y-62540787D01*
X34207125Y-62448354D01*
X34102647Y-62220861D01*
X33955795Y-62018122D01*
X33772212Y-61847928D01*
X33558953Y-61716820D01*
X33324214Y-61629836D01*
X33127000Y-61701075D01*
X32873000Y-61701075D01*
X32675786Y-61629836D01*
X32441047Y-61716820D01*
X32227788Y-61847928D01*
X32044205Y-62018122D01*
X31897353Y-62220861D01*
X31792875Y-62448354D01*
X31764842Y-62540787D01*
X31546000Y-62540787D01*
X31546000Y-60325000D01*
X31763044Y-60325000D01*
X31786812Y-60566318D01*
X31857202Y-60798363D01*
X31971509Y-61012216D01*
X32125340Y-61199660D01*
X32312784Y-61353491D01*
X32526637Y-61467798D01*
X32758682Y-61538188D01*
X32939528Y-61556000D01*
X33060472Y-61556000D01*
X33241318Y-61538188D01*
X33473363Y-61467798D01*
X33687216Y-61353491D01*
X33874660Y-61199660D01*
X34028491Y-61012216D01*
X34142798Y-60798363D01*
X34213188Y-60566318D01*
X34236956Y-60325000D01*
X34213188Y-60083682D01*
X34142798Y-59851637D01*
X34028491Y-59637784D01*
X33874660Y-59450340D01*
X33687216Y-59296509D01*
X33473363Y-59182202D01*
X33241318Y-59111812D01*
X33060472Y-59094000D01*
X32939528Y-59094000D01*
X32758682Y-59111812D01*
X32526637Y-59182202D01*
X32312784Y-59296509D01*
X32125340Y-59450340D01*
X31971509Y-59637784D01*
X31857202Y-59851637D01*
X31786812Y-60083682D01*
X31763044Y-60325000D01*
X31546000Y-60325000D01*
X31546000Y-57785000D01*
X31763044Y-57785000D01*
X31786812Y-58026318D01*
X31857202Y-58258363D01*
X31971509Y-58472216D01*
X32125340Y-58659660D01*
X32312784Y-58813491D01*
X32526637Y-58927798D01*
X32758682Y-58998188D01*
X32939528Y-59016000D01*
X33060472Y-59016000D01*
X33241318Y-58998188D01*
X33473363Y-58927798D01*
X33687216Y-58813491D01*
X33874660Y-58659660D01*
X34028491Y-58472216D01*
X34142798Y-58258363D01*
X34188042Y-58109213D01*
X34304842Y-58109213D01*
X34332875Y-58201646D01*
X34437353Y-58429139D01*
X34584205Y-58631878D01*
X34767788Y-58802072D01*
X34981047Y-58933180D01*
X35215786Y-59020164D01*
X35413000Y-58948925D01*
X35413000Y-57912000D01*
X35667000Y-57912000D01*
X35667000Y-58948925D01*
X35864214Y-59020164D01*
X36098953Y-58933180D01*
X36312212Y-58802072D01*
X36495795Y-58631878D01*
X36642647Y-58429139D01*
X36747125Y-58201646D01*
X36775158Y-58109213D01*
X36703338Y-57912000D01*
X35667000Y-57912000D01*
X35413000Y-57912000D01*
X34376662Y-57912000D01*
X34304842Y-58109213D01*
X34188042Y-58109213D01*
X34213188Y-58026318D01*
X34236956Y-57785000D01*
X34213188Y-57543682D01*
X34188043Y-57460787D01*
X34304842Y-57460787D01*
X34376662Y-57658000D01*
X35413000Y-57658000D01*
X35413000Y-56621075D01*
X35215786Y-56549836D01*
X34981047Y-56636820D01*
X34767788Y-56767928D01*
X34584205Y-56938122D01*
X34437353Y-57140861D01*
X34332875Y-57368354D01*
X34304842Y-57460787D01*
X34188043Y-57460787D01*
X34142798Y-57311637D01*
X34028491Y-57097784D01*
X33874660Y-56910340D01*
X33687216Y-56756509D01*
X33473363Y-56642202D01*
X33241318Y-56571812D01*
X33060472Y-56554000D01*
X32939528Y-56554000D01*
X32758682Y-56571812D01*
X32526637Y-56642202D01*
X32312784Y-56756509D01*
X32125340Y-56910340D01*
X31971509Y-57097784D01*
X31857202Y-57311637D01*
X31786812Y-57543682D01*
X31763044Y-57785000D01*
X31546000Y-57785000D01*
X31546000Y-55245000D01*
X31763044Y-55245000D01*
X31786812Y-55486318D01*
X31857202Y-55718363D01*
X31971509Y-55932216D01*
X32125340Y-56119660D01*
X32312784Y-56273491D01*
X32526637Y-56387798D01*
X32758682Y-56458188D01*
X32939528Y-56476000D01*
X33060472Y-56476000D01*
X33241318Y-56458188D01*
X33473363Y-56387798D01*
X33687216Y-56273491D01*
X33874660Y-56119660D01*
X34028491Y-55932216D01*
X34142798Y-55718363D01*
X34213188Y-55486318D01*
X34236956Y-55245000D01*
X34303044Y-55245000D01*
X34326812Y-55486318D01*
X34397202Y-55718363D01*
X34511509Y-55932216D01*
X34665340Y-56119660D01*
X34852784Y-56273491D01*
X35066637Y-56387798D01*
X35298682Y-56458188D01*
X35479528Y-56476000D01*
X35600472Y-56476000D01*
X35781318Y-56458188D01*
X35911915Y-56418572D01*
X36179971Y-56686628D01*
X36098953Y-56636820D01*
X35864214Y-56549836D01*
X35667000Y-56621075D01*
X35667000Y-57658000D01*
X36703338Y-57658000D01*
X36775158Y-57460787D01*
X36747125Y-57368354D01*
X36649818Y-57156476D01*
X36884000Y-57390658D01*
X36884000Y-57813539D01*
X36884001Y-57813549D01*
X36884000Y-59801499D01*
X36858358Y-59827141D01*
X36772887Y-59955058D01*
X36738993Y-60036886D01*
X36682798Y-59851637D01*
X36568491Y-59637784D01*
X36414660Y-59450340D01*
X36227216Y-59296509D01*
X36013363Y-59182202D01*
X35781318Y-59111812D01*
X35600472Y-59094000D01*
X35479528Y-59094000D01*
X35298682Y-59111812D01*
X35066637Y-59182202D01*
X34852784Y-59296509D01*
X34665340Y-59450340D01*
X34511509Y-59637784D01*
X34397202Y-59851637D01*
X34326812Y-60083682D01*
X34303044Y-60325000D01*
X34326812Y-60566318D01*
X34397202Y-60798363D01*
X34511509Y-61012216D01*
X34665340Y-61199660D01*
X34852784Y-61353491D01*
X35066637Y-61467798D01*
X35298682Y-61538188D01*
X35479528Y-61556000D01*
X35600472Y-61556000D01*
X35781318Y-61538188D01*
X36013363Y-61467798D01*
X36227216Y-61353491D01*
X36414660Y-61199660D01*
X36568491Y-61012216D01*
X36682798Y-60798363D01*
X36738993Y-60613114D01*
X36772887Y-60694942D01*
X36858358Y-60822859D01*
X36967141Y-60931642D01*
X37095058Y-61017113D01*
X37237191Y-61075987D01*
X37388078Y-61106000D01*
X37541922Y-61106000D01*
X37692809Y-61075987D01*
X37834942Y-61017113D01*
X37962859Y-60931642D01*
X38071642Y-60822859D01*
X38157113Y-60694942D01*
X38215987Y-60552809D01*
X38246000Y-60401922D01*
X38246000Y-60248078D01*
X38215987Y-60097191D01*
X38157113Y-59955058D01*
X38071642Y-59827141D01*
X38046000Y-59801499D01*
X38046000Y-59475000D01*
X72427157Y-59475000D01*
X72427157Y-61175000D01*
X72434513Y-61249689D01*
X72456299Y-61321508D01*
X72491678Y-61387696D01*
X72539289Y-61445711D01*
X72597304Y-61493322D01*
X72663492Y-61528701D01*
X72735311Y-61550487D01*
X72810000Y-61557843D01*
X74510000Y-61557843D01*
X74584689Y-61550487D01*
X74656508Y-61528701D01*
X74722696Y-61493322D01*
X74780711Y-61445711D01*
X74828322Y-61387696D01*
X74863701Y-61321508D01*
X74885487Y-61249689D01*
X74892843Y-61175000D01*
X74892843Y-60325000D01*
X74963044Y-60325000D01*
X74986812Y-60566318D01*
X75057202Y-60798363D01*
X75171509Y-61012216D01*
X75325340Y-61199660D01*
X75512784Y-61353491D01*
X75726637Y-61467798D01*
X75958682Y-61538188D01*
X76139528Y-61556000D01*
X76260472Y-61556000D01*
X76441318Y-61538188D01*
X76673363Y-61467798D01*
X76887216Y-61353491D01*
X77074660Y-61199660D01*
X77228491Y-61012216D01*
X77342798Y-60798363D01*
X77413188Y-60566318D01*
X77436956Y-60325000D01*
X77413188Y-60083682D01*
X77342798Y-59851637D01*
X77228491Y-59637784D01*
X77074660Y-59450340D01*
X76887216Y-59296509D01*
X76673363Y-59182202D01*
X76441318Y-59111812D01*
X76260472Y-59094000D01*
X76139528Y-59094000D01*
X75958682Y-59111812D01*
X75726637Y-59182202D01*
X75512784Y-59296509D01*
X75325340Y-59450340D01*
X75171509Y-59637784D01*
X75057202Y-59851637D01*
X74986812Y-60083682D01*
X74963044Y-60325000D01*
X74892843Y-60325000D01*
X74892843Y-59475000D01*
X74885487Y-59400311D01*
X74863701Y-59328492D01*
X74828322Y-59262304D01*
X74780711Y-59204289D01*
X74722696Y-59156678D01*
X74656508Y-59121299D01*
X74584689Y-59099513D01*
X74510000Y-59092157D01*
X72810000Y-59092157D01*
X72735311Y-59099513D01*
X72663492Y-59121299D01*
X72597304Y-59156678D01*
X72539289Y-59204289D01*
X72491678Y-59262304D01*
X72456299Y-59328492D01*
X72434513Y-59400311D01*
X72427157Y-59475000D01*
X38046000Y-59475000D01*
X38046000Y-57178540D01*
X38048811Y-57150000D01*
X38037593Y-57036104D01*
X38004371Y-56926585D01*
X37950421Y-56825652D01*
X37877817Y-56737183D01*
X37855645Y-56718987D01*
X36722882Y-55586224D01*
X36753188Y-55486318D01*
X36776956Y-55245000D01*
X36753188Y-55003682D01*
X36682798Y-54771637D01*
X36568491Y-54557784D01*
X36414660Y-54370340D01*
X36227216Y-54216509D01*
X36013363Y-54102202D01*
X35781318Y-54031812D01*
X35600472Y-54014000D01*
X35479528Y-54014000D01*
X35298682Y-54031812D01*
X35066637Y-54102202D01*
X34852784Y-54216509D01*
X34665340Y-54370340D01*
X34511509Y-54557784D01*
X34397202Y-54771637D01*
X34326812Y-55003682D01*
X34303044Y-55245000D01*
X34236956Y-55245000D01*
X34213188Y-55003682D01*
X34142798Y-54771637D01*
X34028491Y-54557784D01*
X33874660Y-54370340D01*
X33687216Y-54216509D01*
X33473363Y-54102202D01*
X33241318Y-54031812D01*
X33060472Y-54014000D01*
X32939528Y-54014000D01*
X32758682Y-54031812D01*
X32526637Y-54102202D01*
X32312784Y-54216509D01*
X32125340Y-54370340D01*
X31971509Y-54557784D01*
X31857202Y-54771637D01*
X31786812Y-55003682D01*
X31763044Y-55245000D01*
X31546000Y-55245000D01*
X31546000Y-51855000D01*
X31767157Y-51855000D01*
X31767157Y-53555000D01*
X31774513Y-53629689D01*
X31796299Y-53701508D01*
X31831678Y-53767696D01*
X31879289Y-53825711D01*
X31937304Y-53873322D01*
X32003492Y-53908701D01*
X32075311Y-53930487D01*
X32150000Y-53937843D01*
X33850000Y-53937843D01*
X33924689Y-53930487D01*
X33996508Y-53908701D01*
X34062696Y-53873322D01*
X34120711Y-53825711D01*
X34168322Y-53767696D01*
X34203701Y-53701508D01*
X34225487Y-53629689D01*
X34232843Y-53555000D01*
X34232843Y-52705000D01*
X34303044Y-52705000D01*
X34326812Y-52946318D01*
X34397202Y-53178363D01*
X34511509Y-53392216D01*
X34665340Y-53579660D01*
X34852784Y-53733491D01*
X35066637Y-53847798D01*
X35298682Y-53918188D01*
X35479528Y-53936000D01*
X35600472Y-53936000D01*
X35781318Y-53918188D01*
X36013363Y-53847798D01*
X36227216Y-53733491D01*
X36242687Y-53720794D01*
X38059000Y-53720794D01*
X38059000Y-54229206D01*
X38158187Y-54727850D01*
X38352748Y-55197562D01*
X38635207Y-55620291D01*
X38994709Y-55979793D01*
X39417438Y-56262252D01*
X39887150Y-56456813D01*
X40385794Y-56556000D01*
X40894206Y-56556000D01*
X41392850Y-56456813D01*
X41862562Y-56262252D01*
X42285291Y-55979793D01*
X42644793Y-55620291D01*
X42927252Y-55197562D01*
X43121813Y-54727850D01*
X43221000Y-54229206D01*
X43221000Y-53720794D01*
X72349000Y-53720794D01*
X72349000Y-54229206D01*
X72448187Y-54727850D01*
X72642748Y-55197562D01*
X72925207Y-55620291D01*
X73284709Y-55979793D01*
X73707438Y-56262252D01*
X74177150Y-56456813D01*
X74675794Y-56556000D01*
X75184206Y-56556000D01*
X75682850Y-56456813D01*
X76152562Y-56262252D01*
X76575291Y-55979793D01*
X76934793Y-55620291D01*
X77217252Y-55197562D01*
X77411813Y-54727850D01*
X77511000Y-54229206D01*
X77511000Y-53720794D01*
X77411813Y-53222150D01*
X77217252Y-52752438D01*
X76934793Y-52329709D01*
X76575291Y-51970207D01*
X76152562Y-51687748D01*
X75682850Y-51493187D01*
X75184206Y-51394000D01*
X74675794Y-51394000D01*
X74177150Y-51493187D01*
X73707438Y-51687748D01*
X73284709Y-51970207D01*
X72925207Y-52329709D01*
X72642748Y-52752438D01*
X72448187Y-53222150D01*
X72349000Y-53720794D01*
X43221000Y-53720794D01*
X43121813Y-53222150D01*
X42927252Y-52752438D01*
X42644793Y-52329709D01*
X42285291Y-51970207D01*
X41862562Y-51687748D01*
X41392850Y-51493187D01*
X40894206Y-51394000D01*
X40385794Y-51394000D01*
X39887150Y-51493187D01*
X39417438Y-51687748D01*
X38994709Y-51970207D01*
X38635207Y-52329709D01*
X38352748Y-52752438D01*
X38158187Y-53222150D01*
X38059000Y-53720794D01*
X36242687Y-53720794D01*
X36414660Y-53579660D01*
X36568491Y-53392216D01*
X36682798Y-53178363D01*
X36753188Y-52946318D01*
X36776956Y-52705000D01*
X36753188Y-52463682D01*
X36682798Y-52231637D01*
X36568491Y-52017784D01*
X36414660Y-51830340D01*
X36227216Y-51676509D01*
X36013363Y-51562202D01*
X35781318Y-51491812D01*
X35600472Y-51474000D01*
X35479528Y-51474000D01*
X35298682Y-51491812D01*
X35066637Y-51562202D01*
X34852784Y-51676509D01*
X34665340Y-51830340D01*
X34511509Y-52017784D01*
X34397202Y-52231637D01*
X34326812Y-52463682D01*
X34303044Y-52705000D01*
X34232843Y-52705000D01*
X34232843Y-51855000D01*
X34225487Y-51780311D01*
X34203701Y-51708492D01*
X34168322Y-51642304D01*
X34120711Y-51584289D01*
X34062696Y-51536678D01*
X33996508Y-51501299D01*
X33924689Y-51479513D01*
X33850000Y-51472157D01*
X32150000Y-51472157D01*
X32075311Y-51479513D01*
X32003492Y-51501299D01*
X31937304Y-51536678D01*
X31879289Y-51584289D01*
X31831678Y-51642304D01*
X31796299Y-51708492D01*
X31774513Y-51780311D01*
X31767157Y-51855000D01*
X31546000Y-51855000D01*
X31546000Y-51231000D01*
X78309001Y-51231000D01*
X78309000Y-102439000D01*
M02*
