%FSLAX45Y45*%
G04 Gerber Fmt 4.5, Leading zero omitted, Abs format (unit mm)*
G04 Created by KiCad (PCBNEW (5.0.1)-3) date 20.12.2018 13:20:38*
%MOMM*%
%LPD*%
G01*
G04 APERTURE LIST*
%ADD10C,0.100000*%
%ADD11C,0.200000*%
%ADD12C,0.300000*%
G04 APERTURE END LIST*
D10*
X7874000Y-10287000D02*
X7874000Y-5080000D01*
X3111500Y-10287000D02*
X7874000Y-10287000D01*
X3111500Y-5080000D02*
X3111500Y-10287000D01*
X7874000Y-5080000D02*
X3111500Y-5080000D01*
D11*
X7415800Y-8088500D02*
X7475800Y-8148500D01*
X7475800Y-8088500D02*
X7415800Y-8148500D01*
X7415800Y-8488500D02*
X7475800Y-8548500D01*
X7475800Y-8488500D02*
X7415800Y-8548500D01*
D12*
X3392928Y-10757714D02*
X3392928Y-10457714D01*
X3464357Y-10457714D01*
X3507214Y-10472000D01*
X3535786Y-10500572D01*
X3550071Y-10529143D01*
X3564357Y-10586286D01*
X3564357Y-10629143D01*
X3550071Y-10686286D01*
X3535786Y-10714857D01*
X3507214Y-10743429D01*
X3464357Y-10757714D01*
X3392928Y-10757714D01*
X3692928Y-10757714D02*
X3692928Y-10557714D01*
X3692928Y-10614857D02*
X3707214Y-10586286D01*
X3721500Y-10572000D01*
X3750071Y-10557714D01*
X3778643Y-10557714D01*
X3878643Y-10757714D02*
X3878643Y-10557714D01*
X3878643Y-10457714D02*
X3864357Y-10472000D01*
X3878643Y-10486286D01*
X3892928Y-10472000D01*
X3878643Y-10457714D01*
X3878643Y-10486286D01*
X4064357Y-10757714D02*
X4035786Y-10743429D01*
X4021500Y-10714857D01*
X4021500Y-10457714D01*
X4221500Y-10757714D02*
X4192928Y-10743429D01*
X4178643Y-10714857D01*
X4178643Y-10457714D01*
X4564357Y-10757714D02*
X4564357Y-10457714D01*
X4664357Y-10672000D01*
X4764357Y-10457714D01*
X4764357Y-10757714D01*
X5035786Y-10757714D02*
X5035786Y-10600572D01*
X5021500Y-10572000D01*
X4992928Y-10557714D01*
X4935786Y-10557714D01*
X4907214Y-10572000D01*
X5035786Y-10743429D02*
X5007214Y-10757714D01*
X4935786Y-10757714D01*
X4907214Y-10743429D01*
X4892928Y-10714857D01*
X4892928Y-10686286D01*
X4907214Y-10657714D01*
X4935786Y-10643429D01*
X5007214Y-10643429D01*
X5035786Y-10629143D01*
X5178643Y-10557714D02*
X5178643Y-10857714D01*
X5178643Y-10572000D02*
X5207214Y-10557714D01*
X5264357Y-10557714D01*
X5292928Y-10572000D01*
X5307214Y-10586286D01*
X5321500Y-10614857D01*
X5321500Y-10700572D01*
X5307214Y-10729143D01*
X5292928Y-10743429D01*
X5264357Y-10757714D01*
X5207214Y-10757714D01*
X5178643Y-10743429D01*
X5450071Y-10729143D02*
X5464357Y-10743429D01*
X5450071Y-10757714D01*
X5435786Y-10743429D01*
X5450071Y-10729143D01*
X5450071Y-10757714D01*
X5450071Y-10572000D02*
X5464357Y-10586286D01*
X5450071Y-10600572D01*
X5435786Y-10586286D01*
X5450071Y-10572000D01*
X5450071Y-10600572D01*
X3046500Y-11222000D02*
X3106500Y-11282000D01*
X3106500Y-11222000D02*
X3046500Y-11282000D01*
X3450071Y-11087714D02*
X3478643Y-11087714D01*
X3507214Y-11102000D01*
X3521500Y-11116286D01*
X3535786Y-11144857D01*
X3550071Y-11202000D01*
X3550071Y-11273429D01*
X3535786Y-11330571D01*
X3521500Y-11359143D01*
X3507214Y-11373429D01*
X3478643Y-11387714D01*
X3450071Y-11387714D01*
X3421500Y-11373429D01*
X3407214Y-11359143D01*
X3392928Y-11330571D01*
X3378643Y-11273429D01*
X3378643Y-11202000D01*
X3392928Y-11144857D01*
X3407214Y-11116286D01*
X3421500Y-11102000D01*
X3450071Y-11087714D01*
X3678643Y-11359143D02*
X3692928Y-11373429D01*
X3678643Y-11387714D01*
X3664357Y-11373429D01*
X3678643Y-11359143D01*
X3678643Y-11387714D01*
X3950071Y-11087714D02*
X3892928Y-11087714D01*
X3864357Y-11102000D01*
X3850071Y-11116286D01*
X3821500Y-11159143D01*
X3807214Y-11216286D01*
X3807214Y-11330571D01*
X3821500Y-11359143D01*
X3835786Y-11373429D01*
X3864357Y-11387714D01*
X3921500Y-11387714D01*
X3950071Y-11373429D01*
X3964357Y-11359143D01*
X3978643Y-11330571D01*
X3978643Y-11259143D01*
X3964357Y-11230571D01*
X3950071Y-11216286D01*
X3921500Y-11202000D01*
X3864357Y-11202000D01*
X3835786Y-11216286D01*
X3821500Y-11230571D01*
X3807214Y-11259143D01*
X4164357Y-11087714D02*
X4192928Y-11087714D01*
X4221500Y-11102000D01*
X4235786Y-11116286D01*
X4250071Y-11144857D01*
X4264357Y-11202000D01*
X4264357Y-11273429D01*
X4250071Y-11330571D01*
X4235786Y-11359143D01*
X4221500Y-11373429D01*
X4192928Y-11387714D01*
X4164357Y-11387714D01*
X4135786Y-11373429D01*
X4121500Y-11359143D01*
X4107214Y-11330571D01*
X4092928Y-11273429D01*
X4092928Y-11202000D01*
X4107214Y-11144857D01*
X4121500Y-11116286D01*
X4135786Y-11102000D01*
X4164357Y-11087714D01*
X4392928Y-11387714D02*
X4392928Y-11187714D01*
X4392928Y-11216286D02*
X4407214Y-11202000D01*
X4435786Y-11187714D01*
X4478643Y-11187714D01*
X4507214Y-11202000D01*
X4521500Y-11230571D01*
X4521500Y-11387714D01*
X4521500Y-11230571D02*
X4535786Y-11202000D01*
X4564357Y-11187714D01*
X4607214Y-11187714D01*
X4635786Y-11202000D01*
X4650071Y-11230571D01*
X4650071Y-11387714D01*
X4792928Y-11387714D02*
X4792928Y-11187714D01*
X4792928Y-11216286D02*
X4807214Y-11202000D01*
X4835786Y-11187714D01*
X4878643Y-11187714D01*
X4907214Y-11202000D01*
X4921500Y-11230571D01*
X4921500Y-11387714D01*
X4921500Y-11230571D02*
X4935786Y-11202000D01*
X4964357Y-11187714D01*
X5007214Y-11187714D01*
X5035786Y-11202000D01*
X5050071Y-11230571D01*
X5050071Y-11387714D01*
X5635786Y-11073429D02*
X5378643Y-11459143D01*
X6021500Y-11087714D02*
X6050071Y-11087714D01*
X6078643Y-11102000D01*
X6092928Y-11116286D01*
X6107214Y-11144857D01*
X6121500Y-11202000D01*
X6121500Y-11273429D01*
X6107214Y-11330571D01*
X6092928Y-11359143D01*
X6078643Y-11373429D01*
X6050071Y-11387714D01*
X6021500Y-11387714D01*
X5992928Y-11373429D01*
X5978643Y-11359143D01*
X5964357Y-11330571D01*
X5950071Y-11273429D01*
X5950071Y-11202000D01*
X5964357Y-11144857D01*
X5978643Y-11116286D01*
X5992928Y-11102000D01*
X6021500Y-11087714D01*
X6250071Y-11359143D02*
X6264357Y-11373429D01*
X6250071Y-11387714D01*
X6235786Y-11373429D01*
X6250071Y-11359143D01*
X6250071Y-11387714D01*
X6450071Y-11087714D02*
X6478643Y-11087714D01*
X6507214Y-11102000D01*
X6521500Y-11116286D01*
X6535786Y-11144857D01*
X6550071Y-11202000D01*
X6550071Y-11273429D01*
X6535786Y-11330571D01*
X6521500Y-11359143D01*
X6507214Y-11373429D01*
X6478643Y-11387714D01*
X6450071Y-11387714D01*
X6421500Y-11373429D01*
X6407214Y-11359143D01*
X6392928Y-11330571D01*
X6378643Y-11273429D01*
X6378643Y-11202000D01*
X6392928Y-11144857D01*
X6407214Y-11116286D01*
X6421500Y-11102000D01*
X6450071Y-11087714D01*
X6664357Y-11116286D02*
X6678643Y-11102000D01*
X6707214Y-11087714D01*
X6778643Y-11087714D01*
X6807214Y-11102000D01*
X6821500Y-11116286D01*
X6835786Y-11144857D01*
X6835786Y-11173429D01*
X6821500Y-11216286D01*
X6650071Y-11387714D01*
X6835786Y-11387714D01*
X7092928Y-11187714D02*
X7092928Y-11387714D01*
X7021500Y-11073429D02*
X6950071Y-11287714D01*
X7135786Y-11287714D01*
X7235786Y-11087714D02*
X7235786Y-11144857D01*
X7350071Y-11087714D02*
X7350071Y-11144857D01*
X7792928Y-11502000D02*
X7778643Y-11487714D01*
X7750071Y-11444857D01*
X7735786Y-11416286D01*
X7721500Y-11373429D01*
X7707214Y-11302000D01*
X7707214Y-11244857D01*
X7721500Y-11173429D01*
X7735786Y-11130572D01*
X7750071Y-11102000D01*
X7778643Y-11059143D01*
X7792928Y-11044857D01*
X7892928Y-11116286D02*
X7907214Y-11102000D01*
X7935786Y-11087714D01*
X8007214Y-11087714D01*
X8035786Y-11102000D01*
X8050071Y-11116286D01*
X8064357Y-11144857D01*
X8064357Y-11173429D01*
X8050071Y-11216286D01*
X7878643Y-11387714D01*
X8064357Y-11387714D01*
X8421500Y-11387714D02*
X8421500Y-11087714D01*
X8550071Y-11387714D02*
X8550071Y-11230571D01*
X8535786Y-11202000D01*
X8507214Y-11187714D01*
X8464357Y-11187714D01*
X8435786Y-11202000D01*
X8421500Y-11216286D01*
X8735786Y-11387714D02*
X8707214Y-11373429D01*
X8692928Y-11359143D01*
X8678643Y-11330571D01*
X8678643Y-11244857D01*
X8692928Y-11216286D01*
X8707214Y-11202000D01*
X8735786Y-11187714D01*
X8778643Y-11187714D01*
X8807214Y-11202000D01*
X8821500Y-11216286D01*
X8835786Y-11244857D01*
X8835786Y-11330571D01*
X8821500Y-11359143D01*
X8807214Y-11373429D01*
X8778643Y-11387714D01*
X8735786Y-11387714D01*
X9007214Y-11387714D02*
X8978643Y-11373429D01*
X8964357Y-11344857D01*
X8964357Y-11087714D01*
X9235786Y-11373429D02*
X9207214Y-11387714D01*
X9150071Y-11387714D01*
X9121500Y-11373429D01*
X9107214Y-11344857D01*
X9107214Y-11230571D01*
X9121500Y-11202000D01*
X9150071Y-11187714D01*
X9207214Y-11187714D01*
X9235786Y-11202000D01*
X9250071Y-11230571D01*
X9250071Y-11259143D01*
X9107214Y-11287714D01*
X9364357Y-11373429D02*
X9392928Y-11387714D01*
X9450071Y-11387714D01*
X9478643Y-11373429D01*
X9492928Y-11344857D01*
X9492928Y-11330571D01*
X9478643Y-11302000D01*
X9450071Y-11287714D01*
X9407214Y-11287714D01*
X9378643Y-11273429D01*
X9364357Y-11244857D01*
X9364357Y-11230571D01*
X9378643Y-11202000D01*
X9407214Y-11187714D01*
X9450071Y-11187714D01*
X9478643Y-11202000D01*
X9592928Y-11502000D02*
X9607214Y-11487714D01*
X9635786Y-11444857D01*
X9650071Y-11416286D01*
X9664357Y-11373429D01*
X9678643Y-11302000D01*
X9678643Y-11244857D01*
X9664357Y-11173429D01*
X9650071Y-11130572D01*
X9635786Y-11102000D01*
X9607214Y-11059143D01*
X9592928Y-11044857D01*
X10135786Y-11502000D02*
X10121500Y-11487714D01*
X10092928Y-11444857D01*
X10078643Y-11416286D01*
X10064357Y-11373429D01*
X10050071Y-11302000D01*
X10050071Y-11244857D01*
X10064357Y-11173429D01*
X10078643Y-11130572D01*
X10092928Y-11102000D01*
X10121500Y-11059143D01*
X10135786Y-11044857D01*
X10250071Y-11187714D02*
X10250071Y-11387714D01*
X10250071Y-11216286D02*
X10264357Y-11202000D01*
X10292928Y-11187714D01*
X10335786Y-11187714D01*
X10364357Y-11202000D01*
X10378643Y-11230571D01*
X10378643Y-11387714D01*
X10564357Y-11387714D02*
X10535786Y-11373429D01*
X10521500Y-11359143D01*
X10507214Y-11330571D01*
X10507214Y-11244857D01*
X10521500Y-11216286D01*
X10535786Y-11202000D01*
X10564357Y-11187714D01*
X10607214Y-11187714D01*
X10635786Y-11202000D01*
X10650071Y-11216286D01*
X10664357Y-11244857D01*
X10664357Y-11330571D01*
X10650071Y-11359143D01*
X10635786Y-11373429D01*
X10607214Y-11387714D01*
X10564357Y-11387714D01*
X10750071Y-11187714D02*
X10864357Y-11187714D01*
X10792928Y-11087714D02*
X10792928Y-11344857D01*
X10807214Y-11373429D01*
X10835786Y-11387714D01*
X10864357Y-11387714D01*
X11192928Y-11187714D02*
X11192928Y-11487714D01*
X11192928Y-11202000D02*
X11221500Y-11187714D01*
X11278643Y-11187714D01*
X11307214Y-11202000D01*
X11321500Y-11216286D01*
X11335786Y-11244857D01*
X11335786Y-11330571D01*
X11321500Y-11359143D01*
X11307214Y-11373429D01*
X11278643Y-11387714D01*
X11221500Y-11387714D01*
X11192928Y-11373429D01*
X11507214Y-11387714D02*
X11478643Y-11373429D01*
X11464357Y-11344857D01*
X11464357Y-11087714D01*
X11750071Y-11387714D02*
X11750071Y-11230571D01*
X11735786Y-11202000D01*
X11707214Y-11187714D01*
X11650071Y-11187714D01*
X11621500Y-11202000D01*
X11750071Y-11373429D02*
X11721500Y-11387714D01*
X11650071Y-11387714D01*
X11621500Y-11373429D01*
X11607214Y-11344857D01*
X11607214Y-11316286D01*
X11621500Y-11287714D01*
X11650071Y-11273429D01*
X11721500Y-11273429D01*
X11750071Y-11259143D01*
X11850071Y-11187714D02*
X11964357Y-11187714D01*
X11892928Y-11087714D02*
X11892928Y-11344857D01*
X11907214Y-11373429D01*
X11935786Y-11387714D01*
X11964357Y-11387714D01*
X12178643Y-11373429D02*
X12150071Y-11387714D01*
X12092928Y-11387714D01*
X12064357Y-11373429D01*
X12050071Y-11344857D01*
X12050071Y-11230571D01*
X12064357Y-11202000D01*
X12092928Y-11187714D01*
X12150071Y-11187714D01*
X12178643Y-11202000D01*
X12192928Y-11230571D01*
X12192928Y-11259143D01*
X12050071Y-11287714D01*
X12450071Y-11387714D02*
X12450071Y-11087714D01*
X12450071Y-11373429D02*
X12421500Y-11387714D01*
X12364357Y-11387714D01*
X12335786Y-11373429D01*
X12321500Y-11359143D01*
X12307214Y-11330571D01*
X12307214Y-11244857D01*
X12321500Y-11216286D01*
X12335786Y-11202000D01*
X12364357Y-11187714D01*
X12421500Y-11187714D01*
X12450071Y-11202000D01*
X12564357Y-11502000D02*
X12578643Y-11487714D01*
X12607214Y-11444857D01*
X12621500Y-11416286D01*
X12635786Y-11373429D01*
X12650071Y-11302000D01*
X12650071Y-11244857D01*
X12635786Y-11173429D01*
X12621500Y-11130572D01*
X12607214Y-11102000D01*
X12578643Y-11059143D01*
X12564357Y-11044857D01*
M02*
