%FSLAX45Y45*%
G04 Gerber Fmt 4.5, Leading zero omitted, Abs format (unit mm)*
G04 Created by KiCad (PCBNEW 4.0.7) date 08/08/18 17:07:15*
%MOMM*%
%LPD*%
G01*
G04 APERTURE LIST*
%ADD10C,0.127000*%
%ADD11C,0.150000*%
%ADD12C,0.200000*%
%ADD13C,0.300000*%
G04 APERTURE END LIST*
D10*
D11*
X16510000Y-12319000D02*
X16510000Y-12446000D01*
X16383000Y-12319000D02*
X16510000Y-12319000D01*
X16510000Y-10731500D02*
X16510000Y-10604500D01*
X16383000Y-10731500D02*
X16510000Y-10731500D01*
X11938000Y-9652000D02*
X12001500Y-9652000D01*
X11938000Y-9779000D02*
X11938000Y-9652000D01*
X11938000Y-8890000D02*
X12001500Y-8890000D01*
X11938000Y-8763000D02*
X11938000Y-8890000D01*
X11938000Y-9779000D02*
X11938000Y-13017500D01*
X12128500Y-9017000D02*
X12128500Y-9525000D01*
X11938000Y-8509000D02*
X11938000Y-8763000D01*
X16510000Y-13081000D02*
X16510000Y-12446000D01*
X16510000Y-10604500D02*
X16510000Y-8509000D01*
X16383000Y-10731500D02*
G75*
G03X16256000Y-10858500I0J-127000D01*
G01*
X16256000Y-12192000D02*
G75*
G03X16383000Y-12319000I127000J0D01*
G01*
X16256000Y-10858500D02*
X16256000Y-12192000D01*
X11938000Y-8509000D02*
X16510000Y-8509000D01*
X12001500Y-9652000D02*
G75*
G03X12128500Y-9525000I0J127000D01*
G01*
X12128500Y-9017000D02*
G75*
G03X12001500Y-8890000I-127000J0D01*
G01*
X16510000Y-13081000D02*
X11938000Y-13081000D01*
X11938000Y-13017500D02*
X11938000Y-13081000D01*
D12*
X12434500Y-9196000D02*
X12584500Y-9346000D01*
X12584500Y-9196000D02*
X12434500Y-9346000D01*
X12434500Y-12244000D02*
X12584500Y-12394000D01*
X12584500Y-12244000D02*
X12434500Y-12394000D01*
X12688500Y-9196000D02*
X12838500Y-9346000D01*
X12838500Y-9196000D02*
X12688500Y-9346000D01*
X12688500Y-12244000D02*
X12838500Y-12394000D01*
X12838500Y-12244000D02*
X12688500Y-12394000D01*
X14847500Y-10974000D02*
X14997500Y-11124000D01*
X14997500Y-10974000D02*
X14847500Y-11124000D01*
X15101500Y-10974000D02*
X15251500Y-11124000D01*
X15251500Y-10974000D02*
X15101500Y-11124000D01*
D13*
X12201928Y-13554214D02*
X12201928Y-13254214D01*
X12273357Y-13254214D01*
X12316214Y-13268500D01*
X12344786Y-13297071D01*
X12359071Y-13325643D01*
X12373357Y-13382786D01*
X12373357Y-13425643D01*
X12359071Y-13482786D01*
X12344786Y-13511357D01*
X12316214Y-13539929D01*
X12273357Y-13554214D01*
X12201928Y-13554214D01*
X12501928Y-13554214D02*
X12501928Y-13354214D01*
X12501928Y-13411357D02*
X12516214Y-13382786D01*
X12530500Y-13368500D01*
X12559071Y-13354214D01*
X12587643Y-13354214D01*
X12687643Y-13554214D02*
X12687643Y-13354214D01*
X12687643Y-13254214D02*
X12673357Y-13268500D01*
X12687643Y-13282786D01*
X12701928Y-13268500D01*
X12687643Y-13254214D01*
X12687643Y-13282786D01*
X12873357Y-13554214D02*
X12844786Y-13539929D01*
X12830500Y-13511357D01*
X12830500Y-13254214D01*
X13030500Y-13554214D02*
X13001928Y-13539929D01*
X12987643Y-13511357D01*
X12987643Y-13254214D01*
X13373357Y-13554214D02*
X13373357Y-13254214D01*
X13473357Y-13468500D01*
X13573357Y-13254214D01*
X13573357Y-13554214D01*
X13844786Y-13554214D02*
X13844786Y-13397071D01*
X13830500Y-13368500D01*
X13801928Y-13354214D01*
X13744786Y-13354214D01*
X13716214Y-13368500D01*
X13844786Y-13539929D02*
X13816214Y-13554214D01*
X13744786Y-13554214D01*
X13716214Y-13539929D01*
X13701928Y-13511357D01*
X13701928Y-13482786D01*
X13716214Y-13454214D01*
X13744786Y-13439929D01*
X13816214Y-13439929D01*
X13844786Y-13425643D01*
X13987643Y-13354214D02*
X13987643Y-13654214D01*
X13987643Y-13368500D02*
X14016214Y-13354214D01*
X14073357Y-13354214D01*
X14101928Y-13368500D01*
X14116214Y-13382786D01*
X14130500Y-13411357D01*
X14130500Y-13497071D01*
X14116214Y-13525643D01*
X14101928Y-13539929D01*
X14073357Y-13554214D01*
X14016214Y-13554214D01*
X13987643Y-13539929D01*
X14259071Y-13525643D02*
X14273357Y-13539929D01*
X14259071Y-13554214D01*
X14244786Y-13539929D01*
X14259071Y-13525643D01*
X14259071Y-13554214D01*
X14259071Y-13368500D02*
X14273357Y-13382786D01*
X14259071Y-13397071D01*
X14244786Y-13382786D01*
X14259071Y-13368500D01*
X14259071Y-13397071D01*
X11780500Y-13973500D02*
X11930500Y-14123500D01*
X11930500Y-13973500D02*
X11780500Y-14123500D01*
X12359071Y-14184214D02*
X12187643Y-14184214D01*
X12273357Y-14184214D02*
X12273357Y-13884214D01*
X12244786Y-13927071D01*
X12216214Y-13955643D01*
X12187643Y-13969929D01*
X12487643Y-14155643D02*
X12501928Y-14169929D01*
X12487643Y-14184214D01*
X12473357Y-14169929D01*
X12487643Y-14155643D01*
X12487643Y-14184214D01*
X12773357Y-13884214D02*
X12630500Y-13884214D01*
X12616214Y-14027071D01*
X12630500Y-14012786D01*
X12659071Y-13998500D01*
X12730500Y-13998500D01*
X12759071Y-14012786D01*
X12773357Y-14027071D01*
X12787643Y-14055643D01*
X12787643Y-14127071D01*
X12773357Y-14155643D01*
X12759071Y-14169929D01*
X12730500Y-14184214D01*
X12659071Y-14184214D01*
X12630500Y-14169929D01*
X12616214Y-14155643D01*
X12973357Y-13884214D02*
X13001928Y-13884214D01*
X13030500Y-13898500D01*
X13044786Y-13912786D01*
X13059071Y-13941357D01*
X13073357Y-13998500D01*
X13073357Y-14069929D01*
X13059071Y-14127071D01*
X13044786Y-14155643D01*
X13030500Y-14169929D01*
X13001928Y-14184214D01*
X12973357Y-14184214D01*
X12944786Y-14169929D01*
X12930500Y-14155643D01*
X12916214Y-14127071D01*
X12901928Y-14069929D01*
X12901928Y-13998500D01*
X12916214Y-13941357D01*
X12930500Y-13912786D01*
X12944786Y-13898500D01*
X12973357Y-13884214D01*
X13201928Y-14184214D02*
X13201928Y-13984214D01*
X13201928Y-14012786D02*
X13216214Y-13998500D01*
X13244786Y-13984214D01*
X13287643Y-13984214D01*
X13316214Y-13998500D01*
X13330500Y-14027071D01*
X13330500Y-14184214D01*
X13330500Y-14027071D02*
X13344786Y-13998500D01*
X13373357Y-13984214D01*
X13416214Y-13984214D01*
X13444786Y-13998500D01*
X13459071Y-14027071D01*
X13459071Y-14184214D01*
X13601928Y-14184214D02*
X13601928Y-13984214D01*
X13601928Y-14012786D02*
X13616214Y-13998500D01*
X13644786Y-13984214D01*
X13687643Y-13984214D01*
X13716214Y-13998500D01*
X13730500Y-14027071D01*
X13730500Y-14184214D01*
X13730500Y-14027071D02*
X13744786Y-13998500D01*
X13773357Y-13984214D01*
X13816214Y-13984214D01*
X13844786Y-13998500D01*
X13859071Y-14027071D01*
X13859071Y-14184214D01*
X14444786Y-13869929D02*
X14187643Y-14255643D01*
X14830500Y-13884214D02*
X14859071Y-13884214D01*
X14887643Y-13898500D01*
X14901928Y-13912786D01*
X14916214Y-13941357D01*
X14930500Y-13998500D01*
X14930500Y-14069929D01*
X14916214Y-14127071D01*
X14901928Y-14155643D01*
X14887643Y-14169929D01*
X14859071Y-14184214D01*
X14830500Y-14184214D01*
X14801928Y-14169929D01*
X14787643Y-14155643D01*
X14773357Y-14127071D01*
X14759071Y-14069929D01*
X14759071Y-13998500D01*
X14773357Y-13941357D01*
X14787643Y-13912786D01*
X14801928Y-13898500D01*
X14830500Y-13884214D01*
X15059071Y-14155643D02*
X15073357Y-14169929D01*
X15059071Y-14184214D01*
X15044786Y-14169929D01*
X15059071Y-14155643D01*
X15059071Y-14184214D01*
X15259071Y-13884214D02*
X15287643Y-13884214D01*
X15316214Y-13898500D01*
X15330500Y-13912786D01*
X15344785Y-13941357D01*
X15359071Y-13998500D01*
X15359071Y-14069929D01*
X15344785Y-14127071D01*
X15330500Y-14155643D01*
X15316214Y-14169929D01*
X15287643Y-14184214D01*
X15259071Y-14184214D01*
X15230500Y-14169929D01*
X15216214Y-14155643D01*
X15201928Y-14127071D01*
X15187643Y-14069929D01*
X15187643Y-13998500D01*
X15201928Y-13941357D01*
X15216214Y-13912786D01*
X15230500Y-13898500D01*
X15259071Y-13884214D01*
X15630500Y-13884214D02*
X15487643Y-13884214D01*
X15473357Y-14027071D01*
X15487643Y-14012786D01*
X15516214Y-13998500D01*
X15587643Y-13998500D01*
X15616214Y-14012786D01*
X15630500Y-14027071D01*
X15644785Y-14055643D01*
X15644785Y-14127071D01*
X15630500Y-14155643D01*
X15616214Y-14169929D01*
X15587643Y-14184214D01*
X15516214Y-14184214D01*
X15487643Y-14169929D01*
X15473357Y-14155643D01*
X15787643Y-14184214D02*
X15844785Y-14184214D01*
X15873357Y-14169929D01*
X15887643Y-14155643D01*
X15916214Y-14112786D01*
X15930500Y-14055643D01*
X15930500Y-13941357D01*
X15916214Y-13912786D01*
X15901928Y-13898500D01*
X15873357Y-13884214D01*
X15816214Y-13884214D01*
X15787643Y-13898500D01*
X15773357Y-13912786D01*
X15759071Y-13941357D01*
X15759071Y-14012786D01*
X15773357Y-14041357D01*
X15787643Y-14055643D01*
X15816214Y-14069929D01*
X15873357Y-14069929D01*
X15901928Y-14055643D01*
X15916214Y-14041357D01*
X15930500Y-14012786D01*
X16044786Y-13884214D02*
X16044786Y-13941357D01*
X16159071Y-13884214D02*
X16159071Y-13941357D01*
X16601928Y-14298500D02*
X16587643Y-14284214D01*
X16559071Y-14241357D01*
X16544785Y-14212786D01*
X16530500Y-14169929D01*
X16516214Y-14098500D01*
X16516214Y-14041357D01*
X16530500Y-13969929D01*
X16544785Y-13927071D01*
X16559071Y-13898500D01*
X16587643Y-13855643D01*
X16601928Y-13841357D01*
X16844786Y-13884214D02*
X16787643Y-13884214D01*
X16759071Y-13898500D01*
X16744785Y-13912786D01*
X16716214Y-13955643D01*
X16701928Y-14012786D01*
X16701928Y-14127071D01*
X16716214Y-14155643D01*
X16730500Y-14169929D01*
X16759071Y-14184214D01*
X16816214Y-14184214D01*
X16844786Y-14169929D01*
X16859071Y-14155643D01*
X16873357Y-14127071D01*
X16873357Y-14055643D01*
X16859071Y-14027071D01*
X16844786Y-14012786D01*
X16816214Y-13998500D01*
X16759071Y-13998500D01*
X16730500Y-14012786D01*
X16716214Y-14027071D01*
X16701928Y-14055643D01*
X17230500Y-14184214D02*
X17230500Y-13884214D01*
X17359071Y-14184214D02*
X17359071Y-14027071D01*
X17344786Y-13998500D01*
X17316214Y-13984214D01*
X17273357Y-13984214D01*
X17244786Y-13998500D01*
X17230500Y-14012786D01*
X17544786Y-14184214D02*
X17516214Y-14169929D01*
X17501928Y-14155643D01*
X17487643Y-14127071D01*
X17487643Y-14041357D01*
X17501928Y-14012786D01*
X17516214Y-13998500D01*
X17544786Y-13984214D01*
X17587643Y-13984214D01*
X17616214Y-13998500D01*
X17630500Y-14012786D01*
X17644786Y-14041357D01*
X17644786Y-14127071D01*
X17630500Y-14155643D01*
X17616214Y-14169929D01*
X17587643Y-14184214D01*
X17544786Y-14184214D01*
X17816214Y-14184214D02*
X17787643Y-14169929D01*
X17773357Y-14141357D01*
X17773357Y-13884214D01*
X18044786Y-14169929D02*
X18016214Y-14184214D01*
X17959071Y-14184214D01*
X17930500Y-14169929D01*
X17916214Y-14141357D01*
X17916214Y-14027071D01*
X17930500Y-13998500D01*
X17959071Y-13984214D01*
X18016214Y-13984214D01*
X18044786Y-13998500D01*
X18059071Y-14027071D01*
X18059071Y-14055643D01*
X17916214Y-14084214D01*
X18173357Y-14169929D02*
X18201929Y-14184214D01*
X18259071Y-14184214D01*
X18287643Y-14169929D01*
X18301929Y-14141357D01*
X18301929Y-14127071D01*
X18287643Y-14098500D01*
X18259071Y-14084214D01*
X18216214Y-14084214D01*
X18187643Y-14069929D01*
X18173357Y-14041357D01*
X18173357Y-14027071D01*
X18187643Y-13998500D01*
X18216214Y-13984214D01*
X18259071Y-13984214D01*
X18287643Y-13998500D01*
X18401928Y-14298500D02*
X18416214Y-14284214D01*
X18444786Y-14241357D01*
X18459071Y-14212786D01*
X18473357Y-14169929D01*
X18487643Y-14098500D01*
X18487643Y-14041357D01*
X18473357Y-13969929D01*
X18459071Y-13927071D01*
X18444786Y-13898500D01*
X18416214Y-13855643D01*
X18401928Y-13841357D01*
X18944786Y-14298500D02*
X18930500Y-14284214D01*
X18901928Y-14241357D01*
X18887643Y-14212786D01*
X18873357Y-14169929D01*
X18859071Y-14098500D01*
X18859071Y-14041357D01*
X18873357Y-13969929D01*
X18887643Y-13927071D01*
X18901928Y-13898500D01*
X18930500Y-13855643D01*
X18944786Y-13841357D01*
X19059071Y-13984214D02*
X19059071Y-14184214D01*
X19059071Y-14012786D02*
X19073357Y-13998500D01*
X19101928Y-13984214D01*
X19144786Y-13984214D01*
X19173357Y-13998500D01*
X19187643Y-14027071D01*
X19187643Y-14184214D01*
X19373357Y-14184214D02*
X19344786Y-14169929D01*
X19330500Y-14155643D01*
X19316214Y-14127071D01*
X19316214Y-14041357D01*
X19330500Y-14012786D01*
X19344786Y-13998500D01*
X19373357Y-13984214D01*
X19416214Y-13984214D01*
X19444786Y-13998500D01*
X19459071Y-14012786D01*
X19473357Y-14041357D01*
X19473357Y-14127071D01*
X19459071Y-14155643D01*
X19444786Y-14169929D01*
X19416214Y-14184214D01*
X19373357Y-14184214D01*
X19559071Y-13984214D02*
X19673357Y-13984214D01*
X19601929Y-13884214D02*
X19601929Y-14141357D01*
X19616214Y-14169929D01*
X19644786Y-14184214D01*
X19673357Y-14184214D01*
X20001929Y-13984214D02*
X20001929Y-14284214D01*
X20001929Y-13998500D02*
X20030500Y-13984214D01*
X20087643Y-13984214D01*
X20116214Y-13998500D01*
X20130500Y-14012786D01*
X20144786Y-14041357D01*
X20144786Y-14127071D01*
X20130500Y-14155643D01*
X20116214Y-14169929D01*
X20087643Y-14184214D01*
X20030500Y-14184214D01*
X20001929Y-14169929D01*
X20316214Y-14184214D02*
X20287643Y-14169929D01*
X20273357Y-14141357D01*
X20273357Y-13884214D01*
X20559071Y-14184214D02*
X20559071Y-14027071D01*
X20544786Y-13998500D01*
X20516214Y-13984214D01*
X20459071Y-13984214D01*
X20430500Y-13998500D01*
X20559071Y-14169929D02*
X20530500Y-14184214D01*
X20459071Y-14184214D01*
X20430500Y-14169929D01*
X20416214Y-14141357D01*
X20416214Y-14112786D01*
X20430500Y-14084214D01*
X20459071Y-14069929D01*
X20530500Y-14069929D01*
X20559071Y-14055643D01*
X20659071Y-13984214D02*
X20773357Y-13984214D01*
X20701929Y-13884214D02*
X20701929Y-14141357D01*
X20716214Y-14169929D01*
X20744786Y-14184214D01*
X20773357Y-14184214D01*
X20987643Y-14169929D02*
X20959072Y-14184214D01*
X20901929Y-14184214D01*
X20873357Y-14169929D01*
X20859072Y-14141357D01*
X20859072Y-14027071D01*
X20873357Y-13998500D01*
X20901929Y-13984214D01*
X20959072Y-13984214D01*
X20987643Y-13998500D01*
X21001929Y-14027071D01*
X21001929Y-14055643D01*
X20859072Y-14084214D01*
X21259072Y-14184214D02*
X21259072Y-13884214D01*
X21259072Y-14169929D02*
X21230500Y-14184214D01*
X21173357Y-14184214D01*
X21144786Y-14169929D01*
X21130500Y-14155643D01*
X21116214Y-14127071D01*
X21116214Y-14041357D01*
X21130500Y-14012786D01*
X21144786Y-13998500D01*
X21173357Y-13984214D01*
X21230500Y-13984214D01*
X21259072Y-13998500D01*
X21373357Y-14298500D02*
X21387643Y-14284214D01*
X21416214Y-14241357D01*
X21430500Y-14212786D01*
X21444786Y-14169929D01*
X21459072Y-14098500D01*
X21459072Y-14041357D01*
X21444786Y-13969929D01*
X21430500Y-13927071D01*
X21416214Y-13898500D01*
X21387643Y-13855643D01*
X21373357Y-13841357D01*
M02*
