M48
;DRILL file {KiCad 4.0.7} date 08/08/18 17:07:14
;FORMAT={-:-/ absolute / inch / decimal}
FMAT,2
INCH,TZ
T1C0.024
T2C0.031
T3C0.039
T4C0.043
T5C0.047
%
G90
G05
M72
T1
X5.075Y-4.125
X5.1341Y-4.125
X6.075Y-3.45
X6.075Y-3.5
X6.075Y-3.55
T2
X5.4516Y-3.4148
X5.4516Y-3.4935
X5.4516Y-3.5722
X5.4516Y-3.651
X5.4516Y-3.7297
X5.4516Y-3.8085
X5.4516Y-3.8872
X5.4516Y-3.9659
X6.025Y-3.675
X6.025Y-3.8
X6.2516Y-3.475
X6.35Y-3.475
X6.425Y-3.675
X6.425Y-3.8
T3
X5.25Y-4.25
X5.25Y-4.85
X5.35Y-4.25
X5.35Y-4.85
X5.45Y-4.25
X5.45Y-4.85
X5.55Y-4.25
X5.55Y-4.85
X5.65Y-4.25
X5.75Y-4.25
X5.85Y-4.25
X5.85Y-4.85
X5.9Y-4.75
X5.95Y-4.25
X5.95Y-4.85
X6.Y-4.75
X6.05Y-4.25
X6.05Y-4.85
X6.15Y-4.85
X6.25Y-4.85
X6.35Y-4.25
X6.35Y-4.85
T4
X4.875Y-4.275
X4.875Y-4.4522
X5.1309Y-4.275
X5.1309Y-4.4522
T5
X4.8Y-5.05
X4.9Y-5.05
X5.Y-5.05
X5.1Y-5.05
X5.3Y-5.05
X5.4Y-5.05
X5.5Y-5.05
X5.6Y-5.05
X5.7Y-3.475
X5.7Y-3.575
X5.7Y-3.675
X5.7Y-3.775
X5.7Y-3.875
X5.7Y-3.975
X5.7Y-4.075
X5.8Y-5.05
X5.9Y-3.475
X5.9Y-3.575
X5.9Y-3.675
X5.9Y-3.775
X5.9Y-3.975
X5.9Y-4.075
X5.9Y-5.05
X6.Y-5.05
X6.1Y-3.975
X6.1Y-4.075
X6.1Y-5.05
X6.3Y-3.975
X6.3Y-4.075
X6.3Y-5.05
X6.4Y-5.05
T0
M30
