G04 #@! TF.FileFunction,Soldermask,Top*
%FSLAX46Y46*%
G04 Gerber Fmt 4.6, Leading zero omitted, Abs format (unit mm)*
G04 Created by KiCad (PCBNEW 4.0.7) date 08/08/18 17:07:12*
%MOMM*%
%LPD*%
G01*
G04 APERTURE LIST*
%ADD10C,0.100000*%
%ADD11C,2.000000*%
%ADD12O,2.000000X2.000000*%
%ADD13C,2.200000*%
%ADD14C,1.900000*%
%ADD15R,2.400000X2.400000*%
%ADD16C,2.400000*%
%ADD17C,1.750000*%
%ADD18R,2.200000X1.750000*%
%ADD19R,3.000000X2.400000*%
%ADD20O,3.000000X2.400000*%
%ADD21O,1.900000X1.300000*%
%ADD22R,1.900000X1.300000*%
%ADD23R,1.600000X1.600000*%
%ADD24C,1.600000*%
%ADD25R,2.400000X3.000000*%
%ADD26O,2.400000X3.000000*%
G04 APERTURE END LIST*
D10*
D11*
X163195000Y-96520000D03*
D12*
X153035000Y-96520000D03*
D13*
X133350000Y-123190000D03*
X135890000Y-123190000D03*
X138430000Y-123190000D03*
X140970000Y-123190000D03*
X148590000Y-123190000D03*
X151130000Y-123190000D03*
X153670000Y-123190000D03*
X156210000Y-123190000D03*
X158750000Y-123190000D03*
X161290000Y-123190000D03*
X161290000Y-107950000D03*
X153670000Y-107950000D03*
X151130000Y-107950000D03*
X148590000Y-107950000D03*
X146050000Y-107950000D03*
X143510000Y-107950000D03*
X140970000Y-107950000D03*
X138430000Y-107950000D03*
X135890000Y-107950000D03*
X133350000Y-107950000D03*
X149860000Y-120650000D03*
X152400000Y-120650000D03*
D14*
X149225000Y-110490000D03*
X151765000Y-110490000D03*
X127635000Y-92710000D03*
X125095000Y-92710000D03*
X127635000Y-123190000D03*
X125095000Y-123190000D03*
D15*
X121920000Y-128270000D03*
D16*
X124460000Y-128270000D03*
X127000000Y-128270000D03*
X129540000Y-128270000D03*
D17*
X138470000Y-86735000D03*
D18*
X139470000Y-86735000D03*
D17*
X138470000Y-100735000D03*
X138470000Y-98735000D03*
X138470000Y-96735000D03*
X138470000Y-94735000D03*
X138470000Y-92735000D03*
X138470000Y-90735000D03*
X138470000Y-88735000D03*
D18*
X139470000Y-100735000D03*
X139470000Y-98735000D03*
X139470000Y-96735000D03*
X139470000Y-94735000D03*
X139470000Y-92735000D03*
X139470000Y-90735000D03*
X139470000Y-88735000D03*
D15*
X134620000Y-128270000D03*
D16*
X137160000Y-128270000D03*
X139700000Y-128270000D03*
X142240000Y-128270000D03*
D19*
X144780000Y-103505000D03*
D20*
X144780000Y-100965000D03*
X144780000Y-98425000D03*
X144780000Y-95885000D03*
X144780000Y-93345000D03*
X144780000Y-90805000D03*
X144780000Y-88265000D03*
D11*
X153035000Y-93345000D03*
D12*
X163195000Y-93345000D03*
D16*
X123825000Y-113085000D03*
X123825000Y-108585000D03*
X130325000Y-113085000D03*
X130325000Y-108585000D03*
D11*
X161290000Y-88265000D03*
X158790000Y-88265000D03*
D21*
X154305000Y-88900000D03*
X154305000Y-90170000D03*
D22*
X154305000Y-87630000D03*
D23*
X128905000Y-104775000D03*
D24*
X130405000Y-104775000D03*
D15*
X147320000Y-128270000D03*
D16*
X149860000Y-128270000D03*
X152400000Y-128270000D03*
X154940000Y-128270000D03*
D19*
X149860000Y-95885000D03*
D20*
X149860000Y-93345000D03*
X149860000Y-90805000D03*
X149860000Y-88265000D03*
D19*
X149860000Y-103505000D03*
D20*
X149860000Y-100965000D03*
D19*
X154940000Y-103505000D03*
D20*
X154940000Y-100965000D03*
D19*
X160020000Y-103505000D03*
D20*
X160020000Y-100965000D03*
D25*
X160020000Y-128270000D03*
D26*
X162560000Y-128270000D03*
M02*
