G04 #@! TF.FileFunction,Copper,L2,Bot,Signal*
%FSLAX46Y46*%
G04 Gerber Fmt 4.6, Leading zero omitted, Abs format (unit mm)*
G04 Created by KiCad (PCBNEW 4.0.7) date 08/08/18 17:07:12*
%MOMM*%
%LPD*%
G01*
G04 APERTURE LIST*
%ADD10C,0.100000*%
%ADD11C,1.600000*%
%ADD12O,1.600000X1.600000*%
%ADD13C,1.800000*%
%ADD14R,2.000000X2.000000*%
%ADD15C,2.000000*%
%ADD16C,1.350000*%
%ADD17R,2.600000X2.000000*%
%ADD18O,2.600000X2.000000*%
%ADD19O,1.500000X0.900000*%
%ADD20R,1.500000X0.900000*%
%ADD21R,1.200000X1.200000*%
%ADD22C,1.200000*%
%ADD23R,2.000000X2.600000*%
%ADD24O,2.000000X2.600000*%
%ADD25C,0.250000*%
%ADD26C,0.254000*%
G04 APERTURE END LIST*
D10*
D11*
X163195000Y-96520000D03*
D12*
X153035000Y-96520000D03*
D13*
X133350000Y-123190000D03*
X135890000Y-123190000D03*
X138430000Y-123190000D03*
X140970000Y-123190000D03*
X148590000Y-123190000D03*
X151130000Y-123190000D03*
X153670000Y-123190000D03*
X156210000Y-123190000D03*
X158750000Y-123190000D03*
X161290000Y-123190000D03*
X161290000Y-107950000D03*
X153670000Y-107950000D03*
X151130000Y-107950000D03*
X148590000Y-107950000D03*
X146050000Y-107950000D03*
X143510000Y-107950000D03*
X140970000Y-107950000D03*
X138430000Y-107950000D03*
X135890000Y-107950000D03*
X133350000Y-107950000D03*
X149860000Y-120650000D03*
X152400000Y-120650000D03*
D14*
X121920000Y-128270000D03*
D15*
X124460000Y-128270000D03*
X127000000Y-128270000D03*
X129540000Y-128270000D03*
D16*
X138470000Y-86735000D03*
X138470000Y-100735000D03*
X138470000Y-98735000D03*
X138470000Y-96735000D03*
X138470000Y-94735000D03*
X138470000Y-92735000D03*
X138470000Y-90735000D03*
X138470000Y-88735000D03*
D14*
X134620000Y-128270000D03*
D15*
X137160000Y-128270000D03*
X139700000Y-128270000D03*
X142240000Y-128270000D03*
D17*
X144780000Y-103505000D03*
D18*
X144780000Y-100965000D03*
X144780000Y-98425000D03*
X144780000Y-95885000D03*
X144780000Y-93345000D03*
X144780000Y-90805000D03*
X144780000Y-88265000D03*
D11*
X153035000Y-93345000D03*
D12*
X163195000Y-93345000D03*
D15*
X123825000Y-113085000D03*
X123825000Y-108585000D03*
X130325000Y-113085000D03*
X130325000Y-108585000D03*
D11*
X161290000Y-88265000D03*
X158790000Y-88265000D03*
D19*
X154305000Y-88900000D03*
X154305000Y-90170000D03*
D20*
X154305000Y-87630000D03*
D21*
X128905000Y-104775000D03*
D22*
X130405000Y-104775000D03*
D14*
X147320000Y-128270000D03*
D15*
X149860000Y-128270000D03*
X152400000Y-128270000D03*
X154940000Y-128270000D03*
D17*
X149860000Y-95885000D03*
D18*
X149860000Y-93345000D03*
X149860000Y-90805000D03*
X149860000Y-88265000D03*
D17*
X149860000Y-103505000D03*
D18*
X149860000Y-100965000D03*
D17*
X154940000Y-103505000D03*
D18*
X154940000Y-100965000D03*
D17*
X160020000Y-103505000D03*
D18*
X160020000Y-100965000D03*
D23*
X160020000Y-128270000D03*
D24*
X162560000Y-128270000D03*
D25*
X153035000Y-93345000D02*
X153710000Y-93345000D01*
X153710000Y-93345000D02*
X158790000Y-88265000D01*
D26*
G36*
X137360084Y-85991976D02*
X137160228Y-86473282D01*
X137159774Y-86994432D01*
X137358789Y-87476086D01*
X137617380Y-87735129D01*
X137360084Y-87991976D01*
X137160228Y-88473282D01*
X137159774Y-88994432D01*
X137358789Y-89476086D01*
X137617380Y-89735129D01*
X137360084Y-89991976D01*
X137160228Y-90473282D01*
X137159774Y-90994432D01*
X137358789Y-91476086D01*
X137617380Y-91735129D01*
X137360084Y-91991976D01*
X137160228Y-92473282D01*
X137159774Y-92994432D01*
X137358789Y-93476086D01*
X137617380Y-93735129D01*
X137360084Y-93991976D01*
X137160228Y-94473282D01*
X137159774Y-94994432D01*
X137358789Y-95476086D01*
X137617380Y-95735129D01*
X137360084Y-95991976D01*
X137160228Y-96473282D01*
X137159774Y-96994432D01*
X137358789Y-97476086D01*
X137726976Y-97844916D01*
X137782631Y-97868026D01*
X138470000Y-98555395D01*
X139156721Y-97868674D01*
X139211086Y-97846211D01*
X139579916Y-97478024D01*
X139779772Y-96996718D01*
X139780226Y-96475568D01*
X139581211Y-95993914D01*
X139322620Y-95734871D01*
X139579916Y-95478024D01*
X139779772Y-94996718D01*
X139780226Y-94475568D01*
X139581211Y-93993914D01*
X139322620Y-93734871D01*
X139579916Y-93478024D01*
X139779772Y-92996718D01*
X139780226Y-92475568D01*
X139581211Y-91993914D01*
X139322620Y-91734871D01*
X139579916Y-91478024D01*
X139779772Y-90996718D01*
X139780226Y-90475568D01*
X139581211Y-89993914D01*
X139322620Y-89734871D01*
X139579916Y-89478024D01*
X139779772Y-88996718D01*
X139780226Y-88475568D01*
X139693222Y-88265000D01*
X142807091Y-88265000D01*
X142931548Y-88890687D01*
X143285971Y-89421120D01*
X143456405Y-89535000D01*
X143285971Y-89648880D01*
X142931548Y-90179313D01*
X142807091Y-90805000D01*
X142931548Y-91430687D01*
X143285971Y-91961120D01*
X143456405Y-92075000D01*
X143285971Y-92188880D01*
X142931548Y-92719313D01*
X142807091Y-93345000D01*
X142931548Y-93970687D01*
X143285971Y-94501120D01*
X143456405Y-94615000D01*
X143285971Y-94728880D01*
X142931548Y-95259313D01*
X142807091Y-95885000D01*
X142931548Y-96510687D01*
X143285971Y-97041120D01*
X143456405Y-97155000D01*
X143285971Y-97268880D01*
X142931548Y-97799313D01*
X142807091Y-98425000D01*
X142931548Y-99050687D01*
X143285971Y-99581120D01*
X143476188Y-99708219D01*
X143234078Y-99898683D01*
X142920856Y-100456645D01*
X142889876Y-100584566D01*
X143009223Y-100838000D01*
X144653000Y-100838000D01*
X144653000Y-100818000D01*
X144907000Y-100818000D01*
X144907000Y-100838000D01*
X146550777Y-100838000D01*
X146670124Y-100584566D01*
X147969876Y-100584566D01*
X148089223Y-100838000D01*
X149733000Y-100838000D01*
X149733000Y-99330000D01*
X149987000Y-99330000D01*
X149987000Y-100838000D01*
X151630777Y-100838000D01*
X151750124Y-100584566D01*
X153049876Y-100584566D01*
X153169223Y-100838000D01*
X154813000Y-100838000D01*
X154813000Y-99330000D01*
X155067000Y-99330000D01*
X155067000Y-100838000D01*
X156710777Y-100838000D01*
X156830124Y-100584566D01*
X158129876Y-100584566D01*
X158249223Y-100838000D01*
X159893000Y-100838000D01*
X159893000Y-99330000D01*
X160147000Y-99330000D01*
X160147000Y-100838000D01*
X161790777Y-100838000D01*
X161910124Y-100584566D01*
X161879144Y-100456645D01*
X161565922Y-99898683D01*
X161063020Y-99503058D01*
X160447000Y-99330000D01*
X160147000Y-99330000D01*
X159893000Y-99330000D01*
X159593000Y-99330000D01*
X158976980Y-99503058D01*
X158474078Y-99898683D01*
X158160856Y-100456645D01*
X158129876Y-100584566D01*
X156830124Y-100584566D01*
X156799144Y-100456645D01*
X156485922Y-99898683D01*
X155983020Y-99503058D01*
X155367000Y-99330000D01*
X155067000Y-99330000D01*
X154813000Y-99330000D01*
X154513000Y-99330000D01*
X153896980Y-99503058D01*
X153394078Y-99898683D01*
X153080856Y-100456645D01*
X153049876Y-100584566D01*
X151750124Y-100584566D01*
X151719144Y-100456645D01*
X151405922Y-99898683D01*
X150903020Y-99503058D01*
X150287000Y-99330000D01*
X149987000Y-99330000D01*
X149733000Y-99330000D01*
X149433000Y-99330000D01*
X148816980Y-99503058D01*
X148314078Y-99898683D01*
X148000856Y-100456645D01*
X147969876Y-100584566D01*
X146670124Y-100584566D01*
X146639144Y-100456645D01*
X146325922Y-99898683D01*
X146083812Y-99708219D01*
X146274029Y-99581120D01*
X146628452Y-99050687D01*
X146752909Y-98425000D01*
X146628452Y-97799313D01*
X146274029Y-97268880D01*
X146103595Y-97155000D01*
X146274029Y-97041120D01*
X146628452Y-96510687D01*
X146752909Y-95885000D01*
X146628452Y-95259313D01*
X146274029Y-94728880D01*
X146103595Y-94615000D01*
X146274029Y-94501120D01*
X146628452Y-93970687D01*
X146752909Y-93345000D01*
X146628452Y-92719313D01*
X146274029Y-92188880D01*
X146103595Y-92075000D01*
X146274029Y-91961120D01*
X146628452Y-91430687D01*
X146752909Y-90805000D01*
X147887091Y-90805000D01*
X148011548Y-91430687D01*
X148365971Y-91961120D01*
X148536405Y-92075000D01*
X148365971Y-92188880D01*
X148011548Y-92719313D01*
X147887091Y-93345000D01*
X148011548Y-93970687D01*
X148251093Y-94329192D01*
X148108559Y-94420910D01*
X147963569Y-94633110D01*
X147912560Y-94885000D01*
X147912560Y-96885000D01*
X147956838Y-97120317D01*
X148095910Y-97336441D01*
X148308110Y-97481431D01*
X148560000Y-97532440D01*
X151160000Y-97532440D01*
X151395317Y-97488162D01*
X151611441Y-97349090D01*
X151741239Y-97159125D01*
X151992189Y-97534698D01*
X152457736Y-97845767D01*
X153006887Y-97955000D01*
X153063113Y-97955000D01*
X153612264Y-97845767D01*
X154077811Y-97534698D01*
X154388880Y-97069151D01*
X154498113Y-96520000D01*
X154388880Y-95970849D01*
X154077811Y-95505302D01*
X153612264Y-95194233D01*
X153063113Y-95085000D01*
X153006887Y-95085000D01*
X152457736Y-95194233D01*
X151992189Y-95505302D01*
X151807440Y-95781798D01*
X151807440Y-94885000D01*
X151763162Y-94649683D01*
X151624090Y-94433559D01*
X151469671Y-94328049D01*
X151708452Y-93970687D01*
X151718982Y-93917747D01*
X151817757Y-94156800D01*
X152221077Y-94560824D01*
X152748309Y-94779750D01*
X153319187Y-94780248D01*
X153846800Y-94562243D01*
X154250824Y-94158923D01*
X154449611Y-93680191D01*
X158451546Y-89678256D01*
X158503309Y-89699750D01*
X159074187Y-89700248D01*
X159601800Y-89482243D01*
X160005824Y-89078923D01*
X160039813Y-88997069D01*
X160072757Y-89076800D01*
X160476077Y-89480824D01*
X161003309Y-89699750D01*
X161574187Y-89700248D01*
X162101800Y-89482243D01*
X162505824Y-89078923D01*
X162724750Y-88551691D01*
X162725248Y-87980813D01*
X162507243Y-87453200D01*
X162103923Y-87049176D01*
X161576691Y-86830250D01*
X161005813Y-86829752D01*
X160478200Y-87047757D01*
X160074176Y-87451077D01*
X160040187Y-87532931D01*
X160007243Y-87453200D01*
X159603923Y-87049176D01*
X159076691Y-86830250D01*
X158505813Y-86829752D01*
X157978200Y-87047757D01*
X157574176Y-87451077D01*
X157355250Y-87978309D01*
X157354752Y-88549187D01*
X157377049Y-88603149D01*
X155694026Y-90286172D01*
X155717134Y-90170000D01*
X155634543Y-89754788D01*
X155487685Y-89535000D01*
X155634543Y-89315212D01*
X155717134Y-88900000D01*
X155634543Y-88484788D01*
X155597570Y-88429454D01*
X155690000Y-88206309D01*
X155690000Y-87915750D01*
X155531250Y-87757000D01*
X154432000Y-87757000D01*
X154432000Y-87777000D01*
X154178000Y-87777000D01*
X154178000Y-87757000D01*
X153078750Y-87757000D01*
X152920000Y-87915750D01*
X152920000Y-88206309D01*
X153012430Y-88429454D01*
X152975457Y-88484788D01*
X152892866Y-88900000D01*
X152975457Y-89315212D01*
X153122315Y-89535000D01*
X152975457Y-89754788D01*
X152892866Y-90170000D01*
X152975457Y-90585212D01*
X153210655Y-90937211D01*
X153562654Y-91172409D01*
X153977866Y-91255000D01*
X154632134Y-91255000D01*
X154748306Y-91231892D01*
X153849972Y-92130226D01*
X153848923Y-92129176D01*
X153321691Y-91910250D01*
X152750813Y-91909752D01*
X152223200Y-92127757D01*
X151819176Y-92531077D01*
X151718998Y-92772332D01*
X151708452Y-92719313D01*
X151354029Y-92188880D01*
X151183595Y-92075000D01*
X151354029Y-91961120D01*
X151708452Y-91430687D01*
X151832909Y-90805000D01*
X151708452Y-90179313D01*
X151354029Y-89648880D01*
X151163812Y-89521781D01*
X151405922Y-89331317D01*
X151719144Y-88773355D01*
X151750124Y-88645434D01*
X151630777Y-88392000D01*
X149987000Y-88392000D01*
X149987000Y-88412000D01*
X149733000Y-88412000D01*
X149733000Y-88392000D01*
X148089223Y-88392000D01*
X147969876Y-88645434D01*
X148000856Y-88773355D01*
X148314078Y-89331317D01*
X148556188Y-89521781D01*
X148365971Y-89648880D01*
X148011548Y-90179313D01*
X147887091Y-90805000D01*
X146752909Y-90805000D01*
X146628452Y-90179313D01*
X146274029Y-89648880D01*
X146103595Y-89535000D01*
X146274029Y-89421120D01*
X146628452Y-88890687D01*
X146752909Y-88265000D01*
X146677236Y-87884566D01*
X147969876Y-87884566D01*
X148089223Y-88138000D01*
X149733000Y-88138000D01*
X149733000Y-86630000D01*
X149987000Y-86630000D01*
X149987000Y-88138000D01*
X151630777Y-88138000D01*
X151750124Y-87884566D01*
X151719144Y-87756645D01*
X151405922Y-87198683D01*
X151221615Y-87053691D01*
X152920000Y-87053691D01*
X152920000Y-87344250D01*
X153078750Y-87503000D01*
X154178000Y-87503000D01*
X154178000Y-86703750D01*
X154432000Y-86703750D01*
X154432000Y-87503000D01*
X155531250Y-87503000D01*
X155690000Y-87344250D01*
X155690000Y-87053691D01*
X155593327Y-86820302D01*
X155414699Y-86641673D01*
X155181310Y-86545000D01*
X154590750Y-86545000D01*
X154432000Y-86703750D01*
X154178000Y-86703750D01*
X154019250Y-86545000D01*
X153428690Y-86545000D01*
X153195301Y-86641673D01*
X153016673Y-86820302D01*
X152920000Y-87053691D01*
X151221615Y-87053691D01*
X150903020Y-86803058D01*
X150287000Y-86630000D01*
X149987000Y-86630000D01*
X149733000Y-86630000D01*
X149433000Y-86630000D01*
X148816980Y-86803058D01*
X148314078Y-87198683D01*
X148000856Y-87756645D01*
X147969876Y-87884566D01*
X146677236Y-87884566D01*
X146628452Y-87639313D01*
X146274029Y-87108880D01*
X145743596Y-86754457D01*
X145117909Y-86630000D01*
X144442091Y-86630000D01*
X143816404Y-86754457D01*
X143285971Y-87108880D01*
X142931548Y-87639313D01*
X142807091Y-88265000D01*
X139693222Y-88265000D01*
X139581211Y-87993914D01*
X139322620Y-87734871D01*
X139579916Y-87478024D01*
X139779772Y-86996718D01*
X139780226Y-86475568D01*
X139581211Y-85993914D01*
X139387635Y-85800000D01*
X164390000Y-85800000D01*
X164390000Y-92558069D01*
X164237811Y-92330302D01*
X163772264Y-92019233D01*
X163223113Y-91910000D01*
X163166887Y-91910000D01*
X162617736Y-92019233D01*
X162152189Y-92330302D01*
X161841120Y-92795849D01*
X161731887Y-93345000D01*
X161841120Y-93894151D01*
X162152189Y-94359698D01*
X162617736Y-94670767D01*
X163166887Y-94780000D01*
X163223113Y-94780000D01*
X163772264Y-94670767D01*
X164237811Y-94359698D01*
X164390000Y-94131931D01*
X164390000Y-95685918D01*
X164008923Y-95304176D01*
X163481691Y-95085250D01*
X162910813Y-95084752D01*
X162383200Y-95302757D01*
X161979176Y-95706077D01*
X161760250Y-96233309D01*
X161759752Y-96804187D01*
X161977757Y-97331800D01*
X162381077Y-97735824D01*
X162908309Y-97954750D01*
X163479187Y-97955248D01*
X164006800Y-97737243D01*
X164390000Y-97354711D01*
X164390000Y-106605000D01*
X163830000Y-106605000D01*
X163761413Y-106618643D01*
X163691485Y-106618643D01*
X163205478Y-106715315D01*
X163109671Y-106755000D01*
X162949537Y-106821329D01*
X162579225Y-107068764D01*
X162160643Y-106649449D01*
X161596670Y-106415267D01*
X160986009Y-106414735D01*
X160421629Y-106647932D01*
X159989449Y-107079357D01*
X159755267Y-107643330D01*
X159754735Y-108253991D01*
X159987932Y-108818371D01*
X160419357Y-109250551D01*
X160983330Y-109484733D01*
X161593991Y-109485265D01*
X161850000Y-109379484D01*
X161850000Y-121760459D01*
X161596670Y-121655267D01*
X160986009Y-121654735D01*
X160421629Y-121887932D01*
X159989449Y-122319357D01*
X159980797Y-122340194D01*
X159830159Y-122289446D01*
X158929605Y-123190000D01*
X159830159Y-124090554D01*
X159980327Y-124039965D01*
X159987932Y-124058371D01*
X160419357Y-124490551D01*
X160983330Y-124724733D01*
X161593991Y-124725265D01*
X162158371Y-124492068D01*
X162590551Y-124060643D01*
X162791055Y-123577776D01*
X162949537Y-123683671D01*
X163077508Y-123736678D01*
X163205478Y-123789685D01*
X163691485Y-123886357D01*
X163761413Y-123886357D01*
X163830000Y-123900000D01*
X164390000Y-123900000D01*
X164390000Y-130100000D01*
X163120271Y-130100000D01*
X163626317Y-129815922D01*
X164021942Y-129313020D01*
X164195000Y-128697000D01*
X164195000Y-128397000D01*
X162687000Y-128397000D01*
X162687000Y-128417000D01*
X162433000Y-128417000D01*
X162433000Y-128397000D01*
X162413000Y-128397000D01*
X162413000Y-128143000D01*
X162433000Y-128143000D01*
X162433000Y-126499223D01*
X162687000Y-126499223D01*
X162687000Y-128143000D01*
X164195000Y-128143000D01*
X164195000Y-127843000D01*
X164021942Y-127226980D01*
X163626317Y-126724078D01*
X163068355Y-126410856D01*
X162940434Y-126379876D01*
X162687000Y-126499223D01*
X162433000Y-126499223D01*
X162179566Y-126379876D01*
X162051645Y-126410856D01*
X161583789Y-126673495D01*
X161484090Y-126518559D01*
X161271890Y-126373569D01*
X161020000Y-126322560D01*
X159020000Y-126322560D01*
X158784683Y-126366838D01*
X158568559Y-126505910D01*
X158423569Y-126718110D01*
X158372560Y-126970000D01*
X158372560Y-129570000D01*
X158416838Y-129805317D01*
X158555910Y-130021441D01*
X158670885Y-130100000D01*
X120090000Y-130100000D01*
X120090000Y-127270000D01*
X120272560Y-127270000D01*
X120272560Y-129270000D01*
X120316838Y-129505317D01*
X120455910Y-129721441D01*
X120668110Y-129866431D01*
X120920000Y-129917440D01*
X122920000Y-129917440D01*
X123155317Y-129873162D01*
X123371441Y-129734090D01*
X123516431Y-129521890D01*
X123519042Y-129508998D01*
X123585736Y-129689387D01*
X124195461Y-129915908D01*
X124845460Y-129891856D01*
X125334264Y-129689387D01*
X125432927Y-129422532D01*
X124460000Y-128449605D01*
X124445858Y-128463748D01*
X124266253Y-128284143D01*
X124280395Y-128270000D01*
X124639605Y-128270000D01*
X125612532Y-129242927D01*
X125647938Y-129229836D01*
X126072637Y-129655278D01*
X126673352Y-129904716D01*
X127323795Y-129905284D01*
X127924943Y-129656894D01*
X128270199Y-129312241D01*
X128612637Y-129655278D01*
X129213352Y-129904716D01*
X129863795Y-129905284D01*
X130464943Y-129656894D01*
X130925278Y-129197363D01*
X131174716Y-128596648D01*
X131175284Y-127946205D01*
X130926894Y-127345057D01*
X130851969Y-127270000D01*
X132972560Y-127270000D01*
X132972560Y-129270000D01*
X133016838Y-129505317D01*
X133155910Y-129721441D01*
X133368110Y-129866431D01*
X133620000Y-129917440D01*
X135620000Y-129917440D01*
X135855317Y-129873162D01*
X136071441Y-129734090D01*
X136216431Y-129521890D01*
X136219042Y-129508998D01*
X136285736Y-129689387D01*
X136895461Y-129915908D01*
X137545460Y-129891856D01*
X138034264Y-129689387D01*
X138132927Y-129422532D01*
X137160000Y-128449605D01*
X137145858Y-128463748D01*
X136966253Y-128284143D01*
X136980395Y-128270000D01*
X137339605Y-128270000D01*
X138312532Y-129242927D01*
X138347938Y-129229836D01*
X138772637Y-129655278D01*
X139373352Y-129904716D01*
X140023795Y-129905284D01*
X140624943Y-129656894D01*
X140970199Y-129312241D01*
X141312637Y-129655278D01*
X141913352Y-129904716D01*
X142563795Y-129905284D01*
X143164943Y-129656894D01*
X143625278Y-129197363D01*
X143874716Y-128596648D01*
X143875284Y-127946205D01*
X143626894Y-127345057D01*
X143551969Y-127270000D01*
X145672560Y-127270000D01*
X145672560Y-129270000D01*
X145716838Y-129505317D01*
X145855910Y-129721441D01*
X146068110Y-129866431D01*
X146320000Y-129917440D01*
X148320000Y-129917440D01*
X148555317Y-129873162D01*
X148771441Y-129734090D01*
X148916431Y-129521890D01*
X148919042Y-129508998D01*
X148985736Y-129689387D01*
X149595461Y-129915908D01*
X150245460Y-129891856D01*
X150734264Y-129689387D01*
X150832927Y-129422532D01*
X149860000Y-128449605D01*
X149845858Y-128463748D01*
X149666253Y-128284143D01*
X149680395Y-128270000D01*
X150039605Y-128270000D01*
X151012532Y-129242927D01*
X151047938Y-129229836D01*
X151472637Y-129655278D01*
X152073352Y-129904716D01*
X152723795Y-129905284D01*
X153324943Y-129656894D01*
X153670199Y-129312241D01*
X154012637Y-129655278D01*
X154613352Y-129904716D01*
X155263795Y-129905284D01*
X155864943Y-129656894D01*
X156325278Y-129197363D01*
X156574716Y-128596648D01*
X156575284Y-127946205D01*
X156326894Y-127345057D01*
X155867363Y-126884722D01*
X155266648Y-126635284D01*
X154616205Y-126634716D01*
X154015057Y-126883106D01*
X153669801Y-127227759D01*
X153327363Y-126884722D01*
X152726648Y-126635284D01*
X152076205Y-126634716D01*
X151475057Y-126883106D01*
X151047438Y-127309978D01*
X151012532Y-127297073D01*
X150039605Y-128270000D01*
X149680395Y-128270000D01*
X149666253Y-128255858D01*
X149845858Y-128076253D01*
X149860000Y-128090395D01*
X150832927Y-127117468D01*
X150734264Y-126850613D01*
X150124539Y-126624092D01*
X149474540Y-126648144D01*
X148985736Y-126850613D01*
X148919681Y-127029273D01*
X148784090Y-126818559D01*
X148571890Y-126673569D01*
X148320000Y-126622560D01*
X146320000Y-126622560D01*
X146084683Y-126666838D01*
X145868559Y-126805910D01*
X145723569Y-127018110D01*
X145672560Y-127270000D01*
X143551969Y-127270000D01*
X143167363Y-126884722D01*
X142566648Y-126635284D01*
X141916205Y-126634716D01*
X141315057Y-126883106D01*
X140969801Y-127227759D01*
X140627363Y-126884722D01*
X140026648Y-126635284D01*
X139376205Y-126634716D01*
X138775057Y-126883106D01*
X138347438Y-127309978D01*
X138312532Y-127297073D01*
X137339605Y-128270000D01*
X136980395Y-128270000D01*
X136966253Y-128255858D01*
X137145858Y-128076253D01*
X137160000Y-128090395D01*
X138132927Y-127117468D01*
X138034264Y-126850613D01*
X137424539Y-126624092D01*
X136774540Y-126648144D01*
X136285736Y-126850613D01*
X136219681Y-127029273D01*
X136084090Y-126818559D01*
X135871890Y-126673569D01*
X135620000Y-126622560D01*
X133620000Y-126622560D01*
X133384683Y-126666838D01*
X133168559Y-126805910D01*
X133023569Y-127018110D01*
X132972560Y-127270000D01*
X130851969Y-127270000D01*
X130467363Y-126884722D01*
X129866648Y-126635284D01*
X129216205Y-126634716D01*
X128615057Y-126883106D01*
X128269801Y-127227759D01*
X127927363Y-126884722D01*
X127326648Y-126635284D01*
X126676205Y-126634716D01*
X126075057Y-126883106D01*
X125647438Y-127309978D01*
X125612532Y-127297073D01*
X124639605Y-128270000D01*
X124280395Y-128270000D01*
X124266253Y-128255858D01*
X124445858Y-128076253D01*
X124460000Y-128090395D01*
X125432927Y-127117468D01*
X125334264Y-126850613D01*
X124724539Y-126624092D01*
X124074540Y-126648144D01*
X123585736Y-126850613D01*
X123519681Y-127029273D01*
X123384090Y-126818559D01*
X123171890Y-126673569D01*
X122920000Y-126622560D01*
X120920000Y-126622560D01*
X120684683Y-126666838D01*
X120468559Y-126805910D01*
X120323569Y-127018110D01*
X120272560Y-127270000D01*
X120090000Y-127270000D01*
X120090000Y-123464285D01*
X123709760Y-123464285D01*
X123920169Y-123973515D01*
X124309436Y-124363461D01*
X124818298Y-124574759D01*
X125369285Y-124575240D01*
X125878515Y-124364831D01*
X126268461Y-123975564D01*
X126364976Y-123743130D01*
X126460169Y-123973515D01*
X126849436Y-124363461D01*
X127358298Y-124574759D01*
X127909285Y-124575240D01*
X128418515Y-124364831D01*
X128808461Y-123975564D01*
X129008427Y-123493991D01*
X131814735Y-123493991D01*
X132047932Y-124058371D01*
X132479357Y-124490551D01*
X133043330Y-124724733D01*
X133653991Y-124725265D01*
X134218371Y-124492068D01*
X134620323Y-124090818D01*
X135019357Y-124490551D01*
X135583330Y-124724733D01*
X136193991Y-124725265D01*
X136758371Y-124492068D01*
X137160323Y-124090818D01*
X137559357Y-124490551D01*
X138123330Y-124724733D01*
X138733991Y-124725265D01*
X139298371Y-124492068D01*
X139700323Y-124090818D01*
X140099357Y-124490551D01*
X140663330Y-124724733D01*
X141273991Y-124725265D01*
X141838371Y-124492068D01*
X142270551Y-124060643D01*
X142504733Y-123496670D01*
X142504735Y-123493991D01*
X147054735Y-123493991D01*
X147287932Y-124058371D01*
X147719357Y-124490551D01*
X148283330Y-124724733D01*
X148893991Y-124725265D01*
X149458371Y-124492068D01*
X149860323Y-124090818D01*
X150259357Y-124490551D01*
X150823330Y-124724733D01*
X151433991Y-124725265D01*
X151998371Y-124492068D01*
X152400323Y-124090818D01*
X152799357Y-124490551D01*
X153363330Y-124724733D01*
X153973991Y-124725265D01*
X154538371Y-124492068D01*
X154940323Y-124090818D01*
X155339357Y-124490551D01*
X155903330Y-124724733D01*
X156513991Y-124725265D01*
X157078371Y-124492068D01*
X157300668Y-124270159D01*
X157849446Y-124270159D01*
X157935852Y-124526643D01*
X158509336Y-124736458D01*
X159119460Y-124710839D01*
X159564148Y-124526643D01*
X159650554Y-124270159D01*
X158750000Y-123369605D01*
X157849446Y-124270159D01*
X157300668Y-124270159D01*
X157510551Y-124060643D01*
X157519203Y-124039806D01*
X157669841Y-124090554D01*
X158570395Y-123190000D01*
X157669841Y-122289446D01*
X157519673Y-122340035D01*
X157512068Y-122321629D01*
X157300650Y-122109841D01*
X157849446Y-122109841D01*
X158750000Y-123010395D01*
X159650554Y-122109841D01*
X159564148Y-121853357D01*
X158990664Y-121643542D01*
X158380540Y-121669161D01*
X157935852Y-121853357D01*
X157849446Y-122109841D01*
X157300650Y-122109841D01*
X157080643Y-121889449D01*
X156516670Y-121655267D01*
X155906009Y-121654735D01*
X155341629Y-121887932D01*
X154939677Y-122289182D01*
X154540643Y-121889449D01*
X153976670Y-121655267D01*
X153566050Y-121654909D01*
X153700551Y-121520643D01*
X153934733Y-120956670D01*
X153935265Y-120346009D01*
X153702068Y-119781629D01*
X153270643Y-119349449D01*
X152706670Y-119115267D01*
X152096009Y-119114735D01*
X151531629Y-119347932D01*
X151129677Y-119749182D01*
X150730643Y-119349449D01*
X150166670Y-119115267D01*
X149556009Y-119114735D01*
X148991629Y-119347932D01*
X148559449Y-119779357D01*
X148325267Y-120343330D01*
X148324735Y-120953991D01*
X148557932Y-121518371D01*
X148694413Y-121655091D01*
X148286009Y-121654735D01*
X147721629Y-121887932D01*
X147289449Y-122319357D01*
X147055267Y-122883330D01*
X147054735Y-123493991D01*
X142504735Y-123493991D01*
X142505265Y-122886009D01*
X142272068Y-122321629D01*
X141840643Y-121889449D01*
X141276670Y-121655267D01*
X140666009Y-121654735D01*
X140101629Y-121887932D01*
X139699677Y-122289182D01*
X139300643Y-121889449D01*
X138736670Y-121655267D01*
X138126009Y-121654735D01*
X137561629Y-121887932D01*
X137159677Y-122289182D01*
X136760643Y-121889449D01*
X136196670Y-121655267D01*
X135586009Y-121654735D01*
X135021629Y-121887932D01*
X134619677Y-122289182D01*
X134220643Y-121889449D01*
X133656670Y-121655267D01*
X133046009Y-121654735D01*
X132481629Y-121887932D01*
X132049449Y-122319357D01*
X131815267Y-122883330D01*
X131814735Y-123493991D01*
X129008427Y-123493991D01*
X129019759Y-123466702D01*
X129020240Y-122915715D01*
X128809831Y-122406485D01*
X128420564Y-122016539D01*
X127911702Y-121805241D01*
X127360715Y-121804760D01*
X126851485Y-122015169D01*
X126461539Y-122404436D01*
X126365024Y-122636870D01*
X126269831Y-122406485D01*
X125880564Y-122016539D01*
X125371702Y-121805241D01*
X124820715Y-121804760D01*
X124311485Y-122015169D01*
X123921539Y-122404436D01*
X123710241Y-122913298D01*
X123709760Y-123464285D01*
X120090000Y-123464285D01*
X120090000Y-114237532D01*
X122852073Y-114237532D01*
X122950736Y-114504387D01*
X123560461Y-114730908D01*
X124210460Y-114706856D01*
X124699264Y-114504387D01*
X124797927Y-114237532D01*
X129352073Y-114237532D01*
X129450736Y-114504387D01*
X130060461Y-114730908D01*
X130710460Y-114706856D01*
X131199264Y-114504387D01*
X131297927Y-114237532D01*
X130325000Y-113264605D01*
X129352073Y-114237532D01*
X124797927Y-114237532D01*
X123825000Y-113264605D01*
X122852073Y-114237532D01*
X120090000Y-114237532D01*
X120090000Y-112820461D01*
X122179092Y-112820461D01*
X122203144Y-113470460D01*
X122405613Y-113959264D01*
X122672468Y-114057927D01*
X123645395Y-113085000D01*
X124004605Y-113085000D01*
X124977532Y-114057927D01*
X125244387Y-113959264D01*
X125470908Y-113349539D01*
X125451331Y-112820461D01*
X128679092Y-112820461D01*
X128703144Y-113470460D01*
X128905613Y-113959264D01*
X129172468Y-114057927D01*
X130145395Y-113085000D01*
X130504605Y-113085000D01*
X131477532Y-114057927D01*
X131744387Y-113959264D01*
X131970908Y-113349539D01*
X131946856Y-112699540D01*
X131744387Y-112210736D01*
X131477532Y-112112073D01*
X130504605Y-113085000D01*
X130145395Y-113085000D01*
X129172468Y-112112073D01*
X128905613Y-112210736D01*
X128679092Y-112820461D01*
X125451331Y-112820461D01*
X125446856Y-112699540D01*
X125244387Y-112210736D01*
X124977532Y-112112073D01*
X124004605Y-113085000D01*
X123645395Y-113085000D01*
X122672468Y-112112073D01*
X122405613Y-112210736D01*
X122179092Y-112820461D01*
X120090000Y-112820461D01*
X120090000Y-111932468D01*
X122852073Y-111932468D01*
X123825000Y-112905395D01*
X124797927Y-111932468D01*
X129352073Y-111932468D01*
X130325000Y-112905395D01*
X131297927Y-111932468D01*
X131199264Y-111665613D01*
X130589539Y-111439092D01*
X129939540Y-111463144D01*
X129450736Y-111665613D01*
X129352073Y-111932468D01*
X124797927Y-111932468D01*
X124699264Y-111665613D01*
X124089539Y-111439092D01*
X123439540Y-111463144D01*
X122950736Y-111665613D01*
X122852073Y-111932468D01*
X120090000Y-111932468D01*
X120090000Y-108908795D01*
X122189716Y-108908795D01*
X122438106Y-109509943D01*
X122897637Y-109970278D01*
X123498352Y-110219716D01*
X124148795Y-110220284D01*
X124749943Y-109971894D01*
X125210278Y-109512363D01*
X125459716Y-108911648D01*
X125459718Y-108908795D01*
X128689716Y-108908795D01*
X128938106Y-109509943D01*
X129397637Y-109970278D01*
X129998352Y-110219716D01*
X130648795Y-110220284D01*
X131249943Y-109971894D01*
X131710278Y-109512363D01*
X131959716Y-108911648D01*
X131959983Y-108605519D01*
X132047932Y-108818371D01*
X132479357Y-109250551D01*
X133043330Y-109484733D01*
X133653991Y-109485265D01*
X134218371Y-109252068D01*
X134620323Y-108850818D01*
X135019357Y-109250551D01*
X135583330Y-109484733D01*
X136193991Y-109485265D01*
X136758371Y-109252068D01*
X137160323Y-108850818D01*
X137559357Y-109250551D01*
X138123330Y-109484733D01*
X138733991Y-109485265D01*
X139298371Y-109252068D01*
X139700323Y-108850818D01*
X140099357Y-109250551D01*
X140663330Y-109484733D01*
X141273991Y-109485265D01*
X141838371Y-109252068D01*
X142240323Y-108850818D01*
X142639357Y-109250551D01*
X143203330Y-109484733D01*
X143813991Y-109485265D01*
X144378371Y-109252068D01*
X144780323Y-108850818D01*
X145179357Y-109250551D01*
X145743330Y-109484733D01*
X146353991Y-109485265D01*
X146918371Y-109252068D01*
X147320323Y-108850818D01*
X147719357Y-109250551D01*
X148275064Y-109481301D01*
X148051539Y-109704436D01*
X147840241Y-110213298D01*
X147839760Y-110764285D01*
X148050169Y-111273515D01*
X148439436Y-111663461D01*
X148948298Y-111874759D01*
X149499285Y-111875240D01*
X150008515Y-111664831D01*
X150398461Y-111275564D01*
X150494976Y-111043130D01*
X150590169Y-111273515D01*
X150979436Y-111663461D01*
X151488298Y-111874759D01*
X152039285Y-111875240D01*
X152548515Y-111664831D01*
X152938461Y-111275564D01*
X153149759Y-110766702D01*
X153150240Y-110215715D01*
X152939831Y-109706485D01*
X152550564Y-109316539D01*
X152114976Y-109135667D01*
X152220668Y-109030159D01*
X152769446Y-109030159D01*
X152855852Y-109286643D01*
X153429336Y-109496458D01*
X154039460Y-109470839D01*
X154484148Y-109286643D01*
X154570554Y-109030159D01*
X153670000Y-108129605D01*
X152769446Y-109030159D01*
X152220668Y-109030159D01*
X152430551Y-108820643D01*
X152439203Y-108799806D01*
X152589841Y-108850554D01*
X153490395Y-107950000D01*
X153849605Y-107950000D01*
X154750159Y-108850554D01*
X155006643Y-108764148D01*
X155216458Y-108190664D01*
X155190839Y-107580540D01*
X155006643Y-107135852D01*
X154750159Y-107049446D01*
X153849605Y-107950000D01*
X153490395Y-107950000D01*
X152589841Y-107049446D01*
X152439673Y-107100035D01*
X152432068Y-107081629D01*
X152220650Y-106869841D01*
X152769446Y-106869841D01*
X153670000Y-107770395D01*
X154570554Y-106869841D01*
X154484148Y-106613357D01*
X153910664Y-106403542D01*
X153300540Y-106429161D01*
X152855852Y-106613357D01*
X152769446Y-106869841D01*
X152220650Y-106869841D01*
X152000643Y-106649449D01*
X151436670Y-106415267D01*
X150826009Y-106414735D01*
X150261629Y-106647932D01*
X149859677Y-107049182D01*
X149460643Y-106649449D01*
X148896670Y-106415267D01*
X148286009Y-106414735D01*
X147721629Y-106647932D01*
X147319677Y-107049182D01*
X146920643Y-106649449D01*
X146356670Y-106415267D01*
X145746009Y-106414735D01*
X145181629Y-106647932D01*
X144779677Y-107049182D01*
X144380643Y-106649449D01*
X143816670Y-106415267D01*
X143206009Y-106414735D01*
X142641629Y-106647932D01*
X142239677Y-107049182D01*
X141840643Y-106649449D01*
X141276670Y-106415267D01*
X140666009Y-106414735D01*
X140101629Y-106647932D01*
X139699677Y-107049182D01*
X139300643Y-106649449D01*
X138736670Y-106415267D01*
X138126009Y-106414735D01*
X137561629Y-106647932D01*
X137159677Y-107049182D01*
X136760643Y-106649449D01*
X136196670Y-106415267D01*
X135586009Y-106414735D01*
X135021629Y-106647932D01*
X134619677Y-107049182D01*
X134220643Y-106649449D01*
X133656670Y-106415267D01*
X133046009Y-106414735D01*
X132481629Y-106647932D01*
X132049449Y-107079357D01*
X131815267Y-107643330D01*
X131815035Y-107909676D01*
X131711894Y-107660057D01*
X131252363Y-107199722D01*
X130651648Y-106950284D01*
X130001205Y-106949716D01*
X129400057Y-107198106D01*
X128939722Y-107657637D01*
X128690284Y-108258352D01*
X128689716Y-108908795D01*
X125459718Y-108908795D01*
X125460284Y-108261205D01*
X125211894Y-107660057D01*
X124752363Y-107199722D01*
X124151648Y-106950284D01*
X123501205Y-106949716D01*
X122900057Y-107198106D01*
X122439722Y-107657637D01*
X122190284Y-108258352D01*
X122189716Y-108908795D01*
X120090000Y-108908795D01*
X120090000Y-104175000D01*
X127657560Y-104175000D01*
X127657560Y-105375000D01*
X127701838Y-105610317D01*
X127840910Y-105826441D01*
X128053110Y-105971431D01*
X128305000Y-106022440D01*
X129505000Y-106022440D01*
X129740317Y-105978162D01*
X129867636Y-105896234D01*
X130236036Y-106022807D01*
X130726413Y-105992482D01*
X131038617Y-105863164D01*
X131088130Y-105637735D01*
X130405000Y-104954605D01*
X130390858Y-104968748D01*
X130211253Y-104789143D01*
X130225395Y-104775000D01*
X130584605Y-104775000D01*
X131267735Y-105458130D01*
X131493164Y-105408617D01*
X131652807Y-104943964D01*
X131622482Y-104453587D01*
X131493164Y-104141383D01*
X131267735Y-104091870D01*
X130584605Y-104775000D01*
X130225395Y-104775000D01*
X130211253Y-104760858D01*
X130390858Y-104581253D01*
X130405000Y-104595395D01*
X131088130Y-103912265D01*
X131038617Y-103686836D01*
X130573964Y-103527193D01*
X130083587Y-103557518D01*
X129861010Y-103649711D01*
X129756890Y-103578569D01*
X129505000Y-103527560D01*
X128305000Y-103527560D01*
X128069683Y-103571838D01*
X127853559Y-103710910D01*
X127708569Y-103923110D01*
X127657560Y-104175000D01*
X120090000Y-104175000D01*
X120090000Y-102505000D01*
X142832560Y-102505000D01*
X142832560Y-104505000D01*
X142876838Y-104740317D01*
X143015910Y-104956441D01*
X143228110Y-105101431D01*
X143480000Y-105152440D01*
X146080000Y-105152440D01*
X146315317Y-105108162D01*
X146531441Y-104969090D01*
X146676431Y-104756890D01*
X146727440Y-104505000D01*
X146727440Y-102505000D01*
X147912560Y-102505000D01*
X147912560Y-104505000D01*
X147956838Y-104740317D01*
X148095910Y-104956441D01*
X148308110Y-105101431D01*
X148560000Y-105152440D01*
X151160000Y-105152440D01*
X151395317Y-105108162D01*
X151611441Y-104969090D01*
X151756431Y-104756890D01*
X151807440Y-104505000D01*
X151807440Y-102505000D01*
X152992560Y-102505000D01*
X152992560Y-104505000D01*
X153036838Y-104740317D01*
X153175910Y-104956441D01*
X153388110Y-105101431D01*
X153640000Y-105152440D01*
X156240000Y-105152440D01*
X156475317Y-105108162D01*
X156691441Y-104969090D01*
X156836431Y-104756890D01*
X156887440Y-104505000D01*
X156887440Y-102505000D01*
X158072560Y-102505000D01*
X158072560Y-104505000D01*
X158116838Y-104740317D01*
X158255910Y-104956441D01*
X158468110Y-105101431D01*
X158720000Y-105152440D01*
X161320000Y-105152440D01*
X161555317Y-105108162D01*
X161771441Y-104969090D01*
X161916431Y-104756890D01*
X161967440Y-104505000D01*
X161967440Y-102505000D01*
X161923162Y-102269683D01*
X161784090Y-102053559D01*
X161617380Y-101939651D01*
X161879144Y-101473355D01*
X161910124Y-101345434D01*
X161790777Y-101092000D01*
X160147000Y-101092000D01*
X160147000Y-101112000D01*
X159893000Y-101112000D01*
X159893000Y-101092000D01*
X158249223Y-101092000D01*
X158129876Y-101345434D01*
X158160856Y-101473355D01*
X158423495Y-101941211D01*
X158268559Y-102040910D01*
X158123569Y-102253110D01*
X158072560Y-102505000D01*
X156887440Y-102505000D01*
X156843162Y-102269683D01*
X156704090Y-102053559D01*
X156537380Y-101939651D01*
X156799144Y-101473355D01*
X156830124Y-101345434D01*
X156710777Y-101092000D01*
X155067000Y-101092000D01*
X155067000Y-101112000D01*
X154813000Y-101112000D01*
X154813000Y-101092000D01*
X153169223Y-101092000D01*
X153049876Y-101345434D01*
X153080856Y-101473355D01*
X153343495Y-101941211D01*
X153188559Y-102040910D01*
X153043569Y-102253110D01*
X152992560Y-102505000D01*
X151807440Y-102505000D01*
X151763162Y-102269683D01*
X151624090Y-102053559D01*
X151457380Y-101939651D01*
X151719144Y-101473355D01*
X151750124Y-101345434D01*
X151630777Y-101092000D01*
X149987000Y-101092000D01*
X149987000Y-101112000D01*
X149733000Y-101112000D01*
X149733000Y-101092000D01*
X148089223Y-101092000D01*
X147969876Y-101345434D01*
X148000856Y-101473355D01*
X148263495Y-101941211D01*
X148108559Y-102040910D01*
X147963569Y-102253110D01*
X147912560Y-102505000D01*
X146727440Y-102505000D01*
X146683162Y-102269683D01*
X146544090Y-102053559D01*
X146377380Y-101939651D01*
X146639144Y-101473355D01*
X146670124Y-101345434D01*
X146550777Y-101092000D01*
X144907000Y-101092000D01*
X144907000Y-101112000D01*
X144653000Y-101112000D01*
X144653000Y-101092000D01*
X143009223Y-101092000D01*
X142889876Y-101345434D01*
X142920856Y-101473355D01*
X143183495Y-101941211D01*
X143028559Y-102040910D01*
X142883569Y-102253110D01*
X142832560Y-102505000D01*
X120090000Y-102505000D01*
X120090000Y-100994432D01*
X137159774Y-100994432D01*
X137358789Y-101476086D01*
X137726976Y-101844916D01*
X138208282Y-102044772D01*
X138729432Y-102045226D01*
X139211086Y-101846211D01*
X139579916Y-101478024D01*
X139779772Y-100996718D01*
X139780226Y-100475568D01*
X139581211Y-99993914D01*
X139213024Y-99625084D01*
X139157369Y-99601974D01*
X138470000Y-98914605D01*
X137783279Y-99601326D01*
X137728914Y-99623789D01*
X137360084Y-99991976D01*
X137160228Y-100473282D01*
X137159774Y-100994432D01*
X120090000Y-100994432D01*
X120090000Y-98548100D01*
X137147478Y-98548100D01*
X137176625Y-99068434D01*
X137319672Y-99413781D01*
X137552853Y-99472542D01*
X138290395Y-98735000D01*
X138649605Y-98735000D01*
X139387147Y-99472542D01*
X139620328Y-99413781D01*
X139792522Y-98921900D01*
X139763375Y-98401566D01*
X139620328Y-98056219D01*
X139387147Y-97997458D01*
X138649605Y-98735000D01*
X138290395Y-98735000D01*
X137552853Y-97997458D01*
X137319672Y-98056219D01*
X137147478Y-98548100D01*
X120090000Y-98548100D01*
X120090000Y-97216358D01*
X120153514Y-97216358D01*
X120639522Y-97119685D01*
X120829193Y-97041120D01*
X120895462Y-97013671D01*
X121307480Y-96738370D01*
X121503370Y-96542480D01*
X121778671Y-96130463D01*
X121844785Y-95970849D01*
X121884685Y-95874522D01*
X121981357Y-95388515D01*
X121981357Y-95318587D01*
X121995000Y-95250000D01*
X121995000Y-92984285D01*
X123709760Y-92984285D01*
X123920169Y-93493515D01*
X124309436Y-93883461D01*
X124818298Y-94094759D01*
X125369285Y-94095240D01*
X125878515Y-93884831D01*
X126268461Y-93495564D01*
X126364976Y-93263130D01*
X126460169Y-93493515D01*
X126849436Y-93883461D01*
X127358298Y-94094759D01*
X127909285Y-94095240D01*
X128418515Y-93884831D01*
X128808461Y-93495564D01*
X129019759Y-92986702D01*
X129020240Y-92435715D01*
X128809831Y-91926485D01*
X128420564Y-91536539D01*
X127911702Y-91325241D01*
X127360715Y-91324760D01*
X126851485Y-91535169D01*
X126461539Y-91924436D01*
X126365024Y-92156870D01*
X126269831Y-91926485D01*
X125880564Y-91536539D01*
X125371702Y-91325241D01*
X124820715Y-91324760D01*
X124311485Y-91535169D01*
X123921539Y-91924436D01*
X123710241Y-92433298D01*
X123709760Y-92984285D01*
X121995000Y-92984285D01*
X121995000Y-90170000D01*
X121981357Y-90101413D01*
X121981357Y-90031485D01*
X121884685Y-89545478D01*
X121831678Y-89417508D01*
X121778671Y-89289537D01*
X121503370Y-88877520D01*
X121307480Y-88681630D01*
X120895462Y-88406329D01*
X120789448Y-88362417D01*
X120639522Y-88300315D01*
X120153514Y-88203642D01*
X120090000Y-88203642D01*
X120090000Y-85800000D01*
X137552395Y-85800000D01*
X137360084Y-85991976D01*
X137360084Y-85991976D01*
G37*
X137360084Y-85991976D02*
X137160228Y-86473282D01*
X137159774Y-86994432D01*
X137358789Y-87476086D01*
X137617380Y-87735129D01*
X137360084Y-87991976D01*
X137160228Y-88473282D01*
X137159774Y-88994432D01*
X137358789Y-89476086D01*
X137617380Y-89735129D01*
X137360084Y-89991976D01*
X137160228Y-90473282D01*
X137159774Y-90994432D01*
X137358789Y-91476086D01*
X137617380Y-91735129D01*
X137360084Y-91991976D01*
X137160228Y-92473282D01*
X137159774Y-92994432D01*
X137358789Y-93476086D01*
X137617380Y-93735129D01*
X137360084Y-93991976D01*
X137160228Y-94473282D01*
X137159774Y-94994432D01*
X137358789Y-95476086D01*
X137617380Y-95735129D01*
X137360084Y-95991976D01*
X137160228Y-96473282D01*
X137159774Y-96994432D01*
X137358789Y-97476086D01*
X137726976Y-97844916D01*
X137782631Y-97868026D01*
X138470000Y-98555395D01*
X139156721Y-97868674D01*
X139211086Y-97846211D01*
X139579916Y-97478024D01*
X139779772Y-96996718D01*
X139780226Y-96475568D01*
X139581211Y-95993914D01*
X139322620Y-95734871D01*
X139579916Y-95478024D01*
X139779772Y-94996718D01*
X139780226Y-94475568D01*
X139581211Y-93993914D01*
X139322620Y-93734871D01*
X139579916Y-93478024D01*
X139779772Y-92996718D01*
X139780226Y-92475568D01*
X139581211Y-91993914D01*
X139322620Y-91734871D01*
X139579916Y-91478024D01*
X139779772Y-90996718D01*
X139780226Y-90475568D01*
X139581211Y-89993914D01*
X139322620Y-89734871D01*
X139579916Y-89478024D01*
X139779772Y-88996718D01*
X139780226Y-88475568D01*
X139693222Y-88265000D01*
X142807091Y-88265000D01*
X142931548Y-88890687D01*
X143285971Y-89421120D01*
X143456405Y-89535000D01*
X143285971Y-89648880D01*
X142931548Y-90179313D01*
X142807091Y-90805000D01*
X142931548Y-91430687D01*
X143285971Y-91961120D01*
X143456405Y-92075000D01*
X143285971Y-92188880D01*
X142931548Y-92719313D01*
X142807091Y-93345000D01*
X142931548Y-93970687D01*
X143285971Y-94501120D01*
X143456405Y-94615000D01*
X143285971Y-94728880D01*
X142931548Y-95259313D01*
X142807091Y-95885000D01*
X142931548Y-96510687D01*
X143285971Y-97041120D01*
X143456405Y-97155000D01*
X143285971Y-97268880D01*
X142931548Y-97799313D01*
X142807091Y-98425000D01*
X142931548Y-99050687D01*
X143285971Y-99581120D01*
X143476188Y-99708219D01*
X143234078Y-99898683D01*
X142920856Y-100456645D01*
X142889876Y-100584566D01*
X143009223Y-100838000D01*
X144653000Y-100838000D01*
X144653000Y-100818000D01*
X144907000Y-100818000D01*
X144907000Y-100838000D01*
X146550777Y-100838000D01*
X146670124Y-100584566D01*
X147969876Y-100584566D01*
X148089223Y-100838000D01*
X149733000Y-100838000D01*
X149733000Y-99330000D01*
X149987000Y-99330000D01*
X149987000Y-100838000D01*
X151630777Y-100838000D01*
X151750124Y-100584566D01*
X153049876Y-100584566D01*
X153169223Y-100838000D01*
X154813000Y-100838000D01*
X154813000Y-99330000D01*
X155067000Y-99330000D01*
X155067000Y-100838000D01*
X156710777Y-100838000D01*
X156830124Y-100584566D01*
X158129876Y-100584566D01*
X158249223Y-100838000D01*
X159893000Y-100838000D01*
X159893000Y-99330000D01*
X160147000Y-99330000D01*
X160147000Y-100838000D01*
X161790777Y-100838000D01*
X161910124Y-100584566D01*
X161879144Y-100456645D01*
X161565922Y-99898683D01*
X161063020Y-99503058D01*
X160447000Y-99330000D01*
X160147000Y-99330000D01*
X159893000Y-99330000D01*
X159593000Y-99330000D01*
X158976980Y-99503058D01*
X158474078Y-99898683D01*
X158160856Y-100456645D01*
X158129876Y-100584566D01*
X156830124Y-100584566D01*
X156799144Y-100456645D01*
X156485922Y-99898683D01*
X155983020Y-99503058D01*
X155367000Y-99330000D01*
X155067000Y-99330000D01*
X154813000Y-99330000D01*
X154513000Y-99330000D01*
X153896980Y-99503058D01*
X153394078Y-99898683D01*
X153080856Y-100456645D01*
X153049876Y-100584566D01*
X151750124Y-100584566D01*
X151719144Y-100456645D01*
X151405922Y-99898683D01*
X150903020Y-99503058D01*
X150287000Y-99330000D01*
X149987000Y-99330000D01*
X149733000Y-99330000D01*
X149433000Y-99330000D01*
X148816980Y-99503058D01*
X148314078Y-99898683D01*
X148000856Y-100456645D01*
X147969876Y-100584566D01*
X146670124Y-100584566D01*
X146639144Y-100456645D01*
X146325922Y-99898683D01*
X146083812Y-99708219D01*
X146274029Y-99581120D01*
X146628452Y-99050687D01*
X146752909Y-98425000D01*
X146628452Y-97799313D01*
X146274029Y-97268880D01*
X146103595Y-97155000D01*
X146274029Y-97041120D01*
X146628452Y-96510687D01*
X146752909Y-95885000D01*
X146628452Y-95259313D01*
X146274029Y-94728880D01*
X146103595Y-94615000D01*
X146274029Y-94501120D01*
X146628452Y-93970687D01*
X146752909Y-93345000D01*
X146628452Y-92719313D01*
X146274029Y-92188880D01*
X146103595Y-92075000D01*
X146274029Y-91961120D01*
X146628452Y-91430687D01*
X146752909Y-90805000D01*
X147887091Y-90805000D01*
X148011548Y-91430687D01*
X148365971Y-91961120D01*
X148536405Y-92075000D01*
X148365971Y-92188880D01*
X148011548Y-92719313D01*
X147887091Y-93345000D01*
X148011548Y-93970687D01*
X148251093Y-94329192D01*
X148108559Y-94420910D01*
X147963569Y-94633110D01*
X147912560Y-94885000D01*
X147912560Y-96885000D01*
X147956838Y-97120317D01*
X148095910Y-97336441D01*
X148308110Y-97481431D01*
X148560000Y-97532440D01*
X151160000Y-97532440D01*
X151395317Y-97488162D01*
X151611441Y-97349090D01*
X151741239Y-97159125D01*
X151992189Y-97534698D01*
X152457736Y-97845767D01*
X153006887Y-97955000D01*
X153063113Y-97955000D01*
X153612264Y-97845767D01*
X154077811Y-97534698D01*
X154388880Y-97069151D01*
X154498113Y-96520000D01*
X154388880Y-95970849D01*
X154077811Y-95505302D01*
X153612264Y-95194233D01*
X153063113Y-95085000D01*
X153006887Y-95085000D01*
X152457736Y-95194233D01*
X151992189Y-95505302D01*
X151807440Y-95781798D01*
X151807440Y-94885000D01*
X151763162Y-94649683D01*
X151624090Y-94433559D01*
X151469671Y-94328049D01*
X151708452Y-93970687D01*
X151718982Y-93917747D01*
X151817757Y-94156800D01*
X152221077Y-94560824D01*
X152748309Y-94779750D01*
X153319187Y-94780248D01*
X153846800Y-94562243D01*
X154250824Y-94158923D01*
X154449611Y-93680191D01*
X158451546Y-89678256D01*
X158503309Y-89699750D01*
X159074187Y-89700248D01*
X159601800Y-89482243D01*
X160005824Y-89078923D01*
X160039813Y-88997069D01*
X160072757Y-89076800D01*
X160476077Y-89480824D01*
X161003309Y-89699750D01*
X161574187Y-89700248D01*
X162101800Y-89482243D01*
X162505824Y-89078923D01*
X162724750Y-88551691D01*
X162725248Y-87980813D01*
X162507243Y-87453200D01*
X162103923Y-87049176D01*
X161576691Y-86830250D01*
X161005813Y-86829752D01*
X160478200Y-87047757D01*
X160074176Y-87451077D01*
X160040187Y-87532931D01*
X160007243Y-87453200D01*
X159603923Y-87049176D01*
X159076691Y-86830250D01*
X158505813Y-86829752D01*
X157978200Y-87047757D01*
X157574176Y-87451077D01*
X157355250Y-87978309D01*
X157354752Y-88549187D01*
X157377049Y-88603149D01*
X155694026Y-90286172D01*
X155717134Y-90170000D01*
X155634543Y-89754788D01*
X155487685Y-89535000D01*
X155634543Y-89315212D01*
X155717134Y-88900000D01*
X155634543Y-88484788D01*
X155597570Y-88429454D01*
X155690000Y-88206309D01*
X155690000Y-87915750D01*
X155531250Y-87757000D01*
X154432000Y-87757000D01*
X154432000Y-87777000D01*
X154178000Y-87777000D01*
X154178000Y-87757000D01*
X153078750Y-87757000D01*
X152920000Y-87915750D01*
X152920000Y-88206309D01*
X153012430Y-88429454D01*
X152975457Y-88484788D01*
X152892866Y-88900000D01*
X152975457Y-89315212D01*
X153122315Y-89535000D01*
X152975457Y-89754788D01*
X152892866Y-90170000D01*
X152975457Y-90585212D01*
X153210655Y-90937211D01*
X153562654Y-91172409D01*
X153977866Y-91255000D01*
X154632134Y-91255000D01*
X154748306Y-91231892D01*
X153849972Y-92130226D01*
X153848923Y-92129176D01*
X153321691Y-91910250D01*
X152750813Y-91909752D01*
X152223200Y-92127757D01*
X151819176Y-92531077D01*
X151718998Y-92772332D01*
X151708452Y-92719313D01*
X151354029Y-92188880D01*
X151183595Y-92075000D01*
X151354029Y-91961120D01*
X151708452Y-91430687D01*
X151832909Y-90805000D01*
X151708452Y-90179313D01*
X151354029Y-89648880D01*
X151163812Y-89521781D01*
X151405922Y-89331317D01*
X151719144Y-88773355D01*
X151750124Y-88645434D01*
X151630777Y-88392000D01*
X149987000Y-88392000D01*
X149987000Y-88412000D01*
X149733000Y-88412000D01*
X149733000Y-88392000D01*
X148089223Y-88392000D01*
X147969876Y-88645434D01*
X148000856Y-88773355D01*
X148314078Y-89331317D01*
X148556188Y-89521781D01*
X148365971Y-89648880D01*
X148011548Y-90179313D01*
X147887091Y-90805000D01*
X146752909Y-90805000D01*
X146628452Y-90179313D01*
X146274029Y-89648880D01*
X146103595Y-89535000D01*
X146274029Y-89421120D01*
X146628452Y-88890687D01*
X146752909Y-88265000D01*
X146677236Y-87884566D01*
X147969876Y-87884566D01*
X148089223Y-88138000D01*
X149733000Y-88138000D01*
X149733000Y-86630000D01*
X149987000Y-86630000D01*
X149987000Y-88138000D01*
X151630777Y-88138000D01*
X151750124Y-87884566D01*
X151719144Y-87756645D01*
X151405922Y-87198683D01*
X151221615Y-87053691D01*
X152920000Y-87053691D01*
X152920000Y-87344250D01*
X153078750Y-87503000D01*
X154178000Y-87503000D01*
X154178000Y-86703750D01*
X154432000Y-86703750D01*
X154432000Y-87503000D01*
X155531250Y-87503000D01*
X155690000Y-87344250D01*
X155690000Y-87053691D01*
X155593327Y-86820302D01*
X155414699Y-86641673D01*
X155181310Y-86545000D01*
X154590750Y-86545000D01*
X154432000Y-86703750D01*
X154178000Y-86703750D01*
X154019250Y-86545000D01*
X153428690Y-86545000D01*
X153195301Y-86641673D01*
X153016673Y-86820302D01*
X152920000Y-87053691D01*
X151221615Y-87053691D01*
X150903020Y-86803058D01*
X150287000Y-86630000D01*
X149987000Y-86630000D01*
X149733000Y-86630000D01*
X149433000Y-86630000D01*
X148816980Y-86803058D01*
X148314078Y-87198683D01*
X148000856Y-87756645D01*
X147969876Y-87884566D01*
X146677236Y-87884566D01*
X146628452Y-87639313D01*
X146274029Y-87108880D01*
X145743596Y-86754457D01*
X145117909Y-86630000D01*
X144442091Y-86630000D01*
X143816404Y-86754457D01*
X143285971Y-87108880D01*
X142931548Y-87639313D01*
X142807091Y-88265000D01*
X139693222Y-88265000D01*
X139581211Y-87993914D01*
X139322620Y-87734871D01*
X139579916Y-87478024D01*
X139779772Y-86996718D01*
X139780226Y-86475568D01*
X139581211Y-85993914D01*
X139387635Y-85800000D01*
X164390000Y-85800000D01*
X164390000Y-92558069D01*
X164237811Y-92330302D01*
X163772264Y-92019233D01*
X163223113Y-91910000D01*
X163166887Y-91910000D01*
X162617736Y-92019233D01*
X162152189Y-92330302D01*
X161841120Y-92795849D01*
X161731887Y-93345000D01*
X161841120Y-93894151D01*
X162152189Y-94359698D01*
X162617736Y-94670767D01*
X163166887Y-94780000D01*
X163223113Y-94780000D01*
X163772264Y-94670767D01*
X164237811Y-94359698D01*
X164390000Y-94131931D01*
X164390000Y-95685918D01*
X164008923Y-95304176D01*
X163481691Y-95085250D01*
X162910813Y-95084752D01*
X162383200Y-95302757D01*
X161979176Y-95706077D01*
X161760250Y-96233309D01*
X161759752Y-96804187D01*
X161977757Y-97331800D01*
X162381077Y-97735824D01*
X162908309Y-97954750D01*
X163479187Y-97955248D01*
X164006800Y-97737243D01*
X164390000Y-97354711D01*
X164390000Y-106605000D01*
X163830000Y-106605000D01*
X163761413Y-106618643D01*
X163691485Y-106618643D01*
X163205478Y-106715315D01*
X163109671Y-106755000D01*
X162949537Y-106821329D01*
X162579225Y-107068764D01*
X162160643Y-106649449D01*
X161596670Y-106415267D01*
X160986009Y-106414735D01*
X160421629Y-106647932D01*
X159989449Y-107079357D01*
X159755267Y-107643330D01*
X159754735Y-108253991D01*
X159987932Y-108818371D01*
X160419357Y-109250551D01*
X160983330Y-109484733D01*
X161593991Y-109485265D01*
X161850000Y-109379484D01*
X161850000Y-121760459D01*
X161596670Y-121655267D01*
X160986009Y-121654735D01*
X160421629Y-121887932D01*
X159989449Y-122319357D01*
X159980797Y-122340194D01*
X159830159Y-122289446D01*
X158929605Y-123190000D01*
X159830159Y-124090554D01*
X159980327Y-124039965D01*
X159987932Y-124058371D01*
X160419357Y-124490551D01*
X160983330Y-124724733D01*
X161593991Y-124725265D01*
X162158371Y-124492068D01*
X162590551Y-124060643D01*
X162791055Y-123577776D01*
X162949537Y-123683671D01*
X163077508Y-123736678D01*
X163205478Y-123789685D01*
X163691485Y-123886357D01*
X163761413Y-123886357D01*
X163830000Y-123900000D01*
X164390000Y-123900000D01*
X164390000Y-130100000D01*
X163120271Y-130100000D01*
X163626317Y-129815922D01*
X164021942Y-129313020D01*
X164195000Y-128697000D01*
X164195000Y-128397000D01*
X162687000Y-128397000D01*
X162687000Y-128417000D01*
X162433000Y-128417000D01*
X162433000Y-128397000D01*
X162413000Y-128397000D01*
X162413000Y-128143000D01*
X162433000Y-128143000D01*
X162433000Y-126499223D01*
X162687000Y-126499223D01*
X162687000Y-128143000D01*
X164195000Y-128143000D01*
X164195000Y-127843000D01*
X164021942Y-127226980D01*
X163626317Y-126724078D01*
X163068355Y-126410856D01*
X162940434Y-126379876D01*
X162687000Y-126499223D01*
X162433000Y-126499223D01*
X162179566Y-126379876D01*
X162051645Y-126410856D01*
X161583789Y-126673495D01*
X161484090Y-126518559D01*
X161271890Y-126373569D01*
X161020000Y-126322560D01*
X159020000Y-126322560D01*
X158784683Y-126366838D01*
X158568559Y-126505910D01*
X158423569Y-126718110D01*
X158372560Y-126970000D01*
X158372560Y-129570000D01*
X158416838Y-129805317D01*
X158555910Y-130021441D01*
X158670885Y-130100000D01*
X120090000Y-130100000D01*
X120090000Y-127270000D01*
X120272560Y-127270000D01*
X120272560Y-129270000D01*
X120316838Y-129505317D01*
X120455910Y-129721441D01*
X120668110Y-129866431D01*
X120920000Y-129917440D01*
X122920000Y-129917440D01*
X123155317Y-129873162D01*
X123371441Y-129734090D01*
X123516431Y-129521890D01*
X123519042Y-129508998D01*
X123585736Y-129689387D01*
X124195461Y-129915908D01*
X124845460Y-129891856D01*
X125334264Y-129689387D01*
X125432927Y-129422532D01*
X124460000Y-128449605D01*
X124445858Y-128463748D01*
X124266253Y-128284143D01*
X124280395Y-128270000D01*
X124639605Y-128270000D01*
X125612532Y-129242927D01*
X125647938Y-129229836D01*
X126072637Y-129655278D01*
X126673352Y-129904716D01*
X127323795Y-129905284D01*
X127924943Y-129656894D01*
X128270199Y-129312241D01*
X128612637Y-129655278D01*
X129213352Y-129904716D01*
X129863795Y-129905284D01*
X130464943Y-129656894D01*
X130925278Y-129197363D01*
X131174716Y-128596648D01*
X131175284Y-127946205D01*
X130926894Y-127345057D01*
X130851969Y-127270000D01*
X132972560Y-127270000D01*
X132972560Y-129270000D01*
X133016838Y-129505317D01*
X133155910Y-129721441D01*
X133368110Y-129866431D01*
X133620000Y-129917440D01*
X135620000Y-129917440D01*
X135855317Y-129873162D01*
X136071441Y-129734090D01*
X136216431Y-129521890D01*
X136219042Y-129508998D01*
X136285736Y-129689387D01*
X136895461Y-129915908D01*
X137545460Y-129891856D01*
X138034264Y-129689387D01*
X138132927Y-129422532D01*
X137160000Y-128449605D01*
X137145858Y-128463748D01*
X136966253Y-128284143D01*
X136980395Y-128270000D01*
X137339605Y-128270000D01*
X138312532Y-129242927D01*
X138347938Y-129229836D01*
X138772637Y-129655278D01*
X139373352Y-129904716D01*
X140023795Y-129905284D01*
X140624943Y-129656894D01*
X140970199Y-129312241D01*
X141312637Y-129655278D01*
X141913352Y-129904716D01*
X142563795Y-129905284D01*
X143164943Y-129656894D01*
X143625278Y-129197363D01*
X143874716Y-128596648D01*
X143875284Y-127946205D01*
X143626894Y-127345057D01*
X143551969Y-127270000D01*
X145672560Y-127270000D01*
X145672560Y-129270000D01*
X145716838Y-129505317D01*
X145855910Y-129721441D01*
X146068110Y-129866431D01*
X146320000Y-129917440D01*
X148320000Y-129917440D01*
X148555317Y-129873162D01*
X148771441Y-129734090D01*
X148916431Y-129521890D01*
X148919042Y-129508998D01*
X148985736Y-129689387D01*
X149595461Y-129915908D01*
X150245460Y-129891856D01*
X150734264Y-129689387D01*
X150832927Y-129422532D01*
X149860000Y-128449605D01*
X149845858Y-128463748D01*
X149666253Y-128284143D01*
X149680395Y-128270000D01*
X150039605Y-128270000D01*
X151012532Y-129242927D01*
X151047938Y-129229836D01*
X151472637Y-129655278D01*
X152073352Y-129904716D01*
X152723795Y-129905284D01*
X153324943Y-129656894D01*
X153670199Y-129312241D01*
X154012637Y-129655278D01*
X154613352Y-129904716D01*
X155263795Y-129905284D01*
X155864943Y-129656894D01*
X156325278Y-129197363D01*
X156574716Y-128596648D01*
X156575284Y-127946205D01*
X156326894Y-127345057D01*
X155867363Y-126884722D01*
X155266648Y-126635284D01*
X154616205Y-126634716D01*
X154015057Y-126883106D01*
X153669801Y-127227759D01*
X153327363Y-126884722D01*
X152726648Y-126635284D01*
X152076205Y-126634716D01*
X151475057Y-126883106D01*
X151047438Y-127309978D01*
X151012532Y-127297073D01*
X150039605Y-128270000D01*
X149680395Y-128270000D01*
X149666253Y-128255858D01*
X149845858Y-128076253D01*
X149860000Y-128090395D01*
X150832927Y-127117468D01*
X150734264Y-126850613D01*
X150124539Y-126624092D01*
X149474540Y-126648144D01*
X148985736Y-126850613D01*
X148919681Y-127029273D01*
X148784090Y-126818559D01*
X148571890Y-126673569D01*
X148320000Y-126622560D01*
X146320000Y-126622560D01*
X146084683Y-126666838D01*
X145868559Y-126805910D01*
X145723569Y-127018110D01*
X145672560Y-127270000D01*
X143551969Y-127270000D01*
X143167363Y-126884722D01*
X142566648Y-126635284D01*
X141916205Y-126634716D01*
X141315057Y-126883106D01*
X140969801Y-127227759D01*
X140627363Y-126884722D01*
X140026648Y-126635284D01*
X139376205Y-126634716D01*
X138775057Y-126883106D01*
X138347438Y-127309978D01*
X138312532Y-127297073D01*
X137339605Y-128270000D01*
X136980395Y-128270000D01*
X136966253Y-128255858D01*
X137145858Y-128076253D01*
X137160000Y-128090395D01*
X138132927Y-127117468D01*
X138034264Y-126850613D01*
X137424539Y-126624092D01*
X136774540Y-126648144D01*
X136285736Y-126850613D01*
X136219681Y-127029273D01*
X136084090Y-126818559D01*
X135871890Y-126673569D01*
X135620000Y-126622560D01*
X133620000Y-126622560D01*
X133384683Y-126666838D01*
X133168559Y-126805910D01*
X133023569Y-127018110D01*
X132972560Y-127270000D01*
X130851969Y-127270000D01*
X130467363Y-126884722D01*
X129866648Y-126635284D01*
X129216205Y-126634716D01*
X128615057Y-126883106D01*
X128269801Y-127227759D01*
X127927363Y-126884722D01*
X127326648Y-126635284D01*
X126676205Y-126634716D01*
X126075057Y-126883106D01*
X125647438Y-127309978D01*
X125612532Y-127297073D01*
X124639605Y-128270000D01*
X124280395Y-128270000D01*
X124266253Y-128255858D01*
X124445858Y-128076253D01*
X124460000Y-128090395D01*
X125432927Y-127117468D01*
X125334264Y-126850613D01*
X124724539Y-126624092D01*
X124074540Y-126648144D01*
X123585736Y-126850613D01*
X123519681Y-127029273D01*
X123384090Y-126818559D01*
X123171890Y-126673569D01*
X122920000Y-126622560D01*
X120920000Y-126622560D01*
X120684683Y-126666838D01*
X120468559Y-126805910D01*
X120323569Y-127018110D01*
X120272560Y-127270000D01*
X120090000Y-127270000D01*
X120090000Y-123464285D01*
X123709760Y-123464285D01*
X123920169Y-123973515D01*
X124309436Y-124363461D01*
X124818298Y-124574759D01*
X125369285Y-124575240D01*
X125878515Y-124364831D01*
X126268461Y-123975564D01*
X126364976Y-123743130D01*
X126460169Y-123973515D01*
X126849436Y-124363461D01*
X127358298Y-124574759D01*
X127909285Y-124575240D01*
X128418515Y-124364831D01*
X128808461Y-123975564D01*
X129008427Y-123493991D01*
X131814735Y-123493991D01*
X132047932Y-124058371D01*
X132479357Y-124490551D01*
X133043330Y-124724733D01*
X133653991Y-124725265D01*
X134218371Y-124492068D01*
X134620323Y-124090818D01*
X135019357Y-124490551D01*
X135583330Y-124724733D01*
X136193991Y-124725265D01*
X136758371Y-124492068D01*
X137160323Y-124090818D01*
X137559357Y-124490551D01*
X138123330Y-124724733D01*
X138733991Y-124725265D01*
X139298371Y-124492068D01*
X139700323Y-124090818D01*
X140099357Y-124490551D01*
X140663330Y-124724733D01*
X141273991Y-124725265D01*
X141838371Y-124492068D01*
X142270551Y-124060643D01*
X142504733Y-123496670D01*
X142504735Y-123493991D01*
X147054735Y-123493991D01*
X147287932Y-124058371D01*
X147719357Y-124490551D01*
X148283330Y-124724733D01*
X148893991Y-124725265D01*
X149458371Y-124492068D01*
X149860323Y-124090818D01*
X150259357Y-124490551D01*
X150823330Y-124724733D01*
X151433991Y-124725265D01*
X151998371Y-124492068D01*
X152400323Y-124090818D01*
X152799357Y-124490551D01*
X153363330Y-124724733D01*
X153973991Y-124725265D01*
X154538371Y-124492068D01*
X154940323Y-124090818D01*
X155339357Y-124490551D01*
X155903330Y-124724733D01*
X156513991Y-124725265D01*
X157078371Y-124492068D01*
X157300668Y-124270159D01*
X157849446Y-124270159D01*
X157935852Y-124526643D01*
X158509336Y-124736458D01*
X159119460Y-124710839D01*
X159564148Y-124526643D01*
X159650554Y-124270159D01*
X158750000Y-123369605D01*
X157849446Y-124270159D01*
X157300668Y-124270159D01*
X157510551Y-124060643D01*
X157519203Y-124039806D01*
X157669841Y-124090554D01*
X158570395Y-123190000D01*
X157669841Y-122289446D01*
X157519673Y-122340035D01*
X157512068Y-122321629D01*
X157300650Y-122109841D01*
X157849446Y-122109841D01*
X158750000Y-123010395D01*
X159650554Y-122109841D01*
X159564148Y-121853357D01*
X158990664Y-121643542D01*
X158380540Y-121669161D01*
X157935852Y-121853357D01*
X157849446Y-122109841D01*
X157300650Y-122109841D01*
X157080643Y-121889449D01*
X156516670Y-121655267D01*
X155906009Y-121654735D01*
X155341629Y-121887932D01*
X154939677Y-122289182D01*
X154540643Y-121889449D01*
X153976670Y-121655267D01*
X153566050Y-121654909D01*
X153700551Y-121520643D01*
X153934733Y-120956670D01*
X153935265Y-120346009D01*
X153702068Y-119781629D01*
X153270643Y-119349449D01*
X152706670Y-119115267D01*
X152096009Y-119114735D01*
X151531629Y-119347932D01*
X151129677Y-119749182D01*
X150730643Y-119349449D01*
X150166670Y-119115267D01*
X149556009Y-119114735D01*
X148991629Y-119347932D01*
X148559449Y-119779357D01*
X148325267Y-120343330D01*
X148324735Y-120953991D01*
X148557932Y-121518371D01*
X148694413Y-121655091D01*
X148286009Y-121654735D01*
X147721629Y-121887932D01*
X147289449Y-122319357D01*
X147055267Y-122883330D01*
X147054735Y-123493991D01*
X142504735Y-123493991D01*
X142505265Y-122886009D01*
X142272068Y-122321629D01*
X141840643Y-121889449D01*
X141276670Y-121655267D01*
X140666009Y-121654735D01*
X140101629Y-121887932D01*
X139699677Y-122289182D01*
X139300643Y-121889449D01*
X138736670Y-121655267D01*
X138126009Y-121654735D01*
X137561629Y-121887932D01*
X137159677Y-122289182D01*
X136760643Y-121889449D01*
X136196670Y-121655267D01*
X135586009Y-121654735D01*
X135021629Y-121887932D01*
X134619677Y-122289182D01*
X134220643Y-121889449D01*
X133656670Y-121655267D01*
X133046009Y-121654735D01*
X132481629Y-121887932D01*
X132049449Y-122319357D01*
X131815267Y-122883330D01*
X131814735Y-123493991D01*
X129008427Y-123493991D01*
X129019759Y-123466702D01*
X129020240Y-122915715D01*
X128809831Y-122406485D01*
X128420564Y-122016539D01*
X127911702Y-121805241D01*
X127360715Y-121804760D01*
X126851485Y-122015169D01*
X126461539Y-122404436D01*
X126365024Y-122636870D01*
X126269831Y-122406485D01*
X125880564Y-122016539D01*
X125371702Y-121805241D01*
X124820715Y-121804760D01*
X124311485Y-122015169D01*
X123921539Y-122404436D01*
X123710241Y-122913298D01*
X123709760Y-123464285D01*
X120090000Y-123464285D01*
X120090000Y-114237532D01*
X122852073Y-114237532D01*
X122950736Y-114504387D01*
X123560461Y-114730908D01*
X124210460Y-114706856D01*
X124699264Y-114504387D01*
X124797927Y-114237532D01*
X129352073Y-114237532D01*
X129450736Y-114504387D01*
X130060461Y-114730908D01*
X130710460Y-114706856D01*
X131199264Y-114504387D01*
X131297927Y-114237532D01*
X130325000Y-113264605D01*
X129352073Y-114237532D01*
X124797927Y-114237532D01*
X123825000Y-113264605D01*
X122852073Y-114237532D01*
X120090000Y-114237532D01*
X120090000Y-112820461D01*
X122179092Y-112820461D01*
X122203144Y-113470460D01*
X122405613Y-113959264D01*
X122672468Y-114057927D01*
X123645395Y-113085000D01*
X124004605Y-113085000D01*
X124977532Y-114057927D01*
X125244387Y-113959264D01*
X125470908Y-113349539D01*
X125451331Y-112820461D01*
X128679092Y-112820461D01*
X128703144Y-113470460D01*
X128905613Y-113959264D01*
X129172468Y-114057927D01*
X130145395Y-113085000D01*
X130504605Y-113085000D01*
X131477532Y-114057927D01*
X131744387Y-113959264D01*
X131970908Y-113349539D01*
X131946856Y-112699540D01*
X131744387Y-112210736D01*
X131477532Y-112112073D01*
X130504605Y-113085000D01*
X130145395Y-113085000D01*
X129172468Y-112112073D01*
X128905613Y-112210736D01*
X128679092Y-112820461D01*
X125451331Y-112820461D01*
X125446856Y-112699540D01*
X125244387Y-112210736D01*
X124977532Y-112112073D01*
X124004605Y-113085000D01*
X123645395Y-113085000D01*
X122672468Y-112112073D01*
X122405613Y-112210736D01*
X122179092Y-112820461D01*
X120090000Y-112820461D01*
X120090000Y-111932468D01*
X122852073Y-111932468D01*
X123825000Y-112905395D01*
X124797927Y-111932468D01*
X129352073Y-111932468D01*
X130325000Y-112905395D01*
X131297927Y-111932468D01*
X131199264Y-111665613D01*
X130589539Y-111439092D01*
X129939540Y-111463144D01*
X129450736Y-111665613D01*
X129352073Y-111932468D01*
X124797927Y-111932468D01*
X124699264Y-111665613D01*
X124089539Y-111439092D01*
X123439540Y-111463144D01*
X122950736Y-111665613D01*
X122852073Y-111932468D01*
X120090000Y-111932468D01*
X120090000Y-108908795D01*
X122189716Y-108908795D01*
X122438106Y-109509943D01*
X122897637Y-109970278D01*
X123498352Y-110219716D01*
X124148795Y-110220284D01*
X124749943Y-109971894D01*
X125210278Y-109512363D01*
X125459716Y-108911648D01*
X125459718Y-108908795D01*
X128689716Y-108908795D01*
X128938106Y-109509943D01*
X129397637Y-109970278D01*
X129998352Y-110219716D01*
X130648795Y-110220284D01*
X131249943Y-109971894D01*
X131710278Y-109512363D01*
X131959716Y-108911648D01*
X131959983Y-108605519D01*
X132047932Y-108818371D01*
X132479357Y-109250551D01*
X133043330Y-109484733D01*
X133653991Y-109485265D01*
X134218371Y-109252068D01*
X134620323Y-108850818D01*
X135019357Y-109250551D01*
X135583330Y-109484733D01*
X136193991Y-109485265D01*
X136758371Y-109252068D01*
X137160323Y-108850818D01*
X137559357Y-109250551D01*
X138123330Y-109484733D01*
X138733991Y-109485265D01*
X139298371Y-109252068D01*
X139700323Y-108850818D01*
X140099357Y-109250551D01*
X140663330Y-109484733D01*
X141273991Y-109485265D01*
X141838371Y-109252068D01*
X142240323Y-108850818D01*
X142639357Y-109250551D01*
X143203330Y-109484733D01*
X143813991Y-109485265D01*
X144378371Y-109252068D01*
X144780323Y-108850818D01*
X145179357Y-109250551D01*
X145743330Y-109484733D01*
X146353991Y-109485265D01*
X146918371Y-109252068D01*
X147320323Y-108850818D01*
X147719357Y-109250551D01*
X148275064Y-109481301D01*
X148051539Y-109704436D01*
X147840241Y-110213298D01*
X147839760Y-110764285D01*
X148050169Y-111273515D01*
X148439436Y-111663461D01*
X148948298Y-111874759D01*
X149499285Y-111875240D01*
X150008515Y-111664831D01*
X150398461Y-111275564D01*
X150494976Y-111043130D01*
X150590169Y-111273515D01*
X150979436Y-111663461D01*
X151488298Y-111874759D01*
X152039285Y-111875240D01*
X152548515Y-111664831D01*
X152938461Y-111275564D01*
X153149759Y-110766702D01*
X153150240Y-110215715D01*
X152939831Y-109706485D01*
X152550564Y-109316539D01*
X152114976Y-109135667D01*
X152220668Y-109030159D01*
X152769446Y-109030159D01*
X152855852Y-109286643D01*
X153429336Y-109496458D01*
X154039460Y-109470839D01*
X154484148Y-109286643D01*
X154570554Y-109030159D01*
X153670000Y-108129605D01*
X152769446Y-109030159D01*
X152220668Y-109030159D01*
X152430551Y-108820643D01*
X152439203Y-108799806D01*
X152589841Y-108850554D01*
X153490395Y-107950000D01*
X153849605Y-107950000D01*
X154750159Y-108850554D01*
X155006643Y-108764148D01*
X155216458Y-108190664D01*
X155190839Y-107580540D01*
X155006643Y-107135852D01*
X154750159Y-107049446D01*
X153849605Y-107950000D01*
X153490395Y-107950000D01*
X152589841Y-107049446D01*
X152439673Y-107100035D01*
X152432068Y-107081629D01*
X152220650Y-106869841D01*
X152769446Y-106869841D01*
X153670000Y-107770395D01*
X154570554Y-106869841D01*
X154484148Y-106613357D01*
X153910664Y-106403542D01*
X153300540Y-106429161D01*
X152855852Y-106613357D01*
X152769446Y-106869841D01*
X152220650Y-106869841D01*
X152000643Y-106649449D01*
X151436670Y-106415267D01*
X150826009Y-106414735D01*
X150261629Y-106647932D01*
X149859677Y-107049182D01*
X149460643Y-106649449D01*
X148896670Y-106415267D01*
X148286009Y-106414735D01*
X147721629Y-106647932D01*
X147319677Y-107049182D01*
X146920643Y-106649449D01*
X146356670Y-106415267D01*
X145746009Y-106414735D01*
X145181629Y-106647932D01*
X144779677Y-107049182D01*
X144380643Y-106649449D01*
X143816670Y-106415267D01*
X143206009Y-106414735D01*
X142641629Y-106647932D01*
X142239677Y-107049182D01*
X141840643Y-106649449D01*
X141276670Y-106415267D01*
X140666009Y-106414735D01*
X140101629Y-106647932D01*
X139699677Y-107049182D01*
X139300643Y-106649449D01*
X138736670Y-106415267D01*
X138126009Y-106414735D01*
X137561629Y-106647932D01*
X137159677Y-107049182D01*
X136760643Y-106649449D01*
X136196670Y-106415267D01*
X135586009Y-106414735D01*
X135021629Y-106647932D01*
X134619677Y-107049182D01*
X134220643Y-106649449D01*
X133656670Y-106415267D01*
X133046009Y-106414735D01*
X132481629Y-106647932D01*
X132049449Y-107079357D01*
X131815267Y-107643330D01*
X131815035Y-107909676D01*
X131711894Y-107660057D01*
X131252363Y-107199722D01*
X130651648Y-106950284D01*
X130001205Y-106949716D01*
X129400057Y-107198106D01*
X128939722Y-107657637D01*
X128690284Y-108258352D01*
X128689716Y-108908795D01*
X125459718Y-108908795D01*
X125460284Y-108261205D01*
X125211894Y-107660057D01*
X124752363Y-107199722D01*
X124151648Y-106950284D01*
X123501205Y-106949716D01*
X122900057Y-107198106D01*
X122439722Y-107657637D01*
X122190284Y-108258352D01*
X122189716Y-108908795D01*
X120090000Y-108908795D01*
X120090000Y-104175000D01*
X127657560Y-104175000D01*
X127657560Y-105375000D01*
X127701838Y-105610317D01*
X127840910Y-105826441D01*
X128053110Y-105971431D01*
X128305000Y-106022440D01*
X129505000Y-106022440D01*
X129740317Y-105978162D01*
X129867636Y-105896234D01*
X130236036Y-106022807D01*
X130726413Y-105992482D01*
X131038617Y-105863164D01*
X131088130Y-105637735D01*
X130405000Y-104954605D01*
X130390858Y-104968748D01*
X130211253Y-104789143D01*
X130225395Y-104775000D01*
X130584605Y-104775000D01*
X131267735Y-105458130D01*
X131493164Y-105408617D01*
X131652807Y-104943964D01*
X131622482Y-104453587D01*
X131493164Y-104141383D01*
X131267735Y-104091870D01*
X130584605Y-104775000D01*
X130225395Y-104775000D01*
X130211253Y-104760858D01*
X130390858Y-104581253D01*
X130405000Y-104595395D01*
X131088130Y-103912265D01*
X131038617Y-103686836D01*
X130573964Y-103527193D01*
X130083587Y-103557518D01*
X129861010Y-103649711D01*
X129756890Y-103578569D01*
X129505000Y-103527560D01*
X128305000Y-103527560D01*
X128069683Y-103571838D01*
X127853559Y-103710910D01*
X127708569Y-103923110D01*
X127657560Y-104175000D01*
X120090000Y-104175000D01*
X120090000Y-102505000D01*
X142832560Y-102505000D01*
X142832560Y-104505000D01*
X142876838Y-104740317D01*
X143015910Y-104956441D01*
X143228110Y-105101431D01*
X143480000Y-105152440D01*
X146080000Y-105152440D01*
X146315317Y-105108162D01*
X146531441Y-104969090D01*
X146676431Y-104756890D01*
X146727440Y-104505000D01*
X146727440Y-102505000D01*
X147912560Y-102505000D01*
X147912560Y-104505000D01*
X147956838Y-104740317D01*
X148095910Y-104956441D01*
X148308110Y-105101431D01*
X148560000Y-105152440D01*
X151160000Y-105152440D01*
X151395317Y-105108162D01*
X151611441Y-104969090D01*
X151756431Y-104756890D01*
X151807440Y-104505000D01*
X151807440Y-102505000D01*
X152992560Y-102505000D01*
X152992560Y-104505000D01*
X153036838Y-104740317D01*
X153175910Y-104956441D01*
X153388110Y-105101431D01*
X153640000Y-105152440D01*
X156240000Y-105152440D01*
X156475317Y-105108162D01*
X156691441Y-104969090D01*
X156836431Y-104756890D01*
X156887440Y-104505000D01*
X156887440Y-102505000D01*
X158072560Y-102505000D01*
X158072560Y-104505000D01*
X158116838Y-104740317D01*
X158255910Y-104956441D01*
X158468110Y-105101431D01*
X158720000Y-105152440D01*
X161320000Y-105152440D01*
X161555317Y-105108162D01*
X161771441Y-104969090D01*
X161916431Y-104756890D01*
X161967440Y-104505000D01*
X161967440Y-102505000D01*
X161923162Y-102269683D01*
X161784090Y-102053559D01*
X161617380Y-101939651D01*
X161879144Y-101473355D01*
X161910124Y-101345434D01*
X161790777Y-101092000D01*
X160147000Y-101092000D01*
X160147000Y-101112000D01*
X159893000Y-101112000D01*
X159893000Y-101092000D01*
X158249223Y-101092000D01*
X158129876Y-101345434D01*
X158160856Y-101473355D01*
X158423495Y-101941211D01*
X158268559Y-102040910D01*
X158123569Y-102253110D01*
X158072560Y-102505000D01*
X156887440Y-102505000D01*
X156843162Y-102269683D01*
X156704090Y-102053559D01*
X156537380Y-101939651D01*
X156799144Y-101473355D01*
X156830124Y-101345434D01*
X156710777Y-101092000D01*
X155067000Y-101092000D01*
X155067000Y-101112000D01*
X154813000Y-101112000D01*
X154813000Y-101092000D01*
X153169223Y-101092000D01*
X153049876Y-101345434D01*
X153080856Y-101473355D01*
X153343495Y-101941211D01*
X153188559Y-102040910D01*
X153043569Y-102253110D01*
X152992560Y-102505000D01*
X151807440Y-102505000D01*
X151763162Y-102269683D01*
X151624090Y-102053559D01*
X151457380Y-101939651D01*
X151719144Y-101473355D01*
X151750124Y-101345434D01*
X151630777Y-101092000D01*
X149987000Y-101092000D01*
X149987000Y-101112000D01*
X149733000Y-101112000D01*
X149733000Y-101092000D01*
X148089223Y-101092000D01*
X147969876Y-101345434D01*
X148000856Y-101473355D01*
X148263495Y-101941211D01*
X148108559Y-102040910D01*
X147963569Y-102253110D01*
X147912560Y-102505000D01*
X146727440Y-102505000D01*
X146683162Y-102269683D01*
X146544090Y-102053559D01*
X146377380Y-101939651D01*
X146639144Y-101473355D01*
X146670124Y-101345434D01*
X146550777Y-101092000D01*
X144907000Y-101092000D01*
X144907000Y-101112000D01*
X144653000Y-101112000D01*
X144653000Y-101092000D01*
X143009223Y-101092000D01*
X142889876Y-101345434D01*
X142920856Y-101473355D01*
X143183495Y-101941211D01*
X143028559Y-102040910D01*
X142883569Y-102253110D01*
X142832560Y-102505000D01*
X120090000Y-102505000D01*
X120090000Y-100994432D01*
X137159774Y-100994432D01*
X137358789Y-101476086D01*
X137726976Y-101844916D01*
X138208282Y-102044772D01*
X138729432Y-102045226D01*
X139211086Y-101846211D01*
X139579916Y-101478024D01*
X139779772Y-100996718D01*
X139780226Y-100475568D01*
X139581211Y-99993914D01*
X139213024Y-99625084D01*
X139157369Y-99601974D01*
X138470000Y-98914605D01*
X137783279Y-99601326D01*
X137728914Y-99623789D01*
X137360084Y-99991976D01*
X137160228Y-100473282D01*
X137159774Y-100994432D01*
X120090000Y-100994432D01*
X120090000Y-98548100D01*
X137147478Y-98548100D01*
X137176625Y-99068434D01*
X137319672Y-99413781D01*
X137552853Y-99472542D01*
X138290395Y-98735000D01*
X138649605Y-98735000D01*
X139387147Y-99472542D01*
X139620328Y-99413781D01*
X139792522Y-98921900D01*
X139763375Y-98401566D01*
X139620328Y-98056219D01*
X139387147Y-97997458D01*
X138649605Y-98735000D01*
X138290395Y-98735000D01*
X137552853Y-97997458D01*
X137319672Y-98056219D01*
X137147478Y-98548100D01*
X120090000Y-98548100D01*
X120090000Y-97216358D01*
X120153514Y-97216358D01*
X120639522Y-97119685D01*
X120829193Y-97041120D01*
X120895462Y-97013671D01*
X121307480Y-96738370D01*
X121503370Y-96542480D01*
X121778671Y-96130463D01*
X121844785Y-95970849D01*
X121884685Y-95874522D01*
X121981357Y-95388515D01*
X121981357Y-95318587D01*
X121995000Y-95250000D01*
X121995000Y-92984285D01*
X123709760Y-92984285D01*
X123920169Y-93493515D01*
X124309436Y-93883461D01*
X124818298Y-94094759D01*
X125369285Y-94095240D01*
X125878515Y-93884831D01*
X126268461Y-93495564D01*
X126364976Y-93263130D01*
X126460169Y-93493515D01*
X126849436Y-93883461D01*
X127358298Y-94094759D01*
X127909285Y-94095240D01*
X128418515Y-93884831D01*
X128808461Y-93495564D01*
X129019759Y-92986702D01*
X129020240Y-92435715D01*
X128809831Y-91926485D01*
X128420564Y-91536539D01*
X127911702Y-91325241D01*
X127360715Y-91324760D01*
X126851485Y-91535169D01*
X126461539Y-91924436D01*
X126365024Y-92156870D01*
X126269831Y-91926485D01*
X125880564Y-91536539D01*
X125371702Y-91325241D01*
X124820715Y-91324760D01*
X124311485Y-91535169D01*
X123921539Y-91924436D01*
X123710241Y-92433298D01*
X123709760Y-92984285D01*
X121995000Y-92984285D01*
X121995000Y-90170000D01*
X121981357Y-90101413D01*
X121981357Y-90031485D01*
X121884685Y-89545478D01*
X121831678Y-89417508D01*
X121778671Y-89289537D01*
X121503370Y-88877520D01*
X121307480Y-88681630D01*
X120895462Y-88406329D01*
X120789448Y-88362417D01*
X120639522Y-88300315D01*
X120153514Y-88203642D01*
X120090000Y-88203642D01*
X120090000Y-85800000D01*
X137552395Y-85800000D01*
X137360084Y-85991976D01*
M02*
