G04 #@! TF.GenerationSoftware,KiCad,Pcbnew,(5.0.1)-3*
G04 #@! TF.CreationDate,2018-12-07T05:25:01+01:00*
G04 #@! TF.ProjectId,HB-UNI-644,48422D554E492D3634342E6B69636164,2.0*
G04 #@! TF.SameCoordinates,Original*
G04 #@! TF.FileFunction,Legend,Top*
G04 #@! TF.FilePolarity,Positive*
%FSLAX46Y46*%
G04 Gerber Fmt 4.6, Leading zero omitted, Abs format (unit mm)*
G04 Created by KiCad (PCBNEW (5.0.1)-3) date 07.12.2018 05:25:01*
%MOMM*%
%LPD*%
G01*
G04 APERTURE LIST*
%ADD10C,0.150000*%
%ADD11C,0.400000*%
%ADD12C,0.200000*%
%ADD13C,0.120000*%
%ADD14C,0.500000*%
%ADD15R,1.300000X1.500000*%
%ADD16C,1.350000*%
%ADD17R,1.800000X1.350000*%
%ADD18R,2.000000X2.000000*%
%ADD19O,2.000000X2.000000*%
%ADD20C,1.600000*%
%ADD21C,2.900000*%
%ADD22R,1.500000X1.300000*%
%ADD23R,1.250000X1.500000*%
%ADD24R,1.500000X1.250000*%
%ADD25R,1.800000X1.800000*%
%ADD26C,1.800000*%
%ADD27R,1.700000X1.700000*%
%ADD28O,1.700000X1.700000*%
%ADD29R,1.500000X0.550000*%
%ADD30R,0.550000X1.500000*%
%ADD31C,1.500000*%
%ADD32C,1.700000*%
%ADD33R,2.180000X1.600000*%
%ADD34R,1.600000X1.600000*%
%ADD35R,1.100000X4.600000*%
%ADD36R,10.800000X9.400000*%
%ADD37R,1.700000X3.300000*%
%ADD38R,1.350000X1.800000*%
%ADD39C,4.400000*%
%ADD40C,0.700000*%
G04 APERTURE END LIST*
D10*
X111980907Y-103701904D02*
X112147574Y-104501904D01*
X112514241Y-103701904D01*
X113147574Y-104425714D02*
X113104717Y-104463809D01*
X112985669Y-104501904D01*
X112909479Y-104501904D01*
X112799955Y-104463809D01*
X112733288Y-104387619D01*
X112704717Y-104311428D01*
X112685669Y-104159047D01*
X112699955Y-104044761D01*
X112757098Y-103892380D01*
X112804717Y-103816190D01*
X112890431Y-103740000D01*
X113009479Y-103701904D01*
X113085669Y-103701904D01*
X113195193Y-103740000D01*
X113228526Y-103778095D01*
X113947574Y-104425714D02*
X113904717Y-104463809D01*
X113785669Y-104501904D01*
X113709479Y-104501904D01*
X113599955Y-104463809D01*
X113533288Y-104387619D01*
X113504717Y-104311428D01*
X113485669Y-104159047D01*
X113499955Y-104044761D01*
X113557098Y-103892380D01*
X113604717Y-103816190D01*
X113690431Y-103740000D01*
X113809479Y-103701904D01*
X113885669Y-103701904D01*
X113995193Y-103740000D01*
X114028526Y-103778095D01*
X114516145Y-108311904D02*
X114616145Y-107511904D01*
X114806622Y-107511904D01*
X114916145Y-107550000D01*
X114982812Y-107626190D01*
X115011383Y-107702380D01*
X115030431Y-107854761D01*
X115016145Y-107969047D01*
X114959002Y-108121428D01*
X114911383Y-108197619D01*
X114825669Y-108273809D01*
X114706622Y-108311904D01*
X114516145Y-108311904D01*
X115368526Y-107588095D02*
X115411383Y-107550000D01*
X115492336Y-107511904D01*
X115682812Y-107511904D01*
X115754241Y-107550000D01*
X115787574Y-107588095D01*
X115816145Y-107664285D01*
X115806622Y-107740476D01*
X115754241Y-107854761D01*
X115239955Y-108311904D01*
X115735193Y-108311904D01*
X116116145Y-108311904D02*
X116268526Y-108311904D01*
X116349479Y-108273809D01*
X116392336Y-108235714D01*
X116482812Y-108121428D01*
X116539955Y-107969047D01*
X116578050Y-107664285D01*
X116549479Y-107588095D01*
X116516145Y-107550000D01*
X116444717Y-107511904D01*
X116292336Y-107511904D01*
X116211383Y-107550000D01*
X116168526Y-107588095D01*
X116120907Y-107664285D01*
X116097098Y-107854761D01*
X116125669Y-107930952D01*
X116159002Y-107969047D01*
X116230431Y-108007142D01*
X116382812Y-108007142D01*
X116463764Y-107969047D01*
X116506622Y-107930952D01*
X116554241Y-107854761D01*
X114516145Y-109581904D02*
X114616145Y-108781904D01*
X114806622Y-108781904D01*
X114916145Y-108820000D01*
X114982812Y-108896190D01*
X115011383Y-108972380D01*
X115030431Y-109124761D01*
X115016145Y-109239047D01*
X114959002Y-109391428D01*
X114911383Y-109467619D01*
X114825669Y-109543809D01*
X114706622Y-109581904D01*
X114516145Y-109581904D01*
X115368526Y-108858095D02*
X115411383Y-108820000D01*
X115492336Y-108781904D01*
X115682812Y-108781904D01*
X115754241Y-108820000D01*
X115787574Y-108858095D01*
X115816145Y-108934285D01*
X115806622Y-109010476D01*
X115754241Y-109124761D01*
X115239955Y-109581904D01*
X115735193Y-109581904D01*
X116249479Y-109124761D02*
X116178050Y-109086666D01*
X116144717Y-109048571D01*
X116116145Y-108972380D01*
X116120907Y-108934285D01*
X116168526Y-108858095D01*
X116211383Y-108820000D01*
X116292336Y-108781904D01*
X116444717Y-108781904D01*
X116516145Y-108820000D01*
X116549479Y-108858095D01*
X116578050Y-108934285D01*
X116573288Y-108972380D01*
X116525669Y-109048571D01*
X116482812Y-109086666D01*
X116401860Y-109124761D01*
X116249479Y-109124761D01*
X116168526Y-109162857D01*
X116125669Y-109200952D01*
X116078050Y-109277142D01*
X116059002Y-109429523D01*
X116087574Y-109505714D01*
X116120907Y-109543809D01*
X116192336Y-109581904D01*
X116344717Y-109581904D01*
X116425669Y-109543809D01*
X116468526Y-109505714D01*
X116516145Y-109429523D01*
X116535193Y-109277142D01*
X116506622Y-109200952D01*
X116473288Y-109162857D01*
X116401860Y-109124761D01*
X114516145Y-113391904D02*
X114616145Y-112591904D01*
X114806622Y-112591904D01*
X114916145Y-112630000D01*
X114982812Y-112706190D01*
X115011383Y-112782380D01*
X115030431Y-112934761D01*
X115016145Y-113049047D01*
X114959002Y-113201428D01*
X114911383Y-113277619D01*
X114825669Y-113353809D01*
X114706622Y-113391904D01*
X114516145Y-113391904D01*
X115368526Y-112668095D02*
X115411383Y-112630000D01*
X115492336Y-112591904D01*
X115682812Y-112591904D01*
X115754241Y-112630000D01*
X115787574Y-112668095D01*
X115816145Y-112744285D01*
X115806622Y-112820476D01*
X115754241Y-112934761D01*
X115239955Y-113391904D01*
X115735193Y-113391904D01*
X116101860Y-112591904D02*
X116635193Y-112591904D01*
X116192336Y-113391904D01*
X114516145Y-114661904D02*
X114616145Y-113861904D01*
X114806622Y-113861904D01*
X114916145Y-113900000D01*
X114982812Y-113976190D01*
X115011383Y-114052380D01*
X115030431Y-114204761D01*
X115016145Y-114319047D01*
X114959002Y-114471428D01*
X114911383Y-114547619D01*
X114825669Y-114623809D01*
X114706622Y-114661904D01*
X114516145Y-114661904D01*
X115368526Y-113938095D02*
X115411383Y-113900000D01*
X115492336Y-113861904D01*
X115682812Y-113861904D01*
X115754241Y-113900000D01*
X115787574Y-113938095D01*
X115816145Y-114014285D01*
X115806622Y-114090476D01*
X115754241Y-114204761D01*
X115239955Y-114661904D01*
X115735193Y-114661904D01*
X116520907Y-113861904D02*
X116368526Y-113861904D01*
X116287574Y-113900000D01*
X116244717Y-113938095D01*
X116154241Y-114052380D01*
X116097098Y-114204761D01*
X116059002Y-114509523D01*
X116087574Y-114585714D01*
X116120907Y-114623809D01*
X116192336Y-114661904D01*
X116344717Y-114661904D01*
X116425669Y-114623809D01*
X116468526Y-114585714D01*
X116516145Y-114509523D01*
X116539955Y-114319047D01*
X116511383Y-114242857D01*
X116478050Y-114204761D01*
X116406622Y-114166666D01*
X116254241Y-114166666D01*
X116173288Y-114204761D01*
X116130431Y-114242857D01*
X116082812Y-114319047D01*
X138444479Y-111067857D02*
X138711145Y-111067857D01*
X138773050Y-111486904D02*
X138392098Y-111486904D01*
X138492098Y-110686904D01*
X138873050Y-110686904D01*
X139115907Y-111486904D02*
X139215907Y-110686904D01*
X139573050Y-111486904D01*
X139673050Y-110686904D01*
X140608288Y-111486904D02*
X140708288Y-110686904D01*
X140989241Y-111486904D02*
X141089241Y-110686904D01*
X141446383Y-111486904D01*
X141546383Y-110686904D01*
X141865431Y-111182142D02*
X142474955Y-111182142D01*
X142132098Y-111486904D02*
X142208288Y-110877380D01*
X143548288Y-110725000D02*
X143476860Y-110686904D01*
X143362574Y-110686904D01*
X143243526Y-110725000D01*
X143157812Y-110801190D01*
X143110193Y-110877380D01*
X143053050Y-111029761D01*
X143038764Y-111144047D01*
X143057812Y-111296428D01*
X143086383Y-111372619D01*
X143153050Y-111448809D01*
X143262574Y-111486904D01*
X143338764Y-111486904D01*
X143457812Y-111448809D01*
X143500669Y-111410714D01*
X143534002Y-111144047D01*
X143381622Y-111144047D01*
X143834002Y-111486904D02*
X143934002Y-110686904D01*
X144291145Y-111486904D01*
X144391145Y-110686904D01*
X144672098Y-111486904D02*
X144772098Y-110686904D01*
X144962574Y-110686904D01*
X145072098Y-110725000D01*
X145138764Y-110801190D01*
X145167336Y-110877380D01*
X145186383Y-111029761D01*
X145172098Y-111144047D01*
X145114955Y-111296428D01*
X145067336Y-111372619D01*
X144981622Y-111448809D01*
X144862574Y-111486904D01*
X144672098Y-111486904D01*
X145540669Y-110686904D02*
X145707336Y-111486904D01*
X146074002Y-110686904D01*
X146240669Y-111486904D02*
X146340669Y-110686904D01*
X146531145Y-110686904D01*
X146640669Y-110725000D01*
X146707336Y-110801190D01*
X146735907Y-110877380D01*
X146754955Y-111029761D01*
X146740669Y-111144047D01*
X146683526Y-111296428D01*
X146635907Y-111372619D01*
X146550193Y-111448809D01*
X146431145Y-111486904D01*
X146240669Y-111486904D01*
X147078764Y-111182142D02*
X147688288Y-111182142D01*
X147345431Y-111486904D02*
X147421622Y-110877380D01*
X136932142Y-111049285D02*
X136032142Y-111049285D01*
X136675000Y-110749285D01*
X136032142Y-110449285D01*
X136932142Y-110449285D01*
X136932142Y-110020714D02*
X136032142Y-110020714D01*
X136032142Y-109677857D01*
X136075000Y-109592142D01*
X136117857Y-109549285D01*
X136203571Y-109506428D01*
X136332142Y-109506428D01*
X136417857Y-109549285D01*
X136460714Y-109592142D01*
X136503571Y-109677857D01*
X136503571Y-110020714D01*
X136117857Y-109163571D02*
X136075000Y-109120714D01*
X136032142Y-109035000D01*
X136032142Y-108820714D01*
X136075000Y-108735000D01*
X136117857Y-108692142D01*
X136203571Y-108649285D01*
X136289285Y-108649285D01*
X136417857Y-108692142D01*
X136932142Y-109206428D01*
X136932142Y-108649285D01*
X136032142Y-108349285D02*
X136032142Y-107792142D01*
X136375000Y-108092142D01*
X136375000Y-107963571D01*
X136417857Y-107877857D01*
X136460714Y-107835000D01*
X136546428Y-107792142D01*
X136760714Y-107792142D01*
X136846428Y-107835000D01*
X136889285Y-107877857D01*
X136932142Y-107963571D01*
X136932142Y-108220714D01*
X136889285Y-108306428D01*
X136846428Y-108349285D01*
X136932142Y-106935000D02*
X136932142Y-107449285D01*
X136932142Y-107192142D02*
X136032142Y-107192142D01*
X136160714Y-107277857D01*
X136246428Y-107363571D01*
X136289285Y-107449285D01*
X136032142Y-106120714D02*
X136032142Y-106549285D01*
X136460714Y-106592142D01*
X136417857Y-106549285D01*
X136375000Y-106463571D01*
X136375000Y-106249285D01*
X136417857Y-106163571D01*
X136460714Y-106120714D01*
X136546428Y-106077857D01*
X136760714Y-106077857D01*
X136846428Y-106120714D01*
X136889285Y-106163571D01*
X136932142Y-106249285D01*
X136932142Y-106463571D01*
X136889285Y-106549285D01*
X136846428Y-106592142D01*
X111896622Y-79203571D02*
X111829955Y-79736904D01*
X111744241Y-78898809D02*
X111482336Y-79470238D01*
X111977574Y-79470238D01*
X106888050Y-78936904D02*
X106507098Y-78936904D01*
X106421383Y-79317857D01*
X106464241Y-79279761D01*
X106545193Y-79241666D01*
X106735669Y-79241666D01*
X106807098Y-79279761D01*
X106840431Y-79317857D01*
X106869002Y-79394047D01*
X106845193Y-79584523D01*
X106797574Y-79660714D01*
X106754717Y-79698809D01*
X106673764Y-79736904D01*
X106483288Y-79736904D01*
X106411860Y-79698809D01*
X106378526Y-79660714D01*
X114520907Y-126561904D02*
X114687574Y-127361904D01*
X115054241Y-126561904D01*
X115687574Y-127285714D02*
X115644717Y-127323809D01*
X115525669Y-127361904D01*
X115449479Y-127361904D01*
X115339955Y-127323809D01*
X115273288Y-127247619D01*
X115244717Y-127171428D01*
X115225669Y-127019047D01*
X115239955Y-126904761D01*
X115297098Y-126752380D01*
X115344717Y-126676190D01*
X115430431Y-126600000D01*
X115549479Y-126561904D01*
X115625669Y-126561904D01*
X115735193Y-126600000D01*
X115768526Y-126638095D01*
X116487574Y-127285714D02*
X116444717Y-127323809D01*
X116325669Y-127361904D01*
X116249479Y-127361904D01*
X116139955Y-127323809D01*
X116073288Y-127247619D01*
X116044717Y-127171428D01*
X116025669Y-127019047D01*
X116039955Y-126904761D01*
X116097098Y-126752380D01*
X116144717Y-126676190D01*
X116230431Y-126600000D01*
X116349479Y-126561904D01*
X116425669Y-126561904D01*
X116535193Y-126600000D01*
X116568526Y-126638095D01*
D11*
X97419000Y-105819000D02*
G75*
G03X97419000Y-105819000I-200000J0D01*
G01*
D10*
X114516145Y-124821904D02*
X114616145Y-124021904D01*
X114806622Y-124021904D01*
X114916145Y-124060000D01*
X114982812Y-124136190D01*
X115011383Y-124212380D01*
X115030431Y-124364761D01*
X115016145Y-124479047D01*
X114959002Y-124631428D01*
X114911383Y-124707619D01*
X114825669Y-124783809D01*
X114706622Y-124821904D01*
X114516145Y-124821904D01*
X115339955Y-124021904D02*
X115835193Y-124021904D01*
X115530431Y-124326666D01*
X115644717Y-124326666D01*
X115716145Y-124364761D01*
X115749479Y-124402857D01*
X115778050Y-124479047D01*
X115754241Y-124669523D01*
X115706622Y-124745714D01*
X115663764Y-124783809D01*
X115582812Y-124821904D01*
X115354241Y-124821904D01*
X115282812Y-124783809D01*
X115249479Y-124745714D01*
X116330431Y-124021904D02*
X116406622Y-124021904D01*
X116478050Y-124060000D01*
X116511383Y-124098095D01*
X116539955Y-124174285D01*
X116559002Y-124326666D01*
X116535193Y-124517142D01*
X116478050Y-124669523D01*
X116430431Y-124745714D01*
X116387574Y-124783809D01*
X116306622Y-124821904D01*
X116230431Y-124821904D01*
X116159002Y-124783809D01*
X116125669Y-124745714D01*
X116097098Y-124669523D01*
X116078050Y-124517142D01*
X116101860Y-124326666D01*
X116159002Y-124174285D01*
X116206622Y-124098095D01*
X116249479Y-124060000D01*
X116330431Y-124021904D01*
X114897098Y-122281904D02*
X114997098Y-121481904D01*
X115187574Y-121481904D01*
X115297098Y-121520000D01*
X115363764Y-121596190D01*
X115392336Y-121672380D01*
X115411383Y-121824761D01*
X115397098Y-121939047D01*
X115339955Y-122091428D01*
X115292336Y-122167619D01*
X115206622Y-122243809D01*
X115087574Y-122281904D01*
X114897098Y-122281904D01*
X115735193Y-122281904D02*
X115887574Y-122281904D01*
X115968526Y-122243809D01*
X116011383Y-122205714D01*
X116101860Y-122091428D01*
X116159002Y-121939047D01*
X116197098Y-121634285D01*
X116168526Y-121558095D01*
X116135193Y-121520000D01*
X116063764Y-121481904D01*
X115911383Y-121481904D01*
X115830431Y-121520000D01*
X115787574Y-121558095D01*
X115739955Y-121634285D01*
X115716145Y-121824761D01*
X115744717Y-121900952D01*
X115778050Y-121939047D01*
X115849479Y-121977142D01*
X116001860Y-121977142D01*
X116082812Y-121939047D01*
X116125669Y-121900952D01*
X116173288Y-121824761D01*
X114516145Y-119741904D02*
X114616145Y-118941904D01*
X114806622Y-118941904D01*
X114916145Y-118980000D01*
X114982812Y-119056190D01*
X115011383Y-119132380D01*
X115030431Y-119284761D01*
X115016145Y-119399047D01*
X114959002Y-119551428D01*
X114911383Y-119627619D01*
X114825669Y-119703809D01*
X114706622Y-119741904D01*
X114516145Y-119741904D01*
X115368526Y-119018095D02*
X115411383Y-118980000D01*
X115492336Y-118941904D01*
X115682812Y-118941904D01*
X115754241Y-118980000D01*
X115787574Y-119018095D01*
X115816145Y-119094285D01*
X115806622Y-119170476D01*
X115754241Y-119284761D01*
X115239955Y-119741904D01*
X115735193Y-119741904D01*
X116487574Y-119208571D02*
X116420907Y-119741904D01*
X116335193Y-118903809D02*
X116073288Y-119475238D01*
X116568526Y-119475238D01*
X114516145Y-117201904D02*
X114616145Y-116401904D01*
X114806622Y-116401904D01*
X114916145Y-116440000D01*
X114982812Y-116516190D01*
X115011383Y-116592380D01*
X115030431Y-116744761D01*
X115016145Y-116859047D01*
X114959002Y-117011428D01*
X114911383Y-117087619D01*
X114825669Y-117163809D01*
X114706622Y-117201904D01*
X114516145Y-117201904D01*
X115368526Y-116478095D02*
X115411383Y-116440000D01*
X115492336Y-116401904D01*
X115682812Y-116401904D01*
X115754241Y-116440000D01*
X115787574Y-116478095D01*
X115816145Y-116554285D01*
X115806622Y-116630476D01*
X115754241Y-116744761D01*
X115239955Y-117201904D01*
X115735193Y-117201904D01*
X116559002Y-116401904D02*
X116178050Y-116401904D01*
X116092336Y-116782857D01*
X116135193Y-116744761D01*
X116216145Y-116706666D01*
X116406622Y-116706666D01*
X116478050Y-116744761D01*
X116511383Y-116782857D01*
X116539955Y-116859047D01*
X116516145Y-117049523D01*
X116468526Y-117125714D01*
X116425669Y-117163809D01*
X116344717Y-117201904D01*
X116154241Y-117201904D01*
X116082812Y-117163809D01*
X116049479Y-117125714D01*
X123361904Y-99672901D02*
X122561904Y-99572901D01*
X122561904Y-99382425D01*
X122600000Y-99272901D01*
X122676190Y-99206235D01*
X122752380Y-99177663D01*
X122904761Y-99158616D01*
X123019047Y-99172901D01*
X123171428Y-99230044D01*
X123247619Y-99277663D01*
X123323809Y-99363377D01*
X123361904Y-99482425D01*
X123361904Y-99672901D01*
X122561904Y-98849092D02*
X122561904Y-98315758D01*
X123361904Y-98758616D01*
X123361904Y-102172901D02*
X122561904Y-102072901D01*
X122561904Y-101882425D01*
X122600000Y-101772901D01*
X122676190Y-101706235D01*
X122752380Y-101677663D01*
X122904761Y-101658616D01*
X123019047Y-101672901D01*
X123171428Y-101730044D01*
X123247619Y-101777663D01*
X123323809Y-101863377D01*
X123361904Y-101982425D01*
X123361904Y-102172901D01*
X122561904Y-100930044D02*
X122561904Y-101082425D01*
X122600000Y-101163377D01*
X122638095Y-101206235D01*
X122752380Y-101296711D01*
X122904761Y-101353854D01*
X123209523Y-101391949D01*
X123285714Y-101363377D01*
X123323809Y-101330044D01*
X123361904Y-101258616D01*
X123361904Y-101106235D01*
X123323809Y-101025282D01*
X123285714Y-100982425D01*
X123209523Y-100934806D01*
X123019047Y-100910997D01*
X122942857Y-100939568D01*
X122904761Y-100972901D01*
X122866666Y-101044330D01*
X122866666Y-101196711D01*
X122904761Y-101277663D01*
X122942857Y-101320520D01*
X123019047Y-101368139D01*
X112404717Y-101733333D02*
X112785669Y-101733333D01*
X112299955Y-101961904D02*
X112666622Y-101161904D01*
X112833288Y-101961904D01*
X113352336Y-101161904D02*
X113428526Y-101161904D01*
X113499955Y-101200000D01*
X113533288Y-101238095D01*
X113561860Y-101314285D01*
X113580907Y-101466666D01*
X113557098Y-101657142D01*
X113499955Y-101809523D01*
X113452336Y-101885714D01*
X113409479Y-101923809D01*
X113328526Y-101961904D01*
X113252336Y-101961904D01*
X113180907Y-101923809D01*
X113147574Y-101885714D01*
X113119002Y-101809523D01*
X113099955Y-101657142D01*
X113123764Y-101466666D01*
X113180907Y-101314285D01*
X113228526Y-101238095D01*
X113271383Y-101200000D01*
X113352336Y-101161904D01*
X113798333Y-99685282D02*
X113798333Y-99304330D01*
X114026904Y-99790044D02*
X113226904Y-99423377D01*
X114026904Y-99256711D01*
X114026904Y-98570997D02*
X114026904Y-99028139D01*
X114026904Y-98799568D02*
X113226904Y-98699568D01*
X113341190Y-98790044D01*
X113417380Y-98875758D01*
X113455476Y-98956711D01*
X113798333Y-97780282D02*
X113798333Y-97399330D01*
X114026904Y-97885044D02*
X113226904Y-97518377D01*
X114026904Y-97351711D01*
X113303095Y-97032663D02*
X113265000Y-96989806D01*
X113226904Y-96908854D01*
X113226904Y-96718377D01*
X113265000Y-96646949D01*
X113303095Y-96613616D01*
X113379285Y-96585044D01*
X113455476Y-96594568D01*
X113569761Y-96646949D01*
X114026904Y-97161235D01*
X114026904Y-96665997D01*
X112404717Y-94113333D02*
X112785669Y-94113333D01*
X112299955Y-94341904D02*
X112666622Y-93541904D01*
X112833288Y-94341904D01*
X113123764Y-93541904D02*
X113619002Y-93541904D01*
X113314241Y-93846666D01*
X113428526Y-93846666D01*
X113499955Y-93884761D01*
X113533288Y-93922857D01*
X113561860Y-93999047D01*
X113538050Y-94189523D01*
X113490431Y-94265714D01*
X113447574Y-94303809D01*
X113366622Y-94341904D01*
X113138050Y-94341904D01*
X113066622Y-94303809D01*
X113033288Y-94265714D01*
X112404717Y-91573333D02*
X112785669Y-91573333D01*
X112299955Y-91801904D02*
X112666622Y-91001904D01*
X112833288Y-91801904D01*
X113509479Y-91268571D02*
X113442812Y-91801904D01*
X113357098Y-90963809D02*
X113095193Y-91535238D01*
X113590431Y-91535238D01*
X112404717Y-89033333D02*
X112785669Y-89033333D01*
X112299955Y-89261904D02*
X112666622Y-88461904D01*
X112833288Y-89261904D01*
X113580907Y-88461904D02*
X113199955Y-88461904D01*
X113114241Y-88842857D01*
X113157098Y-88804761D01*
X113238050Y-88766666D01*
X113428526Y-88766666D01*
X113499955Y-88804761D01*
X113533288Y-88842857D01*
X113561860Y-88919047D01*
X113538050Y-89109523D01*
X113490431Y-89185714D01*
X113447574Y-89223809D01*
X113366622Y-89261904D01*
X113176145Y-89261904D01*
X113104717Y-89223809D01*
X113071383Y-89185714D01*
X113798333Y-86985282D02*
X113798333Y-86604330D01*
X114026904Y-87090044D02*
X113226904Y-86723377D01*
X114026904Y-86556711D01*
X113226904Y-85847187D02*
X113226904Y-85999568D01*
X113265000Y-86080520D01*
X113303095Y-86123377D01*
X113417380Y-86213854D01*
X113569761Y-86270997D01*
X113874523Y-86309092D01*
X113950714Y-86280520D01*
X113988809Y-86247187D01*
X114026904Y-86175758D01*
X114026904Y-86023377D01*
X113988809Y-85942425D01*
X113950714Y-85899568D01*
X113874523Y-85851949D01*
X113684047Y-85828139D01*
X113607857Y-85856711D01*
X113569761Y-85890044D01*
X113531666Y-85961473D01*
X113531666Y-86113854D01*
X113569761Y-86194806D01*
X113607857Y-86237663D01*
X113684047Y-86285282D01*
X114026904Y-84492901D02*
X113226904Y-84392901D01*
X113226904Y-84202425D01*
X113265000Y-84092901D01*
X113341190Y-84026235D01*
X113417380Y-83997663D01*
X113569761Y-83978616D01*
X113684047Y-83992901D01*
X113836428Y-84050044D01*
X113912619Y-84097663D01*
X113988809Y-84183377D01*
X114026904Y-84302425D01*
X114026904Y-84492901D01*
X113226904Y-83669092D02*
X113226904Y-83173854D01*
X113531666Y-83478616D01*
X113531666Y-83364330D01*
X113569761Y-83292901D01*
X113607857Y-83259568D01*
X113684047Y-83230997D01*
X113874523Y-83254806D01*
X113950714Y-83302425D01*
X113988809Y-83345282D01*
X114026904Y-83426235D01*
X114026904Y-83654806D01*
X113988809Y-83726235D01*
X113950714Y-83759568D01*
X94545431Y-81641904D02*
X94645431Y-80841904D01*
X94840669Y-81413333D01*
X95178764Y-80841904D01*
X95078764Y-81641904D01*
X95712098Y-80841904D02*
X95864479Y-80841904D01*
X95935907Y-80880000D01*
X96002574Y-80956190D01*
X96021622Y-81108571D01*
X95988288Y-81375238D01*
X95931145Y-81527619D01*
X95845431Y-81603809D01*
X95764479Y-81641904D01*
X95612098Y-81641904D01*
X95540669Y-81603809D01*
X95474002Y-81527619D01*
X95454955Y-81375238D01*
X95488288Y-81108571D01*
X95545431Y-80956190D01*
X95631145Y-80880000D01*
X95712098Y-80841904D01*
X96264479Y-81603809D02*
X96374002Y-81641904D01*
X96564479Y-81641904D01*
X96645431Y-81603809D01*
X96688288Y-81565714D01*
X96735907Y-81489523D01*
X96745431Y-81413333D01*
X96716860Y-81337142D01*
X96683526Y-81299047D01*
X96612098Y-81260952D01*
X96464479Y-81222857D01*
X96393050Y-81184761D01*
X96359717Y-81146666D01*
X96331145Y-81070476D01*
X96340669Y-80994285D01*
X96388288Y-80918095D01*
X96431145Y-80880000D01*
X96512098Y-80841904D01*
X96702574Y-80841904D01*
X96812098Y-80880000D01*
X97059717Y-81641904D02*
X97159717Y-80841904D01*
X98010907Y-80841904D02*
X98177574Y-81641904D01*
X98544241Y-80841904D01*
X99177574Y-81565714D02*
X99134717Y-81603809D01*
X99015669Y-81641904D01*
X98939479Y-81641904D01*
X98829955Y-81603809D01*
X98763288Y-81527619D01*
X98734717Y-81451428D01*
X98715669Y-81299047D01*
X98729955Y-81184761D01*
X98787098Y-81032380D01*
X98834717Y-80956190D01*
X98920431Y-80880000D01*
X99039479Y-80841904D01*
X99115669Y-80841904D01*
X99225193Y-80880000D01*
X99258526Y-80918095D01*
X99977574Y-81565714D02*
X99934717Y-81603809D01*
X99815669Y-81641904D01*
X99739479Y-81641904D01*
X99629955Y-81603809D01*
X99563288Y-81527619D01*
X99534717Y-81451428D01*
X99515669Y-81299047D01*
X99529955Y-81184761D01*
X99587098Y-81032380D01*
X99634717Y-80956190D01*
X99720431Y-80880000D01*
X99839479Y-80841904D01*
X99915669Y-80841904D01*
X100025193Y-80880000D01*
X100058526Y-80918095D01*
X92113288Y-80880000D02*
X92041860Y-80841904D01*
X91927574Y-80841904D01*
X91808526Y-80880000D01*
X91722812Y-80956190D01*
X91675193Y-81032380D01*
X91618050Y-81184761D01*
X91603764Y-81299047D01*
X91622812Y-81451428D01*
X91651383Y-81527619D01*
X91718050Y-81603809D01*
X91827574Y-81641904D01*
X91903764Y-81641904D01*
X92022812Y-81603809D01*
X92065669Y-81565714D01*
X92099002Y-81299047D01*
X91946622Y-81299047D01*
X92399002Y-81641904D02*
X92499002Y-80841904D01*
X92856145Y-81641904D01*
X92956145Y-80841904D01*
X93237098Y-81641904D02*
X93337098Y-80841904D01*
X93527574Y-80841904D01*
X93637098Y-80880000D01*
X93703764Y-80956190D01*
X93732336Y-81032380D01*
X93751383Y-81184761D01*
X93737098Y-81299047D01*
X93679955Y-81451428D01*
X93632336Y-81527619D01*
X93546622Y-81603809D01*
X93427574Y-81641904D01*
X93237098Y-81641904D01*
X97720431Y-75291904D02*
X97820431Y-74491904D01*
X98015669Y-75063333D01*
X98353764Y-74491904D01*
X98253764Y-75291904D01*
X98634717Y-75291904D02*
X98734717Y-74491904D01*
X98982336Y-75253809D02*
X99091860Y-75291904D01*
X99282336Y-75291904D01*
X99363288Y-75253809D01*
X99406145Y-75215714D01*
X99453764Y-75139523D01*
X99463288Y-75063333D01*
X99434717Y-74987142D01*
X99401383Y-74949047D01*
X99329955Y-74910952D01*
X99182336Y-74872857D01*
X99110907Y-74834761D01*
X99077574Y-74796666D01*
X99049002Y-74720476D01*
X99058526Y-74644285D01*
X99106145Y-74568095D01*
X99149002Y-74530000D01*
X99229955Y-74491904D01*
X99420431Y-74491904D01*
X99529955Y-74530000D01*
X100029955Y-74491904D02*
X100182336Y-74491904D01*
X100253764Y-74530000D01*
X100320431Y-74606190D01*
X100339479Y-74758571D01*
X100306145Y-75025238D01*
X100249002Y-75177619D01*
X100163288Y-75253809D01*
X100082336Y-75291904D01*
X99929955Y-75291904D01*
X99858526Y-75253809D01*
X99791860Y-75177619D01*
X99772812Y-75025238D01*
X99806145Y-74758571D01*
X99863288Y-74606190D01*
X99949002Y-74530000D01*
X100029955Y-74491904D01*
X94778764Y-75253809D02*
X94888288Y-75291904D01*
X95078764Y-75291904D01*
X95159717Y-75253809D01*
X95202574Y-75215714D01*
X95250193Y-75139523D01*
X95259717Y-75063333D01*
X95231145Y-74987142D01*
X95197812Y-74949047D01*
X95126383Y-74910952D01*
X94978764Y-74872857D01*
X94907336Y-74834761D01*
X94874002Y-74796666D01*
X94845431Y-74720476D01*
X94854955Y-74644285D01*
X94902574Y-74568095D01*
X94945431Y-74530000D01*
X95026383Y-74491904D01*
X95216860Y-74491904D01*
X95326383Y-74530000D01*
X96040669Y-75215714D02*
X95997812Y-75253809D01*
X95878764Y-75291904D01*
X95802574Y-75291904D01*
X95693050Y-75253809D01*
X95626383Y-75177619D01*
X95597812Y-75101428D01*
X95578764Y-74949047D01*
X95593050Y-74834761D01*
X95650193Y-74682380D01*
X95697812Y-74606190D01*
X95783526Y-74530000D01*
X95902574Y-74491904D01*
X95978764Y-74491904D01*
X96088288Y-74530000D01*
X96121622Y-74568095D01*
X96374002Y-75291904D02*
X96474002Y-74491904D01*
X96831145Y-75291904D02*
X96545431Y-74834761D01*
X96931145Y-74491904D02*
X96416860Y-74949047D01*
X91827574Y-75291904D02*
X91608526Y-74910952D01*
X91370431Y-75291904D02*
X91470431Y-74491904D01*
X91775193Y-74491904D01*
X91846622Y-74530000D01*
X91879955Y-74568095D01*
X91908526Y-74644285D01*
X91894241Y-74758571D01*
X91846622Y-74834761D01*
X91803764Y-74872857D01*
X91722812Y-74910952D01*
X91418050Y-74910952D01*
X92137098Y-75253809D02*
X92246622Y-75291904D01*
X92437098Y-75291904D01*
X92518050Y-75253809D01*
X92560907Y-75215714D01*
X92608526Y-75139523D01*
X92618050Y-75063333D01*
X92589479Y-74987142D01*
X92556145Y-74949047D01*
X92484717Y-74910952D01*
X92337098Y-74872857D01*
X92265669Y-74834761D01*
X92232336Y-74796666D01*
X92203764Y-74720476D01*
X92213288Y-74644285D01*
X92260907Y-74568095D01*
X92303764Y-74530000D01*
X92384717Y-74491904D01*
X92575193Y-74491904D01*
X92684717Y-74530000D01*
X92984717Y-74872857D02*
X93251383Y-74872857D01*
X93313288Y-75291904D02*
X92932336Y-75291904D01*
X93032336Y-74491904D01*
X93413288Y-74491904D01*
X93641860Y-74491904D02*
X94099002Y-74491904D01*
X93770431Y-75291904D02*
X93870431Y-74491904D01*
X107428571Y-150476190D02*
X107428571Y-150809523D01*
X107952380Y-150809523D02*
X106952380Y-150809523D01*
X106952380Y-150333333D01*
X106952380Y-150095238D02*
X106952380Y-149523809D01*
X107952380Y-149809523D02*
X106952380Y-149809523D01*
X107952380Y-149190476D02*
X106952380Y-149190476D01*
X106952380Y-148952380D01*
X107000000Y-148809523D01*
X107095238Y-148714285D01*
X107190476Y-148666666D01*
X107380952Y-148619047D01*
X107523809Y-148619047D01*
X107714285Y-148666666D01*
X107809523Y-148714285D01*
X107904761Y-148809523D01*
X107952380Y-148952380D01*
X107952380Y-149190476D01*
X107952380Y-148190476D02*
X106952380Y-148190476D01*
X116425907Y-130371904D02*
X116592574Y-131171904D01*
X116959241Y-130371904D01*
X117592574Y-131095714D02*
X117549717Y-131133809D01*
X117430669Y-131171904D01*
X117354479Y-131171904D01*
X117244955Y-131133809D01*
X117178288Y-131057619D01*
X117149717Y-130981428D01*
X117130669Y-130829047D01*
X117144955Y-130714761D01*
X117202098Y-130562380D01*
X117249717Y-130486190D01*
X117335431Y-130410000D01*
X117454479Y-130371904D01*
X117530669Y-130371904D01*
X117640193Y-130410000D01*
X117673526Y-130448095D01*
X118392574Y-131095714D02*
X118349717Y-131133809D01*
X118230669Y-131171904D01*
X118154479Y-131171904D01*
X118044955Y-131133809D01*
X117978288Y-131057619D01*
X117949717Y-130981428D01*
X117930669Y-130829047D01*
X117944955Y-130714761D01*
X118002098Y-130562380D01*
X118049717Y-130486190D01*
X118135431Y-130410000D01*
X118254479Y-130371904D01*
X118330669Y-130371904D01*
X118440193Y-130410000D01*
X118473526Y-130448095D01*
X116878288Y-132950000D02*
X116806860Y-132911904D01*
X116692574Y-132911904D01*
X116573526Y-132950000D01*
X116487812Y-133026190D01*
X116440193Y-133102380D01*
X116383050Y-133254761D01*
X116368764Y-133369047D01*
X116387812Y-133521428D01*
X116416383Y-133597619D01*
X116483050Y-133673809D01*
X116592574Y-133711904D01*
X116668764Y-133711904D01*
X116787812Y-133673809D01*
X116830669Y-133635714D01*
X116864002Y-133369047D01*
X116711622Y-133369047D01*
X117164002Y-133711904D02*
X117264002Y-132911904D01*
X117621145Y-133711904D01*
X117721145Y-132911904D01*
X118002098Y-133711904D02*
X118102098Y-132911904D01*
X118292574Y-132911904D01*
X118402098Y-132950000D01*
X118468764Y-133026190D01*
X118497336Y-133102380D01*
X118516383Y-133254761D01*
X118502098Y-133369047D01*
X118444955Y-133521428D01*
X118397336Y-133597619D01*
X118311622Y-133673809D01*
X118192574Y-133711904D01*
X118002098Y-133711904D01*
X116444955Y-136213809D02*
X116554479Y-136251904D01*
X116744955Y-136251904D01*
X116825907Y-136213809D01*
X116868764Y-136175714D01*
X116916383Y-136099523D01*
X116925907Y-136023333D01*
X116897336Y-135947142D01*
X116864002Y-135909047D01*
X116792574Y-135870952D01*
X116644955Y-135832857D01*
X116573526Y-135794761D01*
X116540193Y-135756666D01*
X116511622Y-135680476D01*
X116521145Y-135604285D01*
X116568764Y-135528095D01*
X116611622Y-135490000D01*
X116692574Y-135451904D01*
X116883050Y-135451904D01*
X116992574Y-135490000D01*
X117706860Y-136175714D02*
X117664002Y-136213809D01*
X117544955Y-136251904D01*
X117468764Y-136251904D01*
X117359241Y-136213809D01*
X117292574Y-136137619D01*
X117264002Y-136061428D01*
X117244955Y-135909047D01*
X117259241Y-135794761D01*
X117316383Y-135642380D01*
X117364002Y-135566190D01*
X117449717Y-135490000D01*
X117568764Y-135451904D01*
X117644955Y-135451904D01*
X117754479Y-135490000D01*
X117787812Y-135528095D01*
X118421145Y-136251904D02*
X118040193Y-136251904D01*
X118140193Y-135451904D01*
X116425907Y-138753809D02*
X116535431Y-138791904D01*
X116725907Y-138791904D01*
X116806860Y-138753809D01*
X116849717Y-138715714D01*
X116897336Y-138639523D01*
X116906860Y-138563333D01*
X116878288Y-138487142D01*
X116844955Y-138449047D01*
X116773526Y-138410952D01*
X116625907Y-138372857D01*
X116554479Y-138334761D01*
X116521145Y-138296666D01*
X116492574Y-138220476D01*
X116502098Y-138144285D01*
X116549717Y-138068095D01*
X116592574Y-138030000D01*
X116673526Y-137991904D01*
X116864002Y-137991904D01*
X116973526Y-138030000D01*
X117221145Y-138791904D02*
X117321145Y-137991904D01*
X117511622Y-137991904D01*
X117621145Y-138030000D01*
X117687812Y-138106190D01*
X117716383Y-138182380D01*
X117735431Y-138334761D01*
X117721145Y-138449047D01*
X117664002Y-138601428D01*
X117616383Y-138677619D01*
X117530669Y-138753809D01*
X117411622Y-138791904D01*
X117221145Y-138791904D01*
X118011622Y-138563333D02*
X118392574Y-138563333D01*
X117906860Y-138791904D02*
X118273526Y-137991904D01*
X118440193Y-138791904D01*
X107535907Y-138753809D02*
X107645431Y-138791904D01*
X107835907Y-138791904D01*
X107916860Y-138753809D01*
X107959717Y-138715714D01*
X108007336Y-138639523D01*
X108016860Y-138563333D01*
X107988288Y-138487142D01*
X107954955Y-138449047D01*
X107883526Y-138410952D01*
X107735907Y-138372857D01*
X107664479Y-138334761D01*
X107631145Y-138296666D01*
X107602574Y-138220476D01*
X107612098Y-138144285D01*
X107659717Y-138068095D01*
X107702574Y-138030000D01*
X107783526Y-137991904D01*
X107974002Y-137991904D01*
X108083526Y-138030000D01*
X108331145Y-138791904D02*
X108431145Y-137991904D01*
X108621622Y-137991904D01*
X108731145Y-138030000D01*
X108797812Y-138106190D01*
X108826383Y-138182380D01*
X108845431Y-138334761D01*
X108831145Y-138449047D01*
X108774002Y-138601428D01*
X108726383Y-138677619D01*
X108640669Y-138753809D01*
X108521622Y-138791904D01*
X108331145Y-138791904D01*
X109121622Y-138563333D02*
X109502574Y-138563333D01*
X109016860Y-138791904D02*
X109383526Y-137991904D01*
X109550193Y-138791904D01*
X107554955Y-136213809D02*
X107664479Y-136251904D01*
X107854955Y-136251904D01*
X107935907Y-136213809D01*
X107978764Y-136175714D01*
X108026383Y-136099523D01*
X108035907Y-136023333D01*
X108007336Y-135947142D01*
X107974002Y-135909047D01*
X107902574Y-135870952D01*
X107754955Y-135832857D01*
X107683526Y-135794761D01*
X107650193Y-135756666D01*
X107621622Y-135680476D01*
X107631145Y-135604285D01*
X107678764Y-135528095D01*
X107721622Y-135490000D01*
X107802574Y-135451904D01*
X107993050Y-135451904D01*
X108102574Y-135490000D01*
X108816860Y-136175714D02*
X108774002Y-136213809D01*
X108654955Y-136251904D01*
X108578764Y-136251904D01*
X108469241Y-136213809D01*
X108402574Y-136137619D01*
X108374002Y-136061428D01*
X108354955Y-135909047D01*
X108369241Y-135794761D01*
X108426383Y-135642380D01*
X108474002Y-135566190D01*
X108559717Y-135490000D01*
X108678764Y-135451904D01*
X108754955Y-135451904D01*
X108864479Y-135490000D01*
X108897812Y-135528095D01*
X109531145Y-136251904D02*
X109150193Y-136251904D01*
X109250193Y-135451904D01*
X107988288Y-132950000D02*
X107916860Y-132911904D01*
X107802574Y-132911904D01*
X107683526Y-132950000D01*
X107597812Y-133026190D01*
X107550193Y-133102380D01*
X107493050Y-133254761D01*
X107478764Y-133369047D01*
X107497812Y-133521428D01*
X107526383Y-133597619D01*
X107593050Y-133673809D01*
X107702574Y-133711904D01*
X107778764Y-133711904D01*
X107897812Y-133673809D01*
X107940669Y-133635714D01*
X107974002Y-133369047D01*
X107821622Y-133369047D01*
X108274002Y-133711904D02*
X108374002Y-132911904D01*
X108731145Y-133711904D01*
X108831145Y-132911904D01*
X109112098Y-133711904D02*
X109212098Y-132911904D01*
X109402574Y-132911904D01*
X109512098Y-132950000D01*
X109578764Y-133026190D01*
X109607336Y-133102380D01*
X109626383Y-133254761D01*
X109612098Y-133369047D01*
X109554955Y-133521428D01*
X109507336Y-133597619D01*
X109421622Y-133673809D01*
X109302574Y-133711904D01*
X109112098Y-133711904D01*
X107535907Y-130371904D02*
X107702574Y-131171904D01*
X108069241Y-130371904D01*
X108702574Y-131095714D02*
X108659717Y-131133809D01*
X108540669Y-131171904D01*
X108464479Y-131171904D01*
X108354955Y-131133809D01*
X108288288Y-131057619D01*
X108259717Y-130981428D01*
X108240669Y-130829047D01*
X108254955Y-130714761D01*
X108312098Y-130562380D01*
X108359717Y-130486190D01*
X108445431Y-130410000D01*
X108564479Y-130371904D01*
X108640669Y-130371904D01*
X108750193Y-130410000D01*
X108783526Y-130448095D01*
X109502574Y-131095714D02*
X109459717Y-131133809D01*
X109340669Y-131171904D01*
X109264479Y-131171904D01*
X109154955Y-131133809D01*
X109088288Y-131057619D01*
X109059717Y-130981428D01*
X109040669Y-130829047D01*
X109054955Y-130714761D01*
X109112098Y-130562380D01*
X109159717Y-130486190D01*
X109245431Y-130410000D01*
X109364479Y-130371904D01*
X109440669Y-130371904D01*
X109550193Y-130410000D01*
X109583526Y-130448095D01*
X96105907Y-130371904D02*
X96272574Y-131171904D01*
X96639241Y-130371904D01*
X97272574Y-131095714D02*
X97229717Y-131133809D01*
X97110669Y-131171904D01*
X97034479Y-131171904D01*
X96924955Y-131133809D01*
X96858288Y-131057619D01*
X96829717Y-130981428D01*
X96810669Y-130829047D01*
X96824955Y-130714761D01*
X96882098Y-130562380D01*
X96929717Y-130486190D01*
X97015431Y-130410000D01*
X97134479Y-130371904D01*
X97210669Y-130371904D01*
X97320193Y-130410000D01*
X97353526Y-130448095D01*
X98072574Y-131095714D02*
X98029717Y-131133809D01*
X97910669Y-131171904D01*
X97834479Y-131171904D01*
X97724955Y-131133809D01*
X97658288Y-131057619D01*
X97629717Y-130981428D01*
X97610669Y-130829047D01*
X97624955Y-130714761D01*
X97682098Y-130562380D01*
X97729717Y-130486190D01*
X97815431Y-130410000D01*
X97934479Y-130371904D01*
X98010669Y-130371904D01*
X98120193Y-130410000D01*
X98153526Y-130448095D01*
X96558288Y-132950000D02*
X96486860Y-132911904D01*
X96372574Y-132911904D01*
X96253526Y-132950000D01*
X96167812Y-133026190D01*
X96120193Y-133102380D01*
X96063050Y-133254761D01*
X96048764Y-133369047D01*
X96067812Y-133521428D01*
X96096383Y-133597619D01*
X96163050Y-133673809D01*
X96272574Y-133711904D01*
X96348764Y-133711904D01*
X96467812Y-133673809D01*
X96510669Y-133635714D01*
X96544002Y-133369047D01*
X96391622Y-133369047D01*
X96844002Y-133711904D02*
X96944002Y-132911904D01*
X97301145Y-133711904D01*
X97401145Y-132911904D01*
X97682098Y-133711904D02*
X97782098Y-132911904D01*
X97972574Y-132911904D01*
X98082098Y-132950000D01*
X98148764Y-133026190D01*
X98177336Y-133102380D01*
X98196383Y-133254761D01*
X98182098Y-133369047D01*
X98124955Y-133521428D01*
X98077336Y-133597619D01*
X97991622Y-133673809D01*
X97872574Y-133711904D01*
X97682098Y-133711904D01*
X96124955Y-136213809D02*
X96234479Y-136251904D01*
X96424955Y-136251904D01*
X96505907Y-136213809D01*
X96548764Y-136175714D01*
X96596383Y-136099523D01*
X96605907Y-136023333D01*
X96577336Y-135947142D01*
X96544002Y-135909047D01*
X96472574Y-135870952D01*
X96324955Y-135832857D01*
X96253526Y-135794761D01*
X96220193Y-135756666D01*
X96191622Y-135680476D01*
X96201145Y-135604285D01*
X96248764Y-135528095D01*
X96291622Y-135490000D01*
X96372574Y-135451904D01*
X96563050Y-135451904D01*
X96672574Y-135490000D01*
X97386860Y-136175714D02*
X97344002Y-136213809D01*
X97224955Y-136251904D01*
X97148764Y-136251904D01*
X97039241Y-136213809D01*
X96972574Y-136137619D01*
X96944002Y-136061428D01*
X96924955Y-135909047D01*
X96939241Y-135794761D01*
X96996383Y-135642380D01*
X97044002Y-135566190D01*
X97129717Y-135490000D01*
X97248764Y-135451904D01*
X97324955Y-135451904D01*
X97434479Y-135490000D01*
X97467812Y-135528095D01*
X98101145Y-136251904D02*
X97720193Y-136251904D01*
X97820193Y-135451904D01*
X96105907Y-138753809D02*
X96215431Y-138791904D01*
X96405907Y-138791904D01*
X96486860Y-138753809D01*
X96529717Y-138715714D01*
X96577336Y-138639523D01*
X96586860Y-138563333D01*
X96558288Y-138487142D01*
X96524955Y-138449047D01*
X96453526Y-138410952D01*
X96305907Y-138372857D01*
X96234479Y-138334761D01*
X96201145Y-138296666D01*
X96172574Y-138220476D01*
X96182098Y-138144285D01*
X96229717Y-138068095D01*
X96272574Y-138030000D01*
X96353526Y-137991904D01*
X96544002Y-137991904D01*
X96653526Y-138030000D01*
X96901145Y-138791904D02*
X97001145Y-137991904D01*
X97191622Y-137991904D01*
X97301145Y-138030000D01*
X97367812Y-138106190D01*
X97396383Y-138182380D01*
X97415431Y-138334761D01*
X97401145Y-138449047D01*
X97344002Y-138601428D01*
X97296383Y-138677619D01*
X97210669Y-138753809D01*
X97091622Y-138791904D01*
X96901145Y-138791904D01*
X97691622Y-138563333D02*
X98072574Y-138563333D01*
X97586860Y-138791904D02*
X97953526Y-137991904D01*
X98120193Y-138791904D01*
X91452380Y-79476190D02*
X90452380Y-79476190D01*
X91357142Y-78428571D02*
X91404761Y-78476190D01*
X91452380Y-78619047D01*
X91452380Y-78714285D01*
X91404761Y-78857142D01*
X91309523Y-78952380D01*
X91214285Y-79000000D01*
X91023809Y-79047619D01*
X90880952Y-79047619D01*
X90690476Y-79000000D01*
X90595238Y-78952380D01*
X90500000Y-78857142D01*
X90452380Y-78714285D01*
X90452380Y-78619047D01*
X90500000Y-78476190D01*
X90547619Y-78428571D01*
X91404761Y-78047619D02*
X91452380Y-77904761D01*
X91452380Y-77666666D01*
X91404761Y-77571428D01*
X91357142Y-77523809D01*
X91261904Y-77476190D01*
X91166666Y-77476190D01*
X91071428Y-77523809D01*
X91023809Y-77571428D01*
X90976190Y-77666666D01*
X90928571Y-77857142D01*
X90880952Y-77952380D01*
X90833333Y-78000000D01*
X90738095Y-78047619D01*
X90642857Y-78047619D01*
X90547619Y-78000000D01*
X90500000Y-77952380D01*
X90452380Y-77857142D01*
X90452380Y-77619047D01*
X90500000Y-77476190D01*
X91452380Y-77047619D02*
X90452380Y-77047619D01*
X90452380Y-76666666D01*
X90500000Y-76571428D01*
X90547619Y-76523809D01*
X90642857Y-76476190D01*
X90785714Y-76476190D01*
X90880952Y-76523809D01*
X90928571Y-76571428D01*
X90976190Y-76666666D01*
X90976190Y-77047619D01*
D12*
X118471904Y-150994107D02*
X118090952Y-151213154D01*
X118471904Y-151451250D02*
X117671904Y-151351250D01*
X117671904Y-151046488D01*
X117710000Y-150975059D01*
X117748095Y-150941726D01*
X117824285Y-150913154D01*
X117938571Y-150927440D01*
X118014761Y-150975059D01*
X118052857Y-151017916D01*
X118090952Y-151098869D01*
X118090952Y-151403630D01*
X118243333Y-150660773D02*
X118243333Y-150279821D01*
X118471904Y-150765535D02*
X117671904Y-150398869D01*
X118471904Y-150232202D01*
X117671904Y-149941726D02*
X118471904Y-149851250D01*
X117900476Y-149627440D01*
X118471904Y-149546488D01*
X117671904Y-149256011D01*
X118167142Y-149013154D02*
X118167142Y-148403630D01*
X110851904Y-150994107D02*
X110470952Y-151213154D01*
X110851904Y-151451250D02*
X110051904Y-151351250D01*
X110051904Y-151046488D01*
X110090000Y-150975059D01*
X110128095Y-150941726D01*
X110204285Y-150913154D01*
X110318571Y-150927440D01*
X110394761Y-150975059D01*
X110432857Y-151017916D01*
X110470952Y-151098869D01*
X110470952Y-151403630D01*
X110623333Y-150660773D02*
X110623333Y-150279821D01*
X110851904Y-150765535D02*
X110051904Y-150398869D01*
X110851904Y-150232202D01*
X110051904Y-149941726D02*
X110851904Y-149851250D01*
X110280476Y-149627440D01*
X110851904Y-149546488D01*
X110051904Y-149256011D01*
X110547142Y-149013154D02*
X110547142Y-148403630D01*
X110851904Y-148746488D02*
X110242380Y-148670297D01*
D10*
X102908288Y-150730000D02*
X102836860Y-150691904D01*
X102722574Y-150691904D01*
X102603526Y-150730000D01*
X102517812Y-150806190D01*
X102470193Y-150882380D01*
X102413050Y-151034761D01*
X102398764Y-151149047D01*
X102417812Y-151301428D01*
X102446383Y-151377619D01*
X102513050Y-151453809D01*
X102622574Y-151491904D01*
X102698764Y-151491904D01*
X102817812Y-151453809D01*
X102860669Y-151415714D01*
X102894002Y-151149047D01*
X102741622Y-151149047D01*
X103194002Y-151491904D02*
X103294002Y-150691904D01*
X103651145Y-151491904D01*
X103751145Y-150691904D01*
X104032098Y-151491904D02*
X104132098Y-150691904D01*
X104322574Y-150691904D01*
X104432098Y-150730000D01*
X104498764Y-150806190D01*
X104527336Y-150882380D01*
X104546383Y-151034761D01*
X104532098Y-151149047D01*
X104474955Y-151301428D01*
X104427336Y-151377619D01*
X104341622Y-151453809D01*
X104222574Y-151491904D01*
X104032098Y-151491904D01*
X98645907Y-150691904D02*
X98812574Y-151491904D01*
X99179241Y-150691904D01*
X99812574Y-151415714D02*
X99769717Y-151453809D01*
X99650669Y-151491904D01*
X99574479Y-151491904D01*
X99464955Y-151453809D01*
X99398288Y-151377619D01*
X99369717Y-151301428D01*
X99350669Y-151149047D01*
X99364955Y-151034761D01*
X99422098Y-150882380D01*
X99469717Y-150806190D01*
X99555431Y-150730000D01*
X99674479Y-150691904D01*
X99750669Y-150691904D01*
X99860193Y-150730000D01*
X99893526Y-150768095D01*
X100612574Y-151415714D02*
X100569717Y-151453809D01*
X100450669Y-151491904D01*
X100374479Y-151491904D01*
X100264955Y-151453809D01*
X100198288Y-151377619D01*
X100169717Y-151301428D01*
X100150669Y-151149047D01*
X100164955Y-151034761D01*
X100222098Y-150882380D01*
X100269717Y-150806190D01*
X100355431Y-150730000D01*
X100474479Y-150691904D01*
X100550669Y-150691904D01*
X100660193Y-150730000D01*
X100693526Y-150768095D01*
X96539241Y-151491904D02*
X96320193Y-151110952D01*
X96082098Y-151491904D02*
X96182098Y-150691904D01*
X96486860Y-150691904D01*
X96558288Y-150730000D01*
X96591622Y-150768095D01*
X96620193Y-150844285D01*
X96605907Y-150958571D01*
X96558288Y-151034761D01*
X96515431Y-151072857D01*
X96434479Y-151110952D01*
X96129717Y-151110952D01*
X96905907Y-150691904D02*
X97339241Y-151491904D01*
X97439241Y-150691904D02*
X96805907Y-151491904D01*
X97644002Y-151491904D02*
X97744002Y-150691904D01*
X97934479Y-150691904D01*
X98044002Y-150730000D01*
X98110669Y-150806190D01*
X98139241Y-150882380D01*
X98158288Y-151034761D01*
X98144002Y-151149047D01*
X98086860Y-151301428D01*
X98039241Y-151377619D01*
X97953526Y-151453809D01*
X97834479Y-151491904D01*
X97644002Y-151491904D01*
X93623050Y-150691904D02*
X94080193Y-150691904D01*
X93751622Y-151491904D02*
X93851622Y-150691904D01*
X94270669Y-150691904D02*
X94704002Y-151491904D01*
X94804002Y-150691904D02*
X94170669Y-151491904D01*
X95008764Y-151491904D02*
X95108764Y-150691904D01*
X95299241Y-150691904D01*
X95408764Y-150730000D01*
X95475431Y-150806190D01*
X95504002Y-150882380D01*
X95523050Y-151034761D01*
X95508764Y-151149047D01*
X95451622Y-151301428D01*
X95404002Y-151377619D01*
X95318288Y-151453809D01*
X95199241Y-151491904D01*
X95008764Y-151491904D01*
X91078288Y-151491904D02*
X91178288Y-150691904D01*
X91368764Y-150691904D01*
X91478288Y-150730000D01*
X91544955Y-150806190D01*
X91573526Y-150882380D01*
X91592574Y-151034761D01*
X91578288Y-151149047D01*
X91521145Y-151301428D01*
X91473526Y-151377619D01*
X91387812Y-151453809D01*
X91268764Y-151491904D01*
X91078288Y-151491904D01*
X91864002Y-150691904D02*
X92321145Y-150691904D01*
X91992574Y-151491904D02*
X92092574Y-150691904D01*
X92944955Y-151491904D02*
X92725907Y-151110952D01*
X92487812Y-151491904D02*
X92587812Y-150691904D01*
X92892574Y-150691904D01*
X92964002Y-150730000D01*
X92997336Y-150768095D01*
X93025907Y-150844285D01*
X93011622Y-150958571D01*
X92964002Y-151034761D01*
X92921145Y-151072857D01*
X92840193Y-151110952D01*
X92535431Y-151110952D01*
X87215907Y-138753809D02*
X87325431Y-138791904D01*
X87515907Y-138791904D01*
X87596860Y-138753809D01*
X87639717Y-138715714D01*
X87687336Y-138639523D01*
X87696860Y-138563333D01*
X87668288Y-138487142D01*
X87634955Y-138449047D01*
X87563526Y-138410952D01*
X87415907Y-138372857D01*
X87344479Y-138334761D01*
X87311145Y-138296666D01*
X87282574Y-138220476D01*
X87292098Y-138144285D01*
X87339717Y-138068095D01*
X87382574Y-138030000D01*
X87463526Y-137991904D01*
X87654002Y-137991904D01*
X87763526Y-138030000D01*
X88011145Y-138791904D02*
X88111145Y-137991904D01*
X88301622Y-137991904D01*
X88411145Y-138030000D01*
X88477812Y-138106190D01*
X88506383Y-138182380D01*
X88525431Y-138334761D01*
X88511145Y-138449047D01*
X88454002Y-138601428D01*
X88406383Y-138677619D01*
X88320669Y-138753809D01*
X88201622Y-138791904D01*
X88011145Y-138791904D01*
X88801622Y-138563333D02*
X89182574Y-138563333D01*
X88696860Y-138791904D02*
X89063526Y-137991904D01*
X89230193Y-138791904D01*
X87234955Y-136213809D02*
X87344479Y-136251904D01*
X87534955Y-136251904D01*
X87615907Y-136213809D01*
X87658764Y-136175714D01*
X87706383Y-136099523D01*
X87715907Y-136023333D01*
X87687336Y-135947142D01*
X87654002Y-135909047D01*
X87582574Y-135870952D01*
X87434955Y-135832857D01*
X87363526Y-135794761D01*
X87330193Y-135756666D01*
X87301622Y-135680476D01*
X87311145Y-135604285D01*
X87358764Y-135528095D01*
X87401622Y-135490000D01*
X87482574Y-135451904D01*
X87673050Y-135451904D01*
X87782574Y-135490000D01*
X88496860Y-136175714D02*
X88454002Y-136213809D01*
X88334955Y-136251904D01*
X88258764Y-136251904D01*
X88149241Y-136213809D01*
X88082574Y-136137619D01*
X88054002Y-136061428D01*
X88034955Y-135909047D01*
X88049241Y-135794761D01*
X88106383Y-135642380D01*
X88154002Y-135566190D01*
X88239717Y-135490000D01*
X88358764Y-135451904D01*
X88434955Y-135451904D01*
X88544479Y-135490000D01*
X88577812Y-135528095D01*
X89211145Y-136251904D02*
X88830193Y-136251904D01*
X88930193Y-135451904D01*
X87668288Y-132950000D02*
X87596860Y-132911904D01*
X87482574Y-132911904D01*
X87363526Y-132950000D01*
X87277812Y-133026190D01*
X87230193Y-133102380D01*
X87173050Y-133254761D01*
X87158764Y-133369047D01*
X87177812Y-133521428D01*
X87206383Y-133597619D01*
X87273050Y-133673809D01*
X87382574Y-133711904D01*
X87458764Y-133711904D01*
X87577812Y-133673809D01*
X87620669Y-133635714D01*
X87654002Y-133369047D01*
X87501622Y-133369047D01*
X87954002Y-133711904D02*
X88054002Y-132911904D01*
X88411145Y-133711904D01*
X88511145Y-132911904D01*
X88792098Y-133711904D02*
X88892098Y-132911904D01*
X89082574Y-132911904D01*
X89192098Y-132950000D01*
X89258764Y-133026190D01*
X89287336Y-133102380D01*
X89306383Y-133254761D01*
X89292098Y-133369047D01*
X89234955Y-133521428D01*
X89187336Y-133597619D01*
X89101622Y-133673809D01*
X88982574Y-133711904D01*
X88792098Y-133711904D01*
X87215907Y-130371904D02*
X87382574Y-131171904D01*
X87749241Y-130371904D01*
X88382574Y-131095714D02*
X88339717Y-131133809D01*
X88220669Y-131171904D01*
X88144479Y-131171904D01*
X88034955Y-131133809D01*
X87968288Y-131057619D01*
X87939717Y-130981428D01*
X87920669Y-130829047D01*
X87934955Y-130714761D01*
X87992098Y-130562380D01*
X88039717Y-130486190D01*
X88125431Y-130410000D01*
X88244479Y-130371904D01*
X88320669Y-130371904D01*
X88430193Y-130410000D01*
X88463526Y-130448095D01*
X89182574Y-131095714D02*
X89139717Y-131133809D01*
X89020669Y-131171904D01*
X88944479Y-131171904D01*
X88834955Y-131133809D01*
X88768288Y-131057619D01*
X88739717Y-130981428D01*
X88720669Y-130829047D01*
X88734955Y-130714761D01*
X88792098Y-130562380D01*
X88839717Y-130486190D01*
X88925431Y-130410000D01*
X89044479Y-130371904D01*
X89120669Y-130371904D01*
X89230193Y-130410000D01*
X89263526Y-130448095D01*
D13*
G04 #@! TO.C,R12*
X131835000Y-127600000D02*
X131835000Y-126400000D01*
X133595000Y-126400000D02*
X133595000Y-127600000D01*
D10*
G04 #@! TO.C,U2*
X101370000Y-82060000D02*
X101370000Y-82560000D01*
X101370000Y-99060000D02*
X101370000Y-98560000D01*
X82870000Y-87060000D02*
G75*
G03X82870000Y-87060000I-500000J0D01*
G01*
X82870000Y-92060000D02*
G75*
G03X82870000Y-92060000I-500000J0D01*
G01*
X82870000Y-89560000D02*
G75*
G03X82870000Y-89560000I-500000J0D01*
G01*
X101370000Y-99060000D02*
X81370000Y-99060000D01*
X81370000Y-99060000D02*
X81370000Y-82060000D01*
X81370000Y-82060000D02*
X101370000Y-82060000D01*
D13*
G04 #@! TO.C,J11*
X116900000Y-149285000D02*
X116900000Y-146625000D01*
X114300000Y-149285000D02*
X116900000Y-149285000D01*
X114300000Y-146625000D02*
X116900000Y-146625000D01*
X114300000Y-149285000D02*
X114300000Y-146625000D01*
X113030000Y-149285000D02*
X111700000Y-149285000D01*
X111700000Y-149285000D02*
X111700000Y-147955000D01*
D10*
G04 #@! TO.C,BT2*
X134621320Y-88900000D02*
G75*
G03X134621320Y-88900000I-2121320J0D01*
G01*
X134621320Y-133200000D02*
G75*
G03X134621320Y-133200000I-2121320J0D01*
G01*
X141000000Y-140000000D02*
X124000000Y-140000000D01*
X124000000Y-140000000D02*
X124000000Y-83000000D01*
X124000000Y-83000000D02*
X141000000Y-83000000D01*
X141000000Y-83000000D02*
X141000000Y-140000000D01*
G04 #@! TO.C,BT1*
X152621320Y-134100000D02*
G75*
G03X152621320Y-134100000I-2121320J0D01*
G01*
X152621320Y-89800000D02*
G75*
G03X152621320Y-89800000I-2121320J0D01*
G01*
X142000000Y-83000000D02*
X159000000Y-83000000D01*
X159000000Y-83000000D02*
X159000000Y-140000000D01*
X159000000Y-140000000D02*
X142000000Y-140000000D01*
X142000000Y-140000000D02*
X142000000Y-83000000D01*
D13*
G04 #@! TO.C,R6*
X103470000Y-127245000D02*
X102270000Y-127245000D01*
X102270000Y-125485000D02*
X103470000Y-125485000D01*
G04 #@! TO.C,C1*
X111545000Y-114435000D02*
X111545000Y-115435000D01*
X113245000Y-115435000D02*
X113245000Y-114435000D01*
G04 #@! TO.C,C2*
X94250000Y-106700000D02*
X94250000Y-105700000D01*
X92550000Y-105700000D02*
X92550000Y-106700000D01*
G04 #@! TO.C,C3*
X102735000Y-101385000D02*
X101735000Y-101385000D01*
X101735000Y-103085000D02*
X102735000Y-103085000D01*
G04 #@! TO.C,C4*
X102100000Y-120435000D02*
X101100000Y-120435000D01*
X101100000Y-122135000D02*
X102100000Y-122135000D01*
G04 #@! TO.C,C5*
X97925000Y-146900000D02*
X98925000Y-146900000D01*
X98925000Y-145200000D02*
X97925000Y-145200000D01*
G04 #@! TO.C,C6*
X114165000Y-110275000D02*
X113165000Y-110275000D01*
X113165000Y-111975000D02*
X114165000Y-111975000D01*
G04 #@! TO.C,C7*
X91274000Y-111498000D02*
X91274000Y-110498000D01*
X89574000Y-110498000D02*
X89574000Y-111498000D01*
G04 #@! TO.C,C8*
X92114000Y-112022000D02*
X92114000Y-113022000D01*
X93814000Y-113022000D02*
X93814000Y-112022000D01*
G04 #@! TO.C,D1*
X110892335Y-80201392D02*
G75*
G03X107660000Y-80044484I-1672335J-1078608D01*
G01*
X110892335Y-82358608D02*
G75*
G02X107660000Y-82515516I-1672335J1078608D01*
G01*
X110261130Y-80200163D02*
G75*
G03X108179039Y-80200000I-1041130J-1079837D01*
G01*
X110261130Y-82359837D02*
G75*
G02X108179039Y-82360000I-1041130J1079837D01*
G01*
X107660000Y-80044000D02*
X107660000Y-80200000D01*
X107660000Y-82360000D02*
X107660000Y-82516000D01*
G04 #@! TO.C,J1*
X106105000Y-150555000D02*
X106105000Y-147895000D01*
X93345000Y-150555000D02*
X106105000Y-150555000D01*
X93345000Y-147895000D02*
X106105000Y-147895000D01*
X93345000Y-150555000D02*
X93345000Y-147895000D01*
X92075000Y-150555000D02*
X90745000Y-150555000D01*
X90745000Y-150555000D02*
X90745000Y-149225000D01*
G04 #@! TO.C,J3*
X83760000Y-139760000D02*
X86420000Y-139760000D01*
X83760000Y-132080000D02*
X83760000Y-139760000D01*
X86420000Y-132080000D02*
X86420000Y-139760000D01*
X83760000Y-132080000D02*
X86420000Y-132080000D01*
X83760000Y-130810000D02*
X83760000Y-129480000D01*
X83760000Y-129480000D02*
X85090000Y-129480000D01*
G04 #@! TO.C,J5*
X99000000Y-139760000D02*
X101660000Y-139760000D01*
X99000000Y-132080000D02*
X99000000Y-139760000D01*
X101660000Y-132080000D02*
X101660000Y-139760000D01*
X99000000Y-132080000D02*
X101660000Y-132080000D01*
X99000000Y-130810000D02*
X99000000Y-129480000D01*
X99000000Y-129480000D02*
X100330000Y-129480000D01*
G04 #@! TO.C,J6*
X104080000Y-139760000D02*
X106740000Y-139760000D01*
X104080000Y-132080000D02*
X104080000Y-139760000D01*
X106740000Y-132080000D02*
X106740000Y-139760000D01*
X104080000Y-132080000D02*
X106740000Y-132080000D01*
X104080000Y-130810000D02*
X104080000Y-129480000D01*
X104080000Y-129480000D02*
X105410000Y-129480000D01*
G04 #@! TO.C,J7*
X119320000Y-139760000D02*
X121980000Y-139760000D01*
X119320000Y-132080000D02*
X119320000Y-139760000D01*
X121980000Y-132080000D02*
X121980000Y-139760000D01*
X119320000Y-132080000D02*
X121980000Y-132080000D01*
X119320000Y-130810000D02*
X119320000Y-129480000D01*
X119320000Y-129480000D02*
X120650000Y-129480000D01*
G04 #@! TO.C,R1*
X93310000Y-146930000D02*
X92110000Y-146930000D01*
X92110000Y-145170000D02*
X93310000Y-145170000D01*
G04 #@! TO.C,R2*
X110880000Y-86325000D02*
X110880000Y-85125000D01*
X112640000Y-85125000D02*
X112640000Y-86325000D01*
G04 #@! TO.C,R3*
X105800000Y-86325000D02*
X105800000Y-85125000D01*
X107560000Y-85125000D02*
X107560000Y-86325000D01*
G04 #@! TO.C,R5*
X109185000Y-127245000D02*
X107985000Y-127245000D01*
X107985000Y-125485000D02*
X109185000Y-125485000D01*
G04 #@! TO.C,R7*
X93100000Y-126965000D02*
X93100000Y-125765000D01*
X94860000Y-125765000D02*
X94860000Y-126965000D01*
G04 #@! TO.C,R8*
X90560000Y-128235000D02*
X90560000Y-127035000D01*
X92320000Y-127035000D02*
X92320000Y-128235000D01*
D10*
G04 #@! TO.C,U1*
X97695000Y-106585000D02*
X97695000Y-107160000D01*
X108045000Y-106585000D02*
X108045000Y-107260000D01*
X108045000Y-116935000D02*
X108045000Y-116260000D01*
X97695000Y-116935000D02*
X97695000Y-116260000D01*
X97695000Y-106585000D02*
X98370000Y-106585000D01*
X97695000Y-116935000D02*
X98370000Y-116935000D01*
X108045000Y-116935000D02*
X107370000Y-116935000D01*
X108045000Y-106585000D02*
X107370000Y-106585000D01*
X97695000Y-107160000D02*
X96420000Y-107160000D01*
D13*
G04 #@! TO.C,Y1*
X88885000Y-109805000D02*
X88885000Y-116055000D01*
X83835000Y-109805000D02*
X83835000Y-116055000D01*
X83835000Y-109805000D02*
G75*
G02X88885000Y-109805000I2525000J0D01*
G01*
X83835000Y-116055000D02*
G75*
G03X88885000Y-116055000I2525000J0D01*
G01*
G04 #@! TO.C,J10*
X92015000Y-75505000D02*
X92015000Y-80705000D01*
X97155000Y-75505000D02*
X92015000Y-75505000D01*
X99755000Y-80705000D02*
X92015000Y-80705000D01*
X97155000Y-75505000D02*
X97155000Y-78105000D01*
X97155000Y-78105000D02*
X99755000Y-78105000D01*
X99755000Y-78105000D02*
X99755000Y-80705000D01*
X98425000Y-75505000D02*
X99755000Y-75505000D01*
X99755000Y-75505000D02*
X99755000Y-76835000D01*
G04 #@! TO.C,R9*
X113065000Y-105800000D02*
X114265000Y-105800000D01*
X114265000Y-107560000D02*
X113065000Y-107560000D01*
G04 #@! TO.C,R10*
X111515000Y-97755000D02*
X111515000Y-96555000D01*
X113275000Y-96555000D02*
X113275000Y-97755000D01*
G04 #@! TO.C,J13*
X121980000Y-102930000D02*
X121980000Y-97730000D01*
X121920000Y-102930000D02*
X121980000Y-102930000D01*
X119320000Y-97730000D02*
X121980000Y-97730000D01*
X121920000Y-102930000D02*
X121920000Y-100330000D01*
X121920000Y-100330000D02*
X119320000Y-100330000D01*
X119320000Y-100330000D02*
X119320000Y-97730000D01*
X120650000Y-102930000D02*
X119320000Y-102930000D01*
X119320000Y-102930000D02*
X119320000Y-101600000D01*
G04 #@! TO.C,C13*
X104910000Y-97370000D02*
X105910000Y-97370000D01*
X105910000Y-95670000D02*
X104910000Y-95670000D01*
G04 #@! TO.C,C14*
X104910000Y-99910000D02*
X105910000Y-99910000D01*
X105910000Y-98210000D02*
X104910000Y-98210000D01*
G04 #@! TO.C,SW1*
X106160000Y-75025000D02*
X112280000Y-75025000D01*
X112280000Y-75025000D02*
X112280000Y-78645000D01*
X112280000Y-78645000D02*
X106160000Y-78645000D01*
X106160000Y-78645000D02*
X106160000Y-75025000D01*
G04 #@! TO.C,C15*
X90450000Y-124615000D02*
G75*
G03X90450000Y-124615000I-4090000J0D01*
G01*
X82310000Y-124615000D02*
X90410000Y-124615000D01*
X82310000Y-124575000D02*
X90410000Y-124575000D01*
X82310000Y-124535000D02*
X90410000Y-124535000D01*
X82311000Y-124495000D02*
X90409000Y-124495000D01*
X82313000Y-124455000D02*
X90407000Y-124455000D01*
X82314000Y-124415000D02*
X90406000Y-124415000D01*
X82317000Y-124375000D02*
X90403000Y-124375000D01*
X82319000Y-124335000D02*
X90401000Y-124335000D01*
X82322000Y-124295000D02*
X90398000Y-124295000D01*
X82325000Y-124255000D02*
X90395000Y-124255000D01*
X82329000Y-124215000D02*
X90391000Y-124215000D01*
X82333000Y-124175000D02*
X90387000Y-124175000D01*
X82338000Y-124135000D02*
X90382000Y-124135000D01*
X82343000Y-124095000D02*
X90377000Y-124095000D01*
X82348000Y-124055000D02*
X90372000Y-124055000D01*
X82354000Y-124015000D02*
X90366000Y-124015000D01*
X82360000Y-123975000D02*
X90360000Y-123975000D01*
X82366000Y-123935000D02*
X90354000Y-123935000D01*
X82373000Y-123894000D02*
X90347000Y-123894000D01*
X82381000Y-123854000D02*
X90339000Y-123854000D01*
X82389000Y-123814000D02*
X85380000Y-123814000D01*
X87340000Y-123814000D02*
X90331000Y-123814000D01*
X82397000Y-123774000D02*
X85380000Y-123774000D01*
X87340000Y-123774000D02*
X90323000Y-123774000D01*
X82405000Y-123734000D02*
X85380000Y-123734000D01*
X87340000Y-123734000D02*
X90315000Y-123734000D01*
X82414000Y-123694000D02*
X85380000Y-123694000D01*
X87340000Y-123694000D02*
X90306000Y-123694000D01*
X82424000Y-123654000D02*
X85380000Y-123654000D01*
X87340000Y-123654000D02*
X90296000Y-123654000D01*
X82434000Y-123614000D02*
X85380000Y-123614000D01*
X87340000Y-123614000D02*
X90286000Y-123614000D01*
X82444000Y-123574000D02*
X85380000Y-123574000D01*
X87340000Y-123574000D02*
X90276000Y-123574000D01*
X82455000Y-123534000D02*
X85380000Y-123534000D01*
X87340000Y-123534000D02*
X90265000Y-123534000D01*
X82466000Y-123494000D02*
X85380000Y-123494000D01*
X87340000Y-123494000D02*
X90254000Y-123494000D01*
X82477000Y-123454000D02*
X85380000Y-123454000D01*
X87340000Y-123454000D02*
X90243000Y-123454000D01*
X82490000Y-123414000D02*
X85380000Y-123414000D01*
X87340000Y-123414000D02*
X90230000Y-123414000D01*
X82502000Y-123374000D02*
X85380000Y-123374000D01*
X87340000Y-123374000D02*
X90218000Y-123374000D01*
X82515000Y-123334000D02*
X85380000Y-123334000D01*
X87340000Y-123334000D02*
X90205000Y-123334000D01*
X82528000Y-123294000D02*
X85380000Y-123294000D01*
X87340000Y-123294000D02*
X90192000Y-123294000D01*
X82542000Y-123254000D02*
X85380000Y-123254000D01*
X87340000Y-123254000D02*
X90178000Y-123254000D01*
X82557000Y-123214000D02*
X85380000Y-123214000D01*
X87340000Y-123214000D02*
X90163000Y-123214000D01*
X82571000Y-123174000D02*
X85380000Y-123174000D01*
X87340000Y-123174000D02*
X90149000Y-123174000D01*
X82587000Y-123134000D02*
X85380000Y-123134000D01*
X87340000Y-123134000D02*
X90133000Y-123134000D01*
X82602000Y-123094000D02*
X85380000Y-123094000D01*
X87340000Y-123094000D02*
X90118000Y-123094000D01*
X82619000Y-123054000D02*
X85380000Y-123054000D01*
X87340000Y-123054000D02*
X90101000Y-123054000D01*
X82635000Y-123014000D02*
X85380000Y-123014000D01*
X87340000Y-123014000D02*
X90085000Y-123014000D01*
X82653000Y-122974000D02*
X85380000Y-122974000D01*
X87340000Y-122974000D02*
X90067000Y-122974000D01*
X82670000Y-122934000D02*
X85380000Y-122934000D01*
X87340000Y-122934000D02*
X90050000Y-122934000D01*
X82689000Y-122894000D02*
X85380000Y-122894000D01*
X87340000Y-122894000D02*
X90031000Y-122894000D01*
X82708000Y-122854000D02*
X85380000Y-122854000D01*
X87340000Y-122854000D02*
X90012000Y-122854000D01*
X82727000Y-122814000D02*
X85380000Y-122814000D01*
X87340000Y-122814000D02*
X89993000Y-122814000D01*
X82747000Y-122774000D02*
X85380000Y-122774000D01*
X87340000Y-122774000D02*
X89973000Y-122774000D01*
X82767000Y-122734000D02*
X85380000Y-122734000D01*
X87340000Y-122734000D02*
X89953000Y-122734000D01*
X82788000Y-122694000D02*
X85380000Y-122694000D01*
X87340000Y-122694000D02*
X89932000Y-122694000D01*
X82810000Y-122654000D02*
X85380000Y-122654000D01*
X87340000Y-122654000D02*
X89910000Y-122654000D01*
X82832000Y-122614000D02*
X85380000Y-122614000D01*
X87340000Y-122614000D02*
X89888000Y-122614000D01*
X82855000Y-122574000D02*
X85380000Y-122574000D01*
X87340000Y-122574000D02*
X89865000Y-122574000D01*
X82878000Y-122534000D02*
X85380000Y-122534000D01*
X87340000Y-122534000D02*
X89842000Y-122534000D01*
X82902000Y-122494000D02*
X85380000Y-122494000D01*
X87340000Y-122494000D02*
X89818000Y-122494000D01*
X82926000Y-122454000D02*
X85380000Y-122454000D01*
X87340000Y-122454000D02*
X89794000Y-122454000D01*
X82952000Y-122414000D02*
X85380000Y-122414000D01*
X87340000Y-122414000D02*
X89768000Y-122414000D01*
X82977000Y-122374000D02*
X85380000Y-122374000D01*
X87340000Y-122374000D02*
X89743000Y-122374000D01*
X83004000Y-122334000D02*
X85380000Y-122334000D01*
X87340000Y-122334000D02*
X89716000Y-122334000D01*
X83031000Y-122294000D02*
X85380000Y-122294000D01*
X87340000Y-122294000D02*
X89689000Y-122294000D01*
X83059000Y-122254000D02*
X85380000Y-122254000D01*
X87340000Y-122254000D02*
X89661000Y-122254000D01*
X83088000Y-122214000D02*
X85380000Y-122214000D01*
X87340000Y-122214000D02*
X89632000Y-122214000D01*
X83117000Y-122174000D02*
X85380000Y-122174000D01*
X87340000Y-122174000D02*
X89603000Y-122174000D01*
X83147000Y-122134000D02*
X85380000Y-122134000D01*
X87340000Y-122134000D02*
X89573000Y-122134000D01*
X83178000Y-122094000D02*
X85380000Y-122094000D01*
X87340000Y-122094000D02*
X89542000Y-122094000D01*
X83210000Y-122054000D02*
X85380000Y-122054000D01*
X87340000Y-122054000D02*
X89510000Y-122054000D01*
X83242000Y-122014000D02*
X85380000Y-122014000D01*
X87340000Y-122014000D02*
X89478000Y-122014000D01*
X83276000Y-121974000D02*
X85380000Y-121974000D01*
X87340000Y-121974000D02*
X89444000Y-121974000D01*
X83310000Y-121934000D02*
X85380000Y-121934000D01*
X87340000Y-121934000D02*
X89410000Y-121934000D01*
X83345000Y-121894000D02*
X85380000Y-121894000D01*
X87340000Y-121894000D02*
X89375000Y-121894000D01*
X83381000Y-121854000D02*
X89339000Y-121854000D01*
X83418000Y-121814000D02*
X89302000Y-121814000D01*
X83456000Y-121774000D02*
X89264000Y-121774000D01*
X83495000Y-121734000D02*
X89225000Y-121734000D01*
X83536000Y-121694000D02*
X89184000Y-121694000D01*
X83577000Y-121654000D02*
X89143000Y-121654000D01*
X83620000Y-121614000D02*
X89100000Y-121614000D01*
X83663000Y-121574000D02*
X89057000Y-121574000D01*
X83708000Y-121534000D02*
X89012000Y-121534000D01*
X83755000Y-121494000D02*
X88965000Y-121494000D01*
X83803000Y-121454000D02*
X88917000Y-121454000D01*
X83852000Y-121414000D02*
X88868000Y-121414000D01*
X83903000Y-121374000D02*
X88817000Y-121374000D01*
X83956000Y-121334000D02*
X88764000Y-121334000D01*
X84011000Y-121294000D02*
X88709000Y-121294000D01*
X84067000Y-121254000D02*
X88653000Y-121254000D01*
X84126000Y-121214000D02*
X88594000Y-121214000D01*
X84187000Y-121174000D02*
X88533000Y-121174000D01*
X84251000Y-121134000D02*
X88469000Y-121134000D01*
X84317000Y-121094000D02*
X88403000Y-121094000D01*
X84386000Y-121054000D02*
X88334000Y-121054000D01*
X84458000Y-121014000D02*
X88262000Y-121014000D01*
X84534000Y-120974000D02*
X88186000Y-120974000D01*
X84615000Y-120934000D02*
X88105000Y-120934000D01*
X84700000Y-120894000D02*
X88020000Y-120894000D01*
X84790000Y-120854000D02*
X87930000Y-120854000D01*
X84887000Y-120814000D02*
X87833000Y-120814000D01*
X84991000Y-120774000D02*
X87729000Y-120774000D01*
X85106000Y-120734000D02*
X87614000Y-120734000D01*
X85233000Y-120694000D02*
X87487000Y-120694000D01*
X85377000Y-120654000D02*
X87343000Y-120654000D01*
X85546000Y-120614000D02*
X87174000Y-120614000D01*
X85762000Y-120574000D02*
X86958000Y-120574000D01*
X86114000Y-120534000D02*
X86606000Y-120534000D01*
X86360000Y-128565000D02*
X86360000Y-127365000D01*
X85710000Y-127965000D02*
X87010000Y-127965000D01*
G04 #@! TO.C,J8*
X119440000Y-82490000D02*
X114240000Y-82490000D01*
X119440000Y-102870000D02*
X119440000Y-82490000D01*
X114240000Y-105470000D02*
X114240000Y-82490000D01*
X119440000Y-102870000D02*
X116840000Y-102870000D01*
X116840000Y-102870000D02*
X116840000Y-105470000D01*
X116840000Y-105470000D02*
X114240000Y-105470000D01*
X119440000Y-104140000D02*
X119440000Y-105470000D01*
X119440000Y-105470000D02*
X118110000Y-105470000D01*
G04 #@! TO.C,J9*
X121980000Y-105350000D02*
X116780000Y-105350000D01*
X121980000Y-125730000D02*
X121980000Y-105350000D01*
X116780000Y-128330000D02*
X116780000Y-105350000D01*
X121980000Y-125730000D02*
X119380000Y-125730000D01*
X119380000Y-125730000D02*
X119380000Y-128330000D01*
X119380000Y-128330000D02*
X116780000Y-128330000D01*
X121980000Y-127000000D02*
X121980000Y-128330000D01*
X121980000Y-128330000D02*
X120650000Y-128330000D01*
G04 #@! TO.C,J12*
X137735000Y-107255000D02*
X137735000Y-109915000D01*
X145415000Y-107255000D02*
X137735000Y-107255000D01*
X145415000Y-109915000D02*
X137735000Y-109915000D01*
X145415000Y-107255000D02*
X145415000Y-109915000D01*
X146685000Y-107255000D02*
X148015000Y-107255000D01*
X148015000Y-107255000D02*
X148015000Y-108585000D01*
G04 #@! TO.C,Q3*
X137675000Y-124005000D02*
X137675000Y-125505000D01*
X137675000Y-125505000D02*
X139485000Y-125505000D01*
X139485000Y-125505000D02*
X139485000Y-130630000D01*
X148075000Y-124005000D02*
X148075000Y-125505000D01*
X148075000Y-125505000D02*
X146265000Y-125505000D01*
X146265000Y-125505000D02*
X146265000Y-126605000D01*
G04 #@! TO.C,D2*
X133715000Y-121495000D02*
X133715000Y-114195000D01*
X133715000Y-114195000D02*
X131715000Y-114195000D01*
X131715000Y-114195000D02*
X131715000Y-121495000D01*
D10*
G04 #@! TO.C,U5*
X98280000Y-102005000D02*
X97780000Y-102005000D01*
X81280000Y-102005000D02*
X81780000Y-102005000D01*
X93780000Y-83005000D02*
G75*
G03X93780000Y-83005000I-500000J0D01*
G01*
X88780000Y-83005000D02*
G75*
G03X88780000Y-83005000I-500000J0D01*
G01*
X91280000Y-83005000D02*
G75*
G03X91280000Y-83005000I-500000J0D01*
G01*
X81280000Y-102005000D02*
X81280000Y-82005000D01*
X81280000Y-82005000D02*
X98280000Y-82005000D01*
X98280000Y-82005000D02*
X98280000Y-102005000D01*
G04 #@! TO.C,R12*
X131262380Y-127642857D02*
X130786190Y-127976190D01*
X131262380Y-128214285D02*
X130262380Y-128214285D01*
X130262380Y-127833333D01*
X130310000Y-127738095D01*
X130357619Y-127690476D01*
X130452857Y-127642857D01*
X130595714Y-127642857D01*
X130690952Y-127690476D01*
X130738571Y-127738095D01*
X130786190Y-127833333D01*
X130786190Y-128214285D01*
X131262380Y-126690476D02*
X131262380Y-127261904D01*
X131262380Y-126976190D02*
X130262380Y-126976190D01*
X130405238Y-127071428D01*
X130500476Y-127166666D01*
X130548095Y-127261904D01*
X130357619Y-126309523D02*
X130310000Y-126261904D01*
X130262380Y-126166666D01*
X130262380Y-125928571D01*
X130310000Y-125833333D01*
X130357619Y-125785714D01*
X130452857Y-125738095D01*
X130548095Y-125738095D01*
X130690952Y-125785714D01*
X131262380Y-126357142D01*
X131262380Y-125738095D01*
G04 #@! TO.C,U2*
X102952380Y-84761904D02*
X103761904Y-84761904D01*
X103857142Y-84714285D01*
X103904761Y-84666666D01*
X103952380Y-84571428D01*
X103952380Y-84380952D01*
X103904761Y-84285714D01*
X103857142Y-84238095D01*
X103761904Y-84190476D01*
X102952380Y-84190476D01*
X103047619Y-83761904D02*
X103000000Y-83714285D01*
X102952380Y-83619047D01*
X102952380Y-83380952D01*
X103000000Y-83285714D01*
X103047619Y-83238095D01*
X103142857Y-83190476D01*
X103238095Y-83190476D01*
X103380952Y-83238095D01*
X103952380Y-83809523D01*
X103952380Y-83190476D01*
G04 #@! TO.C,BT2*
D14*
X132514285Y-90042857D02*
X132514285Y-87757142D01*
X133657142Y-88900000D02*
X131371428Y-88900000D01*
X132514285Y-134342857D02*
X132514285Y-132057142D01*
G04 #@! TO.C,BT1*
X150914285Y-135242857D02*
X150914285Y-132957142D01*
X152057142Y-134100000D02*
X149771428Y-134100000D01*
X150914285Y-90942857D02*
X150914285Y-88657142D01*
G04 #@! TO.C,R6*
D10*
X102703333Y-125117380D02*
X102370000Y-124641190D01*
X102131904Y-125117380D02*
X102131904Y-124117380D01*
X102512857Y-124117380D01*
X102608095Y-124165000D01*
X102655714Y-124212619D01*
X102703333Y-124307857D01*
X102703333Y-124450714D01*
X102655714Y-124545952D01*
X102608095Y-124593571D01*
X102512857Y-124641190D01*
X102131904Y-124641190D01*
X103560476Y-124117380D02*
X103370000Y-124117380D01*
X103274761Y-124165000D01*
X103227142Y-124212619D01*
X103131904Y-124355476D01*
X103084285Y-124545952D01*
X103084285Y-124926904D01*
X103131904Y-125022142D01*
X103179523Y-125069761D01*
X103274761Y-125117380D01*
X103465238Y-125117380D01*
X103560476Y-125069761D01*
X103608095Y-125022142D01*
X103655714Y-124926904D01*
X103655714Y-124688809D01*
X103608095Y-124593571D01*
X103560476Y-124545952D01*
X103465238Y-124498333D01*
X103274761Y-124498333D01*
X103179523Y-124545952D01*
X103131904Y-124593571D01*
X103084285Y-124688809D01*
G04 #@! TO.C,C1*
X110847142Y-115101666D02*
X110894761Y-115149285D01*
X110942380Y-115292142D01*
X110942380Y-115387380D01*
X110894761Y-115530238D01*
X110799523Y-115625476D01*
X110704285Y-115673095D01*
X110513809Y-115720714D01*
X110370952Y-115720714D01*
X110180476Y-115673095D01*
X110085238Y-115625476D01*
X109990000Y-115530238D01*
X109942380Y-115387380D01*
X109942380Y-115292142D01*
X109990000Y-115149285D01*
X110037619Y-115101666D01*
X110942380Y-114149285D02*
X110942380Y-114720714D01*
X110942380Y-114435000D02*
X109942380Y-114435000D01*
X110085238Y-114530238D01*
X110180476Y-114625476D01*
X110228095Y-114720714D01*
G04 #@! TO.C,C2*
X91797142Y-106211666D02*
X91844761Y-106259285D01*
X91892380Y-106402142D01*
X91892380Y-106497380D01*
X91844761Y-106640238D01*
X91749523Y-106735476D01*
X91654285Y-106783095D01*
X91463809Y-106830714D01*
X91320952Y-106830714D01*
X91130476Y-106783095D01*
X91035238Y-106735476D01*
X90940000Y-106640238D01*
X90892380Y-106497380D01*
X90892380Y-106402142D01*
X90940000Y-106259285D01*
X90987619Y-106211666D01*
X90987619Y-105830714D02*
X90940000Y-105783095D01*
X90892380Y-105687857D01*
X90892380Y-105449761D01*
X90940000Y-105354523D01*
X90987619Y-105306904D01*
X91082857Y-105259285D01*
X91178095Y-105259285D01*
X91320952Y-105306904D01*
X91892380Y-105878333D01*
X91892380Y-105259285D01*
G04 #@! TO.C,C3*
X102068333Y-104497142D02*
X102020714Y-104544761D01*
X101877857Y-104592380D01*
X101782619Y-104592380D01*
X101639761Y-104544761D01*
X101544523Y-104449523D01*
X101496904Y-104354285D01*
X101449285Y-104163809D01*
X101449285Y-104020952D01*
X101496904Y-103830476D01*
X101544523Y-103735238D01*
X101639761Y-103640000D01*
X101782619Y-103592380D01*
X101877857Y-103592380D01*
X102020714Y-103640000D01*
X102068333Y-103687619D01*
X102401666Y-103592380D02*
X103020714Y-103592380D01*
X102687380Y-103973333D01*
X102830238Y-103973333D01*
X102925476Y-104020952D01*
X102973095Y-104068571D01*
X103020714Y-104163809D01*
X103020714Y-104401904D01*
X102973095Y-104497142D01*
X102925476Y-104544761D01*
X102830238Y-104592380D01*
X102544523Y-104592380D01*
X102449285Y-104544761D01*
X102401666Y-104497142D01*
G04 #@! TO.C,C4*
X98258333Y-121642142D02*
X98210714Y-121689761D01*
X98067857Y-121737380D01*
X97972619Y-121737380D01*
X97829761Y-121689761D01*
X97734523Y-121594523D01*
X97686904Y-121499285D01*
X97639285Y-121308809D01*
X97639285Y-121165952D01*
X97686904Y-120975476D01*
X97734523Y-120880238D01*
X97829761Y-120785000D01*
X97972619Y-120737380D01*
X98067857Y-120737380D01*
X98210714Y-120785000D01*
X98258333Y-120832619D01*
X99115476Y-121070714D02*
X99115476Y-121737380D01*
X98877380Y-120689761D02*
X98639285Y-121404047D01*
X99258333Y-121404047D01*
G04 #@! TO.C,C5*
X98258333Y-144502142D02*
X98210714Y-144549761D01*
X98067857Y-144597380D01*
X97972619Y-144597380D01*
X97829761Y-144549761D01*
X97734523Y-144454523D01*
X97686904Y-144359285D01*
X97639285Y-144168809D01*
X97639285Y-144025952D01*
X97686904Y-143835476D01*
X97734523Y-143740238D01*
X97829761Y-143645000D01*
X97972619Y-143597380D01*
X98067857Y-143597380D01*
X98210714Y-143645000D01*
X98258333Y-143692619D01*
X99163095Y-143597380D02*
X98686904Y-143597380D01*
X98639285Y-144073571D01*
X98686904Y-144025952D01*
X98782142Y-143978333D01*
X99020238Y-143978333D01*
X99115476Y-144025952D01*
X99163095Y-144073571D01*
X99210714Y-144168809D01*
X99210714Y-144406904D01*
X99163095Y-144502142D01*
X99115476Y-144549761D01*
X99020238Y-144597380D01*
X98782142Y-144597380D01*
X98686904Y-144549761D01*
X98639285Y-144502142D01*
G04 #@! TO.C,C6*
X112228333Y-109577142D02*
X112180714Y-109624761D01*
X112037857Y-109672380D01*
X111942619Y-109672380D01*
X111799761Y-109624761D01*
X111704523Y-109529523D01*
X111656904Y-109434285D01*
X111609285Y-109243809D01*
X111609285Y-109100952D01*
X111656904Y-108910476D01*
X111704523Y-108815238D01*
X111799761Y-108720000D01*
X111942619Y-108672380D01*
X112037857Y-108672380D01*
X112180714Y-108720000D01*
X112228333Y-108767619D01*
X113085476Y-108672380D02*
X112895000Y-108672380D01*
X112799761Y-108720000D01*
X112752142Y-108767619D01*
X112656904Y-108910476D01*
X112609285Y-109100952D01*
X112609285Y-109481904D01*
X112656904Y-109577142D01*
X112704523Y-109624761D01*
X112799761Y-109672380D01*
X112990238Y-109672380D01*
X113085476Y-109624761D01*
X113133095Y-109577142D01*
X113180714Y-109481904D01*
X113180714Y-109243809D01*
X113133095Y-109148571D01*
X113085476Y-109100952D01*
X112990238Y-109053333D01*
X112799761Y-109053333D01*
X112704523Y-109100952D01*
X112656904Y-109148571D01*
X112609285Y-109243809D01*
G04 #@! TO.C,C7*
X91162142Y-114466666D02*
X91209761Y-114514285D01*
X91257380Y-114657142D01*
X91257380Y-114752380D01*
X91209761Y-114895238D01*
X91114523Y-114990476D01*
X91019285Y-115038095D01*
X90828809Y-115085714D01*
X90685952Y-115085714D01*
X90495476Y-115038095D01*
X90400238Y-114990476D01*
X90305000Y-114895238D01*
X90257380Y-114752380D01*
X90257380Y-114657142D01*
X90305000Y-114514285D01*
X90352619Y-114466666D01*
X90257380Y-114133333D02*
X90257380Y-113466666D01*
X91257380Y-113895238D01*
G04 #@! TO.C,C8*
X94972142Y-112561666D02*
X95019761Y-112609285D01*
X95067380Y-112752142D01*
X95067380Y-112847380D01*
X95019761Y-112990238D01*
X94924523Y-113085476D01*
X94829285Y-113133095D01*
X94638809Y-113180714D01*
X94495952Y-113180714D01*
X94305476Y-113133095D01*
X94210238Y-113085476D01*
X94115000Y-112990238D01*
X94067380Y-112847380D01*
X94067380Y-112752142D01*
X94115000Y-112609285D01*
X94162619Y-112561666D01*
X94495952Y-111990238D02*
X94448333Y-112085476D01*
X94400714Y-112133095D01*
X94305476Y-112180714D01*
X94257857Y-112180714D01*
X94162619Y-112133095D01*
X94115000Y-112085476D01*
X94067380Y-111990238D01*
X94067380Y-111799761D01*
X94115000Y-111704523D01*
X94162619Y-111656904D01*
X94257857Y-111609285D01*
X94305476Y-111609285D01*
X94400714Y-111656904D01*
X94448333Y-111704523D01*
X94495952Y-111799761D01*
X94495952Y-111990238D01*
X94543571Y-112085476D01*
X94591190Y-112133095D01*
X94686428Y-112180714D01*
X94876904Y-112180714D01*
X94972142Y-112133095D01*
X95019761Y-112085476D01*
X95067380Y-111990238D01*
X95067380Y-111799761D01*
X95019761Y-111704523D01*
X94972142Y-111656904D01*
X94876904Y-111609285D01*
X94686428Y-111609285D01*
X94591190Y-111656904D01*
X94543571Y-111704523D01*
X94495952Y-111799761D01*
G04 #@! TO.C,D1*
X103401904Y-81732380D02*
X103401904Y-80732380D01*
X103640000Y-80732380D01*
X103782857Y-80780000D01*
X103878095Y-80875238D01*
X103925714Y-80970476D01*
X103973333Y-81160952D01*
X103973333Y-81303809D01*
X103925714Y-81494285D01*
X103878095Y-81589523D01*
X103782857Y-81684761D01*
X103640000Y-81732380D01*
X103401904Y-81732380D01*
X104925714Y-81732380D02*
X104354285Y-81732380D01*
X104640000Y-81732380D02*
X104640000Y-80732380D01*
X104544761Y-80875238D01*
X104449523Y-80970476D01*
X104354285Y-81018095D01*
G04 #@! TO.C,R1*
X92543333Y-144597380D02*
X92210000Y-144121190D01*
X91971904Y-144597380D02*
X91971904Y-143597380D01*
X92352857Y-143597380D01*
X92448095Y-143645000D01*
X92495714Y-143692619D01*
X92543333Y-143787857D01*
X92543333Y-143930714D01*
X92495714Y-144025952D01*
X92448095Y-144073571D01*
X92352857Y-144121190D01*
X91971904Y-144121190D01*
X93495714Y-144597380D02*
X92924285Y-144597380D01*
X93210000Y-144597380D02*
X93210000Y-143597380D01*
X93114761Y-143740238D01*
X93019523Y-143835476D01*
X92924285Y-143883095D01*
G04 #@! TO.C,R2*
X110307380Y-87161666D02*
X109831190Y-87495000D01*
X110307380Y-87733095D02*
X109307380Y-87733095D01*
X109307380Y-87352142D01*
X109355000Y-87256904D01*
X109402619Y-87209285D01*
X109497857Y-87161666D01*
X109640714Y-87161666D01*
X109735952Y-87209285D01*
X109783571Y-87256904D01*
X109831190Y-87352142D01*
X109831190Y-87733095D01*
X109402619Y-86780714D02*
X109355000Y-86733095D01*
X109307380Y-86637857D01*
X109307380Y-86399761D01*
X109355000Y-86304523D01*
X109402619Y-86256904D01*
X109497857Y-86209285D01*
X109593095Y-86209285D01*
X109735952Y-86256904D01*
X110307380Y-86828333D01*
X110307380Y-86209285D01*
G04 #@! TO.C,R3*
X109037380Y-84621666D02*
X108561190Y-84955000D01*
X109037380Y-85193095D02*
X108037380Y-85193095D01*
X108037380Y-84812142D01*
X108085000Y-84716904D01*
X108132619Y-84669285D01*
X108227857Y-84621666D01*
X108370714Y-84621666D01*
X108465952Y-84669285D01*
X108513571Y-84716904D01*
X108561190Y-84812142D01*
X108561190Y-85193095D01*
X108037380Y-84288333D02*
X108037380Y-83669285D01*
X108418333Y-84002619D01*
X108418333Y-83859761D01*
X108465952Y-83764523D01*
X108513571Y-83716904D01*
X108608809Y-83669285D01*
X108846904Y-83669285D01*
X108942142Y-83716904D01*
X108989761Y-83764523D01*
X109037380Y-83859761D01*
X109037380Y-84145476D01*
X108989761Y-84240714D01*
X108942142Y-84288333D01*
G04 #@! TO.C,R5*
X108418333Y-125117380D02*
X108085000Y-124641190D01*
X107846904Y-125117380D02*
X107846904Y-124117380D01*
X108227857Y-124117380D01*
X108323095Y-124165000D01*
X108370714Y-124212619D01*
X108418333Y-124307857D01*
X108418333Y-124450714D01*
X108370714Y-124545952D01*
X108323095Y-124593571D01*
X108227857Y-124641190D01*
X107846904Y-124641190D01*
X109323095Y-124117380D02*
X108846904Y-124117380D01*
X108799285Y-124593571D01*
X108846904Y-124545952D01*
X108942142Y-124498333D01*
X109180238Y-124498333D01*
X109275476Y-124545952D01*
X109323095Y-124593571D01*
X109370714Y-124688809D01*
X109370714Y-124926904D01*
X109323095Y-125022142D01*
X109275476Y-125069761D01*
X109180238Y-125117380D01*
X108942142Y-125117380D01*
X108846904Y-125069761D01*
X108799285Y-125022142D01*
G04 #@! TO.C,R7*
X94432380Y-122721666D02*
X93956190Y-123055000D01*
X94432380Y-123293095D02*
X93432380Y-123293095D01*
X93432380Y-122912142D01*
X93480000Y-122816904D01*
X93527619Y-122769285D01*
X93622857Y-122721666D01*
X93765714Y-122721666D01*
X93860952Y-122769285D01*
X93908571Y-122816904D01*
X93956190Y-122912142D01*
X93956190Y-123293095D01*
X93432380Y-122388333D02*
X93432380Y-121721666D01*
X94432380Y-122150238D01*
G04 #@! TO.C,R8*
X91892380Y-123991666D02*
X91416190Y-124325000D01*
X91892380Y-124563095D02*
X90892380Y-124563095D01*
X90892380Y-124182142D01*
X90940000Y-124086904D01*
X90987619Y-124039285D01*
X91082857Y-123991666D01*
X91225714Y-123991666D01*
X91320952Y-124039285D01*
X91368571Y-124086904D01*
X91416190Y-124182142D01*
X91416190Y-124563095D01*
X91320952Y-123420238D02*
X91273333Y-123515476D01*
X91225714Y-123563095D01*
X91130476Y-123610714D01*
X91082857Y-123610714D01*
X90987619Y-123563095D01*
X90940000Y-123515476D01*
X90892380Y-123420238D01*
X90892380Y-123229761D01*
X90940000Y-123134523D01*
X90987619Y-123086904D01*
X91082857Y-123039285D01*
X91130476Y-123039285D01*
X91225714Y-123086904D01*
X91273333Y-123134523D01*
X91320952Y-123229761D01*
X91320952Y-123420238D01*
X91368571Y-123515476D01*
X91416190Y-123563095D01*
X91511428Y-123610714D01*
X91701904Y-123610714D01*
X91797142Y-123563095D01*
X91844761Y-123515476D01*
X91892380Y-123420238D01*
X91892380Y-123229761D01*
X91844761Y-123134523D01*
X91797142Y-123086904D01*
X91701904Y-123039285D01*
X91511428Y-123039285D01*
X91416190Y-123086904D01*
X91368571Y-123134523D01*
X91320952Y-123229761D01*
G04 #@! TO.C,U1*
X108458095Y-116927380D02*
X108458095Y-117736904D01*
X108505714Y-117832142D01*
X108553333Y-117879761D01*
X108648571Y-117927380D01*
X108839047Y-117927380D01*
X108934285Y-117879761D01*
X108981904Y-117832142D01*
X109029523Y-117736904D01*
X109029523Y-116927380D01*
X110029523Y-117927380D02*
X109458095Y-117927380D01*
X109743809Y-117927380D02*
X109743809Y-116927380D01*
X109648571Y-117070238D01*
X109553333Y-117165476D01*
X109458095Y-117213095D01*
G04 #@! TO.C,Y1*
X89511190Y-117951190D02*
X89987380Y-117951190D01*
X88987380Y-118284523D02*
X89511190Y-117951190D01*
X88987380Y-117617857D01*
X89987380Y-116760714D02*
X89987380Y-117332142D01*
X89987380Y-117046428D02*
X88987380Y-117046428D01*
X89130238Y-117141666D01*
X89225476Y-117236904D01*
X89273095Y-117332142D01*
G04 #@! TO.C,R9*
X110333333Y-105452380D02*
X110000000Y-104976190D01*
X109761904Y-105452380D02*
X109761904Y-104452380D01*
X110142857Y-104452380D01*
X110238095Y-104500000D01*
X110285714Y-104547619D01*
X110333333Y-104642857D01*
X110333333Y-104785714D01*
X110285714Y-104880952D01*
X110238095Y-104928571D01*
X110142857Y-104976190D01*
X109761904Y-104976190D01*
X110809523Y-105452380D02*
X111000000Y-105452380D01*
X111095238Y-105404761D01*
X111142857Y-105357142D01*
X111238095Y-105214285D01*
X111285714Y-105023809D01*
X111285714Y-104642857D01*
X111238095Y-104547619D01*
X111190476Y-104500000D01*
X111095238Y-104452380D01*
X110904761Y-104452380D01*
X110809523Y-104500000D01*
X110761904Y-104547619D01*
X110714285Y-104642857D01*
X110714285Y-104880952D01*
X110761904Y-104976190D01*
X110809523Y-105023809D01*
X110904761Y-105071428D01*
X111095238Y-105071428D01*
X111190476Y-105023809D01*
X111238095Y-104976190D01*
X111285714Y-104880952D01*
G04 #@! TO.C,R10*
X110942380Y-97797857D02*
X110466190Y-98131190D01*
X110942380Y-98369285D02*
X109942380Y-98369285D01*
X109942380Y-97988333D01*
X109990000Y-97893095D01*
X110037619Y-97845476D01*
X110132857Y-97797857D01*
X110275714Y-97797857D01*
X110370952Y-97845476D01*
X110418571Y-97893095D01*
X110466190Y-97988333D01*
X110466190Y-98369285D01*
X110942380Y-96845476D02*
X110942380Y-97416904D01*
X110942380Y-97131190D02*
X109942380Y-97131190D01*
X110085238Y-97226428D01*
X110180476Y-97321666D01*
X110228095Y-97416904D01*
X109942380Y-96226428D02*
X109942380Y-96131190D01*
X109990000Y-96035952D01*
X110037619Y-95988333D01*
X110132857Y-95940714D01*
X110323333Y-95893095D01*
X110561428Y-95893095D01*
X110751904Y-95940714D01*
X110847142Y-95988333D01*
X110894761Y-96035952D01*
X110942380Y-96131190D01*
X110942380Y-96226428D01*
X110894761Y-96321666D01*
X110847142Y-96369285D01*
X110751904Y-96416904D01*
X110561428Y-96464523D01*
X110323333Y-96464523D01*
X110132857Y-96416904D01*
X110037619Y-96369285D01*
X109990000Y-96321666D01*
X109942380Y-96226428D01*
G04 #@! TO.C,C13*
X104767142Y-94972142D02*
X104719523Y-95019761D01*
X104576666Y-95067380D01*
X104481428Y-95067380D01*
X104338571Y-95019761D01*
X104243333Y-94924523D01*
X104195714Y-94829285D01*
X104148095Y-94638809D01*
X104148095Y-94495952D01*
X104195714Y-94305476D01*
X104243333Y-94210238D01*
X104338571Y-94115000D01*
X104481428Y-94067380D01*
X104576666Y-94067380D01*
X104719523Y-94115000D01*
X104767142Y-94162619D01*
X105719523Y-95067380D02*
X105148095Y-95067380D01*
X105433809Y-95067380D02*
X105433809Y-94067380D01*
X105338571Y-94210238D01*
X105243333Y-94305476D01*
X105148095Y-94353095D01*
X106052857Y-94067380D02*
X106671904Y-94067380D01*
X106338571Y-94448333D01*
X106481428Y-94448333D01*
X106576666Y-94495952D01*
X106624285Y-94543571D01*
X106671904Y-94638809D01*
X106671904Y-94876904D01*
X106624285Y-94972142D01*
X106576666Y-95019761D01*
X106481428Y-95067380D01*
X106195714Y-95067380D01*
X106100476Y-95019761D01*
X106052857Y-94972142D01*
G04 #@! TO.C,C14*
X106672142Y-101322142D02*
X106624523Y-101369761D01*
X106481666Y-101417380D01*
X106386428Y-101417380D01*
X106243571Y-101369761D01*
X106148333Y-101274523D01*
X106100714Y-101179285D01*
X106053095Y-100988809D01*
X106053095Y-100845952D01*
X106100714Y-100655476D01*
X106148333Y-100560238D01*
X106243571Y-100465000D01*
X106386428Y-100417380D01*
X106481666Y-100417380D01*
X106624523Y-100465000D01*
X106672142Y-100512619D01*
X107624523Y-101417380D02*
X107053095Y-101417380D01*
X107338809Y-101417380D02*
X107338809Y-100417380D01*
X107243571Y-100560238D01*
X107148333Y-100655476D01*
X107053095Y-100703095D01*
X108481666Y-100750714D02*
X108481666Y-101417380D01*
X108243571Y-100369761D02*
X108005476Y-101084047D01*
X108624523Y-101084047D01*
G04 #@! TO.C,SW1*
X114166666Y-79404761D02*
X114309523Y-79452380D01*
X114547619Y-79452380D01*
X114642857Y-79404761D01*
X114690476Y-79357142D01*
X114738095Y-79261904D01*
X114738095Y-79166666D01*
X114690476Y-79071428D01*
X114642857Y-79023809D01*
X114547619Y-78976190D01*
X114357142Y-78928571D01*
X114261904Y-78880952D01*
X114214285Y-78833333D01*
X114166666Y-78738095D01*
X114166666Y-78642857D01*
X114214285Y-78547619D01*
X114261904Y-78500000D01*
X114357142Y-78452380D01*
X114595238Y-78452380D01*
X114738095Y-78500000D01*
X115071428Y-78452380D02*
X115309523Y-79452380D01*
X115500000Y-78738095D01*
X115690476Y-79452380D01*
X115928571Y-78452380D01*
X116833333Y-79452380D02*
X116261904Y-79452380D01*
X116547619Y-79452380D02*
X116547619Y-78452380D01*
X116452380Y-78595238D01*
X116357142Y-78690476D01*
X116261904Y-78738095D01*
G04 #@! TO.C,C15*
X82907142Y-120657857D02*
X82954761Y-120705476D01*
X83002380Y-120848333D01*
X83002380Y-120943571D01*
X82954761Y-121086428D01*
X82859523Y-121181666D01*
X82764285Y-121229285D01*
X82573809Y-121276904D01*
X82430952Y-121276904D01*
X82240476Y-121229285D01*
X82145238Y-121181666D01*
X82050000Y-121086428D01*
X82002380Y-120943571D01*
X82002380Y-120848333D01*
X82050000Y-120705476D01*
X82097619Y-120657857D01*
X83002380Y-119705476D02*
X83002380Y-120276904D01*
X83002380Y-119991190D02*
X82002380Y-119991190D01*
X82145238Y-120086428D01*
X82240476Y-120181666D01*
X82288095Y-120276904D01*
X82002380Y-118800714D02*
X82002380Y-119276904D01*
X82478571Y-119324523D01*
X82430952Y-119276904D01*
X82383333Y-119181666D01*
X82383333Y-118943571D01*
X82430952Y-118848333D01*
X82478571Y-118800714D01*
X82573809Y-118753095D01*
X82811904Y-118753095D01*
X82907142Y-118800714D01*
X82954761Y-118848333D01*
X83002380Y-118943571D01*
X83002380Y-119181666D01*
X82954761Y-119276904D01*
X82907142Y-119324523D01*
G04 #@! TO.C,Q3*
X148502619Y-127730238D02*
X148455000Y-127825476D01*
X148359761Y-127920714D01*
X148216904Y-128063571D01*
X148169285Y-128158809D01*
X148169285Y-128254047D01*
X148407380Y-128206428D02*
X148359761Y-128301666D01*
X148264523Y-128396904D01*
X148074047Y-128444523D01*
X147740714Y-128444523D01*
X147550238Y-128396904D01*
X147455000Y-128301666D01*
X147407380Y-128206428D01*
X147407380Y-128015952D01*
X147455000Y-127920714D01*
X147550238Y-127825476D01*
X147740714Y-127777857D01*
X148074047Y-127777857D01*
X148264523Y-127825476D01*
X148359761Y-127920714D01*
X148407380Y-128015952D01*
X148407380Y-128206428D01*
X147407380Y-127444523D02*
X147407380Y-126825476D01*
X147788333Y-127158809D01*
X147788333Y-127015952D01*
X147835952Y-126920714D01*
X147883571Y-126873095D01*
X147978809Y-126825476D01*
X148216904Y-126825476D01*
X148312142Y-126873095D01*
X148359761Y-126920714D01*
X148407380Y-127015952D01*
X148407380Y-127301666D01*
X148359761Y-127396904D01*
X148312142Y-127444523D01*
G04 #@! TO.C,D2*
X134917380Y-119483095D02*
X133917380Y-119483095D01*
X133917380Y-119245000D01*
X133965000Y-119102142D01*
X134060238Y-119006904D01*
X134155476Y-118959285D01*
X134345952Y-118911666D01*
X134488809Y-118911666D01*
X134679285Y-118959285D01*
X134774523Y-119006904D01*
X134869761Y-119102142D01*
X134917380Y-119245000D01*
X134917380Y-119483095D01*
X134012619Y-118530714D02*
X133965000Y-118483095D01*
X133917380Y-118387857D01*
X133917380Y-118149761D01*
X133965000Y-118054523D01*
X134012619Y-118006904D01*
X134107857Y-117959285D01*
X134203095Y-117959285D01*
X134345952Y-118006904D01*
X134917380Y-118578333D01*
X134917380Y-117959285D01*
G04 #@! TO.C,U5*
X95738095Y-103452380D02*
X95738095Y-104261904D01*
X95785714Y-104357142D01*
X95833333Y-104404761D01*
X95928571Y-104452380D01*
X96119047Y-104452380D01*
X96214285Y-104404761D01*
X96261904Y-104357142D01*
X96309523Y-104261904D01*
X96309523Y-103452380D01*
X97261904Y-103452380D02*
X96785714Y-103452380D01*
X96738095Y-103928571D01*
X96785714Y-103880952D01*
X96880952Y-103833333D01*
X97119047Y-103833333D01*
X97214285Y-103880952D01*
X97261904Y-103928571D01*
X97309523Y-104023809D01*
X97309523Y-104261904D01*
X97261904Y-104357142D01*
X97214285Y-104404761D01*
X97119047Y-104452380D01*
X96880952Y-104452380D01*
X96785714Y-104404761D01*
X96738095Y-104357142D01*
G04 #@! TD*
%LPC*%
D15*
G04 #@! TO.C,R12*
X132715000Y-125650000D03*
X132715000Y-128350000D03*
G04 #@! TD*
D16*
G04 #@! TO.C,U2*
X100370000Y-83560000D03*
D17*
X101370000Y-83560000D03*
D16*
X100370000Y-97560000D03*
X100370000Y-95560000D03*
X100370000Y-93560000D03*
X100370000Y-91560000D03*
X100370000Y-89560000D03*
X100370000Y-85560000D03*
D17*
X101370000Y-97560000D03*
X101370000Y-95560000D03*
X101370000Y-93560000D03*
X101370000Y-91560000D03*
X101370000Y-89560000D03*
X101370000Y-85560000D03*
G04 #@! TD*
D18*
G04 #@! TO.C,J11*
X113030000Y-147955000D03*
D19*
X115570000Y-147955000D03*
G04 #@! TD*
D20*
G04 #@! TO.C,BT2*
X132500000Y-138100000D03*
X132500000Y-84900000D03*
D21*
X132500000Y-111500000D03*
G04 #@! TD*
D20*
G04 #@! TO.C,BT1*
X150500000Y-84900000D03*
X150500000Y-138100000D03*
D21*
X150500000Y-111500000D03*
G04 #@! TD*
D22*
G04 #@! TO.C,R6*
X101520000Y-126365000D03*
X104220000Y-126365000D03*
G04 #@! TD*
D23*
G04 #@! TO.C,C1*
X112395000Y-116185000D03*
X112395000Y-113685000D03*
G04 #@! TD*
G04 #@! TO.C,C2*
X93400000Y-104950000D03*
X93400000Y-107450000D03*
G04 #@! TD*
D24*
G04 #@! TO.C,C3*
X100985000Y-102235000D03*
X103485000Y-102235000D03*
G04 #@! TD*
G04 #@! TO.C,C4*
X100350000Y-121285000D03*
X102850000Y-121285000D03*
G04 #@! TD*
G04 #@! TO.C,C5*
X99675000Y-146050000D03*
X97175000Y-146050000D03*
G04 #@! TD*
G04 #@! TO.C,C6*
X112415000Y-111125000D03*
X114915000Y-111125000D03*
G04 #@! TD*
D23*
G04 #@! TO.C,C7*
X90424000Y-109748000D03*
X90424000Y-112248000D03*
G04 #@! TD*
G04 #@! TO.C,C8*
X92964000Y-113772000D03*
X92964000Y-111272000D03*
G04 #@! TD*
D25*
G04 #@! TO.C,D1*
X106680000Y-81280000D03*
D26*
X109220000Y-81280000D03*
X111760000Y-81280000D03*
G04 #@! TD*
D27*
G04 #@! TO.C,J1*
X92075000Y-149225000D03*
D28*
X94615000Y-149225000D03*
X97155000Y-149225000D03*
X99695000Y-149225000D03*
X102235000Y-149225000D03*
X104775000Y-149225000D03*
G04 #@! TD*
D27*
G04 #@! TO.C,J3*
X85090000Y-130810000D03*
D28*
X85090000Y-133350000D03*
X85090000Y-135890000D03*
X85090000Y-138430000D03*
G04 #@! TD*
D27*
G04 #@! TO.C,J5*
X100330000Y-130810000D03*
D28*
X100330000Y-133350000D03*
X100330000Y-135890000D03*
X100330000Y-138430000D03*
G04 #@! TD*
D27*
G04 #@! TO.C,J6*
X105410000Y-130810000D03*
D28*
X105410000Y-133350000D03*
X105410000Y-135890000D03*
X105410000Y-138430000D03*
G04 #@! TD*
D27*
G04 #@! TO.C,J7*
X120650000Y-130810000D03*
D28*
X120650000Y-133350000D03*
X120650000Y-135890000D03*
X120650000Y-138430000D03*
G04 #@! TD*
D22*
G04 #@! TO.C,R1*
X91360000Y-146050000D03*
X94060000Y-146050000D03*
G04 #@! TD*
D15*
G04 #@! TO.C,R2*
X111760000Y-84375000D03*
X111760000Y-87075000D03*
G04 #@! TD*
G04 #@! TO.C,R3*
X106680000Y-84375000D03*
X106680000Y-87075000D03*
G04 #@! TD*
D22*
G04 #@! TO.C,R5*
X107235000Y-126365000D03*
X109935000Y-126365000D03*
G04 #@! TD*
D15*
G04 #@! TO.C,R7*
X93980000Y-125015000D03*
X93980000Y-127715000D03*
G04 #@! TD*
G04 #@! TO.C,R8*
X91440000Y-126285000D03*
X91440000Y-128985000D03*
G04 #@! TD*
D29*
G04 #@! TO.C,U1*
X97170000Y-107760000D03*
X97170000Y-108560000D03*
X97170000Y-109360000D03*
X97170000Y-110160000D03*
X97170000Y-110960000D03*
X97170000Y-111760000D03*
X97170000Y-112560000D03*
X97170000Y-113360000D03*
X97170000Y-114160000D03*
X97170000Y-114960000D03*
X97170000Y-115760000D03*
D30*
X98870000Y-117460000D03*
X99670000Y-117460000D03*
X100470000Y-117460000D03*
X101270000Y-117460000D03*
X102070000Y-117460000D03*
X102870000Y-117460000D03*
X103670000Y-117460000D03*
X104470000Y-117460000D03*
X105270000Y-117460000D03*
X106070000Y-117460000D03*
X106870000Y-117460000D03*
D29*
X108570000Y-115760000D03*
X108570000Y-114960000D03*
X108570000Y-114160000D03*
X108570000Y-113360000D03*
X108570000Y-112560000D03*
X108570000Y-111760000D03*
X108570000Y-110960000D03*
X108570000Y-110160000D03*
X108570000Y-109360000D03*
X108570000Y-108560000D03*
X108570000Y-107760000D03*
D30*
X106870000Y-106060000D03*
X106070000Y-106060000D03*
X105270000Y-106060000D03*
X104470000Y-106060000D03*
X103670000Y-106060000D03*
X102870000Y-106060000D03*
X102070000Y-106060000D03*
X101270000Y-106060000D03*
X100470000Y-106060000D03*
X99670000Y-106060000D03*
X98870000Y-106060000D03*
G04 #@! TD*
D31*
G04 #@! TO.C,Y1*
X86360000Y-110490000D03*
X86360000Y-115370000D03*
G04 #@! TD*
D27*
G04 #@! TO.C,J10*
X98425000Y-76835000D03*
D28*
X98425000Y-79375000D03*
X95885000Y-76835000D03*
X95885000Y-79375000D03*
X93345000Y-76835000D03*
X93345000Y-79375000D03*
G04 #@! TD*
D22*
G04 #@! TO.C,R9*
X115015000Y-106680000D03*
X112315000Y-106680000D03*
G04 #@! TD*
D15*
G04 #@! TO.C,R10*
X112395000Y-95805000D03*
X112395000Y-98505000D03*
G04 #@! TD*
D32*
G04 #@! TO.C,J13*
X120650000Y-101600000D03*
D28*
X120650000Y-99060000D03*
G04 #@! TD*
D24*
G04 #@! TO.C,C13*
X106660000Y-96520000D03*
X104160000Y-96520000D03*
G04 #@! TD*
G04 #@! TO.C,C14*
X106660000Y-99060000D03*
X104160000Y-99060000D03*
G04 #@! TD*
D33*
G04 #@! TO.C,SW1*
X104630000Y-76835000D03*
X113810000Y-76835000D03*
G04 #@! TD*
D34*
G04 #@! TO.C,C15*
X86360000Y-126365000D03*
D20*
X86360000Y-122865000D03*
G04 #@! TD*
D27*
G04 #@! TO.C,J8*
X118110000Y-104140000D03*
D28*
X115570000Y-104140000D03*
X118110000Y-101600000D03*
X115570000Y-101600000D03*
X118110000Y-99060000D03*
X115570000Y-99060000D03*
X118110000Y-96520000D03*
X115570000Y-96520000D03*
X118110000Y-93980000D03*
X115570000Y-93980000D03*
X118110000Y-91440000D03*
X115570000Y-91440000D03*
X118110000Y-88900000D03*
X115570000Y-88900000D03*
X118110000Y-86360000D03*
X115570000Y-86360000D03*
X118110000Y-83820000D03*
X115570000Y-83820000D03*
G04 #@! TD*
D27*
G04 #@! TO.C,J9*
X120650000Y-127000000D03*
D28*
X118110000Y-127000000D03*
X120650000Y-124460000D03*
X118110000Y-124460000D03*
X120650000Y-121920000D03*
X118110000Y-121920000D03*
X120650000Y-119380000D03*
X118110000Y-119380000D03*
X120650000Y-116840000D03*
X118110000Y-116840000D03*
X120650000Y-114300000D03*
X118110000Y-114300000D03*
X120650000Y-111760000D03*
X118110000Y-111760000D03*
X120650000Y-109220000D03*
X118110000Y-109220000D03*
X120650000Y-106680000D03*
X118110000Y-106680000D03*
G04 #@! TD*
D27*
G04 #@! TO.C,J12*
X146685000Y-108585000D03*
D28*
X144145000Y-108585000D03*
X141605000Y-108585000D03*
X139065000Y-108585000D03*
G04 #@! TD*
D35*
G04 #@! TO.C,Q3*
X140335000Y-128330000D03*
X145415000Y-128330000D03*
D36*
X142875000Y-119180000D03*
G04 #@! TD*
D37*
G04 #@! TO.C,D2*
X132715000Y-115995000D03*
X132715000Y-121495000D03*
G04 #@! TD*
D16*
G04 #@! TO.C,U5*
X96780000Y-101005000D03*
D38*
X96780000Y-102005000D03*
D16*
X82780000Y-101005000D03*
X84780000Y-101005000D03*
X86780000Y-101005000D03*
X88780000Y-101005000D03*
X90780000Y-101005000D03*
X94780000Y-101005000D03*
D38*
X82780000Y-102005000D03*
X84780000Y-102005000D03*
X86780000Y-102005000D03*
X88780000Y-102005000D03*
X90780000Y-102005000D03*
X94780000Y-102005000D03*
G04 #@! TD*
D39*
G04 #@! TO.C,REF\002A\002A*
X86500000Y-79000000D03*
D40*
X88150000Y-79000000D03*
X87666726Y-80166726D03*
X86500000Y-80650000D03*
X85333274Y-80166726D03*
X84850000Y-79000000D03*
X85333274Y-77833274D03*
X86500000Y-77350000D03*
X87666726Y-77833274D03*
G04 #@! TD*
D39*
G04 #@! TO.C,REF\002A\002A*
X120500000Y-79000000D03*
D40*
X122150000Y-79000000D03*
X121666726Y-80166726D03*
X120500000Y-80650000D03*
X119333274Y-80166726D03*
X118850000Y-79000000D03*
X119333274Y-77833274D03*
X120500000Y-77350000D03*
X121666726Y-77833274D03*
G04 #@! TD*
D39*
G04 #@! TO.C,REF\002A\002A*
X154500000Y-79000000D03*
D40*
X156150000Y-79000000D03*
X155666726Y-80166726D03*
X154500000Y-80650000D03*
X153333274Y-80166726D03*
X152850000Y-79000000D03*
X153333274Y-77833274D03*
X154500000Y-77350000D03*
X155666726Y-77833274D03*
G04 #@! TD*
D39*
G04 #@! TO.C,REF\002A\002A*
X86500000Y-147000000D03*
D40*
X88150000Y-147000000D03*
X87666726Y-148166726D03*
X86500000Y-148650000D03*
X85333274Y-148166726D03*
X84850000Y-147000000D03*
X85333274Y-145833274D03*
X86500000Y-145350000D03*
X87666726Y-145833274D03*
G04 #@! TD*
D39*
G04 #@! TO.C,REF\002A\002A*
X120500000Y-147000000D03*
D40*
X122150000Y-147000000D03*
X121666726Y-148166726D03*
X120500000Y-148650000D03*
X119333274Y-148166726D03*
X118850000Y-147000000D03*
X119333274Y-145833274D03*
X120500000Y-145350000D03*
X121666726Y-145833274D03*
G04 #@! TD*
D39*
G04 #@! TO.C,REF\002A\002A*
X154500000Y-147000000D03*
D40*
X156150000Y-147000000D03*
X155666726Y-148166726D03*
X154500000Y-148650000D03*
X153333274Y-148166726D03*
X152850000Y-147000000D03*
X153333274Y-145833274D03*
X154500000Y-145350000D03*
X155666726Y-145833274D03*
G04 #@! TD*
M02*
