%FSLAX45Y45*%
G04 Gerber Fmt 4.5, Leading zero omitted, Abs format (unit mm)*
G04 Created by KiCad (PCBNEW 4.0.7) date 07/31/18 19:36:36*
%MOMM*%
%LPD*%
G01*
G04 APERTURE LIST*
%ADD10C,0.127000*%
%ADD11C,0.100000*%
%ADD12C,0.200000*%
%ADD13C,0.300000*%
G04 APERTURE END LIST*
D10*
D11*
X8850000Y-8400000D02*
X9300000Y-8400000D01*
X8850000Y-8200000D02*
X9300000Y-8200000D01*
X9300000Y-8400000D02*
G75*
G03X9400000Y-8300000I0J100000D01*
G01*
X9400000Y-8300000D02*
G75*
G03X9300000Y-8200000I-100000J0D01*
G01*
X8750000Y-8300000D02*
G75*
G03X8850000Y-8400000I100000J0D01*
G01*
X8850000Y-8200000D02*
G75*
G03X8750000Y-8300000I0J-100000D01*
G01*
X8100000Y-9400000D02*
X8100000Y-14500000D01*
X8100000Y-8500000D02*
X8100000Y-8100000D01*
X8300000Y-8700000D02*
X8300000Y-9200000D01*
X8200000Y-9300000D02*
G75*
G03X8100000Y-9400000I0J-100000D01*
G01*
X8200000Y-9300000D02*
G75*
G03X8300000Y-9200000I0J100000D01*
G01*
X8300000Y-8700000D02*
G75*
G03X8200000Y-8600000I-100000J0D01*
G01*
X8100000Y-8500000D02*
G75*
G03X8200000Y-8600000I100000J0D01*
G01*
X12400000Y-8000000D02*
X12400000Y-11050000D01*
X12600000Y-11050000D02*
X12600000Y-8000000D01*
X12400000Y-11550000D02*
X12400000Y-14600000D01*
X12600000Y-14600000D02*
X12600000Y-11550000D01*
X8800000Y-15200000D02*
X12300000Y-15200000D01*
X12700000Y-15200000D02*
X15300000Y-15200000D01*
X12300000Y-7400000D02*
X8800000Y-7400000D01*
X12700000Y-7400000D02*
X15300000Y-7400000D01*
X12600000Y-15100000D02*
G75*
G03X12700000Y-15200000I100000J0D01*
G01*
X12600000Y-15100000D02*
G75*
G03X12500000Y-15000000I-100000J0D01*
G01*
X12500000Y-15000000D02*
G75*
G03X12400000Y-15100000I0J-100000D01*
G01*
X12300000Y-15200000D02*
G75*
G03X12400000Y-15100000I0J100000D01*
G01*
X12400000Y-7500000D02*
G75*
G03X12300000Y-7400000I-100000J0D01*
G01*
X12400000Y-7500000D02*
G75*
G03X12500000Y-7600000I100000J0D01*
G01*
X12500000Y-7600000D02*
G75*
G03X12600000Y-7500000I0J100000D01*
G01*
X12700000Y-7400000D02*
G75*
G03X12600000Y-7500000I0J-100000D01*
G01*
X16000000Y-8100000D02*
X16000000Y-14500000D01*
X8100000Y-14500000D02*
G75*
G03X8800000Y-15200000I700000J0D01*
G01*
X15300000Y-15200000D02*
G75*
G03X16000000Y-14500000I0J700000D01*
G01*
X16000000Y-8100000D02*
G75*
G03X15300000Y-7400000I-700000J0D01*
G01*
X8800000Y-7400000D02*
G75*
G03X8100000Y-8100000I0J-700000D01*
G01*
X12500000Y-11450000D02*
G75*
G03X12400000Y-11550000I0J-100000D01*
G01*
X12600000Y-11550000D02*
G75*
G03X12500000Y-11450000I-100000J0D01*
G01*
X12600000Y-8000000D02*
G75*
G03X12500000Y-7900000I-100000J0D01*
G01*
X12500000Y-7900000D02*
G75*
G03X12400000Y-8000000I0J-100000D01*
G01*
X12400000Y-11050000D02*
G75*
G03X12500000Y-11150000I100000J0D01*
G01*
X12500000Y-11150000D02*
G75*
G03X12600000Y-11050000I0J100000D01*
G01*
X12500000Y-14700000D02*
G75*
G03X12600000Y-14600000I0J100000D01*
G01*
X12400000Y-14600000D02*
G75*
G03X12500000Y-14700000I100000J0D01*
G01*
D12*
X13105000Y-11005000D02*
X13395000Y-11295000D01*
X13395000Y-11005000D02*
X13105000Y-11295000D01*
X14905000Y-11005000D02*
X15195000Y-11295000D01*
X15195000Y-11005000D02*
X14905000Y-11295000D01*
D13*
X8366428Y-15670714D02*
X8366428Y-15370714D01*
X8437857Y-15370714D01*
X8480714Y-15385000D01*
X8509286Y-15413571D01*
X8523571Y-15442143D01*
X8537857Y-15499286D01*
X8537857Y-15542143D01*
X8523571Y-15599286D01*
X8509286Y-15627857D01*
X8480714Y-15656429D01*
X8437857Y-15670714D01*
X8366428Y-15670714D01*
X8666429Y-15670714D02*
X8666429Y-15470714D01*
X8666429Y-15527857D02*
X8680714Y-15499286D01*
X8695000Y-15485000D01*
X8723571Y-15470714D01*
X8752143Y-15470714D01*
X8852143Y-15670714D02*
X8852143Y-15470714D01*
X8852143Y-15370714D02*
X8837857Y-15385000D01*
X8852143Y-15399286D01*
X8866429Y-15385000D01*
X8852143Y-15370714D01*
X8852143Y-15399286D01*
X9037857Y-15670714D02*
X9009286Y-15656429D01*
X8995000Y-15627857D01*
X8995000Y-15370714D01*
X9195000Y-15670714D02*
X9166429Y-15656429D01*
X9152143Y-15627857D01*
X9152143Y-15370714D01*
X9537857Y-15670714D02*
X9537857Y-15370714D01*
X9637857Y-15585000D01*
X9737857Y-15370714D01*
X9737857Y-15670714D01*
X10009286Y-15670714D02*
X10009286Y-15513571D01*
X9995000Y-15485000D01*
X9966429Y-15470714D01*
X9909286Y-15470714D01*
X9880714Y-15485000D01*
X10009286Y-15656429D02*
X9980714Y-15670714D01*
X9909286Y-15670714D01*
X9880714Y-15656429D01*
X9866429Y-15627857D01*
X9866429Y-15599286D01*
X9880714Y-15570714D01*
X9909286Y-15556429D01*
X9980714Y-15556429D01*
X10009286Y-15542143D01*
X10152143Y-15470714D02*
X10152143Y-15770714D01*
X10152143Y-15485000D02*
X10180714Y-15470714D01*
X10237857Y-15470714D01*
X10266429Y-15485000D01*
X10280714Y-15499286D01*
X10295000Y-15527857D01*
X10295000Y-15613571D01*
X10280714Y-15642143D01*
X10266429Y-15656429D01*
X10237857Y-15670714D01*
X10180714Y-15670714D01*
X10152143Y-15656429D01*
X10423571Y-15642143D02*
X10437857Y-15656429D01*
X10423571Y-15670714D01*
X10409286Y-15656429D01*
X10423571Y-15642143D01*
X10423571Y-15670714D01*
X10423571Y-15485000D02*
X10437857Y-15499286D01*
X10423571Y-15513571D01*
X10409286Y-15499286D01*
X10423571Y-15485000D01*
X10423571Y-15513571D01*
X7805000Y-16020000D02*
X8095000Y-16310000D01*
X8095000Y-16020000D02*
X7805000Y-16310000D01*
X8352143Y-16029286D02*
X8366428Y-16015000D01*
X8395000Y-16000714D01*
X8466429Y-16000714D01*
X8495000Y-16015000D01*
X8509286Y-16029286D01*
X8523571Y-16057857D01*
X8523571Y-16086429D01*
X8509286Y-16129286D01*
X8337857Y-16300714D01*
X8523571Y-16300714D01*
X8652143Y-16272143D02*
X8666429Y-16286429D01*
X8652143Y-16300714D01*
X8637857Y-16286429D01*
X8652143Y-16272143D01*
X8652143Y-16300714D01*
X8809286Y-16300714D02*
X8866428Y-16300714D01*
X8895000Y-16286429D01*
X8909286Y-16272143D01*
X8937857Y-16229286D01*
X8952143Y-16172143D01*
X8952143Y-16057857D01*
X8937857Y-16029286D01*
X8923571Y-16015000D01*
X8895000Y-16000714D01*
X8837857Y-16000714D01*
X8809286Y-16015000D01*
X8795000Y-16029286D01*
X8780714Y-16057857D01*
X8780714Y-16129286D01*
X8795000Y-16157857D01*
X8809286Y-16172143D01*
X8837857Y-16186429D01*
X8895000Y-16186429D01*
X8923571Y-16172143D01*
X8937857Y-16157857D01*
X8952143Y-16129286D01*
X9137857Y-16000714D02*
X9166429Y-16000714D01*
X9195000Y-16015000D01*
X9209286Y-16029286D01*
X9223571Y-16057857D01*
X9237857Y-16115000D01*
X9237857Y-16186429D01*
X9223571Y-16243571D01*
X9209286Y-16272143D01*
X9195000Y-16286429D01*
X9166429Y-16300714D01*
X9137857Y-16300714D01*
X9109286Y-16286429D01*
X9095000Y-16272143D01*
X9080714Y-16243571D01*
X9066429Y-16186429D01*
X9066429Y-16115000D01*
X9080714Y-16057857D01*
X9095000Y-16029286D01*
X9109286Y-16015000D01*
X9137857Y-16000714D01*
X9366429Y-16300714D02*
X9366429Y-16100714D01*
X9366429Y-16129286D02*
X9380714Y-16115000D01*
X9409286Y-16100714D01*
X9452143Y-16100714D01*
X9480714Y-16115000D01*
X9495000Y-16143571D01*
X9495000Y-16300714D01*
X9495000Y-16143571D02*
X9509286Y-16115000D01*
X9537857Y-16100714D01*
X9580714Y-16100714D01*
X9609286Y-16115000D01*
X9623571Y-16143571D01*
X9623571Y-16300714D01*
X9766429Y-16300714D02*
X9766429Y-16100714D01*
X9766429Y-16129286D02*
X9780714Y-16115000D01*
X9809286Y-16100714D01*
X9852143Y-16100714D01*
X9880714Y-16115000D01*
X9895000Y-16143571D01*
X9895000Y-16300714D01*
X9895000Y-16143571D02*
X9909286Y-16115000D01*
X9937857Y-16100714D01*
X9980714Y-16100714D01*
X10009286Y-16115000D01*
X10023571Y-16143571D01*
X10023571Y-16300714D01*
X10609286Y-15986429D02*
X10352143Y-16372143D01*
X10995000Y-16000714D02*
X11023571Y-16000714D01*
X11052143Y-16015000D01*
X11066428Y-16029286D01*
X11080714Y-16057857D01*
X11095000Y-16115000D01*
X11095000Y-16186429D01*
X11080714Y-16243571D01*
X11066428Y-16272143D01*
X11052143Y-16286429D01*
X11023571Y-16300714D01*
X10995000Y-16300714D01*
X10966428Y-16286429D01*
X10952143Y-16272143D01*
X10937857Y-16243571D01*
X10923571Y-16186429D01*
X10923571Y-16115000D01*
X10937857Y-16057857D01*
X10952143Y-16029286D01*
X10966428Y-16015000D01*
X10995000Y-16000714D01*
X11223571Y-16272143D02*
X11237857Y-16286429D01*
X11223571Y-16300714D01*
X11209286Y-16286429D01*
X11223571Y-16272143D01*
X11223571Y-16300714D01*
X11523571Y-16300714D02*
X11352143Y-16300714D01*
X11437857Y-16300714D02*
X11437857Y-16000714D01*
X11409285Y-16043571D01*
X11380714Y-16072143D01*
X11352143Y-16086429D01*
X11809285Y-16300714D02*
X11637857Y-16300714D01*
X11723571Y-16300714D02*
X11723571Y-16000714D01*
X11695000Y-16043571D01*
X11666428Y-16072143D01*
X11637857Y-16086429D01*
X12066428Y-16100714D02*
X12066428Y-16300714D01*
X11995000Y-15986429D02*
X11923571Y-16200714D01*
X12109285Y-16200714D01*
X12209286Y-16000714D02*
X12209286Y-16057857D01*
X12323571Y-16000714D02*
X12323571Y-16057857D01*
X12766428Y-16415000D02*
X12752143Y-16400714D01*
X12723571Y-16357857D01*
X12709285Y-16329286D01*
X12695000Y-16286429D01*
X12680714Y-16215000D01*
X12680714Y-16157857D01*
X12695000Y-16086429D01*
X12709285Y-16043571D01*
X12723571Y-16015000D01*
X12752143Y-15972143D01*
X12766428Y-15957857D01*
X12866428Y-16029286D02*
X12880714Y-16015000D01*
X12909285Y-16000714D01*
X12980714Y-16000714D01*
X13009285Y-16015000D01*
X13023571Y-16029286D01*
X13037857Y-16057857D01*
X13037857Y-16086429D01*
X13023571Y-16129286D01*
X12852143Y-16300714D01*
X13037857Y-16300714D01*
X13395000Y-16300714D02*
X13395000Y-16000714D01*
X13523571Y-16300714D02*
X13523571Y-16143571D01*
X13509285Y-16115000D01*
X13480714Y-16100714D01*
X13437857Y-16100714D01*
X13409285Y-16115000D01*
X13395000Y-16129286D01*
X13709285Y-16300714D02*
X13680714Y-16286429D01*
X13666428Y-16272143D01*
X13652143Y-16243571D01*
X13652143Y-16157857D01*
X13666428Y-16129286D01*
X13680714Y-16115000D01*
X13709285Y-16100714D01*
X13752143Y-16100714D01*
X13780714Y-16115000D01*
X13795000Y-16129286D01*
X13809285Y-16157857D01*
X13809285Y-16243571D01*
X13795000Y-16272143D01*
X13780714Y-16286429D01*
X13752143Y-16300714D01*
X13709285Y-16300714D01*
X13980714Y-16300714D02*
X13952143Y-16286429D01*
X13937857Y-16257857D01*
X13937857Y-16000714D01*
X14209286Y-16286429D02*
X14180714Y-16300714D01*
X14123571Y-16300714D01*
X14095000Y-16286429D01*
X14080714Y-16257857D01*
X14080714Y-16143571D01*
X14095000Y-16115000D01*
X14123571Y-16100714D01*
X14180714Y-16100714D01*
X14209286Y-16115000D01*
X14223571Y-16143571D01*
X14223571Y-16172143D01*
X14080714Y-16200714D01*
X14337857Y-16286429D02*
X14366428Y-16300714D01*
X14423571Y-16300714D01*
X14452143Y-16286429D01*
X14466428Y-16257857D01*
X14466428Y-16243571D01*
X14452143Y-16215000D01*
X14423571Y-16200714D01*
X14380714Y-16200714D01*
X14352143Y-16186429D01*
X14337857Y-16157857D01*
X14337857Y-16143571D01*
X14352143Y-16115000D01*
X14380714Y-16100714D01*
X14423571Y-16100714D01*
X14452143Y-16115000D01*
X14566428Y-16415000D02*
X14580714Y-16400714D01*
X14609286Y-16357857D01*
X14623571Y-16329286D01*
X14637857Y-16286429D01*
X14652143Y-16215000D01*
X14652143Y-16157857D01*
X14637857Y-16086429D01*
X14623571Y-16043571D01*
X14609286Y-16015000D01*
X14580714Y-15972143D01*
X14566428Y-15957857D01*
X15109286Y-16415000D02*
X15095000Y-16400714D01*
X15066428Y-16357857D01*
X15052143Y-16329286D01*
X15037857Y-16286429D01*
X15023571Y-16215000D01*
X15023571Y-16157857D01*
X15037857Y-16086429D01*
X15052143Y-16043571D01*
X15066428Y-16015000D01*
X15095000Y-15972143D01*
X15109286Y-15957857D01*
X15223571Y-16100714D02*
X15223571Y-16300714D01*
X15223571Y-16129286D02*
X15237857Y-16115000D01*
X15266428Y-16100714D01*
X15309286Y-16100714D01*
X15337857Y-16115000D01*
X15352143Y-16143571D01*
X15352143Y-16300714D01*
X15537857Y-16300714D02*
X15509286Y-16286429D01*
X15495000Y-16272143D01*
X15480714Y-16243571D01*
X15480714Y-16157857D01*
X15495000Y-16129286D01*
X15509286Y-16115000D01*
X15537857Y-16100714D01*
X15580714Y-16100714D01*
X15609286Y-16115000D01*
X15623571Y-16129286D01*
X15637857Y-16157857D01*
X15637857Y-16243571D01*
X15623571Y-16272143D01*
X15609286Y-16286429D01*
X15580714Y-16300714D01*
X15537857Y-16300714D01*
X15723571Y-16100714D02*
X15837857Y-16100714D01*
X15766428Y-16000714D02*
X15766428Y-16257857D01*
X15780714Y-16286429D01*
X15809286Y-16300714D01*
X15837857Y-16300714D01*
X16166428Y-16100714D02*
X16166428Y-16400714D01*
X16166428Y-16115000D02*
X16195000Y-16100714D01*
X16252143Y-16100714D01*
X16280714Y-16115000D01*
X16295000Y-16129286D01*
X16309286Y-16157857D01*
X16309286Y-16243571D01*
X16295000Y-16272143D01*
X16280714Y-16286429D01*
X16252143Y-16300714D01*
X16195000Y-16300714D01*
X16166428Y-16286429D01*
X16480714Y-16300714D02*
X16452143Y-16286429D01*
X16437857Y-16257857D01*
X16437857Y-16000714D01*
X16723571Y-16300714D02*
X16723571Y-16143571D01*
X16709286Y-16115000D01*
X16680714Y-16100714D01*
X16623571Y-16100714D01*
X16595000Y-16115000D01*
X16723571Y-16286429D02*
X16695000Y-16300714D01*
X16623571Y-16300714D01*
X16595000Y-16286429D01*
X16580714Y-16257857D01*
X16580714Y-16229286D01*
X16595000Y-16200714D01*
X16623571Y-16186429D01*
X16695000Y-16186429D01*
X16723571Y-16172143D01*
X16823571Y-16100714D02*
X16937857Y-16100714D01*
X16866429Y-16000714D02*
X16866429Y-16257857D01*
X16880714Y-16286429D01*
X16909286Y-16300714D01*
X16937857Y-16300714D01*
X17152143Y-16286429D02*
X17123572Y-16300714D01*
X17066429Y-16300714D01*
X17037857Y-16286429D01*
X17023572Y-16257857D01*
X17023572Y-16143571D01*
X17037857Y-16115000D01*
X17066429Y-16100714D01*
X17123572Y-16100714D01*
X17152143Y-16115000D01*
X17166429Y-16143571D01*
X17166429Y-16172143D01*
X17023572Y-16200714D01*
X17423572Y-16300714D02*
X17423572Y-16000714D01*
X17423572Y-16286429D02*
X17395000Y-16300714D01*
X17337857Y-16300714D01*
X17309286Y-16286429D01*
X17295000Y-16272143D01*
X17280714Y-16243571D01*
X17280714Y-16157857D01*
X17295000Y-16129286D01*
X17309286Y-16115000D01*
X17337857Y-16100714D01*
X17395000Y-16100714D01*
X17423572Y-16115000D01*
X17537857Y-16415000D02*
X17552143Y-16400714D01*
X17580714Y-16357857D01*
X17595000Y-16329286D01*
X17609286Y-16286429D01*
X17623572Y-16215000D01*
X17623572Y-16157857D01*
X17609286Y-16086429D01*
X17595000Y-16043571D01*
X17580714Y-16015000D01*
X17552143Y-15972143D01*
X17537857Y-15957857D01*
M02*
