%TF.GenerationSoftware,KiCad,Pcbnew,4.0.7*%
%TF.CreationDate,2018-06-17T00:12:40+02:00*%
%TF.ProjectId,HB-UNI-644,48422D554E492D3634342E6B69636164,rev?*%
%TF.FileFunction,Legend,Top*%
%FSLAX46Y46*%
G04 Gerber Fmt 4.6, Leading zero omitted, Abs format (unit mm)*
G04 Created by KiCad (PCBNEW 4.0.7) date 06/17/18 00:12:40*
%MOMM*%
%LPD*%
G01*
G04 APERTURE LIST*
%ADD10C,0.100000*%
%ADD11C,0.400000*%
%ADD12C,0.150000*%
%ADD13C,0.200000*%
%ADD14C,0.120000*%
%ADD15C,0.500000*%
G04 APERTURE END LIST*
D10*
D11*
X97419000Y-105819000D02*
G75*
G03X97419000Y-105819000I-200000J0D01*
G01*
D12*
X114553333Y-124821905D02*
X114653333Y-124021905D01*
X114843809Y-124021905D01*
X114953333Y-124060000D01*
X115020000Y-124136190D01*
X115048571Y-124212381D01*
X115067619Y-124364762D01*
X115053333Y-124479048D01*
X114996190Y-124631429D01*
X114948572Y-124707619D01*
X114862857Y-124783810D01*
X114743809Y-124821905D01*
X114553333Y-124821905D01*
X115377143Y-124021905D02*
X115872381Y-124021905D01*
X115567619Y-124326667D01*
X115681905Y-124326667D01*
X115753333Y-124364762D01*
X115786667Y-124402857D01*
X115815238Y-124479048D01*
X115791429Y-124669524D01*
X115743810Y-124745714D01*
X115700952Y-124783810D01*
X115620000Y-124821905D01*
X115391428Y-124821905D01*
X115320000Y-124783810D01*
X115286667Y-124745714D01*
X116367619Y-124021905D02*
X116443810Y-124021905D01*
X116515238Y-124060000D01*
X116548571Y-124098095D01*
X116577143Y-124174286D01*
X116596191Y-124326667D01*
X116572381Y-124517143D01*
X116515239Y-124669524D01*
X116467619Y-124745714D01*
X116424762Y-124783810D01*
X116343810Y-124821905D01*
X116267619Y-124821905D01*
X116196191Y-124783810D01*
X116162857Y-124745714D01*
X116134286Y-124669524D01*
X116115238Y-124517143D01*
X116139048Y-124326667D01*
X116196190Y-124174286D01*
X116243809Y-124098095D01*
X116286667Y-124060000D01*
X116367619Y-124021905D01*
X114934286Y-122281905D02*
X115034286Y-121481905D01*
X115224762Y-121481905D01*
X115334286Y-121520000D01*
X115400953Y-121596190D01*
X115429524Y-121672381D01*
X115448572Y-121824762D01*
X115434286Y-121939048D01*
X115377143Y-122091429D01*
X115329525Y-122167619D01*
X115243810Y-122243810D01*
X115124762Y-122281905D01*
X114934286Y-122281905D01*
X115772381Y-122281905D02*
X115924762Y-122281905D01*
X116005715Y-122243810D01*
X116048572Y-122205714D01*
X116139048Y-122091429D01*
X116196191Y-121939048D01*
X116234286Y-121634286D01*
X116205715Y-121558095D01*
X116172381Y-121520000D01*
X116100953Y-121481905D01*
X115948572Y-121481905D01*
X115867619Y-121520000D01*
X115824762Y-121558095D01*
X115777143Y-121634286D01*
X115753334Y-121824762D01*
X115781905Y-121900952D01*
X115815238Y-121939048D01*
X115886667Y-121977143D01*
X116039048Y-121977143D01*
X116120000Y-121939048D01*
X116162858Y-121900952D01*
X116210477Y-121824762D01*
X114553333Y-119741905D02*
X114653333Y-118941905D01*
X114843809Y-118941905D01*
X114953333Y-118980000D01*
X115020000Y-119056190D01*
X115048571Y-119132381D01*
X115067619Y-119284762D01*
X115053333Y-119399048D01*
X114996190Y-119551429D01*
X114948572Y-119627619D01*
X114862857Y-119703810D01*
X114743809Y-119741905D01*
X114553333Y-119741905D01*
X115405714Y-119018095D02*
X115448571Y-118980000D01*
X115529524Y-118941905D01*
X115720000Y-118941905D01*
X115791428Y-118980000D01*
X115824762Y-119018095D01*
X115853333Y-119094286D01*
X115843810Y-119170476D01*
X115791429Y-119284762D01*
X115277143Y-119741905D01*
X115772381Y-119741905D01*
X116524762Y-119208571D02*
X116458095Y-119741905D01*
X116372381Y-118903810D02*
X116110476Y-119475238D01*
X116605714Y-119475238D01*
X114553333Y-117201905D02*
X114653333Y-116401905D01*
X114843809Y-116401905D01*
X114953333Y-116440000D01*
X115020000Y-116516190D01*
X115048571Y-116592381D01*
X115067619Y-116744762D01*
X115053333Y-116859048D01*
X114996190Y-117011429D01*
X114948572Y-117087619D01*
X114862857Y-117163810D01*
X114743809Y-117201905D01*
X114553333Y-117201905D01*
X115405714Y-116478095D02*
X115448571Y-116440000D01*
X115529524Y-116401905D01*
X115720000Y-116401905D01*
X115791428Y-116440000D01*
X115824762Y-116478095D01*
X115853333Y-116554286D01*
X115843810Y-116630476D01*
X115791429Y-116744762D01*
X115277143Y-117201905D01*
X115772381Y-117201905D01*
X116596191Y-116401905D02*
X116215238Y-116401905D01*
X116129524Y-116782857D01*
X116172381Y-116744762D01*
X116253334Y-116706667D01*
X116443810Y-116706667D01*
X116515238Y-116744762D01*
X116548572Y-116782857D01*
X116577143Y-116859048D01*
X116553334Y-117049524D01*
X116505715Y-117125714D01*
X116462857Y-117163810D01*
X116381905Y-117201905D01*
X116191429Y-117201905D01*
X116120000Y-117163810D01*
X116086667Y-117125714D01*
X114553333Y-115296905D02*
X114653333Y-114496905D01*
X114843809Y-114496905D01*
X114953333Y-114535000D01*
X115020000Y-114611190D01*
X115048571Y-114687381D01*
X115067619Y-114839762D01*
X115053333Y-114954048D01*
X114996190Y-115106429D01*
X114948572Y-115182619D01*
X114862857Y-115258810D01*
X114743809Y-115296905D01*
X114553333Y-115296905D01*
X115405714Y-114573095D02*
X115448571Y-114535000D01*
X115529524Y-114496905D01*
X115720000Y-114496905D01*
X115791428Y-114535000D01*
X115824762Y-114573095D01*
X115853333Y-114649286D01*
X115843810Y-114725476D01*
X115791429Y-114839762D01*
X115277143Y-115296905D01*
X115772381Y-115296905D01*
X116558095Y-114496905D02*
X116405714Y-114496905D01*
X116324762Y-114535000D01*
X116281905Y-114573095D01*
X116191428Y-114687381D01*
X116134286Y-114839762D01*
X116096191Y-115144524D01*
X116124762Y-115220714D01*
X116158095Y-115258810D01*
X116229524Y-115296905D01*
X116381905Y-115296905D01*
X116462857Y-115258810D01*
X116505715Y-115220714D01*
X116553334Y-115144524D01*
X116577143Y-114954048D01*
X116548572Y-114877857D01*
X116515238Y-114839762D01*
X116443810Y-114801667D01*
X116291429Y-114801667D01*
X116210476Y-114839762D01*
X116167619Y-114877857D01*
X116120000Y-114954048D01*
X115010477Y-103740000D02*
X114939048Y-103701905D01*
X114824763Y-103701905D01*
X114705715Y-103740000D01*
X114620000Y-103816190D01*
X114572381Y-103892381D01*
X114515239Y-104044762D01*
X114500953Y-104159048D01*
X114520000Y-104311429D01*
X114548572Y-104387619D01*
X114615239Y-104463810D01*
X114724763Y-104501905D01*
X114800953Y-104501905D01*
X114920001Y-104463810D01*
X114962858Y-104425714D01*
X114996191Y-104159048D01*
X114843810Y-104159048D01*
X115296191Y-104501905D02*
X115396191Y-103701905D01*
X115753334Y-104501905D01*
X115853334Y-103701905D01*
X116134286Y-104501905D02*
X116234286Y-103701905D01*
X116424762Y-103701905D01*
X116534286Y-103740000D01*
X116600953Y-103816190D01*
X116629524Y-103892381D01*
X116648572Y-104044762D01*
X116634286Y-104159048D01*
X116577143Y-104311429D01*
X116529525Y-104387619D01*
X116443810Y-104463810D01*
X116324762Y-104501905D01*
X116134286Y-104501905D01*
X114553333Y-108946905D02*
X114653333Y-108146905D01*
X114843809Y-108146905D01*
X114953333Y-108185000D01*
X115020000Y-108261190D01*
X115048571Y-108337381D01*
X115067619Y-108489762D01*
X115053333Y-108604048D01*
X114996190Y-108756429D01*
X114948572Y-108832619D01*
X114862857Y-108908810D01*
X114743809Y-108946905D01*
X114553333Y-108946905D01*
X115405714Y-108223095D02*
X115448571Y-108185000D01*
X115529524Y-108146905D01*
X115720000Y-108146905D01*
X115791428Y-108185000D01*
X115824762Y-108223095D01*
X115853333Y-108299286D01*
X115843810Y-108375476D01*
X115791429Y-108489762D01*
X115277143Y-108946905D01*
X115772381Y-108946905D01*
X116286667Y-108489762D02*
X116215238Y-108451667D01*
X116181905Y-108413571D01*
X116153333Y-108337381D01*
X116158095Y-108299286D01*
X116205714Y-108223095D01*
X116248571Y-108185000D01*
X116329524Y-108146905D01*
X116481905Y-108146905D01*
X116553333Y-108185000D01*
X116586667Y-108223095D01*
X116615238Y-108299286D01*
X116610476Y-108337381D01*
X116562858Y-108413571D01*
X116520000Y-108451667D01*
X116439048Y-108489762D01*
X116286667Y-108489762D01*
X116205714Y-108527857D01*
X116162857Y-108565952D01*
X116115238Y-108642143D01*
X116096191Y-108794524D01*
X116124762Y-108870714D01*
X116158095Y-108908810D01*
X116229524Y-108946905D01*
X116381905Y-108946905D01*
X116462857Y-108908810D01*
X116505715Y-108870714D01*
X116553334Y-108794524D01*
X116572381Y-108642143D01*
X116543810Y-108565952D01*
X116510476Y-108527857D01*
X116439048Y-108489762D01*
X114553333Y-106406905D02*
X114653333Y-105606905D01*
X114843809Y-105606905D01*
X114953333Y-105645000D01*
X115020000Y-105721190D01*
X115048571Y-105797381D01*
X115067619Y-105949762D01*
X115053333Y-106064048D01*
X114996190Y-106216429D01*
X114948572Y-106292619D01*
X114862857Y-106368810D01*
X114743809Y-106406905D01*
X114553333Y-106406905D01*
X115405714Y-105683095D02*
X115448571Y-105645000D01*
X115529524Y-105606905D01*
X115720000Y-105606905D01*
X115791428Y-105645000D01*
X115824762Y-105683095D01*
X115853333Y-105759286D01*
X115843810Y-105835476D01*
X115791429Y-105949762D01*
X115277143Y-106406905D01*
X115772381Y-106406905D01*
X116153333Y-106406905D02*
X116305714Y-106406905D01*
X116386667Y-106368810D01*
X116429524Y-106330714D01*
X116520000Y-106216429D01*
X116577143Y-106064048D01*
X116615238Y-105759286D01*
X116586667Y-105683095D01*
X116553333Y-105645000D01*
X116481905Y-105606905D01*
X116329524Y-105606905D01*
X116248571Y-105645000D01*
X116205714Y-105683095D01*
X116158095Y-105759286D01*
X116134286Y-105949762D01*
X116162857Y-106025952D01*
X116196190Y-106064048D01*
X116267619Y-106102143D01*
X116420000Y-106102143D01*
X116500952Y-106064048D01*
X116543810Y-106025952D01*
X116591429Y-105949762D01*
X123361905Y-102135714D02*
X122561905Y-102035714D01*
X122561905Y-101845238D01*
X122600000Y-101735714D01*
X122676190Y-101669047D01*
X122752381Y-101640476D01*
X122904762Y-101621428D01*
X123019048Y-101635714D01*
X123171429Y-101692857D01*
X123247619Y-101740475D01*
X123323810Y-101826190D01*
X123361905Y-101945238D01*
X123361905Y-102135714D01*
X122561905Y-101311904D02*
X122561905Y-100778571D01*
X123361905Y-101221428D01*
X123361905Y-99635714D02*
X122561905Y-99535714D01*
X122561905Y-99345238D01*
X122600000Y-99235714D01*
X122676190Y-99169047D01*
X122752381Y-99140476D01*
X122904762Y-99121428D01*
X123019048Y-99135714D01*
X123171429Y-99192857D01*
X123247619Y-99240475D01*
X123323810Y-99326190D01*
X123361905Y-99445238D01*
X123361905Y-99635714D01*
X122561905Y-98392857D02*
X122561905Y-98545238D01*
X122600000Y-98626190D01*
X122638095Y-98669047D01*
X122752381Y-98759524D01*
X122904762Y-98816666D01*
X123209524Y-98854761D01*
X123285714Y-98826190D01*
X123323810Y-98792857D01*
X123361905Y-98721428D01*
X123361905Y-98569047D01*
X123323810Y-98488095D01*
X123285714Y-98445237D01*
X123209524Y-98397618D01*
X123019048Y-98373809D01*
X122942857Y-98402380D01*
X122904762Y-98435714D01*
X122866667Y-98507142D01*
X122866667Y-98659523D01*
X122904762Y-98740476D01*
X122942857Y-98783333D01*
X123019048Y-98830952D01*
X112441905Y-101733333D02*
X112822857Y-101733333D01*
X112337143Y-101961905D02*
X112703810Y-101161905D01*
X112870477Y-101961905D01*
X113389524Y-101161905D02*
X113465715Y-101161905D01*
X113537143Y-101200000D01*
X113570476Y-101238095D01*
X113599048Y-101314286D01*
X113618096Y-101466667D01*
X113594286Y-101657143D01*
X113537144Y-101809524D01*
X113489524Y-101885714D01*
X113446667Y-101923810D01*
X113365715Y-101961905D01*
X113289524Y-101961905D01*
X113218096Y-101923810D01*
X113184762Y-101885714D01*
X113156191Y-101809524D01*
X113137143Y-101657143D01*
X113160953Y-101466667D01*
X113218095Y-101314286D01*
X113265714Y-101238095D01*
X113308572Y-101200000D01*
X113389524Y-101161905D01*
X112441905Y-100463333D02*
X112822857Y-100463333D01*
X112337143Y-100691905D02*
X112703810Y-99891905D01*
X112870477Y-100691905D01*
X113556191Y-100691905D02*
X113099048Y-100691905D01*
X113327619Y-100691905D02*
X113427619Y-99891905D01*
X113337143Y-100006190D01*
X113251428Y-100082381D01*
X113170477Y-100120476D01*
X113798333Y-97743095D02*
X113798333Y-97362143D01*
X114026905Y-97847857D02*
X113226905Y-97481190D01*
X114026905Y-97314523D01*
X113303095Y-96995476D02*
X113265000Y-96952619D01*
X113226905Y-96871666D01*
X113226905Y-96681190D01*
X113265000Y-96609762D01*
X113303095Y-96576428D01*
X113379286Y-96547857D01*
X113455476Y-96557380D01*
X113569762Y-96609761D01*
X114026905Y-97124047D01*
X114026905Y-96628809D01*
X112441905Y-94113333D02*
X112822857Y-94113333D01*
X112337143Y-94341905D02*
X112703810Y-93541905D01*
X112870477Y-94341905D01*
X113160953Y-93541905D02*
X113656191Y-93541905D01*
X113351429Y-93846667D01*
X113465715Y-93846667D01*
X113537143Y-93884762D01*
X113570477Y-93922857D01*
X113599048Y-93999048D01*
X113575239Y-94189524D01*
X113527620Y-94265714D01*
X113484762Y-94303810D01*
X113403810Y-94341905D01*
X113175238Y-94341905D01*
X113103810Y-94303810D01*
X113070477Y-94265714D01*
X112441905Y-91573333D02*
X112822857Y-91573333D01*
X112337143Y-91801905D02*
X112703810Y-91001905D01*
X112870477Y-91801905D01*
X113546667Y-91268571D02*
X113480000Y-91801905D01*
X113394286Y-90963810D02*
X113132381Y-91535238D01*
X113627619Y-91535238D01*
X112441905Y-89033333D02*
X112822857Y-89033333D01*
X112337143Y-89261905D02*
X112703810Y-88461905D01*
X112870477Y-89261905D01*
X113618096Y-88461905D02*
X113237143Y-88461905D01*
X113151429Y-88842857D01*
X113194286Y-88804762D01*
X113275239Y-88766667D01*
X113465715Y-88766667D01*
X113537143Y-88804762D01*
X113570477Y-88842857D01*
X113599048Y-88919048D01*
X113575239Y-89109524D01*
X113527620Y-89185714D01*
X113484762Y-89223810D01*
X113403810Y-89261905D01*
X113213334Y-89261905D01*
X113141905Y-89223810D01*
X113108572Y-89185714D01*
X112441905Y-87128333D02*
X112822857Y-87128333D01*
X112337143Y-87356905D02*
X112703810Y-86556905D01*
X112870477Y-87356905D01*
X113580000Y-86556905D02*
X113427619Y-86556905D01*
X113346667Y-86595000D01*
X113303810Y-86633095D01*
X113213333Y-86747381D01*
X113156191Y-86899762D01*
X113118096Y-87204524D01*
X113146667Y-87280714D01*
X113180000Y-87318810D01*
X113251429Y-87356905D01*
X113403810Y-87356905D01*
X113484762Y-87318810D01*
X113527620Y-87280714D01*
X113575239Y-87204524D01*
X113599048Y-87014048D01*
X113570477Y-86937857D01*
X113537143Y-86899762D01*
X113465715Y-86861667D01*
X113313334Y-86861667D01*
X113232381Y-86899762D01*
X113189524Y-86937857D01*
X113141905Y-87014048D01*
X112394286Y-83546905D02*
X112494286Y-82746905D01*
X112684762Y-82746905D01*
X112794286Y-82785000D01*
X112860953Y-82861190D01*
X112889524Y-82937381D01*
X112908572Y-83089762D01*
X112894286Y-83204048D01*
X112837143Y-83356429D01*
X112789525Y-83432619D01*
X112703810Y-83508810D01*
X112584762Y-83546905D01*
X112394286Y-83546905D01*
X113218096Y-82746905D02*
X113713334Y-82746905D01*
X113408572Y-83051667D01*
X113522858Y-83051667D01*
X113594286Y-83089762D01*
X113627620Y-83127857D01*
X113656191Y-83204048D01*
X113632382Y-83394524D01*
X113584763Y-83470714D01*
X113541905Y-83508810D01*
X113460953Y-83546905D01*
X113232381Y-83546905D01*
X113160953Y-83508810D01*
X113127620Y-83470714D01*
X94582619Y-81641905D02*
X94682619Y-80841905D01*
X94877857Y-81413333D01*
X95215953Y-80841905D01*
X95115953Y-81641905D01*
X95749286Y-80841905D02*
X95901667Y-80841905D01*
X95973096Y-80880000D01*
X96039762Y-80956190D01*
X96058810Y-81108571D01*
X96025476Y-81375238D01*
X95968334Y-81527619D01*
X95882620Y-81603810D01*
X95801667Y-81641905D01*
X95649286Y-81641905D01*
X95577858Y-81603810D01*
X95511191Y-81527619D01*
X95492143Y-81375238D01*
X95525477Y-81108571D01*
X95582619Y-80956190D01*
X95668334Y-80880000D01*
X95749286Y-80841905D01*
X96301667Y-81603810D02*
X96411191Y-81641905D01*
X96601667Y-81641905D01*
X96682619Y-81603810D01*
X96725477Y-81565714D01*
X96773096Y-81489524D01*
X96782619Y-81413333D01*
X96754048Y-81337143D01*
X96720714Y-81299048D01*
X96649286Y-81260952D01*
X96501667Y-81222857D01*
X96430238Y-81184762D01*
X96396905Y-81146667D01*
X96368334Y-81070476D01*
X96377857Y-80994286D01*
X96425476Y-80918095D01*
X96468333Y-80880000D01*
X96549286Y-80841905D01*
X96739762Y-80841905D01*
X96849286Y-80880000D01*
X97096905Y-81641905D02*
X97196905Y-80841905D01*
X98048095Y-80841905D02*
X98214762Y-81641905D01*
X98581429Y-80841905D01*
X99214762Y-81565714D02*
X99171905Y-81603810D01*
X99052857Y-81641905D01*
X98976667Y-81641905D01*
X98867143Y-81603810D01*
X98800476Y-81527619D01*
X98771904Y-81451429D01*
X98752857Y-81299048D01*
X98767143Y-81184762D01*
X98824285Y-81032381D01*
X98871904Y-80956190D01*
X98957619Y-80880000D01*
X99076667Y-80841905D01*
X99152857Y-80841905D01*
X99262381Y-80880000D01*
X99295714Y-80918095D01*
X100014762Y-81565714D02*
X99971905Y-81603810D01*
X99852857Y-81641905D01*
X99776667Y-81641905D01*
X99667143Y-81603810D01*
X99600476Y-81527619D01*
X99571904Y-81451429D01*
X99552857Y-81299048D01*
X99567143Y-81184762D01*
X99624285Y-81032381D01*
X99671904Y-80956190D01*
X99757619Y-80880000D01*
X99876667Y-80841905D01*
X99952857Y-80841905D01*
X100062381Y-80880000D01*
X100095714Y-80918095D01*
X92150477Y-80880000D02*
X92079048Y-80841905D01*
X91964763Y-80841905D01*
X91845715Y-80880000D01*
X91760000Y-80956190D01*
X91712381Y-81032381D01*
X91655239Y-81184762D01*
X91640953Y-81299048D01*
X91660000Y-81451429D01*
X91688572Y-81527619D01*
X91755239Y-81603810D01*
X91864763Y-81641905D01*
X91940953Y-81641905D01*
X92060001Y-81603810D01*
X92102858Y-81565714D01*
X92136191Y-81299048D01*
X91983810Y-81299048D01*
X92436191Y-81641905D02*
X92536191Y-80841905D01*
X92893334Y-81641905D01*
X92993334Y-80841905D01*
X93274286Y-81641905D02*
X93374286Y-80841905D01*
X93564762Y-80841905D01*
X93674286Y-80880000D01*
X93740953Y-80956190D01*
X93769524Y-81032381D01*
X93788572Y-81184762D01*
X93774286Y-81299048D01*
X93717143Y-81451429D01*
X93669525Y-81527619D01*
X93583810Y-81603810D01*
X93464762Y-81641905D01*
X93274286Y-81641905D01*
X97757619Y-75291905D02*
X97857619Y-74491905D01*
X98052857Y-75063333D01*
X98390953Y-74491905D01*
X98290953Y-75291905D01*
X98671905Y-75291905D02*
X98771905Y-74491905D01*
X99019524Y-75253810D02*
X99129048Y-75291905D01*
X99319524Y-75291905D01*
X99400476Y-75253810D01*
X99443334Y-75215714D01*
X99490953Y-75139524D01*
X99500476Y-75063333D01*
X99471905Y-74987143D01*
X99438571Y-74949048D01*
X99367143Y-74910952D01*
X99219524Y-74872857D01*
X99148095Y-74834762D01*
X99114762Y-74796667D01*
X99086191Y-74720476D01*
X99095714Y-74644286D01*
X99143333Y-74568095D01*
X99186190Y-74530000D01*
X99267143Y-74491905D01*
X99457619Y-74491905D01*
X99567143Y-74530000D01*
X100067143Y-74491905D02*
X100219524Y-74491905D01*
X100290953Y-74530000D01*
X100357619Y-74606190D01*
X100376667Y-74758571D01*
X100343333Y-75025238D01*
X100286191Y-75177619D01*
X100200477Y-75253810D01*
X100119524Y-75291905D01*
X99967143Y-75291905D01*
X99895715Y-75253810D01*
X99829048Y-75177619D01*
X99810000Y-75025238D01*
X99843334Y-74758571D01*
X99900476Y-74606190D01*
X99986191Y-74530000D01*
X100067143Y-74491905D01*
X94815953Y-75253810D02*
X94925477Y-75291905D01*
X95115953Y-75291905D01*
X95196905Y-75253810D01*
X95239763Y-75215714D01*
X95287382Y-75139524D01*
X95296905Y-75063333D01*
X95268334Y-74987143D01*
X95235000Y-74949048D01*
X95163572Y-74910952D01*
X95015953Y-74872857D01*
X94944524Y-74834762D01*
X94911191Y-74796667D01*
X94882620Y-74720476D01*
X94892143Y-74644286D01*
X94939762Y-74568095D01*
X94982619Y-74530000D01*
X95063572Y-74491905D01*
X95254048Y-74491905D01*
X95363572Y-74530000D01*
X96077858Y-75215714D02*
X96035001Y-75253810D01*
X95915953Y-75291905D01*
X95839763Y-75291905D01*
X95730239Y-75253810D01*
X95663572Y-75177619D01*
X95635000Y-75101429D01*
X95615953Y-74949048D01*
X95630239Y-74834762D01*
X95687381Y-74682381D01*
X95735000Y-74606190D01*
X95820715Y-74530000D01*
X95939763Y-74491905D01*
X96015953Y-74491905D01*
X96125477Y-74530000D01*
X96158810Y-74568095D01*
X96411191Y-75291905D02*
X96511191Y-74491905D01*
X96868334Y-75291905D02*
X96582620Y-74834762D01*
X96968334Y-74491905D02*
X96454048Y-74949048D01*
X91864762Y-75291905D02*
X91645714Y-74910952D01*
X91407619Y-75291905D02*
X91507619Y-74491905D01*
X91812381Y-74491905D01*
X91883810Y-74530000D01*
X91917143Y-74568095D01*
X91945714Y-74644286D01*
X91931429Y-74758571D01*
X91883810Y-74834762D01*
X91840953Y-74872857D01*
X91760000Y-74910952D01*
X91455238Y-74910952D01*
X92174286Y-75253810D02*
X92283810Y-75291905D01*
X92474286Y-75291905D01*
X92555238Y-75253810D01*
X92598096Y-75215714D01*
X92645715Y-75139524D01*
X92655238Y-75063333D01*
X92626667Y-74987143D01*
X92593333Y-74949048D01*
X92521905Y-74910952D01*
X92374286Y-74872857D01*
X92302857Y-74834762D01*
X92269524Y-74796667D01*
X92240953Y-74720476D01*
X92250476Y-74644286D01*
X92298095Y-74568095D01*
X92340952Y-74530000D01*
X92421905Y-74491905D01*
X92612381Y-74491905D01*
X92721905Y-74530000D01*
X93021905Y-74872857D02*
X93288572Y-74872857D01*
X93350477Y-75291905D02*
X92969524Y-75291905D01*
X93069524Y-74491905D01*
X93450477Y-74491905D01*
X93679048Y-74491905D02*
X94136191Y-74491905D01*
X93807620Y-75291905D02*
X93907620Y-74491905D01*
X107428571Y-150476190D02*
X107428571Y-150809524D01*
X107952381Y-150809524D02*
X106952381Y-150809524D01*
X106952381Y-150333333D01*
X106952381Y-150095238D02*
X106952381Y-149523809D01*
X107952381Y-149809524D02*
X106952381Y-149809524D01*
X107952381Y-149190476D02*
X106952381Y-149190476D01*
X106952381Y-148952381D01*
X107000000Y-148809523D01*
X107095238Y-148714285D01*
X107190476Y-148666666D01*
X107380952Y-148619047D01*
X107523810Y-148619047D01*
X107714286Y-148666666D01*
X107809524Y-148714285D01*
X107904762Y-148809523D01*
X107952381Y-148952381D01*
X107952381Y-149190476D01*
X107952381Y-148190476D02*
X106952381Y-148190476D01*
X116463095Y-130371905D02*
X116629762Y-131171905D01*
X116996429Y-130371905D01*
X117629762Y-131095714D02*
X117586905Y-131133810D01*
X117467857Y-131171905D01*
X117391667Y-131171905D01*
X117282143Y-131133810D01*
X117215476Y-131057619D01*
X117186904Y-130981429D01*
X117167857Y-130829048D01*
X117182143Y-130714762D01*
X117239285Y-130562381D01*
X117286904Y-130486190D01*
X117372619Y-130410000D01*
X117491667Y-130371905D01*
X117567857Y-130371905D01*
X117677381Y-130410000D01*
X117710714Y-130448095D01*
X118429762Y-131095714D02*
X118386905Y-131133810D01*
X118267857Y-131171905D01*
X118191667Y-131171905D01*
X118082143Y-131133810D01*
X118015476Y-131057619D01*
X117986904Y-130981429D01*
X117967857Y-130829048D01*
X117982143Y-130714762D01*
X118039285Y-130562381D01*
X118086904Y-130486190D01*
X118172619Y-130410000D01*
X118291667Y-130371905D01*
X118367857Y-130371905D01*
X118477381Y-130410000D01*
X118510714Y-130448095D01*
X116915477Y-132950000D02*
X116844048Y-132911905D01*
X116729763Y-132911905D01*
X116610715Y-132950000D01*
X116525000Y-133026190D01*
X116477381Y-133102381D01*
X116420239Y-133254762D01*
X116405953Y-133369048D01*
X116425000Y-133521429D01*
X116453572Y-133597619D01*
X116520239Y-133673810D01*
X116629763Y-133711905D01*
X116705953Y-133711905D01*
X116825001Y-133673810D01*
X116867858Y-133635714D01*
X116901191Y-133369048D01*
X116748810Y-133369048D01*
X117201191Y-133711905D02*
X117301191Y-132911905D01*
X117658334Y-133711905D01*
X117758334Y-132911905D01*
X118039286Y-133711905D02*
X118139286Y-132911905D01*
X118329762Y-132911905D01*
X118439286Y-132950000D01*
X118505953Y-133026190D01*
X118534524Y-133102381D01*
X118553572Y-133254762D01*
X118539286Y-133369048D01*
X118482143Y-133521429D01*
X118434525Y-133597619D01*
X118348810Y-133673810D01*
X118229762Y-133711905D01*
X118039286Y-133711905D01*
X116482143Y-136213810D02*
X116591667Y-136251905D01*
X116782143Y-136251905D01*
X116863095Y-136213810D01*
X116905953Y-136175714D01*
X116953572Y-136099524D01*
X116963095Y-136023333D01*
X116934524Y-135947143D01*
X116901190Y-135909048D01*
X116829762Y-135870952D01*
X116682143Y-135832857D01*
X116610714Y-135794762D01*
X116577381Y-135756667D01*
X116548810Y-135680476D01*
X116558333Y-135604286D01*
X116605952Y-135528095D01*
X116648809Y-135490000D01*
X116729762Y-135451905D01*
X116920238Y-135451905D01*
X117029762Y-135490000D01*
X117744048Y-136175714D02*
X117701191Y-136213810D01*
X117582143Y-136251905D01*
X117505953Y-136251905D01*
X117396429Y-136213810D01*
X117329762Y-136137619D01*
X117301190Y-136061429D01*
X117282143Y-135909048D01*
X117296429Y-135794762D01*
X117353571Y-135642381D01*
X117401190Y-135566190D01*
X117486905Y-135490000D01*
X117605953Y-135451905D01*
X117682143Y-135451905D01*
X117791667Y-135490000D01*
X117825000Y-135528095D01*
X118458334Y-136251905D02*
X118077381Y-136251905D01*
X118177381Y-135451905D01*
X116463096Y-138753810D02*
X116572620Y-138791905D01*
X116763096Y-138791905D01*
X116844048Y-138753810D01*
X116886906Y-138715714D01*
X116934525Y-138639524D01*
X116944048Y-138563333D01*
X116915477Y-138487143D01*
X116882143Y-138449048D01*
X116810715Y-138410952D01*
X116663096Y-138372857D01*
X116591667Y-138334762D01*
X116558334Y-138296667D01*
X116529763Y-138220476D01*
X116539286Y-138144286D01*
X116586905Y-138068095D01*
X116629762Y-138030000D01*
X116710715Y-137991905D01*
X116901191Y-137991905D01*
X117010715Y-138030000D01*
X117258334Y-138791905D02*
X117358334Y-137991905D01*
X117548810Y-137991905D01*
X117658334Y-138030000D01*
X117725001Y-138106190D01*
X117753572Y-138182381D01*
X117772620Y-138334762D01*
X117758334Y-138449048D01*
X117701191Y-138601429D01*
X117653573Y-138677619D01*
X117567858Y-138753810D01*
X117448810Y-138791905D01*
X117258334Y-138791905D01*
X118048810Y-138563333D02*
X118429762Y-138563333D01*
X117944048Y-138791905D02*
X118310715Y-137991905D01*
X118477382Y-138791905D01*
X107573096Y-138753810D02*
X107682620Y-138791905D01*
X107873096Y-138791905D01*
X107954048Y-138753810D01*
X107996906Y-138715714D01*
X108044525Y-138639524D01*
X108054048Y-138563333D01*
X108025477Y-138487143D01*
X107992143Y-138449048D01*
X107920715Y-138410952D01*
X107773096Y-138372857D01*
X107701667Y-138334762D01*
X107668334Y-138296667D01*
X107639763Y-138220476D01*
X107649286Y-138144286D01*
X107696905Y-138068095D01*
X107739762Y-138030000D01*
X107820715Y-137991905D01*
X108011191Y-137991905D01*
X108120715Y-138030000D01*
X108368334Y-138791905D02*
X108468334Y-137991905D01*
X108658810Y-137991905D01*
X108768334Y-138030000D01*
X108835001Y-138106190D01*
X108863572Y-138182381D01*
X108882620Y-138334762D01*
X108868334Y-138449048D01*
X108811191Y-138601429D01*
X108763573Y-138677619D01*
X108677858Y-138753810D01*
X108558810Y-138791905D01*
X108368334Y-138791905D01*
X109158810Y-138563333D02*
X109539762Y-138563333D01*
X109054048Y-138791905D02*
X109420715Y-137991905D01*
X109587382Y-138791905D01*
X107592143Y-136213810D02*
X107701667Y-136251905D01*
X107892143Y-136251905D01*
X107973095Y-136213810D01*
X108015953Y-136175714D01*
X108063572Y-136099524D01*
X108073095Y-136023333D01*
X108044524Y-135947143D01*
X108011190Y-135909048D01*
X107939762Y-135870952D01*
X107792143Y-135832857D01*
X107720714Y-135794762D01*
X107687381Y-135756667D01*
X107658810Y-135680476D01*
X107668333Y-135604286D01*
X107715952Y-135528095D01*
X107758809Y-135490000D01*
X107839762Y-135451905D01*
X108030238Y-135451905D01*
X108139762Y-135490000D01*
X108854048Y-136175714D02*
X108811191Y-136213810D01*
X108692143Y-136251905D01*
X108615953Y-136251905D01*
X108506429Y-136213810D01*
X108439762Y-136137619D01*
X108411190Y-136061429D01*
X108392143Y-135909048D01*
X108406429Y-135794762D01*
X108463571Y-135642381D01*
X108511190Y-135566190D01*
X108596905Y-135490000D01*
X108715953Y-135451905D01*
X108792143Y-135451905D01*
X108901667Y-135490000D01*
X108935000Y-135528095D01*
X109568334Y-136251905D02*
X109187381Y-136251905D01*
X109287381Y-135451905D01*
X108025477Y-132950000D02*
X107954048Y-132911905D01*
X107839763Y-132911905D01*
X107720715Y-132950000D01*
X107635000Y-133026190D01*
X107587381Y-133102381D01*
X107530239Y-133254762D01*
X107515953Y-133369048D01*
X107535000Y-133521429D01*
X107563572Y-133597619D01*
X107630239Y-133673810D01*
X107739763Y-133711905D01*
X107815953Y-133711905D01*
X107935001Y-133673810D01*
X107977858Y-133635714D01*
X108011191Y-133369048D01*
X107858810Y-133369048D01*
X108311191Y-133711905D02*
X108411191Y-132911905D01*
X108768334Y-133711905D01*
X108868334Y-132911905D01*
X109149286Y-133711905D02*
X109249286Y-132911905D01*
X109439762Y-132911905D01*
X109549286Y-132950000D01*
X109615953Y-133026190D01*
X109644524Y-133102381D01*
X109663572Y-133254762D01*
X109649286Y-133369048D01*
X109592143Y-133521429D01*
X109544525Y-133597619D01*
X109458810Y-133673810D01*
X109339762Y-133711905D01*
X109149286Y-133711905D01*
X107573095Y-130371905D02*
X107739762Y-131171905D01*
X108106429Y-130371905D01*
X108739762Y-131095714D02*
X108696905Y-131133810D01*
X108577857Y-131171905D01*
X108501667Y-131171905D01*
X108392143Y-131133810D01*
X108325476Y-131057619D01*
X108296904Y-130981429D01*
X108277857Y-130829048D01*
X108292143Y-130714762D01*
X108349285Y-130562381D01*
X108396904Y-130486190D01*
X108482619Y-130410000D01*
X108601667Y-130371905D01*
X108677857Y-130371905D01*
X108787381Y-130410000D01*
X108820714Y-130448095D01*
X109539762Y-131095714D02*
X109496905Y-131133810D01*
X109377857Y-131171905D01*
X109301667Y-131171905D01*
X109192143Y-131133810D01*
X109125476Y-131057619D01*
X109096904Y-130981429D01*
X109077857Y-130829048D01*
X109092143Y-130714762D01*
X109149285Y-130562381D01*
X109196904Y-130486190D01*
X109282619Y-130410000D01*
X109401667Y-130371905D01*
X109477857Y-130371905D01*
X109587381Y-130410000D01*
X109620714Y-130448095D01*
X96143095Y-130371905D02*
X96309762Y-131171905D01*
X96676429Y-130371905D01*
X97309762Y-131095714D02*
X97266905Y-131133810D01*
X97147857Y-131171905D01*
X97071667Y-131171905D01*
X96962143Y-131133810D01*
X96895476Y-131057619D01*
X96866904Y-130981429D01*
X96847857Y-130829048D01*
X96862143Y-130714762D01*
X96919285Y-130562381D01*
X96966904Y-130486190D01*
X97052619Y-130410000D01*
X97171667Y-130371905D01*
X97247857Y-130371905D01*
X97357381Y-130410000D01*
X97390714Y-130448095D01*
X98109762Y-131095714D02*
X98066905Y-131133810D01*
X97947857Y-131171905D01*
X97871667Y-131171905D01*
X97762143Y-131133810D01*
X97695476Y-131057619D01*
X97666904Y-130981429D01*
X97647857Y-130829048D01*
X97662143Y-130714762D01*
X97719285Y-130562381D01*
X97766904Y-130486190D01*
X97852619Y-130410000D01*
X97971667Y-130371905D01*
X98047857Y-130371905D01*
X98157381Y-130410000D01*
X98190714Y-130448095D01*
X96595477Y-132950000D02*
X96524048Y-132911905D01*
X96409763Y-132911905D01*
X96290715Y-132950000D01*
X96205000Y-133026190D01*
X96157381Y-133102381D01*
X96100239Y-133254762D01*
X96085953Y-133369048D01*
X96105000Y-133521429D01*
X96133572Y-133597619D01*
X96200239Y-133673810D01*
X96309763Y-133711905D01*
X96385953Y-133711905D01*
X96505001Y-133673810D01*
X96547858Y-133635714D01*
X96581191Y-133369048D01*
X96428810Y-133369048D01*
X96881191Y-133711905D02*
X96981191Y-132911905D01*
X97338334Y-133711905D01*
X97438334Y-132911905D01*
X97719286Y-133711905D02*
X97819286Y-132911905D01*
X98009762Y-132911905D01*
X98119286Y-132950000D01*
X98185953Y-133026190D01*
X98214524Y-133102381D01*
X98233572Y-133254762D01*
X98219286Y-133369048D01*
X98162143Y-133521429D01*
X98114525Y-133597619D01*
X98028810Y-133673810D01*
X97909762Y-133711905D01*
X97719286Y-133711905D01*
X96162143Y-136213810D02*
X96271667Y-136251905D01*
X96462143Y-136251905D01*
X96543095Y-136213810D01*
X96585953Y-136175714D01*
X96633572Y-136099524D01*
X96643095Y-136023333D01*
X96614524Y-135947143D01*
X96581190Y-135909048D01*
X96509762Y-135870952D01*
X96362143Y-135832857D01*
X96290714Y-135794762D01*
X96257381Y-135756667D01*
X96228810Y-135680476D01*
X96238333Y-135604286D01*
X96285952Y-135528095D01*
X96328809Y-135490000D01*
X96409762Y-135451905D01*
X96600238Y-135451905D01*
X96709762Y-135490000D01*
X97424048Y-136175714D02*
X97381191Y-136213810D01*
X97262143Y-136251905D01*
X97185953Y-136251905D01*
X97076429Y-136213810D01*
X97009762Y-136137619D01*
X96981190Y-136061429D01*
X96962143Y-135909048D01*
X96976429Y-135794762D01*
X97033571Y-135642381D01*
X97081190Y-135566190D01*
X97166905Y-135490000D01*
X97285953Y-135451905D01*
X97362143Y-135451905D01*
X97471667Y-135490000D01*
X97505000Y-135528095D01*
X98138334Y-136251905D02*
X97757381Y-136251905D01*
X97857381Y-135451905D01*
X96143096Y-138753810D02*
X96252620Y-138791905D01*
X96443096Y-138791905D01*
X96524048Y-138753810D01*
X96566906Y-138715714D01*
X96614525Y-138639524D01*
X96624048Y-138563333D01*
X96595477Y-138487143D01*
X96562143Y-138449048D01*
X96490715Y-138410952D01*
X96343096Y-138372857D01*
X96271667Y-138334762D01*
X96238334Y-138296667D01*
X96209763Y-138220476D01*
X96219286Y-138144286D01*
X96266905Y-138068095D01*
X96309762Y-138030000D01*
X96390715Y-137991905D01*
X96581191Y-137991905D01*
X96690715Y-138030000D01*
X96938334Y-138791905D02*
X97038334Y-137991905D01*
X97228810Y-137991905D01*
X97338334Y-138030000D01*
X97405001Y-138106190D01*
X97433572Y-138182381D01*
X97452620Y-138334762D01*
X97438334Y-138449048D01*
X97381191Y-138601429D01*
X97333573Y-138677619D01*
X97247858Y-138753810D01*
X97128810Y-138791905D01*
X96938334Y-138791905D01*
X97728810Y-138563333D02*
X98109762Y-138563333D01*
X97624048Y-138791905D02*
X97990715Y-137991905D01*
X98157382Y-138791905D01*
X91452381Y-79476190D02*
X90452381Y-79476190D01*
X91357143Y-78428571D02*
X91404762Y-78476190D01*
X91452381Y-78619047D01*
X91452381Y-78714285D01*
X91404762Y-78857143D01*
X91309524Y-78952381D01*
X91214286Y-79000000D01*
X91023810Y-79047619D01*
X90880952Y-79047619D01*
X90690476Y-79000000D01*
X90595238Y-78952381D01*
X90500000Y-78857143D01*
X90452381Y-78714285D01*
X90452381Y-78619047D01*
X90500000Y-78476190D01*
X90547619Y-78428571D01*
X91404762Y-78047619D02*
X91452381Y-77904762D01*
X91452381Y-77666666D01*
X91404762Y-77571428D01*
X91357143Y-77523809D01*
X91261905Y-77476190D01*
X91166667Y-77476190D01*
X91071429Y-77523809D01*
X91023810Y-77571428D01*
X90976190Y-77666666D01*
X90928571Y-77857143D01*
X90880952Y-77952381D01*
X90833333Y-78000000D01*
X90738095Y-78047619D01*
X90642857Y-78047619D01*
X90547619Y-78000000D01*
X90500000Y-77952381D01*
X90452381Y-77857143D01*
X90452381Y-77619047D01*
X90500000Y-77476190D01*
X91452381Y-77047619D02*
X90452381Y-77047619D01*
X90452381Y-76666666D01*
X90500000Y-76571428D01*
X90547619Y-76523809D01*
X90642857Y-76476190D01*
X90785714Y-76476190D01*
X90880952Y-76523809D01*
X90928571Y-76571428D01*
X90976190Y-76666666D01*
X90976190Y-77047619D01*
D13*
X115112143Y-147681905D02*
X114893095Y-147300952D01*
X114655000Y-147681905D02*
X114755000Y-146881905D01*
X115059762Y-146881905D01*
X115131191Y-146920000D01*
X115164524Y-146958095D01*
X115193095Y-147034286D01*
X115178810Y-147148571D01*
X115131191Y-147224762D01*
X115088334Y-147262857D01*
X115007381Y-147300952D01*
X114702619Y-147300952D01*
X115445476Y-147453333D02*
X115826428Y-147453333D01*
X115340714Y-147681905D02*
X115707381Y-146881905D01*
X115874048Y-147681905D01*
X116164524Y-146881905D02*
X116255000Y-147681905D01*
X116478810Y-147110476D01*
X116559762Y-147681905D01*
X116850238Y-146881905D01*
X117093095Y-147377143D02*
X117702619Y-147377143D01*
X110667143Y-147681905D02*
X110448095Y-147300952D01*
X110210000Y-147681905D02*
X110310000Y-146881905D01*
X110614762Y-146881905D01*
X110686191Y-146920000D01*
X110719524Y-146958095D01*
X110748095Y-147034286D01*
X110733810Y-147148571D01*
X110686191Y-147224762D01*
X110643334Y-147262857D01*
X110562381Y-147300952D01*
X110257619Y-147300952D01*
X111000476Y-147453333D02*
X111381428Y-147453333D01*
X110895714Y-147681905D02*
X111262381Y-146881905D01*
X111429048Y-147681905D01*
X111719524Y-146881905D02*
X111810000Y-147681905D01*
X112033810Y-147110476D01*
X112114762Y-147681905D01*
X112405238Y-146881905D01*
X112648095Y-147377143D02*
X113257619Y-147377143D01*
X112914762Y-147681905D02*
X112990952Y-147072381D01*
D12*
X102945477Y-150730000D02*
X102874048Y-150691905D01*
X102759763Y-150691905D01*
X102640715Y-150730000D01*
X102555000Y-150806190D01*
X102507381Y-150882381D01*
X102450239Y-151034762D01*
X102435953Y-151149048D01*
X102455000Y-151301429D01*
X102483572Y-151377619D01*
X102550239Y-151453810D01*
X102659763Y-151491905D01*
X102735953Y-151491905D01*
X102855001Y-151453810D01*
X102897858Y-151415714D01*
X102931191Y-151149048D01*
X102778810Y-151149048D01*
X103231191Y-151491905D02*
X103331191Y-150691905D01*
X103688334Y-151491905D01*
X103788334Y-150691905D01*
X104069286Y-151491905D02*
X104169286Y-150691905D01*
X104359762Y-150691905D01*
X104469286Y-150730000D01*
X104535953Y-150806190D01*
X104564524Y-150882381D01*
X104583572Y-151034762D01*
X104569286Y-151149048D01*
X104512143Y-151301429D01*
X104464525Y-151377619D01*
X104378810Y-151453810D01*
X104259762Y-151491905D01*
X104069286Y-151491905D01*
X98683095Y-150691905D02*
X98849762Y-151491905D01*
X99216429Y-150691905D01*
X99849762Y-151415714D02*
X99806905Y-151453810D01*
X99687857Y-151491905D01*
X99611667Y-151491905D01*
X99502143Y-151453810D01*
X99435476Y-151377619D01*
X99406904Y-151301429D01*
X99387857Y-151149048D01*
X99402143Y-151034762D01*
X99459285Y-150882381D01*
X99506904Y-150806190D01*
X99592619Y-150730000D01*
X99711667Y-150691905D01*
X99787857Y-150691905D01*
X99897381Y-150730000D01*
X99930714Y-150768095D01*
X100649762Y-151415714D02*
X100606905Y-151453810D01*
X100487857Y-151491905D01*
X100411667Y-151491905D01*
X100302143Y-151453810D01*
X100235476Y-151377619D01*
X100206904Y-151301429D01*
X100187857Y-151149048D01*
X100202143Y-151034762D01*
X100259285Y-150882381D01*
X100306904Y-150806190D01*
X100392619Y-150730000D01*
X100511667Y-150691905D01*
X100587857Y-150691905D01*
X100697381Y-150730000D01*
X100730714Y-150768095D01*
X96576429Y-151491905D02*
X96357381Y-151110952D01*
X96119286Y-151491905D02*
X96219286Y-150691905D01*
X96524048Y-150691905D01*
X96595477Y-150730000D01*
X96628810Y-150768095D01*
X96657381Y-150844286D01*
X96643096Y-150958571D01*
X96595477Y-151034762D01*
X96552620Y-151072857D01*
X96471667Y-151110952D01*
X96166905Y-151110952D01*
X96943096Y-150691905D02*
X97376429Y-151491905D01*
X97476429Y-150691905D02*
X96843096Y-151491905D01*
X97681191Y-151491905D02*
X97781191Y-150691905D01*
X97971667Y-150691905D01*
X98081191Y-150730000D01*
X98147858Y-150806190D01*
X98176429Y-150882381D01*
X98195477Y-151034762D01*
X98181191Y-151149048D01*
X98124048Y-151301429D01*
X98076430Y-151377619D01*
X97990715Y-151453810D01*
X97871667Y-151491905D01*
X97681191Y-151491905D01*
X93660238Y-150691905D02*
X94117381Y-150691905D01*
X93788810Y-151491905D02*
X93888810Y-150691905D01*
X94307858Y-150691905D02*
X94741191Y-151491905D01*
X94841191Y-150691905D02*
X94207858Y-151491905D01*
X95045953Y-151491905D02*
X95145953Y-150691905D01*
X95336429Y-150691905D01*
X95445953Y-150730000D01*
X95512620Y-150806190D01*
X95541191Y-150882381D01*
X95560239Y-151034762D01*
X95545953Y-151149048D01*
X95488810Y-151301429D01*
X95441192Y-151377619D01*
X95355477Y-151453810D01*
X95236429Y-151491905D01*
X95045953Y-151491905D01*
X91115476Y-151491905D02*
X91215476Y-150691905D01*
X91405952Y-150691905D01*
X91515476Y-150730000D01*
X91582143Y-150806190D01*
X91610714Y-150882381D01*
X91629762Y-151034762D01*
X91615476Y-151149048D01*
X91558333Y-151301429D01*
X91510715Y-151377619D01*
X91425000Y-151453810D01*
X91305952Y-151491905D01*
X91115476Y-151491905D01*
X91901190Y-150691905D02*
X92358333Y-150691905D01*
X92029762Y-151491905D02*
X92129762Y-150691905D01*
X92982143Y-151491905D02*
X92763095Y-151110952D01*
X92525000Y-151491905D02*
X92625000Y-150691905D01*
X92929762Y-150691905D01*
X93001191Y-150730000D01*
X93034524Y-150768095D01*
X93063095Y-150844286D01*
X93048810Y-150958571D01*
X93001191Y-151034762D01*
X92958334Y-151072857D01*
X92877381Y-151110952D01*
X92572619Y-151110952D01*
X87253096Y-138753810D02*
X87362620Y-138791905D01*
X87553096Y-138791905D01*
X87634048Y-138753810D01*
X87676906Y-138715714D01*
X87724525Y-138639524D01*
X87734048Y-138563333D01*
X87705477Y-138487143D01*
X87672143Y-138449048D01*
X87600715Y-138410952D01*
X87453096Y-138372857D01*
X87381667Y-138334762D01*
X87348334Y-138296667D01*
X87319763Y-138220476D01*
X87329286Y-138144286D01*
X87376905Y-138068095D01*
X87419762Y-138030000D01*
X87500715Y-137991905D01*
X87691191Y-137991905D01*
X87800715Y-138030000D01*
X88048334Y-138791905D02*
X88148334Y-137991905D01*
X88338810Y-137991905D01*
X88448334Y-138030000D01*
X88515001Y-138106190D01*
X88543572Y-138182381D01*
X88562620Y-138334762D01*
X88548334Y-138449048D01*
X88491191Y-138601429D01*
X88443573Y-138677619D01*
X88357858Y-138753810D01*
X88238810Y-138791905D01*
X88048334Y-138791905D01*
X88838810Y-138563333D02*
X89219762Y-138563333D01*
X88734048Y-138791905D02*
X89100715Y-137991905D01*
X89267382Y-138791905D01*
X87272143Y-136213810D02*
X87381667Y-136251905D01*
X87572143Y-136251905D01*
X87653095Y-136213810D01*
X87695953Y-136175714D01*
X87743572Y-136099524D01*
X87753095Y-136023333D01*
X87724524Y-135947143D01*
X87691190Y-135909048D01*
X87619762Y-135870952D01*
X87472143Y-135832857D01*
X87400714Y-135794762D01*
X87367381Y-135756667D01*
X87338810Y-135680476D01*
X87348333Y-135604286D01*
X87395952Y-135528095D01*
X87438809Y-135490000D01*
X87519762Y-135451905D01*
X87710238Y-135451905D01*
X87819762Y-135490000D01*
X88534048Y-136175714D02*
X88491191Y-136213810D01*
X88372143Y-136251905D01*
X88295953Y-136251905D01*
X88186429Y-136213810D01*
X88119762Y-136137619D01*
X88091190Y-136061429D01*
X88072143Y-135909048D01*
X88086429Y-135794762D01*
X88143571Y-135642381D01*
X88191190Y-135566190D01*
X88276905Y-135490000D01*
X88395953Y-135451905D01*
X88472143Y-135451905D01*
X88581667Y-135490000D01*
X88615000Y-135528095D01*
X89248334Y-136251905D02*
X88867381Y-136251905D01*
X88967381Y-135451905D01*
X87705477Y-132950000D02*
X87634048Y-132911905D01*
X87519763Y-132911905D01*
X87400715Y-132950000D01*
X87315000Y-133026190D01*
X87267381Y-133102381D01*
X87210239Y-133254762D01*
X87195953Y-133369048D01*
X87215000Y-133521429D01*
X87243572Y-133597619D01*
X87310239Y-133673810D01*
X87419763Y-133711905D01*
X87495953Y-133711905D01*
X87615001Y-133673810D01*
X87657858Y-133635714D01*
X87691191Y-133369048D01*
X87538810Y-133369048D01*
X87991191Y-133711905D02*
X88091191Y-132911905D01*
X88448334Y-133711905D01*
X88548334Y-132911905D01*
X88829286Y-133711905D02*
X88929286Y-132911905D01*
X89119762Y-132911905D01*
X89229286Y-132950000D01*
X89295953Y-133026190D01*
X89324524Y-133102381D01*
X89343572Y-133254762D01*
X89329286Y-133369048D01*
X89272143Y-133521429D01*
X89224525Y-133597619D01*
X89138810Y-133673810D01*
X89019762Y-133711905D01*
X88829286Y-133711905D01*
X87253095Y-130371905D02*
X87419762Y-131171905D01*
X87786429Y-130371905D01*
X88419762Y-131095714D02*
X88376905Y-131133810D01*
X88257857Y-131171905D01*
X88181667Y-131171905D01*
X88072143Y-131133810D01*
X88005476Y-131057619D01*
X87976904Y-130981429D01*
X87957857Y-130829048D01*
X87972143Y-130714762D01*
X88029285Y-130562381D01*
X88076904Y-130486190D01*
X88162619Y-130410000D01*
X88281667Y-130371905D01*
X88357857Y-130371905D01*
X88467381Y-130410000D01*
X88500714Y-130448095D01*
X89219762Y-131095714D02*
X89176905Y-131133810D01*
X89057857Y-131171905D01*
X88981667Y-131171905D01*
X88872143Y-131133810D01*
X88805476Y-131057619D01*
X88776904Y-130981429D01*
X88757857Y-130829048D01*
X88772143Y-130714762D01*
X88829285Y-130562381D01*
X88876904Y-130486190D01*
X88962619Y-130410000D01*
X89081667Y-130371905D01*
X89157857Y-130371905D01*
X89267381Y-130410000D01*
X89300714Y-130448095D01*
X134621320Y-88900000D02*
G75*
G03X134621320Y-88900000I-2121320J0D01*
G01*
X134621320Y-133200000D02*
G75*
G03X134621320Y-133200000I-2121320J0D01*
G01*
X141000000Y-140000000D02*
X124000000Y-140000000D01*
X124000000Y-140000000D02*
X124000000Y-83000000D01*
X124000000Y-83000000D02*
X141000000Y-83000000D01*
X141000000Y-83000000D02*
X141000000Y-140000000D01*
X152621320Y-134100000D02*
G75*
G03X152621320Y-134100000I-2121320J0D01*
G01*
X152621320Y-89800000D02*
G75*
G03X152621320Y-89800000I-2121320J0D01*
G01*
X142000000Y-83000000D02*
X159000000Y-83000000D01*
X159000000Y-83000000D02*
X159000000Y-140000000D01*
X159000000Y-140000000D02*
X142000000Y-140000000D01*
X142000000Y-140000000D02*
X142000000Y-83000000D01*
D14*
X108550000Y-127880000D02*
X107350000Y-127880000D01*
X107350000Y-126120000D02*
X108550000Y-126120000D01*
D12*
X83415000Y-104630000D02*
X83415000Y-104130000D01*
X83415000Y-87630000D02*
X83415000Y-88130000D01*
X102915000Y-99630000D02*
G75*
G03X102915000Y-99630000I-500000J0D01*
G01*
X102915000Y-94630000D02*
G75*
G03X102915000Y-94630000I-500000J0D01*
G01*
X102915000Y-97130000D02*
G75*
G03X102915000Y-97130000I-500000J0D01*
G01*
X83415000Y-87630000D02*
X103415000Y-87630000D01*
X103415000Y-87630000D02*
X103415000Y-104630000D01*
X103415000Y-104630000D02*
X83415000Y-104630000D01*
D14*
X113165000Y-113880000D02*
X114165000Y-113880000D01*
X114165000Y-112180000D02*
X113165000Y-112180000D01*
X94250000Y-106700000D02*
X94250000Y-105700000D01*
X92550000Y-105700000D02*
X92550000Y-106700000D01*
X106260000Y-101465000D02*
X106260000Y-100465000D01*
X104560000Y-100465000D02*
X104560000Y-101465000D01*
X102100000Y-120435000D02*
X101100000Y-120435000D01*
X101100000Y-122135000D02*
X102100000Y-122135000D01*
X93210000Y-145200000D02*
X92210000Y-145200000D01*
X92210000Y-146900000D02*
X93210000Y-146900000D01*
X114165000Y-109640000D02*
X113165000Y-109640000D01*
X113165000Y-111340000D02*
X114165000Y-111340000D01*
X91274000Y-111498000D02*
X91274000Y-110498000D01*
X89574000Y-110498000D02*
X89574000Y-111498000D01*
X92114000Y-112022000D02*
X92114000Y-113022000D01*
X93814000Y-113022000D02*
X93814000Y-112022000D01*
X110892335Y-80201392D02*
G75*
G03X107660000Y-80044484I-1672335J-1078608D01*
G01*
X110892335Y-82358608D02*
G75*
G02X107660000Y-82515516I-1672335J1078608D01*
G01*
X110261130Y-80200163D02*
G75*
G03X108179039Y-80200000I-1041130J-1079837D01*
G01*
X110261130Y-82359837D02*
G75*
G02X108179039Y-82360000I-1041130J1079837D01*
G01*
X107660000Y-80044000D02*
X107660000Y-80200000D01*
X107660000Y-82360000D02*
X107660000Y-82516000D01*
X106105000Y-150555000D02*
X106105000Y-147895000D01*
X93345000Y-150555000D02*
X106105000Y-150555000D01*
X93345000Y-147895000D02*
X106105000Y-147895000D01*
X93345000Y-150555000D02*
X93345000Y-147895000D01*
X92075000Y-150555000D02*
X90745000Y-150555000D01*
X90745000Y-150555000D02*
X90745000Y-149225000D01*
X83760000Y-139760000D02*
X86420000Y-139760000D01*
X83760000Y-132080000D02*
X83760000Y-139760000D01*
X86420000Y-132080000D02*
X86420000Y-139760000D01*
X83760000Y-132080000D02*
X86420000Y-132080000D01*
X83760000Y-130810000D02*
X83760000Y-129480000D01*
X83760000Y-129480000D02*
X85090000Y-129480000D01*
X99000000Y-139760000D02*
X101660000Y-139760000D01*
X99000000Y-132080000D02*
X99000000Y-139760000D01*
X101660000Y-132080000D02*
X101660000Y-139760000D01*
X99000000Y-132080000D02*
X101660000Y-132080000D01*
X99000000Y-130810000D02*
X99000000Y-129480000D01*
X99000000Y-129480000D02*
X100330000Y-129480000D01*
X104080000Y-139760000D02*
X106740000Y-139760000D01*
X104080000Y-132080000D02*
X104080000Y-139760000D01*
X106740000Y-132080000D02*
X106740000Y-139760000D01*
X104080000Y-132080000D02*
X106740000Y-132080000D01*
X104080000Y-130810000D02*
X104080000Y-129480000D01*
X104080000Y-129480000D02*
X105410000Y-129480000D01*
X119320000Y-139760000D02*
X121980000Y-139760000D01*
X119320000Y-132080000D02*
X119320000Y-139760000D01*
X121980000Y-132080000D02*
X121980000Y-139760000D01*
X119320000Y-132080000D02*
X121980000Y-132080000D01*
X119320000Y-130810000D02*
X119320000Y-129480000D01*
X119320000Y-129480000D02*
X120650000Y-129480000D01*
X96275000Y-145380000D02*
X96275000Y-144180000D01*
X98035000Y-144180000D02*
X98035000Y-145380000D01*
X109890000Y-84210000D02*
X111090000Y-84210000D01*
X111090000Y-85970000D02*
X109890000Y-85970000D01*
X104175000Y-84210000D02*
X105375000Y-84210000D01*
X105375000Y-85970000D02*
X104175000Y-85970000D01*
X114265000Y-127880000D02*
X113065000Y-127880000D01*
X113065000Y-126120000D02*
X114265000Y-126120000D01*
X91195000Y-132680000D02*
X91195000Y-131480000D01*
X92955000Y-131480000D02*
X92955000Y-132680000D01*
X92955000Y-136560000D02*
X92955000Y-137760000D01*
X91195000Y-137760000D02*
X91195000Y-136560000D01*
D12*
X97695000Y-106585000D02*
X97695000Y-107160000D01*
X108045000Y-106585000D02*
X108045000Y-107260000D01*
X108045000Y-116935000D02*
X108045000Y-116260000D01*
X97695000Y-116935000D02*
X97695000Y-116260000D01*
X97695000Y-106585000D02*
X98370000Y-106585000D01*
X97695000Y-116935000D02*
X98370000Y-116935000D01*
X108045000Y-116935000D02*
X107370000Y-116935000D01*
X108045000Y-106585000D02*
X107370000Y-106585000D01*
X97695000Y-107160000D02*
X96420000Y-107160000D01*
D14*
X88885000Y-109805000D02*
X88885000Y-116055000D01*
X83835000Y-109805000D02*
X83835000Y-116055000D01*
X83835000Y-109805000D02*
G75*
G02X88885000Y-109805000I2525000J0D01*
G01*
X83835000Y-116055000D02*
G75*
G03X88885000Y-116055000I2525000J0D01*
G01*
X92015000Y-75505000D02*
X92015000Y-80705000D01*
X97155000Y-75505000D02*
X92015000Y-75505000D01*
X99755000Y-80705000D02*
X92015000Y-80705000D01*
X97155000Y-75505000D02*
X97155000Y-78105000D01*
X97155000Y-78105000D02*
X99755000Y-78105000D01*
X99755000Y-78105000D02*
X99755000Y-80705000D01*
X98425000Y-75505000D02*
X99755000Y-75505000D01*
X99755000Y-75505000D02*
X99755000Y-76835000D01*
X121980000Y-105350000D02*
X116780000Y-105350000D01*
X121980000Y-123190000D02*
X121980000Y-105350000D01*
X116780000Y-125790000D02*
X116780000Y-105350000D01*
X121980000Y-123190000D02*
X119380000Y-123190000D01*
X119380000Y-123190000D02*
X119380000Y-125790000D01*
X119380000Y-125790000D02*
X116780000Y-125790000D01*
X121980000Y-124460000D02*
X121980000Y-125790000D01*
X121980000Y-125790000D02*
X120650000Y-125790000D01*
X113275000Y-104175000D02*
X113275000Y-105375000D01*
X111515000Y-105375000D02*
X111515000Y-104175000D01*
X111515000Y-97755000D02*
X111515000Y-96555000D01*
X113275000Y-96555000D02*
X113275000Y-97755000D01*
X119440000Y-82490000D02*
X114240000Y-82490000D01*
X119440000Y-100330000D02*
X119440000Y-82490000D01*
X114240000Y-102930000D02*
X114240000Y-82490000D01*
X119440000Y-100330000D02*
X116840000Y-100330000D01*
X116840000Y-100330000D02*
X116840000Y-102930000D01*
X116840000Y-102930000D02*
X114240000Y-102930000D01*
X119440000Y-101600000D02*
X119440000Y-102930000D01*
X119440000Y-102930000D02*
X118110000Y-102930000D01*
X116265000Y-150555000D02*
X116265000Y-147895000D01*
X113665000Y-150555000D02*
X116265000Y-150555000D01*
X113665000Y-147895000D02*
X116265000Y-147895000D01*
X113665000Y-150555000D02*
X113665000Y-147895000D01*
X112395000Y-150555000D02*
X111065000Y-150555000D01*
X111065000Y-150555000D02*
X111065000Y-149225000D01*
X116780000Y-105470000D02*
X119440000Y-105470000D01*
X116780000Y-105410000D02*
X116780000Y-105470000D01*
X119440000Y-105410000D02*
X119440000Y-105470000D01*
X116780000Y-105410000D02*
X119440000Y-105410000D01*
X116780000Y-104140000D02*
X116780000Y-102810000D01*
X116780000Y-102810000D02*
X118110000Y-102810000D01*
X121980000Y-102930000D02*
X121980000Y-97730000D01*
X121920000Y-102930000D02*
X121980000Y-102930000D01*
X119320000Y-97730000D02*
X121980000Y-97730000D01*
X121920000Y-102930000D02*
X121920000Y-100330000D01*
X121920000Y-100330000D02*
X119320000Y-100330000D01*
X119320000Y-100330000D02*
X119320000Y-97730000D01*
X120650000Y-102930000D02*
X119320000Y-102930000D01*
X119320000Y-102930000D02*
X119320000Y-101600000D01*
X84590000Y-84035000D02*
X85590000Y-84035000D01*
X85590000Y-82335000D02*
X84590000Y-82335000D01*
X84590000Y-86575000D02*
X85590000Y-86575000D01*
X85590000Y-84875000D02*
X84590000Y-84875000D01*
X106160000Y-75025000D02*
X112280000Y-75025000D01*
X112280000Y-75025000D02*
X112280000Y-78645000D01*
X112280000Y-78645000D02*
X106160000Y-78645000D01*
X106160000Y-78645000D02*
X106160000Y-75025000D01*
D15*
X132514286Y-90042857D02*
X132514286Y-87757143D01*
X133657143Y-88900000D02*
X131371429Y-88900000D01*
X132514286Y-134342857D02*
X132514286Y-132057143D01*
X150914286Y-135242857D02*
X150914286Y-132957143D01*
X152057143Y-134100000D02*
X149771429Y-134100000D01*
X150914286Y-90942857D02*
X150914286Y-88657143D01*
D12*
X107783334Y-125752381D02*
X107450000Y-125276190D01*
X107211905Y-125752381D02*
X107211905Y-124752381D01*
X107592858Y-124752381D01*
X107688096Y-124800000D01*
X107735715Y-124847619D01*
X107783334Y-124942857D01*
X107783334Y-125085714D01*
X107735715Y-125180952D01*
X107688096Y-125228571D01*
X107592858Y-125276190D01*
X107211905Y-125276190D01*
X108640477Y-124752381D02*
X108450000Y-124752381D01*
X108354762Y-124800000D01*
X108307143Y-124847619D01*
X108211905Y-124990476D01*
X108164286Y-125180952D01*
X108164286Y-125561905D01*
X108211905Y-125657143D01*
X108259524Y-125704762D01*
X108354762Y-125752381D01*
X108545239Y-125752381D01*
X108640477Y-125704762D01*
X108688096Y-125657143D01*
X108735715Y-125561905D01*
X108735715Y-125323810D01*
X108688096Y-125228571D01*
X108640477Y-125180952D01*
X108545239Y-125133333D01*
X108354762Y-125133333D01*
X108259524Y-125180952D01*
X108211905Y-125228571D01*
X108164286Y-125323810D01*
X95123095Y-85812381D02*
X95123095Y-86621905D01*
X95170714Y-86717143D01*
X95218333Y-86764762D01*
X95313571Y-86812381D01*
X95504048Y-86812381D01*
X95599286Y-86764762D01*
X95646905Y-86717143D01*
X95694524Y-86621905D01*
X95694524Y-85812381D01*
X96123095Y-85907619D02*
X96170714Y-85860000D01*
X96265952Y-85812381D01*
X96504048Y-85812381D01*
X96599286Y-85860000D01*
X96646905Y-85907619D01*
X96694524Y-86002857D01*
X96694524Y-86098095D01*
X96646905Y-86240952D01*
X96075476Y-86812381D01*
X96694524Y-86812381D01*
X111593334Y-115292143D02*
X111545715Y-115339762D01*
X111402858Y-115387381D01*
X111307620Y-115387381D01*
X111164762Y-115339762D01*
X111069524Y-115244524D01*
X111021905Y-115149286D01*
X110974286Y-114958810D01*
X110974286Y-114815952D01*
X111021905Y-114625476D01*
X111069524Y-114530238D01*
X111164762Y-114435000D01*
X111307620Y-114387381D01*
X111402858Y-114387381D01*
X111545715Y-114435000D01*
X111593334Y-114482619D01*
X112545715Y-115387381D02*
X111974286Y-115387381D01*
X112260000Y-115387381D02*
X112260000Y-114387381D01*
X112164762Y-114530238D01*
X112069524Y-114625476D01*
X111974286Y-114673095D01*
X95507143Y-106366666D02*
X95554762Y-106414285D01*
X95602381Y-106557142D01*
X95602381Y-106652380D01*
X95554762Y-106795238D01*
X95459524Y-106890476D01*
X95364286Y-106938095D01*
X95173810Y-106985714D01*
X95030952Y-106985714D01*
X94840476Y-106938095D01*
X94745238Y-106890476D01*
X94650000Y-106795238D01*
X94602381Y-106652380D01*
X94602381Y-106557142D01*
X94650000Y-106414285D01*
X94697619Y-106366666D01*
X94697619Y-105985714D02*
X94650000Y-105938095D01*
X94602381Y-105842857D01*
X94602381Y-105604761D01*
X94650000Y-105509523D01*
X94697619Y-105461904D01*
X94792857Y-105414285D01*
X94888095Y-105414285D01*
X95030952Y-105461904D01*
X95602381Y-106033333D01*
X95602381Y-105414285D01*
X107517143Y-101131666D02*
X107564762Y-101179285D01*
X107612381Y-101322142D01*
X107612381Y-101417380D01*
X107564762Y-101560238D01*
X107469524Y-101655476D01*
X107374286Y-101703095D01*
X107183810Y-101750714D01*
X107040952Y-101750714D01*
X106850476Y-101703095D01*
X106755238Y-101655476D01*
X106660000Y-101560238D01*
X106612381Y-101417380D01*
X106612381Y-101322142D01*
X106660000Y-101179285D01*
X106707619Y-101131666D01*
X106612381Y-100798333D02*
X106612381Y-100179285D01*
X106993333Y-100512619D01*
X106993333Y-100369761D01*
X107040952Y-100274523D01*
X107088571Y-100226904D01*
X107183810Y-100179285D01*
X107421905Y-100179285D01*
X107517143Y-100226904D01*
X107564762Y-100274523D01*
X107612381Y-100369761D01*
X107612381Y-100655476D01*
X107564762Y-100750714D01*
X107517143Y-100798333D01*
X98258334Y-121642143D02*
X98210715Y-121689762D01*
X98067858Y-121737381D01*
X97972620Y-121737381D01*
X97829762Y-121689762D01*
X97734524Y-121594524D01*
X97686905Y-121499286D01*
X97639286Y-121308810D01*
X97639286Y-121165952D01*
X97686905Y-120975476D01*
X97734524Y-120880238D01*
X97829762Y-120785000D01*
X97972620Y-120737381D01*
X98067858Y-120737381D01*
X98210715Y-120785000D01*
X98258334Y-120832619D01*
X99115477Y-121070714D02*
X99115477Y-121737381D01*
X98877381Y-120689762D02*
X98639286Y-121404048D01*
X99258334Y-121404048D01*
X92543334Y-144657143D02*
X92495715Y-144704762D01*
X92352858Y-144752381D01*
X92257620Y-144752381D01*
X92114762Y-144704762D01*
X92019524Y-144609524D01*
X91971905Y-144514286D01*
X91924286Y-144323810D01*
X91924286Y-144180952D01*
X91971905Y-143990476D01*
X92019524Y-143895238D01*
X92114762Y-143800000D01*
X92257620Y-143752381D01*
X92352858Y-143752381D01*
X92495715Y-143800000D01*
X92543334Y-143847619D01*
X93448096Y-143752381D02*
X92971905Y-143752381D01*
X92924286Y-144228571D01*
X92971905Y-144180952D01*
X93067143Y-144133333D01*
X93305239Y-144133333D01*
X93400477Y-144180952D01*
X93448096Y-144228571D01*
X93495715Y-144323810D01*
X93495715Y-144561905D01*
X93448096Y-144657143D01*
X93400477Y-144704762D01*
X93305239Y-144752381D01*
X93067143Y-144752381D01*
X92971905Y-144704762D01*
X92924286Y-144657143D01*
X111593334Y-108942143D02*
X111545715Y-108989762D01*
X111402858Y-109037381D01*
X111307620Y-109037381D01*
X111164762Y-108989762D01*
X111069524Y-108894524D01*
X111021905Y-108799286D01*
X110974286Y-108608810D01*
X110974286Y-108465952D01*
X111021905Y-108275476D01*
X111069524Y-108180238D01*
X111164762Y-108085000D01*
X111307620Y-108037381D01*
X111402858Y-108037381D01*
X111545715Y-108085000D01*
X111593334Y-108132619D01*
X112450477Y-108037381D02*
X112260000Y-108037381D01*
X112164762Y-108085000D01*
X112117143Y-108132619D01*
X112021905Y-108275476D01*
X111974286Y-108465952D01*
X111974286Y-108846905D01*
X112021905Y-108942143D01*
X112069524Y-108989762D01*
X112164762Y-109037381D01*
X112355239Y-109037381D01*
X112450477Y-108989762D01*
X112498096Y-108942143D01*
X112545715Y-108846905D01*
X112545715Y-108608810D01*
X112498096Y-108513571D01*
X112450477Y-108465952D01*
X112355239Y-108418333D01*
X112164762Y-108418333D01*
X112069524Y-108465952D01*
X112021905Y-108513571D01*
X111974286Y-108608810D01*
X94972143Y-113196666D02*
X95019762Y-113244285D01*
X95067381Y-113387142D01*
X95067381Y-113482380D01*
X95019762Y-113625238D01*
X94924524Y-113720476D01*
X94829286Y-113768095D01*
X94638810Y-113815714D01*
X94495952Y-113815714D01*
X94305476Y-113768095D01*
X94210238Y-113720476D01*
X94115000Y-113625238D01*
X94067381Y-113482380D01*
X94067381Y-113387142D01*
X94115000Y-113244285D01*
X94162619Y-113196666D01*
X94067381Y-112863333D02*
X94067381Y-112196666D01*
X95067381Y-112625238D01*
X91162143Y-114466666D02*
X91209762Y-114514285D01*
X91257381Y-114657142D01*
X91257381Y-114752380D01*
X91209762Y-114895238D01*
X91114524Y-114990476D01*
X91019286Y-115038095D01*
X90828810Y-115085714D01*
X90685952Y-115085714D01*
X90495476Y-115038095D01*
X90400238Y-114990476D01*
X90305000Y-114895238D01*
X90257381Y-114752380D01*
X90257381Y-114657142D01*
X90305000Y-114514285D01*
X90352619Y-114466666D01*
X90685952Y-113895238D02*
X90638333Y-113990476D01*
X90590714Y-114038095D01*
X90495476Y-114085714D01*
X90447857Y-114085714D01*
X90352619Y-114038095D01*
X90305000Y-113990476D01*
X90257381Y-113895238D01*
X90257381Y-113704761D01*
X90305000Y-113609523D01*
X90352619Y-113561904D01*
X90447857Y-113514285D01*
X90495476Y-113514285D01*
X90590714Y-113561904D01*
X90638333Y-113609523D01*
X90685952Y-113704761D01*
X90685952Y-113895238D01*
X90733571Y-113990476D01*
X90781190Y-114038095D01*
X90876429Y-114085714D01*
X91066905Y-114085714D01*
X91162143Y-114038095D01*
X91209762Y-113990476D01*
X91257381Y-113895238D01*
X91257381Y-113704761D01*
X91209762Y-113609523D01*
X91162143Y-113561904D01*
X91066905Y-113514285D01*
X90876429Y-113514285D01*
X90781190Y-113561904D01*
X90733571Y-113609523D01*
X90685952Y-113704761D01*
X103401905Y-81732381D02*
X103401905Y-80732381D01*
X103640000Y-80732381D01*
X103782858Y-80780000D01*
X103878096Y-80875238D01*
X103925715Y-80970476D01*
X103973334Y-81160952D01*
X103973334Y-81303810D01*
X103925715Y-81494286D01*
X103878096Y-81589524D01*
X103782858Y-81684762D01*
X103640000Y-81732381D01*
X103401905Y-81732381D01*
X104925715Y-81732381D02*
X104354286Y-81732381D01*
X104640000Y-81732381D02*
X104640000Y-80732381D01*
X104544762Y-80875238D01*
X104449524Y-80970476D01*
X104354286Y-81018095D01*
X99307381Y-144946666D02*
X98831190Y-145280000D01*
X99307381Y-145518095D02*
X98307381Y-145518095D01*
X98307381Y-145137142D01*
X98355000Y-145041904D01*
X98402619Y-144994285D01*
X98497857Y-144946666D01*
X98640714Y-144946666D01*
X98735952Y-144994285D01*
X98783571Y-145041904D01*
X98831190Y-145137142D01*
X98831190Y-145518095D01*
X99307381Y-143994285D02*
X99307381Y-144565714D01*
X99307381Y-144280000D02*
X98307381Y-144280000D01*
X98450238Y-144375238D01*
X98545476Y-144470476D01*
X98593095Y-144565714D01*
X110323334Y-87242381D02*
X109990000Y-86766190D01*
X109751905Y-87242381D02*
X109751905Y-86242381D01*
X110132858Y-86242381D01*
X110228096Y-86290000D01*
X110275715Y-86337619D01*
X110323334Y-86432857D01*
X110323334Y-86575714D01*
X110275715Y-86670952D01*
X110228096Y-86718571D01*
X110132858Y-86766190D01*
X109751905Y-86766190D01*
X110704286Y-86337619D02*
X110751905Y-86290000D01*
X110847143Y-86242381D01*
X111085239Y-86242381D01*
X111180477Y-86290000D01*
X111228096Y-86337619D01*
X111275715Y-86432857D01*
X111275715Y-86528095D01*
X111228096Y-86670952D01*
X110656667Y-87242381D01*
X111275715Y-87242381D01*
X104608334Y-87242381D02*
X104275000Y-86766190D01*
X104036905Y-87242381D02*
X104036905Y-86242381D01*
X104417858Y-86242381D01*
X104513096Y-86290000D01*
X104560715Y-86337619D01*
X104608334Y-86432857D01*
X104608334Y-86575714D01*
X104560715Y-86670952D01*
X104513096Y-86718571D01*
X104417858Y-86766190D01*
X104036905Y-86766190D01*
X104941667Y-86242381D02*
X105560715Y-86242381D01*
X105227381Y-86623333D01*
X105370239Y-86623333D01*
X105465477Y-86670952D01*
X105513096Y-86718571D01*
X105560715Y-86813810D01*
X105560715Y-87051905D01*
X105513096Y-87147143D01*
X105465477Y-87194762D01*
X105370239Y-87242381D01*
X105084524Y-87242381D01*
X104989286Y-87194762D01*
X104941667Y-87147143D01*
X113498334Y-125752381D02*
X113165000Y-125276190D01*
X112926905Y-125752381D02*
X112926905Y-124752381D01*
X113307858Y-124752381D01*
X113403096Y-124800000D01*
X113450715Y-124847619D01*
X113498334Y-124942857D01*
X113498334Y-125085714D01*
X113450715Y-125180952D01*
X113403096Y-125228571D01*
X113307858Y-125276190D01*
X112926905Y-125276190D01*
X114403096Y-124752381D02*
X113926905Y-124752381D01*
X113879286Y-125228571D01*
X113926905Y-125180952D01*
X114022143Y-125133333D01*
X114260239Y-125133333D01*
X114355477Y-125180952D01*
X114403096Y-125228571D01*
X114450715Y-125323810D01*
X114450715Y-125561905D01*
X114403096Y-125657143D01*
X114355477Y-125704762D01*
X114260239Y-125752381D01*
X114022143Y-125752381D01*
X113926905Y-125704762D01*
X113879286Y-125657143D01*
X94227381Y-132246666D02*
X93751190Y-132580000D01*
X94227381Y-132818095D02*
X93227381Y-132818095D01*
X93227381Y-132437142D01*
X93275000Y-132341904D01*
X93322619Y-132294285D01*
X93417857Y-132246666D01*
X93560714Y-132246666D01*
X93655952Y-132294285D01*
X93703571Y-132341904D01*
X93751190Y-132437142D01*
X93751190Y-132818095D01*
X93227381Y-131913333D02*
X93227381Y-131246666D01*
X94227381Y-131675238D01*
X94432381Y-137326666D02*
X93956190Y-137660000D01*
X94432381Y-137898095D02*
X93432381Y-137898095D01*
X93432381Y-137517142D01*
X93480000Y-137421904D01*
X93527619Y-137374285D01*
X93622857Y-137326666D01*
X93765714Y-137326666D01*
X93860952Y-137374285D01*
X93908571Y-137421904D01*
X93956190Y-137517142D01*
X93956190Y-137898095D01*
X93860952Y-136755238D02*
X93813333Y-136850476D01*
X93765714Y-136898095D01*
X93670476Y-136945714D01*
X93622857Y-136945714D01*
X93527619Y-136898095D01*
X93480000Y-136850476D01*
X93432381Y-136755238D01*
X93432381Y-136564761D01*
X93480000Y-136469523D01*
X93527619Y-136421904D01*
X93622857Y-136374285D01*
X93670476Y-136374285D01*
X93765714Y-136421904D01*
X93813333Y-136469523D01*
X93860952Y-136564761D01*
X93860952Y-136755238D01*
X93908571Y-136850476D01*
X93956190Y-136898095D01*
X94051429Y-136945714D01*
X94241905Y-136945714D01*
X94337143Y-136898095D01*
X94384762Y-136850476D01*
X94432381Y-136755238D01*
X94432381Y-136564761D01*
X94384762Y-136469523D01*
X94337143Y-136421904D01*
X94241905Y-136374285D01*
X94051429Y-136374285D01*
X93956190Y-136421904D01*
X93908571Y-136469523D01*
X93860952Y-136564761D01*
X108458095Y-116927381D02*
X108458095Y-117736905D01*
X108505714Y-117832143D01*
X108553333Y-117879762D01*
X108648571Y-117927381D01*
X108839048Y-117927381D01*
X108934286Y-117879762D01*
X108981905Y-117832143D01*
X109029524Y-117736905D01*
X109029524Y-116927381D01*
X110029524Y-117927381D02*
X109458095Y-117927381D01*
X109743809Y-117927381D02*
X109743809Y-116927381D01*
X109648571Y-117070238D01*
X109553333Y-117165476D01*
X109458095Y-117213095D01*
X89511190Y-117951191D02*
X89987381Y-117951191D01*
X88987381Y-118284524D02*
X89511190Y-117951191D01*
X88987381Y-117617857D01*
X89987381Y-116760714D02*
X89987381Y-117332143D01*
X89987381Y-117046429D02*
X88987381Y-117046429D01*
X89130238Y-117141667D01*
X89225476Y-117236905D01*
X89273095Y-117332143D01*
X111147381Y-104941666D02*
X110671190Y-105275000D01*
X111147381Y-105513095D02*
X110147381Y-105513095D01*
X110147381Y-105132142D01*
X110195000Y-105036904D01*
X110242619Y-104989285D01*
X110337857Y-104941666D01*
X110480714Y-104941666D01*
X110575952Y-104989285D01*
X110623571Y-105036904D01*
X110671190Y-105132142D01*
X110671190Y-105513095D01*
X111147381Y-104465476D02*
X111147381Y-104275000D01*
X111099762Y-104179761D01*
X111052143Y-104132142D01*
X110909286Y-104036904D01*
X110718810Y-103989285D01*
X110337857Y-103989285D01*
X110242619Y-104036904D01*
X110195000Y-104084523D01*
X110147381Y-104179761D01*
X110147381Y-104370238D01*
X110195000Y-104465476D01*
X110242619Y-104513095D01*
X110337857Y-104560714D01*
X110575952Y-104560714D01*
X110671190Y-104513095D01*
X110718810Y-104465476D01*
X110766429Y-104370238D01*
X110766429Y-104179761D01*
X110718810Y-104084523D01*
X110671190Y-104036904D01*
X110575952Y-103989285D01*
X110942381Y-97797857D02*
X110466190Y-98131191D01*
X110942381Y-98369286D02*
X109942381Y-98369286D01*
X109942381Y-97988333D01*
X109990000Y-97893095D01*
X110037619Y-97845476D01*
X110132857Y-97797857D01*
X110275714Y-97797857D01*
X110370952Y-97845476D01*
X110418571Y-97893095D01*
X110466190Y-97988333D01*
X110466190Y-98369286D01*
X110942381Y-96845476D02*
X110942381Y-97416905D01*
X110942381Y-97131191D02*
X109942381Y-97131191D01*
X110085238Y-97226429D01*
X110180476Y-97321667D01*
X110228095Y-97416905D01*
X109942381Y-96226429D02*
X109942381Y-96131190D01*
X109990000Y-96035952D01*
X110037619Y-95988333D01*
X110132857Y-95940714D01*
X110323333Y-95893095D01*
X110561429Y-95893095D01*
X110751905Y-95940714D01*
X110847143Y-95988333D01*
X110894762Y-96035952D01*
X110942381Y-96131190D01*
X110942381Y-96226429D01*
X110894762Y-96321667D01*
X110847143Y-96369286D01*
X110751905Y-96416905D01*
X110561429Y-96464524D01*
X110323333Y-96464524D01*
X110132857Y-96416905D01*
X110037619Y-96369286D01*
X109990000Y-96321667D01*
X109942381Y-96226429D01*
X88257143Y-83542143D02*
X88209524Y-83589762D01*
X88066667Y-83637381D01*
X87971429Y-83637381D01*
X87828571Y-83589762D01*
X87733333Y-83494524D01*
X87685714Y-83399286D01*
X87638095Y-83208810D01*
X87638095Y-83065952D01*
X87685714Y-82875476D01*
X87733333Y-82780238D01*
X87828571Y-82685000D01*
X87971429Y-82637381D01*
X88066667Y-82637381D01*
X88209524Y-82685000D01*
X88257143Y-82732619D01*
X89209524Y-83637381D02*
X88638095Y-83637381D01*
X88923809Y-83637381D02*
X88923809Y-82637381D01*
X88828571Y-82780238D01*
X88733333Y-82875476D01*
X88638095Y-82923095D01*
X89542857Y-82637381D02*
X90161905Y-82637381D01*
X89828571Y-83018333D01*
X89971429Y-83018333D01*
X90066667Y-83065952D01*
X90114286Y-83113571D01*
X90161905Y-83208810D01*
X90161905Y-83446905D01*
X90114286Y-83542143D01*
X90066667Y-83589762D01*
X89971429Y-83637381D01*
X89685714Y-83637381D01*
X89590476Y-83589762D01*
X89542857Y-83542143D01*
X88257143Y-86082143D02*
X88209524Y-86129762D01*
X88066667Y-86177381D01*
X87971429Y-86177381D01*
X87828571Y-86129762D01*
X87733333Y-86034524D01*
X87685714Y-85939286D01*
X87638095Y-85748810D01*
X87638095Y-85605952D01*
X87685714Y-85415476D01*
X87733333Y-85320238D01*
X87828571Y-85225000D01*
X87971429Y-85177381D01*
X88066667Y-85177381D01*
X88209524Y-85225000D01*
X88257143Y-85272619D01*
X89209524Y-86177381D02*
X88638095Y-86177381D01*
X88923809Y-86177381D02*
X88923809Y-85177381D01*
X88828571Y-85320238D01*
X88733333Y-85415476D01*
X88638095Y-85463095D01*
X90066667Y-85510714D02*
X90066667Y-86177381D01*
X89828571Y-85129762D02*
X89590476Y-85844048D01*
X90209524Y-85844048D01*
X114166667Y-79404762D02*
X114309524Y-79452381D01*
X114547620Y-79452381D01*
X114642858Y-79404762D01*
X114690477Y-79357143D01*
X114738096Y-79261905D01*
X114738096Y-79166667D01*
X114690477Y-79071429D01*
X114642858Y-79023810D01*
X114547620Y-78976190D01*
X114357143Y-78928571D01*
X114261905Y-78880952D01*
X114214286Y-78833333D01*
X114166667Y-78738095D01*
X114166667Y-78642857D01*
X114214286Y-78547619D01*
X114261905Y-78500000D01*
X114357143Y-78452381D01*
X114595239Y-78452381D01*
X114738096Y-78500000D01*
X115071429Y-78452381D02*
X115309524Y-79452381D01*
X115500001Y-78738095D01*
X115690477Y-79452381D01*
X115928572Y-78452381D01*
X116833334Y-79452381D02*
X116261905Y-79452381D01*
X116547619Y-79452381D02*
X116547619Y-78452381D01*
X116452381Y-78595238D01*
X116357143Y-78690476D01*
X116261905Y-78738095D01*
M02*
