G04 #@! TF.GenerationSoftware,KiCad,Pcbnew,(5.0.1)-3*
G04 #@! TF.CreationDate,2018-12-07T05:25:01+01:00*
G04 #@! TF.ProjectId,HB-UNI-644,48422D554E492D3634342E6B69636164,2.0*
G04 #@! TF.SameCoordinates,Original*
G04 #@! TF.FileFunction,Copper,L2,Bot,Signal*
G04 #@! TF.FilePolarity,Positive*
%FSLAX46Y46*%
G04 Gerber Fmt 4.6, Leading zero omitted, Abs format (unit mm)*
G04 Created by KiCad (PCBNEW (5.0.1)-3) date 07.12.2018 05:25:01*
%MOMM*%
%LPD*%
G01*
G04 APERTURE LIST*
G04 #@! TA.AperFunction,ComponentPad*
%ADD10C,1.350000*%
G04 #@! TD*
G04 #@! TA.AperFunction,ComponentPad*
%ADD11R,2.000000X2.000000*%
G04 #@! TD*
G04 #@! TA.AperFunction,ComponentPad*
%ADD12O,2.000000X2.000000*%
G04 #@! TD*
G04 #@! TA.AperFunction,ComponentPad*
%ADD13C,1.600000*%
G04 #@! TD*
G04 #@! TA.AperFunction,SMDPad,CuDef*
%ADD14R,2.000000X1.600000*%
G04 #@! TD*
G04 #@! TA.AperFunction,ComponentPad*
%ADD15R,1.800000X1.800000*%
G04 #@! TD*
G04 #@! TA.AperFunction,ComponentPad*
%ADD16C,1.800000*%
G04 #@! TD*
G04 #@! TA.AperFunction,ComponentPad*
%ADD17R,1.700000X1.700000*%
G04 #@! TD*
G04 #@! TA.AperFunction,ComponentPad*
%ADD18O,1.700000X1.700000*%
G04 #@! TD*
G04 #@! TA.AperFunction,SMDPad,CuDef*
%ADD19R,1.270000X0.970000*%
G04 #@! TD*
G04 #@! TA.AperFunction,SMDPad,CuDef*
%ADD20R,0.800000X1.900000*%
G04 #@! TD*
G04 #@! TA.AperFunction,SMDPad,CuDef*
%ADD21R,1.300000X1.500000*%
G04 #@! TD*
G04 #@! TA.AperFunction,SMDPad,CuDef*
%ADD22R,2.000000X0.650000*%
G04 #@! TD*
G04 #@! TA.AperFunction,ComponentPad*
%ADD23C,1.500000*%
G04 #@! TD*
G04 #@! TA.AperFunction,ComponentPad*
%ADD24C,1.700000*%
G04 #@! TD*
G04 #@! TA.AperFunction,SMDPad,CuDef*
%ADD25R,1.600000X2.000000*%
G04 #@! TD*
G04 #@! TA.AperFunction,SMDPad,CuDef*
%ADD26R,3.500000X3.500000*%
G04 #@! TD*
G04 #@! TA.AperFunction,SMDPad,CuDef*
%ADD27R,2.500000X1.000000*%
G04 #@! TD*
G04 #@! TA.AperFunction,SMDPad,CuDef*
%ADD28R,4.000000X2.000000*%
G04 #@! TD*
G04 #@! TA.AperFunction,SMDPad,CuDef*
%ADD29C,0.750000*%
G04 #@! TD*
G04 #@! TA.AperFunction,Conductor*
%ADD30C,0.100000*%
G04 #@! TD*
G04 #@! TA.AperFunction,ComponentPad*
%ADD31R,1.600000X1.600000*%
G04 #@! TD*
G04 #@! TA.AperFunction,SMDPad,CuDef*
%ADD32R,2.000000X1.700000*%
G04 #@! TD*
G04 #@! TA.AperFunction,SMDPad,CuDef*
%ADD33R,1.900000X0.800000*%
G04 #@! TD*
G04 #@! TA.AperFunction,SMDPad,CuDef*
%ADD34R,1.250000X1.500000*%
G04 #@! TD*
G04 #@! TA.AperFunction,SMDPad,CuDef*
%ADD35R,1.500000X1.250000*%
G04 #@! TD*
G04 #@! TA.AperFunction,SMDPad,CuDef*
%ADD36R,0.800000X0.900000*%
G04 #@! TD*
G04 #@! TA.AperFunction,SMDPad,CuDef*
%ADD37R,1.450000X0.450000*%
G04 #@! TD*
G04 #@! TA.AperFunction,ComponentPad*
%ADD38C,4.400000*%
G04 #@! TD*
G04 #@! TA.AperFunction,ComponentPad*
%ADD39C,0.700000*%
G04 #@! TD*
G04 #@! TA.AperFunction,ViaPad*
%ADD40C,0.600000*%
G04 #@! TD*
G04 #@! TA.AperFunction,Conductor*
%ADD41C,0.400000*%
G04 #@! TD*
G04 #@! TA.AperFunction,Conductor*
%ADD42C,0.250000*%
G04 #@! TD*
G04 #@! TA.AperFunction,Conductor*
%ADD43C,0.254000*%
G04 #@! TD*
G04 APERTURE END LIST*
D10*
G04 #@! TO.P,U2,8*
G04 #@! TO.N,/SS*
X100370000Y-83560000D03*
G04 #@! TO.P,U2,1*
G04 #@! TO.N,VCC*
X100370000Y-97560000D03*
G04 #@! TO.P,U2,2*
G04 #@! TO.N,GND*
X100370000Y-95560000D03*
G04 #@! TO.P,U2,3*
G04 #@! TO.N,/MOSI*
X100370000Y-93560000D03*
G04 #@! TO.P,U2,4*
G04 #@! TO.N,/SCK*
X100370000Y-91560000D03*
G04 #@! TO.P,U2,5*
G04 #@! TO.N,/MISO*
X100370000Y-89560000D03*
G04 #@! TO.P,U2,7*
G04 #@! TO.N,/D2*
X100370000Y-85560000D03*
G04 #@! TD*
D11*
G04 #@! TO.P,J11,1*
G04 #@! TO.N,/RAW+*
X113030000Y-147955000D03*
D12*
G04 #@! TO.P,J11,2*
G04 #@! TO.N,/RAW-*
X115570000Y-147955000D03*
G04 #@! TD*
D13*
G04 #@! TO.P,BT2,2*
G04 #@! TO.N,/RAW-*
X132500000Y-138100000D03*
G04 #@! TO.P,BT2,1*
G04 #@! TO.N,Net-(BT1-Pad2)*
X132500000Y-84900000D03*
G04 #@! TD*
G04 #@! TO.P,BT1,2*
G04 #@! TO.N,Net-(BT1-Pad2)*
X150500000Y-84900000D03*
G04 #@! TO.P,BT1,1*
G04 #@! TO.N,/RAW+*
X150500000Y-138100000D03*
G04 #@! TD*
D14*
G04 #@! TO.P,C10,1*
G04 #@! TO.N,VCC*
X95980000Y-132080000D03*
G04 #@! TO.P,C10,2*
G04 #@! TO.N,GND*
X91980000Y-132080000D03*
G04 #@! TD*
D15*
G04 #@! TO.P,D1,1*
G04 #@! TO.N,Net-(D1-Pad1)*
X106680000Y-81280000D03*
D16*
G04 #@! TO.P,D1,2*
G04 #@! TO.N,GND*
X109220000Y-81280000D03*
G04 #@! TO.P,D1,3*
G04 #@! TO.N,Net-(D1-Pad3)*
X111760000Y-81280000D03*
G04 #@! TD*
D17*
G04 #@! TO.P,J1,1*
G04 #@! TO.N,/DTR*
X92075000Y-149225000D03*
D18*
G04 #@! TO.P,J1,2*
G04 #@! TO.N,/TXD*
X94615000Y-149225000D03*
G04 #@! TO.P,J1,3*
G04 #@! TO.N,/RXD*
X97155000Y-149225000D03*
G04 #@! TO.P,J1,4*
G04 #@! TO.N,VCC*
X99695000Y-149225000D03*
G04 #@! TO.P,J1,5*
G04 #@! TO.N,GND*
X102235000Y-149225000D03*
G04 #@! TO.P,J1,6*
X104775000Y-149225000D03*
G04 #@! TD*
D19*
G04 #@! TO.P,J2,1*
G04 #@! TO.N,GND*
X109855000Y-149865000D03*
G04 #@! TO.P,J2,2*
G04 #@! TO.N,/RAW-*
X109855000Y-148585000D03*
G04 #@! TD*
D17*
G04 #@! TO.P,J3,1*
G04 #@! TO.N,VCC*
X85090000Y-130810000D03*
D18*
G04 #@! TO.P,J3,2*
G04 #@! TO.N,GND*
X85090000Y-133350000D03*
G04 #@! TO.P,J3,3*
G04 #@! TO.N,/SCL*
X85090000Y-135890000D03*
G04 #@! TO.P,J3,4*
G04 #@! TO.N,/SDA*
X85090000Y-138430000D03*
G04 #@! TD*
D19*
G04 #@! TO.P,J4,1*
G04 #@! TO.N,VCC*
X107315000Y-149865000D03*
G04 #@! TO.P,J4,2*
G04 #@! TO.N,/RAW+*
X107315000Y-148585000D03*
G04 #@! TD*
D17*
G04 #@! TO.P,J5,1*
G04 #@! TO.N,VCC*
X100330000Y-130810000D03*
D18*
G04 #@! TO.P,J5,2*
G04 #@! TO.N,GND*
X100330000Y-133350000D03*
G04 #@! TO.P,J5,3*
G04 #@! TO.N,/SCL*
X100330000Y-135890000D03*
G04 #@! TO.P,J5,4*
G04 #@! TO.N,/SDA*
X100330000Y-138430000D03*
G04 #@! TD*
D17*
G04 #@! TO.P,J6,1*
G04 #@! TO.N,VCC*
X105410000Y-130810000D03*
D18*
G04 #@! TO.P,J6,2*
G04 #@! TO.N,GND*
X105410000Y-133350000D03*
G04 #@! TO.P,J6,3*
G04 #@! TO.N,/SCL*
X105410000Y-135890000D03*
G04 #@! TO.P,J6,4*
G04 #@! TO.N,/SDA*
X105410000Y-138430000D03*
G04 #@! TD*
D17*
G04 #@! TO.P,J7,1*
G04 #@! TO.N,VCC*
X120650000Y-130810000D03*
D18*
G04 #@! TO.P,J7,2*
G04 #@! TO.N,GND*
X120650000Y-133350000D03*
G04 #@! TO.P,J7,3*
G04 #@! TO.N,/SCL*
X120650000Y-135890000D03*
G04 #@! TO.P,J7,4*
G04 #@! TO.N,/SDA*
X120650000Y-138430000D03*
G04 #@! TD*
D20*
G04 #@! TO.P,Q1,1*
G04 #@! TO.N,Net-(Q1-Pad1)*
X104455000Y-146280000D03*
G04 #@! TO.P,Q1,2*
G04 #@! TO.N,GND*
X102555000Y-146280000D03*
G04 #@! TO.P,Q1,3*
G04 #@! TO.N,/RAW-*
X103505000Y-143280000D03*
G04 #@! TD*
D21*
G04 #@! TO.P,R4,1*
G04 #@! TO.N,Net-(Q1-Pad1)*
X106680000Y-146130000D03*
G04 #@! TO.P,R4,2*
G04 #@! TO.N,/RAW+FUSE*
X106680000Y-143430000D03*
G04 #@! TD*
D22*
G04 #@! TO.P,U3,1*
G04 #@! TO.N,/RAW+FUSE*
X91635000Y-137475000D03*
G04 #@! TO.P,U3,2*
G04 #@! TO.N,GND*
X91635000Y-136525000D03*
G04 #@! TO.P,U3,3*
G04 #@! TO.N,/RAW+FUSE*
X91635000Y-135575000D03*
G04 #@! TO.P,U3,4*
G04 #@! TO.N,VCC*
X95055000Y-135575000D03*
G04 #@! TO.P,U3,5*
G04 #@! TO.N,Net-(L1-Pad2)*
X95055000Y-137475000D03*
G04 #@! TD*
D23*
G04 #@! TO.P,Y1,1*
G04 #@! TO.N,Net-(C7-Pad2)*
X86360000Y-110490000D03*
G04 #@! TO.P,Y1,2*
G04 #@! TO.N,Net-(C8-Pad1)*
X86360000Y-115370000D03*
G04 #@! TD*
D17*
G04 #@! TO.P,J10,1*
G04 #@! TO.N,/MISO*
X98425000Y-76835000D03*
D18*
G04 #@! TO.P,J10,2*
G04 #@! TO.N,VCC*
X98425000Y-79375000D03*
G04 #@! TO.P,J10,3*
G04 #@! TO.N,/SCK*
X95885000Y-76835000D03*
G04 #@! TO.P,J10,4*
G04 #@! TO.N,/MOSI*
X95885000Y-79375000D03*
G04 #@! TO.P,J10,5*
G04 #@! TO.N,/RSET*
X93345000Y-76835000D03*
G04 #@! TO.P,J10,6*
G04 #@! TO.N,GND*
X93345000Y-79375000D03*
G04 #@! TD*
D24*
G04 #@! TO.P,J13,1*
G04 #@! TO.N,/D6*
X120650000Y-101600000D03*
D18*
G04 #@! TO.P,J13,2*
G04 #@! TO.N,/D7*
X120650000Y-99060000D03*
G04 #@! TD*
D25*
G04 #@! TO.P,C11,1*
G04 #@! TO.N,Net-(C11-Pad1)*
X112395000Y-130905000D03*
G04 #@! TO.P,C11,2*
G04 #@! TO.N,GND*
X112395000Y-126905000D03*
G04 #@! TD*
D26*
G04 #@! TO.P,L1,1*
G04 #@! TO.N,/RAW+FUSE*
X89310000Y-141605000D03*
G04 #@! TO.P,L1,2*
G04 #@! TO.N,Net-(L1-Pad2)*
X96110000Y-141605000D03*
G04 #@! TD*
D27*
G04 #@! TO.P,U4,1*
G04 #@! TO.N,GND*
X110415000Y-137390000D03*
G04 #@! TO.P,U4,2*
G04 #@! TO.N,Net-(C11-Pad1)*
X110415000Y-135890000D03*
G04 #@! TO.P,U4,3*
G04 #@! TO.N,VCC*
X110415000Y-134390000D03*
D28*
G04 #@! TO.P,U4,2*
G04 #@! TO.N,Net-(C11-Pad1)*
X114375000Y-135890000D03*
D29*
X112025000Y-135890000D03*
D30*
G04 #@! TD*
G04 #@! TO.N,Net-(C11-Pad1)*
G04 #@! TO.C,U4*
G36*
X111650000Y-135390000D02*
X112400000Y-134890000D01*
X112400000Y-136890000D01*
X111650000Y-136390000D01*
X111650000Y-135390000D01*
X111650000Y-135390000D01*
G37*
D31*
G04 #@! TO.P,C15,1*
G04 #@! TO.N,VCC*
X86360000Y-126365000D03*
D13*
G04 #@! TO.P,C15,2*
G04 #@! TO.N,GND*
X86360000Y-122865000D03*
G04 #@! TD*
D17*
G04 #@! TO.P,J8,1*
G04 #@! TO.N,GND*
X118110000Y-104140000D03*
D18*
G04 #@! TO.P,J8,2*
G04 #@! TO.N,VCC*
X115570000Y-104140000D03*
G04 #@! TO.P,J8,3*
G04 #@! TO.N,GND*
X118110000Y-101600000D03*
G04 #@! TO.P,J8,4*
G04 #@! TO.N,/A0*
X115570000Y-101600000D03*
G04 #@! TO.P,J8,5*
G04 #@! TO.N,GND*
X118110000Y-99060000D03*
G04 #@! TO.P,J8,6*
G04 #@! TO.N,/A1*
X115570000Y-99060000D03*
G04 #@! TO.P,J8,7*
G04 #@! TO.N,GND*
X118110000Y-96520000D03*
G04 #@! TO.P,J8,8*
G04 #@! TO.N,/A2*
X115570000Y-96520000D03*
G04 #@! TO.P,J8,9*
G04 #@! TO.N,GND*
X118110000Y-93980000D03*
G04 #@! TO.P,J8,10*
G04 #@! TO.N,/A3*
X115570000Y-93980000D03*
G04 #@! TO.P,J8,11*
G04 #@! TO.N,GND*
X118110000Y-91440000D03*
G04 #@! TO.P,J8,12*
G04 #@! TO.N,/A4*
X115570000Y-91440000D03*
G04 #@! TO.P,J8,13*
G04 #@! TO.N,GND*
X118110000Y-88900000D03*
G04 #@! TO.P,J8,14*
G04 #@! TO.N,/A5*
X115570000Y-88900000D03*
G04 #@! TO.P,J8,15*
G04 #@! TO.N,GND*
X118110000Y-86360000D03*
G04 #@! TO.P,J8,16*
G04 #@! TO.N,/A6*
X115570000Y-86360000D03*
G04 #@! TO.P,J8,17*
G04 #@! TO.N,GND*
X118110000Y-83820000D03*
G04 #@! TO.P,J8,18*
G04 #@! TO.N,/D3*
X115570000Y-83820000D03*
G04 #@! TD*
D17*
G04 #@! TO.P,J9,1*
G04 #@! TO.N,GND*
X120650000Y-127000000D03*
D18*
G04 #@! TO.P,J9,2*
G04 #@! TO.N,VCC*
X118110000Y-127000000D03*
G04 #@! TO.P,J9,3*
G04 #@! TO.N,GND*
X120650000Y-124460000D03*
G04 #@! TO.P,J9,4*
G04 #@! TO.N,/D30*
X118110000Y-124460000D03*
G04 #@! TO.P,J9,5*
G04 #@! TO.N,GND*
X120650000Y-121920000D03*
G04 #@! TO.P,J9,6*
G04 #@! TO.N,/D9*
X118110000Y-121920000D03*
G04 #@! TO.P,J9,7*
G04 #@! TO.N,GND*
X120650000Y-119380000D03*
G04 #@! TO.P,J9,8*
G04 #@! TO.N,/D24*
X118110000Y-119380000D03*
G04 #@! TO.P,J9,9*
G04 #@! TO.N,GND*
X120650000Y-116840000D03*
G04 #@! TO.P,J9,10*
G04 #@! TO.N,/D25*
X118110000Y-116840000D03*
G04 #@! TO.P,J9,11*
G04 #@! TO.N,GND*
X120650000Y-114300000D03*
G04 #@! TO.P,J9,12*
G04 #@! TO.N,/D26*
X118110000Y-114300000D03*
G04 #@! TO.P,J9,13*
G04 #@! TO.N,GND*
X120650000Y-111760000D03*
G04 #@! TO.P,J9,14*
G04 #@! TO.N,/D27*
X118110000Y-111760000D03*
G04 #@! TO.P,J9,15*
G04 #@! TO.N,GND*
X120650000Y-109220000D03*
G04 #@! TO.P,J9,16*
G04 #@! TO.N,/D28*
X118110000Y-109220000D03*
G04 #@! TO.P,J9,17*
G04 #@! TO.N,GND*
X120650000Y-106680000D03*
G04 #@! TO.P,J9,18*
G04 #@! TO.N,/D29*
X118110000Y-106680000D03*
G04 #@! TD*
D17*
G04 #@! TO.P,J12,1*
G04 #@! TO.N,VCC*
X146685000Y-108585000D03*
D18*
G04 #@! TO.P,J12,2*
G04 #@! TO.N,GND*
X144145000Y-108585000D03*
G04 #@! TO.P,J12,3*
G04 #@! TO.N,Net-(D2-Pad1)*
X141605000Y-108585000D03*
G04 #@! TO.P,J12,4*
G04 #@! TO.N,Net-(J12-Pad4)*
X139065000Y-108585000D03*
G04 #@! TD*
D32*
G04 #@! TO.P,F1,1*
G04 #@! TO.N,/RAW+FUSE*
X116300000Y-144780000D03*
G04 #@! TO.P,F1,2*
G04 #@! TO.N,/RAW+*
X112300000Y-144780000D03*
G04 #@! TD*
D33*
G04 #@! TO.P,Q2,1*
G04 #@! TO.N,Net-(Q2-Pad1)*
X113435000Y-141920000D03*
G04 #@! TO.P,Q2,2*
G04 #@! TO.N,Net-(C11-Pad1)*
X113435000Y-140020000D03*
G04 #@! TO.P,Q2,3*
G04 #@! TO.N,/RAW+FUSE*
X116435000Y-140970000D03*
G04 #@! TD*
D21*
G04 #@! TO.P,R11,1*
G04 #@! TO.N,Net-(Q2-Pad1)*
X109220000Y-142160000D03*
G04 #@! TO.P,R11,2*
G04 #@! TO.N,/RAW-*
X109220000Y-144860000D03*
G04 #@! TD*
D34*
G04 #@! TO.P,C9,1*
G04 #@! TO.N,/RAW+FUSE*
X88265000Y-135235000D03*
G04 #@! TO.P,C9,2*
G04 #@! TO.N,GND*
X88265000Y-132735000D03*
G04 #@! TD*
G04 #@! TO.P,C12,1*
G04 #@! TO.N,VCC*
X108585000Y-130155000D03*
G04 #@! TO.P,C12,2*
G04 #@! TO.N,GND*
X108585000Y-127655000D03*
G04 #@! TD*
D10*
G04 #@! TO.P,U5,8*
G04 #@! TO.N,Net-(U5-Pad8)*
X96780000Y-101005000D03*
G04 #@! TO.P,U5,1*
G04 #@! TO.N,+3V3*
X82780000Y-101005000D03*
G04 #@! TO.P,U5,2*
G04 #@! TO.N,GND*
X84780000Y-101005000D03*
G04 #@! TO.P,U5,3*
G04 #@! TO.N,Net-(U5-Pad3)*
X86780000Y-101005000D03*
G04 #@! TO.P,U5,4*
G04 #@! TO.N,Net-(U5-Pad4)*
X88780000Y-101005000D03*
G04 #@! TO.P,U5,5*
G04 #@! TO.N,Net-(U5-Pad5)*
X90780000Y-101005000D03*
G04 #@! TO.P,U5,7*
G04 #@! TO.N,Net-(U5-Pad7)*
X94780000Y-101005000D03*
G04 #@! TD*
D34*
G04 #@! TO.P,C16,1*
G04 #@! TO.N,GND*
X85090000Y-95905000D03*
G04 #@! TO.P,C16,2*
G04 #@! TO.N,+3V3*
X85090000Y-98405000D03*
G04 #@! TD*
G04 #@! TO.P,C17,1*
G04 #@! TO.N,GND*
X82550000Y-95905000D03*
G04 #@! TO.P,C17,2*
G04 #@! TO.N,+3V3*
X82550000Y-98405000D03*
G04 #@! TD*
D35*
G04 #@! TO.P,C18,1*
G04 #@! TO.N,GND*
X93960000Y-104775000D03*
G04 #@! TO.P,C18,2*
G04 #@! TO.N,VCC*
X91460000Y-104775000D03*
G04 #@! TD*
G04 #@! TO.P,C19,1*
G04 #@! TO.N,GND*
X82570000Y-104775000D03*
G04 #@! TO.P,C19,2*
G04 #@! TO.N,+3V3*
X85070000Y-104775000D03*
G04 #@! TD*
D34*
G04 #@! TO.P,C20,1*
G04 #@! TO.N,GND*
X85090000Y-88285000D03*
G04 #@! TO.P,C20,2*
G04 #@! TO.N,+3V3*
X85090000Y-90785000D03*
G04 #@! TD*
G04 #@! TO.P,C21,1*
G04 #@! TO.N,VCC*
X95250000Y-94000000D03*
G04 #@! TO.P,C21,2*
G04 #@! TO.N,GND*
X95250000Y-96500000D03*
G04 #@! TD*
D36*
G04 #@! TO.P,U6,1*
G04 #@! TO.N,+3V3*
X87315000Y-103140000D03*
G04 #@! TO.P,U6,2*
G04 #@! TO.N,VCC*
X89215000Y-103140000D03*
G04 #@! TO.P,U6,3*
G04 #@! TO.N,GND*
X88265000Y-105140000D03*
G04 #@! TD*
D37*
G04 #@! TO.P,U7,1*
G04 #@! TO.N,Net-(U7-Pad1)*
X87855000Y-91825000D03*
G04 #@! TO.P,U7,2*
G04 #@! TO.N,+3V3*
X87855000Y-91175000D03*
G04 #@! TO.P,U7,3*
G04 #@! TO.N,Net-(U5-Pad3)*
X87855000Y-90525000D03*
G04 #@! TO.P,U7,4*
G04 #@! TO.N,Net-(U5-Pad4)*
X87855000Y-89875000D03*
G04 #@! TO.P,U7,5*
G04 #@! TO.N,Net-(U5-Pad5)*
X87855000Y-89225000D03*
G04 #@! TO.P,U7,6*
G04 #@! TO.N,Net-(U7-Pad6)*
X87855000Y-88575000D03*
G04 #@! TO.P,U7,7*
G04 #@! TO.N,Net-(U5-Pad7)*
X87855000Y-87925000D03*
G04 #@! TO.P,U7,8*
G04 #@! TO.N,Net-(U5-Pad8)*
X87855000Y-87275000D03*
G04 #@! TO.P,U7,9*
G04 #@! TO.N,Net-(U7-Pad9)*
X87855000Y-86625000D03*
G04 #@! TO.P,U7,10*
G04 #@! TO.N,+3V3*
X87855000Y-85975000D03*
G04 #@! TO.P,U7,11*
G04 #@! TO.N,GND*
X93755000Y-85975000D03*
G04 #@! TO.P,U7,12*
G04 #@! TO.N,Net-(U7-Pad12)*
X93755000Y-86625000D03*
G04 #@! TO.P,U7,13*
G04 #@! TO.N,/SS*
X93755000Y-87275000D03*
G04 #@! TO.P,U7,14*
G04 #@! TO.N,/D2*
X93755000Y-87925000D03*
G04 #@! TO.P,U7,15*
G04 #@! TO.N,Net-(U7-Pad15)*
X93755000Y-88575000D03*
G04 #@! TO.P,U7,16*
G04 #@! TO.N,/MISO*
X93755000Y-89225000D03*
G04 #@! TO.P,U7,17*
G04 #@! TO.N,/SCK*
X93755000Y-89875000D03*
G04 #@! TO.P,U7,18*
G04 #@! TO.N,/MOSI*
X93755000Y-90525000D03*
G04 #@! TO.P,U7,19*
G04 #@! TO.N,VCC*
X93755000Y-91175000D03*
G04 #@! TO.P,U7,20*
G04 #@! TO.N,Net-(U7-Pad20)*
X93755000Y-91825000D03*
G04 #@! TD*
D38*
G04 #@! TO.P,REF\002A\002A,1*
G04 #@! TO.N,N/C*
X86500000Y-79000000D03*
D39*
X88150000Y-79000000D03*
X87666726Y-80166726D03*
X86500000Y-80650000D03*
X85333274Y-80166726D03*
X84850000Y-79000000D03*
X85333274Y-77833274D03*
X86500000Y-77350000D03*
X87666726Y-77833274D03*
G04 #@! TD*
D38*
G04 #@! TO.P,REF\002A\002A,1*
G04 #@! TO.N,N/C*
X120500000Y-79000000D03*
D39*
X122150000Y-79000000D03*
X121666726Y-80166726D03*
X120500000Y-80650000D03*
X119333274Y-80166726D03*
X118850000Y-79000000D03*
X119333274Y-77833274D03*
X120500000Y-77350000D03*
X121666726Y-77833274D03*
G04 #@! TD*
D38*
G04 #@! TO.P,REF\002A\002A,1*
G04 #@! TO.N,N/C*
X154500000Y-79000000D03*
D39*
X156150000Y-79000000D03*
X155666726Y-80166726D03*
X154500000Y-80650000D03*
X153333274Y-80166726D03*
X152850000Y-79000000D03*
X153333274Y-77833274D03*
X154500000Y-77350000D03*
X155666726Y-77833274D03*
G04 #@! TD*
D38*
G04 #@! TO.P,REF\002A\002A,1*
G04 #@! TO.N,N/C*
X86500000Y-147000000D03*
D39*
X88150000Y-147000000D03*
X87666726Y-148166726D03*
X86500000Y-148650000D03*
X85333274Y-148166726D03*
X84850000Y-147000000D03*
X85333274Y-145833274D03*
X86500000Y-145350000D03*
X87666726Y-145833274D03*
G04 #@! TD*
D38*
G04 #@! TO.P,REF\002A\002A,1*
G04 #@! TO.N,N/C*
X120500000Y-147000000D03*
D39*
X122150000Y-147000000D03*
X121666726Y-148166726D03*
X120500000Y-148650000D03*
X119333274Y-148166726D03*
X118850000Y-147000000D03*
X119333274Y-145833274D03*
X120500000Y-145350000D03*
X121666726Y-145833274D03*
G04 #@! TD*
D38*
G04 #@! TO.P,REF\002A\002A,1*
G04 #@! TO.N,N/C*
X154500000Y-147000000D03*
D39*
X156150000Y-147000000D03*
X155666726Y-148166726D03*
X154500000Y-148650000D03*
X153333274Y-148166726D03*
X152850000Y-147000000D03*
X153333274Y-145833274D03*
X154500000Y-145350000D03*
X155666726Y-145833274D03*
G04 #@! TD*
D40*
G04 #@! TO.N,GND*
X82550000Y-93980000D03*
X82550000Y-82550000D03*
X94615000Y-98425000D03*
X95250000Y-83185000D03*
X86360000Y-95885000D03*
X100965000Y-100330000D03*
X90170000Y-108585000D03*
X92710000Y-109855000D03*
X106680000Y-100330000D03*
X106680000Y-95250000D03*
X88265000Y-131445000D03*
X114935000Y-107950000D03*
X114935000Y-109855000D03*
X115570000Y-76835000D03*
X104775000Y-141605000D03*
X100965000Y-141605000D03*
X121920000Y-144145000D03*
X107950000Y-137160000D03*
X102870000Y-138430000D03*
X112395000Y-117475000D03*
X93345000Y-130175000D03*
X102870000Y-133350000D03*
X98425000Y-111760000D03*
X100330000Y-122555000D03*
X113665000Y-95885000D03*
X103632000Y-116078000D03*
X102870000Y-107315000D03*
X107315000Y-111760000D03*
G04 #@! TO.N,/TXD*
X82550000Y-146685000D03*
G04 #@! TO.N,/RXD*
X94615000Y-118110000D03*
X98425000Y-114300000D03*
G04 #@! TO.N,/D4*
X106045000Y-101600000D03*
X102870000Y-103505000D03*
G04 #@! TO.N,/D5*
X105410000Y-100965000D03*
X101600000Y-103505000D03*
G04 #@! TO.N,/A7*
X104140000Y-125095000D03*
X107950000Y-120650000D03*
X107315000Y-125095000D03*
X104775000Y-113665000D03*
X104775000Y-111760000D03*
G04 #@! TO.N,/MOSI*
X97790000Y-92710000D03*
X97790000Y-81915000D03*
G04 #@! TO.N,/MISO*
X97155000Y-90170000D03*
G04 #@! TO.N,/SCK*
X96520000Y-91440000D03*
G04 #@! TO.N,/D2*
X99060000Y-89535000D03*
X99695000Y-103505000D03*
X99060000Y-114935000D03*
G04 #@! TO.N,/D3*
X106680000Y-124460000D03*
X100965000Y-124460000D03*
G04 #@! TO.N,/D30*
X107315000Y-123825000D03*
X101600000Y-123825000D03*
G04 #@! TO.N,/D8*
X105410000Y-93980000D03*
X100965000Y-111760000D03*
G04 #@! TO.N,/D9*
X100965000Y-123190000D03*
X106045000Y-123190000D03*
G04 #@! TO.N,/D27*
X114935000Y-115570000D03*
X106680000Y-115570000D03*
G04 #@! TO.N,/D6*
X100965000Y-107950000D03*
X113665000Y-102870000D03*
G04 #@! TO.N,/D7*
X113665000Y-101600000D03*
X99695000Y-107315000D03*
G04 #@! TO.N,/SS*
X98425000Y-88265000D03*
G04 #@! TO.N,/RSET*
X104775000Y-94615000D03*
X99695000Y-111760000D03*
X98425000Y-109855000D03*
G04 #@! TO.N,/RAW+*
X131445000Y-147955000D03*
G04 #@! TO.N,/RAW+FUSE*
X116205000Y-127000000D03*
X145415000Y-131445000D03*
G04 #@! TO.N,VCC*
X92075000Y-106045000D03*
G04 #@! TD*
D41*
G04 #@! TO.N,GND*
X82550000Y-95905000D02*
X82550000Y-93980000D01*
X85090000Y-88285000D02*
X85090000Y-82550000D01*
X85090000Y-82550000D02*
X82550000Y-82550000D01*
X95250000Y-96500000D02*
X95250000Y-97790000D01*
X95250000Y-97790000D02*
X94615000Y-98425000D01*
X93755000Y-85975000D02*
X95000000Y-85975000D01*
X95000000Y-85975000D02*
X95250000Y-85725000D01*
X95250000Y-85725000D02*
X95250000Y-83185000D01*
X85090000Y-95905000D02*
X86340000Y-95905000D01*
X86340000Y-95905000D02*
X86360000Y-95885000D01*
X95000000Y-85975000D02*
X95250000Y-85725000D01*
X120650000Y-114300000D02*
X122555000Y-114300000D01*
X122555000Y-114300000D02*
X122555000Y-113030000D01*
X88265000Y-132735000D02*
X88265000Y-131445000D01*
X144145000Y-108585000D02*
X144145000Y-113030000D01*
X143510000Y-113665000D02*
X139065000Y-113665000D01*
X144145000Y-113030000D02*
X143510000Y-113665000D01*
X130175000Y-113665000D02*
X139065000Y-113665000D01*
X129540000Y-113030000D02*
X130175000Y-113665000D01*
X122555000Y-113030000D02*
X129540000Y-113030000D01*
X120650000Y-114300000D02*
X121285000Y-114300000D01*
X110415000Y-137390000D02*
X108180000Y-137390000D01*
X108180000Y-137390000D02*
X107950000Y-137160000D01*
X95885000Y-123825000D02*
X87320000Y-123825000D01*
X87320000Y-123825000D02*
X86360000Y-122865000D01*
X99695000Y-126365000D02*
X98425000Y-126365000D01*
X102870000Y-126365000D02*
X99695000Y-126365000D01*
X102870000Y-133350000D02*
X102870000Y-126365000D01*
X98425000Y-126365000D02*
X95885000Y-123825000D01*
X102870000Y-133350000D02*
X102870000Y-138430000D01*
X91980000Y-132080000D02*
X91980000Y-133255000D01*
X91980000Y-133255000D02*
X93345000Y-134620000D01*
X91980000Y-132080000D02*
X91980000Y-130905000D01*
X92710000Y-130175000D02*
X93345000Y-130175000D01*
X91980000Y-130905000D02*
X92710000Y-130175000D01*
X100330000Y-133350000D02*
X102870000Y-133350000D01*
X91635000Y-136525000D02*
X92710000Y-136525000D01*
X92710000Y-136525000D02*
X93345000Y-135890000D01*
X93345000Y-135890000D02*
X93345000Y-134620000D01*
X98425000Y-111760000D02*
X97155000Y-111760000D01*
X98425000Y-111125000D02*
X98425000Y-111760000D01*
X99695000Y-122555000D02*
X100330000Y-122555000D01*
G04 #@! TO.N,+3V3*
X85070000Y-104775000D02*
X84775000Y-104775000D01*
X84775000Y-104775000D02*
X83500000Y-103500000D01*
X83500000Y-101725000D02*
X82780000Y-101005000D01*
X83500000Y-103500000D02*
X83500000Y-101725000D01*
X85090000Y-92910000D02*
X83820000Y-94180000D01*
X83820000Y-94180000D02*
X83820000Y-95320000D01*
X85090000Y-92910000D02*
X85090000Y-90785000D01*
X85090000Y-98405000D02*
X85070000Y-98405000D01*
X83820000Y-99675000D02*
X85090000Y-98405000D01*
X83820000Y-97155000D02*
X83820000Y-95320000D01*
X85070000Y-98405000D02*
X83820000Y-97155000D01*
X83820000Y-99695000D02*
X83820000Y-99675000D01*
X82780000Y-98635000D02*
X82550000Y-98405000D01*
X83820000Y-99675000D02*
X82550000Y-98405000D01*
X83820000Y-100330000D02*
X83820000Y-99695000D01*
X83145000Y-101005000D02*
X83820000Y-100330000D01*
X82780000Y-101005000D02*
X83145000Y-101005000D01*
X87855000Y-91175000D02*
X85480000Y-91175000D01*
X85480000Y-91175000D02*
X85090000Y-90785000D01*
X87855000Y-85975000D02*
X86745000Y-85975000D01*
X86360000Y-89535000D02*
X86360000Y-86995000D01*
X86360000Y-89535000D02*
X85110000Y-90785000D01*
X86360000Y-86360000D02*
X86360000Y-86995000D01*
X86745000Y-85975000D02*
X86360000Y-86360000D01*
X85090000Y-90785000D02*
X85110000Y-90785000D01*
X85070000Y-104775000D02*
X85680000Y-104775000D01*
X85680000Y-104775000D02*
X87315000Y-103140000D01*
D42*
G04 #@! TO.N,/TXD*
X94615000Y-149225000D02*
X93345000Y-150495000D01*
X84455000Y-150495000D02*
X93345000Y-150495000D01*
X82550000Y-148590000D02*
X84455000Y-150495000D01*
X82550000Y-148590000D02*
X82550000Y-146685000D01*
G04 #@! TO.N,/RXD*
X94615000Y-118110000D02*
X98425000Y-114300000D01*
G04 #@! TO.N,Net-(L1-Pad2)*
X95055000Y-137475000D02*
X95055000Y-138870000D01*
X96110000Y-139290000D02*
X96110000Y-141605000D01*
X95885000Y-139065000D02*
X96110000Y-139290000D01*
X95250000Y-139065000D02*
X95885000Y-139065000D01*
X95055000Y-138870000D02*
X95250000Y-139065000D01*
G04 #@! TO.N,/D4*
X106045000Y-101600000D02*
X104775000Y-101600000D01*
X104775000Y-101600000D02*
X102870000Y-103505000D01*
G04 #@! TO.N,/D5*
X104140000Y-100965000D02*
X105410000Y-100965000D01*
X101600000Y-103505000D02*
X104140000Y-100965000D01*
G04 #@! TO.N,/A7*
X107315000Y-125095000D02*
X104140000Y-125095000D01*
X107950000Y-120650000D02*
X107950000Y-124460000D01*
X107950000Y-124460000D02*
X107315000Y-125095000D01*
X104775000Y-113665000D02*
X104775000Y-111760000D01*
G04 #@! TO.N,/MOSI*
X97790000Y-92710000D02*
X99695000Y-92710000D01*
X93755000Y-90525000D02*
X95605000Y-90525000D01*
X97155000Y-92710000D02*
X97790000Y-92710000D01*
X96520000Y-92710000D02*
X97155000Y-92710000D01*
X95885000Y-92075000D02*
X96520000Y-92710000D01*
X95885000Y-91440000D02*
X95885000Y-92075000D01*
X95885000Y-90805000D02*
X95885000Y-91440000D01*
X95605000Y-90525000D02*
X95885000Y-90805000D01*
X100370000Y-93385000D02*
X99695000Y-92710000D01*
X100370000Y-93385000D02*
X100370000Y-93560000D01*
X97155000Y-81280000D02*
X95885000Y-80010000D01*
X97790000Y-81915000D02*
X97155000Y-81280000D01*
X95885000Y-80010000D02*
X95885000Y-79375000D01*
G04 #@! TO.N,/MISO*
X97155000Y-90170000D02*
X99695000Y-90170000D01*
X99695000Y-90170000D02*
X100305000Y-89560000D01*
X100305000Y-89560000D02*
X100370000Y-89560000D01*
X93755000Y-89225000D02*
X96845000Y-89225000D01*
X97155000Y-89535000D02*
X97155000Y-90170000D01*
X96845000Y-89225000D02*
X97155000Y-89535000D01*
X100305000Y-89560000D02*
X100370000Y-89560000D01*
G04 #@! TO.N,/SCK*
X93755000Y-89875000D02*
X96225000Y-89875000D01*
X96520000Y-90170000D02*
X96520000Y-91440000D01*
X96225000Y-89875000D02*
X96520000Y-90170000D01*
X96520000Y-91440000D02*
X100250000Y-91440000D01*
X100250000Y-91440000D02*
X100370000Y-91560000D01*
G04 #@! TO.N,/D2*
X94615000Y-87925000D02*
X94910000Y-87925000D01*
X97155000Y-88265000D02*
X97790000Y-88900000D01*
X95250000Y-88265000D02*
X97155000Y-88265000D01*
X94910000Y-87925000D02*
X95250000Y-88265000D01*
X93755000Y-87925000D02*
X94615000Y-87925000D01*
X98425000Y-89535000D02*
X99060000Y-89535000D01*
X97790000Y-88900000D02*
X98425000Y-89535000D01*
X98425000Y-106045000D02*
X99695000Y-104775000D01*
X99695000Y-104775000D02*
X99695000Y-103505000D01*
X99060000Y-109220000D02*
X98425000Y-108585000D01*
X98425000Y-108585000D02*
X98425000Y-106045000D01*
X100330000Y-110490000D02*
X99060000Y-109220000D01*
X99060000Y-114935000D02*
X100330000Y-113665000D01*
X100330000Y-113665000D02*
X100330000Y-112395000D01*
X100330000Y-111125000D02*
X100330000Y-110490000D01*
X100330000Y-112395000D02*
X100330000Y-111125000D01*
G04 #@! TO.N,/D3*
X104140000Y-124460000D02*
X106680000Y-124460000D01*
X100965000Y-124460000D02*
X104140000Y-124460000D01*
G04 #@! TO.N,/D30*
X101600000Y-123825000D02*
X107315000Y-123825000D01*
G04 #@! TO.N,/D8*
X104775000Y-99060000D02*
X105410000Y-98425000D01*
X105410000Y-98425000D02*
X105410000Y-93980000D01*
X99060000Y-106680000D02*
X100965000Y-104775000D01*
X100965000Y-104775000D02*
X100965000Y-102870000D01*
X99695000Y-108585000D02*
X99060000Y-107950000D01*
X100965000Y-111760000D02*
X100965000Y-109855000D01*
X100965000Y-109855000D02*
X99695000Y-108585000D01*
X102870000Y-100965000D02*
X104775000Y-99060000D01*
X100965000Y-102870000D02*
X102870000Y-100965000D01*
X99060000Y-107950000D02*
X99060000Y-106680000D01*
G04 #@! TO.N,/D9*
X100965000Y-123190000D02*
X106045000Y-123190000D01*
G04 #@! TO.N,/D27*
X106680000Y-115570000D02*
X114935000Y-115570000D01*
G04 #@! TO.N,/D6*
X100965000Y-107950000D02*
X106045000Y-102870000D01*
X110490000Y-102870000D02*
X113665000Y-102870000D01*
X106680000Y-102870000D02*
X110490000Y-102870000D01*
X106680000Y-102870000D02*
X106045000Y-102870000D01*
G04 #@! TO.N,/D7*
X112395000Y-102235000D02*
X113030000Y-102235000D01*
X113030000Y-102235000D02*
X113665000Y-101600000D01*
X111125000Y-102235000D02*
X112395000Y-102235000D01*
X109855000Y-102235000D02*
X111125000Y-102235000D01*
X99695000Y-107315000D02*
X100330000Y-107315000D01*
X100330000Y-107315000D02*
X105410000Y-102235000D01*
X105410000Y-102235000D02*
X109855000Y-102235000D01*
G04 #@! TO.N,/SS*
X95250000Y-87275000D02*
X95530000Y-87275000D01*
X95885000Y-87630000D02*
X97790000Y-87630000D01*
X95530000Y-87275000D02*
X95885000Y-87630000D01*
X93755000Y-87275000D02*
X95250000Y-87275000D01*
X97790000Y-87630000D02*
X98425000Y-88265000D01*
G04 #@! TO.N,/RSET*
X104775000Y-97790000D02*
X104775000Y-94615000D01*
X103505000Y-99060000D02*
X104775000Y-97790000D01*
X99060000Y-102870000D02*
X99695000Y-102235000D01*
X100330000Y-102235000D02*
X103505000Y-99060000D01*
X99695000Y-102235000D02*
X100330000Y-102235000D01*
X97790000Y-109220000D02*
X97790000Y-105410000D01*
X99060000Y-104140000D02*
X99060000Y-102870000D01*
X97790000Y-105410000D02*
X99060000Y-104140000D01*
X98425000Y-109855000D02*
X97790000Y-109220000D01*
X99695000Y-111760000D02*
X99695000Y-111125000D01*
X99695000Y-111125000D02*
X98425000Y-109855000D01*
X99695000Y-111760000D02*
X99695000Y-111125000D01*
X99695000Y-111125000D02*
X98425000Y-109855000D01*
D41*
G04 #@! TO.N,/RAW+*
X113030000Y-147955000D02*
X112395000Y-147320000D01*
X112395000Y-147320000D02*
X112395000Y-144875000D01*
X112395000Y-144875000D02*
X112300000Y-144780000D01*
X107315000Y-148585000D02*
X107320000Y-148585000D01*
X107320000Y-148585000D02*
X108585000Y-147320000D01*
X108585000Y-147320000D02*
X112395000Y-147320000D01*
X134620000Y-137795000D02*
X150195000Y-137795000D01*
X133350000Y-146050000D02*
X131445000Y-147955000D01*
X133350000Y-146050000D02*
X133350000Y-139700000D01*
X133350000Y-139065000D02*
X134620000Y-137795000D01*
X133350000Y-139700000D02*
X133350000Y-139065000D01*
X150195000Y-137795000D02*
X150500000Y-138100000D01*
G04 #@! TO.N,/RAW-*
X121920000Y-151130000D02*
X123825000Y-149225000D01*
X123825000Y-149225000D02*
X124460000Y-149225000D01*
X124460000Y-149225000D02*
X128905000Y-149225000D01*
X131445000Y-146685000D02*
X128905000Y-149225000D01*
X131445000Y-146685000D02*
X132080000Y-146050000D01*
X132080000Y-146050000D02*
X132080000Y-138520000D01*
X109220000Y-144860000D02*
X109220000Y-144780000D01*
X109220000Y-144780000D02*
X110490000Y-143510000D01*
X114300000Y-146050000D02*
X115570000Y-147320000D01*
X114300000Y-144145000D02*
X114300000Y-146050000D01*
X113665000Y-143510000D02*
X114300000Y-144145000D01*
X110490000Y-143510000D02*
X113665000Y-143510000D01*
X115570000Y-147320000D02*
X115570000Y-147955000D01*
X111125000Y-149225000D02*
X111760000Y-149860000D01*
X114300000Y-149860000D02*
X115570000Y-148590000D01*
X111760000Y-149860000D02*
X114300000Y-149860000D01*
X115570000Y-148590000D02*
X115570000Y-147955000D01*
X111125000Y-149225000D02*
X110485000Y-148585000D01*
X110485000Y-148585000D02*
X109855000Y-148585000D01*
X119380000Y-151130000D02*
X118745000Y-151130000D01*
X119380000Y-151130000D02*
X121920000Y-151130000D01*
X115570000Y-147955000D02*
X118745000Y-151130000D01*
X132080000Y-138520000D02*
X132500000Y-138100000D01*
X109220000Y-144860000D02*
X105085000Y-144860000D01*
X105085000Y-144860000D02*
X103505000Y-143280000D01*
D42*
G04 #@! TO.N,Net-(Q1-Pad1)*
X106680000Y-146130000D02*
X104605000Y-146130000D01*
X104605000Y-146130000D02*
X104455000Y-146280000D01*
D41*
G04 #@! TO.N,/RAW+FUSE*
X121285000Y-150495000D02*
X123825000Y-147955000D01*
X123825000Y-147955000D02*
X128905000Y-147955000D01*
X91635000Y-135575000D02*
X89855000Y-135575000D01*
X89855000Y-135575000D02*
X89515000Y-135235000D01*
X88265000Y-135235000D02*
X89515000Y-135235000D01*
X89515000Y-135235000D02*
X89535000Y-135255000D01*
X91635000Y-137475000D02*
X89850000Y-137475000D01*
X89535000Y-137160000D02*
X89535000Y-135890000D01*
X89850000Y-137475000D02*
X89535000Y-137160000D01*
X89850000Y-135575000D02*
X89535000Y-135890000D01*
X91635000Y-135575000D02*
X89850000Y-135575000D01*
X88265000Y-135235000D02*
X88880000Y-135235000D01*
X89310000Y-141605000D02*
X89310000Y-139290000D01*
X89310000Y-139290000D02*
X89535000Y-139065000D01*
X91635000Y-138870000D02*
X91635000Y-137475000D01*
X91440000Y-139065000D02*
X89535000Y-139065000D01*
X91635000Y-138870000D02*
X91440000Y-139065000D01*
X117475000Y-147955000D02*
X117475000Y-148590000D01*
X119380000Y-150495000D02*
X120015000Y-150495000D01*
X117475000Y-148590000D02*
X119380000Y-150495000D01*
X116300000Y-144780000D02*
X116300000Y-145510000D01*
X116300000Y-145510000D02*
X117475000Y-146685000D01*
X117475000Y-146685000D02*
X117475000Y-147955000D01*
X116300000Y-143510000D02*
X116300000Y-144780000D01*
X106680000Y-142240000D02*
X106680000Y-143430000D01*
X106680000Y-141605000D02*
X106045000Y-140970000D01*
X106045000Y-140970000D02*
X105410000Y-140335000D01*
X111125000Y-140970000D02*
X107315000Y-140970000D01*
X107315000Y-140970000D02*
X106680000Y-141605000D01*
X116300000Y-143510000D02*
X116300000Y-141105000D01*
X116300000Y-141105000D02*
X116435000Y-140970000D01*
X111125000Y-140970000D02*
X116435000Y-140970000D01*
X116435000Y-140970000D02*
X118745000Y-140970000D01*
X118745000Y-140970000D02*
X119380000Y-140335000D01*
X118110000Y-128905000D02*
X116205000Y-127000000D01*
X118745000Y-129540000D02*
X119380000Y-130175000D01*
X119380000Y-130175000D02*
X119380000Y-140335000D01*
X118110000Y-128905000D02*
X118745000Y-129540000D01*
X140335000Y-136525000D02*
X145415000Y-131445000D01*
X132080000Y-136525000D02*
X140335000Y-136525000D01*
X130810000Y-137795000D02*
X132080000Y-136525000D01*
X130810000Y-146050000D02*
X130810000Y-137795000D01*
X128905000Y-147955000D02*
X130810000Y-146050000D01*
X120015000Y-150495000D02*
X121285000Y-150495000D01*
X106680000Y-141605000D02*
X106680000Y-142240000D01*
X106680000Y-142240000D02*
X106680000Y-142795000D01*
X89310000Y-141605000D02*
X89310000Y-145825000D01*
X89310000Y-145825000D02*
X89535000Y-146050000D01*
X89535000Y-146050000D02*
X99060000Y-146050000D01*
X99060000Y-146050000D02*
X99695000Y-145415000D01*
X99695000Y-145415000D02*
X99695000Y-140970000D01*
X99695000Y-140970000D02*
X100330000Y-140335000D01*
X100330000Y-140335000D02*
X105410000Y-140335000D01*
G04 #@! TO.N,Net-(C11-Pad1)*
X110415000Y-135890000D02*
X114375000Y-135890000D01*
X110415000Y-135890000D02*
X112025000Y-135890000D01*
D42*
G04 #@! TO.N,Net-(Q2-Pad1)*
X113435000Y-141920000D02*
X109460000Y-141920000D01*
X109460000Y-141920000D02*
X109220000Y-142160000D01*
D41*
G04 #@! TO.N,VCC*
X93755000Y-91175000D02*
X94985000Y-91175000D01*
X95250000Y-92075000D02*
X95250000Y-94000000D01*
X95250000Y-91440000D02*
X95250000Y-92075000D01*
X94985000Y-91175000D02*
X95250000Y-91440000D01*
X100370000Y-97560000D02*
X98810000Y-97560000D01*
X98810000Y-97560000D02*
X95250000Y-94000000D01*
X91460000Y-104775000D02*
X91460000Y-105430000D01*
X91460000Y-105430000D02*
X92075000Y-106045000D01*
X89215000Y-103140000D02*
X89825000Y-103140000D01*
X89825000Y-103140000D02*
X91460000Y-104775000D01*
X106685000Y-149865000D02*
X106045000Y-149225000D01*
X107315000Y-149865000D02*
X106685000Y-149865000D01*
X106045000Y-149225000D02*
X106045000Y-148590000D01*
X106045000Y-148590000D02*
X105410000Y-147955000D01*
X104140000Y-147955000D02*
X100965000Y-147955000D01*
X105410000Y-147955000D02*
X104140000Y-147955000D01*
X118110000Y-127000000D02*
X116840000Y-125730000D01*
X116840000Y-105410000D02*
X115570000Y-104140000D01*
X116840000Y-125730000D02*
X116840000Y-105410000D01*
X100965000Y-147955000D02*
X99695000Y-149225000D01*
X120650000Y-130810000D02*
X120650000Y-129540000D01*
X120650000Y-129540000D02*
X118110000Y-127000000D01*
D42*
G04 #@! TO.N,Net-(U5-Pad8)*
X92075000Y-95250000D02*
X92075000Y-99060000D01*
X95470000Y-99695000D02*
X96780000Y-101005000D01*
X92710000Y-99695000D02*
X95470000Y-99695000D01*
X92075000Y-99060000D02*
X92710000Y-99695000D01*
X87855000Y-87275000D02*
X91085000Y-87275000D01*
X92075000Y-88265000D02*
X92075000Y-95250000D01*
X91085000Y-87275000D02*
X92075000Y-88265000D01*
G04 #@! TO.N,Net-(U5-Pad3)*
X88265000Y-99695000D02*
X88900000Y-99695000D01*
X89535000Y-99060000D02*
X89535000Y-95885000D01*
X88900000Y-99695000D02*
X89535000Y-99060000D01*
X86780000Y-101005000D02*
X86955000Y-101005000D01*
X86955000Y-101005000D02*
X88265000Y-99695000D01*
X87855000Y-90525000D02*
X89255000Y-90525000D01*
X89535000Y-90805000D02*
X89535000Y-95885000D01*
X89255000Y-90525000D02*
X89535000Y-90805000D01*
G04 #@! TO.N,Net-(U5-Pad4)*
X88780000Y-101005000D02*
X88860000Y-101005000D01*
X88860000Y-101005000D02*
X90170000Y-99695000D01*
X90170000Y-99695000D02*
X90170000Y-97155000D01*
X87855000Y-89875000D02*
X89875000Y-89875000D01*
X90170000Y-90170000D02*
X90170000Y-97155000D01*
X89875000Y-89875000D02*
X90170000Y-90170000D01*
G04 #@! TO.N,Net-(U5-Pad5)*
X87855000Y-89225000D02*
X90495000Y-89225000D01*
X90805000Y-89535000D02*
X90805000Y-100980000D01*
X90495000Y-89225000D02*
X90805000Y-89535000D01*
X90805000Y-100980000D02*
X90780000Y-101005000D01*
G04 #@! TO.N,Net-(U5-Pad7)*
X91440000Y-96520000D02*
X91440000Y-99695000D01*
X91440000Y-99695000D02*
X92750000Y-101005000D01*
X92750000Y-101005000D02*
X94780000Y-101005000D01*
X87855000Y-87925000D02*
X90465000Y-87925000D01*
X91440000Y-88900000D02*
X91440000Y-96520000D01*
X90465000Y-87925000D02*
X91440000Y-88900000D01*
G04 #@! TD*
D43*
G04 #@! TO.N,VCC*
G36*
X102035000Y-131953000D02*
X101745955Y-131953000D01*
X101815000Y-131786310D01*
X101815000Y-131095750D01*
X101656250Y-130937000D01*
X100457000Y-130937000D01*
X100457000Y-130957000D01*
X100203000Y-130957000D01*
X100203000Y-130937000D01*
X99003750Y-130937000D01*
X98845000Y-131095750D01*
X98845000Y-131786310D01*
X98941673Y-132019699D01*
X98946955Y-132024981D01*
X98942667Y-132031399D01*
X98933000Y-132080000D01*
X98933000Y-132767830D01*
X98931161Y-132770582D01*
X98815908Y-133350000D01*
X98931161Y-133929418D01*
X98933000Y-133932170D01*
X98933000Y-135307830D01*
X98931161Y-135310582D01*
X98841170Y-135763000D01*
X96592250Y-135763000D01*
X96531250Y-135702000D01*
X95182000Y-135702000D01*
X95182000Y-135722000D01*
X94928000Y-135722000D01*
X94928000Y-135702000D01*
X94908000Y-135702000D01*
X94908000Y-135448000D01*
X94928000Y-135448000D01*
X94928000Y-134773750D01*
X95182000Y-134773750D01*
X95182000Y-135448000D01*
X96531250Y-135448000D01*
X96690000Y-135289250D01*
X96690000Y-135123690D01*
X96593327Y-134890301D01*
X96414698Y-134711673D01*
X96181309Y-134615000D01*
X95340750Y-134615000D01*
X95182000Y-134773750D01*
X94928000Y-134773750D01*
X94769250Y-134615000D01*
X94195363Y-134615000D01*
X94131552Y-134294200D01*
X94131552Y-134294199D01*
X93947001Y-134017999D01*
X93877282Y-133971415D01*
X93382867Y-133477000D01*
X94615000Y-133477000D01*
X94663601Y-133467333D01*
X94692307Y-133448152D01*
X94853691Y-133515000D01*
X95694250Y-133515000D01*
X95853000Y-133356250D01*
X95853000Y-132207000D01*
X96107000Y-132207000D01*
X96107000Y-133356250D01*
X96265750Y-133515000D01*
X97106309Y-133515000D01*
X97339698Y-133418327D01*
X97518327Y-133239699D01*
X97615000Y-133006310D01*
X97615000Y-132365750D01*
X97456250Y-132207000D01*
X96107000Y-132207000D01*
X95853000Y-132207000D01*
X95833000Y-132207000D01*
X95833000Y-131953000D01*
X95853000Y-131953000D01*
X95853000Y-130803750D01*
X96107000Y-130803750D01*
X96107000Y-131953000D01*
X97456250Y-131953000D01*
X97615000Y-131794250D01*
X97615000Y-131153690D01*
X97518327Y-130920301D01*
X97339698Y-130741673D01*
X97106309Y-130645000D01*
X96265750Y-130645000D01*
X96107000Y-130803750D01*
X95853000Y-130803750D01*
X95694250Y-130645000D01*
X94853691Y-130645000D01*
X94742000Y-130691264D01*
X94742000Y-129833690D01*
X98845000Y-129833690D01*
X98845000Y-130524250D01*
X99003750Y-130683000D01*
X100203000Y-130683000D01*
X100203000Y-129483750D01*
X100457000Y-129483750D01*
X100457000Y-130683000D01*
X101656250Y-130683000D01*
X101815000Y-130524250D01*
X101815000Y-129833690D01*
X101718327Y-129600301D01*
X101539698Y-129421673D01*
X101306309Y-129325000D01*
X100615750Y-129325000D01*
X100457000Y-129483750D01*
X100203000Y-129483750D01*
X100044250Y-129325000D01*
X99353691Y-129325000D01*
X99120302Y-129421673D01*
X98941673Y-129600301D01*
X98845000Y-129833690D01*
X94742000Y-129833690D01*
X94742000Y-129032000D01*
X102035001Y-129032000D01*
X102035000Y-131953000D01*
X102035000Y-131953000D01*
G37*
X102035000Y-131953000D02*
X101745955Y-131953000D01*
X101815000Y-131786310D01*
X101815000Y-131095750D01*
X101656250Y-130937000D01*
X100457000Y-130937000D01*
X100457000Y-130957000D01*
X100203000Y-130957000D01*
X100203000Y-130937000D01*
X99003750Y-130937000D01*
X98845000Y-131095750D01*
X98845000Y-131786310D01*
X98941673Y-132019699D01*
X98946955Y-132024981D01*
X98942667Y-132031399D01*
X98933000Y-132080000D01*
X98933000Y-132767830D01*
X98931161Y-132770582D01*
X98815908Y-133350000D01*
X98931161Y-133929418D01*
X98933000Y-133932170D01*
X98933000Y-135307830D01*
X98931161Y-135310582D01*
X98841170Y-135763000D01*
X96592250Y-135763000D01*
X96531250Y-135702000D01*
X95182000Y-135702000D01*
X95182000Y-135722000D01*
X94928000Y-135722000D01*
X94928000Y-135702000D01*
X94908000Y-135702000D01*
X94908000Y-135448000D01*
X94928000Y-135448000D01*
X94928000Y-134773750D01*
X95182000Y-134773750D01*
X95182000Y-135448000D01*
X96531250Y-135448000D01*
X96690000Y-135289250D01*
X96690000Y-135123690D01*
X96593327Y-134890301D01*
X96414698Y-134711673D01*
X96181309Y-134615000D01*
X95340750Y-134615000D01*
X95182000Y-134773750D01*
X94928000Y-134773750D01*
X94769250Y-134615000D01*
X94195363Y-134615000D01*
X94131552Y-134294200D01*
X94131552Y-134294199D01*
X93947001Y-134017999D01*
X93877282Y-133971415D01*
X93382867Y-133477000D01*
X94615000Y-133477000D01*
X94663601Y-133467333D01*
X94692307Y-133448152D01*
X94853691Y-133515000D01*
X95694250Y-133515000D01*
X95853000Y-133356250D01*
X95853000Y-132207000D01*
X96107000Y-132207000D01*
X96107000Y-133356250D01*
X96265750Y-133515000D01*
X97106309Y-133515000D01*
X97339698Y-133418327D01*
X97518327Y-133239699D01*
X97615000Y-133006310D01*
X97615000Y-132365750D01*
X97456250Y-132207000D01*
X96107000Y-132207000D01*
X95853000Y-132207000D01*
X95833000Y-132207000D01*
X95833000Y-131953000D01*
X95853000Y-131953000D01*
X95853000Y-130803750D01*
X96107000Y-130803750D01*
X96107000Y-131953000D01*
X97456250Y-131953000D01*
X97615000Y-131794250D01*
X97615000Y-131153690D01*
X97518327Y-130920301D01*
X97339698Y-130741673D01*
X97106309Y-130645000D01*
X96265750Y-130645000D01*
X96107000Y-130803750D01*
X95853000Y-130803750D01*
X95694250Y-130645000D01*
X94853691Y-130645000D01*
X94742000Y-130691264D01*
X94742000Y-129833690D01*
X98845000Y-129833690D01*
X98845000Y-130524250D01*
X99003750Y-130683000D01*
X100203000Y-130683000D01*
X100203000Y-129483750D01*
X100457000Y-129483750D01*
X100457000Y-130683000D01*
X101656250Y-130683000D01*
X101815000Y-130524250D01*
X101815000Y-129833690D01*
X101718327Y-129600301D01*
X101539698Y-129421673D01*
X101306309Y-129325000D01*
X100615750Y-129325000D01*
X100457000Y-129483750D01*
X100203000Y-129483750D01*
X100044250Y-129325000D01*
X99353691Y-129325000D01*
X99120302Y-129421673D01*
X98941673Y-129600301D01*
X98845000Y-129833690D01*
X94742000Y-129833690D01*
X94742000Y-129032000D01*
X102035001Y-129032000D01*
X102035000Y-131953000D01*
G04 #@! TO.N,Net-(L1-Pad2)*
G36*
X98933000Y-137847830D02*
X98931161Y-137850582D01*
X98815908Y-138430000D01*
X98931161Y-139009418D01*
X98933000Y-139012170D01*
X98933000Y-140607455D01*
X98908448Y-140644200D01*
X98843643Y-140970000D01*
X98860001Y-141052238D01*
X98860000Y-144653000D01*
X92837000Y-144653000D01*
X92837000Y-141890750D01*
X93725000Y-141890750D01*
X93725000Y-143481310D01*
X93821673Y-143714699D01*
X94000302Y-143893327D01*
X94233691Y-143990000D01*
X95824250Y-143990000D01*
X95983000Y-143831250D01*
X95983000Y-141732000D01*
X96237000Y-141732000D01*
X96237000Y-143831250D01*
X96395750Y-143990000D01*
X97986309Y-143990000D01*
X98219698Y-143893327D01*
X98398327Y-143714699D01*
X98495000Y-143481310D01*
X98495000Y-141890750D01*
X98336250Y-141732000D01*
X96237000Y-141732000D01*
X95983000Y-141732000D01*
X93883750Y-141732000D01*
X93725000Y-141890750D01*
X92837000Y-141890750D01*
X92837000Y-139728690D01*
X93725000Y-139728690D01*
X93725000Y-141319250D01*
X93883750Y-141478000D01*
X95983000Y-141478000D01*
X95983000Y-139378750D01*
X96237000Y-139378750D01*
X96237000Y-141478000D01*
X98336250Y-141478000D01*
X98495000Y-141319250D01*
X98495000Y-139728690D01*
X98398327Y-139495301D01*
X98219698Y-139316673D01*
X97986309Y-139220000D01*
X96395750Y-139220000D01*
X96237000Y-139378750D01*
X95983000Y-139378750D01*
X95824250Y-139220000D01*
X94233691Y-139220000D01*
X94000302Y-139316673D01*
X93821673Y-139495301D01*
X93725000Y-139728690D01*
X92837000Y-139728690D01*
X92837000Y-138407260D01*
X92882765Y-138398157D01*
X93092809Y-138257809D01*
X93233157Y-138047765D01*
X93282440Y-137800000D01*
X93282440Y-137760750D01*
X93420000Y-137760750D01*
X93420000Y-137926310D01*
X93516673Y-138159699D01*
X93695302Y-138338327D01*
X93928691Y-138435000D01*
X94769250Y-138435000D01*
X94928000Y-138276250D01*
X94928000Y-137602000D01*
X95182000Y-137602000D01*
X95182000Y-138276250D01*
X95340750Y-138435000D01*
X96181309Y-138435000D01*
X96414698Y-138338327D01*
X96593327Y-138159699D01*
X96690000Y-137926310D01*
X96690000Y-137760750D01*
X96531250Y-137602000D01*
X95182000Y-137602000D01*
X94928000Y-137602000D01*
X93578750Y-137602000D01*
X93420000Y-137760750D01*
X93282440Y-137760750D01*
X93282440Y-137150000D01*
X93281870Y-137147134D01*
X93312001Y-137127001D01*
X93358587Y-137057280D01*
X93439674Y-136976194D01*
X93420000Y-137023690D01*
X93420000Y-137189250D01*
X93578750Y-137348000D01*
X94928000Y-137348000D01*
X94928000Y-137328000D01*
X95182000Y-137328000D01*
X95182000Y-137348000D01*
X96531250Y-137348000D01*
X96690000Y-137189250D01*
X96690000Y-137023690D01*
X96593327Y-136790301D01*
X96455025Y-136652000D01*
X98933000Y-136652000D01*
X98933000Y-137847830D01*
X98933000Y-137847830D01*
G37*
X98933000Y-137847830D02*
X98931161Y-137850582D01*
X98815908Y-138430000D01*
X98931161Y-139009418D01*
X98933000Y-139012170D01*
X98933000Y-140607455D01*
X98908448Y-140644200D01*
X98843643Y-140970000D01*
X98860001Y-141052238D01*
X98860000Y-144653000D01*
X92837000Y-144653000D01*
X92837000Y-141890750D01*
X93725000Y-141890750D01*
X93725000Y-143481310D01*
X93821673Y-143714699D01*
X94000302Y-143893327D01*
X94233691Y-143990000D01*
X95824250Y-143990000D01*
X95983000Y-143831250D01*
X95983000Y-141732000D01*
X96237000Y-141732000D01*
X96237000Y-143831250D01*
X96395750Y-143990000D01*
X97986309Y-143990000D01*
X98219698Y-143893327D01*
X98398327Y-143714699D01*
X98495000Y-143481310D01*
X98495000Y-141890750D01*
X98336250Y-141732000D01*
X96237000Y-141732000D01*
X95983000Y-141732000D01*
X93883750Y-141732000D01*
X93725000Y-141890750D01*
X92837000Y-141890750D01*
X92837000Y-139728690D01*
X93725000Y-139728690D01*
X93725000Y-141319250D01*
X93883750Y-141478000D01*
X95983000Y-141478000D01*
X95983000Y-139378750D01*
X96237000Y-139378750D01*
X96237000Y-141478000D01*
X98336250Y-141478000D01*
X98495000Y-141319250D01*
X98495000Y-139728690D01*
X98398327Y-139495301D01*
X98219698Y-139316673D01*
X97986309Y-139220000D01*
X96395750Y-139220000D01*
X96237000Y-139378750D01*
X95983000Y-139378750D01*
X95824250Y-139220000D01*
X94233691Y-139220000D01*
X94000302Y-139316673D01*
X93821673Y-139495301D01*
X93725000Y-139728690D01*
X92837000Y-139728690D01*
X92837000Y-138407260D01*
X92882765Y-138398157D01*
X93092809Y-138257809D01*
X93233157Y-138047765D01*
X93282440Y-137800000D01*
X93282440Y-137760750D01*
X93420000Y-137760750D01*
X93420000Y-137926310D01*
X93516673Y-138159699D01*
X93695302Y-138338327D01*
X93928691Y-138435000D01*
X94769250Y-138435000D01*
X94928000Y-138276250D01*
X94928000Y-137602000D01*
X95182000Y-137602000D01*
X95182000Y-138276250D01*
X95340750Y-138435000D01*
X96181309Y-138435000D01*
X96414698Y-138338327D01*
X96593327Y-138159699D01*
X96690000Y-137926310D01*
X96690000Y-137760750D01*
X96531250Y-137602000D01*
X95182000Y-137602000D01*
X94928000Y-137602000D01*
X93578750Y-137602000D01*
X93420000Y-137760750D01*
X93282440Y-137760750D01*
X93282440Y-137150000D01*
X93281870Y-137147134D01*
X93312001Y-137127001D01*
X93358587Y-137057280D01*
X93439674Y-136976194D01*
X93420000Y-137023690D01*
X93420000Y-137189250D01*
X93578750Y-137348000D01*
X94928000Y-137348000D01*
X94928000Y-137328000D01*
X95182000Y-137328000D01*
X95182000Y-137348000D01*
X96531250Y-137348000D01*
X96690000Y-137189250D01*
X96690000Y-137023690D01*
X96593327Y-136790301D01*
X96455025Y-136652000D01*
X98933000Y-136652000D01*
X98933000Y-137847830D01*
G04 #@! TO.N,/RAW+FUSE*
G36*
X87101673Y-134125302D02*
X87005000Y-134358691D01*
X87005000Y-134949250D01*
X87163750Y-135108000D01*
X88138000Y-135108000D01*
X88138000Y-135088000D01*
X88392000Y-135088000D01*
X88392000Y-135108000D01*
X89366250Y-135108000D01*
X89525000Y-134949250D01*
X89525000Y-134358691D01*
X89428327Y-134125302D01*
X89415025Y-134112000D01*
X91656133Y-134112000D01*
X91948000Y-134403868D01*
X91948000Y-134615000D01*
X91920750Y-134615000D01*
X91762000Y-134773750D01*
X91762000Y-135448000D01*
X91782000Y-135448000D01*
X91782000Y-135552560D01*
X90635000Y-135552560D01*
X90387235Y-135601843D01*
X90237341Y-135702000D01*
X90158750Y-135702000D01*
X90000000Y-135860750D01*
X90000000Y-136026310D01*
X90014936Y-136062369D01*
X89987560Y-136200000D01*
X89987560Y-136850000D01*
X90014936Y-136987631D01*
X90000000Y-137023690D01*
X90000000Y-137189250D01*
X90158750Y-137348000D01*
X90237341Y-137348000D01*
X90387235Y-137448157D01*
X90635000Y-137497440D01*
X91782000Y-137497440D01*
X91782000Y-137602000D01*
X91762000Y-137602000D01*
X91762000Y-138276250D01*
X91920750Y-138435000D01*
X91948000Y-138435000D01*
X91948000Y-144653000D01*
X88162296Y-144653000D01*
X88105899Y-144596603D01*
X87063917Y-144165000D01*
X86487000Y-144165000D01*
X86487000Y-141890750D01*
X86925000Y-141890750D01*
X86925000Y-143481310D01*
X87021673Y-143714699D01*
X87200302Y-143893327D01*
X87433691Y-143990000D01*
X89024250Y-143990000D01*
X89183000Y-143831250D01*
X89183000Y-141732000D01*
X89437000Y-141732000D01*
X89437000Y-143831250D01*
X89595750Y-143990000D01*
X91186309Y-143990000D01*
X91419698Y-143893327D01*
X91598327Y-143714699D01*
X91695000Y-143481310D01*
X91695000Y-141890750D01*
X91536250Y-141732000D01*
X89437000Y-141732000D01*
X89183000Y-141732000D01*
X87083750Y-141732000D01*
X86925000Y-141890750D01*
X86487000Y-141890750D01*
X86487000Y-139728690D01*
X86925000Y-139728690D01*
X86925000Y-141319250D01*
X87083750Y-141478000D01*
X89183000Y-141478000D01*
X89183000Y-139378750D01*
X89437000Y-139378750D01*
X89437000Y-141478000D01*
X91536250Y-141478000D01*
X91695000Y-141319250D01*
X91695000Y-139728690D01*
X91598327Y-139495301D01*
X91419698Y-139316673D01*
X91186309Y-139220000D01*
X89595750Y-139220000D01*
X89437000Y-139378750D01*
X89183000Y-139378750D01*
X89024250Y-139220000D01*
X87433691Y-139220000D01*
X87200302Y-139316673D01*
X87021673Y-139495301D01*
X86925000Y-139728690D01*
X86487000Y-139728690D01*
X86487000Y-139012170D01*
X86488839Y-139009418D01*
X86604092Y-138430000D01*
X86488839Y-137850582D01*
X86487000Y-137847830D01*
X86487000Y-137760750D01*
X90000000Y-137760750D01*
X90000000Y-137926310D01*
X90096673Y-138159699D01*
X90275302Y-138338327D01*
X90508691Y-138435000D01*
X91349250Y-138435000D01*
X91508000Y-138276250D01*
X91508000Y-137602000D01*
X90158750Y-137602000D01*
X90000000Y-137760750D01*
X86487000Y-137760750D01*
X86487000Y-136472170D01*
X86488839Y-136469418D01*
X86604092Y-135890000D01*
X86530644Y-135520750D01*
X87005000Y-135520750D01*
X87005000Y-136111309D01*
X87101673Y-136344698D01*
X87280301Y-136523327D01*
X87513690Y-136620000D01*
X87979250Y-136620000D01*
X88138000Y-136461250D01*
X88138000Y-135362000D01*
X88392000Y-135362000D01*
X88392000Y-136461250D01*
X88550750Y-136620000D01*
X89016310Y-136620000D01*
X89249699Y-136523327D01*
X89428327Y-136344698D01*
X89525000Y-136111309D01*
X89525000Y-135520750D01*
X89366250Y-135362000D01*
X88392000Y-135362000D01*
X88138000Y-135362000D01*
X87163750Y-135362000D01*
X87005000Y-135520750D01*
X86530644Y-135520750D01*
X86488839Y-135310582D01*
X86487000Y-135307830D01*
X86487000Y-135123690D01*
X90000000Y-135123690D01*
X90000000Y-135289250D01*
X90158750Y-135448000D01*
X91508000Y-135448000D01*
X91508000Y-134773750D01*
X91349250Y-134615000D01*
X90508691Y-134615000D01*
X90275302Y-134711673D01*
X90096673Y-134890301D01*
X90000000Y-135123690D01*
X86487000Y-135123690D01*
X86487000Y-134112000D01*
X87114975Y-134112000D01*
X87101673Y-134125302D01*
X87101673Y-134125302D01*
G37*
X87101673Y-134125302D02*
X87005000Y-134358691D01*
X87005000Y-134949250D01*
X87163750Y-135108000D01*
X88138000Y-135108000D01*
X88138000Y-135088000D01*
X88392000Y-135088000D01*
X88392000Y-135108000D01*
X89366250Y-135108000D01*
X89525000Y-134949250D01*
X89525000Y-134358691D01*
X89428327Y-134125302D01*
X89415025Y-134112000D01*
X91656133Y-134112000D01*
X91948000Y-134403868D01*
X91948000Y-134615000D01*
X91920750Y-134615000D01*
X91762000Y-134773750D01*
X91762000Y-135448000D01*
X91782000Y-135448000D01*
X91782000Y-135552560D01*
X90635000Y-135552560D01*
X90387235Y-135601843D01*
X90237341Y-135702000D01*
X90158750Y-135702000D01*
X90000000Y-135860750D01*
X90000000Y-136026310D01*
X90014936Y-136062369D01*
X89987560Y-136200000D01*
X89987560Y-136850000D01*
X90014936Y-136987631D01*
X90000000Y-137023690D01*
X90000000Y-137189250D01*
X90158750Y-137348000D01*
X90237341Y-137348000D01*
X90387235Y-137448157D01*
X90635000Y-137497440D01*
X91782000Y-137497440D01*
X91782000Y-137602000D01*
X91762000Y-137602000D01*
X91762000Y-138276250D01*
X91920750Y-138435000D01*
X91948000Y-138435000D01*
X91948000Y-144653000D01*
X88162296Y-144653000D01*
X88105899Y-144596603D01*
X87063917Y-144165000D01*
X86487000Y-144165000D01*
X86487000Y-141890750D01*
X86925000Y-141890750D01*
X86925000Y-143481310D01*
X87021673Y-143714699D01*
X87200302Y-143893327D01*
X87433691Y-143990000D01*
X89024250Y-143990000D01*
X89183000Y-143831250D01*
X89183000Y-141732000D01*
X89437000Y-141732000D01*
X89437000Y-143831250D01*
X89595750Y-143990000D01*
X91186309Y-143990000D01*
X91419698Y-143893327D01*
X91598327Y-143714699D01*
X91695000Y-143481310D01*
X91695000Y-141890750D01*
X91536250Y-141732000D01*
X89437000Y-141732000D01*
X89183000Y-141732000D01*
X87083750Y-141732000D01*
X86925000Y-141890750D01*
X86487000Y-141890750D01*
X86487000Y-139728690D01*
X86925000Y-139728690D01*
X86925000Y-141319250D01*
X87083750Y-141478000D01*
X89183000Y-141478000D01*
X89183000Y-139378750D01*
X89437000Y-139378750D01*
X89437000Y-141478000D01*
X91536250Y-141478000D01*
X91695000Y-141319250D01*
X91695000Y-139728690D01*
X91598327Y-139495301D01*
X91419698Y-139316673D01*
X91186309Y-139220000D01*
X89595750Y-139220000D01*
X89437000Y-139378750D01*
X89183000Y-139378750D01*
X89024250Y-139220000D01*
X87433691Y-139220000D01*
X87200302Y-139316673D01*
X87021673Y-139495301D01*
X86925000Y-139728690D01*
X86487000Y-139728690D01*
X86487000Y-139012170D01*
X86488839Y-139009418D01*
X86604092Y-138430000D01*
X86488839Y-137850582D01*
X86487000Y-137847830D01*
X86487000Y-137760750D01*
X90000000Y-137760750D01*
X90000000Y-137926310D01*
X90096673Y-138159699D01*
X90275302Y-138338327D01*
X90508691Y-138435000D01*
X91349250Y-138435000D01*
X91508000Y-138276250D01*
X91508000Y-137602000D01*
X90158750Y-137602000D01*
X90000000Y-137760750D01*
X86487000Y-137760750D01*
X86487000Y-136472170D01*
X86488839Y-136469418D01*
X86604092Y-135890000D01*
X86530644Y-135520750D01*
X87005000Y-135520750D01*
X87005000Y-136111309D01*
X87101673Y-136344698D01*
X87280301Y-136523327D01*
X87513690Y-136620000D01*
X87979250Y-136620000D01*
X88138000Y-136461250D01*
X88138000Y-135362000D01*
X88392000Y-135362000D01*
X88392000Y-136461250D01*
X88550750Y-136620000D01*
X89016310Y-136620000D01*
X89249699Y-136523327D01*
X89428327Y-136344698D01*
X89525000Y-136111309D01*
X89525000Y-135520750D01*
X89366250Y-135362000D01*
X88392000Y-135362000D01*
X88138000Y-135362000D01*
X87163750Y-135362000D01*
X87005000Y-135520750D01*
X86530644Y-135520750D01*
X86488839Y-135310582D01*
X86487000Y-135307830D01*
X86487000Y-135123690D01*
X90000000Y-135123690D01*
X90000000Y-135289250D01*
X90158750Y-135448000D01*
X91508000Y-135448000D01*
X91508000Y-134773750D01*
X91349250Y-134615000D01*
X90508691Y-134615000D01*
X90275302Y-134711673D01*
X90096673Y-134890301D01*
X90000000Y-135123690D01*
X86487000Y-135123690D01*
X86487000Y-134112000D01*
X87114975Y-134112000D01*
X87101673Y-134125302D01*
G04 #@! TO.N,GND*
G36*
X102362000Y-149098000D02*
X104648000Y-149098000D01*
X104648000Y-149078000D01*
X104902000Y-149078000D01*
X104902000Y-149098000D01*
X104922000Y-149098000D01*
X104922000Y-149352000D01*
X104902000Y-149352000D01*
X104902000Y-150545155D01*
X105131890Y-150666476D01*
X105541924Y-150496645D01*
X105852625Y-150213493D01*
X106036414Y-150397282D01*
X106044318Y-150409110D01*
X106081843Y-150597765D01*
X106222191Y-150807809D01*
X106432235Y-150948157D01*
X106680000Y-150997440D01*
X107950000Y-150997440D01*
X108197765Y-150948157D01*
X108407809Y-150807809D01*
X108548157Y-150597765D01*
X108585000Y-150412541D01*
X108585000Y-150476310D01*
X108681673Y-150709699D01*
X108860302Y-150888327D01*
X109093691Y-150985000D01*
X109569250Y-150985000D01*
X109728000Y-150826250D01*
X109728000Y-149992000D01*
X109708000Y-149992000D01*
X109708000Y-149738000D01*
X109728000Y-149738000D01*
X109728000Y-149718000D01*
X109982000Y-149718000D01*
X109982000Y-149738000D01*
X110002000Y-149738000D01*
X110002000Y-149992000D01*
X109982000Y-149992000D01*
X109982000Y-150826250D01*
X110140750Y-150985000D01*
X110616309Y-150985000D01*
X110849698Y-150888327D01*
X111028327Y-150709699D01*
X111125000Y-150476310D01*
X111125000Y-150412615D01*
X111157999Y-150462001D01*
X111434199Y-150646552D01*
X111677763Y-150695000D01*
X111760000Y-150711358D01*
X111842237Y-150695000D01*
X114217767Y-150695000D01*
X114300000Y-150711357D01*
X114382233Y-150695000D01*
X114382237Y-150695000D01*
X114625801Y-150646552D01*
X114902001Y-150462001D01*
X114948587Y-150392280D01*
X115755793Y-149585075D01*
X115975504Y-149541371D01*
X117749132Y-151315000D01*
X88025412Y-151315000D01*
X87218015Y-151255000D01*
X93270153Y-151255000D01*
X93345000Y-151269888D01*
X93419847Y-151255000D01*
X93419852Y-151255000D01*
X93641537Y-151210904D01*
X93892929Y-151042929D01*
X93935331Y-150979470D01*
X94248592Y-150666209D01*
X94468744Y-150710000D01*
X94761256Y-150710000D01*
X95194418Y-150623839D01*
X95685625Y-150295625D01*
X95885000Y-149997239D01*
X96084375Y-150295625D01*
X96575582Y-150623839D01*
X97008744Y-150710000D01*
X97301256Y-150710000D01*
X97734418Y-150623839D01*
X98225625Y-150295625D01*
X98425000Y-149997239D01*
X98624375Y-150295625D01*
X99115582Y-150623839D01*
X99548744Y-150710000D01*
X99841256Y-150710000D01*
X100274418Y-150623839D01*
X100765625Y-150295625D01*
X100978843Y-149976522D01*
X101039817Y-150106358D01*
X101468076Y-150496645D01*
X101878110Y-150666476D01*
X102108000Y-150545155D01*
X102108000Y-149352000D01*
X102362000Y-149352000D01*
X102362000Y-150545155D01*
X102591890Y-150666476D01*
X103001924Y-150496645D01*
X103430183Y-150106358D01*
X103505000Y-149947046D01*
X103579817Y-150106358D01*
X104008076Y-150496645D01*
X104418110Y-150666476D01*
X104648000Y-150545155D01*
X104648000Y-149352000D01*
X102362000Y-149352000D01*
X102108000Y-149352000D01*
X102088000Y-149352000D01*
X102088000Y-149098000D01*
X102108000Y-149098000D01*
X102108000Y-149078000D01*
X102362000Y-149078000D01*
X102362000Y-149098000D01*
X102362000Y-149098000D01*
G37*
X102362000Y-149098000D02*
X104648000Y-149098000D01*
X104648000Y-149078000D01*
X104902000Y-149078000D01*
X104902000Y-149098000D01*
X104922000Y-149098000D01*
X104922000Y-149352000D01*
X104902000Y-149352000D01*
X104902000Y-150545155D01*
X105131890Y-150666476D01*
X105541924Y-150496645D01*
X105852625Y-150213493D01*
X106036414Y-150397282D01*
X106044318Y-150409110D01*
X106081843Y-150597765D01*
X106222191Y-150807809D01*
X106432235Y-150948157D01*
X106680000Y-150997440D01*
X107950000Y-150997440D01*
X108197765Y-150948157D01*
X108407809Y-150807809D01*
X108548157Y-150597765D01*
X108585000Y-150412541D01*
X108585000Y-150476310D01*
X108681673Y-150709699D01*
X108860302Y-150888327D01*
X109093691Y-150985000D01*
X109569250Y-150985000D01*
X109728000Y-150826250D01*
X109728000Y-149992000D01*
X109708000Y-149992000D01*
X109708000Y-149738000D01*
X109728000Y-149738000D01*
X109728000Y-149718000D01*
X109982000Y-149718000D01*
X109982000Y-149738000D01*
X110002000Y-149738000D01*
X110002000Y-149992000D01*
X109982000Y-149992000D01*
X109982000Y-150826250D01*
X110140750Y-150985000D01*
X110616309Y-150985000D01*
X110849698Y-150888327D01*
X111028327Y-150709699D01*
X111125000Y-150476310D01*
X111125000Y-150412615D01*
X111157999Y-150462001D01*
X111434199Y-150646552D01*
X111677763Y-150695000D01*
X111760000Y-150711358D01*
X111842237Y-150695000D01*
X114217767Y-150695000D01*
X114300000Y-150711357D01*
X114382233Y-150695000D01*
X114382237Y-150695000D01*
X114625801Y-150646552D01*
X114902001Y-150462001D01*
X114948587Y-150392280D01*
X115755793Y-149585075D01*
X115975504Y-149541371D01*
X117749132Y-151315000D01*
X88025412Y-151315000D01*
X87218015Y-151255000D01*
X93270153Y-151255000D01*
X93345000Y-151269888D01*
X93419847Y-151255000D01*
X93419852Y-151255000D01*
X93641537Y-151210904D01*
X93892929Y-151042929D01*
X93935331Y-150979470D01*
X94248592Y-150666209D01*
X94468744Y-150710000D01*
X94761256Y-150710000D01*
X95194418Y-150623839D01*
X95685625Y-150295625D01*
X95885000Y-149997239D01*
X96084375Y-150295625D01*
X96575582Y-150623839D01*
X97008744Y-150710000D01*
X97301256Y-150710000D01*
X97734418Y-150623839D01*
X98225625Y-150295625D01*
X98425000Y-149997239D01*
X98624375Y-150295625D01*
X99115582Y-150623839D01*
X99548744Y-150710000D01*
X99841256Y-150710000D01*
X100274418Y-150623839D01*
X100765625Y-150295625D01*
X100978843Y-149976522D01*
X101039817Y-150106358D01*
X101468076Y-150496645D01*
X101878110Y-150666476D01*
X102108000Y-150545155D01*
X102108000Y-149352000D01*
X102362000Y-149352000D01*
X102362000Y-150545155D01*
X102591890Y-150666476D01*
X103001924Y-150496645D01*
X103430183Y-150106358D01*
X103505000Y-149947046D01*
X103579817Y-150106358D01*
X104008076Y-150496645D01*
X104418110Y-150666476D01*
X104648000Y-150545155D01*
X104648000Y-149352000D01*
X102362000Y-149352000D01*
X102108000Y-149352000D01*
X102088000Y-149352000D01*
X102088000Y-149098000D01*
X102108000Y-149098000D01*
X102108000Y-149078000D01*
X102362000Y-149078000D01*
X102362000Y-149098000D01*
G36*
X82037945Y-102115564D02*
X82519425Y-102315000D01*
X82665001Y-102315000D01*
X82665000Y-103417767D01*
X82648643Y-103500000D01*
X82665000Y-103582233D01*
X82665000Y-103582236D01*
X82697000Y-103743111D01*
X82697000Y-104648000D01*
X82717000Y-104648000D01*
X82717000Y-104902000D01*
X82697000Y-104902000D01*
X82697000Y-105876250D01*
X82855750Y-106035000D01*
X83446309Y-106035000D01*
X83679698Y-105938327D01*
X83821346Y-105796680D01*
X83862191Y-105857809D01*
X84072235Y-105998157D01*
X84320000Y-106047440D01*
X85820000Y-106047440D01*
X86067765Y-105998157D01*
X86277809Y-105857809D01*
X86418157Y-105647765D01*
X86467440Y-105400000D01*
X86467440Y-105168427D01*
X87398428Y-104237440D01*
X87419534Y-104237440D01*
X87326673Y-104330302D01*
X87230000Y-104563691D01*
X87230000Y-104854250D01*
X87388750Y-105013000D01*
X88138000Y-105013000D01*
X88138000Y-104213750D01*
X88052469Y-104128219D01*
X88172809Y-104047809D01*
X88265000Y-103909836D01*
X88357191Y-104047809D01*
X88477531Y-104128219D01*
X88392000Y-104213750D01*
X88392000Y-105013000D01*
X89141250Y-105013000D01*
X89300000Y-104854250D01*
X89300000Y-104563691D01*
X89203327Y-104330302D01*
X89110466Y-104237440D01*
X89615000Y-104237440D01*
X89720573Y-104216440D01*
X90062560Y-104558428D01*
X90062560Y-105400000D01*
X90111843Y-105647765D01*
X90252191Y-105857809D01*
X90462235Y-105998157D01*
X90710000Y-106047440D01*
X90881106Y-106047440D01*
X90927717Y-106078585D01*
X91182345Y-106333213D01*
X91231507Y-106451901D01*
X90889803Y-106110197D01*
X90848601Y-106082667D01*
X90800000Y-106073000D01*
X89080026Y-106073000D01*
X89203327Y-105949698D01*
X89300000Y-105716309D01*
X89300000Y-105425750D01*
X89141250Y-105267000D01*
X88392000Y-105267000D01*
X88392000Y-105287000D01*
X88138000Y-105287000D01*
X88138000Y-105267000D01*
X87388750Y-105267000D01*
X87230000Y-105425750D01*
X87230000Y-105716309D01*
X87326673Y-105949698D01*
X87449974Y-106073000D01*
X83600000Y-106073000D01*
X83551399Y-106082667D01*
X83510197Y-106110197D01*
X82710197Y-106910197D01*
X82682667Y-106951399D01*
X82673000Y-107000000D01*
X82673000Y-119000000D01*
X82682667Y-119048601D01*
X82710197Y-119089803D01*
X83510197Y-119889803D01*
X83551399Y-119917333D01*
X83600000Y-119927000D01*
X90800000Y-119927000D01*
X90848601Y-119917333D01*
X90889803Y-119889803D01*
X96452606Y-114327000D01*
X97323198Y-114327000D01*
X94475199Y-117175000D01*
X94429017Y-117175000D01*
X94085365Y-117317345D01*
X93822345Y-117580365D01*
X93680000Y-117924017D01*
X93680000Y-118295983D01*
X93822345Y-118639635D01*
X94085365Y-118902655D01*
X94429017Y-119045000D01*
X94800983Y-119045000D01*
X95144635Y-118902655D01*
X95407655Y-118639635D01*
X95550000Y-118295983D01*
X95550000Y-118249801D01*
X98301256Y-115498546D01*
X98530365Y-115727655D01*
X98874017Y-115870000D01*
X99245983Y-115870000D01*
X99589635Y-115727655D01*
X99852655Y-115464635D01*
X99886047Y-115384017D01*
X105745000Y-115384017D01*
X105745000Y-115755983D01*
X105887345Y-116099635D01*
X106150365Y-116362655D01*
X106494017Y-116505000D01*
X106865983Y-116505000D01*
X107209635Y-116362655D01*
X107242290Y-116330000D01*
X114372710Y-116330000D01*
X114405365Y-116362655D01*
X114749017Y-116505000D01*
X115120983Y-116505000D01*
X115464635Y-116362655D01*
X115727655Y-116099635D01*
X115870000Y-115755983D01*
X115870000Y-115384017D01*
X115727655Y-115040365D01*
X115464635Y-114777345D01*
X115120983Y-114635000D01*
X114749017Y-114635000D01*
X114405365Y-114777345D01*
X114372710Y-114810000D01*
X107242290Y-114810000D01*
X107209635Y-114777345D01*
X106865983Y-114635000D01*
X106494017Y-114635000D01*
X106150365Y-114777345D01*
X105887345Y-115040365D01*
X105745000Y-115384017D01*
X99886047Y-115384017D01*
X99995000Y-115120983D01*
X99995000Y-115074801D01*
X100814473Y-114255329D01*
X100877929Y-114212929D01*
X101045904Y-113961537D01*
X101090000Y-113739852D01*
X101090000Y-113739848D01*
X101104888Y-113665001D01*
X101090000Y-113590154D01*
X101090000Y-112695000D01*
X101150983Y-112695000D01*
X101494635Y-112552655D01*
X101757655Y-112289635D01*
X101900000Y-111945983D01*
X101900000Y-111574017D01*
X103840000Y-111574017D01*
X103840000Y-111945983D01*
X103982345Y-112289635D01*
X104015001Y-112322291D01*
X104015000Y-113102710D01*
X103982345Y-113135365D01*
X103840000Y-113479017D01*
X103840000Y-113850983D01*
X103982345Y-114194635D01*
X104245365Y-114457655D01*
X104589017Y-114600000D01*
X104960983Y-114600000D01*
X105304635Y-114457655D01*
X105567655Y-114194635D01*
X105710000Y-113850983D01*
X105710000Y-113479017D01*
X105567655Y-113135365D01*
X105535000Y-113102710D01*
X105535000Y-112322290D01*
X105567655Y-112289635D01*
X105710000Y-111945983D01*
X105710000Y-111574017D01*
X105567655Y-111230365D01*
X105304635Y-110967345D01*
X104960983Y-110825000D01*
X104589017Y-110825000D01*
X104245365Y-110967345D01*
X103982345Y-111230365D01*
X103840000Y-111574017D01*
X101900000Y-111574017D01*
X101757655Y-111230365D01*
X101725000Y-111197710D01*
X101725000Y-109929846D01*
X101739888Y-109854999D01*
X101725000Y-109780152D01*
X101725000Y-109780148D01*
X101680904Y-109558463D01*
X101512929Y-109307071D01*
X101449473Y-109264671D01*
X101069802Y-108885000D01*
X101150983Y-108885000D01*
X101494635Y-108742655D01*
X101757655Y-108479635D01*
X101900000Y-108135983D01*
X101900000Y-108089801D01*
X106359802Y-103630000D01*
X113102710Y-103630000D01*
X113135365Y-103662655D01*
X113479017Y-103805000D01*
X113850983Y-103805000D01*
X114146927Y-103682416D01*
X114055908Y-104140000D01*
X114171161Y-104719418D01*
X114499375Y-105210625D01*
X114990582Y-105538839D01*
X115423744Y-105625000D01*
X115716256Y-105625000D01*
X115847939Y-105598807D01*
X116005001Y-105755869D01*
X116005000Y-125647767D01*
X115988643Y-125730000D01*
X116005000Y-125812233D01*
X116005000Y-125812236D01*
X116053448Y-126055800D01*
X116059595Y-126065000D01*
X116019017Y-126065000D01*
X115675365Y-126207345D01*
X115412345Y-126470365D01*
X115270000Y-126814017D01*
X115270000Y-127185983D01*
X115412345Y-127529635D01*
X115675365Y-127792655D01*
X115916788Y-127892656D01*
X116167132Y-128143000D01*
X113783736Y-128143000D01*
X113830000Y-128031309D01*
X113830000Y-127190750D01*
X113671250Y-127032000D01*
X112522000Y-127032000D01*
X112522000Y-127052000D01*
X112268000Y-127052000D01*
X112268000Y-127032000D01*
X111118750Y-127032000D01*
X110960000Y-127190750D01*
X110960000Y-128031309D01*
X111006264Y-128143000D01*
X109845000Y-128143000D01*
X109845000Y-127940750D01*
X109686250Y-127782000D01*
X108712000Y-127782000D01*
X108712000Y-127802000D01*
X108458000Y-127802000D01*
X108458000Y-127782000D01*
X107483750Y-127782000D01*
X107325000Y-127940750D01*
X107325000Y-128143000D01*
X93980000Y-128143000D01*
X93931399Y-128152667D01*
X93890197Y-128180197D01*
X93862667Y-128221399D01*
X93853000Y-128270000D01*
X93853000Y-132588000D01*
X93615000Y-132588000D01*
X93615000Y-132365750D01*
X93456250Y-132207000D01*
X92107000Y-132207000D01*
X92107000Y-132227000D01*
X91853000Y-132227000D01*
X91853000Y-132207000D01*
X90503750Y-132207000D01*
X90345000Y-132365750D01*
X90345000Y-133006310D01*
X90434756Y-133223000D01*
X89525000Y-133223000D01*
X89525000Y-133020750D01*
X89366250Y-132862000D01*
X88392000Y-132862000D01*
X88392000Y-132882000D01*
X88138000Y-132882000D01*
X88138000Y-132862000D01*
X87163750Y-132862000D01*
X87005000Y-133020750D01*
X87005000Y-133223000D01*
X86575000Y-133223000D01*
X86575000Y-133222998D01*
X86410156Y-133222998D01*
X86531476Y-132993110D01*
X86361645Y-132583076D01*
X86084292Y-132278739D01*
X86187765Y-132258157D01*
X86397809Y-132117809D01*
X86538157Y-131907765D01*
X86547918Y-131858691D01*
X87005000Y-131858691D01*
X87005000Y-132449250D01*
X87163750Y-132608000D01*
X88138000Y-132608000D01*
X88138000Y-131508750D01*
X88392000Y-131508750D01*
X88392000Y-132608000D01*
X89366250Y-132608000D01*
X89525000Y-132449250D01*
X89525000Y-131858691D01*
X89428327Y-131625302D01*
X89249699Y-131446673D01*
X89016310Y-131350000D01*
X88550750Y-131350000D01*
X88392000Y-131508750D01*
X88138000Y-131508750D01*
X87979250Y-131350000D01*
X87513690Y-131350000D01*
X87280301Y-131446673D01*
X87101673Y-131625302D01*
X87005000Y-131858691D01*
X86547918Y-131858691D01*
X86587440Y-131660000D01*
X86587440Y-131153690D01*
X90345000Y-131153690D01*
X90345000Y-131794250D01*
X90503750Y-131953000D01*
X91853000Y-131953000D01*
X91853000Y-130803750D01*
X92107000Y-130803750D01*
X92107000Y-131953000D01*
X93456250Y-131953000D01*
X93615000Y-131794250D01*
X93615000Y-131153690D01*
X93518327Y-130920301D01*
X93339698Y-130741673D01*
X93106309Y-130645000D01*
X92265750Y-130645000D01*
X92107000Y-130803750D01*
X91853000Y-130803750D01*
X91694250Y-130645000D01*
X90853691Y-130645000D01*
X90620302Y-130741673D01*
X90441673Y-130920301D01*
X90345000Y-131153690D01*
X86587440Y-131153690D01*
X86587440Y-129960000D01*
X86538157Y-129712235D01*
X86397809Y-129502191D01*
X86187765Y-129361843D01*
X85940000Y-129312560D01*
X84240000Y-129312560D01*
X83992235Y-129361843D01*
X83782191Y-129502191D01*
X83641843Y-129712235D01*
X83592560Y-129960000D01*
X83592560Y-131660000D01*
X83641843Y-131907765D01*
X83782191Y-132117809D01*
X83992235Y-132258157D01*
X84095708Y-132278739D01*
X83818355Y-132583076D01*
X83648524Y-132993110D01*
X83769845Y-133223000D01*
X84963000Y-133223000D01*
X84963000Y-133203000D01*
X85217000Y-133203000D01*
X85217000Y-133223000D01*
X85237000Y-133223000D01*
X85237000Y-133477000D01*
X85217000Y-133477000D01*
X85217000Y-133497000D01*
X84963000Y-133497000D01*
X84963000Y-133477000D01*
X83769845Y-133477000D01*
X83648524Y-133706890D01*
X83818355Y-134116924D01*
X84208642Y-134545183D01*
X84338478Y-134606157D01*
X84019375Y-134819375D01*
X83691161Y-135310582D01*
X83575908Y-135890000D01*
X83691161Y-136469418D01*
X84019375Y-136960625D01*
X84317761Y-137160000D01*
X84019375Y-137359375D01*
X83691161Y-137850582D01*
X83575908Y-138430000D01*
X83691161Y-139009418D01*
X84019375Y-139500625D01*
X84510582Y-139828839D01*
X84943744Y-139915000D01*
X85236256Y-139915000D01*
X85598000Y-139843045D01*
X85598000Y-144305039D01*
X84894101Y-144596603D01*
X84096603Y-145394101D01*
X83665000Y-146436083D01*
X83665000Y-147563917D01*
X84096603Y-148605899D01*
X84894101Y-149403397D01*
X85694662Y-149735000D01*
X84769802Y-149735000D01*
X83310000Y-148275199D01*
X83310000Y-147247290D01*
X83342655Y-147214635D01*
X83485000Y-146870983D01*
X83485000Y-146499017D01*
X83342655Y-146155365D01*
X83079635Y-145892345D01*
X82735983Y-145750000D01*
X82364017Y-145750000D01*
X82020365Y-145892345D01*
X81802166Y-146110544D01*
X81709223Y-145539856D01*
X81685000Y-144985054D01*
X81685000Y-125565000D01*
X84912560Y-125565000D01*
X84912560Y-127165000D01*
X84961843Y-127412765D01*
X85102191Y-127622809D01*
X85312235Y-127763157D01*
X85560000Y-127812440D01*
X87160000Y-127812440D01*
X87407765Y-127763157D01*
X87617809Y-127622809D01*
X87758157Y-127412765D01*
X87807440Y-127165000D01*
X87807440Y-126778691D01*
X107325000Y-126778691D01*
X107325000Y-127369250D01*
X107483750Y-127528000D01*
X108458000Y-127528000D01*
X108458000Y-126428750D01*
X108712000Y-126428750D01*
X108712000Y-127528000D01*
X109686250Y-127528000D01*
X109845000Y-127369250D01*
X109845000Y-126778691D01*
X109748327Y-126545302D01*
X109569699Y-126366673D01*
X109336310Y-126270000D01*
X108870750Y-126270000D01*
X108712000Y-126428750D01*
X108458000Y-126428750D01*
X108299250Y-126270000D01*
X107833690Y-126270000D01*
X107600301Y-126366673D01*
X107421673Y-126545302D01*
X107325000Y-126778691D01*
X87807440Y-126778691D01*
X87807440Y-125565000D01*
X87758157Y-125317235D01*
X87617809Y-125107191D01*
X87407765Y-124966843D01*
X87160000Y-124917560D01*
X85560000Y-124917560D01*
X85312235Y-124966843D01*
X85102191Y-125107191D01*
X84961843Y-125317235D01*
X84912560Y-125565000D01*
X81685000Y-125565000D01*
X81685000Y-123872745D01*
X85531861Y-123872745D01*
X85605995Y-124118864D01*
X86143223Y-124311965D01*
X86713454Y-124284778D01*
X87114005Y-124118864D01*
X87188139Y-123872745D01*
X86360000Y-123044605D01*
X85531861Y-123872745D01*
X81685000Y-123872745D01*
X81685000Y-122648223D01*
X84913035Y-122648223D01*
X84940222Y-123218454D01*
X85106136Y-123619005D01*
X85352255Y-123693139D01*
X86180395Y-122865000D01*
X86539605Y-122865000D01*
X87367745Y-123693139D01*
X87613864Y-123619005D01*
X87806965Y-123081777D01*
X87803258Y-123004017D01*
X100030000Y-123004017D01*
X100030000Y-123375983D01*
X100172345Y-123719635D01*
X100277710Y-123825000D01*
X100172345Y-123930365D01*
X100030000Y-124274017D01*
X100030000Y-124645983D01*
X100172345Y-124989635D01*
X100435365Y-125252655D01*
X100779017Y-125395000D01*
X101150983Y-125395000D01*
X101494635Y-125252655D01*
X101527290Y-125220000D01*
X103205000Y-125220000D01*
X103205000Y-125280983D01*
X103347345Y-125624635D01*
X103610365Y-125887655D01*
X103954017Y-126030000D01*
X104325983Y-126030000D01*
X104669635Y-125887655D01*
X104702290Y-125855000D01*
X106752710Y-125855000D01*
X106785365Y-125887655D01*
X107129017Y-126030000D01*
X107500983Y-126030000D01*
X107844635Y-125887655D01*
X107953599Y-125778691D01*
X110960000Y-125778691D01*
X110960000Y-126619250D01*
X111118750Y-126778000D01*
X112268000Y-126778000D01*
X112268000Y-125428750D01*
X112522000Y-125428750D01*
X112522000Y-126778000D01*
X113671250Y-126778000D01*
X113830000Y-126619250D01*
X113830000Y-125778691D01*
X113733327Y-125545302D01*
X113554699Y-125366673D01*
X113321310Y-125270000D01*
X112680750Y-125270000D01*
X112522000Y-125428750D01*
X112268000Y-125428750D01*
X112109250Y-125270000D01*
X111468690Y-125270000D01*
X111235301Y-125366673D01*
X111056673Y-125545302D01*
X110960000Y-125778691D01*
X107953599Y-125778691D01*
X108107655Y-125624635D01*
X108250000Y-125280983D01*
X108250000Y-125234802D01*
X108434473Y-125050329D01*
X108497929Y-125007929D01*
X108665904Y-124756537D01*
X108710000Y-124534852D01*
X108710000Y-124534848D01*
X108724888Y-124460000D01*
X108710000Y-124385152D01*
X108710000Y-121212290D01*
X108742655Y-121179635D01*
X108885000Y-120835983D01*
X108885000Y-120464017D01*
X108742655Y-120120365D01*
X108479635Y-119857345D01*
X108135983Y-119715000D01*
X107764017Y-119715000D01*
X107420365Y-119857345D01*
X107157345Y-120120365D01*
X107015000Y-120464017D01*
X107015000Y-120835983D01*
X107157345Y-121179635D01*
X107190000Y-121212290D01*
X107190001Y-122890000D01*
X107129017Y-122890000D01*
X106961512Y-122959383D01*
X106837655Y-122660365D01*
X106574635Y-122397345D01*
X106230983Y-122255000D01*
X105859017Y-122255000D01*
X105515365Y-122397345D01*
X105482710Y-122430000D01*
X101527290Y-122430000D01*
X101494635Y-122397345D01*
X101150983Y-122255000D01*
X100779017Y-122255000D01*
X100435365Y-122397345D01*
X100172345Y-122660365D01*
X100030000Y-123004017D01*
X87803258Y-123004017D01*
X87779778Y-122511546D01*
X87613864Y-122110995D01*
X87367745Y-122036861D01*
X86539605Y-122865000D01*
X86180395Y-122865000D01*
X85352255Y-122036861D01*
X85106136Y-122110995D01*
X84913035Y-122648223D01*
X81685000Y-122648223D01*
X81685000Y-121857255D01*
X85531861Y-121857255D01*
X86360000Y-122685395D01*
X87188139Y-121857255D01*
X87114005Y-121611136D01*
X86576777Y-121418035D01*
X86006546Y-121445222D01*
X85605995Y-121611136D01*
X85531861Y-121857255D01*
X81685000Y-121857255D01*
X81685000Y-106031400D01*
X81693691Y-106035000D01*
X82284250Y-106035000D01*
X82443000Y-105876250D01*
X82443000Y-104902000D01*
X82423000Y-104902000D01*
X82423000Y-104648000D01*
X82443000Y-104648000D01*
X82443000Y-103673750D01*
X82284250Y-103515000D01*
X81693691Y-103515000D01*
X81685000Y-103518600D01*
X81685000Y-101762619D01*
X82037945Y-102115564D01*
X82037945Y-102115564D01*
G37*
X82037945Y-102115564D02*
X82519425Y-102315000D01*
X82665001Y-102315000D01*
X82665000Y-103417767D01*
X82648643Y-103500000D01*
X82665000Y-103582233D01*
X82665000Y-103582236D01*
X82697000Y-103743111D01*
X82697000Y-104648000D01*
X82717000Y-104648000D01*
X82717000Y-104902000D01*
X82697000Y-104902000D01*
X82697000Y-105876250D01*
X82855750Y-106035000D01*
X83446309Y-106035000D01*
X83679698Y-105938327D01*
X83821346Y-105796680D01*
X83862191Y-105857809D01*
X84072235Y-105998157D01*
X84320000Y-106047440D01*
X85820000Y-106047440D01*
X86067765Y-105998157D01*
X86277809Y-105857809D01*
X86418157Y-105647765D01*
X86467440Y-105400000D01*
X86467440Y-105168427D01*
X87398428Y-104237440D01*
X87419534Y-104237440D01*
X87326673Y-104330302D01*
X87230000Y-104563691D01*
X87230000Y-104854250D01*
X87388750Y-105013000D01*
X88138000Y-105013000D01*
X88138000Y-104213750D01*
X88052469Y-104128219D01*
X88172809Y-104047809D01*
X88265000Y-103909836D01*
X88357191Y-104047809D01*
X88477531Y-104128219D01*
X88392000Y-104213750D01*
X88392000Y-105013000D01*
X89141250Y-105013000D01*
X89300000Y-104854250D01*
X89300000Y-104563691D01*
X89203327Y-104330302D01*
X89110466Y-104237440D01*
X89615000Y-104237440D01*
X89720573Y-104216440D01*
X90062560Y-104558428D01*
X90062560Y-105400000D01*
X90111843Y-105647765D01*
X90252191Y-105857809D01*
X90462235Y-105998157D01*
X90710000Y-106047440D01*
X90881106Y-106047440D01*
X90927717Y-106078585D01*
X91182345Y-106333213D01*
X91231507Y-106451901D01*
X90889803Y-106110197D01*
X90848601Y-106082667D01*
X90800000Y-106073000D01*
X89080026Y-106073000D01*
X89203327Y-105949698D01*
X89300000Y-105716309D01*
X89300000Y-105425750D01*
X89141250Y-105267000D01*
X88392000Y-105267000D01*
X88392000Y-105287000D01*
X88138000Y-105287000D01*
X88138000Y-105267000D01*
X87388750Y-105267000D01*
X87230000Y-105425750D01*
X87230000Y-105716309D01*
X87326673Y-105949698D01*
X87449974Y-106073000D01*
X83600000Y-106073000D01*
X83551399Y-106082667D01*
X83510197Y-106110197D01*
X82710197Y-106910197D01*
X82682667Y-106951399D01*
X82673000Y-107000000D01*
X82673000Y-119000000D01*
X82682667Y-119048601D01*
X82710197Y-119089803D01*
X83510197Y-119889803D01*
X83551399Y-119917333D01*
X83600000Y-119927000D01*
X90800000Y-119927000D01*
X90848601Y-119917333D01*
X90889803Y-119889803D01*
X96452606Y-114327000D01*
X97323198Y-114327000D01*
X94475199Y-117175000D01*
X94429017Y-117175000D01*
X94085365Y-117317345D01*
X93822345Y-117580365D01*
X93680000Y-117924017D01*
X93680000Y-118295983D01*
X93822345Y-118639635D01*
X94085365Y-118902655D01*
X94429017Y-119045000D01*
X94800983Y-119045000D01*
X95144635Y-118902655D01*
X95407655Y-118639635D01*
X95550000Y-118295983D01*
X95550000Y-118249801D01*
X98301256Y-115498546D01*
X98530365Y-115727655D01*
X98874017Y-115870000D01*
X99245983Y-115870000D01*
X99589635Y-115727655D01*
X99852655Y-115464635D01*
X99886047Y-115384017D01*
X105745000Y-115384017D01*
X105745000Y-115755983D01*
X105887345Y-116099635D01*
X106150365Y-116362655D01*
X106494017Y-116505000D01*
X106865983Y-116505000D01*
X107209635Y-116362655D01*
X107242290Y-116330000D01*
X114372710Y-116330000D01*
X114405365Y-116362655D01*
X114749017Y-116505000D01*
X115120983Y-116505000D01*
X115464635Y-116362655D01*
X115727655Y-116099635D01*
X115870000Y-115755983D01*
X115870000Y-115384017D01*
X115727655Y-115040365D01*
X115464635Y-114777345D01*
X115120983Y-114635000D01*
X114749017Y-114635000D01*
X114405365Y-114777345D01*
X114372710Y-114810000D01*
X107242290Y-114810000D01*
X107209635Y-114777345D01*
X106865983Y-114635000D01*
X106494017Y-114635000D01*
X106150365Y-114777345D01*
X105887345Y-115040365D01*
X105745000Y-115384017D01*
X99886047Y-115384017D01*
X99995000Y-115120983D01*
X99995000Y-115074801D01*
X100814473Y-114255329D01*
X100877929Y-114212929D01*
X101045904Y-113961537D01*
X101090000Y-113739852D01*
X101090000Y-113739848D01*
X101104888Y-113665001D01*
X101090000Y-113590154D01*
X101090000Y-112695000D01*
X101150983Y-112695000D01*
X101494635Y-112552655D01*
X101757655Y-112289635D01*
X101900000Y-111945983D01*
X101900000Y-111574017D01*
X103840000Y-111574017D01*
X103840000Y-111945983D01*
X103982345Y-112289635D01*
X104015001Y-112322291D01*
X104015000Y-113102710D01*
X103982345Y-113135365D01*
X103840000Y-113479017D01*
X103840000Y-113850983D01*
X103982345Y-114194635D01*
X104245365Y-114457655D01*
X104589017Y-114600000D01*
X104960983Y-114600000D01*
X105304635Y-114457655D01*
X105567655Y-114194635D01*
X105710000Y-113850983D01*
X105710000Y-113479017D01*
X105567655Y-113135365D01*
X105535000Y-113102710D01*
X105535000Y-112322290D01*
X105567655Y-112289635D01*
X105710000Y-111945983D01*
X105710000Y-111574017D01*
X105567655Y-111230365D01*
X105304635Y-110967345D01*
X104960983Y-110825000D01*
X104589017Y-110825000D01*
X104245365Y-110967345D01*
X103982345Y-111230365D01*
X103840000Y-111574017D01*
X101900000Y-111574017D01*
X101757655Y-111230365D01*
X101725000Y-111197710D01*
X101725000Y-109929846D01*
X101739888Y-109854999D01*
X101725000Y-109780152D01*
X101725000Y-109780148D01*
X101680904Y-109558463D01*
X101512929Y-109307071D01*
X101449473Y-109264671D01*
X101069802Y-108885000D01*
X101150983Y-108885000D01*
X101494635Y-108742655D01*
X101757655Y-108479635D01*
X101900000Y-108135983D01*
X101900000Y-108089801D01*
X106359802Y-103630000D01*
X113102710Y-103630000D01*
X113135365Y-103662655D01*
X113479017Y-103805000D01*
X113850983Y-103805000D01*
X114146927Y-103682416D01*
X114055908Y-104140000D01*
X114171161Y-104719418D01*
X114499375Y-105210625D01*
X114990582Y-105538839D01*
X115423744Y-105625000D01*
X115716256Y-105625000D01*
X115847939Y-105598807D01*
X116005001Y-105755869D01*
X116005000Y-125647767D01*
X115988643Y-125730000D01*
X116005000Y-125812233D01*
X116005000Y-125812236D01*
X116053448Y-126055800D01*
X116059595Y-126065000D01*
X116019017Y-126065000D01*
X115675365Y-126207345D01*
X115412345Y-126470365D01*
X115270000Y-126814017D01*
X115270000Y-127185983D01*
X115412345Y-127529635D01*
X115675365Y-127792655D01*
X115916788Y-127892656D01*
X116167132Y-128143000D01*
X113783736Y-128143000D01*
X113830000Y-128031309D01*
X113830000Y-127190750D01*
X113671250Y-127032000D01*
X112522000Y-127032000D01*
X112522000Y-127052000D01*
X112268000Y-127052000D01*
X112268000Y-127032000D01*
X111118750Y-127032000D01*
X110960000Y-127190750D01*
X110960000Y-128031309D01*
X111006264Y-128143000D01*
X109845000Y-128143000D01*
X109845000Y-127940750D01*
X109686250Y-127782000D01*
X108712000Y-127782000D01*
X108712000Y-127802000D01*
X108458000Y-127802000D01*
X108458000Y-127782000D01*
X107483750Y-127782000D01*
X107325000Y-127940750D01*
X107325000Y-128143000D01*
X93980000Y-128143000D01*
X93931399Y-128152667D01*
X93890197Y-128180197D01*
X93862667Y-128221399D01*
X93853000Y-128270000D01*
X93853000Y-132588000D01*
X93615000Y-132588000D01*
X93615000Y-132365750D01*
X93456250Y-132207000D01*
X92107000Y-132207000D01*
X92107000Y-132227000D01*
X91853000Y-132227000D01*
X91853000Y-132207000D01*
X90503750Y-132207000D01*
X90345000Y-132365750D01*
X90345000Y-133006310D01*
X90434756Y-133223000D01*
X89525000Y-133223000D01*
X89525000Y-133020750D01*
X89366250Y-132862000D01*
X88392000Y-132862000D01*
X88392000Y-132882000D01*
X88138000Y-132882000D01*
X88138000Y-132862000D01*
X87163750Y-132862000D01*
X87005000Y-133020750D01*
X87005000Y-133223000D01*
X86575000Y-133223000D01*
X86575000Y-133222998D01*
X86410156Y-133222998D01*
X86531476Y-132993110D01*
X86361645Y-132583076D01*
X86084292Y-132278739D01*
X86187765Y-132258157D01*
X86397809Y-132117809D01*
X86538157Y-131907765D01*
X86547918Y-131858691D01*
X87005000Y-131858691D01*
X87005000Y-132449250D01*
X87163750Y-132608000D01*
X88138000Y-132608000D01*
X88138000Y-131508750D01*
X88392000Y-131508750D01*
X88392000Y-132608000D01*
X89366250Y-132608000D01*
X89525000Y-132449250D01*
X89525000Y-131858691D01*
X89428327Y-131625302D01*
X89249699Y-131446673D01*
X89016310Y-131350000D01*
X88550750Y-131350000D01*
X88392000Y-131508750D01*
X88138000Y-131508750D01*
X87979250Y-131350000D01*
X87513690Y-131350000D01*
X87280301Y-131446673D01*
X87101673Y-131625302D01*
X87005000Y-131858691D01*
X86547918Y-131858691D01*
X86587440Y-131660000D01*
X86587440Y-131153690D01*
X90345000Y-131153690D01*
X90345000Y-131794250D01*
X90503750Y-131953000D01*
X91853000Y-131953000D01*
X91853000Y-130803750D01*
X92107000Y-130803750D01*
X92107000Y-131953000D01*
X93456250Y-131953000D01*
X93615000Y-131794250D01*
X93615000Y-131153690D01*
X93518327Y-130920301D01*
X93339698Y-130741673D01*
X93106309Y-130645000D01*
X92265750Y-130645000D01*
X92107000Y-130803750D01*
X91853000Y-130803750D01*
X91694250Y-130645000D01*
X90853691Y-130645000D01*
X90620302Y-130741673D01*
X90441673Y-130920301D01*
X90345000Y-131153690D01*
X86587440Y-131153690D01*
X86587440Y-129960000D01*
X86538157Y-129712235D01*
X86397809Y-129502191D01*
X86187765Y-129361843D01*
X85940000Y-129312560D01*
X84240000Y-129312560D01*
X83992235Y-129361843D01*
X83782191Y-129502191D01*
X83641843Y-129712235D01*
X83592560Y-129960000D01*
X83592560Y-131660000D01*
X83641843Y-131907765D01*
X83782191Y-132117809D01*
X83992235Y-132258157D01*
X84095708Y-132278739D01*
X83818355Y-132583076D01*
X83648524Y-132993110D01*
X83769845Y-133223000D01*
X84963000Y-133223000D01*
X84963000Y-133203000D01*
X85217000Y-133203000D01*
X85217000Y-133223000D01*
X85237000Y-133223000D01*
X85237000Y-133477000D01*
X85217000Y-133477000D01*
X85217000Y-133497000D01*
X84963000Y-133497000D01*
X84963000Y-133477000D01*
X83769845Y-133477000D01*
X83648524Y-133706890D01*
X83818355Y-134116924D01*
X84208642Y-134545183D01*
X84338478Y-134606157D01*
X84019375Y-134819375D01*
X83691161Y-135310582D01*
X83575908Y-135890000D01*
X83691161Y-136469418D01*
X84019375Y-136960625D01*
X84317761Y-137160000D01*
X84019375Y-137359375D01*
X83691161Y-137850582D01*
X83575908Y-138430000D01*
X83691161Y-139009418D01*
X84019375Y-139500625D01*
X84510582Y-139828839D01*
X84943744Y-139915000D01*
X85236256Y-139915000D01*
X85598000Y-139843045D01*
X85598000Y-144305039D01*
X84894101Y-144596603D01*
X84096603Y-145394101D01*
X83665000Y-146436083D01*
X83665000Y-147563917D01*
X84096603Y-148605899D01*
X84894101Y-149403397D01*
X85694662Y-149735000D01*
X84769802Y-149735000D01*
X83310000Y-148275199D01*
X83310000Y-147247290D01*
X83342655Y-147214635D01*
X83485000Y-146870983D01*
X83485000Y-146499017D01*
X83342655Y-146155365D01*
X83079635Y-145892345D01*
X82735983Y-145750000D01*
X82364017Y-145750000D01*
X82020365Y-145892345D01*
X81802166Y-146110544D01*
X81709223Y-145539856D01*
X81685000Y-144985054D01*
X81685000Y-125565000D01*
X84912560Y-125565000D01*
X84912560Y-127165000D01*
X84961843Y-127412765D01*
X85102191Y-127622809D01*
X85312235Y-127763157D01*
X85560000Y-127812440D01*
X87160000Y-127812440D01*
X87407765Y-127763157D01*
X87617809Y-127622809D01*
X87758157Y-127412765D01*
X87807440Y-127165000D01*
X87807440Y-126778691D01*
X107325000Y-126778691D01*
X107325000Y-127369250D01*
X107483750Y-127528000D01*
X108458000Y-127528000D01*
X108458000Y-126428750D01*
X108712000Y-126428750D01*
X108712000Y-127528000D01*
X109686250Y-127528000D01*
X109845000Y-127369250D01*
X109845000Y-126778691D01*
X109748327Y-126545302D01*
X109569699Y-126366673D01*
X109336310Y-126270000D01*
X108870750Y-126270000D01*
X108712000Y-126428750D01*
X108458000Y-126428750D01*
X108299250Y-126270000D01*
X107833690Y-126270000D01*
X107600301Y-126366673D01*
X107421673Y-126545302D01*
X107325000Y-126778691D01*
X87807440Y-126778691D01*
X87807440Y-125565000D01*
X87758157Y-125317235D01*
X87617809Y-125107191D01*
X87407765Y-124966843D01*
X87160000Y-124917560D01*
X85560000Y-124917560D01*
X85312235Y-124966843D01*
X85102191Y-125107191D01*
X84961843Y-125317235D01*
X84912560Y-125565000D01*
X81685000Y-125565000D01*
X81685000Y-123872745D01*
X85531861Y-123872745D01*
X85605995Y-124118864D01*
X86143223Y-124311965D01*
X86713454Y-124284778D01*
X87114005Y-124118864D01*
X87188139Y-123872745D01*
X86360000Y-123044605D01*
X85531861Y-123872745D01*
X81685000Y-123872745D01*
X81685000Y-122648223D01*
X84913035Y-122648223D01*
X84940222Y-123218454D01*
X85106136Y-123619005D01*
X85352255Y-123693139D01*
X86180395Y-122865000D01*
X86539605Y-122865000D01*
X87367745Y-123693139D01*
X87613864Y-123619005D01*
X87806965Y-123081777D01*
X87803258Y-123004017D01*
X100030000Y-123004017D01*
X100030000Y-123375983D01*
X100172345Y-123719635D01*
X100277710Y-123825000D01*
X100172345Y-123930365D01*
X100030000Y-124274017D01*
X100030000Y-124645983D01*
X100172345Y-124989635D01*
X100435365Y-125252655D01*
X100779017Y-125395000D01*
X101150983Y-125395000D01*
X101494635Y-125252655D01*
X101527290Y-125220000D01*
X103205000Y-125220000D01*
X103205000Y-125280983D01*
X103347345Y-125624635D01*
X103610365Y-125887655D01*
X103954017Y-126030000D01*
X104325983Y-126030000D01*
X104669635Y-125887655D01*
X104702290Y-125855000D01*
X106752710Y-125855000D01*
X106785365Y-125887655D01*
X107129017Y-126030000D01*
X107500983Y-126030000D01*
X107844635Y-125887655D01*
X107953599Y-125778691D01*
X110960000Y-125778691D01*
X110960000Y-126619250D01*
X111118750Y-126778000D01*
X112268000Y-126778000D01*
X112268000Y-125428750D01*
X112522000Y-125428750D01*
X112522000Y-126778000D01*
X113671250Y-126778000D01*
X113830000Y-126619250D01*
X113830000Y-125778691D01*
X113733327Y-125545302D01*
X113554699Y-125366673D01*
X113321310Y-125270000D01*
X112680750Y-125270000D01*
X112522000Y-125428750D01*
X112268000Y-125428750D01*
X112109250Y-125270000D01*
X111468690Y-125270000D01*
X111235301Y-125366673D01*
X111056673Y-125545302D01*
X110960000Y-125778691D01*
X107953599Y-125778691D01*
X108107655Y-125624635D01*
X108250000Y-125280983D01*
X108250000Y-125234802D01*
X108434473Y-125050329D01*
X108497929Y-125007929D01*
X108665904Y-124756537D01*
X108710000Y-124534852D01*
X108710000Y-124534848D01*
X108724888Y-124460000D01*
X108710000Y-124385152D01*
X108710000Y-121212290D01*
X108742655Y-121179635D01*
X108885000Y-120835983D01*
X108885000Y-120464017D01*
X108742655Y-120120365D01*
X108479635Y-119857345D01*
X108135983Y-119715000D01*
X107764017Y-119715000D01*
X107420365Y-119857345D01*
X107157345Y-120120365D01*
X107015000Y-120464017D01*
X107015000Y-120835983D01*
X107157345Y-121179635D01*
X107190000Y-121212290D01*
X107190001Y-122890000D01*
X107129017Y-122890000D01*
X106961512Y-122959383D01*
X106837655Y-122660365D01*
X106574635Y-122397345D01*
X106230983Y-122255000D01*
X105859017Y-122255000D01*
X105515365Y-122397345D01*
X105482710Y-122430000D01*
X101527290Y-122430000D01*
X101494635Y-122397345D01*
X101150983Y-122255000D01*
X100779017Y-122255000D01*
X100435365Y-122397345D01*
X100172345Y-122660365D01*
X100030000Y-123004017D01*
X87803258Y-123004017D01*
X87779778Y-122511546D01*
X87613864Y-122110995D01*
X87367745Y-122036861D01*
X86539605Y-122865000D01*
X86180395Y-122865000D01*
X85352255Y-122036861D01*
X85106136Y-122110995D01*
X84913035Y-122648223D01*
X81685000Y-122648223D01*
X81685000Y-121857255D01*
X85531861Y-121857255D01*
X86360000Y-122685395D01*
X87188139Y-121857255D01*
X87114005Y-121611136D01*
X86576777Y-121418035D01*
X86006546Y-121445222D01*
X85605995Y-121611136D01*
X85531861Y-121857255D01*
X81685000Y-121857255D01*
X81685000Y-106031400D01*
X81693691Y-106035000D01*
X82284250Y-106035000D01*
X82443000Y-105876250D01*
X82443000Y-104902000D01*
X82423000Y-104902000D01*
X82423000Y-104648000D01*
X82443000Y-104648000D01*
X82443000Y-103673750D01*
X82284250Y-103515000D01*
X81693691Y-103515000D01*
X81685000Y-103518600D01*
X81685000Y-101762619D01*
X82037945Y-102115564D01*
G36*
X105512716Y-141618584D02*
X105512719Y-141618586D01*
X105845000Y-141950868D01*
X105845000Y-142069358D01*
X105782235Y-142081843D01*
X105572191Y-142222191D01*
X105431843Y-142432235D01*
X105382560Y-142680000D01*
X105382560Y-143976691D01*
X104552440Y-143146572D01*
X104552440Y-142330000D01*
X104503157Y-142082235D01*
X104362809Y-141872191D01*
X104152765Y-141731843D01*
X103905000Y-141682560D01*
X103105000Y-141682560D01*
X102857235Y-141731843D01*
X102647191Y-141872191D01*
X102506843Y-142082235D01*
X102457560Y-142330000D01*
X102457560Y-144230000D01*
X102506843Y-144477765D01*
X102647191Y-144687809D01*
X102767531Y-144768219D01*
X102682000Y-144853750D01*
X102682000Y-146153000D01*
X102702000Y-146153000D01*
X102702000Y-146407000D01*
X102682000Y-146407000D01*
X102682000Y-146427000D01*
X102428000Y-146427000D01*
X102428000Y-146407000D01*
X101678750Y-146407000D01*
X101520000Y-146565750D01*
X101520000Y-147120000D01*
X101047232Y-147120000D01*
X100964999Y-147103643D01*
X100882766Y-147120000D01*
X100882763Y-147120000D01*
X100639199Y-147168448D01*
X100362999Y-147352999D01*
X100316416Y-147422716D01*
X99972939Y-147766193D01*
X99841256Y-147740000D01*
X99548744Y-147740000D01*
X99115582Y-147826161D01*
X98624375Y-148154375D01*
X98425000Y-148452761D01*
X98225625Y-148154375D01*
X97734418Y-147826161D01*
X97301256Y-147740000D01*
X97008744Y-147740000D01*
X96575582Y-147826161D01*
X96084375Y-148154375D01*
X95885000Y-148452761D01*
X95685625Y-148154375D01*
X95194418Y-147826161D01*
X94761256Y-147740000D01*
X94468744Y-147740000D01*
X94035582Y-147826161D01*
X93544375Y-148154375D01*
X93532184Y-148172619D01*
X93523157Y-148127235D01*
X93382809Y-147917191D01*
X93172765Y-147776843D01*
X92925000Y-147727560D01*
X91225000Y-147727560D01*
X90977235Y-147776843D01*
X90767191Y-147917191D01*
X90626843Y-148127235D01*
X90577560Y-148375000D01*
X90577560Y-149735000D01*
X87305338Y-149735000D01*
X88105899Y-149403397D01*
X88903397Y-148605899D01*
X89335000Y-147563917D01*
X89335000Y-146861575D01*
X89452763Y-146885000D01*
X89452766Y-146885000D01*
X89534999Y-146901357D01*
X89617232Y-146885000D01*
X98977767Y-146885000D01*
X99060000Y-146901357D01*
X99142233Y-146885000D01*
X99142237Y-146885000D01*
X99385801Y-146836552D01*
X99662001Y-146652001D01*
X99708587Y-146582280D01*
X100227283Y-146063585D01*
X100297001Y-146017001D01*
X100481552Y-145740801D01*
X100530000Y-145497237D01*
X100530000Y-145497236D01*
X100546358Y-145415000D01*
X100530000Y-145332763D01*
X100530000Y-145203691D01*
X101520000Y-145203691D01*
X101520000Y-145994250D01*
X101678750Y-146153000D01*
X102428000Y-146153000D01*
X102428000Y-144853750D01*
X102269250Y-144695000D01*
X102028690Y-144695000D01*
X101795301Y-144791673D01*
X101616673Y-144970302D01*
X101520000Y-145203691D01*
X100530000Y-145203691D01*
X100530000Y-141315867D01*
X100675868Y-141170000D01*
X105064133Y-141170000D01*
X105512716Y-141618584D01*
X105512716Y-141618584D01*
G37*
X105512716Y-141618584D02*
X105512719Y-141618586D01*
X105845000Y-141950868D01*
X105845000Y-142069358D01*
X105782235Y-142081843D01*
X105572191Y-142222191D01*
X105431843Y-142432235D01*
X105382560Y-142680000D01*
X105382560Y-143976691D01*
X104552440Y-143146572D01*
X104552440Y-142330000D01*
X104503157Y-142082235D01*
X104362809Y-141872191D01*
X104152765Y-141731843D01*
X103905000Y-141682560D01*
X103105000Y-141682560D01*
X102857235Y-141731843D01*
X102647191Y-141872191D01*
X102506843Y-142082235D01*
X102457560Y-142330000D01*
X102457560Y-144230000D01*
X102506843Y-144477765D01*
X102647191Y-144687809D01*
X102767531Y-144768219D01*
X102682000Y-144853750D01*
X102682000Y-146153000D01*
X102702000Y-146153000D01*
X102702000Y-146407000D01*
X102682000Y-146407000D01*
X102682000Y-146427000D01*
X102428000Y-146427000D01*
X102428000Y-146407000D01*
X101678750Y-146407000D01*
X101520000Y-146565750D01*
X101520000Y-147120000D01*
X101047232Y-147120000D01*
X100964999Y-147103643D01*
X100882766Y-147120000D01*
X100882763Y-147120000D01*
X100639199Y-147168448D01*
X100362999Y-147352999D01*
X100316416Y-147422716D01*
X99972939Y-147766193D01*
X99841256Y-147740000D01*
X99548744Y-147740000D01*
X99115582Y-147826161D01*
X98624375Y-148154375D01*
X98425000Y-148452761D01*
X98225625Y-148154375D01*
X97734418Y-147826161D01*
X97301256Y-147740000D01*
X97008744Y-147740000D01*
X96575582Y-147826161D01*
X96084375Y-148154375D01*
X95885000Y-148452761D01*
X95685625Y-148154375D01*
X95194418Y-147826161D01*
X94761256Y-147740000D01*
X94468744Y-147740000D01*
X94035582Y-147826161D01*
X93544375Y-148154375D01*
X93532184Y-148172619D01*
X93523157Y-148127235D01*
X93382809Y-147917191D01*
X93172765Y-147776843D01*
X92925000Y-147727560D01*
X91225000Y-147727560D01*
X90977235Y-147776843D01*
X90767191Y-147917191D01*
X90626843Y-148127235D01*
X90577560Y-148375000D01*
X90577560Y-149735000D01*
X87305338Y-149735000D01*
X88105899Y-149403397D01*
X88903397Y-148605899D01*
X89335000Y-147563917D01*
X89335000Y-146861575D01*
X89452763Y-146885000D01*
X89452766Y-146885000D01*
X89534999Y-146901357D01*
X89617232Y-146885000D01*
X98977767Y-146885000D01*
X99060000Y-146901357D01*
X99142233Y-146885000D01*
X99142237Y-146885000D01*
X99385801Y-146836552D01*
X99662001Y-146652001D01*
X99708587Y-146582280D01*
X100227283Y-146063585D01*
X100297001Y-146017001D01*
X100481552Y-145740801D01*
X100530000Y-145497237D01*
X100530000Y-145497236D01*
X100546358Y-145415000D01*
X100530000Y-145332763D01*
X100530000Y-145203691D01*
X101520000Y-145203691D01*
X101520000Y-145994250D01*
X101678750Y-146153000D01*
X102428000Y-146153000D01*
X102428000Y-144853750D01*
X102269250Y-144695000D01*
X102028690Y-144695000D01*
X101795301Y-144791673D01*
X101616673Y-144970302D01*
X101520000Y-145203691D01*
X100530000Y-145203691D01*
X100530000Y-141315867D01*
X100675868Y-141170000D01*
X105064133Y-141170000D01*
X105512716Y-141618584D01*
G36*
X123063000Y-74710951D02*
X123063000Y-77779417D01*
X122903397Y-77394101D01*
X122105899Y-76596603D01*
X121063917Y-76165000D01*
X119936083Y-76165000D01*
X118894101Y-76596603D01*
X118096603Y-77394101D01*
X117665000Y-78436083D01*
X117665000Y-79563917D01*
X118096603Y-80605899D01*
X118894101Y-81403397D01*
X119936083Y-81835000D01*
X121063917Y-81835000D01*
X122105899Y-81403397D01*
X122903397Y-80605899D01*
X123063000Y-80220583D01*
X123063000Y-145779417D01*
X122903397Y-145394101D01*
X122105899Y-144596603D01*
X121063917Y-144165000D01*
X119936083Y-144165000D01*
X118894101Y-144596603D01*
X118096603Y-145394101D01*
X117899907Y-145868967D01*
X117947440Y-145630000D01*
X117947440Y-143930000D01*
X117898157Y-143682235D01*
X117757809Y-143472191D01*
X117547765Y-143331843D01*
X117300000Y-143282560D01*
X117135000Y-143282560D01*
X117135000Y-143002000D01*
X118745000Y-143002000D01*
X118793601Y-142992333D01*
X118834803Y-142964803D01*
X118862333Y-142923601D01*
X118872000Y-142875000D01*
X118872000Y-141796096D01*
X119070801Y-141756552D01*
X119347001Y-141572001D01*
X119393587Y-141502280D01*
X119912282Y-140983586D01*
X119982001Y-140937001D01*
X120166552Y-140660801D01*
X120215000Y-140417237D01*
X120231358Y-140335000D01*
X120215000Y-140252763D01*
X120215000Y-139857565D01*
X120503744Y-139915000D01*
X120796256Y-139915000D01*
X121229418Y-139828839D01*
X121720625Y-139500625D01*
X122048839Y-139009418D01*
X122164092Y-138430000D01*
X122048839Y-137850582D01*
X121720625Y-137359375D01*
X121422239Y-137160000D01*
X121720625Y-136960625D01*
X122048839Y-136469418D01*
X122164092Y-135890000D01*
X122048839Y-135310582D01*
X121720625Y-134819375D01*
X121401522Y-134606157D01*
X121531358Y-134545183D01*
X121921645Y-134116924D01*
X122091476Y-133706890D01*
X121970155Y-133477000D01*
X120777000Y-133477000D01*
X120777000Y-133497000D01*
X120523000Y-133497000D01*
X120523000Y-133477000D01*
X120503000Y-133477000D01*
X120503000Y-133223000D01*
X120523000Y-133223000D01*
X120523000Y-133203000D01*
X120777000Y-133203000D01*
X120777000Y-133223000D01*
X121970155Y-133223000D01*
X122091476Y-132993110D01*
X121921645Y-132583076D01*
X121644292Y-132278739D01*
X121747765Y-132258157D01*
X121957809Y-132117809D01*
X122098157Y-131907765D01*
X122147440Y-131660000D01*
X122147440Y-129960000D01*
X122098157Y-129712235D01*
X121957809Y-129502191D01*
X121747765Y-129361843D01*
X121500000Y-129312560D01*
X121456117Y-129312560D01*
X121436552Y-129214199D01*
X121320156Y-129040000D01*
X121298584Y-129007715D01*
X121298583Y-129007714D01*
X121252001Y-128937999D01*
X121182285Y-128891416D01*
X120775868Y-128485000D01*
X120777002Y-128485000D01*
X120777002Y-128326252D01*
X120935750Y-128485000D01*
X121626309Y-128485000D01*
X121859698Y-128388327D01*
X122038327Y-128209699D01*
X122135000Y-127976310D01*
X122135000Y-127285750D01*
X121976250Y-127127000D01*
X120777000Y-127127000D01*
X120777000Y-127147000D01*
X120523000Y-127147000D01*
X120523000Y-127127000D01*
X120503000Y-127127000D01*
X120503000Y-126873000D01*
X120523000Y-126873000D01*
X120523000Y-124587000D01*
X120777000Y-124587000D01*
X120777000Y-126873000D01*
X121976250Y-126873000D01*
X122135000Y-126714250D01*
X122135000Y-126023690D01*
X122038327Y-125790301D01*
X121859698Y-125611673D01*
X121650122Y-125524864D01*
X121921645Y-125226924D01*
X122091476Y-124816890D01*
X121970155Y-124587000D01*
X120777000Y-124587000D01*
X120523000Y-124587000D01*
X120503000Y-124587000D01*
X120503000Y-124333000D01*
X120523000Y-124333000D01*
X120523000Y-122047000D01*
X120777000Y-122047000D01*
X120777000Y-124333000D01*
X121970155Y-124333000D01*
X122091476Y-124103110D01*
X121921645Y-123693076D01*
X121531358Y-123264817D01*
X121372046Y-123190000D01*
X121531358Y-123115183D01*
X121921645Y-122686924D01*
X122091476Y-122276890D01*
X121970155Y-122047000D01*
X120777000Y-122047000D01*
X120523000Y-122047000D01*
X120503000Y-122047000D01*
X120503000Y-121793000D01*
X120523000Y-121793000D01*
X120523000Y-119507000D01*
X120777000Y-119507000D01*
X120777000Y-121793000D01*
X121970155Y-121793000D01*
X122091476Y-121563110D01*
X121921645Y-121153076D01*
X121531358Y-120724817D01*
X121372046Y-120650000D01*
X121531358Y-120575183D01*
X121921645Y-120146924D01*
X122091476Y-119736890D01*
X121970155Y-119507000D01*
X120777000Y-119507000D01*
X120523000Y-119507000D01*
X120503000Y-119507000D01*
X120503000Y-119253000D01*
X120523000Y-119253000D01*
X120523000Y-116967000D01*
X120777000Y-116967000D01*
X120777000Y-119253000D01*
X121970155Y-119253000D01*
X122091476Y-119023110D01*
X121921645Y-118613076D01*
X121531358Y-118184817D01*
X121372046Y-118110000D01*
X121531358Y-118035183D01*
X121921645Y-117606924D01*
X122091476Y-117196890D01*
X121970155Y-116967000D01*
X120777000Y-116967000D01*
X120523000Y-116967000D01*
X120503000Y-116967000D01*
X120503000Y-116713000D01*
X120523000Y-116713000D01*
X120523000Y-114427000D01*
X120777000Y-114427000D01*
X120777000Y-116713000D01*
X121970155Y-116713000D01*
X122091476Y-116483110D01*
X121921645Y-116073076D01*
X121531358Y-115644817D01*
X121372046Y-115570000D01*
X121531358Y-115495183D01*
X121921645Y-115066924D01*
X122091476Y-114656890D01*
X121970155Y-114427000D01*
X120777000Y-114427000D01*
X120523000Y-114427000D01*
X120503000Y-114427000D01*
X120503000Y-114173000D01*
X120523000Y-114173000D01*
X120523000Y-111887000D01*
X120777000Y-111887000D01*
X120777000Y-114173000D01*
X121970155Y-114173000D01*
X122091476Y-113943110D01*
X121921645Y-113533076D01*
X121531358Y-113104817D01*
X121372046Y-113030000D01*
X121531358Y-112955183D01*
X121921645Y-112526924D01*
X122091476Y-112116890D01*
X121970155Y-111887000D01*
X120777000Y-111887000D01*
X120523000Y-111887000D01*
X120503000Y-111887000D01*
X120503000Y-111633000D01*
X120523000Y-111633000D01*
X120523000Y-109347000D01*
X120777000Y-109347000D01*
X120777000Y-111633000D01*
X121970155Y-111633000D01*
X122091476Y-111403110D01*
X121921645Y-110993076D01*
X121531358Y-110564817D01*
X121372046Y-110490000D01*
X121531358Y-110415183D01*
X121921645Y-109986924D01*
X122091476Y-109576890D01*
X121970155Y-109347000D01*
X120777000Y-109347000D01*
X120523000Y-109347000D01*
X120503000Y-109347000D01*
X120503000Y-109093000D01*
X120523000Y-109093000D01*
X120523000Y-106807000D01*
X120777000Y-106807000D01*
X120777000Y-109093000D01*
X121970155Y-109093000D01*
X122091476Y-108863110D01*
X121921645Y-108453076D01*
X121531358Y-108024817D01*
X121372046Y-107950000D01*
X121531358Y-107875183D01*
X121921645Y-107446924D01*
X122091476Y-107036890D01*
X121970155Y-106807000D01*
X120777000Y-106807000D01*
X120523000Y-106807000D01*
X120503000Y-106807000D01*
X120503000Y-106553000D01*
X120523000Y-106553000D01*
X120523000Y-105359181D01*
X120777000Y-105359181D01*
X120777000Y-106553000D01*
X121970155Y-106553000D01*
X122091476Y-106323110D01*
X121921645Y-105913076D01*
X121531358Y-105484817D01*
X121006892Y-105238514D01*
X120777000Y-105359181D01*
X120523000Y-105359181D01*
X120293108Y-105238514D01*
X119768642Y-105484817D01*
X119381353Y-105909786D01*
X119180625Y-105609375D01*
X119158967Y-105594904D01*
X119319698Y-105528327D01*
X119498327Y-105349699D01*
X119595000Y-105116310D01*
X119595000Y-104425750D01*
X119436250Y-104267000D01*
X118237000Y-104267000D01*
X118237000Y-104287000D01*
X117983000Y-104287000D01*
X117983000Y-104267000D01*
X117963000Y-104267000D01*
X117963000Y-104013000D01*
X117983000Y-104013000D01*
X117983000Y-101727000D01*
X117963000Y-101727000D01*
X117963000Y-101473000D01*
X117983000Y-101473000D01*
X117983000Y-99187000D01*
X117963000Y-99187000D01*
X117963000Y-98933000D01*
X117983000Y-98933000D01*
X117983000Y-96647000D01*
X118237000Y-96647000D01*
X118237000Y-98933000D01*
X118257000Y-98933000D01*
X118257000Y-99187000D01*
X118237000Y-99187000D01*
X118237000Y-101473000D01*
X118257000Y-101473000D01*
X118257000Y-101727000D01*
X118237000Y-101727000D01*
X118237000Y-104013000D01*
X119436250Y-104013000D01*
X119595000Y-103854250D01*
X119595000Y-103163690D01*
X119498327Y-102930301D01*
X119319698Y-102751673D01*
X119110122Y-102664864D01*
X119366982Y-102383013D01*
X119391078Y-102441185D01*
X119808815Y-102858922D01*
X120354615Y-103085000D01*
X120945385Y-103085000D01*
X121491185Y-102858922D01*
X121908922Y-102441185D01*
X122135000Y-101895385D01*
X122135000Y-101304615D01*
X121908922Y-100758815D01*
X121491185Y-100341078D01*
X121438389Y-100319209D01*
X121720625Y-100130625D01*
X122048839Y-99639418D01*
X122164092Y-99060000D01*
X122048839Y-98480582D01*
X121720625Y-97989375D01*
X121229418Y-97661161D01*
X120796256Y-97575000D01*
X120503744Y-97575000D01*
X120070582Y-97661161D01*
X119579375Y-97989375D01*
X119378647Y-98289786D01*
X118991358Y-97864817D01*
X118832046Y-97790000D01*
X118991358Y-97715183D01*
X119381645Y-97286924D01*
X119551476Y-96876890D01*
X119430155Y-96647000D01*
X118237000Y-96647000D01*
X117983000Y-96647000D01*
X117963000Y-96647000D01*
X117963000Y-96393000D01*
X117983000Y-96393000D01*
X117983000Y-94107000D01*
X118237000Y-94107000D01*
X118237000Y-96393000D01*
X119430155Y-96393000D01*
X119551476Y-96163110D01*
X119381645Y-95753076D01*
X118991358Y-95324817D01*
X118832046Y-95250000D01*
X118991358Y-95175183D01*
X119381645Y-94746924D01*
X119551476Y-94336890D01*
X119430155Y-94107000D01*
X118237000Y-94107000D01*
X117983000Y-94107000D01*
X117963000Y-94107000D01*
X117963000Y-93853000D01*
X117983000Y-93853000D01*
X117983000Y-91567000D01*
X118237000Y-91567000D01*
X118237000Y-93853000D01*
X119430155Y-93853000D01*
X119551476Y-93623110D01*
X119381645Y-93213076D01*
X118991358Y-92784817D01*
X118832046Y-92710000D01*
X118991358Y-92635183D01*
X119381645Y-92206924D01*
X119551476Y-91796890D01*
X119430155Y-91567000D01*
X118237000Y-91567000D01*
X117983000Y-91567000D01*
X117963000Y-91567000D01*
X117963000Y-91313000D01*
X117983000Y-91313000D01*
X117983000Y-89027000D01*
X118237000Y-89027000D01*
X118237000Y-91313000D01*
X119430155Y-91313000D01*
X119551476Y-91083110D01*
X119381645Y-90673076D01*
X118991358Y-90244817D01*
X118832046Y-90170000D01*
X118991358Y-90095183D01*
X119381645Y-89666924D01*
X119551476Y-89256890D01*
X119430155Y-89027000D01*
X118237000Y-89027000D01*
X117983000Y-89027000D01*
X117963000Y-89027000D01*
X117963000Y-88773000D01*
X117983000Y-88773000D01*
X117983000Y-86487000D01*
X118237000Y-86487000D01*
X118237000Y-88773000D01*
X119430155Y-88773000D01*
X119551476Y-88543110D01*
X119381645Y-88133076D01*
X118991358Y-87704817D01*
X118832046Y-87630000D01*
X118991358Y-87555183D01*
X119381645Y-87126924D01*
X119551476Y-86716890D01*
X119430155Y-86487000D01*
X118237000Y-86487000D01*
X117983000Y-86487000D01*
X117963000Y-86487000D01*
X117963000Y-86233000D01*
X117983000Y-86233000D01*
X117983000Y-83947000D01*
X118237000Y-83947000D01*
X118237000Y-86233000D01*
X119430155Y-86233000D01*
X119551476Y-86003110D01*
X119381645Y-85593076D01*
X118991358Y-85164817D01*
X118832046Y-85090000D01*
X118991358Y-85015183D01*
X119381645Y-84586924D01*
X119551476Y-84176890D01*
X119430155Y-83947000D01*
X118237000Y-83947000D01*
X117983000Y-83947000D01*
X117963000Y-83947000D01*
X117963000Y-83693000D01*
X117983000Y-83693000D01*
X117983000Y-82499181D01*
X118237000Y-82499181D01*
X118237000Y-83693000D01*
X119430155Y-83693000D01*
X119551476Y-83463110D01*
X119381645Y-83053076D01*
X118991358Y-82624817D01*
X118466892Y-82378514D01*
X118237000Y-82499181D01*
X117983000Y-82499181D01*
X117753108Y-82378514D01*
X117228642Y-82624817D01*
X116841353Y-83049786D01*
X116640625Y-82749375D01*
X116149418Y-82421161D01*
X115716256Y-82335000D01*
X115423744Y-82335000D01*
X114990582Y-82421161D01*
X114499375Y-82749375D01*
X114171161Y-83240582D01*
X114055908Y-83820000D01*
X114171161Y-84399418D01*
X114499375Y-84890625D01*
X114797761Y-85090000D01*
X114499375Y-85289375D01*
X114171161Y-85780582D01*
X114055908Y-86360000D01*
X114171161Y-86939418D01*
X114499375Y-87430625D01*
X114797761Y-87630000D01*
X114499375Y-87829375D01*
X114171161Y-88320582D01*
X114055908Y-88900000D01*
X114171161Y-89479418D01*
X114499375Y-89970625D01*
X114797761Y-90170000D01*
X114499375Y-90369375D01*
X114171161Y-90860582D01*
X114055908Y-91440000D01*
X114171161Y-92019418D01*
X114499375Y-92510625D01*
X114797761Y-92710000D01*
X114499375Y-92909375D01*
X114171161Y-93400582D01*
X114055908Y-93980000D01*
X114171161Y-94559418D01*
X114499375Y-95050625D01*
X114797761Y-95250000D01*
X114499375Y-95449375D01*
X114171161Y-95940582D01*
X114055908Y-96520000D01*
X114171161Y-97099418D01*
X114499375Y-97590625D01*
X114797761Y-97790000D01*
X114499375Y-97989375D01*
X114171161Y-98480582D01*
X114055908Y-99060000D01*
X114171161Y-99639418D01*
X114499375Y-100130625D01*
X114797761Y-100330000D01*
X114499375Y-100529375D01*
X114265974Y-100878684D01*
X114194635Y-100807345D01*
X113850983Y-100665000D01*
X113479017Y-100665000D01*
X113135365Y-100807345D01*
X112872345Y-101070365D01*
X112730000Y-101414017D01*
X112730000Y-101460199D01*
X112715199Y-101475000D01*
X106980000Y-101475000D01*
X106980000Y-101414017D01*
X106837655Y-101070365D01*
X106574635Y-100807345D01*
X106311605Y-100698395D01*
X106202655Y-100435365D01*
X105939635Y-100172345D01*
X105595983Y-100030000D01*
X105224017Y-100030000D01*
X104880365Y-100172345D01*
X104847710Y-100205000D01*
X104704802Y-100205000D01*
X105365329Y-99544473D01*
X105365331Y-99544470D01*
X105894473Y-99015329D01*
X105957929Y-98972929D01*
X106125904Y-98721537D01*
X106170000Y-98499852D01*
X106170000Y-98499848D01*
X106184888Y-98425000D01*
X106170000Y-98350152D01*
X106170000Y-94542290D01*
X106202655Y-94509635D01*
X106345000Y-94165983D01*
X106345000Y-93794017D01*
X106202655Y-93450365D01*
X105939635Y-93187345D01*
X105595983Y-93045000D01*
X105224017Y-93045000D01*
X104880365Y-93187345D01*
X104617345Y-93450365D01*
X104508395Y-93713395D01*
X104245365Y-93822345D01*
X103982345Y-94085365D01*
X103840000Y-94429017D01*
X103840000Y-94800983D01*
X103982345Y-95144635D01*
X104015001Y-95177291D01*
X104015000Y-97475198D01*
X103020530Y-98469669D01*
X103020527Y-98469671D01*
X100015199Y-101475000D01*
X99769848Y-101475000D01*
X99695000Y-101460112D01*
X99620152Y-101475000D01*
X99620148Y-101475000D01*
X99398463Y-101519096D01*
X99147071Y-101687071D01*
X99104671Y-101750527D01*
X98575528Y-102279671D01*
X98512072Y-102322071D01*
X98469672Y-102385527D01*
X98469671Y-102385528D01*
X98344097Y-102573463D01*
X98285112Y-102870000D01*
X98300001Y-102944851D01*
X98300000Y-103825198D01*
X97305528Y-104819671D01*
X97242072Y-104862071D01*
X97199672Y-104925527D01*
X97199671Y-104925528D01*
X97074097Y-105113463D01*
X97015112Y-105410000D01*
X97030001Y-105484852D01*
X97030000Y-109145153D01*
X97015112Y-109220000D01*
X97030000Y-109294847D01*
X97030000Y-109294851D01*
X97074096Y-109516536D01*
X97242071Y-109767929D01*
X97305530Y-109810331D01*
X97490000Y-109994801D01*
X97490000Y-110040983D01*
X97632345Y-110384635D01*
X97895365Y-110647655D01*
X98239017Y-110790000D01*
X98285199Y-110790000D01*
X98850567Y-111355369D01*
X98760000Y-111574017D01*
X98760000Y-111945983D01*
X98902345Y-112289635D01*
X99165365Y-112552655D01*
X99509017Y-112695000D01*
X99570001Y-112695000D01*
X99570000Y-113350198D01*
X99183744Y-113736454D01*
X98954635Y-113507345D01*
X98727000Y-113413056D01*
X98727000Y-112200000D01*
X98717333Y-112151399D01*
X98689803Y-112110197D01*
X98648601Y-112082667D01*
X98600000Y-112073000D01*
X98200000Y-112073000D01*
X98151399Y-112082667D01*
X98110197Y-112110197D01*
X98082667Y-112151399D01*
X98073000Y-112200000D01*
X98073000Y-113433766D01*
X97895365Y-113507345D01*
X97729710Y-113673000D01*
X96200000Y-113673000D01*
X96151399Y-113682667D01*
X96110197Y-113710197D01*
X90547394Y-119273000D01*
X83652606Y-119273000D01*
X83327000Y-118947394D01*
X83327000Y-115094506D01*
X84975000Y-115094506D01*
X84975000Y-115645494D01*
X85185853Y-116154540D01*
X85575460Y-116544147D01*
X86084506Y-116755000D01*
X86635494Y-116755000D01*
X87144540Y-116544147D01*
X87534147Y-116154540D01*
X87745000Y-115645494D01*
X87745000Y-115094506D01*
X87534147Y-114585460D01*
X87144540Y-114195853D01*
X86635494Y-113985000D01*
X86084506Y-113985000D01*
X85575460Y-114195853D01*
X85185853Y-114585460D01*
X84975000Y-115094506D01*
X83327000Y-115094506D01*
X83327000Y-110214506D01*
X84975000Y-110214506D01*
X84975000Y-110765494D01*
X85185853Y-111274540D01*
X85575460Y-111664147D01*
X86084506Y-111875000D01*
X86635494Y-111875000D01*
X87144540Y-111664147D01*
X87534147Y-111274540D01*
X87745000Y-110765494D01*
X87745000Y-110214506D01*
X87534147Y-109705460D01*
X87144540Y-109315853D01*
X86635494Y-109105000D01*
X86084506Y-109105000D01*
X85575460Y-109315853D01*
X85185853Y-109705460D01*
X84975000Y-110214506D01*
X83327000Y-110214506D01*
X83327000Y-107052606D01*
X83652606Y-106727000D01*
X90547394Y-106727000D01*
X95310197Y-111489803D01*
X95351399Y-111517333D01*
X95400000Y-111527000D01*
X98200000Y-111527000D01*
X98248601Y-111517333D01*
X98289803Y-111489803D01*
X98317333Y-111448601D01*
X98327000Y-111400000D01*
X98327000Y-111000000D01*
X98317333Y-110951399D01*
X98289803Y-110910197D01*
X98248601Y-110882667D01*
X98200000Y-110873000D01*
X95652606Y-110873000D01*
X91668099Y-106888493D01*
X91889017Y-106980000D01*
X92260983Y-106980000D01*
X92604635Y-106837655D01*
X92867655Y-106574635D01*
X93010000Y-106230983D01*
X93010000Y-106004476D01*
X93083691Y-106035000D01*
X93674250Y-106035000D01*
X93833000Y-105876250D01*
X93833000Y-104902000D01*
X94087000Y-104902000D01*
X94087000Y-105876250D01*
X94245750Y-106035000D01*
X94836309Y-106035000D01*
X95069698Y-105938327D01*
X95248327Y-105759699D01*
X95345000Y-105526310D01*
X95345000Y-105060750D01*
X95186250Y-104902000D01*
X94087000Y-104902000D01*
X93833000Y-104902000D01*
X93813000Y-104902000D01*
X93813000Y-104648000D01*
X93833000Y-104648000D01*
X93833000Y-103673750D01*
X94087000Y-103673750D01*
X94087000Y-104648000D01*
X95186250Y-104648000D01*
X95345000Y-104489250D01*
X95345000Y-104023690D01*
X95248327Y-103790301D01*
X95069698Y-103611673D01*
X94836309Y-103515000D01*
X94245750Y-103515000D01*
X94087000Y-103673750D01*
X93833000Y-103673750D01*
X93674250Y-103515000D01*
X93083691Y-103515000D01*
X92850302Y-103611673D01*
X92708654Y-103753320D01*
X92667809Y-103692191D01*
X92457765Y-103551843D01*
X92210000Y-103502560D01*
X91368428Y-103502560D01*
X90473587Y-102607720D01*
X90427001Y-102537999D01*
X90156275Y-102357106D01*
X90072809Y-102232191D01*
X89862765Y-102091843D01*
X89615000Y-102042560D01*
X89595059Y-102042560D01*
X89780000Y-101857619D01*
X90037945Y-102115564D01*
X90519425Y-102315000D01*
X91040575Y-102315000D01*
X91522055Y-102115564D01*
X91890564Y-101747055D01*
X92044828Y-101374630D01*
X92159671Y-101489473D01*
X92202071Y-101552929D01*
X92265527Y-101595329D01*
X92453462Y-101720904D01*
X92501605Y-101730480D01*
X92675148Y-101765000D01*
X92675152Y-101765000D01*
X92750000Y-101779888D01*
X92824848Y-101765000D01*
X93687381Y-101765000D01*
X94037945Y-102115564D01*
X94519425Y-102315000D01*
X95040575Y-102315000D01*
X95522055Y-102115564D01*
X95780000Y-101857619D01*
X96037945Y-102115564D01*
X96519425Y-102315000D01*
X97040575Y-102315000D01*
X97522055Y-102115564D01*
X97890564Y-101747055D01*
X98090000Y-101265575D01*
X98090000Y-100744425D01*
X97890564Y-100262945D01*
X97522055Y-99894436D01*
X97040575Y-99695000D01*
X96544801Y-99695000D01*
X96060331Y-99210530D01*
X96017929Y-99147071D01*
X95766537Y-98979096D01*
X95544852Y-98935000D01*
X95544847Y-98935000D01*
X95470000Y-98920112D01*
X95395153Y-98935000D01*
X93024802Y-98935000D01*
X92835000Y-98745199D01*
X92835000Y-96785750D01*
X93990000Y-96785750D01*
X93990000Y-97376309D01*
X94086673Y-97609698D01*
X94265301Y-97788327D01*
X94498690Y-97885000D01*
X94964250Y-97885000D01*
X95123000Y-97726250D01*
X95123000Y-96627000D01*
X95377000Y-96627000D01*
X95377000Y-97726250D01*
X95535750Y-97885000D01*
X96001310Y-97885000D01*
X96234699Y-97788327D01*
X96413327Y-97609698D01*
X96510000Y-97376309D01*
X96510000Y-96785750D01*
X96351250Y-96627000D01*
X95377000Y-96627000D01*
X95123000Y-96627000D01*
X94148750Y-96627000D01*
X93990000Y-96785750D01*
X92835000Y-96785750D01*
X92835000Y-92658652D01*
X93030000Y-92697440D01*
X94308995Y-92697440D01*
X94167191Y-92792191D01*
X94026843Y-93002235D01*
X93977560Y-93250000D01*
X93977560Y-94750000D01*
X94026843Y-94997765D01*
X94167191Y-95207809D01*
X94228320Y-95248654D01*
X94086673Y-95390302D01*
X93990000Y-95623691D01*
X93990000Y-96214250D01*
X94148750Y-96373000D01*
X95123000Y-96373000D01*
X95123000Y-96353000D01*
X95377000Y-96353000D01*
X95377000Y-96373000D01*
X96351250Y-96373000D01*
X96396691Y-96327559D01*
X98161417Y-98092286D01*
X98207999Y-98162001D01*
X98277714Y-98208583D01*
X98277715Y-98208584D01*
X98428298Y-98309200D01*
X98484199Y-98346552D01*
X98727763Y-98395000D01*
X98727766Y-98395000D01*
X98809999Y-98411357D01*
X98892232Y-98395000D01*
X99352381Y-98395000D01*
X99627945Y-98670564D01*
X100109425Y-98870000D01*
X100630575Y-98870000D01*
X101112055Y-98670564D01*
X101480564Y-98302055D01*
X101680000Y-97820575D01*
X101680000Y-97299425D01*
X101480564Y-96817945D01*
X101112055Y-96449436D01*
X101057045Y-96426650D01*
X100370000Y-95739605D01*
X99682955Y-96426650D01*
X99627945Y-96449436D01*
X99352381Y-96725000D01*
X99155869Y-96725000D01*
X97803968Y-95373100D01*
X99047478Y-95373100D01*
X99076625Y-95893434D01*
X99219672Y-96238781D01*
X99452853Y-96297542D01*
X100190395Y-95560000D01*
X100549605Y-95560000D01*
X101287147Y-96297542D01*
X101520328Y-96238781D01*
X101692522Y-95746900D01*
X101663375Y-95226566D01*
X101520328Y-94881219D01*
X101287147Y-94822458D01*
X100549605Y-95560000D01*
X100190395Y-95560000D01*
X99452853Y-94822458D01*
X99219672Y-94881219D01*
X99047478Y-95373100D01*
X97803968Y-95373100D01*
X96522440Y-94091573D01*
X96522440Y-93484403D01*
X96594848Y-93470000D01*
X97227710Y-93470000D01*
X97260365Y-93502655D01*
X97604017Y-93645000D01*
X97975983Y-93645000D01*
X98319635Y-93502655D01*
X98352290Y-93470000D01*
X99060000Y-93470000D01*
X99060000Y-93820575D01*
X99259436Y-94302055D01*
X99627945Y-94670564D01*
X99682955Y-94693350D01*
X100370000Y-95380395D01*
X101057045Y-94693350D01*
X101112055Y-94670564D01*
X101480564Y-94302055D01*
X101680000Y-93820575D01*
X101680000Y-93299425D01*
X101480564Y-92817945D01*
X101222619Y-92560000D01*
X101480564Y-92302055D01*
X101680000Y-91820575D01*
X101680000Y-91299425D01*
X101480564Y-90817945D01*
X101222619Y-90560000D01*
X101480564Y-90302055D01*
X101680000Y-89820575D01*
X101680000Y-89299425D01*
X101480564Y-88817945D01*
X101112055Y-88449436D01*
X100630575Y-88250000D01*
X100109425Y-88250000D01*
X99627945Y-88449436D01*
X99409606Y-88667775D01*
X99290617Y-88618488D01*
X99360000Y-88450983D01*
X99360000Y-88079017D01*
X99217655Y-87735365D01*
X98954635Y-87472345D01*
X98610983Y-87330000D01*
X98564801Y-87330000D01*
X98380331Y-87145530D01*
X98337929Y-87082071D01*
X98086537Y-86914096D01*
X97864852Y-86870000D01*
X97864847Y-86870000D01*
X97790000Y-86855112D01*
X97715153Y-86870000D01*
X96199801Y-86870000D01*
X96120331Y-86790530D01*
X96077929Y-86727071D01*
X95826537Y-86559096D01*
X95604852Y-86515000D01*
X95604847Y-86515000D01*
X95530000Y-86500112D01*
X95455153Y-86515000D01*
X95127440Y-86515000D01*
X95127440Y-86400000D01*
X95113502Y-86329927D01*
X95115000Y-86326310D01*
X95115000Y-86246250D01*
X95092353Y-86223603D01*
X95078157Y-86152235D01*
X94937809Y-85942191D01*
X94818544Y-85862500D01*
X94956250Y-85862500D01*
X95115000Y-85703750D01*
X95115000Y-85623690D01*
X95018327Y-85390301D01*
X94839698Y-85211673D01*
X94606309Y-85115000D01*
X94040750Y-85115000D01*
X93882000Y-85273750D01*
X93882000Y-85752560D01*
X93628000Y-85752560D01*
X93628000Y-85273750D01*
X93469250Y-85115000D01*
X92903691Y-85115000D01*
X92670302Y-85211673D01*
X92491673Y-85390301D01*
X92395000Y-85623690D01*
X92395000Y-85703750D01*
X92553750Y-85862500D01*
X92691456Y-85862500D01*
X92572191Y-85942191D01*
X92431843Y-86152235D01*
X92417647Y-86223603D01*
X92395000Y-86246250D01*
X92395000Y-86326310D01*
X92396498Y-86329927D01*
X92382560Y-86400000D01*
X92382560Y-86850000D01*
X92402451Y-86950000D01*
X92382560Y-87050000D01*
X92382560Y-87497758D01*
X91675331Y-86790529D01*
X91632929Y-86727071D01*
X91381537Y-86559096D01*
X91159852Y-86515000D01*
X91159847Y-86515000D01*
X91085000Y-86500112D01*
X91010153Y-86515000D01*
X89227440Y-86515000D01*
X89227440Y-86400000D01*
X89207549Y-86300000D01*
X89227440Y-86200000D01*
X89227440Y-85750000D01*
X89178157Y-85502235D01*
X89037809Y-85292191D01*
X88827765Y-85151843D01*
X88580000Y-85102560D01*
X87130000Y-85102560D01*
X86941774Y-85140000D01*
X86827232Y-85140000D01*
X86744999Y-85123643D01*
X86662766Y-85140000D01*
X86662763Y-85140000D01*
X86419199Y-85188448D01*
X86142999Y-85372999D01*
X86096413Y-85442720D01*
X85827720Y-85711413D01*
X85757999Y-85757999D01*
X85573448Y-86034200D01*
X85525000Y-86277764D01*
X85525000Y-86277767D01*
X85508643Y-86360000D01*
X85525000Y-86442233D01*
X85525000Y-86900000D01*
X85375750Y-86900000D01*
X85217000Y-87058750D01*
X85217000Y-88158000D01*
X85237000Y-88158000D01*
X85237000Y-88412000D01*
X85217000Y-88412000D01*
X85217000Y-88432000D01*
X84963000Y-88432000D01*
X84963000Y-88412000D01*
X83988750Y-88412000D01*
X83830000Y-88570750D01*
X83830000Y-89161309D01*
X83926673Y-89394698D01*
X84068320Y-89536346D01*
X84007191Y-89577191D01*
X83866843Y-89787235D01*
X83817560Y-90035000D01*
X83817560Y-91535000D01*
X83866843Y-91782765D01*
X84007191Y-91992809D01*
X84217235Y-92133157D01*
X84255000Y-92140669D01*
X84255000Y-92564132D01*
X83287720Y-93531413D01*
X83217999Y-93577999D01*
X83033448Y-93854200D01*
X82985000Y-94097764D01*
X82985000Y-94097767D01*
X82968643Y-94180000D01*
X82985000Y-94262234D01*
X82985000Y-94520000D01*
X82835750Y-94520000D01*
X82677000Y-94678750D01*
X82677000Y-95778000D01*
X82697000Y-95778000D01*
X82697000Y-96032000D01*
X82677000Y-96032000D01*
X82677000Y-96052000D01*
X82423000Y-96052000D01*
X82423000Y-96032000D01*
X82403000Y-96032000D01*
X82403000Y-95778000D01*
X82423000Y-95778000D01*
X82423000Y-94678750D01*
X82264250Y-94520000D01*
X81798690Y-94520000D01*
X81685000Y-94567092D01*
X81685000Y-94067466D01*
X81721376Y-93884591D01*
X81786751Y-93786750D01*
X81884590Y-93721376D01*
X82133636Y-93671838D01*
X82516319Y-93595718D01*
X82763248Y-93493437D01*
X82763249Y-93493436D01*
X83087672Y-93276664D01*
X83276664Y-93087672D01*
X83493437Y-92763249D01*
X83551559Y-92622929D01*
X83595718Y-92516319D01*
X83671838Y-92133636D01*
X83671838Y-92133632D01*
X83685000Y-92067462D01*
X83685000Y-87408691D01*
X83830000Y-87408691D01*
X83830000Y-87999250D01*
X83988750Y-88158000D01*
X84963000Y-88158000D01*
X84963000Y-87058750D01*
X84804250Y-86900000D01*
X84338690Y-86900000D01*
X84105301Y-86996673D01*
X83926673Y-87175302D01*
X83830000Y-87408691D01*
X83685000Y-87408691D01*
X83685000Y-86932538D01*
X83671838Y-86866368D01*
X83671838Y-86866364D01*
X83595718Y-86483681D01*
X83510425Y-86277764D01*
X83493437Y-86236751D01*
X83276664Y-85912328D01*
X83087672Y-85723336D01*
X82763248Y-85506563D01*
X82732570Y-85493856D01*
X82516319Y-85404282D01*
X82133636Y-85328162D01*
X81884590Y-85278624D01*
X81786751Y-85213250D01*
X81721376Y-85115409D01*
X81685000Y-84932534D01*
X81685000Y-81025412D01*
X81756233Y-80066863D01*
X81962742Y-79154225D01*
X82242011Y-78436083D01*
X83665000Y-78436083D01*
X83665000Y-79563917D01*
X84096603Y-80605899D01*
X84894101Y-81403397D01*
X85936083Y-81835000D01*
X87063917Y-81835000D01*
X87540898Y-81637428D01*
X87412328Y-81723336D01*
X87223336Y-81912328D01*
X87006564Y-82236751D01*
X87006563Y-82236752D01*
X86904282Y-82483681D01*
X86828162Y-82866364D01*
X86828162Y-83133636D01*
X86904282Y-83516319D01*
X86993921Y-83732727D01*
X87006563Y-83763248D01*
X87223336Y-84087672D01*
X87412328Y-84276664D01*
X87736751Y-84493437D01*
X87839032Y-84535803D01*
X87983681Y-84595718D01*
X88366364Y-84671838D01*
X88366368Y-84671838D01*
X88432538Y-84685000D01*
X93067462Y-84685000D01*
X93133632Y-84671838D01*
X93133636Y-84671838D01*
X93516319Y-84595718D01*
X93763248Y-84493437D01*
X93763249Y-84493436D01*
X94087672Y-84276664D01*
X94276664Y-84087672D01*
X94493437Y-83763249D01*
X94535803Y-83660968D01*
X94595718Y-83516319D01*
X94638860Y-83299425D01*
X99060000Y-83299425D01*
X99060000Y-83820575D01*
X99259436Y-84302055D01*
X99517381Y-84560000D01*
X99259436Y-84817945D01*
X99060000Y-85299425D01*
X99060000Y-85820575D01*
X99259436Y-86302055D01*
X99627945Y-86670564D01*
X100109425Y-86870000D01*
X100630575Y-86870000D01*
X101112055Y-86670564D01*
X101480564Y-86302055D01*
X101680000Y-85820575D01*
X101680000Y-85299425D01*
X101480564Y-84817945D01*
X101222619Y-84560000D01*
X101480564Y-84302055D01*
X101680000Y-83820575D01*
X101680000Y-83299425D01*
X101480564Y-82817945D01*
X101112055Y-82449436D01*
X100630575Y-82250000D01*
X100109425Y-82250000D01*
X99627945Y-82449436D01*
X99259436Y-82817945D01*
X99060000Y-83299425D01*
X94638860Y-83299425D01*
X94671838Y-83133636D01*
X94671838Y-82866364D01*
X94595718Y-82483681D01*
X94506079Y-82267273D01*
X94493437Y-82236751D01*
X94276664Y-81912328D01*
X94087672Y-81723336D01*
X93763248Y-81506563D01*
X93744830Y-81498934D01*
X93516319Y-81404282D01*
X93133636Y-81328162D01*
X93133632Y-81328162D01*
X93067462Y-81315000D01*
X88432538Y-81315000D01*
X88366368Y-81328162D01*
X88366364Y-81328162D01*
X88135141Y-81374155D01*
X88903397Y-80605899D01*
X89265422Y-79731892D01*
X91903514Y-79731892D01*
X92149817Y-80256358D01*
X92578076Y-80646645D01*
X92988110Y-80816476D01*
X93218000Y-80695155D01*
X93218000Y-79502000D01*
X92024181Y-79502000D01*
X91903514Y-79731892D01*
X89265422Y-79731892D01*
X89335000Y-79563917D01*
X89335000Y-78436083D01*
X88903397Y-77394101D01*
X88344296Y-76835000D01*
X91830908Y-76835000D01*
X91946161Y-77414418D01*
X92274375Y-77905625D01*
X92574786Y-78106353D01*
X92149817Y-78493642D01*
X91903514Y-79018108D01*
X92024181Y-79248000D01*
X93218000Y-79248000D01*
X93218000Y-79228000D01*
X93472000Y-79228000D01*
X93472000Y-79248000D01*
X93492000Y-79248000D01*
X93492000Y-79502000D01*
X93472000Y-79502000D01*
X93472000Y-80695155D01*
X93701890Y-80816476D01*
X94111924Y-80646645D01*
X94540183Y-80256358D01*
X94601157Y-80126522D01*
X94814375Y-80445625D01*
X95305582Y-80773839D01*
X95640696Y-80840497D01*
X96670527Y-81870329D01*
X96670530Y-81870331D01*
X96855000Y-82054801D01*
X96855000Y-82100983D01*
X96997345Y-82444635D01*
X97260365Y-82707655D01*
X97604017Y-82850000D01*
X97975983Y-82850000D01*
X98319635Y-82707655D01*
X98582655Y-82444635D01*
X98725000Y-82100983D01*
X98725000Y-81729017D01*
X98582655Y-81385365D01*
X98319635Y-81122345D01*
X97975983Y-80980000D01*
X97929801Y-80980000D01*
X97745331Y-80795530D01*
X97745329Y-80795527D01*
X97478092Y-80528290D01*
X97845582Y-80773839D01*
X98278744Y-80860000D01*
X98571256Y-80860000D01*
X99004418Y-80773839D01*
X99495625Y-80445625D01*
X99539474Y-80380000D01*
X105132560Y-80380000D01*
X105132560Y-82180000D01*
X105181843Y-82427765D01*
X105322191Y-82637809D01*
X105532235Y-82778157D01*
X105780000Y-82827440D01*
X107580000Y-82827440D01*
X107827765Y-82778157D01*
X108037809Y-82637809D01*
X108170058Y-82439886D01*
X108204890Y-82474718D01*
X108319447Y-82360161D01*
X108405852Y-82616643D01*
X108979336Y-82826458D01*
X109589460Y-82800839D01*
X110034148Y-82616643D01*
X110120554Y-82360159D01*
X109220000Y-81459605D01*
X109205858Y-81473748D01*
X109026253Y-81294143D01*
X109040395Y-81280000D01*
X109399605Y-81280000D01*
X110300159Y-82180554D01*
X110450562Y-82129885D01*
X110458690Y-82149507D01*
X110890493Y-82581310D01*
X111454670Y-82815000D01*
X112065330Y-82815000D01*
X112629507Y-82581310D01*
X113061310Y-82149507D01*
X113295000Y-81585330D01*
X113295000Y-80974670D01*
X113061310Y-80410493D01*
X112629507Y-79978690D01*
X112065330Y-79745000D01*
X111454670Y-79745000D01*
X110890493Y-79978690D01*
X110458690Y-80410493D01*
X110450562Y-80430115D01*
X110300159Y-80379446D01*
X109399605Y-81280000D01*
X109040395Y-81280000D01*
X109026253Y-81265858D01*
X109205858Y-81086253D01*
X109220000Y-81100395D01*
X110120554Y-80199841D01*
X110034148Y-79943357D01*
X109460664Y-79733542D01*
X108850540Y-79759161D01*
X108405852Y-79943357D01*
X108319447Y-80199839D01*
X108204890Y-80085282D01*
X108170058Y-80120114D01*
X108037809Y-79922191D01*
X107827765Y-79781843D01*
X107580000Y-79732560D01*
X105780000Y-79732560D01*
X105532235Y-79781843D01*
X105322191Y-79922191D01*
X105181843Y-80132235D01*
X105132560Y-80380000D01*
X99539474Y-80380000D01*
X99823839Y-79954418D01*
X99939092Y-79375000D01*
X99823839Y-78795582D01*
X99495625Y-78304375D01*
X99477381Y-78292184D01*
X99522765Y-78283157D01*
X99732809Y-78142809D01*
X99873157Y-77932765D01*
X99922440Y-77685000D01*
X99922440Y-75985000D01*
X99873157Y-75737235D01*
X99732809Y-75527191D01*
X99522765Y-75386843D01*
X99275000Y-75337560D01*
X97575000Y-75337560D01*
X97327235Y-75386843D01*
X97117191Y-75527191D01*
X96976843Y-75737235D01*
X96967816Y-75782619D01*
X96955625Y-75764375D01*
X96464418Y-75436161D01*
X96031256Y-75350000D01*
X95738744Y-75350000D01*
X95305582Y-75436161D01*
X94814375Y-75764375D01*
X94615000Y-76062761D01*
X94415625Y-75764375D01*
X93924418Y-75436161D01*
X93491256Y-75350000D01*
X93198744Y-75350000D01*
X92765582Y-75436161D01*
X92274375Y-75764375D01*
X91946161Y-76255582D01*
X91830908Y-76835000D01*
X88344296Y-76835000D01*
X88105899Y-76596603D01*
X87063917Y-76165000D01*
X85936083Y-76165000D01*
X84894101Y-76596603D01*
X84096603Y-77394101D01*
X83665000Y-78436083D01*
X82242011Y-78436083D01*
X82301878Y-78282136D01*
X82766193Y-77469755D01*
X83345487Y-76734925D01*
X84027032Y-76093789D01*
X84795853Y-75560440D01*
X85635067Y-75146585D01*
X86526235Y-74861320D01*
X87460144Y-74709223D01*
X88014946Y-74685000D01*
X122932534Y-74685000D01*
X123063000Y-74710951D01*
X123063000Y-74710951D01*
G37*
X123063000Y-74710951D02*
X123063000Y-77779417D01*
X122903397Y-77394101D01*
X122105899Y-76596603D01*
X121063917Y-76165000D01*
X119936083Y-76165000D01*
X118894101Y-76596603D01*
X118096603Y-77394101D01*
X117665000Y-78436083D01*
X117665000Y-79563917D01*
X118096603Y-80605899D01*
X118894101Y-81403397D01*
X119936083Y-81835000D01*
X121063917Y-81835000D01*
X122105899Y-81403397D01*
X122903397Y-80605899D01*
X123063000Y-80220583D01*
X123063000Y-145779417D01*
X122903397Y-145394101D01*
X122105899Y-144596603D01*
X121063917Y-144165000D01*
X119936083Y-144165000D01*
X118894101Y-144596603D01*
X118096603Y-145394101D01*
X117899907Y-145868967D01*
X117947440Y-145630000D01*
X117947440Y-143930000D01*
X117898157Y-143682235D01*
X117757809Y-143472191D01*
X117547765Y-143331843D01*
X117300000Y-143282560D01*
X117135000Y-143282560D01*
X117135000Y-143002000D01*
X118745000Y-143002000D01*
X118793601Y-142992333D01*
X118834803Y-142964803D01*
X118862333Y-142923601D01*
X118872000Y-142875000D01*
X118872000Y-141796096D01*
X119070801Y-141756552D01*
X119347001Y-141572001D01*
X119393587Y-141502280D01*
X119912282Y-140983586D01*
X119982001Y-140937001D01*
X120166552Y-140660801D01*
X120215000Y-140417237D01*
X120231358Y-140335000D01*
X120215000Y-140252763D01*
X120215000Y-139857565D01*
X120503744Y-139915000D01*
X120796256Y-139915000D01*
X121229418Y-139828839D01*
X121720625Y-139500625D01*
X122048839Y-139009418D01*
X122164092Y-138430000D01*
X122048839Y-137850582D01*
X121720625Y-137359375D01*
X121422239Y-137160000D01*
X121720625Y-136960625D01*
X122048839Y-136469418D01*
X122164092Y-135890000D01*
X122048839Y-135310582D01*
X121720625Y-134819375D01*
X121401522Y-134606157D01*
X121531358Y-134545183D01*
X121921645Y-134116924D01*
X122091476Y-133706890D01*
X121970155Y-133477000D01*
X120777000Y-133477000D01*
X120777000Y-133497000D01*
X120523000Y-133497000D01*
X120523000Y-133477000D01*
X120503000Y-133477000D01*
X120503000Y-133223000D01*
X120523000Y-133223000D01*
X120523000Y-133203000D01*
X120777000Y-133203000D01*
X120777000Y-133223000D01*
X121970155Y-133223000D01*
X122091476Y-132993110D01*
X121921645Y-132583076D01*
X121644292Y-132278739D01*
X121747765Y-132258157D01*
X121957809Y-132117809D01*
X122098157Y-131907765D01*
X122147440Y-131660000D01*
X122147440Y-129960000D01*
X122098157Y-129712235D01*
X121957809Y-129502191D01*
X121747765Y-129361843D01*
X121500000Y-129312560D01*
X121456117Y-129312560D01*
X121436552Y-129214199D01*
X121320156Y-129040000D01*
X121298584Y-129007715D01*
X121298583Y-129007714D01*
X121252001Y-128937999D01*
X121182285Y-128891416D01*
X120775868Y-128485000D01*
X120777002Y-128485000D01*
X120777002Y-128326252D01*
X120935750Y-128485000D01*
X121626309Y-128485000D01*
X121859698Y-128388327D01*
X122038327Y-128209699D01*
X122135000Y-127976310D01*
X122135000Y-127285750D01*
X121976250Y-127127000D01*
X120777000Y-127127000D01*
X120777000Y-127147000D01*
X120523000Y-127147000D01*
X120523000Y-127127000D01*
X120503000Y-127127000D01*
X120503000Y-126873000D01*
X120523000Y-126873000D01*
X120523000Y-124587000D01*
X120777000Y-124587000D01*
X120777000Y-126873000D01*
X121976250Y-126873000D01*
X122135000Y-126714250D01*
X122135000Y-126023690D01*
X122038327Y-125790301D01*
X121859698Y-125611673D01*
X121650122Y-125524864D01*
X121921645Y-125226924D01*
X122091476Y-124816890D01*
X121970155Y-124587000D01*
X120777000Y-124587000D01*
X120523000Y-124587000D01*
X120503000Y-124587000D01*
X120503000Y-124333000D01*
X120523000Y-124333000D01*
X120523000Y-122047000D01*
X120777000Y-122047000D01*
X120777000Y-124333000D01*
X121970155Y-124333000D01*
X122091476Y-124103110D01*
X121921645Y-123693076D01*
X121531358Y-123264817D01*
X121372046Y-123190000D01*
X121531358Y-123115183D01*
X121921645Y-122686924D01*
X122091476Y-122276890D01*
X121970155Y-122047000D01*
X120777000Y-122047000D01*
X120523000Y-122047000D01*
X120503000Y-122047000D01*
X120503000Y-121793000D01*
X120523000Y-121793000D01*
X120523000Y-119507000D01*
X120777000Y-119507000D01*
X120777000Y-121793000D01*
X121970155Y-121793000D01*
X122091476Y-121563110D01*
X121921645Y-121153076D01*
X121531358Y-120724817D01*
X121372046Y-120650000D01*
X121531358Y-120575183D01*
X121921645Y-120146924D01*
X122091476Y-119736890D01*
X121970155Y-119507000D01*
X120777000Y-119507000D01*
X120523000Y-119507000D01*
X120503000Y-119507000D01*
X120503000Y-119253000D01*
X120523000Y-119253000D01*
X120523000Y-116967000D01*
X120777000Y-116967000D01*
X120777000Y-119253000D01*
X121970155Y-119253000D01*
X122091476Y-119023110D01*
X121921645Y-118613076D01*
X121531358Y-118184817D01*
X121372046Y-118110000D01*
X121531358Y-118035183D01*
X121921645Y-117606924D01*
X122091476Y-117196890D01*
X121970155Y-116967000D01*
X120777000Y-116967000D01*
X120523000Y-116967000D01*
X120503000Y-116967000D01*
X120503000Y-116713000D01*
X120523000Y-116713000D01*
X120523000Y-114427000D01*
X120777000Y-114427000D01*
X120777000Y-116713000D01*
X121970155Y-116713000D01*
X122091476Y-116483110D01*
X121921645Y-116073076D01*
X121531358Y-115644817D01*
X121372046Y-115570000D01*
X121531358Y-115495183D01*
X121921645Y-115066924D01*
X122091476Y-114656890D01*
X121970155Y-114427000D01*
X120777000Y-114427000D01*
X120523000Y-114427000D01*
X120503000Y-114427000D01*
X120503000Y-114173000D01*
X120523000Y-114173000D01*
X120523000Y-111887000D01*
X120777000Y-111887000D01*
X120777000Y-114173000D01*
X121970155Y-114173000D01*
X122091476Y-113943110D01*
X121921645Y-113533076D01*
X121531358Y-113104817D01*
X121372046Y-113030000D01*
X121531358Y-112955183D01*
X121921645Y-112526924D01*
X122091476Y-112116890D01*
X121970155Y-111887000D01*
X120777000Y-111887000D01*
X120523000Y-111887000D01*
X120503000Y-111887000D01*
X120503000Y-111633000D01*
X120523000Y-111633000D01*
X120523000Y-109347000D01*
X120777000Y-109347000D01*
X120777000Y-111633000D01*
X121970155Y-111633000D01*
X122091476Y-111403110D01*
X121921645Y-110993076D01*
X121531358Y-110564817D01*
X121372046Y-110490000D01*
X121531358Y-110415183D01*
X121921645Y-109986924D01*
X122091476Y-109576890D01*
X121970155Y-109347000D01*
X120777000Y-109347000D01*
X120523000Y-109347000D01*
X120503000Y-109347000D01*
X120503000Y-109093000D01*
X120523000Y-109093000D01*
X120523000Y-106807000D01*
X120777000Y-106807000D01*
X120777000Y-109093000D01*
X121970155Y-109093000D01*
X122091476Y-108863110D01*
X121921645Y-108453076D01*
X121531358Y-108024817D01*
X121372046Y-107950000D01*
X121531358Y-107875183D01*
X121921645Y-107446924D01*
X122091476Y-107036890D01*
X121970155Y-106807000D01*
X120777000Y-106807000D01*
X120523000Y-106807000D01*
X120503000Y-106807000D01*
X120503000Y-106553000D01*
X120523000Y-106553000D01*
X120523000Y-105359181D01*
X120777000Y-105359181D01*
X120777000Y-106553000D01*
X121970155Y-106553000D01*
X122091476Y-106323110D01*
X121921645Y-105913076D01*
X121531358Y-105484817D01*
X121006892Y-105238514D01*
X120777000Y-105359181D01*
X120523000Y-105359181D01*
X120293108Y-105238514D01*
X119768642Y-105484817D01*
X119381353Y-105909786D01*
X119180625Y-105609375D01*
X119158967Y-105594904D01*
X119319698Y-105528327D01*
X119498327Y-105349699D01*
X119595000Y-105116310D01*
X119595000Y-104425750D01*
X119436250Y-104267000D01*
X118237000Y-104267000D01*
X118237000Y-104287000D01*
X117983000Y-104287000D01*
X117983000Y-104267000D01*
X117963000Y-104267000D01*
X117963000Y-104013000D01*
X117983000Y-104013000D01*
X117983000Y-101727000D01*
X117963000Y-101727000D01*
X117963000Y-101473000D01*
X117983000Y-101473000D01*
X117983000Y-99187000D01*
X117963000Y-99187000D01*
X117963000Y-98933000D01*
X117983000Y-98933000D01*
X117983000Y-96647000D01*
X118237000Y-96647000D01*
X118237000Y-98933000D01*
X118257000Y-98933000D01*
X118257000Y-99187000D01*
X118237000Y-99187000D01*
X118237000Y-101473000D01*
X118257000Y-101473000D01*
X118257000Y-101727000D01*
X118237000Y-101727000D01*
X118237000Y-104013000D01*
X119436250Y-104013000D01*
X119595000Y-103854250D01*
X119595000Y-103163690D01*
X119498327Y-102930301D01*
X119319698Y-102751673D01*
X119110122Y-102664864D01*
X119366982Y-102383013D01*
X119391078Y-102441185D01*
X119808815Y-102858922D01*
X120354615Y-103085000D01*
X120945385Y-103085000D01*
X121491185Y-102858922D01*
X121908922Y-102441185D01*
X122135000Y-101895385D01*
X122135000Y-101304615D01*
X121908922Y-100758815D01*
X121491185Y-100341078D01*
X121438389Y-100319209D01*
X121720625Y-100130625D01*
X122048839Y-99639418D01*
X122164092Y-99060000D01*
X122048839Y-98480582D01*
X121720625Y-97989375D01*
X121229418Y-97661161D01*
X120796256Y-97575000D01*
X120503744Y-97575000D01*
X120070582Y-97661161D01*
X119579375Y-97989375D01*
X119378647Y-98289786D01*
X118991358Y-97864817D01*
X118832046Y-97790000D01*
X118991358Y-97715183D01*
X119381645Y-97286924D01*
X119551476Y-96876890D01*
X119430155Y-96647000D01*
X118237000Y-96647000D01*
X117983000Y-96647000D01*
X117963000Y-96647000D01*
X117963000Y-96393000D01*
X117983000Y-96393000D01*
X117983000Y-94107000D01*
X118237000Y-94107000D01*
X118237000Y-96393000D01*
X119430155Y-96393000D01*
X119551476Y-96163110D01*
X119381645Y-95753076D01*
X118991358Y-95324817D01*
X118832046Y-95250000D01*
X118991358Y-95175183D01*
X119381645Y-94746924D01*
X119551476Y-94336890D01*
X119430155Y-94107000D01*
X118237000Y-94107000D01*
X117983000Y-94107000D01*
X117963000Y-94107000D01*
X117963000Y-93853000D01*
X117983000Y-93853000D01*
X117983000Y-91567000D01*
X118237000Y-91567000D01*
X118237000Y-93853000D01*
X119430155Y-93853000D01*
X119551476Y-93623110D01*
X119381645Y-93213076D01*
X118991358Y-92784817D01*
X118832046Y-92710000D01*
X118991358Y-92635183D01*
X119381645Y-92206924D01*
X119551476Y-91796890D01*
X119430155Y-91567000D01*
X118237000Y-91567000D01*
X117983000Y-91567000D01*
X117963000Y-91567000D01*
X117963000Y-91313000D01*
X117983000Y-91313000D01*
X117983000Y-89027000D01*
X118237000Y-89027000D01*
X118237000Y-91313000D01*
X119430155Y-91313000D01*
X119551476Y-91083110D01*
X119381645Y-90673076D01*
X118991358Y-90244817D01*
X118832046Y-90170000D01*
X118991358Y-90095183D01*
X119381645Y-89666924D01*
X119551476Y-89256890D01*
X119430155Y-89027000D01*
X118237000Y-89027000D01*
X117983000Y-89027000D01*
X117963000Y-89027000D01*
X117963000Y-88773000D01*
X117983000Y-88773000D01*
X117983000Y-86487000D01*
X118237000Y-86487000D01*
X118237000Y-88773000D01*
X119430155Y-88773000D01*
X119551476Y-88543110D01*
X119381645Y-88133076D01*
X118991358Y-87704817D01*
X118832046Y-87630000D01*
X118991358Y-87555183D01*
X119381645Y-87126924D01*
X119551476Y-86716890D01*
X119430155Y-86487000D01*
X118237000Y-86487000D01*
X117983000Y-86487000D01*
X117963000Y-86487000D01*
X117963000Y-86233000D01*
X117983000Y-86233000D01*
X117983000Y-83947000D01*
X118237000Y-83947000D01*
X118237000Y-86233000D01*
X119430155Y-86233000D01*
X119551476Y-86003110D01*
X119381645Y-85593076D01*
X118991358Y-85164817D01*
X118832046Y-85090000D01*
X118991358Y-85015183D01*
X119381645Y-84586924D01*
X119551476Y-84176890D01*
X119430155Y-83947000D01*
X118237000Y-83947000D01*
X117983000Y-83947000D01*
X117963000Y-83947000D01*
X117963000Y-83693000D01*
X117983000Y-83693000D01*
X117983000Y-82499181D01*
X118237000Y-82499181D01*
X118237000Y-83693000D01*
X119430155Y-83693000D01*
X119551476Y-83463110D01*
X119381645Y-83053076D01*
X118991358Y-82624817D01*
X118466892Y-82378514D01*
X118237000Y-82499181D01*
X117983000Y-82499181D01*
X117753108Y-82378514D01*
X117228642Y-82624817D01*
X116841353Y-83049786D01*
X116640625Y-82749375D01*
X116149418Y-82421161D01*
X115716256Y-82335000D01*
X115423744Y-82335000D01*
X114990582Y-82421161D01*
X114499375Y-82749375D01*
X114171161Y-83240582D01*
X114055908Y-83820000D01*
X114171161Y-84399418D01*
X114499375Y-84890625D01*
X114797761Y-85090000D01*
X114499375Y-85289375D01*
X114171161Y-85780582D01*
X114055908Y-86360000D01*
X114171161Y-86939418D01*
X114499375Y-87430625D01*
X114797761Y-87630000D01*
X114499375Y-87829375D01*
X114171161Y-88320582D01*
X114055908Y-88900000D01*
X114171161Y-89479418D01*
X114499375Y-89970625D01*
X114797761Y-90170000D01*
X114499375Y-90369375D01*
X114171161Y-90860582D01*
X114055908Y-91440000D01*
X114171161Y-92019418D01*
X114499375Y-92510625D01*
X114797761Y-92710000D01*
X114499375Y-92909375D01*
X114171161Y-93400582D01*
X114055908Y-93980000D01*
X114171161Y-94559418D01*
X114499375Y-95050625D01*
X114797761Y-95250000D01*
X114499375Y-95449375D01*
X114171161Y-95940582D01*
X114055908Y-96520000D01*
X114171161Y-97099418D01*
X114499375Y-97590625D01*
X114797761Y-97790000D01*
X114499375Y-97989375D01*
X114171161Y-98480582D01*
X114055908Y-99060000D01*
X114171161Y-99639418D01*
X114499375Y-100130625D01*
X114797761Y-100330000D01*
X114499375Y-100529375D01*
X114265974Y-100878684D01*
X114194635Y-100807345D01*
X113850983Y-100665000D01*
X113479017Y-100665000D01*
X113135365Y-100807345D01*
X112872345Y-101070365D01*
X112730000Y-101414017D01*
X112730000Y-101460199D01*
X112715199Y-101475000D01*
X106980000Y-101475000D01*
X106980000Y-101414017D01*
X106837655Y-101070365D01*
X106574635Y-100807345D01*
X106311605Y-100698395D01*
X106202655Y-100435365D01*
X105939635Y-100172345D01*
X105595983Y-100030000D01*
X105224017Y-100030000D01*
X104880365Y-100172345D01*
X104847710Y-100205000D01*
X104704802Y-100205000D01*
X105365329Y-99544473D01*
X105365331Y-99544470D01*
X105894473Y-99015329D01*
X105957929Y-98972929D01*
X106125904Y-98721537D01*
X106170000Y-98499852D01*
X106170000Y-98499848D01*
X106184888Y-98425000D01*
X106170000Y-98350152D01*
X106170000Y-94542290D01*
X106202655Y-94509635D01*
X106345000Y-94165983D01*
X106345000Y-93794017D01*
X106202655Y-93450365D01*
X105939635Y-93187345D01*
X105595983Y-93045000D01*
X105224017Y-93045000D01*
X104880365Y-93187345D01*
X104617345Y-93450365D01*
X104508395Y-93713395D01*
X104245365Y-93822345D01*
X103982345Y-94085365D01*
X103840000Y-94429017D01*
X103840000Y-94800983D01*
X103982345Y-95144635D01*
X104015001Y-95177291D01*
X104015000Y-97475198D01*
X103020530Y-98469669D01*
X103020527Y-98469671D01*
X100015199Y-101475000D01*
X99769848Y-101475000D01*
X99695000Y-101460112D01*
X99620152Y-101475000D01*
X99620148Y-101475000D01*
X99398463Y-101519096D01*
X99147071Y-101687071D01*
X99104671Y-101750527D01*
X98575528Y-102279671D01*
X98512072Y-102322071D01*
X98469672Y-102385527D01*
X98469671Y-102385528D01*
X98344097Y-102573463D01*
X98285112Y-102870000D01*
X98300001Y-102944851D01*
X98300000Y-103825198D01*
X97305528Y-104819671D01*
X97242072Y-104862071D01*
X97199672Y-104925527D01*
X97199671Y-104925528D01*
X97074097Y-105113463D01*
X97015112Y-105410000D01*
X97030001Y-105484852D01*
X97030000Y-109145153D01*
X97015112Y-109220000D01*
X97030000Y-109294847D01*
X97030000Y-109294851D01*
X97074096Y-109516536D01*
X97242071Y-109767929D01*
X97305530Y-109810331D01*
X97490000Y-109994801D01*
X97490000Y-110040983D01*
X97632345Y-110384635D01*
X97895365Y-110647655D01*
X98239017Y-110790000D01*
X98285199Y-110790000D01*
X98850567Y-111355369D01*
X98760000Y-111574017D01*
X98760000Y-111945983D01*
X98902345Y-112289635D01*
X99165365Y-112552655D01*
X99509017Y-112695000D01*
X99570001Y-112695000D01*
X99570000Y-113350198D01*
X99183744Y-113736454D01*
X98954635Y-113507345D01*
X98727000Y-113413056D01*
X98727000Y-112200000D01*
X98717333Y-112151399D01*
X98689803Y-112110197D01*
X98648601Y-112082667D01*
X98600000Y-112073000D01*
X98200000Y-112073000D01*
X98151399Y-112082667D01*
X98110197Y-112110197D01*
X98082667Y-112151399D01*
X98073000Y-112200000D01*
X98073000Y-113433766D01*
X97895365Y-113507345D01*
X97729710Y-113673000D01*
X96200000Y-113673000D01*
X96151399Y-113682667D01*
X96110197Y-113710197D01*
X90547394Y-119273000D01*
X83652606Y-119273000D01*
X83327000Y-118947394D01*
X83327000Y-115094506D01*
X84975000Y-115094506D01*
X84975000Y-115645494D01*
X85185853Y-116154540D01*
X85575460Y-116544147D01*
X86084506Y-116755000D01*
X86635494Y-116755000D01*
X87144540Y-116544147D01*
X87534147Y-116154540D01*
X87745000Y-115645494D01*
X87745000Y-115094506D01*
X87534147Y-114585460D01*
X87144540Y-114195853D01*
X86635494Y-113985000D01*
X86084506Y-113985000D01*
X85575460Y-114195853D01*
X85185853Y-114585460D01*
X84975000Y-115094506D01*
X83327000Y-115094506D01*
X83327000Y-110214506D01*
X84975000Y-110214506D01*
X84975000Y-110765494D01*
X85185853Y-111274540D01*
X85575460Y-111664147D01*
X86084506Y-111875000D01*
X86635494Y-111875000D01*
X87144540Y-111664147D01*
X87534147Y-111274540D01*
X87745000Y-110765494D01*
X87745000Y-110214506D01*
X87534147Y-109705460D01*
X87144540Y-109315853D01*
X86635494Y-109105000D01*
X86084506Y-109105000D01*
X85575460Y-109315853D01*
X85185853Y-109705460D01*
X84975000Y-110214506D01*
X83327000Y-110214506D01*
X83327000Y-107052606D01*
X83652606Y-106727000D01*
X90547394Y-106727000D01*
X95310197Y-111489803D01*
X95351399Y-111517333D01*
X95400000Y-111527000D01*
X98200000Y-111527000D01*
X98248601Y-111517333D01*
X98289803Y-111489803D01*
X98317333Y-111448601D01*
X98327000Y-111400000D01*
X98327000Y-111000000D01*
X98317333Y-110951399D01*
X98289803Y-110910197D01*
X98248601Y-110882667D01*
X98200000Y-110873000D01*
X95652606Y-110873000D01*
X91668099Y-106888493D01*
X91889017Y-106980000D01*
X92260983Y-106980000D01*
X92604635Y-106837655D01*
X92867655Y-106574635D01*
X93010000Y-106230983D01*
X93010000Y-106004476D01*
X93083691Y-106035000D01*
X93674250Y-106035000D01*
X93833000Y-105876250D01*
X93833000Y-104902000D01*
X94087000Y-104902000D01*
X94087000Y-105876250D01*
X94245750Y-106035000D01*
X94836309Y-106035000D01*
X95069698Y-105938327D01*
X95248327Y-105759699D01*
X95345000Y-105526310D01*
X95345000Y-105060750D01*
X95186250Y-104902000D01*
X94087000Y-104902000D01*
X93833000Y-104902000D01*
X93813000Y-104902000D01*
X93813000Y-104648000D01*
X93833000Y-104648000D01*
X93833000Y-103673750D01*
X94087000Y-103673750D01*
X94087000Y-104648000D01*
X95186250Y-104648000D01*
X95345000Y-104489250D01*
X95345000Y-104023690D01*
X95248327Y-103790301D01*
X95069698Y-103611673D01*
X94836309Y-103515000D01*
X94245750Y-103515000D01*
X94087000Y-103673750D01*
X93833000Y-103673750D01*
X93674250Y-103515000D01*
X93083691Y-103515000D01*
X92850302Y-103611673D01*
X92708654Y-103753320D01*
X92667809Y-103692191D01*
X92457765Y-103551843D01*
X92210000Y-103502560D01*
X91368428Y-103502560D01*
X90473587Y-102607720D01*
X90427001Y-102537999D01*
X90156275Y-102357106D01*
X90072809Y-102232191D01*
X89862765Y-102091843D01*
X89615000Y-102042560D01*
X89595059Y-102042560D01*
X89780000Y-101857619D01*
X90037945Y-102115564D01*
X90519425Y-102315000D01*
X91040575Y-102315000D01*
X91522055Y-102115564D01*
X91890564Y-101747055D01*
X92044828Y-101374630D01*
X92159671Y-101489473D01*
X92202071Y-101552929D01*
X92265527Y-101595329D01*
X92453462Y-101720904D01*
X92501605Y-101730480D01*
X92675148Y-101765000D01*
X92675152Y-101765000D01*
X92750000Y-101779888D01*
X92824848Y-101765000D01*
X93687381Y-101765000D01*
X94037945Y-102115564D01*
X94519425Y-102315000D01*
X95040575Y-102315000D01*
X95522055Y-102115564D01*
X95780000Y-101857619D01*
X96037945Y-102115564D01*
X96519425Y-102315000D01*
X97040575Y-102315000D01*
X97522055Y-102115564D01*
X97890564Y-101747055D01*
X98090000Y-101265575D01*
X98090000Y-100744425D01*
X97890564Y-100262945D01*
X97522055Y-99894436D01*
X97040575Y-99695000D01*
X96544801Y-99695000D01*
X96060331Y-99210530D01*
X96017929Y-99147071D01*
X95766537Y-98979096D01*
X95544852Y-98935000D01*
X95544847Y-98935000D01*
X95470000Y-98920112D01*
X95395153Y-98935000D01*
X93024802Y-98935000D01*
X92835000Y-98745199D01*
X92835000Y-96785750D01*
X93990000Y-96785750D01*
X93990000Y-97376309D01*
X94086673Y-97609698D01*
X94265301Y-97788327D01*
X94498690Y-97885000D01*
X94964250Y-97885000D01*
X95123000Y-97726250D01*
X95123000Y-96627000D01*
X95377000Y-96627000D01*
X95377000Y-97726250D01*
X95535750Y-97885000D01*
X96001310Y-97885000D01*
X96234699Y-97788327D01*
X96413327Y-97609698D01*
X96510000Y-97376309D01*
X96510000Y-96785750D01*
X96351250Y-96627000D01*
X95377000Y-96627000D01*
X95123000Y-96627000D01*
X94148750Y-96627000D01*
X93990000Y-96785750D01*
X92835000Y-96785750D01*
X92835000Y-92658652D01*
X93030000Y-92697440D01*
X94308995Y-92697440D01*
X94167191Y-92792191D01*
X94026843Y-93002235D01*
X93977560Y-93250000D01*
X93977560Y-94750000D01*
X94026843Y-94997765D01*
X94167191Y-95207809D01*
X94228320Y-95248654D01*
X94086673Y-95390302D01*
X93990000Y-95623691D01*
X93990000Y-96214250D01*
X94148750Y-96373000D01*
X95123000Y-96373000D01*
X95123000Y-96353000D01*
X95377000Y-96353000D01*
X95377000Y-96373000D01*
X96351250Y-96373000D01*
X96396691Y-96327559D01*
X98161417Y-98092286D01*
X98207999Y-98162001D01*
X98277714Y-98208583D01*
X98277715Y-98208584D01*
X98428298Y-98309200D01*
X98484199Y-98346552D01*
X98727763Y-98395000D01*
X98727766Y-98395000D01*
X98809999Y-98411357D01*
X98892232Y-98395000D01*
X99352381Y-98395000D01*
X99627945Y-98670564D01*
X100109425Y-98870000D01*
X100630575Y-98870000D01*
X101112055Y-98670564D01*
X101480564Y-98302055D01*
X101680000Y-97820575D01*
X101680000Y-97299425D01*
X101480564Y-96817945D01*
X101112055Y-96449436D01*
X101057045Y-96426650D01*
X100370000Y-95739605D01*
X99682955Y-96426650D01*
X99627945Y-96449436D01*
X99352381Y-96725000D01*
X99155869Y-96725000D01*
X97803968Y-95373100D01*
X99047478Y-95373100D01*
X99076625Y-95893434D01*
X99219672Y-96238781D01*
X99452853Y-96297542D01*
X100190395Y-95560000D01*
X100549605Y-95560000D01*
X101287147Y-96297542D01*
X101520328Y-96238781D01*
X101692522Y-95746900D01*
X101663375Y-95226566D01*
X101520328Y-94881219D01*
X101287147Y-94822458D01*
X100549605Y-95560000D01*
X100190395Y-95560000D01*
X99452853Y-94822458D01*
X99219672Y-94881219D01*
X99047478Y-95373100D01*
X97803968Y-95373100D01*
X96522440Y-94091573D01*
X96522440Y-93484403D01*
X96594848Y-93470000D01*
X97227710Y-93470000D01*
X97260365Y-93502655D01*
X97604017Y-93645000D01*
X97975983Y-93645000D01*
X98319635Y-93502655D01*
X98352290Y-93470000D01*
X99060000Y-93470000D01*
X99060000Y-93820575D01*
X99259436Y-94302055D01*
X99627945Y-94670564D01*
X99682955Y-94693350D01*
X100370000Y-95380395D01*
X101057045Y-94693350D01*
X101112055Y-94670564D01*
X101480564Y-94302055D01*
X101680000Y-93820575D01*
X101680000Y-93299425D01*
X101480564Y-92817945D01*
X101222619Y-92560000D01*
X101480564Y-92302055D01*
X101680000Y-91820575D01*
X101680000Y-91299425D01*
X101480564Y-90817945D01*
X101222619Y-90560000D01*
X101480564Y-90302055D01*
X101680000Y-89820575D01*
X101680000Y-89299425D01*
X101480564Y-88817945D01*
X101112055Y-88449436D01*
X100630575Y-88250000D01*
X100109425Y-88250000D01*
X99627945Y-88449436D01*
X99409606Y-88667775D01*
X99290617Y-88618488D01*
X99360000Y-88450983D01*
X99360000Y-88079017D01*
X99217655Y-87735365D01*
X98954635Y-87472345D01*
X98610983Y-87330000D01*
X98564801Y-87330000D01*
X98380331Y-87145530D01*
X98337929Y-87082071D01*
X98086537Y-86914096D01*
X97864852Y-86870000D01*
X97864847Y-86870000D01*
X97790000Y-86855112D01*
X97715153Y-86870000D01*
X96199801Y-86870000D01*
X96120331Y-86790530D01*
X96077929Y-86727071D01*
X95826537Y-86559096D01*
X95604852Y-86515000D01*
X95604847Y-86515000D01*
X95530000Y-86500112D01*
X95455153Y-86515000D01*
X95127440Y-86515000D01*
X95127440Y-86400000D01*
X95113502Y-86329927D01*
X95115000Y-86326310D01*
X95115000Y-86246250D01*
X95092353Y-86223603D01*
X95078157Y-86152235D01*
X94937809Y-85942191D01*
X94818544Y-85862500D01*
X94956250Y-85862500D01*
X95115000Y-85703750D01*
X95115000Y-85623690D01*
X95018327Y-85390301D01*
X94839698Y-85211673D01*
X94606309Y-85115000D01*
X94040750Y-85115000D01*
X93882000Y-85273750D01*
X93882000Y-85752560D01*
X93628000Y-85752560D01*
X93628000Y-85273750D01*
X93469250Y-85115000D01*
X92903691Y-85115000D01*
X92670302Y-85211673D01*
X92491673Y-85390301D01*
X92395000Y-85623690D01*
X92395000Y-85703750D01*
X92553750Y-85862500D01*
X92691456Y-85862500D01*
X92572191Y-85942191D01*
X92431843Y-86152235D01*
X92417647Y-86223603D01*
X92395000Y-86246250D01*
X92395000Y-86326310D01*
X92396498Y-86329927D01*
X92382560Y-86400000D01*
X92382560Y-86850000D01*
X92402451Y-86950000D01*
X92382560Y-87050000D01*
X92382560Y-87497758D01*
X91675331Y-86790529D01*
X91632929Y-86727071D01*
X91381537Y-86559096D01*
X91159852Y-86515000D01*
X91159847Y-86515000D01*
X91085000Y-86500112D01*
X91010153Y-86515000D01*
X89227440Y-86515000D01*
X89227440Y-86400000D01*
X89207549Y-86300000D01*
X89227440Y-86200000D01*
X89227440Y-85750000D01*
X89178157Y-85502235D01*
X89037809Y-85292191D01*
X88827765Y-85151843D01*
X88580000Y-85102560D01*
X87130000Y-85102560D01*
X86941774Y-85140000D01*
X86827232Y-85140000D01*
X86744999Y-85123643D01*
X86662766Y-85140000D01*
X86662763Y-85140000D01*
X86419199Y-85188448D01*
X86142999Y-85372999D01*
X86096413Y-85442720D01*
X85827720Y-85711413D01*
X85757999Y-85757999D01*
X85573448Y-86034200D01*
X85525000Y-86277764D01*
X85525000Y-86277767D01*
X85508643Y-86360000D01*
X85525000Y-86442233D01*
X85525000Y-86900000D01*
X85375750Y-86900000D01*
X85217000Y-87058750D01*
X85217000Y-88158000D01*
X85237000Y-88158000D01*
X85237000Y-88412000D01*
X85217000Y-88412000D01*
X85217000Y-88432000D01*
X84963000Y-88432000D01*
X84963000Y-88412000D01*
X83988750Y-88412000D01*
X83830000Y-88570750D01*
X83830000Y-89161309D01*
X83926673Y-89394698D01*
X84068320Y-89536346D01*
X84007191Y-89577191D01*
X83866843Y-89787235D01*
X83817560Y-90035000D01*
X83817560Y-91535000D01*
X83866843Y-91782765D01*
X84007191Y-91992809D01*
X84217235Y-92133157D01*
X84255000Y-92140669D01*
X84255000Y-92564132D01*
X83287720Y-93531413D01*
X83217999Y-93577999D01*
X83033448Y-93854200D01*
X82985000Y-94097764D01*
X82985000Y-94097767D01*
X82968643Y-94180000D01*
X82985000Y-94262234D01*
X82985000Y-94520000D01*
X82835750Y-94520000D01*
X82677000Y-94678750D01*
X82677000Y-95778000D01*
X82697000Y-95778000D01*
X82697000Y-96032000D01*
X82677000Y-96032000D01*
X82677000Y-96052000D01*
X82423000Y-96052000D01*
X82423000Y-96032000D01*
X82403000Y-96032000D01*
X82403000Y-95778000D01*
X82423000Y-95778000D01*
X82423000Y-94678750D01*
X82264250Y-94520000D01*
X81798690Y-94520000D01*
X81685000Y-94567092D01*
X81685000Y-94067466D01*
X81721376Y-93884591D01*
X81786751Y-93786750D01*
X81884590Y-93721376D01*
X82133636Y-93671838D01*
X82516319Y-93595718D01*
X82763248Y-93493437D01*
X82763249Y-93493436D01*
X83087672Y-93276664D01*
X83276664Y-93087672D01*
X83493437Y-92763249D01*
X83551559Y-92622929D01*
X83595718Y-92516319D01*
X83671838Y-92133636D01*
X83671838Y-92133632D01*
X83685000Y-92067462D01*
X83685000Y-87408691D01*
X83830000Y-87408691D01*
X83830000Y-87999250D01*
X83988750Y-88158000D01*
X84963000Y-88158000D01*
X84963000Y-87058750D01*
X84804250Y-86900000D01*
X84338690Y-86900000D01*
X84105301Y-86996673D01*
X83926673Y-87175302D01*
X83830000Y-87408691D01*
X83685000Y-87408691D01*
X83685000Y-86932538D01*
X83671838Y-86866368D01*
X83671838Y-86866364D01*
X83595718Y-86483681D01*
X83510425Y-86277764D01*
X83493437Y-86236751D01*
X83276664Y-85912328D01*
X83087672Y-85723336D01*
X82763248Y-85506563D01*
X82732570Y-85493856D01*
X82516319Y-85404282D01*
X82133636Y-85328162D01*
X81884590Y-85278624D01*
X81786751Y-85213250D01*
X81721376Y-85115409D01*
X81685000Y-84932534D01*
X81685000Y-81025412D01*
X81756233Y-80066863D01*
X81962742Y-79154225D01*
X82242011Y-78436083D01*
X83665000Y-78436083D01*
X83665000Y-79563917D01*
X84096603Y-80605899D01*
X84894101Y-81403397D01*
X85936083Y-81835000D01*
X87063917Y-81835000D01*
X87540898Y-81637428D01*
X87412328Y-81723336D01*
X87223336Y-81912328D01*
X87006564Y-82236751D01*
X87006563Y-82236752D01*
X86904282Y-82483681D01*
X86828162Y-82866364D01*
X86828162Y-83133636D01*
X86904282Y-83516319D01*
X86993921Y-83732727D01*
X87006563Y-83763248D01*
X87223336Y-84087672D01*
X87412328Y-84276664D01*
X87736751Y-84493437D01*
X87839032Y-84535803D01*
X87983681Y-84595718D01*
X88366364Y-84671838D01*
X88366368Y-84671838D01*
X88432538Y-84685000D01*
X93067462Y-84685000D01*
X93133632Y-84671838D01*
X93133636Y-84671838D01*
X93516319Y-84595718D01*
X93763248Y-84493437D01*
X93763249Y-84493436D01*
X94087672Y-84276664D01*
X94276664Y-84087672D01*
X94493437Y-83763249D01*
X94535803Y-83660968D01*
X94595718Y-83516319D01*
X94638860Y-83299425D01*
X99060000Y-83299425D01*
X99060000Y-83820575D01*
X99259436Y-84302055D01*
X99517381Y-84560000D01*
X99259436Y-84817945D01*
X99060000Y-85299425D01*
X99060000Y-85820575D01*
X99259436Y-86302055D01*
X99627945Y-86670564D01*
X100109425Y-86870000D01*
X100630575Y-86870000D01*
X101112055Y-86670564D01*
X101480564Y-86302055D01*
X101680000Y-85820575D01*
X101680000Y-85299425D01*
X101480564Y-84817945D01*
X101222619Y-84560000D01*
X101480564Y-84302055D01*
X101680000Y-83820575D01*
X101680000Y-83299425D01*
X101480564Y-82817945D01*
X101112055Y-82449436D01*
X100630575Y-82250000D01*
X100109425Y-82250000D01*
X99627945Y-82449436D01*
X99259436Y-82817945D01*
X99060000Y-83299425D01*
X94638860Y-83299425D01*
X94671838Y-83133636D01*
X94671838Y-82866364D01*
X94595718Y-82483681D01*
X94506079Y-82267273D01*
X94493437Y-82236751D01*
X94276664Y-81912328D01*
X94087672Y-81723336D01*
X93763248Y-81506563D01*
X93744830Y-81498934D01*
X93516319Y-81404282D01*
X93133636Y-81328162D01*
X93133632Y-81328162D01*
X93067462Y-81315000D01*
X88432538Y-81315000D01*
X88366368Y-81328162D01*
X88366364Y-81328162D01*
X88135141Y-81374155D01*
X88903397Y-80605899D01*
X89265422Y-79731892D01*
X91903514Y-79731892D01*
X92149817Y-80256358D01*
X92578076Y-80646645D01*
X92988110Y-80816476D01*
X93218000Y-80695155D01*
X93218000Y-79502000D01*
X92024181Y-79502000D01*
X91903514Y-79731892D01*
X89265422Y-79731892D01*
X89335000Y-79563917D01*
X89335000Y-78436083D01*
X88903397Y-77394101D01*
X88344296Y-76835000D01*
X91830908Y-76835000D01*
X91946161Y-77414418D01*
X92274375Y-77905625D01*
X92574786Y-78106353D01*
X92149817Y-78493642D01*
X91903514Y-79018108D01*
X92024181Y-79248000D01*
X93218000Y-79248000D01*
X93218000Y-79228000D01*
X93472000Y-79228000D01*
X93472000Y-79248000D01*
X93492000Y-79248000D01*
X93492000Y-79502000D01*
X93472000Y-79502000D01*
X93472000Y-80695155D01*
X93701890Y-80816476D01*
X94111924Y-80646645D01*
X94540183Y-80256358D01*
X94601157Y-80126522D01*
X94814375Y-80445625D01*
X95305582Y-80773839D01*
X95640696Y-80840497D01*
X96670527Y-81870329D01*
X96670530Y-81870331D01*
X96855000Y-82054801D01*
X96855000Y-82100983D01*
X96997345Y-82444635D01*
X97260365Y-82707655D01*
X97604017Y-82850000D01*
X97975983Y-82850000D01*
X98319635Y-82707655D01*
X98582655Y-82444635D01*
X98725000Y-82100983D01*
X98725000Y-81729017D01*
X98582655Y-81385365D01*
X98319635Y-81122345D01*
X97975983Y-80980000D01*
X97929801Y-80980000D01*
X97745331Y-80795530D01*
X97745329Y-80795527D01*
X97478092Y-80528290D01*
X97845582Y-80773839D01*
X98278744Y-80860000D01*
X98571256Y-80860000D01*
X99004418Y-80773839D01*
X99495625Y-80445625D01*
X99539474Y-80380000D01*
X105132560Y-80380000D01*
X105132560Y-82180000D01*
X105181843Y-82427765D01*
X105322191Y-82637809D01*
X105532235Y-82778157D01*
X105780000Y-82827440D01*
X107580000Y-82827440D01*
X107827765Y-82778157D01*
X108037809Y-82637809D01*
X108170058Y-82439886D01*
X108204890Y-82474718D01*
X108319447Y-82360161D01*
X108405852Y-82616643D01*
X108979336Y-82826458D01*
X109589460Y-82800839D01*
X110034148Y-82616643D01*
X110120554Y-82360159D01*
X109220000Y-81459605D01*
X109205858Y-81473748D01*
X109026253Y-81294143D01*
X109040395Y-81280000D01*
X109399605Y-81280000D01*
X110300159Y-82180554D01*
X110450562Y-82129885D01*
X110458690Y-82149507D01*
X110890493Y-82581310D01*
X111454670Y-82815000D01*
X112065330Y-82815000D01*
X112629507Y-82581310D01*
X113061310Y-82149507D01*
X113295000Y-81585330D01*
X113295000Y-80974670D01*
X113061310Y-80410493D01*
X112629507Y-79978690D01*
X112065330Y-79745000D01*
X111454670Y-79745000D01*
X110890493Y-79978690D01*
X110458690Y-80410493D01*
X110450562Y-80430115D01*
X110300159Y-80379446D01*
X109399605Y-81280000D01*
X109040395Y-81280000D01*
X109026253Y-81265858D01*
X109205858Y-81086253D01*
X109220000Y-81100395D01*
X110120554Y-80199841D01*
X110034148Y-79943357D01*
X109460664Y-79733542D01*
X108850540Y-79759161D01*
X108405852Y-79943357D01*
X108319447Y-80199839D01*
X108204890Y-80085282D01*
X108170058Y-80120114D01*
X108037809Y-79922191D01*
X107827765Y-79781843D01*
X107580000Y-79732560D01*
X105780000Y-79732560D01*
X105532235Y-79781843D01*
X105322191Y-79922191D01*
X105181843Y-80132235D01*
X105132560Y-80380000D01*
X99539474Y-80380000D01*
X99823839Y-79954418D01*
X99939092Y-79375000D01*
X99823839Y-78795582D01*
X99495625Y-78304375D01*
X99477381Y-78292184D01*
X99522765Y-78283157D01*
X99732809Y-78142809D01*
X99873157Y-77932765D01*
X99922440Y-77685000D01*
X99922440Y-75985000D01*
X99873157Y-75737235D01*
X99732809Y-75527191D01*
X99522765Y-75386843D01*
X99275000Y-75337560D01*
X97575000Y-75337560D01*
X97327235Y-75386843D01*
X97117191Y-75527191D01*
X96976843Y-75737235D01*
X96967816Y-75782619D01*
X96955625Y-75764375D01*
X96464418Y-75436161D01*
X96031256Y-75350000D01*
X95738744Y-75350000D01*
X95305582Y-75436161D01*
X94814375Y-75764375D01*
X94615000Y-76062761D01*
X94415625Y-75764375D01*
X93924418Y-75436161D01*
X93491256Y-75350000D01*
X93198744Y-75350000D01*
X92765582Y-75436161D01*
X92274375Y-75764375D01*
X91946161Y-76255582D01*
X91830908Y-76835000D01*
X88344296Y-76835000D01*
X88105899Y-76596603D01*
X87063917Y-76165000D01*
X85936083Y-76165000D01*
X84894101Y-76596603D01*
X84096603Y-77394101D01*
X83665000Y-78436083D01*
X82242011Y-78436083D01*
X82301878Y-78282136D01*
X82766193Y-77469755D01*
X83345487Y-76734925D01*
X84027032Y-76093789D01*
X84795853Y-75560440D01*
X85635067Y-75146585D01*
X86526235Y-74861320D01*
X87460144Y-74709223D01*
X88014946Y-74685000D01*
X122932534Y-74685000D01*
X123063000Y-74710951D01*
G36*
X103968524Y-132993110D02*
X104089845Y-133223000D01*
X105283000Y-133223000D01*
X105283000Y-133203000D01*
X105537000Y-133203000D01*
X105537000Y-133223000D01*
X106730155Y-133223000D01*
X106851476Y-132993110D01*
X106788888Y-132842000D01*
X107188000Y-132842000D01*
X107188000Y-135890000D01*
X107197667Y-135938601D01*
X107225197Y-135979803D01*
X107266399Y-136007333D01*
X107315000Y-136017000D01*
X108517560Y-136017000D01*
X108517560Y-136390000D01*
X108566843Y-136637765D01*
X108576299Y-136651916D01*
X108530000Y-136763691D01*
X108530000Y-137104250D01*
X108688750Y-137263000D01*
X110288000Y-137263000D01*
X110288000Y-137243000D01*
X110542000Y-137243000D01*
X110542000Y-137263000D01*
X110562000Y-137263000D01*
X110562000Y-137517000D01*
X110542000Y-137517000D01*
X110542000Y-138366250D01*
X110700750Y-138525000D01*
X111633000Y-138525000D01*
X111633000Y-140135000D01*
X107397237Y-140135000D01*
X107315000Y-140118642D01*
X107232763Y-140135000D01*
X106989199Y-140183448D01*
X106712999Y-140367999D01*
X106677298Y-140421430D01*
X106058587Y-139802720D01*
X106049303Y-139788825D01*
X106480625Y-139500625D01*
X106808839Y-139009418D01*
X106924092Y-138430000D01*
X106808839Y-137850582D01*
X106692021Y-137675750D01*
X108530000Y-137675750D01*
X108530000Y-138016309D01*
X108626673Y-138249698D01*
X108805301Y-138428327D01*
X109038690Y-138525000D01*
X110129250Y-138525000D01*
X110288000Y-138366250D01*
X110288000Y-137517000D01*
X108688750Y-137517000D01*
X108530000Y-137675750D01*
X106692021Y-137675750D01*
X106480625Y-137359375D01*
X106182239Y-137160000D01*
X106480625Y-136960625D01*
X106808839Y-136469418D01*
X106924092Y-135890000D01*
X106808839Y-135310582D01*
X106480625Y-134819375D01*
X106161522Y-134606157D01*
X106291358Y-134545183D01*
X106681645Y-134116924D01*
X106851476Y-133706890D01*
X106730155Y-133477000D01*
X105537000Y-133477000D01*
X105537000Y-133497000D01*
X105283000Y-133497000D01*
X105283000Y-133477000D01*
X104089845Y-133477000D01*
X103968524Y-133706890D01*
X104138355Y-134116924D01*
X104528642Y-134545183D01*
X104658478Y-134606157D01*
X104339375Y-134819375D01*
X104011161Y-135310582D01*
X103895908Y-135890000D01*
X104011161Y-136469418D01*
X104339375Y-136960625D01*
X104637761Y-137160000D01*
X104339375Y-137359375D01*
X104011161Y-137850582D01*
X103895908Y-138430000D01*
X104011161Y-139009418D01*
X104338957Y-139500000D01*
X101401043Y-139500000D01*
X101728839Y-139009418D01*
X101844092Y-138430000D01*
X101728839Y-137850582D01*
X101400625Y-137359375D01*
X101102239Y-137160000D01*
X101400625Y-136960625D01*
X101728839Y-136469418D01*
X101844092Y-135890000D01*
X101728839Y-135310582D01*
X101400625Y-134819375D01*
X101081522Y-134606157D01*
X101211358Y-134545183D01*
X101601645Y-134116924D01*
X101771476Y-133706890D01*
X101650155Y-133477000D01*
X100457000Y-133477000D01*
X100457000Y-133497000D01*
X100203000Y-133497000D01*
X100203000Y-133477000D01*
X100183000Y-133477000D01*
X100183000Y-133223000D01*
X100203000Y-133223000D01*
X100203000Y-133203000D01*
X100457000Y-133203000D01*
X100457000Y-133223000D01*
X101650155Y-133223000D01*
X101771476Y-132993110D01*
X101708888Y-132842000D01*
X104031112Y-132842000D01*
X103968524Y-132993110D01*
X103968524Y-132993110D01*
G37*
X103968524Y-132993110D02*
X104089845Y-133223000D01*
X105283000Y-133223000D01*
X105283000Y-133203000D01*
X105537000Y-133203000D01*
X105537000Y-133223000D01*
X106730155Y-133223000D01*
X106851476Y-132993110D01*
X106788888Y-132842000D01*
X107188000Y-132842000D01*
X107188000Y-135890000D01*
X107197667Y-135938601D01*
X107225197Y-135979803D01*
X107266399Y-136007333D01*
X107315000Y-136017000D01*
X108517560Y-136017000D01*
X108517560Y-136390000D01*
X108566843Y-136637765D01*
X108576299Y-136651916D01*
X108530000Y-136763691D01*
X108530000Y-137104250D01*
X108688750Y-137263000D01*
X110288000Y-137263000D01*
X110288000Y-137243000D01*
X110542000Y-137243000D01*
X110542000Y-137263000D01*
X110562000Y-137263000D01*
X110562000Y-137517000D01*
X110542000Y-137517000D01*
X110542000Y-138366250D01*
X110700750Y-138525000D01*
X111633000Y-138525000D01*
X111633000Y-140135000D01*
X107397237Y-140135000D01*
X107315000Y-140118642D01*
X107232763Y-140135000D01*
X106989199Y-140183448D01*
X106712999Y-140367999D01*
X106677298Y-140421430D01*
X106058587Y-139802720D01*
X106049303Y-139788825D01*
X106480625Y-139500625D01*
X106808839Y-139009418D01*
X106924092Y-138430000D01*
X106808839Y-137850582D01*
X106692021Y-137675750D01*
X108530000Y-137675750D01*
X108530000Y-138016309D01*
X108626673Y-138249698D01*
X108805301Y-138428327D01*
X109038690Y-138525000D01*
X110129250Y-138525000D01*
X110288000Y-138366250D01*
X110288000Y-137517000D01*
X108688750Y-137517000D01*
X108530000Y-137675750D01*
X106692021Y-137675750D01*
X106480625Y-137359375D01*
X106182239Y-137160000D01*
X106480625Y-136960625D01*
X106808839Y-136469418D01*
X106924092Y-135890000D01*
X106808839Y-135310582D01*
X106480625Y-134819375D01*
X106161522Y-134606157D01*
X106291358Y-134545183D01*
X106681645Y-134116924D01*
X106851476Y-133706890D01*
X106730155Y-133477000D01*
X105537000Y-133477000D01*
X105537000Y-133497000D01*
X105283000Y-133497000D01*
X105283000Y-133477000D01*
X104089845Y-133477000D01*
X103968524Y-133706890D01*
X104138355Y-134116924D01*
X104528642Y-134545183D01*
X104658478Y-134606157D01*
X104339375Y-134819375D01*
X104011161Y-135310582D01*
X103895908Y-135890000D01*
X104011161Y-136469418D01*
X104339375Y-136960625D01*
X104637761Y-137160000D01*
X104339375Y-137359375D01*
X104011161Y-137850582D01*
X103895908Y-138430000D01*
X104011161Y-139009418D01*
X104338957Y-139500000D01*
X101401043Y-139500000D01*
X101728839Y-139009418D01*
X101844092Y-138430000D01*
X101728839Y-137850582D01*
X101400625Y-137359375D01*
X101102239Y-137160000D01*
X101400625Y-136960625D01*
X101728839Y-136469418D01*
X101844092Y-135890000D01*
X101728839Y-135310582D01*
X101400625Y-134819375D01*
X101081522Y-134606157D01*
X101211358Y-134545183D01*
X101601645Y-134116924D01*
X101771476Y-133706890D01*
X101650155Y-133477000D01*
X100457000Y-133477000D01*
X100457000Y-133497000D01*
X100203000Y-133497000D01*
X100203000Y-133477000D01*
X100183000Y-133477000D01*
X100183000Y-133223000D01*
X100203000Y-133223000D01*
X100203000Y-133203000D01*
X100457000Y-133203000D01*
X100457000Y-133223000D01*
X101650155Y-133223000D01*
X101771476Y-132993110D01*
X101708888Y-132842000D01*
X104031112Y-132842000D01*
X103968524Y-132993110D01*
G36*
X86482560Y-92050000D02*
X86531843Y-92297765D01*
X86672191Y-92507809D01*
X86882235Y-92648157D01*
X87130000Y-92697440D01*
X88580000Y-92697440D01*
X88775000Y-92658652D01*
X88775001Y-95810148D01*
X88775000Y-98745198D01*
X88585199Y-98935000D01*
X88339848Y-98935000D01*
X88265000Y-98920112D01*
X88190152Y-98935000D01*
X88190148Y-98935000D01*
X88016605Y-98969520D01*
X87968462Y-98979096D01*
X87847380Y-99060001D01*
X87717071Y-99147071D01*
X87674671Y-99210527D01*
X87146375Y-99738824D01*
X87040575Y-99695000D01*
X86519425Y-99695000D01*
X86037945Y-99894436D01*
X85669436Y-100262945D01*
X85646650Y-100317955D01*
X84959605Y-101005000D01*
X85646650Y-101692045D01*
X85669436Y-101747055D01*
X86037945Y-102115564D01*
X86427345Y-102276859D01*
X86316843Y-102442235D01*
X86267560Y-102690000D01*
X86267560Y-103006572D01*
X85771573Y-103502560D01*
X84683428Y-103502560D01*
X84335000Y-103154133D01*
X84335000Y-102237168D01*
X84593100Y-102327522D01*
X85113434Y-102298375D01*
X85458781Y-102155328D01*
X85517542Y-101922147D01*
X84780000Y-101184605D01*
X84765858Y-101198748D01*
X84586253Y-101019143D01*
X84600395Y-101005000D01*
X84586253Y-100990858D01*
X84765858Y-100811253D01*
X84780000Y-100825395D01*
X85517542Y-100087853D01*
X85458781Y-99854672D01*
X85309578Y-99802440D01*
X85715000Y-99802440D01*
X85962765Y-99753157D01*
X86172809Y-99612809D01*
X86313157Y-99402765D01*
X86362440Y-99155000D01*
X86362440Y-97655000D01*
X86313157Y-97407235D01*
X86172809Y-97197191D01*
X86111680Y-97156346D01*
X86253327Y-97014698D01*
X86350000Y-96781309D01*
X86350000Y-96190750D01*
X86191250Y-96032000D01*
X85217000Y-96032000D01*
X85217000Y-96052000D01*
X84963000Y-96052000D01*
X84963000Y-96032000D01*
X84943000Y-96032000D01*
X84943000Y-95778000D01*
X84963000Y-95778000D01*
X84963000Y-94678750D01*
X85217000Y-94678750D01*
X85217000Y-95778000D01*
X86191250Y-95778000D01*
X86350000Y-95619250D01*
X86350000Y-95028691D01*
X86253327Y-94795302D01*
X86074699Y-94616673D01*
X85841310Y-94520000D01*
X85375750Y-94520000D01*
X85217000Y-94678750D01*
X84963000Y-94678750D01*
X84804250Y-94520000D01*
X84660867Y-94520000D01*
X85622283Y-93558585D01*
X85692001Y-93512001D01*
X85876552Y-93235801D01*
X85925000Y-92992237D01*
X85925000Y-92992234D01*
X85941357Y-92910001D01*
X85925000Y-92827768D01*
X85925000Y-92140669D01*
X85962765Y-92133157D01*
X86147081Y-92010000D01*
X86482560Y-92010000D01*
X86482560Y-92050000D01*
X86482560Y-92050000D01*
G37*
X86482560Y-92050000D02*
X86531843Y-92297765D01*
X86672191Y-92507809D01*
X86882235Y-92648157D01*
X87130000Y-92697440D01*
X88580000Y-92697440D01*
X88775000Y-92658652D01*
X88775001Y-95810148D01*
X88775000Y-98745198D01*
X88585199Y-98935000D01*
X88339848Y-98935000D01*
X88265000Y-98920112D01*
X88190152Y-98935000D01*
X88190148Y-98935000D01*
X88016605Y-98969520D01*
X87968462Y-98979096D01*
X87847380Y-99060001D01*
X87717071Y-99147071D01*
X87674671Y-99210527D01*
X87146375Y-99738824D01*
X87040575Y-99695000D01*
X86519425Y-99695000D01*
X86037945Y-99894436D01*
X85669436Y-100262945D01*
X85646650Y-100317955D01*
X84959605Y-101005000D01*
X85646650Y-101692045D01*
X85669436Y-101747055D01*
X86037945Y-102115564D01*
X86427345Y-102276859D01*
X86316843Y-102442235D01*
X86267560Y-102690000D01*
X86267560Y-103006572D01*
X85771573Y-103502560D01*
X84683428Y-103502560D01*
X84335000Y-103154133D01*
X84335000Y-102237168D01*
X84593100Y-102327522D01*
X85113434Y-102298375D01*
X85458781Y-102155328D01*
X85517542Y-101922147D01*
X84780000Y-101184605D01*
X84765858Y-101198748D01*
X84586253Y-101019143D01*
X84600395Y-101005000D01*
X84586253Y-100990858D01*
X84765858Y-100811253D01*
X84780000Y-100825395D01*
X85517542Y-100087853D01*
X85458781Y-99854672D01*
X85309578Y-99802440D01*
X85715000Y-99802440D01*
X85962765Y-99753157D01*
X86172809Y-99612809D01*
X86313157Y-99402765D01*
X86362440Y-99155000D01*
X86362440Y-97655000D01*
X86313157Y-97407235D01*
X86172809Y-97197191D01*
X86111680Y-97156346D01*
X86253327Y-97014698D01*
X86350000Y-96781309D01*
X86350000Y-96190750D01*
X86191250Y-96032000D01*
X85217000Y-96032000D01*
X85217000Y-96052000D01*
X84963000Y-96052000D01*
X84963000Y-96032000D01*
X84943000Y-96032000D01*
X84943000Y-95778000D01*
X84963000Y-95778000D01*
X84963000Y-94678750D01*
X85217000Y-94678750D01*
X85217000Y-95778000D01*
X86191250Y-95778000D01*
X86350000Y-95619250D01*
X86350000Y-95028691D01*
X86253327Y-94795302D01*
X86074699Y-94616673D01*
X85841310Y-94520000D01*
X85375750Y-94520000D01*
X85217000Y-94678750D01*
X84963000Y-94678750D01*
X84804250Y-94520000D01*
X84660867Y-94520000D01*
X85622283Y-93558585D01*
X85692001Y-93512001D01*
X85876552Y-93235801D01*
X85925000Y-92992237D01*
X85925000Y-92992234D01*
X85941357Y-92910001D01*
X85925000Y-92827768D01*
X85925000Y-92140669D01*
X85962765Y-92133157D01*
X86147081Y-92010000D01*
X86482560Y-92010000D01*
X86482560Y-92050000D01*
G04 #@! TO.N,Net-(C11-Pad1)*
G36*
X117577716Y-129553584D02*
X117577719Y-129553586D01*
X117983000Y-129958868D01*
X117983000Y-140135000D01*
X117858050Y-140135000D01*
X117842809Y-140112191D01*
X117632765Y-139971843D01*
X117385000Y-139922560D01*
X115485000Y-139922560D01*
X115237235Y-139971843D01*
X115027191Y-140112191D01*
X115011950Y-140135000D01*
X113288000Y-140135000D01*
X113288000Y-139893000D01*
X113308000Y-139893000D01*
X113308000Y-139143750D01*
X113562000Y-139143750D01*
X113562000Y-139893000D01*
X114861250Y-139893000D01*
X115020000Y-139734250D01*
X115020000Y-139493690D01*
X114923327Y-139260301D01*
X114744698Y-139081673D01*
X114511309Y-138985000D01*
X113720750Y-138985000D01*
X113562000Y-139143750D01*
X113308000Y-139143750D01*
X113149250Y-138985000D01*
X112522000Y-138985000D01*
X112522000Y-137525000D01*
X114089250Y-137525000D01*
X114248000Y-137366250D01*
X114248000Y-136017000D01*
X114502000Y-136017000D01*
X114502000Y-137366250D01*
X114660750Y-137525000D01*
X116501310Y-137525000D01*
X116734699Y-137428327D01*
X116913327Y-137249698D01*
X117010000Y-137016309D01*
X117010000Y-136175750D01*
X116851250Y-136017000D01*
X114502000Y-136017000D01*
X114248000Y-136017000D01*
X114228000Y-136017000D01*
X114228000Y-135763000D01*
X114248000Y-135763000D01*
X114248000Y-134413750D01*
X114502000Y-134413750D01*
X114502000Y-135763000D01*
X116851250Y-135763000D01*
X117010000Y-135604250D01*
X117010000Y-134763691D01*
X116913327Y-134530302D01*
X116734699Y-134351673D01*
X116501310Y-134255000D01*
X114660750Y-134255000D01*
X114502000Y-134413750D01*
X114248000Y-134413750D01*
X114089250Y-134255000D01*
X112522000Y-134255000D01*
X112522000Y-133350000D01*
X112512333Y-133301399D01*
X112484803Y-133260197D01*
X111764606Y-132540000D01*
X112109250Y-132540000D01*
X112268000Y-132381250D01*
X112268000Y-131032000D01*
X112522000Y-131032000D01*
X112522000Y-132381250D01*
X112680750Y-132540000D01*
X113321310Y-132540000D01*
X113554699Y-132443327D01*
X113733327Y-132264698D01*
X113830000Y-132031309D01*
X113830000Y-131190750D01*
X113671250Y-131032000D01*
X112522000Y-131032000D01*
X112268000Y-131032000D01*
X112248000Y-131032000D01*
X112248000Y-130778000D01*
X112268000Y-130778000D01*
X112268000Y-129428750D01*
X112522000Y-129428750D01*
X112522000Y-130778000D01*
X113671250Y-130778000D01*
X113830000Y-130619250D01*
X113830000Y-129778691D01*
X113733327Y-129545302D01*
X113554699Y-129366673D01*
X113321310Y-129270000D01*
X112680750Y-129270000D01*
X112522000Y-129428750D01*
X112268000Y-129428750D01*
X112109250Y-129270000D01*
X111468690Y-129270000D01*
X111252000Y-129359756D01*
X111252000Y-129032000D01*
X117056132Y-129032000D01*
X117577716Y-129553584D01*
X117577716Y-129553584D01*
G37*
X117577716Y-129553584D02*
X117577719Y-129553586D01*
X117983000Y-129958868D01*
X117983000Y-140135000D01*
X117858050Y-140135000D01*
X117842809Y-140112191D01*
X117632765Y-139971843D01*
X117385000Y-139922560D01*
X115485000Y-139922560D01*
X115237235Y-139971843D01*
X115027191Y-140112191D01*
X115011950Y-140135000D01*
X113288000Y-140135000D01*
X113288000Y-139893000D01*
X113308000Y-139893000D01*
X113308000Y-139143750D01*
X113562000Y-139143750D01*
X113562000Y-139893000D01*
X114861250Y-139893000D01*
X115020000Y-139734250D01*
X115020000Y-139493690D01*
X114923327Y-139260301D01*
X114744698Y-139081673D01*
X114511309Y-138985000D01*
X113720750Y-138985000D01*
X113562000Y-139143750D01*
X113308000Y-139143750D01*
X113149250Y-138985000D01*
X112522000Y-138985000D01*
X112522000Y-137525000D01*
X114089250Y-137525000D01*
X114248000Y-137366250D01*
X114248000Y-136017000D01*
X114502000Y-136017000D01*
X114502000Y-137366250D01*
X114660750Y-137525000D01*
X116501310Y-137525000D01*
X116734699Y-137428327D01*
X116913327Y-137249698D01*
X117010000Y-137016309D01*
X117010000Y-136175750D01*
X116851250Y-136017000D01*
X114502000Y-136017000D01*
X114248000Y-136017000D01*
X114228000Y-136017000D01*
X114228000Y-135763000D01*
X114248000Y-135763000D01*
X114248000Y-134413750D01*
X114502000Y-134413750D01*
X114502000Y-135763000D01*
X116851250Y-135763000D01*
X117010000Y-135604250D01*
X117010000Y-134763691D01*
X116913327Y-134530302D01*
X116734699Y-134351673D01*
X116501310Y-134255000D01*
X114660750Y-134255000D01*
X114502000Y-134413750D01*
X114248000Y-134413750D01*
X114089250Y-134255000D01*
X112522000Y-134255000D01*
X112522000Y-133350000D01*
X112512333Y-133301399D01*
X112484803Y-133260197D01*
X111764606Y-132540000D01*
X112109250Y-132540000D01*
X112268000Y-132381250D01*
X112268000Y-131032000D01*
X112522000Y-131032000D01*
X112522000Y-132381250D01*
X112680750Y-132540000D01*
X113321310Y-132540000D01*
X113554699Y-132443327D01*
X113733327Y-132264698D01*
X113830000Y-132031309D01*
X113830000Y-131190750D01*
X113671250Y-131032000D01*
X112522000Y-131032000D01*
X112268000Y-131032000D01*
X112248000Y-131032000D01*
X112248000Y-130778000D01*
X112268000Y-130778000D01*
X112268000Y-129428750D01*
X112522000Y-129428750D01*
X112522000Y-130778000D01*
X113671250Y-130778000D01*
X113830000Y-130619250D01*
X113830000Y-129778691D01*
X113733327Y-129545302D01*
X113554699Y-129366673D01*
X113321310Y-129270000D01*
X112680750Y-129270000D01*
X112522000Y-129428750D01*
X112268000Y-129428750D01*
X112109250Y-129270000D01*
X111468690Y-129270000D01*
X111252000Y-129359756D01*
X111252000Y-129032000D01*
X117056132Y-129032000D01*
X117577716Y-129553584D01*
G04 #@! TO.N,VCC*
G36*
X107421673Y-129045302D02*
X107325000Y-129278691D01*
X107325000Y-129869250D01*
X107483750Y-130028000D01*
X108458000Y-130028000D01*
X108458000Y-130008000D01*
X108712000Y-130008000D01*
X108712000Y-130028000D01*
X109686250Y-130028000D01*
X109845000Y-129869250D01*
X109845000Y-129278691D01*
X109748327Y-129045302D01*
X109735025Y-129032000D01*
X110363000Y-129032000D01*
X110363000Y-132715000D01*
X110372667Y-132763601D01*
X110400197Y-132804803D01*
X110850394Y-133255000D01*
X110700750Y-133255000D01*
X110542000Y-133413750D01*
X110542000Y-134263000D01*
X110562000Y-134263000D01*
X110562000Y-134517000D01*
X110542000Y-134517000D01*
X110542000Y-134537000D01*
X110288000Y-134537000D01*
X110288000Y-134517000D01*
X108688750Y-134517000D01*
X108530000Y-134675750D01*
X108530000Y-135016309D01*
X108576264Y-135128000D01*
X108077000Y-135128000D01*
X108077000Y-133763691D01*
X108530000Y-133763691D01*
X108530000Y-134104250D01*
X108688750Y-134263000D01*
X110288000Y-134263000D01*
X110288000Y-133413750D01*
X110129250Y-133255000D01*
X109038690Y-133255000D01*
X108805301Y-133351673D01*
X108626673Y-133530302D01*
X108530000Y-133763691D01*
X108077000Y-133763691D01*
X108077000Y-132080000D01*
X108067333Y-132031399D01*
X108039803Y-131990197D01*
X107998601Y-131962667D01*
X107950000Y-131953000D01*
X106825955Y-131953000D01*
X106895000Y-131786310D01*
X106895000Y-131095750D01*
X106736250Y-130937000D01*
X105537000Y-130937000D01*
X105537000Y-130957000D01*
X105283000Y-130957000D01*
X105283000Y-130937000D01*
X104083750Y-130937000D01*
X103925000Y-131095750D01*
X103925000Y-131786310D01*
X103994045Y-131953000D01*
X103705000Y-131953000D01*
X103705000Y-129833690D01*
X103925000Y-129833690D01*
X103925000Y-130524250D01*
X104083750Y-130683000D01*
X105283000Y-130683000D01*
X105283000Y-129483750D01*
X105537000Y-129483750D01*
X105537000Y-130683000D01*
X106736250Y-130683000D01*
X106895000Y-130524250D01*
X106895000Y-130440750D01*
X107325000Y-130440750D01*
X107325000Y-131031309D01*
X107421673Y-131264698D01*
X107600301Y-131443327D01*
X107833690Y-131540000D01*
X108299250Y-131540000D01*
X108458000Y-131381250D01*
X108458000Y-130282000D01*
X108712000Y-130282000D01*
X108712000Y-131381250D01*
X108870750Y-131540000D01*
X109336310Y-131540000D01*
X109569699Y-131443327D01*
X109748327Y-131264698D01*
X109845000Y-131031309D01*
X109845000Y-130440750D01*
X109686250Y-130282000D01*
X108712000Y-130282000D01*
X108458000Y-130282000D01*
X107483750Y-130282000D01*
X107325000Y-130440750D01*
X106895000Y-130440750D01*
X106895000Y-129833690D01*
X106798327Y-129600301D01*
X106619698Y-129421673D01*
X106386309Y-129325000D01*
X105695750Y-129325000D01*
X105537000Y-129483750D01*
X105283000Y-129483750D01*
X105124250Y-129325000D01*
X104433691Y-129325000D01*
X104200302Y-129421673D01*
X104021673Y-129600301D01*
X103925000Y-129833690D01*
X103705000Y-129833690D01*
X103705000Y-129032000D01*
X107434975Y-129032000D01*
X107421673Y-129045302D01*
X107421673Y-129045302D01*
G37*
X107421673Y-129045302D02*
X107325000Y-129278691D01*
X107325000Y-129869250D01*
X107483750Y-130028000D01*
X108458000Y-130028000D01*
X108458000Y-130008000D01*
X108712000Y-130008000D01*
X108712000Y-130028000D01*
X109686250Y-130028000D01*
X109845000Y-129869250D01*
X109845000Y-129278691D01*
X109748327Y-129045302D01*
X109735025Y-129032000D01*
X110363000Y-129032000D01*
X110363000Y-132715000D01*
X110372667Y-132763601D01*
X110400197Y-132804803D01*
X110850394Y-133255000D01*
X110700750Y-133255000D01*
X110542000Y-133413750D01*
X110542000Y-134263000D01*
X110562000Y-134263000D01*
X110562000Y-134517000D01*
X110542000Y-134517000D01*
X110542000Y-134537000D01*
X110288000Y-134537000D01*
X110288000Y-134517000D01*
X108688750Y-134517000D01*
X108530000Y-134675750D01*
X108530000Y-135016309D01*
X108576264Y-135128000D01*
X108077000Y-135128000D01*
X108077000Y-133763691D01*
X108530000Y-133763691D01*
X108530000Y-134104250D01*
X108688750Y-134263000D01*
X110288000Y-134263000D01*
X110288000Y-133413750D01*
X110129250Y-133255000D01*
X109038690Y-133255000D01*
X108805301Y-133351673D01*
X108626673Y-133530302D01*
X108530000Y-133763691D01*
X108077000Y-133763691D01*
X108077000Y-132080000D01*
X108067333Y-132031399D01*
X108039803Y-131990197D01*
X107998601Y-131962667D01*
X107950000Y-131953000D01*
X106825955Y-131953000D01*
X106895000Y-131786310D01*
X106895000Y-131095750D01*
X106736250Y-130937000D01*
X105537000Y-130937000D01*
X105537000Y-130957000D01*
X105283000Y-130957000D01*
X105283000Y-130937000D01*
X104083750Y-130937000D01*
X103925000Y-131095750D01*
X103925000Y-131786310D01*
X103994045Y-131953000D01*
X103705000Y-131953000D01*
X103705000Y-129833690D01*
X103925000Y-129833690D01*
X103925000Y-130524250D01*
X104083750Y-130683000D01*
X105283000Y-130683000D01*
X105283000Y-129483750D01*
X105537000Y-129483750D01*
X105537000Y-130683000D01*
X106736250Y-130683000D01*
X106895000Y-130524250D01*
X106895000Y-130440750D01*
X107325000Y-130440750D01*
X107325000Y-131031309D01*
X107421673Y-131264698D01*
X107600301Y-131443327D01*
X107833690Y-131540000D01*
X108299250Y-131540000D01*
X108458000Y-131381250D01*
X108458000Y-130282000D01*
X108712000Y-130282000D01*
X108712000Y-131381250D01*
X108870750Y-131540000D01*
X109336310Y-131540000D01*
X109569699Y-131443327D01*
X109748327Y-131264698D01*
X109845000Y-131031309D01*
X109845000Y-130440750D01*
X109686250Y-130282000D01*
X108712000Y-130282000D01*
X108458000Y-130282000D01*
X107483750Y-130282000D01*
X107325000Y-130440750D01*
X106895000Y-130440750D01*
X106895000Y-129833690D01*
X106798327Y-129600301D01*
X106619698Y-129421673D01*
X106386309Y-129325000D01*
X105695750Y-129325000D01*
X105537000Y-129483750D01*
X105283000Y-129483750D01*
X105124250Y-129325000D01*
X104433691Y-129325000D01*
X104200302Y-129421673D01*
X104021673Y-129600301D01*
X103925000Y-129833690D01*
X103705000Y-129833690D01*
X103705000Y-129032000D01*
X107434975Y-129032000D01*
X107421673Y-129045302D01*
G04 #@! TO.N,GND*
G36*
X153933137Y-74756233D02*
X154845775Y-74962742D01*
X155717864Y-75301878D01*
X156530245Y-75766193D01*
X157265075Y-76345487D01*
X157906211Y-77027032D01*
X158439560Y-77795853D01*
X158853415Y-78635067D01*
X159138680Y-79526235D01*
X159290777Y-80460144D01*
X159315000Y-81014946D01*
X159315001Y-144974575D01*
X159243767Y-145933137D01*
X159037258Y-146845775D01*
X158698122Y-147717864D01*
X158233809Y-148530243D01*
X157654513Y-149265075D01*
X156972968Y-149906211D01*
X156204148Y-150439559D01*
X155364931Y-150853416D01*
X154473771Y-151138678D01*
X153539856Y-151290777D01*
X152985054Y-151315000D01*
X127067466Y-151315000D01*
X126884590Y-151278624D01*
X126786751Y-151213250D01*
X126721376Y-151115409D01*
X126671838Y-150866364D01*
X126671838Y-150866363D01*
X126623231Y-150622000D01*
X127000000Y-150622000D01*
X127048601Y-150612333D01*
X127089803Y-150584803D01*
X127117333Y-150543601D01*
X127127000Y-150495000D01*
X127127000Y-150060000D01*
X128822767Y-150060000D01*
X128905000Y-150076357D01*
X128987233Y-150060000D01*
X128987237Y-150060000D01*
X129230801Y-150011552D01*
X129507001Y-149827001D01*
X129553587Y-149757280D01*
X130739289Y-148571579D01*
X130915365Y-148747655D01*
X131259017Y-148890000D01*
X131630983Y-148890000D01*
X131974635Y-148747655D01*
X132237655Y-148484635D01*
X132337656Y-148243212D01*
X133882283Y-146698585D01*
X133952001Y-146652001D01*
X134096272Y-146436083D01*
X151665000Y-146436083D01*
X151665000Y-147563917D01*
X152096603Y-148605899D01*
X152894101Y-149403397D01*
X153936083Y-149835000D01*
X155063917Y-149835000D01*
X156105899Y-149403397D01*
X156903397Y-148605899D01*
X157335000Y-147563917D01*
X157335000Y-146436083D01*
X156903397Y-145394101D01*
X156105899Y-144596603D01*
X155063917Y-144165000D01*
X153936083Y-144165000D01*
X152894101Y-144596603D01*
X152096603Y-145394101D01*
X151665000Y-146436083D01*
X134096272Y-146436083D01*
X134136552Y-146375801D01*
X134185000Y-146132237D01*
X134185000Y-146132236D01*
X134201358Y-146050000D01*
X134185000Y-145967763D01*
X134185000Y-139410867D01*
X134965868Y-138630000D01*
X149166301Y-138630000D01*
X149283466Y-138912862D01*
X149687138Y-139316534D01*
X150214561Y-139535000D01*
X150785439Y-139535000D01*
X151312862Y-139316534D01*
X151716534Y-138912862D01*
X151935000Y-138385439D01*
X151935000Y-137814561D01*
X151716534Y-137287138D01*
X151312862Y-136883466D01*
X150785439Y-136665000D01*
X150214561Y-136665000D01*
X149687138Y-136883466D01*
X149610604Y-136960000D01*
X141080867Y-136960000D01*
X145703213Y-132337655D01*
X145944635Y-132237655D01*
X146207655Y-131974635D01*
X146350000Y-131630983D01*
X146350000Y-131259017D01*
X146207655Y-130915365D01*
X145944635Y-130652345D01*
X145600983Y-130510000D01*
X145229017Y-130510000D01*
X144885365Y-130652345D01*
X144622345Y-130915365D01*
X144522345Y-131156787D01*
X139989133Y-135690000D01*
X132162232Y-135690000D01*
X132079999Y-135673643D01*
X131997766Y-135690000D01*
X131997763Y-135690000D01*
X131754199Y-135738448D01*
X131477999Y-135922999D01*
X131431415Y-135992717D01*
X130277718Y-137146415D01*
X130208000Y-137192999D01*
X130161416Y-137262717D01*
X130023448Y-137469200D01*
X129958643Y-137795000D01*
X129975001Y-137877238D01*
X129975000Y-145704132D01*
X128559133Y-147120000D01*
X127127000Y-147120000D01*
X127127000Y-111085268D01*
X130415000Y-111085268D01*
X130415000Y-111914732D01*
X130732422Y-112681058D01*
X131318942Y-113267578D01*
X132085268Y-113585000D01*
X132914732Y-113585000D01*
X133681058Y-113267578D01*
X134267578Y-112681058D01*
X134585000Y-111914732D01*
X134585000Y-111085268D01*
X148415000Y-111085268D01*
X148415000Y-111914732D01*
X148732422Y-112681058D01*
X149318942Y-113267578D01*
X150085268Y-113585000D01*
X150914732Y-113585000D01*
X151681058Y-113267578D01*
X152267578Y-112681058D01*
X152585000Y-111914732D01*
X152585000Y-111085268D01*
X152267578Y-110318942D01*
X151681058Y-109732422D01*
X150914732Y-109415000D01*
X150085268Y-109415000D01*
X149318942Y-109732422D01*
X148732422Y-110318942D01*
X148415000Y-111085268D01*
X134585000Y-111085268D01*
X134267578Y-110318942D01*
X133681058Y-109732422D01*
X132914732Y-109415000D01*
X132085268Y-109415000D01*
X131318942Y-109732422D01*
X130732422Y-110318942D01*
X130415000Y-111085268D01*
X127127000Y-111085268D01*
X127127000Y-108585000D01*
X137550908Y-108585000D01*
X137666161Y-109164418D01*
X137994375Y-109655625D01*
X138485582Y-109983839D01*
X138918744Y-110070000D01*
X139211256Y-110070000D01*
X139644418Y-109983839D01*
X140135625Y-109655625D01*
X140335000Y-109357239D01*
X140534375Y-109655625D01*
X141025582Y-109983839D01*
X141458744Y-110070000D01*
X141751256Y-110070000D01*
X142184418Y-109983839D01*
X142675625Y-109655625D01*
X142888843Y-109336522D01*
X142949817Y-109466358D01*
X143378076Y-109856645D01*
X143788110Y-110026476D01*
X144018000Y-109905155D01*
X144018000Y-108712000D01*
X143998000Y-108712000D01*
X143998000Y-108458000D01*
X144018000Y-108458000D01*
X144018000Y-107264845D01*
X144272000Y-107264845D01*
X144272000Y-108458000D01*
X144292000Y-108458000D01*
X144292000Y-108712000D01*
X144272000Y-108712000D01*
X144272000Y-109905155D01*
X144501890Y-110026476D01*
X144911924Y-109856645D01*
X145216261Y-109579292D01*
X145236843Y-109682765D01*
X145377191Y-109892809D01*
X145587235Y-110033157D01*
X145835000Y-110082440D01*
X147535000Y-110082440D01*
X147782765Y-110033157D01*
X147992809Y-109892809D01*
X148133157Y-109682765D01*
X148182440Y-109435000D01*
X148182440Y-107735000D01*
X148133157Y-107487235D01*
X147992809Y-107277191D01*
X147782765Y-107136843D01*
X147535000Y-107087560D01*
X145835000Y-107087560D01*
X145587235Y-107136843D01*
X145377191Y-107277191D01*
X145236843Y-107487235D01*
X145216261Y-107590708D01*
X144911924Y-107313355D01*
X144501890Y-107143524D01*
X144272000Y-107264845D01*
X144018000Y-107264845D01*
X143788110Y-107143524D01*
X143378076Y-107313355D01*
X142949817Y-107703642D01*
X142888843Y-107833478D01*
X142675625Y-107514375D01*
X142184418Y-107186161D01*
X141751256Y-107100000D01*
X141458744Y-107100000D01*
X141025582Y-107186161D01*
X140534375Y-107514375D01*
X140335000Y-107812761D01*
X140135625Y-107514375D01*
X139644418Y-107186161D01*
X139211256Y-107100000D01*
X138918744Y-107100000D01*
X138485582Y-107186161D01*
X137994375Y-107514375D01*
X137666161Y-108005582D01*
X137550908Y-108585000D01*
X127127000Y-108585000D01*
X127127000Y-84614561D01*
X131065000Y-84614561D01*
X131065000Y-85185439D01*
X131283466Y-85712862D01*
X131687138Y-86116534D01*
X132214561Y-86335000D01*
X132785439Y-86335000D01*
X133312862Y-86116534D01*
X133716534Y-85712862D01*
X133935000Y-85185439D01*
X133935000Y-84614561D01*
X149065000Y-84614561D01*
X149065000Y-85185439D01*
X149283466Y-85712862D01*
X149687138Y-86116534D01*
X150214561Y-86335000D01*
X150785439Y-86335000D01*
X151312862Y-86116534D01*
X151716534Y-85712862D01*
X151935000Y-85185439D01*
X151935000Y-84614561D01*
X151716534Y-84087138D01*
X151312862Y-83683466D01*
X150785439Y-83465000D01*
X150214561Y-83465000D01*
X149687138Y-83683466D01*
X149283466Y-84087138D01*
X149065000Y-84614561D01*
X133935000Y-84614561D01*
X133716534Y-84087138D01*
X133312862Y-83683466D01*
X132785439Y-83465000D01*
X132214561Y-83465000D01*
X131687138Y-83683466D01*
X131283466Y-84087138D01*
X131065000Y-84614561D01*
X127127000Y-84614561D01*
X127127000Y-78436083D01*
X151665000Y-78436083D01*
X151665000Y-79563917D01*
X152096603Y-80605899D01*
X152894101Y-81403397D01*
X153936083Y-81835000D01*
X155063917Y-81835000D01*
X156105899Y-81403397D01*
X156903397Y-80605899D01*
X157335000Y-79563917D01*
X157335000Y-78436083D01*
X156903397Y-77394101D01*
X156105899Y-76596603D01*
X155063917Y-76165000D01*
X153936083Y-76165000D01*
X152894101Y-76596603D01*
X152096603Y-77394101D01*
X151665000Y-78436083D01*
X127127000Y-78436083D01*
X127127000Y-74685000D01*
X152974588Y-74685000D01*
X153933137Y-74756233D01*
X153933137Y-74756233D01*
G37*
X153933137Y-74756233D02*
X154845775Y-74962742D01*
X155717864Y-75301878D01*
X156530245Y-75766193D01*
X157265075Y-76345487D01*
X157906211Y-77027032D01*
X158439560Y-77795853D01*
X158853415Y-78635067D01*
X159138680Y-79526235D01*
X159290777Y-80460144D01*
X159315000Y-81014946D01*
X159315001Y-144974575D01*
X159243767Y-145933137D01*
X159037258Y-146845775D01*
X158698122Y-147717864D01*
X158233809Y-148530243D01*
X157654513Y-149265075D01*
X156972968Y-149906211D01*
X156204148Y-150439559D01*
X155364931Y-150853416D01*
X154473771Y-151138678D01*
X153539856Y-151290777D01*
X152985054Y-151315000D01*
X127067466Y-151315000D01*
X126884590Y-151278624D01*
X126786751Y-151213250D01*
X126721376Y-151115409D01*
X126671838Y-150866364D01*
X126671838Y-150866363D01*
X126623231Y-150622000D01*
X127000000Y-150622000D01*
X127048601Y-150612333D01*
X127089803Y-150584803D01*
X127117333Y-150543601D01*
X127127000Y-150495000D01*
X127127000Y-150060000D01*
X128822767Y-150060000D01*
X128905000Y-150076357D01*
X128987233Y-150060000D01*
X128987237Y-150060000D01*
X129230801Y-150011552D01*
X129507001Y-149827001D01*
X129553587Y-149757280D01*
X130739289Y-148571579D01*
X130915365Y-148747655D01*
X131259017Y-148890000D01*
X131630983Y-148890000D01*
X131974635Y-148747655D01*
X132237655Y-148484635D01*
X132337656Y-148243212D01*
X133882283Y-146698585D01*
X133952001Y-146652001D01*
X134096272Y-146436083D01*
X151665000Y-146436083D01*
X151665000Y-147563917D01*
X152096603Y-148605899D01*
X152894101Y-149403397D01*
X153936083Y-149835000D01*
X155063917Y-149835000D01*
X156105899Y-149403397D01*
X156903397Y-148605899D01*
X157335000Y-147563917D01*
X157335000Y-146436083D01*
X156903397Y-145394101D01*
X156105899Y-144596603D01*
X155063917Y-144165000D01*
X153936083Y-144165000D01*
X152894101Y-144596603D01*
X152096603Y-145394101D01*
X151665000Y-146436083D01*
X134096272Y-146436083D01*
X134136552Y-146375801D01*
X134185000Y-146132237D01*
X134185000Y-146132236D01*
X134201358Y-146050000D01*
X134185000Y-145967763D01*
X134185000Y-139410867D01*
X134965868Y-138630000D01*
X149166301Y-138630000D01*
X149283466Y-138912862D01*
X149687138Y-139316534D01*
X150214561Y-139535000D01*
X150785439Y-139535000D01*
X151312862Y-139316534D01*
X151716534Y-138912862D01*
X151935000Y-138385439D01*
X151935000Y-137814561D01*
X151716534Y-137287138D01*
X151312862Y-136883466D01*
X150785439Y-136665000D01*
X150214561Y-136665000D01*
X149687138Y-136883466D01*
X149610604Y-136960000D01*
X141080867Y-136960000D01*
X145703213Y-132337655D01*
X145944635Y-132237655D01*
X146207655Y-131974635D01*
X146350000Y-131630983D01*
X146350000Y-131259017D01*
X146207655Y-130915365D01*
X145944635Y-130652345D01*
X145600983Y-130510000D01*
X145229017Y-130510000D01*
X144885365Y-130652345D01*
X144622345Y-130915365D01*
X144522345Y-131156787D01*
X139989133Y-135690000D01*
X132162232Y-135690000D01*
X132079999Y-135673643D01*
X131997766Y-135690000D01*
X131997763Y-135690000D01*
X131754199Y-135738448D01*
X131477999Y-135922999D01*
X131431415Y-135992717D01*
X130277718Y-137146415D01*
X130208000Y-137192999D01*
X130161416Y-137262717D01*
X130023448Y-137469200D01*
X129958643Y-137795000D01*
X129975001Y-137877238D01*
X129975000Y-145704132D01*
X128559133Y-147120000D01*
X127127000Y-147120000D01*
X127127000Y-111085268D01*
X130415000Y-111085268D01*
X130415000Y-111914732D01*
X130732422Y-112681058D01*
X131318942Y-113267578D01*
X132085268Y-113585000D01*
X132914732Y-113585000D01*
X133681058Y-113267578D01*
X134267578Y-112681058D01*
X134585000Y-111914732D01*
X134585000Y-111085268D01*
X148415000Y-111085268D01*
X148415000Y-111914732D01*
X148732422Y-112681058D01*
X149318942Y-113267578D01*
X150085268Y-113585000D01*
X150914732Y-113585000D01*
X151681058Y-113267578D01*
X152267578Y-112681058D01*
X152585000Y-111914732D01*
X152585000Y-111085268D01*
X152267578Y-110318942D01*
X151681058Y-109732422D01*
X150914732Y-109415000D01*
X150085268Y-109415000D01*
X149318942Y-109732422D01*
X148732422Y-110318942D01*
X148415000Y-111085268D01*
X134585000Y-111085268D01*
X134267578Y-110318942D01*
X133681058Y-109732422D01*
X132914732Y-109415000D01*
X132085268Y-109415000D01*
X131318942Y-109732422D01*
X130732422Y-110318942D01*
X130415000Y-111085268D01*
X127127000Y-111085268D01*
X127127000Y-108585000D01*
X137550908Y-108585000D01*
X137666161Y-109164418D01*
X137994375Y-109655625D01*
X138485582Y-109983839D01*
X138918744Y-110070000D01*
X139211256Y-110070000D01*
X139644418Y-109983839D01*
X140135625Y-109655625D01*
X140335000Y-109357239D01*
X140534375Y-109655625D01*
X141025582Y-109983839D01*
X141458744Y-110070000D01*
X141751256Y-110070000D01*
X142184418Y-109983839D01*
X142675625Y-109655625D01*
X142888843Y-109336522D01*
X142949817Y-109466358D01*
X143378076Y-109856645D01*
X143788110Y-110026476D01*
X144018000Y-109905155D01*
X144018000Y-108712000D01*
X143998000Y-108712000D01*
X143998000Y-108458000D01*
X144018000Y-108458000D01*
X144018000Y-107264845D01*
X144272000Y-107264845D01*
X144272000Y-108458000D01*
X144292000Y-108458000D01*
X144292000Y-108712000D01*
X144272000Y-108712000D01*
X144272000Y-109905155D01*
X144501890Y-110026476D01*
X144911924Y-109856645D01*
X145216261Y-109579292D01*
X145236843Y-109682765D01*
X145377191Y-109892809D01*
X145587235Y-110033157D01*
X145835000Y-110082440D01*
X147535000Y-110082440D01*
X147782765Y-110033157D01*
X147992809Y-109892809D01*
X148133157Y-109682765D01*
X148182440Y-109435000D01*
X148182440Y-107735000D01*
X148133157Y-107487235D01*
X147992809Y-107277191D01*
X147782765Y-107136843D01*
X147535000Y-107087560D01*
X145835000Y-107087560D01*
X145587235Y-107136843D01*
X145377191Y-107277191D01*
X145236843Y-107487235D01*
X145216261Y-107590708D01*
X144911924Y-107313355D01*
X144501890Y-107143524D01*
X144272000Y-107264845D01*
X144018000Y-107264845D01*
X143788110Y-107143524D01*
X143378076Y-107313355D01*
X142949817Y-107703642D01*
X142888843Y-107833478D01*
X142675625Y-107514375D01*
X142184418Y-107186161D01*
X141751256Y-107100000D01*
X141458744Y-107100000D01*
X141025582Y-107186161D01*
X140534375Y-107514375D01*
X140335000Y-107812761D01*
X140135625Y-107514375D01*
X139644418Y-107186161D01*
X139211256Y-107100000D01*
X138918744Y-107100000D01*
X138485582Y-107186161D01*
X137994375Y-107514375D01*
X137666161Y-108005582D01*
X137550908Y-108585000D01*
X127127000Y-108585000D01*
X127127000Y-84614561D01*
X131065000Y-84614561D01*
X131065000Y-85185439D01*
X131283466Y-85712862D01*
X131687138Y-86116534D01*
X132214561Y-86335000D01*
X132785439Y-86335000D01*
X133312862Y-86116534D01*
X133716534Y-85712862D01*
X133935000Y-85185439D01*
X133935000Y-84614561D01*
X149065000Y-84614561D01*
X149065000Y-85185439D01*
X149283466Y-85712862D01*
X149687138Y-86116534D01*
X150214561Y-86335000D01*
X150785439Y-86335000D01*
X151312862Y-86116534D01*
X151716534Y-85712862D01*
X151935000Y-85185439D01*
X151935000Y-84614561D01*
X151716534Y-84087138D01*
X151312862Y-83683466D01*
X150785439Y-83465000D01*
X150214561Y-83465000D01*
X149687138Y-83683466D01*
X149283466Y-84087138D01*
X149065000Y-84614561D01*
X133935000Y-84614561D01*
X133716534Y-84087138D01*
X133312862Y-83683466D01*
X132785439Y-83465000D01*
X132214561Y-83465000D01*
X131687138Y-83683466D01*
X131283466Y-84087138D01*
X131065000Y-84614561D01*
X127127000Y-84614561D01*
X127127000Y-78436083D01*
X151665000Y-78436083D01*
X151665000Y-79563917D01*
X152096603Y-80605899D01*
X152894101Y-81403397D01*
X153936083Y-81835000D01*
X155063917Y-81835000D01*
X156105899Y-81403397D01*
X156903397Y-80605899D01*
X157335000Y-79563917D01*
X157335000Y-78436083D01*
X156903397Y-77394101D01*
X156105899Y-76596603D01*
X155063917Y-76165000D01*
X153936083Y-76165000D01*
X152894101Y-76596603D01*
X152096603Y-77394101D01*
X151665000Y-78436083D01*
X127127000Y-78436083D01*
X127127000Y-74685000D01*
X152974588Y-74685000D01*
X153933137Y-74756233D01*
G04 #@! TD*
M02*
