%TF.GenerationSoftware,KiCad,Pcbnew,4.0.7*%
%TF.CreationDate,2018-06-17T00:12:40+02:00*%
%TF.ProjectId,HB-UNI-644,48422D554E492D3634342E6B69636164,rev?*%
%TF.FileFunction,Copper,L2,Bot,Signal*%
%FSLAX46Y46*%
G04 Gerber Fmt 4.6, Leading zero omitted, Abs format (unit mm)*
G04 Created by KiCad (PCBNEW 4.0.7) date 06/17/18 00:12:40*
%MOMM*%
%LPD*%
G01*
G04 APERTURE LIST*
%ADD10C,0.100000*%
%ADD11C,1.600000*%
%ADD12C,4.400000*%
%ADD13C,0.700000*%
%ADD14C,1.350000*%
%ADD15R,1.600000X2.000000*%
%ADD16R,2.000000X1.600000*%
%ADD17R,1.800000X1.800000*%
%ADD18C,1.800000*%
%ADD19R,1.700000X1.700000*%
%ADD20O,1.700000X1.700000*%
%ADD21R,1.270000X0.970000*%
%ADD22R,0.970000X1.270000*%
%ADD23R,0.800000X1.900000*%
%ADD24R,1.500000X1.300000*%
%ADD25R,2.000000X0.650000*%
%ADD26C,1.500000*%
%ADD27C,1.700000*%
%ADD28R,3.300000X1.700000*%
%ADD29R,3.500000X3.500000*%
%ADD30C,0.600000*%
%ADD31C,0.400000*%
%ADD32C,0.250000*%
%ADD33C,0.254000*%
G04 APERTURE END LIST*
D10*
D11*
X132500000Y-138100000D03*
X132500000Y-84900000D03*
D12*
X120500000Y-147000000D03*
D13*
X120500000Y-145350000D03*
X119333274Y-148166726D03*
X119333274Y-145833274D03*
X121666726Y-148166726D03*
X121666726Y-145833274D03*
X120500000Y-148650000D03*
X118850000Y-147000000D03*
X122150000Y-147000000D03*
D12*
X120500000Y-79000000D03*
D13*
X120500000Y-77350000D03*
X119333274Y-80166726D03*
X119333274Y-77833274D03*
X121666726Y-80166726D03*
X121666726Y-77833274D03*
X120500000Y-80650000D03*
X118850000Y-79000000D03*
X122150000Y-79000000D03*
D12*
X86500000Y-79000000D03*
D13*
X86500000Y-77350000D03*
X85333274Y-80166726D03*
X85333274Y-77833274D03*
X87666726Y-80166726D03*
X87666726Y-77833274D03*
X86500000Y-80650000D03*
X84850000Y-79000000D03*
X88150000Y-79000000D03*
D12*
X86500000Y-147000000D03*
D13*
X86500000Y-145350000D03*
X85333274Y-148166726D03*
X85333274Y-145833274D03*
X87666726Y-148166726D03*
X87666726Y-145833274D03*
X86500000Y-148650000D03*
X84850000Y-147000000D03*
X88150000Y-147000000D03*
D12*
X154500000Y-79000000D03*
D13*
X154500000Y-77350000D03*
X153333274Y-80166726D03*
X153333274Y-77833274D03*
X155666726Y-80166726D03*
X155666726Y-77833274D03*
X154500000Y-80650000D03*
X152850000Y-79000000D03*
X156150000Y-79000000D03*
D12*
X154500000Y-147000000D03*
D13*
X154500000Y-145350000D03*
X153333274Y-148166726D03*
X153333274Y-145833274D03*
X155666726Y-148166726D03*
X155666726Y-145833274D03*
X154500000Y-148650000D03*
X152850000Y-147000000D03*
X156150000Y-147000000D03*
D11*
X150500000Y-84900000D03*
X150500000Y-138100000D03*
D14*
X84415000Y-103130000D03*
X84415000Y-89130000D03*
X84415000Y-91130000D03*
X84415000Y-93130000D03*
X84415000Y-95130000D03*
X84415000Y-97130000D03*
X84415000Y-99130000D03*
X84415000Y-101130000D03*
D15*
X109220000Y-137636000D03*
X109220000Y-133636000D03*
D16*
X116300000Y-133350000D03*
X112300000Y-133350000D03*
D17*
X106680000Y-81280000D03*
D18*
X109220000Y-81280000D03*
X111760000Y-81280000D03*
D19*
X92075000Y-149225000D03*
D20*
X94615000Y-149225000D03*
X97155000Y-149225000D03*
X99695000Y-149225000D03*
X102235000Y-149225000D03*
X104775000Y-149225000D03*
D21*
X96520000Y-139070000D03*
X96520000Y-137790000D03*
D19*
X85090000Y-130810000D03*
D20*
X85090000Y-133350000D03*
X85090000Y-135890000D03*
X85090000Y-138430000D03*
D22*
X107945000Y-149225000D03*
X109225000Y-149225000D03*
D19*
X100330000Y-130810000D03*
D20*
X100330000Y-133350000D03*
X100330000Y-135890000D03*
X100330000Y-138430000D03*
D19*
X105410000Y-130810000D03*
D20*
X105410000Y-133350000D03*
X105410000Y-135890000D03*
X105410000Y-138430000D03*
D19*
X120650000Y-130810000D03*
D20*
X120650000Y-133350000D03*
X120650000Y-135890000D03*
X120650000Y-138430000D03*
D23*
X95570000Y-132485000D03*
X97470000Y-132485000D03*
X96520000Y-135485000D03*
D24*
X94535000Y-128905000D03*
X97235000Y-128905000D03*
D25*
X112590000Y-138745000D03*
X112590000Y-137795000D03*
X112590000Y-136845000D03*
X116010000Y-136845000D03*
X116010000Y-138745000D03*
D26*
X86360000Y-110490000D03*
X86360000Y-115370000D03*
D19*
X98425000Y-76835000D03*
D20*
X98425000Y-79375000D03*
X95885000Y-76835000D03*
X95885000Y-79375000D03*
X93345000Y-76835000D03*
X93345000Y-79375000D03*
D19*
X120650000Y-124460000D03*
D20*
X118110000Y-124460000D03*
X120650000Y-121920000D03*
X118110000Y-121920000D03*
X120650000Y-119380000D03*
X118110000Y-119380000D03*
X120650000Y-116840000D03*
X118110000Y-116840000D03*
X120650000Y-114300000D03*
X118110000Y-114300000D03*
X120650000Y-111760000D03*
X118110000Y-111760000D03*
X120650000Y-109220000D03*
X118110000Y-109220000D03*
X120650000Y-106680000D03*
X118110000Y-106680000D03*
D19*
X118110000Y-101600000D03*
D20*
X115570000Y-101600000D03*
X118110000Y-99060000D03*
X115570000Y-99060000D03*
X118110000Y-96520000D03*
X115570000Y-96520000D03*
X118110000Y-93980000D03*
X115570000Y-93980000D03*
X118110000Y-91440000D03*
X115570000Y-91440000D03*
X118110000Y-88900000D03*
X115570000Y-88900000D03*
X118110000Y-86360000D03*
X115570000Y-86360000D03*
X118110000Y-83820000D03*
X115570000Y-83820000D03*
D19*
X112395000Y-149225000D03*
D20*
X114935000Y-149225000D03*
D27*
X118110000Y-104140000D03*
X120650000Y-101600000D03*
D20*
X120650000Y-99060000D03*
D16*
X92170000Y-142240000D03*
X88170000Y-142240000D03*
X88805000Y-132080000D03*
X92805000Y-132080000D03*
D28*
X98215000Y-142875000D03*
X103715000Y-142875000D03*
D29*
X109630000Y-142875000D03*
X116430000Y-142875000D03*
D23*
X89220000Y-135660000D03*
X91120000Y-135660000D03*
X90170000Y-138660000D03*
D30*
X116840000Y-147955000D03*
X109220000Y-132080000D03*
X104775000Y-140970000D03*
X104775000Y-144780000D03*
X121285000Y-142240000D03*
X111760000Y-135255000D03*
X114300000Y-137795000D03*
X92075000Y-104775000D03*
X91800000Y-110600000D03*
X98425000Y-111760000D03*
X115570000Y-76835000D03*
X100330000Y-122555000D03*
X86360000Y-84455000D03*
X105410000Y-98425000D03*
X113665000Y-95885000D03*
X113665000Y-106045000D03*
X114935000Y-111760000D03*
X103632000Y-116078000D03*
X102870000Y-107315000D03*
X107315000Y-111760000D03*
X94615000Y-117475000D03*
X98425000Y-114300000D03*
X110490000Y-121285000D03*
X110490000Y-125095000D03*
X104775000Y-113665000D03*
X104775000Y-111760000D03*
X106045000Y-122555000D03*
X101600000Y-122555000D03*
X93980000Y-93345000D03*
X95885000Y-93980000D03*
X95250000Y-97155000D03*
X93980000Y-97155000D03*
X95885000Y-92710000D03*
X94615000Y-92710000D03*
X92710000Y-100965000D03*
X99060000Y-114935000D03*
X100965000Y-124460000D03*
X106680000Y-124460000D03*
X101600000Y-123825000D03*
X107315000Y-123825000D03*
X100965000Y-111760000D03*
X99060000Y-100965000D03*
X100965000Y-123190000D03*
X106680000Y-123190000D03*
X106680000Y-114300000D03*
X100330000Y-102870000D03*
X99695000Y-102235000D03*
X93980000Y-103505000D03*
X97155000Y-103505000D03*
X99695000Y-111760000D03*
X98425000Y-109855000D03*
X111125000Y-146685000D03*
D31*
X109220000Y-133636000D02*
X109220000Y-132080000D01*
X103715000Y-142875000D02*
X103715000Y-141395000D01*
X104140000Y-140970000D02*
X104775000Y-140970000D01*
X103715000Y-141395000D02*
X104140000Y-140970000D01*
X103715000Y-142875000D02*
X103715000Y-144355000D01*
X104140000Y-144780000D02*
X104775000Y-144780000D01*
X103715000Y-144355000D02*
X104140000Y-144780000D01*
X114300000Y-135255000D02*
X111760000Y-135255000D01*
X114300000Y-137795000D02*
X118745000Y-137795000D01*
X119380000Y-133350000D02*
X120650000Y-133350000D01*
X119380000Y-137160000D02*
X119380000Y-133350000D01*
X118745000Y-137795000D02*
X119380000Y-137160000D01*
X114300000Y-137795000D02*
X114300000Y-135255000D01*
X114300000Y-135255000D02*
X114300000Y-133350000D01*
X114300000Y-133350000D02*
X112300000Y-133350000D01*
X112590000Y-137795000D02*
X114300000Y-137795000D01*
X98425000Y-111760000D02*
X97155000Y-111760000D01*
X98425000Y-111125000D02*
X98425000Y-111760000D01*
X99695000Y-122555000D02*
X100330000Y-122555000D01*
X107945000Y-149225000D02*
X107945000Y-148585000D01*
X100965000Y-147955000D02*
X99695000Y-149225000D01*
X107315000Y-147955000D02*
X100965000Y-147955000D01*
X107945000Y-148585000D02*
X107315000Y-147955000D01*
X120015000Y-130810000D02*
X120650000Y-130810000D01*
X89220000Y-135660000D02*
X89220000Y-132495000D01*
X89220000Y-132495000D02*
X88805000Y-132080000D01*
X85090000Y-130810000D02*
X87535000Y-130810000D01*
X87535000Y-130810000D02*
X88805000Y-132080000D01*
D32*
X97790000Y-114300000D02*
X98425000Y-114300000D01*
X94615000Y-117475000D02*
X97790000Y-114300000D01*
X110490000Y-121285000D02*
X110490000Y-125095000D01*
X104775000Y-113665000D02*
X104775000Y-111760000D01*
X106045000Y-122555000D02*
X102235000Y-122555000D01*
X102235000Y-122555000D02*
X101600000Y-122555000D01*
X93980000Y-93345000D02*
X95250000Y-93345000D01*
X95250000Y-93345000D02*
X95885000Y-93980000D01*
X93980000Y-97155000D02*
X95250000Y-97155000D01*
X94615000Y-92710000D02*
X95250000Y-92710000D01*
X95250000Y-92710000D02*
X95885000Y-92710000D01*
X93980000Y-104140000D02*
X93345000Y-104140000D01*
X92710000Y-103505000D02*
X92710000Y-100965000D01*
X93345000Y-104140000D02*
X92710000Y-103505000D01*
X95250000Y-105410000D02*
X93980000Y-104140000D01*
X95885000Y-106045000D02*
X95250000Y-105410000D01*
X99060000Y-114935000D02*
X100330000Y-113665000D01*
X100330000Y-113665000D02*
X100330000Y-112395000D01*
X100330000Y-111125000D02*
X100330000Y-110490000D01*
X100330000Y-112395000D02*
X100330000Y-111125000D01*
X100330000Y-110490000D02*
X95885000Y-106045000D01*
X100965000Y-124460000D02*
X106680000Y-124460000D01*
X101600000Y-123825000D02*
X107315000Y-123825000D01*
X100965000Y-110490000D02*
X100965000Y-109855000D01*
X100965000Y-109855000D02*
X99060000Y-107950000D01*
X100965000Y-111760000D02*
X100965000Y-110490000D01*
X99060000Y-107950000D02*
X99060000Y-107315000D01*
X99060000Y-107315000D02*
X99060000Y-100965000D01*
X100965000Y-123190000D02*
X106680000Y-123190000D01*
X106680000Y-114300000D02*
X115570000Y-114300000D01*
X115570000Y-114300000D02*
X118110000Y-111760000D01*
X114935000Y-102870000D02*
X100330000Y-102870000D01*
X120650000Y-101600000D02*
X119380000Y-102870000D01*
X119380000Y-102870000D02*
X114935000Y-102870000D01*
X113030000Y-102235000D02*
X113665000Y-102235000D01*
X114300000Y-101600000D02*
X114300000Y-100965000D01*
X113665000Y-102235000D02*
X114300000Y-101600000D01*
X99695000Y-102235000D02*
X113030000Y-102235000D01*
X120650000Y-99060000D02*
X119380000Y-100330000D01*
X119380000Y-100330000D02*
X114935000Y-100330000D01*
X114935000Y-100330000D02*
X114300000Y-100965000D01*
X95250000Y-103505000D02*
X93980000Y-103505000D01*
X97155000Y-103505000D02*
X95250000Y-103505000D01*
X99695000Y-111760000D02*
X99695000Y-111125000D01*
X99695000Y-111125000D02*
X98425000Y-109855000D01*
X99695000Y-111760000D02*
X99695000Y-111125000D01*
X99695000Y-111125000D02*
X98425000Y-109855000D01*
D31*
X109630000Y-142875000D02*
X109630000Y-145190000D01*
X109630000Y-145190000D02*
X111125000Y-146685000D01*
X110712000Y-137636000D02*
X110712000Y-136938000D01*
X110805000Y-136845000D02*
X112590000Y-136845000D01*
X110712000Y-136938000D02*
X110805000Y-136845000D01*
X112590000Y-138745000D02*
X110805000Y-138745000D01*
X110712000Y-137636000D02*
X109220000Y-137636000D01*
X110744000Y-137668000D02*
X110712000Y-137636000D01*
X110744000Y-138684000D02*
X110744000Y-137668000D01*
X110805000Y-138745000D02*
X110744000Y-138684000D01*
X109225000Y-149225000D02*
X109225000Y-147960000D01*
X108585000Y-147320000D02*
X107820000Y-147320000D01*
X109225000Y-147960000D02*
X108585000Y-147320000D01*
X109225000Y-149225000D02*
X109225000Y-148725000D01*
X109225000Y-149225000D02*
X112395000Y-149225000D01*
X100330000Y-146050000D02*
X101600000Y-147320000D01*
X95885000Y-144145000D02*
X93980000Y-142240000D01*
X95885000Y-144145000D02*
X97790000Y-144145000D01*
X99060000Y-144145000D02*
X99695000Y-144145000D01*
X99695000Y-144145000D02*
X100330000Y-144780000D01*
X100330000Y-144780000D02*
X100330000Y-146050000D01*
X97790000Y-144145000D02*
X99060000Y-144145000D01*
X101600000Y-147320000D02*
X107820000Y-147320000D01*
X91120000Y-135660000D02*
X92560000Y-135660000D01*
X92560000Y-135660000D02*
X93980000Y-137080000D01*
X93980000Y-142240000D02*
X93980000Y-137080000D01*
X93980000Y-137080000D02*
X93980000Y-137160000D01*
X93980000Y-137160000D02*
X93980000Y-137080000D01*
X93980000Y-137080000D02*
X94535000Y-136525000D01*
X94535000Y-135255000D02*
X94535000Y-136525000D01*
X94535000Y-132715000D02*
X94535000Y-128905000D01*
X94535000Y-132715000D02*
X94535000Y-134620000D01*
X94535000Y-135255000D02*
X94535000Y-134700000D01*
X94535000Y-134700000D02*
X94615000Y-134620000D01*
X94615000Y-134620000D02*
X94535000Y-134620000D01*
X91210000Y-135660000D02*
X91120000Y-135660000D01*
X93980000Y-142240000D02*
X92170000Y-142240000D01*
X92170000Y-142240000D02*
X92710000Y-142240000D01*
X108585000Y-146685000D02*
X109220000Y-146685000D01*
X109855000Y-147320000D02*
X110490000Y-147955000D01*
X109220000Y-146685000D02*
X109855000Y-147320000D01*
X108185000Y-146685000D02*
X108585000Y-146685000D01*
X114935000Y-149225000D02*
X113665000Y-147955000D01*
X113665000Y-147955000D02*
X110490000Y-147955000D01*
X100965000Y-145415000D02*
X102235000Y-146685000D01*
X102235000Y-146685000D02*
X108185000Y-146685000D01*
X95250000Y-140970000D02*
X95250000Y-138430000D01*
X95250000Y-138430000D02*
X95890000Y-137790000D01*
X95890000Y-137790000D02*
X96520000Y-137790000D01*
X99060000Y-141605000D02*
X95885000Y-141605000D01*
X95885000Y-141605000D02*
X95250000Y-140970000D01*
X114935000Y-149225000D02*
X116840000Y-151130000D01*
X132500000Y-145630000D02*
X132500000Y-138100000D01*
X127000000Y-151130000D02*
X132500000Y-145630000D01*
X116840000Y-151130000D02*
X127000000Y-151130000D01*
X100330000Y-141605000D02*
X100965000Y-142240000D01*
X99060000Y-141605000D02*
X100330000Y-141605000D01*
X100965000Y-142240000D02*
X100965000Y-145415000D01*
X96520000Y-137790000D02*
X96520000Y-135485000D01*
X94615000Y-141605000D02*
X94615000Y-137795000D01*
X94615000Y-137795000D02*
X95570000Y-136840000D01*
X95570000Y-136840000D02*
X95570000Y-132485000D01*
X95885000Y-142875000D02*
X95250000Y-142240000D01*
X98215000Y-142875000D02*
X95885000Y-142875000D01*
X95250000Y-142240000D02*
X94615000Y-141605000D01*
X98215000Y-142875000D02*
X97790000Y-142875000D01*
X95570000Y-132485000D02*
X95570000Y-130570000D01*
X95570000Y-130570000D02*
X97235000Y-128905000D01*
D33*
G36*
X122301000Y-131953000D02*
X122065955Y-131953000D01*
X122135000Y-131786310D01*
X122135000Y-131095750D01*
X121976250Y-130937000D01*
X120777000Y-130937000D01*
X120777000Y-130957000D01*
X120523000Y-130957000D01*
X120523000Y-130937000D01*
X119323750Y-130937000D01*
X119165000Y-131095750D01*
X119165000Y-131786310D01*
X119261673Y-132019699D01*
X119388184Y-132146210D01*
X118020197Y-133514197D01*
X117992334Y-133556211D01*
X117983000Y-133604000D01*
X117983000Y-136960000D01*
X115863000Y-136960000D01*
X115863000Y-136718000D01*
X115883000Y-136718000D01*
X115883000Y-136043750D01*
X116137000Y-136043750D01*
X116137000Y-136718000D01*
X117486250Y-136718000D01*
X117645000Y-136559250D01*
X117645000Y-136393690D01*
X117548327Y-136160301D01*
X117369698Y-135981673D01*
X117136309Y-135885000D01*
X116295750Y-135885000D01*
X116137000Y-136043750D01*
X115883000Y-136043750D01*
X115724250Y-135885000D01*
X115135000Y-135885000D01*
X115135000Y-134768974D01*
X115173691Y-134785000D01*
X116014250Y-134785000D01*
X116173000Y-134626250D01*
X116173000Y-133477000D01*
X116427000Y-133477000D01*
X116427000Y-134626250D01*
X116585750Y-134785000D01*
X117426309Y-134785000D01*
X117659698Y-134688327D01*
X117838327Y-134509699D01*
X117935000Y-134276310D01*
X117935000Y-133635750D01*
X117776250Y-133477000D01*
X116427000Y-133477000D01*
X116173000Y-133477000D01*
X116153000Y-133477000D01*
X116153000Y-133223000D01*
X116173000Y-133223000D01*
X116173000Y-132073750D01*
X116427000Y-132073750D01*
X116427000Y-133223000D01*
X117776250Y-133223000D01*
X117935000Y-133064250D01*
X117935000Y-132423690D01*
X117838327Y-132190301D01*
X117659698Y-132011673D01*
X117426309Y-131915000D01*
X116585750Y-131915000D01*
X116427000Y-132073750D01*
X116173000Y-132073750D01*
X116014250Y-131915000D01*
X115914606Y-131915000D01*
X117995916Y-129833690D01*
X119165000Y-129833690D01*
X119165000Y-130524250D01*
X119323750Y-130683000D01*
X120523000Y-130683000D01*
X120523000Y-129483750D01*
X120777000Y-129483750D01*
X120777000Y-130683000D01*
X121976250Y-130683000D01*
X122135000Y-130524250D01*
X122135000Y-129833690D01*
X122038327Y-129600301D01*
X121859698Y-129421673D01*
X121626309Y-129325000D01*
X120935750Y-129325000D01*
X120777000Y-129483750D01*
X120523000Y-129483750D01*
X120364250Y-129325000D01*
X119673691Y-129325000D01*
X119440302Y-129421673D01*
X119261673Y-129600301D01*
X119165000Y-129833690D01*
X117995916Y-129833690D01*
X118670606Y-129159000D01*
X122301000Y-129159000D01*
X122301000Y-131953000D01*
X122301000Y-131953000D01*
G37*
X122301000Y-131953000D02*
X122065955Y-131953000D01*
X122135000Y-131786310D01*
X122135000Y-131095750D01*
X121976250Y-130937000D01*
X120777000Y-130937000D01*
X120777000Y-130957000D01*
X120523000Y-130957000D01*
X120523000Y-130937000D01*
X119323750Y-130937000D01*
X119165000Y-131095750D01*
X119165000Y-131786310D01*
X119261673Y-132019699D01*
X119388184Y-132146210D01*
X118020197Y-133514197D01*
X117992334Y-133556211D01*
X117983000Y-133604000D01*
X117983000Y-136960000D01*
X115863000Y-136960000D01*
X115863000Y-136718000D01*
X115883000Y-136718000D01*
X115883000Y-136043750D01*
X116137000Y-136043750D01*
X116137000Y-136718000D01*
X117486250Y-136718000D01*
X117645000Y-136559250D01*
X117645000Y-136393690D01*
X117548327Y-136160301D01*
X117369698Y-135981673D01*
X117136309Y-135885000D01*
X116295750Y-135885000D01*
X116137000Y-136043750D01*
X115883000Y-136043750D01*
X115724250Y-135885000D01*
X115135000Y-135885000D01*
X115135000Y-134768974D01*
X115173691Y-134785000D01*
X116014250Y-134785000D01*
X116173000Y-134626250D01*
X116173000Y-133477000D01*
X116427000Y-133477000D01*
X116427000Y-134626250D01*
X116585750Y-134785000D01*
X117426309Y-134785000D01*
X117659698Y-134688327D01*
X117838327Y-134509699D01*
X117935000Y-134276310D01*
X117935000Y-133635750D01*
X117776250Y-133477000D01*
X116427000Y-133477000D01*
X116173000Y-133477000D01*
X116153000Y-133477000D01*
X116153000Y-133223000D01*
X116173000Y-133223000D01*
X116173000Y-132073750D01*
X116427000Y-132073750D01*
X116427000Y-133223000D01*
X117776250Y-133223000D01*
X117935000Y-133064250D01*
X117935000Y-132423690D01*
X117838327Y-132190301D01*
X117659698Y-132011673D01*
X117426309Y-131915000D01*
X116585750Y-131915000D01*
X116427000Y-132073750D01*
X116173000Y-132073750D01*
X116014250Y-131915000D01*
X115914606Y-131915000D01*
X117995916Y-129833690D01*
X119165000Y-129833690D01*
X119165000Y-130524250D01*
X119323750Y-130683000D01*
X120523000Y-130683000D01*
X120523000Y-129483750D01*
X120777000Y-129483750D01*
X120777000Y-130683000D01*
X121976250Y-130683000D01*
X122135000Y-130524250D01*
X122135000Y-129833690D01*
X122038327Y-129600301D01*
X121859698Y-129421673D01*
X121626309Y-129325000D01*
X120935750Y-129325000D01*
X120777000Y-129483750D01*
X120523000Y-129483750D01*
X120364250Y-129325000D01*
X119673691Y-129325000D01*
X119440302Y-129421673D01*
X119261673Y-129600301D01*
X119165000Y-129833690D01*
X117995916Y-129833690D01*
X118670606Y-129159000D01*
X122301000Y-129159000D01*
X122301000Y-131953000D01*
G36*
X118999000Y-144552726D02*
X118896199Y-144595202D01*
X118815000Y-144676259D01*
X118815000Y-143160750D01*
X118656250Y-143002000D01*
X116557000Y-143002000D01*
X116557000Y-145101250D01*
X116715750Y-145260000D01*
X118230240Y-145260000D01*
X118098005Y-145392005D01*
X118088457Y-145415000D01*
X113411000Y-145415000D01*
X113411000Y-143160750D01*
X114045000Y-143160750D01*
X114045000Y-144751310D01*
X114141673Y-144984699D01*
X114320302Y-145163327D01*
X114553691Y-145260000D01*
X116144250Y-145260000D01*
X116303000Y-145101250D01*
X116303000Y-143002000D01*
X114203750Y-143002000D01*
X114045000Y-143160750D01*
X113411000Y-143160750D01*
X113411000Y-140998690D01*
X114045000Y-140998690D01*
X114045000Y-142589250D01*
X114203750Y-142748000D01*
X116303000Y-142748000D01*
X116303000Y-140648750D01*
X116557000Y-140648750D01*
X116557000Y-142748000D01*
X118656250Y-142748000D01*
X118815000Y-142589250D01*
X118815000Y-140998690D01*
X118718327Y-140765301D01*
X118539698Y-140586673D01*
X118306309Y-140490000D01*
X116715750Y-140490000D01*
X116557000Y-140648750D01*
X116303000Y-140648750D01*
X116144250Y-140490000D01*
X114553691Y-140490000D01*
X114320302Y-140586673D01*
X114141673Y-140765301D01*
X114045000Y-140998690D01*
X113411000Y-140998690D01*
X113411000Y-140768606D01*
X114389803Y-139789803D01*
X114417666Y-139747789D01*
X114427000Y-139700000D01*
X114427000Y-139321849D01*
X114471673Y-139429699D01*
X114650302Y-139608327D01*
X114883691Y-139705000D01*
X115724250Y-139705000D01*
X115883000Y-139546250D01*
X115883000Y-138872000D01*
X116137000Y-138872000D01*
X116137000Y-139546250D01*
X116295750Y-139705000D01*
X117136309Y-139705000D01*
X117369698Y-139608327D01*
X117548327Y-139429699D01*
X117645000Y-139196310D01*
X117645000Y-139030750D01*
X117486250Y-138872000D01*
X116137000Y-138872000D01*
X115883000Y-138872000D01*
X115863000Y-138872000D01*
X115863000Y-138630000D01*
X118745000Y-138630000D01*
X118999000Y-138579476D01*
X118999000Y-144552726D01*
X118999000Y-144552726D01*
G37*
X118999000Y-144552726D02*
X118896199Y-144595202D01*
X118815000Y-144676259D01*
X118815000Y-143160750D01*
X118656250Y-143002000D01*
X116557000Y-143002000D01*
X116557000Y-145101250D01*
X116715750Y-145260000D01*
X118230240Y-145260000D01*
X118098005Y-145392005D01*
X118088457Y-145415000D01*
X113411000Y-145415000D01*
X113411000Y-143160750D01*
X114045000Y-143160750D01*
X114045000Y-144751310D01*
X114141673Y-144984699D01*
X114320302Y-145163327D01*
X114553691Y-145260000D01*
X116144250Y-145260000D01*
X116303000Y-145101250D01*
X116303000Y-143002000D01*
X114203750Y-143002000D01*
X114045000Y-143160750D01*
X113411000Y-143160750D01*
X113411000Y-140998690D01*
X114045000Y-140998690D01*
X114045000Y-142589250D01*
X114203750Y-142748000D01*
X116303000Y-142748000D01*
X116303000Y-140648750D01*
X116557000Y-140648750D01*
X116557000Y-142748000D01*
X118656250Y-142748000D01*
X118815000Y-142589250D01*
X118815000Y-140998690D01*
X118718327Y-140765301D01*
X118539698Y-140586673D01*
X118306309Y-140490000D01*
X116715750Y-140490000D01*
X116557000Y-140648750D01*
X116303000Y-140648750D01*
X116144250Y-140490000D01*
X114553691Y-140490000D01*
X114320302Y-140586673D01*
X114141673Y-140765301D01*
X114045000Y-140998690D01*
X113411000Y-140998690D01*
X113411000Y-140768606D01*
X114389803Y-139789803D01*
X114417666Y-139747789D01*
X114427000Y-139700000D01*
X114427000Y-139321849D01*
X114471673Y-139429699D01*
X114650302Y-139608327D01*
X114883691Y-139705000D01*
X115724250Y-139705000D01*
X115883000Y-139546250D01*
X115883000Y-138872000D01*
X116137000Y-138872000D01*
X116137000Y-139546250D01*
X116295750Y-139705000D01*
X117136309Y-139705000D01*
X117369698Y-139608327D01*
X117548327Y-139429699D01*
X117645000Y-139196310D01*
X117645000Y-139030750D01*
X117486250Y-138872000D01*
X116137000Y-138872000D01*
X115883000Y-138872000D01*
X115863000Y-138872000D01*
X115863000Y-138630000D01*
X118745000Y-138630000D01*
X118999000Y-138579476D01*
X118999000Y-144552726D01*
G36*
X107785000Y-137350250D02*
X107943750Y-137509000D01*
X109093000Y-137509000D01*
X109093000Y-137489000D01*
X109347000Y-137489000D01*
X109347000Y-137509000D01*
X110496250Y-137509000D01*
X110655000Y-137350250D01*
X110655000Y-136525000D01*
X110955000Y-136525000D01*
X110955000Y-136559250D01*
X111113750Y-136718000D01*
X112463000Y-136718000D01*
X112463000Y-136698000D01*
X112717000Y-136698000D01*
X112717000Y-136718000D01*
X112737000Y-136718000D01*
X112737000Y-136822560D01*
X111590000Y-136822560D01*
X111354683Y-136866838D01*
X111191257Y-136972000D01*
X111113750Y-136972000D01*
X110955000Y-137130750D01*
X110955000Y-137296310D01*
X110970268Y-137333171D01*
X110942560Y-137470000D01*
X110942560Y-138120000D01*
X110968919Y-138260086D01*
X110955000Y-138293690D01*
X110955000Y-138459250D01*
X111113750Y-138618000D01*
X111194051Y-138618000D01*
X111338110Y-138716431D01*
X111590000Y-138767440D01*
X112737000Y-138767440D01*
X112737000Y-138872000D01*
X112717000Y-138872000D01*
X112717000Y-139546250D01*
X112875750Y-139705000D01*
X113353394Y-139705000D01*
X112686197Y-140372197D01*
X112658334Y-140414211D01*
X112649000Y-140462000D01*
X112649000Y-145415000D01*
X107061000Y-145415000D01*
X107061000Y-143160750D01*
X107245000Y-143160750D01*
X107245000Y-144751310D01*
X107341673Y-144984699D01*
X107520302Y-145163327D01*
X107753691Y-145260000D01*
X109344250Y-145260000D01*
X109503000Y-145101250D01*
X109503000Y-143002000D01*
X109757000Y-143002000D01*
X109757000Y-145101250D01*
X109915750Y-145260000D01*
X111506309Y-145260000D01*
X111739698Y-145163327D01*
X111918327Y-144984699D01*
X112015000Y-144751310D01*
X112015000Y-143160750D01*
X111856250Y-143002000D01*
X109757000Y-143002000D01*
X109503000Y-143002000D01*
X107403750Y-143002000D01*
X107245000Y-143160750D01*
X107061000Y-143160750D01*
X107061000Y-140998690D01*
X107245000Y-140998690D01*
X107245000Y-142589250D01*
X107403750Y-142748000D01*
X109503000Y-142748000D01*
X109503000Y-140648750D01*
X109757000Y-140648750D01*
X109757000Y-142748000D01*
X111856250Y-142748000D01*
X112015000Y-142589250D01*
X112015000Y-140998690D01*
X111918327Y-140765301D01*
X111739698Y-140586673D01*
X111506309Y-140490000D01*
X109915750Y-140490000D01*
X109757000Y-140648750D01*
X109503000Y-140648750D01*
X109344250Y-140490000D01*
X107753691Y-140490000D01*
X107520302Y-140586673D01*
X107341673Y-140765301D01*
X107245000Y-140998690D01*
X107061000Y-140998690D01*
X107061000Y-140260606D01*
X107277803Y-140043803D01*
X107305666Y-140001789D01*
X107315000Y-139954000D01*
X107315000Y-137921750D01*
X107785000Y-137921750D01*
X107785000Y-138762309D01*
X107881673Y-138995698D01*
X108060301Y-139174327D01*
X108293690Y-139271000D01*
X108934250Y-139271000D01*
X109093000Y-139112250D01*
X109093000Y-137763000D01*
X109347000Y-137763000D01*
X109347000Y-139112250D01*
X109505750Y-139271000D01*
X110146310Y-139271000D01*
X110379699Y-139174327D01*
X110523275Y-139030750D01*
X110955000Y-139030750D01*
X110955000Y-139196310D01*
X111051673Y-139429699D01*
X111230302Y-139608327D01*
X111463691Y-139705000D01*
X112304250Y-139705000D01*
X112463000Y-139546250D01*
X112463000Y-138872000D01*
X111113750Y-138872000D01*
X110955000Y-139030750D01*
X110523275Y-139030750D01*
X110558327Y-138995698D01*
X110655000Y-138762309D01*
X110655000Y-137921750D01*
X110496250Y-137763000D01*
X109347000Y-137763000D01*
X109093000Y-137763000D01*
X107943750Y-137763000D01*
X107785000Y-137921750D01*
X107315000Y-137921750D01*
X107315000Y-136525000D01*
X107785000Y-136525000D01*
X107785000Y-137350250D01*
X107785000Y-137350250D01*
G37*
X107785000Y-137350250D02*
X107943750Y-137509000D01*
X109093000Y-137509000D01*
X109093000Y-137489000D01*
X109347000Y-137489000D01*
X109347000Y-137509000D01*
X110496250Y-137509000D01*
X110655000Y-137350250D01*
X110655000Y-136525000D01*
X110955000Y-136525000D01*
X110955000Y-136559250D01*
X111113750Y-136718000D01*
X112463000Y-136718000D01*
X112463000Y-136698000D01*
X112717000Y-136698000D01*
X112717000Y-136718000D01*
X112737000Y-136718000D01*
X112737000Y-136822560D01*
X111590000Y-136822560D01*
X111354683Y-136866838D01*
X111191257Y-136972000D01*
X111113750Y-136972000D01*
X110955000Y-137130750D01*
X110955000Y-137296310D01*
X110970268Y-137333171D01*
X110942560Y-137470000D01*
X110942560Y-138120000D01*
X110968919Y-138260086D01*
X110955000Y-138293690D01*
X110955000Y-138459250D01*
X111113750Y-138618000D01*
X111194051Y-138618000D01*
X111338110Y-138716431D01*
X111590000Y-138767440D01*
X112737000Y-138767440D01*
X112737000Y-138872000D01*
X112717000Y-138872000D01*
X112717000Y-139546250D01*
X112875750Y-139705000D01*
X113353394Y-139705000D01*
X112686197Y-140372197D01*
X112658334Y-140414211D01*
X112649000Y-140462000D01*
X112649000Y-145415000D01*
X107061000Y-145415000D01*
X107061000Y-143160750D01*
X107245000Y-143160750D01*
X107245000Y-144751310D01*
X107341673Y-144984699D01*
X107520302Y-145163327D01*
X107753691Y-145260000D01*
X109344250Y-145260000D01*
X109503000Y-145101250D01*
X109503000Y-143002000D01*
X109757000Y-143002000D01*
X109757000Y-145101250D01*
X109915750Y-145260000D01*
X111506309Y-145260000D01*
X111739698Y-145163327D01*
X111918327Y-144984699D01*
X112015000Y-144751310D01*
X112015000Y-143160750D01*
X111856250Y-143002000D01*
X109757000Y-143002000D01*
X109503000Y-143002000D01*
X107403750Y-143002000D01*
X107245000Y-143160750D01*
X107061000Y-143160750D01*
X107061000Y-140998690D01*
X107245000Y-140998690D01*
X107245000Y-142589250D01*
X107403750Y-142748000D01*
X109503000Y-142748000D01*
X109503000Y-140648750D01*
X109757000Y-140648750D01*
X109757000Y-142748000D01*
X111856250Y-142748000D01*
X112015000Y-142589250D01*
X112015000Y-140998690D01*
X111918327Y-140765301D01*
X111739698Y-140586673D01*
X111506309Y-140490000D01*
X109915750Y-140490000D01*
X109757000Y-140648750D01*
X109503000Y-140648750D01*
X109344250Y-140490000D01*
X107753691Y-140490000D01*
X107520302Y-140586673D01*
X107341673Y-140765301D01*
X107245000Y-140998690D01*
X107061000Y-140998690D01*
X107061000Y-140260606D01*
X107277803Y-140043803D01*
X107305666Y-140001789D01*
X107315000Y-139954000D01*
X107315000Y-137921750D01*
X107785000Y-137921750D01*
X107785000Y-138762309D01*
X107881673Y-138995698D01*
X108060301Y-139174327D01*
X108293690Y-139271000D01*
X108934250Y-139271000D01*
X109093000Y-139112250D01*
X109093000Y-137763000D01*
X109347000Y-137763000D01*
X109347000Y-139112250D01*
X109505750Y-139271000D01*
X110146310Y-139271000D01*
X110379699Y-139174327D01*
X110523275Y-139030750D01*
X110955000Y-139030750D01*
X110955000Y-139196310D01*
X111051673Y-139429699D01*
X111230302Y-139608327D01*
X111463691Y-139705000D01*
X112304250Y-139705000D01*
X112463000Y-139546250D01*
X112463000Y-138872000D01*
X111113750Y-138872000D01*
X110955000Y-139030750D01*
X110523275Y-139030750D01*
X110558327Y-138995698D01*
X110655000Y-138762309D01*
X110655000Y-137921750D01*
X110496250Y-137763000D01*
X109347000Y-137763000D01*
X109093000Y-137763000D01*
X107943750Y-137763000D01*
X107785000Y-137921750D01*
X107315000Y-137921750D01*
X107315000Y-136525000D01*
X107785000Y-136525000D01*
X107785000Y-137350250D01*
G36*
X123063000Y-77779078D02*
X122904798Y-77396199D01*
X122107995Y-76598005D01*
X121066390Y-76165493D01*
X119938558Y-76164509D01*
X118896199Y-76595202D01*
X118098005Y-77392005D01*
X117665493Y-78433610D01*
X117664509Y-79561442D01*
X118095202Y-80603801D01*
X118892005Y-81401995D01*
X119933610Y-81834507D01*
X121061442Y-81835491D01*
X122103801Y-81404798D01*
X122901995Y-80607995D01*
X123063000Y-80220252D01*
X123063000Y-128416522D01*
X123046159Y-128405685D01*
X123000000Y-128397000D01*
X118364000Y-128397000D01*
X118314590Y-128407006D01*
X118274197Y-128434197D01*
X115517394Y-131191000D01*
X114554000Y-131191000D01*
X114504590Y-131201006D01*
X114464197Y-131228197D01*
X114210197Y-131482197D01*
X114182334Y-131524211D01*
X114173000Y-131572000D01*
X114173000Y-135763000D01*
X106898831Y-135763000D01*
X106811054Y-135321715D01*
X106489147Y-134839946D01*
X106148447Y-134612298D01*
X106291358Y-134545183D01*
X106681645Y-134116924D01*
X106762483Y-133921750D01*
X107785000Y-133921750D01*
X107785000Y-134762309D01*
X107881673Y-134995698D01*
X108060301Y-135174327D01*
X108293690Y-135271000D01*
X108934250Y-135271000D01*
X109093000Y-135112250D01*
X109093000Y-133763000D01*
X109347000Y-133763000D01*
X109347000Y-135112250D01*
X109505750Y-135271000D01*
X110146310Y-135271000D01*
X110379699Y-135174327D01*
X110558327Y-134995698D01*
X110655000Y-134762309D01*
X110655000Y-133921750D01*
X110496250Y-133763000D01*
X109347000Y-133763000D01*
X109093000Y-133763000D01*
X107943750Y-133763000D01*
X107785000Y-133921750D01*
X106762483Y-133921750D01*
X106851476Y-133706890D01*
X106813933Y-133635750D01*
X110665000Y-133635750D01*
X110665000Y-134276310D01*
X110761673Y-134509699D01*
X110940302Y-134688327D01*
X111173691Y-134785000D01*
X112014250Y-134785000D01*
X112173000Y-134626250D01*
X112173000Y-133477000D01*
X112427000Y-133477000D01*
X112427000Y-134626250D01*
X112585750Y-134785000D01*
X113426309Y-134785000D01*
X113659698Y-134688327D01*
X113838327Y-134509699D01*
X113935000Y-134276310D01*
X113935000Y-133635750D01*
X113776250Y-133477000D01*
X112427000Y-133477000D01*
X112173000Y-133477000D01*
X110823750Y-133477000D01*
X110665000Y-133635750D01*
X106813933Y-133635750D01*
X106730155Y-133477000D01*
X105537000Y-133477000D01*
X105537000Y-133497000D01*
X105283000Y-133497000D01*
X105283000Y-133477000D01*
X104089845Y-133477000D01*
X103968524Y-133706890D01*
X104138355Y-134116924D01*
X104528642Y-134545183D01*
X104671553Y-134612298D01*
X104330853Y-134839946D01*
X104008946Y-135321715D01*
X103895907Y-135890000D01*
X104008946Y-136458285D01*
X104330853Y-136940054D01*
X104660026Y-137160000D01*
X104330853Y-137379946D01*
X104008946Y-137861715D01*
X103895907Y-138430000D01*
X104008946Y-138998285D01*
X104330853Y-139480054D01*
X104812622Y-139801961D01*
X105380907Y-139915000D01*
X105439093Y-139915000D01*
X106007378Y-139801961D01*
X106420415Y-139525979D01*
X106336197Y-139610197D01*
X106308334Y-139652211D01*
X106299000Y-139700000D01*
X106299000Y-145850000D01*
X102580868Y-145850000D01*
X101800000Y-145069132D01*
X101800000Y-144302552D01*
X101938691Y-144360000D01*
X103429250Y-144360000D01*
X103588000Y-144201250D01*
X103588000Y-143002000D01*
X103842000Y-143002000D01*
X103842000Y-144201250D01*
X104000750Y-144360000D01*
X105491309Y-144360000D01*
X105724698Y-144263327D01*
X105903327Y-144084699D01*
X106000000Y-143851310D01*
X106000000Y-143160750D01*
X105841250Y-143002000D01*
X103842000Y-143002000D01*
X103588000Y-143002000D01*
X103568000Y-143002000D01*
X103568000Y-142748000D01*
X103588000Y-142748000D01*
X103588000Y-141548750D01*
X103842000Y-141548750D01*
X103842000Y-142748000D01*
X105841250Y-142748000D01*
X106000000Y-142589250D01*
X106000000Y-141898690D01*
X105903327Y-141665301D01*
X105724698Y-141486673D01*
X105491309Y-141390000D01*
X104000750Y-141390000D01*
X103842000Y-141548750D01*
X103588000Y-141548750D01*
X103429250Y-141390000D01*
X101938691Y-141390000D01*
X101705302Y-141486673D01*
X101548921Y-141643053D01*
X100920434Y-141014566D01*
X100853736Y-140970000D01*
X100649541Y-140833561D01*
X100330000Y-140770000D01*
X96230868Y-140770000D01*
X96085000Y-140624132D01*
X96085000Y-140190000D01*
X96234250Y-140190000D01*
X96393000Y-140031250D01*
X96393000Y-139197000D01*
X96647000Y-139197000D01*
X96647000Y-140031250D01*
X96805750Y-140190000D01*
X97281309Y-140190000D01*
X97514698Y-140093327D01*
X97693327Y-139914699D01*
X97790000Y-139681310D01*
X97790000Y-139355750D01*
X97631250Y-139197000D01*
X96647000Y-139197000D01*
X96393000Y-139197000D01*
X96373000Y-139197000D01*
X96373000Y-138943000D01*
X96393000Y-138943000D01*
X96393000Y-138923000D01*
X96647000Y-138923000D01*
X96647000Y-138943000D01*
X97631250Y-138943000D01*
X97790000Y-138784250D01*
X97790000Y-138458690D01*
X97773371Y-138418545D01*
X97802440Y-138275000D01*
X97802440Y-137305000D01*
X97758162Y-137069683D01*
X97619090Y-136853559D01*
X97471469Y-136752694D01*
X97516431Y-136686890D01*
X97567440Y-136435000D01*
X97567440Y-135890000D01*
X98815907Y-135890000D01*
X98928946Y-136458285D01*
X99250853Y-136940054D01*
X99580026Y-137160000D01*
X99250853Y-137379946D01*
X98928946Y-137861715D01*
X98815907Y-138430000D01*
X98928946Y-138998285D01*
X99250853Y-139480054D01*
X99732622Y-139801961D01*
X100300907Y-139915000D01*
X100359093Y-139915000D01*
X100927378Y-139801961D01*
X101409147Y-139480054D01*
X101731054Y-138998285D01*
X101844093Y-138430000D01*
X101731054Y-137861715D01*
X101409147Y-137379946D01*
X101079974Y-137160000D01*
X101409147Y-136940054D01*
X101731054Y-136458285D01*
X101844093Y-135890000D01*
X101731054Y-135321715D01*
X101409147Y-134839946D01*
X101068447Y-134612298D01*
X101211358Y-134545183D01*
X101601645Y-134116924D01*
X101771476Y-133706890D01*
X101650155Y-133477000D01*
X100457000Y-133477000D01*
X100457000Y-133497000D01*
X100203000Y-133497000D01*
X100203000Y-133477000D01*
X99009845Y-133477000D01*
X98888524Y-133706890D01*
X99058355Y-134116924D01*
X99448642Y-134545183D01*
X99591553Y-134612298D01*
X99250853Y-134839946D01*
X98928946Y-135321715D01*
X98815907Y-135890000D01*
X97567440Y-135890000D01*
X97567440Y-134535000D01*
X97523162Y-134299683D01*
X97384090Y-134083559D01*
X97257314Y-133996936D01*
X97343000Y-133911250D01*
X97343000Y-132612000D01*
X97597000Y-132612000D01*
X97597000Y-133911250D01*
X97755750Y-134070000D01*
X97996310Y-134070000D01*
X98229699Y-133973327D01*
X98408327Y-133794698D01*
X98505000Y-133561309D01*
X98505000Y-132770750D01*
X98346250Y-132612000D01*
X97597000Y-132612000D01*
X97343000Y-132612000D01*
X97323000Y-132612000D01*
X97323000Y-132358000D01*
X97343000Y-132358000D01*
X97343000Y-131058750D01*
X97597000Y-131058750D01*
X97597000Y-132358000D01*
X98346250Y-132358000D01*
X98505000Y-132199250D01*
X98505000Y-131408691D01*
X98408327Y-131175302D01*
X98229699Y-130996673D01*
X97996310Y-130900000D01*
X97755750Y-130900000D01*
X97597000Y-131058750D01*
X97343000Y-131058750D01*
X97184250Y-130900000D01*
X96943690Y-130900000D01*
X96710301Y-130996673D01*
X96531673Y-131175302D01*
X96516577Y-131211747D01*
X96434090Y-131083559D01*
X96405000Y-131063683D01*
X96405000Y-130915868D01*
X97118428Y-130202440D01*
X97985000Y-130202440D01*
X98220317Y-130158162D01*
X98436441Y-130019090D01*
X98476815Y-129960000D01*
X98832560Y-129960000D01*
X98832560Y-131660000D01*
X98876838Y-131895317D01*
X99015910Y-132111441D01*
X99228110Y-132256431D01*
X99336107Y-132278301D01*
X99058355Y-132583076D01*
X98888524Y-132993110D01*
X99009845Y-133223000D01*
X100203000Y-133223000D01*
X100203000Y-133203000D01*
X100457000Y-133203000D01*
X100457000Y-133223000D01*
X101650155Y-133223000D01*
X101771476Y-132993110D01*
X101601645Y-132583076D01*
X101325499Y-132280063D01*
X101415317Y-132263162D01*
X101631441Y-132124090D01*
X101776431Y-131911890D01*
X101827440Y-131660000D01*
X101827440Y-129960000D01*
X103912560Y-129960000D01*
X103912560Y-131660000D01*
X103956838Y-131895317D01*
X104095910Y-132111441D01*
X104308110Y-132256431D01*
X104416107Y-132278301D01*
X104138355Y-132583076D01*
X103968524Y-132993110D01*
X104089845Y-133223000D01*
X105283000Y-133223000D01*
X105283000Y-133203000D01*
X105537000Y-133203000D01*
X105537000Y-133223000D01*
X106730155Y-133223000D01*
X106851476Y-132993110D01*
X106681645Y-132583076D01*
X106614767Y-132509691D01*
X107785000Y-132509691D01*
X107785000Y-133350250D01*
X107943750Y-133509000D01*
X109093000Y-133509000D01*
X109093000Y-132159750D01*
X109347000Y-132159750D01*
X109347000Y-133509000D01*
X110496250Y-133509000D01*
X110655000Y-133350250D01*
X110655000Y-132509691D01*
X110619378Y-132423690D01*
X110665000Y-132423690D01*
X110665000Y-133064250D01*
X110823750Y-133223000D01*
X112173000Y-133223000D01*
X112173000Y-132073750D01*
X112427000Y-132073750D01*
X112427000Y-133223000D01*
X113776250Y-133223000D01*
X113935000Y-133064250D01*
X113935000Y-132423690D01*
X113838327Y-132190301D01*
X113659698Y-132011673D01*
X113426309Y-131915000D01*
X112585750Y-131915000D01*
X112427000Y-132073750D01*
X112173000Y-132073750D01*
X112014250Y-131915000D01*
X111173691Y-131915000D01*
X110940302Y-132011673D01*
X110761673Y-132190301D01*
X110665000Y-132423690D01*
X110619378Y-132423690D01*
X110558327Y-132276302D01*
X110379699Y-132097673D01*
X110146310Y-132001000D01*
X109505750Y-132001000D01*
X109347000Y-132159750D01*
X109093000Y-132159750D01*
X108934250Y-132001000D01*
X108293690Y-132001000D01*
X108060301Y-132097673D01*
X107881673Y-132276302D01*
X107785000Y-132509691D01*
X106614767Y-132509691D01*
X106405499Y-132280063D01*
X106495317Y-132263162D01*
X106711441Y-132124090D01*
X106856431Y-131911890D01*
X106907440Y-131660000D01*
X106907440Y-129960000D01*
X106863162Y-129724683D01*
X106724090Y-129508559D01*
X106511890Y-129363569D01*
X106260000Y-129312560D01*
X104560000Y-129312560D01*
X104324683Y-129356838D01*
X104108559Y-129495910D01*
X103963569Y-129708110D01*
X103912560Y-129960000D01*
X101827440Y-129960000D01*
X101783162Y-129724683D01*
X101644090Y-129508559D01*
X101431890Y-129363569D01*
X101180000Y-129312560D01*
X99480000Y-129312560D01*
X99244683Y-129356838D01*
X99028559Y-129495910D01*
X98883569Y-129708110D01*
X98832560Y-129960000D01*
X98476815Y-129960000D01*
X98581431Y-129806890D01*
X98632440Y-129555000D01*
X98632440Y-128255000D01*
X98588162Y-128019683D01*
X98449090Y-127803559D01*
X98236890Y-127658569D01*
X97985000Y-127607560D01*
X96485000Y-127607560D01*
X96249683Y-127651838D01*
X96033559Y-127790910D01*
X95888569Y-128003110D01*
X95885919Y-128016197D01*
X95749090Y-127803559D01*
X95536890Y-127658569D01*
X95285000Y-127607560D01*
X93785000Y-127607560D01*
X93549683Y-127651838D01*
X93333559Y-127790910D01*
X93188569Y-128003110D01*
X93137560Y-128255000D01*
X93137560Y-129555000D01*
X93181838Y-129790317D01*
X93320910Y-130006441D01*
X93533110Y-130151431D01*
X93700000Y-130185227D01*
X93700000Y-130645000D01*
X93090750Y-130645000D01*
X92932000Y-130803750D01*
X92932000Y-131953000D01*
X92952000Y-131953000D01*
X92952000Y-132207000D01*
X92932000Y-132207000D01*
X92932000Y-133356250D01*
X93090750Y-133515000D01*
X93700000Y-133515000D01*
X93700000Y-134620000D01*
X93707957Y-134660000D01*
X93700000Y-134700000D01*
X93700000Y-135619132D01*
X93150434Y-135069566D01*
X93075565Y-135019540D01*
X92879541Y-134888561D01*
X92560000Y-134825000D01*
X92167440Y-134825000D01*
X92167440Y-134710000D01*
X92123162Y-134474683D01*
X91984090Y-134258559D01*
X91771890Y-134113569D01*
X91520000Y-134062560D01*
X90720000Y-134062560D01*
X90484683Y-134106838D01*
X90268559Y-134245910D01*
X90169367Y-134391083D01*
X90084090Y-134258559D01*
X90055000Y-134238683D01*
X90055000Y-133473714D01*
X90256441Y-133344090D01*
X90401431Y-133131890D01*
X90452440Y-132880000D01*
X90452440Y-132365750D01*
X91170000Y-132365750D01*
X91170000Y-133006310D01*
X91266673Y-133239699D01*
X91445302Y-133418327D01*
X91678691Y-133515000D01*
X92519250Y-133515000D01*
X92678000Y-133356250D01*
X92678000Y-132207000D01*
X91328750Y-132207000D01*
X91170000Y-132365750D01*
X90452440Y-132365750D01*
X90452440Y-131280000D01*
X90428674Y-131153690D01*
X91170000Y-131153690D01*
X91170000Y-131794250D01*
X91328750Y-131953000D01*
X92678000Y-131953000D01*
X92678000Y-130803750D01*
X92519250Y-130645000D01*
X91678691Y-130645000D01*
X91445302Y-130741673D01*
X91266673Y-130920301D01*
X91170000Y-131153690D01*
X90428674Y-131153690D01*
X90408162Y-131044683D01*
X90269090Y-130828559D01*
X90056890Y-130683569D01*
X89805000Y-130632560D01*
X88538428Y-130632560D01*
X88125434Y-130219566D01*
X88033536Y-130158162D01*
X87854541Y-130038561D01*
X87535000Y-129975000D01*
X86587440Y-129975000D01*
X86587440Y-129960000D01*
X86543162Y-129724683D01*
X86404090Y-129508559D01*
X86191890Y-129363569D01*
X85940000Y-129312560D01*
X84240000Y-129312560D01*
X84004683Y-129356838D01*
X83788559Y-129495910D01*
X83643569Y-129708110D01*
X83592560Y-129960000D01*
X83592560Y-131660000D01*
X83636838Y-131895317D01*
X83775910Y-132111441D01*
X83988110Y-132256431D01*
X84096107Y-132278301D01*
X83818355Y-132583076D01*
X83648524Y-132993110D01*
X83769845Y-133223000D01*
X84963000Y-133223000D01*
X84963000Y-133203000D01*
X85217000Y-133203000D01*
X85217000Y-133223000D01*
X86410155Y-133223000D01*
X86531476Y-132993110D01*
X86361645Y-132583076D01*
X86085499Y-132280063D01*
X86175317Y-132263162D01*
X86391441Y-132124090D01*
X86536431Y-131911890D01*
X86587440Y-131660000D01*
X86587440Y-131645000D01*
X87157560Y-131645000D01*
X87157560Y-132880000D01*
X87201838Y-133115317D01*
X87340910Y-133331441D01*
X87553110Y-133476431D01*
X87805000Y-133527440D01*
X88385000Y-133527440D01*
X88385000Y-134235331D01*
X88368559Y-134245910D01*
X88223569Y-134458110D01*
X88172560Y-134710000D01*
X88172560Y-136610000D01*
X88216838Y-136845317D01*
X88355910Y-137061441D01*
X88568110Y-137206431D01*
X88820000Y-137257440D01*
X89324534Y-137257440D01*
X89231673Y-137350302D01*
X89135000Y-137583691D01*
X89135000Y-138374250D01*
X89293750Y-138533000D01*
X90043000Y-138533000D01*
X90043000Y-137233750D01*
X89956988Y-137147738D01*
X90071441Y-137074090D01*
X90170633Y-136928917D01*
X90255910Y-137061441D01*
X90382686Y-137148064D01*
X90297000Y-137233750D01*
X90297000Y-138533000D01*
X91046250Y-138533000D01*
X91205000Y-138374250D01*
X91205000Y-137583691D01*
X91108327Y-137350302D01*
X91015466Y-137257440D01*
X91520000Y-137257440D01*
X91755317Y-137213162D01*
X91971441Y-137074090D01*
X92116431Y-136861890D01*
X92167440Y-136610000D01*
X92167440Y-136495000D01*
X92214132Y-136495000D01*
X93145000Y-137425868D01*
X93145000Y-140792560D01*
X91170000Y-140792560D01*
X90934683Y-140836838D01*
X90718559Y-140975910D01*
X90573569Y-141188110D01*
X90522560Y-141440000D01*
X90522560Y-143040000D01*
X90566838Y-143275317D01*
X90705910Y-143491441D01*
X90918110Y-143636431D01*
X91170000Y-143687440D01*
X93170000Y-143687440D01*
X93405317Y-143643162D01*
X93621441Y-143504090D01*
X93766431Y-143291890D01*
X93780676Y-143221544D01*
X95294566Y-144735434D01*
X95565459Y-144916439D01*
X95885000Y-144980000D01*
X99349132Y-144980000D01*
X99495000Y-145125868D01*
X99495000Y-146050000D01*
X99558561Y-146369541D01*
X99739566Y-146640434D01*
X100427997Y-147328865D01*
X100374566Y-147364566D01*
X99972939Y-147766193D01*
X99695000Y-147710907D01*
X99126715Y-147823946D01*
X98644946Y-148145853D01*
X98425000Y-148475026D01*
X98205054Y-148145853D01*
X97723285Y-147823946D01*
X97155000Y-147710907D01*
X96586715Y-147823946D01*
X96104946Y-148145853D01*
X95885000Y-148475026D01*
X95665054Y-148145853D01*
X95183285Y-147823946D01*
X94615000Y-147710907D01*
X94046715Y-147823946D01*
X93564946Y-148145853D01*
X93537150Y-148187452D01*
X93528162Y-148139683D01*
X93389090Y-147923559D01*
X93176890Y-147778569D01*
X92925000Y-147727560D01*
X91225000Y-147727560D01*
X90989683Y-147771838D01*
X90773559Y-147910910D01*
X90628569Y-148123110D01*
X90577560Y-148375000D01*
X90577560Y-150075000D01*
X90621838Y-150310317D01*
X90760910Y-150526441D01*
X90973110Y-150671431D01*
X91225000Y-150722440D01*
X92925000Y-150722440D01*
X93160317Y-150678162D01*
X93376441Y-150539090D01*
X93521431Y-150326890D01*
X93535086Y-150259459D01*
X93564946Y-150304147D01*
X94046715Y-150626054D01*
X94615000Y-150739093D01*
X95183285Y-150626054D01*
X95665054Y-150304147D01*
X95885000Y-149974974D01*
X96104946Y-150304147D01*
X96586715Y-150626054D01*
X97155000Y-150739093D01*
X97723285Y-150626054D01*
X98205054Y-150304147D01*
X98425000Y-149974974D01*
X98644946Y-150304147D01*
X99126715Y-150626054D01*
X99695000Y-150739093D01*
X100263285Y-150626054D01*
X100745054Y-150304147D01*
X100972702Y-149963447D01*
X101039817Y-150106358D01*
X101468076Y-150496645D01*
X101878110Y-150666476D01*
X102108000Y-150545155D01*
X102108000Y-149352000D01*
X102362000Y-149352000D01*
X102362000Y-150545155D01*
X102591890Y-150666476D01*
X103001924Y-150496645D01*
X103430183Y-150106358D01*
X103505000Y-149947046D01*
X103579817Y-150106358D01*
X104008076Y-150496645D01*
X104418110Y-150666476D01*
X104648000Y-150545155D01*
X104648000Y-149352000D01*
X104902000Y-149352000D01*
X104902000Y-150545155D01*
X105131890Y-150666476D01*
X105541924Y-150496645D01*
X105970183Y-150106358D01*
X106216486Y-149581892D01*
X106095819Y-149352000D01*
X104902000Y-149352000D01*
X104648000Y-149352000D01*
X102362000Y-149352000D01*
X102108000Y-149352000D01*
X102088000Y-149352000D01*
X102088000Y-149098000D01*
X102108000Y-149098000D01*
X102108000Y-149078000D01*
X102362000Y-149078000D01*
X102362000Y-149098000D01*
X104648000Y-149098000D01*
X104648000Y-149078000D01*
X104902000Y-149078000D01*
X104902000Y-149098000D01*
X106095819Y-149098000D01*
X106216486Y-148868108D01*
X106179804Y-148790000D01*
X106812560Y-148790000D01*
X106812560Y-149860000D01*
X106856838Y-150095317D01*
X106995910Y-150311441D01*
X107208110Y-150456431D01*
X107460000Y-150507440D01*
X108430000Y-150507440D01*
X108590690Y-150477204D01*
X108740000Y-150507440D01*
X109710000Y-150507440D01*
X109945317Y-150463162D01*
X110161441Y-150324090D01*
X110306431Y-150111890D01*
X110316939Y-150060000D01*
X110897560Y-150060000D01*
X110897560Y-150075000D01*
X110941838Y-150310317D01*
X111080910Y-150526441D01*
X111293110Y-150671431D01*
X111545000Y-150722440D01*
X113245000Y-150722440D01*
X113480317Y-150678162D01*
X113696441Y-150539090D01*
X113841431Y-150326890D01*
X113855086Y-150259459D01*
X113884946Y-150304147D01*
X114366715Y-150626054D01*
X114935000Y-150739093D01*
X115212939Y-150683807D01*
X115819132Y-151290000D01*
X85069931Y-151290000D01*
X83746295Y-151026712D01*
X82683454Y-150316546D01*
X81973288Y-149253707D01*
X81710000Y-147930069D01*
X81710000Y-147561442D01*
X83664509Y-147561442D01*
X84095202Y-148603801D01*
X84892005Y-149401995D01*
X85933610Y-149834507D01*
X87061442Y-149835491D01*
X88103801Y-149404798D01*
X88901995Y-148607995D01*
X89334507Y-147566390D01*
X89335491Y-146438558D01*
X88904798Y-145396199D01*
X88107995Y-144598005D01*
X87066390Y-144165493D01*
X85938558Y-144164509D01*
X84896199Y-144595202D01*
X84098005Y-145392005D01*
X83665493Y-146433610D01*
X83664509Y-147561442D01*
X81710000Y-147561442D01*
X81710000Y-142525750D01*
X86535000Y-142525750D01*
X86535000Y-143166310D01*
X86631673Y-143399699D01*
X86810302Y-143578327D01*
X87043691Y-143675000D01*
X87884250Y-143675000D01*
X88043000Y-143516250D01*
X88043000Y-142367000D01*
X88297000Y-142367000D01*
X88297000Y-143516250D01*
X88455750Y-143675000D01*
X89296309Y-143675000D01*
X89529698Y-143578327D01*
X89708327Y-143399699D01*
X89805000Y-143166310D01*
X89805000Y-142525750D01*
X89646250Y-142367000D01*
X88297000Y-142367000D01*
X88043000Y-142367000D01*
X86693750Y-142367000D01*
X86535000Y-142525750D01*
X81710000Y-142525750D01*
X81710000Y-141313690D01*
X86535000Y-141313690D01*
X86535000Y-141954250D01*
X86693750Y-142113000D01*
X88043000Y-142113000D01*
X88043000Y-140963750D01*
X88297000Y-140963750D01*
X88297000Y-142113000D01*
X89646250Y-142113000D01*
X89805000Y-141954250D01*
X89805000Y-141313690D01*
X89708327Y-141080301D01*
X89529698Y-140901673D01*
X89296309Y-140805000D01*
X88455750Y-140805000D01*
X88297000Y-140963750D01*
X88043000Y-140963750D01*
X87884250Y-140805000D01*
X87043691Y-140805000D01*
X86810302Y-140901673D01*
X86631673Y-141080301D01*
X86535000Y-141313690D01*
X81710000Y-141313690D01*
X81710000Y-135890000D01*
X83575907Y-135890000D01*
X83688946Y-136458285D01*
X84010853Y-136940054D01*
X84340026Y-137160000D01*
X84010853Y-137379946D01*
X83688946Y-137861715D01*
X83575907Y-138430000D01*
X83688946Y-138998285D01*
X84010853Y-139480054D01*
X84492622Y-139801961D01*
X85060907Y-139915000D01*
X85119093Y-139915000D01*
X85687378Y-139801961D01*
X86169147Y-139480054D01*
X86491054Y-138998285D01*
X86501503Y-138945750D01*
X89135000Y-138945750D01*
X89135000Y-139736309D01*
X89231673Y-139969698D01*
X89410301Y-140148327D01*
X89643690Y-140245000D01*
X89884250Y-140245000D01*
X90043000Y-140086250D01*
X90043000Y-138787000D01*
X90297000Y-138787000D01*
X90297000Y-140086250D01*
X90455750Y-140245000D01*
X90696310Y-140245000D01*
X90929699Y-140148327D01*
X91108327Y-139969698D01*
X91205000Y-139736309D01*
X91205000Y-138945750D01*
X91046250Y-138787000D01*
X90297000Y-138787000D01*
X90043000Y-138787000D01*
X89293750Y-138787000D01*
X89135000Y-138945750D01*
X86501503Y-138945750D01*
X86604093Y-138430000D01*
X86491054Y-137861715D01*
X86169147Y-137379946D01*
X85839974Y-137160000D01*
X86169147Y-136940054D01*
X86491054Y-136458285D01*
X86604093Y-135890000D01*
X86491054Y-135321715D01*
X86169147Y-134839946D01*
X85828447Y-134612298D01*
X85971358Y-134545183D01*
X86361645Y-134116924D01*
X86531476Y-133706890D01*
X86410155Y-133477000D01*
X85217000Y-133477000D01*
X85217000Y-133497000D01*
X84963000Y-133497000D01*
X84963000Y-133477000D01*
X83769845Y-133477000D01*
X83648524Y-133706890D01*
X83818355Y-134116924D01*
X84208642Y-134545183D01*
X84351553Y-134612298D01*
X84010853Y-134839946D01*
X83688946Y-135321715D01*
X83575907Y-135890000D01*
X81710000Y-135890000D01*
X81710000Y-123375167D01*
X100029838Y-123375167D01*
X100171883Y-123718943D01*
X100277710Y-123824954D01*
X100172808Y-123929673D01*
X100030162Y-124273201D01*
X100029838Y-124645167D01*
X100171883Y-124988943D01*
X100434673Y-125252192D01*
X100778201Y-125394838D01*
X101150167Y-125395162D01*
X101493943Y-125253117D01*
X101527118Y-125220000D01*
X106117537Y-125220000D01*
X106149673Y-125252192D01*
X106493201Y-125394838D01*
X106865167Y-125395162D01*
X107208943Y-125253117D01*
X107472192Y-124990327D01*
X107581765Y-124726446D01*
X107843943Y-124618117D01*
X108107192Y-124355327D01*
X108249838Y-124011799D01*
X108250162Y-123639833D01*
X108108117Y-123296057D01*
X107845327Y-123032808D01*
X107581446Y-122923235D01*
X107473117Y-122661057D01*
X107210327Y-122397808D01*
X106946446Y-122288235D01*
X106838117Y-122026057D01*
X106575327Y-121762808D01*
X106231799Y-121620162D01*
X105859833Y-121619838D01*
X105516057Y-121761883D01*
X105482882Y-121795000D01*
X102162463Y-121795000D01*
X102130327Y-121762808D01*
X101786799Y-121620162D01*
X101414833Y-121619838D01*
X101071057Y-121761883D01*
X100807808Y-122024673D01*
X100698235Y-122288554D01*
X100436057Y-122396883D01*
X100172808Y-122659673D01*
X100030162Y-123003201D01*
X100029838Y-123375167D01*
X81710000Y-123375167D01*
X81710000Y-121470167D01*
X109554838Y-121470167D01*
X109696883Y-121813943D01*
X109730000Y-121847118D01*
X109730000Y-124532537D01*
X109697808Y-124564673D01*
X109555162Y-124908201D01*
X109554838Y-125280167D01*
X109696883Y-125623943D01*
X109959673Y-125887192D01*
X110303201Y-126029838D01*
X110675167Y-126030162D01*
X111018943Y-125888117D01*
X111282192Y-125625327D01*
X111424838Y-125281799D01*
X111425162Y-124909833D01*
X111283117Y-124566057D01*
X111250000Y-124532882D01*
X111250000Y-121847463D01*
X111282192Y-121815327D01*
X111424838Y-121471799D01*
X111425162Y-121099833D01*
X111283117Y-120756057D01*
X111020327Y-120492808D01*
X110676799Y-120350162D01*
X110304833Y-120349838D01*
X109961057Y-120491883D01*
X109697808Y-120754673D01*
X109555162Y-121098201D01*
X109554838Y-121470167D01*
X81710000Y-121470167D01*
X81710000Y-107000000D01*
X82673000Y-107000000D01*
X82673000Y-119000000D01*
X82682334Y-119047789D01*
X82710197Y-119089803D01*
X83510197Y-119889803D01*
X83550590Y-119916994D01*
X83600000Y-119927000D01*
X90800000Y-119927000D01*
X90847789Y-119917666D01*
X90889803Y-119889803D01*
X93814198Y-116965408D01*
X93680162Y-117288201D01*
X93679838Y-117660167D01*
X93821883Y-118003943D01*
X94084673Y-118267192D01*
X94428201Y-118409838D01*
X94800167Y-118410162D01*
X95143943Y-118268117D01*
X95407192Y-118005327D01*
X95549838Y-117661799D01*
X95549879Y-117614923D01*
X98020402Y-115144400D01*
X98158554Y-115201765D01*
X98266883Y-115463943D01*
X98529673Y-115727192D01*
X98873201Y-115869838D01*
X99245167Y-115870162D01*
X99588943Y-115728117D01*
X99852192Y-115465327D01*
X99994838Y-115121799D01*
X99994879Y-115074923D01*
X100867401Y-114202401D01*
X101032148Y-113955840D01*
X101090000Y-113665000D01*
X101090000Y-112695110D01*
X101150167Y-112695162D01*
X101493943Y-112553117D01*
X101757192Y-112290327D01*
X101899838Y-111946799D01*
X101899839Y-111945167D01*
X103839838Y-111945167D01*
X103981883Y-112288943D01*
X104015000Y-112322118D01*
X104015000Y-113102537D01*
X103982808Y-113134673D01*
X103840162Y-113478201D01*
X103839838Y-113850167D01*
X103981883Y-114193943D01*
X104244673Y-114457192D01*
X104588201Y-114599838D01*
X104960167Y-114600162D01*
X105238476Y-114485167D01*
X105744838Y-114485167D01*
X105886883Y-114828943D01*
X106149673Y-115092192D01*
X106493201Y-115234838D01*
X106865167Y-115235162D01*
X107208943Y-115093117D01*
X107242118Y-115060000D01*
X115570000Y-115060000D01*
X115860839Y-115002148D01*
X116107401Y-114837401D01*
X116604019Y-114340783D01*
X116708946Y-114868285D01*
X117030853Y-115350054D01*
X117360026Y-115570000D01*
X117030853Y-115789946D01*
X116708946Y-116271715D01*
X116595907Y-116840000D01*
X116708946Y-117408285D01*
X117030853Y-117890054D01*
X117360026Y-118110000D01*
X117030853Y-118329946D01*
X116708946Y-118811715D01*
X116595907Y-119380000D01*
X116708946Y-119948285D01*
X117030853Y-120430054D01*
X117360026Y-120650000D01*
X117030853Y-120869946D01*
X116708946Y-121351715D01*
X116595907Y-121920000D01*
X116708946Y-122488285D01*
X117030853Y-122970054D01*
X117360026Y-123190000D01*
X117030853Y-123409946D01*
X116708946Y-123891715D01*
X116595907Y-124460000D01*
X116708946Y-125028285D01*
X117030853Y-125510054D01*
X117512622Y-125831961D01*
X118080907Y-125945000D01*
X118139093Y-125945000D01*
X118707378Y-125831961D01*
X119189147Y-125510054D01*
X119193097Y-125504142D01*
X119261673Y-125669699D01*
X119440302Y-125848327D01*
X119673691Y-125945000D01*
X120364250Y-125945000D01*
X120523000Y-125786250D01*
X120523000Y-124587000D01*
X120777000Y-124587000D01*
X120777000Y-125786250D01*
X120935750Y-125945000D01*
X121626309Y-125945000D01*
X121859698Y-125848327D01*
X122038327Y-125669699D01*
X122135000Y-125436310D01*
X122135000Y-124745750D01*
X121976250Y-124587000D01*
X120777000Y-124587000D01*
X120523000Y-124587000D01*
X120503000Y-124587000D01*
X120503000Y-124333000D01*
X120523000Y-124333000D01*
X120523000Y-122047000D01*
X120777000Y-122047000D01*
X120777000Y-124333000D01*
X121976250Y-124333000D01*
X122135000Y-124174250D01*
X122135000Y-123483690D01*
X122038327Y-123250301D01*
X121859698Y-123071673D01*
X121650122Y-122984864D01*
X121921645Y-122686924D01*
X122091476Y-122276890D01*
X121970155Y-122047000D01*
X120777000Y-122047000D01*
X120523000Y-122047000D01*
X120503000Y-122047000D01*
X120503000Y-121793000D01*
X120523000Y-121793000D01*
X120523000Y-119507000D01*
X120777000Y-119507000D01*
X120777000Y-121793000D01*
X121970155Y-121793000D01*
X122091476Y-121563110D01*
X121921645Y-121153076D01*
X121531358Y-120724817D01*
X121372046Y-120650000D01*
X121531358Y-120575183D01*
X121921645Y-120146924D01*
X122091476Y-119736890D01*
X121970155Y-119507000D01*
X120777000Y-119507000D01*
X120523000Y-119507000D01*
X120503000Y-119507000D01*
X120503000Y-119253000D01*
X120523000Y-119253000D01*
X120523000Y-116967000D01*
X120777000Y-116967000D01*
X120777000Y-119253000D01*
X121970155Y-119253000D01*
X122091476Y-119023110D01*
X121921645Y-118613076D01*
X121531358Y-118184817D01*
X121372046Y-118110000D01*
X121531358Y-118035183D01*
X121921645Y-117606924D01*
X122091476Y-117196890D01*
X121970155Y-116967000D01*
X120777000Y-116967000D01*
X120523000Y-116967000D01*
X120503000Y-116967000D01*
X120503000Y-116713000D01*
X120523000Y-116713000D01*
X120523000Y-114427000D01*
X120777000Y-114427000D01*
X120777000Y-116713000D01*
X121970155Y-116713000D01*
X122091476Y-116483110D01*
X121921645Y-116073076D01*
X121531358Y-115644817D01*
X121372046Y-115570000D01*
X121531358Y-115495183D01*
X121921645Y-115066924D01*
X122091476Y-114656890D01*
X121970155Y-114427000D01*
X120777000Y-114427000D01*
X120523000Y-114427000D01*
X120503000Y-114427000D01*
X120503000Y-114173000D01*
X120523000Y-114173000D01*
X120523000Y-111887000D01*
X120777000Y-111887000D01*
X120777000Y-114173000D01*
X121970155Y-114173000D01*
X122091476Y-113943110D01*
X121921645Y-113533076D01*
X121531358Y-113104817D01*
X121372046Y-113030000D01*
X121531358Y-112955183D01*
X121921645Y-112526924D01*
X122091476Y-112116890D01*
X121970155Y-111887000D01*
X120777000Y-111887000D01*
X120523000Y-111887000D01*
X120503000Y-111887000D01*
X120503000Y-111633000D01*
X120523000Y-111633000D01*
X120523000Y-109347000D01*
X120777000Y-109347000D01*
X120777000Y-111633000D01*
X121970155Y-111633000D01*
X122091476Y-111403110D01*
X121921645Y-110993076D01*
X121531358Y-110564817D01*
X121372046Y-110490000D01*
X121531358Y-110415183D01*
X121921645Y-109986924D01*
X122091476Y-109576890D01*
X121970155Y-109347000D01*
X120777000Y-109347000D01*
X120523000Y-109347000D01*
X120503000Y-109347000D01*
X120503000Y-109093000D01*
X120523000Y-109093000D01*
X120523000Y-106807000D01*
X120777000Y-106807000D01*
X120777000Y-109093000D01*
X121970155Y-109093000D01*
X122091476Y-108863110D01*
X121921645Y-108453076D01*
X121531358Y-108024817D01*
X121372046Y-107950000D01*
X121531358Y-107875183D01*
X121921645Y-107446924D01*
X122091476Y-107036890D01*
X121970155Y-106807000D01*
X120777000Y-106807000D01*
X120523000Y-106807000D01*
X120503000Y-106807000D01*
X120503000Y-106553000D01*
X120523000Y-106553000D01*
X120523000Y-105359181D01*
X120777000Y-105359181D01*
X120777000Y-106553000D01*
X121970155Y-106553000D01*
X122091476Y-106323110D01*
X121921645Y-105913076D01*
X121531358Y-105484817D01*
X121006892Y-105238514D01*
X120777000Y-105359181D01*
X120523000Y-105359181D01*
X120293108Y-105238514D01*
X119768642Y-105484817D01*
X119378355Y-105913076D01*
X119378345Y-105913101D01*
X119189147Y-105629946D01*
X118894730Y-105433223D01*
X118974353Y-105183958D01*
X118110000Y-104319605D01*
X117245647Y-105183958D01*
X117325270Y-105433223D01*
X117030853Y-105629946D01*
X116708946Y-106111715D01*
X116595907Y-106680000D01*
X116708946Y-107248285D01*
X117030853Y-107730054D01*
X117360026Y-107950000D01*
X117030853Y-108169946D01*
X116708946Y-108651715D01*
X116595907Y-109220000D01*
X116708946Y-109788285D01*
X117030853Y-110270054D01*
X117360026Y-110490000D01*
X117030853Y-110709946D01*
X116708946Y-111191715D01*
X116595907Y-111760000D01*
X116668790Y-112126408D01*
X115255198Y-113540000D01*
X107242463Y-113540000D01*
X107210327Y-113507808D01*
X106866799Y-113365162D01*
X106494833Y-113364838D01*
X106151057Y-113506883D01*
X105887808Y-113769673D01*
X105745162Y-114113201D01*
X105744838Y-114485167D01*
X105238476Y-114485167D01*
X105303943Y-114458117D01*
X105567192Y-114195327D01*
X105709838Y-113851799D01*
X105710162Y-113479833D01*
X105568117Y-113136057D01*
X105535000Y-113102882D01*
X105535000Y-112322463D01*
X105567192Y-112290327D01*
X105709838Y-111946799D01*
X105710162Y-111574833D01*
X105568117Y-111231057D01*
X105305327Y-110967808D01*
X104961799Y-110825162D01*
X104589833Y-110824838D01*
X104246057Y-110966883D01*
X103982808Y-111229673D01*
X103840162Y-111573201D01*
X103839838Y-111945167D01*
X101899839Y-111945167D01*
X101900162Y-111574833D01*
X101758117Y-111231057D01*
X101725000Y-111197882D01*
X101725000Y-109855000D01*
X101667148Y-109564161D01*
X101502401Y-109317599D01*
X99820000Y-107635198D01*
X99820000Y-103670633D01*
X100143201Y-103804838D01*
X100515167Y-103805162D01*
X100858943Y-103663117D01*
X100892118Y-103630000D01*
X116715317Y-103630000D01*
X116613282Y-103911279D01*
X116639685Y-104501458D01*
X116814741Y-104924080D01*
X117066042Y-105004353D01*
X117930395Y-104140000D01*
X117916253Y-104125858D01*
X118095858Y-103946253D01*
X118110000Y-103960395D01*
X118124143Y-103946253D01*
X118303748Y-104125858D01*
X118289605Y-104140000D01*
X119153958Y-105004353D01*
X119405259Y-104924080D01*
X119606718Y-104368721D01*
X119580315Y-103778542D01*
X119508222Y-103604495D01*
X119670839Y-103572148D01*
X119917401Y-103407401D01*
X120273291Y-103051511D01*
X120353319Y-103084742D01*
X120944089Y-103085257D01*
X121490086Y-102859656D01*
X121908188Y-102442283D01*
X122134742Y-101896681D01*
X122135257Y-101305911D01*
X121909656Y-100759914D01*
X121492283Y-100341812D01*
X121433361Y-100317345D01*
X121700054Y-100139147D01*
X122021961Y-99657378D01*
X122135000Y-99089093D01*
X122135000Y-99030907D01*
X122021961Y-98462622D01*
X121700054Y-97980853D01*
X121218285Y-97658946D01*
X120650000Y-97545907D01*
X120081715Y-97658946D01*
X119599946Y-97980853D01*
X119385350Y-98302020D01*
X119381645Y-98293076D01*
X118991358Y-97864817D01*
X118832046Y-97790000D01*
X118991358Y-97715183D01*
X119381645Y-97286924D01*
X119551476Y-96876890D01*
X119430155Y-96647000D01*
X118237000Y-96647000D01*
X118237000Y-98933000D01*
X118257000Y-98933000D01*
X118257000Y-99187000D01*
X118237000Y-99187000D01*
X118237000Y-99207000D01*
X117983000Y-99207000D01*
X117983000Y-99187000D01*
X117963000Y-99187000D01*
X117963000Y-98933000D01*
X117983000Y-98933000D01*
X117983000Y-96647000D01*
X117963000Y-96647000D01*
X117963000Y-96393000D01*
X117983000Y-96393000D01*
X117983000Y-94107000D01*
X118237000Y-94107000D01*
X118237000Y-96393000D01*
X119430155Y-96393000D01*
X119551476Y-96163110D01*
X119381645Y-95753076D01*
X118991358Y-95324817D01*
X118832046Y-95250000D01*
X118991358Y-95175183D01*
X119381645Y-94746924D01*
X119551476Y-94336890D01*
X119430155Y-94107000D01*
X118237000Y-94107000D01*
X117983000Y-94107000D01*
X117963000Y-94107000D01*
X117963000Y-93853000D01*
X117983000Y-93853000D01*
X117983000Y-91567000D01*
X118237000Y-91567000D01*
X118237000Y-93853000D01*
X119430155Y-93853000D01*
X119551476Y-93623110D01*
X119381645Y-93213076D01*
X118991358Y-92784817D01*
X118832046Y-92710000D01*
X118991358Y-92635183D01*
X119381645Y-92206924D01*
X119551476Y-91796890D01*
X119430155Y-91567000D01*
X118237000Y-91567000D01*
X117983000Y-91567000D01*
X117963000Y-91567000D01*
X117963000Y-91313000D01*
X117983000Y-91313000D01*
X117983000Y-89027000D01*
X118237000Y-89027000D01*
X118237000Y-91313000D01*
X119430155Y-91313000D01*
X119551476Y-91083110D01*
X119381645Y-90673076D01*
X118991358Y-90244817D01*
X118832046Y-90170000D01*
X118991358Y-90095183D01*
X119381645Y-89666924D01*
X119551476Y-89256890D01*
X119430155Y-89027000D01*
X118237000Y-89027000D01*
X117983000Y-89027000D01*
X117963000Y-89027000D01*
X117963000Y-88773000D01*
X117983000Y-88773000D01*
X117983000Y-86487000D01*
X118237000Y-86487000D01*
X118237000Y-88773000D01*
X119430155Y-88773000D01*
X119551476Y-88543110D01*
X119381645Y-88133076D01*
X118991358Y-87704817D01*
X118832046Y-87630000D01*
X118991358Y-87555183D01*
X119381645Y-87126924D01*
X119551476Y-86716890D01*
X119430155Y-86487000D01*
X118237000Y-86487000D01*
X117983000Y-86487000D01*
X117963000Y-86487000D01*
X117963000Y-86233000D01*
X117983000Y-86233000D01*
X117983000Y-83947000D01*
X118237000Y-83947000D01*
X118237000Y-86233000D01*
X119430155Y-86233000D01*
X119551476Y-86003110D01*
X119381645Y-85593076D01*
X118991358Y-85164817D01*
X118832046Y-85090000D01*
X118991358Y-85015183D01*
X119381645Y-84586924D01*
X119551476Y-84176890D01*
X119430155Y-83947000D01*
X118237000Y-83947000D01*
X117983000Y-83947000D01*
X117963000Y-83947000D01*
X117963000Y-83693000D01*
X117983000Y-83693000D01*
X117983000Y-82499181D01*
X118237000Y-82499181D01*
X118237000Y-83693000D01*
X119430155Y-83693000D01*
X119551476Y-83463110D01*
X119381645Y-83053076D01*
X118991358Y-82624817D01*
X118466892Y-82378514D01*
X118237000Y-82499181D01*
X117983000Y-82499181D01*
X117753108Y-82378514D01*
X117228642Y-82624817D01*
X116838355Y-83053076D01*
X116838345Y-83053101D01*
X116649147Y-82769946D01*
X116167378Y-82448039D01*
X115599093Y-82335000D01*
X115540907Y-82335000D01*
X114972622Y-82448039D01*
X114490853Y-82769946D01*
X114168946Y-83251715D01*
X114055907Y-83820000D01*
X114168946Y-84388285D01*
X114490853Y-84870054D01*
X114820026Y-85090000D01*
X114490853Y-85309946D01*
X114168946Y-85791715D01*
X114055907Y-86360000D01*
X114168946Y-86928285D01*
X114490853Y-87410054D01*
X114820026Y-87630000D01*
X114490853Y-87849946D01*
X114168946Y-88331715D01*
X114055907Y-88900000D01*
X114168946Y-89468285D01*
X114490853Y-89950054D01*
X114820026Y-90170000D01*
X114490853Y-90389946D01*
X114168946Y-90871715D01*
X114055907Y-91440000D01*
X114168946Y-92008285D01*
X114490853Y-92490054D01*
X114820026Y-92710000D01*
X114490853Y-92929946D01*
X114168946Y-93411715D01*
X114055907Y-93980000D01*
X114168946Y-94548285D01*
X114490853Y-95030054D01*
X114820026Y-95250000D01*
X114490853Y-95469946D01*
X114168946Y-95951715D01*
X114055907Y-96520000D01*
X114168946Y-97088285D01*
X114490853Y-97570054D01*
X114820026Y-97790000D01*
X114490853Y-98009946D01*
X114168946Y-98491715D01*
X114055907Y-99060000D01*
X114168946Y-99628285D01*
X114326346Y-99863852D01*
X113762599Y-100427599D01*
X113597852Y-100674161D01*
X113540000Y-100965000D01*
X113540000Y-101285198D01*
X113350198Y-101475000D01*
X103013646Y-101475000D01*
X103022248Y-101471437D01*
X103022249Y-101471436D01*
X103346672Y-101254664D01*
X103535664Y-101065672D01*
X103752437Y-100741249D01*
X103802312Y-100620839D01*
X103854718Y-100494319D01*
X103930838Y-100111636D01*
X103930838Y-100044170D01*
X103944000Y-99978000D01*
X103944000Y-97563517D01*
X103969699Y-97501627D01*
X103970301Y-96811401D01*
X103944000Y-96747748D01*
X103944000Y-94478000D01*
X103930838Y-94411830D01*
X103930838Y-94344364D01*
X103854718Y-93961681D01*
X103752437Y-93714752D01*
X103752437Y-93714751D01*
X103535664Y-93390328D01*
X103346672Y-93201336D01*
X103022248Y-92984563D01*
X102775319Y-92882282D01*
X102392636Y-92806162D01*
X102259000Y-92806162D01*
X101742681Y-92882282D01*
X101627610Y-92929946D01*
X101495751Y-92984563D01*
X101171328Y-93201336D01*
X100982336Y-93390328D01*
X100765564Y-93714751D01*
X100765563Y-93714752D01*
X100663282Y-93961681D01*
X100587162Y-94344364D01*
X100587162Y-94411830D01*
X100574000Y-94478000D01*
X100574000Y-96630886D01*
X100500301Y-96808373D01*
X100499699Y-97498599D01*
X100574000Y-97678421D01*
X100574000Y-99978000D01*
X100587162Y-100044170D01*
X100587162Y-100111636D01*
X100663282Y-100494319D01*
X100733152Y-100663000D01*
X100765563Y-100741248D01*
X100982336Y-101065672D01*
X101171328Y-101254664D01*
X101495751Y-101471437D01*
X101504353Y-101475000D01*
X100257463Y-101475000D01*
X100225327Y-101442808D01*
X99925668Y-101318378D01*
X99994838Y-101151799D01*
X99995162Y-100779833D01*
X99853117Y-100436057D01*
X99590327Y-100172808D01*
X99246799Y-100030162D01*
X98874833Y-100029838D01*
X98531057Y-100171883D01*
X98267808Y-100434673D01*
X98125162Y-100778201D01*
X98124838Y-101150167D01*
X98266883Y-101493943D01*
X98300000Y-101527118D01*
X98300000Y-107385198D01*
X95179802Y-104265000D01*
X96592537Y-104265000D01*
X96624673Y-104297192D01*
X96968201Y-104439838D01*
X97340167Y-104440162D01*
X97683943Y-104298117D01*
X97947192Y-104035327D01*
X98089838Y-103691799D01*
X98090162Y-103319833D01*
X97948117Y-102976057D01*
X97685327Y-102712808D01*
X97341799Y-102570162D01*
X96969833Y-102569838D01*
X96626057Y-102711883D01*
X96592882Y-102745000D01*
X94542463Y-102745000D01*
X94510327Y-102712808D01*
X94166799Y-102570162D01*
X93794833Y-102569838D01*
X93470000Y-102704056D01*
X93470000Y-101527463D01*
X93502192Y-101495327D01*
X93644838Y-101151799D01*
X93645162Y-100779833D01*
X93503117Y-100436057D01*
X93240327Y-100172808D01*
X92896799Y-100030162D01*
X92524833Y-100029838D01*
X92181057Y-100171883D01*
X91917808Y-100434673D01*
X91775162Y-100778201D01*
X91774838Y-101150167D01*
X91916883Y-101493943D01*
X91950000Y-101527118D01*
X91950000Y-103505000D01*
X92007852Y-103795839D01*
X92172599Y-104042401D01*
X92807599Y-104677401D01*
X93054161Y-104842148D01*
X93345000Y-104900000D01*
X93665198Y-104900000D01*
X97861539Y-109096341D01*
X97632808Y-109324673D01*
X97490162Y-109668201D01*
X97489838Y-110040167D01*
X97631883Y-110383943D01*
X97894673Y-110647192D01*
X98238201Y-110789838D01*
X98285077Y-110789879D01*
X98850600Y-111355402D01*
X98760162Y-111573201D01*
X98759838Y-111945167D01*
X98901883Y-112288943D01*
X99164673Y-112552192D01*
X99508201Y-112694838D01*
X99570000Y-112694892D01*
X99570000Y-113350198D01*
X99183659Y-113736539D01*
X98955327Y-113507808D01*
X98727000Y-113412998D01*
X98727000Y-112200000D01*
X98718315Y-112153841D01*
X98691035Y-112111447D01*
X98649410Y-112083006D01*
X98600000Y-112073000D01*
X98200000Y-112073000D01*
X98153841Y-112081685D01*
X98111447Y-112108965D01*
X98083006Y-112150590D01*
X98073000Y-112200000D01*
X98073000Y-113433772D01*
X97896057Y-113506883D01*
X97862882Y-113540000D01*
X97790000Y-113540000D01*
X97499161Y-113597852D01*
X97386694Y-113673000D01*
X96200000Y-113673000D01*
X96152211Y-113682334D01*
X96110197Y-113710197D01*
X90547394Y-119273000D01*
X83652606Y-119273000D01*
X83327000Y-118947394D01*
X83327000Y-115644285D01*
X84974760Y-115644285D01*
X85185169Y-116153515D01*
X85574436Y-116543461D01*
X86083298Y-116754759D01*
X86634285Y-116755240D01*
X87143515Y-116544831D01*
X87533461Y-116155564D01*
X87744759Y-115646702D01*
X87745240Y-115095715D01*
X87534831Y-114586485D01*
X87145564Y-114196539D01*
X86636702Y-113985241D01*
X86085715Y-113984760D01*
X85576485Y-114195169D01*
X85186539Y-114584436D01*
X84975241Y-115093298D01*
X84974760Y-115644285D01*
X83327000Y-115644285D01*
X83327000Y-110764285D01*
X84974760Y-110764285D01*
X85185169Y-111273515D01*
X85574436Y-111663461D01*
X86083298Y-111874759D01*
X86634285Y-111875240D01*
X87143515Y-111664831D01*
X87533461Y-111275564D01*
X87744759Y-110766702D01*
X87745240Y-110215715D01*
X87534831Y-109706485D01*
X87145564Y-109316539D01*
X86636702Y-109105241D01*
X86085715Y-109104760D01*
X85576485Y-109315169D01*
X85186539Y-109704436D01*
X84975241Y-110213298D01*
X84974760Y-110764285D01*
X83327000Y-110764285D01*
X83327000Y-107052606D01*
X83652606Y-106727000D01*
X90547394Y-106727000D01*
X95310197Y-111489803D01*
X95350590Y-111516994D01*
X95400000Y-111527000D01*
X98200000Y-111527000D01*
X98246159Y-111518315D01*
X98288553Y-111491035D01*
X98316994Y-111449410D01*
X98327000Y-111400000D01*
X98327000Y-111000000D01*
X98318315Y-110953841D01*
X98291035Y-110911447D01*
X98249410Y-110883006D01*
X98200000Y-110873000D01*
X95652606Y-110873000D01*
X90889803Y-106110197D01*
X90849410Y-106083006D01*
X90800000Y-106073000D01*
X83600000Y-106073000D01*
X83552211Y-106082334D01*
X83510197Y-106110197D01*
X82710197Y-106910197D01*
X82683006Y-106950590D01*
X82673000Y-107000000D01*
X81710000Y-107000000D01*
X81710000Y-93389432D01*
X83104774Y-93389432D01*
X83303789Y-93871086D01*
X83562380Y-94130129D01*
X83305084Y-94386976D01*
X83105228Y-94868282D01*
X83104774Y-95389432D01*
X83303789Y-95871086D01*
X83562380Y-96130129D01*
X83305084Y-96386976D01*
X83105228Y-96868282D01*
X83104774Y-97389432D01*
X83303789Y-97871086D01*
X83562380Y-98130129D01*
X83305084Y-98386976D01*
X83105228Y-98868282D01*
X83104774Y-99389432D01*
X83303789Y-99871086D01*
X83562380Y-100130129D01*
X83305084Y-100386976D01*
X83105228Y-100868282D01*
X83104774Y-101389432D01*
X83303789Y-101871086D01*
X83562380Y-102130129D01*
X83305084Y-102386976D01*
X83105228Y-102868282D01*
X83104774Y-103389432D01*
X83303789Y-103871086D01*
X83671976Y-104239916D01*
X84153282Y-104439772D01*
X84674432Y-104440226D01*
X85156086Y-104241211D01*
X85524916Y-103873024D01*
X85724772Y-103391718D01*
X85725226Y-102870568D01*
X85526211Y-102388914D01*
X85267620Y-102129871D01*
X85524916Y-101873024D01*
X85724772Y-101391718D01*
X85725226Y-100870568D01*
X85526211Y-100388914D01*
X85267620Y-100129871D01*
X85524916Y-99873024D01*
X85724772Y-99391718D01*
X85725226Y-98870568D01*
X85526211Y-98388914D01*
X85267620Y-98129871D01*
X85524916Y-97873024D01*
X85724772Y-97391718D01*
X85724816Y-97340167D01*
X93044838Y-97340167D01*
X93186883Y-97683943D01*
X93449673Y-97947192D01*
X93793201Y-98089838D01*
X94165167Y-98090162D01*
X94508943Y-97948117D01*
X94542118Y-97915000D01*
X94687537Y-97915000D01*
X94719673Y-97947192D01*
X95063201Y-98089838D01*
X95435167Y-98090162D01*
X95778943Y-97948117D01*
X96042192Y-97685327D01*
X96184838Y-97341799D01*
X96185162Y-96969833D01*
X96043117Y-96626057D01*
X95780327Y-96362808D01*
X95436799Y-96220162D01*
X95064833Y-96219838D01*
X94721057Y-96361883D01*
X94687882Y-96395000D01*
X94542463Y-96395000D01*
X94510327Y-96362808D01*
X94166799Y-96220162D01*
X93794833Y-96219838D01*
X93451057Y-96361883D01*
X93187808Y-96624673D01*
X93045162Y-96968201D01*
X93044838Y-97340167D01*
X85724816Y-97340167D01*
X85725226Y-96870568D01*
X85526211Y-96388914D01*
X85267620Y-96129871D01*
X85524916Y-95873024D01*
X85724772Y-95391718D01*
X85725226Y-94870568D01*
X85526211Y-94388914D01*
X85267620Y-94129871D01*
X85524916Y-93873024D01*
X85667282Y-93530167D01*
X93044838Y-93530167D01*
X93186883Y-93873943D01*
X93449673Y-94137192D01*
X93793201Y-94279838D01*
X94165167Y-94280162D01*
X94508943Y-94138117D01*
X94542118Y-94105000D01*
X94935198Y-94105000D01*
X94949878Y-94119680D01*
X94949838Y-94165167D01*
X95091883Y-94508943D01*
X95354673Y-94772192D01*
X95698201Y-94914838D01*
X96070167Y-94915162D01*
X96413943Y-94773117D01*
X96677192Y-94510327D01*
X96819838Y-94166799D01*
X96820162Y-93794833D01*
X96678117Y-93451057D01*
X96572290Y-93345046D01*
X96677192Y-93240327D01*
X96819838Y-92896799D01*
X96820162Y-92524833D01*
X96678117Y-92181057D01*
X96415327Y-91917808D01*
X96071799Y-91775162D01*
X95699833Y-91774838D01*
X95356057Y-91916883D01*
X95322882Y-91950000D01*
X95177463Y-91950000D01*
X95145327Y-91917808D01*
X94801799Y-91775162D01*
X94429833Y-91774838D01*
X94086057Y-91916883D01*
X93822808Y-92179673D01*
X93713235Y-92443554D01*
X93451057Y-92551883D01*
X93187808Y-92814673D01*
X93045162Y-93158201D01*
X93044838Y-93530167D01*
X85667282Y-93530167D01*
X85724772Y-93391718D01*
X85725226Y-92870568D01*
X85526211Y-92388914D01*
X85158024Y-92020084D01*
X85102369Y-91996974D01*
X84415000Y-91309605D01*
X83728279Y-91996326D01*
X83673914Y-92018789D01*
X83305084Y-92386976D01*
X83105228Y-92868282D01*
X83104774Y-93389432D01*
X81710000Y-93389432D01*
X81710000Y-90943100D01*
X83092478Y-90943100D01*
X83121625Y-91463434D01*
X83264672Y-91808781D01*
X83497853Y-91867542D01*
X84235395Y-91130000D01*
X84594605Y-91130000D01*
X85332147Y-91867542D01*
X85565328Y-91808781D01*
X85737522Y-91316900D01*
X85708375Y-90796566D01*
X85565328Y-90451219D01*
X85332147Y-90392458D01*
X84594605Y-91130000D01*
X84235395Y-91130000D01*
X83497853Y-90392458D01*
X83264672Y-90451219D01*
X83092478Y-90943100D01*
X81710000Y-90943100D01*
X81710000Y-89389432D01*
X83104774Y-89389432D01*
X83303789Y-89871086D01*
X83671976Y-90239916D01*
X83727631Y-90263026D01*
X84415000Y-90950395D01*
X85101721Y-90263674D01*
X85156086Y-90241211D01*
X85524916Y-89873024D01*
X85724772Y-89391718D01*
X85725226Y-88870568D01*
X85526211Y-88388914D01*
X85158024Y-88020084D01*
X84676718Y-87820228D01*
X84155568Y-87819774D01*
X83673914Y-88018789D01*
X83305084Y-88386976D01*
X83105228Y-88868282D01*
X83104774Y-89389432D01*
X81710000Y-89389432D01*
X81710000Y-79561442D01*
X83664509Y-79561442D01*
X84095202Y-80603801D01*
X84892005Y-81401995D01*
X85933610Y-81834507D01*
X87061442Y-81835491D01*
X88103801Y-81404798D01*
X88901995Y-80607995D01*
X89265784Y-79731892D01*
X91903514Y-79731892D01*
X92149817Y-80256358D01*
X92578076Y-80646645D01*
X92988110Y-80816476D01*
X93218000Y-80695155D01*
X93218000Y-79502000D01*
X92024181Y-79502000D01*
X91903514Y-79731892D01*
X89265784Y-79731892D01*
X89334507Y-79566390D01*
X89335491Y-78438558D01*
X88904798Y-77396199D01*
X88315535Y-76805907D01*
X91860000Y-76805907D01*
X91860000Y-76864093D01*
X91973039Y-77432378D01*
X92294946Y-77914147D01*
X92578101Y-78103345D01*
X92578076Y-78103355D01*
X92149817Y-78493642D01*
X91903514Y-79018108D01*
X92024181Y-79248000D01*
X93218000Y-79248000D01*
X93218000Y-79228000D01*
X93472000Y-79228000D01*
X93472000Y-79248000D01*
X93492000Y-79248000D01*
X93492000Y-79502000D01*
X93472000Y-79502000D01*
X93472000Y-80695155D01*
X93701890Y-80816476D01*
X94111924Y-80646645D01*
X94540183Y-80256358D01*
X94607298Y-80113447D01*
X94834946Y-80454147D01*
X95316715Y-80776054D01*
X95885000Y-80889093D01*
X96453285Y-80776054D01*
X96935054Y-80454147D01*
X97155000Y-80124974D01*
X97374946Y-80454147D01*
X97856715Y-80776054D01*
X98425000Y-80889093D01*
X98993285Y-80776054D01*
X99475054Y-80454147D01*
X99524597Y-80380000D01*
X105132560Y-80380000D01*
X105132560Y-82180000D01*
X105176838Y-82415317D01*
X105315910Y-82631441D01*
X105528110Y-82776431D01*
X105780000Y-82827440D01*
X107580000Y-82827440D01*
X107815317Y-82783162D01*
X108031441Y-82644090D01*
X108170598Y-82440426D01*
X108204890Y-82474718D01*
X108319447Y-82360161D01*
X108405852Y-82616643D01*
X108979336Y-82826458D01*
X109589460Y-82800839D01*
X110034148Y-82616643D01*
X110120554Y-82360159D01*
X109220000Y-81459605D01*
X109205858Y-81473748D01*
X109026253Y-81294143D01*
X109040395Y-81280000D01*
X109399605Y-81280000D01*
X110300159Y-82180554D01*
X110450327Y-82129965D01*
X110457932Y-82148371D01*
X110889357Y-82580551D01*
X111453330Y-82814733D01*
X112063991Y-82815265D01*
X112628371Y-82582068D01*
X113060551Y-82150643D01*
X113294733Y-81586670D01*
X113295265Y-80976009D01*
X113062068Y-80411629D01*
X112630643Y-79979449D01*
X112066670Y-79745267D01*
X111456009Y-79744735D01*
X110891629Y-79977932D01*
X110459449Y-80409357D01*
X110450797Y-80430194D01*
X110300159Y-80379446D01*
X109399605Y-81280000D01*
X109040395Y-81280000D01*
X109026253Y-81265858D01*
X109205858Y-81086253D01*
X109220000Y-81100395D01*
X110120554Y-80199841D01*
X110034148Y-79943357D01*
X109460664Y-79733542D01*
X108850540Y-79759161D01*
X108405852Y-79943357D01*
X108319447Y-80199839D01*
X108204890Y-80085282D01*
X108168412Y-80121760D01*
X108044090Y-79928559D01*
X107831890Y-79783569D01*
X107580000Y-79732560D01*
X105780000Y-79732560D01*
X105544683Y-79776838D01*
X105328559Y-79915910D01*
X105183569Y-80128110D01*
X105132560Y-80380000D01*
X99524597Y-80380000D01*
X99796961Y-79972378D01*
X99910000Y-79404093D01*
X99910000Y-79345907D01*
X99796961Y-78777622D01*
X99475054Y-78295853D01*
X99473821Y-78295029D01*
X99510317Y-78288162D01*
X99726441Y-78149090D01*
X99871431Y-77936890D01*
X99922440Y-77685000D01*
X99922440Y-75985000D01*
X99878162Y-75749683D01*
X99739090Y-75533559D01*
X99526890Y-75388569D01*
X99275000Y-75337560D01*
X97575000Y-75337560D01*
X97339683Y-75381838D01*
X97123559Y-75520910D01*
X96978569Y-75733110D01*
X96964914Y-75800541D01*
X96935054Y-75755853D01*
X96453285Y-75433946D01*
X95885000Y-75320907D01*
X95316715Y-75433946D01*
X94834946Y-75755853D01*
X94615000Y-76085026D01*
X94395054Y-75755853D01*
X93913285Y-75433946D01*
X93345000Y-75320907D01*
X92776715Y-75433946D01*
X92294946Y-75755853D01*
X91973039Y-76237622D01*
X91860000Y-76805907D01*
X88315535Y-76805907D01*
X88107995Y-76598005D01*
X87066390Y-76165493D01*
X85938558Y-76164509D01*
X84896199Y-76595202D01*
X84098005Y-77392005D01*
X83665493Y-78433610D01*
X83664509Y-79561442D01*
X81710000Y-79561442D01*
X81710000Y-78069931D01*
X81973288Y-76746293D01*
X82683454Y-75683454D01*
X83746295Y-74973288D01*
X85069931Y-74710000D01*
X123063000Y-74710000D01*
X123063000Y-77779078D01*
X123063000Y-77779078D01*
G37*
X123063000Y-77779078D02*
X122904798Y-77396199D01*
X122107995Y-76598005D01*
X121066390Y-76165493D01*
X119938558Y-76164509D01*
X118896199Y-76595202D01*
X118098005Y-77392005D01*
X117665493Y-78433610D01*
X117664509Y-79561442D01*
X118095202Y-80603801D01*
X118892005Y-81401995D01*
X119933610Y-81834507D01*
X121061442Y-81835491D01*
X122103801Y-81404798D01*
X122901995Y-80607995D01*
X123063000Y-80220252D01*
X123063000Y-128416522D01*
X123046159Y-128405685D01*
X123000000Y-128397000D01*
X118364000Y-128397000D01*
X118314590Y-128407006D01*
X118274197Y-128434197D01*
X115517394Y-131191000D01*
X114554000Y-131191000D01*
X114504590Y-131201006D01*
X114464197Y-131228197D01*
X114210197Y-131482197D01*
X114182334Y-131524211D01*
X114173000Y-131572000D01*
X114173000Y-135763000D01*
X106898831Y-135763000D01*
X106811054Y-135321715D01*
X106489147Y-134839946D01*
X106148447Y-134612298D01*
X106291358Y-134545183D01*
X106681645Y-134116924D01*
X106762483Y-133921750D01*
X107785000Y-133921750D01*
X107785000Y-134762309D01*
X107881673Y-134995698D01*
X108060301Y-135174327D01*
X108293690Y-135271000D01*
X108934250Y-135271000D01*
X109093000Y-135112250D01*
X109093000Y-133763000D01*
X109347000Y-133763000D01*
X109347000Y-135112250D01*
X109505750Y-135271000D01*
X110146310Y-135271000D01*
X110379699Y-135174327D01*
X110558327Y-134995698D01*
X110655000Y-134762309D01*
X110655000Y-133921750D01*
X110496250Y-133763000D01*
X109347000Y-133763000D01*
X109093000Y-133763000D01*
X107943750Y-133763000D01*
X107785000Y-133921750D01*
X106762483Y-133921750D01*
X106851476Y-133706890D01*
X106813933Y-133635750D01*
X110665000Y-133635750D01*
X110665000Y-134276310D01*
X110761673Y-134509699D01*
X110940302Y-134688327D01*
X111173691Y-134785000D01*
X112014250Y-134785000D01*
X112173000Y-134626250D01*
X112173000Y-133477000D01*
X112427000Y-133477000D01*
X112427000Y-134626250D01*
X112585750Y-134785000D01*
X113426309Y-134785000D01*
X113659698Y-134688327D01*
X113838327Y-134509699D01*
X113935000Y-134276310D01*
X113935000Y-133635750D01*
X113776250Y-133477000D01*
X112427000Y-133477000D01*
X112173000Y-133477000D01*
X110823750Y-133477000D01*
X110665000Y-133635750D01*
X106813933Y-133635750D01*
X106730155Y-133477000D01*
X105537000Y-133477000D01*
X105537000Y-133497000D01*
X105283000Y-133497000D01*
X105283000Y-133477000D01*
X104089845Y-133477000D01*
X103968524Y-133706890D01*
X104138355Y-134116924D01*
X104528642Y-134545183D01*
X104671553Y-134612298D01*
X104330853Y-134839946D01*
X104008946Y-135321715D01*
X103895907Y-135890000D01*
X104008946Y-136458285D01*
X104330853Y-136940054D01*
X104660026Y-137160000D01*
X104330853Y-137379946D01*
X104008946Y-137861715D01*
X103895907Y-138430000D01*
X104008946Y-138998285D01*
X104330853Y-139480054D01*
X104812622Y-139801961D01*
X105380907Y-139915000D01*
X105439093Y-139915000D01*
X106007378Y-139801961D01*
X106420415Y-139525979D01*
X106336197Y-139610197D01*
X106308334Y-139652211D01*
X106299000Y-139700000D01*
X106299000Y-145850000D01*
X102580868Y-145850000D01*
X101800000Y-145069132D01*
X101800000Y-144302552D01*
X101938691Y-144360000D01*
X103429250Y-144360000D01*
X103588000Y-144201250D01*
X103588000Y-143002000D01*
X103842000Y-143002000D01*
X103842000Y-144201250D01*
X104000750Y-144360000D01*
X105491309Y-144360000D01*
X105724698Y-144263327D01*
X105903327Y-144084699D01*
X106000000Y-143851310D01*
X106000000Y-143160750D01*
X105841250Y-143002000D01*
X103842000Y-143002000D01*
X103588000Y-143002000D01*
X103568000Y-143002000D01*
X103568000Y-142748000D01*
X103588000Y-142748000D01*
X103588000Y-141548750D01*
X103842000Y-141548750D01*
X103842000Y-142748000D01*
X105841250Y-142748000D01*
X106000000Y-142589250D01*
X106000000Y-141898690D01*
X105903327Y-141665301D01*
X105724698Y-141486673D01*
X105491309Y-141390000D01*
X104000750Y-141390000D01*
X103842000Y-141548750D01*
X103588000Y-141548750D01*
X103429250Y-141390000D01*
X101938691Y-141390000D01*
X101705302Y-141486673D01*
X101548921Y-141643053D01*
X100920434Y-141014566D01*
X100853736Y-140970000D01*
X100649541Y-140833561D01*
X100330000Y-140770000D01*
X96230868Y-140770000D01*
X96085000Y-140624132D01*
X96085000Y-140190000D01*
X96234250Y-140190000D01*
X96393000Y-140031250D01*
X96393000Y-139197000D01*
X96647000Y-139197000D01*
X96647000Y-140031250D01*
X96805750Y-140190000D01*
X97281309Y-140190000D01*
X97514698Y-140093327D01*
X97693327Y-139914699D01*
X97790000Y-139681310D01*
X97790000Y-139355750D01*
X97631250Y-139197000D01*
X96647000Y-139197000D01*
X96393000Y-139197000D01*
X96373000Y-139197000D01*
X96373000Y-138943000D01*
X96393000Y-138943000D01*
X96393000Y-138923000D01*
X96647000Y-138923000D01*
X96647000Y-138943000D01*
X97631250Y-138943000D01*
X97790000Y-138784250D01*
X97790000Y-138458690D01*
X97773371Y-138418545D01*
X97802440Y-138275000D01*
X97802440Y-137305000D01*
X97758162Y-137069683D01*
X97619090Y-136853559D01*
X97471469Y-136752694D01*
X97516431Y-136686890D01*
X97567440Y-136435000D01*
X97567440Y-135890000D01*
X98815907Y-135890000D01*
X98928946Y-136458285D01*
X99250853Y-136940054D01*
X99580026Y-137160000D01*
X99250853Y-137379946D01*
X98928946Y-137861715D01*
X98815907Y-138430000D01*
X98928946Y-138998285D01*
X99250853Y-139480054D01*
X99732622Y-139801961D01*
X100300907Y-139915000D01*
X100359093Y-139915000D01*
X100927378Y-139801961D01*
X101409147Y-139480054D01*
X101731054Y-138998285D01*
X101844093Y-138430000D01*
X101731054Y-137861715D01*
X101409147Y-137379946D01*
X101079974Y-137160000D01*
X101409147Y-136940054D01*
X101731054Y-136458285D01*
X101844093Y-135890000D01*
X101731054Y-135321715D01*
X101409147Y-134839946D01*
X101068447Y-134612298D01*
X101211358Y-134545183D01*
X101601645Y-134116924D01*
X101771476Y-133706890D01*
X101650155Y-133477000D01*
X100457000Y-133477000D01*
X100457000Y-133497000D01*
X100203000Y-133497000D01*
X100203000Y-133477000D01*
X99009845Y-133477000D01*
X98888524Y-133706890D01*
X99058355Y-134116924D01*
X99448642Y-134545183D01*
X99591553Y-134612298D01*
X99250853Y-134839946D01*
X98928946Y-135321715D01*
X98815907Y-135890000D01*
X97567440Y-135890000D01*
X97567440Y-134535000D01*
X97523162Y-134299683D01*
X97384090Y-134083559D01*
X97257314Y-133996936D01*
X97343000Y-133911250D01*
X97343000Y-132612000D01*
X97597000Y-132612000D01*
X97597000Y-133911250D01*
X97755750Y-134070000D01*
X97996310Y-134070000D01*
X98229699Y-133973327D01*
X98408327Y-133794698D01*
X98505000Y-133561309D01*
X98505000Y-132770750D01*
X98346250Y-132612000D01*
X97597000Y-132612000D01*
X97343000Y-132612000D01*
X97323000Y-132612000D01*
X97323000Y-132358000D01*
X97343000Y-132358000D01*
X97343000Y-131058750D01*
X97597000Y-131058750D01*
X97597000Y-132358000D01*
X98346250Y-132358000D01*
X98505000Y-132199250D01*
X98505000Y-131408691D01*
X98408327Y-131175302D01*
X98229699Y-130996673D01*
X97996310Y-130900000D01*
X97755750Y-130900000D01*
X97597000Y-131058750D01*
X97343000Y-131058750D01*
X97184250Y-130900000D01*
X96943690Y-130900000D01*
X96710301Y-130996673D01*
X96531673Y-131175302D01*
X96516577Y-131211747D01*
X96434090Y-131083559D01*
X96405000Y-131063683D01*
X96405000Y-130915868D01*
X97118428Y-130202440D01*
X97985000Y-130202440D01*
X98220317Y-130158162D01*
X98436441Y-130019090D01*
X98476815Y-129960000D01*
X98832560Y-129960000D01*
X98832560Y-131660000D01*
X98876838Y-131895317D01*
X99015910Y-132111441D01*
X99228110Y-132256431D01*
X99336107Y-132278301D01*
X99058355Y-132583076D01*
X98888524Y-132993110D01*
X99009845Y-133223000D01*
X100203000Y-133223000D01*
X100203000Y-133203000D01*
X100457000Y-133203000D01*
X100457000Y-133223000D01*
X101650155Y-133223000D01*
X101771476Y-132993110D01*
X101601645Y-132583076D01*
X101325499Y-132280063D01*
X101415317Y-132263162D01*
X101631441Y-132124090D01*
X101776431Y-131911890D01*
X101827440Y-131660000D01*
X101827440Y-129960000D01*
X103912560Y-129960000D01*
X103912560Y-131660000D01*
X103956838Y-131895317D01*
X104095910Y-132111441D01*
X104308110Y-132256431D01*
X104416107Y-132278301D01*
X104138355Y-132583076D01*
X103968524Y-132993110D01*
X104089845Y-133223000D01*
X105283000Y-133223000D01*
X105283000Y-133203000D01*
X105537000Y-133203000D01*
X105537000Y-133223000D01*
X106730155Y-133223000D01*
X106851476Y-132993110D01*
X106681645Y-132583076D01*
X106614767Y-132509691D01*
X107785000Y-132509691D01*
X107785000Y-133350250D01*
X107943750Y-133509000D01*
X109093000Y-133509000D01*
X109093000Y-132159750D01*
X109347000Y-132159750D01*
X109347000Y-133509000D01*
X110496250Y-133509000D01*
X110655000Y-133350250D01*
X110655000Y-132509691D01*
X110619378Y-132423690D01*
X110665000Y-132423690D01*
X110665000Y-133064250D01*
X110823750Y-133223000D01*
X112173000Y-133223000D01*
X112173000Y-132073750D01*
X112427000Y-132073750D01*
X112427000Y-133223000D01*
X113776250Y-133223000D01*
X113935000Y-133064250D01*
X113935000Y-132423690D01*
X113838327Y-132190301D01*
X113659698Y-132011673D01*
X113426309Y-131915000D01*
X112585750Y-131915000D01*
X112427000Y-132073750D01*
X112173000Y-132073750D01*
X112014250Y-131915000D01*
X111173691Y-131915000D01*
X110940302Y-132011673D01*
X110761673Y-132190301D01*
X110665000Y-132423690D01*
X110619378Y-132423690D01*
X110558327Y-132276302D01*
X110379699Y-132097673D01*
X110146310Y-132001000D01*
X109505750Y-132001000D01*
X109347000Y-132159750D01*
X109093000Y-132159750D01*
X108934250Y-132001000D01*
X108293690Y-132001000D01*
X108060301Y-132097673D01*
X107881673Y-132276302D01*
X107785000Y-132509691D01*
X106614767Y-132509691D01*
X106405499Y-132280063D01*
X106495317Y-132263162D01*
X106711441Y-132124090D01*
X106856431Y-131911890D01*
X106907440Y-131660000D01*
X106907440Y-129960000D01*
X106863162Y-129724683D01*
X106724090Y-129508559D01*
X106511890Y-129363569D01*
X106260000Y-129312560D01*
X104560000Y-129312560D01*
X104324683Y-129356838D01*
X104108559Y-129495910D01*
X103963569Y-129708110D01*
X103912560Y-129960000D01*
X101827440Y-129960000D01*
X101783162Y-129724683D01*
X101644090Y-129508559D01*
X101431890Y-129363569D01*
X101180000Y-129312560D01*
X99480000Y-129312560D01*
X99244683Y-129356838D01*
X99028559Y-129495910D01*
X98883569Y-129708110D01*
X98832560Y-129960000D01*
X98476815Y-129960000D01*
X98581431Y-129806890D01*
X98632440Y-129555000D01*
X98632440Y-128255000D01*
X98588162Y-128019683D01*
X98449090Y-127803559D01*
X98236890Y-127658569D01*
X97985000Y-127607560D01*
X96485000Y-127607560D01*
X96249683Y-127651838D01*
X96033559Y-127790910D01*
X95888569Y-128003110D01*
X95885919Y-128016197D01*
X95749090Y-127803559D01*
X95536890Y-127658569D01*
X95285000Y-127607560D01*
X93785000Y-127607560D01*
X93549683Y-127651838D01*
X93333559Y-127790910D01*
X93188569Y-128003110D01*
X93137560Y-128255000D01*
X93137560Y-129555000D01*
X93181838Y-129790317D01*
X93320910Y-130006441D01*
X93533110Y-130151431D01*
X93700000Y-130185227D01*
X93700000Y-130645000D01*
X93090750Y-130645000D01*
X92932000Y-130803750D01*
X92932000Y-131953000D01*
X92952000Y-131953000D01*
X92952000Y-132207000D01*
X92932000Y-132207000D01*
X92932000Y-133356250D01*
X93090750Y-133515000D01*
X93700000Y-133515000D01*
X93700000Y-134620000D01*
X93707957Y-134660000D01*
X93700000Y-134700000D01*
X93700000Y-135619132D01*
X93150434Y-135069566D01*
X93075565Y-135019540D01*
X92879541Y-134888561D01*
X92560000Y-134825000D01*
X92167440Y-134825000D01*
X92167440Y-134710000D01*
X92123162Y-134474683D01*
X91984090Y-134258559D01*
X91771890Y-134113569D01*
X91520000Y-134062560D01*
X90720000Y-134062560D01*
X90484683Y-134106838D01*
X90268559Y-134245910D01*
X90169367Y-134391083D01*
X90084090Y-134258559D01*
X90055000Y-134238683D01*
X90055000Y-133473714D01*
X90256441Y-133344090D01*
X90401431Y-133131890D01*
X90452440Y-132880000D01*
X90452440Y-132365750D01*
X91170000Y-132365750D01*
X91170000Y-133006310D01*
X91266673Y-133239699D01*
X91445302Y-133418327D01*
X91678691Y-133515000D01*
X92519250Y-133515000D01*
X92678000Y-133356250D01*
X92678000Y-132207000D01*
X91328750Y-132207000D01*
X91170000Y-132365750D01*
X90452440Y-132365750D01*
X90452440Y-131280000D01*
X90428674Y-131153690D01*
X91170000Y-131153690D01*
X91170000Y-131794250D01*
X91328750Y-131953000D01*
X92678000Y-131953000D01*
X92678000Y-130803750D01*
X92519250Y-130645000D01*
X91678691Y-130645000D01*
X91445302Y-130741673D01*
X91266673Y-130920301D01*
X91170000Y-131153690D01*
X90428674Y-131153690D01*
X90408162Y-131044683D01*
X90269090Y-130828559D01*
X90056890Y-130683569D01*
X89805000Y-130632560D01*
X88538428Y-130632560D01*
X88125434Y-130219566D01*
X88033536Y-130158162D01*
X87854541Y-130038561D01*
X87535000Y-129975000D01*
X86587440Y-129975000D01*
X86587440Y-129960000D01*
X86543162Y-129724683D01*
X86404090Y-129508559D01*
X86191890Y-129363569D01*
X85940000Y-129312560D01*
X84240000Y-129312560D01*
X84004683Y-129356838D01*
X83788559Y-129495910D01*
X83643569Y-129708110D01*
X83592560Y-129960000D01*
X83592560Y-131660000D01*
X83636838Y-131895317D01*
X83775910Y-132111441D01*
X83988110Y-132256431D01*
X84096107Y-132278301D01*
X83818355Y-132583076D01*
X83648524Y-132993110D01*
X83769845Y-133223000D01*
X84963000Y-133223000D01*
X84963000Y-133203000D01*
X85217000Y-133203000D01*
X85217000Y-133223000D01*
X86410155Y-133223000D01*
X86531476Y-132993110D01*
X86361645Y-132583076D01*
X86085499Y-132280063D01*
X86175317Y-132263162D01*
X86391441Y-132124090D01*
X86536431Y-131911890D01*
X86587440Y-131660000D01*
X86587440Y-131645000D01*
X87157560Y-131645000D01*
X87157560Y-132880000D01*
X87201838Y-133115317D01*
X87340910Y-133331441D01*
X87553110Y-133476431D01*
X87805000Y-133527440D01*
X88385000Y-133527440D01*
X88385000Y-134235331D01*
X88368559Y-134245910D01*
X88223569Y-134458110D01*
X88172560Y-134710000D01*
X88172560Y-136610000D01*
X88216838Y-136845317D01*
X88355910Y-137061441D01*
X88568110Y-137206431D01*
X88820000Y-137257440D01*
X89324534Y-137257440D01*
X89231673Y-137350302D01*
X89135000Y-137583691D01*
X89135000Y-138374250D01*
X89293750Y-138533000D01*
X90043000Y-138533000D01*
X90043000Y-137233750D01*
X89956988Y-137147738D01*
X90071441Y-137074090D01*
X90170633Y-136928917D01*
X90255910Y-137061441D01*
X90382686Y-137148064D01*
X90297000Y-137233750D01*
X90297000Y-138533000D01*
X91046250Y-138533000D01*
X91205000Y-138374250D01*
X91205000Y-137583691D01*
X91108327Y-137350302D01*
X91015466Y-137257440D01*
X91520000Y-137257440D01*
X91755317Y-137213162D01*
X91971441Y-137074090D01*
X92116431Y-136861890D01*
X92167440Y-136610000D01*
X92167440Y-136495000D01*
X92214132Y-136495000D01*
X93145000Y-137425868D01*
X93145000Y-140792560D01*
X91170000Y-140792560D01*
X90934683Y-140836838D01*
X90718559Y-140975910D01*
X90573569Y-141188110D01*
X90522560Y-141440000D01*
X90522560Y-143040000D01*
X90566838Y-143275317D01*
X90705910Y-143491441D01*
X90918110Y-143636431D01*
X91170000Y-143687440D01*
X93170000Y-143687440D01*
X93405317Y-143643162D01*
X93621441Y-143504090D01*
X93766431Y-143291890D01*
X93780676Y-143221544D01*
X95294566Y-144735434D01*
X95565459Y-144916439D01*
X95885000Y-144980000D01*
X99349132Y-144980000D01*
X99495000Y-145125868D01*
X99495000Y-146050000D01*
X99558561Y-146369541D01*
X99739566Y-146640434D01*
X100427997Y-147328865D01*
X100374566Y-147364566D01*
X99972939Y-147766193D01*
X99695000Y-147710907D01*
X99126715Y-147823946D01*
X98644946Y-148145853D01*
X98425000Y-148475026D01*
X98205054Y-148145853D01*
X97723285Y-147823946D01*
X97155000Y-147710907D01*
X96586715Y-147823946D01*
X96104946Y-148145853D01*
X95885000Y-148475026D01*
X95665054Y-148145853D01*
X95183285Y-147823946D01*
X94615000Y-147710907D01*
X94046715Y-147823946D01*
X93564946Y-148145853D01*
X93537150Y-148187452D01*
X93528162Y-148139683D01*
X93389090Y-147923559D01*
X93176890Y-147778569D01*
X92925000Y-147727560D01*
X91225000Y-147727560D01*
X90989683Y-147771838D01*
X90773559Y-147910910D01*
X90628569Y-148123110D01*
X90577560Y-148375000D01*
X90577560Y-150075000D01*
X90621838Y-150310317D01*
X90760910Y-150526441D01*
X90973110Y-150671431D01*
X91225000Y-150722440D01*
X92925000Y-150722440D01*
X93160317Y-150678162D01*
X93376441Y-150539090D01*
X93521431Y-150326890D01*
X93535086Y-150259459D01*
X93564946Y-150304147D01*
X94046715Y-150626054D01*
X94615000Y-150739093D01*
X95183285Y-150626054D01*
X95665054Y-150304147D01*
X95885000Y-149974974D01*
X96104946Y-150304147D01*
X96586715Y-150626054D01*
X97155000Y-150739093D01*
X97723285Y-150626054D01*
X98205054Y-150304147D01*
X98425000Y-149974974D01*
X98644946Y-150304147D01*
X99126715Y-150626054D01*
X99695000Y-150739093D01*
X100263285Y-150626054D01*
X100745054Y-150304147D01*
X100972702Y-149963447D01*
X101039817Y-150106358D01*
X101468076Y-150496645D01*
X101878110Y-150666476D01*
X102108000Y-150545155D01*
X102108000Y-149352000D01*
X102362000Y-149352000D01*
X102362000Y-150545155D01*
X102591890Y-150666476D01*
X103001924Y-150496645D01*
X103430183Y-150106358D01*
X103505000Y-149947046D01*
X103579817Y-150106358D01*
X104008076Y-150496645D01*
X104418110Y-150666476D01*
X104648000Y-150545155D01*
X104648000Y-149352000D01*
X104902000Y-149352000D01*
X104902000Y-150545155D01*
X105131890Y-150666476D01*
X105541924Y-150496645D01*
X105970183Y-150106358D01*
X106216486Y-149581892D01*
X106095819Y-149352000D01*
X104902000Y-149352000D01*
X104648000Y-149352000D01*
X102362000Y-149352000D01*
X102108000Y-149352000D01*
X102088000Y-149352000D01*
X102088000Y-149098000D01*
X102108000Y-149098000D01*
X102108000Y-149078000D01*
X102362000Y-149078000D01*
X102362000Y-149098000D01*
X104648000Y-149098000D01*
X104648000Y-149078000D01*
X104902000Y-149078000D01*
X104902000Y-149098000D01*
X106095819Y-149098000D01*
X106216486Y-148868108D01*
X106179804Y-148790000D01*
X106812560Y-148790000D01*
X106812560Y-149860000D01*
X106856838Y-150095317D01*
X106995910Y-150311441D01*
X107208110Y-150456431D01*
X107460000Y-150507440D01*
X108430000Y-150507440D01*
X108590690Y-150477204D01*
X108740000Y-150507440D01*
X109710000Y-150507440D01*
X109945317Y-150463162D01*
X110161441Y-150324090D01*
X110306431Y-150111890D01*
X110316939Y-150060000D01*
X110897560Y-150060000D01*
X110897560Y-150075000D01*
X110941838Y-150310317D01*
X111080910Y-150526441D01*
X111293110Y-150671431D01*
X111545000Y-150722440D01*
X113245000Y-150722440D01*
X113480317Y-150678162D01*
X113696441Y-150539090D01*
X113841431Y-150326890D01*
X113855086Y-150259459D01*
X113884946Y-150304147D01*
X114366715Y-150626054D01*
X114935000Y-150739093D01*
X115212939Y-150683807D01*
X115819132Y-151290000D01*
X85069931Y-151290000D01*
X83746295Y-151026712D01*
X82683454Y-150316546D01*
X81973288Y-149253707D01*
X81710000Y-147930069D01*
X81710000Y-147561442D01*
X83664509Y-147561442D01*
X84095202Y-148603801D01*
X84892005Y-149401995D01*
X85933610Y-149834507D01*
X87061442Y-149835491D01*
X88103801Y-149404798D01*
X88901995Y-148607995D01*
X89334507Y-147566390D01*
X89335491Y-146438558D01*
X88904798Y-145396199D01*
X88107995Y-144598005D01*
X87066390Y-144165493D01*
X85938558Y-144164509D01*
X84896199Y-144595202D01*
X84098005Y-145392005D01*
X83665493Y-146433610D01*
X83664509Y-147561442D01*
X81710000Y-147561442D01*
X81710000Y-142525750D01*
X86535000Y-142525750D01*
X86535000Y-143166310D01*
X86631673Y-143399699D01*
X86810302Y-143578327D01*
X87043691Y-143675000D01*
X87884250Y-143675000D01*
X88043000Y-143516250D01*
X88043000Y-142367000D01*
X88297000Y-142367000D01*
X88297000Y-143516250D01*
X88455750Y-143675000D01*
X89296309Y-143675000D01*
X89529698Y-143578327D01*
X89708327Y-143399699D01*
X89805000Y-143166310D01*
X89805000Y-142525750D01*
X89646250Y-142367000D01*
X88297000Y-142367000D01*
X88043000Y-142367000D01*
X86693750Y-142367000D01*
X86535000Y-142525750D01*
X81710000Y-142525750D01*
X81710000Y-141313690D01*
X86535000Y-141313690D01*
X86535000Y-141954250D01*
X86693750Y-142113000D01*
X88043000Y-142113000D01*
X88043000Y-140963750D01*
X88297000Y-140963750D01*
X88297000Y-142113000D01*
X89646250Y-142113000D01*
X89805000Y-141954250D01*
X89805000Y-141313690D01*
X89708327Y-141080301D01*
X89529698Y-140901673D01*
X89296309Y-140805000D01*
X88455750Y-140805000D01*
X88297000Y-140963750D01*
X88043000Y-140963750D01*
X87884250Y-140805000D01*
X87043691Y-140805000D01*
X86810302Y-140901673D01*
X86631673Y-141080301D01*
X86535000Y-141313690D01*
X81710000Y-141313690D01*
X81710000Y-135890000D01*
X83575907Y-135890000D01*
X83688946Y-136458285D01*
X84010853Y-136940054D01*
X84340026Y-137160000D01*
X84010853Y-137379946D01*
X83688946Y-137861715D01*
X83575907Y-138430000D01*
X83688946Y-138998285D01*
X84010853Y-139480054D01*
X84492622Y-139801961D01*
X85060907Y-139915000D01*
X85119093Y-139915000D01*
X85687378Y-139801961D01*
X86169147Y-139480054D01*
X86491054Y-138998285D01*
X86501503Y-138945750D01*
X89135000Y-138945750D01*
X89135000Y-139736309D01*
X89231673Y-139969698D01*
X89410301Y-140148327D01*
X89643690Y-140245000D01*
X89884250Y-140245000D01*
X90043000Y-140086250D01*
X90043000Y-138787000D01*
X90297000Y-138787000D01*
X90297000Y-140086250D01*
X90455750Y-140245000D01*
X90696310Y-140245000D01*
X90929699Y-140148327D01*
X91108327Y-139969698D01*
X91205000Y-139736309D01*
X91205000Y-138945750D01*
X91046250Y-138787000D01*
X90297000Y-138787000D01*
X90043000Y-138787000D01*
X89293750Y-138787000D01*
X89135000Y-138945750D01*
X86501503Y-138945750D01*
X86604093Y-138430000D01*
X86491054Y-137861715D01*
X86169147Y-137379946D01*
X85839974Y-137160000D01*
X86169147Y-136940054D01*
X86491054Y-136458285D01*
X86604093Y-135890000D01*
X86491054Y-135321715D01*
X86169147Y-134839946D01*
X85828447Y-134612298D01*
X85971358Y-134545183D01*
X86361645Y-134116924D01*
X86531476Y-133706890D01*
X86410155Y-133477000D01*
X85217000Y-133477000D01*
X85217000Y-133497000D01*
X84963000Y-133497000D01*
X84963000Y-133477000D01*
X83769845Y-133477000D01*
X83648524Y-133706890D01*
X83818355Y-134116924D01*
X84208642Y-134545183D01*
X84351553Y-134612298D01*
X84010853Y-134839946D01*
X83688946Y-135321715D01*
X83575907Y-135890000D01*
X81710000Y-135890000D01*
X81710000Y-123375167D01*
X100029838Y-123375167D01*
X100171883Y-123718943D01*
X100277710Y-123824954D01*
X100172808Y-123929673D01*
X100030162Y-124273201D01*
X100029838Y-124645167D01*
X100171883Y-124988943D01*
X100434673Y-125252192D01*
X100778201Y-125394838D01*
X101150167Y-125395162D01*
X101493943Y-125253117D01*
X101527118Y-125220000D01*
X106117537Y-125220000D01*
X106149673Y-125252192D01*
X106493201Y-125394838D01*
X106865167Y-125395162D01*
X107208943Y-125253117D01*
X107472192Y-124990327D01*
X107581765Y-124726446D01*
X107843943Y-124618117D01*
X108107192Y-124355327D01*
X108249838Y-124011799D01*
X108250162Y-123639833D01*
X108108117Y-123296057D01*
X107845327Y-123032808D01*
X107581446Y-122923235D01*
X107473117Y-122661057D01*
X107210327Y-122397808D01*
X106946446Y-122288235D01*
X106838117Y-122026057D01*
X106575327Y-121762808D01*
X106231799Y-121620162D01*
X105859833Y-121619838D01*
X105516057Y-121761883D01*
X105482882Y-121795000D01*
X102162463Y-121795000D01*
X102130327Y-121762808D01*
X101786799Y-121620162D01*
X101414833Y-121619838D01*
X101071057Y-121761883D01*
X100807808Y-122024673D01*
X100698235Y-122288554D01*
X100436057Y-122396883D01*
X100172808Y-122659673D01*
X100030162Y-123003201D01*
X100029838Y-123375167D01*
X81710000Y-123375167D01*
X81710000Y-121470167D01*
X109554838Y-121470167D01*
X109696883Y-121813943D01*
X109730000Y-121847118D01*
X109730000Y-124532537D01*
X109697808Y-124564673D01*
X109555162Y-124908201D01*
X109554838Y-125280167D01*
X109696883Y-125623943D01*
X109959673Y-125887192D01*
X110303201Y-126029838D01*
X110675167Y-126030162D01*
X111018943Y-125888117D01*
X111282192Y-125625327D01*
X111424838Y-125281799D01*
X111425162Y-124909833D01*
X111283117Y-124566057D01*
X111250000Y-124532882D01*
X111250000Y-121847463D01*
X111282192Y-121815327D01*
X111424838Y-121471799D01*
X111425162Y-121099833D01*
X111283117Y-120756057D01*
X111020327Y-120492808D01*
X110676799Y-120350162D01*
X110304833Y-120349838D01*
X109961057Y-120491883D01*
X109697808Y-120754673D01*
X109555162Y-121098201D01*
X109554838Y-121470167D01*
X81710000Y-121470167D01*
X81710000Y-107000000D01*
X82673000Y-107000000D01*
X82673000Y-119000000D01*
X82682334Y-119047789D01*
X82710197Y-119089803D01*
X83510197Y-119889803D01*
X83550590Y-119916994D01*
X83600000Y-119927000D01*
X90800000Y-119927000D01*
X90847789Y-119917666D01*
X90889803Y-119889803D01*
X93814198Y-116965408D01*
X93680162Y-117288201D01*
X93679838Y-117660167D01*
X93821883Y-118003943D01*
X94084673Y-118267192D01*
X94428201Y-118409838D01*
X94800167Y-118410162D01*
X95143943Y-118268117D01*
X95407192Y-118005327D01*
X95549838Y-117661799D01*
X95549879Y-117614923D01*
X98020402Y-115144400D01*
X98158554Y-115201765D01*
X98266883Y-115463943D01*
X98529673Y-115727192D01*
X98873201Y-115869838D01*
X99245167Y-115870162D01*
X99588943Y-115728117D01*
X99852192Y-115465327D01*
X99994838Y-115121799D01*
X99994879Y-115074923D01*
X100867401Y-114202401D01*
X101032148Y-113955840D01*
X101090000Y-113665000D01*
X101090000Y-112695110D01*
X101150167Y-112695162D01*
X101493943Y-112553117D01*
X101757192Y-112290327D01*
X101899838Y-111946799D01*
X101899839Y-111945167D01*
X103839838Y-111945167D01*
X103981883Y-112288943D01*
X104015000Y-112322118D01*
X104015000Y-113102537D01*
X103982808Y-113134673D01*
X103840162Y-113478201D01*
X103839838Y-113850167D01*
X103981883Y-114193943D01*
X104244673Y-114457192D01*
X104588201Y-114599838D01*
X104960167Y-114600162D01*
X105238476Y-114485167D01*
X105744838Y-114485167D01*
X105886883Y-114828943D01*
X106149673Y-115092192D01*
X106493201Y-115234838D01*
X106865167Y-115235162D01*
X107208943Y-115093117D01*
X107242118Y-115060000D01*
X115570000Y-115060000D01*
X115860839Y-115002148D01*
X116107401Y-114837401D01*
X116604019Y-114340783D01*
X116708946Y-114868285D01*
X117030853Y-115350054D01*
X117360026Y-115570000D01*
X117030853Y-115789946D01*
X116708946Y-116271715D01*
X116595907Y-116840000D01*
X116708946Y-117408285D01*
X117030853Y-117890054D01*
X117360026Y-118110000D01*
X117030853Y-118329946D01*
X116708946Y-118811715D01*
X116595907Y-119380000D01*
X116708946Y-119948285D01*
X117030853Y-120430054D01*
X117360026Y-120650000D01*
X117030853Y-120869946D01*
X116708946Y-121351715D01*
X116595907Y-121920000D01*
X116708946Y-122488285D01*
X117030853Y-122970054D01*
X117360026Y-123190000D01*
X117030853Y-123409946D01*
X116708946Y-123891715D01*
X116595907Y-124460000D01*
X116708946Y-125028285D01*
X117030853Y-125510054D01*
X117512622Y-125831961D01*
X118080907Y-125945000D01*
X118139093Y-125945000D01*
X118707378Y-125831961D01*
X119189147Y-125510054D01*
X119193097Y-125504142D01*
X119261673Y-125669699D01*
X119440302Y-125848327D01*
X119673691Y-125945000D01*
X120364250Y-125945000D01*
X120523000Y-125786250D01*
X120523000Y-124587000D01*
X120777000Y-124587000D01*
X120777000Y-125786250D01*
X120935750Y-125945000D01*
X121626309Y-125945000D01*
X121859698Y-125848327D01*
X122038327Y-125669699D01*
X122135000Y-125436310D01*
X122135000Y-124745750D01*
X121976250Y-124587000D01*
X120777000Y-124587000D01*
X120523000Y-124587000D01*
X120503000Y-124587000D01*
X120503000Y-124333000D01*
X120523000Y-124333000D01*
X120523000Y-122047000D01*
X120777000Y-122047000D01*
X120777000Y-124333000D01*
X121976250Y-124333000D01*
X122135000Y-124174250D01*
X122135000Y-123483690D01*
X122038327Y-123250301D01*
X121859698Y-123071673D01*
X121650122Y-122984864D01*
X121921645Y-122686924D01*
X122091476Y-122276890D01*
X121970155Y-122047000D01*
X120777000Y-122047000D01*
X120523000Y-122047000D01*
X120503000Y-122047000D01*
X120503000Y-121793000D01*
X120523000Y-121793000D01*
X120523000Y-119507000D01*
X120777000Y-119507000D01*
X120777000Y-121793000D01*
X121970155Y-121793000D01*
X122091476Y-121563110D01*
X121921645Y-121153076D01*
X121531358Y-120724817D01*
X121372046Y-120650000D01*
X121531358Y-120575183D01*
X121921645Y-120146924D01*
X122091476Y-119736890D01*
X121970155Y-119507000D01*
X120777000Y-119507000D01*
X120523000Y-119507000D01*
X120503000Y-119507000D01*
X120503000Y-119253000D01*
X120523000Y-119253000D01*
X120523000Y-116967000D01*
X120777000Y-116967000D01*
X120777000Y-119253000D01*
X121970155Y-119253000D01*
X122091476Y-119023110D01*
X121921645Y-118613076D01*
X121531358Y-118184817D01*
X121372046Y-118110000D01*
X121531358Y-118035183D01*
X121921645Y-117606924D01*
X122091476Y-117196890D01*
X121970155Y-116967000D01*
X120777000Y-116967000D01*
X120523000Y-116967000D01*
X120503000Y-116967000D01*
X120503000Y-116713000D01*
X120523000Y-116713000D01*
X120523000Y-114427000D01*
X120777000Y-114427000D01*
X120777000Y-116713000D01*
X121970155Y-116713000D01*
X122091476Y-116483110D01*
X121921645Y-116073076D01*
X121531358Y-115644817D01*
X121372046Y-115570000D01*
X121531358Y-115495183D01*
X121921645Y-115066924D01*
X122091476Y-114656890D01*
X121970155Y-114427000D01*
X120777000Y-114427000D01*
X120523000Y-114427000D01*
X120503000Y-114427000D01*
X120503000Y-114173000D01*
X120523000Y-114173000D01*
X120523000Y-111887000D01*
X120777000Y-111887000D01*
X120777000Y-114173000D01*
X121970155Y-114173000D01*
X122091476Y-113943110D01*
X121921645Y-113533076D01*
X121531358Y-113104817D01*
X121372046Y-113030000D01*
X121531358Y-112955183D01*
X121921645Y-112526924D01*
X122091476Y-112116890D01*
X121970155Y-111887000D01*
X120777000Y-111887000D01*
X120523000Y-111887000D01*
X120503000Y-111887000D01*
X120503000Y-111633000D01*
X120523000Y-111633000D01*
X120523000Y-109347000D01*
X120777000Y-109347000D01*
X120777000Y-111633000D01*
X121970155Y-111633000D01*
X122091476Y-111403110D01*
X121921645Y-110993076D01*
X121531358Y-110564817D01*
X121372046Y-110490000D01*
X121531358Y-110415183D01*
X121921645Y-109986924D01*
X122091476Y-109576890D01*
X121970155Y-109347000D01*
X120777000Y-109347000D01*
X120523000Y-109347000D01*
X120503000Y-109347000D01*
X120503000Y-109093000D01*
X120523000Y-109093000D01*
X120523000Y-106807000D01*
X120777000Y-106807000D01*
X120777000Y-109093000D01*
X121970155Y-109093000D01*
X122091476Y-108863110D01*
X121921645Y-108453076D01*
X121531358Y-108024817D01*
X121372046Y-107950000D01*
X121531358Y-107875183D01*
X121921645Y-107446924D01*
X122091476Y-107036890D01*
X121970155Y-106807000D01*
X120777000Y-106807000D01*
X120523000Y-106807000D01*
X120503000Y-106807000D01*
X120503000Y-106553000D01*
X120523000Y-106553000D01*
X120523000Y-105359181D01*
X120777000Y-105359181D01*
X120777000Y-106553000D01*
X121970155Y-106553000D01*
X122091476Y-106323110D01*
X121921645Y-105913076D01*
X121531358Y-105484817D01*
X121006892Y-105238514D01*
X120777000Y-105359181D01*
X120523000Y-105359181D01*
X120293108Y-105238514D01*
X119768642Y-105484817D01*
X119378355Y-105913076D01*
X119378345Y-105913101D01*
X119189147Y-105629946D01*
X118894730Y-105433223D01*
X118974353Y-105183958D01*
X118110000Y-104319605D01*
X117245647Y-105183958D01*
X117325270Y-105433223D01*
X117030853Y-105629946D01*
X116708946Y-106111715D01*
X116595907Y-106680000D01*
X116708946Y-107248285D01*
X117030853Y-107730054D01*
X117360026Y-107950000D01*
X117030853Y-108169946D01*
X116708946Y-108651715D01*
X116595907Y-109220000D01*
X116708946Y-109788285D01*
X117030853Y-110270054D01*
X117360026Y-110490000D01*
X117030853Y-110709946D01*
X116708946Y-111191715D01*
X116595907Y-111760000D01*
X116668790Y-112126408D01*
X115255198Y-113540000D01*
X107242463Y-113540000D01*
X107210327Y-113507808D01*
X106866799Y-113365162D01*
X106494833Y-113364838D01*
X106151057Y-113506883D01*
X105887808Y-113769673D01*
X105745162Y-114113201D01*
X105744838Y-114485167D01*
X105238476Y-114485167D01*
X105303943Y-114458117D01*
X105567192Y-114195327D01*
X105709838Y-113851799D01*
X105710162Y-113479833D01*
X105568117Y-113136057D01*
X105535000Y-113102882D01*
X105535000Y-112322463D01*
X105567192Y-112290327D01*
X105709838Y-111946799D01*
X105710162Y-111574833D01*
X105568117Y-111231057D01*
X105305327Y-110967808D01*
X104961799Y-110825162D01*
X104589833Y-110824838D01*
X104246057Y-110966883D01*
X103982808Y-111229673D01*
X103840162Y-111573201D01*
X103839838Y-111945167D01*
X101899839Y-111945167D01*
X101900162Y-111574833D01*
X101758117Y-111231057D01*
X101725000Y-111197882D01*
X101725000Y-109855000D01*
X101667148Y-109564161D01*
X101502401Y-109317599D01*
X99820000Y-107635198D01*
X99820000Y-103670633D01*
X100143201Y-103804838D01*
X100515167Y-103805162D01*
X100858943Y-103663117D01*
X100892118Y-103630000D01*
X116715317Y-103630000D01*
X116613282Y-103911279D01*
X116639685Y-104501458D01*
X116814741Y-104924080D01*
X117066042Y-105004353D01*
X117930395Y-104140000D01*
X117916253Y-104125858D01*
X118095858Y-103946253D01*
X118110000Y-103960395D01*
X118124143Y-103946253D01*
X118303748Y-104125858D01*
X118289605Y-104140000D01*
X119153958Y-105004353D01*
X119405259Y-104924080D01*
X119606718Y-104368721D01*
X119580315Y-103778542D01*
X119508222Y-103604495D01*
X119670839Y-103572148D01*
X119917401Y-103407401D01*
X120273291Y-103051511D01*
X120353319Y-103084742D01*
X120944089Y-103085257D01*
X121490086Y-102859656D01*
X121908188Y-102442283D01*
X122134742Y-101896681D01*
X122135257Y-101305911D01*
X121909656Y-100759914D01*
X121492283Y-100341812D01*
X121433361Y-100317345D01*
X121700054Y-100139147D01*
X122021961Y-99657378D01*
X122135000Y-99089093D01*
X122135000Y-99030907D01*
X122021961Y-98462622D01*
X121700054Y-97980853D01*
X121218285Y-97658946D01*
X120650000Y-97545907D01*
X120081715Y-97658946D01*
X119599946Y-97980853D01*
X119385350Y-98302020D01*
X119381645Y-98293076D01*
X118991358Y-97864817D01*
X118832046Y-97790000D01*
X118991358Y-97715183D01*
X119381645Y-97286924D01*
X119551476Y-96876890D01*
X119430155Y-96647000D01*
X118237000Y-96647000D01*
X118237000Y-98933000D01*
X118257000Y-98933000D01*
X118257000Y-99187000D01*
X118237000Y-99187000D01*
X118237000Y-99207000D01*
X117983000Y-99207000D01*
X117983000Y-99187000D01*
X117963000Y-99187000D01*
X117963000Y-98933000D01*
X117983000Y-98933000D01*
X117983000Y-96647000D01*
X117963000Y-96647000D01*
X117963000Y-96393000D01*
X117983000Y-96393000D01*
X117983000Y-94107000D01*
X118237000Y-94107000D01*
X118237000Y-96393000D01*
X119430155Y-96393000D01*
X119551476Y-96163110D01*
X119381645Y-95753076D01*
X118991358Y-95324817D01*
X118832046Y-95250000D01*
X118991358Y-95175183D01*
X119381645Y-94746924D01*
X119551476Y-94336890D01*
X119430155Y-94107000D01*
X118237000Y-94107000D01*
X117983000Y-94107000D01*
X117963000Y-94107000D01*
X117963000Y-93853000D01*
X117983000Y-93853000D01*
X117983000Y-91567000D01*
X118237000Y-91567000D01*
X118237000Y-93853000D01*
X119430155Y-93853000D01*
X119551476Y-93623110D01*
X119381645Y-93213076D01*
X118991358Y-92784817D01*
X118832046Y-92710000D01*
X118991358Y-92635183D01*
X119381645Y-92206924D01*
X119551476Y-91796890D01*
X119430155Y-91567000D01*
X118237000Y-91567000D01*
X117983000Y-91567000D01*
X117963000Y-91567000D01*
X117963000Y-91313000D01*
X117983000Y-91313000D01*
X117983000Y-89027000D01*
X118237000Y-89027000D01*
X118237000Y-91313000D01*
X119430155Y-91313000D01*
X119551476Y-91083110D01*
X119381645Y-90673076D01*
X118991358Y-90244817D01*
X118832046Y-90170000D01*
X118991358Y-90095183D01*
X119381645Y-89666924D01*
X119551476Y-89256890D01*
X119430155Y-89027000D01*
X118237000Y-89027000D01*
X117983000Y-89027000D01*
X117963000Y-89027000D01*
X117963000Y-88773000D01*
X117983000Y-88773000D01*
X117983000Y-86487000D01*
X118237000Y-86487000D01*
X118237000Y-88773000D01*
X119430155Y-88773000D01*
X119551476Y-88543110D01*
X119381645Y-88133076D01*
X118991358Y-87704817D01*
X118832046Y-87630000D01*
X118991358Y-87555183D01*
X119381645Y-87126924D01*
X119551476Y-86716890D01*
X119430155Y-86487000D01*
X118237000Y-86487000D01*
X117983000Y-86487000D01*
X117963000Y-86487000D01*
X117963000Y-86233000D01*
X117983000Y-86233000D01*
X117983000Y-83947000D01*
X118237000Y-83947000D01*
X118237000Y-86233000D01*
X119430155Y-86233000D01*
X119551476Y-86003110D01*
X119381645Y-85593076D01*
X118991358Y-85164817D01*
X118832046Y-85090000D01*
X118991358Y-85015183D01*
X119381645Y-84586924D01*
X119551476Y-84176890D01*
X119430155Y-83947000D01*
X118237000Y-83947000D01*
X117983000Y-83947000D01*
X117963000Y-83947000D01*
X117963000Y-83693000D01*
X117983000Y-83693000D01*
X117983000Y-82499181D01*
X118237000Y-82499181D01*
X118237000Y-83693000D01*
X119430155Y-83693000D01*
X119551476Y-83463110D01*
X119381645Y-83053076D01*
X118991358Y-82624817D01*
X118466892Y-82378514D01*
X118237000Y-82499181D01*
X117983000Y-82499181D01*
X117753108Y-82378514D01*
X117228642Y-82624817D01*
X116838355Y-83053076D01*
X116838345Y-83053101D01*
X116649147Y-82769946D01*
X116167378Y-82448039D01*
X115599093Y-82335000D01*
X115540907Y-82335000D01*
X114972622Y-82448039D01*
X114490853Y-82769946D01*
X114168946Y-83251715D01*
X114055907Y-83820000D01*
X114168946Y-84388285D01*
X114490853Y-84870054D01*
X114820026Y-85090000D01*
X114490853Y-85309946D01*
X114168946Y-85791715D01*
X114055907Y-86360000D01*
X114168946Y-86928285D01*
X114490853Y-87410054D01*
X114820026Y-87630000D01*
X114490853Y-87849946D01*
X114168946Y-88331715D01*
X114055907Y-88900000D01*
X114168946Y-89468285D01*
X114490853Y-89950054D01*
X114820026Y-90170000D01*
X114490853Y-90389946D01*
X114168946Y-90871715D01*
X114055907Y-91440000D01*
X114168946Y-92008285D01*
X114490853Y-92490054D01*
X114820026Y-92710000D01*
X114490853Y-92929946D01*
X114168946Y-93411715D01*
X114055907Y-93980000D01*
X114168946Y-94548285D01*
X114490853Y-95030054D01*
X114820026Y-95250000D01*
X114490853Y-95469946D01*
X114168946Y-95951715D01*
X114055907Y-96520000D01*
X114168946Y-97088285D01*
X114490853Y-97570054D01*
X114820026Y-97790000D01*
X114490853Y-98009946D01*
X114168946Y-98491715D01*
X114055907Y-99060000D01*
X114168946Y-99628285D01*
X114326346Y-99863852D01*
X113762599Y-100427599D01*
X113597852Y-100674161D01*
X113540000Y-100965000D01*
X113540000Y-101285198D01*
X113350198Y-101475000D01*
X103013646Y-101475000D01*
X103022248Y-101471437D01*
X103022249Y-101471436D01*
X103346672Y-101254664D01*
X103535664Y-101065672D01*
X103752437Y-100741249D01*
X103802312Y-100620839D01*
X103854718Y-100494319D01*
X103930838Y-100111636D01*
X103930838Y-100044170D01*
X103944000Y-99978000D01*
X103944000Y-97563517D01*
X103969699Y-97501627D01*
X103970301Y-96811401D01*
X103944000Y-96747748D01*
X103944000Y-94478000D01*
X103930838Y-94411830D01*
X103930838Y-94344364D01*
X103854718Y-93961681D01*
X103752437Y-93714752D01*
X103752437Y-93714751D01*
X103535664Y-93390328D01*
X103346672Y-93201336D01*
X103022248Y-92984563D01*
X102775319Y-92882282D01*
X102392636Y-92806162D01*
X102259000Y-92806162D01*
X101742681Y-92882282D01*
X101627610Y-92929946D01*
X101495751Y-92984563D01*
X101171328Y-93201336D01*
X100982336Y-93390328D01*
X100765564Y-93714751D01*
X100765563Y-93714752D01*
X100663282Y-93961681D01*
X100587162Y-94344364D01*
X100587162Y-94411830D01*
X100574000Y-94478000D01*
X100574000Y-96630886D01*
X100500301Y-96808373D01*
X100499699Y-97498599D01*
X100574000Y-97678421D01*
X100574000Y-99978000D01*
X100587162Y-100044170D01*
X100587162Y-100111636D01*
X100663282Y-100494319D01*
X100733152Y-100663000D01*
X100765563Y-100741248D01*
X100982336Y-101065672D01*
X101171328Y-101254664D01*
X101495751Y-101471437D01*
X101504353Y-101475000D01*
X100257463Y-101475000D01*
X100225327Y-101442808D01*
X99925668Y-101318378D01*
X99994838Y-101151799D01*
X99995162Y-100779833D01*
X99853117Y-100436057D01*
X99590327Y-100172808D01*
X99246799Y-100030162D01*
X98874833Y-100029838D01*
X98531057Y-100171883D01*
X98267808Y-100434673D01*
X98125162Y-100778201D01*
X98124838Y-101150167D01*
X98266883Y-101493943D01*
X98300000Y-101527118D01*
X98300000Y-107385198D01*
X95179802Y-104265000D01*
X96592537Y-104265000D01*
X96624673Y-104297192D01*
X96968201Y-104439838D01*
X97340167Y-104440162D01*
X97683943Y-104298117D01*
X97947192Y-104035327D01*
X98089838Y-103691799D01*
X98090162Y-103319833D01*
X97948117Y-102976057D01*
X97685327Y-102712808D01*
X97341799Y-102570162D01*
X96969833Y-102569838D01*
X96626057Y-102711883D01*
X96592882Y-102745000D01*
X94542463Y-102745000D01*
X94510327Y-102712808D01*
X94166799Y-102570162D01*
X93794833Y-102569838D01*
X93470000Y-102704056D01*
X93470000Y-101527463D01*
X93502192Y-101495327D01*
X93644838Y-101151799D01*
X93645162Y-100779833D01*
X93503117Y-100436057D01*
X93240327Y-100172808D01*
X92896799Y-100030162D01*
X92524833Y-100029838D01*
X92181057Y-100171883D01*
X91917808Y-100434673D01*
X91775162Y-100778201D01*
X91774838Y-101150167D01*
X91916883Y-101493943D01*
X91950000Y-101527118D01*
X91950000Y-103505000D01*
X92007852Y-103795839D01*
X92172599Y-104042401D01*
X92807599Y-104677401D01*
X93054161Y-104842148D01*
X93345000Y-104900000D01*
X93665198Y-104900000D01*
X97861539Y-109096341D01*
X97632808Y-109324673D01*
X97490162Y-109668201D01*
X97489838Y-110040167D01*
X97631883Y-110383943D01*
X97894673Y-110647192D01*
X98238201Y-110789838D01*
X98285077Y-110789879D01*
X98850600Y-111355402D01*
X98760162Y-111573201D01*
X98759838Y-111945167D01*
X98901883Y-112288943D01*
X99164673Y-112552192D01*
X99508201Y-112694838D01*
X99570000Y-112694892D01*
X99570000Y-113350198D01*
X99183659Y-113736539D01*
X98955327Y-113507808D01*
X98727000Y-113412998D01*
X98727000Y-112200000D01*
X98718315Y-112153841D01*
X98691035Y-112111447D01*
X98649410Y-112083006D01*
X98600000Y-112073000D01*
X98200000Y-112073000D01*
X98153841Y-112081685D01*
X98111447Y-112108965D01*
X98083006Y-112150590D01*
X98073000Y-112200000D01*
X98073000Y-113433772D01*
X97896057Y-113506883D01*
X97862882Y-113540000D01*
X97790000Y-113540000D01*
X97499161Y-113597852D01*
X97386694Y-113673000D01*
X96200000Y-113673000D01*
X96152211Y-113682334D01*
X96110197Y-113710197D01*
X90547394Y-119273000D01*
X83652606Y-119273000D01*
X83327000Y-118947394D01*
X83327000Y-115644285D01*
X84974760Y-115644285D01*
X85185169Y-116153515D01*
X85574436Y-116543461D01*
X86083298Y-116754759D01*
X86634285Y-116755240D01*
X87143515Y-116544831D01*
X87533461Y-116155564D01*
X87744759Y-115646702D01*
X87745240Y-115095715D01*
X87534831Y-114586485D01*
X87145564Y-114196539D01*
X86636702Y-113985241D01*
X86085715Y-113984760D01*
X85576485Y-114195169D01*
X85186539Y-114584436D01*
X84975241Y-115093298D01*
X84974760Y-115644285D01*
X83327000Y-115644285D01*
X83327000Y-110764285D01*
X84974760Y-110764285D01*
X85185169Y-111273515D01*
X85574436Y-111663461D01*
X86083298Y-111874759D01*
X86634285Y-111875240D01*
X87143515Y-111664831D01*
X87533461Y-111275564D01*
X87744759Y-110766702D01*
X87745240Y-110215715D01*
X87534831Y-109706485D01*
X87145564Y-109316539D01*
X86636702Y-109105241D01*
X86085715Y-109104760D01*
X85576485Y-109315169D01*
X85186539Y-109704436D01*
X84975241Y-110213298D01*
X84974760Y-110764285D01*
X83327000Y-110764285D01*
X83327000Y-107052606D01*
X83652606Y-106727000D01*
X90547394Y-106727000D01*
X95310197Y-111489803D01*
X95350590Y-111516994D01*
X95400000Y-111527000D01*
X98200000Y-111527000D01*
X98246159Y-111518315D01*
X98288553Y-111491035D01*
X98316994Y-111449410D01*
X98327000Y-111400000D01*
X98327000Y-111000000D01*
X98318315Y-110953841D01*
X98291035Y-110911447D01*
X98249410Y-110883006D01*
X98200000Y-110873000D01*
X95652606Y-110873000D01*
X90889803Y-106110197D01*
X90849410Y-106083006D01*
X90800000Y-106073000D01*
X83600000Y-106073000D01*
X83552211Y-106082334D01*
X83510197Y-106110197D01*
X82710197Y-106910197D01*
X82683006Y-106950590D01*
X82673000Y-107000000D01*
X81710000Y-107000000D01*
X81710000Y-93389432D01*
X83104774Y-93389432D01*
X83303789Y-93871086D01*
X83562380Y-94130129D01*
X83305084Y-94386976D01*
X83105228Y-94868282D01*
X83104774Y-95389432D01*
X83303789Y-95871086D01*
X83562380Y-96130129D01*
X83305084Y-96386976D01*
X83105228Y-96868282D01*
X83104774Y-97389432D01*
X83303789Y-97871086D01*
X83562380Y-98130129D01*
X83305084Y-98386976D01*
X83105228Y-98868282D01*
X83104774Y-99389432D01*
X83303789Y-99871086D01*
X83562380Y-100130129D01*
X83305084Y-100386976D01*
X83105228Y-100868282D01*
X83104774Y-101389432D01*
X83303789Y-101871086D01*
X83562380Y-102130129D01*
X83305084Y-102386976D01*
X83105228Y-102868282D01*
X83104774Y-103389432D01*
X83303789Y-103871086D01*
X83671976Y-104239916D01*
X84153282Y-104439772D01*
X84674432Y-104440226D01*
X85156086Y-104241211D01*
X85524916Y-103873024D01*
X85724772Y-103391718D01*
X85725226Y-102870568D01*
X85526211Y-102388914D01*
X85267620Y-102129871D01*
X85524916Y-101873024D01*
X85724772Y-101391718D01*
X85725226Y-100870568D01*
X85526211Y-100388914D01*
X85267620Y-100129871D01*
X85524916Y-99873024D01*
X85724772Y-99391718D01*
X85725226Y-98870568D01*
X85526211Y-98388914D01*
X85267620Y-98129871D01*
X85524916Y-97873024D01*
X85724772Y-97391718D01*
X85724816Y-97340167D01*
X93044838Y-97340167D01*
X93186883Y-97683943D01*
X93449673Y-97947192D01*
X93793201Y-98089838D01*
X94165167Y-98090162D01*
X94508943Y-97948117D01*
X94542118Y-97915000D01*
X94687537Y-97915000D01*
X94719673Y-97947192D01*
X95063201Y-98089838D01*
X95435167Y-98090162D01*
X95778943Y-97948117D01*
X96042192Y-97685327D01*
X96184838Y-97341799D01*
X96185162Y-96969833D01*
X96043117Y-96626057D01*
X95780327Y-96362808D01*
X95436799Y-96220162D01*
X95064833Y-96219838D01*
X94721057Y-96361883D01*
X94687882Y-96395000D01*
X94542463Y-96395000D01*
X94510327Y-96362808D01*
X94166799Y-96220162D01*
X93794833Y-96219838D01*
X93451057Y-96361883D01*
X93187808Y-96624673D01*
X93045162Y-96968201D01*
X93044838Y-97340167D01*
X85724816Y-97340167D01*
X85725226Y-96870568D01*
X85526211Y-96388914D01*
X85267620Y-96129871D01*
X85524916Y-95873024D01*
X85724772Y-95391718D01*
X85725226Y-94870568D01*
X85526211Y-94388914D01*
X85267620Y-94129871D01*
X85524916Y-93873024D01*
X85667282Y-93530167D01*
X93044838Y-93530167D01*
X93186883Y-93873943D01*
X93449673Y-94137192D01*
X93793201Y-94279838D01*
X94165167Y-94280162D01*
X94508943Y-94138117D01*
X94542118Y-94105000D01*
X94935198Y-94105000D01*
X94949878Y-94119680D01*
X94949838Y-94165167D01*
X95091883Y-94508943D01*
X95354673Y-94772192D01*
X95698201Y-94914838D01*
X96070167Y-94915162D01*
X96413943Y-94773117D01*
X96677192Y-94510327D01*
X96819838Y-94166799D01*
X96820162Y-93794833D01*
X96678117Y-93451057D01*
X96572290Y-93345046D01*
X96677192Y-93240327D01*
X96819838Y-92896799D01*
X96820162Y-92524833D01*
X96678117Y-92181057D01*
X96415327Y-91917808D01*
X96071799Y-91775162D01*
X95699833Y-91774838D01*
X95356057Y-91916883D01*
X95322882Y-91950000D01*
X95177463Y-91950000D01*
X95145327Y-91917808D01*
X94801799Y-91775162D01*
X94429833Y-91774838D01*
X94086057Y-91916883D01*
X93822808Y-92179673D01*
X93713235Y-92443554D01*
X93451057Y-92551883D01*
X93187808Y-92814673D01*
X93045162Y-93158201D01*
X93044838Y-93530167D01*
X85667282Y-93530167D01*
X85724772Y-93391718D01*
X85725226Y-92870568D01*
X85526211Y-92388914D01*
X85158024Y-92020084D01*
X85102369Y-91996974D01*
X84415000Y-91309605D01*
X83728279Y-91996326D01*
X83673914Y-92018789D01*
X83305084Y-92386976D01*
X83105228Y-92868282D01*
X83104774Y-93389432D01*
X81710000Y-93389432D01*
X81710000Y-90943100D01*
X83092478Y-90943100D01*
X83121625Y-91463434D01*
X83264672Y-91808781D01*
X83497853Y-91867542D01*
X84235395Y-91130000D01*
X84594605Y-91130000D01*
X85332147Y-91867542D01*
X85565328Y-91808781D01*
X85737522Y-91316900D01*
X85708375Y-90796566D01*
X85565328Y-90451219D01*
X85332147Y-90392458D01*
X84594605Y-91130000D01*
X84235395Y-91130000D01*
X83497853Y-90392458D01*
X83264672Y-90451219D01*
X83092478Y-90943100D01*
X81710000Y-90943100D01*
X81710000Y-89389432D01*
X83104774Y-89389432D01*
X83303789Y-89871086D01*
X83671976Y-90239916D01*
X83727631Y-90263026D01*
X84415000Y-90950395D01*
X85101721Y-90263674D01*
X85156086Y-90241211D01*
X85524916Y-89873024D01*
X85724772Y-89391718D01*
X85725226Y-88870568D01*
X85526211Y-88388914D01*
X85158024Y-88020084D01*
X84676718Y-87820228D01*
X84155568Y-87819774D01*
X83673914Y-88018789D01*
X83305084Y-88386976D01*
X83105228Y-88868282D01*
X83104774Y-89389432D01*
X81710000Y-89389432D01*
X81710000Y-79561442D01*
X83664509Y-79561442D01*
X84095202Y-80603801D01*
X84892005Y-81401995D01*
X85933610Y-81834507D01*
X87061442Y-81835491D01*
X88103801Y-81404798D01*
X88901995Y-80607995D01*
X89265784Y-79731892D01*
X91903514Y-79731892D01*
X92149817Y-80256358D01*
X92578076Y-80646645D01*
X92988110Y-80816476D01*
X93218000Y-80695155D01*
X93218000Y-79502000D01*
X92024181Y-79502000D01*
X91903514Y-79731892D01*
X89265784Y-79731892D01*
X89334507Y-79566390D01*
X89335491Y-78438558D01*
X88904798Y-77396199D01*
X88315535Y-76805907D01*
X91860000Y-76805907D01*
X91860000Y-76864093D01*
X91973039Y-77432378D01*
X92294946Y-77914147D01*
X92578101Y-78103345D01*
X92578076Y-78103355D01*
X92149817Y-78493642D01*
X91903514Y-79018108D01*
X92024181Y-79248000D01*
X93218000Y-79248000D01*
X93218000Y-79228000D01*
X93472000Y-79228000D01*
X93472000Y-79248000D01*
X93492000Y-79248000D01*
X93492000Y-79502000D01*
X93472000Y-79502000D01*
X93472000Y-80695155D01*
X93701890Y-80816476D01*
X94111924Y-80646645D01*
X94540183Y-80256358D01*
X94607298Y-80113447D01*
X94834946Y-80454147D01*
X95316715Y-80776054D01*
X95885000Y-80889093D01*
X96453285Y-80776054D01*
X96935054Y-80454147D01*
X97155000Y-80124974D01*
X97374946Y-80454147D01*
X97856715Y-80776054D01*
X98425000Y-80889093D01*
X98993285Y-80776054D01*
X99475054Y-80454147D01*
X99524597Y-80380000D01*
X105132560Y-80380000D01*
X105132560Y-82180000D01*
X105176838Y-82415317D01*
X105315910Y-82631441D01*
X105528110Y-82776431D01*
X105780000Y-82827440D01*
X107580000Y-82827440D01*
X107815317Y-82783162D01*
X108031441Y-82644090D01*
X108170598Y-82440426D01*
X108204890Y-82474718D01*
X108319447Y-82360161D01*
X108405852Y-82616643D01*
X108979336Y-82826458D01*
X109589460Y-82800839D01*
X110034148Y-82616643D01*
X110120554Y-82360159D01*
X109220000Y-81459605D01*
X109205858Y-81473748D01*
X109026253Y-81294143D01*
X109040395Y-81280000D01*
X109399605Y-81280000D01*
X110300159Y-82180554D01*
X110450327Y-82129965D01*
X110457932Y-82148371D01*
X110889357Y-82580551D01*
X111453330Y-82814733D01*
X112063991Y-82815265D01*
X112628371Y-82582068D01*
X113060551Y-82150643D01*
X113294733Y-81586670D01*
X113295265Y-80976009D01*
X113062068Y-80411629D01*
X112630643Y-79979449D01*
X112066670Y-79745267D01*
X111456009Y-79744735D01*
X110891629Y-79977932D01*
X110459449Y-80409357D01*
X110450797Y-80430194D01*
X110300159Y-80379446D01*
X109399605Y-81280000D01*
X109040395Y-81280000D01*
X109026253Y-81265858D01*
X109205858Y-81086253D01*
X109220000Y-81100395D01*
X110120554Y-80199841D01*
X110034148Y-79943357D01*
X109460664Y-79733542D01*
X108850540Y-79759161D01*
X108405852Y-79943357D01*
X108319447Y-80199839D01*
X108204890Y-80085282D01*
X108168412Y-80121760D01*
X108044090Y-79928559D01*
X107831890Y-79783569D01*
X107580000Y-79732560D01*
X105780000Y-79732560D01*
X105544683Y-79776838D01*
X105328559Y-79915910D01*
X105183569Y-80128110D01*
X105132560Y-80380000D01*
X99524597Y-80380000D01*
X99796961Y-79972378D01*
X99910000Y-79404093D01*
X99910000Y-79345907D01*
X99796961Y-78777622D01*
X99475054Y-78295853D01*
X99473821Y-78295029D01*
X99510317Y-78288162D01*
X99726441Y-78149090D01*
X99871431Y-77936890D01*
X99922440Y-77685000D01*
X99922440Y-75985000D01*
X99878162Y-75749683D01*
X99739090Y-75533559D01*
X99526890Y-75388569D01*
X99275000Y-75337560D01*
X97575000Y-75337560D01*
X97339683Y-75381838D01*
X97123559Y-75520910D01*
X96978569Y-75733110D01*
X96964914Y-75800541D01*
X96935054Y-75755853D01*
X96453285Y-75433946D01*
X95885000Y-75320907D01*
X95316715Y-75433946D01*
X94834946Y-75755853D01*
X94615000Y-76085026D01*
X94395054Y-75755853D01*
X93913285Y-75433946D01*
X93345000Y-75320907D01*
X92776715Y-75433946D01*
X92294946Y-75755853D01*
X91973039Y-76237622D01*
X91860000Y-76805907D01*
X88315535Y-76805907D01*
X88107995Y-76598005D01*
X87066390Y-76165493D01*
X85938558Y-76164509D01*
X84896199Y-76595202D01*
X84098005Y-77392005D01*
X83665493Y-78433610D01*
X83664509Y-79561442D01*
X81710000Y-79561442D01*
X81710000Y-78069931D01*
X81973288Y-76746293D01*
X82683454Y-75683454D01*
X83746295Y-74973288D01*
X85069931Y-74710000D01*
X123063000Y-74710000D01*
X123063000Y-77779078D01*
G36*
X118237000Y-101473000D02*
X118257000Y-101473000D01*
X118257000Y-101727000D01*
X118237000Y-101727000D01*
X118237000Y-101747000D01*
X117983000Y-101747000D01*
X117983000Y-101727000D01*
X117963000Y-101727000D01*
X117963000Y-101473000D01*
X117983000Y-101473000D01*
X117983000Y-101453000D01*
X118237000Y-101453000D01*
X118237000Y-101473000D01*
X118237000Y-101473000D01*
G37*
X118237000Y-101473000D02*
X118257000Y-101473000D01*
X118257000Y-101727000D01*
X118237000Y-101727000D01*
X118237000Y-101747000D01*
X117983000Y-101747000D01*
X117983000Y-101727000D01*
X117963000Y-101727000D01*
X117963000Y-101473000D01*
X117983000Y-101473000D01*
X117983000Y-101453000D01*
X118237000Y-101453000D01*
X118237000Y-101473000D01*
G36*
X117665493Y-146433610D02*
X117664509Y-147561442D01*
X118095202Y-148603801D01*
X118892005Y-149401995D01*
X119933610Y-149834507D01*
X121061442Y-149835491D01*
X122103801Y-149404798D01*
X122901995Y-148607995D01*
X123063000Y-148220252D01*
X123063000Y-150295000D01*
X117185868Y-150295000D01*
X116374368Y-149483500D01*
X116420000Y-149254093D01*
X116420000Y-149195907D01*
X116306961Y-148627622D01*
X115985054Y-148145853D01*
X115503285Y-147823946D01*
X114935000Y-147710907D01*
X114657061Y-147766193D01*
X114255434Y-147364566D01*
X114164256Y-147303643D01*
X113984541Y-147183561D01*
X113665000Y-147120000D01*
X111956775Y-147120000D01*
X112059838Y-146871799D01*
X112060162Y-146499833D01*
X111926770Y-146177000D01*
X117772047Y-146177000D01*
X117665493Y-146433610D01*
X117665493Y-146433610D01*
G37*
X117665493Y-146433610D02*
X117664509Y-147561442D01*
X118095202Y-148603801D01*
X118892005Y-149401995D01*
X119933610Y-149834507D01*
X121061442Y-149835491D01*
X122103801Y-149404798D01*
X122901995Y-148607995D01*
X123063000Y-148220252D01*
X123063000Y-150295000D01*
X117185868Y-150295000D01*
X116374368Y-149483500D01*
X116420000Y-149254093D01*
X116420000Y-149195907D01*
X116306961Y-148627622D01*
X115985054Y-148145853D01*
X115503285Y-147823946D01*
X114935000Y-147710907D01*
X114657061Y-147766193D01*
X114255434Y-147364566D01*
X114164256Y-147303643D01*
X113984541Y-147183561D01*
X113665000Y-147120000D01*
X111956775Y-147120000D01*
X112059838Y-146871799D01*
X112060162Y-146499833D01*
X111926770Y-146177000D01*
X117772047Y-146177000D01*
X117665493Y-146433610D01*
G36*
X123063000Y-145779078D02*
X122904798Y-145396199D01*
X122107995Y-144598005D01*
X121066390Y-144165493D01*
X120127000Y-144164673D01*
X120127000Y-139816756D01*
X120620907Y-139915000D01*
X120679093Y-139915000D01*
X121247378Y-139801961D01*
X121729147Y-139480054D01*
X122051054Y-138998285D01*
X122164093Y-138430000D01*
X122051054Y-137861715D01*
X121729147Y-137379946D01*
X121399974Y-137160000D01*
X121729147Y-136940054D01*
X122051054Y-136458285D01*
X122164093Y-135890000D01*
X122051054Y-135321715D01*
X121729147Y-134839946D01*
X121388447Y-134612298D01*
X121531358Y-134545183D01*
X121921645Y-134116924D01*
X122091476Y-133706890D01*
X121970155Y-133477000D01*
X120777000Y-133477000D01*
X120777000Y-133497000D01*
X120523000Y-133497000D01*
X120523000Y-133477000D01*
X120503000Y-133477000D01*
X120503000Y-133223000D01*
X120523000Y-133223000D01*
X120523000Y-133203000D01*
X120777000Y-133203000D01*
X120777000Y-133223000D01*
X121970155Y-133223000D01*
X122091476Y-132993110D01*
X121976286Y-132715000D01*
X123000000Y-132715000D01*
X123049410Y-132704994D01*
X123063000Y-132695708D01*
X123063000Y-145779078D01*
X123063000Y-145779078D01*
G37*
X123063000Y-145779078D02*
X122904798Y-145396199D01*
X122107995Y-144598005D01*
X121066390Y-144165493D01*
X120127000Y-144164673D01*
X120127000Y-139816756D01*
X120620907Y-139915000D01*
X120679093Y-139915000D01*
X121247378Y-139801961D01*
X121729147Y-139480054D01*
X122051054Y-138998285D01*
X122164093Y-138430000D01*
X122051054Y-137861715D01*
X121729147Y-137379946D01*
X121399974Y-137160000D01*
X121729147Y-136940054D01*
X122051054Y-136458285D01*
X122164093Y-135890000D01*
X122051054Y-135321715D01*
X121729147Y-134839946D01*
X121388447Y-134612298D01*
X121531358Y-134545183D01*
X121921645Y-134116924D01*
X122091476Y-133706890D01*
X121970155Y-133477000D01*
X120777000Y-133477000D01*
X120777000Y-133497000D01*
X120523000Y-133497000D01*
X120523000Y-133477000D01*
X120503000Y-133477000D01*
X120503000Y-133223000D01*
X120523000Y-133223000D01*
X120523000Y-133203000D01*
X120777000Y-133203000D01*
X120777000Y-133223000D01*
X121970155Y-133223000D01*
X122091476Y-132993110D01*
X121976286Y-132715000D01*
X123000000Y-132715000D01*
X123049410Y-132704994D01*
X123063000Y-132695708D01*
X123063000Y-145779078D01*
G36*
X119208524Y-133706890D02*
X119378355Y-134116924D01*
X119768642Y-134545183D01*
X119911553Y-134612298D01*
X119570853Y-134839946D01*
X119248946Y-135321715D01*
X119135907Y-135890000D01*
X119248946Y-136458285D01*
X119570853Y-136940054D01*
X119900026Y-137160000D01*
X119570853Y-137379946D01*
X119463240Y-137541000D01*
X118745000Y-137541000D01*
X118745000Y-133910606D01*
X119178604Y-133477002D01*
X119329844Y-133477002D01*
X119208524Y-133706890D01*
X119208524Y-133706890D01*
G37*
X119208524Y-133706890D02*
X119378355Y-134116924D01*
X119768642Y-134545183D01*
X119911553Y-134612298D01*
X119570853Y-134839946D01*
X119248946Y-135321715D01*
X119135907Y-135890000D01*
X119248946Y-136458285D01*
X119570853Y-136940054D01*
X119900026Y-137160000D01*
X119570853Y-137379946D01*
X119463240Y-137541000D01*
X118745000Y-137541000D01*
X118745000Y-133910606D01*
X119178604Y-133477002D01*
X119329844Y-133477002D01*
X119208524Y-133706890D01*
M02*
