%TF.GenerationSoftware,KiCad,Pcbnew,4.0.7*%
%TF.CreationDate,2018-08-16T22:57:57+02:00*%
%TF.ProjectId,HB-UNI-644,48422D554E492D3634342E6B69636164,2.0*%
%TF.FileFunction,Soldermask,Top*%
%FSLAX46Y46*%
G04 Gerber Fmt 4.6, Leading zero omitted, Abs format (unit mm)*
G04 Created by KiCad (PCBNEW 4.0.7) date 08/16/18 22:57:57*
%MOMM*%
%LPD*%
G01*
G04 APERTURE LIST*
%ADD10C,0.100000*%
%ADD11R,1.300000X1.500000*%
%ADD12C,1.350000*%
%ADD13R,1.800000X1.350000*%
%ADD14R,2.000000X2.000000*%
%ADD15O,2.000000X2.000000*%
%ADD16C,1.600000*%
%ADD17C,2.900000*%
%ADD18R,1.500000X1.300000*%
%ADD19R,1.250000X1.500000*%
%ADD20R,1.500000X1.250000*%
%ADD21R,1.800000X1.800000*%
%ADD22C,1.800000*%
%ADD23R,1.700000X1.700000*%
%ADD24O,1.700000X1.700000*%
%ADD25R,1.500000X0.550000*%
%ADD26R,0.550000X1.500000*%
%ADD27C,1.500000*%
%ADD28C,1.700000*%
%ADD29R,2.180000X1.600000*%
%ADD30R,1.600000X1.600000*%
%ADD31R,1.100000X4.600000*%
%ADD32R,10.800000X9.400000*%
%ADD33R,1.700000X3.300000*%
%ADD34R,1.350000X1.800000*%
%ADD35C,4.400000*%
%ADD36C,0.700000*%
G04 APERTURE END LIST*
D10*
D11*
X132715000Y-125650000D03*
X132715000Y-128350000D03*
D12*
X100370000Y-83560000D03*
D13*
X101370000Y-83560000D03*
D12*
X100370000Y-97560000D03*
X100370000Y-95560000D03*
X100370000Y-93560000D03*
X100370000Y-91560000D03*
X100370000Y-89560000D03*
X100370000Y-85560000D03*
D13*
X101370000Y-97560000D03*
X101370000Y-95560000D03*
X101370000Y-93560000D03*
X101370000Y-91560000D03*
X101370000Y-89560000D03*
X101370000Y-85560000D03*
D14*
X113030000Y-147955000D03*
D15*
X115570000Y-147955000D03*
D16*
X132500000Y-138100000D03*
X132500000Y-84900000D03*
D17*
X132500000Y-111500000D03*
D16*
X150500000Y-84900000D03*
X150500000Y-138100000D03*
D17*
X150500000Y-111500000D03*
D18*
X101520000Y-126365000D03*
X104220000Y-126365000D03*
D19*
X112395000Y-116185000D03*
X112395000Y-113685000D03*
X93400000Y-104950000D03*
X93400000Y-107450000D03*
D20*
X100985000Y-102235000D03*
X103485000Y-102235000D03*
X100350000Y-121285000D03*
X102850000Y-121285000D03*
X99675000Y-146050000D03*
X97175000Y-146050000D03*
X112415000Y-111125000D03*
X114915000Y-111125000D03*
D19*
X90424000Y-109748000D03*
X90424000Y-112248000D03*
X92964000Y-113772000D03*
X92964000Y-111272000D03*
D21*
X106680000Y-81280000D03*
D22*
X109220000Y-81280000D03*
X111760000Y-81280000D03*
D23*
X92075000Y-149225000D03*
D24*
X94615000Y-149225000D03*
X97155000Y-149225000D03*
X99695000Y-149225000D03*
X102235000Y-149225000D03*
X104775000Y-149225000D03*
D23*
X85090000Y-130810000D03*
D24*
X85090000Y-133350000D03*
X85090000Y-135890000D03*
X85090000Y-138430000D03*
D23*
X100330000Y-130810000D03*
D24*
X100330000Y-133350000D03*
X100330000Y-135890000D03*
X100330000Y-138430000D03*
D23*
X105410000Y-130810000D03*
D24*
X105410000Y-133350000D03*
X105410000Y-135890000D03*
X105410000Y-138430000D03*
D23*
X120650000Y-130810000D03*
D24*
X120650000Y-133350000D03*
X120650000Y-135890000D03*
X120650000Y-138430000D03*
D18*
X91360000Y-146050000D03*
X94060000Y-146050000D03*
D11*
X111760000Y-84375000D03*
X111760000Y-87075000D03*
X106680000Y-84375000D03*
X106680000Y-87075000D03*
D18*
X107235000Y-126365000D03*
X109935000Y-126365000D03*
D11*
X93980000Y-125015000D03*
X93980000Y-127715000D03*
X91440000Y-126285000D03*
X91440000Y-128985000D03*
D25*
X97170000Y-107760000D03*
X97170000Y-108560000D03*
X97170000Y-109360000D03*
X97170000Y-110160000D03*
X97170000Y-110960000D03*
X97170000Y-111760000D03*
X97170000Y-112560000D03*
X97170000Y-113360000D03*
X97170000Y-114160000D03*
X97170000Y-114960000D03*
X97170000Y-115760000D03*
D26*
X98870000Y-117460000D03*
X99670000Y-117460000D03*
X100470000Y-117460000D03*
X101270000Y-117460000D03*
X102070000Y-117460000D03*
X102870000Y-117460000D03*
X103670000Y-117460000D03*
X104470000Y-117460000D03*
X105270000Y-117460000D03*
X106070000Y-117460000D03*
X106870000Y-117460000D03*
D25*
X108570000Y-115760000D03*
X108570000Y-114960000D03*
X108570000Y-114160000D03*
X108570000Y-113360000D03*
X108570000Y-112560000D03*
X108570000Y-111760000D03*
X108570000Y-110960000D03*
X108570000Y-110160000D03*
X108570000Y-109360000D03*
X108570000Y-108560000D03*
X108570000Y-107760000D03*
D26*
X106870000Y-106060000D03*
X106070000Y-106060000D03*
X105270000Y-106060000D03*
X104470000Y-106060000D03*
X103670000Y-106060000D03*
X102870000Y-106060000D03*
X102070000Y-106060000D03*
X101270000Y-106060000D03*
X100470000Y-106060000D03*
X99670000Y-106060000D03*
X98870000Y-106060000D03*
D27*
X86360000Y-110490000D03*
X86360000Y-115370000D03*
D23*
X98425000Y-76835000D03*
D24*
X98425000Y-79375000D03*
X95885000Y-76835000D03*
X95885000Y-79375000D03*
X93345000Y-76835000D03*
X93345000Y-79375000D03*
D18*
X115015000Y-106680000D03*
X112315000Y-106680000D03*
D11*
X112395000Y-95805000D03*
X112395000Y-98505000D03*
D28*
X120650000Y-101600000D03*
D24*
X120650000Y-99060000D03*
D20*
X106660000Y-96520000D03*
X104160000Y-96520000D03*
X106660000Y-99060000D03*
X104160000Y-99060000D03*
D29*
X104630000Y-76835000D03*
X113810000Y-76835000D03*
D30*
X86360000Y-126365000D03*
D16*
X86360000Y-122865000D03*
D23*
X118110000Y-104140000D03*
D24*
X115570000Y-104140000D03*
X118110000Y-101600000D03*
X115570000Y-101600000D03*
X118110000Y-99060000D03*
X115570000Y-99060000D03*
X118110000Y-96520000D03*
X115570000Y-96520000D03*
X118110000Y-93980000D03*
X115570000Y-93980000D03*
X118110000Y-91440000D03*
X115570000Y-91440000D03*
X118110000Y-88900000D03*
X115570000Y-88900000D03*
X118110000Y-86360000D03*
X115570000Y-86360000D03*
X118110000Y-83820000D03*
X115570000Y-83820000D03*
D23*
X120650000Y-127000000D03*
D24*
X118110000Y-127000000D03*
X120650000Y-124460000D03*
X118110000Y-124460000D03*
X120650000Y-121920000D03*
X118110000Y-121920000D03*
X120650000Y-119380000D03*
X118110000Y-119380000D03*
X120650000Y-116840000D03*
X118110000Y-116840000D03*
X120650000Y-114300000D03*
X118110000Y-114300000D03*
X120650000Y-111760000D03*
X118110000Y-111760000D03*
X120650000Y-109220000D03*
X118110000Y-109220000D03*
X120650000Y-106680000D03*
X118110000Y-106680000D03*
D23*
X146685000Y-108585000D03*
D24*
X144145000Y-108585000D03*
X141605000Y-108585000D03*
X139065000Y-108585000D03*
D31*
X140335000Y-128330000D03*
X145415000Y-128330000D03*
D32*
X142875000Y-119180000D03*
D33*
X132715000Y-115995000D03*
X132715000Y-121495000D03*
D12*
X96780000Y-101005000D03*
D34*
X96780000Y-102005000D03*
D12*
X82780000Y-101005000D03*
X84780000Y-101005000D03*
X86780000Y-101005000D03*
X88780000Y-101005000D03*
X90780000Y-101005000D03*
X94780000Y-101005000D03*
D34*
X82780000Y-102005000D03*
X84780000Y-102005000D03*
X86780000Y-102005000D03*
X88780000Y-102005000D03*
X90780000Y-102005000D03*
X94780000Y-102005000D03*
D35*
X86500000Y-79000000D03*
D36*
X88150000Y-79000000D03*
X87666726Y-80166726D03*
X86500000Y-80650000D03*
X85333274Y-80166726D03*
X84850000Y-79000000D03*
X85333274Y-77833274D03*
X86500000Y-77350000D03*
X87666726Y-77833274D03*
D35*
X120500000Y-79000000D03*
D36*
X122150000Y-79000000D03*
X121666726Y-80166726D03*
X120500000Y-80650000D03*
X119333274Y-80166726D03*
X118850000Y-79000000D03*
X119333274Y-77833274D03*
X120500000Y-77350000D03*
X121666726Y-77833274D03*
D35*
X154500000Y-79000000D03*
D36*
X156150000Y-79000000D03*
X155666726Y-80166726D03*
X154500000Y-80650000D03*
X153333274Y-80166726D03*
X152850000Y-79000000D03*
X153333274Y-77833274D03*
X154500000Y-77350000D03*
X155666726Y-77833274D03*
D35*
X86500000Y-147000000D03*
D36*
X88150000Y-147000000D03*
X87666726Y-148166726D03*
X86500000Y-148650000D03*
X85333274Y-148166726D03*
X84850000Y-147000000D03*
X85333274Y-145833274D03*
X86500000Y-145350000D03*
X87666726Y-145833274D03*
D35*
X120500000Y-147000000D03*
D36*
X122150000Y-147000000D03*
X121666726Y-148166726D03*
X120500000Y-148650000D03*
X119333274Y-148166726D03*
X118850000Y-147000000D03*
X119333274Y-145833274D03*
X120500000Y-145350000D03*
X121666726Y-145833274D03*
D35*
X154500000Y-147000000D03*
D36*
X156150000Y-147000000D03*
X155666726Y-148166726D03*
X154500000Y-148650000D03*
X153333274Y-148166726D03*
X152850000Y-147000000D03*
X153333274Y-145833274D03*
X154500000Y-145350000D03*
X155666726Y-145833274D03*
M02*
