%TF.GenerationSoftware,KiCad,Pcbnew,4.0.7*%
%TF.CreationDate,2018-06-17T00:12:40+02:00*%
%TF.ProjectId,HB-UNI-644,48422D554E492D3634342E6B69636164,rev?*%
%TF.FileFunction,Copper,L1,Top,Signal*%
%FSLAX46Y46*%
G04 Gerber Fmt 4.6, Leading zero omitted, Abs format (unit mm)*
G04 Created by KiCad (PCBNEW 4.0.7) date 06/17/18 00:12:40*
%MOMM*%
%LPD*%
G01*
G04 APERTURE LIST*
%ADD10C,0.100000*%
%ADD11C,1.600000*%
%ADD12C,4.400000*%
%ADD13C,0.700000*%
%ADD14R,1.500000X1.300000*%
%ADD15C,1.350000*%
%ADD16R,1.800000X1.350000*%
%ADD17R,1.500000X1.250000*%
%ADD18R,1.250000X1.500000*%
%ADD19R,1.800000X1.800000*%
%ADD20C,1.800000*%
%ADD21R,1.700000X1.700000*%
%ADD22O,1.700000X1.700000*%
%ADD23R,1.300000X1.500000*%
%ADD24R,1.500000X0.550000*%
%ADD25R,0.550000X1.500000*%
%ADD26C,1.500000*%
%ADD27C,1.700000*%
%ADD28R,2.180000X1.600000*%
%ADD29C,0.600000*%
%ADD30C,0.400000*%
%ADD31C,0.250000*%
%ADD32C,0.254000*%
G04 APERTURE END LIST*
D10*
D11*
X132500000Y-138100000D03*
X132500000Y-84900000D03*
D12*
X120500000Y-147000000D03*
D13*
X120500000Y-145350000D03*
X119333274Y-148166726D03*
X119333274Y-145833274D03*
X121666726Y-148166726D03*
X121666726Y-145833274D03*
X120500000Y-148650000D03*
X118850000Y-147000000D03*
X122150000Y-147000000D03*
D12*
X120500000Y-79000000D03*
D13*
X120500000Y-77350000D03*
X119333274Y-80166726D03*
X119333274Y-77833274D03*
X121666726Y-80166726D03*
X121666726Y-77833274D03*
X120500000Y-80650000D03*
X118850000Y-79000000D03*
X122150000Y-79000000D03*
D12*
X86500000Y-79000000D03*
D13*
X86500000Y-77350000D03*
X85333274Y-80166726D03*
X85333274Y-77833274D03*
X87666726Y-80166726D03*
X87666726Y-77833274D03*
X86500000Y-80650000D03*
X84850000Y-79000000D03*
X88150000Y-79000000D03*
D12*
X86500000Y-147000000D03*
D13*
X86500000Y-145350000D03*
X85333274Y-148166726D03*
X85333274Y-145833274D03*
X87666726Y-148166726D03*
X87666726Y-145833274D03*
X86500000Y-148650000D03*
X84850000Y-147000000D03*
X88150000Y-147000000D03*
D12*
X154500000Y-79000000D03*
D13*
X154500000Y-77350000D03*
X153333274Y-80166726D03*
X153333274Y-77833274D03*
X155666726Y-80166726D03*
X155666726Y-77833274D03*
X154500000Y-80650000D03*
X152850000Y-79000000D03*
X156150000Y-79000000D03*
D12*
X154500000Y-147000000D03*
D13*
X154500000Y-145350000D03*
X153333274Y-148166726D03*
X153333274Y-145833274D03*
X155666726Y-148166726D03*
X155666726Y-145833274D03*
X154500000Y-148650000D03*
X152850000Y-147000000D03*
X156150000Y-147000000D03*
D11*
X150500000Y-84900000D03*
X150500000Y-138100000D03*
D14*
X106600000Y-127000000D03*
X109300000Y-127000000D03*
D15*
X84415000Y-103130000D03*
D16*
X83415000Y-103130000D03*
D15*
X84415000Y-89130000D03*
X84415000Y-91130000D03*
X84415000Y-93130000D03*
X84415000Y-95130000D03*
X84415000Y-97130000D03*
X84415000Y-99130000D03*
X84415000Y-101130000D03*
D16*
X83415000Y-89130000D03*
X83415000Y-91130000D03*
X83415000Y-93130000D03*
X83415000Y-95130000D03*
X83415000Y-97130000D03*
X83415000Y-99130000D03*
X83415000Y-101130000D03*
D17*
X114915000Y-113030000D03*
X112415000Y-113030000D03*
D18*
X93400000Y-104950000D03*
X93400000Y-107450000D03*
X105410000Y-99715000D03*
X105410000Y-102215000D03*
D17*
X100350000Y-121285000D03*
X102850000Y-121285000D03*
X91460000Y-146050000D03*
X93960000Y-146050000D03*
X112415000Y-110490000D03*
X114915000Y-110490000D03*
D18*
X90424000Y-109748000D03*
X90424000Y-112248000D03*
X92964000Y-113772000D03*
X92964000Y-111272000D03*
D19*
X106680000Y-81280000D03*
D20*
X109220000Y-81280000D03*
X111760000Y-81280000D03*
D21*
X92075000Y-149225000D03*
D22*
X94615000Y-149225000D03*
X97155000Y-149225000D03*
X99695000Y-149225000D03*
X102235000Y-149225000D03*
X104775000Y-149225000D03*
D21*
X85090000Y-130810000D03*
D22*
X85090000Y-133350000D03*
X85090000Y-135890000D03*
X85090000Y-138430000D03*
D21*
X100330000Y-130810000D03*
D22*
X100330000Y-133350000D03*
X100330000Y-135890000D03*
X100330000Y-138430000D03*
D21*
X105410000Y-130810000D03*
D22*
X105410000Y-133350000D03*
X105410000Y-135890000D03*
X105410000Y-138430000D03*
D21*
X120650000Y-130810000D03*
D22*
X120650000Y-133350000D03*
X120650000Y-135890000D03*
X120650000Y-138430000D03*
D23*
X97155000Y-143430000D03*
X97155000Y-146130000D03*
D14*
X111840000Y-85090000D03*
X109140000Y-85090000D03*
X106125000Y-85090000D03*
X103425000Y-85090000D03*
X112315000Y-127000000D03*
X115015000Y-127000000D03*
D23*
X92075000Y-130730000D03*
X92075000Y-133430000D03*
X92075000Y-138510000D03*
X92075000Y-135810000D03*
D24*
X97170000Y-107760000D03*
X97170000Y-108560000D03*
X97170000Y-109360000D03*
X97170000Y-110160000D03*
X97170000Y-110960000D03*
X97170000Y-111760000D03*
X97170000Y-112560000D03*
X97170000Y-113360000D03*
X97170000Y-114160000D03*
X97170000Y-114960000D03*
X97170000Y-115760000D03*
D25*
X98870000Y-117460000D03*
X99670000Y-117460000D03*
X100470000Y-117460000D03*
X101270000Y-117460000D03*
X102070000Y-117460000D03*
X102870000Y-117460000D03*
X103670000Y-117460000D03*
X104470000Y-117460000D03*
X105270000Y-117460000D03*
X106070000Y-117460000D03*
X106870000Y-117460000D03*
D24*
X108570000Y-115760000D03*
X108570000Y-114960000D03*
X108570000Y-114160000D03*
X108570000Y-113360000D03*
X108570000Y-112560000D03*
X108570000Y-111760000D03*
X108570000Y-110960000D03*
X108570000Y-110160000D03*
X108570000Y-109360000D03*
X108570000Y-108560000D03*
X108570000Y-107760000D03*
D25*
X106870000Y-106060000D03*
X106070000Y-106060000D03*
X105270000Y-106060000D03*
X104470000Y-106060000D03*
X103670000Y-106060000D03*
X102870000Y-106060000D03*
X102070000Y-106060000D03*
X101270000Y-106060000D03*
X100470000Y-106060000D03*
X99670000Y-106060000D03*
X98870000Y-106060000D03*
D26*
X86360000Y-110490000D03*
X86360000Y-115370000D03*
D21*
X98425000Y-76835000D03*
D22*
X98425000Y-79375000D03*
X95885000Y-76835000D03*
X95885000Y-79375000D03*
X93345000Y-76835000D03*
X93345000Y-79375000D03*
D21*
X120650000Y-124460000D03*
D22*
X118110000Y-124460000D03*
X120650000Y-121920000D03*
X118110000Y-121920000D03*
X120650000Y-119380000D03*
X118110000Y-119380000D03*
X120650000Y-116840000D03*
X118110000Y-116840000D03*
X120650000Y-114300000D03*
X118110000Y-114300000D03*
X120650000Y-111760000D03*
X118110000Y-111760000D03*
X120650000Y-109220000D03*
X118110000Y-109220000D03*
X120650000Y-106680000D03*
X118110000Y-106680000D03*
D23*
X112395000Y-106125000D03*
X112395000Y-103425000D03*
X112395000Y-95805000D03*
X112395000Y-98505000D03*
D21*
X118110000Y-101600000D03*
D22*
X115570000Y-101600000D03*
X118110000Y-99060000D03*
X115570000Y-99060000D03*
X118110000Y-96520000D03*
X115570000Y-96520000D03*
X118110000Y-93980000D03*
X115570000Y-93980000D03*
X118110000Y-91440000D03*
X115570000Y-91440000D03*
X118110000Y-88900000D03*
X115570000Y-88900000D03*
X118110000Y-86360000D03*
X115570000Y-86360000D03*
X118110000Y-83820000D03*
X115570000Y-83820000D03*
D21*
X112395000Y-149225000D03*
D22*
X114935000Y-149225000D03*
D27*
X118110000Y-104140000D03*
X120650000Y-101600000D03*
D22*
X120650000Y-99060000D03*
D17*
X86340000Y-83185000D03*
X83840000Y-83185000D03*
X86340000Y-85725000D03*
X83840000Y-85725000D03*
D28*
X104630000Y-76835000D03*
X113810000Y-76835000D03*
D29*
X116840000Y-147955000D03*
X109220000Y-132080000D03*
X104775000Y-140970000D03*
X104775000Y-144780000D03*
X121285000Y-142240000D03*
X111760000Y-135255000D03*
X114300000Y-137795000D03*
X92075000Y-104775000D03*
X91800000Y-110600000D03*
X98425000Y-111760000D03*
X115570000Y-76835000D03*
X100330000Y-122555000D03*
X86360000Y-84455000D03*
X105410000Y-98425000D03*
X113665000Y-95885000D03*
X113665000Y-106045000D03*
X114935000Y-111760000D03*
X103632000Y-116078000D03*
X102870000Y-107315000D03*
X107315000Y-111760000D03*
X94615000Y-117475000D03*
X98425000Y-114300000D03*
X110490000Y-121285000D03*
X110490000Y-125095000D03*
X104775000Y-113665000D03*
X104775000Y-111760000D03*
X106045000Y-122555000D03*
X101600000Y-122555000D03*
X93980000Y-93345000D03*
X95885000Y-93980000D03*
X95250000Y-97155000D03*
X93980000Y-97155000D03*
X95885000Y-92710000D03*
X94615000Y-92710000D03*
X92710000Y-100965000D03*
X99060000Y-114935000D03*
X100965000Y-124460000D03*
X106680000Y-124460000D03*
X101600000Y-123825000D03*
X107315000Y-123825000D03*
X100965000Y-111760000D03*
X99060000Y-100965000D03*
X100965000Y-123190000D03*
X106680000Y-123190000D03*
X106680000Y-114300000D03*
X100330000Y-102870000D03*
X99695000Y-102235000D03*
X93980000Y-103505000D03*
X97155000Y-103505000D03*
X99695000Y-111760000D03*
X98425000Y-109855000D03*
X111125000Y-146685000D03*
D30*
X132500000Y-84900000D02*
X150500000Y-84900000D01*
X116840000Y-142240000D02*
X116840000Y-147955000D01*
X121285000Y-142240000D02*
X119380000Y-142240000D01*
X114300000Y-142240000D02*
X116840000Y-142240000D01*
X116840000Y-142240000D02*
X119380000Y-142240000D01*
X114300000Y-142240000D02*
X114300000Y-137795000D01*
X112395000Y-137795000D02*
X114300000Y-137795000D01*
X93400000Y-104950000D02*
X92250000Y-104950000D01*
X92250000Y-104950000D02*
X92075000Y-104775000D01*
X92964000Y-111272000D02*
X92472000Y-111272000D01*
X92472000Y-111272000D02*
X91800000Y-110600000D01*
X90424000Y-109748000D02*
X90948000Y-109748000D01*
X90948000Y-109748000D02*
X91800000Y-110600000D01*
X92900000Y-109100000D02*
X93800000Y-110000000D01*
X96160000Y-111760000D02*
X97170000Y-111760000D01*
X96000000Y-111600000D02*
X96160000Y-111760000D01*
X95400000Y-111600000D02*
X96000000Y-111600000D01*
X93800000Y-110000000D02*
X95400000Y-111600000D01*
X88000000Y-119200000D02*
X90600000Y-119200000D01*
X83400000Y-119000000D02*
X83600000Y-119200000D01*
X83600000Y-119200000D02*
X88000000Y-119200000D01*
X83400000Y-118800000D02*
X83400000Y-107000000D01*
X83600000Y-106800000D02*
X83400000Y-107000000D01*
X84000000Y-106800000D02*
X83800000Y-106800000D01*
X90600000Y-106800000D02*
X84000000Y-106800000D01*
X92900000Y-109100000D02*
X90600000Y-106800000D01*
X83800000Y-106800000D02*
X83600000Y-106800000D01*
X83400000Y-118800000D02*
X83400000Y-119000000D01*
X95800000Y-114000000D02*
X95800000Y-113885002D01*
X90600000Y-119200000D02*
X95800000Y-114000000D01*
X98425000Y-111760000D02*
X97170000Y-111760000D01*
X113810000Y-76835000D02*
X115570000Y-76835000D01*
X100350000Y-122535000D02*
X100350000Y-121285000D01*
X100350000Y-122535000D02*
X100330000Y-122555000D01*
X83415000Y-91130000D02*
X84415000Y-91130000D01*
X86340000Y-83185000D02*
X86340000Y-84435000D01*
X86340000Y-84475000D02*
X86360000Y-84455000D01*
X86340000Y-84475000D02*
X86340000Y-85725000D01*
X86340000Y-84435000D02*
X86360000Y-84455000D01*
X105410000Y-99715000D02*
X105410000Y-98425000D01*
X118110000Y-101600000D02*
X118110000Y-104140000D01*
X112395000Y-95805000D02*
X113585000Y-95805000D01*
X113585000Y-95805000D02*
X113665000Y-95885000D01*
X112395000Y-106125000D02*
X113585000Y-106125000D01*
X113585000Y-106125000D02*
X113665000Y-106045000D01*
X114915000Y-113030000D02*
X114915000Y-111780000D01*
X114915000Y-111740000D02*
X114935000Y-111760000D01*
X114915000Y-111740000D02*
X114915000Y-110490000D01*
X114915000Y-111780000D02*
X114935000Y-111760000D01*
X103670000Y-117460000D02*
X103670000Y-116116000D01*
X103670000Y-116116000D02*
X103632000Y-116078000D01*
X102870000Y-106060000D02*
X102870000Y-107315000D01*
X108570000Y-111760000D02*
X107315000Y-111760000D01*
D31*
X113665000Y-76980000D02*
X113810000Y-76835000D01*
D30*
X105410000Y-130810000D02*
X106680000Y-129540000D01*
X119380000Y-129540000D02*
X120650000Y-130810000D01*
X106680000Y-129540000D02*
X119380000Y-129540000D01*
X83185000Y-105410000D02*
X91360000Y-105410000D01*
X91360000Y-105410000D02*
X93400000Y-107450000D01*
X100800000Y-110960000D02*
X102705000Y-110960000D01*
X102705000Y-110960000D02*
X102870000Y-111125000D01*
X99060000Y-110960000D02*
X100800000Y-110960000D01*
X93345000Y-107930000D02*
X93345000Y-108585000D01*
X93345000Y-108585000D02*
X95720000Y-110960000D01*
X95720000Y-110960000D02*
X97170000Y-110960000D01*
X83185000Y-105410000D02*
X82550000Y-105410000D01*
X82550000Y-105410000D02*
X81915000Y-104775000D01*
X100250000Y-130730000D02*
X100330000Y-130810000D01*
X85090000Y-130810000D02*
X91995000Y-130810000D01*
X92075000Y-138510000D02*
X92235000Y-138510000D01*
X92235000Y-138510000D02*
X99695000Y-145970000D01*
X88900000Y-138510000D02*
X92075000Y-138510000D01*
X88900000Y-138510000D02*
X92235000Y-138510000D01*
X92235000Y-138510000D02*
X97155000Y-143430000D01*
X85090000Y-140335000D02*
X87075000Y-140335000D01*
X83820000Y-132080000D02*
X83820000Y-139065000D01*
X83820000Y-139065000D02*
X85090000Y-140335000D01*
X85090000Y-130810000D02*
X83820000Y-132080000D01*
X87075000Y-140335000D02*
X88900000Y-138510000D01*
X85090000Y-130810000D02*
X100330000Y-130810000D01*
X103340000Y-112560000D02*
X103505000Y-112560000D01*
X103505000Y-112560000D02*
X108570000Y-112560000D01*
X102870000Y-112090000D02*
X103340000Y-112560000D01*
X102870000Y-111760000D02*
X102870000Y-112090000D01*
X102870000Y-111125000D02*
X102870000Y-111760000D01*
X102870000Y-113030000D02*
X103340000Y-112560000D01*
X84455000Y-76200000D02*
X85090000Y-75565000D01*
X88265000Y-75565000D02*
X88900000Y-76200000D01*
X85090000Y-75565000D02*
X88265000Y-75565000D01*
X83185000Y-77470000D02*
X84455000Y-76200000D01*
X90805000Y-78105000D02*
X92710000Y-78105000D01*
X97155000Y-78105000D02*
X98425000Y-79375000D01*
X92710000Y-78105000D02*
X97155000Y-78105000D01*
X88900000Y-76200000D02*
X90805000Y-78105000D01*
X83840000Y-83185000D02*
X83840000Y-81935000D01*
X83185000Y-81280000D02*
X83185000Y-77470000D01*
X83840000Y-81935000D02*
X83185000Y-81280000D01*
X83840000Y-85725000D02*
X83840000Y-83185000D01*
X83415000Y-89130000D02*
X83415000Y-86150000D01*
X83415000Y-86150000D02*
X83840000Y-85725000D01*
X83415000Y-89130000D02*
X84415000Y-89130000D01*
X83415000Y-89130000D02*
X82955000Y-89130000D01*
X82955000Y-89130000D02*
X81915000Y-90170000D01*
X81915000Y-90170000D02*
X81915000Y-91440000D01*
X81915000Y-104775000D02*
X81915000Y-102870000D01*
X81915000Y-91440000D02*
X81915000Y-98425000D01*
X81915000Y-98425000D02*
X81915000Y-102870000D01*
X104140000Y-104140000D02*
X104775000Y-103505000D01*
X104775000Y-103505000D02*
X105410000Y-102870000D01*
X105410000Y-102870000D02*
X105410000Y-102215000D01*
X111125000Y-112560000D02*
X111595000Y-113030000D01*
X108570000Y-112560000D02*
X111125000Y-112560000D01*
X111595000Y-113030000D02*
X112415000Y-113030000D01*
X112415000Y-113030000D02*
X111595000Y-113030000D01*
X99695000Y-149225000D02*
X99695000Y-145970000D01*
X99695000Y-145970000D02*
X97155000Y-143430000D01*
X97155000Y-143430000D02*
X97155000Y-143510000D01*
X100330000Y-130810000D02*
X88980000Y-130810000D01*
X100330000Y-130810000D02*
X100965000Y-130810000D01*
X100965000Y-130810000D02*
X102870000Y-128905000D01*
X105410000Y-130810000D02*
X104775000Y-130810000D01*
X104775000Y-130810000D02*
X102870000Y-128905000D01*
X102870000Y-128905000D02*
X102870000Y-121305000D01*
X102870000Y-121305000D02*
X102890000Y-121285000D01*
X102870000Y-121265000D02*
X102890000Y-121285000D01*
X103670000Y-106060000D02*
X103670000Y-104610000D01*
X103670000Y-104610000D02*
X104140000Y-104140000D01*
X97170000Y-110960000D02*
X99060000Y-110960000D01*
X103670000Y-106060000D02*
X103670000Y-110325000D01*
X103670000Y-110325000D02*
X102870000Y-111125000D01*
X102870000Y-113030000D02*
X102870000Y-117460000D01*
X102870000Y-117460000D02*
X102870000Y-121265000D01*
D31*
X91460000Y-146050000D02*
X91460000Y-148610000D01*
X91460000Y-148610000D02*
X92075000Y-149225000D01*
X108570000Y-110960000D02*
X111945000Y-110960000D01*
X111945000Y-110960000D02*
X112415000Y-110490000D01*
X97170000Y-112560000D02*
X90736000Y-112560000D01*
X90736000Y-112560000D02*
X90424000Y-112248000D01*
X90805000Y-112375000D02*
X88245000Y-112375000D01*
X88245000Y-112375000D02*
X86360000Y-110490000D01*
X97170000Y-113360000D02*
X93376000Y-113360000D01*
X93345000Y-113645000D02*
X88085000Y-113645000D01*
X88085000Y-113645000D02*
X86360000Y-115370000D01*
X106680000Y-81280000D02*
X106680000Y-84535000D01*
X106680000Y-84535000D02*
X106125000Y-85090000D01*
X111760000Y-81280000D02*
X111760000Y-85010000D01*
X111760000Y-85010000D02*
X111840000Y-85090000D01*
X95250000Y-116840000D02*
X95250000Y-118110000D01*
X85090000Y-128270000D02*
X83820000Y-128270000D01*
X95250000Y-118110000D02*
X85090000Y-128270000D01*
X82550000Y-140335000D02*
X85725000Y-143510000D01*
X89535000Y-144145000D02*
X90170000Y-144780000D01*
X93345000Y-150495000D02*
X94615000Y-149225000D01*
X90805000Y-150495000D02*
X93345000Y-150495000D01*
X90170000Y-149860000D02*
X90805000Y-150495000D01*
X90170000Y-144780000D02*
X90170000Y-149860000D01*
X82550000Y-130175000D02*
X82550000Y-129540000D01*
X82550000Y-129540000D02*
X83820000Y-128270000D01*
X85725000Y-143510000D02*
X86360000Y-143510000D01*
X82550000Y-130175000D02*
X82550000Y-140335000D01*
X88900000Y-143510000D02*
X89535000Y-144145000D01*
X86360000Y-143510000D02*
X88900000Y-143510000D01*
X95250000Y-116840000D02*
X95250000Y-115570000D01*
X97170000Y-114960000D02*
X95860000Y-114960000D01*
X95860000Y-114960000D02*
X95250000Y-115570000D01*
X84455000Y-127635000D02*
X94615000Y-117475000D01*
X83185000Y-127635000D02*
X84455000Y-127635000D01*
X81915000Y-140970000D02*
X85090000Y-144145000D01*
X97170000Y-114160000D02*
X98285000Y-114160000D01*
X98285000Y-114160000D02*
X98425000Y-114300000D01*
X95250000Y-151130000D02*
X95885000Y-150495000D01*
X97155000Y-149225000D02*
X95885000Y-150495000D01*
X88900000Y-144780000D02*
X89535000Y-145415000D01*
X90170000Y-151130000D02*
X95250000Y-151130000D01*
X89535000Y-150495000D02*
X90170000Y-151130000D01*
X89535000Y-145415000D02*
X89535000Y-150495000D01*
X81915000Y-129540000D02*
X81915000Y-128905000D01*
X81915000Y-128905000D02*
X83185000Y-127635000D01*
X81915000Y-129540000D02*
X81915000Y-140970000D01*
X88265000Y-144145000D02*
X88900000Y-144780000D01*
X85090000Y-144145000D02*
X88265000Y-144145000D01*
X105410000Y-135890000D02*
X106680000Y-134620000D01*
X106680000Y-134620000D02*
X106680000Y-132080000D01*
X109855000Y-130175000D02*
X118745000Y-130175000D01*
X118745000Y-130175000D02*
X119380000Y-130810000D01*
X119380000Y-130810000D02*
X119380000Y-134620000D01*
X119380000Y-134620000D02*
X120650000Y-135890000D01*
X109855000Y-130175000D02*
X107315000Y-130175000D01*
X106680000Y-130810000D02*
X107315000Y-130175000D01*
X106680000Y-132080000D02*
X106680000Y-131445000D01*
X106680000Y-131445000D02*
X106680000Y-130810000D01*
X105410000Y-135890000D02*
X105410000Y-135255000D01*
X85090000Y-135890000D02*
X86440000Y-135890000D01*
X86440000Y-135890000D02*
X88900000Y-133430000D01*
X88900000Y-133430000D02*
X92075000Y-133430000D01*
X104470000Y-124790000D02*
X104470000Y-128600000D01*
X108585000Y-128905000D02*
X109855000Y-128905000D01*
X111760000Y-128905000D02*
X109855000Y-128905000D01*
X111760000Y-128905000D02*
X118110000Y-128905000D01*
X121285000Y-128905000D02*
X121920000Y-129540000D01*
X121920000Y-129540000D02*
X121920000Y-134620000D01*
X121920000Y-134620000D02*
X120650000Y-135890000D01*
X118110000Y-128905000D02*
X121285000Y-128905000D01*
X104470000Y-123520000D02*
X104470000Y-121615000D01*
X104470000Y-119710000D02*
X104470000Y-121615000D01*
X104470000Y-119710000D02*
X104470000Y-117460000D01*
X104470000Y-123520000D02*
X104470000Y-124790000D01*
X104470000Y-128600000D02*
X104775000Y-128905000D01*
X104775000Y-128905000D02*
X108585000Y-128905000D01*
X88900000Y-133430000D02*
X97870000Y-133430000D01*
X97870000Y-133430000D02*
X100330000Y-135890000D01*
X100330000Y-135890000D02*
X105410000Y-135890000D01*
X88900000Y-133430000D02*
X88980000Y-133430000D01*
X86440000Y-135890000D02*
X88900000Y-133430000D01*
X120000000Y-136080000D02*
X120000000Y-135905000D01*
X109855000Y-130810000D02*
X118110000Y-130810000D01*
X107315000Y-135890000D02*
X107315000Y-131445000D01*
X107315000Y-131445000D02*
X107950000Y-130810000D01*
X107950000Y-130810000D02*
X109855000Y-130810000D01*
X105410000Y-137795000D02*
X107315000Y-135890000D01*
X118745000Y-136525000D02*
X120650000Y-138430000D01*
X118745000Y-131445000D02*
X118745000Y-136525000D01*
X118110000Y-130810000D02*
X118745000Y-131445000D01*
X105410000Y-138430000D02*
X105410000Y-137795000D01*
X88900000Y-135810000D02*
X97710000Y-135810000D01*
X97710000Y-135810000D02*
X100330000Y-138430000D01*
X85090000Y-138430000D02*
X86280000Y-138430000D01*
X86280000Y-138430000D02*
X88900000Y-135810000D01*
X88900000Y-135810000D02*
X92075000Y-135810000D01*
X105270000Y-124320000D02*
X105270000Y-128130000D01*
X105270000Y-123050000D02*
X105270000Y-117460000D01*
X112395000Y-128270000D02*
X110490000Y-128270000D01*
X122555000Y-128905000D02*
X122555000Y-135890000D01*
X121920000Y-128270000D02*
X122555000Y-128905000D01*
X121920000Y-128270000D02*
X112395000Y-128270000D01*
X122555000Y-136525000D02*
X122555000Y-135890000D01*
X120650000Y-138430000D02*
X122555000Y-136525000D01*
X109220000Y-128270000D02*
X110490000Y-128270000D01*
X105270000Y-123050000D02*
X105270000Y-124320000D01*
X105270000Y-128130000D02*
X105410000Y-128270000D01*
X105410000Y-128270000D02*
X109220000Y-128270000D01*
X105410000Y-138430000D02*
X106045000Y-138430000D01*
X100330000Y-138430000D02*
X105410000Y-138430000D01*
X100330000Y-138430000D02*
X100965000Y-138430000D01*
X86280000Y-138430000D02*
X88900000Y-135810000D01*
X100330000Y-93980000D02*
X100330000Y-91440000D01*
X105410000Y-86360000D02*
X107950000Y-86360000D01*
X100330000Y-91440000D02*
X105410000Y-86360000D01*
X109140000Y-85090000D02*
X109140000Y-85170000D01*
X109140000Y-85170000D02*
X107950000Y-86360000D01*
X102070000Y-106060000D02*
X102070000Y-102070000D01*
X100330000Y-100330000D02*
X100330000Y-93980000D01*
X102070000Y-102070000D02*
X100330000Y-100330000D01*
X108585000Y-85090000D02*
X109140000Y-85090000D01*
X99695000Y-93345000D02*
X99695000Y-90805000D01*
X99695000Y-90805000D02*
X103505000Y-86995000D01*
X103505000Y-86995000D02*
X103505000Y-85170000D01*
X103505000Y-85170000D02*
X103425000Y-85090000D01*
X99695000Y-94615000D02*
X99695000Y-93345000D01*
X101270000Y-102870000D02*
X101270000Y-102540000D01*
X99695000Y-100965000D02*
X99695000Y-99060000D01*
X101270000Y-102540000D02*
X99695000Y-100965000D01*
X99695000Y-95885000D02*
X99695000Y-94615000D01*
X99695000Y-99060000D02*
X99695000Y-95885000D01*
X101270000Y-103835000D02*
X101270000Y-102870000D01*
X101270000Y-106060000D02*
X101270000Y-103835000D01*
X107950000Y-116840000D02*
X107950000Y-120650000D01*
X108585000Y-121285000D02*
X109855000Y-121285000D01*
X107950000Y-120650000D02*
X108585000Y-121285000D01*
X110490000Y-121285000D02*
X109855000Y-121285000D01*
X110490000Y-125095000D02*
X110490000Y-126365000D01*
X107950000Y-116840000D02*
X107315000Y-116205000D01*
X110490000Y-126365000D02*
X111125000Y-127000000D01*
X111125000Y-127000000D02*
X112315000Y-127000000D01*
X110490000Y-126365000D02*
X109855000Y-127000000D01*
X109855000Y-127000000D02*
X109300000Y-127000000D01*
X107315000Y-116205000D02*
X104775000Y-113665000D01*
X104775000Y-111760000D02*
X104470000Y-111455000D01*
X104470000Y-111455000D02*
X104470000Y-106060000D01*
X106045000Y-122555000D02*
X106045000Y-126445000D01*
X106045000Y-123825000D02*
X106045000Y-122555000D01*
X106045000Y-123825000D02*
X106045000Y-126365000D01*
X106045000Y-126445000D02*
X106600000Y-127000000D01*
X106045000Y-126365000D02*
X106680000Y-127000000D01*
X102070000Y-119545000D02*
X102070000Y-117460000D01*
X101600000Y-120015000D02*
X102070000Y-119545000D01*
X101600000Y-122555000D02*
X101600000Y-120015000D01*
X97170000Y-107760000D02*
X96330000Y-107760000D01*
X95885000Y-107315000D02*
X95885000Y-106045000D01*
X96330000Y-107760000D02*
X95885000Y-107315000D01*
X95885000Y-99060000D02*
X95885000Y-106045000D01*
X95885000Y-95885000D02*
X95885000Y-99060000D01*
X95885000Y-95885000D02*
X95885000Y-93980000D01*
X94615000Y-89535000D02*
X93980000Y-90170000D01*
X93980000Y-90170000D02*
X93980000Y-92075000D01*
X94615000Y-89535000D02*
X95885000Y-88265000D01*
X95885000Y-88265000D02*
X95885000Y-87630000D01*
X95885000Y-86995000D02*
X95885000Y-87630000D01*
X95885000Y-86995000D02*
X95885000Y-79375000D01*
X93980000Y-93345000D02*
X84630000Y-93345000D01*
X84630000Y-93345000D02*
X84415000Y-93130000D01*
X93980000Y-93345000D02*
X93980000Y-92075000D01*
X83415000Y-93130000D02*
X84415000Y-93130000D01*
X96965000Y-107760000D02*
X97170000Y-107760000D01*
X97155000Y-107745000D02*
X97170000Y-107760000D01*
X95250000Y-90170000D02*
X100330000Y-85090000D01*
X100330000Y-85090000D02*
X100330000Y-84455000D01*
X84415000Y-97130000D02*
X93955000Y-97130000D01*
X93955000Y-97130000D02*
X93980000Y-97155000D01*
X83415000Y-97130000D02*
X84415000Y-97130000D01*
X95250000Y-92075000D02*
X95250000Y-90805000D01*
X95250000Y-90805000D02*
X95250000Y-90170000D01*
X95250000Y-96520000D02*
X95250000Y-95250000D01*
X95250000Y-95250000D02*
X95250000Y-92075000D01*
X95250000Y-97155000D02*
X95250000Y-96520000D01*
X100330000Y-78740000D02*
X98425000Y-76835000D01*
X100330000Y-84455000D02*
X100330000Y-78740000D01*
X95250000Y-104140000D02*
X95250000Y-97155000D01*
X97170000Y-108560000D02*
X95860000Y-108560000D01*
X95250000Y-107950000D02*
X95250000Y-104140000D01*
X95860000Y-108560000D02*
X95250000Y-107950000D01*
X95885000Y-92710000D02*
X95885000Y-90805000D01*
X94615000Y-93980000D02*
X94615000Y-92710000D01*
X94615000Y-92710000D02*
X94615000Y-92710000D01*
X94615000Y-94615000D02*
X94615000Y-93980000D01*
X93980000Y-95250000D02*
X94615000Y-94615000D01*
X94615000Y-95885000D02*
X93980000Y-95250000D01*
X93980000Y-95250000D02*
X84535000Y-95250000D01*
X84535000Y-95250000D02*
X84415000Y-95130000D01*
X83415000Y-95130000D02*
X84415000Y-95130000D01*
X95885000Y-90805000D02*
X100965000Y-85725000D01*
X100965000Y-85725000D02*
X100965000Y-76835000D01*
X100965000Y-76835000D02*
X99695000Y-75565000D01*
X99695000Y-75565000D02*
X97155000Y-75565000D01*
X97155000Y-75565000D02*
X95885000Y-76835000D01*
X94615000Y-97155000D02*
X94615000Y-95885000D01*
X94615000Y-104140000D02*
X94615000Y-97155000D01*
X95390000Y-109360000D02*
X94615000Y-108585000D01*
X94615000Y-108585000D02*
X94615000Y-104140000D01*
X97170000Y-109360000D02*
X95390000Y-109360000D01*
X92545000Y-101130000D02*
X84415000Y-101130000D01*
X92710000Y-100965000D02*
X92545000Y-101130000D01*
X97170000Y-115760000D02*
X98235000Y-115760000D01*
X98235000Y-115760000D02*
X99060000Y-114935000D01*
X84415000Y-101130000D02*
X83415000Y-101130000D01*
X98235000Y-115760000D02*
X99060000Y-114935000D01*
X118745000Y-85090000D02*
X122555000Y-88900000D01*
X115570000Y-83820000D02*
X116840000Y-85090000D01*
X116840000Y-85090000D02*
X118745000Y-85090000D01*
X121920000Y-125730000D02*
X122555000Y-125095000D01*
X122555000Y-123825000D02*
X122555000Y-88900000D01*
X122555000Y-125095000D02*
X122555000Y-123825000D01*
X115570000Y-124460000D02*
X116205000Y-124460000D01*
X117475000Y-125730000D02*
X121920000Y-125730000D01*
X116205000Y-124460000D02*
X117475000Y-125730000D01*
X97155000Y-123825000D02*
X97790000Y-124460000D01*
X97155000Y-120015000D02*
X97155000Y-123825000D01*
X98870000Y-118300000D02*
X98425000Y-118745000D01*
X98425000Y-118745000D02*
X97790000Y-118745000D01*
X97790000Y-118745000D02*
X97155000Y-119380000D01*
X97155000Y-119380000D02*
X97155000Y-120015000D01*
X98870000Y-118300000D02*
X98870000Y-117460000D01*
X98425000Y-124460000D02*
X99060000Y-124460000D01*
X99060000Y-124460000D02*
X100965000Y-124460000D01*
X106680000Y-124460000D02*
X115570000Y-124460000D01*
X97790000Y-124460000D02*
X98425000Y-124460000D01*
X118110000Y-124460000D02*
X117475000Y-124460000D01*
X117475000Y-124460000D02*
X116840000Y-123825000D01*
X116205000Y-123825000D02*
X116840000Y-123825000D01*
X116840000Y-123825000D02*
X117475000Y-124460000D01*
X99670000Y-118745000D02*
X99670000Y-118770000D01*
X97790000Y-120015000D02*
X97790000Y-120650000D01*
X98425000Y-119380000D02*
X97790000Y-120015000D01*
X99060000Y-119380000D02*
X98425000Y-119380000D01*
X99670000Y-118770000D02*
X99060000Y-119380000D01*
X98425000Y-123825000D02*
X99060000Y-123825000D01*
X99695000Y-123825000D02*
X101600000Y-123825000D01*
X99060000Y-123825000D02*
X99695000Y-123825000D01*
X97790000Y-120650000D02*
X97790000Y-123190000D01*
X97790000Y-123190000D02*
X98425000Y-123825000D01*
X99670000Y-117460000D02*
X99670000Y-118745000D01*
X107315000Y-123825000D02*
X116205000Y-123825000D01*
X100470000Y-117460000D02*
X100470000Y-116065000D01*
X100965000Y-115570000D02*
X100965000Y-111760000D01*
X100470000Y-116065000D02*
X100965000Y-115570000D01*
X99060000Y-93980000D02*
X99060000Y-90170000D01*
X99060000Y-100965000D02*
X99060000Y-93980000D01*
X102235000Y-86995000D02*
X102235000Y-80645000D01*
X99060000Y-90170000D02*
X102235000Y-86995000D01*
X104630000Y-76835000D02*
X104630000Y-78250000D01*
X104630000Y-78250000D02*
X102235000Y-80645000D01*
X102235000Y-80645000D02*
X103505000Y-79375000D01*
X118110000Y-121920000D02*
X117475000Y-121920000D01*
X117475000Y-121920000D02*
X116205000Y-123190000D01*
X100330000Y-120015000D02*
X99060000Y-120015000D01*
X99060000Y-120015000D02*
X98425000Y-120650000D01*
X98425000Y-120650000D02*
X98425000Y-122555000D01*
X98425000Y-122555000D02*
X99060000Y-123190000D01*
X99060000Y-123190000D02*
X100965000Y-123190000D01*
X106680000Y-123190000D02*
X115570000Y-123190000D01*
X115570000Y-123190000D02*
X116205000Y-123190000D01*
X101270000Y-119075000D02*
X100330000Y-120015000D01*
X101270000Y-119075000D02*
X101270000Y-117460000D01*
X116840000Y-120650000D02*
X114985000Y-122505000D01*
X114985000Y-122505000D02*
X114935000Y-122505000D01*
X118110000Y-119380000D02*
X116840000Y-120650000D01*
X107315000Y-122505000D02*
X114935000Y-122505000D01*
X106070000Y-117460000D02*
X106070000Y-120040000D01*
X106070000Y-121260000D02*
X107315000Y-122505000D01*
X106070000Y-120040000D02*
X106070000Y-121260000D01*
X116205000Y-118745000D02*
X113030000Y-121920000D01*
X116205000Y-118745000D02*
X118110000Y-116840000D01*
X108585000Y-121920000D02*
X113030000Y-121920000D01*
X107950000Y-121920000D02*
X108585000Y-121920000D01*
X106870000Y-119570000D02*
X106870000Y-117460000D01*
X106870000Y-119570000D02*
X106870000Y-120460000D01*
X106870000Y-120840000D02*
X107950000Y-121920000D01*
X106870000Y-120460000D02*
X106870000Y-120840000D01*
X118110000Y-114300000D02*
X116840000Y-115570000D01*
X116840000Y-115570000D02*
X116205000Y-116205000D01*
X108570000Y-115760000D02*
X110045000Y-115760000D01*
X110490000Y-116205000D02*
X116205000Y-116205000D01*
X110045000Y-115760000D02*
X110490000Y-116205000D01*
X108570000Y-115760000D02*
X108775000Y-115760000D01*
X107340000Y-114960000D02*
X106680000Y-114300000D01*
X108570000Y-114960000D02*
X107340000Y-114960000D01*
X116840000Y-114300000D02*
X116840000Y-110490000D01*
X116840000Y-110490000D02*
X118110000Y-109220000D01*
X109715000Y-114160000D02*
X110350000Y-114160000D01*
X110490000Y-114300000D02*
X110490000Y-114935000D01*
X110350000Y-114160000D02*
X110490000Y-114300000D01*
X108570000Y-114160000D02*
X109715000Y-114160000D01*
X110490000Y-114935000D02*
X111125000Y-115570000D01*
X116205000Y-114935000D02*
X116840000Y-114300000D01*
X115570000Y-115570000D02*
X116205000Y-114935000D01*
X111125000Y-115570000D02*
X113665000Y-115570000D01*
X113665000Y-115570000D02*
X115570000Y-115570000D01*
X113030000Y-114935000D02*
X114935000Y-114935000D01*
X116205000Y-113665000D02*
X116205000Y-108585000D01*
X114935000Y-114935000D02*
X116205000Y-113665000D01*
X112395000Y-114935000D02*
X113030000Y-114935000D01*
X118110000Y-106680000D02*
X116205000Y-108585000D01*
X108570000Y-113360000D02*
X110820000Y-113360000D01*
X110820000Y-113360000D02*
X111125000Y-113665000D01*
X111125000Y-113665000D02*
X111125000Y-114300000D01*
X110820000Y-113360000D02*
X111125000Y-113665000D01*
X111125000Y-114300000D02*
X111760000Y-114935000D01*
X111125000Y-114300000D02*
X111760000Y-114935000D01*
X111760000Y-114935000D02*
X112395000Y-114935000D01*
X112395000Y-103425000D02*
X113745000Y-103425000D01*
X113745000Y-103425000D02*
X114300000Y-103980000D01*
X114300000Y-103980000D02*
X114300000Y-104140000D01*
X113745000Y-103425000D02*
X115570000Y-101600000D01*
X114300000Y-106680000D02*
X114300000Y-104140000D01*
X114300000Y-106680000D02*
X113030000Y-107950000D01*
X111760000Y-109220000D02*
X113030000Y-107950000D01*
X108570000Y-110160000D02*
X110820000Y-110160000D01*
X110820000Y-110160000D02*
X111760000Y-109220000D01*
X112475000Y-103505000D02*
X112395000Y-103425000D01*
X112950000Y-103425000D02*
X112395000Y-103425000D01*
X112395000Y-98505000D02*
X115015000Y-98505000D01*
X115015000Y-98505000D02*
X115570000Y-99060000D01*
X115015000Y-98505000D02*
X115570000Y-99060000D01*
X112395000Y-98505000D02*
X112395000Y-98425000D01*
X111125000Y-104775000D02*
X111125000Y-99775000D01*
X111125000Y-99775000D02*
X112395000Y-98505000D01*
X108570000Y-109360000D02*
X110350000Y-109360000D01*
X110350000Y-109360000D02*
X111125000Y-108585000D01*
X111125000Y-108585000D02*
X111125000Y-106680000D01*
X111125000Y-104775000D02*
X111125000Y-106680000D01*
X115570000Y-96520000D02*
X114935000Y-97155000D01*
X113665000Y-97155000D02*
X114935000Y-97155000D01*
X110490000Y-98425000D02*
X110490000Y-97790000D01*
X111125000Y-97155000D02*
X113665000Y-97155000D01*
X110490000Y-97790000D02*
X111125000Y-97155000D01*
X110490000Y-99060000D02*
X110490000Y-98425000D01*
X110490000Y-104775000D02*
X110490000Y-99060000D01*
X110490000Y-107950000D02*
X110490000Y-104775000D01*
X109880000Y-108560000D02*
X110490000Y-107950000D01*
X108570000Y-108560000D02*
X109880000Y-108560000D01*
X114935000Y-97155000D02*
X115570000Y-96520000D01*
X115570000Y-93980000D02*
X113665000Y-93980000D01*
X111760000Y-93980000D02*
X110490000Y-95250000D01*
X110490000Y-95250000D02*
X109855000Y-95885000D01*
X111760000Y-93980000D02*
X113665000Y-93980000D01*
X109855000Y-98425000D02*
X109855000Y-95885000D01*
X109855000Y-102870000D02*
X109855000Y-98425000D01*
X109855000Y-103505000D02*
X109855000Y-102870000D01*
X109855000Y-103505000D02*
X109855000Y-104140000D01*
X109855000Y-107315000D02*
X109855000Y-104140000D01*
X109410000Y-107760000D02*
X109855000Y-107315000D01*
X108570000Y-107760000D02*
X109410000Y-107760000D01*
X107315000Y-104775000D02*
X108585000Y-104775000D01*
X109220000Y-104140000D02*
X109220000Y-102870000D01*
X108585000Y-104775000D02*
X109220000Y-104140000D01*
X115570000Y-91440000D02*
X113665000Y-91440000D01*
X109220000Y-95250000D02*
X113030000Y-91440000D01*
X109220000Y-102870000D02*
X109220000Y-100965000D01*
X109220000Y-100965000D02*
X109220000Y-97790000D01*
X113030000Y-91440000D02*
X113665000Y-91440000D01*
X109220000Y-97790000D02*
X109220000Y-95250000D01*
X106870000Y-105220000D02*
X107315000Y-104775000D01*
X106870000Y-106060000D02*
X106870000Y-105220000D01*
X113665000Y-91440000D02*
X114300000Y-91440000D01*
X114300000Y-91440000D02*
X115570000Y-91440000D01*
X106680699Y-104140699D02*
X107949301Y-104140699D01*
X106070000Y-104751398D02*
X106680699Y-104140699D01*
X108585000Y-103505000D02*
X108585000Y-102235000D01*
X107949301Y-104140699D02*
X108585000Y-103505000D01*
X115570000Y-88900000D02*
X114300000Y-88900000D01*
X114300000Y-88900000D02*
X113665000Y-89535000D01*
X108585000Y-94615000D02*
X113665000Y-89535000D01*
X108585000Y-102235000D02*
X108585000Y-99695000D01*
X108585000Y-99060000D02*
X108585000Y-99695000D01*
X108585000Y-99060000D02*
X108585000Y-97155000D01*
X108585000Y-94615000D02*
X108585000Y-97155000D01*
X113665000Y-89535000D02*
X114300000Y-88900000D01*
X106070000Y-106060000D02*
X106070000Y-104751398D01*
X106045000Y-103505000D02*
X107315000Y-103505000D01*
X107950000Y-102870000D02*
X107950000Y-101600000D01*
X107315000Y-103505000D02*
X107950000Y-102870000D01*
X115570000Y-86360000D02*
X114300000Y-87630000D01*
X107950000Y-93980000D02*
X114300000Y-87630000D01*
X107950000Y-96520000D02*
X107950000Y-93980000D01*
X107950000Y-97155000D02*
X107950000Y-96520000D01*
X107950000Y-101600000D02*
X107950000Y-97155000D01*
X105270000Y-104280000D02*
X106045000Y-103505000D01*
X105270000Y-104915000D02*
X105270000Y-104280000D01*
X105270000Y-106060000D02*
X105270000Y-104915000D01*
X114300000Y-87630000D02*
X115570000Y-86360000D01*
X100470000Y-106060000D02*
X100470000Y-103010000D01*
X100470000Y-103010000D02*
X100330000Y-102870000D01*
X100330000Y-102870000D02*
X100470000Y-103010000D01*
X99670000Y-106060000D02*
X99670000Y-102260000D01*
X99670000Y-102260000D02*
X99695000Y-102235000D01*
X93605000Y-103130000D02*
X92970000Y-103130000D01*
X93980000Y-103505000D02*
X93605000Y-103130000D01*
X84415000Y-103130000D02*
X83415000Y-103130000D01*
X92970000Y-103130000D02*
X84415000Y-103130000D01*
X98425000Y-103505000D02*
X97155000Y-103505000D01*
X98870000Y-103950000D02*
X98425000Y-103505000D01*
X98870000Y-104140000D02*
X98870000Y-103950000D01*
X98870000Y-106060000D02*
X98870000Y-104140000D01*
X83415000Y-99130000D02*
X84415000Y-99130000D01*
X96520000Y-118110000D02*
X96521398Y-118110000D01*
X96521398Y-118110000D02*
X97791398Y-116840000D01*
X85725000Y-128905000D02*
X84455000Y-128905000D01*
X96520000Y-118110000D02*
X85725000Y-128905000D01*
X99695000Y-113665000D02*
X99695000Y-111760000D01*
X97791398Y-116840000D02*
X98425699Y-116205699D01*
X99695000Y-114935000D02*
X99695000Y-113665000D01*
X99059301Y-116205699D02*
X99695000Y-115570000D01*
X99695000Y-115570000D02*
X99695000Y-114935000D01*
X98425699Y-116205699D02*
X99059301Y-116205699D01*
X83185000Y-139700000D02*
X86360000Y-142875000D01*
X92710000Y-144780000D02*
X92710000Y-144800000D01*
X86360000Y-142875000D02*
X89535000Y-142875000D01*
X89535000Y-142875000D02*
X90170000Y-143510000D01*
X84455000Y-128905000D02*
X83185000Y-130175000D01*
X83185000Y-130175000D02*
X83185000Y-139700000D01*
X91440000Y-144780000D02*
X92710000Y-144780000D01*
X90170000Y-143510000D02*
X91440000Y-144780000D01*
X92710000Y-144800000D02*
X93960000Y-146050000D01*
X93960000Y-146050000D02*
X97075000Y-146050000D01*
X96520000Y-92075000D02*
X96520000Y-91440000D01*
X96520000Y-91440000D02*
X97155000Y-90805000D01*
X99695000Y-74930000D02*
X100330000Y-74930000D01*
X94615000Y-75565000D02*
X93345000Y-76835000D01*
X95250000Y-74930000D02*
X99695000Y-74930000D01*
X94615000Y-75565000D02*
X95250000Y-74930000D01*
X100330000Y-74930000D02*
X101600000Y-76200000D01*
X101600000Y-76200000D02*
X101600000Y-86360000D01*
X101600000Y-86360000D02*
X97155000Y-90805000D01*
X96520000Y-95885000D02*
X96520000Y-92075000D01*
X98425000Y-109855000D02*
X98425000Y-109220000D01*
X96520000Y-96520000D02*
X96520000Y-105410000D01*
X96520000Y-95885000D02*
X96520000Y-96520000D01*
X98425000Y-107315000D02*
X98425000Y-109220000D01*
X96520000Y-105410000D02*
X98425000Y-107315000D01*
X97170000Y-110160000D02*
X98120000Y-110160000D01*
X98120000Y-110160000D02*
X98425000Y-109855000D01*
D30*
X111125000Y-146685000D02*
X111760000Y-147320000D01*
X112395000Y-149225000D02*
X112395000Y-147955000D01*
X112395000Y-147955000D02*
X111760000Y-147320000D01*
X111760000Y-147320000D02*
X112395000Y-147955000D01*
X121285000Y-150495000D02*
X120650000Y-151130000D01*
X121285000Y-150495000D02*
X121920000Y-151130000D01*
X123190000Y-148590000D02*
X121285000Y-150495000D01*
X116205000Y-127000000D02*
X121920000Y-127000000D01*
X123190000Y-128270000D02*
X123190000Y-148590000D01*
X121920000Y-127000000D02*
X123190000Y-128270000D01*
X112395000Y-149225000D02*
X114300000Y-151130000D01*
X114300000Y-151130000D02*
X120650000Y-151130000D01*
X121920000Y-151130000D02*
X122555000Y-151130000D01*
X122555000Y-151130000D02*
X137470000Y-151130000D01*
X137470000Y-151130000D02*
X150500000Y-138100000D01*
X115015000Y-127000000D02*
X116205000Y-127000000D01*
X114935000Y-126920000D02*
X115015000Y-127000000D01*
D32*
G36*
X117985000Y-131759802D02*
X117985000Y-136525000D01*
X118042852Y-136815839D01*
X118207599Y-137062401D01*
X119208790Y-138063592D01*
X119135907Y-138430000D01*
X119248946Y-138998285D01*
X119570853Y-139480054D01*
X120052622Y-139801961D01*
X120620907Y-139915000D01*
X120679093Y-139915000D01*
X121247378Y-139801961D01*
X121729147Y-139480054D01*
X122051054Y-138998285D01*
X122164093Y-138430000D01*
X122091210Y-138063592D01*
X122355000Y-137799802D01*
X122355000Y-144845441D01*
X122107995Y-144598005D01*
X121066390Y-144165493D01*
X119938558Y-144164509D01*
X118896199Y-144595202D01*
X118098005Y-145392005D01*
X117665493Y-146433610D01*
X117664509Y-147561442D01*
X118095202Y-148603801D01*
X118892005Y-149401995D01*
X119933610Y-149834507D01*
X120763901Y-149835231D01*
X120304132Y-150295000D01*
X115991166Y-150295000D01*
X116306961Y-149822378D01*
X116420000Y-149254093D01*
X116420000Y-149195907D01*
X116306961Y-148627622D01*
X115985054Y-148145853D01*
X115503285Y-147823946D01*
X114935000Y-147710907D01*
X114366715Y-147823946D01*
X113884946Y-148145853D01*
X113857150Y-148187452D01*
X113848162Y-148139683D01*
X113709090Y-147923559D01*
X113496890Y-147778569D01*
X113245000Y-147727560D01*
X113184760Y-147727560D01*
X113166440Y-147635460D01*
X112985434Y-147364566D01*
X112017535Y-146396667D01*
X111918117Y-146156057D01*
X111655327Y-145892808D01*
X111311799Y-145750162D01*
X110939833Y-145749838D01*
X110596057Y-145891883D01*
X110332808Y-146154673D01*
X110190162Y-146498201D01*
X110189838Y-146870167D01*
X110331883Y-147213943D01*
X110594673Y-147477192D01*
X110836910Y-147577778D01*
X111140096Y-147880964D01*
X111093559Y-147910910D01*
X110948569Y-148123110D01*
X110897560Y-148375000D01*
X110897560Y-150075000D01*
X110941838Y-150310317D01*
X111080910Y-150526441D01*
X111293110Y-150671431D01*
X111545000Y-150722440D01*
X112711572Y-150722440D01*
X112992132Y-151003000D01*
X103632000Y-151003000D01*
X103632000Y-150153914D01*
X104008076Y-150496645D01*
X104418110Y-150666476D01*
X104648000Y-150545155D01*
X104648000Y-149352000D01*
X104902000Y-149352000D01*
X104902000Y-150545155D01*
X105131890Y-150666476D01*
X105541924Y-150496645D01*
X105970183Y-150106358D01*
X106216486Y-149581892D01*
X106095819Y-149352000D01*
X104902000Y-149352000D01*
X104648000Y-149352000D01*
X104628000Y-149352000D01*
X104628000Y-149098000D01*
X104648000Y-149098000D01*
X104648000Y-147904845D01*
X104902000Y-147904845D01*
X104902000Y-149098000D01*
X106095819Y-149098000D01*
X106216486Y-148868108D01*
X105970183Y-148343642D01*
X105541924Y-147953355D01*
X105131890Y-147783524D01*
X104902000Y-147904845D01*
X104648000Y-147904845D01*
X104418110Y-147783524D01*
X104008076Y-147953355D01*
X103632000Y-148296086D01*
X103632000Y-139190000D01*
X104137046Y-139190000D01*
X104330853Y-139480054D01*
X104812622Y-139801961D01*
X105380907Y-139915000D01*
X105439093Y-139915000D01*
X106007378Y-139801961D01*
X106489147Y-139480054D01*
X106811054Y-138998285D01*
X106924093Y-138430000D01*
X106811054Y-137861715D01*
X106653654Y-137626148D01*
X107852401Y-136427401D01*
X108017148Y-136180839D01*
X108075000Y-135890000D01*
X108075000Y-131759802D01*
X108264802Y-131570000D01*
X117795198Y-131570000D01*
X117985000Y-131759802D01*
X117985000Y-131759802D01*
G37*
X117985000Y-131759802D02*
X117985000Y-136525000D01*
X118042852Y-136815839D01*
X118207599Y-137062401D01*
X119208790Y-138063592D01*
X119135907Y-138430000D01*
X119248946Y-138998285D01*
X119570853Y-139480054D01*
X120052622Y-139801961D01*
X120620907Y-139915000D01*
X120679093Y-139915000D01*
X121247378Y-139801961D01*
X121729147Y-139480054D01*
X122051054Y-138998285D01*
X122164093Y-138430000D01*
X122091210Y-138063592D01*
X122355000Y-137799802D01*
X122355000Y-144845441D01*
X122107995Y-144598005D01*
X121066390Y-144165493D01*
X119938558Y-144164509D01*
X118896199Y-144595202D01*
X118098005Y-145392005D01*
X117665493Y-146433610D01*
X117664509Y-147561442D01*
X118095202Y-148603801D01*
X118892005Y-149401995D01*
X119933610Y-149834507D01*
X120763901Y-149835231D01*
X120304132Y-150295000D01*
X115991166Y-150295000D01*
X116306961Y-149822378D01*
X116420000Y-149254093D01*
X116420000Y-149195907D01*
X116306961Y-148627622D01*
X115985054Y-148145853D01*
X115503285Y-147823946D01*
X114935000Y-147710907D01*
X114366715Y-147823946D01*
X113884946Y-148145853D01*
X113857150Y-148187452D01*
X113848162Y-148139683D01*
X113709090Y-147923559D01*
X113496890Y-147778569D01*
X113245000Y-147727560D01*
X113184760Y-147727560D01*
X113166440Y-147635460D01*
X112985434Y-147364566D01*
X112017535Y-146396667D01*
X111918117Y-146156057D01*
X111655327Y-145892808D01*
X111311799Y-145750162D01*
X110939833Y-145749838D01*
X110596057Y-145891883D01*
X110332808Y-146154673D01*
X110190162Y-146498201D01*
X110189838Y-146870167D01*
X110331883Y-147213943D01*
X110594673Y-147477192D01*
X110836910Y-147577778D01*
X111140096Y-147880964D01*
X111093559Y-147910910D01*
X110948569Y-148123110D01*
X110897560Y-148375000D01*
X110897560Y-150075000D01*
X110941838Y-150310317D01*
X111080910Y-150526441D01*
X111293110Y-150671431D01*
X111545000Y-150722440D01*
X112711572Y-150722440D01*
X112992132Y-151003000D01*
X103632000Y-151003000D01*
X103632000Y-150153914D01*
X104008076Y-150496645D01*
X104418110Y-150666476D01*
X104648000Y-150545155D01*
X104648000Y-149352000D01*
X104902000Y-149352000D01*
X104902000Y-150545155D01*
X105131890Y-150666476D01*
X105541924Y-150496645D01*
X105970183Y-150106358D01*
X106216486Y-149581892D01*
X106095819Y-149352000D01*
X104902000Y-149352000D01*
X104648000Y-149352000D01*
X104628000Y-149352000D01*
X104628000Y-149098000D01*
X104648000Y-149098000D01*
X104648000Y-147904845D01*
X104902000Y-147904845D01*
X104902000Y-149098000D01*
X106095819Y-149098000D01*
X106216486Y-148868108D01*
X105970183Y-148343642D01*
X105541924Y-147953355D01*
X105131890Y-147783524D01*
X104902000Y-147904845D01*
X104648000Y-147904845D01*
X104418110Y-147783524D01*
X104008076Y-147953355D01*
X103632000Y-148296086D01*
X103632000Y-139190000D01*
X104137046Y-139190000D01*
X104330853Y-139480054D01*
X104812622Y-139801961D01*
X105380907Y-139915000D01*
X105439093Y-139915000D01*
X106007378Y-139801961D01*
X106489147Y-139480054D01*
X106811054Y-138998285D01*
X106924093Y-138430000D01*
X106811054Y-137861715D01*
X106653654Y-137626148D01*
X107852401Y-136427401D01*
X108017148Y-136180839D01*
X108075000Y-135890000D01*
X108075000Y-131759802D01*
X108264802Y-131570000D01*
X117795198Y-131570000D01*
X117985000Y-131759802D01*
G36*
X103912560Y-131128428D02*
X103912560Y-131660000D01*
X103956838Y-131895317D01*
X104095910Y-132111441D01*
X104308110Y-132256431D01*
X104416107Y-132278301D01*
X104138355Y-132583076D01*
X103968524Y-132993110D01*
X104089845Y-133223000D01*
X105283000Y-133223000D01*
X105283000Y-133203000D01*
X105537000Y-133203000D01*
X105537000Y-133223000D01*
X105557000Y-133223000D01*
X105557000Y-133477000D01*
X105537000Y-133477000D01*
X105537000Y-133497000D01*
X105283000Y-133497000D01*
X105283000Y-133477000D01*
X104089845Y-133477000D01*
X103968524Y-133706890D01*
X104138355Y-134116924D01*
X104528642Y-134545183D01*
X104671553Y-134612298D01*
X104330853Y-134839946D01*
X104137046Y-135130000D01*
X103632000Y-135130000D01*
X103632000Y-130847868D01*
X103912560Y-131128428D01*
X103912560Y-131128428D01*
G37*
X103912560Y-131128428D02*
X103912560Y-131660000D01*
X103956838Y-131895317D01*
X104095910Y-132111441D01*
X104308110Y-132256431D01*
X104416107Y-132278301D01*
X104138355Y-132583076D01*
X103968524Y-132993110D01*
X104089845Y-133223000D01*
X105283000Y-133223000D01*
X105283000Y-133203000D01*
X105537000Y-133203000D01*
X105537000Y-133223000D01*
X105557000Y-133223000D01*
X105557000Y-133477000D01*
X105537000Y-133477000D01*
X105537000Y-133497000D01*
X105283000Y-133497000D01*
X105283000Y-133477000D01*
X104089845Y-133477000D01*
X103968524Y-133706890D01*
X104138355Y-134116924D01*
X104528642Y-134545183D01*
X104671553Y-134612298D01*
X104330853Y-134839946D01*
X104137046Y-135130000D01*
X103632000Y-135130000D01*
X103632000Y-130847868D01*
X103912560Y-131128428D01*
G36*
X120777000Y-133223000D02*
X120797000Y-133223000D01*
X120797000Y-133477000D01*
X120777000Y-133477000D01*
X120777000Y-133497000D01*
X120523000Y-133497000D01*
X120523000Y-133477000D01*
X120503000Y-133477000D01*
X120503000Y-133223000D01*
X120523000Y-133223000D01*
X120523000Y-133203000D01*
X120777000Y-133203000D01*
X120777000Y-133223000D01*
X120777000Y-133223000D01*
G37*
X120777000Y-133223000D02*
X120797000Y-133223000D01*
X120797000Y-133477000D01*
X120777000Y-133477000D01*
X120777000Y-133497000D01*
X120523000Y-133497000D01*
X120523000Y-133477000D01*
X120503000Y-133477000D01*
X120503000Y-133223000D01*
X120523000Y-133223000D01*
X120523000Y-133203000D01*
X120777000Y-133203000D01*
X120777000Y-133223000D01*
M02*
