G04 #@! TF.GenerationSoftware,KiCad,Pcbnew,(5.0.1)-3*
G04 #@! TF.CreationDate,2018-12-07T05:25:01+01:00*
G04 #@! TF.ProjectId,HB-UNI-644,48422D554E492D3634342E6B69636164,2.0*
G04 #@! TF.SameCoordinates,Original*
G04 #@! TF.FileFunction,Soldermask,Bot*
G04 #@! TF.FilePolarity,Negative*
%FSLAX46Y46*%
G04 Gerber Fmt 4.6, Leading zero omitted, Abs format (unit mm)*
G04 Created by KiCad (PCBNEW (5.0.1)-3) date 07.12.2018 05:25:01*
%MOMM*%
%LPD*%
G01*
G04 APERTURE LIST*
%ADD10C,0.100000*%
G04 APERTURE END LIST*
D10*
G36*
X110490000Y-150350000D02*
X109220000Y-150350000D01*
X109220000Y-149380000D01*
X110490000Y-149380000D01*
X110490000Y-150350000D01*
X110490000Y-150350000D01*
G37*
G36*
X107950000Y-150350000D02*
X106680000Y-150350000D01*
X106680000Y-149380000D01*
X107950000Y-149380000D01*
X107950000Y-150350000D01*
X107950000Y-150350000D01*
G37*
G36*
X102401629Y-148387300D02*
X102561855Y-148435903D01*
X102709519Y-148514832D01*
X102838948Y-148621052D01*
X102945168Y-148750481D01*
X103024097Y-148898145D01*
X103072700Y-149058371D01*
X103089112Y-149225000D01*
X103072700Y-149391629D01*
X103024097Y-149551855D01*
X102945168Y-149699519D01*
X102838948Y-149828948D01*
X102709519Y-149935168D01*
X102561855Y-150014097D01*
X102401629Y-150062700D01*
X102276749Y-150075000D01*
X102193251Y-150075000D01*
X102068371Y-150062700D01*
X101908145Y-150014097D01*
X101760481Y-149935168D01*
X101631052Y-149828948D01*
X101524832Y-149699519D01*
X101445903Y-149551855D01*
X101397300Y-149391629D01*
X101380888Y-149225000D01*
X101397300Y-149058371D01*
X101445903Y-148898145D01*
X101524832Y-148750481D01*
X101631052Y-148621052D01*
X101760481Y-148514832D01*
X101908145Y-148435903D01*
X102068371Y-148387300D01*
X102193251Y-148375000D01*
X102276749Y-148375000D01*
X102401629Y-148387300D01*
X102401629Y-148387300D01*
G37*
G36*
X104941629Y-148387300D02*
X105101855Y-148435903D01*
X105249519Y-148514832D01*
X105378948Y-148621052D01*
X105485168Y-148750481D01*
X105564097Y-148898145D01*
X105612700Y-149058371D01*
X105629112Y-149225000D01*
X105612700Y-149391629D01*
X105564097Y-149551855D01*
X105485168Y-149699519D01*
X105378948Y-149828948D01*
X105249519Y-149935168D01*
X105101855Y-150014097D01*
X104941629Y-150062700D01*
X104816749Y-150075000D01*
X104733251Y-150075000D01*
X104608371Y-150062700D01*
X104448145Y-150014097D01*
X104300481Y-149935168D01*
X104171052Y-149828948D01*
X104064832Y-149699519D01*
X103985903Y-149551855D01*
X103937300Y-149391629D01*
X103920888Y-149225000D01*
X103937300Y-149058371D01*
X103985903Y-148898145D01*
X104064832Y-148750481D01*
X104171052Y-148621052D01*
X104300481Y-148514832D01*
X104448145Y-148435903D01*
X104608371Y-148387300D01*
X104733251Y-148375000D01*
X104816749Y-148375000D01*
X104941629Y-148387300D01*
X104941629Y-148387300D01*
G37*
G36*
X92925000Y-150075000D02*
X91225000Y-150075000D01*
X91225000Y-148375000D01*
X92925000Y-148375000D01*
X92925000Y-150075000D01*
X92925000Y-150075000D01*
G37*
G36*
X94781629Y-148387300D02*
X94941855Y-148435903D01*
X95089519Y-148514832D01*
X95218948Y-148621052D01*
X95325168Y-148750481D01*
X95404097Y-148898145D01*
X95452700Y-149058371D01*
X95469112Y-149225000D01*
X95452700Y-149391629D01*
X95404097Y-149551855D01*
X95325168Y-149699519D01*
X95218948Y-149828948D01*
X95089519Y-149935168D01*
X94941855Y-150014097D01*
X94781629Y-150062700D01*
X94656749Y-150075000D01*
X94573251Y-150075000D01*
X94448371Y-150062700D01*
X94288145Y-150014097D01*
X94140481Y-149935168D01*
X94011052Y-149828948D01*
X93904832Y-149699519D01*
X93825903Y-149551855D01*
X93777300Y-149391629D01*
X93760888Y-149225000D01*
X93777300Y-149058371D01*
X93825903Y-148898145D01*
X93904832Y-148750481D01*
X94011052Y-148621052D01*
X94140481Y-148514832D01*
X94288145Y-148435903D01*
X94448371Y-148387300D01*
X94573251Y-148375000D01*
X94656749Y-148375000D01*
X94781629Y-148387300D01*
X94781629Y-148387300D01*
G37*
G36*
X99861629Y-148387300D02*
X100021855Y-148435903D01*
X100169519Y-148514832D01*
X100298948Y-148621052D01*
X100405168Y-148750481D01*
X100484097Y-148898145D01*
X100532700Y-149058371D01*
X100549112Y-149225000D01*
X100532700Y-149391629D01*
X100484097Y-149551855D01*
X100405168Y-149699519D01*
X100298948Y-149828948D01*
X100169519Y-149935168D01*
X100021855Y-150014097D01*
X99861629Y-150062700D01*
X99736749Y-150075000D01*
X99653251Y-150075000D01*
X99528371Y-150062700D01*
X99368145Y-150014097D01*
X99220481Y-149935168D01*
X99091052Y-149828948D01*
X98984832Y-149699519D01*
X98905903Y-149551855D01*
X98857300Y-149391629D01*
X98840888Y-149225000D01*
X98857300Y-149058371D01*
X98905903Y-148898145D01*
X98984832Y-148750481D01*
X99091052Y-148621052D01*
X99220481Y-148514832D01*
X99368145Y-148435903D01*
X99528371Y-148387300D01*
X99653251Y-148375000D01*
X99736749Y-148375000D01*
X99861629Y-148387300D01*
X99861629Y-148387300D01*
G37*
G36*
X97321629Y-148387300D02*
X97481855Y-148435903D01*
X97629519Y-148514832D01*
X97758948Y-148621052D01*
X97865168Y-148750481D01*
X97944097Y-148898145D01*
X97992700Y-149058371D01*
X98009112Y-149225000D01*
X97992700Y-149391629D01*
X97944097Y-149551855D01*
X97865168Y-149699519D01*
X97758948Y-149828948D01*
X97629519Y-149935168D01*
X97481855Y-150014097D01*
X97321629Y-150062700D01*
X97196749Y-150075000D01*
X97113251Y-150075000D01*
X96988371Y-150062700D01*
X96828145Y-150014097D01*
X96680481Y-149935168D01*
X96551052Y-149828948D01*
X96444832Y-149699519D01*
X96365903Y-149551855D01*
X96317300Y-149391629D01*
X96300888Y-149225000D01*
X96317300Y-149058371D01*
X96365903Y-148898145D01*
X96444832Y-148750481D01*
X96551052Y-148621052D01*
X96680481Y-148514832D01*
X96828145Y-148435903D01*
X96988371Y-148387300D01*
X97113251Y-148375000D01*
X97196749Y-148375000D01*
X97321629Y-148387300D01*
X97321629Y-148387300D01*
G37*
G36*
X154929199Y-144842273D02*
X155141717Y-144884545D01*
X155452922Y-145013450D01*
X155542091Y-145050385D01*
X155902418Y-145291148D01*
X156208852Y-145597582D01*
X156449615Y-145957909D01*
X156615455Y-146358284D01*
X156700000Y-146783319D01*
X156700000Y-147216681D01*
X156664183Y-147396744D01*
X156615455Y-147641717D01*
X156449615Y-148042091D01*
X156208852Y-148402418D01*
X155902418Y-148708852D01*
X155542091Y-148949615D01*
X155141717Y-149115455D01*
X154929198Y-149157728D01*
X154716681Y-149200000D01*
X154283319Y-149200000D01*
X154070802Y-149157728D01*
X153858283Y-149115455D01*
X153457909Y-148949615D01*
X153097582Y-148708852D01*
X152791148Y-148402418D01*
X152550385Y-148042091D01*
X152384545Y-147641717D01*
X152335817Y-147396744D01*
X152300000Y-147216681D01*
X152300000Y-146783319D01*
X152384545Y-146358284D01*
X152550385Y-145957909D01*
X152791148Y-145597582D01*
X153097582Y-145291148D01*
X153457909Y-145050385D01*
X153547078Y-145013450D01*
X153858283Y-144884545D01*
X154070801Y-144842273D01*
X154283319Y-144800000D01*
X154716681Y-144800000D01*
X154929199Y-144842273D01*
X154929199Y-144842273D01*
G37*
G36*
X86929199Y-144842273D02*
X87141717Y-144884545D01*
X87452922Y-145013450D01*
X87542091Y-145050385D01*
X87902418Y-145291148D01*
X88208852Y-145597582D01*
X88449615Y-145957909D01*
X88615455Y-146358284D01*
X88700000Y-146783319D01*
X88700000Y-147216681D01*
X88664183Y-147396744D01*
X88615455Y-147641717D01*
X88449615Y-148042091D01*
X88208852Y-148402418D01*
X87902418Y-148708852D01*
X87542091Y-148949615D01*
X87141717Y-149115455D01*
X86929198Y-149157728D01*
X86716681Y-149200000D01*
X86283319Y-149200000D01*
X86070802Y-149157728D01*
X85858283Y-149115455D01*
X85457909Y-148949615D01*
X85097582Y-148708852D01*
X84791148Y-148402418D01*
X84550385Y-148042091D01*
X84384545Y-147641717D01*
X84335817Y-147396744D01*
X84300000Y-147216681D01*
X84300000Y-146783319D01*
X84384545Y-146358284D01*
X84550385Y-145957909D01*
X84791148Y-145597582D01*
X85097582Y-145291148D01*
X85457909Y-145050385D01*
X85547078Y-145013450D01*
X85858283Y-144884545D01*
X86070801Y-144842273D01*
X86283319Y-144800000D01*
X86716681Y-144800000D01*
X86929199Y-144842273D01*
X86929199Y-144842273D01*
G37*
G36*
X120929199Y-144842273D02*
X121141717Y-144884545D01*
X121452922Y-145013450D01*
X121542091Y-145050385D01*
X121902418Y-145291148D01*
X122208852Y-145597582D01*
X122449615Y-145957909D01*
X122615455Y-146358284D01*
X122700000Y-146783319D01*
X122700000Y-147216681D01*
X122664183Y-147396744D01*
X122615455Y-147641717D01*
X122449615Y-148042091D01*
X122208852Y-148402418D01*
X121902418Y-148708852D01*
X121542091Y-148949615D01*
X121141717Y-149115455D01*
X120929198Y-149157728D01*
X120716681Y-149200000D01*
X120283319Y-149200000D01*
X120070802Y-149157728D01*
X119858283Y-149115455D01*
X119457909Y-148949615D01*
X119097582Y-148708852D01*
X118791148Y-148402418D01*
X118550385Y-148042091D01*
X118384545Y-147641717D01*
X118335817Y-147396744D01*
X118300000Y-147216681D01*
X118300000Y-146783319D01*
X118384545Y-146358284D01*
X118550385Y-145957909D01*
X118791148Y-145597582D01*
X119097582Y-145291148D01*
X119457909Y-145050385D01*
X119547078Y-145013450D01*
X119858283Y-144884545D01*
X120070801Y-144842273D01*
X120283319Y-144800000D01*
X120716681Y-144800000D01*
X120929199Y-144842273D01*
X120929199Y-144842273D01*
G37*
G36*
X110490000Y-149070000D02*
X109220000Y-149070000D01*
X109220000Y-148100000D01*
X110490000Y-148100000D01*
X110490000Y-149070000D01*
X110490000Y-149070000D01*
G37*
G36*
X107950000Y-149070000D02*
X106680000Y-149070000D01*
X106680000Y-148100000D01*
X107950000Y-148100000D01*
X107950000Y-149070000D01*
X107950000Y-149070000D01*
G37*
G36*
X114030000Y-148955000D02*
X112030000Y-148955000D01*
X112030000Y-146955000D01*
X114030000Y-146955000D01*
X114030000Y-148955000D01*
X114030000Y-148955000D01*
G37*
G36*
X115766034Y-146969470D02*
X115860284Y-146998060D01*
X115954536Y-147026651D01*
X116095673Y-147102091D01*
X116128258Y-147119508D01*
X116280528Y-147244472D01*
X116405492Y-147396742D01*
X116405493Y-147396744D01*
X116498349Y-147570464D01*
X116555530Y-147758967D01*
X116574838Y-147955000D01*
X116555530Y-148151033D01*
X116498349Y-148339536D01*
X116424930Y-148476892D01*
X116405492Y-148513258D01*
X116280528Y-148665528D01*
X116128258Y-148790492D01*
X116128256Y-148790493D01*
X115954536Y-148883349D01*
X115905759Y-148898145D01*
X115766034Y-148940530D01*
X115619120Y-148955000D01*
X115520880Y-148955000D01*
X115373966Y-148940530D01*
X115234241Y-148898145D01*
X115185464Y-148883349D01*
X115011744Y-148790493D01*
X115011742Y-148790492D01*
X114859472Y-148665528D01*
X114734508Y-148513258D01*
X114715070Y-148476892D01*
X114641651Y-148339536D01*
X114584470Y-148151033D01*
X114565162Y-147955000D01*
X114584470Y-147758967D01*
X114641651Y-147570464D01*
X114734507Y-147396744D01*
X114734508Y-147396742D01*
X114859472Y-147244472D01*
X115011742Y-147119508D01*
X115044327Y-147102091D01*
X115185464Y-147026651D01*
X115279716Y-146998060D01*
X115373966Y-146969470D01*
X115520880Y-146955000D01*
X115619120Y-146955000D01*
X115766034Y-146969470D01*
X115766034Y-146969470D01*
G37*
G36*
X102955000Y-147230000D02*
X102155000Y-147230000D01*
X102155000Y-145330000D01*
X102955000Y-145330000D01*
X102955000Y-147230000D01*
X102955000Y-147230000D01*
G37*
G36*
X104855000Y-147230000D02*
X104055000Y-147230000D01*
X104055000Y-145330000D01*
X104855000Y-145330000D01*
X104855000Y-147230000D01*
X104855000Y-147230000D01*
G37*
G36*
X107330000Y-146880000D02*
X106030000Y-146880000D01*
X106030000Y-145380000D01*
X107330000Y-145380000D01*
X107330000Y-146880000D01*
X107330000Y-146880000D01*
G37*
G36*
X117300000Y-145630000D02*
X115300000Y-145630000D01*
X115300000Y-143930000D01*
X117300000Y-143930000D01*
X117300000Y-145630000D01*
X117300000Y-145630000D01*
G37*
G36*
X113300000Y-145630000D02*
X111300000Y-145630000D01*
X111300000Y-143930000D01*
X113300000Y-143930000D01*
X113300000Y-145630000D01*
X113300000Y-145630000D01*
G37*
G36*
X109870000Y-145610000D02*
X108570000Y-145610000D01*
X108570000Y-144110000D01*
X109870000Y-144110000D01*
X109870000Y-145610000D01*
X109870000Y-145610000D01*
G37*
G36*
X103905000Y-144230000D02*
X103105000Y-144230000D01*
X103105000Y-142330000D01*
X103905000Y-142330000D01*
X103905000Y-144230000D01*
X103905000Y-144230000D01*
G37*
G36*
X107330000Y-144180000D02*
X106030000Y-144180000D01*
X106030000Y-142680000D01*
X107330000Y-142680000D01*
X107330000Y-144180000D01*
X107330000Y-144180000D01*
G37*
G36*
X97860000Y-143355000D02*
X94360000Y-143355000D01*
X94360000Y-139855000D01*
X97860000Y-139855000D01*
X97860000Y-143355000D01*
X97860000Y-143355000D01*
G37*
G36*
X91060000Y-143355000D02*
X87560000Y-143355000D01*
X87560000Y-139855000D01*
X91060000Y-139855000D01*
X91060000Y-143355000D01*
X91060000Y-143355000D01*
G37*
G36*
X109870000Y-142910000D02*
X108570000Y-142910000D01*
X108570000Y-141410000D01*
X109870000Y-141410000D01*
X109870000Y-142910000D01*
X109870000Y-142910000D01*
G37*
G36*
X114385000Y-142320000D02*
X112485000Y-142320000D01*
X112485000Y-141520000D01*
X114385000Y-141520000D01*
X114385000Y-142320000D01*
X114385000Y-142320000D01*
G37*
G36*
X117385000Y-141370000D02*
X115485000Y-141370000D01*
X115485000Y-140570000D01*
X117385000Y-140570000D01*
X117385000Y-141370000D01*
X117385000Y-141370000D01*
G37*
G36*
X114385000Y-140420000D02*
X112485000Y-140420000D01*
X112485000Y-139620000D01*
X114385000Y-139620000D01*
X114385000Y-140420000D01*
X114385000Y-140420000D01*
G37*
G36*
X120816629Y-137592300D02*
X120976855Y-137640903D01*
X121124519Y-137719832D01*
X121253948Y-137826052D01*
X121360168Y-137955481D01*
X121439097Y-138103145D01*
X121487700Y-138263371D01*
X121504112Y-138430000D01*
X121487700Y-138596629D01*
X121439097Y-138756855D01*
X121360168Y-138904519D01*
X121253948Y-139033948D01*
X121124519Y-139140168D01*
X120976855Y-139219097D01*
X120816629Y-139267700D01*
X120691749Y-139280000D01*
X120608251Y-139280000D01*
X120483371Y-139267700D01*
X120323145Y-139219097D01*
X120175481Y-139140168D01*
X120046052Y-139033948D01*
X119939832Y-138904519D01*
X119860903Y-138756855D01*
X119812300Y-138596629D01*
X119795888Y-138430000D01*
X119812300Y-138263371D01*
X119860903Y-138103145D01*
X119939832Y-137955481D01*
X120046052Y-137826052D01*
X120175481Y-137719832D01*
X120323145Y-137640903D01*
X120483371Y-137592300D01*
X120608251Y-137580000D01*
X120691749Y-137580000D01*
X120816629Y-137592300D01*
X120816629Y-137592300D01*
G37*
G36*
X105576629Y-137592300D02*
X105736855Y-137640903D01*
X105884519Y-137719832D01*
X106013948Y-137826052D01*
X106120168Y-137955481D01*
X106199097Y-138103145D01*
X106247700Y-138263371D01*
X106264112Y-138430000D01*
X106247700Y-138596629D01*
X106199097Y-138756855D01*
X106120168Y-138904519D01*
X106013948Y-139033948D01*
X105884519Y-139140168D01*
X105736855Y-139219097D01*
X105576629Y-139267700D01*
X105451749Y-139280000D01*
X105368251Y-139280000D01*
X105243371Y-139267700D01*
X105083145Y-139219097D01*
X104935481Y-139140168D01*
X104806052Y-139033948D01*
X104699832Y-138904519D01*
X104620903Y-138756855D01*
X104572300Y-138596629D01*
X104555888Y-138430000D01*
X104572300Y-138263371D01*
X104620903Y-138103145D01*
X104699832Y-137955481D01*
X104806052Y-137826052D01*
X104935481Y-137719832D01*
X105083145Y-137640903D01*
X105243371Y-137592300D01*
X105368251Y-137580000D01*
X105451749Y-137580000D01*
X105576629Y-137592300D01*
X105576629Y-137592300D01*
G37*
G36*
X100496629Y-137592300D02*
X100656855Y-137640903D01*
X100804519Y-137719832D01*
X100933948Y-137826052D01*
X101040168Y-137955481D01*
X101119097Y-138103145D01*
X101167700Y-138263371D01*
X101184112Y-138430000D01*
X101167700Y-138596629D01*
X101119097Y-138756855D01*
X101040168Y-138904519D01*
X100933948Y-139033948D01*
X100804519Y-139140168D01*
X100656855Y-139219097D01*
X100496629Y-139267700D01*
X100371749Y-139280000D01*
X100288251Y-139280000D01*
X100163371Y-139267700D01*
X100003145Y-139219097D01*
X99855481Y-139140168D01*
X99726052Y-139033948D01*
X99619832Y-138904519D01*
X99540903Y-138756855D01*
X99492300Y-138596629D01*
X99475888Y-138430000D01*
X99492300Y-138263371D01*
X99540903Y-138103145D01*
X99619832Y-137955481D01*
X99726052Y-137826052D01*
X99855481Y-137719832D01*
X100003145Y-137640903D01*
X100163371Y-137592300D01*
X100288251Y-137580000D01*
X100371749Y-137580000D01*
X100496629Y-137592300D01*
X100496629Y-137592300D01*
G37*
G36*
X85256629Y-137592300D02*
X85416855Y-137640903D01*
X85564519Y-137719832D01*
X85693948Y-137826052D01*
X85800168Y-137955481D01*
X85879097Y-138103145D01*
X85927700Y-138263371D01*
X85944112Y-138430000D01*
X85927700Y-138596629D01*
X85879097Y-138756855D01*
X85800168Y-138904519D01*
X85693948Y-139033948D01*
X85564519Y-139140168D01*
X85416855Y-139219097D01*
X85256629Y-139267700D01*
X85131749Y-139280000D01*
X85048251Y-139280000D01*
X84923371Y-139267700D01*
X84763145Y-139219097D01*
X84615481Y-139140168D01*
X84486052Y-139033948D01*
X84379832Y-138904519D01*
X84300903Y-138756855D01*
X84252300Y-138596629D01*
X84235888Y-138430000D01*
X84252300Y-138263371D01*
X84300903Y-138103145D01*
X84379832Y-137955481D01*
X84486052Y-137826052D01*
X84615481Y-137719832D01*
X84763145Y-137640903D01*
X84923371Y-137592300D01*
X85048251Y-137580000D01*
X85131749Y-137580000D01*
X85256629Y-137592300D01*
X85256629Y-137592300D01*
G37*
G36*
X132733351Y-137330743D02*
X132878942Y-137391049D01*
X133009970Y-137478599D01*
X133121401Y-137590030D01*
X133208951Y-137721058D01*
X133269257Y-137866649D01*
X133300000Y-138021207D01*
X133300000Y-138178793D01*
X133269257Y-138333351D01*
X133208951Y-138478942D01*
X133121401Y-138609970D01*
X133009970Y-138721401D01*
X132878942Y-138808951D01*
X132733351Y-138869257D01*
X132578793Y-138900000D01*
X132421207Y-138900000D01*
X132266649Y-138869257D01*
X132121058Y-138808951D01*
X131990030Y-138721401D01*
X131878599Y-138609970D01*
X131791049Y-138478942D01*
X131730743Y-138333351D01*
X131700000Y-138178793D01*
X131700000Y-138021207D01*
X131730743Y-137866649D01*
X131791049Y-137721058D01*
X131878599Y-137590030D01*
X131990030Y-137478599D01*
X132121058Y-137391049D01*
X132266649Y-137330743D01*
X132421207Y-137300000D01*
X132578793Y-137300000D01*
X132733351Y-137330743D01*
X132733351Y-137330743D01*
G37*
G36*
X150733351Y-137330743D02*
X150878942Y-137391049D01*
X151009970Y-137478599D01*
X151121401Y-137590030D01*
X151208951Y-137721058D01*
X151269257Y-137866649D01*
X151300000Y-138021207D01*
X151300000Y-138178793D01*
X151269257Y-138333351D01*
X151208951Y-138478942D01*
X151121401Y-138609970D01*
X151009970Y-138721401D01*
X150878942Y-138808951D01*
X150733351Y-138869257D01*
X150578793Y-138900000D01*
X150421207Y-138900000D01*
X150266649Y-138869257D01*
X150121058Y-138808951D01*
X149990030Y-138721401D01*
X149878599Y-138609970D01*
X149791049Y-138478942D01*
X149730743Y-138333351D01*
X149700000Y-138178793D01*
X149700000Y-138021207D01*
X149730743Y-137866649D01*
X149791049Y-137721058D01*
X149878599Y-137590030D01*
X149990030Y-137478599D01*
X150121058Y-137391049D01*
X150266649Y-137330743D01*
X150421207Y-137300000D01*
X150578793Y-137300000D01*
X150733351Y-137330743D01*
X150733351Y-137330743D01*
G37*
G36*
X111665000Y-137890000D02*
X109165000Y-137890000D01*
X109165000Y-136890000D01*
X111665000Y-136890000D01*
X111665000Y-137890000D01*
X111665000Y-137890000D01*
G37*
G36*
X92635000Y-137800000D02*
X90635000Y-137800000D01*
X90635000Y-137150000D01*
X92635000Y-137150000D01*
X92635000Y-137800000D01*
X92635000Y-137800000D01*
G37*
G36*
X96055000Y-137800000D02*
X94055000Y-137800000D01*
X94055000Y-137150000D01*
X96055000Y-137150000D01*
X96055000Y-137800000D01*
X96055000Y-137800000D01*
G37*
G36*
X112433332Y-134877360D02*
X112446299Y-134884291D01*
X112460368Y-134888559D01*
X112475000Y-134890000D01*
X116375000Y-134890000D01*
X116375000Y-136890000D01*
X112475000Y-136890000D01*
X112460368Y-136891441D01*
X112446299Y-136895709D01*
X112433332Y-136902640D01*
X112426890Y-136907927D01*
X112418893Y-136902596D01*
X112405920Y-136895679D01*
X112391846Y-136891426D01*
X112377291Y-136890000D01*
X112370877Y-136890000D01*
X112369291Y-136884771D01*
X112362360Y-136871804D01*
X112353033Y-136860439D01*
X112341602Y-136851068D01*
X111668893Y-136402596D01*
X111655920Y-136395679D01*
X111641846Y-136391426D01*
X111627291Y-136390000D01*
X109165000Y-136390000D01*
X109165000Y-135390000D01*
X111627292Y-135390000D01*
X111641924Y-135388559D01*
X111655993Y-135384291D01*
X111668890Y-135377407D01*
X112341607Y-134928928D01*
X112352978Y-134919616D01*
X112362317Y-134908261D01*
X112369261Y-134895302D01*
X112370876Y-134890000D01*
X112377292Y-134890000D01*
X112391924Y-134888559D01*
X112405993Y-134884291D01*
X112418895Y-134877404D01*
X112426891Y-134872074D01*
X112433332Y-134877360D01*
X112433332Y-134877360D01*
G37*
G36*
X92635000Y-136850000D02*
X90635000Y-136850000D01*
X90635000Y-136200000D01*
X92635000Y-136200000D01*
X92635000Y-136850000D01*
X92635000Y-136850000D01*
G37*
G36*
X120816629Y-135052300D02*
X120976855Y-135100903D01*
X121124519Y-135179832D01*
X121253948Y-135286052D01*
X121360168Y-135415481D01*
X121439097Y-135563145D01*
X121487700Y-135723371D01*
X121504112Y-135890000D01*
X121487700Y-136056629D01*
X121439097Y-136216855D01*
X121360168Y-136364519D01*
X121253948Y-136493948D01*
X121124519Y-136600168D01*
X120976855Y-136679097D01*
X120816629Y-136727700D01*
X120691749Y-136740000D01*
X120608251Y-136740000D01*
X120483371Y-136727700D01*
X120323145Y-136679097D01*
X120175481Y-136600168D01*
X120046052Y-136493948D01*
X119939832Y-136364519D01*
X119860903Y-136216855D01*
X119812300Y-136056629D01*
X119795888Y-135890000D01*
X119812300Y-135723371D01*
X119860903Y-135563145D01*
X119939832Y-135415481D01*
X120046052Y-135286052D01*
X120175481Y-135179832D01*
X120323145Y-135100903D01*
X120483371Y-135052300D01*
X120608251Y-135040000D01*
X120691749Y-135040000D01*
X120816629Y-135052300D01*
X120816629Y-135052300D01*
G37*
G36*
X85256629Y-135052300D02*
X85416855Y-135100903D01*
X85564519Y-135179832D01*
X85693948Y-135286052D01*
X85800168Y-135415481D01*
X85879097Y-135563145D01*
X85927700Y-135723371D01*
X85944112Y-135890000D01*
X85927700Y-136056629D01*
X85879097Y-136216855D01*
X85800168Y-136364519D01*
X85693948Y-136493948D01*
X85564519Y-136600168D01*
X85416855Y-136679097D01*
X85256629Y-136727700D01*
X85131749Y-136740000D01*
X85048251Y-136740000D01*
X84923371Y-136727700D01*
X84763145Y-136679097D01*
X84615481Y-136600168D01*
X84486052Y-136493948D01*
X84379832Y-136364519D01*
X84300903Y-136216855D01*
X84252300Y-136056629D01*
X84235888Y-135890000D01*
X84252300Y-135723371D01*
X84300903Y-135563145D01*
X84379832Y-135415481D01*
X84486052Y-135286052D01*
X84615481Y-135179832D01*
X84763145Y-135100903D01*
X84923371Y-135052300D01*
X85048251Y-135040000D01*
X85131749Y-135040000D01*
X85256629Y-135052300D01*
X85256629Y-135052300D01*
G37*
G36*
X100496629Y-135052300D02*
X100656855Y-135100903D01*
X100804519Y-135179832D01*
X100933948Y-135286052D01*
X101040168Y-135415481D01*
X101119097Y-135563145D01*
X101167700Y-135723371D01*
X101184112Y-135890000D01*
X101167700Y-136056629D01*
X101119097Y-136216855D01*
X101040168Y-136364519D01*
X100933948Y-136493948D01*
X100804519Y-136600168D01*
X100656855Y-136679097D01*
X100496629Y-136727700D01*
X100371749Y-136740000D01*
X100288251Y-136740000D01*
X100163371Y-136727700D01*
X100003145Y-136679097D01*
X99855481Y-136600168D01*
X99726052Y-136493948D01*
X99619832Y-136364519D01*
X99540903Y-136216855D01*
X99492300Y-136056629D01*
X99475888Y-135890000D01*
X99492300Y-135723371D01*
X99540903Y-135563145D01*
X99619832Y-135415481D01*
X99726052Y-135286052D01*
X99855481Y-135179832D01*
X100003145Y-135100903D01*
X100163371Y-135052300D01*
X100288251Y-135040000D01*
X100371749Y-135040000D01*
X100496629Y-135052300D01*
X100496629Y-135052300D01*
G37*
G36*
X105576629Y-135052300D02*
X105736855Y-135100903D01*
X105884519Y-135179832D01*
X106013948Y-135286052D01*
X106120168Y-135415481D01*
X106199097Y-135563145D01*
X106247700Y-135723371D01*
X106264112Y-135890000D01*
X106247700Y-136056629D01*
X106199097Y-136216855D01*
X106120168Y-136364519D01*
X106013948Y-136493948D01*
X105884519Y-136600168D01*
X105736855Y-136679097D01*
X105576629Y-136727700D01*
X105451749Y-136740000D01*
X105368251Y-136740000D01*
X105243371Y-136727700D01*
X105083145Y-136679097D01*
X104935481Y-136600168D01*
X104806052Y-136493948D01*
X104699832Y-136364519D01*
X104620903Y-136216855D01*
X104572300Y-136056629D01*
X104555888Y-135890000D01*
X104572300Y-135723371D01*
X104620903Y-135563145D01*
X104699832Y-135415481D01*
X104806052Y-135286052D01*
X104935481Y-135179832D01*
X105083145Y-135100903D01*
X105243371Y-135052300D01*
X105368251Y-135040000D01*
X105451749Y-135040000D01*
X105576629Y-135052300D01*
X105576629Y-135052300D01*
G37*
G36*
X88890000Y-135985000D02*
X87640000Y-135985000D01*
X87640000Y-134485000D01*
X88890000Y-134485000D01*
X88890000Y-135985000D01*
X88890000Y-135985000D01*
G37*
G36*
X92635000Y-135900000D02*
X90635000Y-135900000D01*
X90635000Y-135250000D01*
X92635000Y-135250000D01*
X92635000Y-135900000D01*
X92635000Y-135900000D01*
G37*
G36*
X96055000Y-135900000D02*
X94055000Y-135900000D01*
X94055000Y-135250000D01*
X96055000Y-135250000D01*
X96055000Y-135900000D01*
X96055000Y-135900000D01*
G37*
G36*
X111665000Y-134890000D02*
X109165000Y-134890000D01*
X109165000Y-133890000D01*
X111665000Y-133890000D01*
X111665000Y-134890000D01*
X111665000Y-134890000D01*
G37*
G36*
X85256629Y-132512300D02*
X85416855Y-132560903D01*
X85564519Y-132639832D01*
X85693948Y-132746052D01*
X85800168Y-132875481D01*
X85879097Y-133023145D01*
X85927700Y-133183371D01*
X85944112Y-133350000D01*
X85927700Y-133516629D01*
X85879097Y-133676855D01*
X85800168Y-133824519D01*
X85693948Y-133953948D01*
X85564519Y-134060168D01*
X85416855Y-134139097D01*
X85256629Y-134187700D01*
X85131749Y-134200000D01*
X85048251Y-134200000D01*
X84923371Y-134187700D01*
X84763145Y-134139097D01*
X84615481Y-134060168D01*
X84486052Y-133953948D01*
X84379832Y-133824519D01*
X84300903Y-133676855D01*
X84252300Y-133516629D01*
X84235888Y-133350000D01*
X84252300Y-133183371D01*
X84300903Y-133023145D01*
X84379832Y-132875481D01*
X84486052Y-132746052D01*
X84615481Y-132639832D01*
X84763145Y-132560903D01*
X84923371Y-132512300D01*
X85048251Y-132500000D01*
X85131749Y-132500000D01*
X85256629Y-132512300D01*
X85256629Y-132512300D01*
G37*
G36*
X120816629Y-132512300D02*
X120976855Y-132560903D01*
X121124519Y-132639832D01*
X121253948Y-132746052D01*
X121360168Y-132875481D01*
X121439097Y-133023145D01*
X121487700Y-133183371D01*
X121504112Y-133350000D01*
X121487700Y-133516629D01*
X121439097Y-133676855D01*
X121360168Y-133824519D01*
X121253948Y-133953948D01*
X121124519Y-134060168D01*
X120976855Y-134139097D01*
X120816629Y-134187700D01*
X120691749Y-134200000D01*
X120608251Y-134200000D01*
X120483371Y-134187700D01*
X120323145Y-134139097D01*
X120175481Y-134060168D01*
X120046052Y-133953948D01*
X119939832Y-133824519D01*
X119860903Y-133676855D01*
X119812300Y-133516629D01*
X119795888Y-133350000D01*
X119812300Y-133183371D01*
X119860903Y-133023145D01*
X119939832Y-132875481D01*
X120046052Y-132746052D01*
X120175481Y-132639832D01*
X120323145Y-132560903D01*
X120483371Y-132512300D01*
X120608251Y-132500000D01*
X120691749Y-132500000D01*
X120816629Y-132512300D01*
X120816629Y-132512300D01*
G37*
G36*
X100496629Y-132512300D02*
X100656855Y-132560903D01*
X100804519Y-132639832D01*
X100933948Y-132746052D01*
X101040168Y-132875481D01*
X101119097Y-133023145D01*
X101167700Y-133183371D01*
X101184112Y-133350000D01*
X101167700Y-133516629D01*
X101119097Y-133676855D01*
X101040168Y-133824519D01*
X100933948Y-133953948D01*
X100804519Y-134060168D01*
X100656855Y-134139097D01*
X100496629Y-134187700D01*
X100371749Y-134200000D01*
X100288251Y-134200000D01*
X100163371Y-134187700D01*
X100003145Y-134139097D01*
X99855481Y-134060168D01*
X99726052Y-133953948D01*
X99619832Y-133824519D01*
X99540903Y-133676855D01*
X99492300Y-133516629D01*
X99475888Y-133350000D01*
X99492300Y-133183371D01*
X99540903Y-133023145D01*
X99619832Y-132875481D01*
X99726052Y-132746052D01*
X99855481Y-132639832D01*
X100003145Y-132560903D01*
X100163371Y-132512300D01*
X100288251Y-132500000D01*
X100371749Y-132500000D01*
X100496629Y-132512300D01*
X100496629Y-132512300D01*
G37*
G36*
X105576629Y-132512300D02*
X105736855Y-132560903D01*
X105884519Y-132639832D01*
X106013948Y-132746052D01*
X106120168Y-132875481D01*
X106199097Y-133023145D01*
X106247700Y-133183371D01*
X106264112Y-133350000D01*
X106247700Y-133516629D01*
X106199097Y-133676855D01*
X106120168Y-133824519D01*
X106013948Y-133953948D01*
X105884519Y-134060168D01*
X105736855Y-134139097D01*
X105576629Y-134187700D01*
X105451749Y-134200000D01*
X105368251Y-134200000D01*
X105243371Y-134187700D01*
X105083145Y-134139097D01*
X104935481Y-134060168D01*
X104806052Y-133953948D01*
X104699832Y-133824519D01*
X104620903Y-133676855D01*
X104572300Y-133516629D01*
X104555888Y-133350000D01*
X104572300Y-133183371D01*
X104620903Y-133023145D01*
X104699832Y-132875481D01*
X104806052Y-132746052D01*
X104935481Y-132639832D01*
X105083145Y-132560903D01*
X105243371Y-132512300D01*
X105368251Y-132500000D01*
X105451749Y-132500000D01*
X105576629Y-132512300D01*
X105576629Y-132512300D01*
G37*
G36*
X88890000Y-133485000D02*
X87640000Y-133485000D01*
X87640000Y-131985000D01*
X88890000Y-131985000D01*
X88890000Y-133485000D01*
X88890000Y-133485000D01*
G37*
G36*
X96980000Y-132880000D02*
X94980000Y-132880000D01*
X94980000Y-131280000D01*
X96980000Y-131280000D01*
X96980000Y-132880000D01*
X96980000Y-132880000D01*
G37*
G36*
X92980000Y-132880000D02*
X90980000Y-132880000D01*
X90980000Y-131280000D01*
X92980000Y-131280000D01*
X92980000Y-132880000D01*
X92980000Y-132880000D01*
G37*
G36*
X113195000Y-131905000D02*
X111595000Y-131905000D01*
X111595000Y-129905000D01*
X113195000Y-129905000D01*
X113195000Y-131905000D01*
X113195000Y-131905000D01*
G37*
G36*
X85940000Y-131660000D02*
X84240000Y-131660000D01*
X84240000Y-129960000D01*
X85940000Y-129960000D01*
X85940000Y-131660000D01*
X85940000Y-131660000D01*
G37*
G36*
X121500000Y-131660000D02*
X119800000Y-131660000D01*
X119800000Y-129960000D01*
X121500000Y-129960000D01*
X121500000Y-131660000D01*
X121500000Y-131660000D01*
G37*
G36*
X101180000Y-131660000D02*
X99480000Y-131660000D01*
X99480000Y-129960000D01*
X101180000Y-129960000D01*
X101180000Y-131660000D01*
X101180000Y-131660000D01*
G37*
G36*
X106260000Y-131660000D02*
X104560000Y-131660000D01*
X104560000Y-129960000D01*
X106260000Y-129960000D01*
X106260000Y-131660000D01*
X106260000Y-131660000D01*
G37*
G36*
X109210000Y-130905000D02*
X107960000Y-130905000D01*
X107960000Y-129405000D01*
X109210000Y-129405000D01*
X109210000Y-130905000D01*
X109210000Y-130905000D01*
G37*
G36*
X109210000Y-128405000D02*
X107960000Y-128405000D01*
X107960000Y-126905000D01*
X109210000Y-126905000D01*
X109210000Y-128405000D01*
X109210000Y-128405000D01*
G37*
G36*
X113195000Y-127905000D02*
X111595000Y-127905000D01*
X111595000Y-125905000D01*
X113195000Y-125905000D01*
X113195000Y-127905000D01*
X113195000Y-127905000D01*
G37*
G36*
X118276629Y-126162300D02*
X118436855Y-126210903D01*
X118584519Y-126289832D01*
X118713948Y-126396052D01*
X118820168Y-126525481D01*
X118899097Y-126673145D01*
X118947700Y-126833371D01*
X118964112Y-127000000D01*
X118947700Y-127166629D01*
X118899097Y-127326855D01*
X118820168Y-127474519D01*
X118713948Y-127603948D01*
X118584519Y-127710168D01*
X118436855Y-127789097D01*
X118276629Y-127837700D01*
X118151749Y-127850000D01*
X118068251Y-127850000D01*
X117943371Y-127837700D01*
X117783145Y-127789097D01*
X117635481Y-127710168D01*
X117506052Y-127603948D01*
X117399832Y-127474519D01*
X117320903Y-127326855D01*
X117272300Y-127166629D01*
X117255888Y-127000000D01*
X117272300Y-126833371D01*
X117320903Y-126673145D01*
X117399832Y-126525481D01*
X117506052Y-126396052D01*
X117635481Y-126289832D01*
X117783145Y-126210903D01*
X117943371Y-126162300D01*
X118068251Y-126150000D01*
X118151749Y-126150000D01*
X118276629Y-126162300D01*
X118276629Y-126162300D01*
G37*
G36*
X121500000Y-127850000D02*
X119800000Y-127850000D01*
X119800000Y-126150000D01*
X121500000Y-126150000D01*
X121500000Y-127850000D01*
X121500000Y-127850000D01*
G37*
G36*
X87160000Y-127165000D02*
X85560000Y-127165000D01*
X85560000Y-125565000D01*
X87160000Y-125565000D01*
X87160000Y-127165000D01*
X87160000Y-127165000D01*
G37*
G36*
X120816629Y-123622300D02*
X120976855Y-123670903D01*
X121124519Y-123749832D01*
X121253948Y-123856052D01*
X121360168Y-123985481D01*
X121439097Y-124133145D01*
X121487700Y-124293371D01*
X121504112Y-124460000D01*
X121487700Y-124626629D01*
X121439097Y-124786855D01*
X121360168Y-124934519D01*
X121253948Y-125063948D01*
X121124519Y-125170168D01*
X120976855Y-125249097D01*
X120816629Y-125297700D01*
X120691749Y-125310000D01*
X120608251Y-125310000D01*
X120483371Y-125297700D01*
X120323145Y-125249097D01*
X120175481Y-125170168D01*
X120046052Y-125063948D01*
X119939832Y-124934519D01*
X119860903Y-124786855D01*
X119812300Y-124626629D01*
X119795888Y-124460000D01*
X119812300Y-124293371D01*
X119860903Y-124133145D01*
X119939832Y-123985481D01*
X120046052Y-123856052D01*
X120175481Y-123749832D01*
X120323145Y-123670903D01*
X120483371Y-123622300D01*
X120608251Y-123610000D01*
X120691749Y-123610000D01*
X120816629Y-123622300D01*
X120816629Y-123622300D01*
G37*
G36*
X118276629Y-123622300D02*
X118436855Y-123670903D01*
X118584519Y-123749832D01*
X118713948Y-123856052D01*
X118820168Y-123985481D01*
X118899097Y-124133145D01*
X118947700Y-124293371D01*
X118964112Y-124460000D01*
X118947700Y-124626629D01*
X118899097Y-124786855D01*
X118820168Y-124934519D01*
X118713948Y-125063948D01*
X118584519Y-125170168D01*
X118436855Y-125249097D01*
X118276629Y-125297700D01*
X118151749Y-125310000D01*
X118068251Y-125310000D01*
X117943371Y-125297700D01*
X117783145Y-125249097D01*
X117635481Y-125170168D01*
X117506052Y-125063948D01*
X117399832Y-124934519D01*
X117320903Y-124786855D01*
X117272300Y-124626629D01*
X117255888Y-124460000D01*
X117272300Y-124293371D01*
X117320903Y-124133145D01*
X117399832Y-123985481D01*
X117506052Y-123856052D01*
X117635481Y-123749832D01*
X117783145Y-123670903D01*
X117943371Y-123622300D01*
X118068251Y-123610000D01*
X118151749Y-123610000D01*
X118276629Y-123622300D01*
X118276629Y-123622300D01*
G37*
G36*
X86593351Y-122095743D02*
X86738942Y-122156049D01*
X86869970Y-122243599D01*
X86981401Y-122355030D01*
X87068951Y-122486058D01*
X87129257Y-122631649D01*
X87160000Y-122786207D01*
X87160000Y-122943793D01*
X87129257Y-123098351D01*
X87068951Y-123243942D01*
X86981401Y-123374970D01*
X86869970Y-123486401D01*
X86738942Y-123573951D01*
X86593351Y-123634257D01*
X86438793Y-123665000D01*
X86281207Y-123665000D01*
X86126649Y-123634257D01*
X85981058Y-123573951D01*
X85850030Y-123486401D01*
X85738599Y-123374970D01*
X85651049Y-123243942D01*
X85590743Y-123098351D01*
X85560000Y-122943793D01*
X85560000Y-122786207D01*
X85590743Y-122631649D01*
X85651049Y-122486058D01*
X85738599Y-122355030D01*
X85850030Y-122243599D01*
X85981058Y-122156049D01*
X86126649Y-122095743D01*
X86281207Y-122065000D01*
X86438793Y-122065000D01*
X86593351Y-122095743D01*
X86593351Y-122095743D01*
G37*
G36*
X118276629Y-121082300D02*
X118436855Y-121130903D01*
X118584519Y-121209832D01*
X118713948Y-121316052D01*
X118820168Y-121445481D01*
X118899097Y-121593145D01*
X118947700Y-121753371D01*
X118964112Y-121920000D01*
X118947700Y-122086629D01*
X118899097Y-122246855D01*
X118820168Y-122394519D01*
X118713948Y-122523948D01*
X118584519Y-122630168D01*
X118436855Y-122709097D01*
X118276629Y-122757700D01*
X118151749Y-122770000D01*
X118068251Y-122770000D01*
X117943371Y-122757700D01*
X117783145Y-122709097D01*
X117635481Y-122630168D01*
X117506052Y-122523948D01*
X117399832Y-122394519D01*
X117320903Y-122246855D01*
X117272300Y-122086629D01*
X117255888Y-121920000D01*
X117272300Y-121753371D01*
X117320903Y-121593145D01*
X117399832Y-121445481D01*
X117506052Y-121316052D01*
X117635481Y-121209832D01*
X117783145Y-121130903D01*
X117943371Y-121082300D01*
X118068251Y-121070000D01*
X118151749Y-121070000D01*
X118276629Y-121082300D01*
X118276629Y-121082300D01*
G37*
G36*
X120816629Y-121082300D02*
X120976855Y-121130903D01*
X121124519Y-121209832D01*
X121253948Y-121316052D01*
X121360168Y-121445481D01*
X121439097Y-121593145D01*
X121487700Y-121753371D01*
X121504112Y-121920000D01*
X121487700Y-122086629D01*
X121439097Y-122246855D01*
X121360168Y-122394519D01*
X121253948Y-122523948D01*
X121124519Y-122630168D01*
X120976855Y-122709097D01*
X120816629Y-122757700D01*
X120691749Y-122770000D01*
X120608251Y-122770000D01*
X120483371Y-122757700D01*
X120323145Y-122709097D01*
X120175481Y-122630168D01*
X120046052Y-122523948D01*
X119939832Y-122394519D01*
X119860903Y-122246855D01*
X119812300Y-122086629D01*
X119795888Y-121920000D01*
X119812300Y-121753371D01*
X119860903Y-121593145D01*
X119939832Y-121445481D01*
X120046052Y-121316052D01*
X120175481Y-121209832D01*
X120323145Y-121130903D01*
X120483371Y-121082300D01*
X120608251Y-121070000D01*
X120691749Y-121070000D01*
X120816629Y-121082300D01*
X120816629Y-121082300D01*
G37*
G36*
X120816629Y-118542300D02*
X120976855Y-118590903D01*
X121124519Y-118669832D01*
X121253948Y-118776052D01*
X121360168Y-118905481D01*
X121439097Y-119053145D01*
X121487700Y-119213371D01*
X121504112Y-119380000D01*
X121487700Y-119546629D01*
X121439097Y-119706855D01*
X121360168Y-119854519D01*
X121253948Y-119983948D01*
X121124519Y-120090168D01*
X120976855Y-120169097D01*
X120816629Y-120217700D01*
X120691749Y-120230000D01*
X120608251Y-120230000D01*
X120483371Y-120217700D01*
X120323145Y-120169097D01*
X120175481Y-120090168D01*
X120046052Y-119983948D01*
X119939832Y-119854519D01*
X119860903Y-119706855D01*
X119812300Y-119546629D01*
X119795888Y-119380000D01*
X119812300Y-119213371D01*
X119860903Y-119053145D01*
X119939832Y-118905481D01*
X120046052Y-118776052D01*
X120175481Y-118669832D01*
X120323145Y-118590903D01*
X120483371Y-118542300D01*
X120608251Y-118530000D01*
X120691749Y-118530000D01*
X120816629Y-118542300D01*
X120816629Y-118542300D01*
G37*
G36*
X118276629Y-118542300D02*
X118436855Y-118590903D01*
X118584519Y-118669832D01*
X118713948Y-118776052D01*
X118820168Y-118905481D01*
X118899097Y-119053145D01*
X118947700Y-119213371D01*
X118964112Y-119380000D01*
X118947700Y-119546629D01*
X118899097Y-119706855D01*
X118820168Y-119854519D01*
X118713948Y-119983948D01*
X118584519Y-120090168D01*
X118436855Y-120169097D01*
X118276629Y-120217700D01*
X118151749Y-120230000D01*
X118068251Y-120230000D01*
X117943371Y-120217700D01*
X117783145Y-120169097D01*
X117635481Y-120090168D01*
X117506052Y-119983948D01*
X117399832Y-119854519D01*
X117320903Y-119706855D01*
X117272300Y-119546629D01*
X117255888Y-119380000D01*
X117272300Y-119213371D01*
X117320903Y-119053145D01*
X117399832Y-118905481D01*
X117506052Y-118776052D01*
X117635481Y-118669832D01*
X117783145Y-118590903D01*
X117943371Y-118542300D01*
X118068251Y-118530000D01*
X118151749Y-118530000D01*
X118276629Y-118542300D01*
X118276629Y-118542300D01*
G37*
G36*
X120816629Y-116002300D02*
X120976855Y-116050903D01*
X121124519Y-116129832D01*
X121253948Y-116236052D01*
X121360168Y-116365481D01*
X121439097Y-116513145D01*
X121487700Y-116673371D01*
X121504112Y-116840000D01*
X121487700Y-117006629D01*
X121439097Y-117166855D01*
X121360168Y-117314519D01*
X121253948Y-117443948D01*
X121124519Y-117550168D01*
X120976855Y-117629097D01*
X120816629Y-117677700D01*
X120691749Y-117690000D01*
X120608251Y-117690000D01*
X120483371Y-117677700D01*
X120323145Y-117629097D01*
X120175481Y-117550168D01*
X120046052Y-117443948D01*
X119939832Y-117314519D01*
X119860903Y-117166855D01*
X119812300Y-117006629D01*
X119795888Y-116840000D01*
X119812300Y-116673371D01*
X119860903Y-116513145D01*
X119939832Y-116365481D01*
X120046052Y-116236052D01*
X120175481Y-116129832D01*
X120323145Y-116050903D01*
X120483371Y-116002300D01*
X120608251Y-115990000D01*
X120691749Y-115990000D01*
X120816629Y-116002300D01*
X120816629Y-116002300D01*
G37*
G36*
X118276629Y-116002300D02*
X118436855Y-116050903D01*
X118584519Y-116129832D01*
X118713948Y-116236052D01*
X118820168Y-116365481D01*
X118899097Y-116513145D01*
X118947700Y-116673371D01*
X118964112Y-116840000D01*
X118947700Y-117006629D01*
X118899097Y-117166855D01*
X118820168Y-117314519D01*
X118713948Y-117443948D01*
X118584519Y-117550168D01*
X118436855Y-117629097D01*
X118276629Y-117677700D01*
X118151749Y-117690000D01*
X118068251Y-117690000D01*
X117943371Y-117677700D01*
X117783145Y-117629097D01*
X117635481Y-117550168D01*
X117506052Y-117443948D01*
X117399832Y-117314519D01*
X117320903Y-117166855D01*
X117272300Y-117006629D01*
X117255888Y-116840000D01*
X117272300Y-116673371D01*
X117320903Y-116513145D01*
X117399832Y-116365481D01*
X117506052Y-116236052D01*
X117635481Y-116129832D01*
X117783145Y-116050903D01*
X117943371Y-116002300D01*
X118068251Y-115990000D01*
X118151749Y-115990000D01*
X118276629Y-116002300D01*
X118276629Y-116002300D01*
G37*
G36*
X86530468Y-114639215D02*
X86578768Y-114648822D01*
X86715258Y-114705358D01*
X86838097Y-114787437D01*
X86942563Y-114891903D01*
X87024642Y-115014742D01*
X87081178Y-115151232D01*
X87110000Y-115296133D01*
X87110000Y-115443867D01*
X87081178Y-115588768D01*
X87024642Y-115725258D01*
X86942563Y-115848097D01*
X86838097Y-115952563D01*
X86715258Y-116034642D01*
X86578768Y-116091178D01*
X86530468Y-116100785D01*
X86433869Y-116120000D01*
X86286131Y-116120000D01*
X86189532Y-116100785D01*
X86141232Y-116091178D01*
X86004742Y-116034642D01*
X85881903Y-115952563D01*
X85777437Y-115848097D01*
X85695358Y-115725258D01*
X85638822Y-115588768D01*
X85610000Y-115443867D01*
X85610000Y-115296133D01*
X85638822Y-115151232D01*
X85695358Y-115014742D01*
X85777437Y-114891903D01*
X85881903Y-114787437D01*
X86004742Y-114705358D01*
X86141232Y-114648822D01*
X86189532Y-114639215D01*
X86286131Y-114620000D01*
X86433869Y-114620000D01*
X86530468Y-114639215D01*
X86530468Y-114639215D01*
G37*
G36*
X118276629Y-113462300D02*
X118436855Y-113510903D01*
X118584519Y-113589832D01*
X118713948Y-113696052D01*
X118820168Y-113825481D01*
X118899097Y-113973145D01*
X118947700Y-114133371D01*
X118964112Y-114300000D01*
X118947700Y-114466629D01*
X118899097Y-114626855D01*
X118820168Y-114774519D01*
X118713948Y-114903948D01*
X118584519Y-115010168D01*
X118436855Y-115089097D01*
X118276629Y-115137700D01*
X118151749Y-115150000D01*
X118068251Y-115150000D01*
X117943371Y-115137700D01*
X117783145Y-115089097D01*
X117635481Y-115010168D01*
X117506052Y-114903948D01*
X117399832Y-114774519D01*
X117320903Y-114626855D01*
X117272300Y-114466629D01*
X117255888Y-114300000D01*
X117272300Y-114133371D01*
X117320903Y-113973145D01*
X117399832Y-113825481D01*
X117506052Y-113696052D01*
X117635481Y-113589832D01*
X117783145Y-113510903D01*
X117943371Y-113462300D01*
X118068251Y-113450000D01*
X118151749Y-113450000D01*
X118276629Y-113462300D01*
X118276629Y-113462300D01*
G37*
G36*
X120816629Y-113462300D02*
X120976855Y-113510903D01*
X121124519Y-113589832D01*
X121253948Y-113696052D01*
X121360168Y-113825481D01*
X121439097Y-113973145D01*
X121487700Y-114133371D01*
X121504112Y-114300000D01*
X121487700Y-114466629D01*
X121439097Y-114626855D01*
X121360168Y-114774519D01*
X121253948Y-114903948D01*
X121124519Y-115010168D01*
X120976855Y-115089097D01*
X120816629Y-115137700D01*
X120691749Y-115150000D01*
X120608251Y-115150000D01*
X120483371Y-115137700D01*
X120323145Y-115089097D01*
X120175481Y-115010168D01*
X120046052Y-114903948D01*
X119939832Y-114774519D01*
X119860903Y-114626855D01*
X119812300Y-114466629D01*
X119795888Y-114300000D01*
X119812300Y-114133371D01*
X119860903Y-113973145D01*
X119939832Y-113825481D01*
X120046052Y-113696052D01*
X120175481Y-113589832D01*
X120323145Y-113510903D01*
X120483371Y-113462300D01*
X120608251Y-113450000D01*
X120691749Y-113450000D01*
X120816629Y-113462300D01*
X120816629Y-113462300D01*
G37*
G36*
X132829570Y-110087149D02*
X132922950Y-110105723D01*
X133186832Y-110215026D01*
X133424321Y-110373711D01*
X133626289Y-110575679D01*
X133784974Y-110813168D01*
X133883003Y-111049832D01*
X133894277Y-111077051D01*
X133935737Y-111285481D01*
X133950000Y-111357189D01*
X133950000Y-111642811D01*
X133894277Y-111922950D01*
X133784974Y-112186832D01*
X133626289Y-112424321D01*
X133424321Y-112626289D01*
X133186832Y-112784974D01*
X132922950Y-112894277D01*
X132829570Y-112912851D01*
X132642813Y-112950000D01*
X132357187Y-112950000D01*
X132170430Y-112912851D01*
X132077050Y-112894277D01*
X131813168Y-112784974D01*
X131575679Y-112626289D01*
X131373711Y-112424321D01*
X131215026Y-112186832D01*
X131105723Y-111922950D01*
X131050000Y-111642811D01*
X131050000Y-111357189D01*
X131064264Y-111285481D01*
X131105723Y-111077051D01*
X131116997Y-111049832D01*
X131215026Y-110813168D01*
X131373711Y-110575679D01*
X131575679Y-110373711D01*
X131813168Y-110215026D01*
X132077050Y-110105723D01*
X132170430Y-110087149D01*
X132357187Y-110050000D01*
X132642813Y-110050000D01*
X132829570Y-110087149D01*
X132829570Y-110087149D01*
G37*
G36*
X150829570Y-110087149D02*
X150922950Y-110105723D01*
X151186832Y-110215026D01*
X151424321Y-110373711D01*
X151626289Y-110575679D01*
X151784974Y-110813168D01*
X151883003Y-111049832D01*
X151894277Y-111077051D01*
X151935737Y-111285481D01*
X151950000Y-111357189D01*
X151950000Y-111642811D01*
X151894277Y-111922950D01*
X151784974Y-112186832D01*
X151626289Y-112424321D01*
X151424321Y-112626289D01*
X151186832Y-112784974D01*
X150922950Y-112894277D01*
X150829570Y-112912851D01*
X150642813Y-112950000D01*
X150357187Y-112950000D01*
X150170430Y-112912851D01*
X150077050Y-112894277D01*
X149813168Y-112784974D01*
X149575679Y-112626289D01*
X149373711Y-112424321D01*
X149215026Y-112186832D01*
X149105723Y-111922950D01*
X149050000Y-111642811D01*
X149050000Y-111357189D01*
X149064264Y-111285481D01*
X149105723Y-111077051D01*
X149116997Y-111049832D01*
X149215026Y-110813168D01*
X149373711Y-110575679D01*
X149575679Y-110373711D01*
X149813168Y-110215026D01*
X150077050Y-110105723D01*
X150170430Y-110087149D01*
X150357187Y-110050000D01*
X150642813Y-110050000D01*
X150829570Y-110087149D01*
X150829570Y-110087149D01*
G37*
G36*
X120816629Y-110922300D02*
X120976855Y-110970903D01*
X121124519Y-111049832D01*
X121253948Y-111156052D01*
X121360168Y-111285481D01*
X121439097Y-111433145D01*
X121487700Y-111593371D01*
X121504112Y-111760000D01*
X121487700Y-111926629D01*
X121439097Y-112086855D01*
X121360168Y-112234519D01*
X121253948Y-112363948D01*
X121124519Y-112470168D01*
X120976855Y-112549097D01*
X120816629Y-112597700D01*
X120691749Y-112610000D01*
X120608251Y-112610000D01*
X120483371Y-112597700D01*
X120323145Y-112549097D01*
X120175481Y-112470168D01*
X120046052Y-112363948D01*
X119939832Y-112234519D01*
X119860903Y-112086855D01*
X119812300Y-111926629D01*
X119795888Y-111760000D01*
X119812300Y-111593371D01*
X119860903Y-111433145D01*
X119939832Y-111285481D01*
X120046052Y-111156052D01*
X120175481Y-111049832D01*
X120323145Y-110970903D01*
X120483371Y-110922300D01*
X120608251Y-110910000D01*
X120691749Y-110910000D01*
X120816629Y-110922300D01*
X120816629Y-110922300D01*
G37*
G36*
X118276629Y-110922300D02*
X118436855Y-110970903D01*
X118584519Y-111049832D01*
X118713948Y-111156052D01*
X118820168Y-111285481D01*
X118899097Y-111433145D01*
X118947700Y-111593371D01*
X118964112Y-111760000D01*
X118947700Y-111926629D01*
X118899097Y-112086855D01*
X118820168Y-112234519D01*
X118713948Y-112363948D01*
X118584519Y-112470168D01*
X118436855Y-112549097D01*
X118276629Y-112597700D01*
X118151749Y-112610000D01*
X118068251Y-112610000D01*
X117943371Y-112597700D01*
X117783145Y-112549097D01*
X117635481Y-112470168D01*
X117506052Y-112363948D01*
X117399832Y-112234519D01*
X117320903Y-112086855D01*
X117272300Y-111926629D01*
X117255888Y-111760000D01*
X117272300Y-111593371D01*
X117320903Y-111433145D01*
X117399832Y-111285481D01*
X117506052Y-111156052D01*
X117635481Y-111049832D01*
X117783145Y-110970903D01*
X117943371Y-110922300D01*
X118068251Y-110910000D01*
X118151749Y-110910000D01*
X118276629Y-110922300D01*
X118276629Y-110922300D01*
G37*
G36*
X86530468Y-109759215D02*
X86578768Y-109768822D01*
X86715258Y-109825358D01*
X86838097Y-109907437D01*
X86942563Y-110011903D01*
X87024642Y-110134742D01*
X87081178Y-110271232D01*
X87081178Y-110271233D01*
X87110000Y-110416131D01*
X87110000Y-110563869D01*
X87090785Y-110660468D01*
X87081178Y-110708768D01*
X87024642Y-110845258D01*
X86942563Y-110968097D01*
X86838097Y-111072563D01*
X86715258Y-111154642D01*
X86578768Y-111211178D01*
X86530468Y-111220785D01*
X86433869Y-111240000D01*
X86286131Y-111240000D01*
X86189532Y-111220785D01*
X86141232Y-111211178D01*
X86004742Y-111154642D01*
X85881903Y-111072563D01*
X85777437Y-110968097D01*
X85695358Y-110845258D01*
X85638822Y-110708768D01*
X85629215Y-110660468D01*
X85610000Y-110563869D01*
X85610000Y-110416131D01*
X85638822Y-110271233D01*
X85638822Y-110271232D01*
X85695358Y-110134742D01*
X85777437Y-110011903D01*
X85881903Y-109907437D01*
X86004742Y-109825358D01*
X86141232Y-109768822D01*
X86189532Y-109759215D01*
X86286131Y-109740000D01*
X86433869Y-109740000D01*
X86530468Y-109759215D01*
X86530468Y-109759215D01*
G37*
G36*
X120816629Y-108382300D02*
X120976855Y-108430903D01*
X121124519Y-108509832D01*
X121253948Y-108616052D01*
X121360168Y-108745481D01*
X121439097Y-108893145D01*
X121487700Y-109053371D01*
X121504112Y-109220000D01*
X121487700Y-109386629D01*
X121439097Y-109546855D01*
X121360168Y-109694519D01*
X121253948Y-109823948D01*
X121124519Y-109930168D01*
X120976855Y-110009097D01*
X120816629Y-110057700D01*
X120691749Y-110070000D01*
X120608251Y-110070000D01*
X120483371Y-110057700D01*
X120323145Y-110009097D01*
X120175481Y-109930168D01*
X120046052Y-109823948D01*
X119939832Y-109694519D01*
X119860903Y-109546855D01*
X119812300Y-109386629D01*
X119795888Y-109220000D01*
X119812300Y-109053371D01*
X119860903Y-108893145D01*
X119939832Y-108745481D01*
X120046052Y-108616052D01*
X120175481Y-108509832D01*
X120323145Y-108430903D01*
X120483371Y-108382300D01*
X120608251Y-108370000D01*
X120691749Y-108370000D01*
X120816629Y-108382300D01*
X120816629Y-108382300D01*
G37*
G36*
X118276629Y-108382300D02*
X118436855Y-108430903D01*
X118584519Y-108509832D01*
X118713948Y-108616052D01*
X118820168Y-108745481D01*
X118899097Y-108893145D01*
X118947700Y-109053371D01*
X118964112Y-109220000D01*
X118947700Y-109386629D01*
X118899097Y-109546855D01*
X118820168Y-109694519D01*
X118713948Y-109823948D01*
X118584519Y-109930168D01*
X118436855Y-110009097D01*
X118276629Y-110057700D01*
X118151749Y-110070000D01*
X118068251Y-110070000D01*
X117943371Y-110057700D01*
X117783145Y-110009097D01*
X117635481Y-109930168D01*
X117506052Y-109823948D01*
X117399832Y-109694519D01*
X117320903Y-109546855D01*
X117272300Y-109386629D01*
X117255888Y-109220000D01*
X117272300Y-109053371D01*
X117320903Y-108893145D01*
X117399832Y-108745481D01*
X117506052Y-108616052D01*
X117635481Y-108509832D01*
X117783145Y-108430903D01*
X117943371Y-108382300D01*
X118068251Y-108370000D01*
X118151749Y-108370000D01*
X118276629Y-108382300D01*
X118276629Y-108382300D01*
G37*
G36*
X141771629Y-107747300D02*
X141931855Y-107795903D01*
X142079519Y-107874832D01*
X142208948Y-107981052D01*
X142315168Y-108110481D01*
X142394097Y-108258145D01*
X142442700Y-108418371D01*
X142459112Y-108585000D01*
X142442700Y-108751629D01*
X142394097Y-108911855D01*
X142315168Y-109059519D01*
X142208948Y-109188948D01*
X142079519Y-109295168D01*
X141931855Y-109374097D01*
X141771629Y-109422700D01*
X141646749Y-109435000D01*
X141563251Y-109435000D01*
X141438371Y-109422700D01*
X141278145Y-109374097D01*
X141130481Y-109295168D01*
X141001052Y-109188948D01*
X140894832Y-109059519D01*
X140815903Y-108911855D01*
X140767300Y-108751629D01*
X140750888Y-108585000D01*
X140767300Y-108418371D01*
X140815903Y-108258145D01*
X140894832Y-108110481D01*
X141001052Y-107981052D01*
X141130481Y-107874832D01*
X141278145Y-107795903D01*
X141438371Y-107747300D01*
X141563251Y-107735000D01*
X141646749Y-107735000D01*
X141771629Y-107747300D01*
X141771629Y-107747300D01*
G37*
G36*
X144311629Y-107747300D02*
X144471855Y-107795903D01*
X144619519Y-107874832D01*
X144748948Y-107981052D01*
X144855168Y-108110481D01*
X144934097Y-108258145D01*
X144982700Y-108418371D01*
X144999112Y-108585000D01*
X144982700Y-108751629D01*
X144934097Y-108911855D01*
X144855168Y-109059519D01*
X144748948Y-109188948D01*
X144619519Y-109295168D01*
X144471855Y-109374097D01*
X144311629Y-109422700D01*
X144186749Y-109435000D01*
X144103251Y-109435000D01*
X143978371Y-109422700D01*
X143818145Y-109374097D01*
X143670481Y-109295168D01*
X143541052Y-109188948D01*
X143434832Y-109059519D01*
X143355903Y-108911855D01*
X143307300Y-108751629D01*
X143290888Y-108585000D01*
X143307300Y-108418371D01*
X143355903Y-108258145D01*
X143434832Y-108110481D01*
X143541052Y-107981052D01*
X143670481Y-107874832D01*
X143818145Y-107795903D01*
X143978371Y-107747300D01*
X144103251Y-107735000D01*
X144186749Y-107735000D01*
X144311629Y-107747300D01*
X144311629Y-107747300D01*
G37*
G36*
X147535000Y-109435000D02*
X145835000Y-109435000D01*
X145835000Y-107735000D01*
X147535000Y-107735000D01*
X147535000Y-109435000D01*
X147535000Y-109435000D01*
G37*
G36*
X139231629Y-107747300D02*
X139391855Y-107795903D01*
X139539519Y-107874832D01*
X139668948Y-107981052D01*
X139775168Y-108110481D01*
X139854097Y-108258145D01*
X139902700Y-108418371D01*
X139919112Y-108585000D01*
X139902700Y-108751629D01*
X139854097Y-108911855D01*
X139775168Y-109059519D01*
X139668948Y-109188948D01*
X139539519Y-109295168D01*
X139391855Y-109374097D01*
X139231629Y-109422700D01*
X139106749Y-109435000D01*
X139023251Y-109435000D01*
X138898371Y-109422700D01*
X138738145Y-109374097D01*
X138590481Y-109295168D01*
X138461052Y-109188948D01*
X138354832Y-109059519D01*
X138275903Y-108911855D01*
X138227300Y-108751629D01*
X138210888Y-108585000D01*
X138227300Y-108418371D01*
X138275903Y-108258145D01*
X138354832Y-108110481D01*
X138461052Y-107981052D01*
X138590481Y-107874832D01*
X138738145Y-107795903D01*
X138898371Y-107747300D01*
X139023251Y-107735000D01*
X139106749Y-107735000D01*
X139231629Y-107747300D01*
X139231629Y-107747300D01*
G37*
G36*
X120816629Y-105842300D02*
X120976855Y-105890903D01*
X121124519Y-105969832D01*
X121253948Y-106076052D01*
X121360168Y-106205481D01*
X121439097Y-106353145D01*
X121487700Y-106513371D01*
X121504112Y-106680000D01*
X121487700Y-106846629D01*
X121439097Y-107006855D01*
X121360168Y-107154519D01*
X121253948Y-107283948D01*
X121124519Y-107390168D01*
X120976855Y-107469097D01*
X120816629Y-107517700D01*
X120691749Y-107530000D01*
X120608251Y-107530000D01*
X120483371Y-107517700D01*
X120323145Y-107469097D01*
X120175481Y-107390168D01*
X120046052Y-107283948D01*
X119939832Y-107154519D01*
X119860903Y-107006855D01*
X119812300Y-106846629D01*
X119795888Y-106680000D01*
X119812300Y-106513371D01*
X119860903Y-106353145D01*
X119939832Y-106205481D01*
X120046052Y-106076052D01*
X120175481Y-105969832D01*
X120323145Y-105890903D01*
X120483371Y-105842300D01*
X120608251Y-105830000D01*
X120691749Y-105830000D01*
X120816629Y-105842300D01*
X120816629Y-105842300D01*
G37*
G36*
X118276629Y-105842300D02*
X118436855Y-105890903D01*
X118584519Y-105969832D01*
X118713948Y-106076052D01*
X118820168Y-106205481D01*
X118899097Y-106353145D01*
X118947700Y-106513371D01*
X118964112Y-106680000D01*
X118947700Y-106846629D01*
X118899097Y-107006855D01*
X118820168Y-107154519D01*
X118713948Y-107283948D01*
X118584519Y-107390168D01*
X118436855Y-107469097D01*
X118276629Y-107517700D01*
X118151749Y-107530000D01*
X118068251Y-107530000D01*
X117943371Y-107517700D01*
X117783145Y-107469097D01*
X117635481Y-107390168D01*
X117506052Y-107283948D01*
X117399832Y-107154519D01*
X117320903Y-107006855D01*
X117272300Y-106846629D01*
X117255888Y-106680000D01*
X117272300Y-106513371D01*
X117320903Y-106353145D01*
X117399832Y-106205481D01*
X117506052Y-106076052D01*
X117635481Y-105969832D01*
X117783145Y-105890903D01*
X117943371Y-105842300D01*
X118068251Y-105830000D01*
X118151749Y-105830000D01*
X118276629Y-105842300D01*
X118276629Y-105842300D01*
G37*
G36*
X88665000Y-105590000D02*
X87865000Y-105590000D01*
X87865000Y-104690000D01*
X88665000Y-104690000D01*
X88665000Y-105590000D01*
X88665000Y-105590000D01*
G37*
G36*
X92210000Y-105400000D02*
X90710000Y-105400000D01*
X90710000Y-104150000D01*
X92210000Y-104150000D01*
X92210000Y-105400000D01*
X92210000Y-105400000D01*
G37*
G36*
X83320000Y-105400000D02*
X81820000Y-105400000D01*
X81820000Y-104150000D01*
X83320000Y-104150000D01*
X83320000Y-105400000D01*
X83320000Y-105400000D01*
G37*
G36*
X85820000Y-105400000D02*
X84320000Y-105400000D01*
X84320000Y-104150000D01*
X85820000Y-104150000D01*
X85820000Y-105400000D01*
X85820000Y-105400000D01*
G37*
G36*
X94710000Y-105400000D02*
X93210000Y-105400000D01*
X93210000Y-104150000D01*
X94710000Y-104150000D01*
X94710000Y-105400000D01*
X94710000Y-105400000D01*
G37*
G36*
X115736629Y-103302300D02*
X115896855Y-103350903D01*
X116044519Y-103429832D01*
X116173948Y-103536052D01*
X116280168Y-103665481D01*
X116359097Y-103813145D01*
X116407700Y-103973371D01*
X116424112Y-104140000D01*
X116407700Y-104306629D01*
X116359097Y-104466855D01*
X116280168Y-104614519D01*
X116173948Y-104743948D01*
X116044519Y-104850168D01*
X115896855Y-104929097D01*
X115736629Y-104977700D01*
X115611749Y-104990000D01*
X115528251Y-104990000D01*
X115403371Y-104977700D01*
X115243145Y-104929097D01*
X115095481Y-104850168D01*
X114966052Y-104743948D01*
X114859832Y-104614519D01*
X114780903Y-104466855D01*
X114732300Y-104306629D01*
X114715888Y-104140000D01*
X114732300Y-103973371D01*
X114780903Y-103813145D01*
X114859832Y-103665481D01*
X114966052Y-103536052D01*
X115095481Y-103429832D01*
X115243145Y-103350903D01*
X115403371Y-103302300D01*
X115528251Y-103290000D01*
X115611749Y-103290000D01*
X115736629Y-103302300D01*
X115736629Y-103302300D01*
G37*
G36*
X118960000Y-104990000D02*
X117260000Y-104990000D01*
X117260000Y-103290000D01*
X118960000Y-103290000D01*
X118960000Y-104990000D01*
X118960000Y-104990000D01*
G37*
G36*
X89615000Y-103590000D02*
X88815000Y-103590000D01*
X88815000Y-102690000D01*
X89615000Y-102690000D01*
X89615000Y-103590000D01*
X89615000Y-103590000D01*
G37*
G36*
X87715000Y-103590000D02*
X86915000Y-103590000D01*
X86915000Y-102690000D01*
X87715000Y-102690000D01*
X87715000Y-103590000D01*
X87715000Y-103590000D01*
G37*
G36*
X118276629Y-100762300D02*
X118436855Y-100810903D01*
X118584519Y-100889832D01*
X118713948Y-100996052D01*
X118820168Y-101125481D01*
X118899097Y-101273145D01*
X118947700Y-101433371D01*
X118964112Y-101600000D01*
X118947700Y-101766629D01*
X118899097Y-101926855D01*
X118820168Y-102074519D01*
X118713948Y-102203948D01*
X118584519Y-102310168D01*
X118436855Y-102389097D01*
X118276629Y-102437700D01*
X118151749Y-102450000D01*
X118068251Y-102450000D01*
X117943371Y-102437700D01*
X117783145Y-102389097D01*
X117635481Y-102310168D01*
X117506052Y-102203948D01*
X117399832Y-102074519D01*
X117320903Y-101926855D01*
X117272300Y-101766629D01*
X117255888Y-101600000D01*
X117272300Y-101433371D01*
X117320903Y-101273145D01*
X117399832Y-101125481D01*
X117506052Y-100996052D01*
X117635481Y-100889832D01*
X117783145Y-100810903D01*
X117943371Y-100762300D01*
X118068251Y-100750000D01*
X118151749Y-100750000D01*
X118276629Y-100762300D01*
X118276629Y-100762300D01*
G37*
G36*
X115736629Y-100762300D02*
X115896855Y-100810903D01*
X116044519Y-100889832D01*
X116173948Y-100996052D01*
X116280168Y-101125481D01*
X116359097Y-101273145D01*
X116407700Y-101433371D01*
X116424112Y-101600000D01*
X116407700Y-101766629D01*
X116359097Y-101926855D01*
X116280168Y-102074519D01*
X116173948Y-102203948D01*
X116044519Y-102310168D01*
X115896855Y-102389097D01*
X115736629Y-102437700D01*
X115611749Y-102450000D01*
X115528251Y-102450000D01*
X115403371Y-102437700D01*
X115243145Y-102389097D01*
X115095481Y-102310168D01*
X114966052Y-102203948D01*
X114859832Y-102074519D01*
X114780903Y-101926855D01*
X114732300Y-101766629D01*
X114715888Y-101600000D01*
X114732300Y-101433371D01*
X114780903Y-101273145D01*
X114859832Y-101125481D01*
X114966052Y-100996052D01*
X115095481Y-100889832D01*
X115243145Y-100810903D01*
X115403371Y-100762300D01*
X115528251Y-100750000D01*
X115611749Y-100750000D01*
X115736629Y-100762300D01*
X115736629Y-100762300D01*
G37*
G36*
X120795554Y-100762300D02*
X120897937Y-100782665D01*
X121052626Y-100846739D01*
X121191843Y-100939761D01*
X121310239Y-101058157D01*
X121403261Y-101197374D01*
X121467335Y-101352063D01*
X121500000Y-101516283D01*
X121500000Y-101683717D01*
X121467335Y-101847937D01*
X121403261Y-102002626D01*
X121310239Y-102141843D01*
X121191843Y-102260239D01*
X121052626Y-102353261D01*
X120897937Y-102417335D01*
X120815827Y-102433667D01*
X120733718Y-102450000D01*
X120566282Y-102450000D01*
X120484173Y-102433667D01*
X120402063Y-102417335D01*
X120247374Y-102353261D01*
X120108157Y-102260239D01*
X119989761Y-102141843D01*
X119896739Y-102002626D01*
X119832665Y-101847937D01*
X119800000Y-101683717D01*
X119800000Y-101516283D01*
X119832665Y-101352063D01*
X119896739Y-101197374D01*
X119989761Y-101058157D01*
X120108157Y-100939761D01*
X120247374Y-100846739D01*
X120402063Y-100782665D01*
X120504446Y-100762300D01*
X120566282Y-100750000D01*
X120733718Y-100750000D01*
X120795554Y-100762300D01*
X120795554Y-100762300D01*
G37*
G36*
X88976890Y-100355940D02*
X89099732Y-100406823D01*
X89099734Y-100406824D01*
X89210287Y-100480693D01*
X89304307Y-100574713D01*
X89378177Y-100685268D01*
X89429060Y-100808110D01*
X89455000Y-100938518D01*
X89455000Y-101071482D01*
X89429060Y-101201890D01*
X89399545Y-101273145D01*
X89378176Y-101324734D01*
X89304307Y-101435287D01*
X89210287Y-101529307D01*
X89099734Y-101603176D01*
X89099733Y-101603177D01*
X89099732Y-101603177D01*
X88976890Y-101654060D01*
X88846482Y-101680000D01*
X88713518Y-101680000D01*
X88583110Y-101654060D01*
X88460268Y-101603177D01*
X88460267Y-101603177D01*
X88460266Y-101603176D01*
X88349713Y-101529307D01*
X88255693Y-101435287D01*
X88181824Y-101324734D01*
X88160455Y-101273145D01*
X88130940Y-101201890D01*
X88105000Y-101071482D01*
X88105000Y-100938518D01*
X88130940Y-100808110D01*
X88181823Y-100685268D01*
X88255693Y-100574713D01*
X88349713Y-100480693D01*
X88460266Y-100406824D01*
X88460268Y-100406823D01*
X88583110Y-100355940D01*
X88713518Y-100330000D01*
X88846482Y-100330000D01*
X88976890Y-100355940D01*
X88976890Y-100355940D01*
G37*
G36*
X90976890Y-100355940D02*
X91099732Y-100406823D01*
X91099734Y-100406824D01*
X91210287Y-100480693D01*
X91304307Y-100574713D01*
X91378177Y-100685268D01*
X91429060Y-100808110D01*
X91455000Y-100938518D01*
X91455000Y-101071482D01*
X91429060Y-101201890D01*
X91399545Y-101273145D01*
X91378176Y-101324734D01*
X91304307Y-101435287D01*
X91210287Y-101529307D01*
X91099734Y-101603176D01*
X91099733Y-101603177D01*
X91099732Y-101603177D01*
X90976890Y-101654060D01*
X90846482Y-101680000D01*
X90713518Y-101680000D01*
X90583110Y-101654060D01*
X90460268Y-101603177D01*
X90460267Y-101603177D01*
X90460266Y-101603176D01*
X90349713Y-101529307D01*
X90255693Y-101435287D01*
X90181824Y-101324734D01*
X90160455Y-101273145D01*
X90130940Y-101201890D01*
X90105000Y-101071482D01*
X90105000Y-100938518D01*
X90130940Y-100808110D01*
X90181823Y-100685268D01*
X90255693Y-100574713D01*
X90349713Y-100480693D01*
X90460266Y-100406824D01*
X90460268Y-100406823D01*
X90583110Y-100355940D01*
X90713518Y-100330000D01*
X90846482Y-100330000D01*
X90976890Y-100355940D01*
X90976890Y-100355940D01*
G37*
G36*
X86976890Y-100355940D02*
X87099732Y-100406823D01*
X87099734Y-100406824D01*
X87210287Y-100480693D01*
X87304307Y-100574713D01*
X87378177Y-100685268D01*
X87429060Y-100808110D01*
X87455000Y-100938518D01*
X87455000Y-101071482D01*
X87429060Y-101201890D01*
X87399545Y-101273145D01*
X87378176Y-101324734D01*
X87304307Y-101435287D01*
X87210287Y-101529307D01*
X87099734Y-101603176D01*
X87099733Y-101603177D01*
X87099732Y-101603177D01*
X86976890Y-101654060D01*
X86846482Y-101680000D01*
X86713518Y-101680000D01*
X86583110Y-101654060D01*
X86460268Y-101603177D01*
X86460267Y-101603177D01*
X86460266Y-101603176D01*
X86349713Y-101529307D01*
X86255693Y-101435287D01*
X86181824Y-101324734D01*
X86160455Y-101273145D01*
X86130940Y-101201890D01*
X86105000Y-101071482D01*
X86105000Y-100938518D01*
X86130940Y-100808110D01*
X86181823Y-100685268D01*
X86255693Y-100574713D01*
X86349713Y-100480693D01*
X86460266Y-100406824D01*
X86460268Y-100406823D01*
X86583110Y-100355940D01*
X86713518Y-100330000D01*
X86846482Y-100330000D01*
X86976890Y-100355940D01*
X86976890Y-100355940D01*
G37*
G36*
X82976890Y-100355940D02*
X83099732Y-100406823D01*
X83099734Y-100406824D01*
X83210287Y-100480693D01*
X83304307Y-100574713D01*
X83378177Y-100685268D01*
X83429060Y-100808110D01*
X83455000Y-100938518D01*
X83455000Y-101071482D01*
X83429060Y-101201890D01*
X83399545Y-101273145D01*
X83378176Y-101324734D01*
X83304307Y-101435287D01*
X83210287Y-101529307D01*
X83099734Y-101603176D01*
X83099733Y-101603177D01*
X83099732Y-101603177D01*
X82976890Y-101654060D01*
X82846482Y-101680000D01*
X82713518Y-101680000D01*
X82583110Y-101654060D01*
X82460268Y-101603177D01*
X82460267Y-101603177D01*
X82460266Y-101603176D01*
X82349713Y-101529307D01*
X82255693Y-101435287D01*
X82181824Y-101324734D01*
X82160455Y-101273145D01*
X82130940Y-101201890D01*
X82105000Y-101071482D01*
X82105000Y-100938518D01*
X82130940Y-100808110D01*
X82181823Y-100685268D01*
X82255693Y-100574713D01*
X82349713Y-100480693D01*
X82460266Y-100406824D01*
X82460268Y-100406823D01*
X82583110Y-100355940D01*
X82713518Y-100330000D01*
X82846482Y-100330000D01*
X82976890Y-100355940D01*
X82976890Y-100355940D01*
G37*
G36*
X94976890Y-100355940D02*
X95099732Y-100406823D01*
X95099734Y-100406824D01*
X95210287Y-100480693D01*
X95304307Y-100574713D01*
X95378177Y-100685268D01*
X95429060Y-100808110D01*
X95455000Y-100938518D01*
X95455000Y-101071482D01*
X95429060Y-101201890D01*
X95399545Y-101273145D01*
X95378176Y-101324734D01*
X95304307Y-101435287D01*
X95210287Y-101529307D01*
X95099734Y-101603176D01*
X95099733Y-101603177D01*
X95099732Y-101603177D01*
X94976890Y-101654060D01*
X94846482Y-101680000D01*
X94713518Y-101680000D01*
X94583110Y-101654060D01*
X94460268Y-101603177D01*
X94460267Y-101603177D01*
X94460266Y-101603176D01*
X94349713Y-101529307D01*
X94255693Y-101435287D01*
X94181824Y-101324734D01*
X94160455Y-101273145D01*
X94130940Y-101201890D01*
X94105000Y-101071482D01*
X94105000Y-100938518D01*
X94130940Y-100808110D01*
X94181823Y-100685268D01*
X94255693Y-100574713D01*
X94349713Y-100480693D01*
X94460266Y-100406824D01*
X94460268Y-100406823D01*
X94583110Y-100355940D01*
X94713518Y-100330000D01*
X94846482Y-100330000D01*
X94976890Y-100355940D01*
X94976890Y-100355940D01*
G37*
G36*
X96976890Y-100355940D02*
X97099732Y-100406823D01*
X97099734Y-100406824D01*
X97210287Y-100480693D01*
X97304307Y-100574713D01*
X97378177Y-100685268D01*
X97429060Y-100808110D01*
X97455000Y-100938518D01*
X97455000Y-101071482D01*
X97429060Y-101201890D01*
X97399545Y-101273145D01*
X97378176Y-101324734D01*
X97304307Y-101435287D01*
X97210287Y-101529307D01*
X97099734Y-101603176D01*
X97099733Y-101603177D01*
X97099732Y-101603177D01*
X96976890Y-101654060D01*
X96846482Y-101680000D01*
X96713518Y-101680000D01*
X96583110Y-101654060D01*
X96460268Y-101603177D01*
X96460267Y-101603177D01*
X96460266Y-101603176D01*
X96349713Y-101529307D01*
X96255693Y-101435287D01*
X96181824Y-101324734D01*
X96160455Y-101273145D01*
X96130940Y-101201890D01*
X96105000Y-101071482D01*
X96105000Y-100938518D01*
X96130940Y-100808110D01*
X96181823Y-100685268D01*
X96255693Y-100574713D01*
X96349713Y-100480693D01*
X96460266Y-100406824D01*
X96460268Y-100406823D01*
X96583110Y-100355940D01*
X96713518Y-100330000D01*
X96846482Y-100330000D01*
X96976890Y-100355940D01*
X96976890Y-100355940D01*
G37*
G36*
X84976890Y-100355940D02*
X85099732Y-100406823D01*
X85099734Y-100406824D01*
X85210287Y-100480693D01*
X85304307Y-100574713D01*
X85378177Y-100685268D01*
X85429060Y-100808110D01*
X85455000Y-100938518D01*
X85455000Y-101071482D01*
X85429060Y-101201890D01*
X85399545Y-101273145D01*
X85378176Y-101324734D01*
X85304307Y-101435287D01*
X85210287Y-101529307D01*
X85099734Y-101603176D01*
X85099733Y-101603177D01*
X85099732Y-101603177D01*
X84976890Y-101654060D01*
X84846482Y-101680000D01*
X84713518Y-101680000D01*
X84583110Y-101654060D01*
X84460268Y-101603177D01*
X84460267Y-101603177D01*
X84460266Y-101603176D01*
X84349713Y-101529307D01*
X84255693Y-101435287D01*
X84181824Y-101324734D01*
X84160455Y-101273145D01*
X84130940Y-101201890D01*
X84105000Y-101071482D01*
X84105000Y-100938518D01*
X84130940Y-100808110D01*
X84181823Y-100685268D01*
X84255693Y-100574713D01*
X84349713Y-100480693D01*
X84460266Y-100406824D01*
X84460268Y-100406823D01*
X84583110Y-100355940D01*
X84713518Y-100330000D01*
X84846482Y-100330000D01*
X84976890Y-100355940D01*
X84976890Y-100355940D01*
G37*
G36*
X115736629Y-98222300D02*
X115896855Y-98270903D01*
X116044519Y-98349832D01*
X116173948Y-98456052D01*
X116280168Y-98585481D01*
X116359097Y-98733145D01*
X116407700Y-98893371D01*
X116424112Y-99060000D01*
X116407700Y-99226629D01*
X116359097Y-99386855D01*
X116280168Y-99534519D01*
X116173948Y-99663948D01*
X116044519Y-99770168D01*
X115896855Y-99849097D01*
X115736629Y-99897700D01*
X115611749Y-99910000D01*
X115528251Y-99910000D01*
X115403371Y-99897700D01*
X115243145Y-99849097D01*
X115095481Y-99770168D01*
X114966052Y-99663948D01*
X114859832Y-99534519D01*
X114780903Y-99386855D01*
X114732300Y-99226629D01*
X114715888Y-99060000D01*
X114732300Y-98893371D01*
X114780903Y-98733145D01*
X114859832Y-98585481D01*
X114966052Y-98456052D01*
X115095481Y-98349832D01*
X115243145Y-98270903D01*
X115403371Y-98222300D01*
X115528251Y-98210000D01*
X115611749Y-98210000D01*
X115736629Y-98222300D01*
X115736629Y-98222300D01*
G37*
G36*
X118276629Y-98222300D02*
X118436855Y-98270903D01*
X118584519Y-98349832D01*
X118713948Y-98456052D01*
X118820168Y-98585481D01*
X118899097Y-98733145D01*
X118947700Y-98893371D01*
X118964112Y-99060000D01*
X118947700Y-99226629D01*
X118899097Y-99386855D01*
X118820168Y-99534519D01*
X118713948Y-99663948D01*
X118584519Y-99770168D01*
X118436855Y-99849097D01*
X118276629Y-99897700D01*
X118151749Y-99910000D01*
X118068251Y-99910000D01*
X117943371Y-99897700D01*
X117783145Y-99849097D01*
X117635481Y-99770168D01*
X117506052Y-99663948D01*
X117399832Y-99534519D01*
X117320903Y-99386855D01*
X117272300Y-99226629D01*
X117255888Y-99060000D01*
X117272300Y-98893371D01*
X117320903Y-98733145D01*
X117399832Y-98585481D01*
X117506052Y-98456052D01*
X117635481Y-98349832D01*
X117783145Y-98270903D01*
X117943371Y-98222300D01*
X118068251Y-98210000D01*
X118151749Y-98210000D01*
X118276629Y-98222300D01*
X118276629Y-98222300D01*
G37*
G36*
X120816629Y-98222300D02*
X120976855Y-98270903D01*
X121124519Y-98349832D01*
X121253948Y-98456052D01*
X121360168Y-98585481D01*
X121439097Y-98733145D01*
X121487700Y-98893371D01*
X121504112Y-99060000D01*
X121487700Y-99226629D01*
X121439097Y-99386855D01*
X121360168Y-99534519D01*
X121253948Y-99663948D01*
X121124519Y-99770168D01*
X120976855Y-99849097D01*
X120816629Y-99897700D01*
X120691749Y-99910000D01*
X120608251Y-99910000D01*
X120483371Y-99897700D01*
X120323145Y-99849097D01*
X120175481Y-99770168D01*
X120046052Y-99663948D01*
X119939832Y-99534519D01*
X119860903Y-99386855D01*
X119812300Y-99226629D01*
X119795888Y-99060000D01*
X119812300Y-98893371D01*
X119860903Y-98733145D01*
X119939832Y-98585481D01*
X120046052Y-98456052D01*
X120175481Y-98349832D01*
X120323145Y-98270903D01*
X120483371Y-98222300D01*
X120608251Y-98210000D01*
X120691749Y-98210000D01*
X120816629Y-98222300D01*
X120816629Y-98222300D01*
G37*
G36*
X85715000Y-99155000D02*
X84465000Y-99155000D01*
X84465000Y-97655000D01*
X85715000Y-97655000D01*
X85715000Y-99155000D01*
X85715000Y-99155000D01*
G37*
G36*
X83175000Y-99155000D02*
X81925000Y-99155000D01*
X81925000Y-97655000D01*
X83175000Y-97655000D01*
X83175000Y-99155000D01*
X83175000Y-99155000D01*
G37*
G36*
X100566890Y-96910940D02*
X100689732Y-96961823D01*
X100689734Y-96961824D01*
X100800287Y-97035693D01*
X100894307Y-97129713D01*
X100961429Y-97230168D01*
X100968177Y-97240268D01*
X101019060Y-97363110D01*
X101045000Y-97493518D01*
X101045000Y-97626481D01*
X101019060Y-97756889D01*
X100968176Y-97879734D01*
X100894307Y-97990287D01*
X100800287Y-98084307D01*
X100689734Y-98158176D01*
X100689733Y-98158177D01*
X100689732Y-98158177D01*
X100566890Y-98209060D01*
X100436482Y-98235000D01*
X100303518Y-98235000D01*
X100173110Y-98209060D01*
X100050268Y-98158177D01*
X100050267Y-98158177D01*
X100050266Y-98158176D01*
X99939713Y-98084307D01*
X99845693Y-97990287D01*
X99771824Y-97879734D01*
X99720940Y-97756889D01*
X99695000Y-97626481D01*
X99695000Y-97493518D01*
X99720940Y-97363110D01*
X99771823Y-97240268D01*
X99778572Y-97230168D01*
X99845693Y-97129713D01*
X99939713Y-97035693D01*
X100050266Y-96961824D01*
X100050268Y-96961823D01*
X100173110Y-96910940D01*
X100303518Y-96885000D01*
X100436482Y-96885000D01*
X100566890Y-96910940D01*
X100566890Y-96910940D01*
G37*
G36*
X118276629Y-95682300D02*
X118436855Y-95730903D01*
X118584519Y-95809832D01*
X118713948Y-95916052D01*
X118820168Y-96045481D01*
X118899097Y-96193145D01*
X118947700Y-96353371D01*
X118964112Y-96520000D01*
X118947700Y-96686629D01*
X118899097Y-96846855D01*
X118820168Y-96994519D01*
X118713948Y-97123948D01*
X118584519Y-97230168D01*
X118436855Y-97309097D01*
X118276629Y-97357700D01*
X118151749Y-97370000D01*
X118068251Y-97370000D01*
X117943371Y-97357700D01*
X117783145Y-97309097D01*
X117635481Y-97230168D01*
X117506052Y-97123948D01*
X117399832Y-96994519D01*
X117320903Y-96846855D01*
X117272300Y-96686629D01*
X117255888Y-96520000D01*
X117272300Y-96353371D01*
X117320903Y-96193145D01*
X117399832Y-96045481D01*
X117506052Y-95916052D01*
X117635481Y-95809832D01*
X117783145Y-95730903D01*
X117943371Y-95682300D01*
X118068251Y-95670000D01*
X118151749Y-95670000D01*
X118276629Y-95682300D01*
X118276629Y-95682300D01*
G37*
G36*
X115736629Y-95682300D02*
X115896855Y-95730903D01*
X116044519Y-95809832D01*
X116173948Y-95916052D01*
X116280168Y-96045481D01*
X116359097Y-96193145D01*
X116407700Y-96353371D01*
X116424112Y-96520000D01*
X116407700Y-96686629D01*
X116359097Y-96846855D01*
X116280168Y-96994519D01*
X116173948Y-97123948D01*
X116044519Y-97230168D01*
X115896855Y-97309097D01*
X115736629Y-97357700D01*
X115611749Y-97370000D01*
X115528251Y-97370000D01*
X115403371Y-97357700D01*
X115243145Y-97309097D01*
X115095481Y-97230168D01*
X114966052Y-97123948D01*
X114859832Y-96994519D01*
X114780903Y-96846855D01*
X114732300Y-96686629D01*
X114715888Y-96520000D01*
X114732300Y-96353371D01*
X114780903Y-96193145D01*
X114859832Y-96045481D01*
X114966052Y-95916052D01*
X115095481Y-95809832D01*
X115243145Y-95730903D01*
X115403371Y-95682300D01*
X115528251Y-95670000D01*
X115611749Y-95670000D01*
X115736629Y-95682300D01*
X115736629Y-95682300D01*
G37*
G36*
X95875000Y-97250000D02*
X94625000Y-97250000D01*
X94625000Y-95750000D01*
X95875000Y-95750000D01*
X95875000Y-97250000D01*
X95875000Y-97250000D01*
G37*
G36*
X85715000Y-96655000D02*
X84465000Y-96655000D01*
X84465000Y-95155000D01*
X85715000Y-95155000D01*
X85715000Y-96655000D01*
X85715000Y-96655000D01*
G37*
G36*
X83175000Y-96655000D02*
X81925000Y-96655000D01*
X81925000Y-95155000D01*
X83175000Y-95155000D01*
X83175000Y-96655000D01*
X83175000Y-96655000D01*
G37*
G36*
X100566890Y-94910940D02*
X100689732Y-94961823D01*
X100689734Y-94961824D01*
X100800287Y-95035693D01*
X100894307Y-95129713D01*
X100968177Y-95240268D01*
X101019060Y-95363110D01*
X101045000Y-95493518D01*
X101045000Y-95626482D01*
X101019060Y-95756890D01*
X100968177Y-95879732D01*
X100968176Y-95879734D01*
X100894307Y-95990287D01*
X100800287Y-96084307D01*
X100689734Y-96158176D01*
X100689733Y-96158177D01*
X100689732Y-96158177D01*
X100566890Y-96209060D01*
X100436482Y-96235000D01*
X100303518Y-96235000D01*
X100173110Y-96209060D01*
X100050268Y-96158177D01*
X100050267Y-96158177D01*
X100050266Y-96158176D01*
X99939713Y-96084307D01*
X99845693Y-95990287D01*
X99771824Y-95879734D01*
X99771823Y-95879732D01*
X99720940Y-95756890D01*
X99695000Y-95626482D01*
X99695000Y-95493518D01*
X99720940Y-95363110D01*
X99771823Y-95240268D01*
X99845693Y-95129713D01*
X99939713Y-95035693D01*
X100050266Y-94961824D01*
X100050268Y-94961823D01*
X100173110Y-94910940D01*
X100303518Y-94885000D01*
X100436482Y-94885000D01*
X100566890Y-94910940D01*
X100566890Y-94910940D01*
G37*
G36*
X118276629Y-93142300D02*
X118436855Y-93190903D01*
X118584519Y-93269832D01*
X118713948Y-93376052D01*
X118820168Y-93505481D01*
X118899097Y-93653145D01*
X118947700Y-93813371D01*
X118964112Y-93980000D01*
X118947700Y-94146629D01*
X118899097Y-94306855D01*
X118820168Y-94454519D01*
X118713948Y-94583948D01*
X118584519Y-94690168D01*
X118436855Y-94769097D01*
X118276629Y-94817700D01*
X118151749Y-94830000D01*
X118068251Y-94830000D01*
X117943371Y-94817700D01*
X117783145Y-94769097D01*
X117635481Y-94690168D01*
X117506052Y-94583948D01*
X117399832Y-94454519D01*
X117320903Y-94306855D01*
X117272300Y-94146629D01*
X117255888Y-93980000D01*
X117272300Y-93813371D01*
X117320903Y-93653145D01*
X117399832Y-93505481D01*
X117506052Y-93376052D01*
X117635481Y-93269832D01*
X117783145Y-93190903D01*
X117943371Y-93142300D01*
X118068251Y-93130000D01*
X118151749Y-93130000D01*
X118276629Y-93142300D01*
X118276629Y-93142300D01*
G37*
G36*
X115736629Y-93142300D02*
X115896855Y-93190903D01*
X116044519Y-93269832D01*
X116173948Y-93376052D01*
X116280168Y-93505481D01*
X116359097Y-93653145D01*
X116407700Y-93813371D01*
X116424112Y-93980000D01*
X116407700Y-94146629D01*
X116359097Y-94306855D01*
X116280168Y-94454519D01*
X116173948Y-94583948D01*
X116044519Y-94690168D01*
X115896855Y-94769097D01*
X115736629Y-94817700D01*
X115611749Y-94830000D01*
X115528251Y-94830000D01*
X115403371Y-94817700D01*
X115243145Y-94769097D01*
X115095481Y-94690168D01*
X114966052Y-94583948D01*
X114859832Y-94454519D01*
X114780903Y-94306855D01*
X114732300Y-94146629D01*
X114715888Y-93980000D01*
X114732300Y-93813371D01*
X114780903Y-93653145D01*
X114859832Y-93505481D01*
X114966052Y-93376052D01*
X115095481Y-93269832D01*
X115243145Y-93190903D01*
X115403371Y-93142300D01*
X115528251Y-93130000D01*
X115611749Y-93130000D01*
X115736629Y-93142300D01*
X115736629Y-93142300D01*
G37*
G36*
X95875000Y-94750000D02*
X94625000Y-94750000D01*
X94625000Y-93250000D01*
X95875000Y-93250000D01*
X95875000Y-94750000D01*
X95875000Y-94750000D01*
G37*
G36*
X100566890Y-92910940D02*
X100689732Y-92961823D01*
X100689734Y-92961824D01*
X100800287Y-93035693D01*
X100894307Y-93129713D01*
X100968177Y-93240268D01*
X101019060Y-93363110D01*
X101045000Y-93493518D01*
X101045000Y-93626482D01*
X101019060Y-93756890D01*
X100995664Y-93813372D01*
X100968176Y-93879734D01*
X100894307Y-93990287D01*
X100800287Y-94084307D01*
X100689734Y-94158176D01*
X100689733Y-94158177D01*
X100689732Y-94158177D01*
X100566890Y-94209060D01*
X100436482Y-94235000D01*
X100303518Y-94235000D01*
X100173110Y-94209060D01*
X100050268Y-94158177D01*
X100050267Y-94158177D01*
X100050266Y-94158176D01*
X99939713Y-94084307D01*
X99845693Y-93990287D01*
X99771824Y-93879734D01*
X99744336Y-93813372D01*
X99720940Y-93756890D01*
X99695000Y-93626482D01*
X99695000Y-93493518D01*
X99720940Y-93363110D01*
X99771823Y-93240268D01*
X99845693Y-93129713D01*
X99939713Y-93035693D01*
X100050266Y-92961824D01*
X100050268Y-92961823D01*
X100173110Y-92910940D01*
X100303518Y-92885000D01*
X100436482Y-92885000D01*
X100566890Y-92910940D01*
X100566890Y-92910940D01*
G37*
G36*
X115736629Y-90602300D02*
X115896855Y-90650903D01*
X116044519Y-90729832D01*
X116173948Y-90836052D01*
X116280168Y-90965481D01*
X116359097Y-91113145D01*
X116407700Y-91273371D01*
X116424112Y-91440000D01*
X116407700Y-91606629D01*
X116359097Y-91766855D01*
X116280168Y-91914519D01*
X116173948Y-92043948D01*
X116044519Y-92150168D01*
X115896855Y-92229097D01*
X115736629Y-92277700D01*
X115611749Y-92290000D01*
X115528251Y-92290000D01*
X115403371Y-92277700D01*
X115243145Y-92229097D01*
X115095481Y-92150168D01*
X114966052Y-92043948D01*
X114859832Y-91914519D01*
X114780903Y-91766855D01*
X114732300Y-91606629D01*
X114715888Y-91440000D01*
X114732300Y-91273371D01*
X114780903Y-91113145D01*
X114859832Y-90965481D01*
X114966052Y-90836052D01*
X115095481Y-90729832D01*
X115243145Y-90650903D01*
X115403371Y-90602300D01*
X115528251Y-90590000D01*
X115611749Y-90590000D01*
X115736629Y-90602300D01*
X115736629Y-90602300D01*
G37*
G36*
X118276629Y-90602300D02*
X118436855Y-90650903D01*
X118584519Y-90729832D01*
X118713948Y-90836052D01*
X118820168Y-90965481D01*
X118899097Y-91113145D01*
X118947700Y-91273371D01*
X118964112Y-91440000D01*
X118947700Y-91606629D01*
X118899097Y-91766855D01*
X118820168Y-91914519D01*
X118713948Y-92043948D01*
X118584519Y-92150168D01*
X118436855Y-92229097D01*
X118276629Y-92277700D01*
X118151749Y-92290000D01*
X118068251Y-92290000D01*
X117943371Y-92277700D01*
X117783145Y-92229097D01*
X117635481Y-92150168D01*
X117506052Y-92043948D01*
X117399832Y-91914519D01*
X117320903Y-91766855D01*
X117272300Y-91606629D01*
X117255888Y-91440000D01*
X117272300Y-91273371D01*
X117320903Y-91113145D01*
X117399832Y-90965481D01*
X117506052Y-90836052D01*
X117635481Y-90729832D01*
X117783145Y-90650903D01*
X117943371Y-90602300D01*
X118068251Y-90590000D01*
X118151749Y-90590000D01*
X118276629Y-90602300D01*
X118276629Y-90602300D01*
G37*
G36*
X100566890Y-90910940D02*
X100689732Y-90961823D01*
X100689734Y-90961824D01*
X100695207Y-90965481D01*
X100800287Y-91035693D01*
X100894307Y-91129713D01*
X100968177Y-91240268D01*
X101019060Y-91363110D01*
X101045000Y-91493518D01*
X101045000Y-91626481D01*
X101019060Y-91756889D01*
X100968176Y-91879734D01*
X100894307Y-91990287D01*
X100800287Y-92084307D01*
X100689734Y-92158176D01*
X100689733Y-92158177D01*
X100689732Y-92158177D01*
X100566890Y-92209060D01*
X100436482Y-92235000D01*
X100303518Y-92235000D01*
X100173110Y-92209060D01*
X100050268Y-92158177D01*
X100050267Y-92158177D01*
X100050266Y-92158176D01*
X99939713Y-92084307D01*
X99845693Y-91990287D01*
X99771824Y-91879734D01*
X99720940Y-91756889D01*
X99695000Y-91626481D01*
X99695000Y-91493518D01*
X99720940Y-91363110D01*
X99771823Y-91240268D01*
X99845693Y-91129713D01*
X99939713Y-91035693D01*
X100044793Y-90965481D01*
X100050266Y-90961824D01*
X100050268Y-90961823D01*
X100173110Y-90910940D01*
X100303518Y-90885000D01*
X100436482Y-90885000D01*
X100566890Y-90910940D01*
X100566890Y-90910940D01*
G37*
G36*
X94480000Y-92050000D02*
X93030000Y-92050000D01*
X93030000Y-91600000D01*
X94480000Y-91600000D01*
X94480000Y-92050000D01*
X94480000Y-92050000D01*
G37*
G36*
X88580000Y-92050000D02*
X87130000Y-92050000D01*
X87130000Y-91600000D01*
X88580000Y-91600000D01*
X88580000Y-92050000D01*
X88580000Y-92050000D01*
G37*
G36*
X85715000Y-91535000D02*
X84465000Y-91535000D01*
X84465000Y-90035000D01*
X85715000Y-90035000D01*
X85715000Y-91535000D01*
X85715000Y-91535000D01*
G37*
G36*
X94480000Y-91400000D02*
X93030000Y-91400000D01*
X93030000Y-90950000D01*
X94480000Y-90950000D01*
X94480000Y-91400000D01*
X94480000Y-91400000D01*
G37*
G36*
X88580000Y-91400000D02*
X87130000Y-91400000D01*
X87130000Y-90950000D01*
X88580000Y-90950000D01*
X88580000Y-91400000D01*
X88580000Y-91400000D01*
G37*
G36*
X88580000Y-90750000D02*
X87130000Y-90750000D01*
X87130000Y-90300000D01*
X88580000Y-90300000D01*
X88580000Y-90750000D01*
X88580000Y-90750000D01*
G37*
G36*
X94480000Y-90750000D02*
X93030000Y-90750000D01*
X93030000Y-90300000D01*
X94480000Y-90300000D01*
X94480000Y-90750000D01*
X94480000Y-90750000D01*
G37*
G36*
X100566890Y-88910940D02*
X100689732Y-88961823D01*
X100689734Y-88961824D01*
X100800287Y-89035693D01*
X100894307Y-89129713D01*
X100959216Y-89226856D01*
X100968177Y-89240268D01*
X101019060Y-89363110D01*
X101045000Y-89493518D01*
X101045000Y-89626482D01*
X101019060Y-89756889D01*
X100968176Y-89879734D01*
X100894307Y-89990287D01*
X100800287Y-90084307D01*
X100689734Y-90158176D01*
X100689733Y-90158177D01*
X100689732Y-90158177D01*
X100566890Y-90209060D01*
X100436482Y-90235000D01*
X100303518Y-90235000D01*
X100173110Y-90209060D01*
X100050268Y-90158177D01*
X100050267Y-90158177D01*
X100050266Y-90158176D01*
X99939713Y-90084307D01*
X99845693Y-89990287D01*
X99771824Y-89879734D01*
X99720940Y-89756889D01*
X99695000Y-89626482D01*
X99695000Y-89493518D01*
X99720940Y-89363110D01*
X99771823Y-89240268D01*
X99780785Y-89226856D01*
X99845693Y-89129713D01*
X99939713Y-89035693D01*
X100050266Y-88961824D01*
X100050268Y-88961823D01*
X100173110Y-88910940D01*
X100303518Y-88885000D01*
X100436482Y-88885000D01*
X100566890Y-88910940D01*
X100566890Y-88910940D01*
G37*
G36*
X94480000Y-90100000D02*
X93030000Y-90100000D01*
X93030000Y-89650000D01*
X94480000Y-89650000D01*
X94480000Y-90100000D01*
X94480000Y-90100000D01*
G37*
G36*
X88580000Y-90100000D02*
X87130000Y-90100000D01*
X87130000Y-89650000D01*
X88580000Y-89650000D01*
X88580000Y-90100000D01*
X88580000Y-90100000D01*
G37*
G36*
X115736629Y-88062300D02*
X115896855Y-88110903D01*
X116044519Y-88189832D01*
X116173948Y-88296052D01*
X116280168Y-88425481D01*
X116359097Y-88573145D01*
X116407700Y-88733371D01*
X116424112Y-88900000D01*
X116407700Y-89066629D01*
X116359097Y-89226855D01*
X116280168Y-89374519D01*
X116173948Y-89503948D01*
X116044519Y-89610168D01*
X115896855Y-89689097D01*
X115736629Y-89737700D01*
X115611749Y-89750000D01*
X115528251Y-89750000D01*
X115403371Y-89737700D01*
X115243145Y-89689097D01*
X115095481Y-89610168D01*
X114966052Y-89503948D01*
X114859832Y-89374519D01*
X114780903Y-89226855D01*
X114732300Y-89066629D01*
X114715888Y-88900000D01*
X114732300Y-88733371D01*
X114780903Y-88573145D01*
X114859832Y-88425481D01*
X114966052Y-88296052D01*
X115095481Y-88189832D01*
X115243145Y-88110903D01*
X115403371Y-88062300D01*
X115528251Y-88050000D01*
X115611749Y-88050000D01*
X115736629Y-88062300D01*
X115736629Y-88062300D01*
G37*
G36*
X118276629Y-88062300D02*
X118436855Y-88110903D01*
X118584519Y-88189832D01*
X118713948Y-88296052D01*
X118820168Y-88425481D01*
X118899097Y-88573145D01*
X118947700Y-88733371D01*
X118964112Y-88900000D01*
X118947700Y-89066629D01*
X118899097Y-89226855D01*
X118820168Y-89374519D01*
X118713948Y-89503948D01*
X118584519Y-89610168D01*
X118436855Y-89689097D01*
X118276629Y-89737700D01*
X118151749Y-89750000D01*
X118068251Y-89750000D01*
X117943371Y-89737700D01*
X117783145Y-89689097D01*
X117635481Y-89610168D01*
X117506052Y-89503948D01*
X117399832Y-89374519D01*
X117320903Y-89226855D01*
X117272300Y-89066629D01*
X117255888Y-88900000D01*
X117272300Y-88733371D01*
X117320903Y-88573145D01*
X117399832Y-88425481D01*
X117506052Y-88296052D01*
X117635481Y-88189832D01*
X117783145Y-88110903D01*
X117943371Y-88062300D01*
X118068251Y-88050000D01*
X118151749Y-88050000D01*
X118276629Y-88062300D01*
X118276629Y-88062300D01*
G37*
G36*
X94480000Y-89450000D02*
X93030000Y-89450000D01*
X93030000Y-89000000D01*
X94480000Y-89000000D01*
X94480000Y-89450000D01*
X94480000Y-89450000D01*
G37*
G36*
X88580000Y-89450000D02*
X87130000Y-89450000D01*
X87130000Y-89000000D01*
X88580000Y-89000000D01*
X88580000Y-89450000D01*
X88580000Y-89450000D01*
G37*
G36*
X85715000Y-89035000D02*
X84465000Y-89035000D01*
X84465000Y-87535000D01*
X85715000Y-87535000D01*
X85715000Y-89035000D01*
X85715000Y-89035000D01*
G37*
G36*
X88580000Y-88800000D02*
X87130000Y-88800000D01*
X87130000Y-88350000D01*
X88580000Y-88350000D01*
X88580000Y-88800000D01*
X88580000Y-88800000D01*
G37*
G36*
X94480000Y-88800000D02*
X93030000Y-88800000D01*
X93030000Y-88350000D01*
X94480000Y-88350000D01*
X94480000Y-88800000D01*
X94480000Y-88800000D01*
G37*
G36*
X88580000Y-88150000D02*
X87130000Y-88150000D01*
X87130000Y-87700000D01*
X88580000Y-87700000D01*
X88580000Y-88150000D01*
X88580000Y-88150000D01*
G37*
G36*
X94480000Y-88150000D02*
X93030000Y-88150000D01*
X93030000Y-87700000D01*
X94480000Y-87700000D01*
X94480000Y-88150000D01*
X94480000Y-88150000D01*
G37*
G36*
X94480000Y-87500000D02*
X93030000Y-87500000D01*
X93030000Y-87050000D01*
X94480000Y-87050000D01*
X94480000Y-87500000D01*
X94480000Y-87500000D01*
G37*
G36*
X88580000Y-87500000D02*
X87130000Y-87500000D01*
X87130000Y-87050000D01*
X88580000Y-87050000D01*
X88580000Y-87500000D01*
X88580000Y-87500000D01*
G37*
G36*
X118276629Y-85522300D02*
X118436855Y-85570903D01*
X118584519Y-85649832D01*
X118713948Y-85756052D01*
X118820168Y-85885481D01*
X118899097Y-86033145D01*
X118947700Y-86193371D01*
X118964112Y-86360000D01*
X118947700Y-86526629D01*
X118899097Y-86686855D01*
X118820168Y-86834519D01*
X118713948Y-86963948D01*
X118584519Y-87070168D01*
X118436855Y-87149097D01*
X118276629Y-87197700D01*
X118151749Y-87210000D01*
X118068251Y-87210000D01*
X117943371Y-87197700D01*
X117783145Y-87149097D01*
X117635481Y-87070168D01*
X117506052Y-86963948D01*
X117399832Y-86834519D01*
X117320903Y-86686855D01*
X117272300Y-86526629D01*
X117255888Y-86360000D01*
X117272300Y-86193371D01*
X117320903Y-86033145D01*
X117399832Y-85885481D01*
X117506052Y-85756052D01*
X117635481Y-85649832D01*
X117783145Y-85570903D01*
X117943371Y-85522300D01*
X118068251Y-85510000D01*
X118151749Y-85510000D01*
X118276629Y-85522300D01*
X118276629Y-85522300D01*
G37*
G36*
X115736629Y-85522300D02*
X115896855Y-85570903D01*
X116044519Y-85649832D01*
X116173948Y-85756052D01*
X116280168Y-85885481D01*
X116359097Y-86033145D01*
X116407700Y-86193371D01*
X116424112Y-86360000D01*
X116407700Y-86526629D01*
X116359097Y-86686855D01*
X116280168Y-86834519D01*
X116173948Y-86963948D01*
X116044519Y-87070168D01*
X115896855Y-87149097D01*
X115736629Y-87197700D01*
X115611749Y-87210000D01*
X115528251Y-87210000D01*
X115403371Y-87197700D01*
X115243145Y-87149097D01*
X115095481Y-87070168D01*
X114966052Y-86963948D01*
X114859832Y-86834519D01*
X114780903Y-86686855D01*
X114732300Y-86526629D01*
X114715888Y-86360000D01*
X114732300Y-86193371D01*
X114780903Y-86033145D01*
X114859832Y-85885481D01*
X114966052Y-85756052D01*
X115095481Y-85649832D01*
X115243145Y-85570903D01*
X115403371Y-85522300D01*
X115528251Y-85510000D01*
X115611749Y-85510000D01*
X115736629Y-85522300D01*
X115736629Y-85522300D01*
G37*
G36*
X88580000Y-86850000D02*
X87130000Y-86850000D01*
X87130000Y-86400000D01*
X88580000Y-86400000D01*
X88580000Y-86850000D01*
X88580000Y-86850000D01*
G37*
G36*
X94480000Y-86850000D02*
X93030000Y-86850000D01*
X93030000Y-86400000D01*
X94480000Y-86400000D01*
X94480000Y-86850000D01*
X94480000Y-86850000D01*
G37*
G36*
X100566890Y-84910940D02*
X100689732Y-84961823D01*
X100689734Y-84961824D01*
X100715128Y-84978792D01*
X100800287Y-85035693D01*
X100894307Y-85129713D01*
X100968177Y-85240268D01*
X101019060Y-85363110D01*
X101045000Y-85493518D01*
X101045000Y-85626482D01*
X101019060Y-85756889D01*
X100968176Y-85879734D01*
X100894307Y-85990287D01*
X100800287Y-86084307D01*
X100689734Y-86158176D01*
X100689733Y-86158177D01*
X100689732Y-86158177D01*
X100566890Y-86209060D01*
X100436482Y-86235000D01*
X100303518Y-86235000D01*
X100173110Y-86209060D01*
X100050268Y-86158177D01*
X100050267Y-86158177D01*
X100050266Y-86158176D01*
X99939713Y-86084307D01*
X99845693Y-85990287D01*
X99771824Y-85879734D01*
X99720940Y-85756889D01*
X99695000Y-85626482D01*
X99695000Y-85493518D01*
X99720940Y-85363110D01*
X99771823Y-85240268D01*
X99845693Y-85129713D01*
X99939713Y-85035693D01*
X100024872Y-84978792D01*
X100050266Y-84961824D01*
X100050268Y-84961823D01*
X100173110Y-84910940D01*
X100303518Y-84885000D01*
X100436482Y-84885000D01*
X100566890Y-84910940D01*
X100566890Y-84910940D01*
G37*
G36*
X88580000Y-86200000D02*
X87130000Y-86200000D01*
X87130000Y-85750000D01*
X88580000Y-85750000D01*
X88580000Y-86200000D01*
X88580000Y-86200000D01*
G37*
G36*
X94480000Y-86200000D02*
X93030000Y-86200000D01*
X93030000Y-85750000D01*
X94480000Y-85750000D01*
X94480000Y-86200000D01*
X94480000Y-86200000D01*
G37*
G36*
X150733351Y-84130743D02*
X150878942Y-84191049D01*
X151009970Y-84278599D01*
X151121401Y-84390030D01*
X151208951Y-84521058D01*
X151269257Y-84666649D01*
X151300000Y-84821207D01*
X151300000Y-84978793D01*
X151269257Y-85133351D01*
X151208951Y-85278942D01*
X151121401Y-85409970D01*
X151009970Y-85521401D01*
X150878942Y-85608951D01*
X150733351Y-85669257D01*
X150578793Y-85700000D01*
X150421207Y-85700000D01*
X150266649Y-85669257D01*
X150121058Y-85608951D01*
X149990030Y-85521401D01*
X149878599Y-85409970D01*
X149791049Y-85278942D01*
X149730743Y-85133351D01*
X149700000Y-84978793D01*
X149700000Y-84821207D01*
X149730743Y-84666649D01*
X149791049Y-84521058D01*
X149878599Y-84390030D01*
X149990030Y-84278599D01*
X150121058Y-84191049D01*
X150266649Y-84130743D01*
X150421207Y-84100000D01*
X150578793Y-84100000D01*
X150733351Y-84130743D01*
X150733351Y-84130743D01*
G37*
G36*
X132733351Y-84130743D02*
X132878942Y-84191049D01*
X133009970Y-84278599D01*
X133121401Y-84390030D01*
X133208951Y-84521058D01*
X133269257Y-84666649D01*
X133300000Y-84821207D01*
X133300000Y-84978793D01*
X133269257Y-85133351D01*
X133208951Y-85278942D01*
X133121401Y-85409970D01*
X133009970Y-85521401D01*
X132878942Y-85608951D01*
X132733351Y-85669257D01*
X132578793Y-85700000D01*
X132421207Y-85700000D01*
X132266649Y-85669257D01*
X132121058Y-85608951D01*
X131990030Y-85521401D01*
X131878599Y-85409970D01*
X131791049Y-85278942D01*
X131730743Y-85133351D01*
X131700000Y-84978793D01*
X131700000Y-84821207D01*
X131730743Y-84666649D01*
X131791049Y-84521058D01*
X131878599Y-84390030D01*
X131990030Y-84278599D01*
X132121058Y-84191049D01*
X132266649Y-84130743D01*
X132421207Y-84100000D01*
X132578793Y-84100000D01*
X132733351Y-84130743D01*
X132733351Y-84130743D01*
G37*
G36*
X115736629Y-82982300D02*
X115896855Y-83030903D01*
X116044519Y-83109832D01*
X116173948Y-83216052D01*
X116280168Y-83345481D01*
X116359097Y-83493145D01*
X116407700Y-83653371D01*
X116424112Y-83820000D01*
X116407700Y-83986629D01*
X116359097Y-84146855D01*
X116280168Y-84294519D01*
X116173948Y-84423948D01*
X116044519Y-84530168D01*
X115896855Y-84609097D01*
X115736629Y-84657700D01*
X115611749Y-84670000D01*
X115528251Y-84670000D01*
X115403371Y-84657700D01*
X115243145Y-84609097D01*
X115095481Y-84530168D01*
X114966052Y-84423948D01*
X114859832Y-84294519D01*
X114780903Y-84146855D01*
X114732300Y-83986629D01*
X114715888Y-83820000D01*
X114732300Y-83653371D01*
X114780903Y-83493145D01*
X114859832Y-83345481D01*
X114966052Y-83216052D01*
X115095481Y-83109832D01*
X115243145Y-83030903D01*
X115403371Y-82982300D01*
X115528251Y-82970000D01*
X115611749Y-82970000D01*
X115736629Y-82982300D01*
X115736629Y-82982300D01*
G37*
G36*
X118276629Y-82982300D02*
X118436855Y-83030903D01*
X118584519Y-83109832D01*
X118713948Y-83216052D01*
X118820168Y-83345481D01*
X118899097Y-83493145D01*
X118947700Y-83653371D01*
X118964112Y-83820000D01*
X118947700Y-83986629D01*
X118899097Y-84146855D01*
X118820168Y-84294519D01*
X118713948Y-84423948D01*
X118584519Y-84530168D01*
X118436855Y-84609097D01*
X118276629Y-84657700D01*
X118151749Y-84670000D01*
X118068251Y-84670000D01*
X117943371Y-84657700D01*
X117783145Y-84609097D01*
X117635481Y-84530168D01*
X117506052Y-84423948D01*
X117399832Y-84294519D01*
X117320903Y-84146855D01*
X117272300Y-83986629D01*
X117255888Y-83820000D01*
X117272300Y-83653371D01*
X117320903Y-83493145D01*
X117399832Y-83345481D01*
X117506052Y-83216052D01*
X117635481Y-83109832D01*
X117783145Y-83030903D01*
X117943371Y-82982300D01*
X118068251Y-82970000D01*
X118151749Y-82970000D01*
X118276629Y-82982300D01*
X118276629Y-82982300D01*
G37*
G36*
X100566890Y-82910940D02*
X100689732Y-82961823D01*
X100689734Y-82961824D01*
X100800287Y-83035693D01*
X100894307Y-83129713D01*
X100951997Y-83216052D01*
X100968177Y-83240268D01*
X101019060Y-83363110D01*
X101044926Y-83493145D01*
X101045000Y-83493519D01*
X101045000Y-83626481D01*
X101019060Y-83756889D01*
X100968176Y-83879734D01*
X100894307Y-83990287D01*
X100800287Y-84084307D01*
X100689734Y-84158176D01*
X100689733Y-84158177D01*
X100689732Y-84158177D01*
X100566890Y-84209060D01*
X100436482Y-84235000D01*
X100303518Y-84235000D01*
X100173110Y-84209060D01*
X100050268Y-84158177D01*
X100050267Y-84158177D01*
X100050266Y-84158176D01*
X99939713Y-84084307D01*
X99845693Y-83990287D01*
X99771824Y-83879734D01*
X99720940Y-83756889D01*
X99695000Y-83626481D01*
X99695000Y-83493519D01*
X99695074Y-83493145D01*
X99720940Y-83363110D01*
X99771823Y-83240268D01*
X99788004Y-83216052D01*
X99845693Y-83129713D01*
X99939713Y-83035693D01*
X100050266Y-82961824D01*
X100050268Y-82961823D01*
X100173110Y-82910940D01*
X100303518Y-82885000D01*
X100436482Y-82885000D01*
X100566890Y-82910940D01*
X100566890Y-82910940D01*
G37*
G36*
X109482521Y-80414586D02*
X109646310Y-80482430D01*
X109793717Y-80580924D01*
X109919076Y-80706283D01*
X110017570Y-80853690D01*
X110085414Y-81017479D01*
X110120000Y-81191358D01*
X110120000Y-81368642D01*
X110085414Y-81542521D01*
X110017570Y-81706310D01*
X109919076Y-81853717D01*
X109793717Y-81979076D01*
X109646310Y-82077570D01*
X109482521Y-82145414D01*
X109308642Y-82180000D01*
X109131358Y-82180000D01*
X108957479Y-82145414D01*
X108793690Y-82077570D01*
X108646283Y-81979076D01*
X108520924Y-81853717D01*
X108422430Y-81706310D01*
X108354586Y-81542521D01*
X108320000Y-81368642D01*
X108320000Y-81191358D01*
X108354586Y-81017479D01*
X108422430Y-80853690D01*
X108520924Y-80706283D01*
X108646283Y-80580924D01*
X108793690Y-80482430D01*
X108957479Y-80414586D01*
X109131358Y-80380000D01*
X109308642Y-80380000D01*
X109482521Y-80414586D01*
X109482521Y-80414586D01*
G37*
G36*
X107580000Y-82180000D02*
X105780000Y-82180000D01*
X105780000Y-80380000D01*
X107580000Y-80380000D01*
X107580000Y-82180000D01*
X107580000Y-82180000D01*
G37*
G36*
X112022521Y-80414586D02*
X112186310Y-80482430D01*
X112333717Y-80580924D01*
X112459076Y-80706283D01*
X112557570Y-80853690D01*
X112625414Y-81017479D01*
X112660000Y-81191358D01*
X112660000Y-81368642D01*
X112625414Y-81542521D01*
X112557570Y-81706310D01*
X112459076Y-81853717D01*
X112333717Y-81979076D01*
X112186310Y-82077570D01*
X112022521Y-82145414D01*
X111848642Y-82180000D01*
X111671358Y-82180000D01*
X111497479Y-82145414D01*
X111333690Y-82077570D01*
X111186283Y-81979076D01*
X111060924Y-81853717D01*
X110962430Y-81706310D01*
X110894586Y-81542521D01*
X110860000Y-81368642D01*
X110860000Y-81191358D01*
X110894586Y-81017479D01*
X110962430Y-80853690D01*
X111060924Y-80706283D01*
X111186283Y-80580924D01*
X111333690Y-80482430D01*
X111497479Y-80414586D01*
X111671358Y-80380000D01*
X111848642Y-80380000D01*
X112022521Y-80414586D01*
X112022521Y-80414586D01*
G37*
G36*
X120892637Y-76835000D02*
X121141717Y-76884545D01*
X121424381Y-77001628D01*
X121542091Y-77050385D01*
X121902418Y-77291148D01*
X122208852Y-77597582D01*
X122449615Y-77957909D01*
X122615455Y-78358284D01*
X122700000Y-78783319D01*
X122700000Y-79216681D01*
X122681405Y-79310166D01*
X122615455Y-79641717D01*
X122449615Y-80042091D01*
X122208852Y-80402418D01*
X121902418Y-80708852D01*
X121542091Y-80949615D01*
X121141717Y-81115455D01*
X120929199Y-81157727D01*
X120716681Y-81200000D01*
X120283319Y-81200000D01*
X120070801Y-81157727D01*
X119858283Y-81115455D01*
X119457909Y-80949615D01*
X119097582Y-80708852D01*
X118791148Y-80402418D01*
X118550385Y-80042091D01*
X118384545Y-79641717D01*
X118318595Y-79310166D01*
X118300000Y-79216681D01*
X118300000Y-78783319D01*
X118384545Y-78358284D01*
X118550385Y-77957909D01*
X118791148Y-77597582D01*
X119097582Y-77291148D01*
X119457909Y-77050385D01*
X119575619Y-77001628D01*
X119858283Y-76884545D01*
X120107363Y-76835000D01*
X120283319Y-76800000D01*
X120716681Y-76800000D01*
X120892637Y-76835000D01*
X120892637Y-76835000D01*
G37*
G36*
X154892637Y-76835000D02*
X155141717Y-76884545D01*
X155424381Y-77001628D01*
X155542091Y-77050385D01*
X155902418Y-77291148D01*
X156208852Y-77597582D01*
X156449615Y-77957909D01*
X156615455Y-78358284D01*
X156700000Y-78783319D01*
X156700000Y-79216681D01*
X156681405Y-79310166D01*
X156615455Y-79641717D01*
X156449615Y-80042091D01*
X156208852Y-80402418D01*
X155902418Y-80708852D01*
X155542091Y-80949615D01*
X155141717Y-81115455D01*
X154929199Y-81157727D01*
X154716681Y-81200000D01*
X154283319Y-81200000D01*
X154070801Y-81157727D01*
X153858283Y-81115455D01*
X153457909Y-80949615D01*
X153097582Y-80708852D01*
X152791148Y-80402418D01*
X152550385Y-80042091D01*
X152384545Y-79641717D01*
X152318595Y-79310166D01*
X152300000Y-79216681D01*
X152300000Y-78783319D01*
X152384545Y-78358284D01*
X152550385Y-77957909D01*
X152791148Y-77597582D01*
X153097582Y-77291148D01*
X153457909Y-77050385D01*
X153575619Y-77001628D01*
X153858283Y-76884545D01*
X154107363Y-76835000D01*
X154283319Y-76800000D01*
X154716681Y-76800000D01*
X154892637Y-76835000D01*
X154892637Y-76835000D01*
G37*
G36*
X86892637Y-76835000D02*
X87141717Y-76884545D01*
X87424381Y-77001628D01*
X87542091Y-77050385D01*
X87902418Y-77291148D01*
X88208852Y-77597582D01*
X88449615Y-77957909D01*
X88615455Y-78358284D01*
X88700000Y-78783319D01*
X88700000Y-79216681D01*
X88681405Y-79310166D01*
X88615455Y-79641717D01*
X88449615Y-80042091D01*
X88208852Y-80402418D01*
X87902418Y-80708852D01*
X87542091Y-80949615D01*
X87141717Y-81115455D01*
X86929199Y-81157727D01*
X86716681Y-81200000D01*
X86283319Y-81200000D01*
X86070801Y-81157727D01*
X85858283Y-81115455D01*
X85457909Y-80949615D01*
X85097582Y-80708852D01*
X84791148Y-80402418D01*
X84550385Y-80042091D01*
X84384545Y-79641717D01*
X84318595Y-79310166D01*
X84300000Y-79216681D01*
X84300000Y-78783319D01*
X84384545Y-78358284D01*
X84550385Y-77957909D01*
X84791148Y-77597582D01*
X85097582Y-77291148D01*
X85457909Y-77050385D01*
X85575619Y-77001628D01*
X85858283Y-76884545D01*
X86107363Y-76835000D01*
X86283319Y-76800000D01*
X86716681Y-76800000D01*
X86892637Y-76835000D01*
X86892637Y-76835000D01*
G37*
G36*
X93511629Y-78537300D02*
X93671855Y-78585903D01*
X93819519Y-78664832D01*
X93948948Y-78771052D01*
X94055168Y-78900481D01*
X94134097Y-79048145D01*
X94182700Y-79208371D01*
X94199112Y-79375000D01*
X94182700Y-79541629D01*
X94134097Y-79701855D01*
X94055168Y-79849519D01*
X93948948Y-79978948D01*
X93819519Y-80085168D01*
X93671855Y-80164097D01*
X93511629Y-80212700D01*
X93386749Y-80225000D01*
X93303251Y-80225000D01*
X93178371Y-80212700D01*
X93018145Y-80164097D01*
X92870481Y-80085168D01*
X92741052Y-79978948D01*
X92634832Y-79849519D01*
X92555903Y-79701855D01*
X92507300Y-79541629D01*
X92490888Y-79375000D01*
X92507300Y-79208371D01*
X92555903Y-79048145D01*
X92634832Y-78900481D01*
X92741052Y-78771052D01*
X92870481Y-78664832D01*
X93018145Y-78585903D01*
X93178371Y-78537300D01*
X93303251Y-78525000D01*
X93386749Y-78525000D01*
X93511629Y-78537300D01*
X93511629Y-78537300D01*
G37*
G36*
X96051629Y-78537300D02*
X96211855Y-78585903D01*
X96359519Y-78664832D01*
X96488948Y-78771052D01*
X96595168Y-78900481D01*
X96674097Y-79048145D01*
X96722700Y-79208371D01*
X96739112Y-79375000D01*
X96722700Y-79541629D01*
X96674097Y-79701855D01*
X96595168Y-79849519D01*
X96488948Y-79978948D01*
X96359519Y-80085168D01*
X96211855Y-80164097D01*
X96051629Y-80212700D01*
X95926749Y-80225000D01*
X95843251Y-80225000D01*
X95718371Y-80212700D01*
X95558145Y-80164097D01*
X95410481Y-80085168D01*
X95281052Y-79978948D01*
X95174832Y-79849519D01*
X95095903Y-79701855D01*
X95047300Y-79541629D01*
X95030888Y-79375000D01*
X95047300Y-79208371D01*
X95095903Y-79048145D01*
X95174832Y-78900481D01*
X95281052Y-78771052D01*
X95410481Y-78664832D01*
X95558145Y-78585903D01*
X95718371Y-78537300D01*
X95843251Y-78525000D01*
X95926749Y-78525000D01*
X96051629Y-78537300D01*
X96051629Y-78537300D01*
G37*
G36*
X98591629Y-78537300D02*
X98751855Y-78585903D01*
X98899519Y-78664832D01*
X99028948Y-78771052D01*
X99135168Y-78900481D01*
X99214097Y-79048145D01*
X99262700Y-79208371D01*
X99279112Y-79375000D01*
X99262700Y-79541629D01*
X99214097Y-79701855D01*
X99135168Y-79849519D01*
X99028948Y-79978948D01*
X98899519Y-80085168D01*
X98751855Y-80164097D01*
X98591629Y-80212700D01*
X98466749Y-80225000D01*
X98383251Y-80225000D01*
X98258371Y-80212700D01*
X98098145Y-80164097D01*
X97950481Y-80085168D01*
X97821052Y-79978948D01*
X97714832Y-79849519D01*
X97635903Y-79701855D01*
X97587300Y-79541629D01*
X97570888Y-79375000D01*
X97587300Y-79208371D01*
X97635903Y-79048145D01*
X97714832Y-78900481D01*
X97821052Y-78771052D01*
X97950481Y-78664832D01*
X98098145Y-78585903D01*
X98258371Y-78537300D01*
X98383251Y-78525000D01*
X98466749Y-78525000D01*
X98591629Y-78537300D01*
X98591629Y-78537300D01*
G37*
G36*
X93511629Y-75997300D02*
X93671855Y-76045903D01*
X93819519Y-76124832D01*
X93948948Y-76231052D01*
X94055168Y-76360481D01*
X94134097Y-76508145D01*
X94182700Y-76668371D01*
X94199112Y-76835000D01*
X94182700Y-77001629D01*
X94134097Y-77161855D01*
X94055168Y-77309519D01*
X93948948Y-77438948D01*
X93819519Y-77545168D01*
X93671855Y-77624097D01*
X93511629Y-77672700D01*
X93386749Y-77685000D01*
X93303251Y-77685000D01*
X93178371Y-77672700D01*
X93018145Y-77624097D01*
X92870481Y-77545168D01*
X92741052Y-77438948D01*
X92634832Y-77309519D01*
X92555903Y-77161855D01*
X92507300Y-77001629D01*
X92490888Y-76835000D01*
X92507300Y-76668371D01*
X92555903Y-76508145D01*
X92634832Y-76360481D01*
X92741052Y-76231052D01*
X92870481Y-76124832D01*
X93018145Y-76045903D01*
X93178371Y-75997300D01*
X93303251Y-75985000D01*
X93386749Y-75985000D01*
X93511629Y-75997300D01*
X93511629Y-75997300D01*
G37*
G36*
X96051629Y-75997300D02*
X96211855Y-76045903D01*
X96359519Y-76124832D01*
X96488948Y-76231052D01*
X96595168Y-76360481D01*
X96674097Y-76508145D01*
X96722700Y-76668371D01*
X96739112Y-76835000D01*
X96722700Y-77001629D01*
X96674097Y-77161855D01*
X96595168Y-77309519D01*
X96488948Y-77438948D01*
X96359519Y-77545168D01*
X96211855Y-77624097D01*
X96051629Y-77672700D01*
X95926749Y-77685000D01*
X95843251Y-77685000D01*
X95718371Y-77672700D01*
X95558145Y-77624097D01*
X95410481Y-77545168D01*
X95281052Y-77438948D01*
X95174832Y-77309519D01*
X95095903Y-77161855D01*
X95047300Y-77001629D01*
X95030888Y-76835000D01*
X95047300Y-76668371D01*
X95095903Y-76508145D01*
X95174832Y-76360481D01*
X95281052Y-76231052D01*
X95410481Y-76124832D01*
X95558145Y-76045903D01*
X95718371Y-75997300D01*
X95843251Y-75985000D01*
X95926749Y-75985000D01*
X96051629Y-75997300D01*
X96051629Y-75997300D01*
G37*
G36*
X99275000Y-77685000D02*
X97575000Y-77685000D01*
X97575000Y-75985000D01*
X99275000Y-75985000D01*
X99275000Y-77685000D01*
X99275000Y-77685000D01*
G37*
M02*
