M48
;DRILL file {KiCad 4.0.7} date 06/17/18 00:12:46
;FORMAT={-:-/ absolute / inch / decimal}
FMAT,2
INCH,TZ
T1C0.016
T2C0.031
T3C0.035
T4C0.039
T5C0.087
%
G90
G05
M72
T1
X3.3406Y-3.1102
X3.3406Y-5.7874
X3.3596Y-3.0643
X3.3596Y-3.1562
X3.3596Y-5.7415
X3.3596Y-5.8333
X3.4Y-3.325
X3.4055Y-3.0453
X3.4055Y-3.1752
X3.4055Y-5.7224
X3.4055Y-5.8524
X3.4514Y-3.0643
X3.4514Y-3.1562
X3.4514Y-5.7415
X3.4514Y-5.8333
X3.4705Y-3.1102
X3.4705Y-5.7874
X3.6142Y-4.3543
X3.625Y-4.125
X3.65Y-3.975
X3.7Y-3.675
X3.7Y-3.825
X3.7Y-4.075
X3.725Y-3.65
X3.725Y-4.625
X3.75Y-3.825
X3.775Y-3.65
X3.775Y-3.7
X3.825Y-4.075
X3.875Y-4.325
X3.875Y-4.4
X3.875Y-4.5
X3.9Y-3.975
X3.9Y-4.525
X3.925Y-4.025
X3.925Y-4.4
X3.95Y-4.05
X3.95Y-4.825
X3.975Y-4.4
X3.975Y-4.85
X3.975Y-4.9
X4.Y-4.825
X4.Y-4.875
X4.05Y-4.225
X4.08Y-4.57
X4.125Y-4.4
X4.125Y-4.475
X4.125Y-5.55
X4.125Y-5.7
X4.15Y-3.875
X4.175Y-4.825
X4.2Y-4.5
X4.2Y-4.85
X4.2Y-4.9
X4.225Y-4.4
X4.225Y-4.875
X4.3Y-5.2
X4.35Y-4.775
X4.35Y-4.925
X4.375Y-5.775
X4.4Y-5.325
X4.475Y-3.775
X4.475Y-4.175
X4.5Y-5.425
X4.525Y-4.4
X4.55Y-3.025
X4.6Y-5.825
X4.6791Y-3.1102
X4.6791Y-5.7874
X4.6982Y-3.0643
X4.6982Y-3.1562
X4.6982Y-5.7415
X4.6982Y-5.8333
X4.7441Y-3.0453
X4.7441Y-3.1752
X4.7441Y-5.7224
X4.7441Y-5.8524
X4.775Y-5.6
X4.79Y-3.0643
X4.79Y-3.1562
X4.79Y-5.7415
X4.79Y-5.8333
X4.8091Y-3.1102
X4.8091Y-5.7874
X6.0177Y-3.1102
X6.0177Y-5.7874
X6.0367Y-3.0643
X6.0367Y-3.1562
X6.0367Y-5.7415
X6.0367Y-5.8333
X6.0827Y-3.0453
X6.0827Y-3.1752
X6.0827Y-5.7224
X6.0827Y-5.8524
X6.1286Y-3.0643
X6.1286Y-3.1562
X6.1286Y-5.7415
X6.1286Y-5.8333
X6.1476Y-3.1102
X6.1476Y-5.7874
T2
X3.3234Y-3.5091
X3.3234Y-3.5878
X3.3234Y-3.6665
X3.3234Y-3.7453
X3.3234Y-3.824
X3.3234Y-3.9028
X3.3234Y-3.9815
X3.3234Y-4.0602
X3.4Y-4.35
X3.4Y-4.5421
X5.2165Y-3.3425
X5.2165Y-5.437
X5.9252Y-3.3425
X5.9252Y-5.437
T3
X4.2Y-3.2
X4.3Y-3.2
X4.4Y-3.2
T4
X3.35Y-5.15
X3.35Y-5.25
X3.35Y-5.35
X3.35Y-5.45
X3.625Y-5.875
X3.675Y-3.025
X3.675Y-3.125
X3.725Y-5.875
X3.775Y-3.025
X3.775Y-3.125
X3.825Y-5.875
X3.875Y-3.025
X3.875Y-3.125
X3.925Y-5.875
X3.95Y-5.15
X3.95Y-5.25
X3.95Y-5.35
X3.95Y-5.45
X4.025Y-5.875
X4.125Y-5.875
X4.15Y-5.15
X4.15Y-5.25
X4.15Y-5.35
X4.15Y-5.45
X4.425Y-5.875
X4.525Y-5.875
X4.55Y-3.3
X4.55Y-3.4
X4.55Y-3.5
X4.55Y-3.6
X4.55Y-3.7
X4.55Y-3.8
X4.55Y-3.9
X4.55Y-4.
X4.65Y-3.3
X4.65Y-3.4
X4.65Y-3.5
X4.65Y-3.6
X4.65Y-3.7
X4.65Y-3.8
X4.65Y-3.9
X4.65Y-4.
X4.65Y-4.1
X4.65Y-4.2
X4.65Y-4.3
X4.65Y-4.4
X4.65Y-4.5
X4.65Y-4.6
X4.65Y-4.7
X4.65Y-4.8
X4.65Y-4.9
X4.75Y-3.9
X4.75Y-4.
X4.75Y-4.2
X4.75Y-4.3
X4.75Y-4.4
X4.75Y-4.5
X4.75Y-4.6
X4.75Y-4.7
X4.75Y-4.8
X4.75Y-4.9
X4.75Y-5.15
X4.75Y-5.25
X4.75Y-5.35
X4.75Y-5.45
T5
X3.4055Y-3.1102
X3.4055Y-5.7874
X4.7441Y-3.1102
X4.7441Y-5.7874
X6.0827Y-3.1102
X6.0827Y-5.7874
T0
M30
