G04 #@! TF.GenerationSoftware,KiCad,Pcbnew,(5.0.1)-3*
G04 #@! TF.CreationDate,2018-12-07T05:25:01+01:00*
G04 #@! TF.ProjectId,HB-UNI-644,48422D554E492D3634342E6B69636164,2.0*
G04 #@! TF.SameCoordinates,Original*
G04 #@! TF.FileFunction,Legend,Bot*
G04 #@! TF.FilePolarity,Positive*
%FSLAX46Y46*%
G04 Gerber Fmt 4.6, Leading zero omitted, Abs format (unit mm)*
G04 Created by KiCad (PCBNEW (5.0.1)-3) date 07.12.2018 05:25:01*
%MOMM*%
%LPD*%
G01*
G04 APERTURE LIST*
%ADD10C,0.200000*%
%ADD11C,0.300000*%
%ADD12C,0.120000*%
%ADD13C,0.150000*%
%ADD14C,0.010000*%
%ADD15C,1.350000*%
%ADD16R,2.000000X2.000000*%
%ADD17O,2.000000X2.000000*%
%ADD18C,1.600000*%
%ADD19C,2.900000*%
%ADD20R,2.000000X1.600000*%
%ADD21R,1.800000X1.800000*%
%ADD22C,1.800000*%
%ADD23R,1.700000X1.700000*%
%ADD24O,1.700000X1.700000*%
%ADD25R,1.270000X0.970000*%
%ADD26R,0.800000X1.900000*%
%ADD27R,1.300000X1.500000*%
%ADD28R,2.000000X0.650000*%
%ADD29C,1.500000*%
%ADD30C,1.700000*%
%ADD31R,1.600000X2.000000*%
%ADD32R,3.500000X3.500000*%
%ADD33R,2.500000X1.000000*%
%ADD34R,4.000000X2.000000*%
%ADD35C,0.750000*%
%ADD36C,0.100000*%
%ADD37R,1.600000X1.600000*%
%ADD38R,2.000000X1.700000*%
%ADD39R,1.900000X0.800000*%
%ADD40R,1.250000X1.500000*%
%ADD41R,1.500000X1.250000*%
%ADD42R,0.800000X0.900000*%
%ADD43R,1.450000X0.450000*%
%ADD44C,4.400000*%
%ADD45C,0.700000*%
G04 APERTURE END LIST*
D10*
X110427142Y-115300000D02*
X110484285Y-115242857D01*
X110598571Y-115071428D01*
X110655714Y-114957142D01*
X110712857Y-114785714D01*
X110770000Y-114500000D01*
X110770000Y-114271428D01*
X110712857Y-113985714D01*
X110655714Y-113814285D01*
X110598571Y-113700000D01*
X110484285Y-113528571D01*
X110427142Y-113471428D01*
X109455714Y-114785714D02*
X109570000Y-114842857D01*
X109798571Y-114842857D01*
X109912857Y-114785714D01*
X109970000Y-114728571D01*
X110027142Y-114614285D01*
X110027142Y-114271428D01*
X109970000Y-114157142D01*
X109912857Y-114100000D01*
X109798571Y-114042857D01*
X109570000Y-114042857D01*
X109455714Y-114100000D01*
X109055714Y-115300000D02*
X108998571Y-115242857D01*
X108884285Y-115071428D01*
X108827142Y-114957142D01*
X108770000Y-114785714D01*
X108712857Y-114500000D01*
X108712857Y-114271428D01*
X108770000Y-113985714D01*
X108827142Y-113814285D01*
X108884285Y-113700000D01*
X108998571Y-113528571D01*
X109055714Y-113471428D01*
X107284285Y-114500000D02*
X106712857Y-114500000D01*
X107398571Y-114842857D02*
X106998571Y-113642857D01*
X106598571Y-114842857D01*
X106027142Y-114842857D02*
X106141428Y-114785714D01*
X106198571Y-114671428D01*
X106198571Y-113642857D01*
X105112857Y-114785714D02*
X105227142Y-114842857D01*
X105455714Y-114842857D01*
X105570000Y-114785714D01*
X105627142Y-114671428D01*
X105627142Y-114214285D01*
X105570000Y-114100000D01*
X105455714Y-114042857D01*
X105227142Y-114042857D01*
X105112857Y-114100000D01*
X105055714Y-114214285D01*
X105055714Y-114328571D01*
X105627142Y-114442857D01*
X104655714Y-114842857D02*
X104027142Y-114042857D01*
X104655714Y-114042857D02*
X104027142Y-114842857D01*
X103055714Y-114842857D02*
X103055714Y-114214285D01*
X103112857Y-114100000D01*
X103227142Y-114042857D01*
X103455714Y-114042857D01*
X103570000Y-114100000D01*
X103055714Y-114785714D02*
X103170000Y-114842857D01*
X103455714Y-114842857D01*
X103570000Y-114785714D01*
X103627142Y-114671428D01*
X103627142Y-114557142D01*
X103570000Y-114442857D01*
X103455714Y-114385714D01*
X103170000Y-114385714D01*
X103055714Y-114328571D01*
X102484285Y-114042857D02*
X102484285Y-114842857D01*
X102484285Y-114157142D02*
X102427142Y-114100000D01*
X102312857Y-114042857D01*
X102141428Y-114042857D01*
X102027142Y-114100000D01*
X101970000Y-114214285D01*
X101970000Y-114842857D01*
X100884285Y-114842857D02*
X100884285Y-113642857D01*
X100884285Y-114785714D02*
X100998571Y-114842857D01*
X101227142Y-114842857D01*
X101341428Y-114785714D01*
X101398571Y-114728571D01*
X101455714Y-114614285D01*
X101455714Y-114271428D01*
X101398571Y-114157142D01*
X101341428Y-114100000D01*
X101227142Y-114042857D01*
X100998571Y-114042857D01*
X100884285Y-114100000D01*
X99855714Y-114785714D02*
X99970000Y-114842857D01*
X100198571Y-114842857D01*
X100312857Y-114785714D01*
X100370000Y-114671428D01*
X100370000Y-114214285D01*
X100312857Y-114100000D01*
X100198571Y-114042857D01*
X99970000Y-114042857D01*
X99855714Y-114100000D01*
X99798571Y-114214285D01*
X99798571Y-114328571D01*
X100370000Y-114442857D01*
X99284285Y-114842857D02*
X99284285Y-114042857D01*
X99284285Y-114271428D02*
X99227142Y-114157142D01*
X99170000Y-114100000D01*
X99055714Y-114042857D01*
X98941428Y-114042857D01*
X96941428Y-114842857D02*
X97341428Y-114271428D01*
X97627142Y-114842857D02*
X97627142Y-113642857D01*
X97170000Y-113642857D01*
X97055714Y-113700000D01*
X96998571Y-113757142D01*
X96941428Y-113871428D01*
X96941428Y-114042857D01*
X96998571Y-114157142D01*
X97055714Y-114214285D01*
X97170000Y-114271428D01*
X97627142Y-114271428D01*
X95970000Y-114785714D02*
X96084285Y-114842857D01*
X96312857Y-114842857D01*
X96427142Y-114785714D01*
X96484285Y-114671428D01*
X96484285Y-114214285D01*
X96427142Y-114100000D01*
X96312857Y-114042857D01*
X96084285Y-114042857D01*
X95970000Y-114100000D01*
X95912857Y-114214285D01*
X95912857Y-114328571D01*
X96484285Y-114442857D01*
X95398571Y-114842857D02*
X95398571Y-114042857D01*
X95398571Y-113642857D02*
X95455714Y-113700000D01*
X95398571Y-113757142D01*
X95341428Y-113700000D01*
X95398571Y-113642857D01*
X95398571Y-113757142D01*
X94827142Y-114042857D02*
X94827142Y-114842857D01*
X94827142Y-114157142D02*
X94770000Y-114100000D01*
X94655714Y-114042857D01*
X94484285Y-114042857D01*
X94370000Y-114100000D01*
X94312857Y-114214285D01*
X94312857Y-114842857D01*
X93284285Y-114785714D02*
X93398571Y-114842857D01*
X93627142Y-114842857D01*
X93741428Y-114785714D01*
X93798571Y-114671428D01*
X93798571Y-114214285D01*
X93741428Y-114100000D01*
X93627142Y-114042857D01*
X93398571Y-114042857D01*
X93284285Y-114100000D01*
X93227142Y-114214285D01*
X93227142Y-114328571D01*
X93798571Y-114442857D01*
X92712857Y-114842857D02*
X92712857Y-114042857D01*
X92712857Y-114271428D02*
X92655714Y-114157142D01*
X92598571Y-114100000D01*
X92484285Y-114042857D01*
X92370000Y-114042857D01*
X92141428Y-114042857D02*
X91684285Y-114042857D01*
X91970000Y-113642857D02*
X91970000Y-114671428D01*
X91912857Y-114785714D01*
X91798571Y-114842857D01*
X91684285Y-114842857D01*
X110630000Y-111102857D02*
X110230000Y-112302857D01*
X109830000Y-111102857D01*
X108972857Y-112245714D02*
X109087142Y-112302857D01*
X109315714Y-112302857D01*
X109430000Y-112245714D01*
X109487142Y-112131428D01*
X109487142Y-111674285D01*
X109430000Y-111560000D01*
X109315714Y-111502857D01*
X109087142Y-111502857D01*
X108972857Y-111560000D01*
X108915714Y-111674285D01*
X108915714Y-111788571D01*
X109487142Y-111902857D01*
X108401428Y-112302857D02*
X108401428Y-111502857D01*
X108401428Y-111731428D02*
X108344285Y-111617142D01*
X108287142Y-111560000D01*
X108172857Y-111502857D01*
X108058571Y-111502857D01*
X107715714Y-112245714D02*
X107601428Y-112302857D01*
X107372857Y-112302857D01*
X107258571Y-112245714D01*
X107201428Y-112131428D01*
X107201428Y-112074285D01*
X107258571Y-111960000D01*
X107372857Y-111902857D01*
X107544285Y-111902857D01*
X107658571Y-111845714D01*
X107715714Y-111731428D01*
X107715714Y-111674285D01*
X107658571Y-111560000D01*
X107544285Y-111502857D01*
X107372857Y-111502857D01*
X107258571Y-111560000D01*
X106687142Y-112302857D02*
X106687142Y-111502857D01*
X106687142Y-111102857D02*
X106744285Y-111160000D01*
X106687142Y-111217142D01*
X106630000Y-111160000D01*
X106687142Y-111102857D01*
X106687142Y-111217142D01*
X105944285Y-112302857D02*
X106058571Y-112245714D01*
X106115714Y-112188571D01*
X106172857Y-112074285D01*
X106172857Y-111731428D01*
X106115714Y-111617142D01*
X106058571Y-111560000D01*
X105944285Y-111502857D01*
X105772857Y-111502857D01*
X105658571Y-111560000D01*
X105601428Y-111617142D01*
X105544285Y-111731428D01*
X105544285Y-112074285D01*
X105601428Y-112188571D01*
X105658571Y-112245714D01*
X105772857Y-112302857D01*
X105944285Y-112302857D01*
X105030000Y-111502857D02*
X105030000Y-112302857D01*
X105030000Y-111617142D02*
X104972857Y-111560000D01*
X104858571Y-111502857D01*
X104687142Y-111502857D01*
X104572857Y-111560000D01*
X104515714Y-111674285D01*
X104515714Y-112302857D01*
X103087142Y-111217142D02*
X103030000Y-111160000D01*
X102915714Y-111102857D01*
X102630000Y-111102857D01*
X102515714Y-111160000D01*
X102458571Y-111217142D01*
X102401428Y-111331428D01*
X102401428Y-111445714D01*
X102458571Y-111617142D01*
X103144285Y-112302857D01*
X102401428Y-112302857D01*
X101887142Y-112188571D02*
X101830000Y-112245714D01*
X101887142Y-112302857D01*
X101944285Y-112245714D01*
X101887142Y-112188571D01*
X101887142Y-112302857D01*
X100801428Y-111502857D02*
X100801428Y-112302857D01*
X101087142Y-111045714D02*
X101372857Y-111902857D01*
X100630000Y-111902857D01*
X99258571Y-111845714D02*
X98344285Y-111845714D01*
X96630000Y-111102857D02*
X96515714Y-111102857D01*
X96401428Y-111160000D01*
X96344285Y-111217142D01*
X96287142Y-111331428D01*
X96230000Y-111560000D01*
X96230000Y-111845714D01*
X96287142Y-112074285D01*
X96344285Y-112188571D01*
X96401428Y-112245714D01*
X96515714Y-112302857D01*
X96630000Y-112302857D01*
X96744285Y-112245714D01*
X96801428Y-112188571D01*
X96858571Y-112074285D01*
X96915714Y-111845714D01*
X96915714Y-111560000D01*
X96858571Y-111331428D01*
X96801428Y-111217142D01*
X96744285Y-111160000D01*
X96630000Y-111102857D01*
X95544285Y-111617142D02*
X95658571Y-111560000D01*
X95715714Y-111502857D01*
X95772857Y-111388571D01*
X95772857Y-111331428D01*
X95715714Y-111217142D01*
X95658571Y-111160000D01*
X95544285Y-111102857D01*
X95315714Y-111102857D01*
X95201428Y-111160000D01*
X95144285Y-111217142D01*
X95087142Y-111331428D01*
X95087142Y-111388571D01*
X95144285Y-111502857D01*
X95201428Y-111560000D01*
X95315714Y-111617142D01*
X95544285Y-111617142D01*
X95658571Y-111674285D01*
X95715714Y-111731428D01*
X95772857Y-111845714D01*
X95772857Y-112074285D01*
X95715714Y-112188571D01*
X95658571Y-112245714D01*
X95544285Y-112302857D01*
X95315714Y-112302857D01*
X95201428Y-112245714D01*
X95144285Y-112188571D01*
X95087142Y-112074285D01*
X95087142Y-111845714D01*
X95144285Y-111731428D01*
X95201428Y-111674285D01*
X95315714Y-111617142D01*
X93715714Y-111045714D02*
X94744285Y-112588571D01*
X93372857Y-111217142D02*
X93315714Y-111160000D01*
X93201428Y-111102857D01*
X92915714Y-111102857D01*
X92801428Y-111160000D01*
X92744285Y-111217142D01*
X92687142Y-111331428D01*
X92687142Y-111445714D01*
X92744285Y-111617142D01*
X93430000Y-112302857D01*
X92687142Y-112302857D01*
X91944285Y-111102857D02*
X91830000Y-111102857D01*
X91715714Y-111160000D01*
X91658571Y-111217142D01*
X91601428Y-111331428D01*
X91544285Y-111560000D01*
X91544285Y-111845714D01*
X91601428Y-112074285D01*
X91658571Y-112188571D01*
X91715714Y-112245714D01*
X91830000Y-112302857D01*
X91944285Y-112302857D01*
X92058571Y-112245714D01*
X92115714Y-112188571D01*
X92172857Y-112074285D01*
X92230000Y-111845714D01*
X92230000Y-111560000D01*
X92172857Y-111331428D01*
X92115714Y-111217142D01*
X92058571Y-111160000D01*
X91944285Y-111102857D01*
X90401428Y-112302857D02*
X91087142Y-112302857D01*
X90744285Y-112302857D02*
X90744285Y-111102857D01*
X90858571Y-111274285D01*
X90972857Y-111388571D01*
X91087142Y-111445714D01*
X89715714Y-111617142D02*
X89830000Y-111560000D01*
X89887142Y-111502857D01*
X89944285Y-111388571D01*
X89944285Y-111331428D01*
X89887142Y-111217142D01*
X89830000Y-111160000D01*
X89715714Y-111102857D01*
X89487142Y-111102857D01*
X89372857Y-111160000D01*
X89315714Y-111217142D01*
X89258571Y-111331428D01*
X89258571Y-111388571D01*
X89315714Y-111502857D01*
X89372857Y-111560000D01*
X89487142Y-111617142D01*
X89715714Y-111617142D01*
X89830000Y-111674285D01*
X89887142Y-111731428D01*
X89944285Y-111845714D01*
X89944285Y-112074285D01*
X89887142Y-112188571D01*
X89830000Y-112245714D01*
X89715714Y-112302857D01*
X89487142Y-112302857D01*
X89372857Y-112245714D01*
X89315714Y-112188571D01*
X89258571Y-112074285D01*
X89258571Y-111845714D01*
X89315714Y-111731428D01*
X89372857Y-111674285D01*
X89487142Y-111617142D01*
D11*
X110651428Y-109893571D02*
X110651428Y-108393571D01*
X110651428Y-109107857D02*
X109794285Y-109107857D01*
X109794285Y-109893571D02*
X109794285Y-108393571D01*
X108580000Y-109107857D02*
X108365714Y-109179285D01*
X108294285Y-109250714D01*
X108222857Y-109393571D01*
X108222857Y-109607857D01*
X108294285Y-109750714D01*
X108365714Y-109822142D01*
X108508571Y-109893571D01*
X109080000Y-109893571D01*
X109080000Y-108393571D01*
X108580000Y-108393571D01*
X108437142Y-108465000D01*
X108365714Y-108536428D01*
X108294285Y-108679285D01*
X108294285Y-108822142D01*
X108365714Y-108965000D01*
X108437142Y-109036428D01*
X108580000Y-109107857D01*
X109080000Y-109107857D01*
X107580000Y-109322142D02*
X106437142Y-109322142D01*
X105722857Y-108393571D02*
X105722857Y-109607857D01*
X105651428Y-109750714D01*
X105580000Y-109822142D01*
X105437142Y-109893571D01*
X105151428Y-109893571D01*
X105008571Y-109822142D01*
X104937142Y-109750714D01*
X104865714Y-109607857D01*
X104865714Y-108393571D01*
X104151428Y-109893571D02*
X104151428Y-108393571D01*
X103294285Y-109893571D01*
X103294285Y-108393571D01*
X102580000Y-109893571D02*
X102580000Y-108393571D01*
X101865714Y-109322142D02*
X100722857Y-109322142D01*
X99365714Y-108393571D02*
X99651428Y-108393571D01*
X99794285Y-108465000D01*
X99865714Y-108536428D01*
X100008571Y-108750714D01*
X100080000Y-109036428D01*
X100080000Y-109607857D01*
X100008571Y-109750714D01*
X99937142Y-109822142D01*
X99794285Y-109893571D01*
X99508571Y-109893571D01*
X99365714Y-109822142D01*
X99294285Y-109750714D01*
X99222857Y-109607857D01*
X99222857Y-109250714D01*
X99294285Y-109107857D01*
X99365714Y-109036428D01*
X99508571Y-108965000D01*
X99794285Y-108965000D01*
X99937142Y-109036428D01*
X100008571Y-109107857D01*
X100080000Y-109250714D01*
X97937142Y-108893571D02*
X97937142Y-109893571D01*
X98294285Y-108322142D02*
X98651428Y-109393571D01*
X97722857Y-109393571D01*
X96508571Y-108893571D02*
X96508571Y-109893571D01*
X96865714Y-108322142D02*
X97222857Y-109393571D01*
X96294285Y-109393571D01*
D12*
G04 #@! TO.C,C10*
X92980000Y-131060000D02*
X94980000Y-131060000D01*
X94980000Y-133100000D02*
X92980000Y-133100000D01*
G04 #@! TO.C,J2*
X108965000Y-150495000D02*
X108965000Y-147955000D01*
X110745000Y-147955000D02*
X110745000Y-150495000D01*
X110745000Y-147955000D02*
X108965000Y-147955000D01*
X108965000Y-150495000D02*
X110745000Y-150495000D01*
G04 #@! TO.C,J4*
X106425000Y-150495000D02*
X106425000Y-147955000D01*
X108205000Y-147955000D02*
X108205000Y-150495000D01*
X108205000Y-147955000D02*
X106425000Y-147955000D01*
X106425000Y-150495000D02*
X108205000Y-150495000D01*
G04 #@! TO.C,Q1*
X101925000Y-144020000D02*
X102855000Y-144020000D01*
X105085000Y-144020000D02*
X104155000Y-144020000D01*
X105085000Y-144020000D02*
X105085000Y-147180000D01*
X101925000Y-144020000D02*
X101925000Y-145480000D01*
G04 #@! TO.C,R4*
X105800000Y-144180000D02*
X105800000Y-145380000D01*
X107560000Y-145380000D02*
X107560000Y-144180000D01*
G04 #@! TO.C,U3*
X92465000Y-134965000D02*
X94225000Y-134965000D01*
X94225000Y-138035000D02*
X91795000Y-138035000D01*
G04 #@! TO.C,C11*
X113415000Y-127905000D02*
X113415000Y-129905000D01*
X111375000Y-129905000D02*
X111375000Y-127905000D01*
G04 #@! TO.C,L1*
X90980000Y-139725000D02*
X94440000Y-139725000D01*
X90980000Y-143485000D02*
X94440000Y-143485000D01*
G04 #@! TO.C,U4*
X114175000Y-134690000D02*
X114175000Y-133490000D01*
X114175000Y-133490000D02*
X111475000Y-133490000D01*
X110175000Y-138290000D02*
X114175000Y-138290000D01*
X114175000Y-138290000D02*
X114175000Y-137090000D01*
G04 #@! TO.C,F1*
X113300000Y-145850000D02*
X115300000Y-145850000D01*
X115300000Y-143710000D02*
X113300000Y-143710000D01*
G04 #@! TO.C,Q2*
X115695000Y-139390000D02*
X115695000Y-140320000D01*
X115695000Y-142550000D02*
X115695000Y-141620000D01*
X115695000Y-142550000D02*
X112535000Y-142550000D01*
X115695000Y-139390000D02*
X114235000Y-139390000D01*
G04 #@! TO.C,R11*
X110100000Y-144110000D02*
X110100000Y-142910000D01*
X108340000Y-142910000D02*
X108340000Y-144110000D01*
G04 #@! TO.C,C9*
X89115000Y-133485000D02*
X89115000Y-134485000D01*
X87415000Y-134485000D02*
X87415000Y-133485000D01*
G04 #@! TO.C,C12*
X109435000Y-128405000D02*
X109435000Y-129405000D01*
X107735000Y-129405000D02*
X107735000Y-128405000D01*
G04 #@! TO.C,C16*
X84240000Y-97655000D02*
X84240000Y-96655000D01*
X85940000Y-96655000D02*
X85940000Y-97655000D01*
G04 #@! TO.C,C17*
X81700000Y-97655000D02*
X81700000Y-96655000D01*
X83400000Y-96655000D02*
X83400000Y-97655000D01*
G04 #@! TO.C,C18*
X92210000Y-103925000D02*
X93210000Y-103925000D01*
X93210000Y-105625000D02*
X92210000Y-105625000D01*
G04 #@! TO.C,C19*
X84320000Y-105625000D02*
X83320000Y-105625000D01*
X83320000Y-103925000D02*
X84320000Y-103925000D01*
G04 #@! TO.C,C20*
X84240000Y-90035000D02*
X84240000Y-89035000D01*
X85940000Y-89035000D02*
X85940000Y-90035000D01*
G04 #@! TO.C,C21*
X94400000Y-95750000D02*
X94400000Y-94750000D01*
X96100000Y-94750000D02*
X96100000Y-95750000D01*
G04 #@! TO.C,U6*
X89845000Y-104900000D02*
X88915000Y-104900000D01*
X86685000Y-104900000D02*
X87615000Y-104900000D01*
X86685000Y-104900000D02*
X86685000Y-102740000D01*
X89845000Y-104900000D02*
X89845000Y-103440000D01*
D13*
G04 #@! TO.C,U7*
X88580000Y-85450000D02*
X93030000Y-85450000D01*
X87055000Y-92350000D02*
X93030000Y-92350000D01*
D14*
G04 #@! TO.C,G\002A\002A\002A*
G36*
X115699548Y-75169312D02*
X115501275Y-75210462D01*
X115462053Y-75222223D01*
X115238400Y-75311488D01*
X115029651Y-75430744D01*
X114839534Y-75576676D01*
X114671776Y-75745969D01*
X114530104Y-75935308D01*
X114418245Y-76141376D01*
X114411431Y-76156794D01*
X114334110Y-76376758D01*
X114287539Y-76606675D01*
X114271301Y-76841356D01*
X114284982Y-77075611D01*
X114328168Y-77304251D01*
X114400442Y-77522086D01*
X114501390Y-77723927D01*
X114541842Y-77787500D01*
X114689518Y-77975499D01*
X114861038Y-78140048D01*
X115052485Y-78279516D01*
X115259941Y-78392273D01*
X115479492Y-78476687D01*
X115707219Y-78531128D01*
X115939207Y-78553963D01*
X116171539Y-78543563D01*
X116304786Y-78521684D01*
X116551183Y-78452314D01*
X116778750Y-78351971D01*
X116986853Y-78221071D01*
X117174853Y-78060030D01*
X117342113Y-77869264D01*
X117377783Y-77820947D01*
X117499938Y-77619507D01*
X117591444Y-77402448D01*
X117651776Y-77174383D01*
X117680409Y-76939923D01*
X117678641Y-76823593D01*
X117372572Y-76823593D01*
X117360738Y-77031538D01*
X117316092Y-77236799D01*
X117238416Y-77436129D01*
X117127496Y-77626280D01*
X117069925Y-77703910D01*
X116923303Y-77860609D01*
X116751635Y-77995442D01*
X116561670Y-78104028D01*
X116360160Y-78181981D01*
X116313857Y-78194867D01*
X116169230Y-78220972D01*
X116006996Y-78231701D01*
X115841947Y-78227064D01*
X115688876Y-78207073D01*
X115632581Y-78194329D01*
X115479449Y-78142458D01*
X115320059Y-78067836D01*
X115168485Y-77977765D01*
X115058807Y-77896597D01*
X114905184Y-77746264D01*
X114779824Y-77575698D01*
X114683725Y-77388611D01*
X114617890Y-77188716D01*
X114583317Y-76979726D01*
X114581008Y-76765353D01*
X114611961Y-76549311D01*
X114654746Y-76396748D01*
X114727973Y-76222824D01*
X114826239Y-76062429D01*
X114954267Y-75908287D01*
X115006151Y-75855286D01*
X115174396Y-75711997D01*
X115355355Y-75601805D01*
X115551537Y-75523596D01*
X115765449Y-75476257D01*
X115890447Y-75463054D01*
X116113940Y-75465118D01*
X116329153Y-75501944D01*
X116533454Y-75572550D01*
X116724208Y-75675951D01*
X116898782Y-75811166D01*
X116947106Y-75857288D01*
X117096097Y-76029934D01*
X117213355Y-76216135D01*
X117298664Y-76412644D01*
X117351809Y-76616212D01*
X117372572Y-76823593D01*
X117678641Y-76823593D01*
X117676817Y-76703677D01*
X117640476Y-76470259D01*
X117570859Y-76244279D01*
X117560352Y-76218143D01*
X117450716Y-75997588D01*
X117312852Y-75795959D01*
X117149913Y-75616273D01*
X116965054Y-75461549D01*
X116761427Y-75334804D01*
X116542187Y-75239055D01*
X116534305Y-75236314D01*
X116340616Y-75185102D01*
X116129843Y-75156771D01*
X115912613Y-75151461D01*
X115699548Y-75169312D01*
X115699548Y-75169312D01*
G37*
X115699548Y-75169312D02*
X115501275Y-75210462D01*
X115462053Y-75222223D01*
X115238400Y-75311488D01*
X115029651Y-75430744D01*
X114839534Y-75576676D01*
X114671776Y-75745969D01*
X114530104Y-75935308D01*
X114418245Y-76141376D01*
X114411431Y-76156794D01*
X114334110Y-76376758D01*
X114287539Y-76606675D01*
X114271301Y-76841356D01*
X114284982Y-77075611D01*
X114328168Y-77304251D01*
X114400442Y-77522086D01*
X114501390Y-77723927D01*
X114541842Y-77787500D01*
X114689518Y-77975499D01*
X114861038Y-78140048D01*
X115052485Y-78279516D01*
X115259941Y-78392273D01*
X115479492Y-78476687D01*
X115707219Y-78531128D01*
X115939207Y-78553963D01*
X116171539Y-78543563D01*
X116304786Y-78521684D01*
X116551183Y-78452314D01*
X116778750Y-78351971D01*
X116986853Y-78221071D01*
X117174853Y-78060030D01*
X117342113Y-77869264D01*
X117377783Y-77820947D01*
X117499938Y-77619507D01*
X117591444Y-77402448D01*
X117651776Y-77174383D01*
X117680409Y-76939923D01*
X117678641Y-76823593D01*
X117372572Y-76823593D01*
X117360738Y-77031538D01*
X117316092Y-77236799D01*
X117238416Y-77436129D01*
X117127496Y-77626280D01*
X117069925Y-77703910D01*
X116923303Y-77860609D01*
X116751635Y-77995442D01*
X116561670Y-78104028D01*
X116360160Y-78181981D01*
X116313857Y-78194867D01*
X116169230Y-78220972D01*
X116006996Y-78231701D01*
X115841947Y-78227064D01*
X115688876Y-78207073D01*
X115632581Y-78194329D01*
X115479449Y-78142458D01*
X115320059Y-78067836D01*
X115168485Y-77977765D01*
X115058807Y-77896597D01*
X114905184Y-77746264D01*
X114779824Y-77575698D01*
X114683725Y-77388611D01*
X114617890Y-77188716D01*
X114583317Y-76979726D01*
X114581008Y-76765353D01*
X114611961Y-76549311D01*
X114654746Y-76396748D01*
X114727973Y-76222824D01*
X114826239Y-76062429D01*
X114954267Y-75908287D01*
X115006151Y-75855286D01*
X115174396Y-75711997D01*
X115355355Y-75601805D01*
X115551537Y-75523596D01*
X115765449Y-75476257D01*
X115890447Y-75463054D01*
X116113940Y-75465118D01*
X116329153Y-75501944D01*
X116533454Y-75572550D01*
X116724208Y-75675951D01*
X116898782Y-75811166D01*
X116947106Y-75857288D01*
X117096097Y-76029934D01*
X117213355Y-76216135D01*
X117298664Y-76412644D01*
X117351809Y-76616212D01*
X117372572Y-76823593D01*
X117678641Y-76823593D01*
X117676817Y-76703677D01*
X117640476Y-76470259D01*
X117570859Y-76244279D01*
X117560352Y-76218143D01*
X117450716Y-75997588D01*
X117312852Y-75795959D01*
X117149913Y-75616273D01*
X116965054Y-75461549D01*
X116761427Y-75334804D01*
X116542187Y-75239055D01*
X116534305Y-75236314D01*
X116340616Y-75185102D01*
X116129843Y-75156771D01*
X115912613Y-75151461D01*
X115699548Y-75169312D01*
G36*
X112126143Y-75158740D02*
X111893079Y-75197254D01*
X111669769Y-75266186D01*
X111476833Y-75356776D01*
X111269738Y-75492559D01*
X111086370Y-75653907D01*
X110928970Y-75837913D01*
X110799774Y-76041671D01*
X110701024Y-76262273D01*
X110649912Y-76430390D01*
X110624681Y-76570681D01*
X110610853Y-76732520D01*
X110608435Y-76903210D01*
X110617432Y-77070057D01*
X110637849Y-77220362D01*
X110649515Y-77274225D01*
X110720871Y-77497520D01*
X110820740Y-77701300D01*
X110951523Y-77889705D01*
X111100780Y-78052600D01*
X111296204Y-78219306D01*
X111505784Y-78352926D01*
X111731457Y-78454542D01*
X111927722Y-78514217D01*
X112028577Y-78532202D01*
X112152780Y-78544235D01*
X112287834Y-78549997D01*
X112421241Y-78549170D01*
X112540505Y-78541436D01*
X112609685Y-78531588D01*
X112841131Y-78472328D01*
X113052754Y-78386066D01*
X113249209Y-78270249D01*
X113435147Y-78122321D01*
X113540044Y-78020764D01*
X113698286Y-77836506D01*
X113822870Y-77643922D01*
X113916197Y-77438741D01*
X113972731Y-77251289D01*
X113991917Y-77141727D01*
X114004317Y-77008881D01*
X114009754Y-76864675D01*
X114009671Y-76857607D01*
X113701167Y-76857607D01*
X113694215Y-77013655D01*
X113673128Y-77154429D01*
X113667241Y-77179413D01*
X113597204Y-77383893D01*
X113494823Y-77576730D01*
X113363454Y-77752767D01*
X113206456Y-77906846D01*
X113179246Y-77929066D01*
X113067706Y-78012798D01*
X112966587Y-78076164D01*
X112862813Y-78126442D01*
X112746932Y-78169699D01*
X112542990Y-78219973D01*
X112328685Y-78239120D01*
X112112769Y-78226855D01*
X111950643Y-78195751D01*
X111761461Y-78129796D01*
X111579039Y-78032656D01*
X111409259Y-77909171D01*
X111258003Y-77764184D01*
X111131153Y-77602536D01*
X111043937Y-77449403D01*
X110990362Y-77324954D01*
X110953582Y-77209559D01*
X110931035Y-77091070D01*
X110920159Y-76957342D01*
X110918125Y-76853143D01*
X110921493Y-76708101D01*
X110934246Y-76586094D01*
X110959301Y-76474453D01*
X110999572Y-76360509D01*
X111057975Y-76231592D01*
X111063960Y-76219353D01*
X111104333Y-76141167D01*
X111143441Y-76076933D01*
X111188448Y-76017107D01*
X111246517Y-75952143D01*
X111322654Y-75874639D01*
X111416642Y-75784968D01*
X111497690Y-75716951D01*
X111574943Y-75663449D01*
X111642250Y-75625206D01*
X111850218Y-75536140D01*
X112066631Y-75480986D01*
X112287434Y-75460044D01*
X112508577Y-75473611D01*
X112726007Y-75521987D01*
X112783345Y-75540982D01*
X112966559Y-75624450D01*
X113139753Y-75738950D01*
X113298183Y-75879614D01*
X113437102Y-76041574D01*
X113551764Y-76219961D01*
X113637424Y-76409907D01*
X113641415Y-76421211D01*
X113674347Y-76549047D01*
X113694404Y-76698625D01*
X113701167Y-76857607D01*
X114009671Y-76857607D01*
X114008052Y-76721033D01*
X113999036Y-76589880D01*
X113983989Y-76489842D01*
X113917876Y-76263721D01*
X113819181Y-76048389D01*
X113690928Y-75847646D01*
X113536142Y-75665295D01*
X113357847Y-75505137D01*
X113159069Y-75370976D01*
X113046978Y-75311965D01*
X112829379Y-75227255D01*
X112599742Y-75173585D01*
X112363514Y-75150798D01*
X112126143Y-75158740D01*
X112126143Y-75158740D01*
G37*
X112126143Y-75158740D02*
X111893079Y-75197254D01*
X111669769Y-75266186D01*
X111476833Y-75356776D01*
X111269738Y-75492559D01*
X111086370Y-75653907D01*
X110928970Y-75837913D01*
X110799774Y-76041671D01*
X110701024Y-76262273D01*
X110649912Y-76430390D01*
X110624681Y-76570681D01*
X110610853Y-76732520D01*
X110608435Y-76903210D01*
X110617432Y-77070057D01*
X110637849Y-77220362D01*
X110649515Y-77274225D01*
X110720871Y-77497520D01*
X110820740Y-77701300D01*
X110951523Y-77889705D01*
X111100780Y-78052600D01*
X111296204Y-78219306D01*
X111505784Y-78352926D01*
X111731457Y-78454542D01*
X111927722Y-78514217D01*
X112028577Y-78532202D01*
X112152780Y-78544235D01*
X112287834Y-78549997D01*
X112421241Y-78549170D01*
X112540505Y-78541436D01*
X112609685Y-78531588D01*
X112841131Y-78472328D01*
X113052754Y-78386066D01*
X113249209Y-78270249D01*
X113435147Y-78122321D01*
X113540044Y-78020764D01*
X113698286Y-77836506D01*
X113822870Y-77643922D01*
X113916197Y-77438741D01*
X113972731Y-77251289D01*
X113991917Y-77141727D01*
X114004317Y-77008881D01*
X114009754Y-76864675D01*
X114009671Y-76857607D01*
X113701167Y-76857607D01*
X113694215Y-77013655D01*
X113673128Y-77154429D01*
X113667241Y-77179413D01*
X113597204Y-77383893D01*
X113494823Y-77576730D01*
X113363454Y-77752767D01*
X113206456Y-77906846D01*
X113179246Y-77929066D01*
X113067706Y-78012798D01*
X112966587Y-78076164D01*
X112862813Y-78126442D01*
X112746932Y-78169699D01*
X112542990Y-78219973D01*
X112328685Y-78239120D01*
X112112769Y-78226855D01*
X111950643Y-78195751D01*
X111761461Y-78129796D01*
X111579039Y-78032656D01*
X111409259Y-77909171D01*
X111258003Y-77764184D01*
X111131153Y-77602536D01*
X111043937Y-77449403D01*
X110990362Y-77324954D01*
X110953582Y-77209559D01*
X110931035Y-77091070D01*
X110920159Y-76957342D01*
X110918125Y-76853143D01*
X110921493Y-76708101D01*
X110934246Y-76586094D01*
X110959301Y-76474453D01*
X110999572Y-76360509D01*
X111057975Y-76231592D01*
X111063960Y-76219353D01*
X111104333Y-76141167D01*
X111143441Y-76076933D01*
X111188448Y-76017107D01*
X111246517Y-75952143D01*
X111322654Y-75874639D01*
X111416642Y-75784968D01*
X111497690Y-75716951D01*
X111574943Y-75663449D01*
X111642250Y-75625206D01*
X111850218Y-75536140D01*
X112066631Y-75480986D01*
X112287434Y-75460044D01*
X112508577Y-75473611D01*
X112726007Y-75521987D01*
X112783345Y-75540982D01*
X112966559Y-75624450D01*
X113139753Y-75738950D01*
X113298183Y-75879614D01*
X113437102Y-76041574D01*
X113551764Y-76219961D01*
X113637424Y-76409907D01*
X113641415Y-76421211D01*
X113674347Y-76549047D01*
X113694404Y-76698625D01*
X113701167Y-76857607D01*
X114009671Y-76857607D01*
X114008052Y-76721033D01*
X113999036Y-76589880D01*
X113983989Y-76489842D01*
X113917876Y-76263721D01*
X113819181Y-76048389D01*
X113690928Y-75847646D01*
X113536142Y-75665295D01*
X113357847Y-75505137D01*
X113159069Y-75370976D01*
X113046978Y-75311965D01*
X112829379Y-75227255D01*
X112599742Y-75173585D01*
X112363514Y-75150798D01*
X112126143Y-75158740D01*
G36*
X108485503Y-75157048D02*
X108250036Y-75194157D01*
X108023759Y-75261043D01*
X107812162Y-75357012D01*
X107708874Y-75418755D01*
X107509901Y-75569803D01*
X107337523Y-75744231D01*
X107193435Y-75939674D01*
X107079330Y-76153767D01*
X106996903Y-76384145D01*
X106985098Y-76429017D01*
X106959172Y-76572181D01*
X106945149Y-76736654D01*
X106943034Y-76909642D01*
X106952830Y-77078350D01*
X106974545Y-77229984D01*
X106984772Y-77275896D01*
X107054977Y-77496014D01*
X107152282Y-77696150D01*
X107279616Y-77881302D01*
X107439904Y-78056468D01*
X107444556Y-78060952D01*
X107610822Y-78206149D01*
X107778135Y-78321251D01*
X107955117Y-78411649D01*
X108085724Y-78461876D01*
X108314989Y-78522526D01*
X108552059Y-78552256D01*
X108788262Y-78550379D01*
X108947857Y-78530000D01*
X109173169Y-78471381D01*
X109389193Y-78380550D01*
X109592176Y-78260774D01*
X109778369Y-78115321D01*
X109944020Y-77947458D01*
X110085378Y-77760453D01*
X110198692Y-77557574D01*
X110268817Y-77379286D01*
X110302542Y-77264110D01*
X110325240Y-77158330D01*
X110338227Y-77050805D01*
X110342817Y-76930390D01*
X110341391Y-76847653D01*
X110036114Y-76847653D01*
X110027568Y-77024028D01*
X110000672Y-77180411D01*
X109952522Y-77329643D01*
X109901621Y-77442786D01*
X109784253Y-77641105D01*
X109642369Y-77812745D01*
X109475274Y-77958399D01*
X109282274Y-78078761D01*
X109245015Y-78097654D01*
X109133396Y-78148919D01*
X109033375Y-78185444D01*
X108934907Y-78209190D01*
X108827948Y-78222115D01*
X108702452Y-78226182D01*
X108594072Y-78224701D01*
X108478217Y-78220462D01*
X108389579Y-78213873D01*
X108319111Y-78203794D01*
X108257764Y-78189087D01*
X108222535Y-78177897D01*
X108057548Y-78113043D01*
X107914386Y-78036601D01*
X107781326Y-77941262D01*
X107646648Y-77819717D01*
X107643995Y-77817105D01*
X107565663Y-77735668D01*
X107502539Y-77661668D01*
X107457568Y-77599215D01*
X107433693Y-77552421D01*
X107433858Y-77525396D01*
X107434569Y-77524619D01*
X107455290Y-77512732D01*
X107502543Y-77489544D01*
X107569718Y-77458012D01*
X107650208Y-77421097D01*
X107737405Y-77381758D01*
X107824700Y-77342955D01*
X107905484Y-77307646D01*
X107973151Y-77278792D01*
X108021091Y-77259352D01*
X108042653Y-77252286D01*
X108056537Y-77267531D01*
X108073542Y-77304726D01*
X108075300Y-77309635D01*
X108128131Y-77408238D01*
X108210592Y-77493617D01*
X108317069Y-77561175D01*
X108435792Y-77604775D01*
X108521500Y-77626694D01*
X108523624Y-77752454D01*
X108525747Y-77878214D01*
X108721072Y-77878214D01*
X108731642Y-77619660D01*
X108838334Y-77607589D01*
X108933325Y-77586440D01*
X109038090Y-77546814D01*
X109136539Y-77495683D01*
X109200634Y-77450597D01*
X109244769Y-77413461D01*
X109124149Y-77292841D01*
X109003529Y-77172222D01*
X108961860Y-77211367D01*
X108890156Y-77261820D01*
X108801567Y-77299262D01*
X108705703Y-77322079D01*
X108612174Y-77328657D01*
X108530592Y-77317382D01*
X108477917Y-77292629D01*
X108448228Y-77264061D01*
X108434294Y-77227767D01*
X108430786Y-77169737D01*
X108430786Y-77168720D01*
X108432891Y-77114130D01*
X108443860Y-77082513D01*
X108470677Y-77060605D01*
X108494286Y-77048102D01*
X108545145Y-77023646D01*
X108620455Y-76988905D01*
X108716127Y-76945654D01*
X108828074Y-76895670D01*
X108952207Y-76840728D01*
X109084440Y-76782603D01*
X109220685Y-76723071D01*
X109356855Y-76663907D01*
X109488860Y-76606887D01*
X109612615Y-76553787D01*
X109724031Y-76506382D01*
X109819020Y-76466448D01*
X109893495Y-76435760D01*
X109943369Y-76416094D01*
X109964554Y-76409225D01*
X109964921Y-76409300D01*
X109980406Y-76435329D01*
X109996154Y-76489686D01*
X110010877Y-76564442D01*
X110023288Y-76651675D01*
X110032101Y-76743456D01*
X110036026Y-76831861D01*
X110036114Y-76847653D01*
X110341391Y-76847653D01*
X110340327Y-76785944D01*
X110339984Y-76776368D01*
X110319955Y-76546914D01*
X110276013Y-76340014D01*
X110205731Y-76148979D01*
X110168271Y-76080202D01*
X109800370Y-76080202D01*
X109784834Y-76096931D01*
X109744278Y-76121615D01*
X109687456Y-76148932D01*
X109686978Y-76149139D01*
X109623509Y-76176798D01*
X109538871Y-76213991D01*
X109445024Y-76255452D01*
X109369626Y-76288920D01*
X109165466Y-76379776D01*
X109128740Y-76307787D01*
X109063521Y-76219738D01*
X108967212Y-76149984D01*
X108840204Y-76098778D01*
X108780036Y-76083355D01*
X108753921Y-76075755D01*
X108739003Y-76061700D01*
X108732150Y-76032547D01*
X108730231Y-75979657D01*
X108730143Y-75945654D01*
X108730143Y-75819000D01*
X108530572Y-75819000D01*
X108530572Y-76071356D01*
X108462536Y-76082508D01*
X108379886Y-76101662D01*
X108291556Y-76131024D01*
X108210686Y-76165534D01*
X108150416Y-76200133D01*
X108143615Y-76205297D01*
X108093617Y-76245357D01*
X108312379Y-76461463D01*
X108398304Y-76419717D01*
X108490987Y-76385182D01*
X108583525Y-76369011D01*
X108669078Y-76370488D01*
X108740805Y-76388896D01*
X108791866Y-76423519D01*
X108813440Y-76463204D01*
X108817080Y-76504064D01*
X108809550Y-76526973D01*
X108789780Y-76537779D01*
X108740925Y-76561267D01*
X108667097Y-76595610D01*
X108572404Y-76638976D01*
X108460954Y-76689538D01*
X108336858Y-76745464D01*
X108204225Y-76804927D01*
X108067163Y-76866096D01*
X107929782Y-76927142D01*
X107796191Y-76986236D01*
X107670499Y-77041547D01*
X107556816Y-77091248D01*
X107459250Y-77133508D01*
X107381911Y-77166498D01*
X107328909Y-77188388D01*
X107304351Y-77197349D01*
X107303508Y-77197469D01*
X107285258Y-77182183D01*
X107272171Y-77147964D01*
X107249989Y-76985735D01*
X107247473Y-76807093D01*
X107263826Y-76625588D01*
X107298247Y-76454770D01*
X107316697Y-76393069D01*
X107391659Y-76220202D01*
X107497428Y-76052790D01*
X107628527Y-75896628D01*
X107779478Y-75757512D01*
X107944805Y-75641238D01*
X108104252Y-75559693D01*
X108306208Y-75493972D01*
X108517457Y-75460900D01*
X108732437Y-75460022D01*
X108945585Y-75490881D01*
X109151339Y-75553022D01*
X109344134Y-75645989D01*
X109373399Y-75663688D01*
X109429043Y-75702976D01*
X109495006Y-75756620D01*
X109565806Y-75819270D01*
X109635956Y-75885576D01*
X109699972Y-75950187D01*
X109752369Y-76007754D01*
X109787662Y-76052925D01*
X109800370Y-76080202D01*
X110168271Y-76080202D01*
X110106681Y-75967123D01*
X109984957Y-75798302D01*
X109838261Y-75637592D01*
X109671717Y-75493384D01*
X109492682Y-75370939D01*
X109308511Y-75275517D01*
X109192154Y-75231319D01*
X108962051Y-75174936D01*
X108724671Y-75150410D01*
X108485503Y-75157048D01*
X108485503Y-75157048D01*
G37*
X108485503Y-75157048D02*
X108250036Y-75194157D01*
X108023759Y-75261043D01*
X107812162Y-75357012D01*
X107708874Y-75418755D01*
X107509901Y-75569803D01*
X107337523Y-75744231D01*
X107193435Y-75939674D01*
X107079330Y-76153767D01*
X106996903Y-76384145D01*
X106985098Y-76429017D01*
X106959172Y-76572181D01*
X106945149Y-76736654D01*
X106943034Y-76909642D01*
X106952830Y-77078350D01*
X106974545Y-77229984D01*
X106984772Y-77275896D01*
X107054977Y-77496014D01*
X107152282Y-77696150D01*
X107279616Y-77881302D01*
X107439904Y-78056468D01*
X107444556Y-78060952D01*
X107610822Y-78206149D01*
X107778135Y-78321251D01*
X107955117Y-78411649D01*
X108085724Y-78461876D01*
X108314989Y-78522526D01*
X108552059Y-78552256D01*
X108788262Y-78550379D01*
X108947857Y-78530000D01*
X109173169Y-78471381D01*
X109389193Y-78380550D01*
X109592176Y-78260774D01*
X109778369Y-78115321D01*
X109944020Y-77947458D01*
X110085378Y-77760453D01*
X110198692Y-77557574D01*
X110268817Y-77379286D01*
X110302542Y-77264110D01*
X110325240Y-77158330D01*
X110338227Y-77050805D01*
X110342817Y-76930390D01*
X110341391Y-76847653D01*
X110036114Y-76847653D01*
X110027568Y-77024028D01*
X110000672Y-77180411D01*
X109952522Y-77329643D01*
X109901621Y-77442786D01*
X109784253Y-77641105D01*
X109642369Y-77812745D01*
X109475274Y-77958399D01*
X109282274Y-78078761D01*
X109245015Y-78097654D01*
X109133396Y-78148919D01*
X109033375Y-78185444D01*
X108934907Y-78209190D01*
X108827948Y-78222115D01*
X108702452Y-78226182D01*
X108594072Y-78224701D01*
X108478217Y-78220462D01*
X108389579Y-78213873D01*
X108319111Y-78203794D01*
X108257764Y-78189087D01*
X108222535Y-78177897D01*
X108057548Y-78113043D01*
X107914386Y-78036601D01*
X107781326Y-77941262D01*
X107646648Y-77819717D01*
X107643995Y-77817105D01*
X107565663Y-77735668D01*
X107502539Y-77661668D01*
X107457568Y-77599215D01*
X107433693Y-77552421D01*
X107433858Y-77525396D01*
X107434569Y-77524619D01*
X107455290Y-77512732D01*
X107502543Y-77489544D01*
X107569718Y-77458012D01*
X107650208Y-77421097D01*
X107737405Y-77381758D01*
X107824700Y-77342955D01*
X107905484Y-77307646D01*
X107973151Y-77278792D01*
X108021091Y-77259352D01*
X108042653Y-77252286D01*
X108056537Y-77267531D01*
X108073542Y-77304726D01*
X108075300Y-77309635D01*
X108128131Y-77408238D01*
X108210592Y-77493617D01*
X108317069Y-77561175D01*
X108435792Y-77604775D01*
X108521500Y-77626694D01*
X108523624Y-77752454D01*
X108525747Y-77878214D01*
X108721072Y-77878214D01*
X108731642Y-77619660D01*
X108838334Y-77607589D01*
X108933325Y-77586440D01*
X109038090Y-77546814D01*
X109136539Y-77495683D01*
X109200634Y-77450597D01*
X109244769Y-77413461D01*
X109124149Y-77292841D01*
X109003529Y-77172222D01*
X108961860Y-77211367D01*
X108890156Y-77261820D01*
X108801567Y-77299262D01*
X108705703Y-77322079D01*
X108612174Y-77328657D01*
X108530592Y-77317382D01*
X108477917Y-77292629D01*
X108448228Y-77264061D01*
X108434294Y-77227767D01*
X108430786Y-77169737D01*
X108430786Y-77168720D01*
X108432891Y-77114130D01*
X108443860Y-77082513D01*
X108470677Y-77060605D01*
X108494286Y-77048102D01*
X108545145Y-77023646D01*
X108620455Y-76988905D01*
X108716127Y-76945654D01*
X108828074Y-76895670D01*
X108952207Y-76840728D01*
X109084440Y-76782603D01*
X109220685Y-76723071D01*
X109356855Y-76663907D01*
X109488860Y-76606887D01*
X109612615Y-76553787D01*
X109724031Y-76506382D01*
X109819020Y-76466448D01*
X109893495Y-76435760D01*
X109943369Y-76416094D01*
X109964554Y-76409225D01*
X109964921Y-76409300D01*
X109980406Y-76435329D01*
X109996154Y-76489686D01*
X110010877Y-76564442D01*
X110023288Y-76651675D01*
X110032101Y-76743456D01*
X110036026Y-76831861D01*
X110036114Y-76847653D01*
X110341391Y-76847653D01*
X110340327Y-76785944D01*
X110339984Y-76776368D01*
X110319955Y-76546914D01*
X110276013Y-76340014D01*
X110205731Y-76148979D01*
X110168271Y-76080202D01*
X109800370Y-76080202D01*
X109784834Y-76096931D01*
X109744278Y-76121615D01*
X109687456Y-76148932D01*
X109686978Y-76149139D01*
X109623509Y-76176798D01*
X109538871Y-76213991D01*
X109445024Y-76255452D01*
X109369626Y-76288920D01*
X109165466Y-76379776D01*
X109128740Y-76307787D01*
X109063521Y-76219738D01*
X108967212Y-76149984D01*
X108840204Y-76098778D01*
X108780036Y-76083355D01*
X108753921Y-76075755D01*
X108739003Y-76061700D01*
X108732150Y-76032547D01*
X108730231Y-75979657D01*
X108730143Y-75945654D01*
X108730143Y-75819000D01*
X108530572Y-75819000D01*
X108530572Y-76071356D01*
X108462536Y-76082508D01*
X108379886Y-76101662D01*
X108291556Y-76131024D01*
X108210686Y-76165534D01*
X108150416Y-76200133D01*
X108143615Y-76205297D01*
X108093617Y-76245357D01*
X108312379Y-76461463D01*
X108398304Y-76419717D01*
X108490987Y-76385182D01*
X108583525Y-76369011D01*
X108669078Y-76370488D01*
X108740805Y-76388896D01*
X108791866Y-76423519D01*
X108813440Y-76463204D01*
X108817080Y-76504064D01*
X108809550Y-76526973D01*
X108789780Y-76537779D01*
X108740925Y-76561267D01*
X108667097Y-76595610D01*
X108572404Y-76638976D01*
X108460954Y-76689538D01*
X108336858Y-76745464D01*
X108204225Y-76804927D01*
X108067163Y-76866096D01*
X107929782Y-76927142D01*
X107796191Y-76986236D01*
X107670499Y-77041547D01*
X107556816Y-77091248D01*
X107459250Y-77133508D01*
X107381911Y-77166498D01*
X107328909Y-77188388D01*
X107304351Y-77197349D01*
X107303508Y-77197469D01*
X107285258Y-77182183D01*
X107272171Y-77147964D01*
X107249989Y-76985735D01*
X107247473Y-76807093D01*
X107263826Y-76625588D01*
X107298247Y-76454770D01*
X107316697Y-76393069D01*
X107391659Y-76220202D01*
X107497428Y-76052790D01*
X107628527Y-75896628D01*
X107779478Y-75757512D01*
X107944805Y-75641238D01*
X108104252Y-75559693D01*
X108306208Y-75493972D01*
X108517457Y-75460900D01*
X108732437Y-75460022D01*
X108945585Y-75490881D01*
X109151339Y-75553022D01*
X109344134Y-75645989D01*
X109373399Y-75663688D01*
X109429043Y-75702976D01*
X109495006Y-75756620D01*
X109565806Y-75819270D01*
X109635956Y-75885576D01*
X109699972Y-75950187D01*
X109752369Y-76007754D01*
X109787662Y-76052925D01*
X109800370Y-76080202D01*
X110168271Y-76080202D01*
X110106681Y-75967123D01*
X109984957Y-75798302D01*
X109838261Y-75637592D01*
X109671717Y-75493384D01*
X109492682Y-75370939D01*
X109308511Y-75275517D01*
X109192154Y-75231319D01*
X108962051Y-75174936D01*
X108724671Y-75150410D01*
X108485503Y-75157048D01*
G36*
X104819158Y-75157065D02*
X104574011Y-75196510D01*
X104439357Y-75233091D01*
X104220738Y-75320062D01*
X104015393Y-75439316D01*
X103826704Y-75588223D01*
X103658055Y-75764156D01*
X103527117Y-75942007D01*
X103418079Y-76143405D01*
X103339231Y-76360126D01*
X103290539Y-76587417D01*
X103271971Y-76820521D01*
X103283492Y-77054682D01*
X103325069Y-77285144D01*
X103396670Y-77507153D01*
X103498260Y-77715951D01*
X103540024Y-77783698D01*
X103678835Y-77964568D01*
X103845614Y-78128309D01*
X104034429Y-78270725D01*
X104239345Y-78387615D01*
X104454427Y-78474782D01*
X104559218Y-78504753D01*
X104726846Y-78535578D01*
X104908223Y-78550724D01*
X105089739Y-78549879D01*
X105257783Y-78532733D01*
X105314660Y-78522012D01*
X105548513Y-78456211D01*
X105760912Y-78364022D01*
X105956819Y-78242644D01*
X106141194Y-78089278D01*
X106219835Y-78011054D01*
X106378265Y-77820678D01*
X106503632Y-77615431D01*
X106595709Y-77395879D01*
X106654270Y-77162589D01*
X106679089Y-76916130D01*
X106680000Y-76857240D01*
X106679165Y-76842953D01*
X106368746Y-76842953D01*
X106365242Y-76981854D01*
X106351280Y-77105671D01*
X106345341Y-77136355D01*
X106283355Y-77339650D01*
X106190087Y-77530355D01*
X106069103Y-77705200D01*
X105923967Y-77860918D01*
X105758245Y-77994241D01*
X105575502Y-78101900D01*
X105379302Y-78180626D01*
X105173211Y-78227153D01*
X105152501Y-78229872D01*
X104994650Y-78238679D01*
X104825222Y-78230219D01*
X104663797Y-78205751D01*
X104620929Y-78195751D01*
X104433122Y-78130399D01*
X104250378Y-78033982D01*
X104079565Y-77911679D01*
X103927551Y-77768665D01*
X103801206Y-77610117D01*
X103762448Y-77548739D01*
X103676438Y-77368659D01*
X103617184Y-77170649D01*
X103585689Y-76962345D01*
X103582957Y-76751381D01*
X103609993Y-76545390D01*
X103623134Y-76489256D01*
X103690107Y-76299423D01*
X103788666Y-76117592D01*
X103914184Y-75949402D01*
X104062040Y-75800493D01*
X104227608Y-75676504D01*
X104342481Y-75611973D01*
X104472715Y-75552244D01*
X104587540Y-75510740D01*
X104699557Y-75484564D01*
X104821368Y-75470817D01*
X104965576Y-75466600D01*
X104974572Y-75466587D01*
X105151205Y-75473808D01*
X105305752Y-75497423D01*
X105449749Y-75540180D01*
X105594731Y-75604827D01*
X105627715Y-75622158D01*
X105807183Y-75738579D01*
X105969951Y-75883706D01*
X106111495Y-76052062D01*
X106227292Y-76238172D01*
X106312820Y-76436559D01*
X106321035Y-76461562D01*
X106346189Y-76570226D01*
X106362244Y-76701551D01*
X106368746Y-76842953D01*
X106679165Y-76842953D01*
X106665698Y-76612568D01*
X106621745Y-76386369D01*
X106546570Y-76174134D01*
X106438604Y-75971355D01*
X106307303Y-75787196D01*
X106140217Y-75606335D01*
X105952942Y-75454266D01*
X105748488Y-75331881D01*
X105529871Y-75240075D01*
X105300101Y-75179741D01*
X105062193Y-75151773D01*
X104819158Y-75157065D01*
X104819158Y-75157065D01*
G37*
X104819158Y-75157065D02*
X104574011Y-75196510D01*
X104439357Y-75233091D01*
X104220738Y-75320062D01*
X104015393Y-75439316D01*
X103826704Y-75588223D01*
X103658055Y-75764156D01*
X103527117Y-75942007D01*
X103418079Y-76143405D01*
X103339231Y-76360126D01*
X103290539Y-76587417D01*
X103271971Y-76820521D01*
X103283492Y-77054682D01*
X103325069Y-77285144D01*
X103396670Y-77507153D01*
X103498260Y-77715951D01*
X103540024Y-77783698D01*
X103678835Y-77964568D01*
X103845614Y-78128309D01*
X104034429Y-78270725D01*
X104239345Y-78387615D01*
X104454427Y-78474782D01*
X104559218Y-78504753D01*
X104726846Y-78535578D01*
X104908223Y-78550724D01*
X105089739Y-78549879D01*
X105257783Y-78532733D01*
X105314660Y-78522012D01*
X105548513Y-78456211D01*
X105760912Y-78364022D01*
X105956819Y-78242644D01*
X106141194Y-78089278D01*
X106219835Y-78011054D01*
X106378265Y-77820678D01*
X106503632Y-77615431D01*
X106595709Y-77395879D01*
X106654270Y-77162589D01*
X106679089Y-76916130D01*
X106680000Y-76857240D01*
X106679165Y-76842953D01*
X106368746Y-76842953D01*
X106365242Y-76981854D01*
X106351280Y-77105671D01*
X106345341Y-77136355D01*
X106283355Y-77339650D01*
X106190087Y-77530355D01*
X106069103Y-77705200D01*
X105923967Y-77860918D01*
X105758245Y-77994241D01*
X105575502Y-78101900D01*
X105379302Y-78180626D01*
X105173211Y-78227153D01*
X105152501Y-78229872D01*
X104994650Y-78238679D01*
X104825222Y-78230219D01*
X104663797Y-78205751D01*
X104620929Y-78195751D01*
X104433122Y-78130399D01*
X104250378Y-78033982D01*
X104079565Y-77911679D01*
X103927551Y-77768665D01*
X103801206Y-77610117D01*
X103762448Y-77548739D01*
X103676438Y-77368659D01*
X103617184Y-77170649D01*
X103585689Y-76962345D01*
X103582957Y-76751381D01*
X103609993Y-76545390D01*
X103623134Y-76489256D01*
X103690107Y-76299423D01*
X103788666Y-76117592D01*
X103914184Y-75949402D01*
X104062040Y-75800493D01*
X104227608Y-75676504D01*
X104342481Y-75611973D01*
X104472715Y-75552244D01*
X104587540Y-75510740D01*
X104699557Y-75484564D01*
X104821368Y-75470817D01*
X104965576Y-75466600D01*
X104974572Y-75466587D01*
X105151205Y-75473808D01*
X105305752Y-75497423D01*
X105449749Y-75540180D01*
X105594731Y-75604827D01*
X105627715Y-75622158D01*
X105807183Y-75738579D01*
X105969951Y-75883706D01*
X106111495Y-76052062D01*
X106227292Y-76238172D01*
X106312820Y-76436559D01*
X106321035Y-76461562D01*
X106346189Y-76570226D01*
X106362244Y-76701551D01*
X106368746Y-76842953D01*
X106679165Y-76842953D01*
X106665698Y-76612568D01*
X106621745Y-76386369D01*
X106546570Y-76174134D01*
X106438604Y-75971355D01*
X106307303Y-75787196D01*
X106140217Y-75606335D01*
X105952942Y-75454266D01*
X105748488Y-75331881D01*
X105529871Y-75240075D01*
X105300101Y-75179741D01*
X105062193Y-75151773D01*
X104819158Y-75157065D01*
G36*
X116333953Y-76334561D02*
X116247446Y-76352161D01*
X116239031Y-76354965D01*
X116190535Y-76379033D01*
X116134831Y-76416797D01*
X116080408Y-76461057D01*
X116035751Y-76504610D01*
X116009348Y-76540254D01*
X116005644Y-76553027D01*
X116020520Y-76570674D01*
X116059301Y-76598724D01*
X116113252Y-76630912D01*
X116220645Y-76689896D01*
X116259091Y-76635903D01*
X116318835Y-76580917D01*
X116394000Y-76554761D01*
X116474781Y-76560180D01*
X116499283Y-76568639D01*
X116562088Y-76606686D01*
X116603801Y-76662723D01*
X116628060Y-76743057D01*
X116635720Y-76805165D01*
X116635108Y-76921167D01*
X116611607Y-77012082D01*
X116564001Y-77081926D01*
X116547111Y-77097478D01*
X116481622Y-77133108D01*
X116406913Y-77144361D01*
X116333584Y-77132538D01*
X116272234Y-77098942D01*
X116240213Y-77059782D01*
X116218724Y-77029672D01*
X116191887Y-77019365D01*
X116152118Y-77029242D01*
X116091833Y-77059686D01*
X116077104Y-77068015D01*
X115986780Y-77119602D01*
X116061814Y-77204845D01*
X116148971Y-77287843D01*
X116241414Y-77340228D01*
X116349562Y-77366957D01*
X116413643Y-77372288D01*
X116486805Y-77373034D01*
X116553044Y-77369665D01*
X116595072Y-77363499D01*
X116708229Y-77316018D01*
X116806183Y-77239686D01*
X116881717Y-77141046D01*
X116912688Y-77075452D01*
X116942380Y-76952926D01*
X116948053Y-76818503D01*
X116929748Y-76687453D01*
X116911555Y-76627805D01*
X116863897Y-76538958D01*
X116793931Y-76456320D01*
X116711605Y-76389638D01*
X116626867Y-76348659D01*
X116626564Y-76348568D01*
X116539851Y-76332494D01*
X116436868Y-76327915D01*
X116333953Y-76334561D01*
X116333953Y-76334561D01*
G37*
X116333953Y-76334561D02*
X116247446Y-76352161D01*
X116239031Y-76354965D01*
X116190535Y-76379033D01*
X116134831Y-76416797D01*
X116080408Y-76461057D01*
X116035751Y-76504610D01*
X116009348Y-76540254D01*
X116005644Y-76553027D01*
X116020520Y-76570674D01*
X116059301Y-76598724D01*
X116113252Y-76630912D01*
X116220645Y-76689896D01*
X116259091Y-76635903D01*
X116318835Y-76580917D01*
X116394000Y-76554761D01*
X116474781Y-76560180D01*
X116499283Y-76568639D01*
X116562088Y-76606686D01*
X116603801Y-76662723D01*
X116628060Y-76743057D01*
X116635720Y-76805165D01*
X116635108Y-76921167D01*
X116611607Y-77012082D01*
X116564001Y-77081926D01*
X116547111Y-77097478D01*
X116481622Y-77133108D01*
X116406913Y-77144361D01*
X116333584Y-77132538D01*
X116272234Y-77098942D01*
X116240213Y-77059782D01*
X116218724Y-77029672D01*
X116191887Y-77019365D01*
X116152118Y-77029242D01*
X116091833Y-77059686D01*
X116077104Y-77068015D01*
X115986780Y-77119602D01*
X116061814Y-77204845D01*
X116148971Y-77287843D01*
X116241414Y-77340228D01*
X116349562Y-77366957D01*
X116413643Y-77372288D01*
X116486805Y-77373034D01*
X116553044Y-77369665D01*
X116595072Y-77363499D01*
X116708229Y-77316018D01*
X116806183Y-77239686D01*
X116881717Y-77141046D01*
X116912688Y-77075452D01*
X116942380Y-76952926D01*
X116948053Y-76818503D01*
X116929748Y-76687453D01*
X116911555Y-76627805D01*
X116863897Y-76538958D01*
X116793931Y-76456320D01*
X116711605Y-76389638D01*
X116626867Y-76348659D01*
X116626564Y-76348568D01*
X116539851Y-76332494D01*
X116436868Y-76327915D01*
X116333953Y-76334561D01*
G36*
X115415138Y-76329204D02*
X115308550Y-76343754D01*
X115216924Y-76371007D01*
X115183669Y-76387349D01*
X115129115Y-76425177D01*
X115078988Y-76469834D01*
X115040081Y-76513907D01*
X115019184Y-76549981D01*
X115019165Y-76566937D01*
X115039131Y-76582341D01*
X115082001Y-76607670D01*
X115131358Y-76633770D01*
X115234357Y-76685729D01*
X115267776Y-76641347D01*
X115307814Y-76602634D01*
X115359336Y-76569273D01*
X115362397Y-76567779D01*
X115437499Y-76550370D01*
X115513094Y-76563713D01*
X115577866Y-76604468D01*
X115606265Y-76639756D01*
X115642204Y-76727561D01*
X115655591Y-76827552D01*
X115647294Y-76928932D01*
X115618182Y-77020902D01*
X115569925Y-77091867D01*
X115531400Y-77123969D01*
X115489968Y-77139281D01*
X115429733Y-77143413D01*
X115423860Y-77143429D01*
X115364027Y-77140564D01*
X115323513Y-77127248D01*
X115285506Y-77096400D01*
X115267066Y-77077382D01*
X115204776Y-77011335D01*
X115114054Y-77053826D01*
X115062190Y-77079896D01*
X115025268Y-77101765D01*
X115014183Y-77111124D01*
X115017781Y-77136789D01*
X115044432Y-77176255D01*
X115087453Y-77222528D01*
X115140161Y-77268616D01*
X115195872Y-77307524D01*
X115209126Y-77315114D01*
X115314046Y-77355178D01*
X115434788Y-77374238D01*
X115556730Y-77371033D01*
X115642572Y-77352493D01*
X115752540Y-77298284D01*
X115843645Y-77213930D01*
X115908378Y-77112249D01*
X115934270Y-77053917D01*
X115949545Y-77000976D01*
X115956834Y-76939803D01*
X115958772Y-76856776D01*
X115958776Y-76851534D01*
X115957255Y-76768801D01*
X115950852Y-76708821D01*
X115936806Y-76658127D01*
X115912354Y-76603247D01*
X115904807Y-76588301D01*
X115834396Y-76484219D01*
X115743868Y-76402783D01*
X115640323Y-76350076D01*
X115619130Y-76343640D01*
X115523170Y-76328714D01*
X115415138Y-76329204D01*
X115415138Y-76329204D01*
G37*
X115415138Y-76329204D02*
X115308550Y-76343754D01*
X115216924Y-76371007D01*
X115183669Y-76387349D01*
X115129115Y-76425177D01*
X115078988Y-76469834D01*
X115040081Y-76513907D01*
X115019184Y-76549981D01*
X115019165Y-76566937D01*
X115039131Y-76582341D01*
X115082001Y-76607670D01*
X115131358Y-76633770D01*
X115234357Y-76685729D01*
X115267776Y-76641347D01*
X115307814Y-76602634D01*
X115359336Y-76569273D01*
X115362397Y-76567779D01*
X115437499Y-76550370D01*
X115513094Y-76563713D01*
X115577866Y-76604468D01*
X115606265Y-76639756D01*
X115642204Y-76727561D01*
X115655591Y-76827552D01*
X115647294Y-76928932D01*
X115618182Y-77020902D01*
X115569925Y-77091867D01*
X115531400Y-77123969D01*
X115489968Y-77139281D01*
X115429733Y-77143413D01*
X115423860Y-77143429D01*
X115364027Y-77140564D01*
X115323513Y-77127248D01*
X115285506Y-77096400D01*
X115267066Y-77077382D01*
X115204776Y-77011335D01*
X115114054Y-77053826D01*
X115062190Y-77079896D01*
X115025268Y-77101765D01*
X115014183Y-77111124D01*
X115017781Y-77136789D01*
X115044432Y-77176255D01*
X115087453Y-77222528D01*
X115140161Y-77268616D01*
X115195872Y-77307524D01*
X115209126Y-77315114D01*
X115314046Y-77355178D01*
X115434788Y-77374238D01*
X115556730Y-77371033D01*
X115642572Y-77352493D01*
X115752540Y-77298284D01*
X115843645Y-77213930D01*
X115908378Y-77112249D01*
X115934270Y-77053917D01*
X115949545Y-77000976D01*
X115956834Y-76939803D01*
X115958772Y-76856776D01*
X115958776Y-76851534D01*
X115957255Y-76768801D01*
X115950852Y-76708821D01*
X115936806Y-76658127D01*
X115912354Y-76603247D01*
X115904807Y-76588301D01*
X115834396Y-76484219D01*
X115743868Y-76402783D01*
X115640323Y-76350076D01*
X115619130Y-76343640D01*
X115523170Y-76328714D01*
X115415138Y-76329204D01*
G36*
X112174775Y-76327335D02*
X112072561Y-76328542D01*
X111997467Y-76330925D01*
X111944911Y-76334789D01*
X111910315Y-76340437D01*
X111889096Y-76348174D01*
X111879225Y-76355510D01*
X111869373Y-76370294D01*
X111862020Y-76395400D01*
X111856826Y-76435604D01*
X111853449Y-76495681D01*
X111851547Y-76580407D01*
X111850780Y-76694559D01*
X111850715Y-76754653D01*
X111850715Y-77125286D01*
X112050286Y-77125286D01*
X112050286Y-77959857D01*
X112576429Y-77959857D01*
X112576429Y-77125286D01*
X112776000Y-77125286D01*
X112776000Y-76756169D01*
X112775741Y-76630306D01*
X112774688Y-76535727D01*
X112772423Y-76467434D01*
X112768533Y-76420429D01*
X112762602Y-76389711D01*
X112754213Y-76370283D01*
X112742952Y-76357144D01*
X112742822Y-76357026D01*
X112727759Y-76347071D01*
X112704354Y-76339549D01*
X112667890Y-76334132D01*
X112613652Y-76330495D01*
X112536921Y-76328312D01*
X112432983Y-76327256D01*
X112308689Y-76327000D01*
X112174775Y-76327335D01*
X112174775Y-76327335D01*
G37*
X112174775Y-76327335D02*
X112072561Y-76328542D01*
X111997467Y-76330925D01*
X111944911Y-76334789D01*
X111910315Y-76340437D01*
X111889096Y-76348174D01*
X111879225Y-76355510D01*
X111869373Y-76370294D01*
X111862020Y-76395400D01*
X111856826Y-76435604D01*
X111853449Y-76495681D01*
X111851547Y-76580407D01*
X111850780Y-76694559D01*
X111850715Y-76754653D01*
X111850715Y-77125286D01*
X112050286Y-77125286D01*
X112050286Y-77959857D01*
X112576429Y-77959857D01*
X112576429Y-77125286D01*
X112776000Y-77125286D01*
X112776000Y-76756169D01*
X112775741Y-76630306D01*
X112774688Y-76535727D01*
X112772423Y-76467434D01*
X112768533Y-76420429D01*
X112762602Y-76389711D01*
X112754213Y-76370283D01*
X112742952Y-76357144D01*
X112742822Y-76357026D01*
X112727759Y-76347071D01*
X112704354Y-76339549D01*
X112667890Y-76334132D01*
X112613652Y-76330495D01*
X112536921Y-76328312D01*
X112432983Y-76327256D01*
X112308689Y-76327000D01*
X112174775Y-76327335D01*
G36*
X112248829Y-75753794D02*
X112171066Y-75783599D01*
X112134833Y-75811972D01*
X112092485Y-75877539D01*
X112073920Y-75958013D01*
X112078425Y-76042491D01*
X112105287Y-76120067D01*
X112153794Y-76179836D01*
X112159155Y-76183939D01*
X112224456Y-76214028D01*
X112306263Y-76227477D01*
X112387774Y-76222044D01*
X112407466Y-76217075D01*
X112473336Y-76184222D01*
X112515596Y-76130437D01*
X112536664Y-76051536D01*
X112540143Y-75987515D01*
X112538325Y-75920692D01*
X112530276Y-75877382D01*
X112512101Y-75844889D01*
X112488444Y-75818939D01*
X112418279Y-75771675D01*
X112334821Y-75749890D01*
X112248829Y-75753794D01*
X112248829Y-75753794D01*
G37*
X112248829Y-75753794D02*
X112171066Y-75783599D01*
X112134833Y-75811972D01*
X112092485Y-75877539D01*
X112073920Y-75958013D01*
X112078425Y-76042491D01*
X112105287Y-76120067D01*
X112153794Y-76179836D01*
X112159155Y-76183939D01*
X112224456Y-76214028D01*
X112306263Y-76227477D01*
X112387774Y-76222044D01*
X112407466Y-76217075D01*
X112473336Y-76184222D01*
X112515596Y-76130437D01*
X112536664Y-76051536D01*
X112540143Y-75987515D01*
X112538325Y-75920692D01*
X112530276Y-75877382D01*
X112512101Y-75844889D01*
X112488444Y-75818939D01*
X112418279Y-75771675D01*
X112334821Y-75749890D01*
X112248829Y-75753794D01*
G36*
X104858337Y-75965908D02*
X104733964Y-75985343D01*
X104681156Y-75999392D01*
X104531637Y-76064606D01*
X104400543Y-76159163D01*
X104290483Y-76279748D01*
X104204063Y-76423048D01*
X104143891Y-76585749D01*
X104118003Y-76715132D01*
X104107367Y-76909657D01*
X104128329Y-77092556D01*
X104180170Y-77260875D01*
X104262173Y-77411658D01*
X104299218Y-77461424D01*
X104422895Y-77587147D01*
X104566019Y-77683440D01*
X104725060Y-77748961D01*
X104896488Y-77782365D01*
X105076772Y-77782307D01*
X105126285Y-77776412D01*
X105279537Y-77736754D01*
X105417840Y-77666164D01*
X105537239Y-77568294D01*
X105633777Y-77446792D01*
X105703496Y-77305308D01*
X105728920Y-77220536D01*
X105751442Y-77125286D01*
X105323594Y-77125286D01*
X105303569Y-77204810D01*
X105268628Y-77281170D01*
X105209733Y-77349618D01*
X105138027Y-77398550D01*
X105105775Y-77410773D01*
X105060393Y-77418324D01*
X104995399Y-77423232D01*
X104945570Y-77424337D01*
X104836939Y-77409945D01*
X104746344Y-77365985D01*
X104670268Y-77290288D01*
X104631286Y-77230772D01*
X104583757Y-77120879D01*
X104555108Y-76996405D01*
X104544767Y-76864910D01*
X104552163Y-76733952D01*
X104576724Y-76611091D01*
X104617879Y-76503885D01*
X104675054Y-76419895D01*
X104694013Y-76401429D01*
X104783517Y-76345796D01*
X104889675Y-76316851D01*
X105003630Y-76315474D01*
X105116528Y-76342548D01*
X105148538Y-76356194D01*
X105209282Y-76399748D01*
X105262353Y-76463185D01*
X105297274Y-76532629D01*
X105304320Y-76562479D01*
X105301873Y-76596802D01*
X105275904Y-76613275D01*
X105259769Y-76616908D01*
X105240016Y-76621749D01*
X105231582Y-76630016D01*
X105237334Y-76646068D01*
X105260141Y-76674262D01*
X105302869Y-76718959D01*
X105368386Y-76784516D01*
X105373162Y-76789265D01*
X105537000Y-76952172D01*
X105700880Y-76789265D01*
X105864761Y-76626357D01*
X105805202Y-76617286D01*
X105766850Y-76607169D01*
X105743536Y-76584703D01*
X105725478Y-76539267D01*
X105721661Y-76526571D01*
X105658012Y-76359692D01*
X105573387Y-76222130D01*
X105467054Y-76113090D01*
X105338281Y-76031777D01*
X105226686Y-75988555D01*
X105118679Y-75967237D01*
X104991236Y-75959781D01*
X104858337Y-75965908D01*
X104858337Y-75965908D01*
G37*
X104858337Y-75965908D02*
X104733964Y-75985343D01*
X104681156Y-75999392D01*
X104531637Y-76064606D01*
X104400543Y-76159163D01*
X104290483Y-76279748D01*
X104204063Y-76423048D01*
X104143891Y-76585749D01*
X104118003Y-76715132D01*
X104107367Y-76909657D01*
X104128329Y-77092556D01*
X104180170Y-77260875D01*
X104262173Y-77411658D01*
X104299218Y-77461424D01*
X104422895Y-77587147D01*
X104566019Y-77683440D01*
X104725060Y-77748961D01*
X104896488Y-77782365D01*
X105076772Y-77782307D01*
X105126285Y-77776412D01*
X105279537Y-77736754D01*
X105417840Y-77666164D01*
X105537239Y-77568294D01*
X105633777Y-77446792D01*
X105703496Y-77305308D01*
X105728920Y-77220536D01*
X105751442Y-77125286D01*
X105323594Y-77125286D01*
X105303569Y-77204810D01*
X105268628Y-77281170D01*
X105209733Y-77349618D01*
X105138027Y-77398550D01*
X105105775Y-77410773D01*
X105060393Y-77418324D01*
X104995399Y-77423232D01*
X104945570Y-77424337D01*
X104836939Y-77409945D01*
X104746344Y-77365985D01*
X104670268Y-77290288D01*
X104631286Y-77230772D01*
X104583757Y-77120879D01*
X104555108Y-76996405D01*
X104544767Y-76864910D01*
X104552163Y-76733952D01*
X104576724Y-76611091D01*
X104617879Y-76503885D01*
X104675054Y-76419895D01*
X104694013Y-76401429D01*
X104783517Y-76345796D01*
X104889675Y-76316851D01*
X105003630Y-76315474D01*
X105116528Y-76342548D01*
X105148538Y-76356194D01*
X105209282Y-76399748D01*
X105262353Y-76463185D01*
X105297274Y-76532629D01*
X105304320Y-76562479D01*
X105301873Y-76596802D01*
X105275904Y-76613275D01*
X105259769Y-76616908D01*
X105240016Y-76621749D01*
X105231582Y-76630016D01*
X105237334Y-76646068D01*
X105260141Y-76674262D01*
X105302869Y-76718959D01*
X105368386Y-76784516D01*
X105373162Y-76789265D01*
X105537000Y-76952172D01*
X105700880Y-76789265D01*
X105864761Y-76626357D01*
X105805202Y-76617286D01*
X105766850Y-76607169D01*
X105743536Y-76584703D01*
X105725478Y-76539267D01*
X105721661Y-76526571D01*
X105658012Y-76359692D01*
X105573387Y-76222130D01*
X105467054Y-76113090D01*
X105338281Y-76031777D01*
X105226686Y-75988555D01*
X105118679Y-75967237D01*
X104991236Y-75959781D01*
X104858337Y-75965908D01*
G04 #@! TO.C,C10*
D13*
X94622857Y-130687142D02*
X94670476Y-130734761D01*
X94813333Y-130782380D01*
X94908571Y-130782380D01*
X95051428Y-130734761D01*
X95146666Y-130639523D01*
X95194285Y-130544285D01*
X95241904Y-130353809D01*
X95241904Y-130210952D01*
X95194285Y-130020476D01*
X95146666Y-129925238D01*
X95051428Y-129830000D01*
X94908571Y-129782380D01*
X94813333Y-129782380D01*
X94670476Y-129830000D01*
X94622857Y-129877619D01*
X93670476Y-130782380D02*
X94241904Y-130782380D01*
X93956190Y-130782380D02*
X93956190Y-129782380D01*
X94051428Y-129925238D01*
X94146666Y-130020476D01*
X94241904Y-130068095D01*
X93051428Y-129782380D02*
X92956190Y-129782380D01*
X92860952Y-129830000D01*
X92813333Y-129877619D01*
X92765714Y-129972857D01*
X92718095Y-130163333D01*
X92718095Y-130401428D01*
X92765714Y-130591904D01*
X92813333Y-130687142D01*
X92860952Y-130734761D01*
X92956190Y-130782380D01*
X93051428Y-130782380D01*
X93146666Y-130734761D01*
X93194285Y-130687142D01*
X93241904Y-130591904D01*
X93289523Y-130401428D01*
X93289523Y-130163333D01*
X93241904Y-129972857D01*
X93194285Y-129877619D01*
X93146666Y-129830000D01*
X93051428Y-129782380D01*
G04 #@! TO.C,J2*
X110188333Y-150582380D02*
X110188333Y-151296666D01*
X110235952Y-151439523D01*
X110331190Y-151534761D01*
X110474047Y-151582380D01*
X110569285Y-151582380D01*
X109759761Y-150677619D02*
X109712142Y-150630000D01*
X109616904Y-150582380D01*
X109378809Y-150582380D01*
X109283571Y-150630000D01*
X109235952Y-150677619D01*
X109188333Y-150772857D01*
X109188333Y-150868095D01*
X109235952Y-151010952D01*
X109807380Y-151582380D01*
X109188333Y-151582380D01*
G04 #@! TO.C,J4*
X107648333Y-150582380D02*
X107648333Y-151296666D01*
X107695952Y-151439523D01*
X107791190Y-151534761D01*
X107934047Y-151582380D01*
X108029285Y-151582380D01*
X106743571Y-150915714D02*
X106743571Y-151582380D01*
X106981666Y-150534761D02*
X107219761Y-151249047D01*
X106600714Y-151249047D01*
G04 #@! TO.C,Q1*
X101695238Y-143422619D02*
X101790476Y-143375000D01*
X101885714Y-143279761D01*
X102028571Y-143136904D01*
X102123809Y-143089285D01*
X102219047Y-143089285D01*
X102171428Y-143327380D02*
X102266666Y-143279761D01*
X102361904Y-143184523D01*
X102409523Y-142994047D01*
X102409523Y-142660714D01*
X102361904Y-142470238D01*
X102266666Y-142375000D01*
X102171428Y-142327380D01*
X101980952Y-142327380D01*
X101885714Y-142375000D01*
X101790476Y-142470238D01*
X101742857Y-142660714D01*
X101742857Y-142994047D01*
X101790476Y-143184523D01*
X101885714Y-143279761D01*
X101980952Y-143327380D01*
X102171428Y-143327380D01*
X100790476Y-143327380D02*
X101361904Y-143327380D01*
X101076190Y-143327380D02*
X101076190Y-142327380D01*
X101171428Y-142470238D01*
X101266666Y-142565476D01*
X101361904Y-142613095D01*
G04 #@! TO.C,R4*
X107132380Y-140803333D02*
X106656190Y-140470000D01*
X107132380Y-140231904D02*
X106132380Y-140231904D01*
X106132380Y-140612857D01*
X106180000Y-140708095D01*
X106227619Y-140755714D01*
X106322857Y-140803333D01*
X106465714Y-140803333D01*
X106560952Y-140755714D01*
X106608571Y-140708095D01*
X106656190Y-140612857D01*
X106656190Y-140231904D01*
X106465714Y-141660476D02*
X107132380Y-141660476D01*
X106084761Y-141422380D02*
X106799047Y-141184285D01*
X106799047Y-141803333D01*
G04 #@! TO.C,U3*
X98551904Y-135977380D02*
X98551904Y-136786904D01*
X98504285Y-136882142D01*
X98456666Y-136929761D01*
X98361428Y-136977380D01*
X98170952Y-136977380D01*
X98075714Y-136929761D01*
X98028095Y-136882142D01*
X97980476Y-136786904D01*
X97980476Y-135977380D01*
X97599523Y-135977380D02*
X96980476Y-135977380D01*
X97313809Y-136358333D01*
X97170952Y-136358333D01*
X97075714Y-136405952D01*
X97028095Y-136453571D01*
X96980476Y-136548809D01*
X96980476Y-136786904D01*
X97028095Y-136882142D01*
X97075714Y-136929761D01*
X97170952Y-136977380D01*
X97456666Y-136977380D01*
X97551904Y-136929761D01*
X97599523Y-136882142D01*
G04 #@! TO.C,C11*
X114657142Y-128262142D02*
X114704761Y-128214523D01*
X114752380Y-128071666D01*
X114752380Y-127976428D01*
X114704761Y-127833571D01*
X114609523Y-127738333D01*
X114514285Y-127690714D01*
X114323809Y-127643095D01*
X114180952Y-127643095D01*
X113990476Y-127690714D01*
X113895238Y-127738333D01*
X113800000Y-127833571D01*
X113752380Y-127976428D01*
X113752380Y-128071666D01*
X113800000Y-128214523D01*
X113847619Y-128262142D01*
X114752380Y-129214523D02*
X114752380Y-128643095D01*
X114752380Y-128928809D02*
X113752380Y-128928809D01*
X113895238Y-128833571D01*
X113990476Y-128738333D01*
X114038095Y-128643095D01*
X114752380Y-130166904D02*
X114752380Y-129595476D01*
X114752380Y-129881190D02*
X113752380Y-129881190D01*
X113895238Y-129785952D01*
X113990476Y-129690714D01*
X114038095Y-129595476D01*
G04 #@! TO.C,L1*
X92876666Y-145227380D02*
X93352857Y-145227380D01*
X93352857Y-144227380D01*
X92019523Y-145227380D02*
X92590952Y-145227380D01*
X92305238Y-145227380D02*
X92305238Y-144227380D01*
X92400476Y-144370238D01*
X92495714Y-144465476D01*
X92590952Y-144513095D01*
G04 #@! TO.C,U4*
X110616904Y-132167380D02*
X110616904Y-132976904D01*
X110569285Y-133072142D01*
X110521666Y-133119761D01*
X110426428Y-133167380D01*
X110235952Y-133167380D01*
X110140714Y-133119761D01*
X110093095Y-133072142D01*
X110045476Y-132976904D01*
X110045476Y-132167380D01*
X109140714Y-132500714D02*
X109140714Y-133167380D01*
X109378809Y-132119761D02*
X109616904Y-132834047D01*
X108997857Y-132834047D01*
G04 #@! TO.C,F1*
X117808333Y-142803571D02*
X118141666Y-142803571D01*
X118141666Y-143327380D02*
X118141666Y-142327380D01*
X117665476Y-142327380D01*
X116760714Y-143327380D02*
X117332142Y-143327380D01*
X117046428Y-143327380D02*
X117046428Y-142327380D01*
X117141666Y-142470238D01*
X117236904Y-142565476D01*
X117332142Y-142613095D01*
G04 #@! TO.C,Q2*
X116935238Y-139612619D02*
X117030476Y-139565000D01*
X117125714Y-139469761D01*
X117268571Y-139326904D01*
X117363809Y-139279285D01*
X117459047Y-139279285D01*
X117411428Y-139517380D02*
X117506666Y-139469761D01*
X117601904Y-139374523D01*
X117649523Y-139184047D01*
X117649523Y-138850714D01*
X117601904Y-138660238D01*
X117506666Y-138565000D01*
X117411428Y-138517380D01*
X117220952Y-138517380D01*
X117125714Y-138565000D01*
X117030476Y-138660238D01*
X116982857Y-138850714D01*
X116982857Y-139184047D01*
X117030476Y-139374523D01*
X117125714Y-139469761D01*
X117220952Y-139517380D01*
X117411428Y-139517380D01*
X116601904Y-138612619D02*
X116554285Y-138565000D01*
X116459047Y-138517380D01*
X116220952Y-138517380D01*
X116125714Y-138565000D01*
X116078095Y-138612619D01*
X116030476Y-138707857D01*
X116030476Y-138803095D01*
X116078095Y-138945952D01*
X116649523Y-139517380D01*
X116030476Y-139517380D01*
G04 #@! TO.C,R11*
X109672380Y-139057142D02*
X109196190Y-138723809D01*
X109672380Y-138485714D02*
X108672380Y-138485714D01*
X108672380Y-138866666D01*
X108720000Y-138961904D01*
X108767619Y-139009523D01*
X108862857Y-139057142D01*
X109005714Y-139057142D01*
X109100952Y-139009523D01*
X109148571Y-138961904D01*
X109196190Y-138866666D01*
X109196190Y-138485714D01*
X109672380Y-140009523D02*
X109672380Y-139438095D01*
X109672380Y-139723809D02*
X108672380Y-139723809D01*
X108815238Y-139628571D01*
X108910476Y-139533333D01*
X108958095Y-139438095D01*
X109672380Y-140961904D02*
X109672380Y-140390476D01*
X109672380Y-140676190D02*
X108672380Y-140676190D01*
X108815238Y-140580952D01*
X108910476Y-140485714D01*
X108958095Y-140390476D01*
G04 #@! TO.C,C9*
X90372142Y-133818333D02*
X90419761Y-133770714D01*
X90467380Y-133627857D01*
X90467380Y-133532619D01*
X90419761Y-133389761D01*
X90324523Y-133294523D01*
X90229285Y-133246904D01*
X90038809Y-133199285D01*
X89895952Y-133199285D01*
X89705476Y-133246904D01*
X89610238Y-133294523D01*
X89515000Y-133389761D01*
X89467380Y-133532619D01*
X89467380Y-133627857D01*
X89515000Y-133770714D01*
X89562619Y-133818333D01*
X90467380Y-134294523D02*
X90467380Y-134485000D01*
X90419761Y-134580238D01*
X90372142Y-134627857D01*
X90229285Y-134723095D01*
X90038809Y-134770714D01*
X89657857Y-134770714D01*
X89562619Y-134723095D01*
X89515000Y-134675476D01*
X89467380Y-134580238D01*
X89467380Y-134389761D01*
X89515000Y-134294523D01*
X89562619Y-134246904D01*
X89657857Y-134199285D01*
X89895952Y-134199285D01*
X89991190Y-134246904D01*
X90038809Y-134294523D01*
X90086428Y-134389761D01*
X90086428Y-134580238D01*
X90038809Y-134675476D01*
X89991190Y-134723095D01*
X89895952Y-134770714D01*
G04 #@! TO.C,C12*
X107037142Y-126992142D02*
X107084761Y-126944523D01*
X107132380Y-126801666D01*
X107132380Y-126706428D01*
X107084761Y-126563571D01*
X106989523Y-126468333D01*
X106894285Y-126420714D01*
X106703809Y-126373095D01*
X106560952Y-126373095D01*
X106370476Y-126420714D01*
X106275238Y-126468333D01*
X106180000Y-126563571D01*
X106132380Y-126706428D01*
X106132380Y-126801666D01*
X106180000Y-126944523D01*
X106227619Y-126992142D01*
X107132380Y-127944523D02*
X107132380Y-127373095D01*
X107132380Y-127658809D02*
X106132380Y-127658809D01*
X106275238Y-127563571D01*
X106370476Y-127468333D01*
X106418095Y-127373095D01*
X106227619Y-128325476D02*
X106180000Y-128373095D01*
X106132380Y-128468333D01*
X106132380Y-128706428D01*
X106180000Y-128801666D01*
X106227619Y-128849285D01*
X106322857Y-128896904D01*
X106418095Y-128896904D01*
X106560952Y-128849285D01*
X107132380Y-128277857D01*
X107132380Y-128896904D01*
G04 #@! TO.C,C16*
X87352142Y-96512142D02*
X87399761Y-96464523D01*
X87447380Y-96321666D01*
X87447380Y-96226428D01*
X87399761Y-96083571D01*
X87304523Y-95988333D01*
X87209285Y-95940714D01*
X87018809Y-95893095D01*
X86875952Y-95893095D01*
X86685476Y-95940714D01*
X86590238Y-95988333D01*
X86495000Y-96083571D01*
X86447380Y-96226428D01*
X86447380Y-96321666D01*
X86495000Y-96464523D01*
X86542619Y-96512142D01*
X87447380Y-97464523D02*
X87447380Y-96893095D01*
X87447380Y-97178809D02*
X86447380Y-97178809D01*
X86590238Y-97083571D01*
X86685476Y-96988333D01*
X86733095Y-96893095D01*
X86447380Y-98321666D02*
X86447380Y-98131190D01*
X86495000Y-98035952D01*
X86542619Y-97988333D01*
X86685476Y-97893095D01*
X86875952Y-97845476D01*
X87256904Y-97845476D01*
X87352142Y-97893095D01*
X87399761Y-97940714D01*
X87447380Y-98035952D01*
X87447380Y-98226428D01*
X87399761Y-98321666D01*
X87352142Y-98369285D01*
X87256904Y-98416904D01*
X87018809Y-98416904D01*
X86923571Y-98369285D01*
X86875952Y-98321666D01*
X86828333Y-98226428D01*
X86828333Y-98035952D01*
X86875952Y-97940714D01*
X86923571Y-97893095D01*
X87018809Y-97845476D01*
G04 #@! TO.C,C17*
X83642857Y-94357142D02*
X83690476Y-94404761D01*
X83833333Y-94452380D01*
X83928571Y-94452380D01*
X84071428Y-94404761D01*
X84166666Y-94309523D01*
X84214285Y-94214285D01*
X84261904Y-94023809D01*
X84261904Y-93880952D01*
X84214285Y-93690476D01*
X84166666Y-93595238D01*
X84071428Y-93500000D01*
X83928571Y-93452380D01*
X83833333Y-93452380D01*
X83690476Y-93500000D01*
X83642857Y-93547619D01*
X82690476Y-94452380D02*
X83261904Y-94452380D01*
X82976190Y-94452380D02*
X82976190Y-93452380D01*
X83071428Y-93595238D01*
X83166666Y-93690476D01*
X83261904Y-93738095D01*
X82357142Y-93452380D02*
X81690476Y-93452380D01*
X82119047Y-94452380D01*
G04 #@! TO.C,C18*
X93352857Y-103382142D02*
X93400476Y-103429761D01*
X93543333Y-103477380D01*
X93638571Y-103477380D01*
X93781428Y-103429761D01*
X93876666Y-103334523D01*
X93924285Y-103239285D01*
X93971904Y-103048809D01*
X93971904Y-102905952D01*
X93924285Y-102715476D01*
X93876666Y-102620238D01*
X93781428Y-102525000D01*
X93638571Y-102477380D01*
X93543333Y-102477380D01*
X93400476Y-102525000D01*
X93352857Y-102572619D01*
X92400476Y-103477380D02*
X92971904Y-103477380D01*
X92686190Y-103477380D02*
X92686190Y-102477380D01*
X92781428Y-102620238D01*
X92876666Y-102715476D01*
X92971904Y-102763095D01*
X91829047Y-102905952D02*
X91924285Y-102858333D01*
X91971904Y-102810714D01*
X92019523Y-102715476D01*
X92019523Y-102667857D01*
X91971904Y-102572619D01*
X91924285Y-102525000D01*
X91829047Y-102477380D01*
X91638571Y-102477380D01*
X91543333Y-102525000D01*
X91495714Y-102572619D01*
X91448095Y-102667857D01*
X91448095Y-102715476D01*
X91495714Y-102810714D01*
X91543333Y-102858333D01*
X91638571Y-102905952D01*
X91829047Y-102905952D01*
X91924285Y-102953571D01*
X91971904Y-103001190D01*
X92019523Y-103096428D01*
X92019523Y-103286904D01*
X91971904Y-103382142D01*
X91924285Y-103429761D01*
X91829047Y-103477380D01*
X91638571Y-103477380D01*
X91543333Y-103429761D01*
X91495714Y-103382142D01*
X91448095Y-103286904D01*
X91448095Y-103096428D01*
X91495714Y-103001190D01*
X91543333Y-102953571D01*
X91638571Y-102905952D01*
G04 #@! TO.C,C19*
X84462857Y-106882142D02*
X84510476Y-106929761D01*
X84653333Y-106977380D01*
X84748571Y-106977380D01*
X84891428Y-106929761D01*
X84986666Y-106834523D01*
X85034285Y-106739285D01*
X85081904Y-106548809D01*
X85081904Y-106405952D01*
X85034285Y-106215476D01*
X84986666Y-106120238D01*
X84891428Y-106025000D01*
X84748571Y-105977380D01*
X84653333Y-105977380D01*
X84510476Y-106025000D01*
X84462857Y-106072619D01*
X83510476Y-106977380D02*
X84081904Y-106977380D01*
X83796190Y-106977380D02*
X83796190Y-105977380D01*
X83891428Y-106120238D01*
X83986666Y-106215476D01*
X84081904Y-106263095D01*
X83034285Y-106977380D02*
X82843809Y-106977380D01*
X82748571Y-106929761D01*
X82700952Y-106882142D01*
X82605714Y-106739285D01*
X82558095Y-106548809D01*
X82558095Y-106167857D01*
X82605714Y-106072619D01*
X82653333Y-106025000D01*
X82748571Y-105977380D01*
X82939047Y-105977380D01*
X83034285Y-106025000D01*
X83081904Y-106072619D01*
X83129523Y-106167857D01*
X83129523Y-106405952D01*
X83081904Y-106501190D01*
X83034285Y-106548809D01*
X82939047Y-106596428D01*
X82748571Y-106596428D01*
X82653333Y-106548809D01*
X82605714Y-106501190D01*
X82558095Y-106405952D01*
G04 #@! TO.C,C20*
X85357142Y-84857142D02*
X85404761Y-84809523D01*
X85452380Y-84666666D01*
X85452380Y-84571428D01*
X85404761Y-84428571D01*
X85309523Y-84333333D01*
X85214285Y-84285714D01*
X85023809Y-84238095D01*
X84880952Y-84238095D01*
X84690476Y-84285714D01*
X84595238Y-84333333D01*
X84500000Y-84428571D01*
X84452380Y-84571428D01*
X84452380Y-84666666D01*
X84500000Y-84809523D01*
X84547619Y-84857142D01*
X84547619Y-85238095D02*
X84500000Y-85285714D01*
X84452380Y-85380952D01*
X84452380Y-85619047D01*
X84500000Y-85714285D01*
X84547619Y-85761904D01*
X84642857Y-85809523D01*
X84738095Y-85809523D01*
X84880952Y-85761904D01*
X85452380Y-85190476D01*
X85452380Y-85809523D01*
X84452380Y-86428571D02*
X84452380Y-86523809D01*
X84500000Y-86619047D01*
X84547619Y-86666666D01*
X84642857Y-86714285D01*
X84833333Y-86761904D01*
X85071428Y-86761904D01*
X85261904Y-86714285D01*
X85357142Y-86666666D01*
X85404761Y-86619047D01*
X85452380Y-86523809D01*
X85452380Y-86428571D01*
X85404761Y-86333333D01*
X85357142Y-86285714D01*
X85261904Y-86238095D01*
X85071428Y-86190476D01*
X84833333Y-86190476D01*
X84642857Y-86238095D01*
X84547619Y-86285714D01*
X84500000Y-86333333D01*
X84452380Y-86428571D01*
G04 #@! TO.C,C21*
X93857142Y-94607142D02*
X93904761Y-94559523D01*
X93952380Y-94416666D01*
X93952380Y-94321428D01*
X93904761Y-94178571D01*
X93809523Y-94083333D01*
X93714285Y-94035714D01*
X93523809Y-93988095D01*
X93380952Y-93988095D01*
X93190476Y-94035714D01*
X93095238Y-94083333D01*
X93000000Y-94178571D01*
X92952380Y-94321428D01*
X92952380Y-94416666D01*
X93000000Y-94559523D01*
X93047619Y-94607142D01*
X93047619Y-94988095D02*
X93000000Y-95035714D01*
X92952380Y-95130952D01*
X92952380Y-95369047D01*
X93000000Y-95464285D01*
X93047619Y-95511904D01*
X93142857Y-95559523D01*
X93238095Y-95559523D01*
X93380952Y-95511904D01*
X93952380Y-94940476D01*
X93952380Y-95559523D01*
X93952380Y-96511904D02*
X93952380Y-95940476D01*
X93952380Y-96226190D02*
X92952380Y-96226190D01*
X93095238Y-96130952D01*
X93190476Y-96035714D01*
X93238095Y-95940476D01*
G04 #@! TO.C,U6*
X89661904Y-106132380D02*
X89661904Y-106941904D01*
X89614285Y-107037142D01*
X89566666Y-107084761D01*
X89471428Y-107132380D01*
X89280952Y-107132380D01*
X89185714Y-107084761D01*
X89138095Y-107037142D01*
X89090476Y-106941904D01*
X89090476Y-106132380D01*
X88185714Y-106132380D02*
X88376190Y-106132380D01*
X88471428Y-106180000D01*
X88519047Y-106227619D01*
X88614285Y-106370476D01*
X88661904Y-106560952D01*
X88661904Y-106941904D01*
X88614285Y-107037142D01*
X88566666Y-107084761D01*
X88471428Y-107132380D01*
X88280952Y-107132380D01*
X88185714Y-107084761D01*
X88138095Y-107037142D01*
X88090476Y-106941904D01*
X88090476Y-106703809D01*
X88138095Y-106608571D01*
X88185714Y-106560952D01*
X88280952Y-106513333D01*
X88471428Y-106513333D01*
X88566666Y-106560952D01*
X88614285Y-106608571D01*
X88661904Y-106703809D01*
G04 #@! TO.C,U7*
X91566904Y-92652380D02*
X91566904Y-93461904D01*
X91519285Y-93557142D01*
X91471666Y-93604761D01*
X91376428Y-93652380D01*
X91185952Y-93652380D01*
X91090714Y-93604761D01*
X91043095Y-93557142D01*
X90995476Y-93461904D01*
X90995476Y-92652380D01*
X90614523Y-92652380D02*
X89947857Y-92652380D01*
X90376428Y-93652380D01*
G04 #@! TD*
%LPC*%
D15*
G04 #@! TO.C,U2*
X100370000Y-83560000D03*
X100370000Y-97560000D03*
X100370000Y-95560000D03*
X100370000Y-93560000D03*
X100370000Y-91560000D03*
X100370000Y-89560000D03*
X100370000Y-85560000D03*
G04 #@! TD*
D16*
G04 #@! TO.C,J11*
X113030000Y-147955000D03*
D17*
X115570000Y-147955000D03*
G04 #@! TD*
D18*
G04 #@! TO.C,BT2*
X132500000Y-138100000D03*
X132500000Y-84900000D03*
D19*
X132500000Y-111500000D03*
G04 #@! TD*
D18*
G04 #@! TO.C,BT1*
X150500000Y-84900000D03*
X150500000Y-138100000D03*
D19*
X150500000Y-111500000D03*
G04 #@! TD*
D20*
G04 #@! TO.C,C10*
X95980000Y-132080000D03*
X91980000Y-132080000D03*
G04 #@! TD*
D21*
G04 #@! TO.C,D1*
X106680000Y-81280000D03*
D22*
X109220000Y-81280000D03*
X111760000Y-81280000D03*
G04 #@! TD*
D23*
G04 #@! TO.C,J1*
X92075000Y-149225000D03*
D24*
X94615000Y-149225000D03*
X97155000Y-149225000D03*
X99695000Y-149225000D03*
X102235000Y-149225000D03*
X104775000Y-149225000D03*
G04 #@! TD*
D25*
G04 #@! TO.C,J2*
X109855000Y-149865000D03*
X109855000Y-148585000D03*
G04 #@! TD*
D23*
G04 #@! TO.C,J3*
X85090000Y-130810000D03*
D24*
X85090000Y-133350000D03*
X85090000Y-135890000D03*
X85090000Y-138430000D03*
G04 #@! TD*
D25*
G04 #@! TO.C,J4*
X107315000Y-149865000D03*
X107315000Y-148585000D03*
G04 #@! TD*
D23*
G04 #@! TO.C,J5*
X100330000Y-130810000D03*
D24*
X100330000Y-133350000D03*
X100330000Y-135890000D03*
X100330000Y-138430000D03*
G04 #@! TD*
D23*
G04 #@! TO.C,J6*
X105410000Y-130810000D03*
D24*
X105410000Y-133350000D03*
X105410000Y-135890000D03*
X105410000Y-138430000D03*
G04 #@! TD*
D23*
G04 #@! TO.C,J7*
X120650000Y-130810000D03*
D24*
X120650000Y-133350000D03*
X120650000Y-135890000D03*
X120650000Y-138430000D03*
G04 #@! TD*
D26*
G04 #@! TO.C,Q1*
X104455000Y-146280000D03*
X102555000Y-146280000D03*
X103505000Y-143280000D03*
G04 #@! TD*
D27*
G04 #@! TO.C,R4*
X106680000Y-146130000D03*
X106680000Y-143430000D03*
G04 #@! TD*
D28*
G04 #@! TO.C,U3*
X91635000Y-137475000D03*
X91635000Y-136525000D03*
X91635000Y-135575000D03*
X95055000Y-135575000D03*
X95055000Y-137475000D03*
G04 #@! TD*
D29*
G04 #@! TO.C,Y1*
X86360000Y-110490000D03*
X86360000Y-115370000D03*
G04 #@! TD*
D23*
G04 #@! TO.C,J10*
X98425000Y-76835000D03*
D24*
X98425000Y-79375000D03*
X95885000Y-76835000D03*
X95885000Y-79375000D03*
X93345000Y-76835000D03*
X93345000Y-79375000D03*
G04 #@! TD*
D30*
G04 #@! TO.C,J13*
X120650000Y-101600000D03*
D24*
X120650000Y-99060000D03*
G04 #@! TD*
D31*
G04 #@! TO.C,C11*
X112395000Y-130905000D03*
X112395000Y-126905000D03*
G04 #@! TD*
D32*
G04 #@! TO.C,L1*
X89310000Y-141605000D03*
X96110000Y-141605000D03*
G04 #@! TD*
D33*
G04 #@! TO.C,U4*
X110415000Y-137390000D03*
X110415000Y-135890000D03*
X110415000Y-134390000D03*
D34*
X114375000Y-135890000D03*
D35*
X112025000Y-135890000D03*
D36*
G36*
X111650000Y-135390000D02*
X112400000Y-134890000D01*
X112400000Y-136890000D01*
X111650000Y-136390000D01*
X111650000Y-135390000D01*
X111650000Y-135390000D01*
G37*
G04 #@! TD*
D37*
G04 #@! TO.C,C15*
X86360000Y-126365000D03*
D18*
X86360000Y-122865000D03*
G04 #@! TD*
D23*
G04 #@! TO.C,J8*
X118110000Y-104140000D03*
D24*
X115570000Y-104140000D03*
X118110000Y-101600000D03*
X115570000Y-101600000D03*
X118110000Y-99060000D03*
X115570000Y-99060000D03*
X118110000Y-96520000D03*
X115570000Y-96520000D03*
X118110000Y-93980000D03*
X115570000Y-93980000D03*
X118110000Y-91440000D03*
X115570000Y-91440000D03*
X118110000Y-88900000D03*
X115570000Y-88900000D03*
X118110000Y-86360000D03*
X115570000Y-86360000D03*
X118110000Y-83820000D03*
X115570000Y-83820000D03*
G04 #@! TD*
D23*
G04 #@! TO.C,J9*
X120650000Y-127000000D03*
D24*
X118110000Y-127000000D03*
X120650000Y-124460000D03*
X118110000Y-124460000D03*
X120650000Y-121920000D03*
X118110000Y-121920000D03*
X120650000Y-119380000D03*
X118110000Y-119380000D03*
X120650000Y-116840000D03*
X118110000Y-116840000D03*
X120650000Y-114300000D03*
X118110000Y-114300000D03*
X120650000Y-111760000D03*
X118110000Y-111760000D03*
X120650000Y-109220000D03*
X118110000Y-109220000D03*
X120650000Y-106680000D03*
X118110000Y-106680000D03*
G04 #@! TD*
D23*
G04 #@! TO.C,J12*
X146685000Y-108585000D03*
D24*
X144145000Y-108585000D03*
X141605000Y-108585000D03*
X139065000Y-108585000D03*
G04 #@! TD*
D38*
G04 #@! TO.C,F1*
X116300000Y-144780000D03*
X112300000Y-144780000D03*
G04 #@! TD*
D39*
G04 #@! TO.C,Q2*
X113435000Y-141920000D03*
X113435000Y-140020000D03*
X116435000Y-140970000D03*
G04 #@! TD*
D27*
G04 #@! TO.C,R11*
X109220000Y-142160000D03*
X109220000Y-144860000D03*
G04 #@! TD*
D40*
G04 #@! TO.C,C9*
X88265000Y-135235000D03*
X88265000Y-132735000D03*
G04 #@! TD*
G04 #@! TO.C,C12*
X108585000Y-130155000D03*
X108585000Y-127655000D03*
G04 #@! TD*
D15*
G04 #@! TO.C,U5*
X96780000Y-101005000D03*
X82780000Y-101005000D03*
X84780000Y-101005000D03*
X86780000Y-101005000D03*
X88780000Y-101005000D03*
X90780000Y-101005000D03*
X94780000Y-101005000D03*
G04 #@! TD*
D40*
G04 #@! TO.C,C16*
X85090000Y-95905000D03*
X85090000Y-98405000D03*
G04 #@! TD*
G04 #@! TO.C,C17*
X82550000Y-95905000D03*
X82550000Y-98405000D03*
G04 #@! TD*
D41*
G04 #@! TO.C,C18*
X93960000Y-104775000D03*
X91460000Y-104775000D03*
G04 #@! TD*
G04 #@! TO.C,C19*
X82570000Y-104775000D03*
X85070000Y-104775000D03*
G04 #@! TD*
D40*
G04 #@! TO.C,C20*
X85090000Y-88285000D03*
X85090000Y-90785000D03*
G04 #@! TD*
G04 #@! TO.C,C21*
X95250000Y-94000000D03*
X95250000Y-96500000D03*
G04 #@! TD*
D42*
G04 #@! TO.C,U6*
X87315000Y-103140000D03*
X89215000Y-103140000D03*
X88265000Y-105140000D03*
G04 #@! TD*
D43*
G04 #@! TO.C,U7*
X87855000Y-91825000D03*
X87855000Y-91175000D03*
X87855000Y-90525000D03*
X87855000Y-89875000D03*
X87855000Y-89225000D03*
X87855000Y-88575000D03*
X87855000Y-87925000D03*
X87855000Y-87275000D03*
X87855000Y-86625000D03*
X87855000Y-85975000D03*
X93755000Y-85975000D03*
X93755000Y-86625000D03*
X93755000Y-87275000D03*
X93755000Y-87925000D03*
X93755000Y-88575000D03*
X93755000Y-89225000D03*
X93755000Y-89875000D03*
X93755000Y-90525000D03*
X93755000Y-91175000D03*
X93755000Y-91825000D03*
G04 #@! TD*
D44*
G04 #@! TO.C,REF\002A\002A*
X86500000Y-79000000D03*
D45*
X88150000Y-79000000D03*
X87666726Y-80166726D03*
X86500000Y-80650000D03*
X85333274Y-80166726D03*
X84850000Y-79000000D03*
X85333274Y-77833274D03*
X86500000Y-77350000D03*
X87666726Y-77833274D03*
G04 #@! TD*
D44*
G04 #@! TO.C,REF\002A\002A*
X120500000Y-79000000D03*
D45*
X122150000Y-79000000D03*
X121666726Y-80166726D03*
X120500000Y-80650000D03*
X119333274Y-80166726D03*
X118850000Y-79000000D03*
X119333274Y-77833274D03*
X120500000Y-77350000D03*
X121666726Y-77833274D03*
G04 #@! TD*
D44*
G04 #@! TO.C,REF\002A\002A*
X154500000Y-79000000D03*
D45*
X156150000Y-79000000D03*
X155666726Y-80166726D03*
X154500000Y-80650000D03*
X153333274Y-80166726D03*
X152850000Y-79000000D03*
X153333274Y-77833274D03*
X154500000Y-77350000D03*
X155666726Y-77833274D03*
G04 #@! TD*
D44*
G04 #@! TO.C,REF\002A\002A*
X86500000Y-147000000D03*
D45*
X88150000Y-147000000D03*
X87666726Y-148166726D03*
X86500000Y-148650000D03*
X85333274Y-148166726D03*
X84850000Y-147000000D03*
X85333274Y-145833274D03*
X86500000Y-145350000D03*
X87666726Y-145833274D03*
G04 #@! TD*
D44*
G04 #@! TO.C,REF\002A\002A*
X120500000Y-147000000D03*
D45*
X122150000Y-147000000D03*
X121666726Y-148166726D03*
X120500000Y-148650000D03*
X119333274Y-148166726D03*
X118850000Y-147000000D03*
X119333274Y-145833274D03*
X120500000Y-145350000D03*
X121666726Y-145833274D03*
G04 #@! TD*
D44*
G04 #@! TO.C,REF\002A\002A*
X154500000Y-147000000D03*
D45*
X156150000Y-147000000D03*
X155666726Y-148166726D03*
X154500000Y-148650000D03*
X153333274Y-148166726D03*
X152850000Y-147000000D03*
X153333274Y-145833274D03*
X154500000Y-145350000D03*
X155666726Y-145833274D03*
G04 #@! TD*
M02*
