%TF.GenerationSoftware,KiCad,Pcbnew,4.0.7*%
%TF.CreationDate,2018-07-29T20:51:03+02:00*%
%TF.ProjectId,HB-UNI-644,48422D554E492D3634342E6B69636164,2.0*%
%TF.FileFunction,Copper,L2,Bot,Signal*%
%FSLAX46Y46*%
G04 Gerber Fmt 4.6, Leading zero omitted, Abs format (unit mm)*
G04 Created by KiCad (PCBNEW 4.0.7) date 07/29/18 20:51:03*
%MOMM*%
%LPD*%
G01*
G04 APERTURE LIST*
%ADD10C,0.100000*%
%ADD11C,1.350000*%
%ADD12R,2.000000X2.000000*%
%ADD13O,2.000000X2.000000*%
%ADD14C,1.600000*%
%ADD15R,2.000000X1.600000*%
%ADD16R,1.800000X1.800000*%
%ADD17C,1.800000*%
%ADD18R,1.700000X1.700000*%
%ADD19O,1.700000X1.700000*%
%ADD20R,1.270000X0.970000*%
%ADD21R,0.800000X1.900000*%
%ADD22R,1.300000X1.500000*%
%ADD23R,2.000000X0.650000*%
%ADD24C,1.500000*%
%ADD25C,1.700000*%
%ADD26R,1.600000X2.000000*%
%ADD27R,3.500000X3.500000*%
%ADD28R,2.500000X1.000000*%
%ADD29R,4.000000X2.000000*%
%ADD30R,1.600000X1.600000*%
%ADD31R,2.000000X1.700000*%
%ADD32R,1.900000X0.800000*%
%ADD33R,1.250000X1.500000*%
%ADD34R,1.500000X1.250000*%
%ADD35R,0.800000X0.900000*%
%ADD36R,1.450000X0.450000*%
%ADD37C,4.400000*%
%ADD38C,0.700000*%
%ADD39C,0.600000*%
%ADD40C,0.400000*%
%ADD41C,0.250000*%
%ADD42C,0.254000*%
G04 APERTURE END LIST*
D10*
D11*
X100370000Y-83560000D03*
X100370000Y-97560000D03*
X100370000Y-95560000D03*
X100370000Y-93560000D03*
X100370000Y-91560000D03*
X100370000Y-89560000D03*
X100370000Y-85560000D03*
D12*
X113030000Y-147955000D03*
D13*
X115570000Y-147955000D03*
D14*
X132500000Y-138100000D03*
X132500000Y-84900000D03*
X150500000Y-84900000D03*
X150500000Y-138100000D03*
D15*
X95980000Y-132080000D03*
X91980000Y-132080000D03*
D16*
X106680000Y-81280000D03*
D17*
X109220000Y-81280000D03*
X111760000Y-81280000D03*
D18*
X92075000Y-149225000D03*
D19*
X94615000Y-149225000D03*
X97155000Y-149225000D03*
X99695000Y-149225000D03*
X102235000Y-149225000D03*
X104775000Y-149225000D03*
D20*
X109855000Y-149865000D03*
X109855000Y-148585000D03*
D18*
X85090000Y-130810000D03*
D19*
X85090000Y-133350000D03*
X85090000Y-135890000D03*
X85090000Y-138430000D03*
D20*
X107315000Y-149865000D03*
X107315000Y-148585000D03*
D18*
X100330000Y-130810000D03*
D19*
X100330000Y-133350000D03*
X100330000Y-135890000D03*
X100330000Y-138430000D03*
D18*
X105410000Y-130810000D03*
D19*
X105410000Y-133350000D03*
X105410000Y-135890000D03*
X105410000Y-138430000D03*
D18*
X120650000Y-130810000D03*
D19*
X120650000Y-133350000D03*
X120650000Y-135890000D03*
X120650000Y-138430000D03*
D21*
X104455000Y-146280000D03*
X102555000Y-146280000D03*
X103505000Y-143280000D03*
D22*
X106680000Y-146130000D03*
X106680000Y-143430000D03*
D23*
X91635000Y-137475000D03*
X91635000Y-136525000D03*
X91635000Y-135575000D03*
X95055000Y-135575000D03*
X95055000Y-137475000D03*
D24*
X86360000Y-110490000D03*
X86360000Y-115370000D03*
D18*
X98425000Y-76835000D03*
D19*
X98425000Y-79375000D03*
X95885000Y-76835000D03*
X95885000Y-79375000D03*
X93345000Y-76835000D03*
X93345000Y-79375000D03*
D25*
X120650000Y-101600000D03*
D19*
X120650000Y-99060000D03*
D26*
X112395000Y-130905000D03*
X112395000Y-126905000D03*
D27*
X89310000Y-141605000D03*
X96110000Y-141605000D03*
D28*
X110415000Y-137390000D03*
X110415000Y-135890000D03*
X110415000Y-134390000D03*
D29*
X114375000Y-135890000D03*
D10*
G36*
X111650000Y-135390000D02*
X112400000Y-134890000D01*
X112400000Y-136890000D01*
X111650000Y-136390000D01*
X111650000Y-135390000D01*
X111650000Y-135390000D01*
G37*
D30*
X86360000Y-126365000D03*
D14*
X86360000Y-122865000D03*
D18*
X118110000Y-104140000D03*
D19*
X115570000Y-104140000D03*
X118110000Y-101600000D03*
X115570000Y-101600000D03*
X118110000Y-99060000D03*
X115570000Y-99060000D03*
X118110000Y-96520000D03*
X115570000Y-96520000D03*
X118110000Y-93980000D03*
X115570000Y-93980000D03*
X118110000Y-91440000D03*
X115570000Y-91440000D03*
X118110000Y-88900000D03*
X115570000Y-88900000D03*
X118110000Y-86360000D03*
X115570000Y-86360000D03*
X118110000Y-83820000D03*
X115570000Y-83820000D03*
D18*
X120650000Y-127000000D03*
D19*
X118110000Y-127000000D03*
X120650000Y-124460000D03*
X118110000Y-124460000D03*
X120650000Y-121920000D03*
X118110000Y-121920000D03*
X120650000Y-119380000D03*
X118110000Y-119380000D03*
X120650000Y-116840000D03*
X118110000Y-116840000D03*
X120650000Y-114300000D03*
X118110000Y-114300000D03*
X120650000Y-111760000D03*
X118110000Y-111760000D03*
X120650000Y-109220000D03*
X118110000Y-109220000D03*
X120650000Y-106680000D03*
X118110000Y-106680000D03*
D18*
X146685000Y-108585000D03*
D19*
X144145000Y-108585000D03*
X141605000Y-108585000D03*
X139065000Y-108585000D03*
D31*
X116300000Y-144780000D03*
X112300000Y-144780000D03*
D32*
X113435000Y-141920000D03*
X113435000Y-140020000D03*
X116435000Y-140970000D03*
D22*
X109220000Y-142160000D03*
X109220000Y-144860000D03*
D33*
X88265000Y-135235000D03*
X88265000Y-132735000D03*
X108585000Y-130155000D03*
X108585000Y-127655000D03*
D11*
X96780000Y-101005000D03*
X82780000Y-101005000D03*
X84780000Y-101005000D03*
X86780000Y-101005000D03*
X88780000Y-101005000D03*
X90780000Y-101005000D03*
X94780000Y-101005000D03*
D33*
X85090000Y-95905000D03*
X85090000Y-98405000D03*
X82550000Y-95905000D03*
X82550000Y-98405000D03*
D34*
X93960000Y-104775000D03*
X91460000Y-104775000D03*
X82570000Y-104775000D03*
X85070000Y-104775000D03*
D33*
X85090000Y-88285000D03*
X85090000Y-90785000D03*
X95250000Y-94000000D03*
X95250000Y-96500000D03*
D35*
X87315000Y-103140000D03*
X89215000Y-103140000D03*
X88265000Y-105140000D03*
D36*
X87855000Y-91825000D03*
X87855000Y-91175000D03*
X87855000Y-90525000D03*
X87855000Y-89875000D03*
X87855000Y-89225000D03*
X87855000Y-88575000D03*
X87855000Y-87925000D03*
X87855000Y-87275000D03*
X87855000Y-86625000D03*
X87855000Y-85975000D03*
X93755000Y-85975000D03*
X93755000Y-86625000D03*
X93755000Y-87275000D03*
X93755000Y-87925000D03*
X93755000Y-88575000D03*
X93755000Y-89225000D03*
X93755000Y-89875000D03*
X93755000Y-90525000D03*
X93755000Y-91175000D03*
X93755000Y-91825000D03*
D37*
X86500000Y-79000000D03*
D38*
X88150000Y-79000000D03*
X87666726Y-80166726D03*
X86500000Y-80650000D03*
X85333274Y-80166726D03*
X84850000Y-79000000D03*
X85333274Y-77833274D03*
X86500000Y-77350000D03*
X87666726Y-77833274D03*
D37*
X120500000Y-79000000D03*
D38*
X122150000Y-79000000D03*
X121666726Y-80166726D03*
X120500000Y-80650000D03*
X119333274Y-80166726D03*
X118850000Y-79000000D03*
X119333274Y-77833274D03*
X120500000Y-77350000D03*
X121666726Y-77833274D03*
D37*
X154500000Y-79000000D03*
D38*
X156150000Y-79000000D03*
X155666726Y-80166726D03*
X154500000Y-80650000D03*
X153333274Y-80166726D03*
X152850000Y-79000000D03*
X153333274Y-77833274D03*
X154500000Y-77350000D03*
X155666726Y-77833274D03*
D37*
X86500000Y-147000000D03*
D38*
X88150000Y-147000000D03*
X87666726Y-148166726D03*
X86500000Y-148650000D03*
X85333274Y-148166726D03*
X84850000Y-147000000D03*
X85333274Y-145833274D03*
X86500000Y-145350000D03*
X87666726Y-145833274D03*
D37*
X120500000Y-147000000D03*
D38*
X122150000Y-147000000D03*
X121666726Y-148166726D03*
X120500000Y-148650000D03*
X119333274Y-148166726D03*
X118850000Y-147000000D03*
X119333274Y-145833274D03*
X120500000Y-145350000D03*
X121666726Y-145833274D03*
D37*
X154500000Y-147000000D03*
D38*
X156150000Y-147000000D03*
X155666726Y-148166726D03*
X154500000Y-148650000D03*
X153333274Y-148166726D03*
X152850000Y-147000000D03*
X153333274Y-145833274D03*
X154500000Y-145350000D03*
X155666726Y-145833274D03*
D39*
X82550000Y-93980000D03*
X82550000Y-82550000D03*
X94615000Y-98425000D03*
X95250000Y-83185000D03*
X86360000Y-95885000D03*
X100965000Y-100330000D03*
X90170000Y-108585000D03*
X92710000Y-109855000D03*
X106680000Y-100330000D03*
X106680000Y-95250000D03*
X88265000Y-131445000D03*
X114935000Y-107950000D03*
X114935000Y-109855000D03*
X115570000Y-76835000D03*
X104775000Y-141605000D03*
X100965000Y-141605000D03*
X121920000Y-144145000D03*
X107950000Y-137160000D03*
X102870000Y-138430000D03*
X112395000Y-117475000D03*
X93345000Y-130175000D03*
X102870000Y-133350000D03*
X98425000Y-111760000D03*
X100330000Y-122555000D03*
X113665000Y-95885000D03*
X103632000Y-116078000D03*
X102870000Y-107315000D03*
X107315000Y-111760000D03*
X82550000Y-146685000D03*
X94615000Y-118110000D03*
X98425000Y-114300000D03*
X106045000Y-101600000D03*
X102870000Y-103505000D03*
X105410000Y-100965000D03*
X101600000Y-103505000D03*
X104140000Y-125095000D03*
X107950000Y-120650000D03*
X107315000Y-125095000D03*
X104775000Y-113665000D03*
X104775000Y-111760000D03*
X97790000Y-92710000D03*
X97790000Y-81915000D03*
X97155000Y-90170000D03*
X96520000Y-91440000D03*
X99060000Y-89535000D03*
X99695000Y-103505000D03*
X99060000Y-114935000D03*
X106680000Y-124460000D03*
X100965000Y-124460000D03*
X107315000Y-123825000D03*
X101600000Y-123825000D03*
X105410000Y-93980000D03*
X100965000Y-111760000D03*
X100965000Y-123190000D03*
X106045000Y-123190000D03*
X114935000Y-115570000D03*
X106680000Y-115570000D03*
X100965000Y-107950000D03*
X113665000Y-102870000D03*
X113665000Y-101600000D03*
X99695000Y-107315000D03*
X98425000Y-88265000D03*
X104775000Y-94615000D03*
X99695000Y-111760000D03*
X98425000Y-109855000D03*
X131445000Y-147955000D03*
X116205000Y-127000000D03*
X145415000Y-131445000D03*
X92075000Y-106045000D03*
D40*
X82550000Y-95905000D02*
X82550000Y-93980000D01*
X85090000Y-88285000D02*
X85090000Y-82550000D01*
X85090000Y-82550000D02*
X82550000Y-82550000D01*
X95250000Y-96500000D02*
X95250000Y-97790000D01*
X95250000Y-97790000D02*
X94615000Y-98425000D01*
X93755000Y-85975000D02*
X95000000Y-85975000D01*
X95000000Y-85975000D02*
X95250000Y-85725000D01*
X95250000Y-85725000D02*
X95250000Y-83185000D01*
X85090000Y-95905000D02*
X86340000Y-95905000D01*
X86340000Y-95905000D02*
X86360000Y-95885000D01*
X95000000Y-85975000D02*
X95250000Y-85725000D01*
X120650000Y-114300000D02*
X122555000Y-114300000D01*
X122555000Y-114300000D02*
X122555000Y-113030000D01*
X88265000Y-132735000D02*
X88265000Y-131445000D01*
X144145000Y-108585000D02*
X144145000Y-113030000D01*
X143510000Y-113665000D02*
X139065000Y-113665000D01*
X144145000Y-113030000D02*
X143510000Y-113665000D01*
X130175000Y-113665000D02*
X139065000Y-113665000D01*
X129540000Y-113030000D02*
X130175000Y-113665000D01*
X122555000Y-113030000D02*
X129540000Y-113030000D01*
X120650000Y-114300000D02*
X121285000Y-114300000D01*
X110415000Y-137390000D02*
X108180000Y-137390000D01*
X108180000Y-137390000D02*
X107950000Y-137160000D01*
X95885000Y-123825000D02*
X87320000Y-123825000D01*
X87320000Y-123825000D02*
X86360000Y-122865000D01*
X99695000Y-126365000D02*
X98425000Y-126365000D01*
X102870000Y-126365000D02*
X99695000Y-126365000D01*
X102870000Y-133350000D02*
X102870000Y-126365000D01*
X98425000Y-126365000D02*
X95885000Y-123825000D01*
X102870000Y-133350000D02*
X102870000Y-138430000D01*
X91980000Y-132080000D02*
X91980000Y-133255000D01*
X91980000Y-133255000D02*
X93345000Y-134620000D01*
X91980000Y-132080000D02*
X91980000Y-130905000D01*
X92710000Y-130175000D02*
X93345000Y-130175000D01*
X91980000Y-130905000D02*
X92710000Y-130175000D01*
X100330000Y-133350000D02*
X102870000Y-133350000D01*
X91635000Y-136525000D02*
X92710000Y-136525000D01*
X92710000Y-136525000D02*
X93345000Y-135890000D01*
X93345000Y-135890000D02*
X93345000Y-134620000D01*
X98425000Y-111760000D02*
X97155000Y-111760000D01*
X98425000Y-111125000D02*
X98425000Y-111760000D01*
X99695000Y-122555000D02*
X100330000Y-122555000D01*
X85070000Y-104775000D02*
X84775000Y-104775000D01*
X84775000Y-104775000D02*
X83500000Y-103500000D01*
X83500000Y-101725000D02*
X82780000Y-101005000D01*
X83500000Y-103500000D02*
X83500000Y-101725000D01*
X85090000Y-92910000D02*
X83820000Y-94180000D01*
X83820000Y-94180000D02*
X83820000Y-95320000D01*
X85090000Y-92910000D02*
X85090000Y-90785000D01*
X85090000Y-98405000D02*
X85070000Y-98405000D01*
X83820000Y-99675000D02*
X85090000Y-98405000D01*
X83820000Y-97155000D02*
X83820000Y-95320000D01*
X85070000Y-98405000D02*
X83820000Y-97155000D01*
X83820000Y-99695000D02*
X83820000Y-99675000D01*
X82780000Y-98635000D02*
X82550000Y-98405000D01*
X83820000Y-99675000D02*
X82550000Y-98405000D01*
X83820000Y-100330000D02*
X83820000Y-99695000D01*
X83145000Y-101005000D02*
X83820000Y-100330000D01*
X82780000Y-101005000D02*
X83145000Y-101005000D01*
X87855000Y-91175000D02*
X85480000Y-91175000D01*
X85480000Y-91175000D02*
X85090000Y-90785000D01*
X87855000Y-85975000D02*
X86745000Y-85975000D01*
X86360000Y-89535000D02*
X86360000Y-86995000D01*
X86360000Y-89535000D02*
X85110000Y-90785000D01*
X86360000Y-86360000D02*
X86360000Y-86995000D01*
X86745000Y-85975000D02*
X86360000Y-86360000D01*
X85090000Y-90785000D02*
X85110000Y-90785000D01*
X85070000Y-104775000D02*
X85680000Y-104775000D01*
X85680000Y-104775000D02*
X87315000Y-103140000D01*
D41*
X94615000Y-149225000D02*
X93345000Y-150495000D01*
X84455000Y-150495000D02*
X93345000Y-150495000D01*
X82550000Y-148590000D02*
X84455000Y-150495000D01*
X82550000Y-148590000D02*
X82550000Y-146685000D01*
X94615000Y-118110000D02*
X98425000Y-114300000D01*
X95055000Y-137475000D02*
X95055000Y-138870000D01*
X96110000Y-139290000D02*
X96110000Y-141605000D01*
X95885000Y-139065000D02*
X96110000Y-139290000D01*
X95250000Y-139065000D02*
X95885000Y-139065000D01*
X95055000Y-138870000D02*
X95250000Y-139065000D01*
X106045000Y-101600000D02*
X104775000Y-101600000D01*
X104775000Y-101600000D02*
X102870000Y-103505000D01*
X104140000Y-100965000D02*
X105410000Y-100965000D01*
X101600000Y-103505000D02*
X104140000Y-100965000D01*
X107315000Y-125095000D02*
X104140000Y-125095000D01*
X107950000Y-120650000D02*
X107950000Y-124460000D01*
X107950000Y-124460000D02*
X107315000Y-125095000D01*
X104775000Y-113665000D02*
X104775000Y-111760000D01*
X97790000Y-92710000D02*
X99695000Y-92710000D01*
X93755000Y-90525000D02*
X95605000Y-90525000D01*
X97155000Y-92710000D02*
X97790000Y-92710000D01*
X96520000Y-92710000D02*
X97155000Y-92710000D01*
X95885000Y-92075000D02*
X96520000Y-92710000D01*
X95885000Y-91440000D02*
X95885000Y-92075000D01*
X95885000Y-90805000D02*
X95885000Y-91440000D01*
X95605000Y-90525000D02*
X95885000Y-90805000D01*
X100370000Y-93385000D02*
X99695000Y-92710000D01*
X100370000Y-93385000D02*
X100370000Y-93560000D01*
X97155000Y-81280000D02*
X95885000Y-80010000D01*
X97790000Y-81915000D02*
X97155000Y-81280000D01*
X95885000Y-80010000D02*
X95885000Y-79375000D01*
X97155000Y-90170000D02*
X99695000Y-90170000D01*
X99695000Y-90170000D02*
X100305000Y-89560000D01*
X100305000Y-89560000D02*
X100370000Y-89560000D01*
X93755000Y-89225000D02*
X96845000Y-89225000D01*
X97155000Y-89535000D02*
X97155000Y-90170000D01*
X96845000Y-89225000D02*
X97155000Y-89535000D01*
X100305000Y-89560000D02*
X100370000Y-89560000D01*
X93755000Y-89875000D02*
X96225000Y-89875000D01*
X96520000Y-90170000D02*
X96520000Y-91440000D01*
X96225000Y-89875000D02*
X96520000Y-90170000D01*
X96520000Y-91440000D02*
X100250000Y-91440000D01*
X100250000Y-91440000D02*
X100370000Y-91560000D01*
X94615000Y-87925000D02*
X94910000Y-87925000D01*
X97155000Y-88265000D02*
X97790000Y-88900000D01*
X95250000Y-88265000D02*
X97155000Y-88265000D01*
X94910000Y-87925000D02*
X95250000Y-88265000D01*
X93755000Y-87925000D02*
X94615000Y-87925000D01*
X98425000Y-89535000D02*
X99060000Y-89535000D01*
X97790000Y-88900000D02*
X98425000Y-89535000D01*
X98425000Y-106045000D02*
X99695000Y-104775000D01*
X99695000Y-104775000D02*
X99695000Y-103505000D01*
X99060000Y-109220000D02*
X98425000Y-108585000D01*
X98425000Y-108585000D02*
X98425000Y-106045000D01*
X100330000Y-110490000D02*
X99060000Y-109220000D01*
X99060000Y-114935000D02*
X100330000Y-113665000D01*
X100330000Y-113665000D02*
X100330000Y-112395000D01*
X100330000Y-111125000D02*
X100330000Y-110490000D01*
X100330000Y-112395000D02*
X100330000Y-111125000D01*
X104140000Y-124460000D02*
X106680000Y-124460000D01*
X100965000Y-124460000D02*
X104140000Y-124460000D01*
X101600000Y-123825000D02*
X107315000Y-123825000D01*
X104775000Y-99060000D02*
X105410000Y-98425000D01*
X105410000Y-98425000D02*
X105410000Y-93980000D01*
X99060000Y-106680000D02*
X100965000Y-104775000D01*
X100965000Y-104775000D02*
X100965000Y-102870000D01*
X99695000Y-108585000D02*
X99060000Y-107950000D01*
X100965000Y-111760000D02*
X100965000Y-109855000D01*
X100965000Y-109855000D02*
X99695000Y-108585000D01*
X102870000Y-100965000D02*
X104775000Y-99060000D01*
X100965000Y-102870000D02*
X102870000Y-100965000D01*
X99060000Y-107950000D02*
X99060000Y-106680000D01*
X100965000Y-123190000D02*
X106045000Y-123190000D01*
X106680000Y-115570000D02*
X114935000Y-115570000D01*
X100965000Y-107950000D02*
X106045000Y-102870000D01*
X110490000Y-102870000D02*
X113665000Y-102870000D01*
X106680000Y-102870000D02*
X110490000Y-102870000D01*
X106680000Y-102870000D02*
X106045000Y-102870000D01*
X112395000Y-102235000D02*
X113030000Y-102235000D01*
X113030000Y-102235000D02*
X113665000Y-101600000D01*
X111125000Y-102235000D02*
X112395000Y-102235000D01*
X109855000Y-102235000D02*
X111125000Y-102235000D01*
X99695000Y-107315000D02*
X100330000Y-107315000D01*
X100330000Y-107315000D02*
X105410000Y-102235000D01*
X105410000Y-102235000D02*
X109855000Y-102235000D01*
X95250000Y-87275000D02*
X95530000Y-87275000D01*
X95885000Y-87630000D02*
X97790000Y-87630000D01*
X95530000Y-87275000D02*
X95885000Y-87630000D01*
X93755000Y-87275000D02*
X95250000Y-87275000D01*
X97790000Y-87630000D02*
X98425000Y-88265000D01*
X104775000Y-97790000D02*
X104775000Y-94615000D01*
X103505000Y-99060000D02*
X104775000Y-97790000D01*
X99060000Y-102870000D02*
X99695000Y-102235000D01*
X100330000Y-102235000D02*
X103505000Y-99060000D01*
X99695000Y-102235000D02*
X100330000Y-102235000D01*
X97790000Y-109220000D02*
X97790000Y-105410000D01*
X99060000Y-104140000D02*
X99060000Y-102870000D01*
X97790000Y-105410000D02*
X99060000Y-104140000D01*
X98425000Y-109855000D02*
X97790000Y-109220000D01*
X99695000Y-111760000D02*
X99695000Y-111125000D01*
X99695000Y-111125000D02*
X98425000Y-109855000D01*
X99695000Y-111760000D02*
X99695000Y-111125000D01*
X99695000Y-111125000D02*
X98425000Y-109855000D01*
D40*
X113030000Y-147955000D02*
X112395000Y-147320000D01*
X112395000Y-147320000D02*
X112395000Y-144875000D01*
X112395000Y-144875000D02*
X112300000Y-144780000D01*
X107315000Y-148585000D02*
X107320000Y-148585000D01*
X107320000Y-148585000D02*
X108585000Y-147320000D01*
X108585000Y-147320000D02*
X112395000Y-147320000D01*
X134620000Y-137795000D02*
X150195000Y-137795000D01*
X133350000Y-146050000D02*
X131445000Y-147955000D01*
X133350000Y-146050000D02*
X133350000Y-139700000D01*
X133350000Y-139065000D02*
X134620000Y-137795000D01*
X133350000Y-139700000D02*
X133350000Y-139065000D01*
X150195000Y-137795000D02*
X150500000Y-138100000D01*
X121920000Y-151130000D02*
X123825000Y-149225000D01*
X123825000Y-149225000D02*
X124460000Y-149225000D01*
X124460000Y-149225000D02*
X128905000Y-149225000D01*
X131445000Y-146685000D02*
X128905000Y-149225000D01*
X131445000Y-146685000D02*
X132080000Y-146050000D01*
X132080000Y-146050000D02*
X132080000Y-138520000D01*
X109220000Y-144860000D02*
X109220000Y-144780000D01*
X109220000Y-144780000D02*
X110490000Y-143510000D01*
X114300000Y-146050000D02*
X115570000Y-147320000D01*
X114300000Y-144145000D02*
X114300000Y-146050000D01*
X113665000Y-143510000D02*
X114300000Y-144145000D01*
X110490000Y-143510000D02*
X113665000Y-143510000D01*
X115570000Y-147320000D02*
X115570000Y-147955000D01*
X111125000Y-149225000D02*
X111760000Y-149860000D01*
X114300000Y-149860000D02*
X115570000Y-148590000D01*
X111760000Y-149860000D02*
X114300000Y-149860000D01*
X115570000Y-148590000D02*
X115570000Y-147955000D01*
X111125000Y-149225000D02*
X110485000Y-148585000D01*
X110485000Y-148585000D02*
X109855000Y-148585000D01*
X119380000Y-151130000D02*
X118745000Y-151130000D01*
X119380000Y-151130000D02*
X121920000Y-151130000D01*
X115570000Y-147955000D02*
X118745000Y-151130000D01*
X132080000Y-138520000D02*
X132500000Y-138100000D01*
X109220000Y-144860000D02*
X105085000Y-144860000D01*
X105085000Y-144860000D02*
X103505000Y-143280000D01*
D41*
X106680000Y-146130000D02*
X104605000Y-146130000D01*
X104605000Y-146130000D02*
X104455000Y-146280000D01*
D40*
X121285000Y-150495000D02*
X123825000Y-147955000D01*
X123825000Y-147955000D02*
X128905000Y-147955000D01*
X91635000Y-135575000D02*
X89855000Y-135575000D01*
X89855000Y-135575000D02*
X89515000Y-135235000D01*
X88265000Y-135235000D02*
X89515000Y-135235000D01*
X89515000Y-135235000D02*
X89535000Y-135255000D01*
X91635000Y-137475000D02*
X89850000Y-137475000D01*
X89535000Y-137160000D02*
X89535000Y-135890000D01*
X89850000Y-137475000D02*
X89535000Y-137160000D01*
X89850000Y-135575000D02*
X89535000Y-135890000D01*
X91635000Y-135575000D02*
X89850000Y-135575000D01*
X88265000Y-135235000D02*
X88880000Y-135235000D01*
X89310000Y-141605000D02*
X89310000Y-139290000D01*
X89310000Y-139290000D02*
X89535000Y-139065000D01*
X91635000Y-138870000D02*
X91635000Y-137475000D01*
X91440000Y-139065000D02*
X89535000Y-139065000D01*
X91635000Y-138870000D02*
X91440000Y-139065000D01*
X117475000Y-147955000D02*
X117475000Y-148590000D01*
X119380000Y-150495000D02*
X120015000Y-150495000D01*
X117475000Y-148590000D02*
X119380000Y-150495000D01*
X116300000Y-144780000D02*
X116300000Y-145510000D01*
X116300000Y-145510000D02*
X117475000Y-146685000D01*
X117475000Y-146685000D02*
X117475000Y-147955000D01*
X116300000Y-143510000D02*
X116300000Y-144780000D01*
X106680000Y-142240000D02*
X106680000Y-143430000D01*
X106680000Y-141605000D02*
X106045000Y-140970000D01*
X106045000Y-140970000D02*
X105410000Y-140335000D01*
X111125000Y-140970000D02*
X107315000Y-140970000D01*
X107315000Y-140970000D02*
X106680000Y-141605000D01*
X116300000Y-143510000D02*
X116300000Y-141105000D01*
X116300000Y-141105000D02*
X116435000Y-140970000D01*
X111125000Y-140970000D02*
X116435000Y-140970000D01*
X116435000Y-140970000D02*
X118745000Y-140970000D01*
X118745000Y-140970000D02*
X119380000Y-140335000D01*
X118110000Y-128905000D02*
X116205000Y-127000000D01*
X118745000Y-129540000D02*
X119380000Y-130175000D01*
X119380000Y-130175000D02*
X119380000Y-140335000D01*
X118110000Y-128905000D02*
X118745000Y-129540000D01*
X140335000Y-136525000D02*
X145415000Y-131445000D01*
X132080000Y-136525000D02*
X140335000Y-136525000D01*
X130810000Y-137795000D02*
X132080000Y-136525000D01*
X130810000Y-146050000D02*
X130810000Y-137795000D01*
X128905000Y-147955000D02*
X130810000Y-146050000D01*
X120015000Y-150495000D02*
X121285000Y-150495000D01*
X106680000Y-141605000D02*
X106680000Y-142240000D01*
X106680000Y-142240000D02*
X106680000Y-142795000D01*
X89310000Y-141605000D02*
X89310000Y-145825000D01*
X89310000Y-145825000D02*
X89535000Y-146050000D01*
X89535000Y-146050000D02*
X99060000Y-146050000D01*
X99060000Y-146050000D02*
X99695000Y-145415000D01*
X99695000Y-145415000D02*
X99695000Y-140970000D01*
X99695000Y-140970000D02*
X100330000Y-140335000D01*
X100330000Y-140335000D02*
X105410000Y-140335000D01*
X110415000Y-135890000D02*
X114375000Y-135890000D01*
X110415000Y-135890000D02*
X112025000Y-135890000D01*
D41*
X113435000Y-141920000D02*
X109460000Y-141920000D01*
X109460000Y-141920000D02*
X109220000Y-142160000D01*
D40*
X93755000Y-91175000D02*
X94985000Y-91175000D01*
X95250000Y-92075000D02*
X95250000Y-94000000D01*
X95250000Y-91440000D02*
X95250000Y-92075000D01*
X94985000Y-91175000D02*
X95250000Y-91440000D01*
X100370000Y-97560000D02*
X98810000Y-97560000D01*
X98810000Y-97560000D02*
X95250000Y-94000000D01*
X91460000Y-104775000D02*
X91460000Y-105430000D01*
X91460000Y-105430000D02*
X92075000Y-106045000D01*
X89215000Y-103140000D02*
X89825000Y-103140000D01*
X89825000Y-103140000D02*
X91460000Y-104775000D01*
X106685000Y-149865000D02*
X106045000Y-149225000D01*
X107315000Y-149865000D02*
X106685000Y-149865000D01*
X106045000Y-149225000D02*
X106045000Y-148590000D01*
X106045000Y-148590000D02*
X105410000Y-147955000D01*
X104140000Y-147955000D02*
X100965000Y-147955000D01*
X105410000Y-147955000D02*
X104140000Y-147955000D01*
X118110000Y-127000000D02*
X116840000Y-125730000D01*
X116840000Y-105410000D02*
X115570000Y-104140000D01*
X116840000Y-125730000D02*
X116840000Y-105410000D01*
X100965000Y-147955000D02*
X99695000Y-149225000D01*
X120650000Y-130810000D02*
X120650000Y-129540000D01*
X120650000Y-129540000D02*
X118110000Y-127000000D01*
D41*
X92075000Y-95250000D02*
X92075000Y-99060000D01*
X95470000Y-99695000D02*
X96780000Y-101005000D01*
X92710000Y-99695000D02*
X95470000Y-99695000D01*
X92075000Y-99060000D02*
X92710000Y-99695000D01*
X87855000Y-87275000D02*
X91085000Y-87275000D01*
X92075000Y-88265000D02*
X92075000Y-95250000D01*
X91085000Y-87275000D02*
X92075000Y-88265000D01*
X88265000Y-99695000D02*
X88900000Y-99695000D01*
X89535000Y-99060000D02*
X89535000Y-95885000D01*
X88900000Y-99695000D02*
X89535000Y-99060000D01*
X86780000Y-101005000D02*
X86955000Y-101005000D01*
X86955000Y-101005000D02*
X88265000Y-99695000D01*
X87855000Y-90525000D02*
X89255000Y-90525000D01*
X89535000Y-90805000D02*
X89535000Y-95885000D01*
X89255000Y-90525000D02*
X89535000Y-90805000D01*
X88780000Y-101005000D02*
X88860000Y-101005000D01*
X88860000Y-101005000D02*
X90170000Y-99695000D01*
X90170000Y-99695000D02*
X90170000Y-97155000D01*
X87855000Y-89875000D02*
X89875000Y-89875000D01*
X90170000Y-90170000D02*
X90170000Y-97155000D01*
X89875000Y-89875000D02*
X90170000Y-90170000D01*
X87855000Y-89225000D02*
X90495000Y-89225000D01*
X90805000Y-89535000D02*
X90805000Y-100980000D01*
X90495000Y-89225000D02*
X90805000Y-89535000D01*
X90805000Y-100980000D02*
X90780000Y-101005000D01*
X91440000Y-96520000D02*
X91440000Y-99695000D01*
X91440000Y-99695000D02*
X92750000Y-101005000D01*
X92750000Y-101005000D02*
X94780000Y-101005000D01*
X87855000Y-87925000D02*
X90465000Y-87925000D01*
X91440000Y-88900000D02*
X91440000Y-96520000D01*
X90465000Y-87925000D02*
X91440000Y-88900000D01*
D42*
G36*
X102035000Y-131953000D02*
X101745955Y-131953000D01*
X101815000Y-131786310D01*
X101815000Y-131095750D01*
X101656250Y-130937000D01*
X100457000Y-130937000D01*
X100457000Y-130957000D01*
X100203000Y-130957000D01*
X100203000Y-130937000D01*
X99003750Y-130937000D01*
X98845000Y-131095750D01*
X98845000Y-131786310D01*
X98941673Y-132019699D01*
X98947217Y-132025243D01*
X98941685Y-132033841D01*
X98933000Y-132080000D01*
X98933000Y-132775648D01*
X98928946Y-132781715D01*
X98815907Y-133350000D01*
X98928946Y-133918285D01*
X98933000Y-133924352D01*
X98933000Y-135315648D01*
X98928946Y-135321715D01*
X98841169Y-135763000D01*
X96592250Y-135763000D01*
X96531250Y-135702000D01*
X95182000Y-135702000D01*
X95182000Y-135722000D01*
X94928000Y-135722000D01*
X94928000Y-135702000D01*
X94908000Y-135702000D01*
X94908000Y-135448000D01*
X94928000Y-135448000D01*
X94928000Y-134773750D01*
X95182000Y-134773750D01*
X95182000Y-135448000D01*
X96531250Y-135448000D01*
X96690000Y-135289250D01*
X96690000Y-135123690D01*
X96593327Y-134890301D01*
X96414698Y-134711673D01*
X96181309Y-134615000D01*
X95340750Y-134615000D01*
X95182000Y-134773750D01*
X94928000Y-134773750D01*
X94769250Y-134615000D01*
X94179005Y-134615000D01*
X94136250Y-134400054D01*
X94116440Y-134300460D01*
X93935435Y-134029566D01*
X93382868Y-133477000D01*
X94615000Y-133477000D01*
X94664410Y-133466994D01*
X94692107Y-133448070D01*
X94853691Y-133515000D01*
X95694250Y-133515000D01*
X95853000Y-133356250D01*
X95853000Y-132207000D01*
X96107000Y-132207000D01*
X96107000Y-133356250D01*
X96265750Y-133515000D01*
X97106309Y-133515000D01*
X97339698Y-133418327D01*
X97518327Y-133239699D01*
X97615000Y-133006310D01*
X97615000Y-132365750D01*
X97456250Y-132207000D01*
X96107000Y-132207000D01*
X95853000Y-132207000D01*
X95833000Y-132207000D01*
X95833000Y-131953000D01*
X95853000Y-131953000D01*
X95853000Y-130803750D01*
X96107000Y-130803750D01*
X96107000Y-131953000D01*
X97456250Y-131953000D01*
X97615000Y-131794250D01*
X97615000Y-131153690D01*
X97518327Y-130920301D01*
X97339698Y-130741673D01*
X97106309Y-130645000D01*
X96265750Y-130645000D01*
X96107000Y-130803750D01*
X95853000Y-130803750D01*
X95694250Y-130645000D01*
X94853691Y-130645000D01*
X94742000Y-130691264D01*
X94742000Y-129833690D01*
X98845000Y-129833690D01*
X98845000Y-130524250D01*
X99003750Y-130683000D01*
X100203000Y-130683000D01*
X100203000Y-129483750D01*
X100457000Y-129483750D01*
X100457000Y-130683000D01*
X101656250Y-130683000D01*
X101815000Y-130524250D01*
X101815000Y-129833690D01*
X101718327Y-129600301D01*
X101539698Y-129421673D01*
X101306309Y-129325000D01*
X100615750Y-129325000D01*
X100457000Y-129483750D01*
X100203000Y-129483750D01*
X100044250Y-129325000D01*
X99353691Y-129325000D01*
X99120302Y-129421673D01*
X98941673Y-129600301D01*
X98845000Y-129833690D01*
X94742000Y-129833690D01*
X94742000Y-129032000D01*
X102035000Y-129032000D01*
X102035000Y-131953000D01*
X102035000Y-131953000D01*
G37*
X102035000Y-131953000D02*
X101745955Y-131953000D01*
X101815000Y-131786310D01*
X101815000Y-131095750D01*
X101656250Y-130937000D01*
X100457000Y-130937000D01*
X100457000Y-130957000D01*
X100203000Y-130957000D01*
X100203000Y-130937000D01*
X99003750Y-130937000D01*
X98845000Y-131095750D01*
X98845000Y-131786310D01*
X98941673Y-132019699D01*
X98947217Y-132025243D01*
X98941685Y-132033841D01*
X98933000Y-132080000D01*
X98933000Y-132775648D01*
X98928946Y-132781715D01*
X98815907Y-133350000D01*
X98928946Y-133918285D01*
X98933000Y-133924352D01*
X98933000Y-135315648D01*
X98928946Y-135321715D01*
X98841169Y-135763000D01*
X96592250Y-135763000D01*
X96531250Y-135702000D01*
X95182000Y-135702000D01*
X95182000Y-135722000D01*
X94928000Y-135722000D01*
X94928000Y-135702000D01*
X94908000Y-135702000D01*
X94908000Y-135448000D01*
X94928000Y-135448000D01*
X94928000Y-134773750D01*
X95182000Y-134773750D01*
X95182000Y-135448000D01*
X96531250Y-135448000D01*
X96690000Y-135289250D01*
X96690000Y-135123690D01*
X96593327Y-134890301D01*
X96414698Y-134711673D01*
X96181309Y-134615000D01*
X95340750Y-134615000D01*
X95182000Y-134773750D01*
X94928000Y-134773750D01*
X94769250Y-134615000D01*
X94179005Y-134615000D01*
X94136250Y-134400054D01*
X94116440Y-134300460D01*
X93935435Y-134029566D01*
X93382868Y-133477000D01*
X94615000Y-133477000D01*
X94664410Y-133466994D01*
X94692107Y-133448070D01*
X94853691Y-133515000D01*
X95694250Y-133515000D01*
X95853000Y-133356250D01*
X95853000Y-132207000D01*
X96107000Y-132207000D01*
X96107000Y-133356250D01*
X96265750Y-133515000D01*
X97106309Y-133515000D01*
X97339698Y-133418327D01*
X97518327Y-133239699D01*
X97615000Y-133006310D01*
X97615000Y-132365750D01*
X97456250Y-132207000D01*
X96107000Y-132207000D01*
X95853000Y-132207000D01*
X95833000Y-132207000D01*
X95833000Y-131953000D01*
X95853000Y-131953000D01*
X95853000Y-130803750D01*
X96107000Y-130803750D01*
X96107000Y-131953000D01*
X97456250Y-131953000D01*
X97615000Y-131794250D01*
X97615000Y-131153690D01*
X97518327Y-130920301D01*
X97339698Y-130741673D01*
X97106309Y-130645000D01*
X96265750Y-130645000D01*
X96107000Y-130803750D01*
X95853000Y-130803750D01*
X95694250Y-130645000D01*
X94853691Y-130645000D01*
X94742000Y-130691264D01*
X94742000Y-129833690D01*
X98845000Y-129833690D01*
X98845000Y-130524250D01*
X99003750Y-130683000D01*
X100203000Y-130683000D01*
X100203000Y-129483750D01*
X100457000Y-129483750D01*
X100457000Y-130683000D01*
X101656250Y-130683000D01*
X101815000Y-130524250D01*
X101815000Y-129833690D01*
X101718327Y-129600301D01*
X101539698Y-129421673D01*
X101306309Y-129325000D01*
X100615750Y-129325000D01*
X100457000Y-129483750D01*
X100203000Y-129483750D01*
X100044250Y-129325000D01*
X99353691Y-129325000D01*
X99120302Y-129421673D01*
X98941673Y-129600301D01*
X98845000Y-129833690D01*
X94742000Y-129833690D01*
X94742000Y-129032000D01*
X102035000Y-129032000D01*
X102035000Y-131953000D01*
G36*
X98933000Y-137855648D02*
X98928946Y-137861715D01*
X98815907Y-138430000D01*
X98928946Y-138998285D01*
X98933000Y-139004352D01*
X98933000Y-140636333D01*
X98923561Y-140650459D01*
X98860000Y-140970000D01*
X98860000Y-144653000D01*
X92837000Y-144653000D01*
X92837000Y-141890750D01*
X93725000Y-141890750D01*
X93725000Y-143481310D01*
X93821673Y-143714699D01*
X94000302Y-143893327D01*
X94233691Y-143990000D01*
X95824250Y-143990000D01*
X95983000Y-143831250D01*
X95983000Y-141732000D01*
X96237000Y-141732000D01*
X96237000Y-143831250D01*
X96395750Y-143990000D01*
X97986309Y-143990000D01*
X98219698Y-143893327D01*
X98398327Y-143714699D01*
X98495000Y-143481310D01*
X98495000Y-141890750D01*
X98336250Y-141732000D01*
X96237000Y-141732000D01*
X95983000Y-141732000D01*
X93883750Y-141732000D01*
X93725000Y-141890750D01*
X92837000Y-141890750D01*
X92837000Y-139728690D01*
X93725000Y-139728690D01*
X93725000Y-141319250D01*
X93883750Y-141478000D01*
X95983000Y-141478000D01*
X95983000Y-139378750D01*
X96237000Y-139378750D01*
X96237000Y-141478000D01*
X98336250Y-141478000D01*
X98495000Y-141319250D01*
X98495000Y-139728690D01*
X98398327Y-139495301D01*
X98219698Y-139316673D01*
X97986309Y-139220000D01*
X96395750Y-139220000D01*
X96237000Y-139378750D01*
X95983000Y-139378750D01*
X95824250Y-139220000D01*
X94233691Y-139220000D01*
X94000302Y-139316673D01*
X93821673Y-139495301D01*
X93725000Y-139728690D01*
X92837000Y-139728690D01*
X92837000Y-138409431D01*
X92870317Y-138403162D01*
X93086441Y-138264090D01*
X93231431Y-138051890D01*
X93282440Y-137800000D01*
X93282440Y-137760750D01*
X93420000Y-137760750D01*
X93420000Y-137926310D01*
X93516673Y-138159699D01*
X93695302Y-138338327D01*
X93928691Y-138435000D01*
X94769250Y-138435000D01*
X94928000Y-138276250D01*
X94928000Y-137602000D01*
X95182000Y-137602000D01*
X95182000Y-138276250D01*
X95340750Y-138435000D01*
X96181309Y-138435000D01*
X96414698Y-138338327D01*
X96593327Y-138159699D01*
X96690000Y-137926310D01*
X96690000Y-137760750D01*
X96531250Y-137602000D01*
X95182000Y-137602000D01*
X94928000Y-137602000D01*
X93578750Y-137602000D01*
X93420000Y-137760750D01*
X93282440Y-137760750D01*
X93282440Y-137150000D01*
X93278672Y-137129975D01*
X93300434Y-137115434D01*
X93439673Y-136976195D01*
X93420000Y-137023690D01*
X93420000Y-137189250D01*
X93578750Y-137348000D01*
X94928000Y-137348000D01*
X94928000Y-137328000D01*
X95182000Y-137328000D01*
X95182000Y-137348000D01*
X96531250Y-137348000D01*
X96690000Y-137189250D01*
X96690000Y-137023690D01*
X96593327Y-136790301D01*
X96455025Y-136652000D01*
X98933000Y-136652000D01*
X98933000Y-137855648D01*
X98933000Y-137855648D01*
G37*
X98933000Y-137855648D02*
X98928946Y-137861715D01*
X98815907Y-138430000D01*
X98928946Y-138998285D01*
X98933000Y-139004352D01*
X98933000Y-140636333D01*
X98923561Y-140650459D01*
X98860000Y-140970000D01*
X98860000Y-144653000D01*
X92837000Y-144653000D01*
X92837000Y-141890750D01*
X93725000Y-141890750D01*
X93725000Y-143481310D01*
X93821673Y-143714699D01*
X94000302Y-143893327D01*
X94233691Y-143990000D01*
X95824250Y-143990000D01*
X95983000Y-143831250D01*
X95983000Y-141732000D01*
X96237000Y-141732000D01*
X96237000Y-143831250D01*
X96395750Y-143990000D01*
X97986309Y-143990000D01*
X98219698Y-143893327D01*
X98398327Y-143714699D01*
X98495000Y-143481310D01*
X98495000Y-141890750D01*
X98336250Y-141732000D01*
X96237000Y-141732000D01*
X95983000Y-141732000D01*
X93883750Y-141732000D01*
X93725000Y-141890750D01*
X92837000Y-141890750D01*
X92837000Y-139728690D01*
X93725000Y-139728690D01*
X93725000Y-141319250D01*
X93883750Y-141478000D01*
X95983000Y-141478000D01*
X95983000Y-139378750D01*
X96237000Y-139378750D01*
X96237000Y-141478000D01*
X98336250Y-141478000D01*
X98495000Y-141319250D01*
X98495000Y-139728690D01*
X98398327Y-139495301D01*
X98219698Y-139316673D01*
X97986309Y-139220000D01*
X96395750Y-139220000D01*
X96237000Y-139378750D01*
X95983000Y-139378750D01*
X95824250Y-139220000D01*
X94233691Y-139220000D01*
X94000302Y-139316673D01*
X93821673Y-139495301D01*
X93725000Y-139728690D01*
X92837000Y-139728690D01*
X92837000Y-138409431D01*
X92870317Y-138403162D01*
X93086441Y-138264090D01*
X93231431Y-138051890D01*
X93282440Y-137800000D01*
X93282440Y-137760750D01*
X93420000Y-137760750D01*
X93420000Y-137926310D01*
X93516673Y-138159699D01*
X93695302Y-138338327D01*
X93928691Y-138435000D01*
X94769250Y-138435000D01*
X94928000Y-138276250D01*
X94928000Y-137602000D01*
X95182000Y-137602000D01*
X95182000Y-138276250D01*
X95340750Y-138435000D01*
X96181309Y-138435000D01*
X96414698Y-138338327D01*
X96593327Y-138159699D01*
X96690000Y-137926310D01*
X96690000Y-137760750D01*
X96531250Y-137602000D01*
X95182000Y-137602000D01*
X94928000Y-137602000D01*
X93578750Y-137602000D01*
X93420000Y-137760750D01*
X93282440Y-137760750D01*
X93282440Y-137150000D01*
X93278672Y-137129975D01*
X93300434Y-137115434D01*
X93439673Y-136976195D01*
X93420000Y-137023690D01*
X93420000Y-137189250D01*
X93578750Y-137348000D01*
X94928000Y-137348000D01*
X94928000Y-137328000D01*
X95182000Y-137328000D01*
X95182000Y-137348000D01*
X96531250Y-137348000D01*
X96690000Y-137189250D01*
X96690000Y-137023690D01*
X96593327Y-136790301D01*
X96455025Y-136652000D01*
X98933000Y-136652000D01*
X98933000Y-137855648D01*
G36*
X87101673Y-134125302D02*
X87005000Y-134358691D01*
X87005000Y-134949250D01*
X87163750Y-135108000D01*
X88138000Y-135108000D01*
X88138000Y-135088000D01*
X88392000Y-135088000D01*
X88392000Y-135108000D01*
X89366250Y-135108000D01*
X89525000Y-134949250D01*
X89525000Y-134358691D01*
X89428327Y-134125302D01*
X89415025Y-134112000D01*
X91656132Y-134112000D01*
X91948000Y-134403869D01*
X91948000Y-134615000D01*
X91920750Y-134615000D01*
X91762000Y-134773750D01*
X91762000Y-135448000D01*
X91782000Y-135448000D01*
X91782000Y-135552560D01*
X90635000Y-135552560D01*
X90399683Y-135596838D01*
X90236257Y-135702000D01*
X90158750Y-135702000D01*
X90000000Y-135860750D01*
X90000000Y-136026310D01*
X90015268Y-136063171D01*
X89987560Y-136200000D01*
X89987560Y-136850000D01*
X90013919Y-136990086D01*
X90000000Y-137023690D01*
X90000000Y-137189250D01*
X90158750Y-137348000D01*
X90239051Y-137348000D01*
X90383110Y-137446431D01*
X90635000Y-137497440D01*
X91782000Y-137497440D01*
X91782000Y-137602000D01*
X91762000Y-137602000D01*
X91762000Y-138276250D01*
X91920750Y-138435000D01*
X91948000Y-138435000D01*
X91948000Y-144653000D01*
X88162894Y-144653000D01*
X88107995Y-144598005D01*
X87066390Y-144165493D01*
X86487000Y-144164987D01*
X86487000Y-141890750D01*
X86925000Y-141890750D01*
X86925000Y-143481310D01*
X87021673Y-143714699D01*
X87200302Y-143893327D01*
X87433691Y-143990000D01*
X89024250Y-143990000D01*
X89183000Y-143831250D01*
X89183000Y-141732000D01*
X89437000Y-141732000D01*
X89437000Y-143831250D01*
X89595750Y-143990000D01*
X91186309Y-143990000D01*
X91419698Y-143893327D01*
X91598327Y-143714699D01*
X91695000Y-143481310D01*
X91695000Y-141890750D01*
X91536250Y-141732000D01*
X89437000Y-141732000D01*
X89183000Y-141732000D01*
X87083750Y-141732000D01*
X86925000Y-141890750D01*
X86487000Y-141890750D01*
X86487000Y-139728690D01*
X86925000Y-139728690D01*
X86925000Y-141319250D01*
X87083750Y-141478000D01*
X89183000Y-141478000D01*
X89183000Y-139378750D01*
X89437000Y-139378750D01*
X89437000Y-141478000D01*
X91536250Y-141478000D01*
X91695000Y-141319250D01*
X91695000Y-139728690D01*
X91598327Y-139495301D01*
X91419698Y-139316673D01*
X91186309Y-139220000D01*
X89595750Y-139220000D01*
X89437000Y-139378750D01*
X89183000Y-139378750D01*
X89024250Y-139220000D01*
X87433691Y-139220000D01*
X87200302Y-139316673D01*
X87021673Y-139495301D01*
X86925000Y-139728690D01*
X86487000Y-139728690D01*
X86487000Y-139004352D01*
X86491054Y-138998285D01*
X86604093Y-138430000D01*
X86491054Y-137861715D01*
X86487000Y-137855648D01*
X86487000Y-137760750D01*
X90000000Y-137760750D01*
X90000000Y-137926310D01*
X90096673Y-138159699D01*
X90275302Y-138338327D01*
X90508691Y-138435000D01*
X91349250Y-138435000D01*
X91508000Y-138276250D01*
X91508000Y-137602000D01*
X90158750Y-137602000D01*
X90000000Y-137760750D01*
X86487000Y-137760750D01*
X86487000Y-136464352D01*
X86491054Y-136458285D01*
X86604093Y-135890000D01*
X86530645Y-135520750D01*
X87005000Y-135520750D01*
X87005000Y-136111309D01*
X87101673Y-136344698D01*
X87280301Y-136523327D01*
X87513690Y-136620000D01*
X87979250Y-136620000D01*
X88138000Y-136461250D01*
X88138000Y-135362000D01*
X88392000Y-135362000D01*
X88392000Y-136461250D01*
X88550750Y-136620000D01*
X89016310Y-136620000D01*
X89249699Y-136523327D01*
X89428327Y-136344698D01*
X89525000Y-136111309D01*
X89525000Y-135520750D01*
X89366250Y-135362000D01*
X88392000Y-135362000D01*
X88138000Y-135362000D01*
X87163750Y-135362000D01*
X87005000Y-135520750D01*
X86530645Y-135520750D01*
X86491054Y-135321715D01*
X86487000Y-135315648D01*
X86487000Y-135123690D01*
X90000000Y-135123690D01*
X90000000Y-135289250D01*
X90158750Y-135448000D01*
X91508000Y-135448000D01*
X91508000Y-134773750D01*
X91349250Y-134615000D01*
X90508691Y-134615000D01*
X90275302Y-134711673D01*
X90096673Y-134890301D01*
X90000000Y-135123690D01*
X86487000Y-135123690D01*
X86487000Y-134112000D01*
X87114975Y-134112000D01*
X87101673Y-134125302D01*
X87101673Y-134125302D01*
G37*
X87101673Y-134125302D02*
X87005000Y-134358691D01*
X87005000Y-134949250D01*
X87163750Y-135108000D01*
X88138000Y-135108000D01*
X88138000Y-135088000D01*
X88392000Y-135088000D01*
X88392000Y-135108000D01*
X89366250Y-135108000D01*
X89525000Y-134949250D01*
X89525000Y-134358691D01*
X89428327Y-134125302D01*
X89415025Y-134112000D01*
X91656132Y-134112000D01*
X91948000Y-134403869D01*
X91948000Y-134615000D01*
X91920750Y-134615000D01*
X91762000Y-134773750D01*
X91762000Y-135448000D01*
X91782000Y-135448000D01*
X91782000Y-135552560D01*
X90635000Y-135552560D01*
X90399683Y-135596838D01*
X90236257Y-135702000D01*
X90158750Y-135702000D01*
X90000000Y-135860750D01*
X90000000Y-136026310D01*
X90015268Y-136063171D01*
X89987560Y-136200000D01*
X89987560Y-136850000D01*
X90013919Y-136990086D01*
X90000000Y-137023690D01*
X90000000Y-137189250D01*
X90158750Y-137348000D01*
X90239051Y-137348000D01*
X90383110Y-137446431D01*
X90635000Y-137497440D01*
X91782000Y-137497440D01*
X91782000Y-137602000D01*
X91762000Y-137602000D01*
X91762000Y-138276250D01*
X91920750Y-138435000D01*
X91948000Y-138435000D01*
X91948000Y-144653000D01*
X88162894Y-144653000D01*
X88107995Y-144598005D01*
X87066390Y-144165493D01*
X86487000Y-144164987D01*
X86487000Y-141890750D01*
X86925000Y-141890750D01*
X86925000Y-143481310D01*
X87021673Y-143714699D01*
X87200302Y-143893327D01*
X87433691Y-143990000D01*
X89024250Y-143990000D01*
X89183000Y-143831250D01*
X89183000Y-141732000D01*
X89437000Y-141732000D01*
X89437000Y-143831250D01*
X89595750Y-143990000D01*
X91186309Y-143990000D01*
X91419698Y-143893327D01*
X91598327Y-143714699D01*
X91695000Y-143481310D01*
X91695000Y-141890750D01*
X91536250Y-141732000D01*
X89437000Y-141732000D01*
X89183000Y-141732000D01*
X87083750Y-141732000D01*
X86925000Y-141890750D01*
X86487000Y-141890750D01*
X86487000Y-139728690D01*
X86925000Y-139728690D01*
X86925000Y-141319250D01*
X87083750Y-141478000D01*
X89183000Y-141478000D01*
X89183000Y-139378750D01*
X89437000Y-139378750D01*
X89437000Y-141478000D01*
X91536250Y-141478000D01*
X91695000Y-141319250D01*
X91695000Y-139728690D01*
X91598327Y-139495301D01*
X91419698Y-139316673D01*
X91186309Y-139220000D01*
X89595750Y-139220000D01*
X89437000Y-139378750D01*
X89183000Y-139378750D01*
X89024250Y-139220000D01*
X87433691Y-139220000D01*
X87200302Y-139316673D01*
X87021673Y-139495301D01*
X86925000Y-139728690D01*
X86487000Y-139728690D01*
X86487000Y-139004352D01*
X86491054Y-138998285D01*
X86604093Y-138430000D01*
X86491054Y-137861715D01*
X86487000Y-137855648D01*
X86487000Y-137760750D01*
X90000000Y-137760750D01*
X90000000Y-137926310D01*
X90096673Y-138159699D01*
X90275302Y-138338327D01*
X90508691Y-138435000D01*
X91349250Y-138435000D01*
X91508000Y-138276250D01*
X91508000Y-137602000D01*
X90158750Y-137602000D01*
X90000000Y-137760750D01*
X86487000Y-137760750D01*
X86487000Y-136464352D01*
X86491054Y-136458285D01*
X86604093Y-135890000D01*
X86530645Y-135520750D01*
X87005000Y-135520750D01*
X87005000Y-136111309D01*
X87101673Y-136344698D01*
X87280301Y-136523327D01*
X87513690Y-136620000D01*
X87979250Y-136620000D01*
X88138000Y-136461250D01*
X88138000Y-135362000D01*
X88392000Y-135362000D01*
X88392000Y-136461250D01*
X88550750Y-136620000D01*
X89016310Y-136620000D01*
X89249699Y-136523327D01*
X89428327Y-136344698D01*
X89525000Y-136111309D01*
X89525000Y-135520750D01*
X89366250Y-135362000D01*
X88392000Y-135362000D01*
X88138000Y-135362000D01*
X87163750Y-135362000D01*
X87005000Y-135520750D01*
X86530645Y-135520750D01*
X86491054Y-135321715D01*
X86487000Y-135315648D01*
X86487000Y-135123690D01*
X90000000Y-135123690D01*
X90000000Y-135289250D01*
X90158750Y-135448000D01*
X91508000Y-135448000D01*
X91508000Y-134773750D01*
X91349250Y-134615000D01*
X90508691Y-134615000D01*
X90275302Y-134711673D01*
X90096673Y-134890301D01*
X90000000Y-135123690D01*
X86487000Y-135123690D01*
X86487000Y-134112000D01*
X87114975Y-134112000D01*
X87101673Y-134125302D01*
G36*
X102362000Y-149098000D02*
X104648000Y-149098000D01*
X104648000Y-149078000D01*
X104902000Y-149078000D01*
X104902000Y-149098000D01*
X104922000Y-149098000D01*
X104922000Y-149352000D01*
X104902000Y-149352000D01*
X104902000Y-150545155D01*
X105131890Y-150666476D01*
X105541924Y-150496645D01*
X105852625Y-150213493D01*
X106042626Y-150403494D01*
X106076838Y-150585317D01*
X106215910Y-150801441D01*
X106428110Y-150946431D01*
X106680000Y-150997440D01*
X107950000Y-150997440D01*
X108185317Y-150953162D01*
X108401441Y-150814090D01*
X108546431Y-150601890D01*
X108585000Y-150411431D01*
X108585000Y-150476310D01*
X108681673Y-150709699D01*
X108860302Y-150888327D01*
X109093691Y-150985000D01*
X109569250Y-150985000D01*
X109728000Y-150826250D01*
X109728000Y-149992000D01*
X109708000Y-149992000D01*
X109708000Y-149738000D01*
X109728000Y-149738000D01*
X109728000Y-149718000D01*
X109982000Y-149718000D01*
X109982000Y-149738000D01*
X110002000Y-149738000D01*
X110002000Y-149992000D01*
X109982000Y-149992000D01*
X109982000Y-150826250D01*
X110140750Y-150985000D01*
X110616309Y-150985000D01*
X110849698Y-150888327D01*
X111028327Y-150709699D01*
X111125000Y-150476310D01*
X111125000Y-150405868D01*
X111169566Y-150450434D01*
X111440460Y-150631440D01*
X111760000Y-150695000D01*
X114300000Y-150695000D01*
X114619541Y-150631439D01*
X114890434Y-150450434D01*
X115755792Y-149585076D01*
X115975504Y-149541372D01*
X117749132Y-151315000D01*
X88067466Y-151315000D01*
X87765826Y-151255000D01*
X93345000Y-151255000D01*
X93635839Y-151197148D01*
X93882401Y-151032401D01*
X94248592Y-150666210D01*
X94615000Y-150739093D01*
X95183285Y-150626054D01*
X95665054Y-150304147D01*
X95885000Y-149974974D01*
X96104946Y-150304147D01*
X96586715Y-150626054D01*
X97155000Y-150739093D01*
X97723285Y-150626054D01*
X98205054Y-150304147D01*
X98425000Y-149974974D01*
X98644946Y-150304147D01*
X99126715Y-150626054D01*
X99695000Y-150739093D01*
X100263285Y-150626054D01*
X100745054Y-150304147D01*
X100972702Y-149963447D01*
X101039817Y-150106358D01*
X101468076Y-150496645D01*
X101878110Y-150666476D01*
X102108000Y-150545155D01*
X102108000Y-149352000D01*
X102362000Y-149352000D01*
X102362000Y-150545155D01*
X102591890Y-150666476D01*
X103001924Y-150496645D01*
X103430183Y-150106358D01*
X103505000Y-149947046D01*
X103579817Y-150106358D01*
X104008076Y-150496645D01*
X104418110Y-150666476D01*
X104648000Y-150545155D01*
X104648000Y-149352000D01*
X102362000Y-149352000D01*
X102108000Y-149352000D01*
X102088000Y-149352000D01*
X102088000Y-149098000D01*
X102108000Y-149098000D01*
X102108000Y-149078000D01*
X102362000Y-149078000D01*
X102362000Y-149098000D01*
X102362000Y-149098000D01*
G37*
X102362000Y-149098000D02*
X104648000Y-149098000D01*
X104648000Y-149078000D01*
X104902000Y-149078000D01*
X104902000Y-149098000D01*
X104922000Y-149098000D01*
X104922000Y-149352000D01*
X104902000Y-149352000D01*
X104902000Y-150545155D01*
X105131890Y-150666476D01*
X105541924Y-150496645D01*
X105852625Y-150213493D01*
X106042626Y-150403494D01*
X106076838Y-150585317D01*
X106215910Y-150801441D01*
X106428110Y-150946431D01*
X106680000Y-150997440D01*
X107950000Y-150997440D01*
X108185317Y-150953162D01*
X108401441Y-150814090D01*
X108546431Y-150601890D01*
X108585000Y-150411431D01*
X108585000Y-150476310D01*
X108681673Y-150709699D01*
X108860302Y-150888327D01*
X109093691Y-150985000D01*
X109569250Y-150985000D01*
X109728000Y-150826250D01*
X109728000Y-149992000D01*
X109708000Y-149992000D01*
X109708000Y-149738000D01*
X109728000Y-149738000D01*
X109728000Y-149718000D01*
X109982000Y-149718000D01*
X109982000Y-149738000D01*
X110002000Y-149738000D01*
X110002000Y-149992000D01*
X109982000Y-149992000D01*
X109982000Y-150826250D01*
X110140750Y-150985000D01*
X110616309Y-150985000D01*
X110849698Y-150888327D01*
X111028327Y-150709699D01*
X111125000Y-150476310D01*
X111125000Y-150405868D01*
X111169566Y-150450434D01*
X111440460Y-150631440D01*
X111760000Y-150695000D01*
X114300000Y-150695000D01*
X114619541Y-150631439D01*
X114890434Y-150450434D01*
X115755792Y-149585076D01*
X115975504Y-149541372D01*
X117749132Y-151315000D01*
X88067466Y-151315000D01*
X87765826Y-151255000D01*
X93345000Y-151255000D01*
X93635839Y-151197148D01*
X93882401Y-151032401D01*
X94248592Y-150666210D01*
X94615000Y-150739093D01*
X95183285Y-150626054D01*
X95665054Y-150304147D01*
X95885000Y-149974974D01*
X96104946Y-150304147D01*
X96586715Y-150626054D01*
X97155000Y-150739093D01*
X97723285Y-150626054D01*
X98205054Y-150304147D01*
X98425000Y-149974974D01*
X98644946Y-150304147D01*
X99126715Y-150626054D01*
X99695000Y-150739093D01*
X100263285Y-150626054D01*
X100745054Y-150304147D01*
X100972702Y-149963447D01*
X101039817Y-150106358D01*
X101468076Y-150496645D01*
X101878110Y-150666476D01*
X102108000Y-150545155D01*
X102108000Y-149352000D01*
X102362000Y-149352000D01*
X102362000Y-150545155D01*
X102591890Y-150666476D01*
X103001924Y-150496645D01*
X103430183Y-150106358D01*
X103505000Y-149947046D01*
X103579817Y-150106358D01*
X104008076Y-150496645D01*
X104418110Y-150666476D01*
X104648000Y-150545155D01*
X104648000Y-149352000D01*
X102362000Y-149352000D01*
X102108000Y-149352000D01*
X102088000Y-149352000D01*
X102088000Y-149098000D01*
X102108000Y-149098000D01*
X102108000Y-149078000D01*
X102362000Y-149078000D01*
X102362000Y-149098000D01*
G36*
X105845000Y-141950868D02*
X105845000Y-142067370D01*
X105794683Y-142076838D01*
X105578559Y-142215910D01*
X105433569Y-142428110D01*
X105382560Y-142680000D01*
X105382560Y-143976692D01*
X104552440Y-143146572D01*
X104552440Y-142330000D01*
X104508162Y-142094683D01*
X104369090Y-141878559D01*
X104156890Y-141733569D01*
X103905000Y-141682560D01*
X103105000Y-141682560D01*
X102869683Y-141726838D01*
X102653559Y-141865910D01*
X102508569Y-142078110D01*
X102457560Y-142330000D01*
X102457560Y-144230000D01*
X102501838Y-144465317D01*
X102640910Y-144681441D01*
X102767686Y-144768064D01*
X102682000Y-144853750D01*
X102682000Y-146153000D01*
X102702000Y-146153000D01*
X102702000Y-146407000D01*
X102682000Y-146407000D01*
X102682000Y-146427000D01*
X102428000Y-146427000D01*
X102428000Y-146407000D01*
X101678750Y-146407000D01*
X101520000Y-146565750D01*
X101520000Y-147120000D01*
X100965000Y-147120000D01*
X100645459Y-147183561D01*
X100374566Y-147364566D01*
X99972939Y-147766193D01*
X99695000Y-147710907D01*
X99126715Y-147823946D01*
X98644946Y-148145853D01*
X98425000Y-148475026D01*
X98205054Y-148145853D01*
X97723285Y-147823946D01*
X97155000Y-147710907D01*
X96586715Y-147823946D01*
X96104946Y-148145853D01*
X95885000Y-148475026D01*
X95665054Y-148145853D01*
X95183285Y-147823946D01*
X94615000Y-147710907D01*
X94046715Y-147823946D01*
X93564946Y-148145853D01*
X93537150Y-148187452D01*
X93528162Y-148139683D01*
X93389090Y-147923559D01*
X93176890Y-147778569D01*
X92925000Y-147727560D01*
X91225000Y-147727560D01*
X90989683Y-147771838D01*
X90773559Y-147910910D01*
X90628569Y-148123110D01*
X90577560Y-148375000D01*
X90577560Y-149735000D01*
X87304649Y-149735000D01*
X88103801Y-149404798D01*
X88901995Y-148607995D01*
X89334507Y-147566390D01*
X89335136Y-146845244D01*
X89535000Y-146885000D01*
X99060000Y-146885000D01*
X99379541Y-146821439D01*
X99650434Y-146640434D01*
X100285434Y-146005434D01*
X100466440Y-145734540D01*
X100530000Y-145415000D01*
X100530000Y-145203691D01*
X101520000Y-145203691D01*
X101520000Y-145994250D01*
X101678750Y-146153000D01*
X102428000Y-146153000D01*
X102428000Y-144853750D01*
X102269250Y-144695000D01*
X102028690Y-144695000D01*
X101795301Y-144791673D01*
X101616673Y-144970302D01*
X101520000Y-145203691D01*
X100530000Y-145203691D01*
X100530000Y-141315868D01*
X100675868Y-141170000D01*
X105064132Y-141170000D01*
X105845000Y-141950868D01*
X105845000Y-141950868D01*
G37*
X105845000Y-141950868D02*
X105845000Y-142067370D01*
X105794683Y-142076838D01*
X105578559Y-142215910D01*
X105433569Y-142428110D01*
X105382560Y-142680000D01*
X105382560Y-143976692D01*
X104552440Y-143146572D01*
X104552440Y-142330000D01*
X104508162Y-142094683D01*
X104369090Y-141878559D01*
X104156890Y-141733569D01*
X103905000Y-141682560D01*
X103105000Y-141682560D01*
X102869683Y-141726838D01*
X102653559Y-141865910D01*
X102508569Y-142078110D01*
X102457560Y-142330000D01*
X102457560Y-144230000D01*
X102501838Y-144465317D01*
X102640910Y-144681441D01*
X102767686Y-144768064D01*
X102682000Y-144853750D01*
X102682000Y-146153000D01*
X102702000Y-146153000D01*
X102702000Y-146407000D01*
X102682000Y-146407000D01*
X102682000Y-146427000D01*
X102428000Y-146427000D01*
X102428000Y-146407000D01*
X101678750Y-146407000D01*
X101520000Y-146565750D01*
X101520000Y-147120000D01*
X100965000Y-147120000D01*
X100645459Y-147183561D01*
X100374566Y-147364566D01*
X99972939Y-147766193D01*
X99695000Y-147710907D01*
X99126715Y-147823946D01*
X98644946Y-148145853D01*
X98425000Y-148475026D01*
X98205054Y-148145853D01*
X97723285Y-147823946D01*
X97155000Y-147710907D01*
X96586715Y-147823946D01*
X96104946Y-148145853D01*
X95885000Y-148475026D01*
X95665054Y-148145853D01*
X95183285Y-147823946D01*
X94615000Y-147710907D01*
X94046715Y-147823946D01*
X93564946Y-148145853D01*
X93537150Y-148187452D01*
X93528162Y-148139683D01*
X93389090Y-147923559D01*
X93176890Y-147778569D01*
X92925000Y-147727560D01*
X91225000Y-147727560D01*
X90989683Y-147771838D01*
X90773559Y-147910910D01*
X90628569Y-148123110D01*
X90577560Y-148375000D01*
X90577560Y-149735000D01*
X87304649Y-149735000D01*
X88103801Y-149404798D01*
X88901995Y-148607995D01*
X89334507Y-147566390D01*
X89335136Y-146845244D01*
X89535000Y-146885000D01*
X99060000Y-146885000D01*
X99379541Y-146821439D01*
X99650434Y-146640434D01*
X100285434Y-146005434D01*
X100466440Y-145734540D01*
X100530000Y-145415000D01*
X100530000Y-145203691D01*
X101520000Y-145203691D01*
X101520000Y-145994250D01*
X101678750Y-146153000D01*
X102428000Y-146153000D01*
X102428000Y-144853750D01*
X102269250Y-144695000D01*
X102028690Y-144695000D01*
X101795301Y-144791673D01*
X101616673Y-144970302D01*
X101520000Y-145203691D01*
X100530000Y-145203691D01*
X100530000Y-141315868D01*
X100675868Y-141170000D01*
X105064132Y-141170000D01*
X105845000Y-141950868D01*
G36*
X82036976Y-102114916D02*
X82518282Y-102314772D01*
X82665000Y-102314900D01*
X82665000Y-103500000D01*
X82699136Y-103671614D01*
X82697000Y-103673750D01*
X82697000Y-104648000D01*
X82717000Y-104648000D01*
X82717000Y-104902000D01*
X82697000Y-104902000D01*
X82697000Y-105876250D01*
X82855750Y-106035000D01*
X83446309Y-106035000D01*
X83679698Y-105938327D01*
X83820936Y-105797090D01*
X83855910Y-105851441D01*
X84068110Y-105996431D01*
X84320000Y-106047440D01*
X85820000Y-106047440D01*
X86055317Y-106003162D01*
X86271441Y-105864090D01*
X86416431Y-105651890D01*
X86467440Y-105400000D01*
X86467440Y-105168428D01*
X87398428Y-104237440D01*
X87419534Y-104237440D01*
X87326673Y-104330302D01*
X87230000Y-104563691D01*
X87230000Y-104854250D01*
X87388750Y-105013000D01*
X88138000Y-105013000D01*
X88138000Y-104213750D01*
X88051988Y-104127738D01*
X88166441Y-104054090D01*
X88265633Y-103908917D01*
X88350910Y-104041441D01*
X88477686Y-104128064D01*
X88392000Y-104213750D01*
X88392000Y-105013000D01*
X89141250Y-105013000D01*
X89300000Y-104854250D01*
X89300000Y-104563691D01*
X89203327Y-104330302D01*
X89110466Y-104237440D01*
X89615000Y-104237440D01*
X89721527Y-104217395D01*
X90062560Y-104558428D01*
X90062560Y-105400000D01*
X90106838Y-105635317D01*
X90245910Y-105851441D01*
X90458110Y-105996431D01*
X90710000Y-106047440D01*
X90896572Y-106047440D01*
X91182465Y-106333333D01*
X91231421Y-106451815D01*
X90889803Y-106110197D01*
X90849410Y-106083006D01*
X90800000Y-106073000D01*
X89080026Y-106073000D01*
X89203327Y-105949698D01*
X89300000Y-105716309D01*
X89300000Y-105425750D01*
X89141250Y-105267000D01*
X88392000Y-105267000D01*
X88392000Y-105287000D01*
X88138000Y-105287000D01*
X88138000Y-105267000D01*
X87388750Y-105267000D01*
X87230000Y-105425750D01*
X87230000Y-105716309D01*
X87326673Y-105949698D01*
X87449974Y-106073000D01*
X83600000Y-106073000D01*
X83552211Y-106082334D01*
X83510197Y-106110197D01*
X82710197Y-106910197D01*
X82683006Y-106950590D01*
X82673000Y-107000000D01*
X82673000Y-119000000D01*
X82682334Y-119047789D01*
X82710197Y-119089803D01*
X83510197Y-119889803D01*
X83550590Y-119916994D01*
X83600000Y-119927000D01*
X90800000Y-119927000D01*
X90847789Y-119917666D01*
X90889803Y-119889803D01*
X96452606Y-114327000D01*
X97323198Y-114327000D01*
X94475320Y-117174878D01*
X94429833Y-117174838D01*
X94086057Y-117316883D01*
X93822808Y-117579673D01*
X93680162Y-117923201D01*
X93679838Y-118295167D01*
X93821883Y-118638943D01*
X94084673Y-118902192D01*
X94428201Y-119044838D01*
X94800167Y-119045162D01*
X95143943Y-118903117D01*
X95407192Y-118640327D01*
X95549838Y-118296799D01*
X95549879Y-118249923D01*
X98301341Y-115498461D01*
X98529673Y-115727192D01*
X98873201Y-115869838D01*
X99245167Y-115870162D01*
X99523476Y-115755167D01*
X105744838Y-115755167D01*
X105886883Y-116098943D01*
X106149673Y-116362192D01*
X106493201Y-116504838D01*
X106865167Y-116505162D01*
X107208943Y-116363117D01*
X107242118Y-116330000D01*
X114372537Y-116330000D01*
X114404673Y-116362192D01*
X114748201Y-116504838D01*
X115120167Y-116505162D01*
X115463943Y-116363117D01*
X115727192Y-116100327D01*
X115869838Y-115756799D01*
X115870162Y-115384833D01*
X115728117Y-115041057D01*
X115465327Y-114777808D01*
X115121799Y-114635162D01*
X114749833Y-114634838D01*
X114406057Y-114776883D01*
X114372882Y-114810000D01*
X107242463Y-114810000D01*
X107210327Y-114777808D01*
X106866799Y-114635162D01*
X106494833Y-114634838D01*
X106151057Y-114776883D01*
X105887808Y-115039673D01*
X105745162Y-115383201D01*
X105744838Y-115755167D01*
X99523476Y-115755167D01*
X99588943Y-115728117D01*
X99852192Y-115465327D01*
X99994838Y-115121799D01*
X99994879Y-115074923D01*
X100867401Y-114202401D01*
X101032148Y-113955840D01*
X101090000Y-113665000D01*
X101090000Y-112695110D01*
X101150167Y-112695162D01*
X101493943Y-112553117D01*
X101757192Y-112290327D01*
X101899838Y-111946799D01*
X101899839Y-111945167D01*
X103839838Y-111945167D01*
X103981883Y-112288943D01*
X104015000Y-112322118D01*
X104015000Y-113102537D01*
X103982808Y-113134673D01*
X103840162Y-113478201D01*
X103839838Y-113850167D01*
X103981883Y-114193943D01*
X104244673Y-114457192D01*
X104588201Y-114599838D01*
X104960167Y-114600162D01*
X105303943Y-114458117D01*
X105567192Y-114195327D01*
X105709838Y-113851799D01*
X105710162Y-113479833D01*
X105568117Y-113136057D01*
X105535000Y-113102882D01*
X105535000Y-112322463D01*
X105567192Y-112290327D01*
X105709838Y-111946799D01*
X105710162Y-111574833D01*
X105568117Y-111231057D01*
X105305327Y-110967808D01*
X104961799Y-110825162D01*
X104589833Y-110824838D01*
X104246057Y-110966883D01*
X103982808Y-111229673D01*
X103840162Y-111573201D01*
X103839838Y-111945167D01*
X101899839Y-111945167D01*
X101900162Y-111574833D01*
X101758117Y-111231057D01*
X101725000Y-111197882D01*
X101725000Y-109855000D01*
X101667148Y-109564161D01*
X101667148Y-109564160D01*
X101502401Y-109317599D01*
X101069894Y-108885092D01*
X101150167Y-108885162D01*
X101493943Y-108743117D01*
X101757192Y-108480327D01*
X101899838Y-108136799D01*
X101899879Y-108089923D01*
X106359802Y-103630000D01*
X113102537Y-103630000D01*
X113134673Y-103662192D01*
X113478201Y-103804838D01*
X113850167Y-103805162D01*
X114146898Y-103682555D01*
X114055907Y-104140000D01*
X114168946Y-104708285D01*
X114490853Y-105190054D01*
X114972622Y-105511961D01*
X115540907Y-105625000D01*
X115599093Y-105625000D01*
X115828500Y-105579368D01*
X116005000Y-105755868D01*
X116005000Y-125730000D01*
X116068561Y-126049541D01*
X116078816Y-126064889D01*
X116019833Y-126064838D01*
X115676057Y-126206883D01*
X115412808Y-126469673D01*
X115270162Y-126813201D01*
X115269838Y-127185167D01*
X115411883Y-127528943D01*
X115674673Y-127792192D01*
X115916910Y-127892778D01*
X116167132Y-128143000D01*
X113783736Y-128143000D01*
X113830000Y-128031309D01*
X113830000Y-127190750D01*
X113671250Y-127032000D01*
X112522000Y-127032000D01*
X112522000Y-127052000D01*
X112268000Y-127052000D01*
X112268000Y-127032000D01*
X111118750Y-127032000D01*
X110960000Y-127190750D01*
X110960000Y-128031309D01*
X111006264Y-128143000D01*
X109845000Y-128143000D01*
X109845000Y-127940750D01*
X109686250Y-127782000D01*
X108712000Y-127782000D01*
X108712000Y-127802000D01*
X108458000Y-127802000D01*
X108458000Y-127782000D01*
X107483750Y-127782000D01*
X107325000Y-127940750D01*
X107325000Y-128143000D01*
X93980000Y-128143000D01*
X93930590Y-128153006D01*
X93888965Y-128181447D01*
X93861685Y-128223841D01*
X93853000Y-128270000D01*
X93853000Y-132588000D01*
X93615000Y-132588000D01*
X93615000Y-132365750D01*
X93456250Y-132207000D01*
X92107000Y-132207000D01*
X92107000Y-132227000D01*
X91853000Y-132227000D01*
X91853000Y-132207000D01*
X90503750Y-132207000D01*
X90345000Y-132365750D01*
X90345000Y-133006310D01*
X90434756Y-133223000D01*
X89525000Y-133223000D01*
X89525000Y-133020750D01*
X89366250Y-132862000D01*
X88392000Y-132862000D01*
X88392000Y-132882000D01*
X88138000Y-132882000D01*
X88138000Y-132862000D01*
X87163750Y-132862000D01*
X87005000Y-133020750D01*
X87005000Y-133223000D01*
X86575000Y-133223000D01*
X86575000Y-133222998D01*
X86410156Y-133222998D01*
X86531476Y-132993110D01*
X86361645Y-132583076D01*
X86085499Y-132280063D01*
X86175317Y-132263162D01*
X86391441Y-132124090D01*
X86536431Y-131911890D01*
X86547204Y-131858691D01*
X87005000Y-131858691D01*
X87005000Y-132449250D01*
X87163750Y-132608000D01*
X88138000Y-132608000D01*
X88138000Y-131508750D01*
X88392000Y-131508750D01*
X88392000Y-132608000D01*
X89366250Y-132608000D01*
X89525000Y-132449250D01*
X89525000Y-131858691D01*
X89428327Y-131625302D01*
X89249699Y-131446673D01*
X89016310Y-131350000D01*
X88550750Y-131350000D01*
X88392000Y-131508750D01*
X88138000Y-131508750D01*
X87979250Y-131350000D01*
X87513690Y-131350000D01*
X87280301Y-131446673D01*
X87101673Y-131625302D01*
X87005000Y-131858691D01*
X86547204Y-131858691D01*
X86587440Y-131660000D01*
X86587440Y-131153690D01*
X90345000Y-131153690D01*
X90345000Y-131794250D01*
X90503750Y-131953000D01*
X91853000Y-131953000D01*
X91853000Y-130803750D01*
X92107000Y-130803750D01*
X92107000Y-131953000D01*
X93456250Y-131953000D01*
X93615000Y-131794250D01*
X93615000Y-131153690D01*
X93518327Y-130920301D01*
X93339698Y-130741673D01*
X93106309Y-130645000D01*
X92265750Y-130645000D01*
X92107000Y-130803750D01*
X91853000Y-130803750D01*
X91694250Y-130645000D01*
X90853691Y-130645000D01*
X90620302Y-130741673D01*
X90441673Y-130920301D01*
X90345000Y-131153690D01*
X86587440Y-131153690D01*
X86587440Y-129960000D01*
X86543162Y-129724683D01*
X86404090Y-129508559D01*
X86191890Y-129363569D01*
X85940000Y-129312560D01*
X84240000Y-129312560D01*
X84004683Y-129356838D01*
X83788559Y-129495910D01*
X83643569Y-129708110D01*
X83592560Y-129960000D01*
X83592560Y-131660000D01*
X83636838Y-131895317D01*
X83775910Y-132111441D01*
X83988110Y-132256431D01*
X84096107Y-132278301D01*
X83818355Y-132583076D01*
X83648524Y-132993110D01*
X83769845Y-133223000D01*
X84963000Y-133223000D01*
X84963000Y-133203000D01*
X85217000Y-133203000D01*
X85217000Y-133223000D01*
X85237000Y-133223000D01*
X85237000Y-133477000D01*
X85217000Y-133477000D01*
X85217000Y-133497000D01*
X84963000Y-133497000D01*
X84963000Y-133477000D01*
X83769845Y-133477000D01*
X83648524Y-133706890D01*
X83818355Y-134116924D01*
X84208642Y-134545183D01*
X84351553Y-134612298D01*
X84010853Y-134839946D01*
X83688946Y-135321715D01*
X83575907Y-135890000D01*
X83688946Y-136458285D01*
X84010853Y-136940054D01*
X84340026Y-137160000D01*
X84010853Y-137379946D01*
X83688946Y-137861715D01*
X83575907Y-138430000D01*
X83688946Y-138998285D01*
X84010853Y-139480054D01*
X84492622Y-139801961D01*
X85060907Y-139915000D01*
X85119093Y-139915000D01*
X85598000Y-139819739D01*
X85598000Y-144305224D01*
X84896199Y-144595202D01*
X84098005Y-145392005D01*
X83665493Y-146433610D01*
X83664509Y-147561442D01*
X84095202Y-148603801D01*
X84892005Y-149401995D01*
X85693970Y-149735000D01*
X84769802Y-149735000D01*
X83310000Y-148275198D01*
X83310000Y-147247463D01*
X83342192Y-147215327D01*
X83484838Y-146871799D01*
X83485162Y-146499833D01*
X83343117Y-146156057D01*
X83080327Y-145892808D01*
X82736799Y-145750162D01*
X82364833Y-145749838D01*
X82021057Y-145891883D01*
X81899887Y-146012842D01*
X81685000Y-144932533D01*
X81685000Y-125565000D01*
X84912560Y-125565000D01*
X84912560Y-127165000D01*
X84956838Y-127400317D01*
X85095910Y-127616441D01*
X85308110Y-127761431D01*
X85560000Y-127812440D01*
X87160000Y-127812440D01*
X87395317Y-127768162D01*
X87611441Y-127629090D01*
X87756431Y-127416890D01*
X87807440Y-127165000D01*
X87807440Y-126778691D01*
X107325000Y-126778691D01*
X107325000Y-127369250D01*
X107483750Y-127528000D01*
X108458000Y-127528000D01*
X108458000Y-126428750D01*
X108712000Y-126428750D01*
X108712000Y-127528000D01*
X109686250Y-127528000D01*
X109845000Y-127369250D01*
X109845000Y-126778691D01*
X109748327Y-126545302D01*
X109569699Y-126366673D01*
X109336310Y-126270000D01*
X108870750Y-126270000D01*
X108712000Y-126428750D01*
X108458000Y-126428750D01*
X108299250Y-126270000D01*
X107833690Y-126270000D01*
X107600301Y-126366673D01*
X107421673Y-126545302D01*
X107325000Y-126778691D01*
X87807440Y-126778691D01*
X87807440Y-125565000D01*
X87763162Y-125329683D01*
X87624090Y-125113559D01*
X87411890Y-124968569D01*
X87160000Y-124917560D01*
X85560000Y-124917560D01*
X85324683Y-124961838D01*
X85108559Y-125100910D01*
X84963569Y-125313110D01*
X84912560Y-125565000D01*
X81685000Y-125565000D01*
X81685000Y-123872745D01*
X85531861Y-123872745D01*
X85605995Y-124118864D01*
X86143223Y-124311965D01*
X86713454Y-124284778D01*
X87114005Y-124118864D01*
X87188139Y-123872745D01*
X86360000Y-123044605D01*
X85531861Y-123872745D01*
X81685000Y-123872745D01*
X81685000Y-122648223D01*
X84913035Y-122648223D01*
X84940222Y-123218454D01*
X85106136Y-123619005D01*
X85352255Y-123693139D01*
X86180395Y-122865000D01*
X86539605Y-122865000D01*
X87367745Y-123693139D01*
X87613864Y-123619005D01*
X87701509Y-123375167D01*
X100029838Y-123375167D01*
X100171883Y-123718943D01*
X100277710Y-123824954D01*
X100172808Y-123929673D01*
X100030162Y-124273201D01*
X100029838Y-124645167D01*
X100171883Y-124988943D01*
X100434673Y-125252192D01*
X100778201Y-125394838D01*
X101150167Y-125395162D01*
X101493943Y-125253117D01*
X101527118Y-125220000D01*
X103204890Y-125220000D01*
X103204838Y-125280167D01*
X103346883Y-125623943D01*
X103609673Y-125887192D01*
X103953201Y-126029838D01*
X104325167Y-126030162D01*
X104668943Y-125888117D01*
X104702118Y-125855000D01*
X106752537Y-125855000D01*
X106784673Y-125887192D01*
X107128201Y-126029838D01*
X107500167Y-126030162D01*
X107843943Y-125888117D01*
X107953560Y-125778691D01*
X110960000Y-125778691D01*
X110960000Y-126619250D01*
X111118750Y-126778000D01*
X112268000Y-126778000D01*
X112268000Y-125428750D01*
X112522000Y-125428750D01*
X112522000Y-126778000D01*
X113671250Y-126778000D01*
X113830000Y-126619250D01*
X113830000Y-125778691D01*
X113733327Y-125545302D01*
X113554699Y-125366673D01*
X113321310Y-125270000D01*
X112680750Y-125270000D01*
X112522000Y-125428750D01*
X112268000Y-125428750D01*
X112109250Y-125270000D01*
X111468690Y-125270000D01*
X111235301Y-125366673D01*
X111056673Y-125545302D01*
X110960000Y-125778691D01*
X107953560Y-125778691D01*
X108107192Y-125625327D01*
X108249838Y-125281799D01*
X108249879Y-125234923D01*
X108487401Y-124997401D01*
X108652148Y-124750839D01*
X108710000Y-124460000D01*
X108710000Y-121212463D01*
X108742192Y-121180327D01*
X108884838Y-120836799D01*
X108885162Y-120464833D01*
X108743117Y-120121057D01*
X108480327Y-119857808D01*
X108136799Y-119715162D01*
X107764833Y-119714838D01*
X107421057Y-119856883D01*
X107157808Y-120119673D01*
X107015162Y-120463201D01*
X107014838Y-120835167D01*
X107156883Y-121178943D01*
X107190000Y-121212118D01*
X107190000Y-122889890D01*
X107129833Y-122889838D01*
X106961403Y-122959432D01*
X106838117Y-122661057D01*
X106575327Y-122397808D01*
X106231799Y-122255162D01*
X105859833Y-122254838D01*
X105516057Y-122396883D01*
X105482882Y-122430000D01*
X101527463Y-122430000D01*
X101495327Y-122397808D01*
X101151799Y-122255162D01*
X100779833Y-122254838D01*
X100436057Y-122396883D01*
X100172808Y-122659673D01*
X100030162Y-123003201D01*
X100029838Y-123375167D01*
X87701509Y-123375167D01*
X87806965Y-123081777D01*
X87779778Y-122511546D01*
X87613864Y-122110995D01*
X87367745Y-122036861D01*
X86539605Y-122865000D01*
X86180395Y-122865000D01*
X85352255Y-122036861D01*
X85106136Y-122110995D01*
X84913035Y-122648223D01*
X81685000Y-122648223D01*
X81685000Y-121857255D01*
X85531861Y-121857255D01*
X86360000Y-122685395D01*
X87188139Y-121857255D01*
X87114005Y-121611136D01*
X86576777Y-121418035D01*
X86006546Y-121445222D01*
X85605995Y-121611136D01*
X85531861Y-121857255D01*
X81685000Y-121857255D01*
X81685000Y-106031400D01*
X81693691Y-106035000D01*
X82284250Y-106035000D01*
X82443000Y-105876250D01*
X82443000Y-104902000D01*
X82423000Y-104902000D01*
X82423000Y-104648000D01*
X82443000Y-104648000D01*
X82443000Y-103673750D01*
X82284250Y-103515000D01*
X81693691Y-103515000D01*
X81685000Y-103518600D01*
X81685000Y-101762325D01*
X82036976Y-102114916D01*
X82036976Y-102114916D01*
G37*
X82036976Y-102114916D02*
X82518282Y-102314772D01*
X82665000Y-102314900D01*
X82665000Y-103500000D01*
X82699136Y-103671614D01*
X82697000Y-103673750D01*
X82697000Y-104648000D01*
X82717000Y-104648000D01*
X82717000Y-104902000D01*
X82697000Y-104902000D01*
X82697000Y-105876250D01*
X82855750Y-106035000D01*
X83446309Y-106035000D01*
X83679698Y-105938327D01*
X83820936Y-105797090D01*
X83855910Y-105851441D01*
X84068110Y-105996431D01*
X84320000Y-106047440D01*
X85820000Y-106047440D01*
X86055317Y-106003162D01*
X86271441Y-105864090D01*
X86416431Y-105651890D01*
X86467440Y-105400000D01*
X86467440Y-105168428D01*
X87398428Y-104237440D01*
X87419534Y-104237440D01*
X87326673Y-104330302D01*
X87230000Y-104563691D01*
X87230000Y-104854250D01*
X87388750Y-105013000D01*
X88138000Y-105013000D01*
X88138000Y-104213750D01*
X88051988Y-104127738D01*
X88166441Y-104054090D01*
X88265633Y-103908917D01*
X88350910Y-104041441D01*
X88477686Y-104128064D01*
X88392000Y-104213750D01*
X88392000Y-105013000D01*
X89141250Y-105013000D01*
X89300000Y-104854250D01*
X89300000Y-104563691D01*
X89203327Y-104330302D01*
X89110466Y-104237440D01*
X89615000Y-104237440D01*
X89721527Y-104217395D01*
X90062560Y-104558428D01*
X90062560Y-105400000D01*
X90106838Y-105635317D01*
X90245910Y-105851441D01*
X90458110Y-105996431D01*
X90710000Y-106047440D01*
X90896572Y-106047440D01*
X91182465Y-106333333D01*
X91231421Y-106451815D01*
X90889803Y-106110197D01*
X90849410Y-106083006D01*
X90800000Y-106073000D01*
X89080026Y-106073000D01*
X89203327Y-105949698D01*
X89300000Y-105716309D01*
X89300000Y-105425750D01*
X89141250Y-105267000D01*
X88392000Y-105267000D01*
X88392000Y-105287000D01*
X88138000Y-105287000D01*
X88138000Y-105267000D01*
X87388750Y-105267000D01*
X87230000Y-105425750D01*
X87230000Y-105716309D01*
X87326673Y-105949698D01*
X87449974Y-106073000D01*
X83600000Y-106073000D01*
X83552211Y-106082334D01*
X83510197Y-106110197D01*
X82710197Y-106910197D01*
X82683006Y-106950590D01*
X82673000Y-107000000D01*
X82673000Y-119000000D01*
X82682334Y-119047789D01*
X82710197Y-119089803D01*
X83510197Y-119889803D01*
X83550590Y-119916994D01*
X83600000Y-119927000D01*
X90800000Y-119927000D01*
X90847789Y-119917666D01*
X90889803Y-119889803D01*
X96452606Y-114327000D01*
X97323198Y-114327000D01*
X94475320Y-117174878D01*
X94429833Y-117174838D01*
X94086057Y-117316883D01*
X93822808Y-117579673D01*
X93680162Y-117923201D01*
X93679838Y-118295167D01*
X93821883Y-118638943D01*
X94084673Y-118902192D01*
X94428201Y-119044838D01*
X94800167Y-119045162D01*
X95143943Y-118903117D01*
X95407192Y-118640327D01*
X95549838Y-118296799D01*
X95549879Y-118249923D01*
X98301341Y-115498461D01*
X98529673Y-115727192D01*
X98873201Y-115869838D01*
X99245167Y-115870162D01*
X99523476Y-115755167D01*
X105744838Y-115755167D01*
X105886883Y-116098943D01*
X106149673Y-116362192D01*
X106493201Y-116504838D01*
X106865167Y-116505162D01*
X107208943Y-116363117D01*
X107242118Y-116330000D01*
X114372537Y-116330000D01*
X114404673Y-116362192D01*
X114748201Y-116504838D01*
X115120167Y-116505162D01*
X115463943Y-116363117D01*
X115727192Y-116100327D01*
X115869838Y-115756799D01*
X115870162Y-115384833D01*
X115728117Y-115041057D01*
X115465327Y-114777808D01*
X115121799Y-114635162D01*
X114749833Y-114634838D01*
X114406057Y-114776883D01*
X114372882Y-114810000D01*
X107242463Y-114810000D01*
X107210327Y-114777808D01*
X106866799Y-114635162D01*
X106494833Y-114634838D01*
X106151057Y-114776883D01*
X105887808Y-115039673D01*
X105745162Y-115383201D01*
X105744838Y-115755167D01*
X99523476Y-115755167D01*
X99588943Y-115728117D01*
X99852192Y-115465327D01*
X99994838Y-115121799D01*
X99994879Y-115074923D01*
X100867401Y-114202401D01*
X101032148Y-113955840D01*
X101090000Y-113665000D01*
X101090000Y-112695110D01*
X101150167Y-112695162D01*
X101493943Y-112553117D01*
X101757192Y-112290327D01*
X101899838Y-111946799D01*
X101899839Y-111945167D01*
X103839838Y-111945167D01*
X103981883Y-112288943D01*
X104015000Y-112322118D01*
X104015000Y-113102537D01*
X103982808Y-113134673D01*
X103840162Y-113478201D01*
X103839838Y-113850167D01*
X103981883Y-114193943D01*
X104244673Y-114457192D01*
X104588201Y-114599838D01*
X104960167Y-114600162D01*
X105303943Y-114458117D01*
X105567192Y-114195327D01*
X105709838Y-113851799D01*
X105710162Y-113479833D01*
X105568117Y-113136057D01*
X105535000Y-113102882D01*
X105535000Y-112322463D01*
X105567192Y-112290327D01*
X105709838Y-111946799D01*
X105710162Y-111574833D01*
X105568117Y-111231057D01*
X105305327Y-110967808D01*
X104961799Y-110825162D01*
X104589833Y-110824838D01*
X104246057Y-110966883D01*
X103982808Y-111229673D01*
X103840162Y-111573201D01*
X103839838Y-111945167D01*
X101899839Y-111945167D01*
X101900162Y-111574833D01*
X101758117Y-111231057D01*
X101725000Y-111197882D01*
X101725000Y-109855000D01*
X101667148Y-109564161D01*
X101667148Y-109564160D01*
X101502401Y-109317599D01*
X101069894Y-108885092D01*
X101150167Y-108885162D01*
X101493943Y-108743117D01*
X101757192Y-108480327D01*
X101899838Y-108136799D01*
X101899879Y-108089923D01*
X106359802Y-103630000D01*
X113102537Y-103630000D01*
X113134673Y-103662192D01*
X113478201Y-103804838D01*
X113850167Y-103805162D01*
X114146898Y-103682555D01*
X114055907Y-104140000D01*
X114168946Y-104708285D01*
X114490853Y-105190054D01*
X114972622Y-105511961D01*
X115540907Y-105625000D01*
X115599093Y-105625000D01*
X115828500Y-105579368D01*
X116005000Y-105755868D01*
X116005000Y-125730000D01*
X116068561Y-126049541D01*
X116078816Y-126064889D01*
X116019833Y-126064838D01*
X115676057Y-126206883D01*
X115412808Y-126469673D01*
X115270162Y-126813201D01*
X115269838Y-127185167D01*
X115411883Y-127528943D01*
X115674673Y-127792192D01*
X115916910Y-127892778D01*
X116167132Y-128143000D01*
X113783736Y-128143000D01*
X113830000Y-128031309D01*
X113830000Y-127190750D01*
X113671250Y-127032000D01*
X112522000Y-127032000D01*
X112522000Y-127052000D01*
X112268000Y-127052000D01*
X112268000Y-127032000D01*
X111118750Y-127032000D01*
X110960000Y-127190750D01*
X110960000Y-128031309D01*
X111006264Y-128143000D01*
X109845000Y-128143000D01*
X109845000Y-127940750D01*
X109686250Y-127782000D01*
X108712000Y-127782000D01*
X108712000Y-127802000D01*
X108458000Y-127802000D01*
X108458000Y-127782000D01*
X107483750Y-127782000D01*
X107325000Y-127940750D01*
X107325000Y-128143000D01*
X93980000Y-128143000D01*
X93930590Y-128153006D01*
X93888965Y-128181447D01*
X93861685Y-128223841D01*
X93853000Y-128270000D01*
X93853000Y-132588000D01*
X93615000Y-132588000D01*
X93615000Y-132365750D01*
X93456250Y-132207000D01*
X92107000Y-132207000D01*
X92107000Y-132227000D01*
X91853000Y-132227000D01*
X91853000Y-132207000D01*
X90503750Y-132207000D01*
X90345000Y-132365750D01*
X90345000Y-133006310D01*
X90434756Y-133223000D01*
X89525000Y-133223000D01*
X89525000Y-133020750D01*
X89366250Y-132862000D01*
X88392000Y-132862000D01*
X88392000Y-132882000D01*
X88138000Y-132882000D01*
X88138000Y-132862000D01*
X87163750Y-132862000D01*
X87005000Y-133020750D01*
X87005000Y-133223000D01*
X86575000Y-133223000D01*
X86575000Y-133222998D01*
X86410156Y-133222998D01*
X86531476Y-132993110D01*
X86361645Y-132583076D01*
X86085499Y-132280063D01*
X86175317Y-132263162D01*
X86391441Y-132124090D01*
X86536431Y-131911890D01*
X86547204Y-131858691D01*
X87005000Y-131858691D01*
X87005000Y-132449250D01*
X87163750Y-132608000D01*
X88138000Y-132608000D01*
X88138000Y-131508750D01*
X88392000Y-131508750D01*
X88392000Y-132608000D01*
X89366250Y-132608000D01*
X89525000Y-132449250D01*
X89525000Y-131858691D01*
X89428327Y-131625302D01*
X89249699Y-131446673D01*
X89016310Y-131350000D01*
X88550750Y-131350000D01*
X88392000Y-131508750D01*
X88138000Y-131508750D01*
X87979250Y-131350000D01*
X87513690Y-131350000D01*
X87280301Y-131446673D01*
X87101673Y-131625302D01*
X87005000Y-131858691D01*
X86547204Y-131858691D01*
X86587440Y-131660000D01*
X86587440Y-131153690D01*
X90345000Y-131153690D01*
X90345000Y-131794250D01*
X90503750Y-131953000D01*
X91853000Y-131953000D01*
X91853000Y-130803750D01*
X92107000Y-130803750D01*
X92107000Y-131953000D01*
X93456250Y-131953000D01*
X93615000Y-131794250D01*
X93615000Y-131153690D01*
X93518327Y-130920301D01*
X93339698Y-130741673D01*
X93106309Y-130645000D01*
X92265750Y-130645000D01*
X92107000Y-130803750D01*
X91853000Y-130803750D01*
X91694250Y-130645000D01*
X90853691Y-130645000D01*
X90620302Y-130741673D01*
X90441673Y-130920301D01*
X90345000Y-131153690D01*
X86587440Y-131153690D01*
X86587440Y-129960000D01*
X86543162Y-129724683D01*
X86404090Y-129508559D01*
X86191890Y-129363569D01*
X85940000Y-129312560D01*
X84240000Y-129312560D01*
X84004683Y-129356838D01*
X83788559Y-129495910D01*
X83643569Y-129708110D01*
X83592560Y-129960000D01*
X83592560Y-131660000D01*
X83636838Y-131895317D01*
X83775910Y-132111441D01*
X83988110Y-132256431D01*
X84096107Y-132278301D01*
X83818355Y-132583076D01*
X83648524Y-132993110D01*
X83769845Y-133223000D01*
X84963000Y-133223000D01*
X84963000Y-133203000D01*
X85217000Y-133203000D01*
X85217000Y-133223000D01*
X85237000Y-133223000D01*
X85237000Y-133477000D01*
X85217000Y-133477000D01*
X85217000Y-133497000D01*
X84963000Y-133497000D01*
X84963000Y-133477000D01*
X83769845Y-133477000D01*
X83648524Y-133706890D01*
X83818355Y-134116924D01*
X84208642Y-134545183D01*
X84351553Y-134612298D01*
X84010853Y-134839946D01*
X83688946Y-135321715D01*
X83575907Y-135890000D01*
X83688946Y-136458285D01*
X84010853Y-136940054D01*
X84340026Y-137160000D01*
X84010853Y-137379946D01*
X83688946Y-137861715D01*
X83575907Y-138430000D01*
X83688946Y-138998285D01*
X84010853Y-139480054D01*
X84492622Y-139801961D01*
X85060907Y-139915000D01*
X85119093Y-139915000D01*
X85598000Y-139819739D01*
X85598000Y-144305224D01*
X84896199Y-144595202D01*
X84098005Y-145392005D01*
X83665493Y-146433610D01*
X83664509Y-147561442D01*
X84095202Y-148603801D01*
X84892005Y-149401995D01*
X85693970Y-149735000D01*
X84769802Y-149735000D01*
X83310000Y-148275198D01*
X83310000Y-147247463D01*
X83342192Y-147215327D01*
X83484838Y-146871799D01*
X83485162Y-146499833D01*
X83343117Y-146156057D01*
X83080327Y-145892808D01*
X82736799Y-145750162D01*
X82364833Y-145749838D01*
X82021057Y-145891883D01*
X81899887Y-146012842D01*
X81685000Y-144932533D01*
X81685000Y-125565000D01*
X84912560Y-125565000D01*
X84912560Y-127165000D01*
X84956838Y-127400317D01*
X85095910Y-127616441D01*
X85308110Y-127761431D01*
X85560000Y-127812440D01*
X87160000Y-127812440D01*
X87395317Y-127768162D01*
X87611441Y-127629090D01*
X87756431Y-127416890D01*
X87807440Y-127165000D01*
X87807440Y-126778691D01*
X107325000Y-126778691D01*
X107325000Y-127369250D01*
X107483750Y-127528000D01*
X108458000Y-127528000D01*
X108458000Y-126428750D01*
X108712000Y-126428750D01*
X108712000Y-127528000D01*
X109686250Y-127528000D01*
X109845000Y-127369250D01*
X109845000Y-126778691D01*
X109748327Y-126545302D01*
X109569699Y-126366673D01*
X109336310Y-126270000D01*
X108870750Y-126270000D01*
X108712000Y-126428750D01*
X108458000Y-126428750D01*
X108299250Y-126270000D01*
X107833690Y-126270000D01*
X107600301Y-126366673D01*
X107421673Y-126545302D01*
X107325000Y-126778691D01*
X87807440Y-126778691D01*
X87807440Y-125565000D01*
X87763162Y-125329683D01*
X87624090Y-125113559D01*
X87411890Y-124968569D01*
X87160000Y-124917560D01*
X85560000Y-124917560D01*
X85324683Y-124961838D01*
X85108559Y-125100910D01*
X84963569Y-125313110D01*
X84912560Y-125565000D01*
X81685000Y-125565000D01*
X81685000Y-123872745D01*
X85531861Y-123872745D01*
X85605995Y-124118864D01*
X86143223Y-124311965D01*
X86713454Y-124284778D01*
X87114005Y-124118864D01*
X87188139Y-123872745D01*
X86360000Y-123044605D01*
X85531861Y-123872745D01*
X81685000Y-123872745D01*
X81685000Y-122648223D01*
X84913035Y-122648223D01*
X84940222Y-123218454D01*
X85106136Y-123619005D01*
X85352255Y-123693139D01*
X86180395Y-122865000D01*
X86539605Y-122865000D01*
X87367745Y-123693139D01*
X87613864Y-123619005D01*
X87701509Y-123375167D01*
X100029838Y-123375167D01*
X100171883Y-123718943D01*
X100277710Y-123824954D01*
X100172808Y-123929673D01*
X100030162Y-124273201D01*
X100029838Y-124645167D01*
X100171883Y-124988943D01*
X100434673Y-125252192D01*
X100778201Y-125394838D01*
X101150167Y-125395162D01*
X101493943Y-125253117D01*
X101527118Y-125220000D01*
X103204890Y-125220000D01*
X103204838Y-125280167D01*
X103346883Y-125623943D01*
X103609673Y-125887192D01*
X103953201Y-126029838D01*
X104325167Y-126030162D01*
X104668943Y-125888117D01*
X104702118Y-125855000D01*
X106752537Y-125855000D01*
X106784673Y-125887192D01*
X107128201Y-126029838D01*
X107500167Y-126030162D01*
X107843943Y-125888117D01*
X107953560Y-125778691D01*
X110960000Y-125778691D01*
X110960000Y-126619250D01*
X111118750Y-126778000D01*
X112268000Y-126778000D01*
X112268000Y-125428750D01*
X112522000Y-125428750D01*
X112522000Y-126778000D01*
X113671250Y-126778000D01*
X113830000Y-126619250D01*
X113830000Y-125778691D01*
X113733327Y-125545302D01*
X113554699Y-125366673D01*
X113321310Y-125270000D01*
X112680750Y-125270000D01*
X112522000Y-125428750D01*
X112268000Y-125428750D01*
X112109250Y-125270000D01*
X111468690Y-125270000D01*
X111235301Y-125366673D01*
X111056673Y-125545302D01*
X110960000Y-125778691D01*
X107953560Y-125778691D01*
X108107192Y-125625327D01*
X108249838Y-125281799D01*
X108249879Y-125234923D01*
X108487401Y-124997401D01*
X108652148Y-124750839D01*
X108710000Y-124460000D01*
X108710000Y-121212463D01*
X108742192Y-121180327D01*
X108884838Y-120836799D01*
X108885162Y-120464833D01*
X108743117Y-120121057D01*
X108480327Y-119857808D01*
X108136799Y-119715162D01*
X107764833Y-119714838D01*
X107421057Y-119856883D01*
X107157808Y-120119673D01*
X107015162Y-120463201D01*
X107014838Y-120835167D01*
X107156883Y-121178943D01*
X107190000Y-121212118D01*
X107190000Y-122889890D01*
X107129833Y-122889838D01*
X106961403Y-122959432D01*
X106838117Y-122661057D01*
X106575327Y-122397808D01*
X106231799Y-122255162D01*
X105859833Y-122254838D01*
X105516057Y-122396883D01*
X105482882Y-122430000D01*
X101527463Y-122430000D01*
X101495327Y-122397808D01*
X101151799Y-122255162D01*
X100779833Y-122254838D01*
X100436057Y-122396883D01*
X100172808Y-122659673D01*
X100030162Y-123003201D01*
X100029838Y-123375167D01*
X87701509Y-123375167D01*
X87806965Y-123081777D01*
X87779778Y-122511546D01*
X87613864Y-122110995D01*
X87367745Y-122036861D01*
X86539605Y-122865000D01*
X86180395Y-122865000D01*
X85352255Y-122036861D01*
X85106136Y-122110995D01*
X84913035Y-122648223D01*
X81685000Y-122648223D01*
X81685000Y-121857255D01*
X85531861Y-121857255D01*
X86360000Y-122685395D01*
X87188139Y-121857255D01*
X87114005Y-121611136D01*
X86576777Y-121418035D01*
X86006546Y-121445222D01*
X85605995Y-121611136D01*
X85531861Y-121857255D01*
X81685000Y-121857255D01*
X81685000Y-106031400D01*
X81693691Y-106035000D01*
X82284250Y-106035000D01*
X82443000Y-105876250D01*
X82443000Y-104902000D01*
X82423000Y-104902000D01*
X82423000Y-104648000D01*
X82443000Y-104648000D01*
X82443000Y-103673750D01*
X82284250Y-103515000D01*
X81693691Y-103515000D01*
X81685000Y-103518600D01*
X81685000Y-101762325D01*
X82036976Y-102114916D01*
G36*
X123063000Y-74710951D02*
X123063000Y-77779078D01*
X122904798Y-77396199D01*
X122107995Y-76598005D01*
X121066390Y-76165493D01*
X119938558Y-76164509D01*
X118896199Y-76595202D01*
X118098005Y-77392005D01*
X117665493Y-78433610D01*
X117664509Y-79561442D01*
X118095202Y-80603801D01*
X118892005Y-81401995D01*
X119933610Y-81834507D01*
X121061442Y-81835491D01*
X122103801Y-81404798D01*
X122901995Y-80607995D01*
X123063000Y-80220252D01*
X123063000Y-145779078D01*
X122904798Y-145396199D01*
X122107995Y-144598005D01*
X121066390Y-144165493D01*
X119938558Y-144164509D01*
X118896199Y-144595202D01*
X118098005Y-145392005D01*
X117898186Y-145873222D01*
X117947440Y-145630000D01*
X117947440Y-143930000D01*
X117903162Y-143694683D01*
X117764090Y-143478559D01*
X117551890Y-143333569D01*
X117300000Y-143282560D01*
X117135000Y-143282560D01*
X117135000Y-143002000D01*
X118745000Y-143002000D01*
X118794410Y-142991994D01*
X118836035Y-142963553D01*
X118863315Y-142921159D01*
X118872000Y-142875000D01*
X118872000Y-141779738D01*
X119064541Y-141741439D01*
X119335434Y-141560434D01*
X119970434Y-140925434D01*
X120151440Y-140654540D01*
X120215000Y-140335000D01*
X120215000Y-139834260D01*
X120620907Y-139915000D01*
X120679093Y-139915000D01*
X121247378Y-139801961D01*
X121729147Y-139480054D01*
X122051054Y-138998285D01*
X122164093Y-138430000D01*
X122051054Y-137861715D01*
X121729147Y-137379946D01*
X121399974Y-137160000D01*
X121729147Y-136940054D01*
X122051054Y-136458285D01*
X122164093Y-135890000D01*
X122051054Y-135321715D01*
X121729147Y-134839946D01*
X121388447Y-134612298D01*
X121531358Y-134545183D01*
X121921645Y-134116924D01*
X122091476Y-133706890D01*
X121970155Y-133477000D01*
X120777000Y-133477000D01*
X120777000Y-133497000D01*
X120523000Y-133497000D01*
X120523000Y-133477000D01*
X120503000Y-133477000D01*
X120503000Y-133223000D01*
X120523000Y-133223000D01*
X120523000Y-133203000D01*
X120777000Y-133203000D01*
X120777000Y-133223000D01*
X121970155Y-133223000D01*
X122091476Y-132993110D01*
X121921645Y-132583076D01*
X121645499Y-132280063D01*
X121735317Y-132263162D01*
X121951441Y-132124090D01*
X122096431Y-131911890D01*
X122147440Y-131660000D01*
X122147440Y-129960000D01*
X122103162Y-129724683D01*
X121964090Y-129508559D01*
X121751890Y-129363569D01*
X121500000Y-129312560D01*
X121439759Y-129312560D01*
X121421439Y-129220459D01*
X121240434Y-128949566D01*
X120775868Y-128485000D01*
X120777002Y-128485000D01*
X120777002Y-128326252D01*
X120935750Y-128485000D01*
X121626309Y-128485000D01*
X121859698Y-128388327D01*
X122038327Y-128209699D01*
X122135000Y-127976310D01*
X122135000Y-127285750D01*
X121976250Y-127127000D01*
X120777000Y-127127000D01*
X120777000Y-127147000D01*
X120523000Y-127147000D01*
X120523000Y-127127000D01*
X120503000Y-127127000D01*
X120503000Y-126873000D01*
X120523000Y-126873000D01*
X120523000Y-124587000D01*
X120777000Y-124587000D01*
X120777000Y-126873000D01*
X121976250Y-126873000D01*
X122135000Y-126714250D01*
X122135000Y-126023690D01*
X122038327Y-125790301D01*
X121859698Y-125611673D01*
X121650122Y-125524864D01*
X121921645Y-125226924D01*
X122091476Y-124816890D01*
X121970155Y-124587000D01*
X120777000Y-124587000D01*
X120523000Y-124587000D01*
X120503000Y-124587000D01*
X120503000Y-124333000D01*
X120523000Y-124333000D01*
X120523000Y-122047000D01*
X120777000Y-122047000D01*
X120777000Y-124333000D01*
X121970155Y-124333000D01*
X122091476Y-124103110D01*
X121921645Y-123693076D01*
X121531358Y-123264817D01*
X121372046Y-123190000D01*
X121531358Y-123115183D01*
X121921645Y-122686924D01*
X122091476Y-122276890D01*
X121970155Y-122047000D01*
X120777000Y-122047000D01*
X120523000Y-122047000D01*
X120503000Y-122047000D01*
X120503000Y-121793000D01*
X120523000Y-121793000D01*
X120523000Y-119507000D01*
X120777000Y-119507000D01*
X120777000Y-121793000D01*
X121970155Y-121793000D01*
X122091476Y-121563110D01*
X121921645Y-121153076D01*
X121531358Y-120724817D01*
X121372046Y-120650000D01*
X121531358Y-120575183D01*
X121921645Y-120146924D01*
X122091476Y-119736890D01*
X121970155Y-119507000D01*
X120777000Y-119507000D01*
X120523000Y-119507000D01*
X120503000Y-119507000D01*
X120503000Y-119253000D01*
X120523000Y-119253000D01*
X120523000Y-116967000D01*
X120777000Y-116967000D01*
X120777000Y-119253000D01*
X121970155Y-119253000D01*
X122091476Y-119023110D01*
X121921645Y-118613076D01*
X121531358Y-118184817D01*
X121372046Y-118110000D01*
X121531358Y-118035183D01*
X121921645Y-117606924D01*
X122091476Y-117196890D01*
X121970155Y-116967000D01*
X120777000Y-116967000D01*
X120523000Y-116967000D01*
X120503000Y-116967000D01*
X120503000Y-116713000D01*
X120523000Y-116713000D01*
X120523000Y-114427000D01*
X120777000Y-114427000D01*
X120777000Y-116713000D01*
X121970155Y-116713000D01*
X122091476Y-116483110D01*
X121921645Y-116073076D01*
X121531358Y-115644817D01*
X121372046Y-115570000D01*
X121531358Y-115495183D01*
X121921645Y-115066924D01*
X122091476Y-114656890D01*
X121970155Y-114427000D01*
X120777000Y-114427000D01*
X120523000Y-114427000D01*
X120503000Y-114427000D01*
X120503000Y-114173000D01*
X120523000Y-114173000D01*
X120523000Y-111887000D01*
X120777000Y-111887000D01*
X120777000Y-114173000D01*
X121970155Y-114173000D01*
X122091476Y-113943110D01*
X121921645Y-113533076D01*
X121531358Y-113104817D01*
X121372046Y-113030000D01*
X121531358Y-112955183D01*
X121921645Y-112526924D01*
X122091476Y-112116890D01*
X121970155Y-111887000D01*
X120777000Y-111887000D01*
X120523000Y-111887000D01*
X120503000Y-111887000D01*
X120503000Y-111633000D01*
X120523000Y-111633000D01*
X120523000Y-109347000D01*
X120777000Y-109347000D01*
X120777000Y-111633000D01*
X121970155Y-111633000D01*
X122091476Y-111403110D01*
X121921645Y-110993076D01*
X121531358Y-110564817D01*
X121372046Y-110490000D01*
X121531358Y-110415183D01*
X121921645Y-109986924D01*
X122091476Y-109576890D01*
X121970155Y-109347000D01*
X120777000Y-109347000D01*
X120523000Y-109347000D01*
X120503000Y-109347000D01*
X120503000Y-109093000D01*
X120523000Y-109093000D01*
X120523000Y-106807000D01*
X120777000Y-106807000D01*
X120777000Y-109093000D01*
X121970155Y-109093000D01*
X122091476Y-108863110D01*
X121921645Y-108453076D01*
X121531358Y-108024817D01*
X121372046Y-107950000D01*
X121531358Y-107875183D01*
X121921645Y-107446924D01*
X122091476Y-107036890D01*
X121970155Y-106807000D01*
X120777000Y-106807000D01*
X120523000Y-106807000D01*
X120503000Y-106807000D01*
X120503000Y-106553000D01*
X120523000Y-106553000D01*
X120523000Y-105359181D01*
X120777000Y-105359181D01*
X120777000Y-106553000D01*
X121970155Y-106553000D01*
X122091476Y-106323110D01*
X121921645Y-105913076D01*
X121531358Y-105484817D01*
X121006892Y-105238514D01*
X120777000Y-105359181D01*
X120523000Y-105359181D01*
X120293108Y-105238514D01*
X119768642Y-105484817D01*
X119378355Y-105913076D01*
X119378345Y-105913101D01*
X119189147Y-105629946D01*
X119145223Y-105600597D01*
X119319698Y-105528327D01*
X119498327Y-105349699D01*
X119595000Y-105116310D01*
X119595000Y-104425750D01*
X119436250Y-104267000D01*
X118237000Y-104267000D01*
X118237000Y-104287000D01*
X117983000Y-104287000D01*
X117983000Y-104267000D01*
X117963000Y-104267000D01*
X117963000Y-104013000D01*
X117983000Y-104013000D01*
X117983000Y-101727000D01*
X117963000Y-101727000D01*
X117963000Y-101473000D01*
X117983000Y-101473000D01*
X117983000Y-99187000D01*
X117963000Y-99187000D01*
X117963000Y-98933000D01*
X117983000Y-98933000D01*
X117983000Y-96647000D01*
X118237000Y-96647000D01*
X118237000Y-98933000D01*
X118257000Y-98933000D01*
X118257000Y-99187000D01*
X118237000Y-99187000D01*
X118237000Y-101473000D01*
X118257000Y-101473000D01*
X118257000Y-101727000D01*
X118237000Y-101727000D01*
X118237000Y-104013000D01*
X119436250Y-104013000D01*
X119595000Y-103854250D01*
X119595000Y-103163690D01*
X119498327Y-102930301D01*
X119319698Y-102751673D01*
X119110122Y-102664864D01*
X119366831Y-102383180D01*
X119390344Y-102440086D01*
X119807717Y-102858188D01*
X120353319Y-103084742D01*
X120944089Y-103085257D01*
X121490086Y-102859656D01*
X121908188Y-102442283D01*
X122134742Y-101896681D01*
X122135257Y-101305911D01*
X121909656Y-100759914D01*
X121492283Y-100341812D01*
X121433361Y-100317345D01*
X121700054Y-100139147D01*
X122021961Y-99657378D01*
X122135000Y-99089093D01*
X122135000Y-99030907D01*
X122021961Y-98462622D01*
X121700054Y-97980853D01*
X121218285Y-97658946D01*
X120650000Y-97545907D01*
X120081715Y-97658946D01*
X119599946Y-97980853D01*
X119385350Y-98302020D01*
X119381645Y-98293076D01*
X118991358Y-97864817D01*
X118832046Y-97790000D01*
X118991358Y-97715183D01*
X119381645Y-97286924D01*
X119551476Y-96876890D01*
X119430155Y-96647000D01*
X118237000Y-96647000D01*
X117983000Y-96647000D01*
X117963000Y-96647000D01*
X117963000Y-96393000D01*
X117983000Y-96393000D01*
X117983000Y-94107000D01*
X118237000Y-94107000D01*
X118237000Y-96393000D01*
X119430155Y-96393000D01*
X119551476Y-96163110D01*
X119381645Y-95753076D01*
X118991358Y-95324817D01*
X118832046Y-95250000D01*
X118991358Y-95175183D01*
X119381645Y-94746924D01*
X119551476Y-94336890D01*
X119430155Y-94107000D01*
X118237000Y-94107000D01*
X117983000Y-94107000D01*
X117963000Y-94107000D01*
X117963000Y-93853000D01*
X117983000Y-93853000D01*
X117983000Y-91567000D01*
X118237000Y-91567000D01*
X118237000Y-93853000D01*
X119430155Y-93853000D01*
X119551476Y-93623110D01*
X119381645Y-93213076D01*
X118991358Y-92784817D01*
X118832046Y-92710000D01*
X118991358Y-92635183D01*
X119381645Y-92206924D01*
X119551476Y-91796890D01*
X119430155Y-91567000D01*
X118237000Y-91567000D01*
X117983000Y-91567000D01*
X117963000Y-91567000D01*
X117963000Y-91313000D01*
X117983000Y-91313000D01*
X117983000Y-89027000D01*
X118237000Y-89027000D01*
X118237000Y-91313000D01*
X119430155Y-91313000D01*
X119551476Y-91083110D01*
X119381645Y-90673076D01*
X118991358Y-90244817D01*
X118832046Y-90170000D01*
X118991358Y-90095183D01*
X119381645Y-89666924D01*
X119551476Y-89256890D01*
X119430155Y-89027000D01*
X118237000Y-89027000D01*
X117983000Y-89027000D01*
X117963000Y-89027000D01*
X117963000Y-88773000D01*
X117983000Y-88773000D01*
X117983000Y-86487000D01*
X118237000Y-86487000D01*
X118237000Y-88773000D01*
X119430155Y-88773000D01*
X119551476Y-88543110D01*
X119381645Y-88133076D01*
X118991358Y-87704817D01*
X118832046Y-87630000D01*
X118991358Y-87555183D01*
X119381645Y-87126924D01*
X119551476Y-86716890D01*
X119430155Y-86487000D01*
X118237000Y-86487000D01*
X117983000Y-86487000D01*
X117963000Y-86487000D01*
X117963000Y-86233000D01*
X117983000Y-86233000D01*
X117983000Y-83947000D01*
X118237000Y-83947000D01*
X118237000Y-86233000D01*
X119430155Y-86233000D01*
X119551476Y-86003110D01*
X119381645Y-85593076D01*
X118991358Y-85164817D01*
X118832046Y-85090000D01*
X118991358Y-85015183D01*
X119381645Y-84586924D01*
X119551476Y-84176890D01*
X119430155Y-83947000D01*
X118237000Y-83947000D01*
X117983000Y-83947000D01*
X117963000Y-83947000D01*
X117963000Y-83693000D01*
X117983000Y-83693000D01*
X117983000Y-82499181D01*
X118237000Y-82499181D01*
X118237000Y-83693000D01*
X119430155Y-83693000D01*
X119551476Y-83463110D01*
X119381645Y-83053076D01*
X118991358Y-82624817D01*
X118466892Y-82378514D01*
X118237000Y-82499181D01*
X117983000Y-82499181D01*
X117753108Y-82378514D01*
X117228642Y-82624817D01*
X116838355Y-83053076D01*
X116838345Y-83053101D01*
X116649147Y-82769946D01*
X116167378Y-82448039D01*
X115599093Y-82335000D01*
X115540907Y-82335000D01*
X114972622Y-82448039D01*
X114490853Y-82769946D01*
X114168946Y-83251715D01*
X114055907Y-83820000D01*
X114168946Y-84388285D01*
X114490853Y-84870054D01*
X114820026Y-85090000D01*
X114490853Y-85309946D01*
X114168946Y-85791715D01*
X114055907Y-86360000D01*
X114168946Y-86928285D01*
X114490853Y-87410054D01*
X114820026Y-87630000D01*
X114490853Y-87849946D01*
X114168946Y-88331715D01*
X114055907Y-88900000D01*
X114168946Y-89468285D01*
X114490853Y-89950054D01*
X114820026Y-90170000D01*
X114490853Y-90389946D01*
X114168946Y-90871715D01*
X114055907Y-91440000D01*
X114168946Y-92008285D01*
X114490853Y-92490054D01*
X114820026Y-92710000D01*
X114490853Y-92929946D01*
X114168946Y-93411715D01*
X114055907Y-93980000D01*
X114168946Y-94548285D01*
X114490853Y-95030054D01*
X114820026Y-95250000D01*
X114490853Y-95469946D01*
X114168946Y-95951715D01*
X114055907Y-96520000D01*
X114168946Y-97088285D01*
X114490853Y-97570054D01*
X114820026Y-97790000D01*
X114490853Y-98009946D01*
X114168946Y-98491715D01*
X114055907Y-99060000D01*
X114168946Y-99628285D01*
X114490853Y-100110054D01*
X114820026Y-100330000D01*
X114490853Y-100549946D01*
X114269146Y-100881755D01*
X114195327Y-100807808D01*
X113851799Y-100665162D01*
X113479833Y-100664838D01*
X113136057Y-100806883D01*
X112872808Y-101069673D01*
X112730162Y-101413201D01*
X112730121Y-101460077D01*
X112715198Y-101475000D01*
X106980110Y-101475000D01*
X106980162Y-101414833D01*
X106838117Y-101071057D01*
X106575327Y-100807808D01*
X106311446Y-100698235D01*
X106203117Y-100436057D01*
X105940327Y-100172808D01*
X105596799Y-100030162D01*
X105224833Y-100029838D01*
X104881057Y-100171883D01*
X104847882Y-100205000D01*
X104704802Y-100205000D01*
X105947401Y-98962401D01*
X106112148Y-98715839D01*
X106170000Y-98425000D01*
X106170000Y-94542463D01*
X106202192Y-94510327D01*
X106344838Y-94166799D01*
X106345162Y-93794833D01*
X106203117Y-93451057D01*
X105940327Y-93187808D01*
X105596799Y-93045162D01*
X105224833Y-93044838D01*
X104881057Y-93186883D01*
X104617808Y-93449673D01*
X104508235Y-93713554D01*
X104246057Y-93821883D01*
X103982808Y-94084673D01*
X103840162Y-94428201D01*
X103839838Y-94800167D01*
X103981883Y-95143943D01*
X104015000Y-95177118D01*
X104015000Y-97475198D01*
X100015198Y-101475000D01*
X99695000Y-101475000D01*
X99404161Y-101532852D01*
X99157599Y-101697599D01*
X98522599Y-102332599D01*
X98357852Y-102579161D01*
X98300000Y-102870000D01*
X98300000Y-103825198D01*
X97252599Y-104872599D01*
X97087852Y-105119161D01*
X97030000Y-105410000D01*
X97030000Y-109220000D01*
X97087852Y-109510839D01*
X97252599Y-109757401D01*
X97489878Y-109994680D01*
X97489838Y-110040167D01*
X97631883Y-110383943D01*
X97894673Y-110647192D01*
X98238201Y-110789838D01*
X98285077Y-110789879D01*
X98850600Y-111355402D01*
X98760162Y-111573201D01*
X98759838Y-111945167D01*
X98901883Y-112288943D01*
X99164673Y-112552192D01*
X99508201Y-112694838D01*
X99570000Y-112694892D01*
X99570000Y-113350198D01*
X99183659Y-113736539D01*
X98955327Y-113507808D01*
X98727000Y-113412998D01*
X98727000Y-112200000D01*
X98718315Y-112153841D01*
X98691035Y-112111447D01*
X98649410Y-112083006D01*
X98600000Y-112073000D01*
X98200000Y-112073000D01*
X98153841Y-112081685D01*
X98111447Y-112108965D01*
X98083006Y-112150590D01*
X98073000Y-112200000D01*
X98073000Y-113433772D01*
X97896057Y-113506883D01*
X97729650Y-113673000D01*
X96200000Y-113673000D01*
X96152211Y-113682334D01*
X96110197Y-113710197D01*
X90547394Y-119273000D01*
X83652606Y-119273000D01*
X83327000Y-118947394D01*
X83327000Y-115644285D01*
X84974760Y-115644285D01*
X85185169Y-116153515D01*
X85574436Y-116543461D01*
X86083298Y-116754759D01*
X86634285Y-116755240D01*
X87143515Y-116544831D01*
X87533461Y-116155564D01*
X87744759Y-115646702D01*
X87745240Y-115095715D01*
X87534831Y-114586485D01*
X87145564Y-114196539D01*
X86636702Y-113985241D01*
X86085715Y-113984760D01*
X85576485Y-114195169D01*
X85186539Y-114584436D01*
X84975241Y-115093298D01*
X84974760Y-115644285D01*
X83327000Y-115644285D01*
X83327000Y-110764285D01*
X84974760Y-110764285D01*
X85185169Y-111273515D01*
X85574436Y-111663461D01*
X86083298Y-111874759D01*
X86634285Y-111875240D01*
X87143515Y-111664831D01*
X87533461Y-111275564D01*
X87744759Y-110766702D01*
X87745240Y-110215715D01*
X87534831Y-109706485D01*
X87145564Y-109316539D01*
X86636702Y-109105241D01*
X86085715Y-109104760D01*
X85576485Y-109315169D01*
X85186539Y-109704436D01*
X84975241Y-110213298D01*
X84974760Y-110764285D01*
X83327000Y-110764285D01*
X83327000Y-107052606D01*
X83652606Y-106727000D01*
X90547394Y-106727000D01*
X95310197Y-111489803D01*
X95350590Y-111516994D01*
X95400000Y-111527000D01*
X98200000Y-111527000D01*
X98246159Y-111518315D01*
X98288553Y-111491035D01*
X98316994Y-111449410D01*
X98327000Y-111400000D01*
X98327000Y-111000000D01*
X98318315Y-110953841D01*
X98291035Y-110911447D01*
X98249410Y-110883006D01*
X98200000Y-110873000D01*
X95652606Y-110873000D01*
X91668014Y-106888408D01*
X91888201Y-106979838D01*
X92260167Y-106980162D01*
X92603943Y-106838117D01*
X92867192Y-106575327D01*
X93009838Y-106231799D01*
X93010036Y-106004491D01*
X93083691Y-106035000D01*
X93674250Y-106035000D01*
X93833000Y-105876250D01*
X93833000Y-104902000D01*
X94087000Y-104902000D01*
X94087000Y-105876250D01*
X94245750Y-106035000D01*
X94836309Y-106035000D01*
X95069698Y-105938327D01*
X95248327Y-105759699D01*
X95345000Y-105526310D01*
X95345000Y-105060750D01*
X95186250Y-104902000D01*
X94087000Y-104902000D01*
X93833000Y-104902000D01*
X93813000Y-104902000D01*
X93813000Y-104648000D01*
X93833000Y-104648000D01*
X93833000Y-103673750D01*
X94087000Y-103673750D01*
X94087000Y-104648000D01*
X95186250Y-104648000D01*
X95345000Y-104489250D01*
X95345000Y-104023690D01*
X95248327Y-103790301D01*
X95069698Y-103611673D01*
X94836309Y-103515000D01*
X94245750Y-103515000D01*
X94087000Y-103673750D01*
X93833000Y-103673750D01*
X93674250Y-103515000D01*
X93083691Y-103515000D01*
X92850302Y-103611673D01*
X92709064Y-103752910D01*
X92674090Y-103698559D01*
X92461890Y-103553569D01*
X92210000Y-103502560D01*
X91368428Y-103502560D01*
X90415434Y-102549566D01*
X90335925Y-102496440D01*
X90176474Y-102389898D01*
X90079090Y-102238559D01*
X89866890Y-102093569D01*
X89615000Y-102042560D01*
X89594866Y-102042560D01*
X89780129Y-101857620D01*
X90036976Y-102114916D01*
X90518282Y-102314772D01*
X91039432Y-102315226D01*
X91521086Y-102116211D01*
X91889916Y-101748024D01*
X92044923Y-101374725D01*
X92212599Y-101542401D01*
X92459161Y-101707148D01*
X92750000Y-101765000D01*
X93687670Y-101765000D01*
X94036976Y-102114916D01*
X94518282Y-102314772D01*
X95039432Y-102315226D01*
X95521086Y-102116211D01*
X95780129Y-101857620D01*
X96036976Y-102114916D01*
X96518282Y-102314772D01*
X97039432Y-102315226D01*
X97521086Y-102116211D01*
X97889916Y-101748024D01*
X98089772Y-101266718D01*
X98090226Y-100745568D01*
X97891211Y-100263914D01*
X97523024Y-99895084D01*
X97041718Y-99695228D01*
X96544597Y-99694795D01*
X96007401Y-99157599D01*
X95760839Y-98992852D01*
X95470000Y-98935000D01*
X93024802Y-98935000D01*
X92835000Y-98745198D01*
X92835000Y-96785750D01*
X93990000Y-96785750D01*
X93990000Y-97376309D01*
X94086673Y-97609698D01*
X94265301Y-97788327D01*
X94498690Y-97885000D01*
X94964250Y-97885000D01*
X95123000Y-97726250D01*
X95123000Y-96627000D01*
X95377000Y-96627000D01*
X95377000Y-97726250D01*
X95535750Y-97885000D01*
X96001310Y-97885000D01*
X96234699Y-97788327D01*
X96413327Y-97609698D01*
X96510000Y-97376309D01*
X96510000Y-96785750D01*
X96351250Y-96627000D01*
X95377000Y-96627000D01*
X95123000Y-96627000D01*
X94148750Y-96627000D01*
X93990000Y-96785750D01*
X92835000Y-96785750D01*
X92835000Y-92657952D01*
X93030000Y-92697440D01*
X94311045Y-92697440D01*
X94173559Y-92785910D01*
X94028569Y-92998110D01*
X93977560Y-93250000D01*
X93977560Y-94750000D01*
X94021838Y-94985317D01*
X94160910Y-95201441D01*
X94229006Y-95247969D01*
X94086673Y-95390302D01*
X93990000Y-95623691D01*
X93990000Y-96214250D01*
X94148750Y-96373000D01*
X95123000Y-96373000D01*
X95123000Y-96353000D01*
X95377000Y-96353000D01*
X95377000Y-96373000D01*
X96351250Y-96373000D01*
X96396691Y-96327559D01*
X98219566Y-98150434D01*
X98490459Y-98331439D01*
X98810000Y-98395000D01*
X99352539Y-98395000D01*
X99626976Y-98669916D01*
X100108282Y-98869772D01*
X100629432Y-98870226D01*
X101111086Y-98671211D01*
X101479916Y-98303024D01*
X101679772Y-97821718D01*
X101680226Y-97300568D01*
X101481211Y-96818914D01*
X101113024Y-96450084D01*
X101057369Y-96426974D01*
X100370000Y-95739605D01*
X99683279Y-96426326D01*
X99628914Y-96448789D01*
X99352221Y-96725000D01*
X99155868Y-96725000D01*
X97803968Y-95373100D01*
X99047478Y-95373100D01*
X99076625Y-95893434D01*
X99219672Y-96238781D01*
X99452853Y-96297542D01*
X100190395Y-95560000D01*
X100549605Y-95560000D01*
X101287147Y-96297542D01*
X101520328Y-96238781D01*
X101692522Y-95746900D01*
X101663375Y-95226566D01*
X101520328Y-94881219D01*
X101287147Y-94822458D01*
X100549605Y-95560000D01*
X100190395Y-95560000D01*
X99452853Y-94822458D01*
X99219672Y-94881219D01*
X99047478Y-95373100D01*
X97803968Y-95373100D01*
X96522440Y-94091572D01*
X96522440Y-93470000D01*
X97227537Y-93470000D01*
X97259673Y-93502192D01*
X97603201Y-93644838D01*
X97975167Y-93645162D01*
X98318943Y-93503117D01*
X98352118Y-93470000D01*
X99060078Y-93470000D01*
X99059774Y-93819432D01*
X99258789Y-94301086D01*
X99626976Y-94669916D01*
X99682631Y-94693026D01*
X100370000Y-95380395D01*
X101056721Y-94693674D01*
X101111086Y-94671211D01*
X101479916Y-94303024D01*
X101679772Y-93821718D01*
X101680226Y-93300568D01*
X101481211Y-92818914D01*
X101222620Y-92559871D01*
X101479916Y-92303024D01*
X101679772Y-91821718D01*
X101680226Y-91300568D01*
X101481211Y-90818914D01*
X101222620Y-90559871D01*
X101479916Y-90303024D01*
X101679772Y-89821718D01*
X101680226Y-89300568D01*
X101481211Y-88818914D01*
X101113024Y-88450084D01*
X100631718Y-88250228D01*
X100110568Y-88249774D01*
X99628914Y-88448789D01*
X99409570Y-88667751D01*
X99290668Y-88618378D01*
X99359838Y-88451799D01*
X99360162Y-88079833D01*
X99218117Y-87736057D01*
X98955327Y-87472808D01*
X98611799Y-87330162D01*
X98564923Y-87330121D01*
X98327401Y-87092599D01*
X98080839Y-86927852D01*
X97790000Y-86870000D01*
X96199802Y-86870000D01*
X96067401Y-86737599D01*
X95820839Y-86572852D01*
X95530000Y-86515000D01*
X95127440Y-86515000D01*
X95127440Y-86400000D01*
X95114020Y-86328677D01*
X95115000Y-86326310D01*
X95115000Y-86246250D01*
X95094688Y-86225938D01*
X95083162Y-86164683D01*
X94944090Y-85948559D01*
X94818138Y-85862500D01*
X94956250Y-85862500D01*
X95115000Y-85703750D01*
X95115000Y-85623690D01*
X95018327Y-85390301D01*
X94839698Y-85211673D01*
X94606309Y-85115000D01*
X94040750Y-85115000D01*
X93882000Y-85273750D01*
X93882000Y-85752560D01*
X93628000Y-85752560D01*
X93628000Y-85273750D01*
X93469250Y-85115000D01*
X92903691Y-85115000D01*
X92670302Y-85211673D01*
X92491673Y-85390301D01*
X92395000Y-85623690D01*
X92395000Y-85703750D01*
X92553750Y-85862500D01*
X92692641Y-85862500D01*
X92578559Y-85935910D01*
X92433569Y-86148110D01*
X92418442Y-86222808D01*
X92395000Y-86246250D01*
X92395000Y-86326310D01*
X92396667Y-86330335D01*
X92382560Y-86400000D01*
X92382560Y-86850000D01*
X92402067Y-86953671D01*
X92382560Y-87050000D01*
X92382560Y-87497758D01*
X91622401Y-86737599D01*
X91375839Y-86572852D01*
X91085000Y-86515000D01*
X89227440Y-86515000D01*
X89227440Y-86400000D01*
X89207933Y-86296329D01*
X89227440Y-86200000D01*
X89227440Y-85750000D01*
X89183162Y-85514683D01*
X89044090Y-85298559D01*
X88831890Y-85153569D01*
X88580000Y-85102560D01*
X87130000Y-85102560D01*
X86931024Y-85140000D01*
X86745000Y-85140000D01*
X86425459Y-85203561D01*
X86283285Y-85298559D01*
X86154566Y-85384566D01*
X85769566Y-85769566D01*
X85588561Y-86040459D01*
X85525000Y-86360000D01*
X85525000Y-86900000D01*
X85375750Y-86900000D01*
X85217000Y-87058750D01*
X85217000Y-88158000D01*
X85237000Y-88158000D01*
X85237000Y-88412000D01*
X85217000Y-88412000D01*
X85217000Y-88432000D01*
X84963000Y-88432000D01*
X84963000Y-88412000D01*
X83988750Y-88412000D01*
X83830000Y-88570750D01*
X83830000Y-89161309D01*
X83926673Y-89394698D01*
X84067910Y-89535936D01*
X84013559Y-89570910D01*
X83868569Y-89783110D01*
X83817560Y-90035000D01*
X83817560Y-91535000D01*
X83861838Y-91770317D01*
X84000910Y-91986441D01*
X84213110Y-92131431D01*
X84255000Y-92139914D01*
X84255000Y-92564132D01*
X83229566Y-93589566D01*
X83048561Y-93860459D01*
X82985000Y-94180000D01*
X82985000Y-94520000D01*
X82835750Y-94520000D01*
X82677000Y-94678750D01*
X82677000Y-95778000D01*
X82697000Y-95778000D01*
X82697000Y-96032000D01*
X82677000Y-96032000D01*
X82677000Y-96052000D01*
X82423000Y-96052000D01*
X82423000Y-96032000D01*
X82403000Y-96032000D01*
X82403000Y-95778000D01*
X82423000Y-95778000D01*
X82423000Y-94678750D01*
X82264250Y-94520000D01*
X81798690Y-94520000D01*
X81685000Y-94567092D01*
X81685000Y-94067466D01*
X81721376Y-93884591D01*
X81786751Y-93786750D01*
X81884590Y-93721376D01*
X82133636Y-93671838D01*
X82516319Y-93595718D01*
X82763248Y-93493437D01*
X82763249Y-93493436D01*
X83087672Y-93276664D01*
X83276664Y-93087672D01*
X83493437Y-92763249D01*
X83546483Y-92635183D01*
X83595718Y-92516319D01*
X83671838Y-92133636D01*
X83671838Y-92066170D01*
X83685000Y-92000000D01*
X83685000Y-87408691D01*
X83830000Y-87408691D01*
X83830000Y-87999250D01*
X83988750Y-88158000D01*
X84963000Y-88158000D01*
X84963000Y-87058750D01*
X84804250Y-86900000D01*
X84338690Y-86900000D01*
X84105301Y-86996673D01*
X83926673Y-87175302D01*
X83830000Y-87408691D01*
X83685000Y-87408691D01*
X83685000Y-87000000D01*
X83671838Y-86933830D01*
X83671838Y-86866364D01*
X83595718Y-86483681D01*
X83517374Y-86294541D01*
X83493437Y-86236751D01*
X83276664Y-85912328D01*
X83087672Y-85723336D01*
X82763248Y-85506563D01*
X82516319Y-85404282D01*
X82133636Y-85328162D01*
X81884590Y-85278624D01*
X81786751Y-85213250D01*
X81721376Y-85115409D01*
X81685000Y-84932534D01*
X81685000Y-81067467D01*
X81984567Y-79561442D01*
X83664509Y-79561442D01*
X84095202Y-80603801D01*
X84892005Y-81401995D01*
X85933610Y-81834507D01*
X87061442Y-81835491D01*
X87541070Y-81637313D01*
X87412328Y-81723336D01*
X87223336Y-81912328D01*
X87006564Y-82236751D01*
X87006563Y-82236752D01*
X86904282Y-82483681D01*
X86828162Y-82866364D01*
X86828162Y-83133636D01*
X86904282Y-83516319D01*
X86996048Y-83737862D01*
X87006563Y-83763248D01*
X87223336Y-84087672D01*
X87412328Y-84276664D01*
X87736751Y-84493437D01*
X87839032Y-84535803D01*
X87983681Y-84595718D01*
X88366364Y-84671838D01*
X88433830Y-84671838D01*
X88500000Y-84685000D01*
X93000000Y-84685000D01*
X93066170Y-84671838D01*
X93133636Y-84671838D01*
X93516319Y-84595718D01*
X93763248Y-84493437D01*
X93763249Y-84493436D01*
X94087672Y-84276664D01*
X94276664Y-84087672D01*
X94455896Y-83819432D01*
X99059774Y-83819432D01*
X99258789Y-84301086D01*
X99517380Y-84560129D01*
X99260084Y-84816976D01*
X99060228Y-85298282D01*
X99059774Y-85819432D01*
X99258789Y-86301086D01*
X99626976Y-86669916D01*
X100108282Y-86869772D01*
X100629432Y-86870226D01*
X101111086Y-86671211D01*
X101479916Y-86303024D01*
X101679772Y-85821718D01*
X101680226Y-85300568D01*
X101481211Y-84818914D01*
X101222620Y-84559871D01*
X101479916Y-84303024D01*
X101679772Y-83821718D01*
X101680226Y-83300568D01*
X101481211Y-82818914D01*
X101113024Y-82450084D01*
X100631718Y-82250228D01*
X100110568Y-82249774D01*
X99628914Y-82448789D01*
X99260084Y-82816976D01*
X99060228Y-83298282D01*
X99059774Y-83819432D01*
X94455896Y-83819432D01*
X94493437Y-83763249D01*
X94535803Y-83660968D01*
X94595718Y-83516319D01*
X94671838Y-83133636D01*
X94671838Y-82866364D01*
X94595718Y-82483681D01*
X94531300Y-82328162D01*
X94493437Y-82236751D01*
X94276664Y-81912328D01*
X94087672Y-81723336D01*
X93763248Y-81506563D01*
X93712467Y-81485529D01*
X93516319Y-81404282D01*
X93133636Y-81328162D01*
X93066170Y-81328162D01*
X93000000Y-81315000D01*
X88500000Y-81315000D01*
X88433830Y-81328162D01*
X88134338Y-81374315D01*
X88901995Y-80607995D01*
X89265784Y-79731892D01*
X91903514Y-79731892D01*
X92149817Y-80256358D01*
X92578076Y-80646645D01*
X92988110Y-80816476D01*
X93218000Y-80695155D01*
X93218000Y-79502000D01*
X92024181Y-79502000D01*
X91903514Y-79731892D01*
X89265784Y-79731892D01*
X89334507Y-79566390D01*
X89335491Y-78438558D01*
X88904798Y-77396199D01*
X88315535Y-76805907D01*
X91860000Y-76805907D01*
X91860000Y-76864093D01*
X91973039Y-77432378D01*
X92294946Y-77914147D01*
X92578101Y-78103345D01*
X92578076Y-78103355D01*
X92149817Y-78493642D01*
X91903514Y-79018108D01*
X92024181Y-79248000D01*
X93218000Y-79248000D01*
X93218000Y-79228000D01*
X93472000Y-79228000D01*
X93472000Y-79248000D01*
X93492000Y-79248000D01*
X93492000Y-79502000D01*
X93472000Y-79502000D01*
X93472000Y-80695155D01*
X93701890Y-80816476D01*
X94111924Y-80646645D01*
X94540183Y-80256358D01*
X94607298Y-80113447D01*
X94834946Y-80454147D01*
X95316715Y-80776054D01*
X95640696Y-80840498D01*
X96854878Y-82054680D01*
X96854838Y-82100167D01*
X96996883Y-82443943D01*
X97259673Y-82707192D01*
X97603201Y-82849838D01*
X97975167Y-82850162D01*
X98318943Y-82708117D01*
X98582192Y-82445327D01*
X98724838Y-82101799D01*
X98725162Y-81729833D01*
X98583117Y-81386057D01*
X98320327Y-81122808D01*
X97976799Y-80980162D01*
X97929923Y-80980121D01*
X97462351Y-80512549D01*
X97856715Y-80776054D01*
X98425000Y-80889093D01*
X98993285Y-80776054D01*
X99475054Y-80454147D01*
X99524597Y-80380000D01*
X105132560Y-80380000D01*
X105132560Y-82180000D01*
X105176838Y-82415317D01*
X105315910Y-82631441D01*
X105528110Y-82776431D01*
X105780000Y-82827440D01*
X107580000Y-82827440D01*
X107815317Y-82783162D01*
X108031441Y-82644090D01*
X108170598Y-82440426D01*
X108204890Y-82474718D01*
X108319447Y-82360161D01*
X108405852Y-82616643D01*
X108979336Y-82826458D01*
X109589460Y-82800839D01*
X110034148Y-82616643D01*
X110120554Y-82360159D01*
X109220000Y-81459605D01*
X109205858Y-81473748D01*
X109026253Y-81294143D01*
X109040395Y-81280000D01*
X109399605Y-81280000D01*
X110300159Y-82180554D01*
X110450327Y-82129965D01*
X110457932Y-82148371D01*
X110889357Y-82580551D01*
X111453330Y-82814733D01*
X112063991Y-82815265D01*
X112628371Y-82582068D01*
X113060551Y-82150643D01*
X113294733Y-81586670D01*
X113295265Y-80976009D01*
X113062068Y-80411629D01*
X112630643Y-79979449D01*
X112066670Y-79745267D01*
X111456009Y-79744735D01*
X110891629Y-79977932D01*
X110459449Y-80409357D01*
X110450797Y-80430194D01*
X110300159Y-80379446D01*
X109399605Y-81280000D01*
X109040395Y-81280000D01*
X109026253Y-81265858D01*
X109205858Y-81086253D01*
X109220000Y-81100395D01*
X110120554Y-80199841D01*
X110034148Y-79943357D01*
X109460664Y-79733542D01*
X108850540Y-79759161D01*
X108405852Y-79943357D01*
X108319447Y-80199839D01*
X108204890Y-80085282D01*
X108168412Y-80121760D01*
X108044090Y-79928559D01*
X107831890Y-79783569D01*
X107580000Y-79732560D01*
X105780000Y-79732560D01*
X105544683Y-79776838D01*
X105328559Y-79915910D01*
X105183569Y-80128110D01*
X105132560Y-80380000D01*
X99524597Y-80380000D01*
X99796961Y-79972378D01*
X99910000Y-79404093D01*
X99910000Y-79345907D01*
X99796961Y-78777622D01*
X99475054Y-78295853D01*
X99473821Y-78295029D01*
X99510317Y-78288162D01*
X99726441Y-78149090D01*
X99871431Y-77936890D01*
X99922440Y-77685000D01*
X99922440Y-75985000D01*
X99878162Y-75749683D01*
X99739090Y-75533559D01*
X99526890Y-75388569D01*
X99275000Y-75337560D01*
X97575000Y-75337560D01*
X97339683Y-75381838D01*
X97123559Y-75520910D01*
X96978569Y-75733110D01*
X96964914Y-75800541D01*
X96935054Y-75755853D01*
X96453285Y-75433946D01*
X95885000Y-75320907D01*
X95316715Y-75433946D01*
X94834946Y-75755853D01*
X94615000Y-76085026D01*
X94395054Y-75755853D01*
X93913285Y-75433946D01*
X93345000Y-75320907D01*
X92776715Y-75433946D01*
X92294946Y-75755853D01*
X91973039Y-76237622D01*
X91860000Y-76805907D01*
X88315535Y-76805907D01*
X88107995Y-76598005D01*
X87066390Y-76165493D01*
X85938558Y-76164509D01*
X84896199Y-76595202D01*
X84098005Y-77392005D01*
X83665493Y-78433610D01*
X83664509Y-79561442D01*
X81984567Y-79561442D01*
X82178099Y-78588491D01*
X83544110Y-76544111D01*
X85588489Y-75178099D01*
X88067466Y-74685000D01*
X122932534Y-74685000D01*
X123063000Y-74710951D01*
X123063000Y-74710951D01*
G37*
X123063000Y-74710951D02*
X123063000Y-77779078D01*
X122904798Y-77396199D01*
X122107995Y-76598005D01*
X121066390Y-76165493D01*
X119938558Y-76164509D01*
X118896199Y-76595202D01*
X118098005Y-77392005D01*
X117665493Y-78433610D01*
X117664509Y-79561442D01*
X118095202Y-80603801D01*
X118892005Y-81401995D01*
X119933610Y-81834507D01*
X121061442Y-81835491D01*
X122103801Y-81404798D01*
X122901995Y-80607995D01*
X123063000Y-80220252D01*
X123063000Y-145779078D01*
X122904798Y-145396199D01*
X122107995Y-144598005D01*
X121066390Y-144165493D01*
X119938558Y-144164509D01*
X118896199Y-144595202D01*
X118098005Y-145392005D01*
X117898186Y-145873222D01*
X117947440Y-145630000D01*
X117947440Y-143930000D01*
X117903162Y-143694683D01*
X117764090Y-143478559D01*
X117551890Y-143333569D01*
X117300000Y-143282560D01*
X117135000Y-143282560D01*
X117135000Y-143002000D01*
X118745000Y-143002000D01*
X118794410Y-142991994D01*
X118836035Y-142963553D01*
X118863315Y-142921159D01*
X118872000Y-142875000D01*
X118872000Y-141779738D01*
X119064541Y-141741439D01*
X119335434Y-141560434D01*
X119970434Y-140925434D01*
X120151440Y-140654540D01*
X120215000Y-140335000D01*
X120215000Y-139834260D01*
X120620907Y-139915000D01*
X120679093Y-139915000D01*
X121247378Y-139801961D01*
X121729147Y-139480054D01*
X122051054Y-138998285D01*
X122164093Y-138430000D01*
X122051054Y-137861715D01*
X121729147Y-137379946D01*
X121399974Y-137160000D01*
X121729147Y-136940054D01*
X122051054Y-136458285D01*
X122164093Y-135890000D01*
X122051054Y-135321715D01*
X121729147Y-134839946D01*
X121388447Y-134612298D01*
X121531358Y-134545183D01*
X121921645Y-134116924D01*
X122091476Y-133706890D01*
X121970155Y-133477000D01*
X120777000Y-133477000D01*
X120777000Y-133497000D01*
X120523000Y-133497000D01*
X120523000Y-133477000D01*
X120503000Y-133477000D01*
X120503000Y-133223000D01*
X120523000Y-133223000D01*
X120523000Y-133203000D01*
X120777000Y-133203000D01*
X120777000Y-133223000D01*
X121970155Y-133223000D01*
X122091476Y-132993110D01*
X121921645Y-132583076D01*
X121645499Y-132280063D01*
X121735317Y-132263162D01*
X121951441Y-132124090D01*
X122096431Y-131911890D01*
X122147440Y-131660000D01*
X122147440Y-129960000D01*
X122103162Y-129724683D01*
X121964090Y-129508559D01*
X121751890Y-129363569D01*
X121500000Y-129312560D01*
X121439759Y-129312560D01*
X121421439Y-129220459D01*
X121240434Y-128949566D01*
X120775868Y-128485000D01*
X120777002Y-128485000D01*
X120777002Y-128326252D01*
X120935750Y-128485000D01*
X121626309Y-128485000D01*
X121859698Y-128388327D01*
X122038327Y-128209699D01*
X122135000Y-127976310D01*
X122135000Y-127285750D01*
X121976250Y-127127000D01*
X120777000Y-127127000D01*
X120777000Y-127147000D01*
X120523000Y-127147000D01*
X120523000Y-127127000D01*
X120503000Y-127127000D01*
X120503000Y-126873000D01*
X120523000Y-126873000D01*
X120523000Y-124587000D01*
X120777000Y-124587000D01*
X120777000Y-126873000D01*
X121976250Y-126873000D01*
X122135000Y-126714250D01*
X122135000Y-126023690D01*
X122038327Y-125790301D01*
X121859698Y-125611673D01*
X121650122Y-125524864D01*
X121921645Y-125226924D01*
X122091476Y-124816890D01*
X121970155Y-124587000D01*
X120777000Y-124587000D01*
X120523000Y-124587000D01*
X120503000Y-124587000D01*
X120503000Y-124333000D01*
X120523000Y-124333000D01*
X120523000Y-122047000D01*
X120777000Y-122047000D01*
X120777000Y-124333000D01*
X121970155Y-124333000D01*
X122091476Y-124103110D01*
X121921645Y-123693076D01*
X121531358Y-123264817D01*
X121372046Y-123190000D01*
X121531358Y-123115183D01*
X121921645Y-122686924D01*
X122091476Y-122276890D01*
X121970155Y-122047000D01*
X120777000Y-122047000D01*
X120523000Y-122047000D01*
X120503000Y-122047000D01*
X120503000Y-121793000D01*
X120523000Y-121793000D01*
X120523000Y-119507000D01*
X120777000Y-119507000D01*
X120777000Y-121793000D01*
X121970155Y-121793000D01*
X122091476Y-121563110D01*
X121921645Y-121153076D01*
X121531358Y-120724817D01*
X121372046Y-120650000D01*
X121531358Y-120575183D01*
X121921645Y-120146924D01*
X122091476Y-119736890D01*
X121970155Y-119507000D01*
X120777000Y-119507000D01*
X120523000Y-119507000D01*
X120503000Y-119507000D01*
X120503000Y-119253000D01*
X120523000Y-119253000D01*
X120523000Y-116967000D01*
X120777000Y-116967000D01*
X120777000Y-119253000D01*
X121970155Y-119253000D01*
X122091476Y-119023110D01*
X121921645Y-118613076D01*
X121531358Y-118184817D01*
X121372046Y-118110000D01*
X121531358Y-118035183D01*
X121921645Y-117606924D01*
X122091476Y-117196890D01*
X121970155Y-116967000D01*
X120777000Y-116967000D01*
X120523000Y-116967000D01*
X120503000Y-116967000D01*
X120503000Y-116713000D01*
X120523000Y-116713000D01*
X120523000Y-114427000D01*
X120777000Y-114427000D01*
X120777000Y-116713000D01*
X121970155Y-116713000D01*
X122091476Y-116483110D01*
X121921645Y-116073076D01*
X121531358Y-115644817D01*
X121372046Y-115570000D01*
X121531358Y-115495183D01*
X121921645Y-115066924D01*
X122091476Y-114656890D01*
X121970155Y-114427000D01*
X120777000Y-114427000D01*
X120523000Y-114427000D01*
X120503000Y-114427000D01*
X120503000Y-114173000D01*
X120523000Y-114173000D01*
X120523000Y-111887000D01*
X120777000Y-111887000D01*
X120777000Y-114173000D01*
X121970155Y-114173000D01*
X122091476Y-113943110D01*
X121921645Y-113533076D01*
X121531358Y-113104817D01*
X121372046Y-113030000D01*
X121531358Y-112955183D01*
X121921645Y-112526924D01*
X122091476Y-112116890D01*
X121970155Y-111887000D01*
X120777000Y-111887000D01*
X120523000Y-111887000D01*
X120503000Y-111887000D01*
X120503000Y-111633000D01*
X120523000Y-111633000D01*
X120523000Y-109347000D01*
X120777000Y-109347000D01*
X120777000Y-111633000D01*
X121970155Y-111633000D01*
X122091476Y-111403110D01*
X121921645Y-110993076D01*
X121531358Y-110564817D01*
X121372046Y-110490000D01*
X121531358Y-110415183D01*
X121921645Y-109986924D01*
X122091476Y-109576890D01*
X121970155Y-109347000D01*
X120777000Y-109347000D01*
X120523000Y-109347000D01*
X120503000Y-109347000D01*
X120503000Y-109093000D01*
X120523000Y-109093000D01*
X120523000Y-106807000D01*
X120777000Y-106807000D01*
X120777000Y-109093000D01*
X121970155Y-109093000D01*
X122091476Y-108863110D01*
X121921645Y-108453076D01*
X121531358Y-108024817D01*
X121372046Y-107950000D01*
X121531358Y-107875183D01*
X121921645Y-107446924D01*
X122091476Y-107036890D01*
X121970155Y-106807000D01*
X120777000Y-106807000D01*
X120523000Y-106807000D01*
X120503000Y-106807000D01*
X120503000Y-106553000D01*
X120523000Y-106553000D01*
X120523000Y-105359181D01*
X120777000Y-105359181D01*
X120777000Y-106553000D01*
X121970155Y-106553000D01*
X122091476Y-106323110D01*
X121921645Y-105913076D01*
X121531358Y-105484817D01*
X121006892Y-105238514D01*
X120777000Y-105359181D01*
X120523000Y-105359181D01*
X120293108Y-105238514D01*
X119768642Y-105484817D01*
X119378355Y-105913076D01*
X119378345Y-105913101D01*
X119189147Y-105629946D01*
X119145223Y-105600597D01*
X119319698Y-105528327D01*
X119498327Y-105349699D01*
X119595000Y-105116310D01*
X119595000Y-104425750D01*
X119436250Y-104267000D01*
X118237000Y-104267000D01*
X118237000Y-104287000D01*
X117983000Y-104287000D01*
X117983000Y-104267000D01*
X117963000Y-104267000D01*
X117963000Y-104013000D01*
X117983000Y-104013000D01*
X117983000Y-101727000D01*
X117963000Y-101727000D01*
X117963000Y-101473000D01*
X117983000Y-101473000D01*
X117983000Y-99187000D01*
X117963000Y-99187000D01*
X117963000Y-98933000D01*
X117983000Y-98933000D01*
X117983000Y-96647000D01*
X118237000Y-96647000D01*
X118237000Y-98933000D01*
X118257000Y-98933000D01*
X118257000Y-99187000D01*
X118237000Y-99187000D01*
X118237000Y-101473000D01*
X118257000Y-101473000D01*
X118257000Y-101727000D01*
X118237000Y-101727000D01*
X118237000Y-104013000D01*
X119436250Y-104013000D01*
X119595000Y-103854250D01*
X119595000Y-103163690D01*
X119498327Y-102930301D01*
X119319698Y-102751673D01*
X119110122Y-102664864D01*
X119366831Y-102383180D01*
X119390344Y-102440086D01*
X119807717Y-102858188D01*
X120353319Y-103084742D01*
X120944089Y-103085257D01*
X121490086Y-102859656D01*
X121908188Y-102442283D01*
X122134742Y-101896681D01*
X122135257Y-101305911D01*
X121909656Y-100759914D01*
X121492283Y-100341812D01*
X121433361Y-100317345D01*
X121700054Y-100139147D01*
X122021961Y-99657378D01*
X122135000Y-99089093D01*
X122135000Y-99030907D01*
X122021961Y-98462622D01*
X121700054Y-97980853D01*
X121218285Y-97658946D01*
X120650000Y-97545907D01*
X120081715Y-97658946D01*
X119599946Y-97980853D01*
X119385350Y-98302020D01*
X119381645Y-98293076D01*
X118991358Y-97864817D01*
X118832046Y-97790000D01*
X118991358Y-97715183D01*
X119381645Y-97286924D01*
X119551476Y-96876890D01*
X119430155Y-96647000D01*
X118237000Y-96647000D01*
X117983000Y-96647000D01*
X117963000Y-96647000D01*
X117963000Y-96393000D01*
X117983000Y-96393000D01*
X117983000Y-94107000D01*
X118237000Y-94107000D01*
X118237000Y-96393000D01*
X119430155Y-96393000D01*
X119551476Y-96163110D01*
X119381645Y-95753076D01*
X118991358Y-95324817D01*
X118832046Y-95250000D01*
X118991358Y-95175183D01*
X119381645Y-94746924D01*
X119551476Y-94336890D01*
X119430155Y-94107000D01*
X118237000Y-94107000D01*
X117983000Y-94107000D01*
X117963000Y-94107000D01*
X117963000Y-93853000D01*
X117983000Y-93853000D01*
X117983000Y-91567000D01*
X118237000Y-91567000D01*
X118237000Y-93853000D01*
X119430155Y-93853000D01*
X119551476Y-93623110D01*
X119381645Y-93213076D01*
X118991358Y-92784817D01*
X118832046Y-92710000D01*
X118991358Y-92635183D01*
X119381645Y-92206924D01*
X119551476Y-91796890D01*
X119430155Y-91567000D01*
X118237000Y-91567000D01*
X117983000Y-91567000D01*
X117963000Y-91567000D01*
X117963000Y-91313000D01*
X117983000Y-91313000D01*
X117983000Y-89027000D01*
X118237000Y-89027000D01*
X118237000Y-91313000D01*
X119430155Y-91313000D01*
X119551476Y-91083110D01*
X119381645Y-90673076D01*
X118991358Y-90244817D01*
X118832046Y-90170000D01*
X118991358Y-90095183D01*
X119381645Y-89666924D01*
X119551476Y-89256890D01*
X119430155Y-89027000D01*
X118237000Y-89027000D01*
X117983000Y-89027000D01*
X117963000Y-89027000D01*
X117963000Y-88773000D01*
X117983000Y-88773000D01*
X117983000Y-86487000D01*
X118237000Y-86487000D01*
X118237000Y-88773000D01*
X119430155Y-88773000D01*
X119551476Y-88543110D01*
X119381645Y-88133076D01*
X118991358Y-87704817D01*
X118832046Y-87630000D01*
X118991358Y-87555183D01*
X119381645Y-87126924D01*
X119551476Y-86716890D01*
X119430155Y-86487000D01*
X118237000Y-86487000D01*
X117983000Y-86487000D01*
X117963000Y-86487000D01*
X117963000Y-86233000D01*
X117983000Y-86233000D01*
X117983000Y-83947000D01*
X118237000Y-83947000D01*
X118237000Y-86233000D01*
X119430155Y-86233000D01*
X119551476Y-86003110D01*
X119381645Y-85593076D01*
X118991358Y-85164817D01*
X118832046Y-85090000D01*
X118991358Y-85015183D01*
X119381645Y-84586924D01*
X119551476Y-84176890D01*
X119430155Y-83947000D01*
X118237000Y-83947000D01*
X117983000Y-83947000D01*
X117963000Y-83947000D01*
X117963000Y-83693000D01*
X117983000Y-83693000D01*
X117983000Y-82499181D01*
X118237000Y-82499181D01*
X118237000Y-83693000D01*
X119430155Y-83693000D01*
X119551476Y-83463110D01*
X119381645Y-83053076D01*
X118991358Y-82624817D01*
X118466892Y-82378514D01*
X118237000Y-82499181D01*
X117983000Y-82499181D01*
X117753108Y-82378514D01*
X117228642Y-82624817D01*
X116838355Y-83053076D01*
X116838345Y-83053101D01*
X116649147Y-82769946D01*
X116167378Y-82448039D01*
X115599093Y-82335000D01*
X115540907Y-82335000D01*
X114972622Y-82448039D01*
X114490853Y-82769946D01*
X114168946Y-83251715D01*
X114055907Y-83820000D01*
X114168946Y-84388285D01*
X114490853Y-84870054D01*
X114820026Y-85090000D01*
X114490853Y-85309946D01*
X114168946Y-85791715D01*
X114055907Y-86360000D01*
X114168946Y-86928285D01*
X114490853Y-87410054D01*
X114820026Y-87630000D01*
X114490853Y-87849946D01*
X114168946Y-88331715D01*
X114055907Y-88900000D01*
X114168946Y-89468285D01*
X114490853Y-89950054D01*
X114820026Y-90170000D01*
X114490853Y-90389946D01*
X114168946Y-90871715D01*
X114055907Y-91440000D01*
X114168946Y-92008285D01*
X114490853Y-92490054D01*
X114820026Y-92710000D01*
X114490853Y-92929946D01*
X114168946Y-93411715D01*
X114055907Y-93980000D01*
X114168946Y-94548285D01*
X114490853Y-95030054D01*
X114820026Y-95250000D01*
X114490853Y-95469946D01*
X114168946Y-95951715D01*
X114055907Y-96520000D01*
X114168946Y-97088285D01*
X114490853Y-97570054D01*
X114820026Y-97790000D01*
X114490853Y-98009946D01*
X114168946Y-98491715D01*
X114055907Y-99060000D01*
X114168946Y-99628285D01*
X114490853Y-100110054D01*
X114820026Y-100330000D01*
X114490853Y-100549946D01*
X114269146Y-100881755D01*
X114195327Y-100807808D01*
X113851799Y-100665162D01*
X113479833Y-100664838D01*
X113136057Y-100806883D01*
X112872808Y-101069673D01*
X112730162Y-101413201D01*
X112730121Y-101460077D01*
X112715198Y-101475000D01*
X106980110Y-101475000D01*
X106980162Y-101414833D01*
X106838117Y-101071057D01*
X106575327Y-100807808D01*
X106311446Y-100698235D01*
X106203117Y-100436057D01*
X105940327Y-100172808D01*
X105596799Y-100030162D01*
X105224833Y-100029838D01*
X104881057Y-100171883D01*
X104847882Y-100205000D01*
X104704802Y-100205000D01*
X105947401Y-98962401D01*
X106112148Y-98715839D01*
X106170000Y-98425000D01*
X106170000Y-94542463D01*
X106202192Y-94510327D01*
X106344838Y-94166799D01*
X106345162Y-93794833D01*
X106203117Y-93451057D01*
X105940327Y-93187808D01*
X105596799Y-93045162D01*
X105224833Y-93044838D01*
X104881057Y-93186883D01*
X104617808Y-93449673D01*
X104508235Y-93713554D01*
X104246057Y-93821883D01*
X103982808Y-94084673D01*
X103840162Y-94428201D01*
X103839838Y-94800167D01*
X103981883Y-95143943D01*
X104015000Y-95177118D01*
X104015000Y-97475198D01*
X100015198Y-101475000D01*
X99695000Y-101475000D01*
X99404161Y-101532852D01*
X99157599Y-101697599D01*
X98522599Y-102332599D01*
X98357852Y-102579161D01*
X98300000Y-102870000D01*
X98300000Y-103825198D01*
X97252599Y-104872599D01*
X97087852Y-105119161D01*
X97030000Y-105410000D01*
X97030000Y-109220000D01*
X97087852Y-109510839D01*
X97252599Y-109757401D01*
X97489878Y-109994680D01*
X97489838Y-110040167D01*
X97631883Y-110383943D01*
X97894673Y-110647192D01*
X98238201Y-110789838D01*
X98285077Y-110789879D01*
X98850600Y-111355402D01*
X98760162Y-111573201D01*
X98759838Y-111945167D01*
X98901883Y-112288943D01*
X99164673Y-112552192D01*
X99508201Y-112694838D01*
X99570000Y-112694892D01*
X99570000Y-113350198D01*
X99183659Y-113736539D01*
X98955327Y-113507808D01*
X98727000Y-113412998D01*
X98727000Y-112200000D01*
X98718315Y-112153841D01*
X98691035Y-112111447D01*
X98649410Y-112083006D01*
X98600000Y-112073000D01*
X98200000Y-112073000D01*
X98153841Y-112081685D01*
X98111447Y-112108965D01*
X98083006Y-112150590D01*
X98073000Y-112200000D01*
X98073000Y-113433772D01*
X97896057Y-113506883D01*
X97729650Y-113673000D01*
X96200000Y-113673000D01*
X96152211Y-113682334D01*
X96110197Y-113710197D01*
X90547394Y-119273000D01*
X83652606Y-119273000D01*
X83327000Y-118947394D01*
X83327000Y-115644285D01*
X84974760Y-115644285D01*
X85185169Y-116153515D01*
X85574436Y-116543461D01*
X86083298Y-116754759D01*
X86634285Y-116755240D01*
X87143515Y-116544831D01*
X87533461Y-116155564D01*
X87744759Y-115646702D01*
X87745240Y-115095715D01*
X87534831Y-114586485D01*
X87145564Y-114196539D01*
X86636702Y-113985241D01*
X86085715Y-113984760D01*
X85576485Y-114195169D01*
X85186539Y-114584436D01*
X84975241Y-115093298D01*
X84974760Y-115644285D01*
X83327000Y-115644285D01*
X83327000Y-110764285D01*
X84974760Y-110764285D01*
X85185169Y-111273515D01*
X85574436Y-111663461D01*
X86083298Y-111874759D01*
X86634285Y-111875240D01*
X87143515Y-111664831D01*
X87533461Y-111275564D01*
X87744759Y-110766702D01*
X87745240Y-110215715D01*
X87534831Y-109706485D01*
X87145564Y-109316539D01*
X86636702Y-109105241D01*
X86085715Y-109104760D01*
X85576485Y-109315169D01*
X85186539Y-109704436D01*
X84975241Y-110213298D01*
X84974760Y-110764285D01*
X83327000Y-110764285D01*
X83327000Y-107052606D01*
X83652606Y-106727000D01*
X90547394Y-106727000D01*
X95310197Y-111489803D01*
X95350590Y-111516994D01*
X95400000Y-111527000D01*
X98200000Y-111527000D01*
X98246159Y-111518315D01*
X98288553Y-111491035D01*
X98316994Y-111449410D01*
X98327000Y-111400000D01*
X98327000Y-111000000D01*
X98318315Y-110953841D01*
X98291035Y-110911447D01*
X98249410Y-110883006D01*
X98200000Y-110873000D01*
X95652606Y-110873000D01*
X91668014Y-106888408D01*
X91888201Y-106979838D01*
X92260167Y-106980162D01*
X92603943Y-106838117D01*
X92867192Y-106575327D01*
X93009838Y-106231799D01*
X93010036Y-106004491D01*
X93083691Y-106035000D01*
X93674250Y-106035000D01*
X93833000Y-105876250D01*
X93833000Y-104902000D01*
X94087000Y-104902000D01*
X94087000Y-105876250D01*
X94245750Y-106035000D01*
X94836309Y-106035000D01*
X95069698Y-105938327D01*
X95248327Y-105759699D01*
X95345000Y-105526310D01*
X95345000Y-105060750D01*
X95186250Y-104902000D01*
X94087000Y-104902000D01*
X93833000Y-104902000D01*
X93813000Y-104902000D01*
X93813000Y-104648000D01*
X93833000Y-104648000D01*
X93833000Y-103673750D01*
X94087000Y-103673750D01*
X94087000Y-104648000D01*
X95186250Y-104648000D01*
X95345000Y-104489250D01*
X95345000Y-104023690D01*
X95248327Y-103790301D01*
X95069698Y-103611673D01*
X94836309Y-103515000D01*
X94245750Y-103515000D01*
X94087000Y-103673750D01*
X93833000Y-103673750D01*
X93674250Y-103515000D01*
X93083691Y-103515000D01*
X92850302Y-103611673D01*
X92709064Y-103752910D01*
X92674090Y-103698559D01*
X92461890Y-103553569D01*
X92210000Y-103502560D01*
X91368428Y-103502560D01*
X90415434Y-102549566D01*
X90335925Y-102496440D01*
X90176474Y-102389898D01*
X90079090Y-102238559D01*
X89866890Y-102093569D01*
X89615000Y-102042560D01*
X89594866Y-102042560D01*
X89780129Y-101857620D01*
X90036976Y-102114916D01*
X90518282Y-102314772D01*
X91039432Y-102315226D01*
X91521086Y-102116211D01*
X91889916Y-101748024D01*
X92044923Y-101374725D01*
X92212599Y-101542401D01*
X92459161Y-101707148D01*
X92750000Y-101765000D01*
X93687670Y-101765000D01*
X94036976Y-102114916D01*
X94518282Y-102314772D01*
X95039432Y-102315226D01*
X95521086Y-102116211D01*
X95780129Y-101857620D01*
X96036976Y-102114916D01*
X96518282Y-102314772D01*
X97039432Y-102315226D01*
X97521086Y-102116211D01*
X97889916Y-101748024D01*
X98089772Y-101266718D01*
X98090226Y-100745568D01*
X97891211Y-100263914D01*
X97523024Y-99895084D01*
X97041718Y-99695228D01*
X96544597Y-99694795D01*
X96007401Y-99157599D01*
X95760839Y-98992852D01*
X95470000Y-98935000D01*
X93024802Y-98935000D01*
X92835000Y-98745198D01*
X92835000Y-96785750D01*
X93990000Y-96785750D01*
X93990000Y-97376309D01*
X94086673Y-97609698D01*
X94265301Y-97788327D01*
X94498690Y-97885000D01*
X94964250Y-97885000D01*
X95123000Y-97726250D01*
X95123000Y-96627000D01*
X95377000Y-96627000D01*
X95377000Y-97726250D01*
X95535750Y-97885000D01*
X96001310Y-97885000D01*
X96234699Y-97788327D01*
X96413327Y-97609698D01*
X96510000Y-97376309D01*
X96510000Y-96785750D01*
X96351250Y-96627000D01*
X95377000Y-96627000D01*
X95123000Y-96627000D01*
X94148750Y-96627000D01*
X93990000Y-96785750D01*
X92835000Y-96785750D01*
X92835000Y-92657952D01*
X93030000Y-92697440D01*
X94311045Y-92697440D01*
X94173559Y-92785910D01*
X94028569Y-92998110D01*
X93977560Y-93250000D01*
X93977560Y-94750000D01*
X94021838Y-94985317D01*
X94160910Y-95201441D01*
X94229006Y-95247969D01*
X94086673Y-95390302D01*
X93990000Y-95623691D01*
X93990000Y-96214250D01*
X94148750Y-96373000D01*
X95123000Y-96373000D01*
X95123000Y-96353000D01*
X95377000Y-96353000D01*
X95377000Y-96373000D01*
X96351250Y-96373000D01*
X96396691Y-96327559D01*
X98219566Y-98150434D01*
X98490459Y-98331439D01*
X98810000Y-98395000D01*
X99352539Y-98395000D01*
X99626976Y-98669916D01*
X100108282Y-98869772D01*
X100629432Y-98870226D01*
X101111086Y-98671211D01*
X101479916Y-98303024D01*
X101679772Y-97821718D01*
X101680226Y-97300568D01*
X101481211Y-96818914D01*
X101113024Y-96450084D01*
X101057369Y-96426974D01*
X100370000Y-95739605D01*
X99683279Y-96426326D01*
X99628914Y-96448789D01*
X99352221Y-96725000D01*
X99155868Y-96725000D01*
X97803968Y-95373100D01*
X99047478Y-95373100D01*
X99076625Y-95893434D01*
X99219672Y-96238781D01*
X99452853Y-96297542D01*
X100190395Y-95560000D01*
X100549605Y-95560000D01*
X101287147Y-96297542D01*
X101520328Y-96238781D01*
X101692522Y-95746900D01*
X101663375Y-95226566D01*
X101520328Y-94881219D01*
X101287147Y-94822458D01*
X100549605Y-95560000D01*
X100190395Y-95560000D01*
X99452853Y-94822458D01*
X99219672Y-94881219D01*
X99047478Y-95373100D01*
X97803968Y-95373100D01*
X96522440Y-94091572D01*
X96522440Y-93470000D01*
X97227537Y-93470000D01*
X97259673Y-93502192D01*
X97603201Y-93644838D01*
X97975167Y-93645162D01*
X98318943Y-93503117D01*
X98352118Y-93470000D01*
X99060078Y-93470000D01*
X99059774Y-93819432D01*
X99258789Y-94301086D01*
X99626976Y-94669916D01*
X99682631Y-94693026D01*
X100370000Y-95380395D01*
X101056721Y-94693674D01*
X101111086Y-94671211D01*
X101479916Y-94303024D01*
X101679772Y-93821718D01*
X101680226Y-93300568D01*
X101481211Y-92818914D01*
X101222620Y-92559871D01*
X101479916Y-92303024D01*
X101679772Y-91821718D01*
X101680226Y-91300568D01*
X101481211Y-90818914D01*
X101222620Y-90559871D01*
X101479916Y-90303024D01*
X101679772Y-89821718D01*
X101680226Y-89300568D01*
X101481211Y-88818914D01*
X101113024Y-88450084D01*
X100631718Y-88250228D01*
X100110568Y-88249774D01*
X99628914Y-88448789D01*
X99409570Y-88667751D01*
X99290668Y-88618378D01*
X99359838Y-88451799D01*
X99360162Y-88079833D01*
X99218117Y-87736057D01*
X98955327Y-87472808D01*
X98611799Y-87330162D01*
X98564923Y-87330121D01*
X98327401Y-87092599D01*
X98080839Y-86927852D01*
X97790000Y-86870000D01*
X96199802Y-86870000D01*
X96067401Y-86737599D01*
X95820839Y-86572852D01*
X95530000Y-86515000D01*
X95127440Y-86515000D01*
X95127440Y-86400000D01*
X95114020Y-86328677D01*
X95115000Y-86326310D01*
X95115000Y-86246250D01*
X95094688Y-86225938D01*
X95083162Y-86164683D01*
X94944090Y-85948559D01*
X94818138Y-85862500D01*
X94956250Y-85862500D01*
X95115000Y-85703750D01*
X95115000Y-85623690D01*
X95018327Y-85390301D01*
X94839698Y-85211673D01*
X94606309Y-85115000D01*
X94040750Y-85115000D01*
X93882000Y-85273750D01*
X93882000Y-85752560D01*
X93628000Y-85752560D01*
X93628000Y-85273750D01*
X93469250Y-85115000D01*
X92903691Y-85115000D01*
X92670302Y-85211673D01*
X92491673Y-85390301D01*
X92395000Y-85623690D01*
X92395000Y-85703750D01*
X92553750Y-85862500D01*
X92692641Y-85862500D01*
X92578559Y-85935910D01*
X92433569Y-86148110D01*
X92418442Y-86222808D01*
X92395000Y-86246250D01*
X92395000Y-86326310D01*
X92396667Y-86330335D01*
X92382560Y-86400000D01*
X92382560Y-86850000D01*
X92402067Y-86953671D01*
X92382560Y-87050000D01*
X92382560Y-87497758D01*
X91622401Y-86737599D01*
X91375839Y-86572852D01*
X91085000Y-86515000D01*
X89227440Y-86515000D01*
X89227440Y-86400000D01*
X89207933Y-86296329D01*
X89227440Y-86200000D01*
X89227440Y-85750000D01*
X89183162Y-85514683D01*
X89044090Y-85298559D01*
X88831890Y-85153569D01*
X88580000Y-85102560D01*
X87130000Y-85102560D01*
X86931024Y-85140000D01*
X86745000Y-85140000D01*
X86425459Y-85203561D01*
X86283285Y-85298559D01*
X86154566Y-85384566D01*
X85769566Y-85769566D01*
X85588561Y-86040459D01*
X85525000Y-86360000D01*
X85525000Y-86900000D01*
X85375750Y-86900000D01*
X85217000Y-87058750D01*
X85217000Y-88158000D01*
X85237000Y-88158000D01*
X85237000Y-88412000D01*
X85217000Y-88412000D01*
X85217000Y-88432000D01*
X84963000Y-88432000D01*
X84963000Y-88412000D01*
X83988750Y-88412000D01*
X83830000Y-88570750D01*
X83830000Y-89161309D01*
X83926673Y-89394698D01*
X84067910Y-89535936D01*
X84013559Y-89570910D01*
X83868569Y-89783110D01*
X83817560Y-90035000D01*
X83817560Y-91535000D01*
X83861838Y-91770317D01*
X84000910Y-91986441D01*
X84213110Y-92131431D01*
X84255000Y-92139914D01*
X84255000Y-92564132D01*
X83229566Y-93589566D01*
X83048561Y-93860459D01*
X82985000Y-94180000D01*
X82985000Y-94520000D01*
X82835750Y-94520000D01*
X82677000Y-94678750D01*
X82677000Y-95778000D01*
X82697000Y-95778000D01*
X82697000Y-96032000D01*
X82677000Y-96032000D01*
X82677000Y-96052000D01*
X82423000Y-96052000D01*
X82423000Y-96032000D01*
X82403000Y-96032000D01*
X82403000Y-95778000D01*
X82423000Y-95778000D01*
X82423000Y-94678750D01*
X82264250Y-94520000D01*
X81798690Y-94520000D01*
X81685000Y-94567092D01*
X81685000Y-94067466D01*
X81721376Y-93884591D01*
X81786751Y-93786750D01*
X81884590Y-93721376D01*
X82133636Y-93671838D01*
X82516319Y-93595718D01*
X82763248Y-93493437D01*
X82763249Y-93493436D01*
X83087672Y-93276664D01*
X83276664Y-93087672D01*
X83493437Y-92763249D01*
X83546483Y-92635183D01*
X83595718Y-92516319D01*
X83671838Y-92133636D01*
X83671838Y-92066170D01*
X83685000Y-92000000D01*
X83685000Y-87408691D01*
X83830000Y-87408691D01*
X83830000Y-87999250D01*
X83988750Y-88158000D01*
X84963000Y-88158000D01*
X84963000Y-87058750D01*
X84804250Y-86900000D01*
X84338690Y-86900000D01*
X84105301Y-86996673D01*
X83926673Y-87175302D01*
X83830000Y-87408691D01*
X83685000Y-87408691D01*
X83685000Y-87000000D01*
X83671838Y-86933830D01*
X83671838Y-86866364D01*
X83595718Y-86483681D01*
X83517374Y-86294541D01*
X83493437Y-86236751D01*
X83276664Y-85912328D01*
X83087672Y-85723336D01*
X82763248Y-85506563D01*
X82516319Y-85404282D01*
X82133636Y-85328162D01*
X81884590Y-85278624D01*
X81786751Y-85213250D01*
X81721376Y-85115409D01*
X81685000Y-84932534D01*
X81685000Y-81067467D01*
X81984567Y-79561442D01*
X83664509Y-79561442D01*
X84095202Y-80603801D01*
X84892005Y-81401995D01*
X85933610Y-81834507D01*
X87061442Y-81835491D01*
X87541070Y-81637313D01*
X87412328Y-81723336D01*
X87223336Y-81912328D01*
X87006564Y-82236751D01*
X87006563Y-82236752D01*
X86904282Y-82483681D01*
X86828162Y-82866364D01*
X86828162Y-83133636D01*
X86904282Y-83516319D01*
X86996048Y-83737862D01*
X87006563Y-83763248D01*
X87223336Y-84087672D01*
X87412328Y-84276664D01*
X87736751Y-84493437D01*
X87839032Y-84535803D01*
X87983681Y-84595718D01*
X88366364Y-84671838D01*
X88433830Y-84671838D01*
X88500000Y-84685000D01*
X93000000Y-84685000D01*
X93066170Y-84671838D01*
X93133636Y-84671838D01*
X93516319Y-84595718D01*
X93763248Y-84493437D01*
X93763249Y-84493436D01*
X94087672Y-84276664D01*
X94276664Y-84087672D01*
X94455896Y-83819432D01*
X99059774Y-83819432D01*
X99258789Y-84301086D01*
X99517380Y-84560129D01*
X99260084Y-84816976D01*
X99060228Y-85298282D01*
X99059774Y-85819432D01*
X99258789Y-86301086D01*
X99626976Y-86669916D01*
X100108282Y-86869772D01*
X100629432Y-86870226D01*
X101111086Y-86671211D01*
X101479916Y-86303024D01*
X101679772Y-85821718D01*
X101680226Y-85300568D01*
X101481211Y-84818914D01*
X101222620Y-84559871D01*
X101479916Y-84303024D01*
X101679772Y-83821718D01*
X101680226Y-83300568D01*
X101481211Y-82818914D01*
X101113024Y-82450084D01*
X100631718Y-82250228D01*
X100110568Y-82249774D01*
X99628914Y-82448789D01*
X99260084Y-82816976D01*
X99060228Y-83298282D01*
X99059774Y-83819432D01*
X94455896Y-83819432D01*
X94493437Y-83763249D01*
X94535803Y-83660968D01*
X94595718Y-83516319D01*
X94671838Y-83133636D01*
X94671838Y-82866364D01*
X94595718Y-82483681D01*
X94531300Y-82328162D01*
X94493437Y-82236751D01*
X94276664Y-81912328D01*
X94087672Y-81723336D01*
X93763248Y-81506563D01*
X93712467Y-81485529D01*
X93516319Y-81404282D01*
X93133636Y-81328162D01*
X93066170Y-81328162D01*
X93000000Y-81315000D01*
X88500000Y-81315000D01*
X88433830Y-81328162D01*
X88134338Y-81374315D01*
X88901995Y-80607995D01*
X89265784Y-79731892D01*
X91903514Y-79731892D01*
X92149817Y-80256358D01*
X92578076Y-80646645D01*
X92988110Y-80816476D01*
X93218000Y-80695155D01*
X93218000Y-79502000D01*
X92024181Y-79502000D01*
X91903514Y-79731892D01*
X89265784Y-79731892D01*
X89334507Y-79566390D01*
X89335491Y-78438558D01*
X88904798Y-77396199D01*
X88315535Y-76805907D01*
X91860000Y-76805907D01*
X91860000Y-76864093D01*
X91973039Y-77432378D01*
X92294946Y-77914147D01*
X92578101Y-78103345D01*
X92578076Y-78103355D01*
X92149817Y-78493642D01*
X91903514Y-79018108D01*
X92024181Y-79248000D01*
X93218000Y-79248000D01*
X93218000Y-79228000D01*
X93472000Y-79228000D01*
X93472000Y-79248000D01*
X93492000Y-79248000D01*
X93492000Y-79502000D01*
X93472000Y-79502000D01*
X93472000Y-80695155D01*
X93701890Y-80816476D01*
X94111924Y-80646645D01*
X94540183Y-80256358D01*
X94607298Y-80113447D01*
X94834946Y-80454147D01*
X95316715Y-80776054D01*
X95640696Y-80840498D01*
X96854878Y-82054680D01*
X96854838Y-82100167D01*
X96996883Y-82443943D01*
X97259673Y-82707192D01*
X97603201Y-82849838D01*
X97975167Y-82850162D01*
X98318943Y-82708117D01*
X98582192Y-82445327D01*
X98724838Y-82101799D01*
X98725162Y-81729833D01*
X98583117Y-81386057D01*
X98320327Y-81122808D01*
X97976799Y-80980162D01*
X97929923Y-80980121D01*
X97462351Y-80512549D01*
X97856715Y-80776054D01*
X98425000Y-80889093D01*
X98993285Y-80776054D01*
X99475054Y-80454147D01*
X99524597Y-80380000D01*
X105132560Y-80380000D01*
X105132560Y-82180000D01*
X105176838Y-82415317D01*
X105315910Y-82631441D01*
X105528110Y-82776431D01*
X105780000Y-82827440D01*
X107580000Y-82827440D01*
X107815317Y-82783162D01*
X108031441Y-82644090D01*
X108170598Y-82440426D01*
X108204890Y-82474718D01*
X108319447Y-82360161D01*
X108405852Y-82616643D01*
X108979336Y-82826458D01*
X109589460Y-82800839D01*
X110034148Y-82616643D01*
X110120554Y-82360159D01*
X109220000Y-81459605D01*
X109205858Y-81473748D01*
X109026253Y-81294143D01*
X109040395Y-81280000D01*
X109399605Y-81280000D01*
X110300159Y-82180554D01*
X110450327Y-82129965D01*
X110457932Y-82148371D01*
X110889357Y-82580551D01*
X111453330Y-82814733D01*
X112063991Y-82815265D01*
X112628371Y-82582068D01*
X113060551Y-82150643D01*
X113294733Y-81586670D01*
X113295265Y-80976009D01*
X113062068Y-80411629D01*
X112630643Y-79979449D01*
X112066670Y-79745267D01*
X111456009Y-79744735D01*
X110891629Y-79977932D01*
X110459449Y-80409357D01*
X110450797Y-80430194D01*
X110300159Y-80379446D01*
X109399605Y-81280000D01*
X109040395Y-81280000D01*
X109026253Y-81265858D01*
X109205858Y-81086253D01*
X109220000Y-81100395D01*
X110120554Y-80199841D01*
X110034148Y-79943357D01*
X109460664Y-79733542D01*
X108850540Y-79759161D01*
X108405852Y-79943357D01*
X108319447Y-80199839D01*
X108204890Y-80085282D01*
X108168412Y-80121760D01*
X108044090Y-79928559D01*
X107831890Y-79783569D01*
X107580000Y-79732560D01*
X105780000Y-79732560D01*
X105544683Y-79776838D01*
X105328559Y-79915910D01*
X105183569Y-80128110D01*
X105132560Y-80380000D01*
X99524597Y-80380000D01*
X99796961Y-79972378D01*
X99910000Y-79404093D01*
X99910000Y-79345907D01*
X99796961Y-78777622D01*
X99475054Y-78295853D01*
X99473821Y-78295029D01*
X99510317Y-78288162D01*
X99726441Y-78149090D01*
X99871431Y-77936890D01*
X99922440Y-77685000D01*
X99922440Y-75985000D01*
X99878162Y-75749683D01*
X99739090Y-75533559D01*
X99526890Y-75388569D01*
X99275000Y-75337560D01*
X97575000Y-75337560D01*
X97339683Y-75381838D01*
X97123559Y-75520910D01*
X96978569Y-75733110D01*
X96964914Y-75800541D01*
X96935054Y-75755853D01*
X96453285Y-75433946D01*
X95885000Y-75320907D01*
X95316715Y-75433946D01*
X94834946Y-75755853D01*
X94615000Y-76085026D01*
X94395054Y-75755853D01*
X93913285Y-75433946D01*
X93345000Y-75320907D01*
X92776715Y-75433946D01*
X92294946Y-75755853D01*
X91973039Y-76237622D01*
X91860000Y-76805907D01*
X88315535Y-76805907D01*
X88107995Y-76598005D01*
X87066390Y-76165493D01*
X85938558Y-76164509D01*
X84896199Y-76595202D01*
X84098005Y-77392005D01*
X83665493Y-78433610D01*
X83664509Y-79561442D01*
X81984567Y-79561442D01*
X82178099Y-78588491D01*
X83544110Y-76544111D01*
X85588489Y-75178099D01*
X88067466Y-74685000D01*
X122932534Y-74685000D01*
X123063000Y-74710951D01*
G36*
X103968524Y-132993110D02*
X104089845Y-133223000D01*
X105283000Y-133223000D01*
X105283000Y-133203000D01*
X105537000Y-133203000D01*
X105537000Y-133223000D01*
X106730155Y-133223000D01*
X106851476Y-132993110D01*
X106788888Y-132842000D01*
X107188000Y-132842000D01*
X107188000Y-135890000D01*
X107198006Y-135939410D01*
X107226447Y-135981035D01*
X107268841Y-136008315D01*
X107315000Y-136017000D01*
X108517560Y-136017000D01*
X108517560Y-136390000D01*
X108561838Y-136625317D01*
X108577339Y-136649406D01*
X108530000Y-136763691D01*
X108530000Y-137104250D01*
X108688750Y-137263000D01*
X110288000Y-137263000D01*
X110288000Y-137243000D01*
X110542000Y-137243000D01*
X110542000Y-137263000D01*
X110562000Y-137263000D01*
X110562000Y-137517000D01*
X110542000Y-137517000D01*
X110542000Y-138366250D01*
X110700750Y-138525000D01*
X111633000Y-138525000D01*
X111633000Y-140135000D01*
X107315000Y-140135000D01*
X106995460Y-140198560D01*
X106724566Y-140379566D01*
X106680000Y-140424132D01*
X106037621Y-139781753D01*
X106489147Y-139480054D01*
X106811054Y-138998285D01*
X106924093Y-138430000D01*
X106811054Y-137861715D01*
X106686797Y-137675750D01*
X108530000Y-137675750D01*
X108530000Y-138016309D01*
X108626673Y-138249698D01*
X108805301Y-138428327D01*
X109038690Y-138525000D01*
X110129250Y-138525000D01*
X110288000Y-138366250D01*
X110288000Y-137517000D01*
X108688750Y-137517000D01*
X108530000Y-137675750D01*
X106686797Y-137675750D01*
X106489147Y-137379946D01*
X106159974Y-137160000D01*
X106489147Y-136940054D01*
X106811054Y-136458285D01*
X106924093Y-135890000D01*
X106811054Y-135321715D01*
X106489147Y-134839946D01*
X106148447Y-134612298D01*
X106291358Y-134545183D01*
X106681645Y-134116924D01*
X106851476Y-133706890D01*
X106730155Y-133477000D01*
X105537000Y-133477000D01*
X105537000Y-133497000D01*
X105283000Y-133497000D01*
X105283000Y-133477000D01*
X104089845Y-133477000D01*
X103968524Y-133706890D01*
X104138355Y-134116924D01*
X104528642Y-134545183D01*
X104671553Y-134612298D01*
X104330853Y-134839946D01*
X104008946Y-135321715D01*
X103895907Y-135890000D01*
X104008946Y-136458285D01*
X104330853Y-136940054D01*
X104660026Y-137160000D01*
X104330853Y-137379946D01*
X104008946Y-137861715D01*
X103895907Y-138430000D01*
X104008946Y-138998285D01*
X104330853Y-139480054D01*
X104360704Y-139500000D01*
X101379296Y-139500000D01*
X101409147Y-139480054D01*
X101731054Y-138998285D01*
X101844093Y-138430000D01*
X101731054Y-137861715D01*
X101409147Y-137379946D01*
X101079974Y-137160000D01*
X101409147Y-136940054D01*
X101731054Y-136458285D01*
X101844093Y-135890000D01*
X101731054Y-135321715D01*
X101409147Y-134839946D01*
X101068447Y-134612298D01*
X101211358Y-134545183D01*
X101601645Y-134116924D01*
X101771476Y-133706890D01*
X101650155Y-133477000D01*
X100457000Y-133477000D01*
X100457000Y-133497000D01*
X100203000Y-133497000D01*
X100203000Y-133477000D01*
X100183000Y-133477000D01*
X100183000Y-133223000D01*
X100203000Y-133223000D01*
X100203000Y-133203000D01*
X100457000Y-133203000D01*
X100457000Y-133223000D01*
X101650155Y-133223000D01*
X101771476Y-132993110D01*
X101708888Y-132842000D01*
X104031112Y-132842000D01*
X103968524Y-132993110D01*
X103968524Y-132993110D01*
G37*
X103968524Y-132993110D02*
X104089845Y-133223000D01*
X105283000Y-133223000D01*
X105283000Y-133203000D01*
X105537000Y-133203000D01*
X105537000Y-133223000D01*
X106730155Y-133223000D01*
X106851476Y-132993110D01*
X106788888Y-132842000D01*
X107188000Y-132842000D01*
X107188000Y-135890000D01*
X107198006Y-135939410D01*
X107226447Y-135981035D01*
X107268841Y-136008315D01*
X107315000Y-136017000D01*
X108517560Y-136017000D01*
X108517560Y-136390000D01*
X108561838Y-136625317D01*
X108577339Y-136649406D01*
X108530000Y-136763691D01*
X108530000Y-137104250D01*
X108688750Y-137263000D01*
X110288000Y-137263000D01*
X110288000Y-137243000D01*
X110542000Y-137243000D01*
X110542000Y-137263000D01*
X110562000Y-137263000D01*
X110562000Y-137517000D01*
X110542000Y-137517000D01*
X110542000Y-138366250D01*
X110700750Y-138525000D01*
X111633000Y-138525000D01*
X111633000Y-140135000D01*
X107315000Y-140135000D01*
X106995460Y-140198560D01*
X106724566Y-140379566D01*
X106680000Y-140424132D01*
X106037621Y-139781753D01*
X106489147Y-139480054D01*
X106811054Y-138998285D01*
X106924093Y-138430000D01*
X106811054Y-137861715D01*
X106686797Y-137675750D01*
X108530000Y-137675750D01*
X108530000Y-138016309D01*
X108626673Y-138249698D01*
X108805301Y-138428327D01*
X109038690Y-138525000D01*
X110129250Y-138525000D01*
X110288000Y-138366250D01*
X110288000Y-137517000D01*
X108688750Y-137517000D01*
X108530000Y-137675750D01*
X106686797Y-137675750D01*
X106489147Y-137379946D01*
X106159974Y-137160000D01*
X106489147Y-136940054D01*
X106811054Y-136458285D01*
X106924093Y-135890000D01*
X106811054Y-135321715D01*
X106489147Y-134839946D01*
X106148447Y-134612298D01*
X106291358Y-134545183D01*
X106681645Y-134116924D01*
X106851476Y-133706890D01*
X106730155Y-133477000D01*
X105537000Y-133477000D01*
X105537000Y-133497000D01*
X105283000Y-133497000D01*
X105283000Y-133477000D01*
X104089845Y-133477000D01*
X103968524Y-133706890D01*
X104138355Y-134116924D01*
X104528642Y-134545183D01*
X104671553Y-134612298D01*
X104330853Y-134839946D01*
X104008946Y-135321715D01*
X103895907Y-135890000D01*
X104008946Y-136458285D01*
X104330853Y-136940054D01*
X104660026Y-137160000D01*
X104330853Y-137379946D01*
X104008946Y-137861715D01*
X103895907Y-138430000D01*
X104008946Y-138998285D01*
X104330853Y-139480054D01*
X104360704Y-139500000D01*
X101379296Y-139500000D01*
X101409147Y-139480054D01*
X101731054Y-138998285D01*
X101844093Y-138430000D01*
X101731054Y-137861715D01*
X101409147Y-137379946D01*
X101079974Y-137160000D01*
X101409147Y-136940054D01*
X101731054Y-136458285D01*
X101844093Y-135890000D01*
X101731054Y-135321715D01*
X101409147Y-134839946D01*
X101068447Y-134612298D01*
X101211358Y-134545183D01*
X101601645Y-134116924D01*
X101771476Y-133706890D01*
X101650155Y-133477000D01*
X100457000Y-133477000D01*
X100457000Y-133497000D01*
X100203000Y-133497000D01*
X100203000Y-133477000D01*
X100183000Y-133477000D01*
X100183000Y-133223000D01*
X100203000Y-133223000D01*
X100203000Y-133203000D01*
X100457000Y-133203000D01*
X100457000Y-133223000D01*
X101650155Y-133223000D01*
X101771476Y-132993110D01*
X101708888Y-132842000D01*
X104031112Y-132842000D01*
X103968524Y-132993110D01*
G36*
X86482560Y-92050000D02*
X86526838Y-92285317D01*
X86665910Y-92501441D01*
X86878110Y-92646431D01*
X87130000Y-92697440D01*
X88580000Y-92697440D01*
X88775000Y-92660748D01*
X88775000Y-98745198D01*
X88585198Y-98935000D01*
X88265000Y-98935000D01*
X87974161Y-98992852D01*
X87727599Y-99157599D01*
X87146472Y-99738726D01*
X87041718Y-99695228D01*
X86520568Y-99694774D01*
X86038914Y-99893789D01*
X85670084Y-100261976D01*
X85646974Y-100317631D01*
X84959605Y-101005000D01*
X85646326Y-101691721D01*
X85668789Y-101746086D01*
X86036976Y-102114916D01*
X86428356Y-102277431D01*
X86318569Y-102438110D01*
X86267560Y-102690000D01*
X86267560Y-103006572D01*
X85771572Y-103502560D01*
X84683428Y-103502560D01*
X84335000Y-103154132D01*
X84335000Y-102237168D01*
X84593100Y-102327522D01*
X85113434Y-102298375D01*
X85458781Y-102155328D01*
X85517542Y-101922147D01*
X84780000Y-101184605D01*
X84765858Y-101198748D01*
X84586253Y-101019143D01*
X84600395Y-101005000D01*
X84586253Y-100990858D01*
X84765858Y-100811253D01*
X84780000Y-100825395D01*
X85517542Y-100087853D01*
X85458781Y-99854672D01*
X85309578Y-99802440D01*
X85715000Y-99802440D01*
X85950317Y-99758162D01*
X86166441Y-99619090D01*
X86311431Y-99406890D01*
X86362440Y-99155000D01*
X86362440Y-97655000D01*
X86318162Y-97419683D01*
X86179090Y-97203559D01*
X86110994Y-97157031D01*
X86253327Y-97014698D01*
X86350000Y-96781309D01*
X86350000Y-96190750D01*
X86191250Y-96032000D01*
X85217000Y-96032000D01*
X85217000Y-96052000D01*
X84963000Y-96052000D01*
X84963000Y-96032000D01*
X84943000Y-96032000D01*
X84943000Y-95778000D01*
X84963000Y-95778000D01*
X84963000Y-94678750D01*
X85217000Y-94678750D01*
X85217000Y-95778000D01*
X86191250Y-95778000D01*
X86350000Y-95619250D01*
X86350000Y-95028691D01*
X86253327Y-94795302D01*
X86074699Y-94616673D01*
X85841310Y-94520000D01*
X85375750Y-94520000D01*
X85217000Y-94678750D01*
X84963000Y-94678750D01*
X84804250Y-94520000D01*
X84660868Y-94520000D01*
X85680434Y-93500434D01*
X85741150Y-93409566D01*
X85861439Y-93229541D01*
X85925000Y-92910000D01*
X85925000Y-92142926D01*
X85950317Y-92138162D01*
X86149486Y-92010000D01*
X86482560Y-92010000D01*
X86482560Y-92050000D01*
X86482560Y-92050000D01*
G37*
X86482560Y-92050000D02*
X86526838Y-92285317D01*
X86665910Y-92501441D01*
X86878110Y-92646431D01*
X87130000Y-92697440D01*
X88580000Y-92697440D01*
X88775000Y-92660748D01*
X88775000Y-98745198D01*
X88585198Y-98935000D01*
X88265000Y-98935000D01*
X87974161Y-98992852D01*
X87727599Y-99157599D01*
X87146472Y-99738726D01*
X87041718Y-99695228D01*
X86520568Y-99694774D01*
X86038914Y-99893789D01*
X85670084Y-100261976D01*
X85646974Y-100317631D01*
X84959605Y-101005000D01*
X85646326Y-101691721D01*
X85668789Y-101746086D01*
X86036976Y-102114916D01*
X86428356Y-102277431D01*
X86318569Y-102438110D01*
X86267560Y-102690000D01*
X86267560Y-103006572D01*
X85771572Y-103502560D01*
X84683428Y-103502560D01*
X84335000Y-103154132D01*
X84335000Y-102237168D01*
X84593100Y-102327522D01*
X85113434Y-102298375D01*
X85458781Y-102155328D01*
X85517542Y-101922147D01*
X84780000Y-101184605D01*
X84765858Y-101198748D01*
X84586253Y-101019143D01*
X84600395Y-101005000D01*
X84586253Y-100990858D01*
X84765858Y-100811253D01*
X84780000Y-100825395D01*
X85517542Y-100087853D01*
X85458781Y-99854672D01*
X85309578Y-99802440D01*
X85715000Y-99802440D01*
X85950317Y-99758162D01*
X86166441Y-99619090D01*
X86311431Y-99406890D01*
X86362440Y-99155000D01*
X86362440Y-97655000D01*
X86318162Y-97419683D01*
X86179090Y-97203559D01*
X86110994Y-97157031D01*
X86253327Y-97014698D01*
X86350000Y-96781309D01*
X86350000Y-96190750D01*
X86191250Y-96032000D01*
X85217000Y-96032000D01*
X85217000Y-96052000D01*
X84963000Y-96052000D01*
X84963000Y-96032000D01*
X84943000Y-96032000D01*
X84943000Y-95778000D01*
X84963000Y-95778000D01*
X84963000Y-94678750D01*
X85217000Y-94678750D01*
X85217000Y-95778000D01*
X86191250Y-95778000D01*
X86350000Y-95619250D01*
X86350000Y-95028691D01*
X86253327Y-94795302D01*
X86074699Y-94616673D01*
X85841310Y-94520000D01*
X85375750Y-94520000D01*
X85217000Y-94678750D01*
X84963000Y-94678750D01*
X84804250Y-94520000D01*
X84660868Y-94520000D01*
X85680434Y-93500434D01*
X85741150Y-93409566D01*
X85861439Y-93229541D01*
X85925000Y-92910000D01*
X85925000Y-92142926D01*
X85950317Y-92138162D01*
X86149486Y-92010000D01*
X86482560Y-92010000D01*
X86482560Y-92050000D01*
G36*
X117983000Y-129958868D02*
X117983000Y-140135000D01*
X117859669Y-140135000D01*
X117849090Y-140118559D01*
X117636890Y-139973569D01*
X117385000Y-139922560D01*
X115485000Y-139922560D01*
X115249683Y-139966838D01*
X115033559Y-140105910D01*
X115013683Y-140135000D01*
X113288000Y-140135000D01*
X113288000Y-139893000D01*
X113308000Y-139893000D01*
X113308000Y-139143750D01*
X113562000Y-139143750D01*
X113562000Y-139893000D01*
X114861250Y-139893000D01*
X115020000Y-139734250D01*
X115020000Y-139493690D01*
X114923327Y-139260301D01*
X114744698Y-139081673D01*
X114511309Y-138985000D01*
X113720750Y-138985000D01*
X113562000Y-139143750D01*
X113308000Y-139143750D01*
X113149250Y-138985000D01*
X112522000Y-138985000D01*
X112522000Y-137525000D01*
X114089250Y-137525000D01*
X114248000Y-137366250D01*
X114248000Y-136017000D01*
X114502000Y-136017000D01*
X114502000Y-137366250D01*
X114660750Y-137525000D01*
X116501310Y-137525000D01*
X116734699Y-137428327D01*
X116913327Y-137249698D01*
X117010000Y-137016309D01*
X117010000Y-136175750D01*
X116851250Y-136017000D01*
X114502000Y-136017000D01*
X114248000Y-136017000D01*
X114228000Y-136017000D01*
X114228000Y-135763000D01*
X114248000Y-135763000D01*
X114248000Y-134413750D01*
X114502000Y-134413750D01*
X114502000Y-135763000D01*
X116851250Y-135763000D01*
X117010000Y-135604250D01*
X117010000Y-134763691D01*
X116913327Y-134530302D01*
X116734699Y-134351673D01*
X116501310Y-134255000D01*
X114660750Y-134255000D01*
X114502000Y-134413750D01*
X114248000Y-134413750D01*
X114089250Y-134255000D01*
X112522000Y-134255000D01*
X112522000Y-133350000D01*
X112511994Y-133300590D01*
X112484803Y-133260197D01*
X111764606Y-132540000D01*
X112109250Y-132540000D01*
X112268000Y-132381250D01*
X112268000Y-131032000D01*
X112522000Y-131032000D01*
X112522000Y-132381250D01*
X112680750Y-132540000D01*
X113321310Y-132540000D01*
X113554699Y-132443327D01*
X113733327Y-132264698D01*
X113830000Y-132031309D01*
X113830000Y-131190750D01*
X113671250Y-131032000D01*
X112522000Y-131032000D01*
X112268000Y-131032000D01*
X112248000Y-131032000D01*
X112248000Y-130778000D01*
X112268000Y-130778000D01*
X112268000Y-129428750D01*
X112522000Y-129428750D01*
X112522000Y-130778000D01*
X113671250Y-130778000D01*
X113830000Y-130619250D01*
X113830000Y-129778691D01*
X113733327Y-129545302D01*
X113554699Y-129366673D01*
X113321310Y-129270000D01*
X112680750Y-129270000D01*
X112522000Y-129428750D01*
X112268000Y-129428750D01*
X112109250Y-129270000D01*
X111468690Y-129270000D01*
X111252000Y-129359756D01*
X111252000Y-129032000D01*
X117056132Y-129032000D01*
X117983000Y-129958868D01*
X117983000Y-129958868D01*
G37*
X117983000Y-129958868D02*
X117983000Y-140135000D01*
X117859669Y-140135000D01*
X117849090Y-140118559D01*
X117636890Y-139973569D01*
X117385000Y-139922560D01*
X115485000Y-139922560D01*
X115249683Y-139966838D01*
X115033559Y-140105910D01*
X115013683Y-140135000D01*
X113288000Y-140135000D01*
X113288000Y-139893000D01*
X113308000Y-139893000D01*
X113308000Y-139143750D01*
X113562000Y-139143750D01*
X113562000Y-139893000D01*
X114861250Y-139893000D01*
X115020000Y-139734250D01*
X115020000Y-139493690D01*
X114923327Y-139260301D01*
X114744698Y-139081673D01*
X114511309Y-138985000D01*
X113720750Y-138985000D01*
X113562000Y-139143750D01*
X113308000Y-139143750D01*
X113149250Y-138985000D01*
X112522000Y-138985000D01*
X112522000Y-137525000D01*
X114089250Y-137525000D01*
X114248000Y-137366250D01*
X114248000Y-136017000D01*
X114502000Y-136017000D01*
X114502000Y-137366250D01*
X114660750Y-137525000D01*
X116501310Y-137525000D01*
X116734699Y-137428327D01*
X116913327Y-137249698D01*
X117010000Y-137016309D01*
X117010000Y-136175750D01*
X116851250Y-136017000D01*
X114502000Y-136017000D01*
X114248000Y-136017000D01*
X114228000Y-136017000D01*
X114228000Y-135763000D01*
X114248000Y-135763000D01*
X114248000Y-134413750D01*
X114502000Y-134413750D01*
X114502000Y-135763000D01*
X116851250Y-135763000D01*
X117010000Y-135604250D01*
X117010000Y-134763691D01*
X116913327Y-134530302D01*
X116734699Y-134351673D01*
X116501310Y-134255000D01*
X114660750Y-134255000D01*
X114502000Y-134413750D01*
X114248000Y-134413750D01*
X114089250Y-134255000D01*
X112522000Y-134255000D01*
X112522000Y-133350000D01*
X112511994Y-133300590D01*
X112484803Y-133260197D01*
X111764606Y-132540000D01*
X112109250Y-132540000D01*
X112268000Y-132381250D01*
X112268000Y-131032000D01*
X112522000Y-131032000D01*
X112522000Y-132381250D01*
X112680750Y-132540000D01*
X113321310Y-132540000D01*
X113554699Y-132443327D01*
X113733327Y-132264698D01*
X113830000Y-132031309D01*
X113830000Y-131190750D01*
X113671250Y-131032000D01*
X112522000Y-131032000D01*
X112268000Y-131032000D01*
X112248000Y-131032000D01*
X112248000Y-130778000D01*
X112268000Y-130778000D01*
X112268000Y-129428750D01*
X112522000Y-129428750D01*
X112522000Y-130778000D01*
X113671250Y-130778000D01*
X113830000Y-130619250D01*
X113830000Y-129778691D01*
X113733327Y-129545302D01*
X113554699Y-129366673D01*
X113321310Y-129270000D01*
X112680750Y-129270000D01*
X112522000Y-129428750D01*
X112268000Y-129428750D01*
X112109250Y-129270000D01*
X111468690Y-129270000D01*
X111252000Y-129359756D01*
X111252000Y-129032000D01*
X117056132Y-129032000D01*
X117983000Y-129958868D01*
G36*
X107421673Y-129045302D02*
X107325000Y-129278691D01*
X107325000Y-129869250D01*
X107483750Y-130028000D01*
X108458000Y-130028000D01*
X108458000Y-130008000D01*
X108712000Y-130008000D01*
X108712000Y-130028000D01*
X109686250Y-130028000D01*
X109845000Y-129869250D01*
X109845000Y-129278691D01*
X109748327Y-129045302D01*
X109735025Y-129032000D01*
X110363000Y-129032000D01*
X110363000Y-132715000D01*
X110373006Y-132764410D01*
X110400197Y-132804803D01*
X110850394Y-133255000D01*
X110700750Y-133255000D01*
X110542000Y-133413750D01*
X110542000Y-134263000D01*
X110562000Y-134263000D01*
X110562000Y-134517000D01*
X110542000Y-134517000D01*
X110542000Y-134537000D01*
X110288000Y-134537000D01*
X110288000Y-134517000D01*
X108688750Y-134517000D01*
X108530000Y-134675750D01*
X108530000Y-135016309D01*
X108575967Y-135127283D01*
X108575477Y-135128000D01*
X108077000Y-135128000D01*
X108077000Y-133763691D01*
X108530000Y-133763691D01*
X108530000Y-134104250D01*
X108688750Y-134263000D01*
X110288000Y-134263000D01*
X110288000Y-133413750D01*
X110129250Y-133255000D01*
X109038690Y-133255000D01*
X108805301Y-133351673D01*
X108626673Y-133530302D01*
X108530000Y-133763691D01*
X108077000Y-133763691D01*
X108077000Y-132080000D01*
X108066994Y-132030590D01*
X108038553Y-131988965D01*
X107996159Y-131961685D01*
X107950000Y-131953000D01*
X106825955Y-131953000D01*
X106895000Y-131786310D01*
X106895000Y-131095750D01*
X106736250Y-130937000D01*
X105537000Y-130937000D01*
X105537000Y-130957000D01*
X105283000Y-130957000D01*
X105283000Y-130937000D01*
X104083750Y-130937000D01*
X103925000Y-131095750D01*
X103925000Y-131786310D01*
X103994045Y-131953000D01*
X103705000Y-131953000D01*
X103705000Y-129833690D01*
X103925000Y-129833690D01*
X103925000Y-130524250D01*
X104083750Y-130683000D01*
X105283000Y-130683000D01*
X105283000Y-129483750D01*
X105537000Y-129483750D01*
X105537000Y-130683000D01*
X106736250Y-130683000D01*
X106895000Y-130524250D01*
X106895000Y-130440750D01*
X107325000Y-130440750D01*
X107325000Y-131031309D01*
X107421673Y-131264698D01*
X107600301Y-131443327D01*
X107833690Y-131540000D01*
X108299250Y-131540000D01*
X108458000Y-131381250D01*
X108458000Y-130282000D01*
X108712000Y-130282000D01*
X108712000Y-131381250D01*
X108870750Y-131540000D01*
X109336310Y-131540000D01*
X109569699Y-131443327D01*
X109748327Y-131264698D01*
X109845000Y-131031309D01*
X109845000Y-130440750D01*
X109686250Y-130282000D01*
X108712000Y-130282000D01*
X108458000Y-130282000D01*
X107483750Y-130282000D01*
X107325000Y-130440750D01*
X106895000Y-130440750D01*
X106895000Y-129833690D01*
X106798327Y-129600301D01*
X106619698Y-129421673D01*
X106386309Y-129325000D01*
X105695750Y-129325000D01*
X105537000Y-129483750D01*
X105283000Y-129483750D01*
X105124250Y-129325000D01*
X104433691Y-129325000D01*
X104200302Y-129421673D01*
X104021673Y-129600301D01*
X103925000Y-129833690D01*
X103705000Y-129833690D01*
X103705000Y-129032000D01*
X107434975Y-129032000D01*
X107421673Y-129045302D01*
X107421673Y-129045302D01*
G37*
X107421673Y-129045302D02*
X107325000Y-129278691D01*
X107325000Y-129869250D01*
X107483750Y-130028000D01*
X108458000Y-130028000D01*
X108458000Y-130008000D01*
X108712000Y-130008000D01*
X108712000Y-130028000D01*
X109686250Y-130028000D01*
X109845000Y-129869250D01*
X109845000Y-129278691D01*
X109748327Y-129045302D01*
X109735025Y-129032000D01*
X110363000Y-129032000D01*
X110363000Y-132715000D01*
X110373006Y-132764410D01*
X110400197Y-132804803D01*
X110850394Y-133255000D01*
X110700750Y-133255000D01*
X110542000Y-133413750D01*
X110542000Y-134263000D01*
X110562000Y-134263000D01*
X110562000Y-134517000D01*
X110542000Y-134517000D01*
X110542000Y-134537000D01*
X110288000Y-134537000D01*
X110288000Y-134517000D01*
X108688750Y-134517000D01*
X108530000Y-134675750D01*
X108530000Y-135016309D01*
X108575967Y-135127283D01*
X108575477Y-135128000D01*
X108077000Y-135128000D01*
X108077000Y-133763691D01*
X108530000Y-133763691D01*
X108530000Y-134104250D01*
X108688750Y-134263000D01*
X110288000Y-134263000D01*
X110288000Y-133413750D01*
X110129250Y-133255000D01*
X109038690Y-133255000D01*
X108805301Y-133351673D01*
X108626673Y-133530302D01*
X108530000Y-133763691D01*
X108077000Y-133763691D01*
X108077000Y-132080000D01*
X108066994Y-132030590D01*
X108038553Y-131988965D01*
X107996159Y-131961685D01*
X107950000Y-131953000D01*
X106825955Y-131953000D01*
X106895000Y-131786310D01*
X106895000Y-131095750D01*
X106736250Y-130937000D01*
X105537000Y-130937000D01*
X105537000Y-130957000D01*
X105283000Y-130957000D01*
X105283000Y-130937000D01*
X104083750Y-130937000D01*
X103925000Y-131095750D01*
X103925000Y-131786310D01*
X103994045Y-131953000D01*
X103705000Y-131953000D01*
X103705000Y-129833690D01*
X103925000Y-129833690D01*
X103925000Y-130524250D01*
X104083750Y-130683000D01*
X105283000Y-130683000D01*
X105283000Y-129483750D01*
X105537000Y-129483750D01*
X105537000Y-130683000D01*
X106736250Y-130683000D01*
X106895000Y-130524250D01*
X106895000Y-130440750D01*
X107325000Y-130440750D01*
X107325000Y-131031309D01*
X107421673Y-131264698D01*
X107600301Y-131443327D01*
X107833690Y-131540000D01*
X108299250Y-131540000D01*
X108458000Y-131381250D01*
X108458000Y-130282000D01*
X108712000Y-130282000D01*
X108712000Y-131381250D01*
X108870750Y-131540000D01*
X109336310Y-131540000D01*
X109569699Y-131443327D01*
X109748327Y-131264698D01*
X109845000Y-131031309D01*
X109845000Y-130440750D01*
X109686250Y-130282000D01*
X108712000Y-130282000D01*
X108458000Y-130282000D01*
X107483750Y-130282000D01*
X107325000Y-130440750D01*
X106895000Y-130440750D01*
X106895000Y-129833690D01*
X106798327Y-129600301D01*
X106619698Y-129421673D01*
X106386309Y-129325000D01*
X105695750Y-129325000D01*
X105537000Y-129483750D01*
X105283000Y-129483750D01*
X105124250Y-129325000D01*
X104433691Y-129325000D01*
X104200302Y-129421673D01*
X104021673Y-129600301D01*
X103925000Y-129833690D01*
X103705000Y-129833690D01*
X103705000Y-129032000D01*
X107434975Y-129032000D01*
X107421673Y-129045302D01*
G36*
X155411509Y-75178099D02*
X157455889Y-76544110D01*
X158821901Y-78588489D01*
X159315000Y-81067466D01*
X159315000Y-144932534D01*
X158821901Y-147411511D01*
X157455889Y-149455890D01*
X155411509Y-150821901D01*
X152932533Y-151315000D01*
X127067466Y-151315000D01*
X126884590Y-151278624D01*
X126786751Y-151213250D01*
X126721376Y-151115409D01*
X126671838Y-150866364D01*
X126671838Y-150866363D01*
X126623231Y-150622000D01*
X127000000Y-150622000D01*
X127046159Y-150613315D01*
X127088553Y-150586035D01*
X127116994Y-150544410D01*
X127127000Y-150495000D01*
X127127000Y-150060000D01*
X128905000Y-150060000D01*
X129224541Y-149996439D01*
X129495434Y-149815434D01*
X130739328Y-148571540D01*
X130914673Y-148747192D01*
X131258201Y-148889838D01*
X131630167Y-148890162D01*
X131973943Y-148748117D01*
X132237192Y-148485327D01*
X132337778Y-148243090D01*
X133019426Y-147561442D01*
X151664509Y-147561442D01*
X152095202Y-148603801D01*
X152892005Y-149401995D01*
X153933610Y-149834507D01*
X155061442Y-149835491D01*
X156103801Y-149404798D01*
X156901995Y-148607995D01*
X157334507Y-147566390D01*
X157335491Y-146438558D01*
X156904798Y-145396199D01*
X156107995Y-144598005D01*
X155066390Y-144165493D01*
X153938558Y-144164509D01*
X152896199Y-144595202D01*
X152098005Y-145392005D01*
X151665493Y-146433610D01*
X151664509Y-147561442D01*
X133019426Y-147561442D01*
X133940434Y-146640434D01*
X134005327Y-146543315D01*
X134121439Y-146369541D01*
X134185000Y-146050000D01*
X134185000Y-139410868D01*
X134965868Y-138630000D01*
X149166320Y-138630000D01*
X149282757Y-138911800D01*
X149686077Y-139315824D01*
X150213309Y-139534750D01*
X150784187Y-139535248D01*
X151311800Y-139317243D01*
X151715824Y-138913923D01*
X151934750Y-138386691D01*
X151935248Y-137815813D01*
X151717243Y-137288200D01*
X151313923Y-136884176D01*
X150786691Y-136665250D01*
X150215813Y-136664752D01*
X149688200Y-136882757D01*
X149610822Y-136960000D01*
X141080868Y-136960000D01*
X145703333Y-132337535D01*
X145943943Y-132238117D01*
X146207192Y-131975327D01*
X146349838Y-131631799D01*
X146350162Y-131259833D01*
X146208117Y-130916057D01*
X145945327Y-130652808D01*
X145601799Y-130510162D01*
X145229833Y-130509838D01*
X144886057Y-130651883D01*
X144622808Y-130914673D01*
X144522222Y-131156910D01*
X139989132Y-135690000D01*
X132080000Y-135690000D01*
X131760459Y-135753561D01*
X131489566Y-135934566D01*
X130219566Y-137204566D01*
X130038561Y-137475459D01*
X129975000Y-137795000D01*
X129975000Y-145704132D01*
X128559132Y-147120000D01*
X127127000Y-147120000D01*
X127127000Y-111912913D01*
X130414638Y-111912913D01*
X130731392Y-112679515D01*
X131317400Y-113266547D01*
X132083448Y-113584638D01*
X132912913Y-113585362D01*
X133679515Y-113268608D01*
X134266547Y-112682600D01*
X134584638Y-111916552D01*
X134584641Y-111912913D01*
X148414638Y-111912913D01*
X148731392Y-112679515D01*
X149317400Y-113266547D01*
X150083448Y-113584638D01*
X150912913Y-113585362D01*
X151679515Y-113268608D01*
X152266547Y-112682600D01*
X152584638Y-111916552D01*
X152585362Y-111087087D01*
X152268608Y-110320485D01*
X151682600Y-109733453D01*
X150916552Y-109415362D01*
X150087087Y-109414638D01*
X149320485Y-109731392D01*
X148733453Y-110317400D01*
X148415362Y-111083448D01*
X148414638Y-111912913D01*
X134584641Y-111912913D01*
X134585362Y-111087087D01*
X134268608Y-110320485D01*
X133682600Y-109733453D01*
X132916552Y-109415362D01*
X132087087Y-109414638D01*
X131320485Y-109731392D01*
X130733453Y-110317400D01*
X130415362Y-111083448D01*
X130414638Y-111912913D01*
X127127000Y-111912913D01*
X127127000Y-108555907D01*
X137580000Y-108555907D01*
X137580000Y-108614093D01*
X137693039Y-109182378D01*
X138014946Y-109664147D01*
X138496715Y-109986054D01*
X139065000Y-110099093D01*
X139633285Y-109986054D01*
X140115054Y-109664147D01*
X140335000Y-109334974D01*
X140554946Y-109664147D01*
X141036715Y-109986054D01*
X141605000Y-110099093D01*
X142173285Y-109986054D01*
X142655054Y-109664147D01*
X142882702Y-109323447D01*
X142949817Y-109466358D01*
X143378076Y-109856645D01*
X143788110Y-110026476D01*
X144018000Y-109905155D01*
X144018000Y-108712000D01*
X143998000Y-108712000D01*
X143998000Y-108458000D01*
X144018000Y-108458000D01*
X144018000Y-107264845D01*
X144272000Y-107264845D01*
X144272000Y-108458000D01*
X144292000Y-108458000D01*
X144292000Y-108712000D01*
X144272000Y-108712000D01*
X144272000Y-109905155D01*
X144501890Y-110026476D01*
X144911924Y-109856645D01*
X145214937Y-109580499D01*
X145231838Y-109670317D01*
X145370910Y-109886441D01*
X145583110Y-110031431D01*
X145835000Y-110082440D01*
X147535000Y-110082440D01*
X147770317Y-110038162D01*
X147986441Y-109899090D01*
X148131431Y-109686890D01*
X148182440Y-109435000D01*
X148182440Y-107735000D01*
X148138162Y-107499683D01*
X147999090Y-107283559D01*
X147786890Y-107138569D01*
X147535000Y-107087560D01*
X145835000Y-107087560D01*
X145599683Y-107131838D01*
X145383559Y-107270910D01*
X145238569Y-107483110D01*
X145216699Y-107591107D01*
X144911924Y-107313355D01*
X144501890Y-107143524D01*
X144272000Y-107264845D01*
X144018000Y-107264845D01*
X143788110Y-107143524D01*
X143378076Y-107313355D01*
X142949817Y-107703642D01*
X142882702Y-107846553D01*
X142655054Y-107505853D01*
X142173285Y-107183946D01*
X141605000Y-107070907D01*
X141036715Y-107183946D01*
X140554946Y-107505853D01*
X140335000Y-107835026D01*
X140115054Y-107505853D01*
X139633285Y-107183946D01*
X139065000Y-107070907D01*
X138496715Y-107183946D01*
X138014946Y-107505853D01*
X137693039Y-107987622D01*
X137580000Y-108555907D01*
X127127000Y-108555907D01*
X127127000Y-85184187D01*
X131064752Y-85184187D01*
X131282757Y-85711800D01*
X131686077Y-86115824D01*
X132213309Y-86334750D01*
X132784187Y-86335248D01*
X133311800Y-86117243D01*
X133715824Y-85713923D01*
X133934750Y-85186691D01*
X133934752Y-85184187D01*
X149064752Y-85184187D01*
X149282757Y-85711800D01*
X149686077Y-86115824D01*
X150213309Y-86334750D01*
X150784187Y-86335248D01*
X151311800Y-86117243D01*
X151715824Y-85713923D01*
X151934750Y-85186691D01*
X151935248Y-84615813D01*
X151717243Y-84088200D01*
X151313923Y-83684176D01*
X150786691Y-83465250D01*
X150215813Y-83464752D01*
X149688200Y-83682757D01*
X149284176Y-84086077D01*
X149065250Y-84613309D01*
X149064752Y-85184187D01*
X133934752Y-85184187D01*
X133935248Y-84615813D01*
X133717243Y-84088200D01*
X133313923Y-83684176D01*
X132786691Y-83465250D01*
X132215813Y-83464752D01*
X131688200Y-83682757D01*
X131284176Y-84086077D01*
X131065250Y-84613309D01*
X131064752Y-85184187D01*
X127127000Y-85184187D01*
X127127000Y-79561442D01*
X151664509Y-79561442D01*
X152095202Y-80603801D01*
X152892005Y-81401995D01*
X153933610Y-81834507D01*
X155061442Y-81835491D01*
X156103801Y-81404798D01*
X156901995Y-80607995D01*
X157334507Y-79566390D01*
X157335491Y-78438558D01*
X156904798Y-77396199D01*
X156107995Y-76598005D01*
X155066390Y-76165493D01*
X153938558Y-76164509D01*
X152896199Y-76595202D01*
X152098005Y-77392005D01*
X151665493Y-78433610D01*
X151664509Y-79561442D01*
X127127000Y-79561442D01*
X127127000Y-74685000D01*
X152932533Y-74685000D01*
X155411509Y-75178099D01*
X155411509Y-75178099D01*
G37*
X155411509Y-75178099D02*
X157455889Y-76544110D01*
X158821901Y-78588489D01*
X159315000Y-81067466D01*
X159315000Y-144932534D01*
X158821901Y-147411511D01*
X157455889Y-149455890D01*
X155411509Y-150821901D01*
X152932533Y-151315000D01*
X127067466Y-151315000D01*
X126884590Y-151278624D01*
X126786751Y-151213250D01*
X126721376Y-151115409D01*
X126671838Y-150866364D01*
X126671838Y-150866363D01*
X126623231Y-150622000D01*
X127000000Y-150622000D01*
X127046159Y-150613315D01*
X127088553Y-150586035D01*
X127116994Y-150544410D01*
X127127000Y-150495000D01*
X127127000Y-150060000D01*
X128905000Y-150060000D01*
X129224541Y-149996439D01*
X129495434Y-149815434D01*
X130739328Y-148571540D01*
X130914673Y-148747192D01*
X131258201Y-148889838D01*
X131630167Y-148890162D01*
X131973943Y-148748117D01*
X132237192Y-148485327D01*
X132337778Y-148243090D01*
X133019426Y-147561442D01*
X151664509Y-147561442D01*
X152095202Y-148603801D01*
X152892005Y-149401995D01*
X153933610Y-149834507D01*
X155061442Y-149835491D01*
X156103801Y-149404798D01*
X156901995Y-148607995D01*
X157334507Y-147566390D01*
X157335491Y-146438558D01*
X156904798Y-145396199D01*
X156107995Y-144598005D01*
X155066390Y-144165493D01*
X153938558Y-144164509D01*
X152896199Y-144595202D01*
X152098005Y-145392005D01*
X151665493Y-146433610D01*
X151664509Y-147561442D01*
X133019426Y-147561442D01*
X133940434Y-146640434D01*
X134005327Y-146543315D01*
X134121439Y-146369541D01*
X134185000Y-146050000D01*
X134185000Y-139410868D01*
X134965868Y-138630000D01*
X149166320Y-138630000D01*
X149282757Y-138911800D01*
X149686077Y-139315824D01*
X150213309Y-139534750D01*
X150784187Y-139535248D01*
X151311800Y-139317243D01*
X151715824Y-138913923D01*
X151934750Y-138386691D01*
X151935248Y-137815813D01*
X151717243Y-137288200D01*
X151313923Y-136884176D01*
X150786691Y-136665250D01*
X150215813Y-136664752D01*
X149688200Y-136882757D01*
X149610822Y-136960000D01*
X141080868Y-136960000D01*
X145703333Y-132337535D01*
X145943943Y-132238117D01*
X146207192Y-131975327D01*
X146349838Y-131631799D01*
X146350162Y-131259833D01*
X146208117Y-130916057D01*
X145945327Y-130652808D01*
X145601799Y-130510162D01*
X145229833Y-130509838D01*
X144886057Y-130651883D01*
X144622808Y-130914673D01*
X144522222Y-131156910D01*
X139989132Y-135690000D01*
X132080000Y-135690000D01*
X131760459Y-135753561D01*
X131489566Y-135934566D01*
X130219566Y-137204566D01*
X130038561Y-137475459D01*
X129975000Y-137795000D01*
X129975000Y-145704132D01*
X128559132Y-147120000D01*
X127127000Y-147120000D01*
X127127000Y-111912913D01*
X130414638Y-111912913D01*
X130731392Y-112679515D01*
X131317400Y-113266547D01*
X132083448Y-113584638D01*
X132912913Y-113585362D01*
X133679515Y-113268608D01*
X134266547Y-112682600D01*
X134584638Y-111916552D01*
X134584641Y-111912913D01*
X148414638Y-111912913D01*
X148731392Y-112679515D01*
X149317400Y-113266547D01*
X150083448Y-113584638D01*
X150912913Y-113585362D01*
X151679515Y-113268608D01*
X152266547Y-112682600D01*
X152584638Y-111916552D01*
X152585362Y-111087087D01*
X152268608Y-110320485D01*
X151682600Y-109733453D01*
X150916552Y-109415362D01*
X150087087Y-109414638D01*
X149320485Y-109731392D01*
X148733453Y-110317400D01*
X148415362Y-111083448D01*
X148414638Y-111912913D01*
X134584641Y-111912913D01*
X134585362Y-111087087D01*
X134268608Y-110320485D01*
X133682600Y-109733453D01*
X132916552Y-109415362D01*
X132087087Y-109414638D01*
X131320485Y-109731392D01*
X130733453Y-110317400D01*
X130415362Y-111083448D01*
X130414638Y-111912913D01*
X127127000Y-111912913D01*
X127127000Y-108555907D01*
X137580000Y-108555907D01*
X137580000Y-108614093D01*
X137693039Y-109182378D01*
X138014946Y-109664147D01*
X138496715Y-109986054D01*
X139065000Y-110099093D01*
X139633285Y-109986054D01*
X140115054Y-109664147D01*
X140335000Y-109334974D01*
X140554946Y-109664147D01*
X141036715Y-109986054D01*
X141605000Y-110099093D01*
X142173285Y-109986054D01*
X142655054Y-109664147D01*
X142882702Y-109323447D01*
X142949817Y-109466358D01*
X143378076Y-109856645D01*
X143788110Y-110026476D01*
X144018000Y-109905155D01*
X144018000Y-108712000D01*
X143998000Y-108712000D01*
X143998000Y-108458000D01*
X144018000Y-108458000D01*
X144018000Y-107264845D01*
X144272000Y-107264845D01*
X144272000Y-108458000D01*
X144292000Y-108458000D01*
X144292000Y-108712000D01*
X144272000Y-108712000D01*
X144272000Y-109905155D01*
X144501890Y-110026476D01*
X144911924Y-109856645D01*
X145214937Y-109580499D01*
X145231838Y-109670317D01*
X145370910Y-109886441D01*
X145583110Y-110031431D01*
X145835000Y-110082440D01*
X147535000Y-110082440D01*
X147770317Y-110038162D01*
X147986441Y-109899090D01*
X148131431Y-109686890D01*
X148182440Y-109435000D01*
X148182440Y-107735000D01*
X148138162Y-107499683D01*
X147999090Y-107283559D01*
X147786890Y-107138569D01*
X147535000Y-107087560D01*
X145835000Y-107087560D01*
X145599683Y-107131838D01*
X145383559Y-107270910D01*
X145238569Y-107483110D01*
X145216699Y-107591107D01*
X144911924Y-107313355D01*
X144501890Y-107143524D01*
X144272000Y-107264845D01*
X144018000Y-107264845D01*
X143788110Y-107143524D01*
X143378076Y-107313355D01*
X142949817Y-107703642D01*
X142882702Y-107846553D01*
X142655054Y-107505853D01*
X142173285Y-107183946D01*
X141605000Y-107070907D01*
X141036715Y-107183946D01*
X140554946Y-107505853D01*
X140335000Y-107835026D01*
X140115054Y-107505853D01*
X139633285Y-107183946D01*
X139065000Y-107070907D01*
X138496715Y-107183946D01*
X138014946Y-107505853D01*
X137693039Y-107987622D01*
X137580000Y-108555907D01*
X127127000Y-108555907D01*
X127127000Y-85184187D01*
X131064752Y-85184187D01*
X131282757Y-85711800D01*
X131686077Y-86115824D01*
X132213309Y-86334750D01*
X132784187Y-86335248D01*
X133311800Y-86117243D01*
X133715824Y-85713923D01*
X133934750Y-85186691D01*
X133934752Y-85184187D01*
X149064752Y-85184187D01*
X149282757Y-85711800D01*
X149686077Y-86115824D01*
X150213309Y-86334750D01*
X150784187Y-86335248D01*
X151311800Y-86117243D01*
X151715824Y-85713923D01*
X151934750Y-85186691D01*
X151935248Y-84615813D01*
X151717243Y-84088200D01*
X151313923Y-83684176D01*
X150786691Y-83465250D01*
X150215813Y-83464752D01*
X149688200Y-83682757D01*
X149284176Y-84086077D01*
X149065250Y-84613309D01*
X149064752Y-85184187D01*
X133934752Y-85184187D01*
X133935248Y-84615813D01*
X133717243Y-84088200D01*
X133313923Y-83684176D01*
X132786691Y-83465250D01*
X132215813Y-83464752D01*
X131688200Y-83682757D01*
X131284176Y-84086077D01*
X131065250Y-84613309D01*
X131064752Y-85184187D01*
X127127000Y-85184187D01*
X127127000Y-79561442D01*
X151664509Y-79561442D01*
X152095202Y-80603801D01*
X152892005Y-81401995D01*
X153933610Y-81834507D01*
X155061442Y-81835491D01*
X156103801Y-81404798D01*
X156901995Y-80607995D01*
X157334507Y-79566390D01*
X157335491Y-78438558D01*
X156904798Y-77396199D01*
X156107995Y-76598005D01*
X155066390Y-76165493D01*
X153938558Y-76164509D01*
X152896199Y-76595202D01*
X152098005Y-77392005D01*
X151665493Y-78433610D01*
X151664509Y-79561442D01*
X127127000Y-79561442D01*
X127127000Y-74685000D01*
X152932533Y-74685000D01*
X155411509Y-75178099D01*
M02*
