M48
;DRILL file {KiCad (5.0.1)-3} date 07.12.2018 05:25:06
;FORMAT={-:-/ absolute / inch / decimal}
FMAT,2
INCH,TZ
T1C0.0157
T2C0.0315
T3C0.0354
T4C0.0394
T5C0.0512
T6C0.0866
%
G90
G05
M72
T1
X3.25Y-3.25
X3.25Y-3.7
X3.25Y-5.775
X3.4Y-3.775
X3.475Y-5.175
X3.55Y-4.275
X3.625Y-4.175
X3.65Y-4.325
X3.675Y-5.125
X3.725Y-3.875
X3.725Y-4.65
X3.75Y-3.275
X3.8Y-3.6
X3.825Y-3.55
X3.85Y-3.225
X3.85Y-3.65
X3.875Y-3.475
X3.875Y-4.325
X3.875Y-4.4
X3.875Y-4.5
X3.9Y-3.525
X3.9Y-4.525
X3.925Y-4.075
X3.925Y-4.225
X3.925Y-4.4
X3.95Y-4.825
X3.975Y-3.95
X3.975Y-4.25
X3.975Y-4.4
X3.975Y-4.85
X3.975Y-4.9
X3.975Y-5.575
X4.Y-4.075
X4.Y-4.875
X4.05Y-4.075
X4.05Y-4.225
X4.05Y-5.25
X4.05Y-5.45
X4.08Y-4.57
X4.1Y-4.925
X4.125Y-3.725
X4.125Y-4.4
X4.125Y-4.475
X4.125Y-5.575
X4.15Y-3.7
X4.15Y-3.975
X4.175Y-4.
X4.175Y-4.85
X4.2Y-3.75
X4.2Y-3.95
X4.2Y-4.55
X4.2Y-4.9
X4.225Y-4.4
X4.225Y-4.875
X4.225Y-4.925
X4.25Y-4.75
X4.25Y-5.4
X4.425Y-4.625
X4.475Y-3.775
X4.475Y-4.
X4.475Y-4.05
X4.525Y-4.25
X4.525Y-4.325
X4.525Y-4.55
X4.55Y-3.025
X4.575Y-5.
X4.8Y-5.675
X5.175Y-5.825
X5.725Y-5.175
X6.0177Y-5.7874
X6.0367Y-5.7415
X6.0367Y-5.8333
X6.0827Y-5.7224
X6.0827Y-5.8524
X6.1286Y-5.7415
X6.1286Y-5.8333
X6.1476Y-5.7874
X3.3406Y-3.1102
X3.3596Y-3.0643
X3.3596Y-3.1562
X3.4055Y-3.0453
X3.4055Y-3.1752
X3.4514Y-3.0643
X3.4514Y-3.1562
X3.4705Y-3.1102
X4.6791Y-5.7874
X4.6982Y-5.7415
X4.6982Y-5.8333
X4.7441Y-5.7224
X4.7441Y-5.8524
X4.79Y-5.7415
X4.79Y-5.8333
X4.8091Y-5.7874
X3.3406Y-5.7874
X3.3596Y-5.7415
X3.3596Y-5.8333
X3.4055Y-5.7224
X3.4055Y-5.8524
X3.4514Y-5.7415
X3.4514Y-5.8333
X3.4705Y-5.7874
X6.0177Y-3.1102
X6.0367Y-3.0643
X6.0367Y-3.1562
X6.0827Y-3.0453
X6.0827Y-3.1752
X6.1286Y-3.0643
X6.1286Y-3.1562
X6.1476Y-3.1102
X4.6791Y-3.1102
X4.6982Y-3.0643
X4.6982Y-3.1562
X4.7441Y-3.0453
X4.7441Y-3.1752
X4.79Y-3.0643
X4.79Y-3.1562
X4.8091Y-3.1102
T2
X3.2591Y-3.9766
X3.3378Y-3.9766
X3.4165Y-3.9766
X3.4953Y-3.9766
X3.574Y-3.9766
X3.7315Y-3.9766
X3.8102Y-3.9766
X5.9252Y-3.3425
X5.9252Y-5.437
X5.2165Y-3.3425
X5.2165Y-5.437
X3.4Y-4.35
X3.4Y-4.5421
X3.9516Y-3.2898
X3.9516Y-3.3685
X3.9516Y-3.526
X3.9516Y-3.6047
X3.9516Y-3.6835
X3.9516Y-3.7622
X3.9516Y-3.8409
X3.4Y-4.8372
X3.4Y-4.975
T3
X4.2Y-3.2
X4.3Y-3.2
X4.4Y-3.2
T4
X3.675Y-3.025
X3.675Y-3.125
X3.775Y-3.025
X3.775Y-3.125
X3.875Y-3.025
X3.875Y-3.125
X3.35Y-5.15
X3.35Y-5.25
X3.35Y-5.35
X3.35Y-5.45
X4.75Y-5.15
X4.75Y-5.25
X4.75Y-5.35
X4.75Y-5.45
X4.15Y-5.15
X4.15Y-5.25
X4.15Y-5.35
X4.15Y-5.45
X5.475Y-4.275
X5.575Y-4.275
X5.675Y-4.275
X5.775Y-4.275
X4.55Y-3.3
X4.55Y-3.4
X4.55Y-3.5
X4.55Y-3.6
X4.55Y-3.7
X4.55Y-3.8
X4.55Y-3.9
X4.55Y-4.
X4.55Y-4.1
X4.65Y-3.3
X4.65Y-3.4
X4.65Y-3.5
X4.65Y-3.6
X4.65Y-3.7
X4.65Y-3.8
X4.65Y-3.9
X4.65Y-4.
X4.65Y-4.1
X3.95Y-5.15
X3.95Y-5.25
X3.95Y-5.35
X3.95Y-5.45
X4.65Y-4.2
X4.65Y-4.3
X4.65Y-4.4
X4.65Y-4.5
X4.65Y-4.6
X4.65Y-4.7
X4.65Y-4.8
X4.65Y-4.9
X4.65Y-5.
X4.75Y-4.2
X4.75Y-4.3
X4.75Y-4.4
X4.75Y-4.5
X4.75Y-4.6
X4.75Y-4.7
X4.75Y-4.8
X4.75Y-4.9
X4.75Y-5.
X3.625Y-5.875
X3.725Y-5.875
X3.825Y-5.875
X3.925Y-5.875
X4.025Y-5.875
X4.125Y-5.875
X4.75Y-3.9
X4.75Y-4.
T5
X4.45Y-5.825
X4.55Y-5.825
T6
X6.0827Y-5.7874
X3.4055Y-3.1102
X4.7441Y-5.7874
X3.4055Y-5.7874
X6.0827Y-3.1102
X4.7441Y-3.1102
T0
M30
