G04 #@! TF.GenerationSoftware,KiCad,Pcbnew,(5.0.1)-3*
G04 #@! TF.CreationDate,2018-12-07T05:25:01+01:00*
G04 #@! TF.ProjectId,HB-UNI-644,48422D554E492D3634342E6B69636164,2.0*
G04 #@! TF.SameCoordinates,Original*
G04 #@! TF.FileFunction,Copper,L1,Top,Signal*
G04 #@! TF.FilePolarity,Positive*
%FSLAX46Y46*%
G04 Gerber Fmt 4.6, Leading zero omitted, Abs format (unit mm)*
G04 Created by KiCad (PCBNEW (5.0.1)-3) date 07.12.2018 05:25:01*
%MOMM*%
%LPD*%
G01*
G04 APERTURE LIST*
G04 #@! TA.AperFunction,SMDPad,CuDef*
%ADD10R,1.300000X1.500000*%
G04 #@! TD*
G04 #@! TA.AperFunction,ComponentPad*
%ADD11C,1.350000*%
G04 #@! TD*
G04 #@! TA.AperFunction,ConnectorPad*
%ADD12R,1.800000X1.350000*%
G04 #@! TD*
G04 #@! TA.AperFunction,ComponentPad*
%ADD13R,2.000000X2.000000*%
G04 #@! TD*
G04 #@! TA.AperFunction,ComponentPad*
%ADD14O,2.000000X2.000000*%
G04 #@! TD*
G04 #@! TA.AperFunction,ComponentPad*
%ADD15C,1.600000*%
G04 #@! TD*
G04 #@! TA.AperFunction,SMDPad,CuDef*
%ADD16R,1.500000X1.300000*%
G04 #@! TD*
G04 #@! TA.AperFunction,SMDPad,CuDef*
%ADD17R,1.250000X1.500000*%
G04 #@! TD*
G04 #@! TA.AperFunction,SMDPad,CuDef*
%ADD18R,1.500000X1.250000*%
G04 #@! TD*
G04 #@! TA.AperFunction,ComponentPad*
%ADD19R,1.800000X1.800000*%
G04 #@! TD*
G04 #@! TA.AperFunction,ComponentPad*
%ADD20C,1.800000*%
G04 #@! TD*
G04 #@! TA.AperFunction,ComponentPad*
%ADD21R,1.700000X1.700000*%
G04 #@! TD*
G04 #@! TA.AperFunction,ComponentPad*
%ADD22O,1.700000X1.700000*%
G04 #@! TD*
G04 #@! TA.AperFunction,SMDPad,CuDef*
%ADD23R,1.500000X0.550000*%
G04 #@! TD*
G04 #@! TA.AperFunction,SMDPad,CuDef*
%ADD24R,0.550000X1.500000*%
G04 #@! TD*
G04 #@! TA.AperFunction,ComponentPad*
%ADD25C,1.500000*%
G04 #@! TD*
G04 #@! TA.AperFunction,ComponentPad*
%ADD26C,1.700000*%
G04 #@! TD*
G04 #@! TA.AperFunction,SMDPad,CuDef*
%ADD27R,2.180000X1.600000*%
G04 #@! TD*
G04 #@! TA.AperFunction,ComponentPad*
%ADD28R,1.600000X1.600000*%
G04 #@! TD*
G04 #@! TA.AperFunction,SMDPad,CuDef*
%ADD29R,1.100000X4.600000*%
G04 #@! TD*
G04 #@! TA.AperFunction,SMDPad,CuDef*
%ADD30R,10.800000X9.400000*%
G04 #@! TD*
G04 #@! TA.AperFunction,SMDPad,CuDef*
%ADD31R,5.250000X4.550000*%
G04 #@! TD*
G04 #@! TA.AperFunction,SMDPad,CuDef*
%ADD32R,1.700000X3.300000*%
G04 #@! TD*
G04 #@! TA.AperFunction,ConnectorPad*
%ADD33R,1.350000X1.800000*%
G04 #@! TD*
G04 #@! TA.AperFunction,ComponentPad*
%ADD34C,4.400000*%
G04 #@! TD*
G04 #@! TA.AperFunction,ComponentPad*
%ADD35C,0.700000*%
G04 #@! TD*
G04 #@! TA.AperFunction,ViaPad*
%ADD36C,0.600000*%
G04 #@! TD*
G04 #@! TA.AperFunction,Conductor*
%ADD37C,0.400000*%
G04 #@! TD*
G04 #@! TA.AperFunction,Conductor*
%ADD38C,0.250000*%
G04 #@! TD*
G04 #@! TA.AperFunction,Conductor*
%ADD39C,0.254000*%
G04 #@! TD*
G04 APERTURE END LIST*
D10*
G04 #@! TO.P,R12,1*
G04 #@! TO.N,Net-(D2-Pad2)*
X132715000Y-125650000D03*
G04 #@! TO.P,R12,2*
G04 #@! TO.N,/RAW-*
X132715000Y-128350000D03*
G04 #@! TD*
D11*
G04 #@! TO.P,U2,8*
G04 #@! TO.N,/SS*
X100370000Y-83560000D03*
D12*
X101370000Y-83560000D03*
D11*
G04 #@! TO.P,U2,1*
G04 #@! TO.N,VCC*
X100370000Y-97560000D03*
G04 #@! TO.P,U2,2*
G04 #@! TO.N,GND*
X100370000Y-95560000D03*
G04 #@! TO.P,U2,3*
G04 #@! TO.N,/MOSI*
X100370000Y-93560000D03*
G04 #@! TO.P,U2,4*
G04 #@! TO.N,/SCK*
X100370000Y-91560000D03*
G04 #@! TO.P,U2,5*
G04 #@! TO.N,/MISO*
X100370000Y-89560000D03*
G04 #@! TO.P,U2,7*
G04 #@! TO.N,/D2*
X100370000Y-85560000D03*
D12*
G04 #@! TO.P,U2,1*
G04 #@! TO.N,VCC*
X101370000Y-97560000D03*
G04 #@! TO.P,U2,2*
G04 #@! TO.N,GND*
X101370000Y-95560000D03*
G04 #@! TO.P,U2,3*
G04 #@! TO.N,/MOSI*
X101370000Y-93560000D03*
G04 #@! TO.P,U2,4*
G04 #@! TO.N,/SCK*
X101370000Y-91560000D03*
G04 #@! TO.P,U2,5*
G04 #@! TO.N,/MISO*
X101370000Y-89560000D03*
G04 #@! TO.P,U2,7*
G04 #@! TO.N,/D2*
X101370000Y-85560000D03*
G04 #@! TD*
D13*
G04 #@! TO.P,J11,1*
G04 #@! TO.N,/RAW+*
X113030000Y-147955000D03*
D14*
G04 #@! TO.P,J11,2*
G04 #@! TO.N,/RAW-*
X115570000Y-147955000D03*
G04 #@! TD*
D15*
G04 #@! TO.P,BT2,2*
G04 #@! TO.N,/RAW-*
X132500000Y-138100000D03*
G04 #@! TO.P,BT2,1*
G04 #@! TO.N,Net-(BT1-Pad2)*
X132500000Y-84900000D03*
G04 #@! TD*
G04 #@! TO.P,BT1,2*
G04 #@! TO.N,Net-(BT1-Pad2)*
X150500000Y-84900000D03*
G04 #@! TO.P,BT1,1*
G04 #@! TO.N,/RAW+*
X150500000Y-138100000D03*
G04 #@! TD*
D16*
G04 #@! TO.P,R6,1*
G04 #@! TO.N,/D31*
X101520000Y-126365000D03*
G04 #@! TO.P,R6,2*
G04 #@! TO.N,/A7*
X104220000Y-126365000D03*
G04 #@! TD*
D17*
G04 #@! TO.P,C1,1*
G04 #@! TO.N,GND*
X112395000Y-116185000D03*
G04 #@! TO.P,C1,2*
G04 #@! TO.N,VCC*
X112395000Y-113685000D03*
G04 #@! TD*
G04 #@! TO.P,C2,1*
G04 #@! TO.N,GND*
X93400000Y-104950000D03*
G04 #@! TO.P,C2,2*
G04 #@! TO.N,VCC*
X93400000Y-107450000D03*
G04 #@! TD*
D18*
G04 #@! TO.P,C3,1*
G04 #@! TO.N,GND*
X100985000Y-102235000D03*
G04 #@! TO.P,C3,2*
G04 #@! TO.N,VCC*
X103485000Y-102235000D03*
G04 #@! TD*
G04 #@! TO.P,C4,1*
G04 #@! TO.N,GND*
X100350000Y-121285000D03*
G04 #@! TO.P,C4,2*
G04 #@! TO.N,VCC*
X102850000Y-121285000D03*
G04 #@! TD*
G04 #@! TO.P,C5,1*
G04 #@! TO.N,/DTR*
X99675000Y-146050000D03*
G04 #@! TO.P,C5,2*
G04 #@! TO.N,/RSET*
X97175000Y-146050000D03*
G04 #@! TD*
G04 #@! TO.P,C6,1*
G04 #@! TO.N,Net-(C6-Pad1)*
X112415000Y-111125000D03*
G04 #@! TO.P,C6,2*
G04 #@! TO.N,GND*
X114915000Y-111125000D03*
G04 #@! TD*
D17*
G04 #@! TO.P,C7,1*
G04 #@! TO.N,GND*
X90424000Y-109748000D03*
G04 #@! TO.P,C7,2*
G04 #@! TO.N,Net-(C7-Pad2)*
X90424000Y-112248000D03*
G04 #@! TD*
G04 #@! TO.P,C8,1*
G04 #@! TO.N,Net-(C8-Pad1)*
X92964000Y-113772000D03*
G04 #@! TO.P,C8,2*
G04 #@! TO.N,GND*
X92964000Y-111272000D03*
G04 #@! TD*
D19*
G04 #@! TO.P,D1,1*
G04 #@! TO.N,Net-(D1-Pad1)*
X106680000Y-81280000D03*
D20*
G04 #@! TO.P,D1,2*
G04 #@! TO.N,GND*
X109220000Y-81280000D03*
G04 #@! TO.P,D1,3*
G04 #@! TO.N,Net-(D1-Pad3)*
X111760000Y-81280000D03*
G04 #@! TD*
D21*
G04 #@! TO.P,J1,1*
G04 #@! TO.N,/DTR*
X92075000Y-149225000D03*
D22*
G04 #@! TO.P,J1,2*
G04 #@! TO.N,/TXD*
X94615000Y-149225000D03*
G04 #@! TO.P,J1,3*
G04 #@! TO.N,/RXD*
X97155000Y-149225000D03*
G04 #@! TO.P,J1,4*
G04 #@! TO.N,VCC*
X99695000Y-149225000D03*
G04 #@! TO.P,J1,5*
G04 #@! TO.N,GND*
X102235000Y-149225000D03*
G04 #@! TO.P,J1,6*
X104775000Y-149225000D03*
G04 #@! TD*
D21*
G04 #@! TO.P,J3,1*
G04 #@! TO.N,VCC*
X85090000Y-130810000D03*
D22*
G04 #@! TO.P,J3,2*
G04 #@! TO.N,GND*
X85090000Y-133350000D03*
G04 #@! TO.P,J3,3*
G04 #@! TO.N,/SCL*
X85090000Y-135890000D03*
G04 #@! TO.P,J3,4*
G04 #@! TO.N,/SDA*
X85090000Y-138430000D03*
G04 #@! TD*
D21*
G04 #@! TO.P,J5,1*
G04 #@! TO.N,VCC*
X100330000Y-130810000D03*
D22*
G04 #@! TO.P,J5,2*
G04 #@! TO.N,GND*
X100330000Y-133350000D03*
G04 #@! TO.P,J5,3*
G04 #@! TO.N,/SCL*
X100330000Y-135890000D03*
G04 #@! TO.P,J5,4*
G04 #@! TO.N,/SDA*
X100330000Y-138430000D03*
G04 #@! TD*
D21*
G04 #@! TO.P,J6,1*
G04 #@! TO.N,VCC*
X105410000Y-130810000D03*
D22*
G04 #@! TO.P,J6,2*
G04 #@! TO.N,GND*
X105410000Y-133350000D03*
G04 #@! TO.P,J6,3*
G04 #@! TO.N,/SCL*
X105410000Y-135890000D03*
G04 #@! TO.P,J6,4*
G04 #@! TO.N,/SDA*
X105410000Y-138430000D03*
G04 #@! TD*
D21*
G04 #@! TO.P,J7,1*
G04 #@! TO.N,VCC*
X120650000Y-130810000D03*
D22*
G04 #@! TO.P,J7,2*
G04 #@! TO.N,GND*
X120650000Y-133350000D03*
G04 #@! TO.P,J7,3*
G04 #@! TO.N,/SCL*
X120650000Y-135890000D03*
G04 #@! TO.P,J7,4*
G04 #@! TO.N,/SDA*
X120650000Y-138430000D03*
G04 #@! TD*
D16*
G04 #@! TO.P,R1,1*
G04 #@! TO.N,VCC*
X91360000Y-146050000D03*
G04 #@! TO.P,R1,2*
G04 #@! TO.N,/RSET*
X94060000Y-146050000D03*
G04 #@! TD*
D10*
G04 #@! TO.P,R2,1*
G04 #@! TO.N,Net-(D1-Pad3)*
X111760000Y-84375000D03*
G04 #@! TO.P,R2,2*
G04 #@! TO.N,/D4*
X111760000Y-87075000D03*
G04 #@! TD*
G04 #@! TO.P,R3,1*
G04 #@! TO.N,Net-(D1-Pad1)*
X106680000Y-84375000D03*
G04 #@! TO.P,R3,2*
G04 #@! TO.N,/D5*
X106680000Y-87075000D03*
G04 #@! TD*
D16*
G04 #@! TO.P,R5,1*
G04 #@! TO.N,/A7*
X107235000Y-126365000D03*
G04 #@! TO.P,R5,2*
G04 #@! TO.N,/RAW+FUSE*
X109935000Y-126365000D03*
G04 #@! TD*
D10*
G04 #@! TO.P,R7,1*
G04 #@! TO.N,VCC*
X93980000Y-125015000D03*
G04 #@! TO.P,R7,2*
G04 #@! TO.N,/SCL*
X93980000Y-127715000D03*
G04 #@! TD*
G04 #@! TO.P,R8,1*
G04 #@! TO.N,VCC*
X91440000Y-126285000D03*
G04 #@! TO.P,R8,2*
G04 #@! TO.N,/SDA*
X91440000Y-128985000D03*
G04 #@! TD*
D23*
G04 #@! TO.P,U1,1*
G04 #@! TO.N,/MOSI*
X97170000Y-107760000D03*
G04 #@! TO.P,U1,2*
G04 #@! TO.N,/MISO*
X97170000Y-108560000D03*
G04 #@! TO.P,U1,3*
G04 #@! TO.N,/SCK*
X97170000Y-109360000D03*
G04 #@! TO.P,U1,4*
G04 #@! TO.N,/RSET*
X97170000Y-110160000D03*
G04 #@! TO.P,U1,5*
G04 #@! TO.N,VCC*
X97170000Y-110960000D03*
G04 #@! TO.P,U1,6*
G04 #@! TO.N,GND*
X97170000Y-111760000D03*
G04 #@! TO.P,U1,7*
G04 #@! TO.N,Net-(C7-Pad2)*
X97170000Y-112560000D03*
G04 #@! TO.P,U1,8*
G04 #@! TO.N,Net-(C8-Pad1)*
X97170000Y-113360000D03*
G04 #@! TO.P,U1,9*
G04 #@! TO.N,/RXD*
X97170000Y-114160000D03*
G04 #@! TO.P,U1,10*
G04 #@! TO.N,/TXD*
X97170000Y-114960000D03*
G04 #@! TO.P,U1,11*
G04 #@! TO.N,/D2*
X97170000Y-115760000D03*
D24*
G04 #@! TO.P,U1,12*
G04 #@! TO.N,/D3*
X98870000Y-117460000D03*
G04 #@! TO.P,U1,13*
G04 #@! TO.N,/D30*
X99670000Y-117460000D03*
G04 #@! TO.P,U1,14*
G04 #@! TO.N,/D8*
X100470000Y-117460000D03*
G04 #@! TO.P,U1,15*
G04 #@! TO.N,/D9*
X101270000Y-117460000D03*
G04 #@! TO.P,U1,16*
G04 #@! TO.N,/D31*
X102070000Y-117460000D03*
G04 #@! TO.P,U1,17*
G04 #@! TO.N,VCC*
X102870000Y-117460000D03*
G04 #@! TO.P,U1,18*
G04 #@! TO.N,GND*
X103670000Y-117460000D03*
G04 #@! TO.P,U1,19*
G04 #@! TO.N,/SCL*
X104470000Y-117460000D03*
G04 #@! TO.P,U1,20*
G04 #@! TO.N,/SDA*
X105270000Y-117460000D03*
G04 #@! TO.P,U1,21*
G04 #@! TO.N,/D24*
X106070000Y-117460000D03*
G04 #@! TO.P,U1,22*
G04 #@! TO.N,/D25*
X106870000Y-117460000D03*
D23*
G04 #@! TO.P,U1,23*
G04 #@! TO.N,/D26*
X108570000Y-115760000D03*
G04 #@! TO.P,U1,24*
G04 #@! TO.N,/D27*
X108570000Y-114960000D03*
G04 #@! TO.P,U1,25*
G04 #@! TO.N,/D28*
X108570000Y-114160000D03*
G04 #@! TO.P,U1,26*
G04 #@! TO.N,/D29*
X108570000Y-113360000D03*
G04 #@! TO.P,U1,27*
G04 #@! TO.N,VCC*
X108570000Y-112560000D03*
G04 #@! TO.P,U1,28*
G04 #@! TO.N,GND*
X108570000Y-111760000D03*
G04 #@! TO.P,U1,29*
G04 #@! TO.N,Net-(C6-Pad1)*
X108570000Y-110960000D03*
G04 #@! TO.P,U1,30*
G04 #@! TO.N,/A0*
X108570000Y-110160000D03*
G04 #@! TO.P,U1,31*
G04 #@! TO.N,/A1*
X108570000Y-109360000D03*
G04 #@! TO.P,U1,32*
G04 #@! TO.N,/A2*
X108570000Y-108560000D03*
G04 #@! TO.P,U1,33*
G04 #@! TO.N,/A3*
X108570000Y-107760000D03*
D24*
G04 #@! TO.P,U1,34*
G04 #@! TO.N,/A4*
X106870000Y-106060000D03*
G04 #@! TO.P,U1,35*
G04 #@! TO.N,/A5*
X106070000Y-106060000D03*
G04 #@! TO.P,U1,36*
G04 #@! TO.N,/A6*
X105270000Y-106060000D03*
G04 #@! TO.P,U1,37*
G04 #@! TO.N,/A7*
X104470000Y-106060000D03*
G04 #@! TO.P,U1,38*
G04 #@! TO.N,VCC*
X103670000Y-106060000D03*
G04 #@! TO.P,U1,39*
G04 #@! TO.N,GND*
X102870000Y-106060000D03*
G04 #@! TO.P,U1,40*
G04 #@! TO.N,/D4*
X102070000Y-106060000D03*
G04 #@! TO.P,U1,41*
G04 #@! TO.N,/D5*
X101270000Y-106060000D03*
G04 #@! TO.P,U1,42*
G04 #@! TO.N,/D6*
X100470000Y-106060000D03*
G04 #@! TO.P,U1,43*
G04 #@! TO.N,/D7*
X99670000Y-106060000D03*
G04 #@! TO.P,U1,44*
G04 #@! TO.N,/SS*
X98870000Y-106060000D03*
G04 #@! TD*
D25*
G04 #@! TO.P,Y1,1*
G04 #@! TO.N,Net-(C7-Pad2)*
X86360000Y-110490000D03*
G04 #@! TO.P,Y1,2*
G04 #@! TO.N,Net-(C8-Pad1)*
X86360000Y-115370000D03*
G04 #@! TD*
D21*
G04 #@! TO.P,J10,1*
G04 #@! TO.N,/MISO*
X98425000Y-76835000D03*
D22*
G04 #@! TO.P,J10,2*
G04 #@! TO.N,VCC*
X98425000Y-79375000D03*
G04 #@! TO.P,J10,3*
G04 #@! TO.N,/SCK*
X95885000Y-76835000D03*
G04 #@! TO.P,J10,4*
G04 #@! TO.N,/MOSI*
X95885000Y-79375000D03*
G04 #@! TO.P,J10,5*
G04 #@! TO.N,/RSET*
X93345000Y-76835000D03*
G04 #@! TO.P,J10,6*
G04 #@! TO.N,GND*
X93345000Y-79375000D03*
G04 #@! TD*
D16*
G04 #@! TO.P,R9,1*
G04 #@! TO.N,GND*
X115015000Y-106680000D03*
G04 #@! TO.P,R9,2*
G04 #@! TO.N,/A0*
X112315000Y-106680000D03*
G04 #@! TD*
D10*
G04 #@! TO.P,R10,1*
G04 #@! TO.N,GND*
X112395000Y-95805000D03*
G04 #@! TO.P,R10,2*
G04 #@! TO.N,/A1*
X112395000Y-98505000D03*
G04 #@! TD*
D26*
G04 #@! TO.P,J13,1*
G04 #@! TO.N,/D6*
X120650000Y-101600000D03*
D22*
G04 #@! TO.P,J13,2*
G04 #@! TO.N,/D7*
X120650000Y-99060000D03*
G04 #@! TD*
D18*
G04 #@! TO.P,C13,1*
G04 #@! TO.N,GND*
X106660000Y-96520000D03*
G04 #@! TO.P,C13,2*
G04 #@! TO.N,VCC*
X104160000Y-96520000D03*
G04 #@! TD*
G04 #@! TO.P,C14,1*
G04 #@! TO.N,GND*
X106660000Y-99060000D03*
G04 #@! TO.P,C14,2*
G04 #@! TO.N,VCC*
X104160000Y-99060000D03*
G04 #@! TD*
D27*
G04 #@! TO.P,SW1,1*
G04 #@! TO.N,/D8*
X104630000Y-76835000D03*
G04 #@! TO.P,SW1,2*
G04 #@! TO.N,GND*
X113810000Y-76835000D03*
G04 #@! TD*
D28*
G04 #@! TO.P,C15,1*
G04 #@! TO.N,VCC*
X86360000Y-126365000D03*
D15*
G04 #@! TO.P,C15,2*
G04 #@! TO.N,GND*
X86360000Y-122865000D03*
G04 #@! TD*
D21*
G04 #@! TO.P,J8,1*
G04 #@! TO.N,GND*
X118110000Y-104140000D03*
D22*
G04 #@! TO.P,J8,2*
G04 #@! TO.N,VCC*
X115570000Y-104140000D03*
G04 #@! TO.P,J8,3*
G04 #@! TO.N,GND*
X118110000Y-101600000D03*
G04 #@! TO.P,J8,4*
G04 #@! TO.N,/A0*
X115570000Y-101600000D03*
G04 #@! TO.P,J8,5*
G04 #@! TO.N,GND*
X118110000Y-99060000D03*
G04 #@! TO.P,J8,6*
G04 #@! TO.N,/A1*
X115570000Y-99060000D03*
G04 #@! TO.P,J8,7*
G04 #@! TO.N,GND*
X118110000Y-96520000D03*
G04 #@! TO.P,J8,8*
G04 #@! TO.N,/A2*
X115570000Y-96520000D03*
G04 #@! TO.P,J8,9*
G04 #@! TO.N,GND*
X118110000Y-93980000D03*
G04 #@! TO.P,J8,10*
G04 #@! TO.N,/A3*
X115570000Y-93980000D03*
G04 #@! TO.P,J8,11*
G04 #@! TO.N,GND*
X118110000Y-91440000D03*
G04 #@! TO.P,J8,12*
G04 #@! TO.N,/A4*
X115570000Y-91440000D03*
G04 #@! TO.P,J8,13*
G04 #@! TO.N,GND*
X118110000Y-88900000D03*
G04 #@! TO.P,J8,14*
G04 #@! TO.N,/A5*
X115570000Y-88900000D03*
G04 #@! TO.P,J8,15*
G04 #@! TO.N,GND*
X118110000Y-86360000D03*
G04 #@! TO.P,J8,16*
G04 #@! TO.N,/A6*
X115570000Y-86360000D03*
G04 #@! TO.P,J8,17*
G04 #@! TO.N,GND*
X118110000Y-83820000D03*
G04 #@! TO.P,J8,18*
G04 #@! TO.N,/D3*
X115570000Y-83820000D03*
G04 #@! TD*
D21*
G04 #@! TO.P,J9,1*
G04 #@! TO.N,GND*
X120650000Y-127000000D03*
D22*
G04 #@! TO.P,J9,2*
G04 #@! TO.N,VCC*
X118110000Y-127000000D03*
G04 #@! TO.P,J9,3*
G04 #@! TO.N,GND*
X120650000Y-124460000D03*
G04 #@! TO.P,J9,4*
G04 #@! TO.N,/D30*
X118110000Y-124460000D03*
G04 #@! TO.P,J9,5*
G04 #@! TO.N,GND*
X120650000Y-121920000D03*
G04 #@! TO.P,J9,6*
G04 #@! TO.N,/D9*
X118110000Y-121920000D03*
G04 #@! TO.P,J9,7*
G04 #@! TO.N,GND*
X120650000Y-119380000D03*
G04 #@! TO.P,J9,8*
G04 #@! TO.N,/D24*
X118110000Y-119380000D03*
G04 #@! TO.P,J9,9*
G04 #@! TO.N,GND*
X120650000Y-116840000D03*
G04 #@! TO.P,J9,10*
G04 #@! TO.N,/D25*
X118110000Y-116840000D03*
G04 #@! TO.P,J9,11*
G04 #@! TO.N,GND*
X120650000Y-114300000D03*
G04 #@! TO.P,J9,12*
G04 #@! TO.N,/D26*
X118110000Y-114300000D03*
G04 #@! TO.P,J9,13*
G04 #@! TO.N,GND*
X120650000Y-111760000D03*
G04 #@! TO.P,J9,14*
G04 #@! TO.N,/D27*
X118110000Y-111760000D03*
G04 #@! TO.P,J9,15*
G04 #@! TO.N,GND*
X120650000Y-109220000D03*
G04 #@! TO.P,J9,16*
G04 #@! TO.N,/D28*
X118110000Y-109220000D03*
G04 #@! TO.P,J9,17*
G04 #@! TO.N,GND*
X120650000Y-106680000D03*
G04 #@! TO.P,J9,18*
G04 #@! TO.N,/D29*
X118110000Y-106680000D03*
G04 #@! TD*
D21*
G04 #@! TO.P,J12,1*
G04 #@! TO.N,VCC*
X146685000Y-108585000D03*
D22*
G04 #@! TO.P,J12,2*
G04 #@! TO.N,GND*
X144145000Y-108585000D03*
G04 #@! TO.P,J12,3*
G04 #@! TO.N,Net-(D2-Pad1)*
X141605000Y-108585000D03*
G04 #@! TO.P,J12,4*
G04 #@! TO.N,Net-(J12-Pad4)*
X139065000Y-108585000D03*
G04 #@! TD*
D29*
G04 #@! TO.P,Q3,1*
G04 #@! TO.N,Net-(D2-Pad2)*
X140335000Y-128330000D03*
G04 #@! TO.P,Q3,3*
G04 #@! TO.N,/RAW+FUSE*
X145415000Y-128330000D03*
D30*
G04 #@! TO.P,Q3,2*
G04 #@! TO.N,Net-(D2-Pad1)*
X142875000Y-119180000D03*
D31*
X145650000Y-116755000D03*
X140100000Y-121605000D03*
X140100000Y-116755000D03*
X145650000Y-121605000D03*
G04 #@! TD*
D32*
G04 #@! TO.P,D2,1*
G04 #@! TO.N,Net-(D2-Pad1)*
X132715000Y-115995000D03*
G04 #@! TO.P,D2,2*
G04 #@! TO.N,Net-(D2-Pad2)*
X132715000Y-121495000D03*
G04 #@! TD*
D11*
G04 #@! TO.P,U5,8*
G04 #@! TO.N,Net-(U5-Pad8)*
X96780000Y-101005000D03*
D33*
X96780000Y-102005000D03*
D11*
G04 #@! TO.P,U5,1*
G04 #@! TO.N,+3V3*
X82780000Y-101005000D03*
G04 #@! TO.P,U5,2*
G04 #@! TO.N,GND*
X84780000Y-101005000D03*
G04 #@! TO.P,U5,3*
G04 #@! TO.N,Net-(U5-Pad3)*
X86780000Y-101005000D03*
G04 #@! TO.P,U5,4*
G04 #@! TO.N,Net-(U5-Pad4)*
X88780000Y-101005000D03*
G04 #@! TO.P,U5,5*
G04 #@! TO.N,Net-(U5-Pad5)*
X90780000Y-101005000D03*
G04 #@! TO.P,U5,7*
G04 #@! TO.N,Net-(U5-Pad7)*
X94780000Y-101005000D03*
D33*
G04 #@! TO.P,U5,1*
G04 #@! TO.N,+3V3*
X82780000Y-102005000D03*
G04 #@! TO.P,U5,2*
G04 #@! TO.N,GND*
X84780000Y-102005000D03*
G04 #@! TO.P,U5,3*
G04 #@! TO.N,Net-(U5-Pad3)*
X86780000Y-102005000D03*
G04 #@! TO.P,U5,4*
G04 #@! TO.N,Net-(U5-Pad4)*
X88780000Y-102005000D03*
G04 #@! TO.P,U5,5*
G04 #@! TO.N,Net-(U5-Pad5)*
X90780000Y-102005000D03*
G04 #@! TO.P,U5,7*
G04 #@! TO.N,Net-(U5-Pad7)*
X94780000Y-102005000D03*
G04 #@! TD*
D34*
G04 #@! TO.P,REF\002A\002A,1*
G04 #@! TO.N,N/C*
X86500000Y-79000000D03*
D35*
X88150000Y-79000000D03*
X87666726Y-80166726D03*
X86500000Y-80650000D03*
X85333274Y-80166726D03*
X84850000Y-79000000D03*
X85333274Y-77833274D03*
X86500000Y-77350000D03*
X87666726Y-77833274D03*
G04 #@! TD*
D34*
G04 #@! TO.P,REF\002A\002A,1*
G04 #@! TO.N,N/C*
X120500000Y-79000000D03*
D35*
X122150000Y-79000000D03*
X121666726Y-80166726D03*
X120500000Y-80650000D03*
X119333274Y-80166726D03*
X118850000Y-79000000D03*
X119333274Y-77833274D03*
X120500000Y-77350000D03*
X121666726Y-77833274D03*
G04 #@! TD*
D34*
G04 #@! TO.P,REF\002A\002A,1*
G04 #@! TO.N,N/C*
X154500000Y-79000000D03*
D35*
X156150000Y-79000000D03*
X155666726Y-80166726D03*
X154500000Y-80650000D03*
X153333274Y-80166726D03*
X152850000Y-79000000D03*
X153333274Y-77833274D03*
X154500000Y-77350000D03*
X155666726Y-77833274D03*
G04 #@! TD*
D34*
G04 #@! TO.P,REF\002A\002A,1*
G04 #@! TO.N,N/C*
X86500000Y-147000000D03*
D35*
X88150000Y-147000000D03*
X87666726Y-148166726D03*
X86500000Y-148650000D03*
X85333274Y-148166726D03*
X84850000Y-147000000D03*
X85333274Y-145833274D03*
X86500000Y-145350000D03*
X87666726Y-145833274D03*
G04 #@! TD*
D34*
G04 #@! TO.P,REF\002A\002A,1*
G04 #@! TO.N,N/C*
X120500000Y-147000000D03*
D35*
X122150000Y-147000000D03*
X121666726Y-148166726D03*
X120500000Y-148650000D03*
X119333274Y-148166726D03*
X118850000Y-147000000D03*
X119333274Y-145833274D03*
X120500000Y-145350000D03*
X121666726Y-145833274D03*
G04 #@! TD*
D34*
G04 #@! TO.P,REF\002A\002A,1*
G04 #@! TO.N,N/C*
X154500000Y-147000000D03*
D35*
X156150000Y-147000000D03*
X155666726Y-148166726D03*
X154500000Y-148650000D03*
X153333274Y-148166726D03*
X152850000Y-147000000D03*
X153333274Y-145833274D03*
X154500000Y-145350000D03*
X155666726Y-145833274D03*
G04 #@! TD*
D36*
G04 #@! TO.N,GND*
X82550000Y-93980000D03*
X82550000Y-82550000D03*
X94615000Y-98425000D03*
X95250000Y-83185000D03*
X86360000Y-95885000D03*
X100965000Y-100330000D03*
X90170000Y-108585000D03*
X92710000Y-109855000D03*
X106680000Y-100330000D03*
X106680000Y-95250000D03*
X88265000Y-131445000D03*
X114935000Y-107950000D03*
X114935000Y-109855000D03*
X115570000Y-76835000D03*
X104775000Y-141605000D03*
X100965000Y-141605000D03*
X121920000Y-144145000D03*
X107950000Y-137160000D03*
X102870000Y-138430000D03*
X112395000Y-117475000D03*
X93345000Y-130175000D03*
X102870000Y-133350000D03*
X98425000Y-111760000D03*
X100330000Y-122555000D03*
X113665000Y-95885000D03*
X103632000Y-116078000D03*
X102870000Y-107315000D03*
X107315000Y-111760000D03*
G04 #@! TO.N,/TXD*
X82550000Y-146685000D03*
G04 #@! TO.N,/RXD*
X94615000Y-118110000D03*
X98425000Y-114300000D03*
G04 #@! TO.N,/D4*
X106045000Y-101600000D03*
X102870000Y-103505000D03*
G04 #@! TO.N,/D5*
X105410000Y-100965000D03*
X101600000Y-103505000D03*
G04 #@! TO.N,/A7*
X104140000Y-125095000D03*
X107950000Y-120650000D03*
X107315000Y-125095000D03*
X104775000Y-113665000D03*
X104775000Y-111760000D03*
G04 #@! TO.N,/MOSI*
X97790000Y-92710000D03*
X97790000Y-81915000D03*
G04 #@! TO.N,/MISO*
X97155000Y-90170000D03*
G04 #@! TO.N,/SCK*
X96520000Y-91440000D03*
G04 #@! TO.N,/D2*
X99060000Y-89535000D03*
X99695000Y-103505000D03*
X99060000Y-114935000D03*
G04 #@! TO.N,/D3*
X106680000Y-124460000D03*
X100965000Y-124460000D03*
G04 #@! TO.N,/D30*
X107315000Y-123825000D03*
X101600000Y-123825000D03*
G04 #@! TO.N,/D8*
X105410000Y-93980000D03*
X100965000Y-111760000D03*
G04 #@! TO.N,/D9*
X100965000Y-123190000D03*
X106045000Y-123190000D03*
G04 #@! TO.N,/D27*
X114935000Y-115570000D03*
X106680000Y-115570000D03*
G04 #@! TO.N,/D6*
X100965000Y-107950000D03*
X113665000Y-102870000D03*
G04 #@! TO.N,/D7*
X113665000Y-101600000D03*
X99695000Y-107315000D03*
G04 #@! TO.N,/SS*
X98425000Y-88265000D03*
G04 #@! TO.N,/RSET*
X104775000Y-94615000D03*
X99695000Y-111760000D03*
X98425000Y-109855000D03*
G04 #@! TO.N,/RAW+*
X131445000Y-147955000D03*
G04 #@! TO.N,/RAW+FUSE*
X116205000Y-127000000D03*
X145415000Y-131445000D03*
G04 #@! TO.N,VCC*
X92075000Y-106045000D03*
G04 #@! TD*
D37*
G04 #@! TO.N,Net-(BT1-Pad2)*
X132500000Y-84900000D02*
X150500000Y-84900000D01*
G04 #@! TO.N,GND*
X84780000Y-101005000D02*
X84780000Y-102005000D01*
X100985000Y-102235000D02*
X100985000Y-100350000D01*
X100985000Y-100350000D02*
X100965000Y-100330000D01*
X100370000Y-95560000D02*
X101370000Y-95560000D01*
X90424000Y-109748000D02*
X90424000Y-108839000D01*
X90424000Y-108839000D02*
X90170000Y-108585000D01*
X92964000Y-111272000D02*
X92964000Y-110109000D01*
X92964000Y-110109000D02*
X92710000Y-109855000D01*
X106660000Y-99060000D02*
X106660000Y-100310000D01*
X106660000Y-100310000D02*
X106680000Y-100330000D01*
X106660000Y-96520000D02*
X106660000Y-95270000D01*
X106660000Y-95270000D02*
X106680000Y-95250000D01*
X114935000Y-107950000D02*
X114935000Y-106760000D01*
X114935000Y-106760000D02*
X115015000Y-106680000D01*
X114915000Y-111125000D02*
X114915000Y-109875000D01*
X114915000Y-109875000D02*
X114935000Y-109855000D01*
X113810000Y-76835000D02*
X115570000Y-76835000D01*
X104775000Y-141605000D02*
X100965000Y-141605000D01*
X104775000Y-149225000D02*
X104775000Y-141605000D01*
X113665000Y-144145000D02*
X109220000Y-144145000D01*
X104775000Y-144145000D02*
X109220000Y-144145000D01*
X104775000Y-141605000D02*
X104775000Y-144145000D01*
X114935000Y-144145000D02*
X113665000Y-144145000D01*
X121920000Y-144145000D02*
X114935000Y-144145000D01*
X112395000Y-116185000D02*
X112395000Y-117475000D01*
X102870000Y-133350000D02*
X105410000Y-133350000D01*
X92900000Y-109100000D02*
X93800000Y-110000000D01*
X96160000Y-111760000D02*
X97170000Y-111760000D01*
X96000000Y-111600000D02*
X96160000Y-111760000D01*
X95400000Y-111600000D02*
X96000000Y-111600000D01*
X93800000Y-110000000D02*
X95400000Y-111600000D01*
X88000000Y-119200000D02*
X90600000Y-119200000D01*
X83400000Y-119000000D02*
X83600000Y-119200000D01*
X83600000Y-119200000D02*
X88000000Y-119200000D01*
X83400000Y-118800000D02*
X83400000Y-107000000D01*
X83600000Y-106800000D02*
X83400000Y-107000000D01*
X84000000Y-106800000D02*
X83800000Y-106800000D01*
X90600000Y-106800000D02*
X84000000Y-106800000D01*
X92900000Y-109100000D02*
X90600000Y-106800000D01*
X83800000Y-106800000D02*
X83600000Y-106800000D01*
X83400000Y-118800000D02*
X83400000Y-119000000D01*
X95800000Y-114000000D02*
X95800000Y-113885002D01*
X90600000Y-119200000D02*
X95800000Y-114000000D01*
X98425000Y-111760000D02*
X97170000Y-111760000D01*
X100350000Y-122535000D02*
X100350000Y-121285000D01*
X100350000Y-122535000D02*
X100330000Y-122555000D01*
X112395000Y-95805000D02*
X113585000Y-95805000D01*
X113585000Y-95805000D02*
X113665000Y-95885000D01*
X103670000Y-117460000D02*
X103670000Y-116116000D01*
X103670000Y-116116000D02*
X103632000Y-116078000D01*
X102870000Y-106060000D02*
X102870000Y-107315000D01*
X108570000Y-111760000D02*
X107315000Y-111760000D01*
G04 #@! TO.N,+3V3*
X82780000Y-102005000D02*
X82780000Y-101005000D01*
D38*
G04 #@! TO.N,/DTR*
X92075000Y-149225000D02*
X93980000Y-147320000D01*
X98405000Y-147320000D02*
X99675000Y-146050000D01*
X93980000Y-147320000D02*
X98405000Y-147320000D01*
D37*
X99695000Y-146130000D02*
X99775000Y-146050000D01*
D38*
G04 #@! TO.N,Net-(C6-Pad1)*
X111760000Y-110960000D02*
X112250000Y-110960000D01*
X112250000Y-110960000D02*
X112395000Y-111105000D01*
X108570000Y-110960000D02*
X111760000Y-110960000D01*
X111760000Y-110960000D02*
X111945000Y-110960000D01*
G04 #@! TO.N,Net-(C7-Pad2)*
X86360000Y-110490000D02*
X88265000Y-112395000D01*
X88265000Y-112395000D02*
X90277000Y-112395000D01*
X90277000Y-112395000D02*
X90424000Y-112248000D01*
X97170000Y-112560000D02*
X90736000Y-112560000D01*
X90736000Y-112560000D02*
X90424000Y-112248000D01*
G04 #@! TO.N,Net-(C8-Pad1)*
X86360000Y-115370000D02*
X86560000Y-115370000D01*
X86560000Y-115370000D02*
X88265000Y-113665000D01*
X88265000Y-113665000D02*
X92857000Y-113665000D01*
X92857000Y-113665000D02*
X92964000Y-113772000D01*
X97170000Y-113360000D02*
X93376000Y-113360000D01*
X93376000Y-113360000D02*
X92964000Y-113772000D01*
G04 #@! TO.N,Net-(D1-Pad1)*
X106680000Y-84375000D02*
X106680000Y-81280000D01*
G04 #@! TO.N,Net-(D1-Pad3)*
X111760000Y-84375000D02*
X111760000Y-81280000D01*
G04 #@! TO.N,/TXD*
X92710000Y-120650000D02*
X93345000Y-120650000D01*
X95250000Y-118745000D02*
X95250000Y-118110000D01*
X93345000Y-120650000D02*
X95250000Y-118745000D01*
X82550000Y-140335000D02*
X82550000Y-146685000D01*
X82550000Y-123190000D02*
X82550000Y-122555000D01*
X84455000Y-120650000D02*
X92710000Y-120650000D01*
X82550000Y-122555000D02*
X84455000Y-120650000D01*
X82550000Y-123825000D02*
X82550000Y-123190000D01*
X82550000Y-129540000D02*
X82550000Y-123825000D01*
X95250000Y-116840000D02*
X95250000Y-118110000D01*
X95860000Y-114960000D02*
X95250000Y-115570000D01*
X97170000Y-114960000D02*
X95860000Y-114960000D01*
X95250000Y-116840000D02*
X95250000Y-115570000D01*
X82550000Y-130175000D02*
X82550000Y-129540000D01*
X82550000Y-130175000D02*
X82550000Y-140335000D01*
G04 #@! TO.N,/RXD*
X81915000Y-147320000D02*
X82550000Y-147955000D01*
X92075000Y-120015000D02*
X92710000Y-120015000D01*
X92710000Y-120015000D02*
X94615000Y-118110000D01*
X81915000Y-140970000D02*
X81915000Y-146685000D01*
X81915000Y-122555000D02*
X81915000Y-121920000D01*
X83820000Y-120015000D02*
X92075000Y-120015000D01*
X81915000Y-121920000D02*
X83820000Y-120015000D01*
X81915000Y-123190000D02*
X81915000Y-122555000D01*
X81915000Y-128905000D02*
X81915000Y-123190000D01*
X97170000Y-114160000D02*
X98285000Y-114160000D01*
X98285000Y-114160000D02*
X98425000Y-114300000D01*
X81915000Y-129540000D02*
X81915000Y-128905000D01*
X81915000Y-129540000D02*
X81915000Y-140970000D01*
X81915000Y-146685000D02*
X81915000Y-147320000D01*
X95885000Y-150495000D02*
X97155000Y-149225000D01*
X84455000Y-150495000D02*
X95885000Y-150495000D01*
X82550000Y-148590000D02*
X84455000Y-150495000D01*
X82550000Y-147955000D02*
X82550000Y-148590000D01*
G04 #@! TO.N,/SCL*
X106680000Y-128905000D02*
X106045000Y-128905000D01*
X106680000Y-128905000D02*
X108585000Y-128905000D01*
X118110000Y-128905000D02*
X121285000Y-128905000D01*
X121920000Y-134620000D02*
X120650000Y-135890000D01*
X121920000Y-129540000D02*
X121920000Y-134620000D01*
X121285000Y-128905000D02*
X121920000Y-129540000D01*
X111760000Y-128905000D02*
X118110000Y-128905000D01*
X111760000Y-128905000D02*
X109855000Y-128905000D01*
X108585000Y-128905000D02*
X109855000Y-128905000D01*
X106045000Y-128905000D02*
X105410000Y-128270000D01*
X105410000Y-128270000D02*
X105410000Y-125095000D01*
X105410000Y-125095000D02*
X104470000Y-124155000D01*
X104470000Y-124155000D02*
X104470000Y-117460000D01*
X99060000Y-132080000D02*
X99060000Y-134620000D01*
X99060000Y-134620000D02*
X100330000Y-135890000D01*
X93980000Y-127715000D02*
X97235000Y-127715000D01*
X98425000Y-128905000D02*
X98425000Y-131445000D01*
X97235000Y-127715000D02*
X98425000Y-128905000D01*
X101600000Y-136525000D02*
X100965000Y-136525000D01*
X101600000Y-136525000D02*
X104775000Y-136525000D01*
X104775000Y-136525000D02*
X105410000Y-135890000D01*
X100965000Y-136525000D02*
X100330000Y-135890000D01*
X98425000Y-131445000D02*
X99060000Y-132080000D01*
X86360000Y-130810000D02*
X86360000Y-128270000D01*
X86995000Y-127635000D02*
X89535000Y-127635000D01*
X86360000Y-128270000D02*
X86995000Y-127635000D01*
X89535000Y-127635000D02*
X94535000Y-127635000D01*
X85090000Y-135890000D02*
X86360000Y-134620000D01*
X86360000Y-134620000D02*
X86360000Y-130810000D01*
X105410000Y-135890000D02*
X106680000Y-134620000D01*
X106680000Y-132080000D02*
X106680000Y-131445000D01*
X106680000Y-130810000D02*
X107315000Y-130175000D01*
X109855000Y-130175000D02*
X107315000Y-130175000D01*
X119380000Y-134620000D02*
X120650000Y-135890000D01*
X119380000Y-130810000D02*
X119380000Y-134620000D01*
X118745000Y-130175000D02*
X119380000Y-130810000D01*
X109855000Y-130175000D02*
X118745000Y-130175000D01*
X106680000Y-131445000D02*
X106680000Y-130810000D01*
X106680000Y-132715000D02*
X106680000Y-132080000D01*
X106680000Y-134620000D02*
X106680000Y-132715000D01*
G04 #@! TO.N,/SDA*
X98425000Y-132715000D02*
X98425000Y-136525000D01*
X98425000Y-136525000D02*
X99060000Y-137160000D01*
X100330000Y-138430000D02*
X101600000Y-137160000D01*
X104140000Y-137160000D02*
X105410000Y-138430000D01*
X101600000Y-137160000D02*
X104140000Y-137160000D01*
X91440000Y-128985000D02*
X87550000Y-128985000D01*
X87550000Y-128985000D02*
X86995000Y-129540000D01*
X97790000Y-129540000D02*
X97235000Y-128985000D01*
X97235000Y-128985000D02*
X91440000Y-128985000D01*
X91360000Y-128905000D02*
X91440000Y-128985000D01*
X97790000Y-129540000D02*
X97790000Y-130175000D01*
X85090000Y-138430000D02*
X86995000Y-136525000D01*
X86995000Y-136525000D02*
X86995000Y-129540000D01*
X99060000Y-137160000D02*
X100330000Y-138430000D01*
X97790000Y-132080000D02*
X98425000Y-132715000D01*
X97790000Y-130175000D02*
X97790000Y-132080000D01*
X106680000Y-128270000D02*
X106045000Y-127635000D01*
X105270000Y-123685000D02*
X105270000Y-117460000D01*
X106045000Y-124460000D02*
X105270000Y-123685000D01*
X106045000Y-125095000D02*
X106045000Y-124460000D01*
X106045000Y-127635000D02*
X106045000Y-125095000D01*
X109855000Y-130810000D02*
X118110000Y-130810000D01*
X107315000Y-135890000D02*
X107315000Y-131445000D01*
X107315000Y-131445000D02*
X107950000Y-130810000D01*
X107950000Y-130810000D02*
X109855000Y-130810000D01*
X105410000Y-137795000D02*
X107315000Y-135890000D01*
X118745000Y-136525000D02*
X120650000Y-138430000D01*
X118745000Y-131445000D02*
X118745000Y-136525000D01*
X118110000Y-130810000D02*
X118745000Y-131445000D01*
X105410000Y-138430000D02*
X105410000Y-137795000D01*
X112395000Y-128270000D02*
X110490000Y-128270000D01*
X122555000Y-128905000D02*
X122555000Y-135890000D01*
X121920000Y-128270000D02*
X122555000Y-128905000D01*
X121920000Y-128270000D02*
X112395000Y-128270000D01*
X122555000Y-136525000D02*
X122555000Y-135890000D01*
X120650000Y-138430000D02*
X122555000Y-136525000D01*
X109220000Y-128270000D02*
X110490000Y-128270000D01*
X106680000Y-128270000D02*
X109220000Y-128270000D01*
G04 #@! TO.N,/D4*
X102070000Y-106060000D02*
X102070000Y-104940000D01*
X102870000Y-104140000D02*
X102870000Y-103505000D01*
X102070000Y-104940000D02*
X102870000Y-104140000D01*
X107950000Y-100330000D02*
X107950000Y-91440000D01*
X107950000Y-91440000D02*
X111760000Y-87630000D01*
X106045000Y-101600000D02*
X106680000Y-101600000D01*
X106680000Y-101600000D02*
X107950000Y-100330000D01*
X111760000Y-87630000D02*
X111760000Y-87075000D01*
G04 #@! TO.N,/D5*
X106045000Y-94615000D02*
X106045000Y-87710000D01*
X106045000Y-87710000D02*
X106680000Y-87075000D01*
X105410000Y-95250000D02*
X106045000Y-94615000D01*
X105410000Y-100965000D02*
X105410000Y-100330000D01*
X101270000Y-104470000D02*
X101270000Y-103835000D01*
X101270000Y-103835000D02*
X101600000Y-103505000D01*
X101270000Y-105080000D02*
X101270000Y-104470000D01*
X105410000Y-100330000D02*
X105410000Y-95250000D01*
X101270000Y-106060000D02*
X101270000Y-105080000D01*
G04 #@! TO.N,/A7*
X104775000Y-113665000D02*
X104775000Y-114935000D01*
X106045000Y-116205000D02*
X107315000Y-116205000D01*
X104775000Y-114935000D02*
X106045000Y-116205000D01*
X104220000Y-125175000D02*
X104220000Y-126365000D01*
X104140000Y-125095000D02*
X104220000Y-125175000D01*
X107950000Y-116840000D02*
X107315000Y-116205000D01*
X107950000Y-116840000D02*
X107950000Y-120650000D01*
X107235000Y-125175000D02*
X107235000Y-126365000D01*
X107315000Y-125095000D02*
X107235000Y-125175000D01*
X104470000Y-111455000D02*
X104470000Y-106060000D01*
X104775000Y-111760000D02*
X104470000Y-111455000D01*
G04 #@! TO.N,/D31*
X101600000Y-122555000D02*
X102235000Y-123190000D01*
X101520000Y-125700002D02*
X101520000Y-126365000D01*
X102235000Y-124985002D02*
X101520000Y-125700002D01*
X102235000Y-123190000D02*
X102235000Y-124985002D01*
X102070000Y-119545000D02*
X102070000Y-117460000D01*
X101600000Y-120015000D02*
X102070000Y-119545000D01*
X101600000Y-122555000D02*
X101600000Y-120015000D01*
G04 #@! TO.N,/MOSI*
X100370000Y-93560000D02*
X101370000Y-93560000D01*
X97790000Y-92710000D02*
X97790000Y-81915000D01*
X98425000Y-100330000D02*
X98425000Y-99695000D01*
X98425000Y-99695000D02*
X97790000Y-99060000D01*
X98425000Y-101600000D02*
X98425000Y-100330000D01*
X97790000Y-93345000D02*
X97790000Y-92710000D01*
X95885000Y-106680000D02*
X97790000Y-104775000D01*
X95885000Y-107315000D02*
X95885000Y-106680000D01*
X96330000Y-107760000D02*
X95885000Y-107315000D01*
X97170000Y-107760000D02*
X96330000Y-107760000D01*
X97790000Y-99060000D02*
X97790000Y-93345000D01*
X98425000Y-104140000D02*
X98425000Y-101600000D01*
X97790000Y-104775000D02*
X98425000Y-104140000D01*
X96965000Y-107760000D02*
X97170000Y-107760000D01*
X97155000Y-107745000D02*
X97170000Y-107760000D01*
G04 #@! TO.N,/MISO*
X97155000Y-80010000D02*
X97155000Y-82550000D01*
X97155000Y-82550000D02*
X97155000Y-89535000D01*
X97155000Y-89535000D02*
X97155000Y-90170000D01*
X97155000Y-90170000D02*
X97155000Y-99695000D01*
X97170000Y-108560000D02*
X95860000Y-108560000D01*
X95250000Y-107950000D02*
X95250000Y-106045000D01*
X95860000Y-108560000D02*
X95250000Y-107950000D01*
X97790000Y-103505000D02*
X97790000Y-100330000D01*
X97790000Y-100330000D02*
X97155000Y-99695000D01*
X97790000Y-103505000D02*
X95250000Y-106045000D01*
X101370000Y-89560000D02*
X100370000Y-89560000D01*
X97155000Y-79375000D02*
X97155000Y-78105000D01*
X97155000Y-80010000D02*
X97155000Y-79375000D01*
X97155000Y-78105000D02*
X98425000Y-76835000D01*
G04 #@! TO.N,/SCK*
X95250000Y-99060000D02*
X96520000Y-97790000D01*
X93345000Y-100965000D02*
X95250000Y-99060000D01*
X93980000Y-103505000D02*
X93345000Y-102870000D01*
X96520000Y-97790000D02*
X96520000Y-91440000D01*
X93345000Y-102870000D02*
X93345000Y-100965000D01*
X94615000Y-105410000D02*
X95250000Y-104775000D01*
X94615000Y-103505000D02*
X93980000Y-103505000D01*
X95250000Y-104140000D02*
X94615000Y-103505000D01*
X95250000Y-104775000D02*
X95250000Y-104140000D01*
X95390000Y-109360000D02*
X94615000Y-108585000D01*
X94615000Y-108585000D02*
X94615000Y-105410000D01*
X97170000Y-109360000D02*
X95390000Y-109360000D01*
X96520000Y-81915000D02*
X94615000Y-80010000D01*
X96520000Y-91440000D02*
X96520000Y-81915000D01*
X101370000Y-91560000D02*
X100370000Y-91560000D01*
X94615000Y-80010000D02*
X94615000Y-78105000D01*
X94615000Y-78105000D02*
X95885000Y-76835000D01*
G04 #@! TO.N,/D2*
X99695000Y-99060000D02*
X99695000Y-98425000D01*
X99695000Y-98425000D02*
X99060000Y-97790000D01*
X99695000Y-100330000D02*
X99695000Y-99060000D01*
X99860000Y-85560000D02*
X99060000Y-86360000D01*
X99060000Y-86360000D02*
X99060000Y-89535000D01*
X99060000Y-89535000D02*
X99060000Y-97790000D01*
X99695000Y-103505000D02*
X99695000Y-100330000D01*
X100370000Y-85560000D02*
X101370000Y-85560000D01*
X100370000Y-85560000D02*
X99860000Y-85560000D01*
X98235000Y-115760000D02*
X99060000Y-114935000D01*
X98235000Y-115760000D02*
X99060000Y-114935000D01*
X97170000Y-115760000D02*
X98235000Y-115760000D01*
G04 #@! TO.N,/D3*
X118745000Y-125730000D02*
X119380000Y-125095000D01*
X121920000Y-102235000D02*
X121920000Y-88265000D01*
X119380000Y-104775000D02*
X121920000Y-102235000D01*
X119380000Y-125095000D02*
X119380000Y-104775000D01*
X113665000Y-124460000D02*
X116205000Y-124460000D01*
X116205000Y-124460000D02*
X117475000Y-125730000D01*
X113030000Y-124460000D02*
X113665000Y-124460000D01*
X117475000Y-125730000D02*
X118745000Y-125730000D01*
X97155000Y-123825000D02*
X97790000Y-124460000D01*
X98870000Y-118300000D02*
X98870000Y-117460000D01*
X97155000Y-119380000D02*
X97155000Y-120015000D01*
X97790000Y-118745000D02*
X97155000Y-119380000D01*
X98425000Y-118745000D02*
X97790000Y-118745000D01*
X98870000Y-118300000D02*
X98425000Y-118745000D01*
X97155000Y-120015000D02*
X97155000Y-123825000D01*
X118745000Y-85090000D02*
X121920000Y-88265000D01*
X115570000Y-83820000D02*
X116840000Y-85090000D01*
X116840000Y-85090000D02*
X118745000Y-85090000D01*
X106680000Y-124460000D02*
X108585000Y-124460000D01*
X97790000Y-124460000D02*
X98425000Y-124460000D01*
X99060000Y-124460000D02*
X100965000Y-124460000D01*
X98425000Y-124460000D02*
X99060000Y-124460000D01*
X106680000Y-124460000D02*
X108585000Y-124460000D01*
X108585000Y-124460000D02*
X113030000Y-124460000D01*
G04 #@! TO.N,/D30*
X118110000Y-124460000D02*
X117475000Y-124460000D01*
X117475000Y-124460000D02*
X116840000Y-123825000D01*
X114300000Y-123825000D02*
X116840000Y-123825000D01*
X99670000Y-118745000D02*
X99670000Y-117460000D01*
X97790000Y-123190000D02*
X98425000Y-123825000D01*
X97790000Y-120650000D02*
X97790000Y-123190000D01*
X99670000Y-118770000D02*
X99060000Y-119380000D01*
X99060000Y-119380000D02*
X98425000Y-119380000D01*
X98425000Y-119380000D02*
X97790000Y-120015000D01*
X97790000Y-120015000D02*
X97790000Y-120650000D01*
X99670000Y-118745000D02*
X99670000Y-118770000D01*
X99060000Y-123825000D02*
X99695000Y-123825000D01*
X98425000Y-123825000D02*
X99060000Y-123825000D01*
X107315000Y-123825000D02*
X113030000Y-123825000D01*
X99695000Y-123825000D02*
X101600000Y-123825000D01*
X113030000Y-123825000D02*
X114300000Y-123825000D01*
G04 #@! TO.N,/D8*
X105410000Y-92075000D02*
X105410000Y-77615000D01*
X105410000Y-77615000D02*
X104630000Y-76835000D01*
X105410000Y-93980000D02*
X105410000Y-92075000D01*
X100470000Y-114795000D02*
X100965000Y-114300000D01*
X100965000Y-114300000D02*
X100965000Y-111760000D01*
X100470000Y-117460000D02*
X100470000Y-114795000D01*
X104775000Y-76980000D02*
X104630000Y-76835000D01*
G04 #@! TO.N,/D9*
X116205000Y-123190000D02*
X116840000Y-123190000D01*
X116840000Y-123190000D02*
X118110000Y-121920000D01*
X118110000Y-121920000D02*
X117475000Y-121920000D01*
X114300000Y-123190000D02*
X116205000Y-123190000D01*
X101270000Y-119075000D02*
X101270000Y-117460000D01*
X101270000Y-119075000D02*
X100330000Y-120015000D01*
X98425000Y-120650000D02*
X98425000Y-122555000D01*
X99060000Y-120015000D02*
X98425000Y-120650000D01*
X100330000Y-120015000D02*
X99060000Y-120015000D01*
X99060000Y-123190000D02*
X100965000Y-123190000D01*
X98425000Y-122555000D02*
X99060000Y-123190000D01*
X106045000Y-123190000D02*
X113030000Y-123190000D01*
X113030000Y-123190000D02*
X114300000Y-123190000D01*
G04 #@! TO.N,/D24*
X113665000Y-122505000D02*
X114985000Y-122505000D01*
X114985000Y-122505000D02*
X118110000Y-119380000D01*
X112395000Y-122505000D02*
X113665000Y-122505000D01*
X107315000Y-122505000D02*
X112395000Y-122505000D01*
X106070000Y-121260000D02*
X107315000Y-122505000D01*
X106070000Y-120040000D02*
X106070000Y-121260000D01*
X106070000Y-120040000D02*
X106070000Y-117460000D01*
G04 #@! TO.N,/D25*
X111760000Y-121920000D02*
X113030000Y-121920000D01*
X113030000Y-121920000D02*
X118110000Y-116840000D01*
X106870000Y-117460000D02*
X106870000Y-119570000D01*
X106870000Y-119570000D02*
X106870000Y-120460000D01*
X106870000Y-120460000D02*
X106870000Y-120840000D01*
X106870000Y-120840000D02*
X107950000Y-121920000D01*
X107950000Y-121920000D02*
X108585000Y-121920000D01*
X108585000Y-121920000D02*
X111760000Y-121920000D01*
G04 #@! TO.N,/D26*
X114300000Y-118110000D02*
X118110000Y-114300000D01*
X110045000Y-115760000D02*
X108570000Y-115760000D01*
X110045000Y-115760000D02*
X110490000Y-116205000D01*
X110490000Y-118110000D02*
X111125000Y-118745000D01*
X110490000Y-116205000D02*
X110490000Y-118110000D01*
X111125000Y-118745000D02*
X113665000Y-118745000D01*
X113665000Y-118745000D02*
X114300000Y-118110000D01*
X108570000Y-115760000D02*
X108775000Y-115760000D01*
G04 #@! TO.N,/D27*
X107315000Y-114935000D02*
X106680000Y-115570000D01*
X114935000Y-115570000D02*
X116205000Y-114300000D01*
X116205000Y-114300000D02*
X116840000Y-113665000D01*
X116840000Y-113665000D02*
X118110000Y-112395000D01*
X118110000Y-112395000D02*
X118110000Y-111760000D01*
X107340000Y-114960000D02*
X107315000Y-114935000D01*
X108570000Y-114960000D02*
X107340000Y-114960000D01*
G04 #@! TO.N,/D28*
X114300000Y-114300000D02*
X114935000Y-113665000D01*
X114935000Y-113665000D02*
X115570000Y-113030000D01*
X115570000Y-113030000D02*
X116205000Y-113030000D01*
X116840000Y-112395000D02*
X116840000Y-111125000D01*
X116205000Y-113030000D02*
X116840000Y-112395000D01*
X118110000Y-109220000D02*
X118110000Y-109855000D01*
X118110000Y-109855000D02*
X116840000Y-111125000D01*
X114300000Y-114935000D02*
X114300000Y-114300000D01*
X113030000Y-118110000D02*
X113665000Y-117475000D01*
X113665000Y-117475000D02*
X113665000Y-115570000D01*
X114300000Y-114935000D02*
X113665000Y-115570000D01*
X113665000Y-115570000D02*
X113665000Y-117475000D01*
X111760000Y-118110000D02*
X113030000Y-118110000D01*
X111125000Y-115570000D02*
X111125000Y-117475000D01*
X111125000Y-117475000D02*
X111760000Y-118110000D01*
X109715000Y-114160000D02*
X110350000Y-114160000D01*
X110490000Y-114300000D02*
X110490000Y-114935000D01*
X110350000Y-114160000D02*
X110490000Y-114300000D01*
X108570000Y-114160000D02*
X109715000Y-114160000D01*
X110490000Y-114935000D02*
X111125000Y-115570000D01*
G04 #@! TO.N,/D29*
X111760000Y-114935000D02*
X113030000Y-114935000D01*
X116205000Y-108585000D02*
X118110000Y-106680000D01*
X116205000Y-111760000D02*
X116205000Y-108585000D01*
X115570000Y-112395000D02*
X116205000Y-111760000D01*
X114935000Y-112395000D02*
X115570000Y-112395000D01*
X113665000Y-113665000D02*
X114935000Y-112395000D01*
X113665000Y-114300000D02*
X113665000Y-113665000D01*
X113030000Y-114935000D02*
X113665000Y-114300000D01*
X108570000Y-113360000D02*
X110820000Y-113360000D01*
X111125000Y-113665000D02*
X111125000Y-114300000D01*
X110820000Y-113360000D02*
X111125000Y-113665000D01*
X110820000Y-113360000D02*
X111125000Y-113665000D01*
X111125000Y-114300000D02*
X111760000Y-114935000D01*
X111125000Y-114300000D02*
X111760000Y-114935000D01*
G04 #@! TO.N,/A0*
X113030000Y-102235000D02*
X114935000Y-102235000D01*
X114935000Y-102235000D02*
X115570000Y-101600000D01*
X112315000Y-104775000D02*
X112315000Y-102950000D01*
X112315000Y-102950000D02*
X113030000Y-102235000D01*
X112315000Y-106680000D02*
X112315000Y-104775000D01*
X112315000Y-106680000D02*
X112315000Y-106600000D01*
X111760000Y-109220000D02*
X111760000Y-107235000D01*
X111760000Y-107235000D02*
X112315000Y-106680000D01*
X108570000Y-110160000D02*
X110820000Y-110160000D01*
X110820000Y-110160000D02*
X111760000Y-109220000D01*
G04 #@! TO.N,/A1*
X111760000Y-104140000D02*
X111760000Y-99695000D01*
X111760000Y-99695000D02*
X112395000Y-99060000D01*
X112395000Y-99060000D02*
X112395000Y-98505000D01*
X111125000Y-105410000D02*
X111125000Y-104775000D01*
X111125000Y-104775000D02*
X111760000Y-104140000D01*
X114505000Y-98505000D02*
X115015000Y-98505000D01*
X112395000Y-98505000D02*
X114505000Y-98505000D01*
X115015000Y-98505000D02*
X115570000Y-99060000D01*
X115015000Y-98505000D02*
X115570000Y-99060000D01*
X108570000Y-109360000D02*
X110350000Y-109360000D01*
X110350000Y-109360000D02*
X111125000Y-108585000D01*
X111125000Y-108585000D02*
X111125000Y-106680000D01*
X111125000Y-105410000D02*
X111125000Y-106680000D01*
G04 #@! TO.N,/A2*
X110490000Y-104775000D02*
X110490000Y-104140000D01*
X110490000Y-104140000D02*
X111125000Y-103505000D01*
X111125000Y-103505000D02*
X111125000Y-99695000D01*
X113030000Y-93980000D02*
X115570000Y-96520000D01*
X111125000Y-94615000D02*
X111760000Y-93980000D01*
X111760000Y-93980000D02*
X113030000Y-93980000D01*
X111125000Y-99695000D02*
X111125000Y-98425000D01*
X111125000Y-98425000D02*
X111125000Y-97790000D01*
X111125000Y-97790000D02*
X111125000Y-94615000D01*
X114935000Y-97155000D02*
X115570000Y-96520000D01*
X115570000Y-96520000D02*
X114935000Y-97155000D01*
X110490000Y-107950000D02*
X110490000Y-104775000D01*
X109880000Y-108560000D02*
X110490000Y-107950000D01*
X114935000Y-97155000D02*
X115570000Y-96520000D01*
X108570000Y-108560000D02*
X109880000Y-108560000D01*
G04 #@! TO.N,/A3*
X109855000Y-104140000D02*
X109855000Y-103505000D01*
X109855000Y-103505000D02*
X110490000Y-102870000D01*
X110490000Y-102870000D02*
X110490000Y-98425000D01*
X110490000Y-98425000D02*
X110490000Y-93980000D01*
X114935000Y-93345000D02*
X115570000Y-93980000D01*
X111125000Y-93345000D02*
X114935000Y-93345000D01*
X110490000Y-93980000D02*
X111125000Y-93345000D01*
X109855000Y-107315000D02*
X109855000Y-104140000D01*
X109410000Y-107760000D02*
X109855000Y-107315000D01*
X108570000Y-107760000D02*
X109410000Y-107760000D01*
G04 #@! TO.N,/A4*
X107315000Y-104775000D02*
X109220000Y-102870000D01*
X109220000Y-102870000D02*
X109855000Y-102235000D01*
X113030000Y-91440000D02*
X113665000Y-91440000D01*
X109855000Y-93345000D02*
X111760000Y-91440000D01*
X111760000Y-91440000D02*
X113030000Y-91440000D01*
X109855000Y-98425000D02*
X109855000Y-93345000D01*
X109855000Y-102235000D02*
X109855000Y-98425000D01*
X115570000Y-91440000D02*
X113665000Y-91440000D01*
X113665000Y-91440000D02*
X114300000Y-91440000D01*
X114300000Y-91440000D02*
X115570000Y-91440000D01*
X106870000Y-105220000D02*
X107315000Y-104775000D01*
X106870000Y-106060000D02*
X106870000Y-105220000D01*
G04 #@! TO.N,/A5*
X106680699Y-104140699D02*
X106680699Y-104139301D01*
X106680699Y-104139301D02*
X109220000Y-101600000D01*
X109220000Y-92710000D02*
X112395000Y-89535000D01*
X112395000Y-89535000D02*
X113665000Y-89535000D01*
X109220000Y-97790000D02*
X109220000Y-92710000D01*
X109220000Y-101600000D02*
X109220000Y-97790000D01*
X115570000Y-88900000D02*
X114300000Y-88900000D01*
X114300000Y-88900000D02*
X113665000Y-89535000D01*
X113665000Y-89535000D02*
X114300000Y-88900000D01*
X106070000Y-104751398D02*
X106680699Y-104140699D01*
X106070000Y-106060000D02*
X106070000Y-104751398D01*
G04 #@! TO.N,/A6*
X106045000Y-103505000D02*
X108585000Y-100965000D01*
X113030000Y-88900000D02*
X114300000Y-87630000D01*
X108585000Y-92075000D02*
X111760000Y-88900000D01*
X111760000Y-88900000D02*
X113030000Y-88900000D01*
X108585000Y-97155000D02*
X108585000Y-92075000D01*
X108585000Y-100965000D02*
X108585000Y-97155000D01*
X115570000Y-86360000D02*
X114300000Y-87630000D01*
X114300000Y-87630000D02*
X115570000Y-86360000D01*
X105270000Y-104280000D02*
X106045000Y-103505000D01*
X105270000Y-104915000D02*
X105270000Y-104280000D01*
X105270000Y-106060000D02*
X105270000Y-104915000D01*
G04 #@! TO.N,/D6*
X100470000Y-106060000D02*
X100470000Y-107455000D01*
X100470000Y-107455000D02*
X100965000Y-107950000D01*
X113665000Y-102870000D02*
X114935000Y-102870000D01*
X114935000Y-102870000D02*
X116205000Y-102870000D01*
X116205000Y-102870000D02*
X119380000Y-102870000D01*
X119380000Y-102870000D02*
X120650000Y-101600000D01*
G04 #@! TO.N,/D7*
X113665000Y-101600000D02*
X114300000Y-100965000D01*
X114935000Y-100330000D02*
X119380000Y-100330000D01*
X120650000Y-99060000D02*
X119380000Y-100330000D01*
X114300000Y-100965000D02*
X114935000Y-100330000D01*
X99670000Y-106060000D02*
X99670000Y-107290000D01*
X99670000Y-107290000D02*
X99695000Y-107315000D01*
G04 #@! TO.N,/SS*
X101370000Y-83560000D02*
X100370000Y-83560000D01*
X99060000Y-99695000D02*
X99060000Y-99060000D01*
X98870000Y-104330000D02*
X98870000Y-106060000D01*
X98425000Y-98425000D02*
X98425000Y-97790000D01*
X99060000Y-104140000D02*
X99060000Y-100965000D01*
X98870000Y-104330000D02*
X99060000Y-104140000D01*
X98425000Y-85725000D02*
X98425000Y-88265000D01*
X98425000Y-88265000D02*
X98425000Y-89535000D01*
X98425000Y-89535000D02*
X98425000Y-97790000D01*
X98425000Y-84455000D02*
X99320000Y-83560000D01*
X99320000Y-83560000D02*
X101370000Y-83560000D01*
X98425000Y-85725000D02*
X98425000Y-84455000D01*
X99060000Y-100965000D02*
X99060000Y-99695000D01*
X99060000Y-99060000D02*
X98425000Y-98425000D01*
G04 #@! TO.N,/RSET*
X94615000Y-75565000D02*
X93345000Y-76835000D01*
X100330000Y-75565000D02*
X94615000Y-75565000D01*
X104775000Y-80010000D02*
X100330000Y-75565000D01*
X104775000Y-80645000D02*
X104775000Y-80010000D01*
X104775000Y-94615000D02*
X104775000Y-80645000D01*
X83185000Y-147320000D02*
X83185000Y-147955000D01*
X83185000Y-147955000D02*
X83820000Y-148590000D01*
X85090000Y-149860000D02*
X85725000Y-149860000D01*
X83820000Y-148590000D02*
X85090000Y-149860000D01*
X87630000Y-149860000D02*
X88265000Y-149860000D01*
X88265000Y-149860000D02*
X90805000Y-147320000D01*
X90805000Y-147320000D02*
X91440000Y-147320000D01*
X91440000Y-147320000D02*
X92075000Y-147320000D01*
X92075000Y-147320000D02*
X92790000Y-147320000D01*
X92790000Y-147320000D02*
X94060000Y-146050000D01*
X93345000Y-121285000D02*
X93980000Y-121285000D01*
X97790000Y-116841398D02*
X97791398Y-116840000D01*
X97790000Y-117475000D02*
X97790000Y-116841398D01*
X93980000Y-121285000D02*
X97790000Y-117475000D01*
X83185000Y-141605000D02*
X83185000Y-147320000D01*
X85725000Y-149860000D02*
X87630000Y-149860000D01*
X83185000Y-141605000D02*
X83185000Y-139700000D01*
X83185000Y-123825000D02*
X83185000Y-123190000D01*
X85090000Y-121285000D02*
X93345000Y-121285000D01*
X83185000Y-123190000D02*
X85090000Y-121285000D01*
X83185000Y-130175000D02*
X83185000Y-123825000D01*
X99695000Y-113665000D02*
X99695000Y-111760000D01*
X97791398Y-116840000D02*
X98425699Y-116205699D01*
X99695000Y-114935000D02*
X99695000Y-113665000D01*
X99059301Y-116205699D02*
X99695000Y-115570000D01*
X99695000Y-115570000D02*
X99695000Y-114935000D01*
X98425699Y-116205699D02*
X99059301Y-116205699D01*
X83185000Y-130175000D02*
X83185000Y-139700000D01*
X93960000Y-146050000D02*
X97075000Y-146050000D01*
X97170000Y-110160000D02*
X98120000Y-110160000D01*
X98120000Y-110160000D02*
X98425000Y-109855000D01*
D37*
G04 #@! TO.N,/RAW+*
X121285000Y-150529998D02*
X121285000Y-150495000D01*
X123825000Y-147955000D02*
X131445000Y-147955000D01*
X121285000Y-150495000D02*
X123825000Y-147955000D01*
X114935000Y-150529998D02*
X114935000Y-150495000D01*
X114935000Y-150495000D02*
X113030000Y-148590000D01*
X113030000Y-148590000D02*
X113030000Y-147955000D01*
X114935000Y-150529998D02*
X121285000Y-150529998D01*
G04 #@! TO.N,/RAW-*
X132500000Y-138100000D02*
X132500000Y-128565000D01*
X132500000Y-128565000D02*
X132715000Y-128350000D01*
G04 #@! TO.N,Net-(D2-Pad2)*
X132715000Y-125650000D02*
X132715000Y-121495000D01*
X140335000Y-128330000D02*
X138490000Y-128330000D01*
X135810000Y-125650000D02*
X132715000Y-125650000D01*
X138490000Y-128330000D02*
X135810000Y-125650000D01*
G04 #@! TO.N,/RAW+FUSE*
X115570000Y-126365000D02*
X116205000Y-127000000D01*
X109935000Y-126365000D02*
X115570000Y-126365000D01*
X145415000Y-131445000D02*
X145415000Y-128330000D01*
G04 #@! TO.N,Net-(D2-Pad1)*
X132715000Y-115995000D02*
X135045000Y-115995000D01*
X135255000Y-116205000D02*
X135255000Y-119180000D01*
X135045000Y-115995000D02*
X135255000Y-116205000D01*
X142875000Y-119180000D02*
X142875000Y-124460000D01*
X142875000Y-119180000D02*
X150060000Y-119180000D01*
X150060000Y-119180000D02*
X150495000Y-118745000D01*
X142875000Y-119180000D02*
X135255000Y-119180000D01*
X141605000Y-108585000D02*
X141605000Y-111125000D01*
X142875000Y-112395000D02*
X142875000Y-119180000D01*
X141605000Y-111125000D02*
X142875000Y-112395000D01*
G04 #@! TO.N,VCC*
X121920000Y-151130000D02*
X123825000Y-149225000D01*
X123825000Y-149225000D02*
X124460000Y-149225000D01*
X124460000Y-149225000D02*
X146685000Y-149225000D01*
X92075000Y-106045000D02*
X93400000Y-107370000D01*
X93400000Y-107370000D02*
X93400000Y-107450000D01*
X101370000Y-97560000D02*
X100370000Y-97560000D01*
X104160000Y-96520000D02*
X104140000Y-96520000D01*
X104140000Y-96520000D02*
X103505000Y-95885000D01*
X103505000Y-95885000D02*
X103505000Y-80010000D01*
X102870000Y-97560000D02*
X103275000Y-97560000D01*
X103275000Y-97560000D02*
X104160000Y-98445000D01*
X104160000Y-98445000D02*
X104160000Y-99060000D01*
X100370000Y-97560000D02*
X102870000Y-97560000D01*
X102870000Y-97560000D02*
X103120000Y-97560000D01*
X103120000Y-97560000D02*
X104160000Y-96520000D01*
X103505000Y-80010000D02*
X102870000Y-79375000D01*
X102870000Y-79375000D02*
X98425000Y-79375000D01*
X104160000Y-99060000D02*
X104160000Y-100310000D01*
X103485000Y-100985000D02*
X103485000Y-102235000D01*
X104160000Y-100310000D02*
X103485000Y-100985000D01*
X103670000Y-104775000D02*
X103670000Y-102420000D01*
X103670000Y-102420000D02*
X103485000Y-102235000D01*
X111125000Y-112560000D02*
X111270000Y-112560000D01*
X111270000Y-112560000D02*
X112395000Y-113685000D01*
X93345000Y-108585000D02*
X93345000Y-107505000D01*
X152400000Y-108585000D02*
X146685000Y-108585000D01*
X154305000Y-110490000D02*
X152400000Y-108585000D01*
X154305000Y-141605000D02*
X154305000Y-110490000D01*
X146685000Y-149225000D02*
X154305000Y-141605000D01*
X102870000Y-128270000D02*
X105410000Y-130810000D01*
X100330000Y-130810000D02*
X102235000Y-128905000D01*
X102235000Y-128905000D02*
X102870000Y-128270000D01*
X100330000Y-129540000D02*
X95805000Y-125015000D01*
X95805000Y-125015000D02*
X93980000Y-125015000D01*
X99695000Y-149225000D02*
X100965000Y-150495000D01*
X101600000Y-151130000D02*
X109855000Y-151130000D01*
X111125000Y-151130000D02*
X121920000Y-151130000D01*
X100965000Y-150495000D02*
X101600000Y-151130000D01*
X109855000Y-151130000D02*
X111125000Y-151130000D01*
X91360000Y-146050000D02*
X92075000Y-146050000D01*
X92075000Y-146050000D02*
X93345000Y-144780000D01*
X99695000Y-149225000D02*
X101600000Y-147320000D01*
X100965000Y-144780000D02*
X93345000Y-144780000D01*
X101600000Y-145415000D02*
X100965000Y-144780000D01*
X101600000Y-147320000D02*
X101600000Y-145415000D01*
X88265000Y-144780000D02*
X89535000Y-146050000D01*
X89535000Y-146050000D02*
X91360000Y-146050000D01*
X85090000Y-144145000D02*
X83820000Y-142875000D01*
X88265000Y-144780000D02*
X87630000Y-144145000D01*
X87630000Y-144145000D02*
X85090000Y-144145000D01*
X83820000Y-132080000D02*
X85090000Y-130810000D01*
X83820000Y-142875000D02*
X83820000Y-132080000D01*
X86360000Y-126365000D02*
X91440000Y-126365000D01*
X92790000Y-125015000D02*
X93980000Y-125015000D01*
X91440000Y-126365000D02*
X92790000Y-125015000D01*
X85090000Y-130810000D02*
X85090000Y-127635000D01*
X85090000Y-127635000D02*
X86360000Y-126365000D01*
X85090000Y-127635000D02*
X86360000Y-126365000D01*
X100330000Y-129540000D02*
X100330000Y-130810000D01*
X105410000Y-130810000D02*
X106680000Y-129540000D01*
X119380000Y-129540000D02*
X120650000Y-130810000D01*
X106680000Y-129540000D02*
X119380000Y-129540000D01*
X100800000Y-110960000D02*
X102705000Y-110960000D01*
X102705000Y-110960000D02*
X102870000Y-111125000D01*
X99060000Y-110960000D02*
X100800000Y-110960000D01*
X93345000Y-107930000D02*
X93345000Y-108585000D01*
X93345000Y-108585000D02*
X95720000Y-110960000D01*
X95720000Y-110960000D02*
X97170000Y-110960000D01*
X103340000Y-112560000D02*
X103505000Y-112560000D01*
X103505000Y-112560000D02*
X108570000Y-112560000D01*
X102870000Y-112090000D02*
X103340000Y-112560000D01*
X102870000Y-111760000D02*
X102870000Y-112090000D01*
X102870000Y-111125000D02*
X102870000Y-111760000D01*
X102870000Y-113030000D02*
X103340000Y-112560000D01*
X108570000Y-112560000D02*
X111125000Y-112560000D01*
X102870000Y-128270000D02*
X102870000Y-121305000D01*
X102870000Y-121305000D02*
X102890000Y-121285000D01*
X102870000Y-121265000D02*
X102890000Y-121285000D01*
X103670000Y-106060000D02*
X103670000Y-104775000D01*
X97170000Y-110960000D02*
X99060000Y-110960000D01*
X103670000Y-106060000D02*
X103670000Y-110325000D01*
X103670000Y-110325000D02*
X102870000Y-111125000D01*
X102870000Y-113030000D02*
X102870000Y-117460000D01*
X102870000Y-117460000D02*
X102870000Y-121265000D01*
D38*
G04 #@! TO.N,Net-(U5-Pad8)*
X96780000Y-102005000D02*
X96780000Y-101005000D01*
G04 #@! TO.N,Net-(U5-Pad3)*
X86780000Y-102005000D02*
X86780000Y-101005000D01*
G04 #@! TO.N,Net-(U5-Pad4)*
X88780000Y-102005000D02*
X88780000Y-101005000D01*
G04 #@! TO.N,Net-(U5-Pad5)*
X90780000Y-102005000D02*
X90780000Y-101005000D01*
G04 #@! TO.N,Net-(U5-Pad7)*
X94780000Y-102005000D02*
X94780000Y-101005000D01*
G04 #@! TD*
D39*
G04 #@! TO.N,GND*
G36*
X90191843Y-129982765D02*
X90332191Y-130192809D01*
X90542235Y-130333157D01*
X90790000Y-130382440D01*
X92090000Y-130382440D01*
X92337765Y-130333157D01*
X92547809Y-130192809D01*
X92688157Y-129982765D01*
X92735451Y-129745000D01*
X96920199Y-129745000D01*
X97030000Y-129854802D01*
X97030000Y-130100149D01*
X97030001Y-132005148D01*
X97015112Y-132080000D01*
X97030001Y-132154851D01*
X97030001Y-132154852D01*
X97074097Y-132376537D01*
X97242072Y-132627929D01*
X97305528Y-132670329D01*
X97665000Y-133029802D01*
X97665001Y-136450148D01*
X97650112Y-136525000D01*
X97665001Y-136599851D01*
X97665001Y-136599852D01*
X97709097Y-136821537D01*
X97877072Y-137072929D01*
X97940528Y-137115329D01*
X98575527Y-137750329D01*
X98575530Y-137750331D01*
X98888791Y-138063592D01*
X98815908Y-138430000D01*
X98931161Y-139009418D01*
X99259375Y-139500625D01*
X99750582Y-139828839D01*
X100183744Y-139915000D01*
X100476256Y-139915000D01*
X100909418Y-139828839D01*
X101400625Y-139500625D01*
X101728839Y-139009418D01*
X101844092Y-138430000D01*
X101771209Y-138063592D01*
X101914802Y-137920000D01*
X103825199Y-137920000D01*
X103968791Y-138063592D01*
X103895908Y-138430000D01*
X104011161Y-139009418D01*
X104339375Y-139500625D01*
X104830582Y-139828839D01*
X105263744Y-139915000D01*
X105556256Y-139915000D01*
X105989418Y-139828839D01*
X106480625Y-139500625D01*
X106808839Y-139009418D01*
X106924092Y-138430000D01*
X106808839Y-137850582D01*
X106656785Y-137623017D01*
X107799473Y-136480329D01*
X107862929Y-136437929D01*
X108002890Y-136228463D01*
X108030904Y-136186538D01*
X108072569Y-135977071D01*
X108075000Y-135964852D01*
X108075000Y-135964848D01*
X108089888Y-135890000D01*
X108075000Y-135815152D01*
X108075000Y-131759801D01*
X108264802Y-131570000D01*
X117795199Y-131570000D01*
X117985000Y-131759802D01*
X117985001Y-136450148D01*
X117970112Y-136525000D01*
X117985001Y-136599851D01*
X117985001Y-136599852D01*
X118029097Y-136821537D01*
X118197072Y-137072929D01*
X118260528Y-137115329D01*
X119208791Y-138063592D01*
X119135908Y-138430000D01*
X119251161Y-139009418D01*
X119579375Y-139500625D01*
X120070582Y-139828839D01*
X120503744Y-139915000D01*
X120796256Y-139915000D01*
X121229418Y-139828839D01*
X121720625Y-139500625D01*
X122048839Y-139009418D01*
X122164092Y-138430000D01*
X122091209Y-138063592D01*
X122428000Y-137726801D01*
X122428000Y-144918704D01*
X122105899Y-144596603D01*
X121063917Y-144165000D01*
X119936083Y-144165000D01*
X118894101Y-144596603D01*
X118096603Y-145394101D01*
X117665000Y-146436083D01*
X117665000Y-147563917D01*
X118096603Y-148605899D01*
X118894101Y-149403397D01*
X119598088Y-149694998D01*
X115315866Y-149694998D01*
X115161679Y-149540811D01*
X115408969Y-149590000D01*
X115731031Y-149590000D01*
X116207945Y-149495136D01*
X116748769Y-149133769D01*
X117110136Y-148592945D01*
X117237031Y-147955000D01*
X117110136Y-147317055D01*
X116748769Y-146776231D01*
X116207945Y-146414864D01*
X115731031Y-146320000D01*
X115408969Y-146320000D01*
X114932055Y-146414864D01*
X114586900Y-146645489D01*
X114487809Y-146497191D01*
X114277765Y-146356843D01*
X114030000Y-146307560D01*
X112030000Y-146307560D01*
X111782235Y-146356843D01*
X111572191Y-146497191D01*
X111431843Y-146707235D01*
X111382560Y-146955000D01*
X111382560Y-148955000D01*
X111431843Y-149202765D01*
X111572191Y-149412809D01*
X111782235Y-149553157D01*
X112030000Y-149602440D01*
X112861573Y-149602440D01*
X113554132Y-150295000D01*
X105763188Y-150295000D01*
X105970183Y-150106358D01*
X106216486Y-149581892D01*
X106095819Y-149352000D01*
X104902000Y-149352000D01*
X104902000Y-149372000D01*
X104648000Y-149372000D01*
X104648000Y-149352000D01*
X102362000Y-149352000D01*
X102362000Y-149372000D01*
X102108000Y-149372000D01*
X102108000Y-149352000D01*
X102088000Y-149352000D01*
X102088000Y-149098000D01*
X102108000Y-149098000D01*
X102108000Y-149078000D01*
X102362000Y-149078000D01*
X102362000Y-149098000D01*
X104648000Y-149098000D01*
X104648000Y-147904845D01*
X104902000Y-147904845D01*
X104902000Y-149098000D01*
X106095819Y-149098000D01*
X106216486Y-148868108D01*
X105970183Y-148343642D01*
X105541924Y-147953355D01*
X105131890Y-147783524D01*
X104902000Y-147904845D01*
X104648000Y-147904845D01*
X104418110Y-147783524D01*
X104008076Y-147953355D01*
X103579817Y-148343642D01*
X103505000Y-148502954D01*
X103430183Y-148343642D01*
X103001924Y-147953355D01*
X102591890Y-147783524D01*
X102362002Y-147904844D01*
X102362002Y-147740000D01*
X102323610Y-147740000D01*
X102386552Y-147645801D01*
X102435000Y-147402237D01*
X102435000Y-147402236D01*
X102451358Y-147320000D01*
X102435000Y-147237763D01*
X102435000Y-145497237D01*
X102451358Y-145415000D01*
X102386552Y-145089200D01*
X102386552Y-145089199D01*
X102202001Y-144812999D01*
X102132282Y-144766414D01*
X101613587Y-144247720D01*
X101567001Y-144177999D01*
X101290801Y-143993448D01*
X101047237Y-143945000D01*
X101047233Y-143945000D01*
X100965000Y-143928643D01*
X100882767Y-143945000D01*
X93427232Y-143945000D01*
X93344999Y-143928643D01*
X93262766Y-143945000D01*
X93262763Y-143945000D01*
X93019199Y-143993448D01*
X92742999Y-144177999D01*
X92696416Y-144247716D01*
X92178039Y-144766094D01*
X92110000Y-144752560D01*
X90610000Y-144752560D01*
X90362235Y-144801843D01*
X90152191Y-144942191D01*
X90011843Y-145152235D01*
X89999358Y-145215000D01*
X89880868Y-145215000D01*
X88913586Y-144247719D01*
X88913584Y-144247716D01*
X88278587Y-143612720D01*
X88232001Y-143542999D01*
X87955801Y-143358448D01*
X87712237Y-143310000D01*
X87712233Y-143310000D01*
X87630000Y-143293643D01*
X87547767Y-143310000D01*
X85435868Y-143310000D01*
X84655000Y-142529133D01*
X84655000Y-139857565D01*
X84943744Y-139915000D01*
X85236256Y-139915000D01*
X85669418Y-139828839D01*
X86160625Y-139500625D01*
X86488839Y-139009418D01*
X86604092Y-138430000D01*
X86531209Y-138063592D01*
X87479473Y-137115329D01*
X87542929Y-137072929D01*
X87682890Y-136863463D01*
X87710904Y-136821538D01*
X87742063Y-136664889D01*
X87755000Y-136599852D01*
X87755000Y-136599848D01*
X87769888Y-136525000D01*
X87755000Y-136450152D01*
X87755000Y-129854801D01*
X87864802Y-129745000D01*
X90144549Y-129745000D01*
X90191843Y-129982765D01*
X90191843Y-129982765D01*
G37*
X90191843Y-129982765D02*
X90332191Y-130192809D01*
X90542235Y-130333157D01*
X90790000Y-130382440D01*
X92090000Y-130382440D01*
X92337765Y-130333157D01*
X92547809Y-130192809D01*
X92688157Y-129982765D01*
X92735451Y-129745000D01*
X96920199Y-129745000D01*
X97030000Y-129854802D01*
X97030000Y-130100149D01*
X97030001Y-132005148D01*
X97015112Y-132080000D01*
X97030001Y-132154851D01*
X97030001Y-132154852D01*
X97074097Y-132376537D01*
X97242072Y-132627929D01*
X97305528Y-132670329D01*
X97665000Y-133029802D01*
X97665001Y-136450148D01*
X97650112Y-136525000D01*
X97665001Y-136599851D01*
X97665001Y-136599852D01*
X97709097Y-136821537D01*
X97877072Y-137072929D01*
X97940528Y-137115329D01*
X98575527Y-137750329D01*
X98575530Y-137750331D01*
X98888791Y-138063592D01*
X98815908Y-138430000D01*
X98931161Y-139009418D01*
X99259375Y-139500625D01*
X99750582Y-139828839D01*
X100183744Y-139915000D01*
X100476256Y-139915000D01*
X100909418Y-139828839D01*
X101400625Y-139500625D01*
X101728839Y-139009418D01*
X101844092Y-138430000D01*
X101771209Y-138063592D01*
X101914802Y-137920000D01*
X103825199Y-137920000D01*
X103968791Y-138063592D01*
X103895908Y-138430000D01*
X104011161Y-139009418D01*
X104339375Y-139500625D01*
X104830582Y-139828839D01*
X105263744Y-139915000D01*
X105556256Y-139915000D01*
X105989418Y-139828839D01*
X106480625Y-139500625D01*
X106808839Y-139009418D01*
X106924092Y-138430000D01*
X106808839Y-137850582D01*
X106656785Y-137623017D01*
X107799473Y-136480329D01*
X107862929Y-136437929D01*
X108002890Y-136228463D01*
X108030904Y-136186538D01*
X108072569Y-135977071D01*
X108075000Y-135964852D01*
X108075000Y-135964848D01*
X108089888Y-135890000D01*
X108075000Y-135815152D01*
X108075000Y-131759801D01*
X108264802Y-131570000D01*
X117795199Y-131570000D01*
X117985000Y-131759802D01*
X117985001Y-136450148D01*
X117970112Y-136525000D01*
X117985001Y-136599851D01*
X117985001Y-136599852D01*
X118029097Y-136821537D01*
X118197072Y-137072929D01*
X118260528Y-137115329D01*
X119208791Y-138063592D01*
X119135908Y-138430000D01*
X119251161Y-139009418D01*
X119579375Y-139500625D01*
X120070582Y-139828839D01*
X120503744Y-139915000D01*
X120796256Y-139915000D01*
X121229418Y-139828839D01*
X121720625Y-139500625D01*
X122048839Y-139009418D01*
X122164092Y-138430000D01*
X122091209Y-138063592D01*
X122428000Y-137726801D01*
X122428000Y-144918704D01*
X122105899Y-144596603D01*
X121063917Y-144165000D01*
X119936083Y-144165000D01*
X118894101Y-144596603D01*
X118096603Y-145394101D01*
X117665000Y-146436083D01*
X117665000Y-147563917D01*
X118096603Y-148605899D01*
X118894101Y-149403397D01*
X119598088Y-149694998D01*
X115315866Y-149694998D01*
X115161679Y-149540811D01*
X115408969Y-149590000D01*
X115731031Y-149590000D01*
X116207945Y-149495136D01*
X116748769Y-149133769D01*
X117110136Y-148592945D01*
X117237031Y-147955000D01*
X117110136Y-147317055D01*
X116748769Y-146776231D01*
X116207945Y-146414864D01*
X115731031Y-146320000D01*
X115408969Y-146320000D01*
X114932055Y-146414864D01*
X114586900Y-146645489D01*
X114487809Y-146497191D01*
X114277765Y-146356843D01*
X114030000Y-146307560D01*
X112030000Y-146307560D01*
X111782235Y-146356843D01*
X111572191Y-146497191D01*
X111431843Y-146707235D01*
X111382560Y-146955000D01*
X111382560Y-148955000D01*
X111431843Y-149202765D01*
X111572191Y-149412809D01*
X111782235Y-149553157D01*
X112030000Y-149602440D01*
X112861573Y-149602440D01*
X113554132Y-150295000D01*
X105763188Y-150295000D01*
X105970183Y-150106358D01*
X106216486Y-149581892D01*
X106095819Y-149352000D01*
X104902000Y-149352000D01*
X104902000Y-149372000D01*
X104648000Y-149372000D01*
X104648000Y-149352000D01*
X102362000Y-149352000D01*
X102362000Y-149372000D01*
X102108000Y-149372000D01*
X102108000Y-149352000D01*
X102088000Y-149352000D01*
X102088000Y-149098000D01*
X102108000Y-149098000D01*
X102108000Y-149078000D01*
X102362000Y-149078000D01*
X102362000Y-149098000D01*
X104648000Y-149098000D01*
X104648000Y-147904845D01*
X104902000Y-147904845D01*
X104902000Y-149098000D01*
X106095819Y-149098000D01*
X106216486Y-148868108D01*
X105970183Y-148343642D01*
X105541924Y-147953355D01*
X105131890Y-147783524D01*
X104902000Y-147904845D01*
X104648000Y-147904845D01*
X104418110Y-147783524D01*
X104008076Y-147953355D01*
X103579817Y-148343642D01*
X103505000Y-148502954D01*
X103430183Y-148343642D01*
X103001924Y-147953355D01*
X102591890Y-147783524D01*
X102362002Y-147904844D01*
X102362002Y-147740000D01*
X102323610Y-147740000D01*
X102386552Y-147645801D01*
X102435000Y-147402237D01*
X102435000Y-147402236D01*
X102451358Y-147320000D01*
X102435000Y-147237763D01*
X102435000Y-145497237D01*
X102451358Y-145415000D01*
X102386552Y-145089200D01*
X102386552Y-145089199D01*
X102202001Y-144812999D01*
X102132282Y-144766414D01*
X101613587Y-144247720D01*
X101567001Y-144177999D01*
X101290801Y-143993448D01*
X101047237Y-143945000D01*
X101047233Y-143945000D01*
X100965000Y-143928643D01*
X100882767Y-143945000D01*
X93427232Y-143945000D01*
X93344999Y-143928643D01*
X93262766Y-143945000D01*
X93262763Y-143945000D01*
X93019199Y-143993448D01*
X92742999Y-144177999D01*
X92696416Y-144247716D01*
X92178039Y-144766094D01*
X92110000Y-144752560D01*
X90610000Y-144752560D01*
X90362235Y-144801843D01*
X90152191Y-144942191D01*
X90011843Y-145152235D01*
X89999358Y-145215000D01*
X89880868Y-145215000D01*
X88913586Y-144247719D01*
X88913584Y-144247716D01*
X88278587Y-143612720D01*
X88232001Y-143542999D01*
X87955801Y-143358448D01*
X87712237Y-143310000D01*
X87712233Y-143310000D01*
X87630000Y-143293643D01*
X87547767Y-143310000D01*
X85435868Y-143310000D01*
X84655000Y-142529133D01*
X84655000Y-139857565D01*
X84943744Y-139915000D01*
X85236256Y-139915000D01*
X85669418Y-139828839D01*
X86160625Y-139500625D01*
X86488839Y-139009418D01*
X86604092Y-138430000D01*
X86531209Y-138063592D01*
X87479473Y-137115329D01*
X87542929Y-137072929D01*
X87682890Y-136863463D01*
X87710904Y-136821538D01*
X87742063Y-136664889D01*
X87755000Y-136599852D01*
X87755000Y-136599848D01*
X87769888Y-136525000D01*
X87755000Y-136450152D01*
X87755000Y-129854801D01*
X87864802Y-129745000D01*
X90144549Y-129745000D01*
X90191843Y-129982765D01*
G36*
X103912560Y-130493428D02*
X103912560Y-131660000D01*
X103961843Y-131907765D01*
X104102191Y-132117809D01*
X104312235Y-132258157D01*
X104415708Y-132278739D01*
X104138355Y-132583076D01*
X103968524Y-132993110D01*
X104089845Y-133223000D01*
X105283000Y-133223000D01*
X105283000Y-133203000D01*
X105537000Y-133203000D01*
X105537000Y-133223000D01*
X105557000Y-133223000D01*
X105557000Y-133477000D01*
X105537000Y-133477000D01*
X105537000Y-133497000D01*
X105283000Y-133497000D01*
X105283000Y-133477000D01*
X104089845Y-133477000D01*
X103968524Y-133706890D01*
X104138355Y-134116924D01*
X104528642Y-134545183D01*
X104658478Y-134606157D01*
X104339375Y-134819375D01*
X104011161Y-135310582D01*
X103920772Y-135765000D01*
X101819228Y-135765000D01*
X101728839Y-135310582D01*
X101400625Y-134819375D01*
X101081522Y-134606157D01*
X101211358Y-134545183D01*
X101601645Y-134116924D01*
X101771476Y-133706890D01*
X101650155Y-133477000D01*
X100457000Y-133477000D01*
X100457000Y-133497000D01*
X100203000Y-133497000D01*
X100203000Y-133477000D01*
X100183000Y-133477000D01*
X100183000Y-133223000D01*
X100203000Y-133223000D01*
X100203000Y-133203000D01*
X100457000Y-133203000D01*
X100457000Y-133223000D01*
X101650155Y-133223000D01*
X101771476Y-132993110D01*
X101601645Y-132583076D01*
X101324292Y-132278739D01*
X101427765Y-132258157D01*
X101637809Y-132117809D01*
X101778157Y-131907765D01*
X101827440Y-131660000D01*
X101827440Y-130493427D01*
X102870000Y-129450868D01*
X103912560Y-130493428D01*
X103912560Y-130493428D01*
G37*
X103912560Y-130493428D02*
X103912560Y-131660000D01*
X103961843Y-131907765D01*
X104102191Y-132117809D01*
X104312235Y-132258157D01*
X104415708Y-132278739D01*
X104138355Y-132583076D01*
X103968524Y-132993110D01*
X104089845Y-133223000D01*
X105283000Y-133223000D01*
X105283000Y-133203000D01*
X105537000Y-133203000D01*
X105537000Y-133223000D01*
X105557000Y-133223000D01*
X105557000Y-133477000D01*
X105537000Y-133477000D01*
X105537000Y-133497000D01*
X105283000Y-133497000D01*
X105283000Y-133477000D01*
X104089845Y-133477000D01*
X103968524Y-133706890D01*
X104138355Y-134116924D01*
X104528642Y-134545183D01*
X104658478Y-134606157D01*
X104339375Y-134819375D01*
X104011161Y-135310582D01*
X103920772Y-135765000D01*
X101819228Y-135765000D01*
X101728839Y-135310582D01*
X101400625Y-134819375D01*
X101081522Y-134606157D01*
X101211358Y-134545183D01*
X101601645Y-134116924D01*
X101771476Y-133706890D01*
X101650155Y-133477000D01*
X100457000Y-133477000D01*
X100457000Y-133497000D01*
X100203000Y-133497000D01*
X100203000Y-133477000D01*
X100183000Y-133477000D01*
X100183000Y-133223000D01*
X100203000Y-133223000D01*
X100203000Y-133203000D01*
X100457000Y-133203000D01*
X100457000Y-133223000D01*
X101650155Y-133223000D01*
X101771476Y-132993110D01*
X101601645Y-132583076D01*
X101324292Y-132278739D01*
X101427765Y-132258157D01*
X101637809Y-132117809D01*
X101778157Y-131907765D01*
X101827440Y-131660000D01*
X101827440Y-130493427D01*
X102870000Y-129450868D01*
X103912560Y-130493428D01*
G36*
X85217000Y-133223000D02*
X85237000Y-133223000D01*
X85237000Y-133477000D01*
X85217000Y-133477000D01*
X85217000Y-133497000D01*
X84963000Y-133497000D01*
X84963000Y-133477000D01*
X84943000Y-133477000D01*
X84943000Y-133223000D01*
X84963000Y-133223000D01*
X84963000Y-133203000D01*
X85217000Y-133203000D01*
X85217000Y-133223000D01*
X85217000Y-133223000D01*
G37*
X85217000Y-133223000D02*
X85237000Y-133223000D01*
X85237000Y-133477000D01*
X85217000Y-133477000D01*
X85217000Y-133497000D01*
X84963000Y-133497000D01*
X84963000Y-133477000D01*
X84943000Y-133477000D01*
X84943000Y-133223000D01*
X84963000Y-133223000D01*
X84963000Y-133203000D01*
X85217000Y-133203000D01*
X85217000Y-133223000D01*
G36*
X120777000Y-133223000D02*
X120797000Y-133223000D01*
X120797000Y-133477000D01*
X120777000Y-133477000D01*
X120777000Y-133497000D01*
X120523000Y-133497000D01*
X120523000Y-133477000D01*
X120503000Y-133477000D01*
X120503000Y-133223000D01*
X120523000Y-133223000D01*
X120523000Y-133203000D01*
X120777000Y-133203000D01*
X120777000Y-133223000D01*
X120777000Y-133223000D01*
G37*
X120777000Y-133223000D02*
X120797000Y-133223000D01*
X120797000Y-133477000D01*
X120777000Y-133477000D01*
X120777000Y-133497000D01*
X120523000Y-133497000D01*
X120523000Y-133477000D01*
X120503000Y-133477000D01*
X120503000Y-133223000D01*
X120523000Y-133223000D01*
X120523000Y-133203000D01*
X120777000Y-133203000D01*
X120777000Y-133223000D01*
G04 #@! TO.N,Net-(D2-Pad1)*
G36*
X152908000Y-107920190D02*
X152725801Y-107798448D01*
X152482237Y-107750000D01*
X152482233Y-107750000D01*
X152400000Y-107733643D01*
X152317767Y-107750000D01*
X148182440Y-107750000D01*
X148182440Y-107735000D01*
X148133157Y-107487235D01*
X147992809Y-107277191D01*
X147782765Y-107136843D01*
X147535000Y-107087560D01*
X145835000Y-107087560D01*
X145587235Y-107136843D01*
X145377191Y-107277191D01*
X145236843Y-107487235D01*
X145227816Y-107532619D01*
X145215625Y-107514375D01*
X144724418Y-107186161D01*
X144291256Y-107100000D01*
X143998744Y-107100000D01*
X143565582Y-107186161D01*
X143074375Y-107514375D01*
X142746161Y-108005582D01*
X142630908Y-108585000D01*
X142746161Y-109164418D01*
X143074375Y-109655625D01*
X143565582Y-109983839D01*
X143998744Y-110070000D01*
X144291256Y-110070000D01*
X144724418Y-109983839D01*
X145215625Y-109655625D01*
X145227816Y-109637381D01*
X145236843Y-109682765D01*
X145377191Y-109892809D01*
X145587235Y-110033157D01*
X145835000Y-110082440D01*
X147535000Y-110082440D01*
X147782765Y-110033157D01*
X147992809Y-109892809D01*
X148133157Y-109682765D01*
X148182440Y-109435000D01*
X148182440Y-109420000D01*
X150073197Y-109420000D01*
X149318942Y-109732422D01*
X148732422Y-110318942D01*
X148415000Y-111085268D01*
X148415000Y-111914732D01*
X148732422Y-112681058D01*
X149318942Y-113267578D01*
X150085268Y-113585000D01*
X150914732Y-113585000D01*
X151681058Y-113267578D01*
X152267578Y-112681058D01*
X152585000Y-111914732D01*
X152585000Y-111085268D01*
X152267578Y-110318942D01*
X151681058Y-109732422D01*
X150926803Y-109420000D01*
X152054133Y-109420000D01*
X152908000Y-110273867D01*
X152908000Y-124968000D01*
X136292274Y-124968000D01*
X136135801Y-124863448D01*
X135892237Y-124815000D01*
X135892233Y-124815000D01*
X135810000Y-124798643D01*
X135727767Y-124815000D01*
X133995533Y-124815000D01*
X133963157Y-124652235D01*
X133822809Y-124442191D01*
X133612765Y-124301843D01*
X133550000Y-124289358D01*
X133550000Y-123792440D01*
X133565000Y-123792440D01*
X133812765Y-123743157D01*
X134022809Y-123602809D01*
X134163157Y-123392765D01*
X134212440Y-123145000D01*
X134212440Y-119845000D01*
X134163157Y-119597235D01*
X134022809Y-119387191D01*
X133812765Y-119246843D01*
X133565000Y-119197560D01*
X131865000Y-119197560D01*
X131617235Y-119246843D01*
X131407191Y-119387191D01*
X131266843Y-119597235D01*
X131217560Y-119845000D01*
X131217560Y-123145000D01*
X131266843Y-123392765D01*
X131407191Y-123602809D01*
X131617235Y-123743157D01*
X131865000Y-123792440D01*
X131880000Y-123792440D01*
X131880000Y-124289358D01*
X131817235Y-124301843D01*
X131607191Y-124442191D01*
X131466843Y-124652235D01*
X131417560Y-124900000D01*
X131417560Y-124968000D01*
X130302000Y-124968000D01*
X130302000Y-111085268D01*
X130415000Y-111085268D01*
X130415000Y-111914732D01*
X130732422Y-112681058D01*
X131318942Y-113267578D01*
X132085268Y-113585000D01*
X132914732Y-113585000D01*
X133681058Y-113267578D01*
X134267578Y-112681058D01*
X134585000Y-111914732D01*
X134585000Y-111085268D01*
X134267578Y-110318942D01*
X133681058Y-109732422D01*
X132914732Y-109415000D01*
X132085268Y-109415000D01*
X131318942Y-109732422D01*
X130732422Y-110318942D01*
X130415000Y-111085268D01*
X130302000Y-111085268D01*
X130302000Y-108585000D01*
X137550908Y-108585000D01*
X137666161Y-109164418D01*
X137994375Y-109655625D01*
X138485582Y-109983839D01*
X138918744Y-110070000D01*
X139211256Y-110070000D01*
X139644418Y-109983839D01*
X140135625Y-109655625D01*
X140463839Y-109164418D01*
X140579092Y-108585000D01*
X140463839Y-108005582D01*
X140135625Y-107514375D01*
X139644418Y-107186161D01*
X139211256Y-107100000D01*
X138918744Y-107100000D01*
X138485582Y-107186161D01*
X137994375Y-107514375D01*
X137666161Y-108005582D01*
X137550908Y-108585000D01*
X130302000Y-108585000D01*
X130302000Y-106172000D01*
X152908000Y-106172000D01*
X152908000Y-107920190D01*
X152908000Y-107920190D01*
G37*
X152908000Y-107920190D02*
X152725801Y-107798448D01*
X152482237Y-107750000D01*
X152482233Y-107750000D01*
X152400000Y-107733643D01*
X152317767Y-107750000D01*
X148182440Y-107750000D01*
X148182440Y-107735000D01*
X148133157Y-107487235D01*
X147992809Y-107277191D01*
X147782765Y-107136843D01*
X147535000Y-107087560D01*
X145835000Y-107087560D01*
X145587235Y-107136843D01*
X145377191Y-107277191D01*
X145236843Y-107487235D01*
X145227816Y-107532619D01*
X145215625Y-107514375D01*
X144724418Y-107186161D01*
X144291256Y-107100000D01*
X143998744Y-107100000D01*
X143565582Y-107186161D01*
X143074375Y-107514375D01*
X142746161Y-108005582D01*
X142630908Y-108585000D01*
X142746161Y-109164418D01*
X143074375Y-109655625D01*
X143565582Y-109983839D01*
X143998744Y-110070000D01*
X144291256Y-110070000D01*
X144724418Y-109983839D01*
X145215625Y-109655625D01*
X145227816Y-109637381D01*
X145236843Y-109682765D01*
X145377191Y-109892809D01*
X145587235Y-110033157D01*
X145835000Y-110082440D01*
X147535000Y-110082440D01*
X147782765Y-110033157D01*
X147992809Y-109892809D01*
X148133157Y-109682765D01*
X148182440Y-109435000D01*
X148182440Y-109420000D01*
X150073197Y-109420000D01*
X149318942Y-109732422D01*
X148732422Y-110318942D01*
X148415000Y-111085268D01*
X148415000Y-111914732D01*
X148732422Y-112681058D01*
X149318942Y-113267578D01*
X150085268Y-113585000D01*
X150914732Y-113585000D01*
X151681058Y-113267578D01*
X152267578Y-112681058D01*
X152585000Y-111914732D01*
X152585000Y-111085268D01*
X152267578Y-110318942D01*
X151681058Y-109732422D01*
X150926803Y-109420000D01*
X152054133Y-109420000D01*
X152908000Y-110273867D01*
X152908000Y-124968000D01*
X136292274Y-124968000D01*
X136135801Y-124863448D01*
X135892237Y-124815000D01*
X135892233Y-124815000D01*
X135810000Y-124798643D01*
X135727767Y-124815000D01*
X133995533Y-124815000D01*
X133963157Y-124652235D01*
X133822809Y-124442191D01*
X133612765Y-124301843D01*
X133550000Y-124289358D01*
X133550000Y-123792440D01*
X133565000Y-123792440D01*
X133812765Y-123743157D01*
X134022809Y-123602809D01*
X134163157Y-123392765D01*
X134212440Y-123145000D01*
X134212440Y-119845000D01*
X134163157Y-119597235D01*
X134022809Y-119387191D01*
X133812765Y-119246843D01*
X133565000Y-119197560D01*
X131865000Y-119197560D01*
X131617235Y-119246843D01*
X131407191Y-119387191D01*
X131266843Y-119597235D01*
X131217560Y-119845000D01*
X131217560Y-123145000D01*
X131266843Y-123392765D01*
X131407191Y-123602809D01*
X131617235Y-123743157D01*
X131865000Y-123792440D01*
X131880000Y-123792440D01*
X131880000Y-124289358D01*
X131817235Y-124301843D01*
X131607191Y-124442191D01*
X131466843Y-124652235D01*
X131417560Y-124900000D01*
X131417560Y-124968000D01*
X130302000Y-124968000D01*
X130302000Y-111085268D01*
X130415000Y-111085268D01*
X130415000Y-111914732D01*
X130732422Y-112681058D01*
X131318942Y-113267578D01*
X132085268Y-113585000D01*
X132914732Y-113585000D01*
X133681058Y-113267578D01*
X134267578Y-112681058D01*
X134585000Y-111914732D01*
X134585000Y-111085268D01*
X134267578Y-110318942D01*
X133681058Y-109732422D01*
X132914732Y-109415000D01*
X132085268Y-109415000D01*
X131318942Y-109732422D01*
X130732422Y-110318942D01*
X130415000Y-111085268D01*
X130302000Y-111085268D01*
X130302000Y-108585000D01*
X137550908Y-108585000D01*
X137666161Y-109164418D01*
X137994375Y-109655625D01*
X138485582Y-109983839D01*
X138918744Y-110070000D01*
X139211256Y-110070000D01*
X139644418Y-109983839D01*
X140135625Y-109655625D01*
X140463839Y-109164418D01*
X140579092Y-108585000D01*
X140463839Y-108005582D01*
X140135625Y-107514375D01*
X139644418Y-107186161D01*
X139211256Y-107100000D01*
X138918744Y-107100000D01*
X138485582Y-107186161D01*
X137994375Y-107514375D01*
X137666161Y-108005582D01*
X137550908Y-108585000D01*
X130302000Y-108585000D01*
X130302000Y-106172000D01*
X152908000Y-106172000D01*
X152908000Y-107920190D01*
G04 #@! TO.N,GND*
G36*
X87006564Y-82236751D02*
X87006563Y-82236752D01*
X86904282Y-82483681D01*
X86828162Y-82866364D01*
X86828162Y-83133636D01*
X86904282Y-83516319D01*
X86968700Y-83671838D01*
X87006563Y-83763248D01*
X87223336Y-84087672D01*
X87412328Y-84276664D01*
X87736751Y-84493437D01*
X87839032Y-84535803D01*
X87983681Y-84595718D01*
X88366364Y-84671838D01*
X88366368Y-84671838D01*
X88432538Y-84685000D01*
X93067462Y-84685000D01*
X93133632Y-84671838D01*
X93133636Y-84671838D01*
X93516319Y-84595718D01*
X93763248Y-84493437D01*
X93763249Y-84493436D01*
X94087672Y-84276664D01*
X94276664Y-84087672D01*
X94493437Y-83763249D01*
X94535803Y-83660968D01*
X94595718Y-83516319D01*
X94671838Y-83133636D01*
X94671838Y-82866364D01*
X94595718Y-82483681D01*
X94506079Y-82267273D01*
X94493437Y-82236751D01*
X94363308Y-82042000D01*
X95572198Y-82042000D01*
X95760001Y-82229803D01*
X95760000Y-90877710D01*
X95727345Y-90910365D01*
X95585000Y-91254017D01*
X95585000Y-91625983D01*
X95727345Y-91969635D01*
X95760001Y-92002291D01*
X95760000Y-97475198D01*
X94765530Y-98469669D01*
X94765527Y-98469671D01*
X92860528Y-100374671D01*
X92797072Y-100417071D01*
X92754672Y-100480527D01*
X92754671Y-100480528D01*
X92629097Y-100668463D01*
X92570112Y-100965000D01*
X92585001Y-101039851D01*
X92585000Y-102795153D01*
X92570112Y-102870000D01*
X92585000Y-102944847D01*
X92585000Y-102944851D01*
X92629096Y-103166536D01*
X92797071Y-103417929D01*
X92860530Y-103460331D01*
X92965199Y-103565000D01*
X92648690Y-103565000D01*
X92415301Y-103661673D01*
X92236673Y-103840302D01*
X92140000Y-104073691D01*
X92140000Y-104664250D01*
X92298750Y-104823000D01*
X93273000Y-104823000D01*
X93273000Y-104803000D01*
X93527000Y-104803000D01*
X93527000Y-104823000D01*
X93547000Y-104823000D01*
X93547000Y-105077000D01*
X93527000Y-105077000D01*
X93527000Y-105097000D01*
X93273000Y-105097000D01*
X93273000Y-105077000D01*
X92298750Y-105077000D01*
X92264354Y-105111396D01*
X92260983Y-105110000D01*
X91889017Y-105110000D01*
X91545365Y-105252345D01*
X91282345Y-105515365D01*
X91140000Y-105859017D01*
X91140000Y-105918000D01*
X81685000Y-105918000D01*
X81685000Y-103388072D01*
X81857235Y-103503157D01*
X82105000Y-103552440D01*
X83455000Y-103552440D01*
X83702765Y-103503157D01*
X83774318Y-103455346D01*
X83978690Y-103540000D01*
X84494250Y-103540000D01*
X84653000Y-103381250D01*
X84653000Y-102324167D01*
X84907000Y-102309939D01*
X84907000Y-103381250D01*
X85065750Y-103540000D01*
X85581310Y-103540000D01*
X85785682Y-103455346D01*
X85857235Y-103503157D01*
X86105000Y-103552440D01*
X87455000Y-103552440D01*
X87702765Y-103503157D01*
X87780000Y-103451550D01*
X87857235Y-103503157D01*
X88105000Y-103552440D01*
X89455000Y-103552440D01*
X89702765Y-103503157D01*
X89780000Y-103451550D01*
X89857235Y-103503157D01*
X90105000Y-103552440D01*
X91455000Y-103552440D01*
X91702765Y-103503157D01*
X91912809Y-103362809D01*
X92053157Y-103152765D01*
X92102440Y-102905000D01*
X92102440Y-101105000D01*
X92090000Y-101042459D01*
X92090000Y-100744425D01*
X91890564Y-100262945D01*
X91522055Y-99894436D01*
X91040575Y-99695000D01*
X90519425Y-99695000D01*
X90037945Y-99894436D01*
X89780000Y-100152381D01*
X89522055Y-99894436D01*
X89040575Y-99695000D01*
X88519425Y-99695000D01*
X88037945Y-99894436D01*
X87780000Y-100152381D01*
X87522055Y-99894436D01*
X87040575Y-99695000D01*
X86519425Y-99695000D01*
X86037945Y-99894436D01*
X85669436Y-100262945D01*
X85646650Y-100317955D01*
X85494605Y-100470000D01*
X85135395Y-100470000D01*
X85517542Y-100087853D01*
X85458781Y-99854672D01*
X84966900Y-99682478D01*
X84446566Y-99711625D01*
X84101219Y-99854672D01*
X84042458Y-100087853D01*
X84424605Y-100470000D01*
X84065395Y-100470000D01*
X83913350Y-100317955D01*
X83890564Y-100262945D01*
X83522055Y-99894436D01*
X83040575Y-99695000D01*
X82519425Y-99695000D01*
X82037945Y-99894436D01*
X81685000Y-100247381D01*
X81685000Y-94067466D01*
X81721376Y-93884591D01*
X81786751Y-93786750D01*
X81884590Y-93721376D01*
X82133636Y-93671838D01*
X82516319Y-93595718D01*
X82763248Y-93493437D01*
X82763249Y-93493436D01*
X83087672Y-93276664D01*
X83276664Y-93087672D01*
X83493437Y-92763249D01*
X83542311Y-92645255D01*
X83595718Y-92516319D01*
X83671838Y-92133636D01*
X83671838Y-92133632D01*
X83685000Y-92067462D01*
X83685000Y-86932538D01*
X83671838Y-86866368D01*
X83671838Y-86866364D01*
X83595718Y-86483681D01*
X83493437Y-86236752D01*
X83493437Y-86236751D01*
X83276664Y-85912328D01*
X83087672Y-85723336D01*
X82763248Y-85506563D01*
X82732570Y-85493856D01*
X82516319Y-85404282D01*
X82133636Y-85328162D01*
X81884590Y-85278624D01*
X81786751Y-85213250D01*
X81721376Y-85115409D01*
X81685000Y-84932534D01*
X81685000Y-82042000D01*
X87136692Y-82042000D01*
X87006564Y-82236751D01*
X87006564Y-82236751D01*
G37*
X87006564Y-82236751D02*
X87006563Y-82236752D01*
X86904282Y-82483681D01*
X86828162Y-82866364D01*
X86828162Y-83133636D01*
X86904282Y-83516319D01*
X86968700Y-83671838D01*
X87006563Y-83763248D01*
X87223336Y-84087672D01*
X87412328Y-84276664D01*
X87736751Y-84493437D01*
X87839032Y-84535803D01*
X87983681Y-84595718D01*
X88366364Y-84671838D01*
X88366368Y-84671838D01*
X88432538Y-84685000D01*
X93067462Y-84685000D01*
X93133632Y-84671838D01*
X93133636Y-84671838D01*
X93516319Y-84595718D01*
X93763248Y-84493437D01*
X93763249Y-84493436D01*
X94087672Y-84276664D01*
X94276664Y-84087672D01*
X94493437Y-83763249D01*
X94535803Y-83660968D01*
X94595718Y-83516319D01*
X94671838Y-83133636D01*
X94671838Y-82866364D01*
X94595718Y-82483681D01*
X94506079Y-82267273D01*
X94493437Y-82236751D01*
X94363308Y-82042000D01*
X95572198Y-82042000D01*
X95760001Y-82229803D01*
X95760000Y-90877710D01*
X95727345Y-90910365D01*
X95585000Y-91254017D01*
X95585000Y-91625983D01*
X95727345Y-91969635D01*
X95760001Y-92002291D01*
X95760000Y-97475198D01*
X94765530Y-98469669D01*
X94765527Y-98469671D01*
X92860528Y-100374671D01*
X92797072Y-100417071D01*
X92754672Y-100480527D01*
X92754671Y-100480528D01*
X92629097Y-100668463D01*
X92570112Y-100965000D01*
X92585001Y-101039851D01*
X92585000Y-102795153D01*
X92570112Y-102870000D01*
X92585000Y-102944847D01*
X92585000Y-102944851D01*
X92629096Y-103166536D01*
X92797071Y-103417929D01*
X92860530Y-103460331D01*
X92965199Y-103565000D01*
X92648690Y-103565000D01*
X92415301Y-103661673D01*
X92236673Y-103840302D01*
X92140000Y-104073691D01*
X92140000Y-104664250D01*
X92298750Y-104823000D01*
X93273000Y-104823000D01*
X93273000Y-104803000D01*
X93527000Y-104803000D01*
X93527000Y-104823000D01*
X93547000Y-104823000D01*
X93547000Y-105077000D01*
X93527000Y-105077000D01*
X93527000Y-105097000D01*
X93273000Y-105097000D01*
X93273000Y-105077000D01*
X92298750Y-105077000D01*
X92264354Y-105111396D01*
X92260983Y-105110000D01*
X91889017Y-105110000D01*
X91545365Y-105252345D01*
X91282345Y-105515365D01*
X91140000Y-105859017D01*
X91140000Y-105918000D01*
X81685000Y-105918000D01*
X81685000Y-103388072D01*
X81857235Y-103503157D01*
X82105000Y-103552440D01*
X83455000Y-103552440D01*
X83702765Y-103503157D01*
X83774318Y-103455346D01*
X83978690Y-103540000D01*
X84494250Y-103540000D01*
X84653000Y-103381250D01*
X84653000Y-102324167D01*
X84907000Y-102309939D01*
X84907000Y-103381250D01*
X85065750Y-103540000D01*
X85581310Y-103540000D01*
X85785682Y-103455346D01*
X85857235Y-103503157D01*
X86105000Y-103552440D01*
X87455000Y-103552440D01*
X87702765Y-103503157D01*
X87780000Y-103451550D01*
X87857235Y-103503157D01*
X88105000Y-103552440D01*
X89455000Y-103552440D01*
X89702765Y-103503157D01*
X89780000Y-103451550D01*
X89857235Y-103503157D01*
X90105000Y-103552440D01*
X91455000Y-103552440D01*
X91702765Y-103503157D01*
X91912809Y-103362809D01*
X92053157Y-103152765D01*
X92102440Y-102905000D01*
X92102440Y-101105000D01*
X92090000Y-101042459D01*
X92090000Y-100744425D01*
X91890564Y-100262945D01*
X91522055Y-99894436D01*
X91040575Y-99695000D01*
X90519425Y-99695000D01*
X90037945Y-99894436D01*
X89780000Y-100152381D01*
X89522055Y-99894436D01*
X89040575Y-99695000D01*
X88519425Y-99695000D01*
X88037945Y-99894436D01*
X87780000Y-100152381D01*
X87522055Y-99894436D01*
X87040575Y-99695000D01*
X86519425Y-99695000D01*
X86037945Y-99894436D01*
X85669436Y-100262945D01*
X85646650Y-100317955D01*
X85494605Y-100470000D01*
X85135395Y-100470000D01*
X85517542Y-100087853D01*
X85458781Y-99854672D01*
X84966900Y-99682478D01*
X84446566Y-99711625D01*
X84101219Y-99854672D01*
X84042458Y-100087853D01*
X84424605Y-100470000D01*
X84065395Y-100470000D01*
X83913350Y-100317955D01*
X83890564Y-100262945D01*
X83522055Y-99894436D01*
X83040575Y-99695000D01*
X82519425Y-99695000D01*
X82037945Y-99894436D01*
X81685000Y-100247381D01*
X81685000Y-94067466D01*
X81721376Y-93884591D01*
X81786751Y-93786750D01*
X81884590Y-93721376D01*
X82133636Y-93671838D01*
X82516319Y-93595718D01*
X82763248Y-93493437D01*
X82763249Y-93493436D01*
X83087672Y-93276664D01*
X83276664Y-93087672D01*
X83493437Y-92763249D01*
X83542311Y-92645255D01*
X83595718Y-92516319D01*
X83671838Y-92133636D01*
X83671838Y-92133632D01*
X83685000Y-92067462D01*
X83685000Y-86932538D01*
X83671838Y-86866368D01*
X83671838Y-86866364D01*
X83595718Y-86483681D01*
X83493437Y-86236752D01*
X83493437Y-86236751D01*
X83276664Y-85912328D01*
X83087672Y-85723336D01*
X82763248Y-85506563D01*
X82732570Y-85493856D01*
X82516319Y-85404282D01*
X82133636Y-85328162D01*
X81884590Y-85278624D01*
X81786751Y-85213250D01*
X81721376Y-85115409D01*
X81685000Y-84932534D01*
X81685000Y-82042000D01*
X87136692Y-82042000D01*
X87006564Y-82236751D01*
G04 #@! TD*
M02*
