%TF.GenerationSoftware,KiCad,Pcbnew,4.0.7*%
%TF.CreationDate,2018-07-29T20:51:03+02:00*%
%TF.ProjectId,HB-UNI-644,48422D554E492D3634342E6B69636164,2.0*%
%TF.FileFunction,Legend,Top*%
%FSLAX46Y46*%
G04 Gerber Fmt 4.6, Leading zero omitted, Abs format (unit mm)*
G04 Created by KiCad (PCBNEW 4.0.7) date 07/29/18 20:51:03*
%MOMM*%
%LPD*%
G01*
G04 APERTURE LIST*
%ADD10C,0.100000*%
%ADD11C,0.150000*%
%ADD12C,0.400000*%
%ADD13C,0.200000*%
%ADD14C,0.120000*%
%ADD15C,0.500000*%
G04 APERTURE END LIST*
D10*
D11*
X112018095Y-103701905D02*
X112184762Y-104501905D01*
X112551429Y-103701905D01*
X113184762Y-104425714D02*
X113141905Y-104463810D01*
X113022857Y-104501905D01*
X112946667Y-104501905D01*
X112837143Y-104463810D01*
X112770476Y-104387619D01*
X112741904Y-104311429D01*
X112722857Y-104159048D01*
X112737143Y-104044762D01*
X112794285Y-103892381D01*
X112841904Y-103816190D01*
X112927619Y-103740000D01*
X113046667Y-103701905D01*
X113122857Y-103701905D01*
X113232381Y-103740000D01*
X113265714Y-103778095D01*
X113984762Y-104425714D02*
X113941905Y-104463810D01*
X113822857Y-104501905D01*
X113746667Y-104501905D01*
X113637143Y-104463810D01*
X113570476Y-104387619D01*
X113541904Y-104311429D01*
X113522857Y-104159048D01*
X113537143Y-104044762D01*
X113594285Y-103892381D01*
X113641904Y-103816190D01*
X113727619Y-103740000D01*
X113846667Y-103701905D01*
X113922857Y-103701905D01*
X114032381Y-103740000D01*
X114065714Y-103778095D01*
X114553333Y-108311905D02*
X114653333Y-107511905D01*
X114843809Y-107511905D01*
X114953333Y-107550000D01*
X115020000Y-107626190D01*
X115048571Y-107702381D01*
X115067619Y-107854762D01*
X115053333Y-107969048D01*
X114996190Y-108121429D01*
X114948572Y-108197619D01*
X114862857Y-108273810D01*
X114743809Y-108311905D01*
X114553333Y-108311905D01*
X115405714Y-107588095D02*
X115448571Y-107550000D01*
X115529524Y-107511905D01*
X115720000Y-107511905D01*
X115791428Y-107550000D01*
X115824762Y-107588095D01*
X115853333Y-107664286D01*
X115843810Y-107740476D01*
X115791429Y-107854762D01*
X115277143Y-108311905D01*
X115772381Y-108311905D01*
X116153333Y-108311905D02*
X116305714Y-108311905D01*
X116386667Y-108273810D01*
X116429524Y-108235714D01*
X116520000Y-108121429D01*
X116577143Y-107969048D01*
X116615238Y-107664286D01*
X116586667Y-107588095D01*
X116553333Y-107550000D01*
X116481905Y-107511905D01*
X116329524Y-107511905D01*
X116248571Y-107550000D01*
X116205714Y-107588095D01*
X116158095Y-107664286D01*
X116134286Y-107854762D01*
X116162857Y-107930952D01*
X116196190Y-107969048D01*
X116267619Y-108007143D01*
X116420000Y-108007143D01*
X116500952Y-107969048D01*
X116543810Y-107930952D01*
X116591429Y-107854762D01*
X114553333Y-109581905D02*
X114653333Y-108781905D01*
X114843809Y-108781905D01*
X114953333Y-108820000D01*
X115020000Y-108896190D01*
X115048571Y-108972381D01*
X115067619Y-109124762D01*
X115053333Y-109239048D01*
X114996190Y-109391429D01*
X114948572Y-109467619D01*
X114862857Y-109543810D01*
X114743809Y-109581905D01*
X114553333Y-109581905D01*
X115405714Y-108858095D02*
X115448571Y-108820000D01*
X115529524Y-108781905D01*
X115720000Y-108781905D01*
X115791428Y-108820000D01*
X115824762Y-108858095D01*
X115853333Y-108934286D01*
X115843810Y-109010476D01*
X115791429Y-109124762D01*
X115277143Y-109581905D01*
X115772381Y-109581905D01*
X116286667Y-109124762D02*
X116215238Y-109086667D01*
X116181905Y-109048571D01*
X116153333Y-108972381D01*
X116158095Y-108934286D01*
X116205714Y-108858095D01*
X116248571Y-108820000D01*
X116329524Y-108781905D01*
X116481905Y-108781905D01*
X116553333Y-108820000D01*
X116586667Y-108858095D01*
X116615238Y-108934286D01*
X116610476Y-108972381D01*
X116562858Y-109048571D01*
X116520000Y-109086667D01*
X116439048Y-109124762D01*
X116286667Y-109124762D01*
X116205714Y-109162857D01*
X116162857Y-109200952D01*
X116115238Y-109277143D01*
X116096191Y-109429524D01*
X116124762Y-109505714D01*
X116158095Y-109543810D01*
X116229524Y-109581905D01*
X116381905Y-109581905D01*
X116462857Y-109543810D01*
X116505715Y-109505714D01*
X116553334Y-109429524D01*
X116572381Y-109277143D01*
X116543810Y-109200952D01*
X116510476Y-109162857D01*
X116439048Y-109124762D01*
X114553333Y-113391905D02*
X114653333Y-112591905D01*
X114843809Y-112591905D01*
X114953333Y-112630000D01*
X115020000Y-112706190D01*
X115048571Y-112782381D01*
X115067619Y-112934762D01*
X115053333Y-113049048D01*
X114996190Y-113201429D01*
X114948572Y-113277619D01*
X114862857Y-113353810D01*
X114743809Y-113391905D01*
X114553333Y-113391905D01*
X115405714Y-112668095D02*
X115448571Y-112630000D01*
X115529524Y-112591905D01*
X115720000Y-112591905D01*
X115791428Y-112630000D01*
X115824762Y-112668095D01*
X115853333Y-112744286D01*
X115843810Y-112820476D01*
X115791429Y-112934762D01*
X115277143Y-113391905D01*
X115772381Y-113391905D01*
X116139048Y-112591905D02*
X116672381Y-112591905D01*
X116229524Y-113391905D01*
X114553333Y-114661905D02*
X114653333Y-113861905D01*
X114843809Y-113861905D01*
X114953333Y-113900000D01*
X115020000Y-113976190D01*
X115048571Y-114052381D01*
X115067619Y-114204762D01*
X115053333Y-114319048D01*
X114996190Y-114471429D01*
X114948572Y-114547619D01*
X114862857Y-114623810D01*
X114743809Y-114661905D01*
X114553333Y-114661905D01*
X115405714Y-113938095D02*
X115448571Y-113900000D01*
X115529524Y-113861905D01*
X115720000Y-113861905D01*
X115791428Y-113900000D01*
X115824762Y-113938095D01*
X115853333Y-114014286D01*
X115843810Y-114090476D01*
X115791429Y-114204762D01*
X115277143Y-114661905D01*
X115772381Y-114661905D01*
X116558095Y-113861905D02*
X116405714Y-113861905D01*
X116324762Y-113900000D01*
X116281905Y-113938095D01*
X116191428Y-114052381D01*
X116134286Y-114204762D01*
X116096191Y-114509524D01*
X116124762Y-114585714D01*
X116158095Y-114623810D01*
X116229524Y-114661905D01*
X116381905Y-114661905D01*
X116462857Y-114623810D01*
X116505715Y-114585714D01*
X116553334Y-114509524D01*
X116577143Y-114319048D01*
X116548572Y-114242857D01*
X116515238Y-114204762D01*
X116443810Y-114166667D01*
X116291429Y-114166667D01*
X116210476Y-114204762D01*
X116167619Y-114242857D01*
X116120000Y-114319048D01*
X138481667Y-111067857D02*
X138748334Y-111067857D01*
X138810239Y-111486905D02*
X138429286Y-111486905D01*
X138529286Y-110686905D01*
X138910239Y-110686905D01*
X139153096Y-111486905D02*
X139253096Y-110686905D01*
X139610239Y-111486905D01*
X139710239Y-110686905D01*
X140645477Y-111486905D02*
X140745477Y-110686905D01*
X141026429Y-111486905D02*
X141126429Y-110686905D01*
X141483572Y-111486905D01*
X141583572Y-110686905D01*
X141902619Y-111182143D02*
X142512143Y-111182143D01*
X142169286Y-111486905D02*
X142245476Y-110877381D01*
X143585477Y-110725000D02*
X143514048Y-110686905D01*
X143399763Y-110686905D01*
X143280715Y-110725000D01*
X143195000Y-110801190D01*
X143147381Y-110877381D01*
X143090239Y-111029762D01*
X143075953Y-111144048D01*
X143095000Y-111296429D01*
X143123572Y-111372619D01*
X143190239Y-111448810D01*
X143299763Y-111486905D01*
X143375953Y-111486905D01*
X143495001Y-111448810D01*
X143537858Y-111410714D01*
X143571191Y-111144048D01*
X143418810Y-111144048D01*
X143871191Y-111486905D02*
X143971191Y-110686905D01*
X144328334Y-111486905D01*
X144428334Y-110686905D01*
X144709286Y-111486905D02*
X144809286Y-110686905D01*
X144999762Y-110686905D01*
X145109286Y-110725000D01*
X145175953Y-110801190D01*
X145204524Y-110877381D01*
X145223572Y-111029762D01*
X145209286Y-111144048D01*
X145152143Y-111296429D01*
X145104525Y-111372619D01*
X145018810Y-111448810D01*
X144899762Y-111486905D01*
X144709286Y-111486905D01*
X145577857Y-110686905D02*
X145744524Y-111486905D01*
X146111191Y-110686905D01*
X146277857Y-111486905D02*
X146377857Y-110686905D01*
X146568333Y-110686905D01*
X146677857Y-110725000D01*
X146744524Y-110801190D01*
X146773095Y-110877381D01*
X146792143Y-111029762D01*
X146777857Y-111144048D01*
X146720714Y-111296429D01*
X146673096Y-111372619D01*
X146587381Y-111448810D01*
X146468333Y-111486905D01*
X146277857Y-111486905D01*
X147115952Y-111182143D02*
X147725476Y-111182143D01*
X147382619Y-111486905D02*
X147458809Y-110877381D01*
X136932143Y-111049285D02*
X136032143Y-111049285D01*
X136675000Y-110749285D01*
X136032143Y-110449285D01*
X136932143Y-110449285D01*
X136932143Y-110020714D02*
X136032143Y-110020714D01*
X136032143Y-109677857D01*
X136075000Y-109592143D01*
X136117857Y-109549286D01*
X136203571Y-109506429D01*
X136332143Y-109506429D01*
X136417857Y-109549286D01*
X136460714Y-109592143D01*
X136503571Y-109677857D01*
X136503571Y-110020714D01*
X136117857Y-109163571D02*
X136075000Y-109120714D01*
X136032143Y-109035000D01*
X136032143Y-108820714D01*
X136075000Y-108735000D01*
X136117857Y-108692143D01*
X136203571Y-108649286D01*
X136289286Y-108649286D01*
X136417857Y-108692143D01*
X136932143Y-109206429D01*
X136932143Y-108649286D01*
X136032143Y-108349286D02*
X136032143Y-107792143D01*
X136375000Y-108092143D01*
X136375000Y-107963571D01*
X136417857Y-107877857D01*
X136460714Y-107835000D01*
X136546429Y-107792143D01*
X136760714Y-107792143D01*
X136846429Y-107835000D01*
X136889286Y-107877857D01*
X136932143Y-107963571D01*
X136932143Y-108220714D01*
X136889286Y-108306428D01*
X136846429Y-108349286D01*
X136932143Y-106935000D02*
X136932143Y-107449285D01*
X136932143Y-107192143D02*
X136032143Y-107192143D01*
X136160714Y-107277857D01*
X136246429Y-107363571D01*
X136289286Y-107449285D01*
X136032143Y-106120714D02*
X136032143Y-106549285D01*
X136460714Y-106592142D01*
X136417857Y-106549285D01*
X136375000Y-106463571D01*
X136375000Y-106249285D01*
X136417857Y-106163571D01*
X136460714Y-106120714D01*
X136546429Y-106077857D01*
X136760714Y-106077857D01*
X136846429Y-106120714D01*
X136889286Y-106163571D01*
X136932143Y-106249285D01*
X136932143Y-106463571D01*
X136889286Y-106549285D01*
X136846429Y-106592142D01*
X111933810Y-79203571D02*
X111867143Y-79736905D01*
X111781429Y-78898810D02*
X111519524Y-79470238D01*
X112014762Y-79470238D01*
X106925239Y-78936905D02*
X106544286Y-78936905D01*
X106458572Y-79317857D01*
X106501429Y-79279762D01*
X106582382Y-79241667D01*
X106772858Y-79241667D01*
X106844286Y-79279762D01*
X106877620Y-79317857D01*
X106906191Y-79394048D01*
X106882382Y-79584524D01*
X106834763Y-79660714D01*
X106791905Y-79698810D01*
X106710953Y-79736905D01*
X106520477Y-79736905D01*
X106449048Y-79698810D01*
X106415715Y-79660714D01*
X114558095Y-126561905D02*
X114724762Y-127361905D01*
X115091429Y-126561905D01*
X115724762Y-127285714D02*
X115681905Y-127323810D01*
X115562857Y-127361905D01*
X115486667Y-127361905D01*
X115377143Y-127323810D01*
X115310476Y-127247619D01*
X115281904Y-127171429D01*
X115262857Y-127019048D01*
X115277143Y-126904762D01*
X115334285Y-126752381D01*
X115381904Y-126676190D01*
X115467619Y-126600000D01*
X115586667Y-126561905D01*
X115662857Y-126561905D01*
X115772381Y-126600000D01*
X115805714Y-126638095D01*
X116524762Y-127285714D02*
X116481905Y-127323810D01*
X116362857Y-127361905D01*
X116286667Y-127361905D01*
X116177143Y-127323810D01*
X116110476Y-127247619D01*
X116081904Y-127171429D01*
X116062857Y-127019048D01*
X116077143Y-126904762D01*
X116134285Y-126752381D01*
X116181904Y-126676190D01*
X116267619Y-126600000D01*
X116386667Y-126561905D01*
X116462857Y-126561905D01*
X116572381Y-126600000D01*
X116605714Y-126638095D01*
D12*
X97419000Y-105819000D02*
G75*
G03X97419000Y-105819000I-200000J0D01*
G01*
D11*
X114553333Y-124821905D02*
X114653333Y-124021905D01*
X114843809Y-124021905D01*
X114953333Y-124060000D01*
X115020000Y-124136190D01*
X115048571Y-124212381D01*
X115067619Y-124364762D01*
X115053333Y-124479048D01*
X114996190Y-124631429D01*
X114948572Y-124707619D01*
X114862857Y-124783810D01*
X114743809Y-124821905D01*
X114553333Y-124821905D01*
X115377143Y-124021905D02*
X115872381Y-124021905D01*
X115567619Y-124326667D01*
X115681905Y-124326667D01*
X115753333Y-124364762D01*
X115786667Y-124402857D01*
X115815238Y-124479048D01*
X115791429Y-124669524D01*
X115743810Y-124745714D01*
X115700952Y-124783810D01*
X115620000Y-124821905D01*
X115391428Y-124821905D01*
X115320000Y-124783810D01*
X115286667Y-124745714D01*
X116367619Y-124021905D02*
X116443810Y-124021905D01*
X116515238Y-124060000D01*
X116548571Y-124098095D01*
X116577143Y-124174286D01*
X116596191Y-124326667D01*
X116572381Y-124517143D01*
X116515239Y-124669524D01*
X116467619Y-124745714D01*
X116424762Y-124783810D01*
X116343810Y-124821905D01*
X116267619Y-124821905D01*
X116196191Y-124783810D01*
X116162857Y-124745714D01*
X116134286Y-124669524D01*
X116115238Y-124517143D01*
X116139048Y-124326667D01*
X116196190Y-124174286D01*
X116243809Y-124098095D01*
X116286667Y-124060000D01*
X116367619Y-124021905D01*
X114934286Y-122281905D02*
X115034286Y-121481905D01*
X115224762Y-121481905D01*
X115334286Y-121520000D01*
X115400953Y-121596190D01*
X115429524Y-121672381D01*
X115448572Y-121824762D01*
X115434286Y-121939048D01*
X115377143Y-122091429D01*
X115329525Y-122167619D01*
X115243810Y-122243810D01*
X115124762Y-122281905D01*
X114934286Y-122281905D01*
X115772381Y-122281905D02*
X115924762Y-122281905D01*
X116005715Y-122243810D01*
X116048572Y-122205714D01*
X116139048Y-122091429D01*
X116196191Y-121939048D01*
X116234286Y-121634286D01*
X116205715Y-121558095D01*
X116172381Y-121520000D01*
X116100953Y-121481905D01*
X115948572Y-121481905D01*
X115867619Y-121520000D01*
X115824762Y-121558095D01*
X115777143Y-121634286D01*
X115753334Y-121824762D01*
X115781905Y-121900952D01*
X115815238Y-121939048D01*
X115886667Y-121977143D01*
X116039048Y-121977143D01*
X116120000Y-121939048D01*
X116162858Y-121900952D01*
X116210477Y-121824762D01*
X114553333Y-119741905D02*
X114653333Y-118941905D01*
X114843809Y-118941905D01*
X114953333Y-118980000D01*
X115020000Y-119056190D01*
X115048571Y-119132381D01*
X115067619Y-119284762D01*
X115053333Y-119399048D01*
X114996190Y-119551429D01*
X114948572Y-119627619D01*
X114862857Y-119703810D01*
X114743809Y-119741905D01*
X114553333Y-119741905D01*
X115405714Y-119018095D02*
X115448571Y-118980000D01*
X115529524Y-118941905D01*
X115720000Y-118941905D01*
X115791428Y-118980000D01*
X115824762Y-119018095D01*
X115853333Y-119094286D01*
X115843810Y-119170476D01*
X115791429Y-119284762D01*
X115277143Y-119741905D01*
X115772381Y-119741905D01*
X116524762Y-119208571D02*
X116458095Y-119741905D01*
X116372381Y-118903810D02*
X116110476Y-119475238D01*
X116605714Y-119475238D01*
X114553333Y-117201905D02*
X114653333Y-116401905D01*
X114843809Y-116401905D01*
X114953333Y-116440000D01*
X115020000Y-116516190D01*
X115048571Y-116592381D01*
X115067619Y-116744762D01*
X115053333Y-116859048D01*
X114996190Y-117011429D01*
X114948572Y-117087619D01*
X114862857Y-117163810D01*
X114743809Y-117201905D01*
X114553333Y-117201905D01*
X115405714Y-116478095D02*
X115448571Y-116440000D01*
X115529524Y-116401905D01*
X115720000Y-116401905D01*
X115791428Y-116440000D01*
X115824762Y-116478095D01*
X115853333Y-116554286D01*
X115843810Y-116630476D01*
X115791429Y-116744762D01*
X115277143Y-117201905D01*
X115772381Y-117201905D01*
X116596191Y-116401905D02*
X116215238Y-116401905D01*
X116129524Y-116782857D01*
X116172381Y-116744762D01*
X116253334Y-116706667D01*
X116443810Y-116706667D01*
X116515238Y-116744762D01*
X116548572Y-116782857D01*
X116577143Y-116859048D01*
X116553334Y-117049524D01*
X116505715Y-117125714D01*
X116462857Y-117163810D01*
X116381905Y-117201905D01*
X116191429Y-117201905D01*
X116120000Y-117163810D01*
X116086667Y-117125714D01*
X123361905Y-102135714D02*
X122561905Y-102035714D01*
X122561905Y-101845238D01*
X122600000Y-101735714D01*
X122676190Y-101669047D01*
X122752381Y-101640476D01*
X122904762Y-101621428D01*
X123019048Y-101635714D01*
X123171429Y-101692857D01*
X123247619Y-101740475D01*
X123323810Y-101826190D01*
X123361905Y-101945238D01*
X123361905Y-102135714D01*
X122561905Y-101311904D02*
X122561905Y-100778571D01*
X123361905Y-101221428D01*
X123361905Y-99635714D02*
X122561905Y-99535714D01*
X122561905Y-99345238D01*
X122600000Y-99235714D01*
X122676190Y-99169047D01*
X122752381Y-99140476D01*
X122904762Y-99121428D01*
X123019048Y-99135714D01*
X123171429Y-99192857D01*
X123247619Y-99240475D01*
X123323810Y-99326190D01*
X123361905Y-99445238D01*
X123361905Y-99635714D01*
X122561905Y-98392857D02*
X122561905Y-98545238D01*
X122600000Y-98626190D01*
X122638095Y-98669047D01*
X122752381Y-98759524D01*
X122904762Y-98816666D01*
X123209524Y-98854761D01*
X123285714Y-98826190D01*
X123323810Y-98792857D01*
X123361905Y-98721428D01*
X123361905Y-98569047D01*
X123323810Y-98488095D01*
X123285714Y-98445237D01*
X123209524Y-98397618D01*
X123019048Y-98373809D01*
X122942857Y-98402380D01*
X122904762Y-98435714D01*
X122866667Y-98507142D01*
X122866667Y-98659523D01*
X122904762Y-98740476D01*
X122942857Y-98783333D01*
X123019048Y-98830952D01*
X112441905Y-101733333D02*
X112822857Y-101733333D01*
X112337143Y-101961905D02*
X112703810Y-101161905D01*
X112870477Y-101961905D01*
X113389524Y-101161905D02*
X113465715Y-101161905D01*
X113537143Y-101200000D01*
X113570476Y-101238095D01*
X113599048Y-101314286D01*
X113618096Y-101466667D01*
X113594286Y-101657143D01*
X113537144Y-101809524D01*
X113489524Y-101885714D01*
X113446667Y-101923810D01*
X113365715Y-101961905D01*
X113289524Y-101961905D01*
X113218096Y-101923810D01*
X113184762Y-101885714D01*
X113156191Y-101809524D01*
X113137143Y-101657143D01*
X113160953Y-101466667D01*
X113218095Y-101314286D01*
X113265714Y-101238095D01*
X113308572Y-101200000D01*
X113389524Y-101161905D01*
X113798333Y-99648095D02*
X113798333Y-99267143D01*
X114026905Y-99752857D02*
X113226905Y-99386190D01*
X114026905Y-99219523D01*
X114026905Y-98533809D02*
X114026905Y-98990952D01*
X114026905Y-98762381D02*
X113226905Y-98662381D01*
X113341190Y-98752857D01*
X113417381Y-98838572D01*
X113455476Y-98919523D01*
X113798333Y-97743095D02*
X113798333Y-97362143D01*
X114026905Y-97847857D02*
X113226905Y-97481190D01*
X114026905Y-97314523D01*
X113303095Y-96995476D02*
X113265000Y-96952619D01*
X113226905Y-96871666D01*
X113226905Y-96681190D01*
X113265000Y-96609762D01*
X113303095Y-96576428D01*
X113379286Y-96547857D01*
X113455476Y-96557380D01*
X113569762Y-96609761D01*
X114026905Y-97124047D01*
X114026905Y-96628809D01*
X112441905Y-94113333D02*
X112822857Y-94113333D01*
X112337143Y-94341905D02*
X112703810Y-93541905D01*
X112870477Y-94341905D01*
X113160953Y-93541905D02*
X113656191Y-93541905D01*
X113351429Y-93846667D01*
X113465715Y-93846667D01*
X113537143Y-93884762D01*
X113570477Y-93922857D01*
X113599048Y-93999048D01*
X113575239Y-94189524D01*
X113527620Y-94265714D01*
X113484762Y-94303810D01*
X113403810Y-94341905D01*
X113175238Y-94341905D01*
X113103810Y-94303810D01*
X113070477Y-94265714D01*
X112441905Y-91573333D02*
X112822857Y-91573333D01*
X112337143Y-91801905D02*
X112703810Y-91001905D01*
X112870477Y-91801905D01*
X113546667Y-91268571D02*
X113480000Y-91801905D01*
X113394286Y-90963810D02*
X113132381Y-91535238D01*
X113627619Y-91535238D01*
X112441905Y-89033333D02*
X112822857Y-89033333D01*
X112337143Y-89261905D02*
X112703810Y-88461905D01*
X112870477Y-89261905D01*
X113618096Y-88461905D02*
X113237143Y-88461905D01*
X113151429Y-88842857D01*
X113194286Y-88804762D01*
X113275239Y-88766667D01*
X113465715Y-88766667D01*
X113537143Y-88804762D01*
X113570477Y-88842857D01*
X113599048Y-88919048D01*
X113575239Y-89109524D01*
X113527620Y-89185714D01*
X113484762Y-89223810D01*
X113403810Y-89261905D01*
X113213334Y-89261905D01*
X113141905Y-89223810D01*
X113108572Y-89185714D01*
X113798333Y-86948095D02*
X113798333Y-86567143D01*
X114026905Y-87052857D02*
X113226905Y-86686190D01*
X114026905Y-86519523D01*
X113226905Y-85810000D02*
X113226905Y-85962381D01*
X113265000Y-86043333D01*
X113303095Y-86086190D01*
X113417381Y-86176667D01*
X113569762Y-86233809D01*
X113874524Y-86271904D01*
X113950714Y-86243333D01*
X113988810Y-86210000D01*
X114026905Y-86138571D01*
X114026905Y-85986190D01*
X113988810Y-85905238D01*
X113950714Y-85862380D01*
X113874524Y-85814761D01*
X113684048Y-85790952D01*
X113607857Y-85819523D01*
X113569762Y-85852857D01*
X113531667Y-85924285D01*
X113531667Y-86076666D01*
X113569762Y-86157619D01*
X113607857Y-86200476D01*
X113684048Y-86248095D01*
X114026905Y-84455714D02*
X113226905Y-84355714D01*
X113226905Y-84165238D01*
X113265000Y-84055714D01*
X113341190Y-83989047D01*
X113417381Y-83960476D01*
X113569762Y-83941428D01*
X113684048Y-83955714D01*
X113836429Y-84012857D01*
X113912619Y-84060475D01*
X113988810Y-84146190D01*
X114026905Y-84265238D01*
X114026905Y-84455714D01*
X113226905Y-83631904D02*
X113226905Y-83136666D01*
X113531667Y-83441428D01*
X113531667Y-83327142D01*
X113569762Y-83255714D01*
X113607857Y-83222380D01*
X113684048Y-83193809D01*
X113874524Y-83217618D01*
X113950714Y-83265237D01*
X113988810Y-83308095D01*
X114026905Y-83389047D01*
X114026905Y-83617619D01*
X113988810Y-83689047D01*
X113950714Y-83722380D01*
X94582619Y-81641905D02*
X94682619Y-80841905D01*
X94877857Y-81413333D01*
X95215953Y-80841905D01*
X95115953Y-81641905D01*
X95749286Y-80841905D02*
X95901667Y-80841905D01*
X95973096Y-80880000D01*
X96039762Y-80956190D01*
X96058810Y-81108571D01*
X96025476Y-81375238D01*
X95968334Y-81527619D01*
X95882620Y-81603810D01*
X95801667Y-81641905D01*
X95649286Y-81641905D01*
X95577858Y-81603810D01*
X95511191Y-81527619D01*
X95492143Y-81375238D01*
X95525477Y-81108571D01*
X95582619Y-80956190D01*
X95668334Y-80880000D01*
X95749286Y-80841905D01*
X96301667Y-81603810D02*
X96411191Y-81641905D01*
X96601667Y-81641905D01*
X96682619Y-81603810D01*
X96725477Y-81565714D01*
X96773096Y-81489524D01*
X96782619Y-81413333D01*
X96754048Y-81337143D01*
X96720714Y-81299048D01*
X96649286Y-81260952D01*
X96501667Y-81222857D01*
X96430238Y-81184762D01*
X96396905Y-81146667D01*
X96368334Y-81070476D01*
X96377857Y-80994286D01*
X96425476Y-80918095D01*
X96468333Y-80880000D01*
X96549286Y-80841905D01*
X96739762Y-80841905D01*
X96849286Y-80880000D01*
X97096905Y-81641905D02*
X97196905Y-80841905D01*
X98048095Y-80841905D02*
X98214762Y-81641905D01*
X98581429Y-80841905D01*
X99214762Y-81565714D02*
X99171905Y-81603810D01*
X99052857Y-81641905D01*
X98976667Y-81641905D01*
X98867143Y-81603810D01*
X98800476Y-81527619D01*
X98771904Y-81451429D01*
X98752857Y-81299048D01*
X98767143Y-81184762D01*
X98824285Y-81032381D01*
X98871904Y-80956190D01*
X98957619Y-80880000D01*
X99076667Y-80841905D01*
X99152857Y-80841905D01*
X99262381Y-80880000D01*
X99295714Y-80918095D01*
X100014762Y-81565714D02*
X99971905Y-81603810D01*
X99852857Y-81641905D01*
X99776667Y-81641905D01*
X99667143Y-81603810D01*
X99600476Y-81527619D01*
X99571904Y-81451429D01*
X99552857Y-81299048D01*
X99567143Y-81184762D01*
X99624285Y-81032381D01*
X99671904Y-80956190D01*
X99757619Y-80880000D01*
X99876667Y-80841905D01*
X99952857Y-80841905D01*
X100062381Y-80880000D01*
X100095714Y-80918095D01*
X92150477Y-80880000D02*
X92079048Y-80841905D01*
X91964763Y-80841905D01*
X91845715Y-80880000D01*
X91760000Y-80956190D01*
X91712381Y-81032381D01*
X91655239Y-81184762D01*
X91640953Y-81299048D01*
X91660000Y-81451429D01*
X91688572Y-81527619D01*
X91755239Y-81603810D01*
X91864763Y-81641905D01*
X91940953Y-81641905D01*
X92060001Y-81603810D01*
X92102858Y-81565714D01*
X92136191Y-81299048D01*
X91983810Y-81299048D01*
X92436191Y-81641905D02*
X92536191Y-80841905D01*
X92893334Y-81641905D01*
X92993334Y-80841905D01*
X93274286Y-81641905D02*
X93374286Y-80841905D01*
X93564762Y-80841905D01*
X93674286Y-80880000D01*
X93740953Y-80956190D01*
X93769524Y-81032381D01*
X93788572Y-81184762D01*
X93774286Y-81299048D01*
X93717143Y-81451429D01*
X93669525Y-81527619D01*
X93583810Y-81603810D01*
X93464762Y-81641905D01*
X93274286Y-81641905D01*
X97757619Y-75291905D02*
X97857619Y-74491905D01*
X98052857Y-75063333D01*
X98390953Y-74491905D01*
X98290953Y-75291905D01*
X98671905Y-75291905D02*
X98771905Y-74491905D01*
X99019524Y-75253810D02*
X99129048Y-75291905D01*
X99319524Y-75291905D01*
X99400476Y-75253810D01*
X99443334Y-75215714D01*
X99490953Y-75139524D01*
X99500476Y-75063333D01*
X99471905Y-74987143D01*
X99438571Y-74949048D01*
X99367143Y-74910952D01*
X99219524Y-74872857D01*
X99148095Y-74834762D01*
X99114762Y-74796667D01*
X99086191Y-74720476D01*
X99095714Y-74644286D01*
X99143333Y-74568095D01*
X99186190Y-74530000D01*
X99267143Y-74491905D01*
X99457619Y-74491905D01*
X99567143Y-74530000D01*
X100067143Y-74491905D02*
X100219524Y-74491905D01*
X100290953Y-74530000D01*
X100357619Y-74606190D01*
X100376667Y-74758571D01*
X100343333Y-75025238D01*
X100286191Y-75177619D01*
X100200477Y-75253810D01*
X100119524Y-75291905D01*
X99967143Y-75291905D01*
X99895715Y-75253810D01*
X99829048Y-75177619D01*
X99810000Y-75025238D01*
X99843334Y-74758571D01*
X99900476Y-74606190D01*
X99986191Y-74530000D01*
X100067143Y-74491905D01*
X94815953Y-75253810D02*
X94925477Y-75291905D01*
X95115953Y-75291905D01*
X95196905Y-75253810D01*
X95239763Y-75215714D01*
X95287382Y-75139524D01*
X95296905Y-75063333D01*
X95268334Y-74987143D01*
X95235000Y-74949048D01*
X95163572Y-74910952D01*
X95015953Y-74872857D01*
X94944524Y-74834762D01*
X94911191Y-74796667D01*
X94882620Y-74720476D01*
X94892143Y-74644286D01*
X94939762Y-74568095D01*
X94982619Y-74530000D01*
X95063572Y-74491905D01*
X95254048Y-74491905D01*
X95363572Y-74530000D01*
X96077858Y-75215714D02*
X96035001Y-75253810D01*
X95915953Y-75291905D01*
X95839763Y-75291905D01*
X95730239Y-75253810D01*
X95663572Y-75177619D01*
X95635000Y-75101429D01*
X95615953Y-74949048D01*
X95630239Y-74834762D01*
X95687381Y-74682381D01*
X95735000Y-74606190D01*
X95820715Y-74530000D01*
X95939763Y-74491905D01*
X96015953Y-74491905D01*
X96125477Y-74530000D01*
X96158810Y-74568095D01*
X96411191Y-75291905D02*
X96511191Y-74491905D01*
X96868334Y-75291905D02*
X96582620Y-74834762D01*
X96968334Y-74491905D02*
X96454048Y-74949048D01*
X91864762Y-75291905D02*
X91645714Y-74910952D01*
X91407619Y-75291905D02*
X91507619Y-74491905D01*
X91812381Y-74491905D01*
X91883810Y-74530000D01*
X91917143Y-74568095D01*
X91945714Y-74644286D01*
X91931429Y-74758571D01*
X91883810Y-74834762D01*
X91840953Y-74872857D01*
X91760000Y-74910952D01*
X91455238Y-74910952D01*
X92174286Y-75253810D02*
X92283810Y-75291905D01*
X92474286Y-75291905D01*
X92555238Y-75253810D01*
X92598096Y-75215714D01*
X92645715Y-75139524D01*
X92655238Y-75063333D01*
X92626667Y-74987143D01*
X92593333Y-74949048D01*
X92521905Y-74910952D01*
X92374286Y-74872857D01*
X92302857Y-74834762D01*
X92269524Y-74796667D01*
X92240953Y-74720476D01*
X92250476Y-74644286D01*
X92298095Y-74568095D01*
X92340952Y-74530000D01*
X92421905Y-74491905D01*
X92612381Y-74491905D01*
X92721905Y-74530000D01*
X93021905Y-74872857D02*
X93288572Y-74872857D01*
X93350477Y-75291905D02*
X92969524Y-75291905D01*
X93069524Y-74491905D01*
X93450477Y-74491905D01*
X93679048Y-74491905D02*
X94136191Y-74491905D01*
X93807620Y-75291905D02*
X93907620Y-74491905D01*
X107428571Y-150476190D02*
X107428571Y-150809524D01*
X107952381Y-150809524D02*
X106952381Y-150809524D01*
X106952381Y-150333333D01*
X106952381Y-150095238D02*
X106952381Y-149523809D01*
X107952381Y-149809524D02*
X106952381Y-149809524D01*
X107952381Y-149190476D02*
X106952381Y-149190476D01*
X106952381Y-148952381D01*
X107000000Y-148809523D01*
X107095238Y-148714285D01*
X107190476Y-148666666D01*
X107380952Y-148619047D01*
X107523810Y-148619047D01*
X107714286Y-148666666D01*
X107809524Y-148714285D01*
X107904762Y-148809523D01*
X107952381Y-148952381D01*
X107952381Y-149190476D01*
X107952381Y-148190476D02*
X106952381Y-148190476D01*
X116463095Y-130371905D02*
X116629762Y-131171905D01*
X116996429Y-130371905D01*
X117629762Y-131095714D02*
X117586905Y-131133810D01*
X117467857Y-131171905D01*
X117391667Y-131171905D01*
X117282143Y-131133810D01*
X117215476Y-131057619D01*
X117186904Y-130981429D01*
X117167857Y-130829048D01*
X117182143Y-130714762D01*
X117239285Y-130562381D01*
X117286904Y-130486190D01*
X117372619Y-130410000D01*
X117491667Y-130371905D01*
X117567857Y-130371905D01*
X117677381Y-130410000D01*
X117710714Y-130448095D01*
X118429762Y-131095714D02*
X118386905Y-131133810D01*
X118267857Y-131171905D01*
X118191667Y-131171905D01*
X118082143Y-131133810D01*
X118015476Y-131057619D01*
X117986904Y-130981429D01*
X117967857Y-130829048D01*
X117982143Y-130714762D01*
X118039285Y-130562381D01*
X118086904Y-130486190D01*
X118172619Y-130410000D01*
X118291667Y-130371905D01*
X118367857Y-130371905D01*
X118477381Y-130410000D01*
X118510714Y-130448095D01*
X116915477Y-132950000D02*
X116844048Y-132911905D01*
X116729763Y-132911905D01*
X116610715Y-132950000D01*
X116525000Y-133026190D01*
X116477381Y-133102381D01*
X116420239Y-133254762D01*
X116405953Y-133369048D01*
X116425000Y-133521429D01*
X116453572Y-133597619D01*
X116520239Y-133673810D01*
X116629763Y-133711905D01*
X116705953Y-133711905D01*
X116825001Y-133673810D01*
X116867858Y-133635714D01*
X116901191Y-133369048D01*
X116748810Y-133369048D01*
X117201191Y-133711905D02*
X117301191Y-132911905D01*
X117658334Y-133711905D01*
X117758334Y-132911905D01*
X118039286Y-133711905D02*
X118139286Y-132911905D01*
X118329762Y-132911905D01*
X118439286Y-132950000D01*
X118505953Y-133026190D01*
X118534524Y-133102381D01*
X118553572Y-133254762D01*
X118539286Y-133369048D01*
X118482143Y-133521429D01*
X118434525Y-133597619D01*
X118348810Y-133673810D01*
X118229762Y-133711905D01*
X118039286Y-133711905D01*
X116482143Y-136213810D02*
X116591667Y-136251905D01*
X116782143Y-136251905D01*
X116863095Y-136213810D01*
X116905953Y-136175714D01*
X116953572Y-136099524D01*
X116963095Y-136023333D01*
X116934524Y-135947143D01*
X116901190Y-135909048D01*
X116829762Y-135870952D01*
X116682143Y-135832857D01*
X116610714Y-135794762D01*
X116577381Y-135756667D01*
X116548810Y-135680476D01*
X116558333Y-135604286D01*
X116605952Y-135528095D01*
X116648809Y-135490000D01*
X116729762Y-135451905D01*
X116920238Y-135451905D01*
X117029762Y-135490000D01*
X117744048Y-136175714D02*
X117701191Y-136213810D01*
X117582143Y-136251905D01*
X117505953Y-136251905D01*
X117396429Y-136213810D01*
X117329762Y-136137619D01*
X117301190Y-136061429D01*
X117282143Y-135909048D01*
X117296429Y-135794762D01*
X117353571Y-135642381D01*
X117401190Y-135566190D01*
X117486905Y-135490000D01*
X117605953Y-135451905D01*
X117682143Y-135451905D01*
X117791667Y-135490000D01*
X117825000Y-135528095D01*
X118458334Y-136251905D02*
X118077381Y-136251905D01*
X118177381Y-135451905D01*
X116463096Y-138753810D02*
X116572620Y-138791905D01*
X116763096Y-138791905D01*
X116844048Y-138753810D01*
X116886906Y-138715714D01*
X116934525Y-138639524D01*
X116944048Y-138563333D01*
X116915477Y-138487143D01*
X116882143Y-138449048D01*
X116810715Y-138410952D01*
X116663096Y-138372857D01*
X116591667Y-138334762D01*
X116558334Y-138296667D01*
X116529763Y-138220476D01*
X116539286Y-138144286D01*
X116586905Y-138068095D01*
X116629762Y-138030000D01*
X116710715Y-137991905D01*
X116901191Y-137991905D01*
X117010715Y-138030000D01*
X117258334Y-138791905D02*
X117358334Y-137991905D01*
X117548810Y-137991905D01*
X117658334Y-138030000D01*
X117725001Y-138106190D01*
X117753572Y-138182381D01*
X117772620Y-138334762D01*
X117758334Y-138449048D01*
X117701191Y-138601429D01*
X117653573Y-138677619D01*
X117567858Y-138753810D01*
X117448810Y-138791905D01*
X117258334Y-138791905D01*
X118048810Y-138563333D02*
X118429762Y-138563333D01*
X117944048Y-138791905D02*
X118310715Y-137991905D01*
X118477382Y-138791905D01*
X107573096Y-138753810D02*
X107682620Y-138791905D01*
X107873096Y-138791905D01*
X107954048Y-138753810D01*
X107996906Y-138715714D01*
X108044525Y-138639524D01*
X108054048Y-138563333D01*
X108025477Y-138487143D01*
X107992143Y-138449048D01*
X107920715Y-138410952D01*
X107773096Y-138372857D01*
X107701667Y-138334762D01*
X107668334Y-138296667D01*
X107639763Y-138220476D01*
X107649286Y-138144286D01*
X107696905Y-138068095D01*
X107739762Y-138030000D01*
X107820715Y-137991905D01*
X108011191Y-137991905D01*
X108120715Y-138030000D01*
X108368334Y-138791905D02*
X108468334Y-137991905D01*
X108658810Y-137991905D01*
X108768334Y-138030000D01*
X108835001Y-138106190D01*
X108863572Y-138182381D01*
X108882620Y-138334762D01*
X108868334Y-138449048D01*
X108811191Y-138601429D01*
X108763573Y-138677619D01*
X108677858Y-138753810D01*
X108558810Y-138791905D01*
X108368334Y-138791905D01*
X109158810Y-138563333D02*
X109539762Y-138563333D01*
X109054048Y-138791905D02*
X109420715Y-137991905D01*
X109587382Y-138791905D01*
X107592143Y-136213810D02*
X107701667Y-136251905D01*
X107892143Y-136251905D01*
X107973095Y-136213810D01*
X108015953Y-136175714D01*
X108063572Y-136099524D01*
X108073095Y-136023333D01*
X108044524Y-135947143D01*
X108011190Y-135909048D01*
X107939762Y-135870952D01*
X107792143Y-135832857D01*
X107720714Y-135794762D01*
X107687381Y-135756667D01*
X107658810Y-135680476D01*
X107668333Y-135604286D01*
X107715952Y-135528095D01*
X107758809Y-135490000D01*
X107839762Y-135451905D01*
X108030238Y-135451905D01*
X108139762Y-135490000D01*
X108854048Y-136175714D02*
X108811191Y-136213810D01*
X108692143Y-136251905D01*
X108615953Y-136251905D01*
X108506429Y-136213810D01*
X108439762Y-136137619D01*
X108411190Y-136061429D01*
X108392143Y-135909048D01*
X108406429Y-135794762D01*
X108463571Y-135642381D01*
X108511190Y-135566190D01*
X108596905Y-135490000D01*
X108715953Y-135451905D01*
X108792143Y-135451905D01*
X108901667Y-135490000D01*
X108935000Y-135528095D01*
X109568334Y-136251905D02*
X109187381Y-136251905D01*
X109287381Y-135451905D01*
X108025477Y-132950000D02*
X107954048Y-132911905D01*
X107839763Y-132911905D01*
X107720715Y-132950000D01*
X107635000Y-133026190D01*
X107587381Y-133102381D01*
X107530239Y-133254762D01*
X107515953Y-133369048D01*
X107535000Y-133521429D01*
X107563572Y-133597619D01*
X107630239Y-133673810D01*
X107739763Y-133711905D01*
X107815953Y-133711905D01*
X107935001Y-133673810D01*
X107977858Y-133635714D01*
X108011191Y-133369048D01*
X107858810Y-133369048D01*
X108311191Y-133711905D02*
X108411191Y-132911905D01*
X108768334Y-133711905D01*
X108868334Y-132911905D01*
X109149286Y-133711905D02*
X109249286Y-132911905D01*
X109439762Y-132911905D01*
X109549286Y-132950000D01*
X109615953Y-133026190D01*
X109644524Y-133102381D01*
X109663572Y-133254762D01*
X109649286Y-133369048D01*
X109592143Y-133521429D01*
X109544525Y-133597619D01*
X109458810Y-133673810D01*
X109339762Y-133711905D01*
X109149286Y-133711905D01*
X107573095Y-130371905D02*
X107739762Y-131171905D01*
X108106429Y-130371905D01*
X108739762Y-131095714D02*
X108696905Y-131133810D01*
X108577857Y-131171905D01*
X108501667Y-131171905D01*
X108392143Y-131133810D01*
X108325476Y-131057619D01*
X108296904Y-130981429D01*
X108277857Y-130829048D01*
X108292143Y-130714762D01*
X108349285Y-130562381D01*
X108396904Y-130486190D01*
X108482619Y-130410000D01*
X108601667Y-130371905D01*
X108677857Y-130371905D01*
X108787381Y-130410000D01*
X108820714Y-130448095D01*
X109539762Y-131095714D02*
X109496905Y-131133810D01*
X109377857Y-131171905D01*
X109301667Y-131171905D01*
X109192143Y-131133810D01*
X109125476Y-131057619D01*
X109096904Y-130981429D01*
X109077857Y-130829048D01*
X109092143Y-130714762D01*
X109149285Y-130562381D01*
X109196904Y-130486190D01*
X109282619Y-130410000D01*
X109401667Y-130371905D01*
X109477857Y-130371905D01*
X109587381Y-130410000D01*
X109620714Y-130448095D01*
X96143095Y-130371905D02*
X96309762Y-131171905D01*
X96676429Y-130371905D01*
X97309762Y-131095714D02*
X97266905Y-131133810D01*
X97147857Y-131171905D01*
X97071667Y-131171905D01*
X96962143Y-131133810D01*
X96895476Y-131057619D01*
X96866904Y-130981429D01*
X96847857Y-130829048D01*
X96862143Y-130714762D01*
X96919285Y-130562381D01*
X96966904Y-130486190D01*
X97052619Y-130410000D01*
X97171667Y-130371905D01*
X97247857Y-130371905D01*
X97357381Y-130410000D01*
X97390714Y-130448095D01*
X98109762Y-131095714D02*
X98066905Y-131133810D01*
X97947857Y-131171905D01*
X97871667Y-131171905D01*
X97762143Y-131133810D01*
X97695476Y-131057619D01*
X97666904Y-130981429D01*
X97647857Y-130829048D01*
X97662143Y-130714762D01*
X97719285Y-130562381D01*
X97766904Y-130486190D01*
X97852619Y-130410000D01*
X97971667Y-130371905D01*
X98047857Y-130371905D01*
X98157381Y-130410000D01*
X98190714Y-130448095D01*
X96595477Y-132950000D02*
X96524048Y-132911905D01*
X96409763Y-132911905D01*
X96290715Y-132950000D01*
X96205000Y-133026190D01*
X96157381Y-133102381D01*
X96100239Y-133254762D01*
X96085953Y-133369048D01*
X96105000Y-133521429D01*
X96133572Y-133597619D01*
X96200239Y-133673810D01*
X96309763Y-133711905D01*
X96385953Y-133711905D01*
X96505001Y-133673810D01*
X96547858Y-133635714D01*
X96581191Y-133369048D01*
X96428810Y-133369048D01*
X96881191Y-133711905D02*
X96981191Y-132911905D01*
X97338334Y-133711905D01*
X97438334Y-132911905D01*
X97719286Y-133711905D02*
X97819286Y-132911905D01*
X98009762Y-132911905D01*
X98119286Y-132950000D01*
X98185953Y-133026190D01*
X98214524Y-133102381D01*
X98233572Y-133254762D01*
X98219286Y-133369048D01*
X98162143Y-133521429D01*
X98114525Y-133597619D01*
X98028810Y-133673810D01*
X97909762Y-133711905D01*
X97719286Y-133711905D01*
X96162143Y-136213810D02*
X96271667Y-136251905D01*
X96462143Y-136251905D01*
X96543095Y-136213810D01*
X96585953Y-136175714D01*
X96633572Y-136099524D01*
X96643095Y-136023333D01*
X96614524Y-135947143D01*
X96581190Y-135909048D01*
X96509762Y-135870952D01*
X96362143Y-135832857D01*
X96290714Y-135794762D01*
X96257381Y-135756667D01*
X96228810Y-135680476D01*
X96238333Y-135604286D01*
X96285952Y-135528095D01*
X96328809Y-135490000D01*
X96409762Y-135451905D01*
X96600238Y-135451905D01*
X96709762Y-135490000D01*
X97424048Y-136175714D02*
X97381191Y-136213810D01*
X97262143Y-136251905D01*
X97185953Y-136251905D01*
X97076429Y-136213810D01*
X97009762Y-136137619D01*
X96981190Y-136061429D01*
X96962143Y-135909048D01*
X96976429Y-135794762D01*
X97033571Y-135642381D01*
X97081190Y-135566190D01*
X97166905Y-135490000D01*
X97285953Y-135451905D01*
X97362143Y-135451905D01*
X97471667Y-135490000D01*
X97505000Y-135528095D01*
X98138334Y-136251905D02*
X97757381Y-136251905D01*
X97857381Y-135451905D01*
X96143096Y-138753810D02*
X96252620Y-138791905D01*
X96443096Y-138791905D01*
X96524048Y-138753810D01*
X96566906Y-138715714D01*
X96614525Y-138639524D01*
X96624048Y-138563333D01*
X96595477Y-138487143D01*
X96562143Y-138449048D01*
X96490715Y-138410952D01*
X96343096Y-138372857D01*
X96271667Y-138334762D01*
X96238334Y-138296667D01*
X96209763Y-138220476D01*
X96219286Y-138144286D01*
X96266905Y-138068095D01*
X96309762Y-138030000D01*
X96390715Y-137991905D01*
X96581191Y-137991905D01*
X96690715Y-138030000D01*
X96938334Y-138791905D02*
X97038334Y-137991905D01*
X97228810Y-137991905D01*
X97338334Y-138030000D01*
X97405001Y-138106190D01*
X97433572Y-138182381D01*
X97452620Y-138334762D01*
X97438334Y-138449048D01*
X97381191Y-138601429D01*
X97333573Y-138677619D01*
X97247858Y-138753810D01*
X97128810Y-138791905D01*
X96938334Y-138791905D01*
X97728810Y-138563333D02*
X98109762Y-138563333D01*
X97624048Y-138791905D02*
X97990715Y-137991905D01*
X98157382Y-138791905D01*
X91452381Y-79476190D02*
X90452381Y-79476190D01*
X91357143Y-78428571D02*
X91404762Y-78476190D01*
X91452381Y-78619047D01*
X91452381Y-78714285D01*
X91404762Y-78857143D01*
X91309524Y-78952381D01*
X91214286Y-79000000D01*
X91023810Y-79047619D01*
X90880952Y-79047619D01*
X90690476Y-79000000D01*
X90595238Y-78952381D01*
X90500000Y-78857143D01*
X90452381Y-78714285D01*
X90452381Y-78619047D01*
X90500000Y-78476190D01*
X90547619Y-78428571D01*
X91404762Y-78047619D02*
X91452381Y-77904762D01*
X91452381Y-77666666D01*
X91404762Y-77571428D01*
X91357143Y-77523809D01*
X91261905Y-77476190D01*
X91166667Y-77476190D01*
X91071429Y-77523809D01*
X91023810Y-77571428D01*
X90976190Y-77666666D01*
X90928571Y-77857143D01*
X90880952Y-77952381D01*
X90833333Y-78000000D01*
X90738095Y-78047619D01*
X90642857Y-78047619D01*
X90547619Y-78000000D01*
X90500000Y-77952381D01*
X90452381Y-77857143D01*
X90452381Y-77619047D01*
X90500000Y-77476190D01*
X91452381Y-77047619D02*
X90452381Y-77047619D01*
X90452381Y-76666666D01*
X90500000Y-76571428D01*
X90547619Y-76523809D01*
X90642857Y-76476190D01*
X90785714Y-76476190D01*
X90880952Y-76523809D01*
X90928571Y-76571428D01*
X90976190Y-76666666D01*
X90976190Y-77047619D01*
D13*
X118471905Y-150952857D02*
X118090952Y-151171905D01*
X118471905Y-151410000D02*
X117671905Y-151310000D01*
X117671905Y-151005238D01*
X117710000Y-150933809D01*
X117748095Y-150900476D01*
X117824286Y-150871905D01*
X117938571Y-150886190D01*
X118014762Y-150933809D01*
X118052857Y-150976666D01*
X118090952Y-151057619D01*
X118090952Y-151362381D01*
X118243333Y-150619524D02*
X118243333Y-150238572D01*
X118471905Y-150724286D02*
X117671905Y-150357619D01*
X118471905Y-150190952D01*
X117671905Y-149900476D02*
X118471905Y-149810000D01*
X117900476Y-149586190D01*
X118471905Y-149505238D01*
X117671905Y-149214762D01*
X118167143Y-148971905D02*
X118167143Y-148362381D01*
X110851905Y-150952857D02*
X110470952Y-151171905D01*
X110851905Y-151410000D02*
X110051905Y-151310000D01*
X110051905Y-151005238D01*
X110090000Y-150933809D01*
X110128095Y-150900476D01*
X110204286Y-150871905D01*
X110318571Y-150886190D01*
X110394762Y-150933809D01*
X110432857Y-150976666D01*
X110470952Y-151057619D01*
X110470952Y-151362381D01*
X110623333Y-150619524D02*
X110623333Y-150238572D01*
X110851905Y-150724286D02*
X110051905Y-150357619D01*
X110851905Y-150190952D01*
X110051905Y-149900476D02*
X110851905Y-149810000D01*
X110280476Y-149586190D01*
X110851905Y-149505238D01*
X110051905Y-149214762D01*
X110547143Y-148971905D02*
X110547143Y-148362381D01*
X110851905Y-148705238D02*
X110242381Y-148629048D01*
D11*
X102945477Y-150730000D02*
X102874048Y-150691905D01*
X102759763Y-150691905D01*
X102640715Y-150730000D01*
X102555000Y-150806190D01*
X102507381Y-150882381D01*
X102450239Y-151034762D01*
X102435953Y-151149048D01*
X102455000Y-151301429D01*
X102483572Y-151377619D01*
X102550239Y-151453810D01*
X102659763Y-151491905D01*
X102735953Y-151491905D01*
X102855001Y-151453810D01*
X102897858Y-151415714D01*
X102931191Y-151149048D01*
X102778810Y-151149048D01*
X103231191Y-151491905D02*
X103331191Y-150691905D01*
X103688334Y-151491905D01*
X103788334Y-150691905D01*
X104069286Y-151491905D02*
X104169286Y-150691905D01*
X104359762Y-150691905D01*
X104469286Y-150730000D01*
X104535953Y-150806190D01*
X104564524Y-150882381D01*
X104583572Y-151034762D01*
X104569286Y-151149048D01*
X104512143Y-151301429D01*
X104464525Y-151377619D01*
X104378810Y-151453810D01*
X104259762Y-151491905D01*
X104069286Y-151491905D01*
X98683095Y-150691905D02*
X98849762Y-151491905D01*
X99216429Y-150691905D01*
X99849762Y-151415714D02*
X99806905Y-151453810D01*
X99687857Y-151491905D01*
X99611667Y-151491905D01*
X99502143Y-151453810D01*
X99435476Y-151377619D01*
X99406904Y-151301429D01*
X99387857Y-151149048D01*
X99402143Y-151034762D01*
X99459285Y-150882381D01*
X99506904Y-150806190D01*
X99592619Y-150730000D01*
X99711667Y-150691905D01*
X99787857Y-150691905D01*
X99897381Y-150730000D01*
X99930714Y-150768095D01*
X100649762Y-151415714D02*
X100606905Y-151453810D01*
X100487857Y-151491905D01*
X100411667Y-151491905D01*
X100302143Y-151453810D01*
X100235476Y-151377619D01*
X100206904Y-151301429D01*
X100187857Y-151149048D01*
X100202143Y-151034762D01*
X100259285Y-150882381D01*
X100306904Y-150806190D01*
X100392619Y-150730000D01*
X100511667Y-150691905D01*
X100587857Y-150691905D01*
X100697381Y-150730000D01*
X100730714Y-150768095D01*
X96576429Y-151491905D02*
X96357381Y-151110952D01*
X96119286Y-151491905D02*
X96219286Y-150691905D01*
X96524048Y-150691905D01*
X96595477Y-150730000D01*
X96628810Y-150768095D01*
X96657381Y-150844286D01*
X96643096Y-150958571D01*
X96595477Y-151034762D01*
X96552620Y-151072857D01*
X96471667Y-151110952D01*
X96166905Y-151110952D01*
X96943096Y-150691905D02*
X97376429Y-151491905D01*
X97476429Y-150691905D02*
X96843096Y-151491905D01*
X97681191Y-151491905D02*
X97781191Y-150691905D01*
X97971667Y-150691905D01*
X98081191Y-150730000D01*
X98147858Y-150806190D01*
X98176429Y-150882381D01*
X98195477Y-151034762D01*
X98181191Y-151149048D01*
X98124048Y-151301429D01*
X98076430Y-151377619D01*
X97990715Y-151453810D01*
X97871667Y-151491905D01*
X97681191Y-151491905D01*
X93660238Y-150691905D02*
X94117381Y-150691905D01*
X93788810Y-151491905D02*
X93888810Y-150691905D01*
X94307858Y-150691905D02*
X94741191Y-151491905D01*
X94841191Y-150691905D02*
X94207858Y-151491905D01*
X95045953Y-151491905D02*
X95145953Y-150691905D01*
X95336429Y-150691905D01*
X95445953Y-150730000D01*
X95512620Y-150806190D01*
X95541191Y-150882381D01*
X95560239Y-151034762D01*
X95545953Y-151149048D01*
X95488810Y-151301429D01*
X95441192Y-151377619D01*
X95355477Y-151453810D01*
X95236429Y-151491905D01*
X95045953Y-151491905D01*
X91115476Y-151491905D02*
X91215476Y-150691905D01*
X91405952Y-150691905D01*
X91515476Y-150730000D01*
X91582143Y-150806190D01*
X91610714Y-150882381D01*
X91629762Y-151034762D01*
X91615476Y-151149048D01*
X91558333Y-151301429D01*
X91510715Y-151377619D01*
X91425000Y-151453810D01*
X91305952Y-151491905D01*
X91115476Y-151491905D01*
X91901190Y-150691905D02*
X92358333Y-150691905D01*
X92029762Y-151491905D02*
X92129762Y-150691905D01*
X92982143Y-151491905D02*
X92763095Y-151110952D01*
X92525000Y-151491905D02*
X92625000Y-150691905D01*
X92929762Y-150691905D01*
X93001191Y-150730000D01*
X93034524Y-150768095D01*
X93063095Y-150844286D01*
X93048810Y-150958571D01*
X93001191Y-151034762D01*
X92958334Y-151072857D01*
X92877381Y-151110952D01*
X92572619Y-151110952D01*
X87253096Y-138753810D02*
X87362620Y-138791905D01*
X87553096Y-138791905D01*
X87634048Y-138753810D01*
X87676906Y-138715714D01*
X87724525Y-138639524D01*
X87734048Y-138563333D01*
X87705477Y-138487143D01*
X87672143Y-138449048D01*
X87600715Y-138410952D01*
X87453096Y-138372857D01*
X87381667Y-138334762D01*
X87348334Y-138296667D01*
X87319763Y-138220476D01*
X87329286Y-138144286D01*
X87376905Y-138068095D01*
X87419762Y-138030000D01*
X87500715Y-137991905D01*
X87691191Y-137991905D01*
X87800715Y-138030000D01*
X88048334Y-138791905D02*
X88148334Y-137991905D01*
X88338810Y-137991905D01*
X88448334Y-138030000D01*
X88515001Y-138106190D01*
X88543572Y-138182381D01*
X88562620Y-138334762D01*
X88548334Y-138449048D01*
X88491191Y-138601429D01*
X88443573Y-138677619D01*
X88357858Y-138753810D01*
X88238810Y-138791905D01*
X88048334Y-138791905D01*
X88838810Y-138563333D02*
X89219762Y-138563333D01*
X88734048Y-138791905D02*
X89100715Y-137991905D01*
X89267382Y-138791905D01*
X87272143Y-136213810D02*
X87381667Y-136251905D01*
X87572143Y-136251905D01*
X87653095Y-136213810D01*
X87695953Y-136175714D01*
X87743572Y-136099524D01*
X87753095Y-136023333D01*
X87724524Y-135947143D01*
X87691190Y-135909048D01*
X87619762Y-135870952D01*
X87472143Y-135832857D01*
X87400714Y-135794762D01*
X87367381Y-135756667D01*
X87338810Y-135680476D01*
X87348333Y-135604286D01*
X87395952Y-135528095D01*
X87438809Y-135490000D01*
X87519762Y-135451905D01*
X87710238Y-135451905D01*
X87819762Y-135490000D01*
X88534048Y-136175714D02*
X88491191Y-136213810D01*
X88372143Y-136251905D01*
X88295953Y-136251905D01*
X88186429Y-136213810D01*
X88119762Y-136137619D01*
X88091190Y-136061429D01*
X88072143Y-135909048D01*
X88086429Y-135794762D01*
X88143571Y-135642381D01*
X88191190Y-135566190D01*
X88276905Y-135490000D01*
X88395953Y-135451905D01*
X88472143Y-135451905D01*
X88581667Y-135490000D01*
X88615000Y-135528095D01*
X89248334Y-136251905D02*
X88867381Y-136251905D01*
X88967381Y-135451905D01*
X87705477Y-132950000D02*
X87634048Y-132911905D01*
X87519763Y-132911905D01*
X87400715Y-132950000D01*
X87315000Y-133026190D01*
X87267381Y-133102381D01*
X87210239Y-133254762D01*
X87195953Y-133369048D01*
X87215000Y-133521429D01*
X87243572Y-133597619D01*
X87310239Y-133673810D01*
X87419763Y-133711905D01*
X87495953Y-133711905D01*
X87615001Y-133673810D01*
X87657858Y-133635714D01*
X87691191Y-133369048D01*
X87538810Y-133369048D01*
X87991191Y-133711905D02*
X88091191Y-132911905D01*
X88448334Y-133711905D01*
X88548334Y-132911905D01*
X88829286Y-133711905D02*
X88929286Y-132911905D01*
X89119762Y-132911905D01*
X89229286Y-132950000D01*
X89295953Y-133026190D01*
X89324524Y-133102381D01*
X89343572Y-133254762D01*
X89329286Y-133369048D01*
X89272143Y-133521429D01*
X89224525Y-133597619D01*
X89138810Y-133673810D01*
X89019762Y-133711905D01*
X88829286Y-133711905D01*
X87253095Y-130371905D02*
X87419762Y-131171905D01*
X87786429Y-130371905D01*
X88419762Y-131095714D02*
X88376905Y-131133810D01*
X88257857Y-131171905D01*
X88181667Y-131171905D01*
X88072143Y-131133810D01*
X88005476Y-131057619D01*
X87976904Y-130981429D01*
X87957857Y-130829048D01*
X87972143Y-130714762D01*
X88029285Y-130562381D01*
X88076904Y-130486190D01*
X88162619Y-130410000D01*
X88281667Y-130371905D01*
X88357857Y-130371905D01*
X88467381Y-130410000D01*
X88500714Y-130448095D01*
X89219762Y-131095714D02*
X89176905Y-131133810D01*
X89057857Y-131171905D01*
X88981667Y-131171905D01*
X88872143Y-131133810D01*
X88805476Y-131057619D01*
X88776904Y-130981429D01*
X88757857Y-130829048D01*
X88772143Y-130714762D01*
X88829285Y-130562381D01*
X88876904Y-130486190D01*
X88962619Y-130410000D01*
X89081667Y-130371905D01*
X89157857Y-130371905D01*
X89267381Y-130410000D01*
X89300714Y-130448095D01*
D14*
X131835000Y-127600000D02*
X131835000Y-126400000D01*
X133595000Y-126400000D02*
X133595000Y-127600000D01*
D11*
X101370000Y-82060000D02*
X101370000Y-82560000D01*
X101370000Y-99060000D02*
X101370000Y-98560000D01*
X82870000Y-87060000D02*
G75*
G03X82870000Y-87060000I-500000J0D01*
G01*
X82870000Y-92060000D02*
G75*
G03X82870000Y-92060000I-500000J0D01*
G01*
X82870000Y-89560000D02*
G75*
G03X82870000Y-89560000I-500000J0D01*
G01*
X101370000Y-99060000D02*
X81370000Y-99060000D01*
X81370000Y-99060000D02*
X81370000Y-82060000D01*
X81370000Y-82060000D02*
X101370000Y-82060000D01*
D14*
X116900000Y-149285000D02*
X116900000Y-146625000D01*
X114300000Y-149285000D02*
X116900000Y-149285000D01*
X114300000Y-146625000D02*
X116900000Y-146625000D01*
X114300000Y-149285000D02*
X114300000Y-146625000D01*
X113030000Y-149285000D02*
X111700000Y-149285000D01*
X111700000Y-149285000D02*
X111700000Y-147955000D01*
D11*
X134621320Y-88900000D02*
G75*
G03X134621320Y-88900000I-2121320J0D01*
G01*
X134621320Y-133200000D02*
G75*
G03X134621320Y-133200000I-2121320J0D01*
G01*
X141000000Y-140000000D02*
X124000000Y-140000000D01*
X124000000Y-140000000D02*
X124000000Y-83000000D01*
X124000000Y-83000000D02*
X141000000Y-83000000D01*
X141000000Y-83000000D02*
X141000000Y-140000000D01*
X152621320Y-134100000D02*
G75*
G03X152621320Y-134100000I-2121320J0D01*
G01*
X152621320Y-89800000D02*
G75*
G03X152621320Y-89800000I-2121320J0D01*
G01*
X142000000Y-83000000D02*
X159000000Y-83000000D01*
X159000000Y-83000000D02*
X159000000Y-140000000D01*
X159000000Y-140000000D02*
X142000000Y-140000000D01*
X142000000Y-140000000D02*
X142000000Y-83000000D01*
D14*
X103470000Y-127245000D02*
X102270000Y-127245000D01*
X102270000Y-125485000D02*
X103470000Y-125485000D01*
X111545000Y-114435000D02*
X111545000Y-115435000D01*
X113245000Y-115435000D02*
X113245000Y-114435000D01*
X94250000Y-106700000D02*
X94250000Y-105700000D01*
X92550000Y-105700000D02*
X92550000Y-106700000D01*
X102735000Y-101385000D02*
X101735000Y-101385000D01*
X101735000Y-103085000D02*
X102735000Y-103085000D01*
X102100000Y-120435000D02*
X101100000Y-120435000D01*
X101100000Y-122135000D02*
X102100000Y-122135000D01*
X97925000Y-146900000D02*
X98925000Y-146900000D01*
X98925000Y-145200000D02*
X97925000Y-145200000D01*
X114165000Y-110275000D02*
X113165000Y-110275000D01*
X113165000Y-111975000D02*
X114165000Y-111975000D01*
X91274000Y-111498000D02*
X91274000Y-110498000D01*
X89574000Y-110498000D02*
X89574000Y-111498000D01*
X92114000Y-112022000D02*
X92114000Y-113022000D01*
X93814000Y-113022000D02*
X93814000Y-112022000D01*
X110892335Y-80201392D02*
G75*
G03X107660000Y-80044484I-1672335J-1078608D01*
G01*
X110892335Y-82358608D02*
G75*
G02X107660000Y-82515516I-1672335J1078608D01*
G01*
X110261130Y-80200163D02*
G75*
G03X108179039Y-80200000I-1041130J-1079837D01*
G01*
X110261130Y-82359837D02*
G75*
G02X108179039Y-82360000I-1041130J1079837D01*
G01*
X107660000Y-80044000D02*
X107660000Y-80200000D01*
X107660000Y-82360000D02*
X107660000Y-82516000D01*
X106105000Y-150555000D02*
X106105000Y-147895000D01*
X93345000Y-150555000D02*
X106105000Y-150555000D01*
X93345000Y-147895000D02*
X106105000Y-147895000D01*
X93345000Y-150555000D02*
X93345000Y-147895000D01*
X92075000Y-150555000D02*
X90745000Y-150555000D01*
X90745000Y-150555000D02*
X90745000Y-149225000D01*
X83760000Y-139760000D02*
X86420000Y-139760000D01*
X83760000Y-132080000D02*
X83760000Y-139760000D01*
X86420000Y-132080000D02*
X86420000Y-139760000D01*
X83760000Y-132080000D02*
X86420000Y-132080000D01*
X83760000Y-130810000D02*
X83760000Y-129480000D01*
X83760000Y-129480000D02*
X85090000Y-129480000D01*
X99000000Y-139760000D02*
X101660000Y-139760000D01*
X99000000Y-132080000D02*
X99000000Y-139760000D01*
X101660000Y-132080000D02*
X101660000Y-139760000D01*
X99000000Y-132080000D02*
X101660000Y-132080000D01*
X99000000Y-130810000D02*
X99000000Y-129480000D01*
X99000000Y-129480000D02*
X100330000Y-129480000D01*
X104080000Y-139760000D02*
X106740000Y-139760000D01*
X104080000Y-132080000D02*
X104080000Y-139760000D01*
X106740000Y-132080000D02*
X106740000Y-139760000D01*
X104080000Y-132080000D02*
X106740000Y-132080000D01*
X104080000Y-130810000D02*
X104080000Y-129480000D01*
X104080000Y-129480000D02*
X105410000Y-129480000D01*
X119320000Y-139760000D02*
X121980000Y-139760000D01*
X119320000Y-132080000D02*
X119320000Y-139760000D01*
X121980000Y-132080000D02*
X121980000Y-139760000D01*
X119320000Y-132080000D02*
X121980000Y-132080000D01*
X119320000Y-130810000D02*
X119320000Y-129480000D01*
X119320000Y-129480000D02*
X120650000Y-129480000D01*
X93310000Y-146930000D02*
X92110000Y-146930000D01*
X92110000Y-145170000D02*
X93310000Y-145170000D01*
X110880000Y-86325000D02*
X110880000Y-85125000D01*
X112640000Y-85125000D02*
X112640000Y-86325000D01*
X105800000Y-86325000D02*
X105800000Y-85125000D01*
X107560000Y-85125000D02*
X107560000Y-86325000D01*
X109185000Y-127245000D02*
X107985000Y-127245000D01*
X107985000Y-125485000D02*
X109185000Y-125485000D01*
X93100000Y-126965000D02*
X93100000Y-125765000D01*
X94860000Y-125765000D02*
X94860000Y-126965000D01*
X90560000Y-128235000D02*
X90560000Y-127035000D01*
X92320000Y-127035000D02*
X92320000Y-128235000D01*
D11*
X97695000Y-106585000D02*
X97695000Y-107160000D01*
X108045000Y-106585000D02*
X108045000Y-107260000D01*
X108045000Y-116935000D02*
X108045000Y-116260000D01*
X97695000Y-116935000D02*
X97695000Y-116260000D01*
X97695000Y-106585000D02*
X98370000Y-106585000D01*
X97695000Y-116935000D02*
X98370000Y-116935000D01*
X108045000Y-116935000D02*
X107370000Y-116935000D01*
X108045000Y-106585000D02*
X107370000Y-106585000D01*
X97695000Y-107160000D02*
X96420000Y-107160000D01*
D14*
X88885000Y-109805000D02*
X88885000Y-116055000D01*
X83835000Y-109805000D02*
X83835000Y-116055000D01*
X83835000Y-109805000D02*
G75*
G02X88885000Y-109805000I2525000J0D01*
G01*
X83835000Y-116055000D02*
G75*
G03X88885000Y-116055000I2525000J0D01*
G01*
X92015000Y-75505000D02*
X92015000Y-80705000D01*
X97155000Y-75505000D02*
X92015000Y-75505000D01*
X99755000Y-80705000D02*
X92015000Y-80705000D01*
X97155000Y-75505000D02*
X97155000Y-78105000D01*
X97155000Y-78105000D02*
X99755000Y-78105000D01*
X99755000Y-78105000D02*
X99755000Y-80705000D01*
X98425000Y-75505000D02*
X99755000Y-75505000D01*
X99755000Y-75505000D02*
X99755000Y-76835000D01*
X113065000Y-105800000D02*
X114265000Y-105800000D01*
X114265000Y-107560000D02*
X113065000Y-107560000D01*
X111515000Y-97755000D02*
X111515000Y-96555000D01*
X113275000Y-96555000D02*
X113275000Y-97755000D01*
X121980000Y-102930000D02*
X121980000Y-97730000D01*
X121920000Y-102930000D02*
X121980000Y-102930000D01*
X119320000Y-97730000D02*
X121980000Y-97730000D01*
X121920000Y-102930000D02*
X121920000Y-100330000D01*
X121920000Y-100330000D02*
X119320000Y-100330000D01*
X119320000Y-100330000D02*
X119320000Y-97730000D01*
X120650000Y-102930000D02*
X119320000Y-102930000D01*
X119320000Y-102930000D02*
X119320000Y-101600000D01*
X104910000Y-97370000D02*
X105910000Y-97370000D01*
X105910000Y-95670000D02*
X104910000Y-95670000D01*
X104910000Y-99910000D02*
X105910000Y-99910000D01*
X105910000Y-98210000D02*
X104910000Y-98210000D01*
X106160000Y-75025000D02*
X112280000Y-75025000D01*
X112280000Y-75025000D02*
X112280000Y-78645000D01*
X112280000Y-78645000D02*
X106160000Y-78645000D01*
X106160000Y-78645000D02*
X106160000Y-75025000D01*
X90450000Y-124615000D02*
G75*
G03X90450000Y-124615000I-4090000J0D01*
G01*
X82310000Y-124615000D02*
X90410000Y-124615000D01*
X82310000Y-124575000D02*
X90410000Y-124575000D01*
X82310000Y-124535000D02*
X90410000Y-124535000D01*
X82311000Y-124495000D02*
X90409000Y-124495000D01*
X82313000Y-124455000D02*
X90407000Y-124455000D01*
X82314000Y-124415000D02*
X90406000Y-124415000D01*
X82317000Y-124375000D02*
X90403000Y-124375000D01*
X82319000Y-124335000D02*
X90401000Y-124335000D01*
X82322000Y-124295000D02*
X90398000Y-124295000D01*
X82325000Y-124255000D02*
X90395000Y-124255000D01*
X82329000Y-124215000D02*
X90391000Y-124215000D01*
X82333000Y-124175000D02*
X90387000Y-124175000D01*
X82338000Y-124135000D02*
X90382000Y-124135000D01*
X82343000Y-124095000D02*
X90377000Y-124095000D01*
X82348000Y-124055000D02*
X90372000Y-124055000D01*
X82354000Y-124015000D02*
X90366000Y-124015000D01*
X82360000Y-123975000D02*
X90360000Y-123975000D01*
X82366000Y-123935000D02*
X90354000Y-123935000D01*
X82373000Y-123894000D02*
X90347000Y-123894000D01*
X82381000Y-123854000D02*
X90339000Y-123854000D01*
X82389000Y-123814000D02*
X85380000Y-123814000D01*
X87340000Y-123814000D02*
X90331000Y-123814000D01*
X82397000Y-123774000D02*
X85380000Y-123774000D01*
X87340000Y-123774000D02*
X90323000Y-123774000D01*
X82405000Y-123734000D02*
X85380000Y-123734000D01*
X87340000Y-123734000D02*
X90315000Y-123734000D01*
X82414000Y-123694000D02*
X85380000Y-123694000D01*
X87340000Y-123694000D02*
X90306000Y-123694000D01*
X82424000Y-123654000D02*
X85380000Y-123654000D01*
X87340000Y-123654000D02*
X90296000Y-123654000D01*
X82434000Y-123614000D02*
X85380000Y-123614000D01*
X87340000Y-123614000D02*
X90286000Y-123614000D01*
X82444000Y-123574000D02*
X85380000Y-123574000D01*
X87340000Y-123574000D02*
X90276000Y-123574000D01*
X82455000Y-123534000D02*
X85380000Y-123534000D01*
X87340000Y-123534000D02*
X90265000Y-123534000D01*
X82466000Y-123494000D02*
X85380000Y-123494000D01*
X87340000Y-123494000D02*
X90254000Y-123494000D01*
X82477000Y-123454000D02*
X85380000Y-123454000D01*
X87340000Y-123454000D02*
X90243000Y-123454000D01*
X82490000Y-123414000D02*
X85380000Y-123414000D01*
X87340000Y-123414000D02*
X90230000Y-123414000D01*
X82502000Y-123374000D02*
X85380000Y-123374000D01*
X87340000Y-123374000D02*
X90218000Y-123374000D01*
X82515000Y-123334000D02*
X85380000Y-123334000D01*
X87340000Y-123334000D02*
X90205000Y-123334000D01*
X82528000Y-123294000D02*
X85380000Y-123294000D01*
X87340000Y-123294000D02*
X90192000Y-123294000D01*
X82542000Y-123254000D02*
X85380000Y-123254000D01*
X87340000Y-123254000D02*
X90178000Y-123254000D01*
X82557000Y-123214000D02*
X85380000Y-123214000D01*
X87340000Y-123214000D02*
X90163000Y-123214000D01*
X82571000Y-123174000D02*
X85380000Y-123174000D01*
X87340000Y-123174000D02*
X90149000Y-123174000D01*
X82587000Y-123134000D02*
X85380000Y-123134000D01*
X87340000Y-123134000D02*
X90133000Y-123134000D01*
X82602000Y-123094000D02*
X85380000Y-123094000D01*
X87340000Y-123094000D02*
X90118000Y-123094000D01*
X82619000Y-123054000D02*
X85380000Y-123054000D01*
X87340000Y-123054000D02*
X90101000Y-123054000D01*
X82635000Y-123014000D02*
X85380000Y-123014000D01*
X87340000Y-123014000D02*
X90085000Y-123014000D01*
X82653000Y-122974000D02*
X85380000Y-122974000D01*
X87340000Y-122974000D02*
X90067000Y-122974000D01*
X82670000Y-122934000D02*
X85380000Y-122934000D01*
X87340000Y-122934000D02*
X90050000Y-122934000D01*
X82689000Y-122894000D02*
X85380000Y-122894000D01*
X87340000Y-122894000D02*
X90031000Y-122894000D01*
X82708000Y-122854000D02*
X85380000Y-122854000D01*
X87340000Y-122854000D02*
X90012000Y-122854000D01*
X82727000Y-122814000D02*
X85380000Y-122814000D01*
X87340000Y-122814000D02*
X89993000Y-122814000D01*
X82747000Y-122774000D02*
X85380000Y-122774000D01*
X87340000Y-122774000D02*
X89973000Y-122774000D01*
X82767000Y-122734000D02*
X85380000Y-122734000D01*
X87340000Y-122734000D02*
X89953000Y-122734000D01*
X82788000Y-122694000D02*
X85380000Y-122694000D01*
X87340000Y-122694000D02*
X89932000Y-122694000D01*
X82810000Y-122654000D02*
X85380000Y-122654000D01*
X87340000Y-122654000D02*
X89910000Y-122654000D01*
X82832000Y-122614000D02*
X85380000Y-122614000D01*
X87340000Y-122614000D02*
X89888000Y-122614000D01*
X82855000Y-122574000D02*
X85380000Y-122574000D01*
X87340000Y-122574000D02*
X89865000Y-122574000D01*
X82878000Y-122534000D02*
X85380000Y-122534000D01*
X87340000Y-122534000D02*
X89842000Y-122534000D01*
X82902000Y-122494000D02*
X85380000Y-122494000D01*
X87340000Y-122494000D02*
X89818000Y-122494000D01*
X82926000Y-122454000D02*
X85380000Y-122454000D01*
X87340000Y-122454000D02*
X89794000Y-122454000D01*
X82952000Y-122414000D02*
X85380000Y-122414000D01*
X87340000Y-122414000D02*
X89768000Y-122414000D01*
X82977000Y-122374000D02*
X85380000Y-122374000D01*
X87340000Y-122374000D02*
X89743000Y-122374000D01*
X83004000Y-122334000D02*
X85380000Y-122334000D01*
X87340000Y-122334000D02*
X89716000Y-122334000D01*
X83031000Y-122294000D02*
X85380000Y-122294000D01*
X87340000Y-122294000D02*
X89689000Y-122294000D01*
X83059000Y-122254000D02*
X85380000Y-122254000D01*
X87340000Y-122254000D02*
X89661000Y-122254000D01*
X83088000Y-122214000D02*
X85380000Y-122214000D01*
X87340000Y-122214000D02*
X89632000Y-122214000D01*
X83117000Y-122174000D02*
X85380000Y-122174000D01*
X87340000Y-122174000D02*
X89603000Y-122174000D01*
X83147000Y-122134000D02*
X85380000Y-122134000D01*
X87340000Y-122134000D02*
X89573000Y-122134000D01*
X83178000Y-122094000D02*
X85380000Y-122094000D01*
X87340000Y-122094000D02*
X89542000Y-122094000D01*
X83210000Y-122054000D02*
X85380000Y-122054000D01*
X87340000Y-122054000D02*
X89510000Y-122054000D01*
X83242000Y-122014000D02*
X85380000Y-122014000D01*
X87340000Y-122014000D02*
X89478000Y-122014000D01*
X83276000Y-121974000D02*
X85380000Y-121974000D01*
X87340000Y-121974000D02*
X89444000Y-121974000D01*
X83310000Y-121934000D02*
X85380000Y-121934000D01*
X87340000Y-121934000D02*
X89410000Y-121934000D01*
X83345000Y-121894000D02*
X85380000Y-121894000D01*
X87340000Y-121894000D02*
X89375000Y-121894000D01*
X83381000Y-121854000D02*
X89339000Y-121854000D01*
X83418000Y-121814000D02*
X89302000Y-121814000D01*
X83456000Y-121774000D02*
X89264000Y-121774000D01*
X83495000Y-121734000D02*
X89225000Y-121734000D01*
X83536000Y-121694000D02*
X89184000Y-121694000D01*
X83577000Y-121654000D02*
X89143000Y-121654000D01*
X83620000Y-121614000D02*
X89100000Y-121614000D01*
X83663000Y-121574000D02*
X89057000Y-121574000D01*
X83708000Y-121534000D02*
X89012000Y-121534000D01*
X83755000Y-121494000D02*
X88965000Y-121494000D01*
X83803000Y-121454000D02*
X88917000Y-121454000D01*
X83852000Y-121414000D02*
X88868000Y-121414000D01*
X83903000Y-121374000D02*
X88817000Y-121374000D01*
X83956000Y-121334000D02*
X88764000Y-121334000D01*
X84011000Y-121294000D02*
X88709000Y-121294000D01*
X84067000Y-121254000D02*
X88653000Y-121254000D01*
X84126000Y-121214000D02*
X88594000Y-121214000D01*
X84187000Y-121174000D02*
X88533000Y-121174000D01*
X84251000Y-121134000D02*
X88469000Y-121134000D01*
X84317000Y-121094000D02*
X88403000Y-121094000D01*
X84386000Y-121054000D02*
X88334000Y-121054000D01*
X84458000Y-121014000D02*
X88262000Y-121014000D01*
X84534000Y-120974000D02*
X88186000Y-120974000D01*
X84615000Y-120934000D02*
X88105000Y-120934000D01*
X84700000Y-120894000D02*
X88020000Y-120894000D01*
X84790000Y-120854000D02*
X87930000Y-120854000D01*
X84887000Y-120814000D02*
X87833000Y-120814000D01*
X84991000Y-120774000D02*
X87729000Y-120774000D01*
X85106000Y-120734000D02*
X87614000Y-120734000D01*
X85233000Y-120694000D02*
X87487000Y-120694000D01*
X85377000Y-120654000D02*
X87343000Y-120654000D01*
X85546000Y-120614000D02*
X87174000Y-120614000D01*
X85762000Y-120574000D02*
X86958000Y-120574000D01*
X86114000Y-120534000D02*
X86606000Y-120534000D01*
X86360000Y-128565000D02*
X86360000Y-127365000D01*
X85710000Y-127965000D02*
X87010000Y-127965000D01*
X119440000Y-82490000D02*
X114240000Y-82490000D01*
X119440000Y-102870000D02*
X119440000Y-82490000D01*
X114240000Y-105470000D02*
X114240000Y-82490000D01*
X119440000Y-102870000D02*
X116840000Y-102870000D01*
X116840000Y-102870000D02*
X116840000Y-105470000D01*
X116840000Y-105470000D02*
X114240000Y-105470000D01*
X119440000Y-104140000D02*
X119440000Y-105470000D01*
X119440000Y-105470000D02*
X118110000Y-105470000D01*
X121980000Y-105350000D02*
X116780000Y-105350000D01*
X121980000Y-125730000D02*
X121980000Y-105350000D01*
X116780000Y-128330000D02*
X116780000Y-105350000D01*
X121980000Y-125730000D02*
X119380000Y-125730000D01*
X119380000Y-125730000D02*
X119380000Y-128330000D01*
X119380000Y-128330000D02*
X116780000Y-128330000D01*
X121980000Y-127000000D02*
X121980000Y-128330000D01*
X121980000Y-128330000D02*
X120650000Y-128330000D01*
X137735000Y-107255000D02*
X137735000Y-109915000D01*
X145415000Y-107255000D02*
X137735000Y-107255000D01*
X145415000Y-109915000D02*
X137735000Y-109915000D01*
X145415000Y-107255000D02*
X145415000Y-109915000D01*
X146685000Y-107255000D02*
X148015000Y-107255000D01*
X148015000Y-107255000D02*
X148015000Y-108585000D01*
X137675000Y-124005000D02*
X137675000Y-125505000D01*
X137675000Y-125505000D02*
X139485000Y-125505000D01*
X139485000Y-125505000D02*
X139485000Y-130630000D01*
X148075000Y-124005000D02*
X148075000Y-125505000D01*
X148075000Y-125505000D02*
X146265000Y-125505000D01*
X146265000Y-125505000D02*
X146265000Y-126605000D01*
X133715000Y-121495000D02*
X133715000Y-114195000D01*
X133715000Y-114195000D02*
X131715000Y-114195000D01*
X131715000Y-114195000D02*
X131715000Y-121495000D01*
D11*
X98280000Y-102005000D02*
X97780000Y-102005000D01*
X81280000Y-102005000D02*
X81780000Y-102005000D01*
X93780000Y-83005000D02*
G75*
G03X93780000Y-83005000I-500000J0D01*
G01*
X88780000Y-83005000D02*
G75*
G03X88780000Y-83005000I-500000J0D01*
G01*
X91280000Y-83005000D02*
G75*
G03X91280000Y-83005000I-500000J0D01*
G01*
X81280000Y-102005000D02*
X81280000Y-82005000D01*
X81280000Y-82005000D02*
X98280000Y-82005000D01*
X98280000Y-82005000D02*
X98280000Y-102005000D01*
X131262381Y-127642857D02*
X130786190Y-127976191D01*
X131262381Y-128214286D02*
X130262381Y-128214286D01*
X130262381Y-127833333D01*
X130310000Y-127738095D01*
X130357619Y-127690476D01*
X130452857Y-127642857D01*
X130595714Y-127642857D01*
X130690952Y-127690476D01*
X130738571Y-127738095D01*
X130786190Y-127833333D01*
X130786190Y-128214286D01*
X131262381Y-126690476D02*
X131262381Y-127261905D01*
X131262381Y-126976191D02*
X130262381Y-126976191D01*
X130405238Y-127071429D01*
X130500476Y-127166667D01*
X130548095Y-127261905D01*
X130357619Y-126309524D02*
X130310000Y-126261905D01*
X130262381Y-126166667D01*
X130262381Y-125928571D01*
X130310000Y-125833333D01*
X130357619Y-125785714D01*
X130452857Y-125738095D01*
X130548095Y-125738095D01*
X130690952Y-125785714D01*
X131262381Y-126357143D01*
X131262381Y-125738095D01*
X102952381Y-84761905D02*
X103761905Y-84761905D01*
X103857143Y-84714286D01*
X103904762Y-84666667D01*
X103952381Y-84571429D01*
X103952381Y-84380952D01*
X103904762Y-84285714D01*
X103857143Y-84238095D01*
X103761905Y-84190476D01*
X102952381Y-84190476D01*
X103047619Y-83761905D02*
X103000000Y-83714286D01*
X102952381Y-83619048D01*
X102952381Y-83380952D01*
X103000000Y-83285714D01*
X103047619Y-83238095D01*
X103142857Y-83190476D01*
X103238095Y-83190476D01*
X103380952Y-83238095D01*
X103952381Y-83809524D01*
X103952381Y-83190476D01*
D15*
X132514286Y-90042857D02*
X132514286Y-87757143D01*
X133657143Y-88900000D02*
X131371429Y-88900000D01*
X132514286Y-134342857D02*
X132514286Y-132057143D01*
X150914286Y-135242857D02*
X150914286Y-132957143D01*
X152057143Y-134100000D02*
X149771429Y-134100000D01*
X150914286Y-90942857D02*
X150914286Y-88657143D01*
D11*
X102703334Y-125117381D02*
X102370000Y-124641190D01*
X102131905Y-125117381D02*
X102131905Y-124117381D01*
X102512858Y-124117381D01*
X102608096Y-124165000D01*
X102655715Y-124212619D01*
X102703334Y-124307857D01*
X102703334Y-124450714D01*
X102655715Y-124545952D01*
X102608096Y-124593571D01*
X102512858Y-124641190D01*
X102131905Y-124641190D01*
X103560477Y-124117381D02*
X103370000Y-124117381D01*
X103274762Y-124165000D01*
X103227143Y-124212619D01*
X103131905Y-124355476D01*
X103084286Y-124545952D01*
X103084286Y-124926905D01*
X103131905Y-125022143D01*
X103179524Y-125069762D01*
X103274762Y-125117381D01*
X103465239Y-125117381D01*
X103560477Y-125069762D01*
X103608096Y-125022143D01*
X103655715Y-124926905D01*
X103655715Y-124688810D01*
X103608096Y-124593571D01*
X103560477Y-124545952D01*
X103465239Y-124498333D01*
X103274762Y-124498333D01*
X103179524Y-124545952D01*
X103131905Y-124593571D01*
X103084286Y-124688810D01*
X110847143Y-115101666D02*
X110894762Y-115149285D01*
X110942381Y-115292142D01*
X110942381Y-115387380D01*
X110894762Y-115530238D01*
X110799524Y-115625476D01*
X110704286Y-115673095D01*
X110513810Y-115720714D01*
X110370952Y-115720714D01*
X110180476Y-115673095D01*
X110085238Y-115625476D01*
X109990000Y-115530238D01*
X109942381Y-115387380D01*
X109942381Y-115292142D01*
X109990000Y-115149285D01*
X110037619Y-115101666D01*
X110942381Y-114149285D02*
X110942381Y-114720714D01*
X110942381Y-114435000D02*
X109942381Y-114435000D01*
X110085238Y-114530238D01*
X110180476Y-114625476D01*
X110228095Y-114720714D01*
X91797143Y-106211666D02*
X91844762Y-106259285D01*
X91892381Y-106402142D01*
X91892381Y-106497380D01*
X91844762Y-106640238D01*
X91749524Y-106735476D01*
X91654286Y-106783095D01*
X91463810Y-106830714D01*
X91320952Y-106830714D01*
X91130476Y-106783095D01*
X91035238Y-106735476D01*
X90940000Y-106640238D01*
X90892381Y-106497380D01*
X90892381Y-106402142D01*
X90940000Y-106259285D01*
X90987619Y-106211666D01*
X90987619Y-105830714D02*
X90940000Y-105783095D01*
X90892381Y-105687857D01*
X90892381Y-105449761D01*
X90940000Y-105354523D01*
X90987619Y-105306904D01*
X91082857Y-105259285D01*
X91178095Y-105259285D01*
X91320952Y-105306904D01*
X91892381Y-105878333D01*
X91892381Y-105259285D01*
X102068334Y-104497143D02*
X102020715Y-104544762D01*
X101877858Y-104592381D01*
X101782620Y-104592381D01*
X101639762Y-104544762D01*
X101544524Y-104449524D01*
X101496905Y-104354286D01*
X101449286Y-104163810D01*
X101449286Y-104020952D01*
X101496905Y-103830476D01*
X101544524Y-103735238D01*
X101639762Y-103640000D01*
X101782620Y-103592381D01*
X101877858Y-103592381D01*
X102020715Y-103640000D01*
X102068334Y-103687619D01*
X102401667Y-103592381D02*
X103020715Y-103592381D01*
X102687381Y-103973333D01*
X102830239Y-103973333D01*
X102925477Y-104020952D01*
X102973096Y-104068571D01*
X103020715Y-104163810D01*
X103020715Y-104401905D01*
X102973096Y-104497143D01*
X102925477Y-104544762D01*
X102830239Y-104592381D01*
X102544524Y-104592381D01*
X102449286Y-104544762D01*
X102401667Y-104497143D01*
X98258334Y-121642143D02*
X98210715Y-121689762D01*
X98067858Y-121737381D01*
X97972620Y-121737381D01*
X97829762Y-121689762D01*
X97734524Y-121594524D01*
X97686905Y-121499286D01*
X97639286Y-121308810D01*
X97639286Y-121165952D01*
X97686905Y-120975476D01*
X97734524Y-120880238D01*
X97829762Y-120785000D01*
X97972620Y-120737381D01*
X98067858Y-120737381D01*
X98210715Y-120785000D01*
X98258334Y-120832619D01*
X99115477Y-121070714D02*
X99115477Y-121737381D01*
X98877381Y-120689762D02*
X98639286Y-121404048D01*
X99258334Y-121404048D01*
X98258334Y-144502143D02*
X98210715Y-144549762D01*
X98067858Y-144597381D01*
X97972620Y-144597381D01*
X97829762Y-144549762D01*
X97734524Y-144454524D01*
X97686905Y-144359286D01*
X97639286Y-144168810D01*
X97639286Y-144025952D01*
X97686905Y-143835476D01*
X97734524Y-143740238D01*
X97829762Y-143645000D01*
X97972620Y-143597381D01*
X98067858Y-143597381D01*
X98210715Y-143645000D01*
X98258334Y-143692619D01*
X99163096Y-143597381D02*
X98686905Y-143597381D01*
X98639286Y-144073571D01*
X98686905Y-144025952D01*
X98782143Y-143978333D01*
X99020239Y-143978333D01*
X99115477Y-144025952D01*
X99163096Y-144073571D01*
X99210715Y-144168810D01*
X99210715Y-144406905D01*
X99163096Y-144502143D01*
X99115477Y-144549762D01*
X99020239Y-144597381D01*
X98782143Y-144597381D01*
X98686905Y-144549762D01*
X98639286Y-144502143D01*
X112228334Y-109577143D02*
X112180715Y-109624762D01*
X112037858Y-109672381D01*
X111942620Y-109672381D01*
X111799762Y-109624762D01*
X111704524Y-109529524D01*
X111656905Y-109434286D01*
X111609286Y-109243810D01*
X111609286Y-109100952D01*
X111656905Y-108910476D01*
X111704524Y-108815238D01*
X111799762Y-108720000D01*
X111942620Y-108672381D01*
X112037858Y-108672381D01*
X112180715Y-108720000D01*
X112228334Y-108767619D01*
X113085477Y-108672381D02*
X112895000Y-108672381D01*
X112799762Y-108720000D01*
X112752143Y-108767619D01*
X112656905Y-108910476D01*
X112609286Y-109100952D01*
X112609286Y-109481905D01*
X112656905Y-109577143D01*
X112704524Y-109624762D01*
X112799762Y-109672381D01*
X112990239Y-109672381D01*
X113085477Y-109624762D01*
X113133096Y-109577143D01*
X113180715Y-109481905D01*
X113180715Y-109243810D01*
X113133096Y-109148571D01*
X113085477Y-109100952D01*
X112990239Y-109053333D01*
X112799762Y-109053333D01*
X112704524Y-109100952D01*
X112656905Y-109148571D01*
X112609286Y-109243810D01*
X91162143Y-114466666D02*
X91209762Y-114514285D01*
X91257381Y-114657142D01*
X91257381Y-114752380D01*
X91209762Y-114895238D01*
X91114524Y-114990476D01*
X91019286Y-115038095D01*
X90828810Y-115085714D01*
X90685952Y-115085714D01*
X90495476Y-115038095D01*
X90400238Y-114990476D01*
X90305000Y-114895238D01*
X90257381Y-114752380D01*
X90257381Y-114657142D01*
X90305000Y-114514285D01*
X90352619Y-114466666D01*
X90257381Y-114133333D02*
X90257381Y-113466666D01*
X91257381Y-113895238D01*
X94972143Y-112561666D02*
X95019762Y-112609285D01*
X95067381Y-112752142D01*
X95067381Y-112847380D01*
X95019762Y-112990238D01*
X94924524Y-113085476D01*
X94829286Y-113133095D01*
X94638810Y-113180714D01*
X94495952Y-113180714D01*
X94305476Y-113133095D01*
X94210238Y-113085476D01*
X94115000Y-112990238D01*
X94067381Y-112847380D01*
X94067381Y-112752142D01*
X94115000Y-112609285D01*
X94162619Y-112561666D01*
X94495952Y-111990238D02*
X94448333Y-112085476D01*
X94400714Y-112133095D01*
X94305476Y-112180714D01*
X94257857Y-112180714D01*
X94162619Y-112133095D01*
X94115000Y-112085476D01*
X94067381Y-111990238D01*
X94067381Y-111799761D01*
X94115000Y-111704523D01*
X94162619Y-111656904D01*
X94257857Y-111609285D01*
X94305476Y-111609285D01*
X94400714Y-111656904D01*
X94448333Y-111704523D01*
X94495952Y-111799761D01*
X94495952Y-111990238D01*
X94543571Y-112085476D01*
X94591190Y-112133095D01*
X94686429Y-112180714D01*
X94876905Y-112180714D01*
X94972143Y-112133095D01*
X95019762Y-112085476D01*
X95067381Y-111990238D01*
X95067381Y-111799761D01*
X95019762Y-111704523D01*
X94972143Y-111656904D01*
X94876905Y-111609285D01*
X94686429Y-111609285D01*
X94591190Y-111656904D01*
X94543571Y-111704523D01*
X94495952Y-111799761D01*
X103401905Y-81732381D02*
X103401905Y-80732381D01*
X103640000Y-80732381D01*
X103782858Y-80780000D01*
X103878096Y-80875238D01*
X103925715Y-80970476D01*
X103973334Y-81160952D01*
X103973334Y-81303810D01*
X103925715Y-81494286D01*
X103878096Y-81589524D01*
X103782858Y-81684762D01*
X103640000Y-81732381D01*
X103401905Y-81732381D01*
X104925715Y-81732381D02*
X104354286Y-81732381D01*
X104640000Y-81732381D02*
X104640000Y-80732381D01*
X104544762Y-80875238D01*
X104449524Y-80970476D01*
X104354286Y-81018095D01*
X92543334Y-144597381D02*
X92210000Y-144121190D01*
X91971905Y-144597381D02*
X91971905Y-143597381D01*
X92352858Y-143597381D01*
X92448096Y-143645000D01*
X92495715Y-143692619D01*
X92543334Y-143787857D01*
X92543334Y-143930714D01*
X92495715Y-144025952D01*
X92448096Y-144073571D01*
X92352858Y-144121190D01*
X91971905Y-144121190D01*
X93495715Y-144597381D02*
X92924286Y-144597381D01*
X93210000Y-144597381D02*
X93210000Y-143597381D01*
X93114762Y-143740238D01*
X93019524Y-143835476D01*
X92924286Y-143883095D01*
X110307381Y-87161666D02*
X109831190Y-87495000D01*
X110307381Y-87733095D02*
X109307381Y-87733095D01*
X109307381Y-87352142D01*
X109355000Y-87256904D01*
X109402619Y-87209285D01*
X109497857Y-87161666D01*
X109640714Y-87161666D01*
X109735952Y-87209285D01*
X109783571Y-87256904D01*
X109831190Y-87352142D01*
X109831190Y-87733095D01*
X109402619Y-86780714D02*
X109355000Y-86733095D01*
X109307381Y-86637857D01*
X109307381Y-86399761D01*
X109355000Y-86304523D01*
X109402619Y-86256904D01*
X109497857Y-86209285D01*
X109593095Y-86209285D01*
X109735952Y-86256904D01*
X110307381Y-86828333D01*
X110307381Y-86209285D01*
X109037381Y-84621666D02*
X108561190Y-84955000D01*
X109037381Y-85193095D02*
X108037381Y-85193095D01*
X108037381Y-84812142D01*
X108085000Y-84716904D01*
X108132619Y-84669285D01*
X108227857Y-84621666D01*
X108370714Y-84621666D01*
X108465952Y-84669285D01*
X108513571Y-84716904D01*
X108561190Y-84812142D01*
X108561190Y-85193095D01*
X108037381Y-84288333D02*
X108037381Y-83669285D01*
X108418333Y-84002619D01*
X108418333Y-83859761D01*
X108465952Y-83764523D01*
X108513571Y-83716904D01*
X108608810Y-83669285D01*
X108846905Y-83669285D01*
X108942143Y-83716904D01*
X108989762Y-83764523D01*
X109037381Y-83859761D01*
X109037381Y-84145476D01*
X108989762Y-84240714D01*
X108942143Y-84288333D01*
X108418334Y-125117381D02*
X108085000Y-124641190D01*
X107846905Y-125117381D02*
X107846905Y-124117381D01*
X108227858Y-124117381D01*
X108323096Y-124165000D01*
X108370715Y-124212619D01*
X108418334Y-124307857D01*
X108418334Y-124450714D01*
X108370715Y-124545952D01*
X108323096Y-124593571D01*
X108227858Y-124641190D01*
X107846905Y-124641190D01*
X109323096Y-124117381D02*
X108846905Y-124117381D01*
X108799286Y-124593571D01*
X108846905Y-124545952D01*
X108942143Y-124498333D01*
X109180239Y-124498333D01*
X109275477Y-124545952D01*
X109323096Y-124593571D01*
X109370715Y-124688810D01*
X109370715Y-124926905D01*
X109323096Y-125022143D01*
X109275477Y-125069762D01*
X109180239Y-125117381D01*
X108942143Y-125117381D01*
X108846905Y-125069762D01*
X108799286Y-125022143D01*
X94432381Y-122721666D02*
X93956190Y-123055000D01*
X94432381Y-123293095D02*
X93432381Y-123293095D01*
X93432381Y-122912142D01*
X93480000Y-122816904D01*
X93527619Y-122769285D01*
X93622857Y-122721666D01*
X93765714Y-122721666D01*
X93860952Y-122769285D01*
X93908571Y-122816904D01*
X93956190Y-122912142D01*
X93956190Y-123293095D01*
X93432381Y-122388333D02*
X93432381Y-121721666D01*
X94432381Y-122150238D01*
X91892381Y-123991666D02*
X91416190Y-124325000D01*
X91892381Y-124563095D02*
X90892381Y-124563095D01*
X90892381Y-124182142D01*
X90940000Y-124086904D01*
X90987619Y-124039285D01*
X91082857Y-123991666D01*
X91225714Y-123991666D01*
X91320952Y-124039285D01*
X91368571Y-124086904D01*
X91416190Y-124182142D01*
X91416190Y-124563095D01*
X91320952Y-123420238D02*
X91273333Y-123515476D01*
X91225714Y-123563095D01*
X91130476Y-123610714D01*
X91082857Y-123610714D01*
X90987619Y-123563095D01*
X90940000Y-123515476D01*
X90892381Y-123420238D01*
X90892381Y-123229761D01*
X90940000Y-123134523D01*
X90987619Y-123086904D01*
X91082857Y-123039285D01*
X91130476Y-123039285D01*
X91225714Y-123086904D01*
X91273333Y-123134523D01*
X91320952Y-123229761D01*
X91320952Y-123420238D01*
X91368571Y-123515476D01*
X91416190Y-123563095D01*
X91511429Y-123610714D01*
X91701905Y-123610714D01*
X91797143Y-123563095D01*
X91844762Y-123515476D01*
X91892381Y-123420238D01*
X91892381Y-123229761D01*
X91844762Y-123134523D01*
X91797143Y-123086904D01*
X91701905Y-123039285D01*
X91511429Y-123039285D01*
X91416190Y-123086904D01*
X91368571Y-123134523D01*
X91320952Y-123229761D01*
X108458095Y-116927381D02*
X108458095Y-117736905D01*
X108505714Y-117832143D01*
X108553333Y-117879762D01*
X108648571Y-117927381D01*
X108839048Y-117927381D01*
X108934286Y-117879762D01*
X108981905Y-117832143D01*
X109029524Y-117736905D01*
X109029524Y-116927381D01*
X110029524Y-117927381D02*
X109458095Y-117927381D01*
X109743809Y-117927381D02*
X109743809Y-116927381D01*
X109648571Y-117070238D01*
X109553333Y-117165476D01*
X109458095Y-117213095D01*
X89511190Y-117951191D02*
X89987381Y-117951191D01*
X88987381Y-118284524D02*
X89511190Y-117951191D01*
X88987381Y-117617857D01*
X89987381Y-116760714D02*
X89987381Y-117332143D01*
X89987381Y-117046429D02*
X88987381Y-117046429D01*
X89130238Y-117141667D01*
X89225476Y-117236905D01*
X89273095Y-117332143D01*
X117308334Y-107132381D02*
X116975000Y-106656190D01*
X116736905Y-107132381D02*
X116736905Y-106132381D01*
X117117858Y-106132381D01*
X117213096Y-106180000D01*
X117260715Y-106227619D01*
X117308334Y-106322857D01*
X117308334Y-106465714D01*
X117260715Y-106560952D01*
X117213096Y-106608571D01*
X117117858Y-106656190D01*
X116736905Y-106656190D01*
X117784524Y-107132381D02*
X117975000Y-107132381D01*
X118070239Y-107084762D01*
X118117858Y-107037143D01*
X118213096Y-106894286D01*
X118260715Y-106703810D01*
X118260715Y-106322857D01*
X118213096Y-106227619D01*
X118165477Y-106180000D01*
X118070239Y-106132381D01*
X117879762Y-106132381D01*
X117784524Y-106180000D01*
X117736905Y-106227619D01*
X117689286Y-106322857D01*
X117689286Y-106560952D01*
X117736905Y-106656190D01*
X117784524Y-106703810D01*
X117879762Y-106751429D01*
X118070239Y-106751429D01*
X118165477Y-106703810D01*
X118213096Y-106656190D01*
X118260715Y-106560952D01*
X110942381Y-97797857D02*
X110466190Y-98131191D01*
X110942381Y-98369286D02*
X109942381Y-98369286D01*
X109942381Y-97988333D01*
X109990000Y-97893095D01*
X110037619Y-97845476D01*
X110132857Y-97797857D01*
X110275714Y-97797857D01*
X110370952Y-97845476D01*
X110418571Y-97893095D01*
X110466190Y-97988333D01*
X110466190Y-98369286D01*
X110942381Y-96845476D02*
X110942381Y-97416905D01*
X110942381Y-97131191D02*
X109942381Y-97131191D01*
X110085238Y-97226429D01*
X110180476Y-97321667D01*
X110228095Y-97416905D01*
X109942381Y-96226429D02*
X109942381Y-96131190D01*
X109990000Y-96035952D01*
X110037619Y-95988333D01*
X110132857Y-95940714D01*
X110323333Y-95893095D01*
X110561429Y-95893095D01*
X110751905Y-95940714D01*
X110847143Y-95988333D01*
X110894762Y-96035952D01*
X110942381Y-96131190D01*
X110942381Y-96226429D01*
X110894762Y-96321667D01*
X110847143Y-96369286D01*
X110751905Y-96416905D01*
X110561429Y-96464524D01*
X110323333Y-96464524D01*
X110132857Y-96416905D01*
X110037619Y-96369286D01*
X109990000Y-96321667D01*
X109942381Y-96226429D01*
X104767143Y-94972143D02*
X104719524Y-95019762D01*
X104576667Y-95067381D01*
X104481429Y-95067381D01*
X104338571Y-95019762D01*
X104243333Y-94924524D01*
X104195714Y-94829286D01*
X104148095Y-94638810D01*
X104148095Y-94495952D01*
X104195714Y-94305476D01*
X104243333Y-94210238D01*
X104338571Y-94115000D01*
X104481429Y-94067381D01*
X104576667Y-94067381D01*
X104719524Y-94115000D01*
X104767143Y-94162619D01*
X105719524Y-95067381D02*
X105148095Y-95067381D01*
X105433809Y-95067381D02*
X105433809Y-94067381D01*
X105338571Y-94210238D01*
X105243333Y-94305476D01*
X105148095Y-94353095D01*
X106052857Y-94067381D02*
X106671905Y-94067381D01*
X106338571Y-94448333D01*
X106481429Y-94448333D01*
X106576667Y-94495952D01*
X106624286Y-94543571D01*
X106671905Y-94638810D01*
X106671905Y-94876905D01*
X106624286Y-94972143D01*
X106576667Y-95019762D01*
X106481429Y-95067381D01*
X106195714Y-95067381D01*
X106100476Y-95019762D01*
X106052857Y-94972143D01*
X106672143Y-101322143D02*
X106624524Y-101369762D01*
X106481667Y-101417381D01*
X106386429Y-101417381D01*
X106243571Y-101369762D01*
X106148333Y-101274524D01*
X106100714Y-101179286D01*
X106053095Y-100988810D01*
X106053095Y-100845952D01*
X106100714Y-100655476D01*
X106148333Y-100560238D01*
X106243571Y-100465000D01*
X106386429Y-100417381D01*
X106481667Y-100417381D01*
X106624524Y-100465000D01*
X106672143Y-100512619D01*
X107624524Y-101417381D02*
X107053095Y-101417381D01*
X107338809Y-101417381D02*
X107338809Y-100417381D01*
X107243571Y-100560238D01*
X107148333Y-100655476D01*
X107053095Y-100703095D01*
X108481667Y-100750714D02*
X108481667Y-101417381D01*
X108243571Y-100369762D02*
X108005476Y-101084048D01*
X108624524Y-101084048D01*
X114166667Y-79404762D02*
X114309524Y-79452381D01*
X114547620Y-79452381D01*
X114642858Y-79404762D01*
X114690477Y-79357143D01*
X114738096Y-79261905D01*
X114738096Y-79166667D01*
X114690477Y-79071429D01*
X114642858Y-79023810D01*
X114547620Y-78976190D01*
X114357143Y-78928571D01*
X114261905Y-78880952D01*
X114214286Y-78833333D01*
X114166667Y-78738095D01*
X114166667Y-78642857D01*
X114214286Y-78547619D01*
X114261905Y-78500000D01*
X114357143Y-78452381D01*
X114595239Y-78452381D01*
X114738096Y-78500000D01*
X115071429Y-78452381D02*
X115309524Y-79452381D01*
X115500001Y-78738095D01*
X115690477Y-79452381D01*
X115928572Y-78452381D01*
X116833334Y-79452381D02*
X116261905Y-79452381D01*
X116547619Y-79452381D02*
X116547619Y-78452381D01*
X116452381Y-78595238D01*
X116357143Y-78690476D01*
X116261905Y-78738095D01*
X82907143Y-120657857D02*
X82954762Y-120705476D01*
X83002381Y-120848333D01*
X83002381Y-120943571D01*
X82954762Y-121086429D01*
X82859524Y-121181667D01*
X82764286Y-121229286D01*
X82573810Y-121276905D01*
X82430952Y-121276905D01*
X82240476Y-121229286D01*
X82145238Y-121181667D01*
X82050000Y-121086429D01*
X82002381Y-120943571D01*
X82002381Y-120848333D01*
X82050000Y-120705476D01*
X82097619Y-120657857D01*
X83002381Y-119705476D02*
X83002381Y-120276905D01*
X83002381Y-119991191D02*
X82002381Y-119991191D01*
X82145238Y-120086429D01*
X82240476Y-120181667D01*
X82288095Y-120276905D01*
X82002381Y-118800714D02*
X82002381Y-119276905D01*
X82478571Y-119324524D01*
X82430952Y-119276905D01*
X82383333Y-119181667D01*
X82383333Y-118943571D01*
X82430952Y-118848333D01*
X82478571Y-118800714D01*
X82573810Y-118753095D01*
X82811905Y-118753095D01*
X82907143Y-118800714D01*
X82954762Y-118848333D01*
X83002381Y-118943571D01*
X83002381Y-119181667D01*
X82954762Y-119276905D01*
X82907143Y-119324524D01*
X148502619Y-127730238D02*
X148455000Y-127825476D01*
X148359762Y-127920714D01*
X148216905Y-128063571D01*
X148169286Y-128158810D01*
X148169286Y-128254048D01*
X148407381Y-128206429D02*
X148359762Y-128301667D01*
X148264524Y-128396905D01*
X148074048Y-128444524D01*
X147740714Y-128444524D01*
X147550238Y-128396905D01*
X147455000Y-128301667D01*
X147407381Y-128206429D01*
X147407381Y-128015952D01*
X147455000Y-127920714D01*
X147550238Y-127825476D01*
X147740714Y-127777857D01*
X148074048Y-127777857D01*
X148264524Y-127825476D01*
X148359762Y-127920714D01*
X148407381Y-128015952D01*
X148407381Y-128206429D01*
X147407381Y-127444524D02*
X147407381Y-126825476D01*
X147788333Y-127158810D01*
X147788333Y-127015952D01*
X147835952Y-126920714D01*
X147883571Y-126873095D01*
X147978810Y-126825476D01*
X148216905Y-126825476D01*
X148312143Y-126873095D01*
X148359762Y-126920714D01*
X148407381Y-127015952D01*
X148407381Y-127301667D01*
X148359762Y-127396905D01*
X148312143Y-127444524D01*
X134917381Y-119483095D02*
X133917381Y-119483095D01*
X133917381Y-119245000D01*
X133965000Y-119102142D01*
X134060238Y-119006904D01*
X134155476Y-118959285D01*
X134345952Y-118911666D01*
X134488810Y-118911666D01*
X134679286Y-118959285D01*
X134774524Y-119006904D01*
X134869762Y-119102142D01*
X134917381Y-119245000D01*
X134917381Y-119483095D01*
X134012619Y-118530714D02*
X133965000Y-118483095D01*
X133917381Y-118387857D01*
X133917381Y-118149761D01*
X133965000Y-118054523D01*
X134012619Y-118006904D01*
X134107857Y-117959285D01*
X134203095Y-117959285D01*
X134345952Y-118006904D01*
X134917381Y-118578333D01*
X134917381Y-117959285D01*
X95738095Y-103452381D02*
X95738095Y-104261905D01*
X95785714Y-104357143D01*
X95833333Y-104404762D01*
X95928571Y-104452381D01*
X96119048Y-104452381D01*
X96214286Y-104404762D01*
X96261905Y-104357143D01*
X96309524Y-104261905D01*
X96309524Y-103452381D01*
X97261905Y-103452381D02*
X96785714Y-103452381D01*
X96738095Y-103928571D01*
X96785714Y-103880952D01*
X96880952Y-103833333D01*
X97119048Y-103833333D01*
X97214286Y-103880952D01*
X97261905Y-103928571D01*
X97309524Y-104023810D01*
X97309524Y-104261905D01*
X97261905Y-104357143D01*
X97214286Y-104404762D01*
X97119048Y-104452381D01*
X96880952Y-104452381D01*
X96785714Y-104404762D01*
X96738095Y-104357143D01*
M02*
