%TF.GenerationSoftware,KiCad,Pcbnew,4.0.7*%
%TF.CreationDate,2018-07-29T20:51:03+02:00*%
%TF.ProjectId,HB-UNI-644,48422D554E492D3634342E6B69636164,2.0*%
%TF.FileFunction,Copper,L1,Top,Signal*%
%FSLAX46Y46*%
G04 Gerber Fmt 4.6, Leading zero omitted, Abs format (unit mm)*
G04 Created by KiCad (PCBNEW 4.0.7) date 07/29/18 20:51:03*
%MOMM*%
%LPD*%
G01*
G04 APERTURE LIST*
%ADD10C,0.100000*%
%ADD11R,1.300000X1.500000*%
%ADD12C,1.350000*%
%ADD13R,1.800000X1.350000*%
%ADD14R,2.000000X2.000000*%
%ADD15O,2.000000X2.000000*%
%ADD16C,1.600000*%
%ADD17R,1.500000X1.300000*%
%ADD18R,1.250000X1.500000*%
%ADD19R,1.500000X1.250000*%
%ADD20R,1.800000X1.800000*%
%ADD21C,1.800000*%
%ADD22R,1.700000X1.700000*%
%ADD23O,1.700000X1.700000*%
%ADD24R,1.500000X0.550000*%
%ADD25R,0.550000X1.500000*%
%ADD26C,1.500000*%
%ADD27C,1.700000*%
%ADD28R,2.180000X1.600000*%
%ADD29R,1.600000X1.600000*%
%ADD30R,1.100000X4.600000*%
%ADD31R,10.800000X9.400000*%
%ADD32R,5.250000X4.550000*%
%ADD33R,1.700000X3.300000*%
%ADD34R,1.350000X1.800000*%
%ADD35C,4.400000*%
%ADD36C,0.700000*%
%ADD37C,0.600000*%
%ADD38C,0.400000*%
%ADD39C,0.250000*%
%ADD40C,0.254000*%
G04 APERTURE END LIST*
D10*
D11*
X132715000Y-125650000D03*
X132715000Y-128350000D03*
D12*
X100370000Y-83560000D03*
D13*
X101370000Y-83560000D03*
D12*
X100370000Y-97560000D03*
X100370000Y-95560000D03*
X100370000Y-93560000D03*
X100370000Y-91560000D03*
X100370000Y-89560000D03*
X100370000Y-85560000D03*
D13*
X101370000Y-97560000D03*
X101370000Y-95560000D03*
X101370000Y-93560000D03*
X101370000Y-91560000D03*
X101370000Y-89560000D03*
X101370000Y-85560000D03*
D14*
X113030000Y-147955000D03*
D15*
X115570000Y-147955000D03*
D16*
X132500000Y-138100000D03*
X132500000Y-84900000D03*
X150500000Y-84900000D03*
X150500000Y-138100000D03*
D17*
X101520000Y-126365000D03*
X104220000Y-126365000D03*
D18*
X112395000Y-116185000D03*
X112395000Y-113685000D03*
X93400000Y-104950000D03*
X93400000Y-107450000D03*
D19*
X100985000Y-102235000D03*
X103485000Y-102235000D03*
X100350000Y-121285000D03*
X102850000Y-121285000D03*
X99675000Y-146050000D03*
X97175000Y-146050000D03*
X112415000Y-111125000D03*
X114915000Y-111125000D03*
D18*
X90424000Y-109748000D03*
X90424000Y-112248000D03*
X92964000Y-113772000D03*
X92964000Y-111272000D03*
D20*
X106680000Y-81280000D03*
D21*
X109220000Y-81280000D03*
X111760000Y-81280000D03*
D22*
X92075000Y-149225000D03*
D23*
X94615000Y-149225000D03*
X97155000Y-149225000D03*
X99695000Y-149225000D03*
X102235000Y-149225000D03*
X104775000Y-149225000D03*
D22*
X85090000Y-130810000D03*
D23*
X85090000Y-133350000D03*
X85090000Y-135890000D03*
X85090000Y-138430000D03*
D22*
X100330000Y-130810000D03*
D23*
X100330000Y-133350000D03*
X100330000Y-135890000D03*
X100330000Y-138430000D03*
D22*
X105410000Y-130810000D03*
D23*
X105410000Y-133350000D03*
X105410000Y-135890000D03*
X105410000Y-138430000D03*
D22*
X120650000Y-130810000D03*
D23*
X120650000Y-133350000D03*
X120650000Y-135890000D03*
X120650000Y-138430000D03*
D17*
X91360000Y-146050000D03*
X94060000Y-146050000D03*
D11*
X111760000Y-84375000D03*
X111760000Y-87075000D03*
X106680000Y-84375000D03*
X106680000Y-87075000D03*
D17*
X107235000Y-126365000D03*
X109935000Y-126365000D03*
D11*
X93980000Y-125015000D03*
X93980000Y-127715000D03*
X91440000Y-126285000D03*
X91440000Y-128985000D03*
D24*
X97170000Y-107760000D03*
X97170000Y-108560000D03*
X97170000Y-109360000D03*
X97170000Y-110160000D03*
X97170000Y-110960000D03*
X97170000Y-111760000D03*
X97170000Y-112560000D03*
X97170000Y-113360000D03*
X97170000Y-114160000D03*
X97170000Y-114960000D03*
X97170000Y-115760000D03*
D25*
X98870000Y-117460000D03*
X99670000Y-117460000D03*
X100470000Y-117460000D03*
X101270000Y-117460000D03*
X102070000Y-117460000D03*
X102870000Y-117460000D03*
X103670000Y-117460000D03*
X104470000Y-117460000D03*
X105270000Y-117460000D03*
X106070000Y-117460000D03*
X106870000Y-117460000D03*
D24*
X108570000Y-115760000D03*
X108570000Y-114960000D03*
X108570000Y-114160000D03*
X108570000Y-113360000D03*
X108570000Y-112560000D03*
X108570000Y-111760000D03*
X108570000Y-110960000D03*
X108570000Y-110160000D03*
X108570000Y-109360000D03*
X108570000Y-108560000D03*
X108570000Y-107760000D03*
D25*
X106870000Y-106060000D03*
X106070000Y-106060000D03*
X105270000Y-106060000D03*
X104470000Y-106060000D03*
X103670000Y-106060000D03*
X102870000Y-106060000D03*
X102070000Y-106060000D03*
X101270000Y-106060000D03*
X100470000Y-106060000D03*
X99670000Y-106060000D03*
X98870000Y-106060000D03*
D26*
X86360000Y-110490000D03*
X86360000Y-115370000D03*
D22*
X98425000Y-76835000D03*
D23*
X98425000Y-79375000D03*
X95885000Y-76835000D03*
X95885000Y-79375000D03*
X93345000Y-76835000D03*
X93345000Y-79375000D03*
D17*
X115015000Y-106680000D03*
X112315000Y-106680000D03*
D11*
X112395000Y-95805000D03*
X112395000Y-98505000D03*
D27*
X120650000Y-101600000D03*
D23*
X120650000Y-99060000D03*
D19*
X106660000Y-96520000D03*
X104160000Y-96520000D03*
X106660000Y-99060000D03*
X104160000Y-99060000D03*
D28*
X104630000Y-76835000D03*
X113810000Y-76835000D03*
D29*
X86360000Y-126365000D03*
D16*
X86360000Y-122865000D03*
D22*
X118110000Y-104140000D03*
D23*
X115570000Y-104140000D03*
X118110000Y-101600000D03*
X115570000Y-101600000D03*
X118110000Y-99060000D03*
X115570000Y-99060000D03*
X118110000Y-96520000D03*
X115570000Y-96520000D03*
X118110000Y-93980000D03*
X115570000Y-93980000D03*
X118110000Y-91440000D03*
X115570000Y-91440000D03*
X118110000Y-88900000D03*
X115570000Y-88900000D03*
X118110000Y-86360000D03*
X115570000Y-86360000D03*
X118110000Y-83820000D03*
X115570000Y-83820000D03*
D22*
X120650000Y-127000000D03*
D23*
X118110000Y-127000000D03*
X120650000Y-124460000D03*
X118110000Y-124460000D03*
X120650000Y-121920000D03*
X118110000Y-121920000D03*
X120650000Y-119380000D03*
X118110000Y-119380000D03*
X120650000Y-116840000D03*
X118110000Y-116840000D03*
X120650000Y-114300000D03*
X118110000Y-114300000D03*
X120650000Y-111760000D03*
X118110000Y-111760000D03*
X120650000Y-109220000D03*
X118110000Y-109220000D03*
X120650000Y-106680000D03*
X118110000Y-106680000D03*
D22*
X146685000Y-108585000D03*
D23*
X144145000Y-108585000D03*
X141605000Y-108585000D03*
X139065000Y-108585000D03*
D30*
X140335000Y-128330000D03*
X145415000Y-128330000D03*
D31*
X142875000Y-119180000D03*
D32*
X145650000Y-116755000D03*
X140100000Y-121605000D03*
X140100000Y-116755000D03*
X145650000Y-121605000D03*
D33*
X132715000Y-115995000D03*
X132715000Y-121495000D03*
D12*
X96780000Y-101005000D03*
D34*
X96780000Y-102005000D03*
D12*
X82780000Y-101005000D03*
X84780000Y-101005000D03*
X86780000Y-101005000D03*
X88780000Y-101005000D03*
X90780000Y-101005000D03*
X94780000Y-101005000D03*
D34*
X82780000Y-102005000D03*
X84780000Y-102005000D03*
X86780000Y-102005000D03*
X88780000Y-102005000D03*
X90780000Y-102005000D03*
X94780000Y-102005000D03*
D35*
X86500000Y-79000000D03*
D36*
X88150000Y-79000000D03*
X87666726Y-80166726D03*
X86500000Y-80650000D03*
X85333274Y-80166726D03*
X84850000Y-79000000D03*
X85333274Y-77833274D03*
X86500000Y-77350000D03*
X87666726Y-77833274D03*
D35*
X120500000Y-79000000D03*
D36*
X122150000Y-79000000D03*
X121666726Y-80166726D03*
X120500000Y-80650000D03*
X119333274Y-80166726D03*
X118850000Y-79000000D03*
X119333274Y-77833274D03*
X120500000Y-77350000D03*
X121666726Y-77833274D03*
D35*
X154500000Y-79000000D03*
D36*
X156150000Y-79000000D03*
X155666726Y-80166726D03*
X154500000Y-80650000D03*
X153333274Y-80166726D03*
X152850000Y-79000000D03*
X153333274Y-77833274D03*
X154500000Y-77350000D03*
X155666726Y-77833274D03*
D35*
X86500000Y-147000000D03*
D36*
X88150000Y-147000000D03*
X87666726Y-148166726D03*
X86500000Y-148650000D03*
X85333274Y-148166726D03*
X84850000Y-147000000D03*
X85333274Y-145833274D03*
X86500000Y-145350000D03*
X87666726Y-145833274D03*
D35*
X120500000Y-147000000D03*
D36*
X122150000Y-147000000D03*
X121666726Y-148166726D03*
X120500000Y-148650000D03*
X119333274Y-148166726D03*
X118850000Y-147000000D03*
X119333274Y-145833274D03*
X120500000Y-145350000D03*
X121666726Y-145833274D03*
D35*
X154500000Y-147000000D03*
D36*
X156150000Y-147000000D03*
X155666726Y-148166726D03*
X154500000Y-148650000D03*
X153333274Y-148166726D03*
X152850000Y-147000000D03*
X153333274Y-145833274D03*
X154500000Y-145350000D03*
X155666726Y-145833274D03*
D37*
X82550000Y-93980000D03*
X82550000Y-82550000D03*
X94615000Y-98425000D03*
X95250000Y-83185000D03*
X86360000Y-95885000D03*
X100965000Y-100330000D03*
X90170000Y-108585000D03*
X92710000Y-109855000D03*
X106680000Y-100330000D03*
X106680000Y-95250000D03*
X88265000Y-131445000D03*
X114935000Y-107950000D03*
X114935000Y-109855000D03*
X115570000Y-76835000D03*
X104775000Y-141605000D03*
X100965000Y-141605000D03*
X121920000Y-144145000D03*
X107950000Y-137160000D03*
X102870000Y-138430000D03*
X112395000Y-117475000D03*
X93345000Y-130175000D03*
X102870000Y-133350000D03*
X98425000Y-111760000D03*
X100330000Y-122555000D03*
X113665000Y-95885000D03*
X103632000Y-116078000D03*
X102870000Y-107315000D03*
X107315000Y-111760000D03*
X82550000Y-146685000D03*
X94615000Y-118110000D03*
X98425000Y-114300000D03*
X106045000Y-101600000D03*
X102870000Y-103505000D03*
X105410000Y-100965000D03*
X101600000Y-103505000D03*
X104140000Y-125095000D03*
X107950000Y-120650000D03*
X107315000Y-125095000D03*
X104775000Y-113665000D03*
X104775000Y-111760000D03*
X97790000Y-92710000D03*
X97790000Y-81915000D03*
X97155000Y-90170000D03*
X96520000Y-91440000D03*
X99060000Y-89535000D03*
X99695000Y-103505000D03*
X99060000Y-114935000D03*
X106680000Y-124460000D03*
X100965000Y-124460000D03*
X107315000Y-123825000D03*
X101600000Y-123825000D03*
X105410000Y-93980000D03*
X100965000Y-111760000D03*
X100965000Y-123190000D03*
X106045000Y-123190000D03*
X114935000Y-115570000D03*
X106680000Y-115570000D03*
X100965000Y-107950000D03*
X113665000Y-102870000D03*
X113665000Y-101600000D03*
X99695000Y-107315000D03*
X98425000Y-88265000D03*
X104775000Y-94615000D03*
X99695000Y-111760000D03*
X98425000Y-109855000D03*
X131445000Y-147955000D03*
X116205000Y-127000000D03*
X145415000Y-131445000D03*
X92075000Y-106045000D03*
D38*
X132500000Y-84900000D02*
X150500000Y-84900000D01*
X84780000Y-101005000D02*
X84780000Y-102005000D01*
X100985000Y-102235000D02*
X100985000Y-100350000D01*
X100985000Y-100350000D02*
X100965000Y-100330000D01*
X100370000Y-95560000D02*
X101370000Y-95560000D01*
X90424000Y-109748000D02*
X90424000Y-108839000D01*
X90424000Y-108839000D02*
X90170000Y-108585000D01*
X92964000Y-111272000D02*
X92964000Y-110109000D01*
X92964000Y-110109000D02*
X92710000Y-109855000D01*
X106660000Y-99060000D02*
X106660000Y-100310000D01*
X106660000Y-100310000D02*
X106680000Y-100330000D01*
X106660000Y-96520000D02*
X106660000Y-95270000D01*
X106660000Y-95270000D02*
X106680000Y-95250000D01*
X114935000Y-107950000D02*
X114935000Y-106760000D01*
X114935000Y-106760000D02*
X115015000Y-106680000D01*
X114915000Y-111125000D02*
X114915000Y-109875000D01*
X114915000Y-109875000D02*
X114935000Y-109855000D01*
X113810000Y-76835000D02*
X115570000Y-76835000D01*
X104775000Y-141605000D02*
X100965000Y-141605000D01*
X104775000Y-149225000D02*
X104775000Y-141605000D01*
X113665000Y-144145000D02*
X109220000Y-144145000D01*
X104775000Y-144145000D02*
X109220000Y-144145000D01*
X104775000Y-141605000D02*
X104775000Y-144145000D01*
X114935000Y-144145000D02*
X113665000Y-144145000D01*
X121920000Y-144145000D02*
X114935000Y-144145000D01*
X112395000Y-116185000D02*
X112395000Y-117475000D01*
X102870000Y-133350000D02*
X105410000Y-133350000D01*
X92900000Y-109100000D02*
X93800000Y-110000000D01*
X96160000Y-111760000D02*
X97170000Y-111760000D01*
X96000000Y-111600000D02*
X96160000Y-111760000D01*
X95400000Y-111600000D02*
X96000000Y-111600000D01*
X93800000Y-110000000D02*
X95400000Y-111600000D01*
X88000000Y-119200000D02*
X90600000Y-119200000D01*
X83400000Y-119000000D02*
X83600000Y-119200000D01*
X83600000Y-119200000D02*
X88000000Y-119200000D01*
X83400000Y-118800000D02*
X83400000Y-107000000D01*
X83600000Y-106800000D02*
X83400000Y-107000000D01*
X84000000Y-106800000D02*
X83800000Y-106800000D01*
X90600000Y-106800000D02*
X84000000Y-106800000D01*
X92900000Y-109100000D02*
X90600000Y-106800000D01*
X83800000Y-106800000D02*
X83600000Y-106800000D01*
X83400000Y-118800000D02*
X83400000Y-119000000D01*
X95800000Y-114000000D02*
X95800000Y-113885002D01*
X90600000Y-119200000D02*
X95800000Y-114000000D01*
X98425000Y-111760000D02*
X97170000Y-111760000D01*
X100350000Y-122535000D02*
X100350000Y-121285000D01*
X100350000Y-122535000D02*
X100330000Y-122555000D01*
X112395000Y-95805000D02*
X113585000Y-95805000D01*
X113585000Y-95805000D02*
X113665000Y-95885000D01*
X103670000Y-117460000D02*
X103670000Y-116116000D01*
X103670000Y-116116000D02*
X103632000Y-116078000D01*
X102870000Y-106060000D02*
X102870000Y-107315000D01*
X108570000Y-111760000D02*
X107315000Y-111760000D01*
X82780000Y-102005000D02*
X82780000Y-101005000D01*
D39*
X92075000Y-149225000D02*
X93980000Y-147320000D01*
X98405000Y-147320000D02*
X99675000Y-146050000D01*
X93980000Y-147320000D02*
X98405000Y-147320000D01*
D38*
X99695000Y-146130000D02*
X99775000Y-146050000D01*
D39*
X111760000Y-110960000D02*
X112250000Y-110960000D01*
X112250000Y-110960000D02*
X112395000Y-111105000D01*
X108570000Y-110960000D02*
X111760000Y-110960000D01*
X111760000Y-110960000D02*
X111945000Y-110960000D01*
X86360000Y-110490000D02*
X88265000Y-112395000D01*
X88265000Y-112395000D02*
X90277000Y-112395000D01*
X90277000Y-112395000D02*
X90424000Y-112248000D01*
X97170000Y-112560000D02*
X90736000Y-112560000D01*
X90736000Y-112560000D02*
X90424000Y-112248000D01*
X86360000Y-115370000D02*
X86560000Y-115370000D01*
X86560000Y-115370000D02*
X88265000Y-113665000D01*
X88265000Y-113665000D02*
X92857000Y-113665000D01*
X92857000Y-113665000D02*
X92964000Y-113772000D01*
X97170000Y-113360000D02*
X93376000Y-113360000D01*
X93376000Y-113360000D02*
X92964000Y-113772000D01*
X106680000Y-84375000D02*
X106680000Y-81280000D01*
X111760000Y-84375000D02*
X111760000Y-81280000D01*
X92710000Y-120650000D02*
X93345000Y-120650000D01*
X95250000Y-118745000D02*
X95250000Y-118110000D01*
X93345000Y-120650000D02*
X95250000Y-118745000D01*
X82550000Y-140335000D02*
X82550000Y-146685000D01*
X82550000Y-123190000D02*
X82550000Y-122555000D01*
X84455000Y-120650000D02*
X92710000Y-120650000D01*
X82550000Y-122555000D02*
X84455000Y-120650000D01*
X82550000Y-123825000D02*
X82550000Y-123190000D01*
X82550000Y-129540000D02*
X82550000Y-123825000D01*
X95250000Y-116840000D02*
X95250000Y-118110000D01*
X95860000Y-114960000D02*
X95250000Y-115570000D01*
X97170000Y-114960000D02*
X95860000Y-114960000D01*
X95250000Y-116840000D02*
X95250000Y-115570000D01*
X82550000Y-130175000D02*
X82550000Y-129540000D01*
X82550000Y-130175000D02*
X82550000Y-140335000D01*
X81915000Y-147320000D02*
X82550000Y-147955000D01*
X92075000Y-120015000D02*
X92710000Y-120015000D01*
X92710000Y-120015000D02*
X94615000Y-118110000D01*
X81915000Y-140970000D02*
X81915000Y-146685000D01*
X81915000Y-122555000D02*
X81915000Y-121920000D01*
X83820000Y-120015000D02*
X92075000Y-120015000D01*
X81915000Y-121920000D02*
X83820000Y-120015000D01*
X81915000Y-123190000D02*
X81915000Y-122555000D01*
X81915000Y-128905000D02*
X81915000Y-123190000D01*
X97170000Y-114160000D02*
X98285000Y-114160000D01*
X98285000Y-114160000D02*
X98425000Y-114300000D01*
X81915000Y-129540000D02*
X81915000Y-128905000D01*
X81915000Y-129540000D02*
X81915000Y-140970000D01*
X81915000Y-146685000D02*
X81915000Y-147320000D01*
X95885000Y-150495000D02*
X97155000Y-149225000D01*
X84455000Y-150495000D02*
X95885000Y-150495000D01*
X82550000Y-148590000D02*
X84455000Y-150495000D01*
X82550000Y-147955000D02*
X82550000Y-148590000D01*
X106680000Y-128905000D02*
X106045000Y-128905000D01*
X106680000Y-128905000D02*
X108585000Y-128905000D01*
X118110000Y-128905000D02*
X121285000Y-128905000D01*
X121920000Y-134620000D02*
X120650000Y-135890000D01*
X121920000Y-129540000D02*
X121920000Y-134620000D01*
X121285000Y-128905000D02*
X121920000Y-129540000D01*
X111760000Y-128905000D02*
X118110000Y-128905000D01*
X111760000Y-128905000D02*
X109855000Y-128905000D01*
X108585000Y-128905000D02*
X109855000Y-128905000D01*
X106045000Y-128905000D02*
X105410000Y-128270000D01*
X105410000Y-128270000D02*
X105410000Y-125095000D01*
X105410000Y-125095000D02*
X104470000Y-124155000D01*
X104470000Y-124155000D02*
X104470000Y-117460000D01*
X99060000Y-132080000D02*
X99060000Y-134620000D01*
X99060000Y-134620000D02*
X100330000Y-135890000D01*
X93980000Y-127715000D02*
X97235000Y-127715000D01*
X98425000Y-128905000D02*
X98425000Y-131445000D01*
X97235000Y-127715000D02*
X98425000Y-128905000D01*
X101600000Y-136525000D02*
X100965000Y-136525000D01*
X101600000Y-136525000D02*
X104775000Y-136525000D01*
X104775000Y-136525000D02*
X105410000Y-135890000D01*
X100965000Y-136525000D02*
X100330000Y-135890000D01*
X98425000Y-131445000D02*
X99060000Y-132080000D01*
X86360000Y-130810000D02*
X86360000Y-128270000D01*
X86995000Y-127635000D02*
X89535000Y-127635000D01*
X86360000Y-128270000D02*
X86995000Y-127635000D01*
X89535000Y-127635000D02*
X94535000Y-127635000D01*
X85090000Y-135890000D02*
X86360000Y-134620000D01*
X86360000Y-134620000D02*
X86360000Y-130810000D01*
X105410000Y-135890000D02*
X106680000Y-134620000D01*
X106680000Y-132080000D02*
X106680000Y-131445000D01*
X106680000Y-130810000D02*
X107315000Y-130175000D01*
X109855000Y-130175000D02*
X107315000Y-130175000D01*
X119380000Y-134620000D02*
X120650000Y-135890000D01*
X119380000Y-130810000D02*
X119380000Y-134620000D01*
X118745000Y-130175000D02*
X119380000Y-130810000D01*
X109855000Y-130175000D02*
X118745000Y-130175000D01*
X106680000Y-131445000D02*
X106680000Y-130810000D01*
X106680000Y-132715000D02*
X106680000Y-132080000D01*
X106680000Y-134620000D02*
X106680000Y-132715000D01*
X98425000Y-132715000D02*
X98425000Y-136525000D01*
X98425000Y-136525000D02*
X99060000Y-137160000D01*
X100330000Y-138430000D02*
X101600000Y-137160000D01*
X104140000Y-137160000D02*
X105410000Y-138430000D01*
X101600000Y-137160000D02*
X104140000Y-137160000D01*
X91440000Y-128985000D02*
X87550000Y-128985000D01*
X87550000Y-128985000D02*
X86995000Y-129540000D01*
X97790000Y-129540000D02*
X97235000Y-128985000D01*
X97235000Y-128985000D02*
X91440000Y-128985000D01*
X91360000Y-128905000D02*
X91440000Y-128985000D01*
X97790000Y-129540000D02*
X97790000Y-130175000D01*
X85090000Y-138430000D02*
X86995000Y-136525000D01*
X86995000Y-136525000D02*
X86995000Y-129540000D01*
X99060000Y-137160000D02*
X100330000Y-138430000D01*
X97790000Y-132080000D02*
X98425000Y-132715000D01*
X97790000Y-130175000D02*
X97790000Y-132080000D01*
X106680000Y-128270000D02*
X106045000Y-127635000D01*
X105270000Y-123685000D02*
X105270000Y-117460000D01*
X106045000Y-124460000D02*
X105270000Y-123685000D01*
X106045000Y-125095000D02*
X106045000Y-124460000D01*
X106045000Y-127635000D02*
X106045000Y-125095000D01*
X109855000Y-130810000D02*
X118110000Y-130810000D01*
X107315000Y-135890000D02*
X107315000Y-131445000D01*
X107315000Y-131445000D02*
X107950000Y-130810000D01*
X107950000Y-130810000D02*
X109855000Y-130810000D01*
X105410000Y-137795000D02*
X107315000Y-135890000D01*
X118745000Y-136525000D02*
X120650000Y-138430000D01*
X118745000Y-131445000D02*
X118745000Y-136525000D01*
X118110000Y-130810000D02*
X118745000Y-131445000D01*
X105410000Y-138430000D02*
X105410000Y-137795000D01*
X112395000Y-128270000D02*
X110490000Y-128270000D01*
X122555000Y-128905000D02*
X122555000Y-135890000D01*
X121920000Y-128270000D02*
X122555000Y-128905000D01*
X121920000Y-128270000D02*
X112395000Y-128270000D01*
X122555000Y-136525000D02*
X122555000Y-135890000D01*
X120650000Y-138430000D02*
X122555000Y-136525000D01*
X109220000Y-128270000D02*
X110490000Y-128270000D01*
X106680000Y-128270000D02*
X109220000Y-128270000D01*
X102070000Y-106060000D02*
X102070000Y-104940000D01*
X102870000Y-104140000D02*
X102870000Y-103505000D01*
X102070000Y-104940000D02*
X102870000Y-104140000D01*
X107950000Y-100330000D02*
X107950000Y-91440000D01*
X107950000Y-91440000D02*
X111760000Y-87630000D01*
X106045000Y-101600000D02*
X106680000Y-101600000D01*
X106680000Y-101600000D02*
X107950000Y-100330000D01*
X111760000Y-87630000D02*
X111760000Y-87075000D01*
X106045000Y-94615000D02*
X106045000Y-87710000D01*
X106045000Y-87710000D02*
X106680000Y-87075000D01*
X105410000Y-95250000D02*
X106045000Y-94615000D01*
X105410000Y-100965000D02*
X105410000Y-100330000D01*
X101270000Y-104470000D02*
X101270000Y-103835000D01*
X101270000Y-103835000D02*
X101600000Y-103505000D01*
X101270000Y-105080000D02*
X101270000Y-104470000D01*
X105410000Y-100330000D02*
X105410000Y-95250000D01*
X101270000Y-106060000D02*
X101270000Y-105080000D01*
X104775000Y-113665000D02*
X104775000Y-114935000D01*
X106045000Y-116205000D02*
X107315000Y-116205000D01*
X104775000Y-114935000D02*
X106045000Y-116205000D01*
X104220000Y-125175000D02*
X104220000Y-126365000D01*
X104140000Y-125095000D02*
X104220000Y-125175000D01*
X107950000Y-116840000D02*
X107315000Y-116205000D01*
X107950000Y-116840000D02*
X107950000Y-120650000D01*
X107235000Y-125175000D02*
X107235000Y-126365000D01*
X107315000Y-125095000D02*
X107235000Y-125175000D01*
X104470000Y-111455000D02*
X104470000Y-106060000D01*
X104775000Y-111760000D02*
X104470000Y-111455000D01*
X101600000Y-122555000D02*
X102235000Y-123190000D01*
X101520000Y-125700002D02*
X101520000Y-126365000D01*
X102235000Y-124985002D02*
X101520000Y-125700002D01*
X102235000Y-123190000D02*
X102235000Y-124985002D01*
X102070000Y-119545000D02*
X102070000Y-117460000D01*
X101600000Y-120015000D02*
X102070000Y-119545000D01*
X101600000Y-122555000D02*
X101600000Y-120015000D01*
X100370000Y-93560000D02*
X101370000Y-93560000D01*
X97790000Y-92710000D02*
X97790000Y-81915000D01*
X98425000Y-100330000D02*
X98425000Y-99695000D01*
X98425000Y-99695000D02*
X97790000Y-99060000D01*
X98425000Y-101600000D02*
X98425000Y-100330000D01*
X97790000Y-93345000D02*
X97790000Y-92710000D01*
X95885000Y-106680000D02*
X97790000Y-104775000D01*
X95885000Y-107315000D02*
X95885000Y-106680000D01*
X96330000Y-107760000D02*
X95885000Y-107315000D01*
X97170000Y-107760000D02*
X96330000Y-107760000D01*
X97790000Y-99060000D02*
X97790000Y-93345000D01*
X98425000Y-104140000D02*
X98425000Y-101600000D01*
X97790000Y-104775000D02*
X98425000Y-104140000D01*
X96965000Y-107760000D02*
X97170000Y-107760000D01*
X97155000Y-107745000D02*
X97170000Y-107760000D01*
X97155000Y-80010000D02*
X97155000Y-82550000D01*
X97155000Y-82550000D02*
X97155000Y-89535000D01*
X97155000Y-89535000D02*
X97155000Y-90170000D01*
X97155000Y-90170000D02*
X97155000Y-99695000D01*
X97170000Y-108560000D02*
X95860000Y-108560000D01*
X95250000Y-107950000D02*
X95250000Y-106045000D01*
X95860000Y-108560000D02*
X95250000Y-107950000D01*
X97790000Y-103505000D02*
X97790000Y-100330000D01*
X97790000Y-100330000D02*
X97155000Y-99695000D01*
X97790000Y-103505000D02*
X95250000Y-106045000D01*
X101370000Y-89560000D02*
X100370000Y-89560000D01*
X97155000Y-79375000D02*
X97155000Y-78105000D01*
X97155000Y-80010000D02*
X97155000Y-79375000D01*
X97155000Y-78105000D02*
X98425000Y-76835000D01*
X95250000Y-99060000D02*
X96520000Y-97790000D01*
X93345000Y-100965000D02*
X95250000Y-99060000D01*
X93980000Y-103505000D02*
X93345000Y-102870000D01*
X96520000Y-97790000D02*
X96520000Y-91440000D01*
X93345000Y-102870000D02*
X93345000Y-100965000D01*
X94615000Y-105410000D02*
X95250000Y-104775000D01*
X94615000Y-103505000D02*
X93980000Y-103505000D01*
X95250000Y-104140000D02*
X94615000Y-103505000D01*
X95250000Y-104775000D02*
X95250000Y-104140000D01*
X95390000Y-109360000D02*
X94615000Y-108585000D01*
X94615000Y-108585000D02*
X94615000Y-105410000D01*
X97170000Y-109360000D02*
X95390000Y-109360000D01*
X96520000Y-81915000D02*
X94615000Y-80010000D01*
X96520000Y-91440000D02*
X96520000Y-81915000D01*
X101370000Y-91560000D02*
X100370000Y-91560000D01*
X94615000Y-80010000D02*
X94615000Y-78105000D01*
X94615000Y-78105000D02*
X95885000Y-76835000D01*
X99695000Y-99060000D02*
X99695000Y-98425000D01*
X99695000Y-98425000D02*
X99060000Y-97790000D01*
X99695000Y-100330000D02*
X99695000Y-99060000D01*
X99860000Y-85560000D02*
X99060000Y-86360000D01*
X99060000Y-86360000D02*
X99060000Y-89535000D01*
X99060000Y-89535000D02*
X99060000Y-97790000D01*
X99695000Y-103505000D02*
X99695000Y-100330000D01*
X100370000Y-85560000D02*
X101370000Y-85560000D01*
X100370000Y-85560000D02*
X99860000Y-85560000D01*
X98235000Y-115760000D02*
X99060000Y-114935000D01*
X98235000Y-115760000D02*
X99060000Y-114935000D01*
X97170000Y-115760000D02*
X98235000Y-115760000D01*
X118745000Y-125730000D02*
X119380000Y-125095000D01*
X121920000Y-102235000D02*
X121920000Y-88265000D01*
X119380000Y-104775000D02*
X121920000Y-102235000D01*
X119380000Y-125095000D02*
X119380000Y-104775000D01*
X113665000Y-124460000D02*
X116205000Y-124460000D01*
X116205000Y-124460000D02*
X117475000Y-125730000D01*
X113030000Y-124460000D02*
X113665000Y-124460000D01*
X117475000Y-125730000D02*
X118745000Y-125730000D01*
X97155000Y-123825000D02*
X97790000Y-124460000D01*
X98870000Y-118300000D02*
X98870000Y-117460000D01*
X97155000Y-119380000D02*
X97155000Y-120015000D01*
X97790000Y-118745000D02*
X97155000Y-119380000D01*
X98425000Y-118745000D02*
X97790000Y-118745000D01*
X98870000Y-118300000D02*
X98425000Y-118745000D01*
X97155000Y-120015000D02*
X97155000Y-123825000D01*
X118745000Y-85090000D02*
X121920000Y-88265000D01*
X115570000Y-83820000D02*
X116840000Y-85090000D01*
X116840000Y-85090000D02*
X118745000Y-85090000D01*
X106680000Y-124460000D02*
X108585000Y-124460000D01*
X97790000Y-124460000D02*
X98425000Y-124460000D01*
X99060000Y-124460000D02*
X100965000Y-124460000D01*
X98425000Y-124460000D02*
X99060000Y-124460000D01*
X106680000Y-124460000D02*
X108585000Y-124460000D01*
X108585000Y-124460000D02*
X113030000Y-124460000D01*
X118110000Y-124460000D02*
X117475000Y-124460000D01*
X117475000Y-124460000D02*
X116840000Y-123825000D01*
X114300000Y-123825000D02*
X116840000Y-123825000D01*
X99670000Y-118745000D02*
X99670000Y-117460000D01*
X97790000Y-123190000D02*
X98425000Y-123825000D01*
X97790000Y-120650000D02*
X97790000Y-123190000D01*
X99670000Y-118770000D02*
X99060000Y-119380000D01*
X99060000Y-119380000D02*
X98425000Y-119380000D01*
X98425000Y-119380000D02*
X97790000Y-120015000D01*
X97790000Y-120015000D02*
X97790000Y-120650000D01*
X99670000Y-118745000D02*
X99670000Y-118770000D01*
X99060000Y-123825000D02*
X99695000Y-123825000D01*
X98425000Y-123825000D02*
X99060000Y-123825000D01*
X107315000Y-123825000D02*
X113030000Y-123825000D01*
X99695000Y-123825000D02*
X101600000Y-123825000D01*
X113030000Y-123825000D02*
X114300000Y-123825000D01*
X105410000Y-92075000D02*
X105410000Y-77615000D01*
X105410000Y-77615000D02*
X104630000Y-76835000D01*
X105410000Y-93980000D02*
X105410000Y-92075000D01*
X100470000Y-114795000D02*
X100965000Y-114300000D01*
X100965000Y-114300000D02*
X100965000Y-111760000D01*
X100470000Y-117460000D02*
X100470000Y-114795000D01*
X104775000Y-76980000D02*
X104630000Y-76835000D01*
X116205000Y-123190000D02*
X116840000Y-123190000D01*
X116840000Y-123190000D02*
X118110000Y-121920000D01*
X118110000Y-121920000D02*
X117475000Y-121920000D01*
X114300000Y-123190000D02*
X116205000Y-123190000D01*
X101270000Y-119075000D02*
X101270000Y-117460000D01*
X101270000Y-119075000D02*
X100330000Y-120015000D01*
X98425000Y-120650000D02*
X98425000Y-122555000D01*
X99060000Y-120015000D02*
X98425000Y-120650000D01*
X100330000Y-120015000D02*
X99060000Y-120015000D01*
X99060000Y-123190000D02*
X100965000Y-123190000D01*
X98425000Y-122555000D02*
X99060000Y-123190000D01*
X106045000Y-123190000D02*
X113030000Y-123190000D01*
X113030000Y-123190000D02*
X114300000Y-123190000D01*
X113665000Y-122505000D02*
X114985000Y-122505000D01*
X114985000Y-122505000D02*
X118110000Y-119380000D01*
X112395000Y-122505000D02*
X113665000Y-122505000D01*
X107315000Y-122505000D02*
X112395000Y-122505000D01*
X106070000Y-121260000D02*
X107315000Y-122505000D01*
X106070000Y-120040000D02*
X106070000Y-121260000D01*
X106070000Y-120040000D02*
X106070000Y-117460000D01*
X111760000Y-121920000D02*
X113030000Y-121920000D01*
X113030000Y-121920000D02*
X118110000Y-116840000D01*
X106870000Y-117460000D02*
X106870000Y-119570000D01*
X106870000Y-119570000D02*
X106870000Y-120460000D01*
X106870000Y-120460000D02*
X106870000Y-120840000D01*
X106870000Y-120840000D02*
X107950000Y-121920000D01*
X107950000Y-121920000D02*
X108585000Y-121920000D01*
X108585000Y-121920000D02*
X111760000Y-121920000D01*
X114300000Y-118110000D02*
X118110000Y-114300000D01*
X110045000Y-115760000D02*
X108570000Y-115760000D01*
X110045000Y-115760000D02*
X110490000Y-116205000D01*
X110490000Y-118110000D02*
X111125000Y-118745000D01*
X110490000Y-116205000D02*
X110490000Y-118110000D01*
X111125000Y-118745000D02*
X113665000Y-118745000D01*
X113665000Y-118745000D02*
X114300000Y-118110000D01*
X108570000Y-115760000D02*
X108775000Y-115760000D01*
X107315000Y-114935000D02*
X106680000Y-115570000D01*
X114935000Y-115570000D02*
X116205000Y-114300000D01*
X116205000Y-114300000D02*
X116840000Y-113665000D01*
X116840000Y-113665000D02*
X118110000Y-112395000D01*
X118110000Y-112395000D02*
X118110000Y-111760000D01*
X107340000Y-114960000D02*
X107315000Y-114935000D01*
X108570000Y-114960000D02*
X107340000Y-114960000D01*
X114300000Y-114300000D02*
X114935000Y-113665000D01*
X114935000Y-113665000D02*
X115570000Y-113030000D01*
X115570000Y-113030000D02*
X116205000Y-113030000D01*
X116840000Y-112395000D02*
X116840000Y-111125000D01*
X116205000Y-113030000D02*
X116840000Y-112395000D01*
X118110000Y-109220000D02*
X118110000Y-109855000D01*
X118110000Y-109855000D02*
X116840000Y-111125000D01*
X114300000Y-114935000D02*
X114300000Y-114300000D01*
X113030000Y-118110000D02*
X113665000Y-117475000D01*
X113665000Y-117475000D02*
X113665000Y-115570000D01*
X114300000Y-114935000D02*
X113665000Y-115570000D01*
X113665000Y-115570000D02*
X113665000Y-117475000D01*
X111760000Y-118110000D02*
X113030000Y-118110000D01*
X111125000Y-115570000D02*
X111125000Y-117475000D01*
X111125000Y-117475000D02*
X111760000Y-118110000D01*
X109715000Y-114160000D02*
X110350000Y-114160000D01*
X110490000Y-114300000D02*
X110490000Y-114935000D01*
X110350000Y-114160000D02*
X110490000Y-114300000D01*
X108570000Y-114160000D02*
X109715000Y-114160000D01*
X110490000Y-114935000D02*
X111125000Y-115570000D01*
X111760000Y-114935000D02*
X113030000Y-114935000D01*
X116205000Y-108585000D02*
X118110000Y-106680000D01*
X116205000Y-111760000D02*
X116205000Y-108585000D01*
X115570000Y-112395000D02*
X116205000Y-111760000D01*
X114935000Y-112395000D02*
X115570000Y-112395000D01*
X113665000Y-113665000D02*
X114935000Y-112395000D01*
X113665000Y-114300000D02*
X113665000Y-113665000D01*
X113030000Y-114935000D02*
X113665000Y-114300000D01*
X108570000Y-113360000D02*
X110820000Y-113360000D01*
X111125000Y-113665000D02*
X111125000Y-114300000D01*
X110820000Y-113360000D02*
X111125000Y-113665000D01*
X110820000Y-113360000D02*
X111125000Y-113665000D01*
X111125000Y-114300000D02*
X111760000Y-114935000D01*
X111125000Y-114300000D02*
X111760000Y-114935000D01*
X113030000Y-102235000D02*
X114935000Y-102235000D01*
X114935000Y-102235000D02*
X115570000Y-101600000D01*
X112315000Y-104775000D02*
X112315000Y-102950000D01*
X112315000Y-102950000D02*
X113030000Y-102235000D01*
X112315000Y-106680000D02*
X112315000Y-104775000D01*
X112315000Y-106680000D02*
X112315000Y-106600000D01*
X111760000Y-109220000D02*
X111760000Y-107235000D01*
X111760000Y-107235000D02*
X112315000Y-106680000D01*
X108570000Y-110160000D02*
X110820000Y-110160000D01*
X110820000Y-110160000D02*
X111760000Y-109220000D01*
X111760000Y-104140000D02*
X111760000Y-99695000D01*
X111760000Y-99695000D02*
X112395000Y-99060000D01*
X112395000Y-99060000D02*
X112395000Y-98505000D01*
X111125000Y-105410000D02*
X111125000Y-104775000D01*
X111125000Y-104775000D02*
X111760000Y-104140000D01*
X114505000Y-98505000D02*
X115015000Y-98505000D01*
X112395000Y-98505000D02*
X114505000Y-98505000D01*
X115015000Y-98505000D02*
X115570000Y-99060000D01*
X115015000Y-98505000D02*
X115570000Y-99060000D01*
X108570000Y-109360000D02*
X110350000Y-109360000D01*
X110350000Y-109360000D02*
X111125000Y-108585000D01*
X111125000Y-108585000D02*
X111125000Y-106680000D01*
X111125000Y-105410000D02*
X111125000Y-106680000D01*
X110490000Y-104775000D02*
X110490000Y-104140000D01*
X110490000Y-104140000D02*
X111125000Y-103505000D01*
X111125000Y-103505000D02*
X111125000Y-99695000D01*
X113030000Y-93980000D02*
X115570000Y-96520000D01*
X111125000Y-94615000D02*
X111760000Y-93980000D01*
X111760000Y-93980000D02*
X113030000Y-93980000D01*
X111125000Y-99695000D02*
X111125000Y-98425000D01*
X111125000Y-98425000D02*
X111125000Y-97790000D01*
X111125000Y-97790000D02*
X111125000Y-94615000D01*
X114935000Y-97155000D02*
X115570000Y-96520000D01*
X115570000Y-96520000D02*
X114935000Y-97155000D01*
X110490000Y-107950000D02*
X110490000Y-104775000D01*
X109880000Y-108560000D02*
X110490000Y-107950000D01*
X114935000Y-97155000D02*
X115570000Y-96520000D01*
X108570000Y-108560000D02*
X109880000Y-108560000D01*
X109855000Y-104140000D02*
X109855000Y-103505000D01*
X109855000Y-103505000D02*
X110490000Y-102870000D01*
X110490000Y-102870000D02*
X110490000Y-98425000D01*
X110490000Y-98425000D02*
X110490000Y-93980000D01*
X114935000Y-93345000D02*
X115570000Y-93980000D01*
X111125000Y-93345000D02*
X114935000Y-93345000D01*
X110490000Y-93980000D02*
X111125000Y-93345000D01*
X109855000Y-107315000D02*
X109855000Y-104140000D01*
X109410000Y-107760000D02*
X109855000Y-107315000D01*
X108570000Y-107760000D02*
X109410000Y-107760000D01*
X107315000Y-104775000D02*
X109220000Y-102870000D01*
X109220000Y-102870000D02*
X109855000Y-102235000D01*
X113030000Y-91440000D02*
X113665000Y-91440000D01*
X109855000Y-93345000D02*
X111760000Y-91440000D01*
X111760000Y-91440000D02*
X113030000Y-91440000D01*
X109855000Y-98425000D02*
X109855000Y-93345000D01*
X109855000Y-102235000D02*
X109855000Y-98425000D01*
X115570000Y-91440000D02*
X113665000Y-91440000D01*
X113665000Y-91440000D02*
X114300000Y-91440000D01*
X114300000Y-91440000D02*
X115570000Y-91440000D01*
X106870000Y-105220000D02*
X107315000Y-104775000D01*
X106870000Y-106060000D02*
X106870000Y-105220000D01*
X106680699Y-104140699D02*
X106680699Y-104139301D01*
X106680699Y-104139301D02*
X109220000Y-101600000D01*
X109220000Y-92710000D02*
X112395000Y-89535000D01*
X112395000Y-89535000D02*
X113665000Y-89535000D01*
X109220000Y-97790000D02*
X109220000Y-92710000D01*
X109220000Y-101600000D02*
X109220000Y-97790000D01*
X115570000Y-88900000D02*
X114300000Y-88900000D01*
X114300000Y-88900000D02*
X113665000Y-89535000D01*
X113665000Y-89535000D02*
X114300000Y-88900000D01*
X106070000Y-104751398D02*
X106680699Y-104140699D01*
X106070000Y-106060000D02*
X106070000Y-104751398D01*
X106045000Y-103505000D02*
X108585000Y-100965000D01*
X113030000Y-88900000D02*
X114300000Y-87630000D01*
X108585000Y-92075000D02*
X111760000Y-88900000D01*
X111760000Y-88900000D02*
X113030000Y-88900000D01*
X108585000Y-97155000D02*
X108585000Y-92075000D01*
X108585000Y-100965000D02*
X108585000Y-97155000D01*
X115570000Y-86360000D02*
X114300000Y-87630000D01*
X114300000Y-87630000D02*
X115570000Y-86360000D01*
X105270000Y-104280000D02*
X106045000Y-103505000D01*
X105270000Y-104915000D02*
X105270000Y-104280000D01*
X105270000Y-106060000D02*
X105270000Y-104915000D01*
X100470000Y-106060000D02*
X100470000Y-107455000D01*
X100470000Y-107455000D02*
X100965000Y-107950000D01*
X113665000Y-102870000D02*
X114935000Y-102870000D01*
X114935000Y-102870000D02*
X116205000Y-102870000D01*
X116205000Y-102870000D02*
X119380000Y-102870000D01*
X119380000Y-102870000D02*
X120650000Y-101600000D01*
X113665000Y-101600000D02*
X114300000Y-100965000D01*
X114935000Y-100330000D02*
X119380000Y-100330000D01*
X120650000Y-99060000D02*
X119380000Y-100330000D01*
X114300000Y-100965000D02*
X114935000Y-100330000D01*
X99670000Y-106060000D02*
X99670000Y-107290000D01*
X99670000Y-107290000D02*
X99695000Y-107315000D01*
X101370000Y-83560000D02*
X100370000Y-83560000D01*
X99060000Y-99695000D02*
X99060000Y-99060000D01*
X98870000Y-104330000D02*
X98870000Y-106060000D01*
X98425000Y-98425000D02*
X98425000Y-97790000D01*
X99060000Y-104140000D02*
X99060000Y-100965000D01*
X98870000Y-104330000D02*
X99060000Y-104140000D01*
X98425000Y-85725000D02*
X98425000Y-88265000D01*
X98425000Y-88265000D02*
X98425000Y-89535000D01*
X98425000Y-89535000D02*
X98425000Y-97790000D01*
X98425000Y-84455000D02*
X99320000Y-83560000D01*
X99320000Y-83560000D02*
X101370000Y-83560000D01*
X98425000Y-85725000D02*
X98425000Y-84455000D01*
X99060000Y-100965000D02*
X99060000Y-99695000D01*
X99060000Y-99060000D02*
X98425000Y-98425000D01*
X94615000Y-75565000D02*
X93345000Y-76835000D01*
X100330000Y-75565000D02*
X94615000Y-75565000D01*
X104775000Y-80010000D02*
X100330000Y-75565000D01*
X104775000Y-80645000D02*
X104775000Y-80010000D01*
X104775000Y-94615000D02*
X104775000Y-80645000D01*
X83185000Y-147320000D02*
X83185000Y-147955000D01*
X83185000Y-147955000D02*
X83820000Y-148590000D01*
X85090000Y-149860000D02*
X85725000Y-149860000D01*
X83820000Y-148590000D02*
X85090000Y-149860000D01*
X87630000Y-149860000D02*
X88265000Y-149860000D01*
X88265000Y-149860000D02*
X90805000Y-147320000D01*
X90805000Y-147320000D02*
X91440000Y-147320000D01*
X91440000Y-147320000D02*
X92075000Y-147320000D01*
X92075000Y-147320000D02*
X92790000Y-147320000D01*
X92790000Y-147320000D02*
X94060000Y-146050000D01*
X93345000Y-121285000D02*
X93980000Y-121285000D01*
X97790000Y-116841398D02*
X97791398Y-116840000D01*
X97790000Y-117475000D02*
X97790000Y-116841398D01*
X93980000Y-121285000D02*
X97790000Y-117475000D01*
X83185000Y-141605000D02*
X83185000Y-147320000D01*
X85725000Y-149860000D02*
X87630000Y-149860000D01*
X83185000Y-141605000D02*
X83185000Y-139700000D01*
X83185000Y-123825000D02*
X83185000Y-123190000D01*
X85090000Y-121285000D02*
X93345000Y-121285000D01*
X83185000Y-123190000D02*
X85090000Y-121285000D01*
X83185000Y-130175000D02*
X83185000Y-123825000D01*
X99695000Y-113665000D02*
X99695000Y-111760000D01*
X97791398Y-116840000D02*
X98425699Y-116205699D01*
X99695000Y-114935000D02*
X99695000Y-113665000D01*
X99059301Y-116205699D02*
X99695000Y-115570000D01*
X99695000Y-115570000D02*
X99695000Y-114935000D01*
X98425699Y-116205699D02*
X99059301Y-116205699D01*
X83185000Y-130175000D02*
X83185000Y-139700000D01*
X93960000Y-146050000D02*
X97075000Y-146050000D01*
X97170000Y-110160000D02*
X98120000Y-110160000D01*
X98120000Y-110160000D02*
X98425000Y-109855000D01*
D38*
X121285000Y-150529998D02*
X121285000Y-150495000D01*
X123825000Y-147955000D02*
X131445000Y-147955000D01*
X121285000Y-150495000D02*
X123825000Y-147955000D01*
X114935000Y-150529998D02*
X114935000Y-150495000D01*
X114935000Y-150495000D02*
X113030000Y-148590000D01*
X113030000Y-148590000D02*
X113030000Y-147955000D01*
X114935000Y-150529998D02*
X121285000Y-150529998D01*
X132500000Y-138100000D02*
X132500000Y-128565000D01*
X132500000Y-128565000D02*
X132715000Y-128350000D01*
X132715000Y-125650000D02*
X132715000Y-121495000D01*
X140335000Y-128330000D02*
X138490000Y-128330000D01*
X135810000Y-125650000D02*
X132715000Y-125650000D01*
X138490000Y-128330000D02*
X135810000Y-125650000D01*
X115570000Y-126365000D02*
X116205000Y-127000000D01*
X109935000Y-126365000D02*
X115570000Y-126365000D01*
X145415000Y-131445000D02*
X145415000Y-128330000D01*
X132715000Y-115995000D02*
X135045000Y-115995000D01*
X135255000Y-116205000D02*
X135255000Y-119180000D01*
X135045000Y-115995000D02*
X135255000Y-116205000D01*
X142875000Y-119180000D02*
X142875000Y-124460000D01*
X142875000Y-119180000D02*
X150060000Y-119180000D01*
X150060000Y-119180000D02*
X150495000Y-118745000D01*
X142875000Y-119180000D02*
X135255000Y-119180000D01*
X139065000Y-108585000D02*
X141605000Y-108585000D01*
X141605000Y-108585000D02*
X141605000Y-111125000D01*
X142875000Y-112395000D02*
X142875000Y-119180000D01*
X141605000Y-111125000D02*
X142875000Y-112395000D01*
X121920000Y-151130000D02*
X123825000Y-149225000D01*
X123825000Y-149225000D02*
X124460000Y-149225000D01*
X124460000Y-149225000D02*
X146685000Y-149225000D01*
X92075000Y-106045000D02*
X93400000Y-107370000D01*
X93400000Y-107370000D02*
X93400000Y-107450000D01*
X101370000Y-97560000D02*
X100370000Y-97560000D01*
X104160000Y-96520000D02*
X104140000Y-96520000D01*
X104140000Y-96520000D02*
X103505000Y-95885000D01*
X103505000Y-95885000D02*
X103505000Y-80010000D01*
X102870000Y-97560000D02*
X103275000Y-97560000D01*
X103275000Y-97560000D02*
X104160000Y-98445000D01*
X104160000Y-98445000D02*
X104160000Y-99060000D01*
X100370000Y-97560000D02*
X102870000Y-97560000D01*
X102870000Y-97560000D02*
X103120000Y-97560000D01*
X103120000Y-97560000D02*
X104160000Y-96520000D01*
X103505000Y-80010000D02*
X102870000Y-79375000D01*
X102870000Y-79375000D02*
X98425000Y-79375000D01*
X104160000Y-99060000D02*
X104160000Y-100310000D01*
X103485000Y-100985000D02*
X103485000Y-102235000D01*
X104160000Y-100310000D02*
X103485000Y-100985000D01*
X103670000Y-104775000D02*
X103670000Y-102420000D01*
X103670000Y-102420000D02*
X103485000Y-102235000D01*
X111125000Y-112560000D02*
X111270000Y-112560000D01*
X111270000Y-112560000D02*
X112395000Y-113685000D01*
X93345000Y-108585000D02*
X93345000Y-107505000D01*
X152400000Y-108585000D02*
X146685000Y-108585000D01*
X154305000Y-110490000D02*
X152400000Y-108585000D01*
X154305000Y-141605000D02*
X154305000Y-110490000D01*
X146685000Y-149225000D02*
X154305000Y-141605000D01*
X102870000Y-128270000D02*
X105410000Y-130810000D01*
X100330000Y-130810000D02*
X102235000Y-128905000D01*
X102235000Y-128905000D02*
X102870000Y-128270000D01*
X100330000Y-129540000D02*
X95805000Y-125015000D01*
X95805000Y-125015000D02*
X93980000Y-125015000D01*
X99695000Y-149225000D02*
X100965000Y-150495000D01*
X101600000Y-151130000D02*
X109855000Y-151130000D01*
X111125000Y-151130000D02*
X121920000Y-151130000D01*
X100965000Y-150495000D02*
X101600000Y-151130000D01*
X109855000Y-151130000D02*
X111125000Y-151130000D01*
X91360000Y-146050000D02*
X92075000Y-146050000D01*
X92075000Y-146050000D02*
X93345000Y-144780000D01*
X99695000Y-149225000D02*
X101600000Y-147320000D01*
X100965000Y-144780000D02*
X93345000Y-144780000D01*
X101600000Y-145415000D02*
X100965000Y-144780000D01*
X101600000Y-147320000D02*
X101600000Y-145415000D01*
X88265000Y-144780000D02*
X89535000Y-146050000D01*
X89535000Y-146050000D02*
X91360000Y-146050000D01*
X85090000Y-144145000D02*
X83820000Y-142875000D01*
X88265000Y-144780000D02*
X87630000Y-144145000D01*
X87630000Y-144145000D02*
X85090000Y-144145000D01*
X83820000Y-132080000D02*
X85090000Y-130810000D01*
X83820000Y-142875000D02*
X83820000Y-132080000D01*
X86360000Y-126365000D02*
X91440000Y-126365000D01*
X92790000Y-125015000D02*
X93980000Y-125015000D01*
X91440000Y-126365000D02*
X92790000Y-125015000D01*
X85090000Y-130810000D02*
X85090000Y-127635000D01*
X85090000Y-127635000D02*
X86360000Y-126365000D01*
X85090000Y-127635000D02*
X86360000Y-126365000D01*
X100330000Y-129540000D02*
X100330000Y-130810000D01*
X105410000Y-130810000D02*
X106680000Y-129540000D01*
X119380000Y-129540000D02*
X120650000Y-130810000D01*
X106680000Y-129540000D02*
X119380000Y-129540000D01*
X100800000Y-110960000D02*
X102705000Y-110960000D01*
X102705000Y-110960000D02*
X102870000Y-111125000D01*
X99060000Y-110960000D02*
X100800000Y-110960000D01*
X93345000Y-107930000D02*
X93345000Y-108585000D01*
X93345000Y-108585000D02*
X95720000Y-110960000D01*
X95720000Y-110960000D02*
X97170000Y-110960000D01*
X103340000Y-112560000D02*
X103505000Y-112560000D01*
X103505000Y-112560000D02*
X108570000Y-112560000D01*
X102870000Y-112090000D02*
X103340000Y-112560000D01*
X102870000Y-111760000D02*
X102870000Y-112090000D01*
X102870000Y-111125000D02*
X102870000Y-111760000D01*
X102870000Y-113030000D02*
X103340000Y-112560000D01*
X108570000Y-112560000D02*
X111125000Y-112560000D01*
X102870000Y-128270000D02*
X102870000Y-121305000D01*
X102870000Y-121305000D02*
X102890000Y-121285000D01*
X102870000Y-121265000D02*
X102890000Y-121285000D01*
X103670000Y-106060000D02*
X103670000Y-104775000D01*
X97170000Y-110960000D02*
X99060000Y-110960000D01*
X103670000Y-106060000D02*
X103670000Y-110325000D01*
X103670000Y-110325000D02*
X102870000Y-111125000D01*
X102870000Y-113030000D02*
X102870000Y-117460000D01*
X102870000Y-117460000D02*
X102870000Y-121265000D01*
D39*
X96780000Y-102005000D02*
X96780000Y-101005000D01*
X86780000Y-102005000D02*
X86780000Y-101005000D01*
X88780000Y-102005000D02*
X88780000Y-101005000D01*
X90780000Y-102005000D02*
X90780000Y-101005000D01*
X94780000Y-102005000D02*
X94780000Y-101005000D01*
D40*
G36*
X90186838Y-129970317D02*
X90325910Y-130186441D01*
X90538110Y-130331431D01*
X90790000Y-130382440D01*
X92090000Y-130382440D01*
X92325317Y-130338162D01*
X92541441Y-130199090D01*
X92686431Y-129986890D01*
X92735415Y-129745000D01*
X96920198Y-129745000D01*
X97030000Y-129854802D01*
X97030000Y-132080000D01*
X97087852Y-132370839D01*
X97252599Y-132617401D01*
X97665000Y-133029802D01*
X97665000Y-136525000D01*
X97722852Y-136815839D01*
X97887599Y-137062401D01*
X98888790Y-138063592D01*
X98815907Y-138430000D01*
X98928946Y-138998285D01*
X99250853Y-139480054D01*
X99732622Y-139801961D01*
X100300907Y-139915000D01*
X100359093Y-139915000D01*
X100927378Y-139801961D01*
X101409147Y-139480054D01*
X101731054Y-138998285D01*
X101844093Y-138430000D01*
X101771210Y-138063592D01*
X101914802Y-137920000D01*
X103825198Y-137920000D01*
X103968790Y-138063592D01*
X103895907Y-138430000D01*
X104008946Y-138998285D01*
X104330853Y-139480054D01*
X104812622Y-139801961D01*
X105380907Y-139915000D01*
X105439093Y-139915000D01*
X106007378Y-139801961D01*
X106489147Y-139480054D01*
X106811054Y-138998285D01*
X106924093Y-138430000D01*
X106811054Y-137861715D01*
X106653654Y-137626148D01*
X107852401Y-136427401D01*
X108017148Y-136180839D01*
X108075000Y-135890000D01*
X108075000Y-131759802D01*
X108264802Y-131570000D01*
X117795198Y-131570000D01*
X117985000Y-131759802D01*
X117985000Y-136525000D01*
X118042852Y-136815839D01*
X118207599Y-137062401D01*
X119208790Y-138063592D01*
X119135907Y-138430000D01*
X119248946Y-138998285D01*
X119570853Y-139480054D01*
X120052622Y-139801961D01*
X120620907Y-139915000D01*
X120679093Y-139915000D01*
X121247378Y-139801961D01*
X121729147Y-139480054D01*
X122051054Y-138998285D01*
X122164093Y-138430000D01*
X122091210Y-138063592D01*
X122428000Y-137726802D01*
X122428000Y-144918569D01*
X122107995Y-144598005D01*
X121066390Y-144165493D01*
X119938558Y-144164509D01*
X118896199Y-144595202D01*
X118098005Y-145392005D01*
X117665493Y-146433610D01*
X117664509Y-147561442D01*
X118095202Y-148603801D01*
X118892005Y-149401995D01*
X119597635Y-149694998D01*
X115315866Y-149694998D01*
X115161680Y-149540812D01*
X115570000Y-149622032D01*
X116195687Y-149497575D01*
X116726120Y-149143152D01*
X117080543Y-148612719D01*
X117205000Y-147987032D01*
X117205000Y-147922968D01*
X117080543Y-147297281D01*
X116726120Y-146766848D01*
X116195687Y-146412425D01*
X115570000Y-146287968D01*
X114944313Y-146412425D01*
X114588453Y-146650203D01*
X114494090Y-146503559D01*
X114281890Y-146358569D01*
X114030000Y-146307560D01*
X112030000Y-146307560D01*
X111794683Y-146351838D01*
X111578559Y-146490910D01*
X111433569Y-146703110D01*
X111382560Y-146955000D01*
X111382560Y-148955000D01*
X111426838Y-149190317D01*
X111565910Y-149406441D01*
X111778110Y-149551431D01*
X112030000Y-149602440D01*
X112861572Y-149602440D01*
X113554132Y-150295000D01*
X105763188Y-150295000D01*
X105970183Y-150106358D01*
X106216486Y-149581892D01*
X106095819Y-149352000D01*
X104902000Y-149352000D01*
X104902000Y-149372000D01*
X104648000Y-149372000D01*
X104648000Y-149352000D01*
X102362000Y-149352000D01*
X102362000Y-149372000D01*
X102108000Y-149372000D01*
X102108000Y-149352000D01*
X102088000Y-149352000D01*
X102088000Y-149098000D01*
X102108000Y-149098000D01*
X102108000Y-149078000D01*
X102362000Y-149078000D01*
X102362000Y-149098000D01*
X104648000Y-149098000D01*
X104648000Y-147904845D01*
X104902000Y-147904845D01*
X104902000Y-149098000D01*
X106095819Y-149098000D01*
X106216486Y-148868108D01*
X105970183Y-148343642D01*
X105541924Y-147953355D01*
X105131890Y-147783524D01*
X104902000Y-147904845D01*
X104648000Y-147904845D01*
X104418110Y-147783524D01*
X104008076Y-147953355D01*
X103579817Y-148343642D01*
X103505000Y-148502954D01*
X103430183Y-148343642D01*
X103001924Y-147953355D01*
X102591890Y-147783524D01*
X102362002Y-147904844D01*
X102362002Y-147740000D01*
X102304314Y-147740000D01*
X102371439Y-147639541D01*
X102435000Y-147320000D01*
X102435000Y-145415000D01*
X102426135Y-145370434D01*
X102371440Y-145095460D01*
X102190434Y-144824566D01*
X101555434Y-144189566D01*
X101519406Y-144165493D01*
X101284541Y-144008561D01*
X100965000Y-143945000D01*
X93345000Y-143945000D01*
X93025459Y-144008561D01*
X92790594Y-144165493D01*
X92754566Y-144189566D01*
X92177835Y-144766297D01*
X92110000Y-144752560D01*
X90610000Y-144752560D01*
X90374683Y-144796838D01*
X90158559Y-144935910D01*
X90013569Y-145148110D01*
X90000023Y-145215000D01*
X89880868Y-145215000D01*
X88220434Y-143554566D01*
X87949541Y-143373561D01*
X87630000Y-143310000D01*
X85435868Y-143310000D01*
X84655000Y-142529132D01*
X84655000Y-139834260D01*
X85060907Y-139915000D01*
X85119093Y-139915000D01*
X85687378Y-139801961D01*
X86169147Y-139480054D01*
X86491054Y-138998285D01*
X86604093Y-138430000D01*
X86531210Y-138063592D01*
X87532401Y-137062401D01*
X87697148Y-136815839D01*
X87755000Y-136525000D01*
X87755000Y-129854802D01*
X87864802Y-129745000D01*
X90144442Y-129745000D01*
X90186838Y-129970317D01*
X90186838Y-129970317D01*
G37*
X90186838Y-129970317D02*
X90325910Y-130186441D01*
X90538110Y-130331431D01*
X90790000Y-130382440D01*
X92090000Y-130382440D01*
X92325317Y-130338162D01*
X92541441Y-130199090D01*
X92686431Y-129986890D01*
X92735415Y-129745000D01*
X96920198Y-129745000D01*
X97030000Y-129854802D01*
X97030000Y-132080000D01*
X97087852Y-132370839D01*
X97252599Y-132617401D01*
X97665000Y-133029802D01*
X97665000Y-136525000D01*
X97722852Y-136815839D01*
X97887599Y-137062401D01*
X98888790Y-138063592D01*
X98815907Y-138430000D01*
X98928946Y-138998285D01*
X99250853Y-139480054D01*
X99732622Y-139801961D01*
X100300907Y-139915000D01*
X100359093Y-139915000D01*
X100927378Y-139801961D01*
X101409147Y-139480054D01*
X101731054Y-138998285D01*
X101844093Y-138430000D01*
X101771210Y-138063592D01*
X101914802Y-137920000D01*
X103825198Y-137920000D01*
X103968790Y-138063592D01*
X103895907Y-138430000D01*
X104008946Y-138998285D01*
X104330853Y-139480054D01*
X104812622Y-139801961D01*
X105380907Y-139915000D01*
X105439093Y-139915000D01*
X106007378Y-139801961D01*
X106489147Y-139480054D01*
X106811054Y-138998285D01*
X106924093Y-138430000D01*
X106811054Y-137861715D01*
X106653654Y-137626148D01*
X107852401Y-136427401D01*
X108017148Y-136180839D01*
X108075000Y-135890000D01*
X108075000Y-131759802D01*
X108264802Y-131570000D01*
X117795198Y-131570000D01*
X117985000Y-131759802D01*
X117985000Y-136525000D01*
X118042852Y-136815839D01*
X118207599Y-137062401D01*
X119208790Y-138063592D01*
X119135907Y-138430000D01*
X119248946Y-138998285D01*
X119570853Y-139480054D01*
X120052622Y-139801961D01*
X120620907Y-139915000D01*
X120679093Y-139915000D01*
X121247378Y-139801961D01*
X121729147Y-139480054D01*
X122051054Y-138998285D01*
X122164093Y-138430000D01*
X122091210Y-138063592D01*
X122428000Y-137726802D01*
X122428000Y-144918569D01*
X122107995Y-144598005D01*
X121066390Y-144165493D01*
X119938558Y-144164509D01*
X118896199Y-144595202D01*
X118098005Y-145392005D01*
X117665493Y-146433610D01*
X117664509Y-147561442D01*
X118095202Y-148603801D01*
X118892005Y-149401995D01*
X119597635Y-149694998D01*
X115315866Y-149694998D01*
X115161680Y-149540812D01*
X115570000Y-149622032D01*
X116195687Y-149497575D01*
X116726120Y-149143152D01*
X117080543Y-148612719D01*
X117205000Y-147987032D01*
X117205000Y-147922968D01*
X117080543Y-147297281D01*
X116726120Y-146766848D01*
X116195687Y-146412425D01*
X115570000Y-146287968D01*
X114944313Y-146412425D01*
X114588453Y-146650203D01*
X114494090Y-146503559D01*
X114281890Y-146358569D01*
X114030000Y-146307560D01*
X112030000Y-146307560D01*
X111794683Y-146351838D01*
X111578559Y-146490910D01*
X111433569Y-146703110D01*
X111382560Y-146955000D01*
X111382560Y-148955000D01*
X111426838Y-149190317D01*
X111565910Y-149406441D01*
X111778110Y-149551431D01*
X112030000Y-149602440D01*
X112861572Y-149602440D01*
X113554132Y-150295000D01*
X105763188Y-150295000D01*
X105970183Y-150106358D01*
X106216486Y-149581892D01*
X106095819Y-149352000D01*
X104902000Y-149352000D01*
X104902000Y-149372000D01*
X104648000Y-149372000D01*
X104648000Y-149352000D01*
X102362000Y-149352000D01*
X102362000Y-149372000D01*
X102108000Y-149372000D01*
X102108000Y-149352000D01*
X102088000Y-149352000D01*
X102088000Y-149098000D01*
X102108000Y-149098000D01*
X102108000Y-149078000D01*
X102362000Y-149078000D01*
X102362000Y-149098000D01*
X104648000Y-149098000D01*
X104648000Y-147904845D01*
X104902000Y-147904845D01*
X104902000Y-149098000D01*
X106095819Y-149098000D01*
X106216486Y-148868108D01*
X105970183Y-148343642D01*
X105541924Y-147953355D01*
X105131890Y-147783524D01*
X104902000Y-147904845D01*
X104648000Y-147904845D01*
X104418110Y-147783524D01*
X104008076Y-147953355D01*
X103579817Y-148343642D01*
X103505000Y-148502954D01*
X103430183Y-148343642D01*
X103001924Y-147953355D01*
X102591890Y-147783524D01*
X102362002Y-147904844D01*
X102362002Y-147740000D01*
X102304314Y-147740000D01*
X102371439Y-147639541D01*
X102435000Y-147320000D01*
X102435000Y-145415000D01*
X102426135Y-145370434D01*
X102371440Y-145095460D01*
X102190434Y-144824566D01*
X101555434Y-144189566D01*
X101519406Y-144165493D01*
X101284541Y-144008561D01*
X100965000Y-143945000D01*
X93345000Y-143945000D01*
X93025459Y-144008561D01*
X92790594Y-144165493D01*
X92754566Y-144189566D01*
X92177835Y-144766297D01*
X92110000Y-144752560D01*
X90610000Y-144752560D01*
X90374683Y-144796838D01*
X90158559Y-144935910D01*
X90013569Y-145148110D01*
X90000023Y-145215000D01*
X89880868Y-145215000D01*
X88220434Y-143554566D01*
X87949541Y-143373561D01*
X87630000Y-143310000D01*
X85435868Y-143310000D01*
X84655000Y-142529132D01*
X84655000Y-139834260D01*
X85060907Y-139915000D01*
X85119093Y-139915000D01*
X85687378Y-139801961D01*
X86169147Y-139480054D01*
X86491054Y-138998285D01*
X86604093Y-138430000D01*
X86531210Y-138063592D01*
X87532401Y-137062401D01*
X87697148Y-136815839D01*
X87755000Y-136525000D01*
X87755000Y-129854802D01*
X87864802Y-129745000D01*
X90144442Y-129745000D01*
X90186838Y-129970317D01*
G36*
X103912560Y-130493428D02*
X103912560Y-131660000D01*
X103956838Y-131895317D01*
X104095910Y-132111441D01*
X104308110Y-132256431D01*
X104416107Y-132278301D01*
X104138355Y-132583076D01*
X103968524Y-132993110D01*
X104089845Y-133223000D01*
X105283000Y-133223000D01*
X105283000Y-133203000D01*
X105537000Y-133203000D01*
X105537000Y-133223000D01*
X105557000Y-133223000D01*
X105557000Y-133477000D01*
X105537000Y-133477000D01*
X105537000Y-133497000D01*
X105283000Y-133497000D01*
X105283000Y-133477000D01*
X104089845Y-133477000D01*
X103968524Y-133706890D01*
X104138355Y-134116924D01*
X104528642Y-134545183D01*
X104671553Y-134612298D01*
X104330853Y-134839946D01*
X104008946Y-135321715D01*
X103920771Y-135765000D01*
X101819229Y-135765000D01*
X101731054Y-135321715D01*
X101409147Y-134839946D01*
X101068447Y-134612298D01*
X101211358Y-134545183D01*
X101601645Y-134116924D01*
X101771476Y-133706890D01*
X101650155Y-133477000D01*
X100457000Y-133477000D01*
X100457000Y-133497000D01*
X100203000Y-133497000D01*
X100203000Y-133477000D01*
X100183000Y-133477000D01*
X100183000Y-133223000D01*
X100203000Y-133223000D01*
X100203000Y-133203000D01*
X100457000Y-133203000D01*
X100457000Y-133223000D01*
X101650155Y-133223000D01*
X101771476Y-132993110D01*
X101601645Y-132583076D01*
X101325499Y-132280063D01*
X101415317Y-132263162D01*
X101631441Y-132124090D01*
X101776431Y-131911890D01*
X101827440Y-131660000D01*
X101827440Y-130493428D01*
X102870000Y-129450868D01*
X103912560Y-130493428D01*
X103912560Y-130493428D01*
G37*
X103912560Y-130493428D02*
X103912560Y-131660000D01*
X103956838Y-131895317D01*
X104095910Y-132111441D01*
X104308110Y-132256431D01*
X104416107Y-132278301D01*
X104138355Y-132583076D01*
X103968524Y-132993110D01*
X104089845Y-133223000D01*
X105283000Y-133223000D01*
X105283000Y-133203000D01*
X105537000Y-133203000D01*
X105537000Y-133223000D01*
X105557000Y-133223000D01*
X105557000Y-133477000D01*
X105537000Y-133477000D01*
X105537000Y-133497000D01*
X105283000Y-133497000D01*
X105283000Y-133477000D01*
X104089845Y-133477000D01*
X103968524Y-133706890D01*
X104138355Y-134116924D01*
X104528642Y-134545183D01*
X104671553Y-134612298D01*
X104330853Y-134839946D01*
X104008946Y-135321715D01*
X103920771Y-135765000D01*
X101819229Y-135765000D01*
X101731054Y-135321715D01*
X101409147Y-134839946D01*
X101068447Y-134612298D01*
X101211358Y-134545183D01*
X101601645Y-134116924D01*
X101771476Y-133706890D01*
X101650155Y-133477000D01*
X100457000Y-133477000D01*
X100457000Y-133497000D01*
X100203000Y-133497000D01*
X100203000Y-133477000D01*
X100183000Y-133477000D01*
X100183000Y-133223000D01*
X100203000Y-133223000D01*
X100203000Y-133203000D01*
X100457000Y-133203000D01*
X100457000Y-133223000D01*
X101650155Y-133223000D01*
X101771476Y-132993110D01*
X101601645Y-132583076D01*
X101325499Y-132280063D01*
X101415317Y-132263162D01*
X101631441Y-132124090D01*
X101776431Y-131911890D01*
X101827440Y-131660000D01*
X101827440Y-130493428D01*
X102870000Y-129450868D01*
X103912560Y-130493428D01*
G36*
X120777000Y-133223000D02*
X120797000Y-133223000D01*
X120797000Y-133477000D01*
X120777000Y-133477000D01*
X120777000Y-133497000D01*
X120523000Y-133497000D01*
X120523000Y-133477000D01*
X120503000Y-133477000D01*
X120503000Y-133223000D01*
X120523000Y-133223000D01*
X120523000Y-133203000D01*
X120777000Y-133203000D01*
X120777000Y-133223000D01*
X120777000Y-133223000D01*
G37*
X120777000Y-133223000D02*
X120797000Y-133223000D01*
X120797000Y-133477000D01*
X120777000Y-133477000D01*
X120777000Y-133497000D01*
X120523000Y-133497000D01*
X120523000Y-133477000D01*
X120503000Y-133477000D01*
X120503000Y-133223000D01*
X120523000Y-133223000D01*
X120523000Y-133203000D01*
X120777000Y-133203000D01*
X120777000Y-133223000D01*
G36*
X85217000Y-133223000D02*
X85237000Y-133223000D01*
X85237000Y-133477000D01*
X85217000Y-133477000D01*
X85217000Y-133497000D01*
X84963000Y-133497000D01*
X84963000Y-133477000D01*
X84943000Y-133477000D01*
X84943000Y-133223000D01*
X84963000Y-133223000D01*
X84963000Y-133203000D01*
X85217000Y-133203000D01*
X85217000Y-133223000D01*
X85217000Y-133223000D01*
G37*
X85217000Y-133223000D02*
X85237000Y-133223000D01*
X85237000Y-133477000D01*
X85217000Y-133477000D01*
X85217000Y-133497000D01*
X84963000Y-133497000D01*
X84963000Y-133477000D01*
X84943000Y-133477000D01*
X84943000Y-133223000D01*
X84963000Y-133223000D01*
X84963000Y-133203000D01*
X85217000Y-133203000D01*
X85217000Y-133223000D01*
G36*
X152908000Y-107939485D02*
X152719541Y-107813561D01*
X152400000Y-107750000D01*
X148182440Y-107750000D01*
X148182440Y-107735000D01*
X148138162Y-107499683D01*
X147999090Y-107283559D01*
X147786890Y-107138569D01*
X147535000Y-107087560D01*
X145835000Y-107087560D01*
X145599683Y-107131838D01*
X145383559Y-107270910D01*
X145238569Y-107483110D01*
X145224914Y-107550541D01*
X145195054Y-107505853D01*
X144713285Y-107183946D01*
X144145000Y-107070907D01*
X143576715Y-107183946D01*
X143094946Y-107505853D01*
X142773039Y-107987622D01*
X142660000Y-108555907D01*
X142660000Y-108614093D01*
X142773039Y-109182378D01*
X143094946Y-109664147D01*
X143576715Y-109986054D01*
X144145000Y-110099093D01*
X144713285Y-109986054D01*
X145195054Y-109664147D01*
X145222850Y-109622548D01*
X145231838Y-109670317D01*
X145370910Y-109886441D01*
X145583110Y-110031431D01*
X145835000Y-110082440D01*
X147535000Y-110082440D01*
X147770317Y-110038162D01*
X147986441Y-109899090D01*
X148131431Y-109686890D01*
X148182440Y-109435000D01*
X148182440Y-109420000D01*
X150074110Y-109420000D01*
X149320485Y-109731392D01*
X148733453Y-110317400D01*
X148415362Y-111083448D01*
X148414638Y-111912913D01*
X148731392Y-112679515D01*
X149317400Y-113266547D01*
X150083448Y-113584638D01*
X150912913Y-113585362D01*
X151679515Y-113268608D01*
X152266547Y-112682600D01*
X152584638Y-111916552D01*
X152585362Y-111087087D01*
X152268608Y-110320485D01*
X151682600Y-109733453D01*
X150927722Y-109420000D01*
X152054132Y-109420000D01*
X152908000Y-110273868D01*
X152908000Y-124968000D01*
X136263396Y-124968000D01*
X136129541Y-124878561D01*
X135810000Y-124815000D01*
X133996446Y-124815000D01*
X133968162Y-124664683D01*
X133829090Y-124448559D01*
X133616890Y-124303569D01*
X133550000Y-124290023D01*
X133550000Y-123792440D01*
X133565000Y-123792440D01*
X133800317Y-123748162D01*
X134016441Y-123609090D01*
X134161431Y-123396890D01*
X134212440Y-123145000D01*
X134212440Y-119845000D01*
X134168162Y-119609683D01*
X134029090Y-119393559D01*
X133816890Y-119248569D01*
X133565000Y-119197560D01*
X131865000Y-119197560D01*
X131629683Y-119241838D01*
X131413559Y-119380910D01*
X131268569Y-119593110D01*
X131217560Y-119845000D01*
X131217560Y-123145000D01*
X131261838Y-123380317D01*
X131400910Y-123596441D01*
X131613110Y-123741431D01*
X131865000Y-123792440D01*
X131880000Y-123792440D01*
X131880000Y-124287370D01*
X131829683Y-124296838D01*
X131613559Y-124435910D01*
X131468569Y-124648110D01*
X131417560Y-124900000D01*
X131417560Y-124968000D01*
X130302000Y-124968000D01*
X130302000Y-111912913D01*
X130414638Y-111912913D01*
X130731392Y-112679515D01*
X131317400Y-113266547D01*
X132083448Y-113584638D01*
X132912913Y-113585362D01*
X133679515Y-113268608D01*
X134266547Y-112682600D01*
X134584638Y-111916552D01*
X134585362Y-111087087D01*
X134268608Y-110320485D01*
X133682600Y-109733453D01*
X132916552Y-109415362D01*
X132087087Y-109414638D01*
X131320485Y-109731392D01*
X130733453Y-110317400D01*
X130415362Y-111083448D01*
X130414638Y-111912913D01*
X130302000Y-111912913D01*
X130302000Y-106172000D01*
X152908000Y-106172000D01*
X152908000Y-107939485D01*
X152908000Y-107939485D01*
G37*
X152908000Y-107939485D02*
X152719541Y-107813561D01*
X152400000Y-107750000D01*
X148182440Y-107750000D01*
X148182440Y-107735000D01*
X148138162Y-107499683D01*
X147999090Y-107283559D01*
X147786890Y-107138569D01*
X147535000Y-107087560D01*
X145835000Y-107087560D01*
X145599683Y-107131838D01*
X145383559Y-107270910D01*
X145238569Y-107483110D01*
X145224914Y-107550541D01*
X145195054Y-107505853D01*
X144713285Y-107183946D01*
X144145000Y-107070907D01*
X143576715Y-107183946D01*
X143094946Y-107505853D01*
X142773039Y-107987622D01*
X142660000Y-108555907D01*
X142660000Y-108614093D01*
X142773039Y-109182378D01*
X143094946Y-109664147D01*
X143576715Y-109986054D01*
X144145000Y-110099093D01*
X144713285Y-109986054D01*
X145195054Y-109664147D01*
X145222850Y-109622548D01*
X145231838Y-109670317D01*
X145370910Y-109886441D01*
X145583110Y-110031431D01*
X145835000Y-110082440D01*
X147535000Y-110082440D01*
X147770317Y-110038162D01*
X147986441Y-109899090D01*
X148131431Y-109686890D01*
X148182440Y-109435000D01*
X148182440Y-109420000D01*
X150074110Y-109420000D01*
X149320485Y-109731392D01*
X148733453Y-110317400D01*
X148415362Y-111083448D01*
X148414638Y-111912913D01*
X148731392Y-112679515D01*
X149317400Y-113266547D01*
X150083448Y-113584638D01*
X150912913Y-113585362D01*
X151679515Y-113268608D01*
X152266547Y-112682600D01*
X152584638Y-111916552D01*
X152585362Y-111087087D01*
X152268608Y-110320485D01*
X151682600Y-109733453D01*
X150927722Y-109420000D01*
X152054132Y-109420000D01*
X152908000Y-110273868D01*
X152908000Y-124968000D01*
X136263396Y-124968000D01*
X136129541Y-124878561D01*
X135810000Y-124815000D01*
X133996446Y-124815000D01*
X133968162Y-124664683D01*
X133829090Y-124448559D01*
X133616890Y-124303569D01*
X133550000Y-124290023D01*
X133550000Y-123792440D01*
X133565000Y-123792440D01*
X133800317Y-123748162D01*
X134016441Y-123609090D01*
X134161431Y-123396890D01*
X134212440Y-123145000D01*
X134212440Y-119845000D01*
X134168162Y-119609683D01*
X134029090Y-119393559D01*
X133816890Y-119248569D01*
X133565000Y-119197560D01*
X131865000Y-119197560D01*
X131629683Y-119241838D01*
X131413559Y-119380910D01*
X131268569Y-119593110D01*
X131217560Y-119845000D01*
X131217560Y-123145000D01*
X131261838Y-123380317D01*
X131400910Y-123596441D01*
X131613110Y-123741431D01*
X131865000Y-123792440D01*
X131880000Y-123792440D01*
X131880000Y-124287370D01*
X131829683Y-124296838D01*
X131613559Y-124435910D01*
X131468569Y-124648110D01*
X131417560Y-124900000D01*
X131417560Y-124968000D01*
X130302000Y-124968000D01*
X130302000Y-111912913D01*
X130414638Y-111912913D01*
X130731392Y-112679515D01*
X131317400Y-113266547D01*
X132083448Y-113584638D01*
X132912913Y-113585362D01*
X133679515Y-113268608D01*
X134266547Y-112682600D01*
X134584638Y-111916552D01*
X134585362Y-111087087D01*
X134268608Y-110320485D01*
X133682600Y-109733453D01*
X132916552Y-109415362D01*
X132087087Y-109414638D01*
X131320485Y-109731392D01*
X130733453Y-110317400D01*
X130415362Y-111083448D01*
X130414638Y-111912913D01*
X130302000Y-111912913D01*
X130302000Y-106172000D01*
X152908000Y-106172000D01*
X152908000Y-107939485D01*
G36*
X87006564Y-82236751D02*
X87006563Y-82236752D01*
X86904282Y-82483681D01*
X86828162Y-82866364D01*
X86828162Y-83133636D01*
X86904282Y-83516319D01*
X86968700Y-83671838D01*
X87006563Y-83763248D01*
X87223336Y-84087672D01*
X87412328Y-84276664D01*
X87736751Y-84493437D01*
X87839032Y-84535803D01*
X87983681Y-84595718D01*
X88366364Y-84671838D01*
X88433830Y-84671838D01*
X88500000Y-84685000D01*
X93000000Y-84685000D01*
X93066170Y-84671838D01*
X93133636Y-84671838D01*
X93516319Y-84595718D01*
X93763248Y-84493437D01*
X93763249Y-84493436D01*
X94087672Y-84276664D01*
X94276664Y-84087672D01*
X94493437Y-83763249D01*
X94535803Y-83660968D01*
X94595718Y-83516319D01*
X94671838Y-83133636D01*
X94671838Y-82866364D01*
X94595718Y-82483681D01*
X94531300Y-82328162D01*
X94493437Y-82236751D01*
X94363308Y-82042000D01*
X95572198Y-82042000D01*
X95760000Y-82229802D01*
X95760000Y-90877537D01*
X95727808Y-90909673D01*
X95585162Y-91253201D01*
X95584838Y-91625167D01*
X95726883Y-91968943D01*
X95760000Y-92002118D01*
X95760000Y-97475198D01*
X92807599Y-100427599D01*
X92642852Y-100674161D01*
X92585000Y-100965000D01*
X92585000Y-102870000D01*
X92642852Y-103160839D01*
X92807599Y-103407401D01*
X92965198Y-103565000D01*
X92648690Y-103565000D01*
X92415301Y-103661673D01*
X92236673Y-103840302D01*
X92140000Y-104073691D01*
X92140000Y-104664250D01*
X92298750Y-104823000D01*
X93273000Y-104823000D01*
X93273000Y-104803000D01*
X93527000Y-104803000D01*
X93527000Y-104823000D01*
X93547000Y-104823000D01*
X93547000Y-105077000D01*
X93527000Y-105077000D01*
X93527000Y-105097000D01*
X93273000Y-105097000D01*
X93273000Y-105077000D01*
X92298750Y-105077000D01*
X92264476Y-105111274D01*
X92261799Y-105110162D01*
X91889833Y-105109838D01*
X91546057Y-105251883D01*
X91282808Y-105514673D01*
X91140162Y-105858201D01*
X91140110Y-105918000D01*
X81685000Y-105918000D01*
X81685000Y-103386566D01*
X81853110Y-103501431D01*
X82105000Y-103552440D01*
X83455000Y-103552440D01*
X83690317Y-103508162D01*
X83773148Y-103454862D01*
X83978690Y-103540000D01*
X84494250Y-103540000D01*
X84653000Y-103381250D01*
X84653000Y-102324167D01*
X84907000Y-102309939D01*
X84907000Y-103381250D01*
X85065750Y-103540000D01*
X85581310Y-103540000D01*
X85785670Y-103455351D01*
X85853110Y-103501431D01*
X86105000Y-103552440D01*
X87455000Y-103552440D01*
X87690317Y-103508162D01*
X87779228Y-103450949D01*
X87853110Y-103501431D01*
X88105000Y-103552440D01*
X89455000Y-103552440D01*
X89690317Y-103508162D01*
X89779228Y-103450949D01*
X89853110Y-103501431D01*
X90105000Y-103552440D01*
X91455000Y-103552440D01*
X91690317Y-103508162D01*
X91906441Y-103369090D01*
X92051431Y-103156890D01*
X92102440Y-102905000D01*
X92102440Y-101105000D01*
X92089971Y-101038731D01*
X92090226Y-100745568D01*
X91891211Y-100263914D01*
X91523024Y-99895084D01*
X91041718Y-99695228D01*
X90520568Y-99694774D01*
X90038914Y-99893789D01*
X89779871Y-100152380D01*
X89523024Y-99895084D01*
X89041718Y-99695228D01*
X88520568Y-99694774D01*
X88038914Y-99893789D01*
X87779871Y-100152380D01*
X87523024Y-99895084D01*
X87041718Y-99695228D01*
X86520568Y-99694774D01*
X86038914Y-99893789D01*
X85670084Y-100261976D01*
X85646974Y-100317631D01*
X85494605Y-100470000D01*
X85135395Y-100470000D01*
X85517542Y-100087853D01*
X85458781Y-99854672D01*
X84966900Y-99682478D01*
X84446566Y-99711625D01*
X84101219Y-99854672D01*
X84042458Y-100087853D01*
X84424605Y-100470000D01*
X84065395Y-100470000D01*
X83913674Y-100318279D01*
X83891211Y-100263914D01*
X83523024Y-99895084D01*
X83041718Y-99695228D01*
X82520568Y-99694774D01*
X82038914Y-99893789D01*
X81685000Y-100247086D01*
X81685000Y-94067466D01*
X81721376Y-93884591D01*
X81786751Y-93786750D01*
X81884590Y-93721376D01*
X82133636Y-93671838D01*
X82516319Y-93595718D01*
X82763248Y-93493437D01*
X82763249Y-93493436D01*
X83087672Y-93276664D01*
X83276664Y-93087672D01*
X83493437Y-92763249D01*
X83543306Y-92642852D01*
X83595718Y-92516319D01*
X83671838Y-92133636D01*
X83671838Y-92066170D01*
X83685000Y-92000000D01*
X83685000Y-87000000D01*
X83671838Y-86933830D01*
X83671838Y-86866364D01*
X83595718Y-86483681D01*
X83493437Y-86236752D01*
X83493437Y-86236751D01*
X83276664Y-85912328D01*
X83087672Y-85723336D01*
X82763248Y-85506563D01*
X82709664Y-85484368D01*
X82516319Y-85404282D01*
X82133636Y-85328162D01*
X81884590Y-85278624D01*
X81786751Y-85213250D01*
X81721376Y-85115409D01*
X81685000Y-84932534D01*
X81685000Y-82042000D01*
X87136692Y-82042000D01*
X87006564Y-82236751D01*
X87006564Y-82236751D01*
G37*
X87006564Y-82236751D02*
X87006563Y-82236752D01*
X86904282Y-82483681D01*
X86828162Y-82866364D01*
X86828162Y-83133636D01*
X86904282Y-83516319D01*
X86968700Y-83671838D01*
X87006563Y-83763248D01*
X87223336Y-84087672D01*
X87412328Y-84276664D01*
X87736751Y-84493437D01*
X87839032Y-84535803D01*
X87983681Y-84595718D01*
X88366364Y-84671838D01*
X88433830Y-84671838D01*
X88500000Y-84685000D01*
X93000000Y-84685000D01*
X93066170Y-84671838D01*
X93133636Y-84671838D01*
X93516319Y-84595718D01*
X93763248Y-84493437D01*
X93763249Y-84493436D01*
X94087672Y-84276664D01*
X94276664Y-84087672D01*
X94493437Y-83763249D01*
X94535803Y-83660968D01*
X94595718Y-83516319D01*
X94671838Y-83133636D01*
X94671838Y-82866364D01*
X94595718Y-82483681D01*
X94531300Y-82328162D01*
X94493437Y-82236751D01*
X94363308Y-82042000D01*
X95572198Y-82042000D01*
X95760000Y-82229802D01*
X95760000Y-90877537D01*
X95727808Y-90909673D01*
X95585162Y-91253201D01*
X95584838Y-91625167D01*
X95726883Y-91968943D01*
X95760000Y-92002118D01*
X95760000Y-97475198D01*
X92807599Y-100427599D01*
X92642852Y-100674161D01*
X92585000Y-100965000D01*
X92585000Y-102870000D01*
X92642852Y-103160839D01*
X92807599Y-103407401D01*
X92965198Y-103565000D01*
X92648690Y-103565000D01*
X92415301Y-103661673D01*
X92236673Y-103840302D01*
X92140000Y-104073691D01*
X92140000Y-104664250D01*
X92298750Y-104823000D01*
X93273000Y-104823000D01*
X93273000Y-104803000D01*
X93527000Y-104803000D01*
X93527000Y-104823000D01*
X93547000Y-104823000D01*
X93547000Y-105077000D01*
X93527000Y-105077000D01*
X93527000Y-105097000D01*
X93273000Y-105097000D01*
X93273000Y-105077000D01*
X92298750Y-105077000D01*
X92264476Y-105111274D01*
X92261799Y-105110162D01*
X91889833Y-105109838D01*
X91546057Y-105251883D01*
X91282808Y-105514673D01*
X91140162Y-105858201D01*
X91140110Y-105918000D01*
X81685000Y-105918000D01*
X81685000Y-103386566D01*
X81853110Y-103501431D01*
X82105000Y-103552440D01*
X83455000Y-103552440D01*
X83690317Y-103508162D01*
X83773148Y-103454862D01*
X83978690Y-103540000D01*
X84494250Y-103540000D01*
X84653000Y-103381250D01*
X84653000Y-102324167D01*
X84907000Y-102309939D01*
X84907000Y-103381250D01*
X85065750Y-103540000D01*
X85581310Y-103540000D01*
X85785670Y-103455351D01*
X85853110Y-103501431D01*
X86105000Y-103552440D01*
X87455000Y-103552440D01*
X87690317Y-103508162D01*
X87779228Y-103450949D01*
X87853110Y-103501431D01*
X88105000Y-103552440D01*
X89455000Y-103552440D01*
X89690317Y-103508162D01*
X89779228Y-103450949D01*
X89853110Y-103501431D01*
X90105000Y-103552440D01*
X91455000Y-103552440D01*
X91690317Y-103508162D01*
X91906441Y-103369090D01*
X92051431Y-103156890D01*
X92102440Y-102905000D01*
X92102440Y-101105000D01*
X92089971Y-101038731D01*
X92090226Y-100745568D01*
X91891211Y-100263914D01*
X91523024Y-99895084D01*
X91041718Y-99695228D01*
X90520568Y-99694774D01*
X90038914Y-99893789D01*
X89779871Y-100152380D01*
X89523024Y-99895084D01*
X89041718Y-99695228D01*
X88520568Y-99694774D01*
X88038914Y-99893789D01*
X87779871Y-100152380D01*
X87523024Y-99895084D01*
X87041718Y-99695228D01*
X86520568Y-99694774D01*
X86038914Y-99893789D01*
X85670084Y-100261976D01*
X85646974Y-100317631D01*
X85494605Y-100470000D01*
X85135395Y-100470000D01*
X85517542Y-100087853D01*
X85458781Y-99854672D01*
X84966900Y-99682478D01*
X84446566Y-99711625D01*
X84101219Y-99854672D01*
X84042458Y-100087853D01*
X84424605Y-100470000D01*
X84065395Y-100470000D01*
X83913674Y-100318279D01*
X83891211Y-100263914D01*
X83523024Y-99895084D01*
X83041718Y-99695228D01*
X82520568Y-99694774D01*
X82038914Y-99893789D01*
X81685000Y-100247086D01*
X81685000Y-94067466D01*
X81721376Y-93884591D01*
X81786751Y-93786750D01*
X81884590Y-93721376D01*
X82133636Y-93671838D01*
X82516319Y-93595718D01*
X82763248Y-93493437D01*
X82763249Y-93493436D01*
X83087672Y-93276664D01*
X83276664Y-93087672D01*
X83493437Y-92763249D01*
X83543306Y-92642852D01*
X83595718Y-92516319D01*
X83671838Y-92133636D01*
X83671838Y-92066170D01*
X83685000Y-92000000D01*
X83685000Y-87000000D01*
X83671838Y-86933830D01*
X83671838Y-86866364D01*
X83595718Y-86483681D01*
X83493437Y-86236752D01*
X83493437Y-86236751D01*
X83276664Y-85912328D01*
X83087672Y-85723336D01*
X82763248Y-85506563D01*
X82709664Y-85484368D01*
X82516319Y-85404282D01*
X82133636Y-85328162D01*
X81884590Y-85278624D01*
X81786751Y-85213250D01*
X81721376Y-85115409D01*
X81685000Y-84932534D01*
X81685000Y-82042000D01*
X87136692Y-82042000D01*
X87006564Y-82236751D01*
M02*
