%FSLAX45Y45*%
G04 Gerber Fmt 4.5, Leading zero omitted, Abs format (unit mm)*
G04 Created by KiCad (PCBNEW 4.0.7) date 06/17/18 00:12:47*
%MOMM*%
%LPD*%
G01*
G04 APERTURE LIST*
%ADD10C,0.127000*%
%ADD11C,0.100000*%
%ADD12C,0.200000*%
%ADD13C,0.300000*%
G04 APERTURE END LIST*
D10*
D11*
X12600000Y-14850000D02*
X12600000Y-13800000D01*
X12400000Y-13800000D02*
X12400000Y-14850000D01*
X12600000Y-13350000D02*
X12600000Y-12300000D01*
X12400000Y-12300000D02*
X12400000Y-13350000D01*
X12600000Y-11850000D02*
X12600000Y-10750000D01*
X12400000Y-10750000D02*
X12400000Y-11850000D01*
X12600000Y-10300000D02*
X12600000Y-9250000D01*
X12400000Y-9250000D02*
X12400000Y-10300000D01*
X12600000Y-8800000D02*
X12600000Y-7750000D01*
X12400000Y-7750000D02*
X12400000Y-8800000D01*
X12400000Y-10300000D02*
G75*
G03X12500000Y-10400000I100000J0D01*
G01*
X12500000Y-10400000D02*
G75*
G03X12600000Y-10300000I0J100000D01*
G01*
X12500000Y-10650000D02*
G75*
G03X12400000Y-10750000I0J-100000D01*
G01*
X12600000Y-10750000D02*
G75*
G03X12500000Y-10650000I-100000J0D01*
G01*
X10125900Y-9997800D02*
G75*
G03X10225900Y-10097800I100000J0D01*
G01*
X10225900Y-10097800D02*
G75*
G03X10325900Y-9997800I0J100000D01*
G01*
X10125900Y-9997800D02*
X10125900Y-9497800D01*
X10325900Y-9497800D02*
X10325900Y-9997800D01*
X10325900Y-9447800D02*
G75*
G03X10225900Y-9347800I-100000J0D01*
G01*
X10225900Y-9347800D02*
G75*
G03X10125900Y-9447800I0J-100000D01*
G01*
X10125900Y-9447800D02*
X10125900Y-9497800D01*
X10325900Y-9447800D02*
X10325900Y-9497800D01*
X12600000Y-7750000D02*
G75*
G03X12500000Y-7650000I-100000J0D01*
G01*
X12500000Y-7650000D02*
G75*
G03X12400000Y-7750000I0J-100000D01*
G01*
X12500000Y-8900000D02*
G75*
G03X12600000Y-8800000I0J100000D01*
G01*
X12400000Y-8800000D02*
G75*
G03X12500000Y-8900000I100000J0D01*
G01*
X12600000Y-9250000D02*
G75*
G03X12500000Y-9150000I-100000J0D01*
G01*
X12500000Y-9150000D02*
G75*
G03X12400000Y-9250000I0J-100000D01*
G01*
X12500000Y-11950000D02*
G75*
G03X12600000Y-11850000I0J100000D01*
G01*
X12400000Y-11850000D02*
G75*
G03X12500000Y-11950000I100000J0D01*
G01*
X12500000Y-12200000D02*
G75*
G03X12400000Y-12300000I0J-100000D01*
G01*
X12600000Y-12300000D02*
G75*
G03X12500000Y-12200000I-100000J0D01*
G01*
X12400000Y-13350000D02*
G75*
G03X12500000Y-13450000I100000J0D01*
G01*
X12500000Y-13450000D02*
G75*
G03X12600000Y-13350000I0J100000D01*
G01*
X12500000Y-13700000D02*
G75*
G03X12400000Y-13800000I0J-100000D01*
G01*
X12600000Y-13800000D02*
G75*
G03X12500000Y-13700000I-100000J0D01*
G01*
X12500000Y-14950000D02*
G75*
G03X12600000Y-14850000I0J100000D01*
G01*
X12400000Y-14850000D02*
G75*
G03X12500000Y-14950000I100000J0D01*
G01*
D12*
X8465000Y-7880000D02*
X8505000Y-7920000D01*
X8505000Y-7880000D02*
X8465000Y-7920000D01*
X8465000Y-14680000D02*
X8505000Y-14720000D01*
X8505000Y-14680000D02*
X8465000Y-14720000D01*
X8513327Y-7763327D02*
X8553327Y-7803327D01*
X8553327Y-7763327D02*
X8513327Y-7803327D01*
X8513327Y-7996673D02*
X8553327Y-8036673D01*
X8553327Y-7996673D02*
X8513327Y-8036673D01*
X8513327Y-14563327D02*
X8553327Y-14603327D01*
X8553327Y-14563327D02*
X8513327Y-14603327D01*
X8513327Y-14796673D02*
X8553327Y-14836673D01*
X8553327Y-14796673D02*
X8513327Y-14836673D01*
X8616000Y-8425500D02*
X8656000Y-8465500D01*
X8656000Y-8425500D02*
X8616000Y-8465500D01*
X8630000Y-7715000D02*
X8670000Y-7755000D01*
X8670000Y-7715000D02*
X8630000Y-7755000D01*
X8630000Y-8045000D02*
X8670000Y-8085000D01*
X8670000Y-8045000D02*
X8630000Y-8085000D01*
X8630000Y-14515000D02*
X8670000Y-14555000D01*
X8670000Y-14515000D02*
X8630000Y-14555000D01*
X8630000Y-14845000D02*
X8670000Y-14885000D01*
X8670000Y-14845000D02*
X8630000Y-14885000D01*
X8746673Y-7763327D02*
X8786673Y-7803327D01*
X8786673Y-7763327D02*
X8746673Y-7803327D01*
X8746673Y-7996673D02*
X8786673Y-8036673D01*
X8786673Y-7996673D02*
X8746673Y-8036673D01*
X8746673Y-14563327D02*
X8786673Y-14603327D01*
X8786673Y-14563327D02*
X8746673Y-14603327D01*
X8746673Y-14796673D02*
X8786673Y-14836673D01*
X8786673Y-14796673D02*
X8746673Y-14836673D01*
X8795000Y-7880000D02*
X8835000Y-7920000D01*
X8835000Y-7880000D02*
X8795000Y-7920000D01*
X8795000Y-14680000D02*
X8835000Y-14720000D01*
X8835000Y-14680000D02*
X8795000Y-14720000D01*
X9160000Y-11040000D02*
X9200000Y-11080000D01*
X9200000Y-11040000D02*
X9160000Y-11080000D01*
X9187500Y-10457500D02*
X9227500Y-10497500D01*
X9227500Y-10457500D02*
X9187500Y-10497500D01*
X9251000Y-10076500D02*
X9291000Y-10116500D01*
X9291000Y-10076500D02*
X9251000Y-10116500D01*
X9378000Y-9314500D02*
X9418000Y-9354500D01*
X9418000Y-9314500D02*
X9378000Y-9354500D01*
X9378000Y-9695500D02*
X9418000Y-9735500D01*
X9418000Y-9695500D02*
X9378000Y-9735500D01*
X9378000Y-10330500D02*
X9418000Y-10370500D01*
X9418000Y-10330500D02*
X9378000Y-10370500D01*
X9441500Y-9251000D02*
X9481500Y-9291000D01*
X9481500Y-9251000D02*
X9441500Y-9291000D01*
X9441500Y-11727500D02*
X9481500Y-11767500D01*
X9481500Y-11727500D02*
X9441500Y-11767500D01*
X9505000Y-9695500D02*
X9545000Y-9735500D01*
X9545000Y-9695500D02*
X9505000Y-9735500D01*
X9568500Y-9251000D02*
X9608500Y-9291000D01*
X9608500Y-9251000D02*
X9568500Y-9291000D01*
X9568500Y-9378000D02*
X9608500Y-9418000D01*
X9608500Y-9378000D02*
X9568500Y-9418000D01*
X9695500Y-10330500D02*
X9735500Y-10370500D01*
X9735500Y-10330500D02*
X9695500Y-10370500D01*
X9822500Y-10965500D02*
X9862500Y-11005500D01*
X9862500Y-10965500D02*
X9822500Y-11005500D01*
X9822500Y-11156000D02*
X9862500Y-11196000D01*
X9862500Y-11156000D02*
X9822500Y-11196000D01*
X9822500Y-11410000D02*
X9862500Y-11450000D01*
X9862500Y-11410000D02*
X9822500Y-11450000D01*
X9886000Y-10076500D02*
X9926000Y-10116500D01*
X9926000Y-10076500D02*
X9886000Y-10116500D01*
X9886000Y-11473500D02*
X9926000Y-11513500D01*
X9926000Y-11473500D02*
X9886000Y-11513500D01*
X9949500Y-10203500D02*
X9989500Y-10243500D01*
X9989500Y-10203500D02*
X9949500Y-10243500D01*
X9949500Y-11156000D02*
X9989500Y-11196000D01*
X9989500Y-11156000D02*
X9949500Y-11196000D01*
X10013000Y-10267000D02*
X10053000Y-10307000D01*
X10053000Y-10267000D02*
X10013000Y-10307000D01*
X10013000Y-12235500D02*
X10053000Y-12275500D01*
X10053000Y-12235500D02*
X10013000Y-12275500D01*
X10076500Y-11156000D02*
X10116500Y-11196000D01*
X10116500Y-11156000D02*
X10076500Y-11196000D01*
X10076500Y-12299000D02*
X10116500Y-12339000D01*
X10116500Y-12299000D02*
X10076500Y-12339000D01*
X10076500Y-12426000D02*
X10116500Y-12466000D01*
X10116500Y-12426000D02*
X10076500Y-12466000D01*
X10140000Y-12235500D02*
X10180000Y-12275500D01*
X10180000Y-12235500D02*
X10140000Y-12275500D01*
X10140000Y-12362500D02*
X10180000Y-12402500D01*
X10180000Y-12362500D02*
X10140000Y-12402500D01*
X10267000Y-10711500D02*
X10307000Y-10751500D01*
X10307000Y-10711500D02*
X10267000Y-10751500D01*
X10343200Y-11587800D02*
X10383200Y-11627800D01*
X10383200Y-11587800D02*
X10343200Y-11627800D01*
X10457500Y-11156000D02*
X10497500Y-11196000D01*
X10497500Y-11156000D02*
X10457500Y-11196000D01*
X10457500Y-11346500D02*
X10497500Y-11386500D01*
X10497500Y-11346500D02*
X10457500Y-11386500D01*
X10457500Y-14077000D02*
X10497500Y-14117000D01*
X10497500Y-14077000D02*
X10457500Y-14117000D01*
X10457500Y-14458000D02*
X10497500Y-14498000D01*
X10497500Y-14458000D02*
X10457500Y-14498000D01*
X10521000Y-9822500D02*
X10561000Y-9862500D01*
X10561000Y-9822500D02*
X10521000Y-9862500D01*
X10584500Y-12235500D02*
X10624500Y-12275500D01*
X10624500Y-12235500D02*
X10584500Y-12275500D01*
X10648000Y-11410000D02*
X10688000Y-11450000D01*
X10688000Y-11410000D02*
X10648000Y-11450000D01*
X10648000Y-12299000D02*
X10688000Y-12339000D01*
X10688000Y-12299000D02*
X10648000Y-12339000D01*
X10648000Y-12426000D02*
X10688000Y-12466000D01*
X10688000Y-12426000D02*
X10648000Y-12466000D01*
X10711500Y-11156000D02*
X10751500Y-11196000D01*
X10751500Y-11156000D02*
X10711500Y-11196000D01*
X10711500Y-12362500D02*
X10751500Y-12402500D01*
X10751500Y-12362500D02*
X10711500Y-12402500D01*
X10902000Y-13188000D02*
X10942000Y-13228000D01*
X10942000Y-13188000D02*
X10902000Y-13228000D01*
X11029000Y-12108500D02*
X11069000Y-12148500D01*
X11069000Y-12108500D02*
X11029000Y-12148500D01*
X11029000Y-12489500D02*
X11069000Y-12529500D01*
X11069000Y-12489500D02*
X11029000Y-12529500D01*
X11092500Y-14648500D02*
X11132500Y-14688500D01*
X11132500Y-14648500D02*
X11092500Y-14688500D01*
X11156000Y-13505500D02*
X11196000Y-13545500D01*
X11196000Y-13505500D02*
X11156000Y-13545500D01*
X11346500Y-9568500D02*
X11386500Y-9608500D01*
X11386500Y-9568500D02*
X11346500Y-9608500D01*
X11346500Y-10584500D02*
X11386500Y-10624500D01*
X11386500Y-10584500D02*
X11346500Y-10624500D01*
X11410000Y-13759500D02*
X11450000Y-13799500D01*
X11450000Y-13759500D02*
X11410000Y-13799500D01*
X11473500Y-11156000D02*
X11513500Y-11196000D01*
X11513500Y-11156000D02*
X11473500Y-11196000D01*
X11537000Y-7663500D02*
X11577000Y-7703500D01*
X11577000Y-7663500D02*
X11537000Y-7703500D01*
X11664000Y-14775500D02*
X11704000Y-14815500D01*
X11704000Y-14775500D02*
X11664000Y-14815500D01*
X11865000Y-7880000D02*
X11905000Y-7920000D01*
X11905000Y-7880000D02*
X11865000Y-7920000D01*
X11865000Y-14680000D02*
X11905000Y-14720000D01*
X11905000Y-14680000D02*
X11865000Y-14720000D01*
X11913327Y-7763327D02*
X11953327Y-7803327D01*
X11953327Y-7763327D02*
X11913327Y-7803327D01*
X11913327Y-7996673D02*
X11953327Y-8036673D01*
X11953327Y-7996673D02*
X11913327Y-8036673D01*
X11913327Y-14563327D02*
X11953327Y-14603327D01*
X11953327Y-14563327D02*
X11913327Y-14603327D01*
X11913327Y-14796673D02*
X11953327Y-14836673D01*
X11953327Y-14796673D02*
X11913327Y-14836673D01*
X12030000Y-7715000D02*
X12070000Y-7755000D01*
X12070000Y-7715000D02*
X12030000Y-7755000D01*
X12030000Y-8045000D02*
X12070000Y-8085000D01*
X12070000Y-8045000D02*
X12030000Y-8085000D01*
X12030000Y-14515000D02*
X12070000Y-14555000D01*
X12070000Y-14515000D02*
X12030000Y-14555000D01*
X12030000Y-14845000D02*
X12070000Y-14885000D01*
X12070000Y-14845000D02*
X12030000Y-14885000D01*
X12108500Y-14204000D02*
X12148500Y-14244000D01*
X12148500Y-14204000D02*
X12108500Y-14244000D01*
X12146673Y-7763327D02*
X12186673Y-7803327D01*
X12186673Y-7763327D02*
X12146673Y-7803327D01*
X12146673Y-7996673D02*
X12186673Y-8036673D01*
X12186673Y-7996673D02*
X12146673Y-8036673D01*
X12146673Y-14563327D02*
X12186673Y-14603327D01*
X12186673Y-14563327D02*
X12146673Y-14603327D01*
X12146673Y-14796673D02*
X12186673Y-14836673D01*
X12186673Y-14796673D02*
X12146673Y-14836673D01*
X12195000Y-7880000D02*
X12235000Y-7920000D01*
X12235000Y-7880000D02*
X12195000Y-7920000D01*
X12195000Y-14680000D02*
X12235000Y-14720000D01*
X12235000Y-14680000D02*
X12195000Y-14720000D01*
X15265000Y-7880000D02*
X15305000Y-7920000D01*
X15305000Y-7880000D02*
X15265000Y-7920000D01*
X15265000Y-14680000D02*
X15305000Y-14720000D01*
X15305000Y-14680000D02*
X15265000Y-14720000D01*
X15313327Y-7763327D02*
X15353327Y-7803327D01*
X15353327Y-7763327D02*
X15313327Y-7803327D01*
X15313327Y-7996673D02*
X15353327Y-8036673D01*
X15353327Y-7996673D02*
X15313327Y-8036673D01*
X15313327Y-14563327D02*
X15353327Y-14603327D01*
X15353327Y-14563327D02*
X15313327Y-14603327D01*
X15313327Y-14796673D02*
X15353327Y-14836673D01*
X15353327Y-14796673D02*
X15313327Y-14836673D01*
X15430000Y-7715000D02*
X15470000Y-7755000D01*
X15470000Y-7715000D02*
X15430000Y-7755000D01*
X15430000Y-8045000D02*
X15470000Y-8085000D01*
X15470000Y-8045000D02*
X15430000Y-8085000D01*
X15430000Y-14515000D02*
X15470000Y-14555000D01*
X15470000Y-14515000D02*
X15430000Y-14555000D01*
X15430000Y-14845000D02*
X15470000Y-14885000D01*
X15470000Y-14845000D02*
X15430000Y-14885000D01*
X15546673Y-7763327D02*
X15586673Y-7803327D01*
X15586673Y-7763327D02*
X15546673Y-7803327D01*
X15546673Y-7996673D02*
X15586673Y-8036673D01*
X15586673Y-7996673D02*
X15546673Y-8036673D01*
X15546673Y-14563327D02*
X15586673Y-14603327D01*
X15586673Y-14563327D02*
X15546673Y-14603327D01*
X15546673Y-14796673D02*
X15586673Y-14836673D01*
X15586673Y-14796673D02*
X15546673Y-14836673D01*
X15595000Y-7880000D02*
X15635000Y-7920000D01*
X15635000Y-7880000D02*
X15595000Y-7920000D01*
X15595000Y-14680000D02*
X15635000Y-14720000D01*
X15635000Y-14680000D02*
X15595000Y-14720000D01*
X8481500Y-8913000D02*
G75*
G03X8481500Y-8913000I-40000J0D01*
G01*
X8481500Y-9113000D02*
G75*
G03X8481500Y-9113000I-40000J0D01*
G01*
X8481500Y-9313000D02*
G75*
G03X8481500Y-9313000I-40000J0D01*
G01*
X8481500Y-9513000D02*
G75*
G03X8481500Y-9513000I-40000J0D01*
G01*
X8481500Y-9713000D02*
G75*
G03X8481500Y-9713000I-40000J0D01*
G01*
X8481500Y-9913000D02*
G75*
G03X8481500Y-9913000I-40000J0D01*
G01*
X8481500Y-10113000D02*
G75*
G03X8481500Y-10113000I-40000J0D01*
G01*
X8481500Y-10313000D02*
G75*
G03X8481500Y-10313000I-40000J0D01*
G01*
X8676000Y-11049000D02*
G75*
G03X8676000Y-11049000I-40000J0D01*
G01*
X8676000Y-11537000D02*
G75*
G03X8676000Y-11537000I-40000J0D01*
G01*
X13290000Y-8490000D02*
G75*
G03X13290000Y-8490000I-40000J0D01*
G01*
X13290000Y-13810000D02*
G75*
G03X13290000Y-13810000I-40000J0D01*
G01*
X15090000Y-8490000D02*
G75*
G03X15090000Y-8490000I-40000J0D01*
G01*
X15090000Y-13810000D02*
G75*
G03X15090000Y-13810000I-40000J0D01*
G01*
X10668000Y-8083000D02*
X10668000Y-8173000D01*
X10623000Y-8128000D02*
X10713000Y-8128000D01*
X10922000Y-8083000D02*
X10922000Y-8173000D01*
X10877000Y-8128000D02*
X10967000Y-8128000D01*
X11176000Y-8083000D02*
X11176000Y-8173000D01*
X11131000Y-8128000D02*
X11221000Y-8128000D01*
X8544356Y-13116356D02*
X8544356Y-13045644D01*
X8473644Y-13045644D01*
X8473644Y-13116356D01*
X8544356Y-13116356D01*
X8544356Y-13370356D02*
X8544356Y-13299644D01*
X8473644Y-13299644D01*
X8473644Y-13370356D01*
X8544356Y-13370356D01*
X8544356Y-13624356D02*
X8544356Y-13553644D01*
X8473644Y-13553644D01*
X8473644Y-13624356D01*
X8544356Y-13624356D01*
X8544356Y-13878356D02*
X8544356Y-13807644D01*
X8473644Y-13807644D01*
X8473644Y-13878356D01*
X8544356Y-13878356D01*
X9242856Y-14957856D02*
X9242856Y-14887144D01*
X9172144Y-14887144D01*
X9172144Y-14957856D01*
X9242856Y-14957856D01*
X9369856Y-7718856D02*
X9369856Y-7648144D01*
X9299144Y-7648144D01*
X9299144Y-7718856D01*
X9369856Y-7718856D01*
X9369856Y-7972856D02*
X9369856Y-7902144D01*
X9299144Y-7902144D01*
X9299144Y-7972856D01*
X9369856Y-7972856D01*
X9496856Y-14957856D02*
X9496856Y-14887144D01*
X9426144Y-14887144D01*
X9426144Y-14957856D01*
X9496856Y-14957856D01*
X9623856Y-7718856D02*
X9623856Y-7648144D01*
X9553144Y-7648144D01*
X9553144Y-7718856D01*
X9623856Y-7718856D01*
X9623856Y-7972856D02*
X9623856Y-7902144D01*
X9553144Y-7902144D01*
X9553144Y-7972856D01*
X9623856Y-7972856D01*
X9750856Y-14957856D02*
X9750856Y-14887144D01*
X9680144Y-14887144D01*
X9680144Y-14957856D01*
X9750856Y-14957856D01*
X9877856Y-7718856D02*
X9877856Y-7648144D01*
X9807144Y-7648144D01*
X9807144Y-7718856D01*
X9877856Y-7718856D01*
X9877856Y-7972856D02*
X9877856Y-7902144D01*
X9807144Y-7902144D01*
X9807144Y-7972856D01*
X9877856Y-7972856D01*
X10004856Y-14957856D02*
X10004856Y-14887144D01*
X9934144Y-14887144D01*
X9934144Y-14957856D01*
X10004856Y-14957856D01*
X10068356Y-13116356D02*
X10068356Y-13045644D01*
X9997644Y-13045644D01*
X9997644Y-13116356D01*
X10068356Y-13116356D01*
X10068356Y-13370356D02*
X10068356Y-13299644D01*
X9997644Y-13299644D01*
X9997644Y-13370356D01*
X10068356Y-13370356D01*
X10068356Y-13624356D02*
X10068356Y-13553644D01*
X9997644Y-13553644D01*
X9997644Y-13624356D01*
X10068356Y-13624356D01*
X10068356Y-13878356D02*
X10068356Y-13807644D01*
X9997644Y-13807644D01*
X9997644Y-13878356D01*
X10068356Y-13878356D01*
X10258856Y-14957856D02*
X10258856Y-14887144D01*
X10188144Y-14887144D01*
X10188144Y-14957856D01*
X10258856Y-14957856D01*
X10512856Y-14957856D02*
X10512856Y-14887144D01*
X10442144Y-14887144D01*
X10442144Y-14957856D01*
X10512856Y-14957856D01*
X10576356Y-13116356D02*
X10576356Y-13045644D01*
X10505644Y-13045644D01*
X10505644Y-13116356D01*
X10576356Y-13116356D01*
X10576356Y-13370356D02*
X10576356Y-13299644D01*
X10505644Y-13299644D01*
X10505644Y-13370356D01*
X10576356Y-13370356D01*
X10576356Y-13624356D02*
X10576356Y-13553644D01*
X10505644Y-13553644D01*
X10505644Y-13624356D01*
X10576356Y-13624356D01*
X10576356Y-13878356D02*
X10576356Y-13807644D01*
X10505644Y-13807644D01*
X10505644Y-13878356D01*
X10576356Y-13878356D01*
X11274856Y-14957856D02*
X11274856Y-14887144D01*
X11204144Y-14887144D01*
X11204144Y-14957856D01*
X11274856Y-14957856D01*
X11528856Y-14957856D02*
X11528856Y-14887144D01*
X11458144Y-14887144D01*
X11458144Y-14957856D01*
X11528856Y-14957856D01*
X11592356Y-8417356D02*
X11592356Y-8346644D01*
X11521644Y-8346644D01*
X11521644Y-8417356D01*
X11592356Y-8417356D01*
X11592356Y-8671356D02*
X11592356Y-8600644D01*
X11521644Y-8600644D01*
X11521644Y-8671356D01*
X11592356Y-8671356D01*
X11592356Y-8925356D02*
X11592356Y-8854644D01*
X11521644Y-8854644D01*
X11521644Y-8925356D01*
X11592356Y-8925356D01*
X11592356Y-9179356D02*
X11592356Y-9108644D01*
X11521644Y-9108644D01*
X11521644Y-9179356D01*
X11592356Y-9179356D01*
X11592356Y-9433356D02*
X11592356Y-9362644D01*
X11521644Y-9362644D01*
X11521644Y-9433356D01*
X11592356Y-9433356D01*
X11592356Y-9687356D02*
X11592356Y-9616644D01*
X11521644Y-9616644D01*
X11521644Y-9687356D01*
X11592356Y-9687356D01*
X11592356Y-9941356D02*
X11592356Y-9870644D01*
X11521644Y-9870644D01*
X11521644Y-9941356D01*
X11592356Y-9941356D01*
X11592356Y-10195356D02*
X11592356Y-10124644D01*
X11521644Y-10124644D01*
X11521644Y-10195356D01*
X11592356Y-10195356D01*
X11846356Y-8417356D02*
X11846356Y-8346644D01*
X11775644Y-8346644D01*
X11775644Y-8417356D01*
X11846356Y-8417356D01*
X11846356Y-8671356D02*
X11846356Y-8600644D01*
X11775644Y-8600644D01*
X11775644Y-8671356D01*
X11846356Y-8671356D01*
X11846356Y-8925356D02*
X11846356Y-8854644D01*
X11775644Y-8854644D01*
X11775644Y-8925356D01*
X11846356Y-8925356D01*
X11846356Y-9179356D02*
X11846356Y-9108644D01*
X11775644Y-9108644D01*
X11775644Y-9179356D01*
X11846356Y-9179356D01*
X11846356Y-9433356D02*
X11846356Y-9362644D01*
X11775644Y-9362644D01*
X11775644Y-9433356D01*
X11846356Y-9433356D01*
X11846356Y-9687356D02*
X11846356Y-9616644D01*
X11775644Y-9616644D01*
X11775644Y-9687356D01*
X11846356Y-9687356D01*
X11846356Y-9941356D02*
X11846356Y-9870644D01*
X11775644Y-9870644D01*
X11775644Y-9941356D01*
X11846356Y-9941356D01*
X11846356Y-10195356D02*
X11846356Y-10124644D01*
X11775644Y-10124644D01*
X11775644Y-10195356D01*
X11846356Y-10195356D01*
X11846356Y-10449356D02*
X11846356Y-10378644D01*
X11775644Y-10378644D01*
X11775644Y-10449356D01*
X11846356Y-10449356D01*
X11846356Y-10703356D02*
X11846356Y-10632644D01*
X11775644Y-10632644D01*
X11775644Y-10703356D01*
X11846356Y-10703356D01*
X11846356Y-10957356D02*
X11846356Y-10886644D01*
X11775644Y-10886644D01*
X11775644Y-10957356D01*
X11846356Y-10957356D01*
X11846356Y-11211356D02*
X11846356Y-11140644D01*
X11775644Y-11140644D01*
X11775644Y-11211356D01*
X11846356Y-11211356D01*
X11846356Y-11465356D02*
X11846356Y-11394644D01*
X11775644Y-11394644D01*
X11775644Y-11465356D01*
X11846356Y-11465356D01*
X11846356Y-11719356D02*
X11846356Y-11648644D01*
X11775644Y-11648644D01*
X11775644Y-11719356D01*
X11846356Y-11719356D01*
X11846356Y-11973356D02*
X11846356Y-11902644D01*
X11775644Y-11902644D01*
X11775644Y-11973356D01*
X11846356Y-11973356D01*
X11846356Y-12227356D02*
X11846356Y-12156644D01*
X11775644Y-12156644D01*
X11775644Y-12227356D01*
X11846356Y-12227356D01*
X11846356Y-12481356D02*
X11846356Y-12410644D01*
X11775644Y-12410644D01*
X11775644Y-12481356D01*
X11846356Y-12481356D01*
X12100356Y-9941356D02*
X12100356Y-9870644D01*
X12029644Y-9870644D01*
X12029644Y-9941356D01*
X12100356Y-9941356D01*
X12100356Y-10195356D02*
X12100356Y-10124644D01*
X12029644Y-10124644D01*
X12029644Y-10195356D01*
X12100356Y-10195356D01*
X12100356Y-10703356D02*
X12100356Y-10632644D01*
X12029644Y-10632644D01*
X12029644Y-10703356D01*
X12100356Y-10703356D01*
X12100356Y-10957356D02*
X12100356Y-10886644D01*
X12029644Y-10886644D01*
X12029644Y-10957356D01*
X12100356Y-10957356D01*
X12100356Y-11211356D02*
X12100356Y-11140644D01*
X12029644Y-11140644D01*
X12029644Y-11211356D01*
X12100356Y-11211356D01*
X12100356Y-11465356D02*
X12100356Y-11394644D01*
X12029644Y-11394644D01*
X12029644Y-11465356D01*
X12100356Y-11465356D01*
X12100356Y-11719356D02*
X12100356Y-11648644D01*
X12029644Y-11648644D01*
X12029644Y-11719356D01*
X12100356Y-11719356D01*
X12100356Y-11973356D02*
X12100356Y-11902644D01*
X12029644Y-11902644D01*
X12029644Y-11973356D01*
X12100356Y-11973356D01*
X12100356Y-12227356D02*
X12100356Y-12156644D01*
X12029644Y-12156644D01*
X12029644Y-12227356D01*
X12100356Y-12227356D01*
X12100356Y-12481356D02*
X12100356Y-12410644D01*
X12029644Y-12410644D01*
X12029644Y-12481356D01*
X12100356Y-12481356D01*
X12100356Y-13116356D02*
X12100356Y-13045644D01*
X12029644Y-13045644D01*
X12029644Y-13116356D01*
X12100356Y-13116356D01*
X12100356Y-13370356D02*
X12100356Y-13299644D01*
X12029644Y-13299644D01*
X12029644Y-13370356D01*
X12100356Y-13370356D01*
X12100356Y-13624356D02*
X12100356Y-13553644D01*
X12029644Y-13553644D01*
X12029644Y-13624356D01*
X12100356Y-13624356D01*
X12100356Y-13878356D02*
X12100356Y-13807644D01*
X12029644Y-13807644D01*
X12029644Y-13878356D01*
X12100356Y-13878356D01*
X8650000Y-8010000D02*
X8760000Y-7900000D01*
X8650000Y-7790000D01*
X8540000Y-7900000D01*
X8650000Y-8010000D01*
X8650000Y-14810000D02*
X8760000Y-14700000D01*
X8650000Y-14590000D01*
X8540000Y-14700000D01*
X8650000Y-14810000D01*
X12050000Y-8010000D02*
X12160000Y-7900000D01*
X12050000Y-7790000D01*
X11940000Y-7900000D01*
X12050000Y-8010000D01*
X12050000Y-14810000D02*
X12160000Y-14700000D01*
X12050000Y-14590000D01*
X11940000Y-14700000D01*
X12050000Y-14810000D01*
X15450000Y-8010000D02*
X15560000Y-7900000D01*
X15450000Y-7790000D01*
X15340000Y-7900000D01*
X15450000Y-8010000D01*
X15450000Y-14810000D02*
X15560000Y-14700000D01*
X15450000Y-14590000D01*
X15340000Y-14700000D01*
X15450000Y-14810000D01*
D13*
X10392329Y-15420714D02*
X10392329Y-15120714D01*
X10463757Y-15120714D01*
X10506614Y-15135000D01*
X10535186Y-15163571D01*
X10549471Y-15192143D01*
X10563757Y-15249286D01*
X10563757Y-15292143D01*
X10549471Y-15349286D01*
X10535186Y-15377857D01*
X10506614Y-15406429D01*
X10463757Y-15420714D01*
X10392329Y-15420714D01*
X10692329Y-15420714D02*
X10692329Y-15220714D01*
X10692329Y-15277857D02*
X10706614Y-15249286D01*
X10720900Y-15235000D01*
X10749471Y-15220714D01*
X10778043Y-15220714D01*
X10878043Y-15420714D02*
X10878043Y-15220714D01*
X10878043Y-15120714D02*
X10863757Y-15135000D01*
X10878043Y-15149286D01*
X10892329Y-15135000D01*
X10878043Y-15120714D01*
X10878043Y-15149286D01*
X11063757Y-15420714D02*
X11035186Y-15406429D01*
X11020900Y-15377857D01*
X11020900Y-15120714D01*
X11220900Y-15420714D02*
X11192328Y-15406429D01*
X11178043Y-15377857D01*
X11178043Y-15120714D01*
X11563757Y-15420714D02*
X11563757Y-15120714D01*
X11663757Y-15335000D01*
X11763757Y-15120714D01*
X11763757Y-15420714D01*
X12035186Y-15420714D02*
X12035186Y-15263571D01*
X12020900Y-15235000D01*
X11992328Y-15220714D01*
X11935186Y-15220714D01*
X11906614Y-15235000D01*
X12035186Y-15406429D02*
X12006614Y-15420714D01*
X11935186Y-15420714D01*
X11906614Y-15406429D01*
X11892328Y-15377857D01*
X11892328Y-15349286D01*
X11906614Y-15320714D01*
X11935186Y-15306429D01*
X12006614Y-15306429D01*
X12035186Y-15292143D01*
X12178043Y-15220714D02*
X12178043Y-15520714D01*
X12178043Y-15235000D02*
X12206614Y-15220714D01*
X12263757Y-15220714D01*
X12292328Y-15235000D01*
X12306614Y-15249286D01*
X12320900Y-15277857D01*
X12320900Y-15363571D01*
X12306614Y-15392143D01*
X12292328Y-15406429D01*
X12263757Y-15420714D01*
X12206614Y-15420714D01*
X12178043Y-15406429D01*
X12449471Y-15392143D02*
X12463757Y-15406429D01*
X12449471Y-15420714D01*
X12435186Y-15406429D01*
X12449471Y-15392143D01*
X12449471Y-15420714D01*
X12449471Y-15235000D02*
X12463757Y-15249286D01*
X12449471Y-15263571D01*
X12435186Y-15249286D01*
X12449471Y-15235000D01*
X12449471Y-15263571D01*
X10080900Y-15895000D02*
X10120900Y-15935000D01*
X10120900Y-15895000D02*
X10080900Y-15935000D01*
X10449471Y-15750714D02*
X10478043Y-15750714D01*
X10506614Y-15765000D01*
X10520900Y-15779286D01*
X10535186Y-15807857D01*
X10549471Y-15865000D01*
X10549471Y-15936429D01*
X10535186Y-15993571D01*
X10520900Y-16022143D01*
X10506614Y-16036429D01*
X10478043Y-16050714D01*
X10449471Y-16050714D01*
X10420900Y-16036429D01*
X10406614Y-16022143D01*
X10392329Y-15993571D01*
X10378043Y-15936429D01*
X10378043Y-15865000D01*
X10392329Y-15807857D01*
X10406614Y-15779286D01*
X10420900Y-15765000D01*
X10449471Y-15750714D01*
X10678043Y-16022143D02*
X10692329Y-16036429D01*
X10678043Y-16050714D01*
X10663757Y-16036429D01*
X10678043Y-16022143D01*
X10678043Y-16050714D01*
X10949471Y-15850714D02*
X10949471Y-16050714D01*
X10878043Y-15736429D02*
X10806614Y-15950714D01*
X10992328Y-15950714D01*
X11163757Y-15750714D02*
X11192328Y-15750714D01*
X11220900Y-15765000D01*
X11235186Y-15779286D01*
X11249471Y-15807857D01*
X11263757Y-15865000D01*
X11263757Y-15936429D01*
X11249471Y-15993571D01*
X11235186Y-16022143D01*
X11220900Y-16036429D01*
X11192328Y-16050714D01*
X11163757Y-16050714D01*
X11135186Y-16036429D01*
X11120900Y-16022143D01*
X11106614Y-15993571D01*
X11092329Y-15936429D01*
X11092329Y-15865000D01*
X11106614Y-15807857D01*
X11120900Y-15779286D01*
X11135186Y-15765000D01*
X11163757Y-15750714D01*
X11392328Y-16050714D02*
X11392328Y-15850714D01*
X11392328Y-15879286D02*
X11406614Y-15865000D01*
X11435186Y-15850714D01*
X11478043Y-15850714D01*
X11506614Y-15865000D01*
X11520900Y-15893571D01*
X11520900Y-16050714D01*
X11520900Y-15893571D02*
X11535186Y-15865000D01*
X11563757Y-15850714D01*
X11606614Y-15850714D01*
X11635186Y-15865000D01*
X11649471Y-15893571D01*
X11649471Y-16050714D01*
X11792328Y-16050714D02*
X11792328Y-15850714D01*
X11792328Y-15879286D02*
X11806614Y-15865000D01*
X11835186Y-15850714D01*
X11878043Y-15850714D01*
X11906614Y-15865000D01*
X11920900Y-15893571D01*
X11920900Y-16050714D01*
X11920900Y-15893571D02*
X11935186Y-15865000D01*
X11963757Y-15850714D01*
X12006614Y-15850714D01*
X12035186Y-15865000D01*
X12049471Y-15893571D01*
X12049471Y-16050714D01*
X12635186Y-15736429D02*
X12378043Y-16122143D01*
X13020900Y-15750714D02*
X13049471Y-15750714D01*
X13078043Y-15765000D01*
X13092328Y-15779286D01*
X13106614Y-15807857D01*
X13120900Y-15865000D01*
X13120900Y-15936429D01*
X13106614Y-15993571D01*
X13092328Y-16022143D01*
X13078043Y-16036429D01*
X13049471Y-16050714D01*
X13020900Y-16050714D01*
X12992328Y-16036429D01*
X12978043Y-16022143D01*
X12963757Y-15993571D01*
X12949471Y-15936429D01*
X12949471Y-15865000D01*
X12963757Y-15807857D01*
X12978043Y-15779286D01*
X12992328Y-15765000D01*
X13020900Y-15750714D01*
X13249471Y-16022143D02*
X13263757Y-16036429D01*
X13249471Y-16050714D01*
X13235186Y-16036429D01*
X13249471Y-16022143D01*
X13249471Y-16050714D01*
X13449471Y-15750714D02*
X13478043Y-15750714D01*
X13506614Y-15765000D01*
X13520900Y-15779286D01*
X13535185Y-15807857D01*
X13549471Y-15865000D01*
X13549471Y-15936429D01*
X13535185Y-15993571D01*
X13520900Y-16022143D01*
X13506614Y-16036429D01*
X13478043Y-16050714D01*
X13449471Y-16050714D01*
X13420900Y-16036429D01*
X13406614Y-16022143D01*
X13392328Y-15993571D01*
X13378043Y-15936429D01*
X13378043Y-15865000D01*
X13392328Y-15807857D01*
X13406614Y-15779286D01*
X13420900Y-15765000D01*
X13449471Y-15750714D01*
X13835185Y-16050714D02*
X13663757Y-16050714D01*
X13749471Y-16050714D02*
X13749471Y-15750714D01*
X13720900Y-15793571D01*
X13692328Y-15822143D01*
X13663757Y-15836429D01*
X14092328Y-15750714D02*
X14035185Y-15750714D01*
X14006614Y-15765000D01*
X13992328Y-15779286D01*
X13963757Y-15822143D01*
X13949471Y-15879286D01*
X13949471Y-15993571D01*
X13963757Y-16022143D01*
X13978043Y-16036429D01*
X14006614Y-16050714D01*
X14063757Y-16050714D01*
X14092328Y-16036429D01*
X14106614Y-16022143D01*
X14120900Y-15993571D01*
X14120900Y-15922143D01*
X14106614Y-15893571D01*
X14092328Y-15879286D01*
X14063757Y-15865000D01*
X14006614Y-15865000D01*
X13978043Y-15879286D01*
X13963757Y-15893571D01*
X13949471Y-15922143D01*
X14235186Y-15750714D02*
X14235186Y-15807857D01*
X14349471Y-15750714D02*
X14349471Y-15807857D01*
X14792328Y-16165000D02*
X14778043Y-16150714D01*
X14749471Y-16107857D01*
X14735185Y-16079286D01*
X14720900Y-16036429D01*
X14706614Y-15965000D01*
X14706614Y-15907857D01*
X14720900Y-15836429D01*
X14735185Y-15793571D01*
X14749471Y-15765000D01*
X14778043Y-15722143D01*
X14792328Y-15707857D01*
X15063757Y-16050714D02*
X14892328Y-16050714D01*
X14978043Y-16050714D02*
X14978043Y-15750714D01*
X14949471Y-15793571D01*
X14920900Y-15822143D01*
X14892328Y-15836429D01*
X15249471Y-15750714D02*
X15278043Y-15750714D01*
X15306614Y-15765000D01*
X15320900Y-15779286D01*
X15335185Y-15807857D01*
X15349471Y-15865000D01*
X15349471Y-15936429D01*
X15335185Y-15993571D01*
X15320900Y-16022143D01*
X15306614Y-16036429D01*
X15278043Y-16050714D01*
X15249471Y-16050714D01*
X15220900Y-16036429D01*
X15206614Y-16022143D01*
X15192328Y-15993571D01*
X15178043Y-15936429D01*
X15178043Y-15865000D01*
X15192328Y-15807857D01*
X15206614Y-15779286D01*
X15220900Y-15765000D01*
X15249471Y-15750714D01*
X15535185Y-15750714D02*
X15563757Y-15750714D01*
X15592328Y-15765000D01*
X15606614Y-15779286D01*
X15620900Y-15807857D01*
X15635185Y-15865000D01*
X15635185Y-15936429D01*
X15620900Y-15993571D01*
X15606614Y-16022143D01*
X15592328Y-16036429D01*
X15563757Y-16050714D01*
X15535185Y-16050714D01*
X15506614Y-16036429D01*
X15492328Y-16022143D01*
X15478043Y-15993571D01*
X15463757Y-15936429D01*
X15463757Y-15865000D01*
X15478043Y-15807857D01*
X15492328Y-15779286D01*
X15506614Y-15765000D01*
X15535185Y-15750714D01*
X15992328Y-16050714D02*
X15992328Y-15750714D01*
X16120900Y-16050714D02*
X16120900Y-15893571D01*
X16106614Y-15865000D01*
X16078043Y-15850714D01*
X16035185Y-15850714D01*
X16006614Y-15865000D01*
X15992328Y-15879286D01*
X16306614Y-16050714D02*
X16278043Y-16036429D01*
X16263757Y-16022143D01*
X16249471Y-15993571D01*
X16249471Y-15907857D01*
X16263757Y-15879286D01*
X16278043Y-15865000D01*
X16306614Y-15850714D01*
X16349471Y-15850714D01*
X16378043Y-15865000D01*
X16392328Y-15879286D01*
X16406614Y-15907857D01*
X16406614Y-15993571D01*
X16392328Y-16022143D01*
X16378043Y-16036429D01*
X16349471Y-16050714D01*
X16306614Y-16050714D01*
X16578043Y-16050714D02*
X16549471Y-16036429D01*
X16535186Y-16007857D01*
X16535186Y-15750714D01*
X16806614Y-16036429D02*
X16778043Y-16050714D01*
X16720900Y-16050714D01*
X16692328Y-16036429D01*
X16678043Y-16007857D01*
X16678043Y-15893571D01*
X16692328Y-15865000D01*
X16720900Y-15850714D01*
X16778043Y-15850714D01*
X16806614Y-15865000D01*
X16820900Y-15893571D01*
X16820900Y-15922143D01*
X16678043Y-15950714D01*
X16935186Y-16036429D02*
X16963757Y-16050714D01*
X17020900Y-16050714D01*
X17049471Y-16036429D01*
X17063757Y-16007857D01*
X17063757Y-15993571D01*
X17049471Y-15965000D01*
X17020900Y-15950714D01*
X16978043Y-15950714D01*
X16949471Y-15936429D01*
X16935186Y-15907857D01*
X16935186Y-15893571D01*
X16949471Y-15865000D01*
X16978043Y-15850714D01*
X17020900Y-15850714D01*
X17049471Y-15865000D01*
X17163757Y-16165000D02*
X17178043Y-16150714D01*
X17206614Y-16107857D01*
X17220900Y-16079286D01*
X17235186Y-16036429D01*
X17249471Y-15965000D01*
X17249471Y-15907857D01*
X17235186Y-15836429D01*
X17220900Y-15793571D01*
X17206614Y-15765000D01*
X17178043Y-15722143D01*
X17163757Y-15707857D01*
X10120900Y-16311000D02*
G75*
G03X10120900Y-16311000I-40000J0D01*
G01*
X10449471Y-16146714D02*
X10478043Y-16146714D01*
X10506614Y-16161000D01*
X10520900Y-16175286D01*
X10535186Y-16203857D01*
X10549471Y-16261000D01*
X10549471Y-16332429D01*
X10535186Y-16389571D01*
X10520900Y-16418143D01*
X10506614Y-16432429D01*
X10478043Y-16446714D01*
X10449471Y-16446714D01*
X10420900Y-16432429D01*
X10406614Y-16418143D01*
X10392329Y-16389571D01*
X10378043Y-16332429D01*
X10378043Y-16261000D01*
X10392329Y-16203857D01*
X10406614Y-16175286D01*
X10420900Y-16161000D01*
X10449471Y-16146714D01*
X10678043Y-16418143D02*
X10692329Y-16432429D01*
X10678043Y-16446714D01*
X10663757Y-16432429D01*
X10678043Y-16418143D01*
X10678043Y-16446714D01*
X10863757Y-16275286D02*
X10835186Y-16261000D01*
X10820900Y-16246714D01*
X10806614Y-16218143D01*
X10806614Y-16203857D01*
X10820900Y-16175286D01*
X10835186Y-16161000D01*
X10863757Y-16146714D01*
X10920900Y-16146714D01*
X10949471Y-16161000D01*
X10963757Y-16175286D01*
X10978043Y-16203857D01*
X10978043Y-16218143D01*
X10963757Y-16246714D01*
X10949471Y-16261000D01*
X10920900Y-16275286D01*
X10863757Y-16275286D01*
X10835186Y-16289571D01*
X10820900Y-16303857D01*
X10806614Y-16332429D01*
X10806614Y-16389571D01*
X10820900Y-16418143D01*
X10835186Y-16432429D01*
X10863757Y-16446714D01*
X10920900Y-16446714D01*
X10949471Y-16432429D01*
X10963757Y-16418143D01*
X10978043Y-16389571D01*
X10978043Y-16332429D01*
X10963757Y-16303857D01*
X10949471Y-16289571D01*
X10920900Y-16275286D01*
X11163757Y-16146714D02*
X11192328Y-16146714D01*
X11220900Y-16161000D01*
X11235186Y-16175286D01*
X11249471Y-16203857D01*
X11263757Y-16261000D01*
X11263757Y-16332429D01*
X11249471Y-16389571D01*
X11235186Y-16418143D01*
X11220900Y-16432429D01*
X11192328Y-16446714D01*
X11163757Y-16446714D01*
X11135186Y-16432429D01*
X11120900Y-16418143D01*
X11106614Y-16389571D01*
X11092329Y-16332429D01*
X11092329Y-16261000D01*
X11106614Y-16203857D01*
X11120900Y-16175286D01*
X11135186Y-16161000D01*
X11163757Y-16146714D01*
X11392328Y-16446714D02*
X11392328Y-16246714D01*
X11392328Y-16275286D02*
X11406614Y-16261000D01*
X11435186Y-16246714D01*
X11478043Y-16246714D01*
X11506614Y-16261000D01*
X11520900Y-16289571D01*
X11520900Y-16446714D01*
X11520900Y-16289571D02*
X11535186Y-16261000D01*
X11563757Y-16246714D01*
X11606614Y-16246714D01*
X11635186Y-16261000D01*
X11649471Y-16289571D01*
X11649471Y-16446714D01*
X11792328Y-16446714D02*
X11792328Y-16246714D01*
X11792328Y-16275286D02*
X11806614Y-16261000D01*
X11835186Y-16246714D01*
X11878043Y-16246714D01*
X11906614Y-16261000D01*
X11920900Y-16289571D01*
X11920900Y-16446714D01*
X11920900Y-16289571D02*
X11935186Y-16261000D01*
X11963757Y-16246714D01*
X12006614Y-16246714D01*
X12035186Y-16261000D01*
X12049471Y-16289571D01*
X12049471Y-16446714D01*
X12635186Y-16132429D02*
X12378043Y-16518143D01*
X13020900Y-16146714D02*
X13049471Y-16146714D01*
X13078043Y-16161000D01*
X13092328Y-16175286D01*
X13106614Y-16203857D01*
X13120900Y-16261000D01*
X13120900Y-16332429D01*
X13106614Y-16389571D01*
X13092328Y-16418143D01*
X13078043Y-16432429D01*
X13049471Y-16446714D01*
X13020900Y-16446714D01*
X12992328Y-16432429D01*
X12978043Y-16418143D01*
X12963757Y-16389571D01*
X12949471Y-16332429D01*
X12949471Y-16261000D01*
X12963757Y-16203857D01*
X12978043Y-16175286D01*
X12992328Y-16161000D01*
X13020900Y-16146714D01*
X13249471Y-16418143D02*
X13263757Y-16432429D01*
X13249471Y-16446714D01*
X13235186Y-16432429D01*
X13249471Y-16418143D01*
X13249471Y-16446714D01*
X13449471Y-16146714D02*
X13478043Y-16146714D01*
X13506614Y-16161000D01*
X13520900Y-16175286D01*
X13535185Y-16203857D01*
X13549471Y-16261000D01*
X13549471Y-16332429D01*
X13535185Y-16389571D01*
X13520900Y-16418143D01*
X13506614Y-16432429D01*
X13478043Y-16446714D01*
X13449471Y-16446714D01*
X13420900Y-16432429D01*
X13406614Y-16418143D01*
X13392328Y-16389571D01*
X13378043Y-16332429D01*
X13378043Y-16261000D01*
X13392328Y-16203857D01*
X13406614Y-16175286D01*
X13420900Y-16161000D01*
X13449471Y-16146714D01*
X13649471Y-16146714D02*
X13835185Y-16146714D01*
X13735185Y-16261000D01*
X13778043Y-16261000D01*
X13806614Y-16275286D01*
X13820900Y-16289571D01*
X13835185Y-16318143D01*
X13835185Y-16389571D01*
X13820900Y-16418143D01*
X13806614Y-16432429D01*
X13778043Y-16446714D01*
X13692328Y-16446714D01*
X13663757Y-16432429D01*
X13649471Y-16418143D01*
X14120900Y-16446714D02*
X13949471Y-16446714D01*
X14035185Y-16446714D02*
X14035185Y-16146714D01*
X14006614Y-16189571D01*
X13978043Y-16218143D01*
X13949471Y-16232429D01*
X14235186Y-16146714D02*
X14235186Y-16203857D01*
X14349471Y-16146714D02*
X14349471Y-16203857D01*
X14792328Y-16561000D02*
X14778043Y-16546714D01*
X14749471Y-16503857D01*
X14735185Y-16475286D01*
X14720900Y-16432429D01*
X14706614Y-16361000D01*
X14706614Y-16303857D01*
X14720900Y-16232429D01*
X14735185Y-16189571D01*
X14749471Y-16161000D01*
X14778043Y-16118143D01*
X14792328Y-16103857D01*
X15063757Y-16446714D02*
X14892328Y-16446714D01*
X14978043Y-16446714D02*
X14978043Y-16146714D01*
X14949471Y-16189571D01*
X14920900Y-16218143D01*
X14892328Y-16232429D01*
X15320900Y-16246714D02*
X15320900Y-16446714D01*
X15249471Y-16132429D02*
X15178043Y-16346714D01*
X15363757Y-16346714D01*
X15706614Y-16446714D02*
X15706614Y-16146714D01*
X15835185Y-16446714D02*
X15835185Y-16289571D01*
X15820900Y-16261000D01*
X15792328Y-16246714D01*
X15749471Y-16246714D01*
X15720900Y-16261000D01*
X15706614Y-16275286D01*
X16020900Y-16446714D02*
X15992328Y-16432429D01*
X15978043Y-16418143D01*
X15963757Y-16389571D01*
X15963757Y-16303857D01*
X15978043Y-16275286D01*
X15992328Y-16261000D01*
X16020900Y-16246714D01*
X16063757Y-16246714D01*
X16092328Y-16261000D01*
X16106614Y-16275286D01*
X16120900Y-16303857D01*
X16120900Y-16389571D01*
X16106614Y-16418143D01*
X16092328Y-16432429D01*
X16063757Y-16446714D01*
X16020900Y-16446714D01*
X16292328Y-16446714D02*
X16263757Y-16432429D01*
X16249471Y-16403857D01*
X16249471Y-16146714D01*
X16520900Y-16432429D02*
X16492328Y-16446714D01*
X16435186Y-16446714D01*
X16406614Y-16432429D01*
X16392328Y-16403857D01*
X16392328Y-16289571D01*
X16406614Y-16261000D01*
X16435186Y-16246714D01*
X16492328Y-16246714D01*
X16520900Y-16261000D01*
X16535186Y-16289571D01*
X16535186Y-16318143D01*
X16392328Y-16346714D01*
X16649471Y-16432429D02*
X16678043Y-16446714D01*
X16735186Y-16446714D01*
X16763757Y-16432429D01*
X16778043Y-16403857D01*
X16778043Y-16389571D01*
X16763757Y-16361000D01*
X16735186Y-16346714D01*
X16692328Y-16346714D01*
X16663757Y-16332429D01*
X16649471Y-16303857D01*
X16649471Y-16289571D01*
X16663757Y-16261000D01*
X16692328Y-16246714D01*
X16735186Y-16246714D01*
X16763757Y-16261000D01*
X16878043Y-16561000D02*
X16892329Y-16546714D01*
X16920900Y-16503857D01*
X16935186Y-16475286D01*
X16949471Y-16432429D01*
X16963757Y-16361000D01*
X16963757Y-16303857D01*
X16949471Y-16232429D01*
X16935186Y-16189571D01*
X16920900Y-16161000D01*
X16892329Y-16118143D01*
X16878043Y-16103857D01*
X10075900Y-16662000D02*
X10075900Y-16752000D01*
X10030900Y-16707000D02*
X10120900Y-16707000D01*
X10449471Y-16542714D02*
X10478043Y-16542714D01*
X10506614Y-16557000D01*
X10520900Y-16571286D01*
X10535186Y-16599857D01*
X10549471Y-16657000D01*
X10549471Y-16728429D01*
X10535186Y-16785572D01*
X10520900Y-16814143D01*
X10506614Y-16828429D01*
X10478043Y-16842714D01*
X10449471Y-16842714D01*
X10420900Y-16828429D01*
X10406614Y-16814143D01*
X10392329Y-16785572D01*
X10378043Y-16728429D01*
X10378043Y-16657000D01*
X10392329Y-16599857D01*
X10406614Y-16571286D01*
X10420900Y-16557000D01*
X10449471Y-16542714D01*
X10678043Y-16814143D02*
X10692329Y-16828429D01*
X10678043Y-16842714D01*
X10663757Y-16828429D01*
X10678043Y-16814143D01*
X10678043Y-16842714D01*
X10835186Y-16842714D02*
X10892328Y-16842714D01*
X10920900Y-16828429D01*
X10935186Y-16814143D01*
X10963757Y-16771286D01*
X10978043Y-16714143D01*
X10978043Y-16599857D01*
X10963757Y-16571286D01*
X10949471Y-16557000D01*
X10920900Y-16542714D01*
X10863757Y-16542714D01*
X10835186Y-16557000D01*
X10820900Y-16571286D01*
X10806614Y-16599857D01*
X10806614Y-16671286D01*
X10820900Y-16699857D01*
X10835186Y-16714143D01*
X10863757Y-16728429D01*
X10920900Y-16728429D01*
X10949471Y-16714143D01*
X10963757Y-16699857D01*
X10978043Y-16671286D01*
X11163757Y-16542714D02*
X11192328Y-16542714D01*
X11220900Y-16557000D01*
X11235186Y-16571286D01*
X11249471Y-16599857D01*
X11263757Y-16657000D01*
X11263757Y-16728429D01*
X11249471Y-16785572D01*
X11235186Y-16814143D01*
X11220900Y-16828429D01*
X11192328Y-16842714D01*
X11163757Y-16842714D01*
X11135186Y-16828429D01*
X11120900Y-16814143D01*
X11106614Y-16785572D01*
X11092329Y-16728429D01*
X11092329Y-16657000D01*
X11106614Y-16599857D01*
X11120900Y-16571286D01*
X11135186Y-16557000D01*
X11163757Y-16542714D01*
X11392328Y-16842714D02*
X11392328Y-16642714D01*
X11392328Y-16671286D02*
X11406614Y-16657000D01*
X11435186Y-16642714D01*
X11478043Y-16642714D01*
X11506614Y-16657000D01*
X11520900Y-16685571D01*
X11520900Y-16842714D01*
X11520900Y-16685571D02*
X11535186Y-16657000D01*
X11563757Y-16642714D01*
X11606614Y-16642714D01*
X11635186Y-16657000D01*
X11649471Y-16685571D01*
X11649471Y-16842714D01*
X11792328Y-16842714D02*
X11792328Y-16642714D01*
X11792328Y-16671286D02*
X11806614Y-16657000D01*
X11835186Y-16642714D01*
X11878043Y-16642714D01*
X11906614Y-16657000D01*
X11920900Y-16685571D01*
X11920900Y-16842714D01*
X11920900Y-16685571D02*
X11935186Y-16657000D01*
X11963757Y-16642714D01*
X12006614Y-16642714D01*
X12035186Y-16657000D01*
X12049471Y-16685571D01*
X12049471Y-16842714D01*
X12635186Y-16528429D02*
X12378043Y-16914143D01*
X13020900Y-16542714D02*
X13049471Y-16542714D01*
X13078043Y-16557000D01*
X13092328Y-16571286D01*
X13106614Y-16599857D01*
X13120900Y-16657000D01*
X13120900Y-16728429D01*
X13106614Y-16785572D01*
X13092328Y-16814143D01*
X13078043Y-16828429D01*
X13049471Y-16842714D01*
X13020900Y-16842714D01*
X12992328Y-16828429D01*
X12978043Y-16814143D01*
X12963757Y-16785572D01*
X12949471Y-16728429D01*
X12949471Y-16657000D01*
X12963757Y-16599857D01*
X12978043Y-16571286D01*
X12992328Y-16557000D01*
X13020900Y-16542714D01*
X13249471Y-16814143D02*
X13263757Y-16828429D01*
X13249471Y-16842714D01*
X13235186Y-16828429D01*
X13249471Y-16814143D01*
X13249471Y-16842714D01*
X13449471Y-16542714D02*
X13478043Y-16542714D01*
X13506614Y-16557000D01*
X13520900Y-16571286D01*
X13535185Y-16599857D01*
X13549471Y-16657000D01*
X13549471Y-16728429D01*
X13535185Y-16785572D01*
X13520900Y-16814143D01*
X13506614Y-16828429D01*
X13478043Y-16842714D01*
X13449471Y-16842714D01*
X13420900Y-16828429D01*
X13406614Y-16814143D01*
X13392328Y-16785572D01*
X13378043Y-16728429D01*
X13378043Y-16657000D01*
X13392328Y-16599857D01*
X13406614Y-16571286D01*
X13420900Y-16557000D01*
X13449471Y-16542714D01*
X13649471Y-16542714D02*
X13835185Y-16542714D01*
X13735185Y-16657000D01*
X13778043Y-16657000D01*
X13806614Y-16671286D01*
X13820900Y-16685571D01*
X13835185Y-16714143D01*
X13835185Y-16785572D01*
X13820900Y-16814143D01*
X13806614Y-16828429D01*
X13778043Y-16842714D01*
X13692328Y-16842714D01*
X13663757Y-16828429D01*
X13649471Y-16814143D01*
X14106614Y-16542714D02*
X13963757Y-16542714D01*
X13949471Y-16685571D01*
X13963757Y-16671286D01*
X13992328Y-16657000D01*
X14063757Y-16657000D01*
X14092328Y-16671286D01*
X14106614Y-16685571D01*
X14120900Y-16714143D01*
X14120900Y-16785572D01*
X14106614Y-16814143D01*
X14092328Y-16828429D01*
X14063757Y-16842714D01*
X13992328Y-16842714D01*
X13963757Y-16828429D01*
X13949471Y-16814143D01*
X14235186Y-16542714D02*
X14235186Y-16599857D01*
X14349471Y-16542714D02*
X14349471Y-16599857D01*
X14792328Y-16957000D02*
X14778043Y-16942714D01*
X14749471Y-16899857D01*
X14735185Y-16871286D01*
X14720900Y-16828429D01*
X14706614Y-16757000D01*
X14706614Y-16699857D01*
X14720900Y-16628429D01*
X14735185Y-16585571D01*
X14749471Y-16557000D01*
X14778043Y-16514143D01*
X14792328Y-16499857D01*
X14878043Y-16542714D02*
X15063757Y-16542714D01*
X14963757Y-16657000D01*
X15006614Y-16657000D01*
X15035185Y-16671286D01*
X15049471Y-16685571D01*
X15063757Y-16714143D01*
X15063757Y-16785572D01*
X15049471Y-16814143D01*
X15035185Y-16828429D01*
X15006614Y-16842714D01*
X14920900Y-16842714D01*
X14892328Y-16828429D01*
X14878043Y-16814143D01*
X15420900Y-16842714D02*
X15420900Y-16542714D01*
X15549471Y-16842714D02*
X15549471Y-16685571D01*
X15535185Y-16657000D01*
X15506614Y-16642714D01*
X15463757Y-16642714D01*
X15435185Y-16657000D01*
X15420900Y-16671286D01*
X15735185Y-16842714D02*
X15706614Y-16828429D01*
X15692328Y-16814143D01*
X15678043Y-16785572D01*
X15678043Y-16699857D01*
X15692328Y-16671286D01*
X15706614Y-16657000D01*
X15735185Y-16642714D01*
X15778043Y-16642714D01*
X15806614Y-16657000D01*
X15820900Y-16671286D01*
X15835185Y-16699857D01*
X15835185Y-16785572D01*
X15820900Y-16814143D01*
X15806614Y-16828429D01*
X15778043Y-16842714D01*
X15735185Y-16842714D01*
X16006614Y-16842714D02*
X15978043Y-16828429D01*
X15963757Y-16799857D01*
X15963757Y-16542714D01*
X16235186Y-16828429D02*
X16206614Y-16842714D01*
X16149471Y-16842714D01*
X16120900Y-16828429D01*
X16106614Y-16799857D01*
X16106614Y-16685571D01*
X16120900Y-16657000D01*
X16149471Y-16642714D01*
X16206614Y-16642714D01*
X16235186Y-16657000D01*
X16249471Y-16685571D01*
X16249471Y-16714143D01*
X16106614Y-16742714D01*
X16363757Y-16828429D02*
X16392328Y-16842714D01*
X16449471Y-16842714D01*
X16478043Y-16828429D01*
X16492328Y-16799857D01*
X16492328Y-16785572D01*
X16478043Y-16757000D01*
X16449471Y-16742714D01*
X16406614Y-16742714D01*
X16378043Y-16728429D01*
X16363757Y-16699857D01*
X16363757Y-16685571D01*
X16378043Y-16657000D01*
X16406614Y-16642714D01*
X16449471Y-16642714D01*
X16478043Y-16657000D01*
X16592328Y-16957000D02*
X16606614Y-16942714D01*
X16635186Y-16899857D01*
X16649471Y-16871286D01*
X16663757Y-16828429D01*
X16678043Y-16757000D01*
X16678043Y-16699857D01*
X16663757Y-16628429D01*
X16649471Y-16585571D01*
X16635186Y-16557000D01*
X16606614Y-16514143D01*
X16592328Y-16499857D01*
X10106256Y-17138356D02*
X10106256Y-17067644D01*
X10035544Y-17067644D01*
X10035544Y-17138356D01*
X10106256Y-17138356D01*
X10549471Y-17238714D02*
X10378043Y-17238714D01*
X10463757Y-17238714D02*
X10463757Y-16938714D01*
X10435186Y-16981572D01*
X10406614Y-17010143D01*
X10378043Y-17024429D01*
X10678043Y-17210143D02*
X10692329Y-17224429D01*
X10678043Y-17238714D01*
X10663757Y-17224429D01*
X10678043Y-17210143D01*
X10678043Y-17238714D01*
X10878043Y-16938714D02*
X10906614Y-16938714D01*
X10935186Y-16953000D01*
X10949471Y-16967286D01*
X10963757Y-16995857D01*
X10978043Y-17053000D01*
X10978043Y-17124429D01*
X10963757Y-17181572D01*
X10949471Y-17210143D01*
X10935186Y-17224429D01*
X10906614Y-17238714D01*
X10878043Y-17238714D01*
X10849471Y-17224429D01*
X10835186Y-17210143D01*
X10820900Y-17181572D01*
X10806614Y-17124429D01*
X10806614Y-17053000D01*
X10820900Y-16995857D01*
X10835186Y-16967286D01*
X10849471Y-16953000D01*
X10878043Y-16938714D01*
X11163757Y-16938714D02*
X11192328Y-16938714D01*
X11220900Y-16953000D01*
X11235186Y-16967286D01*
X11249471Y-16995857D01*
X11263757Y-17053000D01*
X11263757Y-17124429D01*
X11249471Y-17181572D01*
X11235186Y-17210143D01*
X11220900Y-17224429D01*
X11192328Y-17238714D01*
X11163757Y-17238714D01*
X11135186Y-17224429D01*
X11120900Y-17210143D01*
X11106614Y-17181572D01*
X11092329Y-17124429D01*
X11092329Y-17053000D01*
X11106614Y-16995857D01*
X11120900Y-16967286D01*
X11135186Y-16953000D01*
X11163757Y-16938714D01*
X11392328Y-17238714D02*
X11392328Y-17038714D01*
X11392328Y-17067286D02*
X11406614Y-17053000D01*
X11435186Y-17038714D01*
X11478043Y-17038714D01*
X11506614Y-17053000D01*
X11520900Y-17081572D01*
X11520900Y-17238714D01*
X11520900Y-17081572D02*
X11535186Y-17053000D01*
X11563757Y-17038714D01*
X11606614Y-17038714D01*
X11635186Y-17053000D01*
X11649471Y-17081572D01*
X11649471Y-17238714D01*
X11792328Y-17238714D02*
X11792328Y-17038714D01*
X11792328Y-17067286D02*
X11806614Y-17053000D01*
X11835186Y-17038714D01*
X11878043Y-17038714D01*
X11906614Y-17053000D01*
X11920900Y-17081572D01*
X11920900Y-17238714D01*
X11920900Y-17081572D02*
X11935186Y-17053000D01*
X11963757Y-17038714D01*
X12006614Y-17038714D01*
X12035186Y-17053000D01*
X12049471Y-17081572D01*
X12049471Y-17238714D01*
X12635186Y-16924429D02*
X12378043Y-17310143D01*
X13020900Y-16938714D02*
X13049471Y-16938714D01*
X13078043Y-16953000D01*
X13092328Y-16967286D01*
X13106614Y-16995857D01*
X13120900Y-17053000D01*
X13120900Y-17124429D01*
X13106614Y-17181572D01*
X13092328Y-17210143D01*
X13078043Y-17224429D01*
X13049471Y-17238714D01*
X13020900Y-17238714D01*
X12992328Y-17224429D01*
X12978043Y-17210143D01*
X12963757Y-17181572D01*
X12949471Y-17124429D01*
X12949471Y-17053000D01*
X12963757Y-16995857D01*
X12978043Y-16967286D01*
X12992328Y-16953000D01*
X13020900Y-16938714D01*
X13249471Y-17210143D02*
X13263757Y-17224429D01*
X13249471Y-17238714D01*
X13235186Y-17224429D01*
X13249471Y-17210143D01*
X13249471Y-17238714D01*
X13449471Y-16938714D02*
X13478043Y-16938714D01*
X13506614Y-16953000D01*
X13520900Y-16967286D01*
X13535185Y-16995857D01*
X13549471Y-17053000D01*
X13549471Y-17124429D01*
X13535185Y-17181572D01*
X13520900Y-17210143D01*
X13506614Y-17224429D01*
X13478043Y-17238714D01*
X13449471Y-17238714D01*
X13420900Y-17224429D01*
X13406614Y-17210143D01*
X13392328Y-17181572D01*
X13378043Y-17124429D01*
X13378043Y-17053000D01*
X13392328Y-16995857D01*
X13406614Y-16967286D01*
X13420900Y-16953000D01*
X13449471Y-16938714D01*
X13649471Y-16938714D02*
X13835185Y-16938714D01*
X13735185Y-17053000D01*
X13778043Y-17053000D01*
X13806614Y-17067286D01*
X13820900Y-17081572D01*
X13835185Y-17110143D01*
X13835185Y-17181572D01*
X13820900Y-17210143D01*
X13806614Y-17224429D01*
X13778043Y-17238714D01*
X13692328Y-17238714D01*
X13663757Y-17224429D01*
X13649471Y-17210143D01*
X13978043Y-17238714D02*
X14035185Y-17238714D01*
X14063757Y-17224429D01*
X14078043Y-17210143D01*
X14106614Y-17167286D01*
X14120900Y-17110143D01*
X14120900Y-16995857D01*
X14106614Y-16967286D01*
X14092328Y-16953000D01*
X14063757Y-16938714D01*
X14006614Y-16938714D01*
X13978043Y-16953000D01*
X13963757Y-16967286D01*
X13949471Y-16995857D01*
X13949471Y-17067286D01*
X13963757Y-17095857D01*
X13978043Y-17110143D01*
X14006614Y-17124429D01*
X14063757Y-17124429D01*
X14092328Y-17110143D01*
X14106614Y-17095857D01*
X14120900Y-17067286D01*
X14235186Y-16938714D02*
X14235186Y-16995857D01*
X14349471Y-16938714D02*
X14349471Y-16995857D01*
X14792328Y-17353000D02*
X14778043Y-17338714D01*
X14749471Y-17295857D01*
X14735185Y-17267286D01*
X14720900Y-17224429D01*
X14706614Y-17153000D01*
X14706614Y-17095857D01*
X14720900Y-17024429D01*
X14735185Y-16981572D01*
X14749471Y-16953000D01*
X14778043Y-16910143D01*
X14792328Y-16895857D01*
X15035185Y-16938714D02*
X14978043Y-16938714D01*
X14949471Y-16953000D01*
X14935185Y-16967286D01*
X14906614Y-17010143D01*
X14892328Y-17067286D01*
X14892328Y-17181572D01*
X14906614Y-17210143D01*
X14920900Y-17224429D01*
X14949471Y-17238714D01*
X15006614Y-17238714D01*
X15035185Y-17224429D01*
X15049471Y-17210143D01*
X15063757Y-17181572D01*
X15063757Y-17110143D01*
X15049471Y-17081572D01*
X15035185Y-17067286D01*
X15006614Y-17053000D01*
X14949471Y-17053000D01*
X14920900Y-17067286D01*
X14906614Y-17081572D01*
X14892328Y-17110143D01*
X15335185Y-16938714D02*
X15192328Y-16938714D01*
X15178043Y-17081572D01*
X15192328Y-17067286D01*
X15220900Y-17053000D01*
X15292328Y-17053000D01*
X15320900Y-17067286D01*
X15335185Y-17081572D01*
X15349471Y-17110143D01*
X15349471Y-17181572D01*
X15335185Y-17210143D01*
X15320900Y-17224429D01*
X15292328Y-17238714D01*
X15220900Y-17238714D01*
X15192328Y-17224429D01*
X15178043Y-17210143D01*
X15706614Y-17238714D02*
X15706614Y-16938714D01*
X15835185Y-17238714D02*
X15835185Y-17081572D01*
X15820900Y-17053000D01*
X15792328Y-17038714D01*
X15749471Y-17038714D01*
X15720900Y-17053000D01*
X15706614Y-17067286D01*
X16020900Y-17238714D02*
X15992328Y-17224429D01*
X15978043Y-17210143D01*
X15963757Y-17181572D01*
X15963757Y-17095857D01*
X15978043Y-17067286D01*
X15992328Y-17053000D01*
X16020900Y-17038714D01*
X16063757Y-17038714D01*
X16092328Y-17053000D01*
X16106614Y-17067286D01*
X16120900Y-17095857D01*
X16120900Y-17181572D01*
X16106614Y-17210143D01*
X16092328Y-17224429D01*
X16063757Y-17238714D01*
X16020900Y-17238714D01*
X16292328Y-17238714D02*
X16263757Y-17224429D01*
X16249471Y-17195857D01*
X16249471Y-16938714D01*
X16520900Y-17224429D02*
X16492328Y-17238714D01*
X16435186Y-17238714D01*
X16406614Y-17224429D01*
X16392328Y-17195857D01*
X16392328Y-17081572D01*
X16406614Y-17053000D01*
X16435186Y-17038714D01*
X16492328Y-17038714D01*
X16520900Y-17053000D01*
X16535186Y-17081572D01*
X16535186Y-17110143D01*
X16392328Y-17138714D01*
X16649471Y-17224429D02*
X16678043Y-17238714D01*
X16735186Y-17238714D01*
X16763757Y-17224429D01*
X16778043Y-17195857D01*
X16778043Y-17181572D01*
X16763757Y-17153000D01*
X16735186Y-17138714D01*
X16692328Y-17138714D01*
X16663757Y-17124429D01*
X16649471Y-17095857D01*
X16649471Y-17081572D01*
X16663757Y-17053000D01*
X16692328Y-17038714D01*
X16735186Y-17038714D01*
X16763757Y-17053000D01*
X16878043Y-17353000D02*
X16892329Y-17338714D01*
X16920900Y-17295857D01*
X16935186Y-17267286D01*
X16949471Y-17224429D01*
X16963757Y-17153000D01*
X16963757Y-17095857D01*
X16949471Y-17024429D01*
X16935186Y-16981572D01*
X16920900Y-16953000D01*
X16892329Y-16910143D01*
X16878043Y-16895857D01*
X10010900Y-17609000D02*
X10120900Y-17499000D01*
X10010900Y-17389000D01*
X9900900Y-17499000D01*
X10010900Y-17609000D01*
X10378043Y-17363286D02*
X10392329Y-17349000D01*
X10420900Y-17334714D01*
X10492329Y-17334714D01*
X10520900Y-17349000D01*
X10535186Y-17363286D01*
X10549471Y-17391857D01*
X10549471Y-17420429D01*
X10535186Y-17463286D01*
X10363757Y-17634714D01*
X10549471Y-17634714D01*
X10678043Y-17606143D02*
X10692329Y-17620429D01*
X10678043Y-17634714D01*
X10663757Y-17620429D01*
X10678043Y-17606143D01*
X10678043Y-17634714D01*
X10806614Y-17363286D02*
X10820900Y-17349000D01*
X10849471Y-17334714D01*
X10920900Y-17334714D01*
X10949471Y-17349000D01*
X10963757Y-17363286D01*
X10978043Y-17391857D01*
X10978043Y-17420429D01*
X10963757Y-17463286D01*
X10792328Y-17634714D01*
X10978043Y-17634714D01*
X11163757Y-17334714D02*
X11192328Y-17334714D01*
X11220900Y-17349000D01*
X11235186Y-17363286D01*
X11249471Y-17391857D01*
X11263757Y-17449000D01*
X11263757Y-17520429D01*
X11249471Y-17577572D01*
X11235186Y-17606143D01*
X11220900Y-17620429D01*
X11192328Y-17634714D01*
X11163757Y-17634714D01*
X11135186Y-17620429D01*
X11120900Y-17606143D01*
X11106614Y-17577572D01*
X11092329Y-17520429D01*
X11092329Y-17449000D01*
X11106614Y-17391857D01*
X11120900Y-17363286D01*
X11135186Y-17349000D01*
X11163757Y-17334714D01*
X11392328Y-17634714D02*
X11392328Y-17434714D01*
X11392328Y-17463286D02*
X11406614Y-17449000D01*
X11435186Y-17434714D01*
X11478043Y-17434714D01*
X11506614Y-17449000D01*
X11520900Y-17477572D01*
X11520900Y-17634714D01*
X11520900Y-17477572D02*
X11535186Y-17449000D01*
X11563757Y-17434714D01*
X11606614Y-17434714D01*
X11635186Y-17449000D01*
X11649471Y-17477572D01*
X11649471Y-17634714D01*
X11792328Y-17634714D02*
X11792328Y-17434714D01*
X11792328Y-17463286D02*
X11806614Y-17449000D01*
X11835186Y-17434714D01*
X11878043Y-17434714D01*
X11906614Y-17449000D01*
X11920900Y-17477572D01*
X11920900Y-17634714D01*
X11920900Y-17477572D02*
X11935186Y-17449000D01*
X11963757Y-17434714D01*
X12006614Y-17434714D01*
X12035186Y-17449000D01*
X12049471Y-17477572D01*
X12049471Y-17634714D01*
X12635186Y-17320429D02*
X12378043Y-17706143D01*
X13020900Y-17334714D02*
X13049471Y-17334714D01*
X13078043Y-17349000D01*
X13092328Y-17363286D01*
X13106614Y-17391857D01*
X13120900Y-17449000D01*
X13120900Y-17520429D01*
X13106614Y-17577572D01*
X13092328Y-17606143D01*
X13078043Y-17620429D01*
X13049471Y-17634714D01*
X13020900Y-17634714D01*
X12992328Y-17620429D01*
X12978043Y-17606143D01*
X12963757Y-17577572D01*
X12949471Y-17520429D01*
X12949471Y-17449000D01*
X12963757Y-17391857D01*
X12978043Y-17363286D01*
X12992328Y-17349000D01*
X13020900Y-17334714D01*
X13249471Y-17606143D02*
X13263757Y-17620429D01*
X13249471Y-17634714D01*
X13235186Y-17620429D01*
X13249471Y-17606143D01*
X13249471Y-17634714D01*
X13449471Y-17334714D02*
X13478043Y-17334714D01*
X13506614Y-17349000D01*
X13520900Y-17363286D01*
X13535185Y-17391857D01*
X13549471Y-17449000D01*
X13549471Y-17520429D01*
X13535185Y-17577572D01*
X13520900Y-17606143D01*
X13506614Y-17620429D01*
X13478043Y-17634714D01*
X13449471Y-17634714D01*
X13420900Y-17620429D01*
X13406614Y-17606143D01*
X13392328Y-17577572D01*
X13378043Y-17520429D01*
X13378043Y-17449000D01*
X13392328Y-17391857D01*
X13406614Y-17363286D01*
X13420900Y-17349000D01*
X13449471Y-17334714D01*
X13720900Y-17463286D02*
X13692328Y-17449000D01*
X13678043Y-17434714D01*
X13663757Y-17406143D01*
X13663757Y-17391857D01*
X13678043Y-17363286D01*
X13692328Y-17349000D01*
X13720900Y-17334714D01*
X13778043Y-17334714D01*
X13806614Y-17349000D01*
X13820900Y-17363286D01*
X13835185Y-17391857D01*
X13835185Y-17406143D01*
X13820900Y-17434714D01*
X13806614Y-17449000D01*
X13778043Y-17463286D01*
X13720900Y-17463286D01*
X13692328Y-17477572D01*
X13678043Y-17491857D01*
X13663757Y-17520429D01*
X13663757Y-17577572D01*
X13678043Y-17606143D01*
X13692328Y-17620429D01*
X13720900Y-17634714D01*
X13778043Y-17634714D01*
X13806614Y-17620429D01*
X13820900Y-17606143D01*
X13835185Y-17577572D01*
X13835185Y-17520429D01*
X13820900Y-17491857D01*
X13806614Y-17477572D01*
X13778043Y-17463286D01*
X13935185Y-17334714D02*
X14135185Y-17334714D01*
X14006614Y-17634714D01*
X14235186Y-17334714D02*
X14235186Y-17391857D01*
X14349471Y-17334714D02*
X14349471Y-17391857D01*
X14792328Y-17749000D02*
X14778043Y-17734714D01*
X14749471Y-17691857D01*
X14735185Y-17663286D01*
X14720900Y-17620429D01*
X14706614Y-17549000D01*
X14706614Y-17491857D01*
X14720900Y-17420429D01*
X14735185Y-17377572D01*
X14749471Y-17349000D01*
X14778043Y-17306143D01*
X14792328Y-17291857D01*
X15035185Y-17334714D02*
X14978043Y-17334714D01*
X14949471Y-17349000D01*
X14935185Y-17363286D01*
X14906614Y-17406143D01*
X14892328Y-17463286D01*
X14892328Y-17577572D01*
X14906614Y-17606143D01*
X14920900Y-17620429D01*
X14949471Y-17634714D01*
X15006614Y-17634714D01*
X15035185Y-17620429D01*
X15049471Y-17606143D01*
X15063757Y-17577572D01*
X15063757Y-17506143D01*
X15049471Y-17477572D01*
X15035185Y-17463286D01*
X15006614Y-17449000D01*
X14949471Y-17449000D01*
X14920900Y-17463286D01*
X14906614Y-17477572D01*
X14892328Y-17506143D01*
X15420900Y-17634714D02*
X15420900Y-17334714D01*
X15549471Y-17634714D02*
X15549471Y-17477572D01*
X15535185Y-17449000D01*
X15506614Y-17434714D01*
X15463757Y-17434714D01*
X15435185Y-17449000D01*
X15420900Y-17463286D01*
X15735185Y-17634714D02*
X15706614Y-17620429D01*
X15692328Y-17606143D01*
X15678043Y-17577572D01*
X15678043Y-17491857D01*
X15692328Y-17463286D01*
X15706614Y-17449000D01*
X15735185Y-17434714D01*
X15778043Y-17434714D01*
X15806614Y-17449000D01*
X15820900Y-17463286D01*
X15835185Y-17491857D01*
X15835185Y-17577572D01*
X15820900Y-17606143D01*
X15806614Y-17620429D01*
X15778043Y-17634714D01*
X15735185Y-17634714D01*
X16006614Y-17634714D02*
X15978043Y-17620429D01*
X15963757Y-17591857D01*
X15963757Y-17334714D01*
X16235186Y-17620429D02*
X16206614Y-17634714D01*
X16149471Y-17634714D01*
X16120900Y-17620429D01*
X16106614Y-17591857D01*
X16106614Y-17477572D01*
X16120900Y-17449000D01*
X16149471Y-17434714D01*
X16206614Y-17434714D01*
X16235186Y-17449000D01*
X16249471Y-17477572D01*
X16249471Y-17506143D01*
X16106614Y-17534714D01*
X16363757Y-17620429D02*
X16392328Y-17634714D01*
X16449471Y-17634714D01*
X16478043Y-17620429D01*
X16492328Y-17591857D01*
X16492328Y-17577572D01*
X16478043Y-17549000D01*
X16449471Y-17534714D01*
X16406614Y-17534714D01*
X16378043Y-17520429D01*
X16363757Y-17491857D01*
X16363757Y-17477572D01*
X16378043Y-17449000D01*
X16406614Y-17434714D01*
X16449471Y-17434714D01*
X16478043Y-17449000D01*
X16592328Y-17749000D02*
X16606614Y-17734714D01*
X16635186Y-17691857D01*
X16649471Y-17663286D01*
X16663757Y-17620429D01*
X16678043Y-17549000D01*
X16678043Y-17491857D01*
X16663757Y-17420429D01*
X16649471Y-17377572D01*
X16635186Y-17349000D01*
X16606614Y-17306143D01*
X16592328Y-17291857D01*
M02*
