%FSLAX45Y45*%
G04 Gerber Fmt 4.5, Leading zero omitted, Abs format (unit mm)*
G04 Created by KiCad (PCBNEW (5.0.1)-3) date 07.12.2018 05:25:07*
%MOMM*%
%LPD*%
G01*
G04 APERTURE LIST*
%ADD10C,0.100000*%
%ADD11C,0.200000*%
%ADD12C,0.300000*%
G04 APERTURE END LIST*
D10*
X8850000Y-8400000D02*
X9300000Y-8400000D01*
X8850000Y-8200000D02*
X9300000Y-8200000D01*
X9300000Y-8400000D02*
G75*
G03X9400000Y-8300000I0J100000D01*
G01*
X9400000Y-8300000D02*
G75*
G03X9300000Y-8200000I-100000J0D01*
G01*
X8750000Y-8300000D02*
G75*
G03X8850000Y-8400000I100000J0D01*
G01*
X8850000Y-8200000D02*
G75*
G03X8750000Y-8300000I0J-100000D01*
G01*
X8100000Y-9400000D02*
X8100000Y-14500000D01*
X8100000Y-8500000D02*
X8100000Y-8100000D01*
X8300000Y-8700000D02*
X8300000Y-9200000D01*
X8200000Y-9300000D02*
G75*
G03X8100000Y-9400000I0J-100000D01*
G01*
X8200000Y-9300000D02*
G75*
G03X8300000Y-9200000I0J100000D01*
G01*
X8300000Y-8700000D02*
G75*
G03X8200000Y-8600000I-100000J0D01*
G01*
X8100000Y-8500000D02*
G75*
G03X8200000Y-8600000I100000J0D01*
G01*
X12400000Y-8000000D02*
X12400000Y-11050000D01*
X12600000Y-11050000D02*
X12600000Y-8000000D01*
X12400000Y-11550000D02*
X12400000Y-14600000D01*
X12600000Y-14600000D02*
X12600000Y-11550000D01*
X8800000Y-15200000D02*
X12300000Y-15200000D01*
X12700000Y-15200000D02*
X15300000Y-15200000D01*
X12300000Y-7400000D02*
X8800000Y-7400000D01*
X12700000Y-7400000D02*
X15300000Y-7400000D01*
X12600000Y-15100000D02*
G75*
G03X12700000Y-15200000I100000J0D01*
G01*
X12600000Y-15100000D02*
G75*
G03X12500000Y-15000000I-100000J0D01*
G01*
X12500000Y-15000000D02*
G75*
G03X12400000Y-15100000I0J-100000D01*
G01*
X12300000Y-15200000D02*
G75*
G03X12400000Y-15100000I0J100000D01*
G01*
X12400000Y-7500000D02*
G75*
G03X12300000Y-7400000I-100000J0D01*
G01*
X12400000Y-7500000D02*
G75*
G03X12500000Y-7600000I100000J0D01*
G01*
X12500000Y-7600000D02*
G75*
G03X12600000Y-7500000I0J100000D01*
G01*
X12700000Y-7400000D02*
G75*
G03X12600000Y-7500000I0J-100000D01*
G01*
X16000000Y-8100000D02*
X16000000Y-14500000D01*
X8100000Y-14500000D02*
G75*
G03X8800000Y-15200000I700000J0D01*
G01*
X15300000Y-15200000D02*
G75*
G03X16000000Y-14500000I0J700000D01*
G01*
X16000000Y-8100000D02*
G75*
G03X15300000Y-7400000I-700000J0D01*
G01*
X8800000Y-7400000D02*
G75*
G03X8100000Y-8100000I0J-700000D01*
G01*
X12500000Y-11450000D02*
G75*
G03X12400000Y-11550000I0J-100000D01*
G01*
X12600000Y-11550000D02*
G75*
G03X12500000Y-11450000I-100000J0D01*
G01*
X12600000Y-8000000D02*
G75*
G03X12500000Y-7900000I-100000J0D01*
G01*
X12500000Y-7900000D02*
G75*
G03X12400000Y-8000000I0J-100000D01*
G01*
X12400000Y-11050000D02*
G75*
G03X12500000Y-11150000I100000J0D01*
G01*
X12500000Y-11150000D02*
G75*
G03X12600000Y-11050000I0J100000D01*
G01*
X12500000Y-14700000D02*
G75*
G03X12600000Y-14600000I0J100000D01*
G01*
X12400000Y-14600000D02*
G75*
G03X12500000Y-14700000I100000J0D01*
G01*
D11*
X8235000Y-8235000D02*
X8275000Y-8275000D01*
X8275000Y-8235000D02*
X8235000Y-8275000D01*
X8235000Y-9378000D02*
X8275000Y-9418000D01*
X8275000Y-9378000D02*
X8235000Y-9418000D01*
X8235000Y-14648500D02*
X8275000Y-14688500D01*
X8275000Y-14648500D02*
X8235000Y-14688500D01*
X8616000Y-9568500D02*
X8656000Y-9608500D01*
X8656000Y-9568500D02*
X8616000Y-9608500D01*
X8806500Y-13124500D02*
X8846500Y-13164500D01*
X8846500Y-13124500D02*
X8806500Y-13164500D01*
X8997000Y-10838500D02*
X9037000Y-10878500D01*
X9037000Y-10838500D02*
X8997000Y-10878500D01*
X9187500Y-10584500D02*
X9227500Y-10624500D01*
X9227500Y-10584500D02*
X9187500Y-10624500D01*
X9251000Y-10965500D02*
X9291000Y-11005500D01*
X9291000Y-10965500D02*
X9251000Y-11005500D01*
X9314500Y-12997500D02*
X9354500Y-13037500D01*
X9354500Y-12997500D02*
X9314500Y-13037500D01*
X9441500Y-9822500D02*
X9481500Y-9862500D01*
X9481500Y-9822500D02*
X9441500Y-9862500D01*
X9441500Y-11791000D02*
X9481500Y-11831000D01*
X9481500Y-11791000D02*
X9441500Y-11831000D01*
X9505000Y-8298500D02*
X9545000Y-8338500D01*
X9545000Y-8298500D02*
X9505000Y-8338500D01*
X9632000Y-9124000D02*
X9672000Y-9164000D01*
X9672000Y-9124000D02*
X9632000Y-9164000D01*
X9695500Y-8997000D02*
X9735500Y-9037000D01*
X9735500Y-8997000D02*
X9695500Y-9037000D01*
X9759000Y-8171500D02*
X9799000Y-8211500D01*
X9799000Y-8171500D02*
X9759000Y-8211500D01*
X9759000Y-9251000D02*
X9799000Y-9291000D01*
X9799000Y-9251000D02*
X9759000Y-9291000D01*
X9822500Y-8806500D02*
X9862500Y-8846500D01*
X9862500Y-8806500D02*
X9822500Y-8846500D01*
X9822500Y-10965500D02*
X9862500Y-11005500D01*
X9862500Y-10965500D02*
X9822500Y-11005500D01*
X9822500Y-11156000D02*
X9862500Y-11196000D01*
X9862500Y-11156000D02*
X9822500Y-11196000D01*
X9822500Y-11410000D02*
X9862500Y-11450000D01*
X9862500Y-11410000D02*
X9822500Y-11450000D01*
X9886000Y-8933500D02*
X9926000Y-8973500D01*
X9926000Y-8933500D02*
X9886000Y-8973500D01*
X9886000Y-11473500D02*
X9926000Y-11513500D01*
X9926000Y-11473500D02*
X9886000Y-11513500D01*
X9949500Y-10330500D02*
X9989500Y-10370500D01*
X9989500Y-10330500D02*
X9949500Y-10370500D01*
X9949500Y-10711500D02*
X9989500Y-10751500D01*
X9989500Y-10711500D02*
X9949500Y-10751500D01*
X9949500Y-11156000D02*
X9989500Y-11196000D01*
X9989500Y-11156000D02*
X9949500Y-11196000D01*
X10013000Y-12235500D02*
X10053000Y-12275500D01*
X10053000Y-12235500D02*
X10013000Y-12275500D01*
X10076500Y-10013000D02*
X10116500Y-10053000D01*
X10116500Y-10013000D02*
X10076500Y-10053000D01*
X10076500Y-10775000D02*
X10116500Y-10815000D01*
X10116500Y-10775000D02*
X10076500Y-10815000D01*
X10076500Y-11156000D02*
X10116500Y-11196000D01*
X10116500Y-11156000D02*
X10076500Y-11196000D01*
X10076500Y-12299000D02*
X10116500Y-12339000D01*
X10116500Y-12299000D02*
X10076500Y-12339000D01*
X10076500Y-12426000D02*
X10116500Y-12466000D01*
X10116500Y-12426000D02*
X10076500Y-12466000D01*
X10076500Y-14140500D02*
X10116500Y-14180500D01*
X10116500Y-14140500D02*
X10076500Y-14180500D01*
X10140000Y-10330500D02*
X10180000Y-10370500D01*
X10180000Y-10330500D02*
X10140000Y-10370500D01*
X10140000Y-12362500D02*
X10180000Y-12402500D01*
X10180000Y-12362500D02*
X10140000Y-12402500D01*
X10267000Y-10330500D02*
X10307000Y-10370500D01*
X10307000Y-10330500D02*
X10267000Y-10370500D01*
X10267000Y-10711500D02*
X10307000Y-10751500D01*
X10307000Y-10711500D02*
X10267000Y-10751500D01*
X10267000Y-13315000D02*
X10307000Y-13355000D01*
X10307000Y-13315000D02*
X10267000Y-13355000D01*
X10267000Y-13823000D02*
X10307000Y-13863000D01*
X10307000Y-13823000D02*
X10267000Y-13863000D01*
X10343200Y-11587800D02*
X10383200Y-11627800D01*
X10383200Y-11587800D02*
X10343200Y-11627800D01*
X10394000Y-12489500D02*
X10434000Y-12529500D01*
X10434000Y-12489500D02*
X10394000Y-12529500D01*
X10457500Y-9441500D02*
X10497500Y-9481500D01*
X10497500Y-9441500D02*
X10457500Y-9481500D01*
X10457500Y-11156000D02*
X10497500Y-11196000D01*
X10497500Y-11156000D02*
X10457500Y-11196000D01*
X10457500Y-11346500D02*
X10497500Y-11386500D01*
X10497500Y-11346500D02*
X10457500Y-11386500D01*
X10457500Y-14140500D02*
X10497500Y-14180500D01*
X10497500Y-14140500D02*
X10457500Y-14180500D01*
X10521000Y-9378000D02*
X10561000Y-9418000D01*
X10561000Y-9378000D02*
X10521000Y-9418000D01*
X10521000Y-10076500D02*
X10561000Y-10116500D01*
X10561000Y-10076500D02*
X10521000Y-10116500D01*
X10584500Y-10140000D02*
X10624500Y-10180000D01*
X10624500Y-10140000D02*
X10584500Y-10180000D01*
X10584500Y-12299000D02*
X10624500Y-12339000D01*
X10624500Y-12299000D02*
X10584500Y-12339000D01*
X10648000Y-9505000D02*
X10688000Y-9545000D01*
X10688000Y-9505000D02*
X10648000Y-9545000D01*
X10648000Y-10013000D02*
X10688000Y-10053000D01*
X10688000Y-10013000D02*
X10648000Y-10053000D01*
X10648000Y-11537000D02*
X10688000Y-11577000D01*
X10688000Y-11537000D02*
X10648000Y-11577000D01*
X10648000Y-12426000D02*
X10688000Y-12466000D01*
X10688000Y-12426000D02*
X10648000Y-12466000D01*
X10711500Y-11156000D02*
X10751500Y-11196000D01*
X10751500Y-11156000D02*
X10711500Y-11196000D01*
X10711500Y-12362500D02*
X10751500Y-12402500D01*
X10751500Y-12362500D02*
X10711500Y-12402500D01*
X10711500Y-12489500D02*
X10751500Y-12529500D01*
X10751500Y-12489500D02*
X10711500Y-12529500D01*
X10775000Y-12045000D02*
X10815000Y-12085000D01*
X10815000Y-12045000D02*
X10775000Y-12085000D01*
X10775000Y-13696000D02*
X10815000Y-13736000D01*
X10815000Y-13696000D02*
X10775000Y-13736000D01*
X11219500Y-11727500D02*
X11259500Y-11767500D01*
X11259500Y-11727500D02*
X11219500Y-11767500D01*
X11346500Y-9568500D02*
X11386500Y-9608500D01*
X11386500Y-9568500D02*
X11346500Y-9608500D01*
X11346500Y-10140000D02*
X11386500Y-10180000D01*
X11386500Y-10140000D02*
X11346500Y-10180000D01*
X11346500Y-10267000D02*
X11386500Y-10307000D01*
X11386500Y-10267000D02*
X11346500Y-10307000D01*
X11473500Y-10775000D02*
X11513500Y-10815000D01*
X11513500Y-10775000D02*
X11473500Y-10815000D01*
X11473500Y-10965500D02*
X11513500Y-11005500D01*
X11513500Y-10965500D02*
X11473500Y-11005500D01*
X11473500Y-11537000D02*
X11513500Y-11577000D01*
X11513500Y-11537000D02*
X11473500Y-11577000D01*
X11537000Y-7663500D02*
X11577000Y-7703500D01*
X11577000Y-7663500D02*
X11537000Y-7703500D01*
X11600500Y-12680000D02*
X11640500Y-12720000D01*
X11640500Y-12680000D02*
X11600500Y-12720000D01*
X12172000Y-14394500D02*
X12212000Y-14434500D01*
X12212000Y-14394500D02*
X12172000Y-14434500D01*
X13124500Y-14775500D02*
X13164500Y-14815500D01*
X13164500Y-14775500D02*
X13124500Y-14815500D01*
X14521500Y-13124500D02*
X14561500Y-13164500D01*
X14561500Y-13124500D02*
X14521500Y-13164500D01*
X15265000Y-14680000D02*
X15305000Y-14720000D01*
X15305000Y-14680000D02*
X15265000Y-14720000D01*
X15313327Y-14563327D02*
X15353327Y-14603327D01*
X15353327Y-14563327D02*
X15313327Y-14603327D01*
X15313327Y-14796673D02*
X15353327Y-14836673D01*
X15353327Y-14796673D02*
X15313327Y-14836673D01*
X15430000Y-14515000D02*
X15470000Y-14555000D01*
X15470000Y-14515000D02*
X15430000Y-14555000D01*
X15430000Y-14845000D02*
X15470000Y-14885000D01*
X15470000Y-14845000D02*
X15430000Y-14885000D01*
X15546673Y-14563327D02*
X15586673Y-14603327D01*
X15586673Y-14563327D02*
X15546673Y-14603327D01*
X15546673Y-14796673D02*
X15586673Y-14836673D01*
X15586673Y-14796673D02*
X15546673Y-14836673D01*
X15595000Y-14680000D02*
X15635000Y-14720000D01*
X15635000Y-14680000D02*
X15595000Y-14720000D01*
X8465000Y-7880000D02*
X8505000Y-7920000D01*
X8505000Y-7880000D02*
X8465000Y-7920000D01*
X8513327Y-7763327D02*
X8553327Y-7803327D01*
X8553327Y-7763327D02*
X8513327Y-7803327D01*
X8513327Y-7996673D02*
X8553327Y-8036673D01*
X8553327Y-7996673D02*
X8513327Y-8036673D01*
X8630000Y-7715000D02*
X8670000Y-7755000D01*
X8670000Y-7715000D02*
X8630000Y-7755000D01*
X8630000Y-8045000D02*
X8670000Y-8085000D01*
X8670000Y-8045000D02*
X8630000Y-8085000D01*
X8746673Y-7763327D02*
X8786673Y-7803327D01*
X8786673Y-7763327D02*
X8746673Y-7803327D01*
X8746673Y-7996673D02*
X8786673Y-8036673D01*
X8786673Y-7996673D02*
X8746673Y-8036673D01*
X8795000Y-7880000D02*
X8835000Y-7920000D01*
X8835000Y-7880000D02*
X8795000Y-7920000D01*
X11865000Y-14680000D02*
X11905000Y-14720000D01*
X11905000Y-14680000D02*
X11865000Y-14720000D01*
X11913327Y-14563327D02*
X11953327Y-14603327D01*
X11953327Y-14563327D02*
X11913327Y-14603327D01*
X11913327Y-14796673D02*
X11953327Y-14836673D01*
X11953327Y-14796673D02*
X11913327Y-14836673D01*
X12030000Y-14515000D02*
X12070000Y-14555000D01*
X12070000Y-14515000D02*
X12030000Y-14555000D01*
X12030000Y-14845000D02*
X12070000Y-14885000D01*
X12070000Y-14845000D02*
X12030000Y-14885000D01*
X12146673Y-14563327D02*
X12186673Y-14603327D01*
X12186673Y-14563327D02*
X12146673Y-14603327D01*
X12146673Y-14796673D02*
X12186673Y-14836673D01*
X12186673Y-14796673D02*
X12146673Y-14836673D01*
X12195000Y-14680000D02*
X12235000Y-14720000D01*
X12235000Y-14680000D02*
X12195000Y-14720000D01*
X8465000Y-14680000D02*
X8505000Y-14720000D01*
X8505000Y-14680000D02*
X8465000Y-14720000D01*
X8513327Y-14563327D02*
X8553327Y-14603327D01*
X8553327Y-14563327D02*
X8513327Y-14603327D01*
X8513327Y-14796673D02*
X8553327Y-14836673D01*
X8553327Y-14796673D02*
X8513327Y-14836673D01*
X8630000Y-14515000D02*
X8670000Y-14555000D01*
X8670000Y-14515000D02*
X8630000Y-14555000D01*
X8630000Y-14845000D02*
X8670000Y-14885000D01*
X8670000Y-14845000D02*
X8630000Y-14885000D01*
X8746673Y-14563327D02*
X8786673Y-14603327D01*
X8786673Y-14563327D02*
X8746673Y-14603327D01*
X8746673Y-14796673D02*
X8786673Y-14836673D01*
X8786673Y-14796673D02*
X8746673Y-14836673D01*
X8795000Y-14680000D02*
X8835000Y-14720000D01*
X8835000Y-14680000D02*
X8795000Y-14720000D01*
X15265000Y-7880000D02*
X15305000Y-7920000D01*
X15305000Y-7880000D02*
X15265000Y-7920000D01*
X15313327Y-7763327D02*
X15353327Y-7803327D01*
X15353327Y-7763327D02*
X15313327Y-7803327D01*
X15313327Y-7996673D02*
X15353327Y-8036673D01*
X15353327Y-7996673D02*
X15313327Y-8036673D01*
X15430000Y-7715000D02*
X15470000Y-7755000D01*
X15470000Y-7715000D02*
X15430000Y-7755000D01*
X15430000Y-8045000D02*
X15470000Y-8085000D01*
X15470000Y-8045000D02*
X15430000Y-8085000D01*
X15546673Y-7763327D02*
X15586673Y-7803327D01*
X15586673Y-7763327D02*
X15546673Y-7803327D01*
X15546673Y-7996673D02*
X15586673Y-8036673D01*
X15586673Y-7996673D02*
X15546673Y-8036673D01*
X15595000Y-7880000D02*
X15635000Y-7920000D01*
X15635000Y-7880000D02*
X15595000Y-7920000D01*
X11865000Y-7880000D02*
X11905000Y-7920000D01*
X11905000Y-7880000D02*
X11865000Y-7920000D01*
X11913327Y-7763327D02*
X11953327Y-7803327D01*
X11953327Y-7763327D02*
X11913327Y-7803327D01*
X11913327Y-7996673D02*
X11953327Y-8036673D01*
X11953327Y-7996673D02*
X11913327Y-8036673D01*
X12030000Y-7715000D02*
X12070000Y-7755000D01*
X12070000Y-7715000D02*
X12030000Y-7755000D01*
X12030000Y-8045000D02*
X12070000Y-8085000D01*
X12070000Y-8045000D02*
X12030000Y-8085000D01*
X12146673Y-7763327D02*
X12186673Y-7803327D01*
X12186673Y-7763327D02*
X12146673Y-7803327D01*
X12146673Y-7996673D02*
X12186673Y-8036673D01*
X12186673Y-7996673D02*
X12146673Y-8036673D01*
X12195000Y-7880000D02*
X12235000Y-7920000D01*
X12235000Y-7880000D02*
X12195000Y-7920000D01*
X8318000Y-10100500D02*
G75*
G03X8318000Y-10100500I-40000J0D01*
G01*
X8518000Y-10100500D02*
G75*
G03X8518000Y-10100500I-40000J0D01*
G01*
X8718000Y-10100500D02*
G75*
G03X8718000Y-10100500I-40000J0D01*
G01*
X8918000Y-10100500D02*
G75*
G03X8918000Y-10100500I-40000J0D01*
G01*
X9118000Y-10100500D02*
G75*
G03X9118000Y-10100500I-40000J0D01*
G01*
X9518000Y-10100500D02*
G75*
G03X9518000Y-10100500I-40000J0D01*
G01*
X9718000Y-10100500D02*
G75*
G03X9718000Y-10100500I-40000J0D01*
G01*
X15090000Y-8490000D02*
G75*
G03X15090000Y-8490000I-40000J0D01*
G01*
X15090000Y-13810000D02*
G75*
G03X15090000Y-13810000I-40000J0D01*
G01*
X13290000Y-8490000D02*
G75*
G03X13290000Y-8490000I-40000J0D01*
G01*
X13290000Y-13810000D02*
G75*
G03X13290000Y-13810000I-40000J0D01*
G01*
X8676000Y-11049000D02*
G75*
G03X8676000Y-11049000I-40000J0D01*
G01*
X8676000Y-11537000D02*
G75*
G03X8676000Y-11537000I-40000J0D01*
G01*
X10077000Y-8356000D02*
G75*
G03X10077000Y-8356000I-40000J0D01*
G01*
X10077000Y-8556000D02*
G75*
G03X10077000Y-8556000I-40000J0D01*
G01*
X10077000Y-8956000D02*
G75*
G03X10077000Y-8956000I-40000J0D01*
G01*
X10077000Y-9156000D02*
G75*
G03X10077000Y-9156000I-40000J0D01*
G01*
X10077000Y-9356000D02*
G75*
G03X10077000Y-9356000I-40000J0D01*
G01*
X10077000Y-9556000D02*
G75*
G03X10077000Y-9556000I-40000J0D01*
G01*
X10077000Y-9756000D02*
G75*
G03X10077000Y-9756000I-40000J0D01*
G01*
X8676000Y-12286500D02*
G75*
G03X8676000Y-12286500I-40000J0D01*
G01*
X8676000Y-12636500D02*
G75*
G03X8676000Y-12636500I-40000J0D01*
G01*
X10668000Y-8083000D02*
X10668000Y-8173000D01*
X10623000Y-8128000D02*
X10713000Y-8128000D01*
X10922000Y-8083000D02*
X10922000Y-8173000D01*
X10877000Y-8128000D02*
X10967000Y-8128000D01*
X11176000Y-8083000D02*
X11176000Y-8173000D01*
X11131000Y-8128000D02*
X11221000Y-8128000D01*
X9369856Y-7718856D02*
X9369856Y-7648144D01*
X9299144Y-7648144D01*
X9299144Y-7718856D01*
X9369856Y-7718856D01*
X9369856Y-7972856D02*
X9369856Y-7902144D01*
X9299144Y-7902144D01*
X9299144Y-7972856D01*
X9369856Y-7972856D01*
X9623856Y-7718856D02*
X9623856Y-7648144D01*
X9553144Y-7648144D01*
X9553144Y-7718856D01*
X9623856Y-7718856D01*
X9623856Y-7972856D02*
X9623856Y-7902144D01*
X9553144Y-7902144D01*
X9553144Y-7972856D01*
X9623856Y-7972856D01*
X9877856Y-7718856D02*
X9877856Y-7648144D01*
X9807144Y-7648144D01*
X9807144Y-7718856D01*
X9877856Y-7718856D01*
X9877856Y-7972856D02*
X9877856Y-7902144D01*
X9807144Y-7902144D01*
X9807144Y-7972856D01*
X9877856Y-7972856D01*
X8544356Y-13116356D02*
X8544356Y-13045644D01*
X8473644Y-13045644D01*
X8473644Y-13116356D01*
X8544356Y-13116356D01*
X8544356Y-13370356D02*
X8544356Y-13299644D01*
X8473644Y-13299644D01*
X8473644Y-13370356D01*
X8544356Y-13370356D01*
X8544356Y-13624356D02*
X8544356Y-13553644D01*
X8473644Y-13553644D01*
X8473644Y-13624356D01*
X8544356Y-13624356D01*
X8544356Y-13878356D02*
X8544356Y-13807644D01*
X8473644Y-13807644D01*
X8473644Y-13878356D01*
X8544356Y-13878356D01*
X12100356Y-13116356D02*
X12100356Y-13045644D01*
X12029644Y-13045644D01*
X12029644Y-13116356D01*
X12100356Y-13116356D01*
X12100356Y-13370356D02*
X12100356Y-13299644D01*
X12029644Y-13299644D01*
X12029644Y-13370356D01*
X12100356Y-13370356D01*
X12100356Y-13624356D02*
X12100356Y-13553644D01*
X12029644Y-13553644D01*
X12029644Y-13624356D01*
X12100356Y-13624356D01*
X12100356Y-13878356D02*
X12100356Y-13807644D01*
X12029644Y-13807644D01*
X12029644Y-13878356D01*
X12100356Y-13878356D01*
X10576356Y-13116356D02*
X10576356Y-13045644D01*
X10505644Y-13045644D01*
X10505644Y-13116356D01*
X10576356Y-13116356D01*
X10576356Y-13370356D02*
X10576356Y-13299644D01*
X10505644Y-13299644D01*
X10505644Y-13370356D01*
X10576356Y-13370356D01*
X10576356Y-13624356D02*
X10576356Y-13553644D01*
X10505644Y-13553644D01*
X10505644Y-13624356D01*
X10576356Y-13624356D01*
X10576356Y-13878356D02*
X10576356Y-13807644D01*
X10505644Y-13807644D01*
X10505644Y-13878356D01*
X10576356Y-13878356D01*
X13941856Y-10893856D02*
X13941856Y-10823144D01*
X13871144Y-10823144D01*
X13871144Y-10893856D01*
X13941856Y-10893856D01*
X14195856Y-10893856D02*
X14195856Y-10823144D01*
X14125144Y-10823144D01*
X14125144Y-10893856D01*
X14195856Y-10893856D01*
X14449856Y-10893856D02*
X14449856Y-10823144D01*
X14379144Y-10823144D01*
X14379144Y-10893856D01*
X14449856Y-10893856D01*
X14703856Y-10893856D02*
X14703856Y-10823144D01*
X14633144Y-10823144D01*
X14633144Y-10893856D01*
X14703856Y-10893856D01*
X11592356Y-8417356D02*
X11592356Y-8346644D01*
X11521644Y-8346644D01*
X11521644Y-8417356D01*
X11592356Y-8417356D01*
X11592356Y-8671356D02*
X11592356Y-8600644D01*
X11521644Y-8600644D01*
X11521644Y-8671356D01*
X11592356Y-8671356D01*
X11592356Y-8925356D02*
X11592356Y-8854644D01*
X11521644Y-8854644D01*
X11521644Y-8925356D01*
X11592356Y-8925356D01*
X11592356Y-9179356D02*
X11592356Y-9108644D01*
X11521644Y-9108644D01*
X11521644Y-9179356D01*
X11592356Y-9179356D01*
X11592356Y-9433356D02*
X11592356Y-9362644D01*
X11521644Y-9362644D01*
X11521644Y-9433356D01*
X11592356Y-9433356D01*
X11592356Y-9687356D02*
X11592356Y-9616644D01*
X11521644Y-9616644D01*
X11521644Y-9687356D01*
X11592356Y-9687356D01*
X11592356Y-9941356D02*
X11592356Y-9870644D01*
X11521644Y-9870644D01*
X11521644Y-9941356D01*
X11592356Y-9941356D01*
X11592356Y-10195356D02*
X11592356Y-10124644D01*
X11521644Y-10124644D01*
X11521644Y-10195356D01*
X11592356Y-10195356D01*
X11592356Y-10449356D02*
X11592356Y-10378644D01*
X11521644Y-10378644D01*
X11521644Y-10449356D01*
X11592356Y-10449356D01*
X11846356Y-8417356D02*
X11846356Y-8346644D01*
X11775644Y-8346644D01*
X11775644Y-8417356D01*
X11846356Y-8417356D01*
X11846356Y-8671356D02*
X11846356Y-8600644D01*
X11775644Y-8600644D01*
X11775644Y-8671356D01*
X11846356Y-8671356D01*
X11846356Y-8925356D02*
X11846356Y-8854644D01*
X11775644Y-8854644D01*
X11775644Y-8925356D01*
X11846356Y-8925356D01*
X11846356Y-9179356D02*
X11846356Y-9108644D01*
X11775644Y-9108644D01*
X11775644Y-9179356D01*
X11846356Y-9179356D01*
X11846356Y-9433356D02*
X11846356Y-9362644D01*
X11775644Y-9362644D01*
X11775644Y-9433356D01*
X11846356Y-9433356D01*
X11846356Y-9687356D02*
X11846356Y-9616644D01*
X11775644Y-9616644D01*
X11775644Y-9687356D01*
X11846356Y-9687356D01*
X11846356Y-9941356D02*
X11846356Y-9870644D01*
X11775644Y-9870644D01*
X11775644Y-9941356D01*
X11846356Y-9941356D01*
X11846356Y-10195356D02*
X11846356Y-10124644D01*
X11775644Y-10124644D01*
X11775644Y-10195356D01*
X11846356Y-10195356D01*
X11846356Y-10449356D02*
X11846356Y-10378644D01*
X11775644Y-10378644D01*
X11775644Y-10449356D01*
X11846356Y-10449356D01*
X10068356Y-13116356D02*
X10068356Y-13045644D01*
X9997644Y-13045644D01*
X9997644Y-13116356D01*
X10068356Y-13116356D01*
X10068356Y-13370356D02*
X10068356Y-13299644D01*
X9997644Y-13299644D01*
X9997644Y-13370356D01*
X10068356Y-13370356D01*
X10068356Y-13624356D02*
X10068356Y-13553644D01*
X9997644Y-13553644D01*
X9997644Y-13624356D01*
X10068356Y-13624356D01*
X10068356Y-13878356D02*
X10068356Y-13807644D01*
X9997644Y-13807644D01*
X9997644Y-13878356D01*
X10068356Y-13878356D01*
X11846356Y-10703356D02*
X11846356Y-10632644D01*
X11775644Y-10632644D01*
X11775644Y-10703356D01*
X11846356Y-10703356D01*
X11846356Y-10957356D02*
X11846356Y-10886644D01*
X11775644Y-10886644D01*
X11775644Y-10957356D01*
X11846356Y-10957356D01*
X11846356Y-11211356D02*
X11846356Y-11140644D01*
X11775644Y-11140644D01*
X11775644Y-11211356D01*
X11846356Y-11211356D01*
X11846356Y-11465356D02*
X11846356Y-11394644D01*
X11775644Y-11394644D01*
X11775644Y-11465356D01*
X11846356Y-11465356D01*
X11846356Y-11719356D02*
X11846356Y-11648644D01*
X11775644Y-11648644D01*
X11775644Y-11719356D01*
X11846356Y-11719356D01*
X11846356Y-11973356D02*
X11846356Y-11902644D01*
X11775644Y-11902644D01*
X11775644Y-11973356D01*
X11846356Y-11973356D01*
X11846356Y-12227356D02*
X11846356Y-12156644D01*
X11775644Y-12156644D01*
X11775644Y-12227356D01*
X11846356Y-12227356D01*
X11846356Y-12481356D02*
X11846356Y-12410644D01*
X11775644Y-12410644D01*
X11775644Y-12481356D01*
X11846356Y-12481356D01*
X11846356Y-12735356D02*
X11846356Y-12664644D01*
X11775644Y-12664644D01*
X11775644Y-12735356D01*
X11846356Y-12735356D01*
X12100356Y-10703356D02*
X12100356Y-10632644D01*
X12029644Y-10632644D01*
X12029644Y-10703356D01*
X12100356Y-10703356D01*
X12100356Y-10957356D02*
X12100356Y-10886644D01*
X12029644Y-10886644D01*
X12029644Y-10957356D01*
X12100356Y-10957356D01*
X12100356Y-11211356D02*
X12100356Y-11140644D01*
X12029644Y-11140644D01*
X12029644Y-11211356D01*
X12100356Y-11211356D01*
X12100356Y-11465356D02*
X12100356Y-11394644D01*
X12029644Y-11394644D01*
X12029644Y-11465356D01*
X12100356Y-11465356D01*
X12100356Y-11719356D02*
X12100356Y-11648644D01*
X12029644Y-11648644D01*
X12029644Y-11719356D01*
X12100356Y-11719356D01*
X12100356Y-11973356D02*
X12100356Y-11902644D01*
X12029644Y-11902644D01*
X12029644Y-11973356D01*
X12100356Y-11973356D01*
X12100356Y-12227356D02*
X12100356Y-12156644D01*
X12029644Y-12156644D01*
X12029644Y-12227356D01*
X12100356Y-12227356D01*
X12100356Y-12481356D02*
X12100356Y-12410644D01*
X12029644Y-12410644D01*
X12029644Y-12481356D01*
X12100356Y-12481356D01*
X12100356Y-12735356D02*
X12100356Y-12664644D01*
X12029644Y-12664644D01*
X12029644Y-12735356D01*
X12100356Y-12735356D01*
X9242856Y-14957856D02*
X9242856Y-14887144D01*
X9172144Y-14887144D01*
X9172144Y-14957856D01*
X9242856Y-14957856D01*
X9496856Y-14957856D02*
X9496856Y-14887144D01*
X9426144Y-14887144D01*
X9426144Y-14957856D01*
X9496856Y-14957856D01*
X9750856Y-14957856D02*
X9750856Y-14887144D01*
X9680144Y-14887144D01*
X9680144Y-14957856D01*
X9750856Y-14957856D01*
X10004856Y-14957856D02*
X10004856Y-14887144D01*
X9934144Y-14887144D01*
X9934144Y-14957856D01*
X10004856Y-14957856D01*
X10258856Y-14957856D02*
X10258856Y-14887144D01*
X10188144Y-14887144D01*
X10188144Y-14957856D01*
X10258856Y-14957856D01*
X10512856Y-14957856D02*
X10512856Y-14887144D01*
X10442144Y-14887144D01*
X10442144Y-14957856D01*
X10512856Y-14957856D01*
X12100356Y-9941356D02*
X12100356Y-9870644D01*
X12029644Y-9870644D01*
X12029644Y-9941356D01*
X12100356Y-9941356D01*
X12100356Y-10195356D02*
X12100356Y-10124644D01*
X12029644Y-10124644D01*
X12029644Y-10195356D01*
X12100356Y-10195356D01*
X11303000Y-14860500D02*
X11368000Y-14795500D01*
X11303000Y-14730500D01*
X11238000Y-14795500D01*
X11303000Y-14860500D01*
X11557000Y-14860500D02*
X11622000Y-14795500D01*
X11557000Y-14730500D01*
X11492000Y-14795500D01*
X11557000Y-14860500D01*
X15340000Y-14590000D02*
X15560000Y-14810000D01*
X15560000Y-14590000D02*
X15340000Y-14810000D01*
X15560000Y-14700000D02*
G75*
G03X15560000Y-14700000I-110000J0D01*
G01*
X8540000Y-7790000D02*
X8760000Y-8010000D01*
X8760000Y-7790000D02*
X8540000Y-8010000D01*
X8760000Y-7900000D02*
G75*
G03X8760000Y-7900000I-110000J0D01*
G01*
X11940000Y-14590000D02*
X12160000Y-14810000D01*
X12160000Y-14590000D02*
X11940000Y-14810000D01*
X12160000Y-14700000D02*
G75*
G03X12160000Y-14700000I-110000J0D01*
G01*
X8540000Y-14590000D02*
X8760000Y-14810000D01*
X8760000Y-14590000D02*
X8540000Y-14810000D01*
X8760000Y-14700000D02*
G75*
G03X8760000Y-14700000I-110000J0D01*
G01*
X15340000Y-7790000D02*
X15560000Y-8010000D01*
X15560000Y-7790000D02*
X15340000Y-8010000D01*
X15560000Y-7900000D02*
G75*
G03X15560000Y-7900000I-110000J0D01*
G01*
X11940000Y-7790000D02*
X12160000Y-8010000D01*
X12160000Y-7790000D02*
X11940000Y-8010000D01*
X12160000Y-7900000D02*
G75*
G03X12160000Y-7900000I-110000J0D01*
G01*
D12*
X8381428Y-15670714D02*
X8381428Y-15370714D01*
X8452857Y-15370714D01*
X8495714Y-15385000D01*
X8524286Y-15413571D01*
X8538571Y-15442143D01*
X8552857Y-15499286D01*
X8552857Y-15542143D01*
X8538571Y-15599286D01*
X8524286Y-15627857D01*
X8495714Y-15656429D01*
X8452857Y-15670714D01*
X8381428Y-15670714D01*
X8681428Y-15670714D02*
X8681428Y-15470714D01*
X8681428Y-15527857D02*
X8695714Y-15499286D01*
X8710000Y-15485000D01*
X8738571Y-15470714D01*
X8767143Y-15470714D01*
X8867143Y-15670714D02*
X8867143Y-15470714D01*
X8867143Y-15370714D02*
X8852857Y-15385000D01*
X8867143Y-15399286D01*
X8881428Y-15385000D01*
X8867143Y-15370714D01*
X8867143Y-15399286D01*
X9052857Y-15670714D02*
X9024286Y-15656429D01*
X9010000Y-15627857D01*
X9010000Y-15370714D01*
X9210000Y-15670714D02*
X9181428Y-15656429D01*
X9167143Y-15627857D01*
X9167143Y-15370714D01*
X9552857Y-15670714D02*
X9552857Y-15370714D01*
X9652857Y-15585000D01*
X9752857Y-15370714D01*
X9752857Y-15670714D01*
X10024286Y-15670714D02*
X10024286Y-15513571D01*
X10010000Y-15485000D01*
X9981428Y-15470714D01*
X9924286Y-15470714D01*
X9895714Y-15485000D01*
X10024286Y-15656429D02*
X9995714Y-15670714D01*
X9924286Y-15670714D01*
X9895714Y-15656429D01*
X9881428Y-15627857D01*
X9881428Y-15599286D01*
X9895714Y-15570714D01*
X9924286Y-15556429D01*
X9995714Y-15556429D01*
X10024286Y-15542143D01*
X10167143Y-15470714D02*
X10167143Y-15770714D01*
X10167143Y-15485000D02*
X10195714Y-15470714D01*
X10252857Y-15470714D01*
X10281428Y-15485000D01*
X10295714Y-15499286D01*
X10310000Y-15527857D01*
X10310000Y-15613571D01*
X10295714Y-15642143D01*
X10281428Y-15656429D01*
X10252857Y-15670714D01*
X10195714Y-15670714D01*
X10167143Y-15656429D01*
X10438571Y-15642143D02*
X10452857Y-15656429D01*
X10438571Y-15670714D01*
X10424286Y-15656429D01*
X10438571Y-15642143D01*
X10438571Y-15670714D01*
X10438571Y-15485000D02*
X10452857Y-15499286D01*
X10438571Y-15513571D01*
X10424286Y-15499286D01*
X10438571Y-15485000D01*
X10438571Y-15513571D01*
X8055000Y-16145000D02*
X8095000Y-16185000D01*
X8095000Y-16145000D02*
X8055000Y-16185000D01*
X8438571Y-16000714D02*
X8467143Y-16000714D01*
X8495714Y-16015000D01*
X8510000Y-16029286D01*
X8524286Y-16057857D01*
X8538571Y-16115000D01*
X8538571Y-16186429D01*
X8524286Y-16243571D01*
X8510000Y-16272143D01*
X8495714Y-16286429D01*
X8467143Y-16300714D01*
X8438571Y-16300714D01*
X8410000Y-16286429D01*
X8395714Y-16272143D01*
X8381428Y-16243571D01*
X8367143Y-16186429D01*
X8367143Y-16115000D01*
X8381428Y-16057857D01*
X8395714Y-16029286D01*
X8410000Y-16015000D01*
X8438571Y-16000714D01*
X8667143Y-16272143D02*
X8681428Y-16286429D01*
X8667143Y-16300714D01*
X8652857Y-16286429D01*
X8667143Y-16272143D01*
X8667143Y-16300714D01*
X8938571Y-16100714D02*
X8938571Y-16300714D01*
X8867143Y-15986429D02*
X8795714Y-16200714D01*
X8981428Y-16200714D01*
X9152857Y-16000714D02*
X9181428Y-16000714D01*
X9210000Y-16015000D01*
X9224286Y-16029286D01*
X9238571Y-16057857D01*
X9252857Y-16115000D01*
X9252857Y-16186429D01*
X9238571Y-16243571D01*
X9224286Y-16272143D01*
X9210000Y-16286429D01*
X9181428Y-16300714D01*
X9152857Y-16300714D01*
X9124286Y-16286429D01*
X9110000Y-16272143D01*
X9095714Y-16243571D01*
X9081428Y-16186429D01*
X9081428Y-16115000D01*
X9095714Y-16057857D01*
X9110000Y-16029286D01*
X9124286Y-16015000D01*
X9152857Y-16000714D01*
X9381428Y-16300714D02*
X9381428Y-16100714D01*
X9381428Y-16129286D02*
X9395714Y-16115000D01*
X9424286Y-16100714D01*
X9467143Y-16100714D01*
X9495714Y-16115000D01*
X9510000Y-16143571D01*
X9510000Y-16300714D01*
X9510000Y-16143571D02*
X9524286Y-16115000D01*
X9552857Y-16100714D01*
X9595714Y-16100714D01*
X9624286Y-16115000D01*
X9638571Y-16143571D01*
X9638571Y-16300714D01*
X9781428Y-16300714D02*
X9781428Y-16100714D01*
X9781428Y-16129286D02*
X9795714Y-16115000D01*
X9824286Y-16100714D01*
X9867143Y-16100714D01*
X9895714Y-16115000D01*
X9910000Y-16143571D01*
X9910000Y-16300714D01*
X9910000Y-16143571D02*
X9924286Y-16115000D01*
X9952857Y-16100714D01*
X9995714Y-16100714D01*
X10024286Y-16115000D01*
X10038571Y-16143571D01*
X10038571Y-16300714D01*
X10624286Y-15986429D02*
X10367143Y-16372143D01*
X11010000Y-16000714D02*
X11038571Y-16000714D01*
X11067143Y-16015000D01*
X11081428Y-16029286D01*
X11095714Y-16057857D01*
X11110000Y-16115000D01*
X11110000Y-16186429D01*
X11095714Y-16243571D01*
X11081428Y-16272143D01*
X11067143Y-16286429D01*
X11038571Y-16300714D01*
X11010000Y-16300714D01*
X10981428Y-16286429D01*
X10967143Y-16272143D01*
X10952857Y-16243571D01*
X10938571Y-16186429D01*
X10938571Y-16115000D01*
X10952857Y-16057857D01*
X10967143Y-16029286D01*
X10981428Y-16015000D01*
X11010000Y-16000714D01*
X11238571Y-16272143D02*
X11252857Y-16286429D01*
X11238571Y-16300714D01*
X11224286Y-16286429D01*
X11238571Y-16272143D01*
X11238571Y-16300714D01*
X11438571Y-16000714D02*
X11467143Y-16000714D01*
X11495714Y-16015000D01*
X11510000Y-16029286D01*
X11524286Y-16057857D01*
X11538571Y-16115000D01*
X11538571Y-16186429D01*
X11524286Y-16243571D01*
X11510000Y-16272143D01*
X11495714Y-16286429D01*
X11467143Y-16300714D01*
X11438571Y-16300714D01*
X11410000Y-16286429D01*
X11395714Y-16272143D01*
X11381428Y-16243571D01*
X11367143Y-16186429D01*
X11367143Y-16115000D01*
X11381428Y-16057857D01*
X11395714Y-16029286D01*
X11410000Y-16015000D01*
X11438571Y-16000714D01*
X11824286Y-16300714D02*
X11652857Y-16300714D01*
X11738571Y-16300714D02*
X11738571Y-16000714D01*
X11710000Y-16043571D01*
X11681428Y-16072143D01*
X11652857Y-16086429D01*
X12081428Y-16000714D02*
X12024286Y-16000714D01*
X11995714Y-16015000D01*
X11981428Y-16029286D01*
X11952857Y-16072143D01*
X11938571Y-16129286D01*
X11938571Y-16243571D01*
X11952857Y-16272143D01*
X11967143Y-16286429D01*
X11995714Y-16300714D01*
X12052857Y-16300714D01*
X12081428Y-16286429D01*
X12095714Y-16272143D01*
X12110000Y-16243571D01*
X12110000Y-16172143D01*
X12095714Y-16143571D01*
X12081428Y-16129286D01*
X12052857Y-16115000D01*
X11995714Y-16115000D01*
X11967143Y-16129286D01*
X11952857Y-16143571D01*
X11938571Y-16172143D01*
X12224286Y-16000714D02*
X12224286Y-16057857D01*
X12338571Y-16000714D02*
X12338571Y-16057857D01*
X12781428Y-16415000D02*
X12767143Y-16400714D01*
X12738571Y-16357857D01*
X12724286Y-16329286D01*
X12710000Y-16286429D01*
X12695714Y-16215000D01*
X12695714Y-16157857D01*
X12710000Y-16086429D01*
X12724286Y-16043571D01*
X12738571Y-16015000D01*
X12767143Y-15972143D01*
X12781428Y-15957857D01*
X13052857Y-16300714D02*
X12881428Y-16300714D01*
X12967143Y-16300714D02*
X12967143Y-16000714D01*
X12938571Y-16043571D01*
X12910000Y-16072143D01*
X12881428Y-16086429D01*
X13338571Y-16300714D02*
X13167143Y-16300714D01*
X13252857Y-16300714D02*
X13252857Y-16000714D01*
X13224286Y-16043571D01*
X13195714Y-16072143D01*
X13167143Y-16086429D01*
X13438571Y-16000714D02*
X13638571Y-16000714D01*
X13510000Y-16300714D01*
X13981428Y-16300714D02*
X13981428Y-16000714D01*
X14110000Y-16300714D02*
X14110000Y-16143571D01*
X14095714Y-16115000D01*
X14067143Y-16100714D01*
X14024286Y-16100714D01*
X13995714Y-16115000D01*
X13981428Y-16129286D01*
X14295714Y-16300714D02*
X14267143Y-16286429D01*
X14252857Y-16272143D01*
X14238571Y-16243571D01*
X14238571Y-16157857D01*
X14252857Y-16129286D01*
X14267143Y-16115000D01*
X14295714Y-16100714D01*
X14338571Y-16100714D01*
X14367143Y-16115000D01*
X14381428Y-16129286D01*
X14395714Y-16157857D01*
X14395714Y-16243571D01*
X14381428Y-16272143D01*
X14367143Y-16286429D01*
X14338571Y-16300714D01*
X14295714Y-16300714D01*
X14567143Y-16300714D02*
X14538571Y-16286429D01*
X14524286Y-16257857D01*
X14524286Y-16000714D01*
X14795714Y-16286429D02*
X14767143Y-16300714D01*
X14710000Y-16300714D01*
X14681428Y-16286429D01*
X14667143Y-16257857D01*
X14667143Y-16143571D01*
X14681428Y-16115000D01*
X14710000Y-16100714D01*
X14767143Y-16100714D01*
X14795714Y-16115000D01*
X14810000Y-16143571D01*
X14810000Y-16172143D01*
X14667143Y-16200714D01*
X14924286Y-16286429D02*
X14952857Y-16300714D01*
X15010000Y-16300714D01*
X15038571Y-16286429D01*
X15052857Y-16257857D01*
X15052857Y-16243571D01*
X15038571Y-16215000D01*
X15010000Y-16200714D01*
X14967143Y-16200714D01*
X14938571Y-16186429D01*
X14924286Y-16157857D01*
X14924286Y-16143571D01*
X14938571Y-16115000D01*
X14967143Y-16100714D01*
X15010000Y-16100714D01*
X15038571Y-16115000D01*
X15152857Y-16415000D02*
X15167143Y-16400714D01*
X15195714Y-16357857D01*
X15210000Y-16329286D01*
X15224286Y-16286429D01*
X15238571Y-16215000D01*
X15238571Y-16157857D01*
X15224286Y-16086429D01*
X15210000Y-16043571D01*
X15195714Y-16015000D01*
X15167143Y-15972143D01*
X15152857Y-15957857D01*
X8095000Y-16561000D02*
G75*
G03X8095000Y-16561000I-40000J0D01*
G01*
X8438571Y-16396714D02*
X8467143Y-16396714D01*
X8495714Y-16411000D01*
X8510000Y-16425286D01*
X8524286Y-16453857D01*
X8538571Y-16511000D01*
X8538571Y-16582429D01*
X8524286Y-16639571D01*
X8510000Y-16668143D01*
X8495714Y-16682429D01*
X8467143Y-16696714D01*
X8438571Y-16696714D01*
X8410000Y-16682429D01*
X8395714Y-16668143D01*
X8381428Y-16639571D01*
X8367143Y-16582429D01*
X8367143Y-16511000D01*
X8381428Y-16453857D01*
X8395714Y-16425286D01*
X8410000Y-16411000D01*
X8438571Y-16396714D01*
X8667143Y-16668143D02*
X8681428Y-16682429D01*
X8667143Y-16696714D01*
X8652857Y-16682429D01*
X8667143Y-16668143D01*
X8667143Y-16696714D01*
X8852857Y-16525286D02*
X8824286Y-16511000D01*
X8810000Y-16496714D01*
X8795714Y-16468143D01*
X8795714Y-16453857D01*
X8810000Y-16425286D01*
X8824286Y-16411000D01*
X8852857Y-16396714D01*
X8910000Y-16396714D01*
X8938571Y-16411000D01*
X8952857Y-16425286D01*
X8967143Y-16453857D01*
X8967143Y-16468143D01*
X8952857Y-16496714D01*
X8938571Y-16511000D01*
X8910000Y-16525286D01*
X8852857Y-16525286D01*
X8824286Y-16539571D01*
X8810000Y-16553857D01*
X8795714Y-16582429D01*
X8795714Y-16639571D01*
X8810000Y-16668143D01*
X8824286Y-16682429D01*
X8852857Y-16696714D01*
X8910000Y-16696714D01*
X8938571Y-16682429D01*
X8952857Y-16668143D01*
X8967143Y-16639571D01*
X8967143Y-16582429D01*
X8952857Y-16553857D01*
X8938571Y-16539571D01*
X8910000Y-16525286D01*
X9152857Y-16396714D02*
X9181428Y-16396714D01*
X9210000Y-16411000D01*
X9224286Y-16425286D01*
X9238571Y-16453857D01*
X9252857Y-16511000D01*
X9252857Y-16582429D01*
X9238571Y-16639571D01*
X9224286Y-16668143D01*
X9210000Y-16682429D01*
X9181428Y-16696714D01*
X9152857Y-16696714D01*
X9124286Y-16682429D01*
X9110000Y-16668143D01*
X9095714Y-16639571D01*
X9081428Y-16582429D01*
X9081428Y-16511000D01*
X9095714Y-16453857D01*
X9110000Y-16425286D01*
X9124286Y-16411000D01*
X9152857Y-16396714D01*
X9381428Y-16696714D02*
X9381428Y-16496714D01*
X9381428Y-16525286D02*
X9395714Y-16511000D01*
X9424286Y-16496714D01*
X9467143Y-16496714D01*
X9495714Y-16511000D01*
X9510000Y-16539571D01*
X9510000Y-16696714D01*
X9510000Y-16539571D02*
X9524286Y-16511000D01*
X9552857Y-16496714D01*
X9595714Y-16496714D01*
X9624286Y-16511000D01*
X9638571Y-16539571D01*
X9638571Y-16696714D01*
X9781428Y-16696714D02*
X9781428Y-16496714D01*
X9781428Y-16525286D02*
X9795714Y-16511000D01*
X9824286Y-16496714D01*
X9867143Y-16496714D01*
X9895714Y-16511000D01*
X9910000Y-16539571D01*
X9910000Y-16696714D01*
X9910000Y-16539571D02*
X9924286Y-16511000D01*
X9952857Y-16496714D01*
X9995714Y-16496714D01*
X10024286Y-16511000D01*
X10038571Y-16539571D01*
X10038571Y-16696714D01*
X10624286Y-16382429D02*
X10367143Y-16768143D01*
X11010000Y-16396714D02*
X11038571Y-16396714D01*
X11067143Y-16411000D01*
X11081428Y-16425286D01*
X11095714Y-16453857D01*
X11110000Y-16511000D01*
X11110000Y-16582429D01*
X11095714Y-16639571D01*
X11081428Y-16668143D01*
X11067143Y-16682429D01*
X11038571Y-16696714D01*
X11010000Y-16696714D01*
X10981428Y-16682429D01*
X10967143Y-16668143D01*
X10952857Y-16639571D01*
X10938571Y-16582429D01*
X10938571Y-16511000D01*
X10952857Y-16453857D01*
X10967143Y-16425286D01*
X10981428Y-16411000D01*
X11010000Y-16396714D01*
X11238571Y-16668143D02*
X11252857Y-16682429D01*
X11238571Y-16696714D01*
X11224286Y-16682429D01*
X11238571Y-16668143D01*
X11238571Y-16696714D01*
X11438571Y-16396714D02*
X11467143Y-16396714D01*
X11495714Y-16411000D01*
X11510000Y-16425286D01*
X11524286Y-16453857D01*
X11538571Y-16511000D01*
X11538571Y-16582429D01*
X11524286Y-16639571D01*
X11510000Y-16668143D01*
X11495714Y-16682429D01*
X11467143Y-16696714D01*
X11438571Y-16696714D01*
X11410000Y-16682429D01*
X11395714Y-16668143D01*
X11381428Y-16639571D01*
X11367143Y-16582429D01*
X11367143Y-16511000D01*
X11381428Y-16453857D01*
X11395714Y-16425286D01*
X11410000Y-16411000D01*
X11438571Y-16396714D01*
X11638571Y-16396714D02*
X11824286Y-16396714D01*
X11724286Y-16511000D01*
X11767143Y-16511000D01*
X11795714Y-16525286D01*
X11810000Y-16539571D01*
X11824286Y-16568143D01*
X11824286Y-16639571D01*
X11810000Y-16668143D01*
X11795714Y-16682429D01*
X11767143Y-16696714D01*
X11681428Y-16696714D01*
X11652857Y-16682429D01*
X11638571Y-16668143D01*
X12110000Y-16696714D02*
X11938571Y-16696714D01*
X12024286Y-16696714D02*
X12024286Y-16396714D01*
X11995714Y-16439571D01*
X11967143Y-16468143D01*
X11938571Y-16482429D01*
X12224286Y-16396714D02*
X12224286Y-16453857D01*
X12338571Y-16396714D02*
X12338571Y-16453857D01*
X12781428Y-16811000D02*
X12767143Y-16796714D01*
X12738571Y-16753857D01*
X12724286Y-16725286D01*
X12710000Y-16682429D01*
X12695714Y-16611000D01*
X12695714Y-16553857D01*
X12710000Y-16482429D01*
X12724286Y-16439571D01*
X12738571Y-16411000D01*
X12767143Y-16368143D01*
X12781428Y-16353857D01*
X12881428Y-16425286D02*
X12895714Y-16411000D01*
X12924286Y-16396714D01*
X12995714Y-16396714D01*
X13024286Y-16411000D01*
X13038571Y-16425286D01*
X13052857Y-16453857D01*
X13052857Y-16482429D01*
X13038571Y-16525286D01*
X12867143Y-16696714D01*
X13052857Y-16696714D01*
X13167143Y-16425286D02*
X13181428Y-16411000D01*
X13210000Y-16396714D01*
X13281428Y-16396714D01*
X13310000Y-16411000D01*
X13324286Y-16425286D01*
X13338571Y-16453857D01*
X13338571Y-16482429D01*
X13324286Y-16525286D01*
X13152857Y-16696714D01*
X13338571Y-16696714D01*
X13695714Y-16696714D02*
X13695714Y-16396714D01*
X13824286Y-16696714D02*
X13824286Y-16539571D01*
X13810000Y-16511000D01*
X13781428Y-16496714D01*
X13738571Y-16496714D01*
X13710000Y-16511000D01*
X13695714Y-16525286D01*
X14010000Y-16696714D02*
X13981428Y-16682429D01*
X13967143Y-16668143D01*
X13952857Y-16639571D01*
X13952857Y-16553857D01*
X13967143Y-16525286D01*
X13981428Y-16511000D01*
X14010000Y-16496714D01*
X14052857Y-16496714D01*
X14081428Y-16511000D01*
X14095714Y-16525286D01*
X14110000Y-16553857D01*
X14110000Y-16639571D01*
X14095714Y-16668143D01*
X14081428Y-16682429D01*
X14052857Y-16696714D01*
X14010000Y-16696714D01*
X14281428Y-16696714D02*
X14252857Y-16682429D01*
X14238571Y-16653857D01*
X14238571Y-16396714D01*
X14510000Y-16682429D02*
X14481428Y-16696714D01*
X14424286Y-16696714D01*
X14395714Y-16682429D01*
X14381428Y-16653857D01*
X14381428Y-16539571D01*
X14395714Y-16511000D01*
X14424286Y-16496714D01*
X14481428Y-16496714D01*
X14510000Y-16511000D01*
X14524286Y-16539571D01*
X14524286Y-16568143D01*
X14381428Y-16596714D01*
X14638571Y-16682429D02*
X14667143Y-16696714D01*
X14724286Y-16696714D01*
X14752857Y-16682429D01*
X14767143Y-16653857D01*
X14767143Y-16639571D01*
X14752857Y-16611000D01*
X14724286Y-16596714D01*
X14681428Y-16596714D01*
X14652857Y-16582429D01*
X14638571Y-16553857D01*
X14638571Y-16539571D01*
X14652857Y-16511000D01*
X14681428Y-16496714D01*
X14724286Y-16496714D01*
X14752857Y-16511000D01*
X14867143Y-16811000D02*
X14881428Y-16796714D01*
X14910000Y-16753857D01*
X14924286Y-16725286D01*
X14938571Y-16682429D01*
X14952857Y-16611000D01*
X14952857Y-16553857D01*
X14938571Y-16482429D01*
X14924286Y-16439571D01*
X14910000Y-16411000D01*
X14881428Y-16368143D01*
X14867143Y-16353857D01*
X8050000Y-16912000D02*
X8050000Y-17002000D01*
X8005000Y-16957000D02*
X8095000Y-16957000D01*
X8438571Y-16792714D02*
X8467143Y-16792714D01*
X8495714Y-16807000D01*
X8510000Y-16821286D01*
X8524286Y-16849857D01*
X8538571Y-16907000D01*
X8538571Y-16978429D01*
X8524286Y-17035572D01*
X8510000Y-17064143D01*
X8495714Y-17078429D01*
X8467143Y-17092714D01*
X8438571Y-17092714D01*
X8410000Y-17078429D01*
X8395714Y-17064143D01*
X8381428Y-17035572D01*
X8367143Y-16978429D01*
X8367143Y-16907000D01*
X8381428Y-16849857D01*
X8395714Y-16821286D01*
X8410000Y-16807000D01*
X8438571Y-16792714D01*
X8667143Y-17064143D02*
X8681428Y-17078429D01*
X8667143Y-17092714D01*
X8652857Y-17078429D01*
X8667143Y-17064143D01*
X8667143Y-17092714D01*
X8824286Y-17092714D02*
X8881428Y-17092714D01*
X8910000Y-17078429D01*
X8924286Y-17064143D01*
X8952857Y-17021286D01*
X8967143Y-16964143D01*
X8967143Y-16849857D01*
X8952857Y-16821286D01*
X8938571Y-16807000D01*
X8910000Y-16792714D01*
X8852857Y-16792714D01*
X8824286Y-16807000D01*
X8810000Y-16821286D01*
X8795714Y-16849857D01*
X8795714Y-16921286D01*
X8810000Y-16949857D01*
X8824286Y-16964143D01*
X8852857Y-16978429D01*
X8910000Y-16978429D01*
X8938571Y-16964143D01*
X8952857Y-16949857D01*
X8967143Y-16921286D01*
X9152857Y-16792714D02*
X9181428Y-16792714D01*
X9210000Y-16807000D01*
X9224286Y-16821286D01*
X9238571Y-16849857D01*
X9252857Y-16907000D01*
X9252857Y-16978429D01*
X9238571Y-17035572D01*
X9224286Y-17064143D01*
X9210000Y-17078429D01*
X9181428Y-17092714D01*
X9152857Y-17092714D01*
X9124286Y-17078429D01*
X9110000Y-17064143D01*
X9095714Y-17035572D01*
X9081428Y-16978429D01*
X9081428Y-16907000D01*
X9095714Y-16849857D01*
X9110000Y-16821286D01*
X9124286Y-16807000D01*
X9152857Y-16792714D01*
X9381428Y-17092714D02*
X9381428Y-16892714D01*
X9381428Y-16921286D02*
X9395714Y-16907000D01*
X9424286Y-16892714D01*
X9467143Y-16892714D01*
X9495714Y-16907000D01*
X9510000Y-16935572D01*
X9510000Y-17092714D01*
X9510000Y-16935572D02*
X9524286Y-16907000D01*
X9552857Y-16892714D01*
X9595714Y-16892714D01*
X9624286Y-16907000D01*
X9638571Y-16935572D01*
X9638571Y-17092714D01*
X9781428Y-17092714D02*
X9781428Y-16892714D01*
X9781428Y-16921286D02*
X9795714Y-16907000D01*
X9824286Y-16892714D01*
X9867143Y-16892714D01*
X9895714Y-16907000D01*
X9910000Y-16935572D01*
X9910000Y-17092714D01*
X9910000Y-16935572D02*
X9924286Y-16907000D01*
X9952857Y-16892714D01*
X9995714Y-16892714D01*
X10024286Y-16907000D01*
X10038571Y-16935572D01*
X10038571Y-17092714D01*
X10624286Y-16778429D02*
X10367143Y-17164143D01*
X11010000Y-16792714D02*
X11038571Y-16792714D01*
X11067143Y-16807000D01*
X11081428Y-16821286D01*
X11095714Y-16849857D01*
X11110000Y-16907000D01*
X11110000Y-16978429D01*
X11095714Y-17035572D01*
X11081428Y-17064143D01*
X11067143Y-17078429D01*
X11038571Y-17092714D01*
X11010000Y-17092714D01*
X10981428Y-17078429D01*
X10967143Y-17064143D01*
X10952857Y-17035572D01*
X10938571Y-16978429D01*
X10938571Y-16907000D01*
X10952857Y-16849857D01*
X10967143Y-16821286D01*
X10981428Y-16807000D01*
X11010000Y-16792714D01*
X11238571Y-17064143D02*
X11252857Y-17078429D01*
X11238571Y-17092714D01*
X11224286Y-17078429D01*
X11238571Y-17064143D01*
X11238571Y-17092714D01*
X11438571Y-16792714D02*
X11467143Y-16792714D01*
X11495714Y-16807000D01*
X11510000Y-16821286D01*
X11524286Y-16849857D01*
X11538571Y-16907000D01*
X11538571Y-16978429D01*
X11524286Y-17035572D01*
X11510000Y-17064143D01*
X11495714Y-17078429D01*
X11467143Y-17092714D01*
X11438571Y-17092714D01*
X11410000Y-17078429D01*
X11395714Y-17064143D01*
X11381428Y-17035572D01*
X11367143Y-16978429D01*
X11367143Y-16907000D01*
X11381428Y-16849857D01*
X11395714Y-16821286D01*
X11410000Y-16807000D01*
X11438571Y-16792714D01*
X11638571Y-16792714D02*
X11824286Y-16792714D01*
X11724286Y-16907000D01*
X11767143Y-16907000D01*
X11795714Y-16921286D01*
X11810000Y-16935572D01*
X11824286Y-16964143D01*
X11824286Y-17035572D01*
X11810000Y-17064143D01*
X11795714Y-17078429D01*
X11767143Y-17092714D01*
X11681428Y-17092714D01*
X11652857Y-17078429D01*
X11638571Y-17064143D01*
X12095714Y-16792714D02*
X11952857Y-16792714D01*
X11938571Y-16935572D01*
X11952857Y-16921286D01*
X11981428Y-16907000D01*
X12052857Y-16907000D01*
X12081428Y-16921286D01*
X12095714Y-16935572D01*
X12110000Y-16964143D01*
X12110000Y-17035572D01*
X12095714Y-17064143D01*
X12081428Y-17078429D01*
X12052857Y-17092714D01*
X11981428Y-17092714D01*
X11952857Y-17078429D01*
X11938571Y-17064143D01*
X12224286Y-16792714D02*
X12224286Y-16849857D01*
X12338571Y-16792714D02*
X12338571Y-16849857D01*
X12781428Y-17207000D02*
X12767143Y-17192714D01*
X12738571Y-17149857D01*
X12724286Y-17121286D01*
X12710000Y-17078429D01*
X12695714Y-17007000D01*
X12695714Y-16949857D01*
X12710000Y-16878429D01*
X12724286Y-16835572D01*
X12738571Y-16807000D01*
X12767143Y-16764143D01*
X12781428Y-16749857D01*
X12867143Y-16792714D02*
X13052857Y-16792714D01*
X12952857Y-16907000D01*
X12995714Y-16907000D01*
X13024286Y-16921286D01*
X13038571Y-16935572D01*
X13052857Y-16964143D01*
X13052857Y-17035572D01*
X13038571Y-17064143D01*
X13024286Y-17078429D01*
X12995714Y-17092714D01*
X12910000Y-17092714D01*
X12881428Y-17078429D01*
X12867143Y-17064143D01*
X13410000Y-17092714D02*
X13410000Y-16792714D01*
X13538571Y-17092714D02*
X13538571Y-16935572D01*
X13524286Y-16907000D01*
X13495714Y-16892714D01*
X13452857Y-16892714D01*
X13424286Y-16907000D01*
X13410000Y-16921286D01*
X13724286Y-17092714D02*
X13695714Y-17078429D01*
X13681428Y-17064143D01*
X13667143Y-17035572D01*
X13667143Y-16949857D01*
X13681428Y-16921286D01*
X13695714Y-16907000D01*
X13724286Y-16892714D01*
X13767143Y-16892714D01*
X13795714Y-16907000D01*
X13810000Y-16921286D01*
X13824286Y-16949857D01*
X13824286Y-17035572D01*
X13810000Y-17064143D01*
X13795714Y-17078429D01*
X13767143Y-17092714D01*
X13724286Y-17092714D01*
X13995714Y-17092714D02*
X13967143Y-17078429D01*
X13952857Y-17049857D01*
X13952857Y-16792714D01*
X14224286Y-17078429D02*
X14195714Y-17092714D01*
X14138571Y-17092714D01*
X14110000Y-17078429D01*
X14095714Y-17049857D01*
X14095714Y-16935572D01*
X14110000Y-16907000D01*
X14138571Y-16892714D01*
X14195714Y-16892714D01*
X14224286Y-16907000D01*
X14238571Y-16935572D01*
X14238571Y-16964143D01*
X14095714Y-16992714D01*
X14352857Y-17078429D02*
X14381428Y-17092714D01*
X14438571Y-17092714D01*
X14467143Y-17078429D01*
X14481428Y-17049857D01*
X14481428Y-17035572D01*
X14467143Y-17007000D01*
X14438571Y-16992714D01*
X14395714Y-16992714D01*
X14367143Y-16978429D01*
X14352857Y-16949857D01*
X14352857Y-16935572D01*
X14367143Y-16907000D01*
X14395714Y-16892714D01*
X14438571Y-16892714D01*
X14467143Y-16907000D01*
X14581428Y-17207000D02*
X14595714Y-17192714D01*
X14624286Y-17149857D01*
X14638571Y-17121286D01*
X14652857Y-17078429D01*
X14667143Y-17007000D01*
X14667143Y-16949857D01*
X14652857Y-16878429D01*
X14638571Y-16835572D01*
X14624286Y-16807000D01*
X14595714Y-16764143D01*
X14581428Y-16749857D01*
X8080356Y-17388356D02*
X8080356Y-17317644D01*
X8009644Y-17317644D01*
X8009644Y-17388356D01*
X8080356Y-17388356D01*
X8538571Y-17488714D02*
X8367143Y-17488714D01*
X8452857Y-17488714D02*
X8452857Y-17188714D01*
X8424286Y-17231572D01*
X8395714Y-17260143D01*
X8367143Y-17274429D01*
X8667143Y-17460143D02*
X8681428Y-17474429D01*
X8667143Y-17488714D01*
X8652857Y-17474429D01*
X8667143Y-17460143D01*
X8667143Y-17488714D01*
X8867143Y-17188714D02*
X8895714Y-17188714D01*
X8924286Y-17203000D01*
X8938571Y-17217286D01*
X8952857Y-17245857D01*
X8967143Y-17303000D01*
X8967143Y-17374429D01*
X8952857Y-17431572D01*
X8938571Y-17460143D01*
X8924286Y-17474429D01*
X8895714Y-17488714D01*
X8867143Y-17488714D01*
X8838571Y-17474429D01*
X8824286Y-17460143D01*
X8810000Y-17431572D01*
X8795714Y-17374429D01*
X8795714Y-17303000D01*
X8810000Y-17245857D01*
X8824286Y-17217286D01*
X8838571Y-17203000D01*
X8867143Y-17188714D01*
X9152857Y-17188714D02*
X9181428Y-17188714D01*
X9210000Y-17203000D01*
X9224286Y-17217286D01*
X9238571Y-17245857D01*
X9252857Y-17303000D01*
X9252857Y-17374429D01*
X9238571Y-17431572D01*
X9224286Y-17460143D01*
X9210000Y-17474429D01*
X9181428Y-17488714D01*
X9152857Y-17488714D01*
X9124286Y-17474429D01*
X9110000Y-17460143D01*
X9095714Y-17431572D01*
X9081428Y-17374429D01*
X9081428Y-17303000D01*
X9095714Y-17245857D01*
X9110000Y-17217286D01*
X9124286Y-17203000D01*
X9152857Y-17188714D01*
X9381428Y-17488714D02*
X9381428Y-17288714D01*
X9381428Y-17317286D02*
X9395714Y-17303000D01*
X9424286Y-17288714D01*
X9467143Y-17288714D01*
X9495714Y-17303000D01*
X9510000Y-17331572D01*
X9510000Y-17488714D01*
X9510000Y-17331572D02*
X9524286Y-17303000D01*
X9552857Y-17288714D01*
X9595714Y-17288714D01*
X9624286Y-17303000D01*
X9638571Y-17331572D01*
X9638571Y-17488714D01*
X9781428Y-17488714D02*
X9781428Y-17288714D01*
X9781428Y-17317286D02*
X9795714Y-17303000D01*
X9824286Y-17288714D01*
X9867143Y-17288714D01*
X9895714Y-17303000D01*
X9910000Y-17331572D01*
X9910000Y-17488714D01*
X9910000Y-17331572D02*
X9924286Y-17303000D01*
X9952857Y-17288714D01*
X9995714Y-17288714D01*
X10024286Y-17303000D01*
X10038571Y-17331572D01*
X10038571Y-17488714D01*
X10624286Y-17174429D02*
X10367143Y-17560143D01*
X11010000Y-17188714D02*
X11038571Y-17188714D01*
X11067143Y-17203000D01*
X11081428Y-17217286D01*
X11095714Y-17245857D01*
X11110000Y-17303000D01*
X11110000Y-17374429D01*
X11095714Y-17431572D01*
X11081428Y-17460143D01*
X11067143Y-17474429D01*
X11038571Y-17488714D01*
X11010000Y-17488714D01*
X10981428Y-17474429D01*
X10967143Y-17460143D01*
X10952857Y-17431572D01*
X10938571Y-17374429D01*
X10938571Y-17303000D01*
X10952857Y-17245857D01*
X10967143Y-17217286D01*
X10981428Y-17203000D01*
X11010000Y-17188714D01*
X11238571Y-17460143D02*
X11252857Y-17474429D01*
X11238571Y-17488714D01*
X11224286Y-17474429D01*
X11238571Y-17460143D01*
X11238571Y-17488714D01*
X11438571Y-17188714D02*
X11467143Y-17188714D01*
X11495714Y-17203000D01*
X11510000Y-17217286D01*
X11524286Y-17245857D01*
X11538571Y-17303000D01*
X11538571Y-17374429D01*
X11524286Y-17431572D01*
X11510000Y-17460143D01*
X11495714Y-17474429D01*
X11467143Y-17488714D01*
X11438571Y-17488714D01*
X11410000Y-17474429D01*
X11395714Y-17460143D01*
X11381428Y-17431572D01*
X11367143Y-17374429D01*
X11367143Y-17303000D01*
X11381428Y-17245857D01*
X11395714Y-17217286D01*
X11410000Y-17203000D01*
X11438571Y-17188714D01*
X11638571Y-17188714D02*
X11824286Y-17188714D01*
X11724286Y-17303000D01*
X11767143Y-17303000D01*
X11795714Y-17317286D01*
X11810000Y-17331572D01*
X11824286Y-17360143D01*
X11824286Y-17431572D01*
X11810000Y-17460143D01*
X11795714Y-17474429D01*
X11767143Y-17488714D01*
X11681428Y-17488714D01*
X11652857Y-17474429D01*
X11638571Y-17460143D01*
X11967143Y-17488714D02*
X12024286Y-17488714D01*
X12052857Y-17474429D01*
X12067143Y-17460143D01*
X12095714Y-17417286D01*
X12110000Y-17360143D01*
X12110000Y-17245857D01*
X12095714Y-17217286D01*
X12081428Y-17203000D01*
X12052857Y-17188714D01*
X11995714Y-17188714D01*
X11967143Y-17203000D01*
X11952857Y-17217286D01*
X11938571Y-17245857D01*
X11938571Y-17317286D01*
X11952857Y-17345857D01*
X11967143Y-17360143D01*
X11995714Y-17374429D01*
X12052857Y-17374429D01*
X12081428Y-17360143D01*
X12095714Y-17345857D01*
X12110000Y-17317286D01*
X12224286Y-17188714D02*
X12224286Y-17245857D01*
X12338571Y-17188714D02*
X12338571Y-17245857D01*
X12781428Y-17603000D02*
X12767143Y-17588714D01*
X12738571Y-17545857D01*
X12724286Y-17517286D01*
X12710000Y-17474429D01*
X12695714Y-17403000D01*
X12695714Y-17345857D01*
X12710000Y-17274429D01*
X12724286Y-17231572D01*
X12738571Y-17203000D01*
X12767143Y-17160143D01*
X12781428Y-17145857D01*
X12867143Y-17188714D02*
X13067143Y-17188714D01*
X12938571Y-17488714D01*
X13238571Y-17188714D02*
X13267143Y-17188714D01*
X13295714Y-17203000D01*
X13310000Y-17217286D01*
X13324286Y-17245857D01*
X13338571Y-17303000D01*
X13338571Y-17374429D01*
X13324286Y-17431572D01*
X13310000Y-17460143D01*
X13295714Y-17474429D01*
X13267143Y-17488714D01*
X13238571Y-17488714D01*
X13210000Y-17474429D01*
X13195714Y-17460143D01*
X13181428Y-17431572D01*
X13167143Y-17374429D01*
X13167143Y-17303000D01*
X13181428Y-17245857D01*
X13195714Y-17217286D01*
X13210000Y-17203000D01*
X13238571Y-17188714D01*
X13695714Y-17488714D02*
X13695714Y-17188714D01*
X13824286Y-17488714D02*
X13824286Y-17331572D01*
X13810000Y-17303000D01*
X13781428Y-17288714D01*
X13738571Y-17288714D01*
X13710000Y-17303000D01*
X13695714Y-17317286D01*
X14010000Y-17488714D02*
X13981428Y-17474429D01*
X13967143Y-17460143D01*
X13952857Y-17431572D01*
X13952857Y-17345857D01*
X13967143Y-17317286D01*
X13981428Y-17303000D01*
X14010000Y-17288714D01*
X14052857Y-17288714D01*
X14081428Y-17303000D01*
X14095714Y-17317286D01*
X14110000Y-17345857D01*
X14110000Y-17431572D01*
X14095714Y-17460143D01*
X14081428Y-17474429D01*
X14052857Y-17488714D01*
X14010000Y-17488714D01*
X14281428Y-17488714D02*
X14252857Y-17474429D01*
X14238571Y-17445857D01*
X14238571Y-17188714D01*
X14510000Y-17474429D02*
X14481428Y-17488714D01*
X14424286Y-17488714D01*
X14395714Y-17474429D01*
X14381428Y-17445857D01*
X14381428Y-17331572D01*
X14395714Y-17303000D01*
X14424286Y-17288714D01*
X14481428Y-17288714D01*
X14510000Y-17303000D01*
X14524286Y-17331572D01*
X14524286Y-17360143D01*
X14381428Y-17388714D01*
X14638571Y-17474429D02*
X14667143Y-17488714D01*
X14724286Y-17488714D01*
X14752857Y-17474429D01*
X14767143Y-17445857D01*
X14767143Y-17431572D01*
X14752857Y-17403000D01*
X14724286Y-17388714D01*
X14681428Y-17388714D01*
X14652857Y-17374429D01*
X14638571Y-17345857D01*
X14638571Y-17331572D01*
X14652857Y-17303000D01*
X14681428Y-17288714D01*
X14724286Y-17288714D01*
X14752857Y-17303000D01*
X14867143Y-17603000D02*
X14881428Y-17588714D01*
X14910000Y-17545857D01*
X14924286Y-17517286D01*
X14938571Y-17474429D01*
X14952857Y-17403000D01*
X14952857Y-17345857D01*
X14938571Y-17274429D01*
X14924286Y-17231572D01*
X14910000Y-17203000D01*
X14881428Y-17160143D01*
X14867143Y-17145857D01*
X8030000Y-17814000D02*
X8095000Y-17749000D01*
X8030000Y-17684000D01*
X7965000Y-17749000D01*
X8030000Y-17814000D01*
X8538571Y-17884714D02*
X8367143Y-17884714D01*
X8452857Y-17884714D02*
X8452857Y-17584714D01*
X8424286Y-17627572D01*
X8395714Y-17656143D01*
X8367143Y-17670429D01*
X8667143Y-17856143D02*
X8681428Y-17870429D01*
X8667143Y-17884714D01*
X8652857Y-17870429D01*
X8667143Y-17856143D01*
X8667143Y-17884714D01*
X8781428Y-17584714D02*
X8967143Y-17584714D01*
X8867143Y-17699000D01*
X8910000Y-17699000D01*
X8938571Y-17713286D01*
X8952857Y-17727572D01*
X8967143Y-17756143D01*
X8967143Y-17827572D01*
X8952857Y-17856143D01*
X8938571Y-17870429D01*
X8910000Y-17884714D01*
X8824286Y-17884714D01*
X8795714Y-17870429D01*
X8781428Y-17856143D01*
X9152857Y-17584714D02*
X9181428Y-17584714D01*
X9210000Y-17599000D01*
X9224286Y-17613286D01*
X9238571Y-17641857D01*
X9252857Y-17699000D01*
X9252857Y-17770429D01*
X9238571Y-17827572D01*
X9224286Y-17856143D01*
X9210000Y-17870429D01*
X9181428Y-17884714D01*
X9152857Y-17884714D01*
X9124286Y-17870429D01*
X9110000Y-17856143D01*
X9095714Y-17827572D01*
X9081428Y-17770429D01*
X9081428Y-17699000D01*
X9095714Y-17641857D01*
X9110000Y-17613286D01*
X9124286Y-17599000D01*
X9152857Y-17584714D01*
X9381428Y-17884714D02*
X9381428Y-17684714D01*
X9381428Y-17713286D02*
X9395714Y-17699000D01*
X9424286Y-17684714D01*
X9467143Y-17684714D01*
X9495714Y-17699000D01*
X9510000Y-17727572D01*
X9510000Y-17884714D01*
X9510000Y-17727572D02*
X9524286Y-17699000D01*
X9552857Y-17684714D01*
X9595714Y-17684714D01*
X9624286Y-17699000D01*
X9638571Y-17727572D01*
X9638571Y-17884714D01*
X9781428Y-17884714D02*
X9781428Y-17684714D01*
X9781428Y-17713286D02*
X9795714Y-17699000D01*
X9824286Y-17684714D01*
X9867143Y-17684714D01*
X9895714Y-17699000D01*
X9910000Y-17727572D01*
X9910000Y-17884714D01*
X9910000Y-17727572D02*
X9924286Y-17699000D01*
X9952857Y-17684714D01*
X9995714Y-17684714D01*
X10024286Y-17699000D01*
X10038571Y-17727572D01*
X10038571Y-17884714D01*
X10624286Y-17570429D02*
X10367143Y-17956143D01*
X11010000Y-17584714D02*
X11038571Y-17584714D01*
X11067143Y-17599000D01*
X11081428Y-17613286D01*
X11095714Y-17641857D01*
X11110000Y-17699000D01*
X11110000Y-17770429D01*
X11095714Y-17827572D01*
X11081428Y-17856143D01*
X11067143Y-17870429D01*
X11038571Y-17884714D01*
X11010000Y-17884714D01*
X10981428Y-17870429D01*
X10967143Y-17856143D01*
X10952857Y-17827572D01*
X10938571Y-17770429D01*
X10938571Y-17699000D01*
X10952857Y-17641857D01*
X10967143Y-17613286D01*
X10981428Y-17599000D01*
X11010000Y-17584714D01*
X11238571Y-17856143D02*
X11252857Y-17870429D01*
X11238571Y-17884714D01*
X11224286Y-17870429D01*
X11238571Y-17856143D01*
X11238571Y-17884714D01*
X11438571Y-17584714D02*
X11467143Y-17584714D01*
X11495714Y-17599000D01*
X11510000Y-17613286D01*
X11524286Y-17641857D01*
X11538571Y-17699000D01*
X11538571Y-17770429D01*
X11524286Y-17827572D01*
X11510000Y-17856143D01*
X11495714Y-17870429D01*
X11467143Y-17884714D01*
X11438571Y-17884714D01*
X11410000Y-17870429D01*
X11395714Y-17856143D01*
X11381428Y-17827572D01*
X11367143Y-17770429D01*
X11367143Y-17699000D01*
X11381428Y-17641857D01*
X11395714Y-17613286D01*
X11410000Y-17599000D01*
X11438571Y-17584714D01*
X11810000Y-17584714D02*
X11667143Y-17584714D01*
X11652857Y-17727572D01*
X11667143Y-17713286D01*
X11695714Y-17699000D01*
X11767143Y-17699000D01*
X11795714Y-17713286D01*
X11810000Y-17727572D01*
X11824286Y-17756143D01*
X11824286Y-17827572D01*
X11810000Y-17856143D01*
X11795714Y-17870429D01*
X11767143Y-17884714D01*
X11695714Y-17884714D01*
X11667143Y-17870429D01*
X11652857Y-17856143D01*
X12110000Y-17884714D02*
X11938571Y-17884714D01*
X12024286Y-17884714D02*
X12024286Y-17584714D01*
X11995714Y-17627572D01*
X11967143Y-17656143D01*
X11938571Y-17670429D01*
X12224286Y-17584714D02*
X12224286Y-17641857D01*
X12338571Y-17584714D02*
X12338571Y-17641857D01*
X12781428Y-17999000D02*
X12767143Y-17984714D01*
X12738571Y-17941857D01*
X12724286Y-17913286D01*
X12710000Y-17870429D01*
X12695714Y-17799000D01*
X12695714Y-17741857D01*
X12710000Y-17670429D01*
X12724286Y-17627572D01*
X12738571Y-17599000D01*
X12767143Y-17556143D01*
X12781428Y-17541857D01*
X12881428Y-17613286D02*
X12895714Y-17599000D01*
X12924286Y-17584714D01*
X12995714Y-17584714D01*
X13024286Y-17599000D01*
X13038571Y-17613286D01*
X13052857Y-17641857D01*
X13052857Y-17670429D01*
X13038571Y-17713286D01*
X12867143Y-17884714D01*
X13052857Y-17884714D01*
X13410000Y-17884714D02*
X13410000Y-17584714D01*
X13538571Y-17884714D02*
X13538571Y-17727572D01*
X13524286Y-17699000D01*
X13495714Y-17684714D01*
X13452857Y-17684714D01*
X13424286Y-17699000D01*
X13410000Y-17713286D01*
X13724286Y-17884714D02*
X13695714Y-17870429D01*
X13681428Y-17856143D01*
X13667143Y-17827572D01*
X13667143Y-17741857D01*
X13681428Y-17713286D01*
X13695714Y-17699000D01*
X13724286Y-17684714D01*
X13767143Y-17684714D01*
X13795714Y-17699000D01*
X13810000Y-17713286D01*
X13824286Y-17741857D01*
X13824286Y-17827572D01*
X13810000Y-17856143D01*
X13795714Y-17870429D01*
X13767143Y-17884714D01*
X13724286Y-17884714D01*
X13995714Y-17884714D02*
X13967143Y-17870429D01*
X13952857Y-17841857D01*
X13952857Y-17584714D01*
X14224286Y-17870429D02*
X14195714Y-17884714D01*
X14138571Y-17884714D01*
X14110000Y-17870429D01*
X14095714Y-17841857D01*
X14095714Y-17727572D01*
X14110000Y-17699000D01*
X14138571Y-17684714D01*
X14195714Y-17684714D01*
X14224286Y-17699000D01*
X14238571Y-17727572D01*
X14238571Y-17756143D01*
X14095714Y-17784714D01*
X14352857Y-17870429D02*
X14381428Y-17884714D01*
X14438571Y-17884714D01*
X14467143Y-17870429D01*
X14481428Y-17841857D01*
X14481428Y-17827572D01*
X14467143Y-17799000D01*
X14438571Y-17784714D01*
X14395714Y-17784714D01*
X14367143Y-17770429D01*
X14352857Y-17741857D01*
X14352857Y-17727572D01*
X14367143Y-17699000D01*
X14395714Y-17684714D01*
X14438571Y-17684714D01*
X14467143Y-17699000D01*
X14581428Y-17999000D02*
X14595714Y-17984714D01*
X14624286Y-17941857D01*
X14638571Y-17913286D01*
X14652857Y-17870429D01*
X14667143Y-17799000D01*
X14667143Y-17741857D01*
X14652857Y-17670429D01*
X14638571Y-17627572D01*
X14624286Y-17599000D01*
X14595714Y-17556143D01*
X14581428Y-17541857D01*
X7875000Y-18035000D02*
X8095000Y-18255000D01*
X8095000Y-18035000D02*
X7875000Y-18255000D01*
X8095000Y-18145000D02*
G75*
G03X8095000Y-18145000I-110000J0D01*
G01*
X8367143Y-18009286D02*
X8381428Y-17995000D01*
X8410000Y-17980714D01*
X8481428Y-17980714D01*
X8510000Y-17995000D01*
X8524286Y-18009286D01*
X8538571Y-18037857D01*
X8538571Y-18066429D01*
X8524286Y-18109286D01*
X8352857Y-18280714D01*
X8538571Y-18280714D01*
X8667143Y-18252143D02*
X8681428Y-18266429D01*
X8667143Y-18280714D01*
X8652857Y-18266429D01*
X8667143Y-18252143D01*
X8667143Y-18280714D01*
X8795714Y-18009286D02*
X8810000Y-17995000D01*
X8838571Y-17980714D01*
X8910000Y-17980714D01*
X8938571Y-17995000D01*
X8952857Y-18009286D01*
X8967143Y-18037857D01*
X8967143Y-18066429D01*
X8952857Y-18109286D01*
X8781428Y-18280714D01*
X8967143Y-18280714D01*
X9152857Y-17980714D02*
X9181428Y-17980714D01*
X9210000Y-17995000D01*
X9224286Y-18009286D01*
X9238571Y-18037857D01*
X9252857Y-18095000D01*
X9252857Y-18166429D01*
X9238571Y-18223572D01*
X9224286Y-18252143D01*
X9210000Y-18266429D01*
X9181428Y-18280714D01*
X9152857Y-18280714D01*
X9124286Y-18266429D01*
X9110000Y-18252143D01*
X9095714Y-18223572D01*
X9081428Y-18166429D01*
X9081428Y-18095000D01*
X9095714Y-18037857D01*
X9110000Y-18009286D01*
X9124286Y-17995000D01*
X9152857Y-17980714D01*
X9381428Y-18280714D02*
X9381428Y-18080714D01*
X9381428Y-18109286D02*
X9395714Y-18095000D01*
X9424286Y-18080714D01*
X9467143Y-18080714D01*
X9495714Y-18095000D01*
X9510000Y-18123572D01*
X9510000Y-18280714D01*
X9510000Y-18123572D02*
X9524286Y-18095000D01*
X9552857Y-18080714D01*
X9595714Y-18080714D01*
X9624286Y-18095000D01*
X9638571Y-18123572D01*
X9638571Y-18280714D01*
X9781428Y-18280714D02*
X9781428Y-18080714D01*
X9781428Y-18109286D02*
X9795714Y-18095000D01*
X9824286Y-18080714D01*
X9867143Y-18080714D01*
X9895714Y-18095000D01*
X9910000Y-18123572D01*
X9910000Y-18280714D01*
X9910000Y-18123572D02*
X9924286Y-18095000D01*
X9952857Y-18080714D01*
X9995714Y-18080714D01*
X10024286Y-18095000D01*
X10038571Y-18123572D01*
X10038571Y-18280714D01*
X10624286Y-17966429D02*
X10367143Y-18352143D01*
X11010000Y-17980714D02*
X11038571Y-17980714D01*
X11067143Y-17995000D01*
X11081428Y-18009286D01*
X11095714Y-18037857D01*
X11110000Y-18095000D01*
X11110000Y-18166429D01*
X11095714Y-18223572D01*
X11081428Y-18252143D01*
X11067143Y-18266429D01*
X11038571Y-18280714D01*
X11010000Y-18280714D01*
X10981428Y-18266429D01*
X10967143Y-18252143D01*
X10952857Y-18223572D01*
X10938571Y-18166429D01*
X10938571Y-18095000D01*
X10952857Y-18037857D01*
X10967143Y-18009286D01*
X10981428Y-17995000D01*
X11010000Y-17980714D01*
X11238571Y-18252143D02*
X11252857Y-18266429D01*
X11238571Y-18280714D01*
X11224286Y-18266429D01*
X11238571Y-18252143D01*
X11238571Y-18280714D01*
X11438571Y-17980714D02*
X11467143Y-17980714D01*
X11495714Y-17995000D01*
X11510000Y-18009286D01*
X11524286Y-18037857D01*
X11538571Y-18095000D01*
X11538571Y-18166429D01*
X11524286Y-18223572D01*
X11510000Y-18252143D01*
X11495714Y-18266429D01*
X11467143Y-18280714D01*
X11438571Y-18280714D01*
X11410000Y-18266429D01*
X11395714Y-18252143D01*
X11381428Y-18223572D01*
X11367143Y-18166429D01*
X11367143Y-18095000D01*
X11381428Y-18037857D01*
X11395714Y-18009286D01*
X11410000Y-17995000D01*
X11438571Y-17980714D01*
X11710000Y-18109286D02*
X11681428Y-18095000D01*
X11667143Y-18080714D01*
X11652857Y-18052143D01*
X11652857Y-18037857D01*
X11667143Y-18009286D01*
X11681428Y-17995000D01*
X11710000Y-17980714D01*
X11767143Y-17980714D01*
X11795714Y-17995000D01*
X11810000Y-18009286D01*
X11824286Y-18037857D01*
X11824286Y-18052143D01*
X11810000Y-18080714D01*
X11795714Y-18095000D01*
X11767143Y-18109286D01*
X11710000Y-18109286D01*
X11681428Y-18123572D01*
X11667143Y-18137857D01*
X11652857Y-18166429D01*
X11652857Y-18223572D01*
X11667143Y-18252143D01*
X11681428Y-18266429D01*
X11710000Y-18280714D01*
X11767143Y-18280714D01*
X11795714Y-18266429D01*
X11810000Y-18252143D01*
X11824286Y-18223572D01*
X11824286Y-18166429D01*
X11810000Y-18137857D01*
X11795714Y-18123572D01*
X11767143Y-18109286D01*
X11924286Y-17980714D02*
X12124286Y-17980714D01*
X11995714Y-18280714D01*
X12224286Y-17980714D02*
X12224286Y-18037857D01*
X12338571Y-17980714D02*
X12338571Y-18037857D01*
X12781428Y-18395000D02*
X12767143Y-18380714D01*
X12738571Y-18337857D01*
X12724286Y-18309286D01*
X12710000Y-18266429D01*
X12695714Y-18195000D01*
X12695714Y-18137857D01*
X12710000Y-18066429D01*
X12724286Y-18023572D01*
X12738571Y-17995000D01*
X12767143Y-17952143D01*
X12781428Y-17937857D01*
X13024286Y-17980714D02*
X12967143Y-17980714D01*
X12938571Y-17995000D01*
X12924286Y-18009286D01*
X12895714Y-18052143D01*
X12881428Y-18109286D01*
X12881428Y-18223572D01*
X12895714Y-18252143D01*
X12910000Y-18266429D01*
X12938571Y-18280714D01*
X12995714Y-18280714D01*
X13024286Y-18266429D01*
X13038571Y-18252143D01*
X13052857Y-18223572D01*
X13052857Y-18152143D01*
X13038571Y-18123572D01*
X13024286Y-18109286D01*
X12995714Y-18095000D01*
X12938571Y-18095000D01*
X12910000Y-18109286D01*
X12895714Y-18123572D01*
X12881428Y-18152143D01*
X13410000Y-18280714D02*
X13410000Y-17980714D01*
X13538571Y-18280714D02*
X13538571Y-18123572D01*
X13524286Y-18095000D01*
X13495714Y-18080714D01*
X13452857Y-18080714D01*
X13424286Y-18095000D01*
X13410000Y-18109286D01*
X13724286Y-18280714D02*
X13695714Y-18266429D01*
X13681428Y-18252143D01*
X13667143Y-18223572D01*
X13667143Y-18137857D01*
X13681428Y-18109286D01*
X13695714Y-18095000D01*
X13724286Y-18080714D01*
X13767143Y-18080714D01*
X13795714Y-18095000D01*
X13810000Y-18109286D01*
X13824286Y-18137857D01*
X13824286Y-18223572D01*
X13810000Y-18252143D01*
X13795714Y-18266429D01*
X13767143Y-18280714D01*
X13724286Y-18280714D01*
X13995714Y-18280714D02*
X13967143Y-18266429D01*
X13952857Y-18237857D01*
X13952857Y-17980714D01*
X14224286Y-18266429D02*
X14195714Y-18280714D01*
X14138571Y-18280714D01*
X14110000Y-18266429D01*
X14095714Y-18237857D01*
X14095714Y-18123572D01*
X14110000Y-18095000D01*
X14138571Y-18080714D01*
X14195714Y-18080714D01*
X14224286Y-18095000D01*
X14238571Y-18123572D01*
X14238571Y-18152143D01*
X14095714Y-18180714D01*
X14352857Y-18266429D02*
X14381428Y-18280714D01*
X14438571Y-18280714D01*
X14467143Y-18266429D01*
X14481428Y-18237857D01*
X14481428Y-18223572D01*
X14467143Y-18195000D01*
X14438571Y-18180714D01*
X14395714Y-18180714D01*
X14367143Y-18166429D01*
X14352857Y-18137857D01*
X14352857Y-18123572D01*
X14367143Y-18095000D01*
X14395714Y-18080714D01*
X14438571Y-18080714D01*
X14467143Y-18095000D01*
X14581428Y-18395000D02*
X14595714Y-18380714D01*
X14624286Y-18337857D01*
X14638571Y-18309286D01*
X14652857Y-18266429D01*
X14667143Y-18195000D01*
X14667143Y-18137857D01*
X14652857Y-18066429D01*
X14638571Y-18023572D01*
X14624286Y-17995000D01*
X14595714Y-17952143D01*
X14581428Y-17937857D01*
M02*
