%FSLAX45Y45*%
G04 Gerber Fmt 4.5, Leading zero omitted, Abs format (unit mm)*
G04 Created by KiCad (PCBNEW (5.0.1)-3) date 07.12.2018 05:25:07*
%MOMM*%
%LPD*%
G01*
G04 APERTURE LIST*
%ADD10C,0.100000*%
%ADD11C,0.200000*%
%ADD12C,0.300000*%
G04 APERTURE END LIST*
D10*
X8850000Y-8400000D02*
X9300000Y-8400000D01*
X8850000Y-8200000D02*
X9300000Y-8200000D01*
X9300000Y-8400000D02*
G75*
G03X9400000Y-8300000I0J100000D01*
G01*
X9400000Y-8300000D02*
G75*
G03X9300000Y-8200000I-100000J0D01*
G01*
X8750000Y-8300000D02*
G75*
G03X8850000Y-8400000I100000J0D01*
G01*
X8850000Y-8200000D02*
G75*
G03X8750000Y-8300000I0J-100000D01*
G01*
X8100000Y-9400000D02*
X8100000Y-14500000D01*
X8100000Y-8500000D02*
X8100000Y-8100000D01*
X8300000Y-8700000D02*
X8300000Y-9200000D01*
X8200000Y-9300000D02*
G75*
G03X8100000Y-9400000I0J-100000D01*
G01*
X8200000Y-9300000D02*
G75*
G03X8300000Y-9200000I0J100000D01*
G01*
X8300000Y-8700000D02*
G75*
G03X8200000Y-8600000I-100000J0D01*
G01*
X8100000Y-8500000D02*
G75*
G03X8200000Y-8600000I100000J0D01*
G01*
X12400000Y-8000000D02*
X12400000Y-11050000D01*
X12600000Y-11050000D02*
X12600000Y-8000000D01*
X12400000Y-11550000D02*
X12400000Y-14600000D01*
X12600000Y-14600000D02*
X12600000Y-11550000D01*
X8800000Y-15200000D02*
X12300000Y-15200000D01*
X12700000Y-15200000D02*
X15300000Y-15200000D01*
X12300000Y-7400000D02*
X8800000Y-7400000D01*
X12700000Y-7400000D02*
X15300000Y-7400000D01*
X12600000Y-15100000D02*
G75*
G03X12700000Y-15200000I100000J0D01*
G01*
X12600000Y-15100000D02*
G75*
G03X12500000Y-15000000I-100000J0D01*
G01*
X12500000Y-15000000D02*
G75*
G03X12400000Y-15100000I0J-100000D01*
G01*
X12300000Y-15200000D02*
G75*
G03X12400000Y-15100000I0J100000D01*
G01*
X12400000Y-7500000D02*
G75*
G03X12300000Y-7400000I-100000J0D01*
G01*
X12400000Y-7500000D02*
G75*
G03X12500000Y-7600000I100000J0D01*
G01*
X12500000Y-7600000D02*
G75*
G03X12600000Y-7500000I0J100000D01*
G01*
X12700000Y-7400000D02*
G75*
G03X12600000Y-7500000I0J-100000D01*
G01*
X16000000Y-8100000D02*
X16000000Y-14500000D01*
X8100000Y-14500000D02*
G75*
G03X8800000Y-15200000I700000J0D01*
G01*
X15300000Y-15200000D02*
G75*
G03X16000000Y-14500000I0J700000D01*
G01*
X16000000Y-8100000D02*
G75*
G03X15300000Y-7400000I-700000J0D01*
G01*
X8800000Y-7400000D02*
G75*
G03X8100000Y-8100000I0J-700000D01*
G01*
X12500000Y-11450000D02*
G75*
G03X12400000Y-11550000I0J-100000D01*
G01*
X12600000Y-11550000D02*
G75*
G03X12500000Y-11450000I-100000J0D01*
G01*
X12600000Y-8000000D02*
G75*
G03X12500000Y-7900000I-100000J0D01*
G01*
X12500000Y-7900000D02*
G75*
G03X12400000Y-8000000I0J-100000D01*
G01*
X12400000Y-11050000D02*
G75*
G03X12500000Y-11150000I100000J0D01*
G01*
X12500000Y-11150000D02*
G75*
G03X12600000Y-11050000I0J100000D01*
G01*
X12500000Y-14700000D02*
G75*
G03X12600000Y-14600000I0J100000D01*
G01*
X12400000Y-14600000D02*
G75*
G03X12500000Y-14700000I100000J0D01*
G01*
D11*
X14905000Y-11005000D02*
X15195000Y-11295000D01*
X15195000Y-11005000D02*
X14905000Y-11295000D01*
X13105000Y-11005000D02*
X13395000Y-11295000D01*
X13395000Y-11005000D02*
X13105000Y-11295000D01*
D12*
X8381428Y-15670714D02*
X8381428Y-15370714D01*
X8452857Y-15370714D01*
X8495714Y-15385000D01*
X8524286Y-15413571D01*
X8538571Y-15442143D01*
X8552857Y-15499286D01*
X8552857Y-15542143D01*
X8538571Y-15599286D01*
X8524286Y-15627857D01*
X8495714Y-15656429D01*
X8452857Y-15670714D01*
X8381428Y-15670714D01*
X8681428Y-15670714D02*
X8681428Y-15470714D01*
X8681428Y-15527857D02*
X8695714Y-15499286D01*
X8710000Y-15485000D01*
X8738571Y-15470714D01*
X8767143Y-15470714D01*
X8867143Y-15670714D02*
X8867143Y-15470714D01*
X8867143Y-15370714D02*
X8852857Y-15385000D01*
X8867143Y-15399286D01*
X8881428Y-15385000D01*
X8867143Y-15370714D01*
X8867143Y-15399286D01*
X9052857Y-15670714D02*
X9024286Y-15656429D01*
X9010000Y-15627857D01*
X9010000Y-15370714D01*
X9210000Y-15670714D02*
X9181428Y-15656429D01*
X9167143Y-15627857D01*
X9167143Y-15370714D01*
X9552857Y-15670714D02*
X9552857Y-15370714D01*
X9652857Y-15585000D01*
X9752857Y-15370714D01*
X9752857Y-15670714D01*
X10024286Y-15670714D02*
X10024286Y-15513571D01*
X10010000Y-15485000D01*
X9981428Y-15470714D01*
X9924286Y-15470714D01*
X9895714Y-15485000D01*
X10024286Y-15656429D02*
X9995714Y-15670714D01*
X9924286Y-15670714D01*
X9895714Y-15656429D01*
X9881428Y-15627857D01*
X9881428Y-15599286D01*
X9895714Y-15570714D01*
X9924286Y-15556429D01*
X9995714Y-15556429D01*
X10024286Y-15542143D01*
X10167143Y-15470714D02*
X10167143Y-15770714D01*
X10167143Y-15485000D02*
X10195714Y-15470714D01*
X10252857Y-15470714D01*
X10281428Y-15485000D01*
X10295714Y-15499286D01*
X10310000Y-15527857D01*
X10310000Y-15613571D01*
X10295714Y-15642143D01*
X10281428Y-15656429D01*
X10252857Y-15670714D01*
X10195714Y-15670714D01*
X10167143Y-15656429D01*
X10438571Y-15642143D02*
X10452857Y-15656429D01*
X10438571Y-15670714D01*
X10424286Y-15656429D01*
X10438571Y-15642143D01*
X10438571Y-15670714D01*
X10438571Y-15485000D02*
X10452857Y-15499286D01*
X10438571Y-15513571D01*
X10424286Y-15499286D01*
X10438571Y-15485000D01*
X10438571Y-15513571D01*
X7805000Y-16020000D02*
X8095000Y-16310000D01*
X8095000Y-16020000D02*
X7805000Y-16310000D01*
X8367143Y-16029286D02*
X8381428Y-16015000D01*
X8410000Y-16000714D01*
X8481428Y-16000714D01*
X8510000Y-16015000D01*
X8524286Y-16029286D01*
X8538571Y-16057857D01*
X8538571Y-16086429D01*
X8524286Y-16129286D01*
X8352857Y-16300714D01*
X8538571Y-16300714D01*
X8667143Y-16272143D02*
X8681428Y-16286429D01*
X8667143Y-16300714D01*
X8652857Y-16286429D01*
X8667143Y-16272143D01*
X8667143Y-16300714D01*
X8824286Y-16300714D02*
X8881428Y-16300714D01*
X8910000Y-16286429D01*
X8924286Y-16272143D01*
X8952857Y-16229286D01*
X8967143Y-16172143D01*
X8967143Y-16057857D01*
X8952857Y-16029286D01*
X8938571Y-16015000D01*
X8910000Y-16000714D01*
X8852857Y-16000714D01*
X8824286Y-16015000D01*
X8810000Y-16029286D01*
X8795714Y-16057857D01*
X8795714Y-16129286D01*
X8810000Y-16157857D01*
X8824286Y-16172143D01*
X8852857Y-16186429D01*
X8910000Y-16186429D01*
X8938571Y-16172143D01*
X8952857Y-16157857D01*
X8967143Y-16129286D01*
X9152857Y-16000714D02*
X9181428Y-16000714D01*
X9210000Y-16015000D01*
X9224286Y-16029286D01*
X9238571Y-16057857D01*
X9252857Y-16115000D01*
X9252857Y-16186429D01*
X9238571Y-16243571D01*
X9224286Y-16272143D01*
X9210000Y-16286429D01*
X9181428Y-16300714D01*
X9152857Y-16300714D01*
X9124286Y-16286429D01*
X9110000Y-16272143D01*
X9095714Y-16243571D01*
X9081428Y-16186429D01*
X9081428Y-16115000D01*
X9095714Y-16057857D01*
X9110000Y-16029286D01*
X9124286Y-16015000D01*
X9152857Y-16000714D01*
X9381428Y-16300714D02*
X9381428Y-16100714D01*
X9381428Y-16129286D02*
X9395714Y-16115000D01*
X9424286Y-16100714D01*
X9467143Y-16100714D01*
X9495714Y-16115000D01*
X9510000Y-16143571D01*
X9510000Y-16300714D01*
X9510000Y-16143571D02*
X9524286Y-16115000D01*
X9552857Y-16100714D01*
X9595714Y-16100714D01*
X9624286Y-16115000D01*
X9638571Y-16143571D01*
X9638571Y-16300714D01*
X9781428Y-16300714D02*
X9781428Y-16100714D01*
X9781428Y-16129286D02*
X9795714Y-16115000D01*
X9824286Y-16100714D01*
X9867143Y-16100714D01*
X9895714Y-16115000D01*
X9910000Y-16143571D01*
X9910000Y-16300714D01*
X9910000Y-16143571D02*
X9924286Y-16115000D01*
X9952857Y-16100714D01*
X9995714Y-16100714D01*
X10024286Y-16115000D01*
X10038571Y-16143571D01*
X10038571Y-16300714D01*
X10624286Y-15986429D02*
X10367143Y-16372143D01*
X11010000Y-16000714D02*
X11038571Y-16000714D01*
X11067143Y-16015000D01*
X11081428Y-16029286D01*
X11095714Y-16057857D01*
X11110000Y-16115000D01*
X11110000Y-16186429D01*
X11095714Y-16243571D01*
X11081428Y-16272143D01*
X11067143Y-16286429D01*
X11038571Y-16300714D01*
X11010000Y-16300714D01*
X10981428Y-16286429D01*
X10967143Y-16272143D01*
X10952857Y-16243571D01*
X10938571Y-16186429D01*
X10938571Y-16115000D01*
X10952857Y-16057857D01*
X10967143Y-16029286D01*
X10981428Y-16015000D01*
X11010000Y-16000714D01*
X11238571Y-16272143D02*
X11252857Y-16286429D01*
X11238571Y-16300714D01*
X11224286Y-16286429D01*
X11238571Y-16272143D01*
X11238571Y-16300714D01*
X11538571Y-16300714D02*
X11367143Y-16300714D01*
X11452857Y-16300714D02*
X11452857Y-16000714D01*
X11424286Y-16043571D01*
X11395714Y-16072143D01*
X11367143Y-16086429D01*
X11824286Y-16300714D02*
X11652857Y-16300714D01*
X11738571Y-16300714D02*
X11738571Y-16000714D01*
X11710000Y-16043571D01*
X11681428Y-16072143D01*
X11652857Y-16086429D01*
X12081428Y-16100714D02*
X12081428Y-16300714D01*
X12010000Y-15986429D02*
X11938571Y-16200714D01*
X12124286Y-16200714D01*
X12224286Y-16000714D02*
X12224286Y-16057857D01*
X12338571Y-16000714D02*
X12338571Y-16057857D01*
X12781428Y-16415000D02*
X12767143Y-16400714D01*
X12738571Y-16357857D01*
X12724286Y-16329286D01*
X12710000Y-16286429D01*
X12695714Y-16215000D01*
X12695714Y-16157857D01*
X12710000Y-16086429D01*
X12724286Y-16043571D01*
X12738571Y-16015000D01*
X12767143Y-15972143D01*
X12781428Y-15957857D01*
X12881428Y-16029286D02*
X12895714Y-16015000D01*
X12924286Y-16000714D01*
X12995714Y-16000714D01*
X13024286Y-16015000D01*
X13038571Y-16029286D01*
X13052857Y-16057857D01*
X13052857Y-16086429D01*
X13038571Y-16129286D01*
X12867143Y-16300714D01*
X13052857Y-16300714D01*
X13410000Y-16300714D02*
X13410000Y-16000714D01*
X13538571Y-16300714D02*
X13538571Y-16143571D01*
X13524286Y-16115000D01*
X13495714Y-16100714D01*
X13452857Y-16100714D01*
X13424286Y-16115000D01*
X13410000Y-16129286D01*
X13724286Y-16300714D02*
X13695714Y-16286429D01*
X13681428Y-16272143D01*
X13667143Y-16243571D01*
X13667143Y-16157857D01*
X13681428Y-16129286D01*
X13695714Y-16115000D01*
X13724286Y-16100714D01*
X13767143Y-16100714D01*
X13795714Y-16115000D01*
X13810000Y-16129286D01*
X13824286Y-16157857D01*
X13824286Y-16243571D01*
X13810000Y-16272143D01*
X13795714Y-16286429D01*
X13767143Y-16300714D01*
X13724286Y-16300714D01*
X13995714Y-16300714D02*
X13967143Y-16286429D01*
X13952857Y-16257857D01*
X13952857Y-16000714D01*
X14224286Y-16286429D02*
X14195714Y-16300714D01*
X14138571Y-16300714D01*
X14110000Y-16286429D01*
X14095714Y-16257857D01*
X14095714Y-16143571D01*
X14110000Y-16115000D01*
X14138571Y-16100714D01*
X14195714Y-16100714D01*
X14224286Y-16115000D01*
X14238571Y-16143571D01*
X14238571Y-16172143D01*
X14095714Y-16200714D01*
X14352857Y-16286429D02*
X14381428Y-16300714D01*
X14438571Y-16300714D01*
X14467143Y-16286429D01*
X14481428Y-16257857D01*
X14481428Y-16243571D01*
X14467143Y-16215000D01*
X14438571Y-16200714D01*
X14395714Y-16200714D01*
X14367143Y-16186429D01*
X14352857Y-16157857D01*
X14352857Y-16143571D01*
X14367143Y-16115000D01*
X14395714Y-16100714D01*
X14438571Y-16100714D01*
X14467143Y-16115000D01*
X14581428Y-16415000D02*
X14595714Y-16400714D01*
X14624286Y-16357857D01*
X14638571Y-16329286D01*
X14652857Y-16286429D01*
X14667143Y-16215000D01*
X14667143Y-16157857D01*
X14652857Y-16086429D01*
X14638571Y-16043571D01*
X14624286Y-16015000D01*
X14595714Y-15972143D01*
X14581428Y-15957857D01*
X15124286Y-16415000D02*
X15110000Y-16400714D01*
X15081428Y-16357857D01*
X15067143Y-16329286D01*
X15052857Y-16286429D01*
X15038571Y-16215000D01*
X15038571Y-16157857D01*
X15052857Y-16086429D01*
X15067143Y-16043571D01*
X15081428Y-16015000D01*
X15110000Y-15972143D01*
X15124286Y-15957857D01*
X15238571Y-16100714D02*
X15238571Y-16300714D01*
X15238571Y-16129286D02*
X15252857Y-16115000D01*
X15281428Y-16100714D01*
X15324286Y-16100714D01*
X15352857Y-16115000D01*
X15367143Y-16143571D01*
X15367143Y-16300714D01*
X15552857Y-16300714D02*
X15524286Y-16286429D01*
X15510000Y-16272143D01*
X15495714Y-16243571D01*
X15495714Y-16157857D01*
X15510000Y-16129286D01*
X15524286Y-16115000D01*
X15552857Y-16100714D01*
X15595714Y-16100714D01*
X15624286Y-16115000D01*
X15638571Y-16129286D01*
X15652857Y-16157857D01*
X15652857Y-16243571D01*
X15638571Y-16272143D01*
X15624286Y-16286429D01*
X15595714Y-16300714D01*
X15552857Y-16300714D01*
X15738571Y-16100714D02*
X15852857Y-16100714D01*
X15781428Y-16000714D02*
X15781428Y-16257857D01*
X15795714Y-16286429D01*
X15824286Y-16300714D01*
X15852857Y-16300714D01*
X16181428Y-16100714D02*
X16181428Y-16400714D01*
X16181428Y-16115000D02*
X16210000Y-16100714D01*
X16267143Y-16100714D01*
X16295714Y-16115000D01*
X16310000Y-16129286D01*
X16324286Y-16157857D01*
X16324286Y-16243571D01*
X16310000Y-16272143D01*
X16295714Y-16286429D01*
X16267143Y-16300714D01*
X16210000Y-16300714D01*
X16181428Y-16286429D01*
X16495714Y-16300714D02*
X16467143Y-16286429D01*
X16452857Y-16257857D01*
X16452857Y-16000714D01*
X16738571Y-16300714D02*
X16738571Y-16143571D01*
X16724286Y-16115000D01*
X16695714Y-16100714D01*
X16638571Y-16100714D01*
X16610000Y-16115000D01*
X16738571Y-16286429D02*
X16710000Y-16300714D01*
X16638571Y-16300714D01*
X16610000Y-16286429D01*
X16595714Y-16257857D01*
X16595714Y-16229286D01*
X16610000Y-16200714D01*
X16638571Y-16186429D01*
X16710000Y-16186429D01*
X16738571Y-16172143D01*
X16838571Y-16100714D02*
X16952857Y-16100714D01*
X16881428Y-16000714D02*
X16881428Y-16257857D01*
X16895714Y-16286429D01*
X16924286Y-16300714D01*
X16952857Y-16300714D01*
X17167143Y-16286429D02*
X17138571Y-16300714D01*
X17081428Y-16300714D01*
X17052857Y-16286429D01*
X17038571Y-16257857D01*
X17038571Y-16143571D01*
X17052857Y-16115000D01*
X17081428Y-16100714D01*
X17138571Y-16100714D01*
X17167143Y-16115000D01*
X17181428Y-16143571D01*
X17181428Y-16172143D01*
X17038571Y-16200714D01*
X17438571Y-16300714D02*
X17438571Y-16000714D01*
X17438571Y-16286429D02*
X17410000Y-16300714D01*
X17352857Y-16300714D01*
X17324286Y-16286429D01*
X17310000Y-16272143D01*
X17295714Y-16243571D01*
X17295714Y-16157857D01*
X17310000Y-16129286D01*
X17324286Y-16115000D01*
X17352857Y-16100714D01*
X17410000Y-16100714D01*
X17438571Y-16115000D01*
X17552857Y-16415000D02*
X17567143Y-16400714D01*
X17595714Y-16357857D01*
X17610000Y-16329286D01*
X17624286Y-16286429D01*
X17638571Y-16215000D01*
X17638571Y-16157857D01*
X17624286Y-16086429D01*
X17610000Y-16043571D01*
X17595714Y-16015000D01*
X17567143Y-15972143D01*
X17552857Y-15957857D01*
M02*
