%TF.GenerationSoftware,KiCad,Pcbnew,4.0.7*%
%TF.CreationDate,2018-06-17T00:12:40+02:00*%
%TF.ProjectId,HB-UNI-644,48422D554E492D3634342E6B69636164,rev?*%
%TF.FileFunction,Soldermask,Bot*%
%FSLAX46Y46*%
G04 Gerber Fmt 4.6, Leading zero omitted, Abs format (unit mm)*
G04 Created by KiCad (PCBNEW 4.0.7) date 06/17/18 00:12:40*
%MOMM*%
%LPD*%
G01*
G04 APERTURE LIST*
%ADD10C,0.100000*%
%ADD11C,1.600000*%
%ADD12C,2.900000*%
%ADD13C,4.400000*%
%ADD14C,0.700000*%
%ADD15C,1.350000*%
%ADD16R,1.600000X2.000000*%
%ADD17R,2.000000X1.600000*%
%ADD18R,1.800000X1.800000*%
%ADD19C,1.800000*%
%ADD20R,1.700000X1.700000*%
%ADD21O,1.700000X1.700000*%
%ADD22R,1.270000X0.970000*%
%ADD23R,0.970000X1.270000*%
%ADD24R,0.800000X1.900000*%
%ADD25R,1.500000X1.300000*%
%ADD26R,2.000000X0.650000*%
%ADD27C,1.500000*%
%ADD28C,1.700000*%
%ADD29R,3.300000X1.700000*%
%ADD30R,3.500000X3.500000*%
G04 APERTURE END LIST*
D10*
D11*
X132500000Y-138100000D03*
X132500000Y-84900000D03*
D12*
X132500000Y-111500000D03*
D13*
X120500000Y-147000000D03*
D14*
X120500000Y-145350000D03*
X119333274Y-148166726D03*
X119333274Y-145833274D03*
X121666726Y-148166726D03*
X121666726Y-145833274D03*
X120500000Y-148650000D03*
X118850000Y-147000000D03*
X122150000Y-147000000D03*
D13*
X120500000Y-79000000D03*
D14*
X120500000Y-77350000D03*
X119333274Y-80166726D03*
X119333274Y-77833274D03*
X121666726Y-80166726D03*
X121666726Y-77833274D03*
X120500000Y-80650000D03*
X118850000Y-79000000D03*
X122150000Y-79000000D03*
D13*
X86500000Y-79000000D03*
D14*
X86500000Y-77350000D03*
X85333274Y-80166726D03*
X85333274Y-77833274D03*
X87666726Y-80166726D03*
X87666726Y-77833274D03*
X86500000Y-80650000D03*
X84850000Y-79000000D03*
X88150000Y-79000000D03*
D13*
X86500000Y-147000000D03*
D14*
X86500000Y-145350000D03*
X85333274Y-148166726D03*
X85333274Y-145833274D03*
X87666726Y-148166726D03*
X87666726Y-145833274D03*
X86500000Y-148650000D03*
X84850000Y-147000000D03*
X88150000Y-147000000D03*
D13*
X154500000Y-79000000D03*
D14*
X154500000Y-77350000D03*
X153333274Y-80166726D03*
X153333274Y-77833274D03*
X155666726Y-80166726D03*
X155666726Y-77833274D03*
X154500000Y-80650000D03*
X152850000Y-79000000D03*
X156150000Y-79000000D03*
D13*
X154500000Y-147000000D03*
D14*
X154500000Y-145350000D03*
X153333274Y-148166726D03*
X153333274Y-145833274D03*
X155666726Y-148166726D03*
X155666726Y-145833274D03*
X154500000Y-148650000D03*
X152850000Y-147000000D03*
X156150000Y-147000000D03*
D11*
X150500000Y-84900000D03*
X150500000Y-138100000D03*
D12*
X150500000Y-111500000D03*
D15*
X84415000Y-103130000D03*
X84415000Y-89130000D03*
X84415000Y-91130000D03*
X84415000Y-93130000D03*
X84415000Y-95130000D03*
X84415000Y-97130000D03*
X84415000Y-99130000D03*
X84415000Y-101130000D03*
D16*
X109220000Y-137636000D03*
X109220000Y-133636000D03*
D17*
X116300000Y-133350000D03*
X112300000Y-133350000D03*
D18*
X106680000Y-81280000D03*
D19*
X109220000Y-81280000D03*
X111760000Y-81280000D03*
D20*
X92075000Y-149225000D03*
D21*
X94615000Y-149225000D03*
X97155000Y-149225000D03*
X99695000Y-149225000D03*
X102235000Y-149225000D03*
X104775000Y-149225000D03*
D22*
X96520000Y-139070000D03*
X96520000Y-137790000D03*
D20*
X85090000Y-130810000D03*
D21*
X85090000Y-133350000D03*
X85090000Y-135890000D03*
X85090000Y-138430000D03*
D23*
X107945000Y-149225000D03*
X109225000Y-149225000D03*
D20*
X100330000Y-130810000D03*
D21*
X100330000Y-133350000D03*
X100330000Y-135890000D03*
X100330000Y-138430000D03*
D20*
X105410000Y-130810000D03*
D21*
X105410000Y-133350000D03*
X105410000Y-135890000D03*
X105410000Y-138430000D03*
D20*
X120650000Y-130810000D03*
D21*
X120650000Y-133350000D03*
X120650000Y-135890000D03*
X120650000Y-138430000D03*
D24*
X95570000Y-132485000D03*
X97470000Y-132485000D03*
X96520000Y-135485000D03*
D25*
X94535000Y-128905000D03*
X97235000Y-128905000D03*
D26*
X112590000Y-138745000D03*
X112590000Y-137795000D03*
X112590000Y-136845000D03*
X116010000Y-136845000D03*
X116010000Y-138745000D03*
D27*
X86360000Y-110490000D03*
X86360000Y-115370000D03*
D20*
X98425000Y-76835000D03*
D21*
X98425000Y-79375000D03*
X95885000Y-76835000D03*
X95885000Y-79375000D03*
X93345000Y-76835000D03*
X93345000Y-79375000D03*
D20*
X120650000Y-124460000D03*
D21*
X118110000Y-124460000D03*
X120650000Y-121920000D03*
X118110000Y-121920000D03*
X120650000Y-119380000D03*
X118110000Y-119380000D03*
X120650000Y-116840000D03*
X118110000Y-116840000D03*
X120650000Y-114300000D03*
X118110000Y-114300000D03*
X120650000Y-111760000D03*
X118110000Y-111760000D03*
X120650000Y-109220000D03*
X118110000Y-109220000D03*
X120650000Y-106680000D03*
X118110000Y-106680000D03*
D20*
X118110000Y-101600000D03*
D21*
X115570000Y-101600000D03*
X118110000Y-99060000D03*
X115570000Y-99060000D03*
X118110000Y-96520000D03*
X115570000Y-96520000D03*
X118110000Y-93980000D03*
X115570000Y-93980000D03*
X118110000Y-91440000D03*
X115570000Y-91440000D03*
X118110000Y-88900000D03*
X115570000Y-88900000D03*
X118110000Y-86360000D03*
X115570000Y-86360000D03*
X118110000Y-83820000D03*
X115570000Y-83820000D03*
D20*
X112395000Y-149225000D03*
D21*
X114935000Y-149225000D03*
D28*
X118110000Y-104140000D03*
X120650000Y-101600000D03*
D21*
X120650000Y-99060000D03*
D17*
X92170000Y-142240000D03*
X88170000Y-142240000D03*
X88805000Y-132080000D03*
X92805000Y-132080000D03*
D29*
X98215000Y-142875000D03*
X103715000Y-142875000D03*
D30*
X109630000Y-142875000D03*
X116430000Y-142875000D03*
D24*
X89220000Y-135660000D03*
X91120000Y-135660000D03*
X90170000Y-138660000D03*
D19*
X102235000Y-97155000D03*
M02*
