G04 #@! TF.GenerationSoftware,KiCad,Pcbnew,(5.1.5)-3*
G04 #@! TF.CreationDate,2020-06-15T16:44:31+02:00*
G04 #@! TF.ProjectId,HB-RF-ETH,48422d52-462d-4455-9448-2e6b69636164,rev?*
G04 #@! TF.SameCoordinates,Original*
G04 #@! TF.FileFunction,Soldermask,Bot*
G04 #@! TF.FilePolarity,Negative*
%FSLAX46Y46*%
G04 Gerber Fmt 4.6, Leading zero omitted, Abs format (unit mm)*
G04 Created by KiCad (PCBNEW (5.1.5)-3) date 2020-06-15 16:44:31*
%MOMM*%
%LPD*%
G04 APERTURE LIST*
%ADD10C,0.100000*%
G04 APERTURE END LIST*
D10*
G36*
X142102318Y-113917892D02*
G01*
X142272976Y-113951838D01*
X142395236Y-114002480D01*
X142657908Y-114111282D01*
X142755246Y-114151601D01*
X142883990Y-114237625D01*
X143189275Y-114441610D01*
X143558390Y-114810725D01*
X143848400Y-115244756D01*
X143869254Y-115295102D01*
X144021670Y-115663066D01*
X144048162Y-115727025D01*
X144150000Y-116238996D01*
X144150000Y-116761004D01*
X144082108Y-117102318D01*
X144048162Y-117272976D01*
X143848399Y-117755246D01*
X143837187Y-117772026D01*
X143684614Y-118000368D01*
X143558389Y-118189276D01*
X143189276Y-118558389D01*
X142755246Y-118848399D01*
X142755245Y-118848400D01*
X142755244Y-118848400D01*
X142621535Y-118903784D01*
X142272976Y-119048162D01*
X142102318Y-119082108D01*
X141761004Y-119150000D01*
X141238996Y-119150000D01*
X140897682Y-119082108D01*
X140727024Y-119048162D01*
X140378465Y-118903784D01*
X140244756Y-118848400D01*
X140244755Y-118848400D01*
X140244754Y-118848399D01*
X139810724Y-118558389D01*
X139441611Y-118189276D01*
X139315387Y-118000368D01*
X139162813Y-117772026D01*
X139151601Y-117755246D01*
X138951838Y-117272976D01*
X138917892Y-117102318D01*
X138850000Y-116761004D01*
X138850000Y-116238996D01*
X138951838Y-115727025D01*
X138978331Y-115663066D01*
X139130746Y-115295102D01*
X139151600Y-115244756D01*
X139441610Y-114810725D01*
X139810725Y-114441610D01*
X140116010Y-114237625D01*
X140244754Y-114151601D01*
X140342093Y-114111282D01*
X140604764Y-114002480D01*
X140727024Y-113951838D01*
X140897682Y-113917892D01*
X141238996Y-113850000D01*
X141761004Y-113850000D01*
X142102318Y-113917892D01*
G37*
G36*
X84102318Y-113917892D02*
G01*
X84272976Y-113951838D01*
X84395236Y-114002480D01*
X84657908Y-114111282D01*
X84755246Y-114151601D01*
X84883990Y-114237625D01*
X85189275Y-114441610D01*
X85558390Y-114810725D01*
X85848400Y-115244756D01*
X85869254Y-115295102D01*
X86021670Y-115663066D01*
X86048162Y-115727025D01*
X86150000Y-116238996D01*
X86150000Y-116761004D01*
X86082108Y-117102318D01*
X86048162Y-117272976D01*
X85848399Y-117755246D01*
X85837187Y-117772026D01*
X85684614Y-118000368D01*
X85558389Y-118189276D01*
X85189276Y-118558389D01*
X84755246Y-118848399D01*
X84755245Y-118848400D01*
X84755244Y-118848400D01*
X84621535Y-118903784D01*
X84272976Y-119048162D01*
X84102318Y-119082108D01*
X83761004Y-119150000D01*
X83238996Y-119150000D01*
X82897682Y-119082108D01*
X82727024Y-119048162D01*
X82378465Y-118903784D01*
X82244756Y-118848400D01*
X82244755Y-118848400D01*
X82244754Y-118848399D01*
X81810724Y-118558389D01*
X81441611Y-118189276D01*
X81315387Y-118000368D01*
X81162813Y-117772026D01*
X81151601Y-117755246D01*
X80951838Y-117272976D01*
X80917892Y-117102318D01*
X80850000Y-116761004D01*
X80850000Y-116238996D01*
X80951838Y-115727025D01*
X80978331Y-115663066D01*
X81130746Y-115295102D01*
X81151600Y-115244756D01*
X81441610Y-114810725D01*
X81810725Y-114441610D01*
X82116010Y-114237625D01*
X82244754Y-114151601D01*
X82342093Y-114111282D01*
X82604764Y-114002480D01*
X82727024Y-113951838D01*
X82897682Y-113917892D01*
X83238996Y-113850000D01*
X83761004Y-113850000D01*
X84102318Y-113917892D01*
G37*
G36*
X94326441Y-116759333D02*
G01*
X94448024Y-116796215D01*
X94464263Y-116804895D01*
X94560074Y-116856106D01*
X94596319Y-116885852D01*
X94658290Y-116936710D01*
X94674777Y-116956800D01*
X94738894Y-117034925D01*
X94784347Y-117119963D01*
X94798785Y-117146975D01*
X94835667Y-117268558D01*
X94845000Y-117363321D01*
X94845000Y-118336679D01*
X94835667Y-118431442D01*
X94798785Y-118553025D01*
X94795917Y-118558390D01*
X94738894Y-118665075D01*
X94658290Y-118763290D01*
X94560075Y-118843894D01*
X94475037Y-118889347D01*
X94448025Y-118903785D01*
X94326442Y-118940667D01*
X94200000Y-118953120D01*
X94073559Y-118940667D01*
X93951976Y-118903785D01*
X93924964Y-118889347D01*
X93839926Y-118843894D01*
X93741711Y-118763290D01*
X93661107Y-118665075D01*
X93604084Y-118558390D01*
X93601216Y-118553025D01*
X93564334Y-118431442D01*
X93555000Y-118336679D01*
X93555000Y-117363322D01*
X93564333Y-117268559D01*
X93601215Y-117146976D01*
X93630544Y-117092105D01*
X93661106Y-117034926D01*
X93725223Y-116956800D01*
X93741710Y-116936710D01*
X93786777Y-116899725D01*
X93839925Y-116856106D01*
X93935736Y-116804895D01*
X93951975Y-116796215D01*
X94073558Y-116759333D01*
X94200000Y-116746880D01*
X94326441Y-116759333D01*
G37*
G36*
X87126441Y-116759333D02*
G01*
X87248024Y-116796215D01*
X87264263Y-116804895D01*
X87360074Y-116856106D01*
X87396319Y-116885852D01*
X87458290Y-116936710D01*
X87474777Y-116956800D01*
X87538894Y-117034925D01*
X87584347Y-117119963D01*
X87598785Y-117146975D01*
X87635667Y-117268558D01*
X87645000Y-117363321D01*
X87645000Y-118336679D01*
X87635667Y-118431442D01*
X87598785Y-118553025D01*
X87595917Y-118558390D01*
X87538894Y-118665075D01*
X87458290Y-118763290D01*
X87360075Y-118843894D01*
X87275037Y-118889347D01*
X87248025Y-118903785D01*
X87126442Y-118940667D01*
X87000000Y-118953120D01*
X86873559Y-118940667D01*
X86751976Y-118903785D01*
X86724964Y-118889347D01*
X86639926Y-118843894D01*
X86541711Y-118763290D01*
X86461107Y-118665075D01*
X86404084Y-118558390D01*
X86401216Y-118553025D01*
X86364334Y-118431442D01*
X86355000Y-118336679D01*
X86355000Y-117363322D01*
X86364333Y-117268559D01*
X86401215Y-117146976D01*
X86430544Y-117092105D01*
X86461106Y-117034926D01*
X86525223Y-116956800D01*
X86541710Y-116936710D01*
X86586777Y-116899725D01*
X86639925Y-116856106D01*
X86735736Y-116804895D01*
X86751975Y-116796215D01*
X86873558Y-116759333D01*
X87000000Y-116746880D01*
X87126441Y-116759333D01*
G37*
G36*
X108087200Y-118856800D02*
G01*
X106187200Y-118856800D01*
X106187200Y-116956800D01*
X108087200Y-116956800D01*
X108087200Y-118856800D01*
G37*
G36*
X102334303Y-116993307D02*
G01*
X102507192Y-117064920D01*
X102507194Y-117064921D01*
X102662790Y-117168887D01*
X102795113Y-117301210D01*
X102848716Y-117381433D01*
X102899080Y-117456808D01*
X102970693Y-117629697D01*
X103007200Y-117813232D01*
X103007200Y-118000368D01*
X102970693Y-118183903D01*
X102899080Y-118356792D01*
X102899079Y-118356794D01*
X102795113Y-118512390D01*
X102662790Y-118644713D01*
X102507194Y-118748679D01*
X102507193Y-118748680D01*
X102507192Y-118748680D01*
X102334303Y-118820293D01*
X102150768Y-118856800D01*
X101963632Y-118856800D01*
X101780097Y-118820293D01*
X101607208Y-118748680D01*
X101607207Y-118748680D01*
X101607206Y-118748679D01*
X101451610Y-118644713D01*
X101319287Y-118512390D01*
X101215321Y-118356794D01*
X101215320Y-118356792D01*
X101143707Y-118183903D01*
X101107200Y-118000368D01*
X101107200Y-117813232D01*
X101143707Y-117629697D01*
X101215320Y-117456808D01*
X101265684Y-117381433D01*
X101319287Y-117301210D01*
X101451610Y-117168887D01*
X101607206Y-117064921D01*
X101607208Y-117064920D01*
X101780097Y-116993307D01*
X101963632Y-116956800D01*
X102150768Y-116956800D01*
X102334303Y-116993307D01*
G37*
G36*
X99794303Y-116993307D02*
G01*
X99967192Y-117064920D01*
X99967194Y-117064921D01*
X100122790Y-117168887D01*
X100255113Y-117301210D01*
X100308716Y-117381433D01*
X100359080Y-117456808D01*
X100430693Y-117629697D01*
X100467200Y-117813232D01*
X100467200Y-118000368D01*
X100430693Y-118183903D01*
X100359080Y-118356792D01*
X100359079Y-118356794D01*
X100255113Y-118512390D01*
X100122790Y-118644713D01*
X99967194Y-118748679D01*
X99967193Y-118748680D01*
X99967192Y-118748680D01*
X99794303Y-118820293D01*
X99610768Y-118856800D01*
X99423632Y-118856800D01*
X99240097Y-118820293D01*
X99067208Y-118748680D01*
X99067207Y-118748680D01*
X99067206Y-118748679D01*
X98911610Y-118644713D01*
X98779287Y-118512390D01*
X98675321Y-118356794D01*
X98675320Y-118356792D01*
X98603707Y-118183903D01*
X98567200Y-118000368D01*
X98567200Y-117813232D01*
X98603707Y-117629697D01*
X98675320Y-117456808D01*
X98725684Y-117381433D01*
X98779287Y-117301210D01*
X98911610Y-117168887D01*
X99067206Y-117064921D01*
X99067208Y-117064920D01*
X99240097Y-116993307D01*
X99423632Y-116956800D01*
X99610768Y-116956800D01*
X99794303Y-116993307D01*
G37*
G36*
X97254303Y-116993307D02*
G01*
X97427192Y-117064920D01*
X97427194Y-117064921D01*
X97582790Y-117168887D01*
X97715113Y-117301210D01*
X97768716Y-117381433D01*
X97819080Y-117456808D01*
X97890693Y-117629697D01*
X97927200Y-117813232D01*
X97927200Y-118000368D01*
X97890693Y-118183903D01*
X97819080Y-118356792D01*
X97819079Y-118356794D01*
X97715113Y-118512390D01*
X97582790Y-118644713D01*
X97427194Y-118748679D01*
X97427193Y-118748680D01*
X97427192Y-118748680D01*
X97254303Y-118820293D01*
X97070768Y-118856800D01*
X96883632Y-118856800D01*
X96700097Y-118820293D01*
X96527208Y-118748680D01*
X96527207Y-118748680D01*
X96527206Y-118748679D01*
X96371610Y-118644713D01*
X96239287Y-118512390D01*
X96135321Y-118356794D01*
X96135320Y-118356792D01*
X96063707Y-118183903D01*
X96027200Y-118000368D01*
X96027200Y-117813232D01*
X96063707Y-117629697D01*
X96135320Y-117456808D01*
X96185684Y-117381433D01*
X96239287Y-117301210D01*
X96371610Y-117168887D01*
X96527206Y-117064921D01*
X96527208Y-117064920D01*
X96700097Y-116993307D01*
X96883632Y-116956800D01*
X97070768Y-116956800D01*
X97254303Y-116993307D01*
G37*
G36*
X104874303Y-116993307D02*
G01*
X105047192Y-117064920D01*
X105047194Y-117064921D01*
X105202790Y-117168887D01*
X105335113Y-117301210D01*
X105388716Y-117381433D01*
X105439080Y-117456808D01*
X105510693Y-117629697D01*
X105547200Y-117813232D01*
X105547200Y-118000368D01*
X105510693Y-118183903D01*
X105439080Y-118356792D01*
X105439079Y-118356794D01*
X105335113Y-118512390D01*
X105202790Y-118644713D01*
X105047194Y-118748679D01*
X105047193Y-118748680D01*
X105047192Y-118748680D01*
X104874303Y-118820293D01*
X104690768Y-118856800D01*
X104503632Y-118856800D01*
X104320097Y-118820293D01*
X104147208Y-118748680D01*
X104147207Y-118748680D01*
X104147206Y-118748679D01*
X103991610Y-118644713D01*
X103859287Y-118512390D01*
X103755321Y-118356794D01*
X103755320Y-118356792D01*
X103683707Y-118183903D01*
X103647200Y-118000368D01*
X103647200Y-117813232D01*
X103683707Y-117629697D01*
X103755320Y-117456808D01*
X103805684Y-117381433D01*
X103859287Y-117301210D01*
X103991610Y-117168887D01*
X104147206Y-117064921D01*
X104147208Y-117064920D01*
X104320097Y-116993307D01*
X104503632Y-116956800D01*
X104690768Y-116956800D01*
X104874303Y-116993307D01*
G37*
G36*
X132395000Y-118425000D02*
G01*
X130495000Y-118425000D01*
X130495000Y-116525000D01*
X132395000Y-116525000D01*
X132395000Y-118425000D01*
G37*
G36*
X134262103Y-116561507D02*
G01*
X134434992Y-116633120D01*
X134434994Y-116633121D01*
X134590590Y-116737087D01*
X134722913Y-116869410D01*
X134826879Y-117025006D01*
X134826880Y-117025008D01*
X134898493Y-117197897D01*
X134935000Y-117381432D01*
X134935000Y-117568568D01*
X134898493Y-117752103D01*
X134873172Y-117813233D01*
X134826879Y-117924994D01*
X134722913Y-118080590D01*
X134590590Y-118212913D01*
X134434994Y-118316879D01*
X134434993Y-118316880D01*
X134434992Y-118316880D01*
X134262103Y-118388493D01*
X134078568Y-118425000D01*
X133891432Y-118425000D01*
X133707897Y-118388493D01*
X133535008Y-118316880D01*
X133535007Y-118316880D01*
X133535006Y-118316879D01*
X133379410Y-118212913D01*
X133247087Y-118080590D01*
X133143121Y-117924994D01*
X133096828Y-117813233D01*
X133071507Y-117752103D01*
X133035000Y-117568568D01*
X133035000Y-117381432D01*
X133071507Y-117197897D01*
X133143120Y-117025008D01*
X133143121Y-117025006D01*
X133247087Y-116869410D01*
X133379410Y-116737087D01*
X133535006Y-116633121D01*
X133535008Y-116633120D01*
X133707897Y-116561507D01*
X133891432Y-116525000D01*
X134078568Y-116525000D01*
X134262103Y-116561507D01*
G37*
G36*
X136802103Y-116561507D02*
G01*
X136974992Y-116633120D01*
X136974994Y-116633121D01*
X137130590Y-116737087D01*
X137262913Y-116869410D01*
X137366879Y-117025006D01*
X137366880Y-117025008D01*
X137438493Y-117197897D01*
X137475000Y-117381432D01*
X137475000Y-117568568D01*
X137438493Y-117752103D01*
X137413172Y-117813233D01*
X137366879Y-117924994D01*
X137262913Y-118080590D01*
X137130590Y-118212913D01*
X136974994Y-118316879D01*
X136974993Y-118316880D01*
X136974992Y-118316880D01*
X136802103Y-118388493D01*
X136618568Y-118425000D01*
X136431432Y-118425000D01*
X136247897Y-118388493D01*
X136075008Y-118316880D01*
X136075007Y-118316880D01*
X136075006Y-118316879D01*
X135919410Y-118212913D01*
X135787087Y-118080590D01*
X135683121Y-117924994D01*
X135636828Y-117813233D01*
X135611507Y-117752103D01*
X135575000Y-117568568D01*
X135575000Y-117381432D01*
X135611507Y-117197897D01*
X135683120Y-117025008D01*
X135683121Y-117025006D01*
X135787087Y-116869410D01*
X135919410Y-116737087D01*
X136075006Y-116633121D01*
X136075008Y-116633120D01*
X136247897Y-116561507D01*
X136431432Y-116525000D01*
X136618568Y-116525000D01*
X136802103Y-116561507D01*
G37*
G36*
X153897025Y-116885852D02*
G01*
X154038402Y-116928739D01*
X154168692Y-116998379D01*
X154282895Y-117092105D01*
X154376621Y-117206308D01*
X154446261Y-117336598D01*
X154489148Y-117477975D01*
X154503628Y-117625000D01*
X154489148Y-117772025D01*
X154446261Y-117913402D01*
X154376621Y-118043692D01*
X154282895Y-118157895D01*
X154168692Y-118251621D01*
X154038402Y-118321261D01*
X153897025Y-118364148D01*
X153786839Y-118375000D01*
X152513161Y-118375000D01*
X152402975Y-118364148D01*
X152261598Y-118321261D01*
X152131308Y-118251621D01*
X152017105Y-118157895D01*
X151923379Y-118043692D01*
X151853739Y-117913402D01*
X151810852Y-117772025D01*
X151796372Y-117625000D01*
X151810852Y-117477975D01*
X151853739Y-117336598D01*
X151923379Y-117206308D01*
X152017105Y-117092105D01*
X152131308Y-116998379D01*
X152261598Y-116928739D01*
X152402975Y-116885852D01*
X152513161Y-116875000D01*
X153786839Y-116875000D01*
X153897025Y-116885852D01*
G37*
G36*
X163126808Y-116362489D02*
G01*
X163189598Y-116374979D01*
X163258891Y-116403682D01*
X163307889Y-116423977D01*
X163307890Y-116423978D01*
X163414351Y-116495112D01*
X163504888Y-116585649D01*
X163504889Y-116585651D01*
X163576023Y-116692111D01*
X163594652Y-116737086D01*
X163625021Y-116810402D01*
X163625021Y-116810404D01*
X163650000Y-116935979D01*
X163650000Y-117064021D01*
X163638127Y-117123709D01*
X163625021Y-117189598D01*
X163596318Y-117258891D01*
X163576023Y-117307889D01*
X163576022Y-117307890D01*
X163504888Y-117414351D01*
X163414351Y-117504888D01*
X163360760Y-117540696D01*
X163307889Y-117576023D01*
X163258891Y-117596318D01*
X163189598Y-117625021D01*
X163126809Y-117637510D01*
X163064021Y-117650000D01*
X162935979Y-117650000D01*
X162873191Y-117637510D01*
X162810402Y-117625021D01*
X162741109Y-117596318D01*
X162692111Y-117576023D01*
X162639240Y-117540696D01*
X162585649Y-117504888D01*
X162495112Y-117414351D01*
X162423978Y-117307890D01*
X162423977Y-117307889D01*
X162403682Y-117258891D01*
X162374979Y-117189598D01*
X162361873Y-117123709D01*
X162350000Y-117064021D01*
X162350000Y-116935979D01*
X162374979Y-116810404D01*
X162374979Y-116810402D01*
X162405348Y-116737086D01*
X162423977Y-116692111D01*
X162495111Y-116585651D01*
X162495112Y-116585649D01*
X162585649Y-116495112D01*
X162692110Y-116423978D01*
X162692111Y-116423977D01*
X162741109Y-116403682D01*
X162810402Y-116374979D01*
X162873192Y-116362489D01*
X162935979Y-116350000D01*
X163064021Y-116350000D01*
X163126808Y-116362489D01*
G37*
G36*
X160527934Y-115557664D02*
G01*
X160682625Y-115621739D01*
X160702320Y-115634899D01*
X160821844Y-115714762D01*
X160940238Y-115833156D01*
X160940239Y-115833158D01*
X161033261Y-115972375D01*
X161097336Y-116127066D01*
X161130000Y-116291281D01*
X161130000Y-116458719D01*
X161097336Y-116622934D01*
X161033261Y-116777625D01*
X161020839Y-116796216D01*
X160940238Y-116916844D01*
X160821844Y-117035238D01*
X160777420Y-117064921D01*
X160682625Y-117128261D01*
X160527934Y-117192336D01*
X160363719Y-117225000D01*
X160196281Y-117225000D01*
X160032066Y-117192336D01*
X159877375Y-117128261D01*
X159782580Y-117064921D01*
X159738156Y-117035238D01*
X159619762Y-116916844D01*
X159539161Y-116796216D01*
X159526739Y-116777625D01*
X159462664Y-116622934D01*
X159430000Y-116458719D01*
X159430000Y-116291281D01*
X159462664Y-116127066D01*
X159526739Y-115972375D01*
X159619761Y-115833158D01*
X159619762Y-115833156D01*
X159738156Y-115714762D01*
X159857680Y-115634899D01*
X159877375Y-115621739D01*
X160032066Y-115557664D01*
X160196281Y-115525000D01*
X160363719Y-115525000D01*
X160527934Y-115557664D01*
G37*
G36*
X156411415Y-113748258D02*
G01*
X156703164Y-113806290D01*
X157017094Y-113936324D01*
X157299624Y-114125105D01*
X157539895Y-114365376D01*
X157728676Y-114647906D01*
X157858710Y-114961836D01*
X157925000Y-115295102D01*
X157925000Y-115634898D01*
X157858710Y-115968164D01*
X157728676Y-116282094D01*
X157539895Y-116564624D01*
X157299624Y-116804895D01*
X157017094Y-116993676D01*
X156703164Y-117123710D01*
X156411415Y-117181742D01*
X156369899Y-117190000D01*
X156030101Y-117190000D01*
X155988585Y-117181742D01*
X155696836Y-117123710D01*
X155382906Y-116993676D01*
X155100376Y-116804895D01*
X154860105Y-116564624D01*
X154671324Y-116282094D01*
X154541290Y-115968164D01*
X154475000Y-115634898D01*
X154475000Y-115295102D01*
X154541290Y-114961836D01*
X154671324Y-114647906D01*
X154860105Y-114365376D01*
X155100376Y-114125105D01*
X155382906Y-113936324D01*
X155696836Y-113806290D01*
X155988585Y-113748258D01*
X156030101Y-113740000D01*
X156369899Y-113740000D01*
X156411415Y-113748258D01*
G37*
G36*
X147958241Y-114620052D02*
G01*
X148005209Y-114634300D01*
X148048490Y-114657434D01*
X148086430Y-114688570D01*
X148117566Y-114726510D01*
X148140700Y-114769791D01*
X148154948Y-114816759D01*
X148160000Y-114868054D01*
X148160000Y-116061946D01*
X148154948Y-116113241D01*
X148140700Y-116160209D01*
X148117566Y-116203490D01*
X148086430Y-116241430D01*
X148048490Y-116272566D01*
X148005209Y-116295700D01*
X147958241Y-116309948D01*
X147906946Y-116315000D01*
X146713054Y-116315000D01*
X146661759Y-116309948D01*
X146614791Y-116295700D01*
X146571510Y-116272566D01*
X146533570Y-116241430D01*
X146502434Y-116203490D01*
X146479300Y-116160209D01*
X146465052Y-116113241D01*
X146460000Y-116061946D01*
X146460000Y-114868054D01*
X146465052Y-114816759D01*
X146479300Y-114769791D01*
X146502434Y-114726510D01*
X146533570Y-114688570D01*
X146571510Y-114657434D01*
X146614791Y-114634300D01*
X146661759Y-114620052D01*
X146713054Y-114615000D01*
X147906946Y-114615000D01*
X147958241Y-114620052D01*
G37*
G36*
X88709383Y-115339411D02*
G01*
X88777629Y-115367680D01*
X88839048Y-115408719D01*
X88891281Y-115460952D01*
X88932320Y-115522371D01*
X88960589Y-115590617D01*
X88975000Y-115663066D01*
X88975000Y-115736934D01*
X88960589Y-115809383D01*
X88932320Y-115877629D01*
X88891281Y-115939048D01*
X88839048Y-115991281D01*
X88777629Y-116032320D01*
X88777628Y-116032321D01*
X88777627Y-116032321D01*
X88709383Y-116060589D01*
X88636935Y-116075000D01*
X88563065Y-116075000D01*
X88490617Y-116060589D01*
X88422373Y-116032321D01*
X88422372Y-116032321D01*
X88422371Y-116032320D01*
X88360952Y-115991281D01*
X88308719Y-115939048D01*
X88267680Y-115877629D01*
X88239411Y-115809383D01*
X88225000Y-115736934D01*
X88225000Y-115663066D01*
X88239411Y-115590617D01*
X88267680Y-115522371D01*
X88308719Y-115460952D01*
X88360952Y-115408719D01*
X88422371Y-115367680D01*
X88490617Y-115339411D01*
X88563065Y-115325000D01*
X88636935Y-115325000D01*
X88709383Y-115339411D01*
G37*
G36*
X92709383Y-115339411D02*
G01*
X92777629Y-115367680D01*
X92839048Y-115408719D01*
X92891281Y-115460952D01*
X92932320Y-115522371D01*
X92960589Y-115590617D01*
X92975000Y-115663066D01*
X92975000Y-115736934D01*
X92960589Y-115809383D01*
X92932320Y-115877629D01*
X92891281Y-115939048D01*
X92839048Y-115991281D01*
X92777629Y-116032320D01*
X92777628Y-116032321D01*
X92777627Y-116032321D01*
X92709383Y-116060589D01*
X92636935Y-116075000D01*
X92563065Y-116075000D01*
X92490617Y-116060589D01*
X92422373Y-116032321D01*
X92422372Y-116032321D01*
X92422371Y-116032320D01*
X92360952Y-115991281D01*
X92308719Y-115939048D01*
X92267680Y-115877629D01*
X92239411Y-115809383D01*
X92225000Y-115736934D01*
X92225000Y-115663066D01*
X92239411Y-115590617D01*
X92267680Y-115522371D01*
X92308719Y-115460952D01*
X92360952Y-115408719D01*
X92422371Y-115367680D01*
X92490617Y-115339411D01*
X92563065Y-115325000D01*
X92636935Y-115325000D01*
X92709383Y-115339411D01*
G37*
G36*
X87122520Y-113509043D02*
G01*
X87240333Y-113544781D01*
X87240335Y-113544782D01*
X87348909Y-113602815D01*
X87405028Y-113648871D01*
X87444080Y-113680920D01*
X87494482Y-113742335D01*
X87522185Y-113776091D01*
X87561690Y-113850000D01*
X87580219Y-113884666D01*
X87615957Y-114002479D01*
X87625000Y-114094296D01*
X87625000Y-114705704D01*
X87615957Y-114797521D01*
X87598449Y-114855239D01*
X87580218Y-114915336D01*
X87522185Y-115023910D01*
X87444080Y-115119080D01*
X87348910Y-115197185D01*
X87259913Y-115244754D01*
X87240334Y-115255219D01*
X87122521Y-115290957D01*
X87000000Y-115303024D01*
X86877480Y-115290957D01*
X86759667Y-115255219D01*
X86740088Y-115244754D01*
X86651091Y-115197185D01*
X86555921Y-115119080D01*
X86477815Y-115023909D01*
X86419782Y-114915336D01*
X86401552Y-114855239D01*
X86384043Y-114797521D01*
X86375000Y-114705704D01*
X86375000Y-114094297D01*
X86384043Y-114002480D01*
X86419781Y-113884667D01*
X86438311Y-113850000D01*
X86477815Y-113776091D01*
X86523871Y-113719973D01*
X86555920Y-113680920D01*
X86651089Y-113602817D01*
X86651091Y-113602815D01*
X86759664Y-113544782D01*
X86759666Y-113544781D01*
X86877479Y-113509043D01*
X87000000Y-113496976D01*
X87122520Y-113509043D01*
G37*
G36*
X94322520Y-113509043D02*
G01*
X94440333Y-113544781D01*
X94440335Y-113544782D01*
X94548909Y-113602815D01*
X94605028Y-113648871D01*
X94644080Y-113680920D01*
X94694482Y-113742335D01*
X94722185Y-113776091D01*
X94761690Y-113850000D01*
X94780219Y-113884666D01*
X94815957Y-114002479D01*
X94825000Y-114094296D01*
X94825000Y-114705704D01*
X94815957Y-114797521D01*
X94798449Y-114855239D01*
X94780218Y-114915336D01*
X94722185Y-115023910D01*
X94644080Y-115119080D01*
X94548910Y-115197185D01*
X94459913Y-115244754D01*
X94440334Y-115255219D01*
X94322521Y-115290957D01*
X94200000Y-115303024D01*
X94077480Y-115290957D01*
X93959667Y-115255219D01*
X93940088Y-115244754D01*
X93851091Y-115197185D01*
X93755921Y-115119080D01*
X93677815Y-115023909D01*
X93619782Y-114915336D01*
X93601552Y-114855239D01*
X93584043Y-114797521D01*
X93575000Y-114705704D01*
X93575000Y-114094297D01*
X93584043Y-114002480D01*
X93619781Y-113884667D01*
X93638311Y-113850000D01*
X93677815Y-113776091D01*
X93723871Y-113719973D01*
X93755920Y-113680920D01*
X93851089Y-113602817D01*
X93851091Y-113602815D01*
X93959664Y-113544782D01*
X93959666Y-113544781D01*
X94077479Y-113509043D01*
X94200000Y-113496976D01*
X94322520Y-113509043D01*
G37*
G36*
X150097934Y-113377664D02*
G01*
X150252625Y-113441739D01*
X150252626Y-113441740D01*
X150391844Y-113534762D01*
X150510238Y-113653156D01*
X150528789Y-113680920D01*
X150603261Y-113792375D01*
X150667336Y-113947066D01*
X150700000Y-114111281D01*
X150700000Y-114278719D01*
X150667336Y-114442934D01*
X150603261Y-114597625D01*
X150577211Y-114636611D01*
X150510238Y-114736844D01*
X150391844Y-114855238D01*
X150372663Y-114868054D01*
X150252625Y-114948261D01*
X150097934Y-115012336D01*
X149933719Y-115045000D01*
X149766281Y-115045000D01*
X149602066Y-115012336D01*
X149447375Y-114948261D01*
X149327337Y-114868054D01*
X149308156Y-114855238D01*
X149189762Y-114736844D01*
X149122789Y-114636611D01*
X149096739Y-114597625D01*
X149032664Y-114442934D01*
X149000000Y-114278719D01*
X149000000Y-114111281D01*
X149032664Y-113947066D01*
X149096739Y-113792375D01*
X149171211Y-113680920D01*
X149189762Y-113653156D01*
X149308156Y-113534762D01*
X149447374Y-113441740D01*
X149447375Y-113441739D01*
X149602066Y-113377664D01*
X149766281Y-113345000D01*
X149933719Y-113345000D01*
X150097934Y-113377664D01*
G37*
G36*
X160527934Y-113017664D02*
G01*
X160682625Y-113081739D01*
X160682626Y-113081740D01*
X160821844Y-113174762D01*
X160940238Y-113293156D01*
X160940239Y-113293158D01*
X161033261Y-113432375D01*
X161097336Y-113587066D01*
X161130000Y-113751281D01*
X161130000Y-113918719D01*
X161097336Y-114082934D01*
X161033261Y-114237625D01*
X161033260Y-114237626D01*
X160940238Y-114376844D01*
X160821844Y-114495238D01*
X160751762Y-114542065D01*
X160682625Y-114588261D01*
X160527934Y-114652336D01*
X160363719Y-114685000D01*
X160196281Y-114685000D01*
X160032066Y-114652336D01*
X159877375Y-114588261D01*
X159808238Y-114542065D01*
X159738156Y-114495238D01*
X159619762Y-114376844D01*
X159526740Y-114237626D01*
X159526739Y-114237625D01*
X159462664Y-114082934D01*
X159430000Y-113918719D01*
X159430000Y-113751281D01*
X159462664Y-113587066D01*
X159526739Y-113432375D01*
X159619761Y-113293158D01*
X159619762Y-113293156D01*
X159738156Y-113174762D01*
X159877374Y-113081740D01*
X159877375Y-113081739D01*
X160032066Y-113017664D01*
X160196281Y-112985000D01*
X160363719Y-112985000D01*
X160527934Y-113017664D01*
G37*
G36*
X147557934Y-112107664D02*
G01*
X147712625Y-112171739D01*
X147712626Y-112171740D01*
X147851844Y-112264762D01*
X147970238Y-112383156D01*
X147997514Y-112423978D01*
X148063261Y-112522375D01*
X148127336Y-112677066D01*
X148160000Y-112841281D01*
X148160000Y-113008719D01*
X148127336Y-113172934D01*
X148063261Y-113327625D01*
X148063260Y-113327626D01*
X147970238Y-113466844D01*
X147851844Y-113585238D01*
X147849111Y-113587064D01*
X147712625Y-113678261D01*
X147557934Y-113742336D01*
X147393719Y-113775000D01*
X147226281Y-113775000D01*
X147062066Y-113742336D01*
X146907375Y-113678261D01*
X146770889Y-113587064D01*
X146768156Y-113585238D01*
X146649762Y-113466844D01*
X146556740Y-113327626D01*
X146556739Y-113327625D01*
X146492664Y-113172934D01*
X146460000Y-113008719D01*
X146460000Y-112841281D01*
X146492664Y-112677066D01*
X146556739Y-112522375D01*
X146622486Y-112423978D01*
X146649762Y-112383156D01*
X146768156Y-112264762D01*
X146907374Y-112171740D01*
X146907375Y-112171739D01*
X147062066Y-112107664D01*
X147226281Y-112075000D01*
X147393719Y-112075000D01*
X147557934Y-112107664D01*
G37*
G36*
X85126808Y-112362489D02*
G01*
X85189598Y-112374979D01*
X85258891Y-112403682D01*
X85307889Y-112423977D01*
X85307890Y-112423978D01*
X85414351Y-112495112D01*
X85504888Y-112585649D01*
X85504889Y-112585651D01*
X85576023Y-112692111D01*
X85596318Y-112741109D01*
X85625021Y-112810402D01*
X85625021Y-112810404D01*
X85650000Y-112935979D01*
X85650000Y-113064021D01*
X85646475Y-113081740D01*
X85625021Y-113189598D01*
X85596318Y-113258891D01*
X85576023Y-113307889D01*
X85576022Y-113307890D01*
X85504888Y-113414351D01*
X85414351Y-113504888D01*
X85369642Y-113534761D01*
X85307889Y-113576023D01*
X85258891Y-113596318D01*
X85189598Y-113625021D01*
X85126809Y-113637510D01*
X85064021Y-113650000D01*
X84935979Y-113650000D01*
X84873191Y-113637510D01*
X84810402Y-113625021D01*
X84741109Y-113596318D01*
X84692111Y-113576023D01*
X84630358Y-113534761D01*
X84585649Y-113504888D01*
X84495112Y-113414351D01*
X84423978Y-113307890D01*
X84423977Y-113307889D01*
X84403682Y-113258891D01*
X84374979Y-113189598D01*
X84353525Y-113081740D01*
X84350000Y-113064021D01*
X84350000Y-112935979D01*
X84374979Y-112810404D01*
X84374979Y-112810402D01*
X84403682Y-112741109D01*
X84423977Y-112692111D01*
X84495111Y-112585651D01*
X84495112Y-112585649D01*
X84585649Y-112495112D01*
X84692110Y-112423978D01*
X84692111Y-112423977D01*
X84741109Y-112403682D01*
X84810402Y-112374979D01*
X84873192Y-112362489D01*
X84935979Y-112350000D01*
X85064021Y-112350000D01*
X85126808Y-112362489D01*
G37*
G36*
X139076000Y-112914000D02*
G01*
X137276000Y-112914000D01*
X137276000Y-111114000D01*
X139076000Y-111114000D01*
X139076000Y-112914000D01*
G37*
G36*
X150097934Y-110837664D02*
G01*
X150252625Y-110901739D01*
X150252626Y-110901740D01*
X150391844Y-110994762D01*
X150510238Y-111113156D01*
X150557065Y-111183238D01*
X150603261Y-111252375D01*
X150667336Y-111407066D01*
X150700000Y-111571281D01*
X150700000Y-111738719D01*
X150667336Y-111902934D01*
X150603261Y-112057625D01*
X150603260Y-112057626D01*
X150510238Y-112196844D01*
X150391844Y-112315238D01*
X150339819Y-112350000D01*
X150252625Y-112408261D01*
X150097934Y-112472336D01*
X149933719Y-112505000D01*
X149766281Y-112505000D01*
X149602066Y-112472336D01*
X149447375Y-112408261D01*
X149360181Y-112350000D01*
X149308156Y-112315238D01*
X149189762Y-112196844D01*
X149096740Y-112057626D01*
X149096739Y-112057625D01*
X149032664Y-111902934D01*
X149000000Y-111738719D01*
X149000000Y-111571281D01*
X149032664Y-111407066D01*
X149096739Y-111252375D01*
X149142935Y-111183238D01*
X149189762Y-111113156D01*
X149308156Y-110994762D01*
X149447374Y-110901740D01*
X149447375Y-110901739D01*
X149602066Y-110837664D01*
X149766281Y-110805000D01*
X149933719Y-110805000D01*
X150097934Y-110837664D01*
G37*
G36*
X147557934Y-109567664D02*
G01*
X147712625Y-109631739D01*
X147712626Y-109631740D01*
X147851844Y-109724762D01*
X147970238Y-109843156D01*
X148017065Y-109913238D01*
X148063261Y-109982375D01*
X148127336Y-110137066D01*
X148160000Y-110301281D01*
X148160000Y-110468719D01*
X148127336Y-110632934D01*
X148063261Y-110787625D01*
X148063260Y-110787626D01*
X147970238Y-110926844D01*
X147851844Y-111045238D01*
X147781762Y-111092065D01*
X147712625Y-111138261D01*
X147557934Y-111202336D01*
X147393719Y-111235000D01*
X147226281Y-111235000D01*
X147062066Y-111202336D01*
X146907375Y-111138261D01*
X146838238Y-111092065D01*
X146768156Y-111045238D01*
X146649762Y-110926844D01*
X146556740Y-110787626D01*
X146556739Y-110787625D01*
X146492664Y-110632934D01*
X146460000Y-110468719D01*
X146460000Y-110301281D01*
X146492664Y-110137066D01*
X146556739Y-109982375D01*
X146602935Y-109913238D01*
X146649762Y-109843156D01*
X146768156Y-109724762D01*
X146907374Y-109631740D01*
X146907375Y-109631739D01*
X147062066Y-109567664D01*
X147226281Y-109535000D01*
X147393719Y-109535000D01*
X147557934Y-109567664D01*
G37*
G36*
X150097934Y-108297664D02*
G01*
X150252625Y-108361739D01*
X150252626Y-108361740D01*
X150391844Y-108454762D01*
X150510238Y-108573156D01*
X150529940Y-108602642D01*
X150603261Y-108712375D01*
X150667336Y-108867066D01*
X150700000Y-109031281D01*
X150700000Y-109198719D01*
X150667336Y-109362934D01*
X150603261Y-109517625D01*
X150603260Y-109517626D01*
X150510238Y-109656844D01*
X150391844Y-109775238D01*
X150321762Y-109822065D01*
X150252625Y-109868261D01*
X150097934Y-109932336D01*
X149933719Y-109965000D01*
X149766281Y-109965000D01*
X149602066Y-109932336D01*
X149447375Y-109868261D01*
X149378238Y-109822065D01*
X149308156Y-109775238D01*
X149189762Y-109656844D01*
X149096740Y-109517626D01*
X149096739Y-109517625D01*
X149032664Y-109362934D01*
X149000000Y-109198719D01*
X149000000Y-109031281D01*
X149032664Y-108867066D01*
X149096739Y-108712375D01*
X149170060Y-108602642D01*
X149189762Y-108573156D01*
X149308156Y-108454762D01*
X149447374Y-108361740D01*
X149447375Y-108361739D01*
X149602066Y-108297664D01*
X149766281Y-108265000D01*
X149933719Y-108265000D01*
X150097934Y-108297664D01*
G37*
G36*
X138380561Y-107637057D02*
G01*
X138438520Y-107648586D01*
X138602310Y-107716430D01*
X138749717Y-107814924D01*
X138875076Y-107940283D01*
X138973570Y-108087690D01*
X139039818Y-108247626D01*
X139041414Y-108251481D01*
X139076000Y-108425356D01*
X139076000Y-108602644D01*
X139064126Y-108662336D01*
X139041414Y-108776520D01*
X138973570Y-108940310D01*
X138875076Y-109087717D01*
X138749717Y-109213076D01*
X138602310Y-109311570D01*
X138438520Y-109379414D01*
X138380561Y-109390943D01*
X138264644Y-109414000D01*
X138087356Y-109414000D01*
X137971439Y-109390943D01*
X137913480Y-109379414D01*
X137749690Y-109311570D01*
X137602283Y-109213076D01*
X137476924Y-109087717D01*
X137378430Y-108940310D01*
X137310586Y-108776520D01*
X137287874Y-108662336D01*
X137276000Y-108602644D01*
X137276000Y-108425356D01*
X137310586Y-108251481D01*
X137312183Y-108247626D01*
X137378430Y-108087690D01*
X137476924Y-107940283D01*
X137602283Y-107814924D01*
X137749690Y-107716430D01*
X137913480Y-107648586D01*
X137971439Y-107637057D01*
X138087356Y-107614000D01*
X138264644Y-107614000D01*
X138380561Y-107637057D01*
G37*
G36*
X147557934Y-107027664D02*
G01*
X147712625Y-107091739D01*
X147712626Y-107091740D01*
X147851844Y-107184762D01*
X147970238Y-107303156D01*
X148017065Y-107373238D01*
X148063261Y-107442375D01*
X148127336Y-107597066D01*
X148160000Y-107761281D01*
X148160000Y-107928719D01*
X148127336Y-108092934D01*
X148063261Y-108247625D01*
X148063260Y-108247626D01*
X147970238Y-108386844D01*
X147851844Y-108505238D01*
X147781762Y-108552065D01*
X147712625Y-108598261D01*
X147557934Y-108662336D01*
X147393719Y-108695000D01*
X147226281Y-108695000D01*
X147062066Y-108662336D01*
X146907375Y-108598261D01*
X146838238Y-108552065D01*
X146768156Y-108505238D01*
X146649762Y-108386844D01*
X146556740Y-108247626D01*
X146556739Y-108247625D01*
X146492664Y-108092934D01*
X146460000Y-107928719D01*
X146460000Y-107761281D01*
X146492664Y-107597066D01*
X146556739Y-107442375D01*
X146602935Y-107373238D01*
X146649762Y-107303156D01*
X146768156Y-107184762D01*
X146907374Y-107091740D01*
X146907375Y-107091739D01*
X147062066Y-107027664D01*
X147226281Y-106995000D01*
X147393719Y-106995000D01*
X147557934Y-107027664D01*
G37*
G36*
X150097934Y-105757664D02*
G01*
X150252625Y-105821739D01*
X150252626Y-105821740D01*
X150391844Y-105914762D01*
X150510238Y-106033156D01*
X150533269Y-106067625D01*
X150603261Y-106172375D01*
X150667336Y-106327066D01*
X150700000Y-106491281D01*
X150700000Y-106658719D01*
X150667336Y-106822934D01*
X150603261Y-106977625D01*
X150603260Y-106977626D01*
X150510238Y-107116844D01*
X150391844Y-107235238D01*
X150321762Y-107282065D01*
X150252625Y-107328261D01*
X150097934Y-107392336D01*
X149933719Y-107425000D01*
X149766281Y-107425000D01*
X149602066Y-107392336D01*
X149447375Y-107328261D01*
X149378238Y-107282065D01*
X149308156Y-107235238D01*
X149189762Y-107116844D01*
X149096740Y-106977626D01*
X149096739Y-106977625D01*
X149032664Y-106822934D01*
X149000000Y-106658719D01*
X149000000Y-106491281D01*
X149032664Y-106327066D01*
X149096739Y-106172375D01*
X149166731Y-106067625D01*
X149189762Y-106033156D01*
X149308156Y-105914762D01*
X149447374Y-105821740D01*
X149447375Y-105821739D01*
X149602066Y-105757664D01*
X149766281Y-105725000D01*
X149933719Y-105725000D01*
X150097934Y-105757664D01*
G37*
G36*
X160527934Y-104847664D02*
G01*
X160682625Y-104911739D01*
X160682626Y-104911740D01*
X160821844Y-105004762D01*
X160940238Y-105123156D01*
X160987065Y-105193238D01*
X161033261Y-105262375D01*
X161097336Y-105417066D01*
X161130000Y-105581281D01*
X161130000Y-105748719D01*
X161097336Y-105912934D01*
X161033261Y-106067625D01*
X161033260Y-106067626D01*
X160940238Y-106206844D01*
X160821844Y-106325238D01*
X160819111Y-106327064D01*
X160682625Y-106418261D01*
X160527934Y-106482336D01*
X160363719Y-106515000D01*
X160196281Y-106515000D01*
X160032066Y-106482336D01*
X159877375Y-106418261D01*
X159740889Y-106327064D01*
X159738156Y-106325238D01*
X159619762Y-106206844D01*
X159526740Y-106067626D01*
X159526739Y-106067625D01*
X159462664Y-105912934D01*
X159430000Y-105748719D01*
X159430000Y-105581281D01*
X159462664Y-105417066D01*
X159526739Y-105262375D01*
X159572935Y-105193238D01*
X159619762Y-105123156D01*
X159738156Y-105004762D01*
X159877374Y-104911740D01*
X159877375Y-104911739D01*
X160032066Y-104847664D01*
X160196281Y-104815000D01*
X160363719Y-104815000D01*
X160527934Y-104847664D01*
G37*
G36*
X147557934Y-104487664D02*
G01*
X147712625Y-104551739D01*
X147712626Y-104551740D01*
X147851844Y-104644762D01*
X147970238Y-104763156D01*
X148004879Y-104815000D01*
X148063261Y-104902375D01*
X148127336Y-105057066D01*
X148160000Y-105221281D01*
X148160000Y-105388719D01*
X148127336Y-105552934D01*
X148063261Y-105707625D01*
X148063260Y-105707626D01*
X147970238Y-105846844D01*
X147851844Y-105965238D01*
X147781762Y-106012065D01*
X147712625Y-106058261D01*
X147557934Y-106122336D01*
X147393719Y-106155000D01*
X147226281Y-106155000D01*
X147062066Y-106122336D01*
X146907375Y-106058261D01*
X146838238Y-106012065D01*
X146768156Y-105965238D01*
X146649762Y-105846844D01*
X146556740Y-105707626D01*
X146556739Y-105707625D01*
X146492664Y-105552934D01*
X146460000Y-105388719D01*
X146460000Y-105221281D01*
X146492664Y-105057066D01*
X146556739Y-104902375D01*
X146615121Y-104815000D01*
X146649762Y-104763156D01*
X146768156Y-104644762D01*
X146907374Y-104551740D01*
X146907375Y-104551739D01*
X147062066Y-104487664D01*
X147226281Y-104455000D01*
X147393719Y-104455000D01*
X147557934Y-104487664D01*
G37*
G36*
X156411415Y-102318258D02*
G01*
X156703164Y-102376290D01*
X157017094Y-102506324D01*
X157299624Y-102695105D01*
X157539895Y-102935376D01*
X157728676Y-103217906D01*
X157858710Y-103531836D01*
X157925000Y-103865102D01*
X157925000Y-104204898D01*
X157858710Y-104538164D01*
X157728676Y-104852094D01*
X157539895Y-105134624D01*
X157299624Y-105374895D01*
X157017094Y-105563676D01*
X156703164Y-105693710D01*
X156426617Y-105748718D01*
X156369899Y-105760000D01*
X156030101Y-105760000D01*
X155973383Y-105748718D01*
X155696836Y-105693710D01*
X155382906Y-105563676D01*
X155100376Y-105374895D01*
X154860105Y-105134624D01*
X154671324Y-104852094D01*
X154541290Y-104538164D01*
X154475000Y-104204898D01*
X154475000Y-103865102D01*
X154541290Y-103531836D01*
X154671324Y-103217906D01*
X154860105Y-102935376D01*
X155100376Y-102695105D01*
X155382906Y-102506324D01*
X155696836Y-102376290D01*
X155988585Y-102318258D01*
X156030101Y-102310000D01*
X156369899Y-102310000D01*
X156411415Y-102318258D01*
G37*
G36*
X150097934Y-103217664D02*
G01*
X150252625Y-103281739D01*
X150252626Y-103281740D01*
X150391844Y-103374762D01*
X150510238Y-103493156D01*
X150510239Y-103493158D01*
X150603261Y-103632375D01*
X150667336Y-103787066D01*
X150700000Y-103951281D01*
X150700000Y-104118719D01*
X150667336Y-104282934D01*
X150603261Y-104437625D01*
X150603260Y-104437626D01*
X150510238Y-104576844D01*
X150391844Y-104695238D01*
X150321762Y-104742065D01*
X150252625Y-104788261D01*
X150097934Y-104852336D01*
X149933719Y-104885000D01*
X149766281Y-104885000D01*
X149602066Y-104852336D01*
X149447375Y-104788261D01*
X149378238Y-104742065D01*
X149308156Y-104695238D01*
X149189762Y-104576844D01*
X149096740Y-104437626D01*
X149096739Y-104437625D01*
X149032664Y-104282934D01*
X149000000Y-104118719D01*
X149000000Y-103951281D01*
X149032664Y-103787066D01*
X149096739Y-103632375D01*
X149189761Y-103493158D01*
X149189762Y-103493156D01*
X149308156Y-103374762D01*
X149447374Y-103281740D01*
X149447375Y-103281739D01*
X149602066Y-103217664D01*
X149766281Y-103185000D01*
X149933719Y-103185000D01*
X150097934Y-103217664D01*
G37*
G36*
X160527934Y-102307664D02*
G01*
X160682625Y-102371739D01*
X160736736Y-102407895D01*
X160821844Y-102464762D01*
X160940238Y-102583156D01*
X160940239Y-102583158D01*
X161033261Y-102722375D01*
X161097336Y-102877066D01*
X161130000Y-103041281D01*
X161130000Y-103208719D01*
X161097336Y-103372934D01*
X161033261Y-103527625D01*
X161033260Y-103527626D01*
X160940238Y-103666844D01*
X160821844Y-103785238D01*
X160819111Y-103787064D01*
X160682625Y-103878261D01*
X160527934Y-103942336D01*
X160363719Y-103975000D01*
X160196281Y-103975000D01*
X160032066Y-103942336D01*
X159877375Y-103878261D01*
X159740889Y-103787064D01*
X159738156Y-103785238D01*
X159619762Y-103666844D01*
X159526740Y-103527626D01*
X159526739Y-103527625D01*
X159462664Y-103372934D01*
X159430000Y-103208719D01*
X159430000Y-103041281D01*
X159462664Y-102877066D01*
X159526739Y-102722375D01*
X159619761Y-102583158D01*
X159619762Y-102583156D01*
X159738156Y-102464762D01*
X159823264Y-102407895D01*
X159877375Y-102371739D01*
X160032066Y-102307664D01*
X160196281Y-102275000D01*
X160363719Y-102275000D01*
X160527934Y-102307664D01*
G37*
G36*
X153897025Y-101135852D02*
G01*
X154038402Y-101178739D01*
X154168692Y-101248379D01*
X154282895Y-101342105D01*
X154376621Y-101456308D01*
X154446261Y-101586598D01*
X154489148Y-101727975D01*
X154503628Y-101875000D01*
X154489148Y-102022025D01*
X154446261Y-102163402D01*
X154376621Y-102293692D01*
X154282895Y-102407895D01*
X154168692Y-102501621D01*
X154038402Y-102571261D01*
X153897025Y-102614148D01*
X153786839Y-102625000D01*
X152513161Y-102625000D01*
X152402975Y-102614148D01*
X152261598Y-102571261D01*
X152131308Y-102501621D01*
X152017105Y-102407895D01*
X151923379Y-102293692D01*
X151853739Y-102163402D01*
X151810852Y-102022025D01*
X151796372Y-101875000D01*
X151810852Y-101727975D01*
X151853739Y-101586598D01*
X151923379Y-101456308D01*
X152017105Y-101342105D01*
X152131308Y-101248379D01*
X152261598Y-101178739D01*
X152402975Y-101135852D01*
X152513161Y-101125000D01*
X153786839Y-101125000D01*
X153897025Y-101135852D01*
G37*
G36*
X157737000Y-96650000D02*
G01*
X154937000Y-96650000D01*
X154937000Y-93850000D01*
X157737000Y-93850000D01*
X157737000Y-96650000D01*
G37*
G36*
X161645047Y-93867934D02*
G01*
X161825365Y-93903801D01*
X162080149Y-94009336D01*
X162309448Y-94162549D01*
X162504451Y-94357552D01*
X162657664Y-94586851D01*
X162763199Y-94841635D01*
X162817000Y-95112112D01*
X162817000Y-95387888D01*
X162763199Y-95658365D01*
X162657664Y-95913149D01*
X162504451Y-96142448D01*
X162309448Y-96337451D01*
X162080149Y-96490664D01*
X161825365Y-96596199D01*
X161645047Y-96632066D01*
X161554889Y-96650000D01*
X161279111Y-96650000D01*
X161188953Y-96632066D01*
X161008635Y-96596199D01*
X160753851Y-96490664D01*
X160524552Y-96337451D01*
X160329549Y-96142448D01*
X160176336Y-95913149D01*
X160070801Y-95658365D01*
X160017000Y-95387888D01*
X160017000Y-95112112D01*
X160070801Y-94841635D01*
X160176336Y-94586851D01*
X160329549Y-94357552D01*
X160524552Y-94162549D01*
X160753851Y-94009336D01*
X161008635Y-93903801D01*
X161188953Y-93867934D01*
X161279111Y-93850000D01*
X161554889Y-93850000D01*
X161645047Y-93867934D01*
G37*
G36*
X113561000Y-85913000D02*
G01*
X111661000Y-85913000D01*
X111661000Y-84013000D01*
X113561000Y-84013000D01*
X113561000Y-85913000D01*
G37*
G36*
X115428103Y-84049507D02*
G01*
X115428106Y-84049508D01*
X115428105Y-84049508D01*
X115600994Y-84121121D01*
X115756590Y-84225087D01*
X115888913Y-84357410D01*
X115888914Y-84357412D01*
X115992880Y-84513008D01*
X116064493Y-84685897D01*
X116101000Y-84869432D01*
X116101000Y-85056568D01*
X116064493Y-85240103D01*
X116064492Y-85240105D01*
X115992879Y-85412994D01*
X115888913Y-85568590D01*
X115756590Y-85700913D01*
X115600994Y-85804879D01*
X115600993Y-85804880D01*
X115600992Y-85804880D01*
X115428103Y-85876493D01*
X115244568Y-85913000D01*
X115057432Y-85913000D01*
X114873897Y-85876493D01*
X114701008Y-85804880D01*
X114701007Y-85804880D01*
X114701006Y-85804879D01*
X114545410Y-85700913D01*
X114413087Y-85568590D01*
X114309121Y-85412994D01*
X114237508Y-85240105D01*
X114237507Y-85240103D01*
X114201000Y-85056568D01*
X114201000Y-84869432D01*
X114237507Y-84685897D01*
X114309120Y-84513008D01*
X114413086Y-84357412D01*
X114413087Y-84357410D01*
X114545410Y-84225087D01*
X114701006Y-84121121D01*
X114873895Y-84049508D01*
X114873894Y-84049508D01*
X114873897Y-84049507D01*
X115057432Y-84013000D01*
X115244568Y-84013000D01*
X115428103Y-84049507D01*
G37*
G36*
X117968103Y-84049507D02*
G01*
X117968106Y-84049508D01*
X117968105Y-84049508D01*
X118140994Y-84121121D01*
X118296590Y-84225087D01*
X118428913Y-84357410D01*
X118428914Y-84357412D01*
X118532880Y-84513008D01*
X118604493Y-84685897D01*
X118641000Y-84869432D01*
X118641000Y-85056568D01*
X118604493Y-85240103D01*
X118604492Y-85240105D01*
X118532879Y-85412994D01*
X118428913Y-85568590D01*
X118296590Y-85700913D01*
X118140994Y-85804879D01*
X118140993Y-85804880D01*
X118140992Y-85804880D01*
X117968103Y-85876493D01*
X117784568Y-85913000D01*
X117597432Y-85913000D01*
X117413897Y-85876493D01*
X117241008Y-85804880D01*
X117241007Y-85804880D01*
X117241006Y-85804879D01*
X117085410Y-85700913D01*
X116953087Y-85568590D01*
X116849121Y-85412994D01*
X116777508Y-85240105D01*
X116777507Y-85240103D01*
X116741000Y-85056568D01*
X116741000Y-84869432D01*
X116777507Y-84685897D01*
X116849120Y-84513008D01*
X116953086Y-84357412D01*
X116953087Y-84357410D01*
X117085410Y-84225087D01*
X117241006Y-84121121D01*
X117413895Y-84049508D01*
X117413894Y-84049508D01*
X117413897Y-84049507D01*
X117597432Y-84013000D01*
X117784568Y-84013000D01*
X117968103Y-84049507D01*
G37*
G36*
X120508103Y-84049507D02*
G01*
X120508106Y-84049508D01*
X120508105Y-84049508D01*
X120680994Y-84121121D01*
X120836590Y-84225087D01*
X120968913Y-84357410D01*
X120968914Y-84357412D01*
X121072880Y-84513008D01*
X121144493Y-84685897D01*
X121181000Y-84869432D01*
X121181000Y-85056568D01*
X121144493Y-85240103D01*
X121144492Y-85240105D01*
X121072879Y-85412994D01*
X120968913Y-85568590D01*
X120836590Y-85700913D01*
X120680994Y-85804879D01*
X120680993Y-85804880D01*
X120680992Y-85804880D01*
X120508103Y-85876493D01*
X120324568Y-85913000D01*
X120137432Y-85913000D01*
X119953897Y-85876493D01*
X119781008Y-85804880D01*
X119781007Y-85804880D01*
X119781006Y-85804879D01*
X119625410Y-85700913D01*
X119493087Y-85568590D01*
X119389121Y-85412994D01*
X119317508Y-85240105D01*
X119317507Y-85240103D01*
X119281000Y-85056568D01*
X119281000Y-84869432D01*
X119317507Y-84685897D01*
X119389120Y-84513008D01*
X119493086Y-84357412D01*
X119493087Y-84357410D01*
X119625410Y-84225087D01*
X119781006Y-84121121D01*
X119953895Y-84049508D01*
X119953894Y-84049508D01*
X119953897Y-84049507D01*
X120137432Y-84013000D01*
X120324568Y-84013000D01*
X120508103Y-84049507D01*
G37*
G36*
X156068103Y-84049507D02*
G01*
X156068106Y-84049508D01*
X156068105Y-84049508D01*
X156240994Y-84121121D01*
X156396590Y-84225087D01*
X156528913Y-84357410D01*
X156528914Y-84357412D01*
X156632880Y-84513008D01*
X156704493Y-84685897D01*
X156741000Y-84869432D01*
X156741000Y-85056568D01*
X156704493Y-85240103D01*
X156704492Y-85240105D01*
X156632879Y-85412994D01*
X156528913Y-85568590D01*
X156396590Y-85700913D01*
X156240994Y-85804879D01*
X156240993Y-85804880D01*
X156240992Y-85804880D01*
X156068103Y-85876493D01*
X155884568Y-85913000D01*
X155697432Y-85913000D01*
X155513897Y-85876493D01*
X155341008Y-85804880D01*
X155341007Y-85804880D01*
X155341006Y-85804879D01*
X155185410Y-85700913D01*
X155053087Y-85568590D01*
X154949121Y-85412994D01*
X154877508Y-85240105D01*
X154877507Y-85240103D01*
X154841000Y-85056568D01*
X154841000Y-84869432D01*
X154877507Y-84685897D01*
X154949120Y-84513008D01*
X155053086Y-84357412D01*
X155053087Y-84357410D01*
X155185410Y-84225087D01*
X155341006Y-84121121D01*
X155513895Y-84049508D01*
X155513894Y-84049508D01*
X155513897Y-84049507D01*
X155697432Y-84013000D01*
X155884568Y-84013000D01*
X156068103Y-84049507D01*
G37*
G36*
X158608103Y-84049507D02*
G01*
X158608106Y-84049508D01*
X158608105Y-84049508D01*
X158780994Y-84121121D01*
X158936590Y-84225087D01*
X159068913Y-84357410D01*
X159068914Y-84357412D01*
X159172880Y-84513008D01*
X159244493Y-84685897D01*
X159281000Y-84869432D01*
X159281000Y-85056568D01*
X159244493Y-85240103D01*
X159244492Y-85240105D01*
X159172879Y-85412994D01*
X159068913Y-85568590D01*
X158936590Y-85700913D01*
X158780994Y-85804879D01*
X158780993Y-85804880D01*
X158780992Y-85804880D01*
X158608103Y-85876493D01*
X158424568Y-85913000D01*
X158237432Y-85913000D01*
X158053897Y-85876493D01*
X157881008Y-85804880D01*
X157881007Y-85804880D01*
X157881006Y-85804879D01*
X157725410Y-85700913D01*
X157593087Y-85568590D01*
X157489121Y-85412994D01*
X157417508Y-85240105D01*
X157417507Y-85240103D01*
X157381000Y-85056568D01*
X157381000Y-84869432D01*
X157417507Y-84685897D01*
X157489120Y-84513008D01*
X157593086Y-84357412D01*
X157593087Y-84357410D01*
X157725410Y-84225087D01*
X157881006Y-84121121D01*
X158053895Y-84049508D01*
X158053894Y-84049508D01*
X158053897Y-84049507D01*
X158237432Y-84013000D01*
X158424568Y-84013000D01*
X158608103Y-84049507D01*
G37*
G36*
X161148103Y-84049507D02*
G01*
X161148106Y-84049508D01*
X161148105Y-84049508D01*
X161320994Y-84121121D01*
X161476590Y-84225087D01*
X161608913Y-84357410D01*
X161608914Y-84357412D01*
X161712880Y-84513008D01*
X161784493Y-84685897D01*
X161821000Y-84869432D01*
X161821000Y-85056568D01*
X161784493Y-85240103D01*
X161784492Y-85240105D01*
X161712879Y-85412994D01*
X161608913Y-85568590D01*
X161476590Y-85700913D01*
X161320994Y-85804879D01*
X161320993Y-85804880D01*
X161320992Y-85804880D01*
X161148103Y-85876493D01*
X160964568Y-85913000D01*
X160777432Y-85913000D01*
X160593897Y-85876493D01*
X160421008Y-85804880D01*
X160421007Y-85804880D01*
X160421006Y-85804879D01*
X160265410Y-85700913D01*
X160133087Y-85568590D01*
X160029121Y-85412994D01*
X159957508Y-85240105D01*
X159957507Y-85240103D01*
X159921000Y-85056568D01*
X159921000Y-84869432D01*
X159957507Y-84685897D01*
X160029120Y-84513008D01*
X160133086Y-84357412D01*
X160133087Y-84357410D01*
X160265410Y-84225087D01*
X160421006Y-84121121D01*
X160593895Y-84049508D01*
X160593894Y-84049508D01*
X160593897Y-84049507D01*
X160777432Y-84013000D01*
X160964568Y-84013000D01*
X161148103Y-84049507D01*
G37*
G36*
X148529856Y-72348272D02*
G01*
X148730044Y-72431192D01*
X148730045Y-72431193D01*
X148910209Y-72551575D01*
X149063425Y-72704791D01*
X149063426Y-72704793D01*
X149183808Y-72884956D01*
X149266728Y-73085144D01*
X149309000Y-73297658D01*
X149309000Y-73514342D01*
X149266728Y-73726856D01*
X149183808Y-73927044D01*
X149183807Y-73927045D01*
X149063425Y-74107209D01*
X148910209Y-74260425D01*
X148819513Y-74321026D01*
X148730044Y-74380808D01*
X148529856Y-74463728D01*
X148317342Y-74506000D01*
X148100658Y-74506000D01*
X147888144Y-74463728D01*
X147687956Y-74380808D01*
X147598487Y-74321026D01*
X147507791Y-74260425D01*
X147354575Y-74107209D01*
X147234193Y-73927045D01*
X147234192Y-73927044D01*
X147151272Y-73726856D01*
X147109000Y-73514342D01*
X147109000Y-73297658D01*
X147151272Y-73085144D01*
X147234192Y-72884956D01*
X147354574Y-72704793D01*
X147354575Y-72704791D01*
X147507791Y-72551575D01*
X147687955Y-72431193D01*
X147687956Y-72431192D01*
X147888144Y-72348272D01*
X148100658Y-72306000D01*
X148317342Y-72306000D01*
X148529856Y-72348272D01*
G37*
G36*
X153029856Y-72348272D02*
G01*
X153230044Y-72431192D01*
X153230045Y-72431193D01*
X153410209Y-72551575D01*
X153563425Y-72704791D01*
X153563426Y-72704793D01*
X153683808Y-72884956D01*
X153766728Y-73085144D01*
X153809000Y-73297658D01*
X153809000Y-73514342D01*
X153766728Y-73726856D01*
X153683808Y-73927044D01*
X153683807Y-73927045D01*
X153563425Y-74107209D01*
X153410209Y-74260425D01*
X153319513Y-74321026D01*
X153230044Y-74380808D01*
X153029856Y-74463728D01*
X152817342Y-74506000D01*
X152600658Y-74506000D01*
X152388144Y-74463728D01*
X152187956Y-74380808D01*
X152098487Y-74321026D01*
X152007791Y-74260425D01*
X151854575Y-74107209D01*
X151734193Y-73927045D01*
X151734192Y-73927044D01*
X151651272Y-73726856D01*
X151609000Y-73514342D01*
X151609000Y-73297658D01*
X151651272Y-73085144D01*
X151734192Y-72884956D01*
X151854574Y-72704793D01*
X151854575Y-72704791D01*
X152007791Y-72551575D01*
X152187955Y-72431193D01*
X152187956Y-72431192D01*
X152388144Y-72348272D01*
X152600658Y-72306000D01*
X152817342Y-72306000D01*
X153029856Y-72348272D01*
G37*
G36*
X160539000Y-73417000D02*
G01*
X158739000Y-73417000D01*
X158739000Y-71617000D01*
X160539000Y-71617000D01*
X160539000Y-73417000D01*
G37*
G36*
X142102318Y-64917892D02*
G01*
X142272976Y-64951838D01*
X142755246Y-65151601D01*
X142947408Y-65280000D01*
X143189275Y-65441610D01*
X143558390Y-65810725D01*
X143638883Y-65931192D01*
X143821697Y-66204791D01*
X143848400Y-66244756D01*
X143881045Y-66323568D01*
X144033701Y-66692111D01*
X144048162Y-66727025D01*
X144150000Y-67238996D01*
X144150000Y-67761004D01*
X144109675Y-67963728D01*
X144048162Y-68272976D01*
X143916560Y-68590690D01*
X143881045Y-68676433D01*
X143848399Y-68755246D01*
X143558389Y-69189276D01*
X143189276Y-69558389D01*
X142755246Y-69848399D01*
X142272976Y-70048162D01*
X142102318Y-70082108D01*
X141761004Y-70150000D01*
X141238996Y-70150000D01*
X140897682Y-70082108D01*
X140727024Y-70048162D01*
X140244754Y-69848399D01*
X139810724Y-69558389D01*
X139441611Y-69189276D01*
X139151601Y-68755246D01*
X139118956Y-68676433D01*
X139083440Y-68590690D01*
X138951838Y-68272976D01*
X138890325Y-67963728D01*
X138850000Y-67761004D01*
X138850000Y-67238996D01*
X138951838Y-66727025D01*
X138966300Y-66692111D01*
X139118955Y-66323568D01*
X139151600Y-66244756D01*
X139178304Y-66204791D01*
X139361117Y-65931192D01*
X139441610Y-65810725D01*
X139810725Y-65441610D01*
X140052592Y-65280000D01*
X140244754Y-65151601D01*
X140727024Y-64951838D01*
X140897682Y-64917892D01*
X141238996Y-64850000D01*
X141761004Y-64850000D01*
X142102318Y-64917892D01*
G37*
G36*
X84102318Y-64917892D02*
G01*
X84272976Y-64951838D01*
X84755246Y-65151601D01*
X84947408Y-65280000D01*
X85189275Y-65441610D01*
X85558390Y-65810725D01*
X85638883Y-65931192D01*
X85821697Y-66204791D01*
X85848400Y-66244756D01*
X85881045Y-66323568D01*
X86033701Y-66692111D01*
X86048162Y-66727025D01*
X86150000Y-67238996D01*
X86150000Y-67761004D01*
X86109675Y-67963728D01*
X86048162Y-68272976D01*
X85916560Y-68590690D01*
X85881045Y-68676433D01*
X85848399Y-68755246D01*
X85558389Y-69189276D01*
X85189276Y-69558389D01*
X84755246Y-69848399D01*
X84272976Y-70048162D01*
X84102318Y-70082108D01*
X83761004Y-70150000D01*
X83238996Y-70150000D01*
X82897682Y-70082108D01*
X82727024Y-70048162D01*
X82244754Y-69848399D01*
X81810724Y-69558389D01*
X81441611Y-69189276D01*
X81151601Y-68755246D01*
X81118956Y-68676433D01*
X81083440Y-68590690D01*
X80951838Y-68272976D01*
X80890325Y-67963728D01*
X80850000Y-67761004D01*
X80850000Y-67238996D01*
X80951838Y-66727025D01*
X80966300Y-66692111D01*
X81118955Y-66323568D01*
X81151600Y-66244756D01*
X81178304Y-66204791D01*
X81361117Y-65931192D01*
X81441610Y-65810725D01*
X81810725Y-65441610D01*
X82052592Y-65280000D01*
X82244754Y-65151601D01*
X82727024Y-64951838D01*
X82897682Y-64917892D01*
X83238996Y-64850000D01*
X83761004Y-64850000D01*
X84102318Y-64917892D01*
G37*
G36*
X159843561Y-68140057D02*
G01*
X159901520Y-68151586D01*
X160065310Y-68219430D01*
X160212717Y-68317924D01*
X160338076Y-68443283D01*
X160371227Y-68492897D01*
X160436571Y-68590692D01*
X160504414Y-68754481D01*
X160539000Y-68928356D01*
X160539000Y-69105644D01*
X160516255Y-69219992D01*
X160504414Y-69279520D01*
X160436570Y-69443310D01*
X160338076Y-69590717D01*
X160212717Y-69716076D01*
X160065310Y-69814570D01*
X159901520Y-69882414D01*
X159843561Y-69893943D01*
X159727644Y-69917000D01*
X159550356Y-69917000D01*
X159434439Y-69893943D01*
X159376480Y-69882414D01*
X159212690Y-69814570D01*
X159065283Y-69716076D01*
X158939924Y-69590717D01*
X158841430Y-69443310D01*
X158773586Y-69279520D01*
X158761745Y-69219992D01*
X158739000Y-69105644D01*
X158739000Y-68928356D01*
X158773586Y-68754481D01*
X158841429Y-68590692D01*
X158906773Y-68492897D01*
X158939924Y-68443283D01*
X159065283Y-68317924D01*
X159212690Y-68219430D01*
X159376480Y-68151586D01*
X159434439Y-68140057D01*
X159550356Y-68117000D01*
X159727644Y-68117000D01*
X159843561Y-68140057D01*
G37*
G36*
X89320000Y-69720000D02*
G01*
X87420000Y-69720000D01*
X87420000Y-67820000D01*
X89320000Y-67820000D01*
X89320000Y-69720000D01*
G37*
G36*
X91187103Y-67856507D02*
G01*
X91359992Y-67928120D01*
X91359994Y-67928121D01*
X91515590Y-68032087D01*
X91647913Y-68164410D01*
X91750487Y-68317923D01*
X91751880Y-68320008D01*
X91823493Y-68492897D01*
X91860000Y-68676432D01*
X91860000Y-68863568D01*
X91823493Y-69047103D01*
X91764603Y-69189275D01*
X91751879Y-69219994D01*
X91647913Y-69375590D01*
X91515590Y-69507913D01*
X91359994Y-69611879D01*
X91359993Y-69611880D01*
X91359992Y-69611880D01*
X91187103Y-69683493D01*
X91003568Y-69720000D01*
X90816432Y-69720000D01*
X90632897Y-69683493D01*
X90460008Y-69611880D01*
X90460007Y-69611880D01*
X90460006Y-69611879D01*
X90304410Y-69507913D01*
X90172087Y-69375590D01*
X90068121Y-69219994D01*
X90055397Y-69189275D01*
X89996507Y-69047103D01*
X89960000Y-68863568D01*
X89960000Y-68676432D01*
X89996507Y-68492897D01*
X90068120Y-68320008D01*
X90069513Y-68317923D01*
X90172087Y-68164410D01*
X90304410Y-68032087D01*
X90460006Y-67928121D01*
X90460008Y-67928120D01*
X90632897Y-67856507D01*
X90816432Y-67820000D01*
X91003568Y-67820000D01*
X91187103Y-67856507D01*
G37*
G36*
X131827103Y-67856507D02*
G01*
X131999992Y-67928120D01*
X131999994Y-67928121D01*
X132155590Y-68032087D01*
X132287913Y-68164410D01*
X132390487Y-68317923D01*
X132391880Y-68320008D01*
X132463493Y-68492897D01*
X132500000Y-68676432D01*
X132500000Y-68863568D01*
X132463493Y-69047103D01*
X132404603Y-69189275D01*
X132391879Y-69219994D01*
X132287913Y-69375590D01*
X132155590Y-69507913D01*
X131999994Y-69611879D01*
X131999993Y-69611880D01*
X131999992Y-69611880D01*
X131827103Y-69683493D01*
X131643568Y-69720000D01*
X131456432Y-69720000D01*
X131272897Y-69683493D01*
X131100008Y-69611880D01*
X131100007Y-69611880D01*
X131100006Y-69611879D01*
X130944410Y-69507913D01*
X130812087Y-69375590D01*
X130708121Y-69219994D01*
X130695397Y-69189275D01*
X130636507Y-69047103D01*
X130600000Y-68863568D01*
X130600000Y-68676432D01*
X130636507Y-68492897D01*
X130708120Y-68320008D01*
X130709513Y-68317923D01*
X130812087Y-68164410D01*
X130944410Y-68032087D01*
X131100006Y-67928121D01*
X131100008Y-67928120D01*
X131272897Y-67856507D01*
X131456432Y-67820000D01*
X131643568Y-67820000D01*
X131827103Y-67856507D01*
G37*
G36*
X129287103Y-67856507D02*
G01*
X129459992Y-67928120D01*
X129459994Y-67928121D01*
X129615590Y-68032087D01*
X129747913Y-68164410D01*
X129850487Y-68317923D01*
X129851880Y-68320008D01*
X129923493Y-68492897D01*
X129960000Y-68676432D01*
X129960000Y-68863568D01*
X129923493Y-69047103D01*
X129864603Y-69189275D01*
X129851879Y-69219994D01*
X129747913Y-69375590D01*
X129615590Y-69507913D01*
X129459994Y-69611879D01*
X129459993Y-69611880D01*
X129459992Y-69611880D01*
X129287103Y-69683493D01*
X129103568Y-69720000D01*
X128916432Y-69720000D01*
X128732897Y-69683493D01*
X128560008Y-69611880D01*
X128560007Y-69611880D01*
X128560006Y-69611879D01*
X128404410Y-69507913D01*
X128272087Y-69375590D01*
X128168121Y-69219994D01*
X128155397Y-69189275D01*
X128096507Y-69047103D01*
X128060000Y-68863568D01*
X128060000Y-68676432D01*
X128096507Y-68492897D01*
X128168120Y-68320008D01*
X128169513Y-68317923D01*
X128272087Y-68164410D01*
X128404410Y-68032087D01*
X128560006Y-67928121D01*
X128560008Y-67928120D01*
X128732897Y-67856507D01*
X128916432Y-67820000D01*
X129103568Y-67820000D01*
X129287103Y-67856507D01*
G37*
G36*
X126747103Y-67856507D02*
G01*
X126919992Y-67928120D01*
X126919994Y-67928121D01*
X127075590Y-68032087D01*
X127207913Y-68164410D01*
X127310487Y-68317923D01*
X127311880Y-68320008D01*
X127383493Y-68492897D01*
X127420000Y-68676432D01*
X127420000Y-68863568D01*
X127383493Y-69047103D01*
X127324603Y-69189275D01*
X127311879Y-69219994D01*
X127207913Y-69375590D01*
X127075590Y-69507913D01*
X126919994Y-69611879D01*
X126919993Y-69611880D01*
X126919992Y-69611880D01*
X126747103Y-69683493D01*
X126563568Y-69720000D01*
X126376432Y-69720000D01*
X126192897Y-69683493D01*
X126020008Y-69611880D01*
X126020007Y-69611880D01*
X126020006Y-69611879D01*
X125864410Y-69507913D01*
X125732087Y-69375590D01*
X125628121Y-69219994D01*
X125615397Y-69189275D01*
X125556507Y-69047103D01*
X125520000Y-68863568D01*
X125520000Y-68676432D01*
X125556507Y-68492897D01*
X125628120Y-68320008D01*
X125629513Y-68317923D01*
X125732087Y-68164410D01*
X125864410Y-68032087D01*
X126020006Y-67928121D01*
X126020008Y-67928120D01*
X126192897Y-67856507D01*
X126376432Y-67820000D01*
X126563568Y-67820000D01*
X126747103Y-67856507D01*
G37*
G36*
X121667103Y-67856507D02*
G01*
X121839992Y-67928120D01*
X121839994Y-67928121D01*
X121995590Y-68032087D01*
X122127913Y-68164410D01*
X122230487Y-68317923D01*
X122231880Y-68320008D01*
X122303493Y-68492897D01*
X122340000Y-68676432D01*
X122340000Y-68863568D01*
X122303493Y-69047103D01*
X122244603Y-69189275D01*
X122231879Y-69219994D01*
X122127913Y-69375590D01*
X121995590Y-69507913D01*
X121839994Y-69611879D01*
X121839993Y-69611880D01*
X121839992Y-69611880D01*
X121667103Y-69683493D01*
X121483568Y-69720000D01*
X121296432Y-69720000D01*
X121112897Y-69683493D01*
X120940008Y-69611880D01*
X120940007Y-69611880D01*
X120940006Y-69611879D01*
X120784410Y-69507913D01*
X120652087Y-69375590D01*
X120548121Y-69219994D01*
X120535397Y-69189275D01*
X120476507Y-69047103D01*
X120440000Y-68863568D01*
X120440000Y-68676432D01*
X120476507Y-68492897D01*
X120548120Y-68320008D01*
X120549513Y-68317923D01*
X120652087Y-68164410D01*
X120784410Y-68032087D01*
X120940006Y-67928121D01*
X120940008Y-67928120D01*
X121112897Y-67856507D01*
X121296432Y-67820000D01*
X121483568Y-67820000D01*
X121667103Y-67856507D01*
G37*
G36*
X119127103Y-67856507D02*
G01*
X119299992Y-67928120D01*
X119299994Y-67928121D01*
X119455590Y-68032087D01*
X119587913Y-68164410D01*
X119690487Y-68317923D01*
X119691880Y-68320008D01*
X119763493Y-68492897D01*
X119800000Y-68676432D01*
X119800000Y-68863568D01*
X119763493Y-69047103D01*
X119704603Y-69189275D01*
X119691879Y-69219994D01*
X119587913Y-69375590D01*
X119455590Y-69507913D01*
X119299994Y-69611879D01*
X119299993Y-69611880D01*
X119299992Y-69611880D01*
X119127103Y-69683493D01*
X118943568Y-69720000D01*
X118756432Y-69720000D01*
X118572897Y-69683493D01*
X118400008Y-69611880D01*
X118400007Y-69611880D01*
X118400006Y-69611879D01*
X118244410Y-69507913D01*
X118112087Y-69375590D01*
X118008121Y-69219994D01*
X117995397Y-69189275D01*
X117936507Y-69047103D01*
X117900000Y-68863568D01*
X117900000Y-68676432D01*
X117936507Y-68492897D01*
X118008120Y-68320008D01*
X118009513Y-68317923D01*
X118112087Y-68164410D01*
X118244410Y-68032087D01*
X118400006Y-67928121D01*
X118400008Y-67928120D01*
X118572897Y-67856507D01*
X118756432Y-67820000D01*
X118943568Y-67820000D01*
X119127103Y-67856507D01*
G37*
G36*
X116587103Y-67856507D02*
G01*
X116759992Y-67928120D01*
X116759994Y-67928121D01*
X116915590Y-68032087D01*
X117047913Y-68164410D01*
X117150487Y-68317923D01*
X117151880Y-68320008D01*
X117223493Y-68492897D01*
X117260000Y-68676432D01*
X117260000Y-68863568D01*
X117223493Y-69047103D01*
X117164603Y-69189275D01*
X117151879Y-69219994D01*
X117047913Y-69375590D01*
X116915590Y-69507913D01*
X116759994Y-69611879D01*
X116759993Y-69611880D01*
X116759992Y-69611880D01*
X116587103Y-69683493D01*
X116403568Y-69720000D01*
X116216432Y-69720000D01*
X116032897Y-69683493D01*
X115860008Y-69611880D01*
X115860007Y-69611880D01*
X115860006Y-69611879D01*
X115704410Y-69507913D01*
X115572087Y-69375590D01*
X115468121Y-69219994D01*
X115455397Y-69189275D01*
X115396507Y-69047103D01*
X115360000Y-68863568D01*
X115360000Y-68676432D01*
X115396507Y-68492897D01*
X115468120Y-68320008D01*
X115469513Y-68317923D01*
X115572087Y-68164410D01*
X115704410Y-68032087D01*
X115860006Y-67928121D01*
X115860008Y-67928120D01*
X116032897Y-67856507D01*
X116216432Y-67820000D01*
X116403568Y-67820000D01*
X116587103Y-67856507D01*
G37*
G36*
X93727103Y-67856507D02*
G01*
X93899992Y-67928120D01*
X93899994Y-67928121D01*
X94055590Y-68032087D01*
X94187913Y-68164410D01*
X94290487Y-68317923D01*
X94291880Y-68320008D01*
X94363493Y-68492897D01*
X94400000Y-68676432D01*
X94400000Y-68863568D01*
X94363493Y-69047103D01*
X94304603Y-69189275D01*
X94291879Y-69219994D01*
X94187913Y-69375590D01*
X94055590Y-69507913D01*
X93899994Y-69611879D01*
X93899993Y-69611880D01*
X93899992Y-69611880D01*
X93727103Y-69683493D01*
X93543568Y-69720000D01*
X93356432Y-69720000D01*
X93172897Y-69683493D01*
X93000008Y-69611880D01*
X93000007Y-69611880D01*
X93000006Y-69611879D01*
X92844410Y-69507913D01*
X92712087Y-69375590D01*
X92608121Y-69219994D01*
X92595397Y-69189275D01*
X92536507Y-69047103D01*
X92500000Y-68863568D01*
X92500000Y-68676432D01*
X92536507Y-68492897D01*
X92608120Y-68320008D01*
X92609513Y-68317923D01*
X92712087Y-68164410D01*
X92844410Y-68032087D01*
X93000006Y-67928121D01*
X93000008Y-67928120D01*
X93172897Y-67856507D01*
X93356432Y-67820000D01*
X93543568Y-67820000D01*
X93727103Y-67856507D01*
G37*
G36*
X98807103Y-67856507D02*
G01*
X98979992Y-67928120D01*
X98979994Y-67928121D01*
X99135590Y-68032087D01*
X99267913Y-68164410D01*
X99370487Y-68317923D01*
X99371880Y-68320008D01*
X99443493Y-68492897D01*
X99480000Y-68676432D01*
X99480000Y-68863568D01*
X99443493Y-69047103D01*
X99384603Y-69189275D01*
X99371879Y-69219994D01*
X99267913Y-69375590D01*
X99135590Y-69507913D01*
X98979994Y-69611879D01*
X98979993Y-69611880D01*
X98979992Y-69611880D01*
X98807103Y-69683493D01*
X98623568Y-69720000D01*
X98436432Y-69720000D01*
X98252897Y-69683493D01*
X98080008Y-69611880D01*
X98080007Y-69611880D01*
X98080006Y-69611879D01*
X97924410Y-69507913D01*
X97792087Y-69375590D01*
X97688121Y-69219994D01*
X97675397Y-69189275D01*
X97616507Y-69047103D01*
X97580000Y-68863568D01*
X97580000Y-68676432D01*
X97616507Y-68492897D01*
X97688120Y-68320008D01*
X97689513Y-68317923D01*
X97792087Y-68164410D01*
X97924410Y-68032087D01*
X98080006Y-67928121D01*
X98080008Y-67928120D01*
X98252897Y-67856507D01*
X98436432Y-67820000D01*
X98623568Y-67820000D01*
X98807103Y-67856507D01*
G37*
G36*
X103887103Y-67856507D02*
G01*
X104059992Y-67928120D01*
X104059994Y-67928121D01*
X104215590Y-68032087D01*
X104347913Y-68164410D01*
X104450487Y-68317923D01*
X104451880Y-68320008D01*
X104523493Y-68492897D01*
X104560000Y-68676432D01*
X104560000Y-68863568D01*
X104523493Y-69047103D01*
X104464603Y-69189275D01*
X104451879Y-69219994D01*
X104347913Y-69375590D01*
X104215590Y-69507913D01*
X104059994Y-69611879D01*
X104059993Y-69611880D01*
X104059992Y-69611880D01*
X103887103Y-69683493D01*
X103703568Y-69720000D01*
X103516432Y-69720000D01*
X103332897Y-69683493D01*
X103160008Y-69611880D01*
X103160007Y-69611880D01*
X103160006Y-69611879D01*
X103004410Y-69507913D01*
X102872087Y-69375590D01*
X102768121Y-69219994D01*
X102755397Y-69189275D01*
X102696507Y-69047103D01*
X102660000Y-68863568D01*
X102660000Y-68676432D01*
X102696507Y-68492897D01*
X102768120Y-68320008D01*
X102769513Y-68317923D01*
X102872087Y-68164410D01*
X103004410Y-68032087D01*
X103160006Y-67928121D01*
X103160008Y-67928120D01*
X103332897Y-67856507D01*
X103516432Y-67820000D01*
X103703568Y-67820000D01*
X103887103Y-67856507D01*
G37*
G36*
X96267103Y-67856507D02*
G01*
X96439992Y-67928120D01*
X96439994Y-67928121D01*
X96595590Y-68032087D01*
X96727913Y-68164410D01*
X96830487Y-68317923D01*
X96831880Y-68320008D01*
X96903493Y-68492897D01*
X96940000Y-68676432D01*
X96940000Y-68863568D01*
X96903493Y-69047103D01*
X96844603Y-69189275D01*
X96831879Y-69219994D01*
X96727913Y-69375590D01*
X96595590Y-69507913D01*
X96439994Y-69611879D01*
X96439993Y-69611880D01*
X96439992Y-69611880D01*
X96267103Y-69683493D01*
X96083568Y-69720000D01*
X95896432Y-69720000D01*
X95712897Y-69683493D01*
X95540008Y-69611880D01*
X95540007Y-69611880D01*
X95540006Y-69611879D01*
X95384410Y-69507913D01*
X95252087Y-69375590D01*
X95148121Y-69219994D01*
X95135397Y-69189275D01*
X95076507Y-69047103D01*
X95040000Y-68863568D01*
X95040000Y-68676432D01*
X95076507Y-68492897D01*
X95148120Y-68320008D01*
X95149513Y-68317923D01*
X95252087Y-68164410D01*
X95384410Y-68032087D01*
X95540006Y-67928121D01*
X95540008Y-67928120D01*
X95712897Y-67856507D01*
X95896432Y-67820000D01*
X96083568Y-67820000D01*
X96267103Y-67856507D01*
G37*
G36*
X136907103Y-67856507D02*
G01*
X137079992Y-67928120D01*
X137079994Y-67928121D01*
X137235590Y-68032087D01*
X137367913Y-68164410D01*
X137470487Y-68317923D01*
X137471880Y-68320008D01*
X137543493Y-68492897D01*
X137580000Y-68676432D01*
X137580000Y-68863568D01*
X137543493Y-69047103D01*
X137484603Y-69189275D01*
X137471879Y-69219994D01*
X137367913Y-69375590D01*
X137235590Y-69507913D01*
X137079994Y-69611879D01*
X137079993Y-69611880D01*
X137079992Y-69611880D01*
X136907103Y-69683493D01*
X136723568Y-69720000D01*
X136536432Y-69720000D01*
X136352897Y-69683493D01*
X136180008Y-69611880D01*
X136180007Y-69611880D01*
X136180006Y-69611879D01*
X136024410Y-69507913D01*
X135892087Y-69375590D01*
X135788121Y-69219994D01*
X135775397Y-69189275D01*
X135716507Y-69047103D01*
X135680000Y-68863568D01*
X135680000Y-68676432D01*
X135716507Y-68492897D01*
X135788120Y-68320008D01*
X135789513Y-68317923D01*
X135892087Y-68164410D01*
X136024410Y-68032087D01*
X136180006Y-67928121D01*
X136180008Y-67928120D01*
X136352897Y-67856507D01*
X136536432Y-67820000D01*
X136723568Y-67820000D01*
X136907103Y-67856507D01*
G37*
G36*
X124207103Y-67856507D02*
G01*
X124379992Y-67928120D01*
X124379994Y-67928121D01*
X124535590Y-68032087D01*
X124667913Y-68164410D01*
X124770487Y-68317923D01*
X124771880Y-68320008D01*
X124843493Y-68492897D01*
X124880000Y-68676432D01*
X124880000Y-68863568D01*
X124843493Y-69047103D01*
X124784603Y-69189275D01*
X124771879Y-69219994D01*
X124667913Y-69375590D01*
X124535590Y-69507913D01*
X124379994Y-69611879D01*
X124379993Y-69611880D01*
X124379992Y-69611880D01*
X124207103Y-69683493D01*
X124023568Y-69720000D01*
X123836432Y-69720000D01*
X123652897Y-69683493D01*
X123480008Y-69611880D01*
X123480007Y-69611880D01*
X123480006Y-69611879D01*
X123324410Y-69507913D01*
X123192087Y-69375590D01*
X123088121Y-69219994D01*
X123075397Y-69189275D01*
X123016507Y-69047103D01*
X122980000Y-68863568D01*
X122980000Y-68676432D01*
X123016507Y-68492897D01*
X123088120Y-68320008D01*
X123089513Y-68317923D01*
X123192087Y-68164410D01*
X123324410Y-68032087D01*
X123480006Y-67928121D01*
X123480008Y-67928120D01*
X123652897Y-67856507D01*
X123836432Y-67820000D01*
X124023568Y-67820000D01*
X124207103Y-67856507D01*
G37*
G36*
X134367103Y-67856507D02*
G01*
X134539992Y-67928120D01*
X134539994Y-67928121D01*
X134695590Y-68032087D01*
X134827913Y-68164410D01*
X134930487Y-68317923D01*
X134931880Y-68320008D01*
X135003493Y-68492897D01*
X135040000Y-68676432D01*
X135040000Y-68863568D01*
X135003493Y-69047103D01*
X134944603Y-69189275D01*
X134931879Y-69219994D01*
X134827913Y-69375590D01*
X134695590Y-69507913D01*
X134539994Y-69611879D01*
X134539993Y-69611880D01*
X134539992Y-69611880D01*
X134367103Y-69683493D01*
X134183568Y-69720000D01*
X133996432Y-69720000D01*
X133812897Y-69683493D01*
X133640008Y-69611880D01*
X133640007Y-69611880D01*
X133640006Y-69611879D01*
X133484410Y-69507913D01*
X133352087Y-69375590D01*
X133248121Y-69219994D01*
X133235397Y-69189275D01*
X133176507Y-69047103D01*
X133140000Y-68863568D01*
X133140000Y-68676432D01*
X133176507Y-68492897D01*
X133248120Y-68320008D01*
X133249513Y-68317923D01*
X133352087Y-68164410D01*
X133484410Y-68032087D01*
X133640006Y-67928121D01*
X133640008Y-67928120D01*
X133812897Y-67856507D01*
X133996432Y-67820000D01*
X134183568Y-67820000D01*
X134367103Y-67856507D01*
G37*
G36*
X111507103Y-67856507D02*
G01*
X111679992Y-67928120D01*
X111679994Y-67928121D01*
X111835590Y-68032087D01*
X111967913Y-68164410D01*
X112070487Y-68317923D01*
X112071880Y-68320008D01*
X112143493Y-68492897D01*
X112180000Y-68676432D01*
X112180000Y-68863568D01*
X112143493Y-69047103D01*
X112084603Y-69189275D01*
X112071879Y-69219994D01*
X111967913Y-69375590D01*
X111835590Y-69507913D01*
X111679994Y-69611879D01*
X111679993Y-69611880D01*
X111679992Y-69611880D01*
X111507103Y-69683493D01*
X111323568Y-69720000D01*
X111136432Y-69720000D01*
X110952897Y-69683493D01*
X110780008Y-69611880D01*
X110780007Y-69611880D01*
X110780006Y-69611879D01*
X110624410Y-69507913D01*
X110492087Y-69375590D01*
X110388121Y-69219994D01*
X110375397Y-69189275D01*
X110316507Y-69047103D01*
X110280000Y-68863568D01*
X110280000Y-68676432D01*
X110316507Y-68492897D01*
X110388120Y-68320008D01*
X110389513Y-68317923D01*
X110492087Y-68164410D01*
X110624410Y-68032087D01*
X110780006Y-67928121D01*
X110780008Y-67928120D01*
X110952897Y-67856507D01*
X111136432Y-67820000D01*
X111323568Y-67820000D01*
X111507103Y-67856507D01*
G37*
G36*
X114047103Y-67856507D02*
G01*
X114219992Y-67928120D01*
X114219994Y-67928121D01*
X114375590Y-68032087D01*
X114507913Y-68164410D01*
X114610487Y-68317923D01*
X114611880Y-68320008D01*
X114683493Y-68492897D01*
X114720000Y-68676432D01*
X114720000Y-68863568D01*
X114683493Y-69047103D01*
X114624603Y-69189275D01*
X114611879Y-69219994D01*
X114507913Y-69375590D01*
X114375590Y-69507913D01*
X114219994Y-69611879D01*
X114219993Y-69611880D01*
X114219992Y-69611880D01*
X114047103Y-69683493D01*
X113863568Y-69720000D01*
X113676432Y-69720000D01*
X113492897Y-69683493D01*
X113320008Y-69611880D01*
X113320007Y-69611880D01*
X113320006Y-69611879D01*
X113164410Y-69507913D01*
X113032087Y-69375590D01*
X112928121Y-69219994D01*
X112915397Y-69189275D01*
X112856507Y-69047103D01*
X112820000Y-68863568D01*
X112820000Y-68676432D01*
X112856507Y-68492897D01*
X112928120Y-68320008D01*
X112929513Y-68317923D01*
X113032087Y-68164410D01*
X113164410Y-68032087D01*
X113320006Y-67928121D01*
X113320008Y-67928120D01*
X113492897Y-67856507D01*
X113676432Y-67820000D01*
X113863568Y-67820000D01*
X114047103Y-67856507D01*
G37*
G36*
X106427103Y-67856507D02*
G01*
X106599992Y-67928120D01*
X106599994Y-67928121D01*
X106755590Y-68032087D01*
X106887913Y-68164410D01*
X106990487Y-68317923D01*
X106991880Y-68320008D01*
X107063493Y-68492897D01*
X107100000Y-68676432D01*
X107100000Y-68863568D01*
X107063493Y-69047103D01*
X107004603Y-69189275D01*
X106991879Y-69219994D01*
X106887913Y-69375590D01*
X106755590Y-69507913D01*
X106599994Y-69611879D01*
X106599993Y-69611880D01*
X106599992Y-69611880D01*
X106427103Y-69683493D01*
X106243568Y-69720000D01*
X106056432Y-69720000D01*
X105872897Y-69683493D01*
X105700008Y-69611880D01*
X105700007Y-69611880D01*
X105700006Y-69611879D01*
X105544410Y-69507913D01*
X105412087Y-69375590D01*
X105308121Y-69219994D01*
X105295397Y-69189275D01*
X105236507Y-69047103D01*
X105200000Y-68863568D01*
X105200000Y-68676432D01*
X105236507Y-68492897D01*
X105308120Y-68320008D01*
X105309513Y-68317923D01*
X105412087Y-68164410D01*
X105544410Y-68032087D01*
X105700006Y-67928121D01*
X105700008Y-67928120D01*
X105872897Y-67856507D01*
X106056432Y-67820000D01*
X106243568Y-67820000D01*
X106427103Y-67856507D01*
G37*
G36*
X108967103Y-67856507D02*
G01*
X109139992Y-67928120D01*
X109139994Y-67928121D01*
X109295590Y-68032087D01*
X109427913Y-68164410D01*
X109530487Y-68317923D01*
X109531880Y-68320008D01*
X109603493Y-68492897D01*
X109640000Y-68676432D01*
X109640000Y-68863568D01*
X109603493Y-69047103D01*
X109544603Y-69189275D01*
X109531879Y-69219994D01*
X109427913Y-69375590D01*
X109295590Y-69507913D01*
X109139994Y-69611879D01*
X109139993Y-69611880D01*
X109139992Y-69611880D01*
X108967103Y-69683493D01*
X108783568Y-69720000D01*
X108596432Y-69720000D01*
X108412897Y-69683493D01*
X108240008Y-69611880D01*
X108240007Y-69611880D01*
X108240006Y-69611879D01*
X108084410Y-69507913D01*
X107952087Y-69375590D01*
X107848121Y-69219994D01*
X107835397Y-69189275D01*
X107776507Y-69047103D01*
X107740000Y-68863568D01*
X107740000Y-68676432D01*
X107776507Y-68492897D01*
X107848120Y-68320008D01*
X107849513Y-68317923D01*
X107952087Y-68164410D01*
X108084410Y-68032087D01*
X108240006Y-67928121D01*
X108240008Y-67928120D01*
X108412897Y-67856507D01*
X108596432Y-67820000D01*
X108783568Y-67820000D01*
X108967103Y-67856507D01*
G37*
G36*
X101347103Y-67856507D02*
G01*
X101519992Y-67928120D01*
X101519994Y-67928121D01*
X101675590Y-68032087D01*
X101807913Y-68164410D01*
X101910487Y-68317923D01*
X101911880Y-68320008D01*
X101983493Y-68492897D01*
X102020000Y-68676432D01*
X102020000Y-68863568D01*
X101983493Y-69047103D01*
X101924603Y-69189275D01*
X101911879Y-69219994D01*
X101807913Y-69375590D01*
X101675590Y-69507913D01*
X101519994Y-69611879D01*
X101519993Y-69611880D01*
X101519992Y-69611880D01*
X101347103Y-69683493D01*
X101163568Y-69720000D01*
X100976432Y-69720000D01*
X100792897Y-69683493D01*
X100620008Y-69611880D01*
X100620007Y-69611880D01*
X100620006Y-69611879D01*
X100464410Y-69507913D01*
X100332087Y-69375590D01*
X100228121Y-69219994D01*
X100215397Y-69189275D01*
X100156507Y-69047103D01*
X100120000Y-68863568D01*
X100120000Y-68676432D01*
X100156507Y-68492897D01*
X100228120Y-68320008D01*
X100229513Y-68317923D01*
X100332087Y-68164410D01*
X100464410Y-68032087D01*
X100620006Y-67928121D01*
X100620008Y-67928120D01*
X100792897Y-67856507D01*
X100976432Y-67820000D01*
X101163568Y-67820000D01*
X101347103Y-67856507D01*
G37*
G36*
X148529856Y-65848272D02*
G01*
X148730044Y-65931192D01*
X148819513Y-65990974D01*
X148910209Y-66051575D01*
X149063425Y-66204791D01*
X149063426Y-66204793D01*
X149183808Y-66384956D01*
X149266728Y-66585144D01*
X149309000Y-66797658D01*
X149309000Y-67014342D01*
X149266728Y-67226856D01*
X149183808Y-67427044D01*
X149183807Y-67427045D01*
X149063425Y-67607209D01*
X148910209Y-67760425D01*
X148909345Y-67761002D01*
X148730044Y-67880808D01*
X148529856Y-67963728D01*
X148317342Y-68006000D01*
X148100658Y-68006000D01*
X147888144Y-67963728D01*
X147687956Y-67880808D01*
X147508655Y-67761002D01*
X147507791Y-67760425D01*
X147354575Y-67607209D01*
X147234193Y-67427045D01*
X147234192Y-67427044D01*
X147151272Y-67226856D01*
X147109000Y-67014342D01*
X147109000Y-66797658D01*
X147151272Y-66585144D01*
X147234192Y-66384956D01*
X147354574Y-66204793D01*
X147354575Y-66204791D01*
X147507791Y-66051575D01*
X147598487Y-65990974D01*
X147687956Y-65931192D01*
X147888144Y-65848272D01*
X148100658Y-65806000D01*
X148317342Y-65806000D01*
X148529856Y-65848272D01*
G37*
G36*
X153029856Y-65848272D02*
G01*
X153230044Y-65931192D01*
X153319513Y-65990974D01*
X153410209Y-66051575D01*
X153563425Y-66204791D01*
X153563426Y-66204793D01*
X153683808Y-66384956D01*
X153766728Y-66585144D01*
X153809000Y-66797658D01*
X153809000Y-67014342D01*
X153766728Y-67226856D01*
X153683808Y-67427044D01*
X153683807Y-67427045D01*
X153563425Y-67607209D01*
X153410209Y-67760425D01*
X153409345Y-67761002D01*
X153230044Y-67880808D01*
X153029856Y-67963728D01*
X152817342Y-68006000D01*
X152600658Y-68006000D01*
X152388144Y-67963728D01*
X152187956Y-67880808D01*
X152008655Y-67761002D01*
X152007791Y-67760425D01*
X151854575Y-67607209D01*
X151734193Y-67427045D01*
X151734192Y-67427044D01*
X151651272Y-67226856D01*
X151609000Y-67014342D01*
X151609000Y-66797658D01*
X151651272Y-66585144D01*
X151734192Y-66384956D01*
X151854574Y-66204793D01*
X151854575Y-66204791D01*
X152007791Y-66051575D01*
X152098487Y-65990974D01*
X152187956Y-65931192D01*
X152388144Y-65848272D01*
X152600658Y-65806000D01*
X152817342Y-65806000D01*
X153029856Y-65848272D01*
G37*
G36*
X163126808Y-66362489D02*
G01*
X163189598Y-66374979D01*
X163258891Y-66403682D01*
X163307889Y-66423977D01*
X163307890Y-66423978D01*
X163414351Y-66495112D01*
X163504888Y-66585649D01*
X163504889Y-66585651D01*
X163576023Y-66692111D01*
X163590484Y-66727024D01*
X163625021Y-66810402D01*
X163625021Y-66810404D01*
X163650000Y-66935979D01*
X163650000Y-67064021D01*
X163637510Y-67126809D01*
X163625021Y-67189598D01*
X163609588Y-67226856D01*
X163576023Y-67307889D01*
X163576022Y-67307890D01*
X163504888Y-67414351D01*
X163414351Y-67504888D01*
X163360760Y-67540696D01*
X163307889Y-67576023D01*
X163258891Y-67596318D01*
X163189598Y-67625021D01*
X163126808Y-67637511D01*
X163064021Y-67650000D01*
X162935979Y-67650000D01*
X162873192Y-67637511D01*
X162810402Y-67625021D01*
X162741109Y-67596318D01*
X162692111Y-67576023D01*
X162639240Y-67540696D01*
X162585649Y-67504888D01*
X162495112Y-67414351D01*
X162423978Y-67307890D01*
X162423977Y-67307889D01*
X162390412Y-67226856D01*
X162374979Y-67189598D01*
X162362490Y-67126809D01*
X162350000Y-67064021D01*
X162350000Y-66935979D01*
X162374979Y-66810404D01*
X162374979Y-66810402D01*
X162409516Y-66727024D01*
X162423977Y-66692111D01*
X162495111Y-66585651D01*
X162495112Y-66585649D01*
X162585649Y-66495112D01*
X162692110Y-66423978D01*
X162692111Y-66423977D01*
X162741109Y-66403682D01*
X162810402Y-66374979D01*
X162873192Y-66362489D01*
X162935979Y-66350000D01*
X163064021Y-66350000D01*
X163126808Y-66362489D01*
G37*
G36*
X136907103Y-65316507D02*
G01*
X136907106Y-65316508D01*
X136907105Y-65316508D01*
X137079994Y-65388121D01*
X137235590Y-65492087D01*
X137367913Y-65624410D01*
X137367914Y-65624412D01*
X137471880Y-65780008D01*
X137543493Y-65952897D01*
X137580000Y-66136432D01*
X137580000Y-66323568D01*
X137543493Y-66507103D01*
X137543492Y-66507105D01*
X137471879Y-66679994D01*
X137367913Y-66835590D01*
X137235590Y-66967913D01*
X137079994Y-67071879D01*
X137079993Y-67071880D01*
X137079992Y-67071880D01*
X136907103Y-67143493D01*
X136723568Y-67180000D01*
X136536432Y-67180000D01*
X136352897Y-67143493D01*
X136180008Y-67071880D01*
X136180007Y-67071880D01*
X136180006Y-67071879D01*
X136024410Y-66967913D01*
X135892087Y-66835590D01*
X135788121Y-66679994D01*
X135716508Y-66507105D01*
X135716507Y-66507103D01*
X135680000Y-66323568D01*
X135680000Y-66136432D01*
X135716507Y-65952897D01*
X135788120Y-65780008D01*
X135892086Y-65624412D01*
X135892087Y-65624410D01*
X136024410Y-65492087D01*
X136180006Y-65388121D01*
X136352895Y-65316508D01*
X136352894Y-65316508D01*
X136352897Y-65316507D01*
X136536432Y-65280000D01*
X136723568Y-65280000D01*
X136907103Y-65316507D01*
G37*
G36*
X126747103Y-65316507D02*
G01*
X126747106Y-65316508D01*
X126747105Y-65316508D01*
X126919994Y-65388121D01*
X127075590Y-65492087D01*
X127207913Y-65624410D01*
X127207914Y-65624412D01*
X127311880Y-65780008D01*
X127383493Y-65952897D01*
X127420000Y-66136432D01*
X127420000Y-66323568D01*
X127383493Y-66507103D01*
X127383492Y-66507105D01*
X127311879Y-66679994D01*
X127207913Y-66835590D01*
X127075590Y-66967913D01*
X126919994Y-67071879D01*
X126919993Y-67071880D01*
X126919992Y-67071880D01*
X126747103Y-67143493D01*
X126563568Y-67180000D01*
X126376432Y-67180000D01*
X126192897Y-67143493D01*
X126020008Y-67071880D01*
X126020007Y-67071880D01*
X126020006Y-67071879D01*
X125864410Y-66967913D01*
X125732087Y-66835590D01*
X125628121Y-66679994D01*
X125556508Y-66507105D01*
X125556507Y-66507103D01*
X125520000Y-66323568D01*
X125520000Y-66136432D01*
X125556507Y-65952897D01*
X125628120Y-65780008D01*
X125732086Y-65624412D01*
X125732087Y-65624410D01*
X125864410Y-65492087D01*
X126020006Y-65388121D01*
X126192895Y-65316508D01*
X126192894Y-65316508D01*
X126192897Y-65316507D01*
X126376432Y-65280000D01*
X126563568Y-65280000D01*
X126747103Y-65316507D01*
G37*
G36*
X124207103Y-65316507D02*
G01*
X124207106Y-65316508D01*
X124207105Y-65316508D01*
X124379994Y-65388121D01*
X124535590Y-65492087D01*
X124667913Y-65624410D01*
X124667914Y-65624412D01*
X124771880Y-65780008D01*
X124843493Y-65952897D01*
X124880000Y-66136432D01*
X124880000Y-66323568D01*
X124843493Y-66507103D01*
X124843492Y-66507105D01*
X124771879Y-66679994D01*
X124667913Y-66835590D01*
X124535590Y-66967913D01*
X124379994Y-67071879D01*
X124379993Y-67071880D01*
X124379992Y-67071880D01*
X124207103Y-67143493D01*
X124023568Y-67180000D01*
X123836432Y-67180000D01*
X123652897Y-67143493D01*
X123480008Y-67071880D01*
X123480007Y-67071880D01*
X123480006Y-67071879D01*
X123324410Y-66967913D01*
X123192087Y-66835590D01*
X123088121Y-66679994D01*
X123016508Y-66507105D01*
X123016507Y-66507103D01*
X122980000Y-66323568D01*
X122980000Y-66136432D01*
X123016507Y-65952897D01*
X123088120Y-65780008D01*
X123192086Y-65624412D01*
X123192087Y-65624410D01*
X123324410Y-65492087D01*
X123480006Y-65388121D01*
X123652895Y-65316508D01*
X123652894Y-65316508D01*
X123652897Y-65316507D01*
X123836432Y-65280000D01*
X124023568Y-65280000D01*
X124207103Y-65316507D01*
G37*
G36*
X121667103Y-65316507D02*
G01*
X121667106Y-65316508D01*
X121667105Y-65316508D01*
X121839994Y-65388121D01*
X121995590Y-65492087D01*
X122127913Y-65624410D01*
X122127914Y-65624412D01*
X122231880Y-65780008D01*
X122303493Y-65952897D01*
X122340000Y-66136432D01*
X122340000Y-66323568D01*
X122303493Y-66507103D01*
X122303492Y-66507105D01*
X122231879Y-66679994D01*
X122127913Y-66835590D01*
X121995590Y-66967913D01*
X121839994Y-67071879D01*
X121839993Y-67071880D01*
X121839992Y-67071880D01*
X121667103Y-67143493D01*
X121483568Y-67180000D01*
X121296432Y-67180000D01*
X121112897Y-67143493D01*
X120940008Y-67071880D01*
X120940007Y-67071880D01*
X120940006Y-67071879D01*
X120784410Y-66967913D01*
X120652087Y-66835590D01*
X120548121Y-66679994D01*
X120476508Y-66507105D01*
X120476507Y-66507103D01*
X120440000Y-66323568D01*
X120440000Y-66136432D01*
X120476507Y-65952897D01*
X120548120Y-65780008D01*
X120652086Y-65624412D01*
X120652087Y-65624410D01*
X120784410Y-65492087D01*
X120940006Y-65388121D01*
X121112895Y-65316508D01*
X121112894Y-65316508D01*
X121112897Y-65316507D01*
X121296432Y-65280000D01*
X121483568Y-65280000D01*
X121667103Y-65316507D01*
G37*
G36*
X119127103Y-65316507D02*
G01*
X119127106Y-65316508D01*
X119127105Y-65316508D01*
X119299994Y-65388121D01*
X119455590Y-65492087D01*
X119587913Y-65624410D01*
X119587914Y-65624412D01*
X119691880Y-65780008D01*
X119763493Y-65952897D01*
X119800000Y-66136432D01*
X119800000Y-66323568D01*
X119763493Y-66507103D01*
X119763492Y-66507105D01*
X119691879Y-66679994D01*
X119587913Y-66835590D01*
X119455590Y-66967913D01*
X119299994Y-67071879D01*
X119299993Y-67071880D01*
X119299992Y-67071880D01*
X119127103Y-67143493D01*
X118943568Y-67180000D01*
X118756432Y-67180000D01*
X118572897Y-67143493D01*
X118400008Y-67071880D01*
X118400007Y-67071880D01*
X118400006Y-67071879D01*
X118244410Y-66967913D01*
X118112087Y-66835590D01*
X118008121Y-66679994D01*
X117936508Y-66507105D01*
X117936507Y-66507103D01*
X117900000Y-66323568D01*
X117900000Y-66136432D01*
X117936507Y-65952897D01*
X118008120Y-65780008D01*
X118112086Y-65624412D01*
X118112087Y-65624410D01*
X118244410Y-65492087D01*
X118400006Y-65388121D01*
X118572895Y-65316508D01*
X118572894Y-65316508D01*
X118572897Y-65316507D01*
X118756432Y-65280000D01*
X118943568Y-65280000D01*
X119127103Y-65316507D01*
G37*
G36*
X116587103Y-65316507D02*
G01*
X116587106Y-65316508D01*
X116587105Y-65316508D01*
X116759994Y-65388121D01*
X116915590Y-65492087D01*
X117047913Y-65624410D01*
X117047914Y-65624412D01*
X117151880Y-65780008D01*
X117223493Y-65952897D01*
X117260000Y-66136432D01*
X117260000Y-66323568D01*
X117223493Y-66507103D01*
X117223492Y-66507105D01*
X117151879Y-66679994D01*
X117047913Y-66835590D01*
X116915590Y-66967913D01*
X116759994Y-67071879D01*
X116759993Y-67071880D01*
X116759992Y-67071880D01*
X116587103Y-67143493D01*
X116403568Y-67180000D01*
X116216432Y-67180000D01*
X116032897Y-67143493D01*
X115860008Y-67071880D01*
X115860007Y-67071880D01*
X115860006Y-67071879D01*
X115704410Y-66967913D01*
X115572087Y-66835590D01*
X115468121Y-66679994D01*
X115396508Y-66507105D01*
X115396507Y-66507103D01*
X115360000Y-66323568D01*
X115360000Y-66136432D01*
X115396507Y-65952897D01*
X115468120Y-65780008D01*
X115572086Y-65624412D01*
X115572087Y-65624410D01*
X115704410Y-65492087D01*
X115860006Y-65388121D01*
X116032895Y-65316508D01*
X116032894Y-65316508D01*
X116032897Y-65316507D01*
X116216432Y-65280000D01*
X116403568Y-65280000D01*
X116587103Y-65316507D01*
G37*
G36*
X114047103Y-65316507D02*
G01*
X114047106Y-65316508D01*
X114047105Y-65316508D01*
X114219994Y-65388121D01*
X114375590Y-65492087D01*
X114507913Y-65624410D01*
X114507914Y-65624412D01*
X114611880Y-65780008D01*
X114683493Y-65952897D01*
X114720000Y-66136432D01*
X114720000Y-66323568D01*
X114683493Y-66507103D01*
X114683492Y-66507105D01*
X114611879Y-66679994D01*
X114507913Y-66835590D01*
X114375590Y-66967913D01*
X114219994Y-67071879D01*
X114219993Y-67071880D01*
X114219992Y-67071880D01*
X114047103Y-67143493D01*
X113863568Y-67180000D01*
X113676432Y-67180000D01*
X113492897Y-67143493D01*
X113320008Y-67071880D01*
X113320007Y-67071880D01*
X113320006Y-67071879D01*
X113164410Y-66967913D01*
X113032087Y-66835590D01*
X112928121Y-66679994D01*
X112856508Y-66507105D01*
X112856507Y-66507103D01*
X112820000Y-66323568D01*
X112820000Y-66136432D01*
X112856507Y-65952897D01*
X112928120Y-65780008D01*
X113032086Y-65624412D01*
X113032087Y-65624410D01*
X113164410Y-65492087D01*
X113320006Y-65388121D01*
X113492895Y-65316508D01*
X113492894Y-65316508D01*
X113492897Y-65316507D01*
X113676432Y-65280000D01*
X113863568Y-65280000D01*
X114047103Y-65316507D01*
G37*
G36*
X111507103Y-65316507D02*
G01*
X111507106Y-65316508D01*
X111507105Y-65316508D01*
X111679994Y-65388121D01*
X111835590Y-65492087D01*
X111967913Y-65624410D01*
X111967914Y-65624412D01*
X112071880Y-65780008D01*
X112143493Y-65952897D01*
X112180000Y-66136432D01*
X112180000Y-66323568D01*
X112143493Y-66507103D01*
X112143492Y-66507105D01*
X112071879Y-66679994D01*
X111967913Y-66835590D01*
X111835590Y-66967913D01*
X111679994Y-67071879D01*
X111679993Y-67071880D01*
X111679992Y-67071880D01*
X111507103Y-67143493D01*
X111323568Y-67180000D01*
X111136432Y-67180000D01*
X110952897Y-67143493D01*
X110780008Y-67071880D01*
X110780007Y-67071880D01*
X110780006Y-67071879D01*
X110624410Y-66967913D01*
X110492087Y-66835590D01*
X110388121Y-66679994D01*
X110316508Y-66507105D01*
X110316507Y-66507103D01*
X110280000Y-66323568D01*
X110280000Y-66136432D01*
X110316507Y-65952897D01*
X110388120Y-65780008D01*
X110492086Y-65624412D01*
X110492087Y-65624410D01*
X110624410Y-65492087D01*
X110780006Y-65388121D01*
X110952895Y-65316508D01*
X110952894Y-65316508D01*
X110952897Y-65316507D01*
X111136432Y-65280000D01*
X111323568Y-65280000D01*
X111507103Y-65316507D01*
G37*
G36*
X108967103Y-65316507D02*
G01*
X108967106Y-65316508D01*
X108967105Y-65316508D01*
X109139994Y-65388121D01*
X109295590Y-65492087D01*
X109427913Y-65624410D01*
X109427914Y-65624412D01*
X109531880Y-65780008D01*
X109603493Y-65952897D01*
X109640000Y-66136432D01*
X109640000Y-66323568D01*
X109603493Y-66507103D01*
X109603492Y-66507105D01*
X109531879Y-66679994D01*
X109427913Y-66835590D01*
X109295590Y-66967913D01*
X109139994Y-67071879D01*
X109139993Y-67071880D01*
X109139992Y-67071880D01*
X108967103Y-67143493D01*
X108783568Y-67180000D01*
X108596432Y-67180000D01*
X108412897Y-67143493D01*
X108240008Y-67071880D01*
X108240007Y-67071880D01*
X108240006Y-67071879D01*
X108084410Y-66967913D01*
X107952087Y-66835590D01*
X107848121Y-66679994D01*
X107776508Y-66507105D01*
X107776507Y-66507103D01*
X107740000Y-66323568D01*
X107740000Y-66136432D01*
X107776507Y-65952897D01*
X107848120Y-65780008D01*
X107952086Y-65624412D01*
X107952087Y-65624410D01*
X108084410Y-65492087D01*
X108240006Y-65388121D01*
X108412895Y-65316508D01*
X108412894Y-65316508D01*
X108412897Y-65316507D01*
X108596432Y-65280000D01*
X108783568Y-65280000D01*
X108967103Y-65316507D01*
G37*
G36*
X106427103Y-65316507D02*
G01*
X106427106Y-65316508D01*
X106427105Y-65316508D01*
X106599994Y-65388121D01*
X106755590Y-65492087D01*
X106887913Y-65624410D01*
X106887914Y-65624412D01*
X106991880Y-65780008D01*
X107063493Y-65952897D01*
X107100000Y-66136432D01*
X107100000Y-66323568D01*
X107063493Y-66507103D01*
X107063492Y-66507105D01*
X106991879Y-66679994D01*
X106887913Y-66835590D01*
X106755590Y-66967913D01*
X106599994Y-67071879D01*
X106599993Y-67071880D01*
X106599992Y-67071880D01*
X106427103Y-67143493D01*
X106243568Y-67180000D01*
X106056432Y-67180000D01*
X105872897Y-67143493D01*
X105700008Y-67071880D01*
X105700007Y-67071880D01*
X105700006Y-67071879D01*
X105544410Y-66967913D01*
X105412087Y-66835590D01*
X105308121Y-66679994D01*
X105236508Y-66507105D01*
X105236507Y-66507103D01*
X105200000Y-66323568D01*
X105200000Y-66136432D01*
X105236507Y-65952897D01*
X105308120Y-65780008D01*
X105412086Y-65624412D01*
X105412087Y-65624410D01*
X105544410Y-65492087D01*
X105700006Y-65388121D01*
X105872895Y-65316508D01*
X105872894Y-65316508D01*
X105872897Y-65316507D01*
X106056432Y-65280000D01*
X106243568Y-65280000D01*
X106427103Y-65316507D01*
G37*
G36*
X103887103Y-65316507D02*
G01*
X103887106Y-65316508D01*
X103887105Y-65316508D01*
X104059994Y-65388121D01*
X104215590Y-65492087D01*
X104347913Y-65624410D01*
X104347914Y-65624412D01*
X104451880Y-65780008D01*
X104523493Y-65952897D01*
X104560000Y-66136432D01*
X104560000Y-66323568D01*
X104523493Y-66507103D01*
X104523492Y-66507105D01*
X104451879Y-66679994D01*
X104347913Y-66835590D01*
X104215590Y-66967913D01*
X104059994Y-67071879D01*
X104059993Y-67071880D01*
X104059992Y-67071880D01*
X103887103Y-67143493D01*
X103703568Y-67180000D01*
X103516432Y-67180000D01*
X103332897Y-67143493D01*
X103160008Y-67071880D01*
X103160007Y-67071880D01*
X103160006Y-67071879D01*
X103004410Y-66967913D01*
X102872087Y-66835590D01*
X102768121Y-66679994D01*
X102696508Y-66507105D01*
X102696507Y-66507103D01*
X102660000Y-66323568D01*
X102660000Y-66136432D01*
X102696507Y-65952897D01*
X102768120Y-65780008D01*
X102872086Y-65624412D01*
X102872087Y-65624410D01*
X103004410Y-65492087D01*
X103160006Y-65388121D01*
X103332895Y-65316508D01*
X103332894Y-65316508D01*
X103332897Y-65316507D01*
X103516432Y-65280000D01*
X103703568Y-65280000D01*
X103887103Y-65316507D01*
G37*
G36*
X101347103Y-65316507D02*
G01*
X101347106Y-65316508D01*
X101347105Y-65316508D01*
X101519994Y-65388121D01*
X101675590Y-65492087D01*
X101807913Y-65624410D01*
X101807914Y-65624412D01*
X101911880Y-65780008D01*
X101983493Y-65952897D01*
X102020000Y-66136432D01*
X102020000Y-66323568D01*
X101983493Y-66507103D01*
X101983492Y-66507105D01*
X101911879Y-66679994D01*
X101807913Y-66835590D01*
X101675590Y-66967913D01*
X101519994Y-67071879D01*
X101519993Y-67071880D01*
X101519992Y-67071880D01*
X101347103Y-67143493D01*
X101163568Y-67180000D01*
X100976432Y-67180000D01*
X100792897Y-67143493D01*
X100620008Y-67071880D01*
X100620007Y-67071880D01*
X100620006Y-67071879D01*
X100464410Y-66967913D01*
X100332087Y-66835590D01*
X100228121Y-66679994D01*
X100156508Y-66507105D01*
X100156507Y-66507103D01*
X100120000Y-66323568D01*
X100120000Y-66136432D01*
X100156507Y-65952897D01*
X100228120Y-65780008D01*
X100332086Y-65624412D01*
X100332087Y-65624410D01*
X100464410Y-65492087D01*
X100620006Y-65388121D01*
X100792895Y-65316508D01*
X100792894Y-65316508D01*
X100792897Y-65316507D01*
X100976432Y-65280000D01*
X101163568Y-65280000D01*
X101347103Y-65316507D01*
G37*
G36*
X98807103Y-65316507D02*
G01*
X98807106Y-65316508D01*
X98807105Y-65316508D01*
X98979994Y-65388121D01*
X99135590Y-65492087D01*
X99267913Y-65624410D01*
X99267914Y-65624412D01*
X99371880Y-65780008D01*
X99443493Y-65952897D01*
X99480000Y-66136432D01*
X99480000Y-66323568D01*
X99443493Y-66507103D01*
X99443492Y-66507105D01*
X99371879Y-66679994D01*
X99267913Y-66835590D01*
X99135590Y-66967913D01*
X98979994Y-67071879D01*
X98979993Y-67071880D01*
X98979992Y-67071880D01*
X98807103Y-67143493D01*
X98623568Y-67180000D01*
X98436432Y-67180000D01*
X98252897Y-67143493D01*
X98080008Y-67071880D01*
X98080007Y-67071880D01*
X98080006Y-67071879D01*
X97924410Y-66967913D01*
X97792087Y-66835590D01*
X97688121Y-66679994D01*
X97616508Y-66507105D01*
X97616507Y-66507103D01*
X97580000Y-66323568D01*
X97580000Y-66136432D01*
X97616507Y-65952897D01*
X97688120Y-65780008D01*
X97792086Y-65624412D01*
X97792087Y-65624410D01*
X97924410Y-65492087D01*
X98080006Y-65388121D01*
X98252895Y-65316508D01*
X98252894Y-65316508D01*
X98252897Y-65316507D01*
X98436432Y-65280000D01*
X98623568Y-65280000D01*
X98807103Y-65316507D01*
G37*
G36*
X96267103Y-65316507D02*
G01*
X96267106Y-65316508D01*
X96267105Y-65316508D01*
X96439994Y-65388121D01*
X96595590Y-65492087D01*
X96727913Y-65624410D01*
X96727914Y-65624412D01*
X96831880Y-65780008D01*
X96903493Y-65952897D01*
X96940000Y-66136432D01*
X96940000Y-66323568D01*
X96903493Y-66507103D01*
X96903492Y-66507105D01*
X96831879Y-66679994D01*
X96727913Y-66835590D01*
X96595590Y-66967913D01*
X96439994Y-67071879D01*
X96439993Y-67071880D01*
X96439992Y-67071880D01*
X96267103Y-67143493D01*
X96083568Y-67180000D01*
X95896432Y-67180000D01*
X95712897Y-67143493D01*
X95540008Y-67071880D01*
X95540007Y-67071880D01*
X95540006Y-67071879D01*
X95384410Y-66967913D01*
X95252087Y-66835590D01*
X95148121Y-66679994D01*
X95076508Y-66507105D01*
X95076507Y-66507103D01*
X95040000Y-66323568D01*
X95040000Y-66136432D01*
X95076507Y-65952897D01*
X95148120Y-65780008D01*
X95252086Y-65624412D01*
X95252087Y-65624410D01*
X95384410Y-65492087D01*
X95540006Y-65388121D01*
X95712895Y-65316508D01*
X95712894Y-65316508D01*
X95712897Y-65316507D01*
X95896432Y-65280000D01*
X96083568Y-65280000D01*
X96267103Y-65316507D01*
G37*
G36*
X93727103Y-65316507D02*
G01*
X93727106Y-65316508D01*
X93727105Y-65316508D01*
X93899994Y-65388121D01*
X94055590Y-65492087D01*
X94187913Y-65624410D01*
X94187914Y-65624412D01*
X94291880Y-65780008D01*
X94363493Y-65952897D01*
X94400000Y-66136432D01*
X94400000Y-66323568D01*
X94363493Y-66507103D01*
X94363492Y-66507105D01*
X94291879Y-66679994D01*
X94187913Y-66835590D01*
X94055590Y-66967913D01*
X93899994Y-67071879D01*
X93899993Y-67071880D01*
X93899992Y-67071880D01*
X93727103Y-67143493D01*
X93543568Y-67180000D01*
X93356432Y-67180000D01*
X93172897Y-67143493D01*
X93000008Y-67071880D01*
X93000007Y-67071880D01*
X93000006Y-67071879D01*
X92844410Y-66967913D01*
X92712087Y-66835590D01*
X92608121Y-66679994D01*
X92536508Y-66507105D01*
X92536507Y-66507103D01*
X92500000Y-66323568D01*
X92500000Y-66136432D01*
X92536507Y-65952897D01*
X92608120Y-65780008D01*
X92712086Y-65624412D01*
X92712087Y-65624410D01*
X92844410Y-65492087D01*
X93000006Y-65388121D01*
X93172895Y-65316508D01*
X93172894Y-65316508D01*
X93172897Y-65316507D01*
X93356432Y-65280000D01*
X93543568Y-65280000D01*
X93727103Y-65316507D01*
G37*
G36*
X91187103Y-65316507D02*
G01*
X91187106Y-65316508D01*
X91187105Y-65316508D01*
X91359994Y-65388121D01*
X91515590Y-65492087D01*
X91647913Y-65624410D01*
X91647914Y-65624412D01*
X91751880Y-65780008D01*
X91823493Y-65952897D01*
X91860000Y-66136432D01*
X91860000Y-66323568D01*
X91823493Y-66507103D01*
X91823492Y-66507105D01*
X91751879Y-66679994D01*
X91647913Y-66835590D01*
X91515590Y-66967913D01*
X91359994Y-67071879D01*
X91359993Y-67071880D01*
X91359992Y-67071880D01*
X91187103Y-67143493D01*
X91003568Y-67180000D01*
X90816432Y-67180000D01*
X90632897Y-67143493D01*
X90460008Y-67071880D01*
X90460007Y-67071880D01*
X90460006Y-67071879D01*
X90304410Y-66967913D01*
X90172087Y-66835590D01*
X90068121Y-66679994D01*
X89996508Y-66507105D01*
X89996507Y-66507103D01*
X89960000Y-66323568D01*
X89960000Y-66136432D01*
X89996507Y-65952897D01*
X90068120Y-65780008D01*
X90172086Y-65624412D01*
X90172087Y-65624410D01*
X90304410Y-65492087D01*
X90460006Y-65388121D01*
X90632895Y-65316508D01*
X90632894Y-65316508D01*
X90632897Y-65316507D01*
X90816432Y-65280000D01*
X91003568Y-65280000D01*
X91187103Y-65316507D01*
G37*
G36*
X131827103Y-65316507D02*
G01*
X131827106Y-65316508D01*
X131827105Y-65316508D01*
X131999994Y-65388121D01*
X132155590Y-65492087D01*
X132287913Y-65624410D01*
X132287914Y-65624412D01*
X132391880Y-65780008D01*
X132463493Y-65952897D01*
X132500000Y-66136432D01*
X132500000Y-66323568D01*
X132463493Y-66507103D01*
X132463492Y-66507105D01*
X132391879Y-66679994D01*
X132287913Y-66835590D01*
X132155590Y-66967913D01*
X131999994Y-67071879D01*
X131999993Y-67071880D01*
X131999992Y-67071880D01*
X131827103Y-67143493D01*
X131643568Y-67180000D01*
X131456432Y-67180000D01*
X131272897Y-67143493D01*
X131100008Y-67071880D01*
X131100007Y-67071880D01*
X131100006Y-67071879D01*
X130944410Y-66967913D01*
X130812087Y-66835590D01*
X130708121Y-66679994D01*
X130636508Y-66507105D01*
X130636507Y-66507103D01*
X130600000Y-66323568D01*
X130600000Y-66136432D01*
X130636507Y-65952897D01*
X130708120Y-65780008D01*
X130812086Y-65624412D01*
X130812087Y-65624410D01*
X130944410Y-65492087D01*
X131100006Y-65388121D01*
X131272895Y-65316508D01*
X131272894Y-65316508D01*
X131272897Y-65316507D01*
X131456432Y-65280000D01*
X131643568Y-65280000D01*
X131827103Y-65316507D01*
G37*
G36*
X129287103Y-65316507D02*
G01*
X129287106Y-65316508D01*
X129287105Y-65316508D01*
X129459994Y-65388121D01*
X129615590Y-65492087D01*
X129747913Y-65624410D01*
X129747914Y-65624412D01*
X129851880Y-65780008D01*
X129923493Y-65952897D01*
X129960000Y-66136432D01*
X129960000Y-66323568D01*
X129923493Y-66507103D01*
X129923492Y-66507105D01*
X129851879Y-66679994D01*
X129747913Y-66835590D01*
X129615590Y-66967913D01*
X129459994Y-67071879D01*
X129459993Y-67071880D01*
X129459992Y-67071880D01*
X129287103Y-67143493D01*
X129103568Y-67180000D01*
X128916432Y-67180000D01*
X128732897Y-67143493D01*
X128560008Y-67071880D01*
X128560007Y-67071880D01*
X128560006Y-67071879D01*
X128404410Y-66967913D01*
X128272087Y-66835590D01*
X128168121Y-66679994D01*
X128096508Y-66507105D01*
X128096507Y-66507103D01*
X128060000Y-66323568D01*
X128060000Y-66136432D01*
X128096507Y-65952897D01*
X128168120Y-65780008D01*
X128272086Y-65624412D01*
X128272087Y-65624410D01*
X128404410Y-65492087D01*
X128560006Y-65388121D01*
X128732895Y-65316508D01*
X128732894Y-65316508D01*
X128732897Y-65316507D01*
X128916432Y-65280000D01*
X129103568Y-65280000D01*
X129287103Y-65316507D01*
G37*
G36*
X134367103Y-65316507D02*
G01*
X134367106Y-65316508D01*
X134367105Y-65316508D01*
X134539994Y-65388121D01*
X134695590Y-65492087D01*
X134827913Y-65624410D01*
X134827914Y-65624412D01*
X134931880Y-65780008D01*
X135003493Y-65952897D01*
X135040000Y-66136432D01*
X135040000Y-66323568D01*
X135003493Y-66507103D01*
X135003492Y-66507105D01*
X134931879Y-66679994D01*
X134827913Y-66835590D01*
X134695590Y-66967913D01*
X134539994Y-67071879D01*
X134539993Y-67071880D01*
X134539992Y-67071880D01*
X134367103Y-67143493D01*
X134183568Y-67180000D01*
X133996432Y-67180000D01*
X133812897Y-67143493D01*
X133640008Y-67071880D01*
X133640007Y-67071880D01*
X133640006Y-67071879D01*
X133484410Y-66967913D01*
X133352087Y-66835590D01*
X133248121Y-66679994D01*
X133176508Y-66507105D01*
X133176507Y-66507103D01*
X133140000Y-66323568D01*
X133140000Y-66136432D01*
X133176507Y-65952897D01*
X133248120Y-65780008D01*
X133352086Y-65624412D01*
X133352087Y-65624410D01*
X133484410Y-65492087D01*
X133640006Y-65388121D01*
X133812895Y-65316508D01*
X133812894Y-65316508D01*
X133812897Y-65316507D01*
X133996432Y-65280000D01*
X134183568Y-65280000D01*
X134367103Y-65316507D01*
G37*
G36*
X88647103Y-65316507D02*
G01*
X88647106Y-65316508D01*
X88647105Y-65316508D01*
X88819994Y-65388121D01*
X88975590Y-65492087D01*
X89107913Y-65624410D01*
X89107914Y-65624412D01*
X89211880Y-65780008D01*
X89283493Y-65952897D01*
X89320000Y-66136432D01*
X89320000Y-66323568D01*
X89283493Y-66507103D01*
X89283492Y-66507105D01*
X89211879Y-66679994D01*
X89107913Y-66835590D01*
X88975590Y-66967913D01*
X88819994Y-67071879D01*
X88819993Y-67071880D01*
X88819992Y-67071880D01*
X88647103Y-67143493D01*
X88463568Y-67180000D01*
X88276432Y-67180000D01*
X88092897Y-67143493D01*
X87920008Y-67071880D01*
X87920007Y-67071880D01*
X87920006Y-67071879D01*
X87764410Y-66967913D01*
X87632087Y-66835590D01*
X87528121Y-66679994D01*
X87456508Y-66507105D01*
X87456507Y-66507103D01*
X87420000Y-66323568D01*
X87420000Y-66136432D01*
X87456507Y-65952897D01*
X87528120Y-65780008D01*
X87632086Y-65624412D01*
X87632087Y-65624410D01*
X87764410Y-65492087D01*
X87920006Y-65388121D01*
X88092895Y-65316508D01*
X88092894Y-65316508D01*
X88092897Y-65316507D01*
X88276432Y-65280000D01*
X88463568Y-65280000D01*
X88647103Y-65316507D01*
G37*
M02*
