M48
; DRILL file {KiCad (5.1.5)-3} date 15.06.2020 16:44:33
; FORMAT={-:-/ absolute / inch / decimal}
; #@! TF.CreationDate,2020-06-15T16:44:33+02:00
; #@! TF.GenerationSoftware,Kicad,Pcbnew,(5.1.5)-3
; #@! TF.FileFunction,Plated,1,2,PTH
FMAT,2
INCH
T1C0.0079
T2C0.0157
T3C0.0177
T4C0.0197
T5C0.0276
T6C0.0315
T7C0.0354
T8C0.0394
T9C0.0402
T10C0.0433
T11C0.0512
%
G90
G05
T1
X5.372Y-3.9045
X5.372Y-3.9458
X5.372Y-3.9872
X5.4134Y-3.9045
X5.4134Y-3.9458
X5.4134Y-3.9872
X5.4547Y-3.9045
X5.4547Y-3.9458
X5.4547Y-3.9872
T2
X3.1928Y-4.4944
X3.24Y-4.3
X3.249Y-4.0711
X3.277Y-4.1029
X3.34Y-3.745
X3.3967Y-4.432
X3.5Y-3.46
X3.6181Y-4.5866
X3.6853Y-4.2522
X3.6959Y-4.3043
X3.735Y-3.625
X3.7443Y-4.1793
X3.85Y-4.52
X3.8731Y-3.7083
X3.89Y-3.85
X3.9263Y-4.359
X3.94Y-3.03
X3.96Y-2.82
X4.005Y-4.265
X4.02Y-3.21
X4.0598Y-2.9198
X4.06Y-3.02
X4.07Y-3.85
X4.1039Y-3.7752
X4.12Y-4.325
X4.1341Y-4.2882
X4.1466Y-4.195
X4.167Y-3.8927
X4.169Y-3.8504
X4.185Y-4.395
X4.187Y-4.1967
X4.187Y-4.279
X4.1975Y-3.9546
X4.1978Y-3.7345
X4.22Y-4.1744
X4.226Y-3.9029
X4.2326Y-3.7074
X4.375Y-2.87
X4.397Y-4.4138
X4.42Y-4.35
X4.425Y-3.6094
X4.445Y-2.92
X4.463Y-3.62
X4.47Y-4.3817
X4.4944Y-3.5962
X4.495Y-2.9
X4.51Y-4.16
X4.5439Y-3.8801
X4.5875Y-4.0075
X4.5875Y-4.0862
X4.5875Y-4.165
X4.615Y-3.615
X4.6398Y-3.8402
X4.6605Y-3.6158
X4.6662Y-4.0075
X4.7162Y-3.5888
X4.745Y-4.0075
X4.7548Y-3.8687
X4.805Y-3.61
X4.8237Y-4.0075
X4.8237Y-4.0862
X4.8237Y-4.165
X4.83Y-4.2817
X4.8725Y-3.8269
X4.8785Y-4.2485
X4.88Y-4.2879
X4.89Y-3.625
X4.9064Y-3.8635
X5.0512Y-3.6378
X5.11Y-3.87
X5.1102Y-3.7008
X5.1381Y-4.1592
X5.14Y-4.465
X5.15Y-4.0
X5.1509Y-4.288
X5.21Y-4.12
X5.23Y-3.955
X5.2448Y-3.9933
X5.27Y-4.155
X5.3047Y-4.0747
X5.331Y-3.854
X5.4128Y-4.0845
X5.4314Y-4.1192
X5.435Y-3.79
X5.469Y-4.131
X5.5Y-3.855
X5.51Y-3.76
X5.515Y-4.075
X5.55Y-3.85
X5.5869Y-4.11
X5.6Y-4.425
X5.6802Y-4.0448
X5.7Y-3.8815
X6.185Y-4.6735
X6.265Y-4.655
X6.405Y-4.68
X6.41Y-3.42
T6
X5.44Y-4.2722
X5.44Y-4.41
X6.285Y-2.7172
X6.285Y-2.855
T7
X5.7996Y-4.1459
X5.7996Y-4.2459
X5.7996Y-4.3459
X5.7996Y-4.4459
X5.7996Y-4.5459
X5.8996Y-4.0959
X5.8996Y-4.1959
X5.8996Y-4.2959
X5.8996Y-4.3959
X5.8996Y-4.4959
T8
X3.818Y-4.642
X3.918Y-4.642
X4.018Y-4.642
X4.118Y-4.642
X4.218Y-4.642
X5.175Y-4.625
X5.275Y-4.625
X5.375Y-4.625
X3.4791Y-2.6075
X3.4791Y-2.7075
X3.5791Y-2.6075
X3.5791Y-2.7075
X3.6791Y-2.6075
X3.6791Y-2.7075
X3.7791Y-2.6075
X3.7791Y-2.7075
X3.8791Y-2.6075
X3.8791Y-2.7075
X3.9791Y-2.6075
X3.9791Y-2.7075
X4.0791Y-2.6075
X4.0791Y-2.7075
X4.1791Y-2.6075
X4.1791Y-2.7075
X4.2791Y-2.6075
X4.2791Y-2.7075
X4.3791Y-2.6075
X4.3791Y-2.7075
X4.4791Y-2.6075
X4.4791Y-2.7075
X4.5791Y-2.6075
X4.5791Y-2.7075
X4.6791Y-2.6075
X4.6791Y-2.7075
X4.7791Y-2.6075
X4.7791Y-2.7075
X4.8791Y-2.6075
X4.8791Y-2.7075
X4.9791Y-2.6075
X4.9791Y-2.7075
X5.0791Y-2.6075
X5.0791Y-2.7075
X5.1791Y-2.6075
X5.1791Y-2.7075
X5.2791Y-2.6075
X5.2791Y-2.7075
X5.3791Y-2.6075
X5.3791Y-2.7075
T9
X6.3102Y-4.06
X6.3102Y-4.16
X6.3102Y-4.4817
X6.3102Y-4.5817
T10
X4.4335Y-3.345
X4.5335Y-3.345
X4.6335Y-3.345
X4.7335Y-3.345
X6.1335Y-3.345
X6.2335Y-3.345
X6.3335Y-3.345
X5.835Y-2.6341
X5.835Y-2.89
X6.0122Y-2.6341
X6.0122Y-2.89
T11
X6.155Y-3.75
X6.355Y-3.75
T3
G00X3.4252Y-4.4931
M15
G01X3.4252Y-4.5148
M16
G05
G00X3.7087Y-4.4931
M15
G01X3.7087Y-4.5148
M16
G05
T4
G00X3.4252Y-4.622
M15
G01X3.4252Y-4.6575
M16
G05
G00X3.7087Y-4.622
M15
G01X3.7087Y-4.6575
M16
G05
T5
G00X6.0512Y-4.0108
M15
G01X6.0079Y-4.0108
M16
G05
G00X6.0492Y-4.6309
M15
G01X6.0098Y-4.6309
M16
G05
T0
M30
